  0
SECTION
  2
HEADER
  9
$ACADVER
  1
AC1015
  9
$ACADMAINTVER
 70
    20
  9
$DWGCODEPAGE
  3
ANSI_1252
  9
$INSBASE
 10
0.0
 20
0.0
 30
0.0
  9
$EXTMIN
 10
9.153366291439432
 20
5.533693202303227
 30
0.0
  9
$EXTMAX
 10
81.40377938857003
 20
75.88339818197801
 30
0.0
  9
$LIMMIN
 10
0.0
 20
0.0
  9
$LIMMAX
 10
12.0
 20
9.0
  9
$ORTHOMODE
 70
     0
  9
$REGENMODE
 70
     1
  9
$FILLMODE
 70
     1
  9
$QTEXTMODE
 70
     0
  9
$MIRRTEXT
 70
     0
  9
$LTSCALE
 40
1.0
  9
$ATTMODE
 70
     1
  9
$TEXTSIZE
 40
0.2
  9
$TRACEWID
 40
0.05
  9
$TEXTSTYLE
  7
Standard
  9
$CLAYER
  8
0
  9
$CELTYPE
  6
ByLayer
  9
$CECOLOR
 62
   256
  9
$CELTSCALE
 40
1.0
  9
$DISPSILH
 70
     0
  9
$DIMSCALE
 40
1.0
  9
$DIMASZ
 40
0.18
  9
$DIMEXO
 40
0.0625
  9
$DIMDLI
 40
0.38
  9
$DIMRND
 40
0.0
  9
$DIMDLE
 40
0.0
  9
$DIMEXE
 40
0.18
  9
$DIMTP
 40
0.0
  9
$DIMTM
 40
0.0
  9
$DIMTXT
 40
0.18
  9
$DIMCEN
 40
0.09
  9
$DIMTSZ
 40
0.0
  9
$DIMTOL
 70
     0
  9
$DIMLIM
 70
     0
  9
$DIMTIH
 70
     1
  9
$DIMTOH
 70
     1
  9
$DIMSE1
 70
     0
  9
$DIMSE2
 70
     0
  9
$DIMTAD
 70
     0
  9
$DIMZIN
 70
     0
  9
$DIMBLK
  1

  9
$DIMASO
 70
     1
  9
$DIMSHO
 70
     1
  9
$DIMPOST
  1

  9
$DIMAPOST
  1

  9
$DIMALT
 70
     0
  9
$DIMALTD
 70
     2
  9
$DIMALTF
 40
25.4
  9
$DIMLFAC
 40
1.0
  9
$DIMTOFL
 70
     0
  9
$DIMTVP
 40
0.0
  9
$DIMTIX
 70
     0
  9
$DIMSOXD
 70
     0
  9
$DIMSAH
 70
     0
  9
$DIMBLK1
  1

  9
$DIMBLK2
  1

  9
$DIMSTYLE
  2
Standard
  9
$DIMCLRD
 70
     0
  9
$DIMCLRE
 70
     0
  9
$DIMCLRT
 70
     0
  9
$DIMTFAC
 40
1.0
  9
$DIMGAP
 40
0.09
  9
$DIMJUST
 70
     0
  9
$DIMSD1
 70
     0
  9
$DIMSD2
 70
     0
  9
$DIMTOLJ
 70
     1
  9
$DIMTZIN
 70
     0
  9
$DIMALTZ
 70
     0
  9
$DIMALTTZ
 70
     0
  9
$DIMUPT
 70
     0
  9
$DIMDEC
 70
     4
  9
$DIMTDEC
 70
     4
  9
$DIMALTU
 70
     2
  9
$DIMALTTD
 70
     2
  9
$DIMTXSTY
  7
Standard
  9
$DIMAUNIT
 70
     0
  9
$DIMADEC
 70
     0
  9
$DIMALTRND
 40
0.0
  9
$DIMAZIN
 70
     0
  9
$DIMDSEP
 70
    46
  9
$DIMATFIT
 70
     3
  9
$DIMFRAC
 70
     0
  9
$DIMLDRBLK
  1

  9
$DIMLUNIT
 70
     2
  9
$DIMLWD
 70
    -2
  9
$DIMLWE
 70
    -2
  9
$DIMTMOVE
 70
     0
  9
$LUNITS
 70
     2
  9
$LUPREC
 70
     4
  9
$SKETCHINC
 40
0.1
  9
$FILLETRAD
 40
0.0
  9
$AUNITS
 70
     0
  9
$AUPREC
 70
     0
  9
$MENU
  1
.
  9
$ELEVATION
 40
0.0
  9
$PELEVATION
 40
0.0
  9
$THICKNESS
 40
0.0
  9
$LIMCHECK
 70
     0
  9
$CHAMFERA
 40
0.0
  9
$CHAMFERB
 40
0.0
  9
$CHAMFERC
 40
0.0
  9
$CHAMFERD
 40
0.0
  9
$SKPOLY
 70
     0
  9
$TDCREATE
 40
2454938.360508912
  9
$TDUCREATE
 40
2454938.610508913
  9
$TDUPDATE
 40
2454938.361213994
  9
$TDUUPDATE
 40
2454938.611213993
  9
$TDINDWG
 40
0.0007086690
  9
$TDUSRTIMER
 40
0.0007086690
  9
$USRTIMER
 70
     1
  9
$ANGBASE
 50
0.0
  9
$ANGDIR
 70
     0
  9
$PDMODE
 70
     0
  9
$PDSIZE
 40
0.0
  9
$PLINEWID
 40
0.0
  9
$SPLFRAME
 70
     0
  9
$SPLINETYPE
 70
     6
  9
$SPLINESEGS
 70
     8
  9
$HANDSEED
  5
345
  9
$SURFTAB1
 70
     6
  9
$SURFTAB2
 70
     6
  9
$SURFTYPE
 70
     6
  9
$SURFU
 70
     6
  9
$SURFV
 70
     6
  9
$UCSBASE
  2

  9
$UCSNAME
  2

  9
$UCSORG
 10
0.0
 20
0.0
 30
0.0
  9
$UCSXDIR
 10
1.0
 20
0.0
 30
0.0
  9
$UCSYDIR
 10
0.0
 20
1.0
 30
0.0
  9
$UCSORTHOREF
  2

  9
$UCSORTHOVIEW
 70
     0
  9
$UCSORGTOP
 10
0.0
 20
0.0
 30
0.0
  9
$UCSORGBOTTOM
 10
0.0
 20
0.0
 30
0.0
  9
$UCSORGLEFT
 10
0.0
 20
0.0
 30
0.0
  9
$UCSORGRIGHT
 10
0.0
 20
0.0
 30
0.0
  9
$UCSORGFRONT
 10
0.0
 20
0.0
 30
0.0
  9
$UCSORGBACK
 10
0.0
 20
0.0
 30
0.0
  9
$PUCSBASE
  2

  9
$PUCSNAME
  2

  9
$PUCSORG
 10
0.0
 20
0.0
 30
0.0
  9
$PUCSXDIR
 10
1.0
 20
0.0
 30
0.0
  9
$PUCSYDIR
 10
0.0
 20
1.0
 30
0.0
  9
$PUCSORTHOREF
  2

  9
$PUCSORTHOVIEW
 70
     0
  9
$PUCSORGTOP
 10
0.0
 20
0.0
 30
0.0
  9
$PUCSORGBOTTOM
 10
0.0
 20
0.0
 30
0.0
  9
$PUCSORGLEFT
 10
0.0
 20
0.0
 30
0.0
  9
$PUCSORGRIGHT
 10
0.0
 20
0.0
 30
0.0
  9
$PUCSORGFRONT
 10
0.0
 20
0.0
 30
0.0
  9
$PUCSORGBACK
 10
0.0
 20
0.0
 30
0.0
  9
$USERI1
 70
     0
  9
$USERI2
 70
     0
  9
$USERI3
 70
     0
  9
$USERI4
 70
     0
  9
$USERI5
 70
     0
  9
$USERR1
 40
0.0
  9
$USERR2
 40
0.0
  9
$USERR3
 40
0.0
  9
$USERR4
 40
0.0
  9
$USERR5
 40
0.0
  9
$WORLDVIEW
 70
     1
  9
$SHADEDGE
 70
     3
  9
$SHADEDIF
 70
    70
  9
$TILEMODE
 70
     1
  9
$MAXACTVP
 70
    64
  9
$PINSBASE
 10
0.0
 20
0.0
 30
0.0
  9
$PLIMCHECK
 70
     0
  9
$PEXTMIN
 10
0.0
 20
0.0
 30
0.0
  9
$PEXTMAX
 10
0.0
 20
0.0
 30
0.0
  9
$PLIMMIN
 10
0.0
 20
0.0
  9
$PLIMMAX
 10
12.0
 20
9.0
  9
$UNITMODE
 70
     0
  9
$VISRETAIN
 70
     1
  9
$PLINEGEN
 70
     0
  9
$PSLTSCALE
 70
     1
  9
$TREEDEPTH
 70
  3020
  9
$CMLSTYLE
  2
Standard
  9
$CMLJUST
 70
     0
  9
$CMLSCALE
 40
1.0
  9
$PROXYGRAPHICS
 70
     1
  9
$MEASUREMENT
 70
     0
  9
$CELWEIGHT
370
    -1
  9
$ENDCAPS
280
     0
  9
$JOINSTYLE
280
     0
  9
$LWDISPLAY
290
     0
  9
$INSUNITS
 70
     1
  9
$HYPERLINKBASE
  1

  9
$STYLESHEET
  1

  9
$XEDIT
290
     1
  9
$CEPSNTYPE
380
     0
  9
$PSTYLEMODE
290
     1
  9
$FINGERPRINTGUID
  2
{FDEAD576-A652-11D2-9A35-0060089B3A3F}
  9
$VERSIONGUID
  2
{672CFFBE-ED1F-40C6-9EA3-96CD10779195}
  9
$EXTNAMES
290
     1
  9
$PSVPSCALE
 40
0.0
  9
$OLESTARTUP
290
     0
  0
ENDSEC
  0
SECTION
  2
CLASSES
  0
CLASS
  1
ACDBDICTIONARYWDFLT
  2
AcDbDictionaryWithDefault
  3
ObjectDBX Classes
 90
        0
280
     0
281
     0
  0
CLASS
  1
ACDBPLACEHOLDER
  2
AcDbPlaceHolder
  3
ObjectDBX Classes
 90
        0
280
     0
281
     0
  0
CLASS
  1
LAYOUT
  2
AcDbLayout
  3
ObjectDBX Classes
 90
        0
280
     0
281
     0
  0
CLASS
  1
DICTIONARYVAR
  2
AcDbDictionaryVar
  3
ObjectDBX Classes
 90
        0
280
     0
281
     0
  0
CLASS
  1
SORTENTSTABLE
  2
AcDbSortentsTable
  3
ObjectDBX Classes
 90
        0
280
     0
281
     0
  0
ENDSEC
  0
SECTION
  2
TABLES
  0
TABLE
  2
VPORT
  5
8
330
0
100
AcDbSymbolTable
 70
     3
  0
VPORT
  5
33B
330
8
100
AcDbSymbolTableRecord
100
AcDbViewportTableRecord
  2
*Active
 70
     0
 10
0.0
 20
0.0
 11
1.0
 21
1.0
 12
45.27857284000474
 22
40.70854569214062
 13
0.0
 23
0.0
 14
0.5
 24
0.5
 15
0.5
 25
0.5
 16
0.0
 26
0.0
 36
1.0
 17
0.0
 27
0.0
 37
0.0
 40
70.85764508783128
 41
1.48433734939759
 42
50.0
 43
0.0
 44
0.0
 50
0.0
 51
0.0
 71
     0
 72
  1000
 73
     1
 74
     3
 75
     0
 76
     0
 77
     0
 78
     0
281
     0
 65
     1
110
0.0
120
0.0
130
0.0
111
1.0
121
0.0
131
0.0
112
0.0
122
1.0
132
0.0
 79
     0
146
0.0
  0
ENDTAB
  0
TABLE
  2
LTYPE
  5
5
330
0
100
AcDbSymbolTable
 70
     3
  0
LTYPE
  5
14
330
5
100
AcDbSymbolTableRecord
100
AcDbLinetypeTableRecord
  2
ByBlock
 70
     0
  3

 72
    65
 73
     0
 40
0.0
  0
LTYPE
  5
15
330
5
100
AcDbSymbolTableRecord
100
AcDbLinetypeTableRecord
  2
ByLayer
 70
     0
  3

 72
    65
 73
     0
 40
0.0
  0
LTYPE
  5
16
330
5
100
AcDbSymbolTableRecord
100
AcDbLinetypeTableRecord
  2
Continuous
 70
     0
  3
Solid line
 72
    65
 73
     0
 40
0.0
  0
LTYPE
  5
96
330
5
100
AcDbSymbolTableRecord
100
AcDbLinetypeTableRecord
  2
DASHED2
 70
     0
  3
_ _ _ _ _ _ _ _ _ _ _ _ _ _ _ _ _ _ _ _ _ _ _ _
 72
    65
 73
     2
 40
0.375
 49
0.25
 74
     0
 49
-0.125
 74
     0
  0
LTYPE
  5
97
330
5
100
AcDbSymbolTableRecord
100
AcDbLinetypeTableRecord
  2
HIDDEN
 70
     0
  3
Hidden __ __ __ __ __ __ __ __ __ __ __ __ __ _
 72
    65
 73
     2
 40
0.375
 49
0.25
 74
     0
 49
-0.125
 74
     0
  0
ENDTAB
  0
TABLE
  2
LAYER
  5
2
102
{ACAD_XDICTIONARY
360
A4
102
}
330
0
100
AcDbSymbolTable
 70
     6
  0
LAYER
  5
10
330
2
100
AcDbSymbolTableRecord
100
AcDbLayerTableRecord
  2
0
 70
     0
 62
     7
  6
Continuous
370
    -3
390
F
  0
LAYER
  5
98
330
2
100
AcDbSymbolTableRecord
100
AcDbLayerTableRecord
  2
DIM
 70
     0
 62
     3
  6
Continuous
370
    13
390
F
  0
LAYER
  5
99
330
2
100
AcDbSymbolTableRecord
100
AcDbLayerTableRecord
  2
Defpoints
 70
     0
 62
   252
  6
Continuous
290
     0
370
    -3
390
F
  0
LAYER
  5
9A
330
2
100
AcDbSymbolTableRecord
100
AcDbLayerTableRecord
  2
A2 Hatch
 70
     0
 62
     8
  6
Continuous
370
     9
390
F
  0
LAYER
  5
9B
330
2
100
AcDbSymbolTableRecord
100
AcDbLayerTableRecord
  2
A5 heavy
 70
     0
 62
     5
  6
Continuous
370
    53
390
F
  0
LAYER
  5
9C
330
2
100
AcDbSymbolTableRecord
100
AcDbLayerTableRecord
  2
DETAILS
 70
     0
 62
     7
  6
Continuous
370
    13
390
F
  0
ENDTAB
  0
TABLE
  2
STYLE
  5
3
330
0
100
AcDbSymbolTable
 70
     4
  0
STYLE
  5
11
330
3
100
AcDbSymbolTableRecord
100
AcDbTextStyleTableRecord
  2
Standard
 70
     0
 40
0.0
 41
1.0
 50
0.0
 71
     0
 42
0.2
  3
txt
  4

  0
STYLE
  5
9D
330
3
100
AcDbSymbolTableRecord
100
AcDbTextStyleTableRecord
  2
ARCHITXT
 70
     0
 40
0.0
 41
1.25
 50
0.0
 71
     0
 42
1.0
  3
ARCHITXT.shx
  4

  0
STYLE
  5
9E
330
3
100
AcDbSymbolTableRecord
100
AcDbTextStyleTableRecord
  2
ARCTEXT
 70
     0
 40
0.0
 41
0.85
 50
0.0
 71
     0
 42
5.096770384644268
  3
arctext.shx
  4

  0
STYLE
  5
9F
330
3
100
AcDbSymbolTableRecord
100
AcDbTextStyleTableRecord
  2
RomanC
 70
     0
 40
5.0
 41
0.85
 50
0.0
 71
     0
 42
10.0
  3
romanc.shx
  4

  0
ENDTAB
  0
TABLE
  2
VIEW
  5
6
330
0
100
AcDbSymbolTable
 70
     0
  0
ENDTAB
  0
TABLE
  2
UCS
  5
7
330
0
100
AcDbSymbolTable
 70
     0
  0
ENDTAB
  0
TABLE
  2
APPID
  5
9
330
0
100
AcDbSymbolTable
 70
     1
  0
APPID
  5
12
330
9
100
AcDbSymbolTableRecord
100
AcDbRegAppTableRecord
  2
ACAD
 70
     0
  0
ENDTAB
  0
TABLE
  2
DIMSTYLE
  5
A
330
0
100
AcDbSymbolTable
 70
     5
100
AcDbDimStyleTable
 71
     0
  0
DIMSTYLE
105
27
330
A
100
AcDbSymbolTableRecord
100
AcDbDimStyleTableRecord
  2
Standard
 70
     0
340
11
  0
DIMSTYLE
105
A0
330
A
100
AcDbSymbolTableRecord
100
AcDbDimStyleTableRecord
  2
Copy of ROMANS
 70
     0
 41
0.75
 42
0.125
 43
0.125
 44
0.125
 73
     0
 74
     0
 77
     1
 78
     3
140
1.0
141
6.0
147
0.25
172
     1
175
     1
176
     2
177
     2
178
     2
271
     3
272
     3
273
     4
275
     1
277
     4
279
     2
284
     3
285
     3
286
     3
340
9D
  0
DIMSTYLE
105
A1
330
A
100
AcDbSymbolTableRecord
100
AcDbDimStyleTableRecord
  2
ARCTEXT
 70
     0
 40
0.0
 41
2.0
 42
1.0
 43
0.375
 44
0.1875
 73
     0
 74
     0
140
4.0
141
2.0
147
2.0
176
     2
177
     2
178
     2
277
     4
340
9E
341
8D
342
89
  0
DIMSTYLE
105
A2
330
A
100
AcDbSymbolTableRecord
100
AcDbDimStyleTableRecord
  2
ARCTEXT1-4
 70
     0
 41
2.0
 42
2.0
 43
2.0
 44
2.0
 73
     0
 74
     0
 77
     1
 78
     3
140
4.0
141
2.0
147
2.0
172
     1
175
     1
275
     1
277
     4
279
     2
340
9E
341
8D
342
89
  0
DIMSTYLE
105
A3
330
A
100
AcDbSymbolTableRecord
100
AcDbDimStyleTableRecord
  2
ARCTEXT 1-1
 70
     0
 40
0.0
 41
1.0
 42
1.0
 43
0.375
 44
0.1875
 73
     0
 74
     0
 77
     1
 78
     3
140
1.0
141
1.0
147
0.5
176
   256
177
   256
178
   256
277
     4
279
     2
340
9E
341
8D
342
89
  0
ENDTAB
  0
TABLE
  2
BLOCK_RECORD
  5
1
330
0
100
AcDbSymbolTable
 70
     4
  0
BLOCK_RECORD
  5
1F
330
1
100
AcDbSymbolTableRecord
100
AcDbBlockTableRecord
  2
*Model_Space
340
22
  0
BLOCK_RECORD
  5
58
330
1
100
AcDbSymbolTableRecord
100
AcDbBlockTableRecord
  2
*Paper_Space
340
59
  0
BLOCK_RECORD
  5
5D
330
1
100
AcDbSymbolTableRecord
100
AcDbBlockTableRecord
  2
*Paper_Space0
340
5E
  0
BLOCK_RECORD
  5
89
330
1
100
AcDbSymbolTableRecord
100
AcDbBlockTableRecord
  2
_ArchTick
340
0
  0
BLOCK_RECORD
  5
8D
330
1
100
AcDbSymbolTableRecord
100
AcDbBlockTableRecord
  2
arrow
340
0
310
2800000020000000200000000100080000000000000400000000000000000000000000000000000000000000000080000080000000808000800000008000800080800000C0C0C000C0DCC000F0CAA6000020400000206000002080000020A0000020C0000020E00000400000004020000040400000406000004080000040A0
310
000040C0000040E00000600000006020000060400000606000006080000060A0000060C0000060E00000800000008020000080400000806000008080000080A0000080C0000080E00000A0000000A0200000A0400000A0600000A0800000A0A00000A0C00000A0E00000C0000000C0200000C0400000C0600000C0800000C0
310
A00000C0C00000C0E00000E0000000E0200000E0400000E0600000E0800000E0A00000E0C00000E0E00040000000400020004000400040006000400080004000A0004000C0004000E00040200000402020004020400040206000402080004020A0004020C0004020E000404000004040200040404000404060004040800040
310
40A0004040C0004040E00040600000406020004060400040606000406080004060A0004060C0004060E00040800000408020004080400040806000408080004080A0004080C0004080E00040A0000040A0200040A0400040A0600040A0800040A0A00040A0C00040A0E00040C0000040C0200040C0400040C0600040C08000
310
40C0A00040C0C00040C0E00040E0000040E0200040E0400040E0600040E0800040E0A00040E0C00040E0E00080000000800020008000400080006000800080008000A0008000C0008000E00080200000802020008020400080206000802080008020A0008020C0008020E00080400000804020008040400080406000804080
310
008040A0008040C0008040E00080600000806020008060400080606000806080008060A0008060C0008060E00080800000808020008080400080806000808080008080A0008080C0008080E00080A0000080A0200080A0400080A0600080A0800080A0A00080A0C00080A0E00080C0000080C0200080C0400080C0600080C0
310
800080C0A00080C0C00080C0E00080E0000080E0200080E0400080E0600080E0800080E0A00080E0C00080E0E000C0000000C0002000C0004000C0006000C0008000C000A000C000C000C000E000C0200000C0202000C0204000C0206000C0208000C020A000C020C000C020E000C0400000C0402000C0404000C0406000C0
310
408000C040A000C040C000C040E000C0600000C0602000C0604000C0606000C0608000C060A000C060C000C060E000C0800000C0802000C0804000C0806000C0808000C080A000C080C000C080E000C0A00000C0A02000C0A04000C0A06000C0A08000C0A0A000C0A0C000C0A0E000C0C00000C0C02000C0C04000C0C06000
310
C0C08000C0C0A000F0FBFF00A4A0A000808080000000FF0000FF000000FFFF00FF000000FF00FF00FFFF0000FFFFFF0000000000000000000000000000000000000000000000000000000000000000000000000000000000000000000000000000000000000000000000000000000000000000000000000000000000000000
310
0000000000000000000000000000000000000000000000000000000000000000000000000000000000000000000000000000000000000000000000000000000000000000000000000000000000000000000000000000000000000000000000000000000000000000000000000000000000000000000000FA00000000000000
310
000000000000000000000000000000000000000000000000FA00000000000000000000000000000000000000000000000000000000000000FA0000000000000000000000000000000000000000000000000000FAFA000000FA00000000000000000000000000000000000000000000000000000000FAFA00FA000000000000
310
000000000000000000000000000000000000000000000000FAF7F7000000000000000000000000000000000000000000000000000000000000F7F7F7F7F7F70000000000000000000000000000000000000000000000000000F7F7F7F7F7F7F7F7F7F700000000000000000000000000000000000000000000F7F7F7F7F7F7
310
F7F7F7F7F7F7F7F7000000000000000000000000000000000000F7F7F7F7F7F7F7F7F7F7F7F7F7F7F7F7F7F70000000000FAFA00000000000000F7F7F7F7F7F7F7F7F7F7F7F7F7F7F7F7F7F7F7F7F7FAFAFAFA00000000000000F7F7F7F7F7F7F7F7F7F7F7F7F7F7F7F7F7F70000000000000000000000000000F7F7F7F7F7
310
F7F7F7F7F7F7F7F700000000000000000000000000000000000000F7F7F7F7F7F7F7F70000000000000000000000000000000000000000000000FAF7F7F70000000000000000000000000000000000000000000000000000FAFA00FA0000000000000000000000000000000000000000000000000000FAFA000000FA000000
310
00000000000000000000000000000000000000000000000000000000FA00000000000000000000000000000000000000000000000000000000000000FA00000000000000000000000000000000000000000000000000000000000000FA00000000000000000000000000000000000000000000000000000000000000000000
310
00000000000000000000000000000000000000000000000000000000000000000000000000000000000000000000000000000000000000000000000000000000000000000000000000000000000000000000000000000000000000000000000000000000000000000000000000000000000000000000000000000000000000
310
0000000000000000000000000000000000000000000000000000000000000000000000000000000000000000000000000000000000000000
1001
ACAD
1000
DesignCenter Data
1002
{
1070
     1
1070
     1
1002
}
  0
ENDTAB
  0
ENDSEC
  0
SECTION
  2
BLOCKS
  0
BLOCK
  5
20
330
1F
100
AcDbEntity
  8
0
100
AcDbBlockBegin
  2
*Model_Space
 70
     0
 10
0.0
 20
0.0
 30
0.0
  3
*Model_Space
  1

  0
ENDBLK
  5
21
330
1F
100
AcDbEntity
  8
0
100
AcDbBlockEnd
  0
BLOCK
  5
5A
330
58
100
AcDbEntity
 67
     1
  8
0
100
AcDbBlockBegin
  2
*Paper_Space
 70
     0
 10
0.0
 20
0.0
 30
0.0
  3
*Paper_Space
  1

  0
ENDBLK
  5
5B
330
58
100
AcDbEntity
 67
     1
  8
0
100
AcDbBlockEnd
  0
BLOCK
  5
5F
330
5D
100
AcDbEntity
  8
0
100
AcDbBlockBegin
  2
*Paper_Space0
 70
     0
 10
0.0
 20
0.0
 30
0.0
  3
*Paper_Space0
  1

  0
ENDBLK
  5
60
330
5D
100
AcDbEntity
  8
0
100
AcDbBlockEnd
  0
BLOCK
  5
8A
330
89
100
AcDbEntity
  8
0
100
AcDbBlockBegin
  2
_ArchTick
 70
     0
 10
0.0
 20
0.0
 30
0.0
  3
_ArchTick
  1

  0
LWPOLYLINE
  5
8B
330
89
100
AcDbEntity
  8
0
  6
ByBlock
 62
     0
100
AcDbPolyline
 90
        2
 70
     0
 43
0.15
 10
-0.5
 20
-0.5
 10
0.5
 20
0.5
  0
ENDBLK
  5
8C
330
89
100
AcDbEntity
  8
0
100
AcDbBlockEnd
  0
BLOCK
  5
8E
330
8D
100
AcDbEntity
  8
0
100
AcDbBlockBegin
  2
arrow
 70
     0
 10
0.0
 20
0.0
 30
0.0
  3
arrow
  1

  0
HATCH
  5
8F
330
8D
100
AcDbEntity
  8
DIM
 62
   253
100
AcDbHatch
 10
0.0
 20
0.0
 30
0.0
210
0.0
220
0.0
230
1.0
  2
SOLID
 70
     1
 71
     0
 91
        1
 92
        7
 72
     0
 73
     1
 93
        3
 10
-2.0
 20
0.5
 10
-2.0
 20
-0.5
 10
0.0
 20
0.0
 97
        0
 75
     0
 76
     1
 47
0.0337394080685346
 98
        1
 10
-1.103351122172171
 20
0.05064816270351
  0
LWPOLYLINE
  5
90
330
8D
100
AcDbEntity
  8
DIM
370
    15
100
AcDbPolyline
 90
        4
 70
     0
 43
0.0
 10
0.0
 20
0.0
 10
-2.0
 20
-0.5
 10
-2.0
 20
0.5
 10
0.0
 20
0.0
  0
LWPOLYLINE
  5
91
330
8D
100
AcDbEntity
  8
DIM
370
     9
100
AcDbPolyline
 90
        2
 70
     0
 43
0.0
 10
0.3742552490839444
 20
0.0935638122700766
 10
0.0
 20
0.0
  0
LWPOLYLINE
  5
92
330
8D
100
AcDbEntity
  8
DIM
370
     9
100
AcDbPolyline
 90
        3
 70
     0
 43
0.0
 10
-2.0
 20
-0.9831764405007561
 10
-2.0
 20
-0.5
 10
-2.46875
 20
-0.6171875
  0
LWPOLYLINE
  5
93
330
8D
100
AcDbEntity
  8
DIM
370
     9
100
AcDbPolyline
 90
        3
 70
     0
 43
0.0
 10
-2.0
 20
0.9831764405007561
 10
-2.0
 20
0.5
 10
-2.46875
 20
0.6171875
  0
LWPOLYLINE
  5
94
330
8D
100
AcDbEntity
  8
DIM
370
     9
100
AcDbPolyline
 90
        2
 70
     0
 43
0.0
 10
0.3742552490839444
 20
-0.0935638122700766
 10
0.0
 20
0.0
  0
ENDBLK
  5
95
330
8D
100
AcDbEntity
  8
0
100
AcDbBlockEnd
  0
ENDSEC
  0
SECTION
  2
ENTITIES
  0
MTEXT
  5
1EF
330
1F
100
AcDbEntity
  8
Defpoints
100
AcDbMText
 10
12.12836629143943
 20
9.133693202303227
 30
0.0
 40
3.0
 41
90.07999999999999
 71
     2
 72
     5
  1
{\L114\P}\P            
  7
RomanC
 73
     1
 44
1.0
1001
ACAD
1000
MTEXTBEGIN
1070
    73
1070
     1
1070
    44
1040
1.0
1070
    74
1070
     0
1000
MTEXTEND
  0
MTEXT
  5
1F0
330
1F
100
AcDbEntity
  8
DIM
100
AcDbMText
 10
49.22520795999857
 20
18.81253791070822
 30
0.0
 40
3.0
 41
71.41649521821006
 71
     2
 72
     5
  1
{\L2-4-2 WALL W/ RECESSED ON V-BUCK}\P               
  7
RomanC
 73
     1
 44
1.0
1001
ACAD
1000
MTEXTBEGIN
1070
    73
1070
     1
1070
    44
1040
1.0
1070
    74
1070
     0
1000
MTEXTEND
  0
LINE
  5
1F1
330
1F
100
AcDbEntity
  8
0
 62
     1
100
AcDbLine
 10
40.30376890242782
 20
74.10695048043817
 30
0.0
 11
42.30376890242782
 21
74.10695048043817
 31
0.0
  0
LINE
  5
1F2
330
1F
100
AcDbEntity
  8
0
  6
HIDDEN
 62
     1
 48
0.02
100
AcDbLine
 10
41.95376890242836
 20
74.60695048043817
 30
0.0
 11
41.95376890242836
 21
74.10695048043817
 31
0.0
  0
LINE
  5
1F3
330
1F
100
AcDbEntity
  8
0
  6
HIDDEN
 62
     1
 48
0.02
100
AcDbLine
 10
40.92876890242782
 20
74.60695048043817
 30
0.0
 11
40.92876890242782
 21
74.10695048043817
 31
0.0
  0
LINE
  5
1F4
330
1F
100
AcDbEntity
  8
0
  6
HIDDEN
 62
     1
 48
0.02
100
AcDbLine
 10
41.32876890242836
 20
74.60695048043817
 30
0.0
 11
41.32876890242836
 21
74.10695048043817
 31
0.0
  0
LINE
  5
1F5
330
1F
100
AcDbEntity
  8
0
  6
HIDDEN
 62
     1
 48
0.02
100
AcDbLine
 10
40.42442656487049
 20
74.60695048043817
 30
0.0
 11
40.92876890242782
 21
74.60695048043817
 31
0.0
  0
LINE
  5
1F6
330
1F
100
AcDbEntity
  8
0
  6
HIDDEN
 62
     1
 48
0.02
100
AcDbLine
 10
41.32876890242836
 20
74.60695048043817
 30
0.0
 11
41.95376890242836
 21
74.60695048043817
 31
0.0
  0
LINE
  5
1F7
330
1F
100
AcDbEntity
  8
0
  6
HIDDEN
 62
     1
 48
0.02
100
AcDbLine
 10
40.75376890242854
 20
74.35695048043817
 30
0.0
 11
40.75376890242854
 21
74.10695048043817
 31
0.0
  0
LINE
  5
1F8
330
1F
100
AcDbEntity
  8
0
  6
HIDDEN
 62
     1
 48
0.02
100
AcDbLine
 10
40.50376890242854
 20
74.35695048043817
 30
0.0
 11
40.75376890242854
 21
74.35695048043817
 31
0.0
  0
LINE
  5
1F9
330
1F
100
AcDbEntity
  8
0
 62
     1
100
AcDbLine
 10
34.30376890242782
 20
72.60640310630242
 30
0.0
 11
34.30376890242782
 21
62.10695048043818
 31
0.0
  0
LINE
  5
1FA
330
1F
100
AcDbEntity
  8
0
 62
     1
100
AcDbLine
 10
42.30376890242872
 20
75.24431557773368
 30
0.0
 11
42.30376890242782
 21
62.10695048043818
 31
0.0
  0
LINE
  5
1FB
330
1F
100
AcDbEntity
  8
0
 62
     1
100
AcDbLine
 10
34.30376890242782
 20
62.10695048043818
 30
0.0
 11
36.30376890242691
 21
62.10695048043818
 31
0.0
  0
LINE
  5
1FC
330
1F
100
AcDbEntity
  8
0
 62
     1
100
AcDbLine
 10
36.30376890242418
 20
73.23228556077992
 30
0.0
 11
36.30376890242782
 21
62.10695048043818
 31
0.0
  0
LINE
  5
1FD
330
1F
100
AcDbEntity
  8
0
 62
     1
100
AcDbLine
 10
40.30376890242417
 20
74.56603032383464
 30
0.0
 11
40.30376890242782
 21
62.10695048043818
 31
0.0
  0
LINE
  5
1FE
330
1F
100
AcDbEntity
  8
0
 62
     1
100
AcDbLine
 10
34.65376890242727
 20
72.71593253583524
 30
0.0
 11
34.65376890242727
 21
62.10695048043818
 31
0.0
  0
LINE
  5
1FF
330
1F
100
AcDbEntity
  8
0
 62
     1
100
AcDbLine
 10
41.95376890242745
 20
74.60695048043817
 30
0.0
 11
41.95376890242745
 21
74.10695048043817
 31
0.0
  0
LINE
  5
200
330
1F
100
AcDbEntity
  8
0
 62
     1
100
AcDbLine
 10
40.928768902426
 20
74.60695048043817
 30
0.0
 11
40.928768902426
 21
74.10695048043817
 31
0.0
  0
LINE
  5
201
330
1F
100
AcDbEntity
  8
0
 62
     1
100
AcDbLine
 10
41.32876890242745
 20
74.60695048043817
 30
0.0
 11
41.32876890242745
 21
74.10695048043817
 31
0.0
  0
LINE
  5
202
330
1F
100
AcDbEntity
  8
0
 62
     1
100
AcDbLine
 10
40.42442656487049
 20
74.60695048043817
 30
0.0
 11
40.92876890242691
 21
74.60695048043817
 31
0.0
  0
LINE
  5
203
330
1F
100
AcDbEntity
  8
0
 62
     1
100
AcDbLine
 10
41.32876890242745
 20
74.60695048043817
 30
0.0
 11
41.95376890242745
 21
74.60695048043817
 31
0.0
  0
LINE
  5
204
330
1F
100
AcDbEntity
  8
0
 62
     1
100
AcDbLine
 10
36.10376890242618
 20
73.16969731533163
 30
0.0
 11
36.10376890242709
 21
62.10695048043818
 31
0.0
  0
LINE
  5
205
330
1F
100
AcDbEntity
  8
0
 62
     1
100
AcDbLine
 10
40.50376890242673
 20
74.63385884922445
 30
0.0
 11
40.50376890242673
 21
62.10695048043818
 31
0.0
  0
LINE
  5
206
330
1F
100
AcDbEntity
  8
0
 62
     1
100
AcDbLine
 10
40.75376890242672
 20
74.35695048043817
 30
0.0
 11
40.75376890242672
 21
74.10695048043817
 31
0.0
  0
LINE
  5
207
330
1F
100
AcDbEntity
  8
0
 62
     1
100
AcDbLine
 10
40.50376890242673
 20
74.35695048043817
 30
0.0
 11
40.75376890242672
 21
74.35695048043817
 31
0.0
  0
LINE
  5
208
330
1F
100
AcDbEntity
  8
0
 62
     1
100
AcDbLine
 10
40.71876890242687
 20
74.10695048043817
 30
0.0
 11
42.30376890242782
 21
74.10695048043817
 31
0.0
  0
LINE
  5
209
330
1F
100
AcDbEntity
  8
0
 62
     1
100
AcDbLine
 10
40.71876890242687
 20
74.70677451401844
 30
0.0
 11
40.71876890242687
 21
62.10695048043818
 31
0.0
  0
LINE
  5
20A
330
1F
100
AcDbEntity
  8
0
 62
     1
100
AcDbLine
 10
41.5387689024284
 20
74.98487146811749
 30
0.0
 11
41.53876890242749
 21
62.10695048043818
 31
0.0
  0
LINE
  5
20B
330
1F
100
AcDbEntity
  8
A2 Hatch
  6
DASHED2
 48
0.15
100
AcDbLine
 10
40.87876890242855
 20
74.76103733433092
 30
0.0
 11
40.87876890242763
 21
62.10695048043818
 31
0.0
  0
LINE
  5
20C
330
1F
100
AcDbEntity
  8
A2 Hatch
  6
DASHED2
 48
0.15
100
AcDbLine
 10
41.37876890242764
 20
74.93060864780545
 30
0.0
 11
41.37876890242764
 21
62.10695048043818
 31
0.0
  0
LINE
  5
20D
330
1F
100
AcDbEntity
  8
A2 Hatch
  6
DASHED2
 48
0.15
100
AcDbLine
 10
35.06876890242724
 20
72.84580314513959
 30
0.0
 11
35.06876890242724
 21
62.10695048043818
 31
0.0
  0
LINE
  5
20E
330
1F
100
AcDbEntity
  8
A2 Hatch
  6
DASHED2
 48
0.15
100
AcDbLine
 10
35.88876890242695
 20
73.10241495147511
 30
0.0
 11
35.88876890242695
 21
62.10695048043818
 31
0.0
  0
LINE
  5
20F
330
1F
100
AcDbEntity
  8
0
 62
     1
100
AcDbLine
 10
35.22876890242709
 20
72.89587374149732
 30
0.0
 11
35.22876890242709
 21
62.10695048043818
 31
0.0
  0
LINE
  5
210
330
1F
100
AcDbEntity
  8
0
 62
     1
100
AcDbLine
 10
35.72876890242618
 20
73.05234435511692
 30
0.0
 11
35.72876890242709
 21
62.10695048043818
 31
0.0
  0
LINE
  5
211
330
1F
100
AcDbEntity
  8
0
 62
     1
100
AcDbLine
 10
40.30376890242691
 20
74.10695048043817
 30
0.0
 11
40.50376890242673
 21
74.10695048043817
 31
0.0
  0
LINE
  5
212
330
1F
100
AcDbEntity
  8
0
 62
     1
100
AcDbLine
 10
40.30376890242782
 20
62.10695048043818
 30
0.0
 11
42.30376890242782
 21
62.10695048043818
 31
0.0
  0
LINE
  5
213
330
1F
100
AcDbEntity
  8
DETAILS
 62
     6
370
    20
100
AcDbLine
 10
40.30376890242691
 20
66.08695048043819
 30
0.0
 11
36.30376890242691
 21
66.08695048043819
 31
0.0
  0
LINE
  5
214
330
1F
100
AcDbEntity
  8
DETAILS
 62
     6
370
    20
100
AcDbLine
 10
40.30376890242691
 20
70.62695048043815
 30
0.0
 11
36.30376890242691
 21
70.62695048043815
 31
0.0
  0
LINE
  5
215
330
1F
100
AcDbEntity
  8
DETAILS
 62
     6
370
    20
100
AcDbLine
 10
40.30376890242691
 20
65.60695048043772
 30
0.0
 11
36.30376890242691
 21
65.60695048043817
 31
0.0
  0
LINE
  5
216
330
1F
100
AcDbEntity
  8
DETAILS
 62
     6
370
    20
100
AcDbLine
 10
40.30376890242691
 20
65.69695048043787
 30
0.0
 11
36.30376890242691
 21
65.69695048043832
 31
0.0
  0
LINE
  5
217
330
1F
100
AcDbEntity
  8
DETAILS
 62
     6
370
    20
100
AcDbLine
 10
40.30376890242691
 20
65.99695048043805
 30
0.0
 11
36.30376890242691
 21
65.99695048043805
 31
0.0
  0
LINE
  5
218
330
1F
100
AcDbEntity
  8
DETAILS
 62
     6
370
    20
100
AcDbLine
 10
40.30376890242691
 20
70.71695048043739
 30
0.0
 11
36.30376890242691
 21
70.7169504804383
 31
0.0
  0
LINE
  5
219
330
1F
100
AcDbEntity
  8
DETAILS
 62
     6
370
    20
100
AcDbLine
 10
40.30376890242691
 20
71.01695048043757
 30
0.0
 11
36.30376890242691
 21
71.01695048043803
 31
0.0
  0
LINE
  5
21A
330
1F
100
AcDbEntity
  8
DETAILS
 62
     6
370
    20
100
AcDbLine
 10
36.49376890242469
 20
66.08695048043819
 30
0.0
 11
36.84376890242415
 21
66.08695048043819
 31
0.0
  0
LINE
  5
21B
330
1F
100
AcDbEntity
  8
DETAILS
 62
     6
370
    20
100
AcDbLine
 10
39.7437689024256
 20
66.08695048043819
 30
0.0
 11
40.0059009367816
 21
66.349082514791
 31
0.0
  0
LINE
  5
21C
330
1F
100
AcDbEntity
  8
DETAILS
 62
     6
370
    20
100
AcDbLine
 10
36.84376890242415
 20
66.08695048043819
 30
0.0
 11
36.58163686806815
 21
66.34908251479692
 31
0.0
  0
LINE
  5
21D
330
1F
100
AcDbEntity
  8
DETAILS
 62
     6
370
    20
100
AcDbLine
 10
39.75376890242673
 20
70.62695048043815
 30
0.0
 11
40.0059009367816
 21
70.37481844608146
 31
0.0
  0
LINE
  5
21E
330
1F
100
AcDbEntity
  8
DETAILS
 62
     6
370
    20
100
AcDbLine
 10
36.85376890242527
 20
70.62695048043815
 30
0.0
 11
36.58163686806997
 21
70.35481844608603
 31
0.0
  0
LINE
  5
21F
330
1F
100
AcDbEntity
  8
DETAILS
 62
     6
370
    20
100
AcDbLine
 10
40.09376890242596
 20
66.56121454914774
 30
0.0
 11
40.09376890242505
 21
70.16268641172655
 31
0.0
  0
LINE
  5
220
330
1F
100
AcDbEntity
  8
DETAILS
 62
     6
370
    20
100
AcDbLine
 10
36.49376890242469
 20
66.56121454915183
 30
0.0
 11
36.49376890242469
 21
70.14268641172884
 31
0.0
  0
ARC
  5
221
330
1F
100
AcDbEntity
  8
DETAILS
 62
     6
370
    20
100
AcDbCircle
 10
39.79376890242578
 20
66.56121454914774
 30
0.0
 40
0.3
100
AcDbArc
 50
314.9999999997973
 51
0.0
  0
ARC
  5
222
330
1F
100
AcDbEntity
  8
DETAILS
 62
     6
370
    20
100
AcDbCircle
 10
36.79376890242578
 20
66.56121454915137
 30
0.0
 40
0.3
100
AcDbArc
 50
180.0
 51
224.9999999996868
  0
ARC
  5
223
330
1F
100
AcDbEntity
  8
DETAILS
 62
     6
370
    20
100
AcDbCircle
 10
39.79376890242578
 20
70.1626864117261
 30
0.0
 40
0.3
100
AcDbArc
 50
0.0000000000260551
 51
44.99999999970522
  0
ARC
  5
224
330
1F
100
AcDbEntity
  8
DETAILS
 62
     6
370
    20
100
AcDbCircle
 10
36.79376890242578
 20
70.14268641172839
 30
0.0
 40
0.3
100
AcDbArc
 50
134.9999999997052
 51
180.0
  0
LINE
  5
225
330
1F
100
AcDbEntity
  8
DETAILS
 62
     6
370
    20
100
AcDbLine
 10
36.30376890242691
 20
71.10695048043817
 30
0.0
 11
36.85376890242527
 21
71.10695048043817
 31
0.0
  0
LINE
  5
226
330
1F
100
AcDbEntity
  8
DETAILS
 62
     6
370
    20
100
AcDbLine
 10
37.10376890242527
 20
71.15695048043836
 30
0.0
 11
37.10376890242527
 21
71.76126721652235
 31
0.0
  0
LINE
  5
227
330
1F
100
AcDbEntity
  8
DETAILS
 62
     6
370
    20
100
AcDbLine
 10
37.20376890242564
 20
71.15695048043836
 30
0.0
 11
37.20376890242564
 21
71.67483727264652
 31
0.0
  0
ARC
  5
228
330
1F
100
AcDbEntity
  8
DETAILS
 62
     6
370
    20
100
AcDbCircle
 10
37.26552656120488
 20
71.67907600799617
 30
0.0
 40
0.0619029506189981
100
AcDbArc
 50
134.9903235096027
 51
183.9263367617325
  0
LINE
  5
229
330
1F
100
AcDbEntity
  8
DETAILS
 62
     6
370
    20
100
AcDbLine
 10
39.553768902426
 20
71.10695048043772
 30
0.0
 11
39.75376890242673
 21
71.10695048043772
 31
0.0
  0
LINE
  5
22A
330
1F
100
AcDbEntity
  8
DETAILS
 62
     6
370
    20
100
AcDbLine
 10
39.50376890242673
 20
71.15695048043789
 30
0.0
 11
39.50376890242673
 21
71.76126721652235
 31
0.0
  0
LINE
  5
22B
330
1F
100
AcDbEntity
  8
DETAILS
 62
     6
370
    20
100
AcDbLine
 10
39.40376890242637
 20
71.15695048043789
 30
0.0
 11
39.40376890242637
 21
71.67483727264607
 31
0.0
  0
ARC
  5
22C
330
1F
100
AcDbEntity
  8
DETAILS
 62
     6
370
    20
100
AcDbCircle
 10
39.29151307042697
 20
71.671702220302
 30
0.0
 40
0.1122996009395304
100
AcDbArc
 50
1.599726146933115
 51
27.09751498394533
  0
LINE
  5
22D
330
1F
100
AcDbEntity
  8
DETAILS
 62
     6
370
    20
100
AcDbLine
 10
37.85376890242527
 20
71.15695048043789
 30
0.0
 11
37.85376890242527
 21
71.67483727264516
 31
0.0
  0
LINE
  5
22E
330
1F
100
AcDbEntity
  8
DETAILS
 62
     6
370
    20
100
AcDbLine
 10
37.95376890242564
 20
71.15695048043789
 30
0.0
 11
37.95376890242564
 21
71.67483727264652
 31
0.0
  0
ARC
  5
22F
330
1F
100
AcDbEntity
  8
DETAILS
 62
     6
370
    20
100
AcDbCircle
 10
37.90376890242455
 20
71.79269196621362
 30
0.0
 40
0.0935752503092939
100
AcDbArc
 50
311.7278668394931
 51
228.2721331609136
  0
ARC
  5
230
330
1F
100
AcDbEntity
  8
DETAILS
 62
     6
370
    20
100
AcDbCircle
 10
37.75376890242491
 20
71.67483727264516
 30
0.0
 40
0.1
100
AcDbArc
 50
0.0
 51
28.6972393524193
  0
ARC
  5
231
330
1F
100
AcDbEntity
  8
DETAILS
 62
     6
370
    20
100
AcDbCircle
 10
38.05376890242509
 20
71.67483727264652
 30
0.0
 40
0.1
100
AcDbArc
 50
151.3027606481172
 51
180.0
  0
LINE
  5
232
330
1F
100
AcDbEntity
  8
DETAILS
 62
     6
370
    20
100
AcDbLine
 10
38.65376890242727
 20
71.15695048043789
 30
0.0
 11
38.65376890242636
 21
71.67483727264516
 31
0.0
  0
LINE
  5
233
330
1F
100
AcDbEntity
  8
DETAILS
 62
     6
370
    20
100
AcDbLine
 10
38.75376890242673
 20
71.15695048043789
 30
0.0
 11
38.75376890242673
 21
71.67483727264607
 31
0.0
  0
ARC
  5
234
330
1F
100
AcDbEntity
  8
DETAILS
 62
     6
370
    20
100
AcDbCircle
 10
38.70376890242655
 20
71.79269196621317
 30
0.0
 40
0.0935752503091666
100
AcDbArc
 50
311.7278668395667
 51
228.2721331606193
  0
ARC
  5
235
330
1F
100
AcDbEntity
  8
DETAILS
 62
     6
370
    20
100
AcDbCircle
 10
38.55376890242691
 20
71.67483727264516
 30
0.0
 40
0.1
100
AcDbArc
 50
0.0
 51
28.6972393524193
  0
ARC
  5
236
330
1F
100
AcDbEntity
  8
DETAILS
 62
     6
370
    20
100
AcDbCircle
 10
38.85376890242709
 20
71.67483727264607
 30
0.0
 40
0.1
100
AcDbArc
 50
151.3027606481172
 51
180.0
  0
LINE
  5
237
330
1F
100
AcDbEntity
  8
DETAILS
 62
     6
370
    20
100
AcDbLine
 10
39.45376890242655
 20
71.88626721652235
 30
0.0
 11
40.30376890242691
 21
71.88626721652235
 31
0.0
  0
ARC
  5
238
330
1F
100
AcDbEntity
  8
DETAILS
 62
     6
370
    20
100
AcDbCircle
 10
37.16625590342495
 20
71.79522803993314
 30
0.0
 40
0.091207026586975
100
AcDbArc
 50
307.4863303690937
 51
93.47656839120459
  0
ARC
  5
239
330
1F
100
AcDbEntity
  8
DETAILS
 62
     6
370
    20
100
AcDbCircle
 10
39.45376890242655
 20
71.79269196621317
 30
0.0
 40
0.0935752503091878
100
AcDbArc
 50
90.0
 51
228.2720386612377
  0
LINE
  5
23A
330
1F
100
AcDbEntity
  8
DETAILS
 62
     6
370
    20
100
AcDbLine
 10
37.17178672839158
 20
71.88626721652235
 30
0.0
 11
36.303768902426
 21
71.88626721652235
 31
0.0
  0
LINE
  5
23B
330
1F
100
AcDbEntity
  8
DETAILS
 62
     6
370
    20
100
AcDbLine
 10
37.10376890242527
 20
71.76126721652235
 30
0.0
 11
36.303768902426
 21
71.76126721652235
 31
0.0
  0
LINE
  5
23C
330
1F
100
AcDbEntity
  8
DETAILS
 62
     6
370
    20
100
AcDbLine
 10
39.50376890242673
 20
71.76126721652235
 30
0.0
 11
40.30376890242691
 21
71.76126721652235
 31
0.0
  0
LINE
  5
23D
330
1F
100
AcDbEntity
  8
DETAILS
 62
     6
370
    20
100
AcDbLine
 10
39.35376890242709
 20
71.10695048043772
 30
0.0
 11
38.80376890242691
 21
71.10695048043817
 31
0.0
  0
LINE
  5
23E
330
1F
100
AcDbEntity
  8
DETAILS
 62
     6
370
    20
100
AcDbLine
 10
38.60376890242709
 20
71.10695048043817
 30
0.0
 11
38.00376890242491
 21
71.10695048043817
 31
0.0
  0
LINE
  5
23F
330
1F
100
AcDbEntity
  8
DETAILS
 62
     6
370
    20
100
AcDbLine
 10
37.80376890242509
 20
71.10695048043817
 30
0.0
 11
37.25376890242491
 21
71.10695048043817
 31
0.0
  0
LINE
  5
240
330
1F
100
AcDbEntity
  8
DETAILS
 62
     6
370
    20
100
AcDbLine
 10
37.05376890242418
 20
71.10695048043817
 30
0.0
 11
36.30376890242691
 21
71.10695048043817
 31
0.0
  0
ARC
  5
241
330
1F
100
AcDbEntity
  8
DETAILS
 62
     6
370
    20
100
AcDbCircle
 10
37.05376890242418
 20
71.15695048043836
 30
0.0
 40
0.05
100
AcDbArc
 50
270.0
 51
0.0
  0
ARC
  5
242
330
1F
100
AcDbEntity
  8
DETAILS
 62
     6
370
    20
100
AcDbCircle
 10
37.25376890242491
 20
71.15695048043836
 30
0.0
 40
0.05
100
AcDbArc
 50
180.0
 51
270.0
  0
ARC
  5
243
330
1F
100
AcDbEntity
  8
DETAILS
 62
     6
370
    20
100
AcDbCircle
 10
37.80376890242509
 20
71.15695048043789
 30
0.0
 40
0.05
100
AcDbArc
 50
270.0
 51
0.0
  0
ARC
  5
244
330
1F
100
AcDbEntity
  8
DETAILS
 62
     6
370
    20
100
AcDbCircle
 10
38.00376890242491
 20
71.15695048043789
 30
0.0
 40
0.05
100
AcDbArc
 50
180.0
 51
270.0
  0
ARC
  5
245
330
1F
100
AcDbEntity
  8
DETAILS
 62
     6
370
    20
100
AcDbCircle
 10
38.60376890242709
 20
71.15695048043789
 30
0.0
 40
0.05
100
AcDbArc
 50
270.0
 51
0.0
  0
ARC
  5
246
330
1F
100
AcDbEntity
  8
DETAILS
 62
     6
370
    20
100
AcDbCircle
 10
38.80376890242691
 20
71.15695048043789
 30
0.0
 40
0.05
100
AcDbArc
 50
180.0
 51
270.0
  0
ARC
  5
247
330
1F
100
AcDbEntity
  8
DETAILS
 62
     6
370
    20
100
AcDbCircle
 10
39.35376890242709
 20
71.15695048043789
 30
0.0
 40
0.05
100
AcDbArc
 50
270.0
 51
0.0
  0
ARC
  5
248
330
1F
100
AcDbEntity
  8
DETAILS
 62
     6
370
    20
100
AcDbCircle
 10
39.553768902426
 20
71.15695048043789
 30
0.0
 40
0.05
100
AcDbArc
 50
179.9999999999479
 51
270.0
  0
LINE
  5
249
330
1F
100
AcDbEntity
  8
DETAILS
 62
     6
370
    20
100
AcDbLine
 10
36.30376890242691
 20
71.10695048043817
 30
0.0
 11
40.30376890242691
 21
71.10695048043817
 31
0.0
  0
LINE
  5
24A
330
1F
100
AcDbEntity
  8
DETAILS
 62
     6
370
    20
100
AcDbLine
 10
37.05376890242418
 20
71.10695048043817
 30
0.0
 11
37.25376890242491
 21
71.10695048043817
 31
0.0
  0
LINE
  5
24B
330
1F
100
AcDbEntity
  8
DETAILS
 62
     6
370
    20
100
AcDbLine
 10
37.80376890242509
 20
71.10695048043817
 30
0.0
 11
38.00376890242491
 21
71.10695048043817
 31
0.0
  0
LINE
  5
24C
330
1F
100
AcDbEntity
  8
DETAILS
 62
     6
370
    20
100
AcDbLine
 10
38.60376890242709
 20
71.10695048043817
 30
0.0
 11
38.80376890242691
 21
71.10695048043817
 31
0.0
  0
LINE
  5
24D
330
1F
100
AcDbEntity
  8
DETAILS
 62
     6
370
    20
100
AcDbLine
 10
39.35376890242709
 20
71.10695048043817
 30
0.0
 11
39.553768902426
 21
71.10695048043817
 31
0.0
  0
LINE
  5
24E
330
1F
100
AcDbEntity
  8
DETAILS
 62
     6
370
    20
100
AcDbLine
 10
37.10376890242527
 20
66.08695048043819
 30
0.0
 11
37.20376890242564
 21
66.08695048043819
 31
0.0
  0
LINE
  5
24F
330
1F
100
AcDbEntity
  8
DETAILS
 62
     6
370
    20
100
AcDbLine
 10
37.17338051699348
 20
65.37302815773546
 30
0.0
 11
37.20376890242564
 21
65.60695048043817
 31
0.0
  0
LINE
  5
250
330
1F
100
AcDbEntity
  8
DETAILS
 62
     6
370
    20
100
AcDbLine
 10
37.13415728996564
 20
65.37302815773592
 30
0.0
 11
37.10376890242527
 21
65.60695048043817
 31
0.0
  0
ARC
  5
251
330
1F
100
AcDbEntity
  8
DETAILS
 62
     6
370
    20
100
AcDbCircle
 10
37.15376890347956
 20
65.37695048043815
 30
0.0
 40
0.02
100
AcDbArc
 50
191.3099324739691
 51
348.690067525944
  0
LINE
  5
252
330
1F
100
AcDbEntity
  8
DETAILS
 62
     6
370
    20
100
AcDbLine
 10
37.92338051594028
 20
65.37302815773546
 30
0.0
 11
37.95376890137244
 21
65.60695048043817
 31
0.0
  0
LINE
  5
253
330
1F
100
AcDbEntity
  8
DETAILS
 62
     6
370
    20
100
AcDbLine
 10
37.88415728891245
 20
65.37302815773592
 30
0.0
 11
37.85376890137208
 21
65.60695048043817
 31
0.0
  0
ARC
  5
254
330
1F
100
AcDbEntity
  8
DETAILS
 62
     6
370
    20
100
AcDbCircle
 10
37.90376890242637
 20
65.37695048043815
 30
0.0
 40
0.02
100
AcDbArc
 50
191.3099324739691
 51
348.690067525944
  0
LINE
  5
255
330
1F
100
AcDbEntity
  8
DETAILS
 62
     6
370
    20
100
AcDbLine
 10
38.72338051594137
 20
65.37302815773546
 30
0.0
 11
38.75376890137353
 21
65.60695048043817
 31
0.0
  0
LINE
  5
256
330
1F
100
AcDbEntity
  8
DETAILS
 62
     6
370
    20
100
AcDbLine
 10
38.68415728891354
 20
65.37302815773592
 30
0.0
 11
38.65376890137317
 21
65.60695048043817
 31
0.0
  0
ARC
  5
257
330
1F
100
AcDbEntity
  8
DETAILS
 62
     6
370
    20
100
AcDbCircle
 10
38.70376890242745
 20
65.37695048043815
 30
0.0
 40
0.02
100
AcDbArc
 50
191.3099324739691
 51
348.690067525944
  0
LINE
  5
258
330
1F
100
AcDbEntity
  8
DETAILS
 62
     6
370
    20
100
AcDbLine
 10
39.47338051594137
 20
65.37302815773546
 30
0.0
 11
39.50376890137354
 21
65.60695048043817
 31
0.0
  0
LINE
  5
259
330
1F
100
AcDbEntity
  8
DETAILS
 62
     6
370
    20
100
AcDbLine
 10
39.43415728891354
 20
65.37302815773592
 30
0.0
 11
39.40376890137317
 21
65.60695048043817
 31
0.0
  0
ARC
  5
25A
330
1F
100
AcDbEntity
  8
DETAILS
 62
     6
370
    20
100
AcDbCircle
 10
39.45376890242746
 20
65.37695048043815
 30
0.0
 40
0.02
100
AcDbArc
 50
191.3099324739691
 51
348.690067525944
  0
LINE
  5
25B
330
1F
100
AcDbEntity
  8
DETAILS
 62
     6
370
    20
100
AcDbLine
 10
36.84376890242415
 20
65.60695048043817
 30
0.0
 11
36.30376890242691
 21
65.08643501652205
 31
0.0
  0
LINE
  5
25C
330
1F
100
AcDbEntity
  8
DETAILS
 62
     6
370
    20
100
AcDbLine
 10
39.74376890242651
 20
65.60695048043772
 30
0.0
 11
40.30376890242691
 21
65.07266476615132
 31
0.0
  0
LINE
  5
25D
330
1F
100
AcDbEntity
  8
DETAILS
 62
     6
370
    20
100
AcDbLine
 10
39.75376890242673
 20
71.10695048043817
 30
0.0
 11
40.30376890242691
 21
71.63720689069396
 31
0.0
  0
LINE
  5
25E
330
1F
100
AcDbEntity
  8
DETAILS
 62
     6
370
    20
100
AcDbLine
 10
36.85376890242527
 20
71.10695048043817
 30
0.0
 11
36.30376890242782
 21
71.63720689069305
 31
0.0
  0
LINE
  5
25F
330
1F
100
AcDbEntity
  8
0
  6
HIDDEN
 62
     1
 48
0.02
100
AcDbLine
 10
34.65376890242727
 20
62.60695048043817
 30
0.0
 11
35.27876890242727
 21
62.60695048043817
 31
0.0
  0
LINE
  5
260
330
1F
100
AcDbEntity
  8
0
  6
HIDDEN
 62
     1
 48
0.02
100
AcDbLine
 10
35.67876890242691
 20
62.60695048043817
 30
0.0
 11
35.678768902426
 21
62.10695048043818
 31
0.0
  0
LINE
  5
261
330
1F
100
AcDbEntity
  8
0
  6
HIDDEN
 62
     1
 48
0.02
100
AcDbLine
 10
35.27876890242727
 20
62.60695048043817
 30
0.0
 11
35.27876890242819
 21
62.10695048043818
 31
0.0
  0
LINE
  5
262
330
1F
100
AcDbEntity
  8
0
  6
HIDDEN
 62
     1
 48
0.02
100
AcDbLine
 10
35.678768902426
 20
62.60695048043817
 30
0.0
 11
36.303768902426
 21
62.60695048043817
 31
0.0
  0
LINE
  5
263
330
1F
100
AcDbEntity
  8
0
  6
HIDDEN
 62
     1
 48
0.02
100
AcDbLine
 10
41.95376890242836
 20
62.60695048043817
 30
0.0
 11
41.95376890242836
 21
62.10695048043818
 31
0.0
  0
LINE
  5
264
330
1F
100
AcDbEntity
  8
0
  6
HIDDEN
 62
     1
 48
0.02
100
AcDbLine
 10
40.92876890242782
 20
62.60695048043817
 30
0.0
 11
40.92876890242782
 21
62.10695048043818
 31
0.0
  0
LINE
  5
265
330
1F
100
AcDbEntity
  8
0
  6
HIDDEN
 62
     1
 48
0.02
100
AcDbLine
 10
41.32876890242836
 20
62.60695048043817
 30
0.0
 11
41.32876890242836
 21
62.10695048043818
 31
0.0
  0
LINE
  5
266
330
1F
100
AcDbEntity
  8
0
  6
HIDDEN
 62
     1
 48
0.02
100
AcDbLine
 10
40.30376890242782
 20
62.60695048043817
 30
0.0
 11
40.92876890242782
 21
62.60695048043817
 31
0.0
  0
LINE
  5
267
330
1F
100
AcDbEntity
  8
0
  6
HIDDEN
 62
     1
 48
0.02
100
AcDbLine
 10
41.32876890242836
 20
62.60695048043817
 30
0.0
 11
41.95376890242836
 21
62.60695048043817
 31
0.0
  0
LINE
  5
268
330
1F
100
AcDbEntity
  8
0
  6
HIDDEN
 62
     1
 48
0.02
100
AcDbLine
 10
40.75376890242854
 20
62.35695048043818
 30
0.0
 11
40.75376890242854
 21
62.10695048043818
 31
0.0
  0
LINE
  5
269
330
1F
100
AcDbEntity
  8
0
  6
HIDDEN
 62
     1
 48
0.02
100
AcDbLine
 10
40.50376890242854
 20
62.35695048043818
 30
0.0
 11
40.75376890242854
 21
62.35695048043818
 31
0.0
  0
LINE
  5
26A
330
1F
100
AcDbEntity
  8
0
 62
     1
100
AcDbLine
 10
34.30376890242782
 20
62.10695048043818
 30
0.0
 11
34.30376890242782
 21
50.10695048043817
 31
0.0
  0
LINE
  5
26B
330
1F
100
AcDbEntity
  8
0
 62
     1
100
AcDbLine
 10
42.30376890242782
 20
62.10695048043818
 30
0.0
 11
42.30376890242782
 21
50.10695048043817
 31
0.0
  0
LINE
  5
26C
330
1F
100
AcDbEntity
  8
0
 62
     1
100
AcDbLine
 10
34.30376890242782
 20
62.10695048043818
 30
0.0
 11
35.85376890242709
 21
62.10695048043818
 31
0.0
  0
LINE
  5
26D
330
1F
100
AcDbEntity
  8
0
 62
     1
100
AcDbLine
 10
34.30376890242782
 20
50.10695048043817
 30
0.0
 11
36.30376890242691
 21
50.10695048043817
 31
0.0
  0
LINE
  5
26E
330
1F
100
AcDbEntity
  8
0
 62
     1
100
AcDbLine
 10
36.30376890242691
 20
62.60695048043817
 30
0.0
 11
36.30376890242782
 21
50.10695048043817
 31
0.0
  0
LINE
  5
26F
330
1F
100
AcDbEntity
  8
0
 62
     1
100
AcDbLine
 10
40.303768902426
 20
62.60695048043817
 30
0.0
 11
40.30376890242782
 21
50.10695048043817
 31
0.0
  0
LINE
  5
270
330
1F
100
AcDbEntity
  8
0
 62
     1
100
AcDbLine
 10
34.65376890242727
 20
62.60695048043817
 30
0.0
 11
35.27876890242727
 21
62.60695048043817
 31
0.0
  0
LINE
  5
271
330
1F
100
AcDbEntity
  8
0
 62
     1
100
AcDbLine
 10
34.65376890242727
 20
62.60695048043817
 30
0.0
 11
34.65376890242727
 21
50.10695048043817
 31
0.0
  0
LINE
  5
272
330
1F
100
AcDbEntity
  8
0
 62
     1
100
AcDbLine
 10
41.95376890242745
 20
62.60695048043817
 30
0.0
 11
41.95376890242745
 21
62.10695048043818
 31
0.0
  0
LINE
  5
273
330
1F
100
AcDbEntity
  8
0
 62
     1
100
AcDbLine
 10
35.67876890242691
 20
62.60695048043817
 30
0.0
 11
35.678768902426
 21
62.10695048043818
 31
0.0
  0
LINE
  5
274
330
1F
100
AcDbEntity
  8
0
 62
     1
100
AcDbLine
 10
35.27876890242727
 20
62.60695048043817
 30
0.0
 11
35.27876890242819
 21
62.10695048043818
 31
0.0
  0
LINE
  5
275
330
1F
100
AcDbEntity
  8
0
 62
     1
100
AcDbLine
 10
40.928768902426
 20
62.60695048043817
 30
0.0
 11
40.928768902426
 21
62.10695048043818
 31
0.0
  0
LINE
  5
276
330
1F
100
AcDbEntity
  8
0
 62
     1
100
AcDbLine
 10
41.32876890242745
 20
62.60695048043817
 30
0.0
 11
41.32876890242745
 21
62.10695048043818
 31
0.0
  0
LINE
  5
277
330
1F
100
AcDbEntity
  8
0
 62
     1
100
AcDbLine
 10
40.30376890242691
 20
62.60695048043817
 30
0.0
 11
40.92876890242691
 21
62.60695048043817
 31
0.0
  0
LINE
  5
278
330
1F
100
AcDbEntity
  8
0
 62
     1
100
AcDbLine
 10
41.32876890242745
 20
62.60695048043817
 30
0.0
 11
41.95376890242745
 21
62.60695048043817
 31
0.0
  0
LINE
  5
279
330
1F
100
AcDbEntity
  8
0
 62
     1
100
AcDbLine
 10
35.678768902426
 20
62.60695048043817
 30
0.0
 11
36.303768902426
 21
62.60695048043817
 31
0.0
  0
LINE
  5
27A
330
1F
100
AcDbEntity
  8
0
 62
     1
100
AcDbLine
 10
36.10376890242709
 20
62.35695048043818
 30
0.0
 11
36.10376890242709
 21
50.10695048043817
 31
0.0
  0
LINE
  5
27B
330
1F
100
AcDbEntity
  8
0
 62
     1
100
AcDbLine
 10
40.50376890242673
 20
62.35695048043818
 30
0.0
 11
40.50376890242673
 21
50.10695048043817
 31
0.0
  0
LINE
  5
27C
330
1F
100
AcDbEntity
  8
0
 62
     1
100
AcDbLine
 10
35.85376890242709
 20
62.35695048043818
 30
0.0
 11
35.85376890242709
 21
62.10695048043818
 31
0.0
  0
LINE
  5
27D
330
1F
100
AcDbEntity
  8
0
 62
     1
100
AcDbLine
 10
40.75376890242672
 20
62.35695048043818
 30
0.0
 11
40.75376890242672
 21
62.10695048043818
 31
0.0
  0
LINE
  5
27E
330
1F
100
AcDbEntity
  8
0
 62
     1
100
AcDbLine
 10
35.85376890242709
 20
62.35695048043818
 30
0.0
 11
36.10376890242709
 21
62.35695048043818
 31
0.0
  0
LINE
  5
27F
330
1F
100
AcDbEntity
  8
0
 62
     1
100
AcDbLine
 10
40.50376890242673
 20
62.35695048043818
 30
0.0
 11
40.75376890242672
 21
62.35695048043818
 31
0.0
  0
LINE
  5
280
330
1F
100
AcDbEntity
  8
0
 62
     1
100
AcDbLine
 10
40.71876890242687
 20
62.10695048043818
 30
0.0
 11
42.30376890242782
 21
62.10695048043818
 31
0.0
  0
LINE
  5
281
330
1F
100
AcDbEntity
  8
0
 62
     1
100
AcDbLine
 10
36.10376890242709
 20
62.10695048043818
 30
0.0
 11
36.303768902426
 21
62.10695048043818
 31
0.0
  0
LINE
  5
282
330
1F
100
AcDbEntity
  8
0
 62
     1
100
AcDbLine
 10
40.71876890242687
 20
62.10695048043818
 30
0.0
 11
40.71876890242687
 21
50.10695048043817
 31
0.0
  0
LINE
  5
283
330
1F
100
AcDbEntity
  8
0
 62
     1
100
AcDbLine
 10
41.53876890242749
 20
62.10695048043818
 30
0.0
 11
41.53876890242749
 21
50.10695048043817
 31
0.0
  0
LINE
  5
284
330
1F
100
AcDbEntity
  8
A2 Hatch
  6
DASHED2
 48
0.15
100
AcDbLine
 10
40.87876890242763
 20
62.10695048043818
 30
0.0
 11
40.87876890242763
 21
50.10695048043817
 31
0.0
  0
LINE
  5
285
330
1F
100
AcDbEntity
  8
A2 Hatch
  6
DASHED2
 48
0.15
100
AcDbLine
 10
41.37876890242764
 20
62.10695048043818
 30
0.0
 11
41.37876890242764
 21
50.10695048043817
 31
0.0
  0
LINE
  5
286
330
1F
100
AcDbEntity
  8
0
 48
0.15
100
AcDbLine
 10
35.27876890242727
 20
62.10695048043818
 30
0.0
 11
35.67876890242691
 21
62.10695048043818
 31
0.0
  0
LINE
  5
287
330
1F
100
AcDbEntity
  8
A2 Hatch
  6
DASHED2
 48
0.15
100
AcDbLine
 10
35.06876890242724
 20
62.60695048043817
 30
0.0
 11
35.06876890242724
 21
50.10695048043817
 31
0.0
  0
LINE
  5
288
330
1F
100
AcDbEntity
  8
A2 Hatch
  6
DASHED2
 48
0.15
100
AcDbLine
 10
35.88876890242695
 20
62.60695048043817
 30
0.0
 11
35.88876890242695
 21
50.10695048043817
 31
0.0
  0
LINE
  5
289
330
1F
100
AcDbEntity
  8
0
 62
     1
100
AcDbLine
 10
35.22876890242709
 20
62.60695048043817
 30
0.0
 11
35.22876890242709
 21
50.10695048043817
 31
0.0
  0
LINE
  5
28A
330
1F
100
AcDbEntity
  8
0
 62
     1
100
AcDbLine
 10
35.72876890242709
 20
62.60695048043817
 30
0.0
 11
35.72876890242709
 21
50.10695048043817
 31
0.0
  0
LINE
  5
28B
330
1F
100
AcDbEntity
  8
0
 62
     1
100
AcDbLine
 10
35.72876890242709
 20
62.10695048043818
 30
0.0
 11
35.22876890242709
 21
62.10695048043818
 31
0.0
  0
LINE
  5
28C
330
1F
100
AcDbEntity
  8
0
 62
     1
100
AcDbLine
 10
40.30376890242691
 20
62.10695048043818
 30
0.0
 11
40.50376890242673
 21
62.10695048043818
 31
0.0
  0
LINE
  5
28D
330
1F
100
AcDbEntity
  8
0
 62
     1
100
AcDbLine
 10
40.30376890242782
 20
50.10695048043817
 30
0.0
 11
42.30376890242782
 21
50.10695048043817
 31
0.0
  0
LINE
  5
28E
330
1F
100
AcDbEntity
  8
DETAILS
 62
     6
370
    20
100
AcDbLine
 10
40.30376890242691
 20
54.0869504804382
 30
0.0
 11
36.30376890242691
 21
54.0869504804382
 31
0.0
  0
LINE
  5
28F
330
1F
100
AcDbEntity
  8
DETAILS
 62
     6
370
    20
100
AcDbLine
 10
40.30376890242691
 20
58.62695048043816
 30
0.0
 11
36.30376890242691
 21
58.62695048043816
 31
0.0
  0
LINE
  5
290
330
1F
100
AcDbEntity
  8
DETAILS
 62
     6
370
    20
100
AcDbLine
 10
40.30376890242691
 20
53.60695048043773
 30
0.0
 11
36.30376890242691
 21
53.60695048043818
 31
0.0
  0
LINE
  5
291
330
1F
100
AcDbEntity
  8
DETAILS
 62
     6
370
    20
100
AcDbLine
 10
40.30376890242691
 20
53.69695048043787
 30
0.0
 11
36.30376890242691
 21
53.69695048043833
 31
0.0
  0
LINE
  5
292
330
1F
100
AcDbEntity
  8
DETAILS
 62
     6
370
    20
100
AcDbLine
 10
40.30376890242691
 20
53.99695048043805
 30
0.0
 11
36.30376890242691
 21
53.99695048043805
 31
0.0
  0
LINE
  5
293
330
1F
100
AcDbEntity
  8
DETAILS
 62
     6
370
    20
100
AcDbLine
 10
40.30376890242691
 20
58.7169504804374
 30
0.0
 11
36.30376890242691
 21
58.71695048043831
 31
0.0
  0
LINE
  5
294
330
1F
100
AcDbEntity
  8
DETAILS
 62
     6
370
    20
100
AcDbLine
 10
40.30376890242691
 20
59.01695048043758
 30
0.0
 11
36.30376890242691
 21
59.01695048043803
 31
0.0
  0
LINE
  5
295
330
1F
100
AcDbEntity
  8
DETAILS
 62
     6
370
    20
100
AcDbLine
 10
36.49376890242469
 20
54.0869504804382
 30
0.0
 11
36.84376890242415
 21
54.0869504804382
 31
0.0
  0
LINE
  5
296
330
1F
100
AcDbEntity
  8
DETAILS
 62
     6
370
    20
100
AcDbLine
 10
39.7437689024256
 20
54.0869504804382
 30
0.0
 11
40.0059009367816
 21
54.34908251479101
 31
0.0
  0
LINE
  5
297
330
1F
100
AcDbEntity
  8
DETAILS
 62
     6
370
    20
100
AcDbLine
 10
36.84376890242415
 20
54.0869504804382
 30
0.0
 11
36.58163686806815
 21
54.34908251479693
 31
0.0
  0
LINE
  5
298
330
1F
100
AcDbEntity
  8
DETAILS
 62
     6
370
    20
100
AcDbLine
 10
39.75376890242673
 20
58.62695048043816
 30
0.0
 11
40.0059009367816
 21
58.37481844608147
 31
0.0
  0
LINE
  5
299
330
1F
100
AcDbEntity
  8
DETAILS
 62
     6
370
    20
100
AcDbLine
 10
36.85376890242527
 20
58.62695048043816
 30
0.0
 11
36.58163686806997
 21
58.35481844608604
 31
0.0
  0
LINE
  5
29A
330
1F
100
AcDbEntity
  8
DETAILS
 62
     6
370
    20
100
AcDbLine
 10
40.09376890242596
 20
54.56121454914774
 30
0.0
 11
40.09376890242505
 21
58.16268641172656
 31
0.0
  0
LINE
  5
29B
330
1F
100
AcDbEntity
  8
DETAILS
 62
     6
370
    20
100
AcDbLine
 10
36.49376890242469
 20
54.56121454915184
 30
0.0
 11
36.49376890242469
 21
58.14268641172885
 31
0.0
  0
ARC
  5
29C
330
1F
100
AcDbEntity
  8
DETAILS
 62
     6
370
    20
100
AcDbCircle
 10
39.79376890242578
 20
54.56121454914774
 30
0.0
 40
0.3
100
AcDbArc
 50
314.9999999997973
 51
0.0
  0
ARC
  5
29D
330
1F
100
AcDbEntity
  8
DETAILS
 62
     6
370
    20
100
AcDbCircle
 10
36.79376890242578
 20
54.56121454915138
 30
0.0
 40
0.3
100
AcDbArc
 50
180.0
 51
224.9999999996868
  0
ARC
  5
29E
330
1F
100
AcDbEntity
  8
DETAILS
 62
     6
370
    20
100
AcDbCircle
 10
39.79376890242578
 20
58.1626864117261
 30
0.0
 40
0.3
100
AcDbArc
 50
0.0000000000260551
 51
44.99999999970522
  0
ARC
  5
29F
330
1F
100
AcDbEntity
  8
DETAILS
 62
     6
370
    20
100
AcDbCircle
 10
36.79376890242578
 20
58.1426864117284
 30
0.0
 40
0.3
100
AcDbArc
 50
134.9999999997052
 51
180.0
  0
LINE
  5
2A0
330
1F
100
AcDbEntity
  8
DETAILS
 62
     6
370
    20
100
AcDbLine
 10
36.30376890242691
 20
59.10695048043818
 30
0.0
 11
36.85376890242527
 21
59.10695048043818
 31
0.0
  0
LINE
  5
2A1
330
1F
100
AcDbEntity
  8
DETAILS
 62
     6
370
    20
100
AcDbLine
 10
37.10376890242527
 20
59.15695048043836
 30
0.0
 11
37.10376890242527
 21
59.76126721652236
 31
0.0
  0
LINE
  5
2A2
330
1F
100
AcDbEntity
  8
DETAILS
 62
     6
370
    20
100
AcDbLine
 10
37.20376890242564
 20
59.15695048043836
 30
0.0
 11
37.20376890242564
 21
59.67483727264653
 31
0.0
  0
ARC
  5
2A3
330
1F
100
AcDbEntity
  8
DETAILS
 62
     6
370
    20
100
AcDbCircle
 10
37.26552656120488
 20
59.67907600799618
 30
0.0
 40
0.0619029506189981
100
AcDbArc
 50
134.9903235096027
 51
183.9263367617325
  0
LINE
  5
2A4
330
1F
100
AcDbEntity
  8
DETAILS
 62
     6
370
    20
100
AcDbLine
 10
39.553768902426
 20
59.10695048043772
 30
0.0
 11
39.75376890242673
 21
59.10695048043772
 31
0.0
  0
LINE
  5
2A5
330
1F
100
AcDbEntity
  8
DETAILS
 62
     6
370
    20
100
AcDbLine
 10
39.50376890242673
 20
59.1569504804379
 30
0.0
 11
39.50376890242673
 21
59.76126721652236
 31
0.0
  0
LINE
  5
2A6
330
1F
100
AcDbEntity
  8
DETAILS
 62
     6
370
    20
100
AcDbLine
 10
39.40376890242637
 20
59.1569504804379
 30
0.0
 11
39.40376890242637
 21
59.67483727264608
 31
0.0
  0
ARC
  5
2A7
330
1F
100
AcDbEntity
  8
DETAILS
 62
     6
370
    20
100
AcDbCircle
 10
39.29151307042697
 20
59.671702220302
 30
0.0
 40
0.1122996009395304
100
AcDbArc
 50
1.599726146933115
 51
27.09751498394533
  0
LINE
  5
2A8
330
1F
100
AcDbEntity
  8
DETAILS
 62
     6
370
    20
100
AcDbLine
 10
37.85376890242527
 20
59.1569504804379
 30
0.0
 11
37.85376890242527
 21
59.67483727264517
 31
0.0
  0
LINE
  5
2A9
330
1F
100
AcDbEntity
  8
DETAILS
 62
     6
370
    20
100
AcDbLine
 10
37.95376890242564
 20
59.1569504804379
 30
0.0
 11
37.95376890242564
 21
59.67483727264653
 31
0.0
  0
ARC
  5
2AA
330
1F
100
AcDbEntity
  8
DETAILS
 62
     6
370
    20
100
AcDbCircle
 10
37.90376890242455
 20
59.79269196621363
 30
0.0
 40
0.0935752503092939
100
AcDbArc
 50
311.7278668394931
 51
228.2721331609136
  0
ARC
  5
2AB
330
1F
100
AcDbEntity
  8
DETAILS
 62
     6
370
    20
100
AcDbCircle
 10
37.75376890242491
 20
59.67483727264517
 30
0.0
 40
0.1
100
AcDbArc
 50
0.0
 51
28.6972393524193
  0
ARC
  5
2AC
330
1F
100
AcDbEntity
  8
DETAILS
 62
     6
370
    20
100
AcDbCircle
 10
38.05376890242509
 20
59.67483727264653
 30
0.0
 40
0.1
100
AcDbArc
 50
151.3027606481172
 51
180.0
  0
LINE
  5
2AD
330
1F
100
AcDbEntity
  8
DETAILS
 62
     6
370
    20
100
AcDbLine
 10
38.65376890242727
 20
59.1569504804379
 30
0.0
 11
38.65376890242636
 21
59.67483727264517
 31
0.0
  0
LINE
  5
2AE
330
1F
100
AcDbEntity
  8
DETAILS
 62
     6
370
    20
100
AcDbLine
 10
38.75376890242673
 20
59.1569504804379
 30
0.0
 11
38.75376890242673
 21
59.67483727264608
 31
0.0
  0
ARC
  5
2AF
330
1F
100
AcDbEntity
  8
DETAILS
 62
     6
370
    20
100
AcDbCircle
 10
38.70376890242655
 20
59.79269196621317
 30
0.0
 40
0.0935752503091666
100
AcDbArc
 50
311.7278668395667
 51
228.2721331606193
  0
ARC
  5
2B0
330
1F
100
AcDbEntity
  8
DETAILS
 62
     6
370
    20
100
AcDbCircle
 10
38.55376890242691
 20
59.67483727264517
 30
0.0
 40
0.1
100
AcDbArc
 50
0.0
 51
28.6972393524193
  0
ARC
  5
2B1
330
1F
100
AcDbEntity
  8
DETAILS
 62
     6
370
    20
100
AcDbCircle
 10
38.85376890242709
 20
59.67483727264608
 30
0.0
 40
0.1
100
AcDbArc
 50
151.3027606481172
 51
180.0
  0
LINE
  5
2B2
330
1F
100
AcDbEntity
  8
DETAILS
 62
     6
370
    20
100
AcDbLine
 10
39.45376890242655
 20
59.88626721652236
 30
0.0
 11
40.30376890242691
 21
59.88626721652236
 31
0.0
  0
ARC
  5
2B3
330
1F
100
AcDbEntity
  8
DETAILS
 62
     6
370
    20
100
AcDbCircle
 10
37.16625590342495
 20
59.79522803993314
 30
0.0
 40
0.091207026586975
100
AcDbArc
 50
307.4863303690937
 51
93.47656839120459
  0
ARC
  5
2B4
330
1F
100
AcDbEntity
  8
DETAILS
 62
     6
370
    20
100
AcDbCircle
 10
39.45376890242655
 20
59.79269196621317
 30
0.0
 40
0.0935752503091878
100
AcDbArc
 50
90.0
 51
228.2720386612377
  0
LINE
  5
2B5
330
1F
100
AcDbEntity
  8
DETAILS
 62
     6
370
    20
100
AcDbLine
 10
37.17178672839158
 20
59.88626721652236
 30
0.0
 11
36.303768902426
 21
59.88626721652236
 31
0.0
  0
LINE
  5
2B6
330
1F
100
AcDbEntity
  8
DETAILS
 62
     6
370
    20
100
AcDbLine
 10
37.10376890242527
 20
59.76126721652236
 30
0.0
 11
36.303768902426
 21
59.76126721652236
 31
0.0
  0
LINE
  5
2B7
330
1F
100
AcDbEntity
  8
DETAILS
 62
     6
370
    20
100
AcDbLine
 10
39.50376890242673
 20
59.76126721652236
 30
0.0
 11
40.30376890242691
 21
59.76126721652236
 31
0.0
  0
LINE
  5
2B8
330
1F
100
AcDbEntity
  8
DETAILS
 62
     6
370
    20
100
AcDbLine
 10
39.35376890242709
 20
59.10695048043772
 30
0.0
 11
38.80376890242691
 21
59.10695048043818
 31
0.0
  0
LINE
  5
2B9
330
1F
100
AcDbEntity
  8
DETAILS
 62
     6
370
    20
100
AcDbLine
 10
38.60376890242709
 20
59.10695048043818
 30
0.0
 11
38.00376890242491
 21
59.10695048043818
 31
0.0
  0
LINE
  5
2BA
330
1F
100
AcDbEntity
  8
DETAILS
 62
     6
370
    20
100
AcDbLine
 10
37.80376890242509
 20
59.10695048043818
 30
0.0
 11
37.25376890242491
 21
59.10695048043818
 31
0.0
  0
LINE
  5
2BB
330
1F
100
AcDbEntity
  8
DETAILS
 62
     6
370
    20
100
AcDbLine
 10
37.05376890242418
 20
59.10695048043818
 30
0.0
 11
36.30376890242691
 21
59.10695048043818
 31
0.0
  0
ARC
  5
2BC
330
1F
100
AcDbEntity
  8
DETAILS
 62
     6
370
    20
100
AcDbCircle
 10
37.05376890242418
 20
59.15695048043836
 30
0.0
 40
0.05
100
AcDbArc
 50
270.0
 51
0.0
  0
ARC
  5
2BD
330
1F
100
AcDbEntity
  8
DETAILS
 62
     6
370
    20
100
AcDbCircle
 10
37.25376890242491
 20
59.15695048043836
 30
0.0
 40
0.05
100
AcDbArc
 50
180.0
 51
270.0
  0
ARC
  5
2BE
330
1F
100
AcDbEntity
  8
DETAILS
 62
     6
370
    20
100
AcDbCircle
 10
37.80376890242509
 20
59.1569504804379
 30
0.0
 40
0.05
100
AcDbArc
 50
270.0
 51
0.0
  0
ARC
  5
2BF
330
1F
100
AcDbEntity
  8
DETAILS
 62
     6
370
    20
100
AcDbCircle
 10
38.00376890242491
 20
59.1569504804379
 30
0.0
 40
0.05
100
AcDbArc
 50
180.0
 51
270.0
  0
ARC
  5
2C0
330
1F
100
AcDbEntity
  8
DETAILS
 62
     6
370
    20
100
AcDbCircle
 10
38.60376890242709
 20
59.1569504804379
 30
0.0
 40
0.05
100
AcDbArc
 50
270.0
 51
0.0
  0
ARC
  5
2C1
330
1F
100
AcDbEntity
  8
DETAILS
 62
     6
370
    20
100
AcDbCircle
 10
38.80376890242691
 20
59.1569504804379
 30
0.0
 40
0.05
100
AcDbArc
 50
180.0
 51
270.0
  0
ARC
  5
2C2
330
1F
100
AcDbEntity
  8
DETAILS
 62
     6
370
    20
100
AcDbCircle
 10
39.35376890242709
 20
59.1569504804379
 30
0.0
 40
0.05
100
AcDbArc
 50
270.0
 51
0.0
  0
ARC
  5
2C3
330
1F
100
AcDbEntity
  8
DETAILS
 62
     6
370
    20
100
AcDbCircle
 10
39.553768902426
 20
59.1569504804379
 30
0.0
 40
0.05
100
AcDbArc
 50
179.9999999999479
 51
270.0
  0
LINE
  5
2C4
330
1F
100
AcDbEntity
  8
DETAILS
 62
     6
370
    20
100
AcDbLine
 10
36.30376890242691
 20
59.10695048043818
 30
0.0
 11
40.30376890242691
 21
59.10695048043818
 31
0.0
  0
LINE
  5
2C5
330
1F
100
AcDbEntity
  8
DETAILS
 62
     6
370
    20
100
AcDbLine
 10
37.05376890242418
 20
59.10695048043818
 30
0.0
 11
37.25376890242491
 21
59.10695048043818
 31
0.0
  0
LINE
  5
2C6
330
1F
100
AcDbEntity
  8
DETAILS
 62
     6
370
    20
100
AcDbLine
 10
37.80376890242509
 20
59.10695048043818
 30
0.0
 11
38.00376890242491
 21
59.10695048043818
 31
0.0
  0
LINE
  5
2C7
330
1F
100
AcDbEntity
  8
DETAILS
 62
     6
370
    20
100
AcDbLine
 10
38.60376890242709
 20
59.10695048043818
 30
0.0
 11
38.80376890242691
 21
59.10695048043818
 31
0.0
  0
LINE
  5
2C8
330
1F
100
AcDbEntity
  8
DETAILS
 62
     6
370
    20
100
AcDbLine
 10
39.35376890242709
 20
59.10695048043818
 30
0.0
 11
39.553768902426
 21
59.10695048043818
 31
0.0
  0
LINE
  5
2C9
330
1F
100
AcDbEntity
  8
DETAILS
 62
     6
370
    20
100
AcDbLine
 10
37.10376890242527
 20
54.0869504804382
 30
0.0
 11
37.20376890242564
 21
54.0869504804382
 31
0.0
  0
LINE
  5
2CA
330
1F
100
AcDbEntity
  8
DETAILS
 62
     6
370
    20
100
AcDbLine
 10
37.17338051699348
 20
53.37302815773547
 30
0.0
 11
37.20376890242564
 21
53.60695048043818
 31
0.0
  0
LINE
  5
2CB
330
1F
100
AcDbEntity
  8
DETAILS
 62
     6
370
    20
100
AcDbLine
 10
37.13415728996564
 20
53.37302815773592
 30
0.0
 11
37.10376890242527
 21
53.60695048043818
 31
0.0
  0
ARC
  5
2CC
330
1F
100
AcDbEntity
  8
DETAILS
 62
     6
370
    20
100
AcDbCircle
 10
37.15376890347956
 20
53.37695048043816
 30
0.0
 40
0.02
100
AcDbArc
 50
191.3099324739691
 51
348.690067525944
  0
LINE
  5
2CD
330
1F
100
AcDbEntity
  8
DETAILS
 62
     6
370
    20
100
AcDbLine
 10
37.92338051594028
 20
53.37302815773547
 30
0.0
 11
37.95376890137244
 21
53.60695048043818
 31
0.0
  0
LINE
  5
2CE
330
1F
100
AcDbEntity
  8
DETAILS
 62
     6
370
    20
100
AcDbLine
 10
37.88415728891245
 20
53.37302815773592
 30
0.0
 11
37.85376890137208
 21
53.60695048043818
 31
0.0
  0
ARC
  5
2CF
330
1F
100
AcDbEntity
  8
DETAILS
 62
     6
370
    20
100
AcDbCircle
 10
37.90376890242637
 20
53.37695048043816
 30
0.0
 40
0.02
100
AcDbArc
 50
191.3099324739691
 51
348.690067525944
  0
LINE
  5
2D0
330
1F
100
AcDbEntity
  8
DETAILS
 62
     6
370
    20
100
AcDbLine
 10
38.72338051594137
 20
53.37302815773547
 30
0.0
 11
38.75376890137353
 21
53.60695048043818
 31
0.0
  0
LINE
  5
2D1
330
1F
100
AcDbEntity
  8
DETAILS
 62
     6
370
    20
100
AcDbLine
 10
38.68415728891354
 20
53.37302815773592
 30
0.0
 11
38.65376890137317
 21
53.60695048043818
 31
0.0
  0
ARC
  5
2D2
330
1F
100
AcDbEntity
  8
DETAILS
 62
     6
370
    20
100
AcDbCircle
 10
38.70376890242745
 20
53.37695048043816
 30
0.0
 40
0.02
100
AcDbArc
 50
191.3099324739691
 51
348.690067525944
  0
LINE
  5
2D3
330
1F
100
AcDbEntity
  8
DETAILS
 62
     6
370
    20
100
AcDbLine
 10
39.47338051594137
 20
53.37302815773547
 30
0.0
 11
39.50376890137354
 21
53.60695048043818
 31
0.0
  0
LINE
  5
2D4
330
1F
100
AcDbEntity
  8
DETAILS
 62
     6
370
    20
100
AcDbLine
 10
39.43415728891354
 20
53.37302815773592
 30
0.0
 11
39.40376890137317
 21
53.60695048043818
 31
0.0
  0
ARC
  5
2D5
330
1F
100
AcDbEntity
  8
DETAILS
 62
     6
370
    20
100
AcDbCircle
 10
39.45376890242746
 20
53.37695048043816
 30
0.0
 40
0.02
100
AcDbArc
 50
191.3099324739691
 51
348.690067525944
  0
LINE
  5
2D6
330
1F
100
AcDbEntity
  8
DETAILS
 62
     6
370
    20
100
AcDbLine
 10
36.84376890242415
 20
53.60695048043818
 30
0.0
 11
36.30376890242691
 21
53.08643501652205
 31
0.0
  0
LINE
  5
2D7
330
1F
100
AcDbEntity
  8
DETAILS
 62
     6
370
    20
100
AcDbLine
 10
39.74376890242651
 20
53.60695048043773
 30
0.0
 11
40.30376890242691
 21
53.07266476615133
 31
0.0
  0
LINE
  5
2D8
330
1F
100
AcDbEntity
  8
DETAILS
 62
     6
370
    20
100
AcDbLine
 10
39.75376890242673
 20
59.10695048043818
 30
0.0
 11
40.30376890242691
 21
59.63720689069397
 31
0.0
  0
LINE
  5
2D9
330
1F
100
AcDbEntity
  8
DETAILS
 62
     6
370
    20
100
AcDbLine
 10
36.85376890242527
 20
59.10695048043818
 30
0.0
 11
36.30376890242782
 21
59.63720689069305
 31
0.0
  0
LINE
  5
2DA
330
1F
100
AcDbEntity
  8
0
  6
HIDDEN
 62
     1
 48
0.02
100
AcDbLine
 10
34.65376890242727
 20
50.60695048043818
 30
0.0
 11
35.27876890242727
 21
50.60695048043818
 31
0.0
  0
LINE
  5
2DB
330
1F
100
AcDbEntity
  8
0
  6
HIDDEN
 62
     1
 48
0.02
100
AcDbLine
 10
35.67876890242691
 20
50.60695048043818
 30
0.0
 11
35.678768902426
 21
50.10695048043817
 31
0.0
  0
LINE
  5
2DC
330
1F
100
AcDbEntity
  8
0
  6
HIDDEN
 62
     1
 48
0.02
100
AcDbLine
 10
35.27876890242727
 20
50.60695048043818
 30
0.0
 11
35.27876890242819
 21
50.10695048043817
 31
0.0
  0
LINE
  5
2DD
330
1F
100
AcDbEntity
  8
0
  6
HIDDEN
 62
     1
 48
0.02
100
AcDbLine
 10
35.678768902426
 20
50.60695048043818
 30
0.0
 11
36.303768902426
 21
50.60695048043818
 31
0.0
  0
LINE
  5
2DE
330
1F
100
AcDbEntity
  8
0
  6
HIDDEN
 62
     1
 48
0.02
100
AcDbLine
 10
41.95376890242836
 20
50.60695048043818
 30
0.0
 11
41.95376890242836
 21
50.10695048043817
 31
0.0
  0
LINE
  5
2DF
330
1F
100
AcDbEntity
  8
0
  6
HIDDEN
 62
     1
 48
0.02
100
AcDbLine
 10
40.92876890242782
 20
50.60695048043818
 30
0.0
 11
40.92876890242782
 21
50.10695048043817
 31
0.0
  0
LINE
  5
2E0
330
1F
100
AcDbEntity
  8
0
  6
HIDDEN
 62
     1
 48
0.02
100
AcDbLine
 10
41.32876890242836
 20
50.60695048043818
 30
0.0
 11
41.32876890242836
 21
50.10695048043817
 31
0.0
  0
LINE
  5
2E1
330
1F
100
AcDbEntity
  8
0
  6
HIDDEN
 62
     1
 48
0.02
100
AcDbLine
 10
40.30376890242782
 20
50.60695048043818
 30
0.0
 11
40.92876890242782
 21
50.60695048043818
 31
0.0
  0
LINE
  5
2E2
330
1F
100
AcDbEntity
  8
0
  6
HIDDEN
 62
     1
 48
0.02
100
AcDbLine
 10
41.32876890242836
 20
50.60695048043818
 30
0.0
 11
41.95376890242836
 21
50.60695048043818
 31
0.0
  0
LINE
  5
2E3
330
1F
100
AcDbEntity
  8
0
  6
HIDDEN
 62
     1
 48
0.02
100
AcDbLine
 10
40.75376890242854
 20
50.35695048043818
 30
0.0
 11
40.75376890242854
 21
50.10695048043817
 31
0.0
  0
LINE
  5
2E4
330
1F
100
AcDbEntity
  8
0
  6
HIDDEN
 62
     1
 48
0.02
100
AcDbLine
 10
40.50376890242854
 20
50.35695048043818
 30
0.0
 11
40.75376890242854
 21
50.35695048043818
 31
0.0
  0
LINE
  5
2E5
330
1F
100
AcDbEntity
  8
A5 heavy
 48
0.15
100
AcDbLine
 10
36.30376890242782
 20
50.10695048043817
 30
0.0
 11
40.30376890242782
 21
50.10695048043817
 31
0.0
  0
LWPOLYLINE
  5
2E6
330
1F
100
AcDbEntity
  8
0
 48
0.15
100
AcDbPolyline
 90
        4
 70
     1
 43
0.0
 10
36.80376890242782
 20
48.60695048043818
 10
36.80376890242782
 20
47.10695048043818
 10
42.4287689024269
 20
47.10695048043818
 10
42.4287689024269
 20
48.60695048043818
  0
LINE
  5
2E7
330
1F
100
AcDbEntity
  8
A2 Hatch
 48
0.15
100
AcDbLine
 10
42.4287689024269
 20
48.60695048043818
 30
0.0
 11
36.80376890242782
 21
47.10695048043818
 31
0.0
  0
LINE
  5
2E8
330
1F
100
AcDbEntity
  8
A2 Hatch
 48
0.15
100
AcDbLine
 10
42.4287689024269
 20
47.10695048043818
 30
0.0
 11
36.80376890242782
 21
48.60695048043818
 31
0.0
  0
LINE
  5
2E9
330
1F
100
AcDbEntity
  8
0
 48
0.15
100
AcDbLine
 10
42.80376890242872
 20
75.41388689120776
 30
0.0
 11
42.80376890242782
 21
46.60695048043818
 31
0.0
  0
LINE
  5
2EA
330
1F
100
AcDbEntity
  8
0
 48
0.15
100
AcDbLine
 10
33.80376890242782
 20
72.44993249268282
 30
0.0
 11
33.80376890242782
 21
48.10695048043863
 31
0.0
  0
LINE
  5
2EB
330
1F
100
AcDbEntity
  8
DIM
100
AcDbLine
 10
44.18817550148664
 20
75.88339818197801
 30
0.0
 11
39.21801502566463
 21
74.1978049018494
 31
0.0
  0
LINE
  5
2EC
330
1F
100
AcDbEntity
  8
DIM
100
AcDbLine
 10
39.92004728826591
 20
72.12778418839207
 30
0.0
 11
39.21801502566554
 21
74.1978049018494
 31
0.0
  0
LINE
  5
2ED
330
1F
100
AcDbEntity
  8
DIM
100
AcDbLine
 10
36.47290172998159
 20
75.57492974667685
 30
0.0
 11
37.17493399258195
 21
73.50490903321997
 31
0.0
  0
LINE
  5
2EE
330
1F
100
AcDbEntity
  8
DIM
100
AcDbLine
 10
37.17493399258195
 20
73.50490903321997
 30
0.0
 11
31.10758231895501
 21
71.60618455438452
 31
0.0
  0
LINE
  5
2EF
330
1F
100
AcDbEntity
  8
DIM
100
AcDbLine
 10
39.92004728826591
 20
72.12778418839207
 30
0.0
 11
36.47290172998159
 21
75.57492974667685
 31
0.0
  0
LINE
  5
2F0
330
1F
100
AcDbEntity
  8
0
 48
0.15
100
AcDbLine
 10
36.80376890242782
 20
48.33735685385683
 30
0.0
 11
36.80376890242782
 21
47.10695048043818
 31
0.0
  0
LINE
  5
2F1
330
1F
100
AcDbEntity
  8
0
 48
0.15
100
AcDbLine
 10
36.30376890242691
 20
48.10695048043954
 30
0.0
 11
36.30376890242782
 21
46.35695048043817
 31
0.0
  0
LINE
  5
2F2
330
1F
100
AcDbEntity
  8
0
 48
0.15
100
AcDbLine
 10
36.30376890242782
 20
46.35695048043817
 30
0.0
 11
36.42876890242782
 21
46.35695048043817
 31
0.0
  0
LINE
  5
2F3
330
1F
100
AcDbEntity
  8
0
 48
0.15
100
AcDbLine
 10
36.42876890242782
 20
46.35695048043817
 30
0.0
 11
36.42876890242782
 21
44.35695048043817
 31
0.0
  0
LINE
  5
2F4
330
1F
100
AcDbEntity
  8
0
 48
0.15
100
AcDbLine
 10
36.42876890242782
 20
44.35695048043817
 30
0.0
 11
36.30376890242782
 21
44.35695048043817
 31
0.0
  0
LINE
  5
2F5
330
1F
100
AcDbEntity
  8
0
 48
0.15
100
AcDbLine
 10
36.30376890242782
 20
44.35695048043817
 30
0.0
 11
36.30376890242782
 21
44.10695048043818
 31
0.0
  0
LINE
  5
2F6
330
1F
100
AcDbEntity
  8
0
 48
0.15
100
AcDbLine
 10
36.30376890242782
 20
44.10695048043818
 30
0.0
 11
36.73849767600235
 21
43.67222170686319
 31
0.0
  0
LINE
  5
2F7
330
1F
100
AcDbEntity
  8
0
 48
0.15
100
AcDbLine
 10
36.73849767600235
 20
43.67222170686319
 30
0.0
 11
37.29442485641916
 21
43.67222170686319
 31
0.0
  0
LINE
  5
2F8
330
1F
100
AcDbEntity
  8
0
 48
0.15
100
AcDbLine
 10
39.17322644957689
 20
44.10695048043818
 30
0.0
 11
38.73849767600236
 21
43.67222170686319
 31
0.0
  0
LINE
  5
2F9
330
1F
100
AcDbEntity
  8
0
 48
0.15
100
AcDbLine
 10
39.17322644957689
 20
44.10695048043818
 30
0.0
 11
39.17322644957689
 21
45.55661530583666
 31
0.0
  0
LINE
  5
2FA
330
1F
100
AcDbEntity
  8
0
 48
0.15
100
AcDbLine
 10
39.17322644957689
 20
45.55661530583666
 30
0.0
 11
39.67322644957689
 21
45.55661530583666
 31
0.0
  0
LINE
  5
2FB
330
1F
100
AcDbEntity
  8
0
 48
0.15
100
AcDbLine
 10
39.67322644957689
 20
45.55661530583666
 30
0.0
 11
39.67322644957689
 21
47.10695048043818
 31
0.0
  0
LINE
  5
2FC
330
1F
100
AcDbEntity
  8
0
 48
0.15
100
AcDbLine
 10
37.29442485642007
 20
44.53272609855549
 30
0.0
 11
37.29442485642007
 21
35.40561801985451
 31
0.0
  0
LINE
  5
2FD
330
1F
100
AcDbEntity
  8
0
 48
0.15
100
AcDbLine
 10
37.41942485642006
 20
44.53272609855549
 30
0.0
 11
37.41942485642006
 21
35.40561801985451
 31
0.0
  0
LINE
  5
2FE
330
1F
100
AcDbEntity
  8
0
 48
0.15
100
AcDbLine
 10
37.41942485642006
 20
44.53272609855549
 30
0.0
 11
37.29442485642007
 21
44.53272609855549
 31
0.0
  0
LINE
  5
2FF
330
1F
100
AcDbEntity
  8
0
 48
0.15
100
AcDbLine
 10
38.02435781406179
 20
44.53272609855549
 30
0.0
 11
38.02435781406179
 21
35.40561801985451
 31
0.0
  0
LINE
  5
300
330
1F
100
AcDbEntity
  8
0
 48
0.15
100
AcDbLine
 10
38.14935781406179
 20
44.53272609855549
 30
0.0
 11
38.14935781406179
 21
35.40561801985451
 31
0.0
  0
LINE
  5
301
330
1F
100
AcDbEntity
  8
0
 48
0.15
100
AcDbLine
 10
38.14935781406179
 20
44.53272609855549
 30
0.0
 11
38.02435781406179
 21
44.53272609855549
 31
0.0
  0
LINE
  5
302
330
1F
100
AcDbEntity
  8
0
 48
0.15
100
AcDbLine
 10
37.41942485642097
 20
43.67222170686319
 30
0.0
 11
38.02435781406179
 21
43.67222170686319
 31
0.0
  0
LINE
  5
303
330
1F
100
AcDbEntity
  8
0
 48
0.15
100
AcDbLine
 10
38.14935781406179
 20
43.67222170686319
 30
0.0
 11
38.73849767600236
 21
43.67222170686319
 31
0.0
  0
LINE
  5
304
330
1F
100
AcDbEntity
  8
0
 48
0.15
100
AcDbLine
 10
38.38464375745765
 20
44.37120383349021
 30
0.0
 11
38.14935781406179
 21
44.37120383349021
 31
0.0
  0
LINE
  5
305
330
1F
100
AcDbEntity
  8
0
 48
0.15
100
AcDbLine
 10
37.04697901330304
 20
44.37120383349021
 30
0.0
 11
37.04697901330304
 21
44.85329823339044
 31
0.0
  0
LINE
  5
306
330
1F
100
AcDbEntity
  8
0
 48
0.15
100
AcDbLine
 10
37.04697901330304
 20
44.85329823339044
 30
0.0
 11
37.19315928216032
 21
44.85329823339044
 31
0.0
  0
LINE
  5
307
330
1F
100
AcDbEntity
  8
0
 48
0.15
100
AcDbLine
 10
38.38464375745765
 20
44.37120383349021
 30
0.0
 11
38.38464375745765
 21
44.85329823339044
 31
0.0
  0
LINE
  5
308
330
1F
100
AcDbEntity
  8
0
 48
0.15
100
AcDbLine
 10
38.38464375745765
 20
44.85329823339044
 30
0.0
 11
38.23846348860037
 21
44.85329823339044
 31
0.0
  0
ARC
  5
309
330
1F
100
AcDbEntity
  8
0
 48
0.15
100
AcDbCircle
 10
37.71581138538035
 20
44.33064613017041
 30
0.0
 40
0.7391416927765827
100
AcDbArc
 50
45.0
 51
135.0
  0
LINE
  5
30A
330
1F
100
AcDbEntity
  8
0
 48
0.15
100
AcDbLine
 10
37.29442485641916
 20
44.37120383349021
 30
0.0
 11
37.04697901330304
 21
44.37120383349021
 31
0.0
  0
LINE
  5
30B
330
1F
100
AcDbEntity
  8
0
 48
0.15
100
AcDbLine
 10
38.02435781406179
 20
44.37120383349021
 30
0.0
 11
37.41942485642097
 21
44.37120383349021
 31
0.0
  0
LINE
  5
30C
330
1F
100
AcDbEntity
  8
0
 48
0.15
100
AcDbLine
 10
42.80376890242782
 20
46.60695048043818
 30
0.0
 11
39.67322644957689
 21
46.60695048043818
 31
0.0
  0
LINE
  5
30D
330
1F
100
AcDbEntity
  8
A5 heavy
 48
0.15
100
AcDbLine
 10
36.303768902426
 20
47.47215366714772
 30
0.0
 11
36.303768902426
 21
47.97215366714772
 31
0.0
  0
LINE
  5
30E
330
1F
100
AcDbEntity
  8
A5 heavy
 48
0.15
100
AcDbLine
 10
36.303768902426
 20
47.72215366714773
 30
0.0
 11
37.96521153284279
 21
47.72215366714728
 31
0.0
  0
MTEXT
  5
30F
330
1F
100
AcDbEntity
  8
DIM
 62
     3
100
AcDbMText
 10
51.73844237433254
 20
34.96676281616693
 30
0.0
 40
1.0
 41
22.68954545454545
 71
     1
 72
     5
  1
WINDOW BY OTHERS
  7
RomanC
 73
     1
 44
1.0
1001
ACAD
1000
MTEXTBEGIN
1070
    73
1070
     1
1070
    44
1040
1.0
1070
    74
1070
     0
1000
MTEXTEND
  0
MTEXT
  5
310
330
1F
100
AcDbEntity
  8
DIM
 62
     3
100
AcDbMText
 10
51.73844237433254
 20
49.60929036092148
 30
0.0
 40
1.0
 41
22.68954545454545
 71
     1
 72
     5
  1
V-BUCK FORM
  7
RomanC
 73
     1
 44
1.0
1001
ACAD
1000
MTEXTBEGIN
1070
    73
1070
     1
1070
    44
1040
1.0
1070
    74
1070
     0
1000
MTEXTEND
  0
MTEXT
  5
311
330
1F
100
AcDbEntity
  8
DIM
 62
     3
100
AcDbMText
 10
51.73844237433254
 20
61.03715506262325
 30
0.0
 40
1.0
 41
22.68954545454545
 71
     1
 72
     5
  1
INTERIOR GYPSUM WALLBOARD FASTEN TO TIES
  7
RomanC
 73
     1
 44
1.0
1001
ACAD
1000
MTEXTBEGIN
1070
    73
1070
     1
1070
    44
1040
1.0
1070
    74
1070
     0
1000
MTEXTEND
  0
MTEXT
  5
312
330
1F
100
AcDbEntity
  8
DIM
 62
     3
100
AcDbMText
 10
51.73844237433254
 20
66.33021315026872
 30
0.0
 40
1.0
 41
22.68954545454545
 71
     1
 72
     5
  1
REINFORCEMENT PER ENGINEER
  7
RomanC
 73
     1
 44
1.0
1001
ACAD
1000
MTEXTBEGIN
1070
    73
1070
     1
1070
    44
1040
1.0
1070
    74
1070
     0
1000
MTEXTEND
  0
LWPOLYLINE
  5
313
330
1F
100
AcDbEntity
  8
0
 48
0.15
100
AcDbPolyline
 90
        2
 70
     1
 43
0.25
 10
38.95811209339276
 20
59.43260957919257
 42
1.0
 10
39.20811209339276
 20
59.43260957919257
 42
1.0
  0
LWPOLYLINE
  5
314
330
1F
100
AcDbEntity
  8
0
 48
0.15
100
AcDbPolyline
 90
        2
 70
     1
 43
0.25
 10
37.40315983288578
 20
59.43260957919257
 42
1.0
 10
37.65315983288578
 20
59.43260957919257
 42
1.0
  0
LWPOLYLINE
  5
315
330
1F
100
AcDbEntity
  8
0
 48
0.15
100
AcDbPolyline
 90
        2
 70
     1
 43
0.25
 10
38.95811209339276
 20
53.25538664219267
 42
1.0
 10
39.20811209339276
 20
53.25538664219267
 42
1.0
  0
LWPOLYLINE
  5
316
330
1F
100
AcDbEntity
  8
0
 48
0.15
100
AcDbPolyline
 90
        2
 70
     1
 43
0.25
 10
37.40315983288578
 20
53.25538664219267
 42
1.0
 10
37.65315983288578
 20
53.25538664219267
 42
1.0
  0
LEADER
  5
317
330
1F
100
AcDbEntity
  8
DIM
 48
0.15
100
AcDbLeader
  3
ARCTEXT 1-1
 76
     3
 10
38.18194205132581
 20
39.969172059205
 30
0.0
 10
43.70008602374686
 20
34.45102808678394
 30
0.0
 10
50.78002373887843
 20
34.45102808678394
 30
0.0
1001
ACAD
1000
DSTYLE
1002
{
1070
    40
1040
1.0
1070
    41
1040
0.5
1070
    77
1070
     0
1002
}
  0
LEADER
  5
318
330
1F
100
AcDbEntity
  8
DIM
 48
0.15
100
AcDbLeader
  3
ARCTEXT 1-1
 76
     2
 10
42.30376890242782
 20
49.35695048043818
 30
0.0
 10
50.84730355347542
 20
49.35695048043818
 30
0.0
1001
ACAD
1000
DSTYLE
1002
{
1070
    40
1040
1.0
1070
    41
1040
0.5
1070
    77
1070
     0
1002
}
  0
LEADER
  5
319
330
1F
100
AcDbEntity
  8
DIM
 48
0.15
100
AcDbLeader
  3
ARCTEXT 1-1
 76
     2
 10
42.80376890242782
 20
60.46616154239883
 30
0.0
 10
50.98255488739791
 20
60.46616154239883
 30
0.0
1001
ACAD
1000
DSTYLE
1002
{
1070
    40
1040
1.0
1070
    41
1040
0.5
1070
    77
1070
     0
1002
}
  0
LEADER
  5
31A
330
1F
100
AcDbEntity
  8
DIM
 48
0.15
100
AcDbLeader
  3
ARCTEXT 1-1
 76
     3
 10
37.52815983288578
 20
59.30760957919257
 30
0.0
 10
44.09239002348125
 20
65.87183976978804
 30
0.0
 10
50.78066932997002
 20
65.87183976978804
 30
0.0
1001
ACAD
1000
DSTYLE
1002
{
1070
    40
1040
1.0
1070
    41
1040
0.5
1070
    77
1070
     0
1002
}
  0
LINE
  5
31B
330
1F
100
AcDbEntity
  8
A5 heavy
 48
0.15
100
AcDbLine
 10
34.17876890242782
 20
51.10695048043818
 30
0.0
 11
34.17876890242782
 21
48.60695048043863
 31
0.0
  0
LINE
  5
31C
330
1F
100
AcDbEntity
  8
A5 heavy
 48
0.15
100
AcDbLine
 10
34.17876890242782
 20
48.60695048043863
 30
0.0
 11
42.4287689024269
 21
48.60695048043863
 31
0.0
  0
LINE
  5
31D
330
1F
100
AcDbEntity
  8
A5 heavy
 48
0.15
100
AcDbLine
 10
42.42876890242782
 20
51.10695048043818
 30
0.0
 11
42.4287689024269
 21
48.60695048043863
 31
0.0
  0
LINE
  5
31E
330
1F
100
AcDbEntity
  8
A5 heavy
 48
0.15
100
AcDbLine
 10
42.30376890242782
 20
51.10695048043818
 30
0.0
 11
42.42876890242782
 21
51.10695048043818
 31
0.0
  0
LINE
  5
31F
330
1F
100
AcDbEntity
  8
A5 heavy
 48
0.15
100
AcDbLine
 10
34.30376890242782
 20
51.10695048043818
 30
0.0
 11
34.17876890242782
 21
51.10695048043818
 31
0.0
  0
LINE
  5
320
330
1F
100
AcDbEntity
  8
A2 Hatch
 48
0.15
100
AcDbLine
 10
35.48170207254056
 20
50.10695048043864
 30
0.0
 11
35.48170207254056
 21
48.60695048043863
 31
0.0
  0
LINE
  5
321
330
1F
100
AcDbEntity
  8
A2 Hatch
 48
0.15
100
AcDbLine
 10
41.11764397502897
 20
50.10695048043817
 30
0.0
 11
41.11764397502897
 21
48.60695048043863
 31
0.0
  0
LINE
  5
322
330
1F
100
AcDbEntity
  8
A2 Hatch
 48
0.15
100
AcDbLine
 10
37.77614437231581
 20
50.10695048043772
 30
0.0
 11
37.77614437231581
 21
48.60695048043863
 31
0.0
  0
LINE
  5
323
330
1F
100
AcDbEntity
  8
A2 Hatch
 48
0.15
100
AcDbLine
 10
38.83139343253983
 20
50.10695048043772
 30
0.0
 11
38.83139343253983
 21
48.60695048043863
 31
0.0
  0
LINE
  5
324
330
1F
100
AcDbEntity
  8
0
 48
0.15
100
AcDbLine
 10
33.80376890242782
 20
48.10695048043863
 30
0.0
 11
36.80376890242782
 21
48.10695048043909
 31
0.0
  0
LINE
  5
325
330
1F
100
AcDbEntity
  8
A5 heavy
 48
0.15
100
AcDbLine
 10
38.30376890242782
 20
50.10695048043817
 30
0.0
 11
38.30376890242782
 21
51.16816331554356
 31
0.0
  0
LINE
  5
326
330
1F
100
AcDbEntity
  8
A5 heavy
 48
0.15
100
AcDbLine
 10
38.30376890242782
 20
51.16816331554356
 30
0.0
 11
37.81445914805421
 21
51.16816331554356
 31
0.0
  0
LWPOLYLINE
  5
327
330
1F
100
AcDbEntity
  8
A5 heavy
 48
0.15
100
AcDbPolyline
 90
        3
 70
     0
 43
0.0
 10
42.30376890242782
 20
51.10695048043818
 10
42.30376890242782
 20
50.10695048043817
 10
40.30376890242782
 20
50.10695048043772
  0
LWPOLYLINE
  5
328
330
1F
100
AcDbEntity
  8
A5 heavy
 48
0.15
100
AcDbPolyline
 90
        3
 70
     0
 43
0.0
 10
36.30376890242782
 20
50.10695048043727
 10
34.30376890242691
 20
50.10695048043772
 10
34.30376890242782
 20
51.10695048043818
  0
LINE
  5
329
330
1F
100
AcDbEntity
  8
A5 heavy
 48
0.15
100
AcDbLine
 10
38.60140470473756
 20
47.10695048043818
 30
0.0
 11
38.10140470473756
 21
47.10695048043818
 31
0.0
  0
LINE
  5
32A
330
1F
100
AcDbEntity
  8
A5 heavy
 48
0.15
100
AcDbLine
 10
38.35140470473756
 20
47.10695048043818
 30
0.0
 11
38.35140470473756
 21
49.44297578059696
 31
0.0
  0
LINE
  5
32B
330
1F
100
AcDbEntity
  8
A5 heavy
 48
0.15
100
AcDbLine
 10
41.18351083924257
 20
47.10695048043818
 30
0.0
 11
40.68351083924257
 21
47.10695048043818
 31
0.0
  0
LINE
  5
32C
330
1F
100
AcDbEntity
  8
A5 heavy
 48
0.15
100
AcDbLine
 10
40.93351083924257
 20
47.10695048043818
 30
0.0
 11
40.93351083924257
 21
49.44297578059696
 31
0.0
  0
MTEXT
  5
32D
330
1F
100
AcDbEntity
  8
DIM
 62
     3
100
AcDbMText
 10
51.90729000205205
 20
42.34380520887953
 30
0.0
 40
1.0
 41
22.68954545454545
 71
     1
 72
     5
  1
WINDOW ATTACHMENT PER MANUFACTURER
  7
RomanC
 73
     1
 44
1.0
1001
ACAD
1000
MTEXTBEGIN
1070
    73
1070
     1
1070
    44
1040
1.0
1070
    74
1070
     0
1000
MTEXTEND
  0
LEADER
  5
32E
330
1F
100
AcDbEntity
  8
DIM
 48
0.15
100
AcDbLeader
  3
ARCTEXT 1-1
 76
     3
 10
37.93248806183341
 20
47.61908639930608
 30
0.0
 10
45.66477960980605
 20
41.73450090285178
 30
0.0
 10
50.88319819599032
 20
41.73450090285178
 30
0.0
1001
ACAD
1000
DSTYLE
1002
{
1070
    40
1040
1.0
1070
    41
1040
0.5
1070
    77
1070
     0
1002
}
  0
ENDSEC
  0
SECTION
  2
OBJECTS
  0
DICTIONARY
  5
C
330
0
100
AcDbDictionary
281
     1
  3
ACAD_COLOR
350
73
  3
ACAD_GROUP
350
D
  3
ACAD_LAYOUT
350
1A
  3
ACAD_MATERIAL
350
72
  3
ACAD_MLINESTYLE
350
17
  3
ACAD_PLOTSETTINGS
350
19
  3
ACAD_PLOTSTYLENAME
350
E
  3
ACDBHEADERROUNDTRIPXREC
350
33C
  3
AcDbVariableDictionary
350
66
  0
DICTIONARY
  5
A4
330
2
100
AcDbDictionary
280
     1
281
     1
  3
ACAD_LAYERSTATES
360
A5
  0
DICTIONARY
  5
73
102
{ACAD_REACTORS
330
C
102
}
330
C
100
AcDbDictionary
281
     1
  0
DICTIONARY
  5
D
102
{ACAD_REACTORS
330
C
102
}
330
C
100
AcDbDictionary
281
     1
  0
DICTIONARY
  5
1A
102
{ACAD_REACTORS
330
C
102
}
330
C
100
AcDbDictionary
281
     1
  3
Layout1
350
59
  3
Layout2
350
5E
  3
Model
350
22
  0
DICTIONARY
  5
72
102
{ACAD_REACTORS
330
C
102
}
330
C
100
AcDbDictionary
281
     1
  0
DICTIONARY
  5
17
102
{ACAD_REACTORS
330
C
102
}
330
C
100
AcDbDictionary
281
     1
  3
Standard
350
18
  0
DICTIONARY
  5
19
102
{ACAD_REACTORS
330
C
102
}
330
C
100
AcDbDictionary
281
     1
  0
ACDBDICTIONARYWDFLT
  5
E
102
{ACAD_REACTORS
330
C
102
}
330
C
100
AcDbDictionary
281
     1
  3
Normal
350
F
100
AcDbDictionaryWithDefault
340
F
  0
DICTIONARY
  5
33C
102
{ACAD_REACTORS
330
C
102
}
330
C
100
AcDbDictionary
281
     1
  3
COLORDICT
350
33E
  3
MATERIALDICT
350
33D
  0
DICTIONARY
  5
66
102
{ACAD_REACTORS
330
C
102
}
330
C
100
AcDbDictionary
281
     1
  3
DIMASSOC
350
67
  3
HIDETEXT
350
6B
  3
PROJECTNAME
350
33A
  0
DICTIONARY
  5
A5
102
{ACAD_REACTORS
330
A4
102
}
330
A4
100
AcDbDictionary
281
     1
  0
LAYOUT
  5
59
102
{ACAD_XDICTIONARY
360
341
102
}
102
{ACAD_REACTORS
330
1A
102
}
330
1A
100
AcDbPlotSettings
  1

  2
None
  4

  6

 40
0.0
 41
0.0
 42
0.0
 43
0.0
 44
0.0
 45
0.0
 46
0.0
 47
0.0
 48
0.0
 49
0.0
140
0.0
141
0.0
142
1.0
143
1.0
 70
   688
 72
     0
 73
     0
 74
     5
  7

 75
    16
147
1.0
148
0.0
149
0.0
100
AcDbLayout
  1
Layout1
 70
     1
 71
     1
 10
0.0
 20
0.0
 11
12.0
 21
9.0
 12
0.0
 22
0.0
 32
0.0
 14
0.0
 24
0.0
 34
0.0
 15
0.0
 25
0.0
 35
0.0
146
0.0
 13
0.0
 23
0.0
 33
0.0
 16
1.0
 26
0.0
 36
0.0
 17
0.0
 27
1.0
 37
0.0
 76
     0
330
58
  0
LAYOUT
  5
5E
102
{ACAD_XDICTIONARY
360
343
102
}
102
{ACAD_REACTORS
330
1A
102
}
330
1A
100
AcDbPlotSettings
  1

  2
None
  4

  6

 40
0.0
 41
0.0
 42
0.0
 43
0.0
 44
0.0
 45
0.0
 46
0.0
 47
0.0
 48
0.0
 49
0.0
140
0.0
141
0.0
142
1.0
143
1.0
 70
   688
 72
     0
 73
     0
 74
     5
  7

 75
    16
147
1.0
148
0.0
149
0.0
100
AcDbLayout
  1
Layout2
 70
     1
 71
     2
 10
0.0
 20
0.0
 11
12.0
 21
9.0
 12
0.0
 22
0.0
 32
0.0
 14
0.0
 24
0.0
 34
0.0
 15
0.0
 25
0.0
 35
0.0
146
0.0
 13
0.0
 23
0.0
 33
0.0
 16
1.0
 26
0.0
 36
0.0
 17
0.0
 27
1.0
 37
0.0
 76
     0
330
5D
  0
LAYOUT
  5
22
102
{ACAD_XDICTIONARY
360
33F
102
}
102
{ACAD_REACTORS
330
1A
102
}
330
1A
100
AcDbPlotSettings
  1

  2
none_device
  4
ANSI_A_(8.50_x_11.00_Inches)
  6

 40
6.349999904632568
 41
19.04999923706055
 42
6.350006103515625
 43
19.04998779296875
 44
215.8999938964844
 45
279.3999938964844
 46
0.0
 47
0.0
 48
0.0
 49
0.0
140
0.0
141
0.0
142
1.0
143
2.584895464708373
 70
 11952
 72
     0
 73
     1
 74
     0
  7

 75
     0
147
0.3868628397755418
148
0.0
149
0.0
100
AcDbLayout
  1
Model
 70
     1
 71
     0
 10
0.0
 20
0.0
 11
12.0
 21
9.0
 12
0.0
 22
0.0
 32
0.0
 14
0.0
 24
0.0
 34
0.0
 15
0.0
 25
0.0
 35
0.0
146
0.0
 13
0.0
 23
0.0
 33
0.0
 16
1.0
 26
0.0
 36
0.0
 17
0.0
 27
1.0
 37
0.0
 76
     0
330
1F
  0
MLINESTYLE
  5
18
102
{ACAD_REACTORS
330
17
102
}
330
17
100
AcDbMlineStyle
  2
STANDARD
 70
     0
  3

 62
   256
 51
90.0
 52
90.0
 71
     2
 49
0.5
 62
   256
  6
BYLAYER
 49
-0.5
 62
   256
  6
BYLAYER
  0
ACDBPLACEHOLDER
  5
F
102
{ACAD_REACTORS
330
E
102
}
330
E
  0
XRECORD
  5
33E
102
{ACAD_REACTORS
330
33C
102
}
330
33C
100
AcDbXrecord
280
     1
340
73
  0
XRECORD
  5
33D
102
{ACAD_REACTORS
330
33C
102
}
330
33C
100
AcDbXrecord
280
     1
340
72
  0
DICTIONARYVAR
  5
67
102
{ACAD_REACTORS
330
66
102
}
330
66
100
DictionaryVariables
280
     0
  1
2
  0
DICTIONARYVAR
  5
6B
102
{ACAD_REACTORS
330
66
102
}
330
66
100
DictionaryVariables
280
     0
  1
1
  0
DICTIONARYVAR
  5
33A
102
{ACAD_REACTORS
330
66
102
}
330
66
100
DictionaryVariables
280
     0
  1

  0
DICTIONARY
  5
341
330
59
100
AcDbDictionary
280
     1
281
     1
  3
ACAD_XREC_ROUNDTRIP
360
342
  0
DICTIONARY
  5
343
330
5E
100
AcDbDictionary
280
     1
281
     1
  3
ACAD_XREC_ROUNDTRIP
360
344
  0
DICTIONARY
  5
33F
330
22
100
AcDbDictionary
280
     1
281
     1
  3
ACAD_XREC_ROUNDTRIP
360
340
  0
XRECORD
  5
342
102
{ACAD_REACTORS
330
341
102
}
330
341
100
AcDbXrecord
280
     1
102
SHADEPLOT
 70
     0
102
SHADEPLOTRESLEVEL
 70
     2
102
SHADEPLOTCUSTOMDPI
 70
   300
  0
XRECORD
  5
344
102
{ACAD_REACTORS
330
343
102
}
330
343
100
AcDbXrecord
280
     1
102
SHADEPLOT
 70
     0
102
SHADEPLOTRESLEVEL
 70
     2
102
SHADEPLOTCUSTOMDPI
 70
   300
  0
XRECORD
  5
340
102
{ACAD_REACTORS
330
33F
102
}
330
33F
100
AcDbXrecord
280
     1
102
SHADEPLOT
 70
     0
102
SHADEPLOTRESLEVEL
 70
     2
102
SHADEPLOTCUSTOMDPI
 70
   300
  0
ENDSEC
  0
EOF
