  0
SECTION
  2
HEADER
  9
$ACADVER
  1
AC1015
  9
$ACADMAINTVER
 70
    20
  9
$DWGCODEPAGE
  3
ANSI_1252
  9
$INSBASE
 10
0.0
 20
0.0
 30
0.0
  9
$EXTMIN
 10
-18.56624847664781
 20
28.61656608226568
 30
-0.0015258207003583
  9
$EXTMAX
 10
55.14701093921897
 20
98.96993686745014
 30
0.0000000349246037
  9
$LIMMIN
 10
0.0
 20
0.0
  9
$LIMMAX
 10
12.0
 20
9.0
  9
$ORTHOMODE
 70
     0
  9
$REGENMODE
 70
     1
  9
$FILLMODE
 70
     1
  9
$QTEXTMODE
 70
     0
  9
$MIRRTEXT
 70
     0
  9
$LTSCALE
 40
1.0
  9
$ATTMODE
 70
     1
  9
$TEXTSIZE
 40
0.2
  9
$TRACEWID
 40
0.05
  9
$TEXTSTYLE
  7
Standard
  9
$CLAYER
  8
0
  9
$CELTYPE
  6
ByLayer
  9
$CECOLOR
 62
   256
  9
$CELTSCALE
 40
1.0
  9
$DISPSILH
 70
     0
  9
$DIMSCALE
 40
1.0
  9
$DIMASZ
 40
0.18
  9
$DIMEXO
 40
0.0625
  9
$DIMDLI
 40
0.38
  9
$DIMRND
 40
0.0
  9
$DIMDLE
 40
0.0
  9
$DIMEXE
 40
0.18
  9
$DIMTP
 40
0.0
  9
$DIMTM
 40
0.0
  9
$DIMTXT
 40
0.18
  9
$DIMCEN
 40
0.09
  9
$DIMTSZ
 40
0.0
  9
$DIMTOL
 70
     0
  9
$DIMLIM
 70
     0
  9
$DIMTIH
 70
     1
  9
$DIMTOH
 70
     1
  9
$DIMSE1
 70
     0
  9
$DIMSE2
 70
     0
  9
$DIMTAD
 70
     0
  9
$DIMZIN
 70
     0
  9
$DIMBLK
  1

  9
$DIMASO
 70
     1
  9
$DIMSHO
 70
     1
  9
$DIMPOST
  1

  9
$DIMAPOST
  1

  9
$DIMALT
 70
     0
  9
$DIMALTD
 70
     2
  9
$DIMALTF
 40
25.4
  9
$DIMLFAC
 40
1.0
  9
$DIMTOFL
 70
     0
  9
$DIMTVP
 40
0.0
  9
$DIMTIX
 70
     0
  9
$DIMSOXD
 70
     0
  9
$DIMSAH
 70
     0
  9
$DIMBLK1
  1

  9
$DIMBLK2
  1

  9
$DIMSTYLE
  2
Standard
  9
$DIMCLRD
 70
     0
  9
$DIMCLRE
 70
     0
  9
$DIMCLRT
 70
     0
  9
$DIMTFAC
 40
1.0
  9
$DIMGAP
 40
0.09
  9
$DIMJUST
 70
     0
  9
$DIMSD1
 70
     0
  9
$DIMSD2
 70
     0
  9
$DIMTOLJ
 70
     1
  9
$DIMTZIN
 70
     0
  9
$DIMALTZ
 70
     0
  9
$DIMALTTZ
 70
     0
  9
$DIMUPT
 70
     0
  9
$DIMDEC
 70
     4
  9
$DIMTDEC
 70
     4
  9
$DIMALTU
 70
     2
  9
$DIMALTTD
 70
     2
  9
$DIMTXSTY
  7
Standard
  9
$DIMAUNIT
 70
     0
  9
$DIMADEC
 70
     0
  9
$DIMALTRND
 40
0.0
  9
$DIMAZIN
 70
     0
  9
$DIMDSEP
 70
    46
  9
$DIMATFIT
 70
     3
  9
$DIMFRAC
 70
     0
  9
$DIMLDRBLK
  1

  9
$DIMLUNIT
 70
     2
  9
$DIMLWD
 70
    -2
  9
$DIMLWE
 70
    -2
  9
$DIMTMOVE
 70
     0
  9
$LUNITS
 70
     2
  9
$LUPREC
 70
     4
  9
$SKETCHINC
 40
0.1
  9
$FILLETRAD
 40
0.0
  9
$AUNITS
 70
     0
  9
$AUPREC
 70
     0
  9
$MENU
  1
.
  9
$ELEVATION
 40
0.0
  9
$PELEVATION
 40
0.0
  9
$THICKNESS
 40
0.0
  9
$LIMCHECK
 70
     0
  9
$CHAMFERA
 40
0.0
  9
$CHAMFERB
 40
0.0
  9
$CHAMFERC
 40
0.0
  9
$CHAMFERD
 40
0.0
  9
$SKPOLY
 70
     0
  9
$TDCREATE
 40
2454938.341299120
  9
$TDUCREATE
 40
2454938.591299121
  9
$TDUPDATE
 40
2454938.346581528
  9
$TDUUPDATE
 40
2454938.596581528
  9
$TDINDWG
 40
0.0052827662
  9
$TDUSRTIMER
 40
0.0052827662
  9
$USRTIMER
 70
     1
  9
$ANGBASE
 50
0.0
  9
$ANGDIR
 70
     0
  9
$PDMODE
 70
     0
  9
$PDSIZE
 40
0.0
  9
$PLINEWID
 40
0.0
  9
$SPLFRAME
 70
     0
  9
$SPLINETYPE
 70
     6
  9
$SPLINESEGS
 70
     8
  9
$HANDSEED
  5
838
  9
$SURFTAB1
 70
     6
  9
$SURFTAB2
 70
     6
  9
$SURFTYPE
 70
     6
  9
$SURFU
 70
     6
  9
$SURFV
 70
     6
  9
$UCSBASE
  2

  9
$UCSNAME
  2

  9
$UCSORG
 10
0.0
 20
0.0
 30
0.0
  9
$UCSXDIR
 10
1.0
 20
0.0
 30
0.0
  9
$UCSYDIR
 10
0.0
 20
1.0
 30
0.0
  9
$UCSORTHOREF
  2

  9
$UCSORTHOVIEW
 70
     0
  9
$UCSORGTOP
 10
0.0
 20
0.0
 30
0.0
  9
$UCSORGBOTTOM
 10
0.0
 20
0.0
 30
0.0
  9
$UCSORGLEFT
 10
0.0
 20
0.0
 30
0.0
  9
$UCSORGRIGHT
 10
0.0
 20
0.0
 30
0.0
  9
$UCSORGFRONT
 10
0.0
 20
0.0
 30
0.0
  9
$UCSORGBACK
 10
0.0
 20
0.0
 30
0.0
  9
$PUCSBASE
  2

  9
$PUCSNAME
  2

  9
$PUCSORG
 10
0.0
 20
0.0
 30
0.0
  9
$PUCSXDIR
 10
1.0
 20
0.0
 30
0.0
  9
$PUCSYDIR
 10
0.0
 20
1.0
 30
0.0
  9
$PUCSORTHOREF
  2

  9
$PUCSORTHOVIEW
 70
     0
  9
$PUCSORGTOP
 10
0.0
 20
0.0
 30
0.0
  9
$PUCSORGBOTTOM
 10
0.0
 20
0.0
 30
0.0
  9
$PUCSORGLEFT
 10
0.0
 20
0.0
 30
0.0
  9
$PUCSORGRIGHT
 10
0.0
 20
0.0
 30
0.0
  9
$PUCSORGFRONT
 10
0.0
 20
0.0
 30
0.0
  9
$PUCSORGBACK
 10
0.0
 20
0.0
 30
0.0
  9
$USERI1
 70
     0
  9
$USERI2
 70
     0
  9
$USERI3
 70
     0
  9
$USERI4
 70
     0
  9
$USERI5
 70
     0
  9
$USERR1
 40
0.0
  9
$USERR2
 40
0.0
  9
$USERR3
 40
0.0
  9
$USERR4
 40
0.0
  9
$USERR5
 40
0.0
  9
$WORLDVIEW
 70
     1
  9
$SHADEDGE
 70
     3
  9
$SHADEDIF
 70
    70
  9
$TILEMODE
 70
     1
  9
$MAXACTVP
 70
    64
  9
$PINSBASE
 10
0.0
 20
0.0
 30
0.0
  9
$PLIMCHECK
 70
     0
  9
$PEXTMIN
 10
0.0
 20
0.0
 30
0.0
  9
$PEXTMAX
 10
0.0
 20
0.0
 30
0.0
  9
$PLIMMIN
 10
0.0
 20
0.0
  9
$PLIMMAX
 10
12.0
 20
9.0
  9
$UNITMODE
 70
     0
  9
$VISRETAIN
 70
     1
  9
$PLINEGEN
 70
     0
  9
$PSLTSCALE
 70
     1
  9
$TREEDEPTH
 70
  3020
  9
$CMLSTYLE
  2
Standard
  9
$CMLJUST
 70
     0
  9
$CMLSCALE
 40
1.0
  9
$PROXYGRAPHICS
 70
     1
  9
$MEASUREMENT
 70
     0
  9
$CELWEIGHT
370
    -1
  9
$ENDCAPS
280
     0
  9
$JOINSTYLE
280
     0
  9
$LWDISPLAY
290
     0
  9
$INSUNITS
 70
     1
  9
$HYPERLINKBASE
  1

  9
$STYLESHEET
  1

  9
$XEDIT
290
     1
  9
$CEPSNTYPE
380
     0
  9
$PSTYLEMODE
290
     1
  9
$FINGERPRINTGUID
  2
{FDEAD576-A652-11D2-9A35-0060089B3A3F}
  9
$VERSIONGUID
  2
{DC97622A-455E-46F2-8BB3-4C3F5417D6CD}
  9
$EXTNAMES
290
     1
  9
$PSVPSCALE
 40
0.0
  9
$OLESTARTUP
290
     0
  0
ENDSEC
  0
SECTION
  2
CLASSES
  0
CLASS
  1
ACDBDICTIONARYWDFLT
  2
AcDbDictionaryWithDefault
  3
ObjectDBX Classes
 90
        0
280
     0
281
     0
  0
CLASS
  1
ACDBPLACEHOLDER
  2
AcDbPlaceHolder
  3
ObjectDBX Classes
 90
        0
280
     0
281
     0
  0
CLASS
  1
LAYOUT
  2
AcDbLayout
  3
ObjectDBX Classes
 90
        0
280
     0
281
     0
  0
CLASS
  1
DICTIONARYVAR
  2
AcDbDictionaryVar
  3
ObjectDBX Classes
 90
        0
280
     0
281
     0
  0
CLASS
  1
SORTENTSTABLE
  2
AcDbSortentsTable
  3
ObjectDBX Classes
 90
        0
280
     0
281
     0
  0
ENDSEC
  0
SECTION
  2
TABLES
  0
TABLE
  2
VPORT
  5
8
330
0
100
AcDbSymbolTable
 70
     6
  0
VPORT
  5
82E
330
8
100
AcDbSymbolTableRecord
100
AcDbViewportTableRecord
  2
*Active
 70
     0
 10
0.0
 20
0.0
 11
1.0
 21
1.0
 12
18.29038123128557
 22
63.79325147485791
 13
0.0
 23
0.0
 14
0.5
 24
0.5
 15
0.5
 25
0.5
 16
0.0
 26
0.0
 36
1.0
 17
0.0
 27
0.0
 37
0.0
 40
70.86133736125077
 41
1.48433734939759
 42
50.0
 43
0.0
 44
0.0
 50
0.0
 51
0.0
 71
     0
 72
  1000
 73
     1
 74
     3
 75
     0
 76
     0
 77
     0
 78
     0
281
     0
 65
     1
110
0.0
120
0.0
130
0.0
111
1.0
121
0.0
131
0.0
112
0.0
122
1.0
132
0.0
 79
     0
146
0.0
  0
ENDTAB
  0
TABLE
  2
LTYPE
  5
5
330
0
100
AcDbSymbolTable
 70
     3
  0
LTYPE
  5
14
330
5
100
AcDbSymbolTableRecord
100
AcDbLinetypeTableRecord
  2
ByBlock
 70
     0
  3

 72
    65
 73
     0
 40
0.0
  0
LTYPE
  5
15
330
5
100
AcDbSymbolTableRecord
100
AcDbLinetypeTableRecord
  2
ByLayer
 70
     0
  3

 72
    65
 73
     0
 40
0.0
  0
LTYPE
  5
16
330
5
100
AcDbSymbolTableRecord
100
AcDbLinetypeTableRecord
  2
Continuous
 70
     0
  3
Solid line
 72
    65
 73
     0
 40
0.0
  0
LTYPE
  5
96
330
5
100
AcDbSymbolTableRecord
100
AcDbLinetypeTableRecord
  2
DASHED2
 70
     0
  3
_ _ _ _ _ _ _ _ _ _ _ _ _ _ _ _ _ _ _ _ _ _ _ _
 72
    65
 73
     2
 40
0.375
 49
0.25
 74
     0
 49
-0.125
 74
     0
  0
LTYPE
  5
97
330
5
100
AcDbSymbolTableRecord
100
AcDbLinetypeTableRecord
  2
HIDDEN
 70
     0
  3
Hidden __ __ __ __ __ __ __ __ __ __ __ __ __ _
 72
    65
 73
     2
 40
0.375
 49
0.25
 74
     0
 49
-0.125
 74
     0
  0
ENDTAB
  0
TABLE
  2
LAYER
  5
2
102
{ACAD_XDICTIONARY
360
A4
102
}
330
0
100
AcDbSymbolTable
 70
     6
  0
LAYER
  5
10
330
2
100
AcDbSymbolTableRecord
100
AcDbLayerTableRecord
  2
0
 70
     0
 62
     7
  6
Continuous
370
    -3
390
F
  0
LAYER
  5
98
330
2
100
AcDbSymbolTableRecord
100
AcDbLayerTableRecord
  2
DIM
 70
     0
 62
     3
  6
Continuous
370
    13
390
F
  0
LAYER
  5
99
330
2
100
AcDbSymbolTableRecord
100
AcDbLayerTableRecord
  2
Defpoints
 70
     0
 62
   252
  6
Continuous
290
     0
370
    -3
390
F
  0
LAYER
  5
9A
330
2
100
AcDbSymbolTableRecord
100
AcDbLayerTableRecord
  2
A2 Hatch
 70
     0
 62
     8
  6
Continuous
370
     9
390
F
  0
LAYER
  5
9B
330
2
100
AcDbSymbolTableRecord
100
AcDbLayerTableRecord
  2
A5 heavy
 70
     0
 62
     5
  6
Continuous
370
    53
390
F
  0
LAYER
  5
9C
330
2
100
AcDbSymbolTableRecord
100
AcDbLayerTableRecord
  2
DETAILS
 70
     0
 62
     7
  6
Continuous
370
    13
390
F
  0
ENDTAB
  0
TABLE
  2
STYLE
  5
3
330
0
100
AcDbSymbolTable
 70
     4
  0
STYLE
  5
11
330
3
100
AcDbSymbolTableRecord
100
AcDbTextStyleTableRecord
  2
Standard
 70
     0
 40
0.0
 41
1.0
 50
0.0
 71
     0
 42
0.2
  3
txt
  4

  0
STYLE
  5
9D
330
3
100
AcDbSymbolTableRecord
100
AcDbTextStyleTableRecord
  2
ARCHITXT
 70
     0
 40
0.0
 41
1.25
 50
0.0
 71
     0
 42
1.0
  3
ARCHITXT.shx
  4

  0
STYLE
  5
9E
330
3
100
AcDbSymbolTableRecord
100
AcDbTextStyleTableRecord
  2
ARCTEXT
 70
     0
 40
0.0
 41
0.85
 50
0.0
 71
     0
 42
5.096770384644268
  3
arctext.shx
  4

  0
STYLE
  5
9F
330
3
100
AcDbSymbolTableRecord
100
AcDbTextStyleTableRecord
  2
RomanC
 70
     0
 40
5.0
 41
0.85
 50
0.0
 71
     0
 42
10.0
  3
romanc.shx
  4

  0
ENDTAB
  0
TABLE
  2
VIEW
  5
6
330
0
100
AcDbSymbolTable
 70
     0
  0
ENDTAB
  0
TABLE
  2
UCS
  5
7
330
0
100
AcDbSymbolTable
 70
     0
  0
ENDTAB
  0
TABLE
  2
APPID
  5
9
330
0
100
AcDbSymbolTable
 70
     1
  0
APPID
  5
12
330
9
100
AcDbSymbolTableRecord
100
AcDbRegAppTableRecord
  2
ACAD
 70
     0
  0
ENDTAB
  0
TABLE
  2
DIMSTYLE
  5
A
330
0
100
AcDbSymbolTable
 70
     5
100
AcDbDimStyleTable
 71
     0
  0
DIMSTYLE
105
27
330
A
100
AcDbSymbolTableRecord
100
AcDbDimStyleTableRecord
  2
Standard
 70
     0
340
11
  0
DIMSTYLE
105
A0
330
A
100
AcDbSymbolTableRecord
100
AcDbDimStyleTableRecord
  2
Copy of ROMANS
 70
     0
 41
0.75
 42
0.125
 43
0.125
 44
0.125
 73
     0
 74
     0
 77
     1
 78
     3
140
1.0
141
6.0
147
0.25
172
     1
175
     1
176
     2
177
     2
178
     2
271
     3
272
     3
273
     4
275
     1
277
     4
279
     2
284
     3
285
     3
286
     3
340
9D
  0
DIMSTYLE
105
A1
330
A
100
AcDbSymbolTableRecord
100
AcDbDimStyleTableRecord
  2
ARCTEXT
 70
     0
 40
0.0
 41
2.0
 42
1.0
 43
0.375
 44
0.1875
 73
     0
 74
     0
140
4.0
141
2.0
147
2.0
176
     2
177
     2
178
     2
277
     4
340
9E
341
8D
342
89
  0
DIMSTYLE
105
A2
330
A
100
AcDbSymbolTableRecord
100
AcDbDimStyleTableRecord
  2
ARCTEXT1-4
 70
     0
 41
2.0
 42
2.0
 43
2.0
 44
2.0
 73
     0
 74
     0
 77
     1
 78
     3
140
4.0
141
2.0
147
2.0
172
     1
175
     1
275
     1
277
     4
279
     2
340
9E
341
8D
342
89
  0
DIMSTYLE
105
A3
102
{ACAD_REACTORS
330
1E4
330
1E3
330
1E2
330
1E1
330
1E0
330
1DF
102
}
330
A
100
AcDbSymbolTableRecord
100
AcDbDimStyleTableRecord
  2
ARCTEXT 1-1
 70
     0
 40
0.0
 41
1.0
 42
1.0
 43
0.375
 44
0.1875
 73
     0
 74
     0
 77
     1
 78
     3
140
1.0
141
1.0
147
0.5
176
   256
177
   256
178
   256
277
     4
279
     2
340
9E
341
8D
342
89
  0
ENDTAB
  0
TABLE
  2
BLOCK_RECORD
  5
1
330
0
100
AcDbSymbolTable
 70
     6
  0
BLOCK_RECORD
  5
1F
330
1
100
AcDbSymbolTableRecord
100
AcDbBlockTableRecord
  2
*Model_Space
340
22
  0
BLOCK_RECORD
  5
58
330
1
100
AcDbSymbolTableRecord
100
AcDbBlockTableRecord
  2
*Paper_Space
340
59
  0
BLOCK_RECORD
  5
5D
330
1
100
AcDbSymbolTableRecord
100
AcDbBlockTableRecord
  2
*Paper_Space0
340
5E
  0
BLOCK_RECORD
  5
89
330
1
100
AcDbSymbolTableRecord
100
AcDbBlockTableRecord
  2
_ArchTick
340
0
  0
BLOCK_RECORD
  5
8D
330
1
100
AcDbSymbolTableRecord
100
AcDbBlockTableRecord
  2
arrow
340
0
310
2800000020000000200000000100080000000000000400000000000000000000000000000000000000000000000080000080000000808000800000008000800080800000C0C0C000C0DCC000F0CAA6000020400000206000002080000020A0000020C0000020E00000400000004020000040400000406000004080000040A0
310
000040C0000040E00000600000006020000060400000606000006080000060A0000060C0000060E00000800000008020000080400000806000008080000080A0000080C0000080E00000A0000000A0200000A0400000A0600000A0800000A0A00000A0C00000A0E00000C0000000C0200000C0400000C0600000C0800000C0
310
A00000C0C00000C0E00000E0000000E0200000E0400000E0600000E0800000E0A00000E0C00000E0E00040000000400020004000400040006000400080004000A0004000C0004000E00040200000402020004020400040206000402080004020A0004020C0004020E000404000004040200040404000404060004040800040
310
40A0004040C0004040E00040600000406020004060400040606000406080004060A0004060C0004060E00040800000408020004080400040806000408080004080A0004080C0004080E00040A0000040A0200040A0400040A0600040A0800040A0A00040A0C00040A0E00040C0000040C0200040C0400040C0600040C08000
310
40C0A00040C0C00040C0E00040E0000040E0200040E0400040E0600040E0800040E0A00040E0C00040E0E00080000000800020008000400080006000800080008000A0008000C0008000E00080200000802020008020400080206000802080008020A0008020C0008020E00080400000804020008040400080406000804080
310
008040A0008040C0008040E00080600000806020008060400080606000806080008060A0008060C0008060E00080800000808020008080400080806000808080008080A0008080C0008080E00080A0000080A0200080A0400080A0600080A0800080A0A00080A0C00080A0E00080C0000080C0200080C0400080C0600080C0
310
800080C0A00080C0C00080C0E00080E0000080E0200080E0400080E0600080E0800080E0A00080E0C00080E0E000C0000000C0002000C0004000C0006000C0008000C000A000C000C000C000E000C0200000C0202000C0204000C0206000C0208000C020A000C020C000C020E000C0400000C0402000C0404000C0406000C0
310
408000C040A000C040C000C040E000C0600000C0602000C0604000C0606000C0608000C060A000C060C000C060E000C0800000C0802000C0804000C0806000C0808000C080A000C080C000C080E000C0A00000C0A02000C0A04000C0A06000C0A08000C0A0A000C0A0C000C0A0E000C0C00000C0C02000C0C04000C0C06000
310
C0C08000C0C0A000F0FBFF00A4A0A000808080000000FF0000FF000000FFFF00FF000000FF00FF00FFFF0000FFFFFF0000000000000000000000000000000000000000000000000000000000000000000000000000000000000000000000000000000000000000000000000000000000000000000000000000000000000000
310
0000000000000000000000000000000000000000000000000000000000000000000000000000000000000000000000000000000000000000000000000000000000000000000000000000000000000000000000000000000000000000000000000000000000000000000000000000000000000000000000FA00000000000000
310
000000000000000000000000000000000000000000000000FA00000000000000000000000000000000000000000000000000000000000000FA0000000000000000000000000000000000000000000000000000FAFA000000FA00000000000000000000000000000000000000000000000000000000FAFA00FA000000000000
310
000000000000000000000000000000000000000000000000FAF7F7000000000000000000000000000000000000000000000000000000000000F7F7F7F7F7F70000000000000000000000000000000000000000000000000000F7F7F7F7F7F7F7F7F7F700000000000000000000000000000000000000000000F7F7F7F7F7F7
310
F7F7F7F7F7F7F7F7000000000000000000000000000000000000F7F7F7F7F7F7F7F7F7F7F7F7F7F7F7F7F7F70000000000FAFA00000000000000F7F7F7F7F7F7F7F7F7F7F7F7F7F7F7F7F7F7F7F7F7FAFAFAFA00000000000000F7F7F7F7F7F7F7F7F7F7F7F7F7F7F7F7F7F70000000000000000000000000000F7F7F7F7F7
310
F7F7F7F7F7F7F7F700000000000000000000000000000000000000F7F7F7F7F7F7F7F70000000000000000000000000000000000000000000000FAF7F7F70000000000000000000000000000000000000000000000000000FAFA00FA0000000000000000000000000000000000000000000000000000FAFA000000FA000000
310
00000000000000000000000000000000000000000000000000000000FA00000000000000000000000000000000000000000000000000000000000000FA00000000000000000000000000000000000000000000000000000000000000FA00000000000000000000000000000000000000000000000000000000000000000000
310
00000000000000000000000000000000000000000000000000000000000000000000000000000000000000000000000000000000000000000000000000000000000000000000000000000000000000000000000000000000000000000000000000000000000000000000000000000000000000000000000000000000000000
310
0000000000000000000000000000000000000000000000000000000000000000000000000000000000000000000000000000000000000000
1001
ACAD
1000
DesignCenter Data
1002
{
1070
     1
1070
     1
1002
}
  0
ENDTAB
  0
ENDSEC
  0
SECTION
  2
BLOCKS
  0
BLOCK
  5
20
330
1F
100
AcDbEntity
  8
0
100
AcDbBlockBegin
  2
*Model_Space
 70
     0
 10
0.0
 20
0.0
 30
0.0
  3
*Model_Space
  1

  0
ENDBLK
  5
21
330
1F
100
AcDbEntity
  8
0
100
AcDbBlockEnd
  0
BLOCK
  5
5A
330
58
100
AcDbEntity
 67
     1
  8
0
100
AcDbBlockBegin
  2
*Paper_Space
 70
     0
 10
0.0
 20
0.0
 30
0.0
  3
*Paper_Space
  1

  0
ENDBLK
  5
5B
330
58
100
AcDbEntity
 67
     1
  8
0
100
AcDbBlockEnd
  0
BLOCK
  5
5F
330
5D
100
AcDbEntity
  8
0
100
AcDbBlockBegin
  2
*Paper_Space0
 70
     0
 10
0.0
 20
0.0
 30
0.0
  3
*Paper_Space0
  1

  0
ENDBLK
  5
60
330
5D
100
AcDbEntity
  8
0
100
AcDbBlockEnd
  0
BLOCK
  5
8A
330
89
100
AcDbEntity
  8
0
100
AcDbBlockBegin
  2
_ArchTick
 70
     0
 10
0.0
 20
0.0
 30
0.0
  3
_ArchTick
  1

  0
LWPOLYLINE
  5
8B
330
89
100
AcDbEntity
  8
0
  6
ByBlock
 62
     0
100
AcDbPolyline
 90
        2
 70
     0
 43
0.15
 10
-0.5
 20
-0.5
 10
0.5
 20
0.5
  0
ENDBLK
  5
8C
330
89
100
AcDbEntity
  8
0
100
AcDbBlockEnd
  0
BLOCK
  5
8E
330
8D
100
AcDbEntity
  8
0
100
AcDbBlockBegin
  2
arrow
 70
     0
 10
0.0
 20
0.0
 30
0.0
  3
arrow
  1

  0
HATCH
  5
8F
330
8D
100
AcDbEntity
  8
DIM
 62
   253
100
AcDbHatch
 10
0.0
 20
0.0
 30
0.0
210
0.0
220
0.0
230
1.0
  2
SOLID
 70
     1
 71
     0
 91
        1
 92
        7
 72
     0
 73
     1
 93
        3
 10
-2.0
 20
0.5
 10
-2.0
 20
-0.5
 10
0.0
 20
0.0
 97
        0
 75
     0
 76
     1
 47
0.0337394080685346
 98
        1
 10
-1.103351122172171
 20
0.05064816270351
  0
LWPOLYLINE
  5
90
330
8D
100
AcDbEntity
  8
DIM
370
    15
100
AcDbPolyline
 90
        4
 70
     0
 43
0.0
 10
0.0
 20
0.0
 10
-2.0
 20
-0.5
 10
-2.0
 20
0.5
 10
0.0
 20
0.0
  0
LWPOLYLINE
  5
91
330
8D
100
AcDbEntity
  8
DIM
370
     9
100
AcDbPolyline
 90
        2
 70
     0
 43
0.0
 10
0.3742552490839444
 20
0.0935638122700766
 10
0.0
 20
0.0
  0
LWPOLYLINE
  5
92
330
8D
100
AcDbEntity
  8
DIM
370
     9
100
AcDbPolyline
 90
        3
 70
     0
 43
0.0
 10
-2.0
 20
-0.9831764405007561
 10
-2.0
 20
-0.5
 10
-2.46875
 20
-0.6171875
  0
LWPOLYLINE
  5
93
330
8D
100
AcDbEntity
  8
DIM
370
     9
100
AcDbPolyline
 90
        3
 70
     0
 43
0.0
 10
-2.0
 20
0.9831764405007561
 10
-2.0
 20
0.5
 10
-2.46875
 20
0.6171875
  0
LWPOLYLINE
  5
94
330
8D
100
AcDbEntity
  8
DIM
370
     9
100
AcDbPolyline
 90
        2
 70
     0
 43
0.0
 10
0.3742552490839444
 20
-0.0935638122700766
 10
0.0
 20
0.0
  0
ENDBLK
  5
95
330
8D
100
AcDbEntity
  8
0
100
AcDbBlockEnd
  0
ENDSEC
  0
SECTION
  2
ENTITIES
  0
MTEXT
  5
702
330
1F
100
AcDbEntity
  8
Defpoints
100
AcDbMText
 10
-15.64627189323079
 20
32.22010843990029
 30
0.0
 40
3.0
 41
90.07999999999999
 71
     2
 72
     5
  1
{\L113\P}\P            
  7
RomanC
 73
     1
 44
1.0
1001
ACAD
1000
MTEXTBEGIN
1070
    73
1070
     1
1070
    44
1040
1.0
1070
    74
1070
     0
1000
MTEXTEND
  0
MTEXT
  5
703
330
1F
100
AcDbEntity
  8
DIM
100
AcDbMText
 10
21.45056977532835
 20
41.89895314830528
 30
0.0
 40
3.0
 41
71.41649521821006
 71
     2
 72
     5
  1
{\L2-4-2 WALL W/ RECESSED WINDOW DIRECTLY ON CONCRETE}\P               
  7
RomanC
 73
     1
 44
1.0
1001
ACAD
1000
MTEXTBEGIN
1070
    73
1070
     1
1070
    44
1040
1.0
1070
    74
1070
     0
1000
MTEXTEND
  0
LINE
  5
704
330
1F
100
AcDbEntity
  8
0
 62
     1
100
AcDbLine
 10
12.52913071775759
 20
97.19336571803523
 30
0.0
 11
14.52913071775759
 21
97.19336571803523
 31
0.0
  0
LINE
  5
705
330
1F
100
AcDbEntity
  8
0
  6
HIDDEN
 62
     1
 48
0.02
100
AcDbLine
 10
14.17913071775814
 20
97.69336571803524
 30
0.0
 11
14.17913071775814
 21
97.19336571803523
 31
0.0
  0
LINE
  5
706
330
1F
100
AcDbEntity
  8
0
  6
HIDDEN
 62
     1
 48
0.02
100
AcDbLine
 10
13.15413071775759
 20
97.69336571803524
 30
0.0
 11
13.15413071775759
 21
97.19336571803523
 31
0.0
  0
LINE
  5
707
330
1F
100
AcDbEntity
  8
0
  6
HIDDEN
 62
     1
 48
0.02
100
AcDbLine
 10
13.55413071775814
 20
97.69336571803524
 30
0.0
 11
13.55413071775814
 21
97.19336571803523
 31
0.0
  0
LINE
  5
708
330
1F
100
AcDbEntity
  8
0
  6
HIDDEN
 62
     1
 48
0.02
100
AcDbLine
 10
12.64978838020027
 20
97.69336571803524
 30
0.0
 11
13.15413071775759
 21
97.69336571803524
 31
0.0
  0
LINE
  5
709
330
1F
100
AcDbEntity
  8
0
  6
HIDDEN
 62
     1
 48
0.02
100
AcDbLine
 10
13.55413071775814
 20
97.69336571803524
 30
0.0
 11
14.17913071775814
 21
97.69336571803524
 31
0.0
  0
LINE
  5
70A
330
1F
100
AcDbEntity
  8
0
  6
HIDDEN
 62
     1
 48
0.02
100
AcDbLine
 10
12.97913071775832
 20
97.44336571803524
 30
0.0
 11
12.97913071775832
 21
97.19336571803523
 31
0.0
  0
LINE
  5
70B
330
1F
100
AcDbEntity
  8
0
  6
HIDDEN
 62
     1
 48
0.02
100
AcDbLine
 10
12.72913071775832
 20
97.44336571803524
 30
0.0
 11
12.97913071775832
 21
97.44336571803524
 31
0.0
  0
LINE
  5
70C
330
1F
100
AcDbEntity
  8
0
 62
     1
100
AcDbLine
 10
6.529130717757595
 20
95.69281834389949
 30
0.0
 11
6.529130717757595
 21
85.19336571803524
 31
0.0
  0
LINE
  5
70D
330
1F
100
AcDbEntity
  8
0
 62
     1
100
AcDbLine
 10
14.5291307177585
 20
98.33073081533076
 30
0.0
 11
14.52913071775759
 21
85.19336571803524
 31
0.0
  0
LINE
  5
70E
330
1F
100
AcDbEntity
  8
0
 62
     1
100
AcDbLine
 10
6.529130717757595
 20
85.19336571803524
 30
0.0
 11
8.529130717756686
 21
85.19336571803524
 31
0.0
  0
LINE
  5
70F
330
1F
100
AcDbEntity
  8
0
 62
     1
100
AcDbLine
 10
8.529130717753957
 20
96.318700798377
 30
0.0
 11
8.529130717757595
 21
85.19336571803524
 31
0.0
  0
LINE
  5
710
330
1F
100
AcDbEntity
  8
0
 62
     1
100
AcDbLine
 10
12.52913071775396
 20
97.65244556143171
 30
0.0
 11
12.52913071775759
 21
85.19336571803524
 31
0.0
  0
LINE
  5
711
330
1F
100
AcDbEntity
  8
0
 62
     1
100
AcDbLine
 10
6.87913071775705
 20
95.8023477734323
 30
0.0
 11
6.87913071775705
 21
85.19336571803524
 31
0.0
  0
LINE
  5
712
330
1F
100
AcDbEntity
  8
0
 62
     1
100
AcDbLine
 10
14.17913071775723
 20
97.69336571803524
 30
0.0
 11
14.17913071775723
 21
97.19336571803523
 31
0.0
  0
LINE
  5
713
330
1F
100
AcDbEntity
  8
0
 62
     1
100
AcDbLine
 10
13.15413071775578
 20
97.69336571803524
 30
0.0
 11
13.15413071775578
 21
97.19336571803523
 31
0.0
  0
LINE
  5
714
330
1F
100
AcDbEntity
  8
0
 62
     1
100
AcDbLine
 10
13.55413071775723
 20
97.69336571803524
 30
0.0
 11
13.55413071775723
 21
97.19336571803523
 31
0.0
  0
LINE
  5
715
330
1F
100
AcDbEntity
  8
0
 62
     1
100
AcDbLine
 10
12.64978838020027
 20
97.69336571803524
 30
0.0
 11
13.15413071775668
 21
97.69336571803524
 31
0.0
  0
LINE
  5
716
330
1F
100
AcDbEntity
  8
0
 62
     1
100
AcDbLine
 10
13.55413071775723
 20
97.69336571803524
 30
0.0
 11
14.17913071775723
 21
97.69336571803524
 31
0.0
  0
LINE
  5
717
330
1F
100
AcDbEntity
  8
0
 62
     1
100
AcDbLine
 10
8.329130717755958
 20
96.2561125529287
 30
0.0
 11
8.329130717756868
 21
85.19336571803524
 31
0.0
  0
LINE
  5
718
330
1F
100
AcDbEntity
  8
0
 62
     1
100
AcDbLine
 10
12.7291307177565
 20
97.72027408682152
 30
0.0
 11
12.7291307177565
 21
85.19336571803524
 31
0.0
  0
LINE
  5
719
330
1F
100
AcDbEntity
  8
0
 62
     1
100
AcDbLine
 10
12.9791307177565
 20
97.44336571803524
 30
0.0
 11
12.9791307177565
 21
97.19336571803523
 31
0.0
  0
LINE
  5
71A
330
1F
100
AcDbEntity
  8
0
 62
     1
100
AcDbLine
 10
12.7291307177565
 20
97.44336571803524
 30
0.0
 11
12.9791307177565
 21
97.44336571803524
 31
0.0
  0
LINE
  5
71B
330
1F
100
AcDbEntity
  8
0
 62
     1
100
AcDbLine
 10
12.94413071775665
 20
97.19336571803523
 30
0.0
 11
14.52913071775759
 21
97.19336571803523
 31
0.0
  0
LINE
  5
71C
330
1F
100
AcDbEntity
  8
0
 62
     1
100
AcDbLine
 10
12.94413071775665
 20
97.79318975161551
 30
0.0
 11
12.94413071775665
 21
85.19336571803524
 31
0.0
  0
LINE
  5
71D
330
1F
100
AcDbEntity
  8
0
 62
     1
100
AcDbLine
 10
13.76413071775818
 20
98.07128670571456
 30
0.0
 11
13.76413071775727
 21
85.19336571803524
 31
0.0
  0
LINE
  5
71E
330
1F
100
AcDbEntity
  8
A2 Hatch
  6
DASHED2
 48
0.15
100
AcDbLine
 10
13.10413071775832
 20
97.84745257192799
 30
0.0
 11
13.10413071775741
 21
85.19336571803524
 31
0.0
  0
LINE
  5
71F
330
1F
100
AcDbEntity
  8
A2 Hatch
  6
DASHED2
 48
0.15
100
AcDbLine
 10
13.60413071775741
 20
98.01702388540252
 30
0.0
 11
13.60413071775741
 21
85.19336571803524
 31
0.0
  0
LINE
  5
720
330
1F
100
AcDbEntity
  8
A2 Hatch
  6
DASHED2
 48
0.15
100
AcDbLine
 10
7.294130717757013
 20
95.93221838273667
 30
0.0
 11
7.294130717757013
 21
85.19336571803524
 31
0.0
  0
LINE
  5
721
330
1F
100
AcDbEntity
  8
A2 Hatch
  6
DASHED2
 48
0.15
100
AcDbLine
 10
8.114130717756722
 20
96.18883018907219
 30
0.0
 11
8.114130717756722
 21
85.19336571803524
 31
0.0
  0
LINE
  5
722
330
1F
100
AcDbEntity
  8
0
 62
     1
100
AcDbLine
 10
7.454130717756868
 20
95.98228897909439
 30
0.0
 11
7.454130717756868
 21
85.19336571803524
 31
0.0
  0
LINE
  5
723
330
1F
100
AcDbEntity
  8
0
 62
     1
100
AcDbLine
 10
7.954130717755958
 20
96.138759592714
 30
0.0
 11
7.954130717756868
 21
85.19336571803524
 31
0.0
  0
LINE
  5
724
330
1F
100
AcDbEntity
  8
0
 62
     1
100
AcDbLine
 10
12.52913071775668
 20
97.19336571803523
 30
0.0
 11
12.7291307177565
 21
97.19336571803523
 31
0.0
  0
LINE
  5
725
330
1F
100
AcDbEntity
  8
0
 62
     1
100
AcDbLine
 10
12.52913071775759
 20
85.19336571803524
 30
0.0
 11
14.52913071775759
 21
85.19336571803524
 31
0.0
  0
LINE
  5
726
330
1F
100
AcDbEntity
  8
DETAILS
 62
     6
370
    20
100
AcDbLine
 10
12.52913071775668
 20
89.17336571803526
 30
0.0
 11
8.529130717756686
 21
89.17336571803526
 31
0.0
  0
LINE
  5
727
330
1F
100
AcDbEntity
  8
DETAILS
 62
     6
370
    20
100
AcDbLine
 10
12.52913071775668
 20
93.71336571803523
 30
0.0
 11
8.529130717756686
 21
93.71336571803523
 31
0.0
  0
LINE
  5
728
330
1F
100
AcDbEntity
  8
DETAILS
 62
     6
370
    20
100
AcDbLine
 10
12.52913071775668
 20
88.69336571803478
 30
0.0
 11
8.529130717756686
 21
88.69336571803524
 31
0.0
  0
LINE
  5
729
330
1F
100
AcDbEntity
  8
DETAILS
 62
     6
370
    20
100
AcDbLine
 10
12.52913071775668
 20
88.78336571803492
 30
0.0
 11
8.529130717756686
 21
88.78336571803538
 31
0.0
  0
LINE
  5
72A
330
1F
100
AcDbEntity
  8
DETAILS
 62
     6
370
    20
100
AcDbLine
 10
12.52913071775668
 20
89.08336571803511
 30
0.0
 11
8.529130717756686
 21
89.08336571803511
 31
0.0
  0
LINE
  5
72B
330
1F
100
AcDbEntity
  8
DETAILS
 62
     6
370
    20
100
AcDbLine
 10
12.52913071775668
 20
93.80336571803445
 30
0.0
 11
8.529130717756686
 21
93.80336571803537
 31
0.0
  0
LINE
  5
72C
330
1F
100
AcDbEntity
  8
DETAILS
 62
     6
370
    20
100
AcDbLine
 10
12.52913071775668
 20
94.10336571803464
 30
0.0
 11
8.529130717756686
 21
94.1033657180351
 31
0.0
  0
LINE
  5
72D
330
1F
100
AcDbEntity
  8
DETAILS
 62
     6
370
    20
100
AcDbLine
 10
8.719130717754467
 20
89.17336571803526
 30
0.0
 11
9.069130717753921
 21
89.17336571803526
 31
0.0
  0
LINE
  5
72E
330
1F
100
AcDbEntity
  8
DETAILS
 62
     6
370
    20
100
AcDbLine
 10
11.96913071775537
 20
89.17336571803526
 30
0.0
 11
12.23126275211138
 21
89.43549775238807
 31
0.0
  0
LINE
  5
72F
330
1F
100
AcDbEntity
  8
DETAILS
 62
     6
370
    20
100
AcDbLine
 10
9.069130717753921
 20
89.17336571803526
 30
0.0
 11
8.806998683397921
 21
89.43549775239398
 31
0.0
  0
LINE
  5
730
330
1F
100
AcDbEntity
  8
DETAILS
 62
     6
370
    20
100
AcDbLine
 10
11.9791307177565
 20
93.71336571803523
 30
0.0
 11
12.23126275211138
 21
93.46123368367853
 31
0.0
  0
LINE
  5
731
330
1F
100
AcDbEntity
  8
DETAILS
 62
     6
370
    20
100
AcDbLine
 10
9.079130717755049
 20
93.71336571803523
 30
0.0
 11
8.80699868339974
 21
93.44123368368309
 31
0.0
  0
LINE
  5
732
330
1F
100
AcDbEntity
  8
DETAILS
 62
     6
370
    20
100
AcDbLine
 10
12.31913071775574
 20
89.6476297867448
 30
0.0
 11
12.31913071775483
 21
93.24910164932362
 31
0.0
  0
LINE
  5
733
330
1F
100
AcDbEntity
  8
DETAILS
 62
     6
370
    20
100
AcDbLine
 10
8.719130717754467
 20
89.64762978674889
 30
0.0
 11
8.719130717754467
 21
93.22910164932592
 31
0.0
  0
ARC
  5
734
330
1F
100
AcDbEntity
  8
DETAILS
 62
     6
370
    20
100
AcDbCircle
 10
12.01913071775556
 20
89.6476297867448
 30
0.0
 40
0.3
100
AcDbArc
 50
314.9999999997973
 51
0.0
  0
ARC
  5
735
330
1F
100
AcDbEntity
  8
DETAILS
 62
     6
370
    20
100
AcDbCircle
 10
9.019130717755558
 20
89.64762978674844
 30
0.0
 40
0.3
100
AcDbArc
 50
180.0
 51
224.9999999996868
  0
ARC
  5
736
330
1F
100
AcDbEntity
  8
DETAILS
 62
     6
370
    20
100
AcDbCircle
 10
12.01913071775556
 20
93.24910164932317
 30
0.0
 40
0.3
100
AcDbArc
 50
0.0000000000260551
 51
44.99999999970522
  0
ARC
  5
737
330
1F
100
AcDbEntity
  8
DETAILS
 62
     6
370
    20
100
AcDbCircle
 10
9.019130717755558
 20
93.22910164932546
 30
0.0
 40
0.3
100
AcDbArc
 50
134.9999999997052
 51
180.0
  0
LINE
  5
738
330
1F
100
AcDbEntity
  8
DETAILS
 62
     6
370
    20
100
AcDbLine
 10
8.529130717756686
 20
94.19336571803524
 30
0.0
 11
9.079130717755049
 21
94.19336571803524
 31
0.0
  0
LINE
  5
739
330
1F
100
AcDbEntity
  8
DETAILS
 62
     6
370
    20
100
AcDbLine
 10
9.329130717755049
 20
94.24336571803541
 30
0.0
 11
9.329130717755049
 21
94.84768245411942
 31
0.0
  0
LINE
  5
73A
330
1F
100
AcDbEntity
  8
DETAILS
 62
     6
370
    20
100
AcDbLine
 10
9.429130717755413
 20
94.24336571803541
 30
0.0
 11
9.429130717755413
 21
94.7612525102436
 31
0.0
  0
ARC
  5
73B
330
1F
100
AcDbEntity
  8
DETAILS
 62
     6
370
    20
100
AcDbCircle
 10
9.490888376534655
 20
94.76549124559324
 30
0.0
 40
0.0619029506189981
100
AcDbArc
 50
134.9903235096027
 51
183.9263367617324
  0
LINE
  5
73C
330
1F
100
AcDbEntity
  8
DETAILS
 62
     6
370
    20
100
AcDbLine
 10
11.77913071775577
 20
94.19336571803478
 30
0.0
 11
11.9791307177565
 21
94.19336571803478
 31
0.0
  0
LINE
  5
73D
330
1F
100
AcDbEntity
  8
DETAILS
 62
     6
370
    20
100
AcDbLine
 10
11.7291307177565
 20
94.24336571803497
 30
0.0
 11
11.7291307177565
 21
94.84768245411942
 31
0.0
  0
LINE
  5
73E
330
1F
100
AcDbEntity
  8
DETAILS
 62
     6
370
    20
100
AcDbLine
 10
11.62913071775614
 20
94.24336571803497
 30
0.0
 11
11.62913071775614
 21
94.76125251024313
 31
0.0
  0
ARC
  5
73F
330
1F
100
AcDbEntity
  8
DETAILS
 62
     6
370
    20
100
AcDbCircle
 10
11.51687488575675
 20
94.75811745789906
 30
0.0
 40
0.1122996009395304
100
AcDbArc
 50
1.599726146933217
 51
27.09751498394529
  0
LINE
  5
740
330
1F
100
AcDbEntity
  8
DETAILS
 62
     6
370
    20
100
AcDbLine
 10
10.07913071775505
 20
94.24336571803497
 30
0.0
 11
10.07913071775505
 21
94.76125251024223
 31
0.0
  0
LINE
  5
741
330
1F
100
AcDbEntity
  8
DETAILS
 62
     6
370
    20
100
AcDbLine
 10
10.17913071775541
 20
94.24336571803497
 30
0.0
 11
10.17913071775541
 21
94.7612525102436
 31
0.0
  0
ARC
  5
742
330
1F
100
AcDbEntity
  8
DETAILS
 62
     6
370
    20
100
AcDbCircle
 10
10.12913071775432
 20
94.87910720381069
 30
0.0
 40
0.0935752503092939
100
AcDbArc
 50
311.7278668394932
 51
228.2721331609136
  0
ARC
  5
743
330
1F
100
AcDbEntity
  8
DETAILS
 62
     6
370
    20
100
AcDbCircle
 10
9.979130717754685
 20
94.76125251024223
 30
0.0
 40
0.1
100
AcDbArc
 50
0.0
 51
28.69723935241926
  0
ARC
  5
744
330
1F
100
AcDbEntity
  8
DETAILS
 62
     6
370
    20
100
AcDbCircle
 10
10.27913071775486
 20
94.7612525102436
 30
0.0
 40
0.1
100
AcDbArc
 50
151.3027606481171
 51
180.0
  0
LINE
  5
745
330
1F
100
AcDbEntity
  8
DETAILS
 62
     6
370
    20
100
AcDbLine
 10
10.87913071775705
 20
94.24336571803497
 30
0.0
 11
10.87913071775614
 21
94.76125251024223
 31
0.0
  0
LINE
  5
746
330
1F
100
AcDbEntity
  8
DETAILS
 62
     6
370
    20
100
AcDbLine
 10
10.9791307177565
 20
94.24336571803497
 30
0.0
 11
10.9791307177565
 21
94.76125251024313
 31
0.0
  0
ARC
  5
747
330
1F
100
AcDbEntity
  8
DETAILS
 62
     6
370
    20
100
AcDbCircle
 10
10.92913071775632
 20
94.87910720381023
 30
0.0
 40
0.0935752503091666
100
AcDbArc
 50
311.7278668395666
 51
228.2721331606194
  0
ARC
  5
748
330
1F
100
AcDbEntity
  8
DETAILS
 62
     6
370
    20
100
AcDbCircle
 10
10.77913071775668
 20
94.76125251024223
 30
0.0
 40
0.1
100
AcDbArc
 50
0.0
 51
28.69723935241926
  0
ARC
  5
749
330
1F
100
AcDbEntity
  8
DETAILS
 62
     6
370
    20
100
AcDbCircle
 10
11.07913071775687
 20
94.76125251024313
 30
0.0
 40
0.1
100
AcDbArc
 50
151.3027606481171
 51
180.0
  0
LINE
  5
74A
330
1F
100
AcDbEntity
  8
DETAILS
 62
     6
370
    20
100
AcDbLine
 10
11.67913071775632
 20
94.97268245411943
 30
0.0
 11
12.52913071775668
 21
94.97268245411943
 31
0.0
  0
ARC
  5
74B
330
1F
100
AcDbEntity
  8
DETAILS
 62
     6
370
    20
100
AcDbCircle
 10
9.39161771875473
 20
94.8816432775302
 30
0.0
 40
0.091207026586975
100
AcDbArc
 50
307.4863303690938
 51
93.47656839120459
  0
ARC
  5
74C
330
1F
100
AcDbEntity
  8
DETAILS
 62
     6
370
    20
100
AcDbCircle
 10
11.67913071775632
 20
94.87910720381023
 30
0.0
 40
0.0935752503091878
100
AcDbArc
 50
90.0
 51
228.2720386612377
  0
LINE
  5
74D
330
1F
100
AcDbEntity
  8
DETAILS
 62
     6
370
    20
100
AcDbLine
 10
9.397148543721357
 20
94.97268245411943
 30
0.0
 11
8.529130717755776
 21
94.97268245411943
 31
0.0
  0
LINE
  5
74E
330
1F
100
AcDbEntity
  8
DETAILS
 62
     6
370
    20
100
AcDbLine
 10
9.329130717755049
 20
94.84768245411942
 30
0.0
 11
8.529130717755776
 21
94.84768245411942
 31
0.0
  0
LINE
  5
74F
330
1F
100
AcDbEntity
  8
DETAILS
 62
     6
370
    20
100
AcDbLine
 10
11.7291307177565
 20
94.84768245411942
 30
0.0
 11
12.52913071775668
 21
94.84768245411942
 31
0.0
  0
LINE
  5
750
330
1F
100
AcDbEntity
  8
DETAILS
 62
     6
370
    20
100
AcDbLine
 10
11.57913071775687
 20
94.19336571803478
 30
0.0
 11
11.02913071775668
 21
94.19336571803524
 31
0.0
  0
LINE
  5
751
330
1F
100
AcDbEntity
  8
DETAILS
 62
     6
370
    20
100
AcDbLine
 10
10.82913071775687
 20
94.19336571803524
 30
0.0
 11
10.22913071775468
 21
94.19336571803524
 31
0.0
  0
LINE
  5
752
330
1F
100
AcDbEntity
  8
DETAILS
 62
     6
370
    20
100
AcDbLine
 10
10.02913071775487
 20
94.19336571803524
 30
0.0
 11
9.479130717754685
 21
94.19336571803524
 31
0.0
  0
LINE
  5
753
330
1F
100
AcDbEntity
  8
DETAILS
 62
     6
370
    20
100
AcDbLine
 10
9.279130717753957
 20
94.19336571803524
 30
0.0
 11
8.529130717756686
 21
94.19336571803524
 31
0.0
  0
ARC
  5
754
330
1F
100
AcDbEntity
  8
DETAILS
 62
     6
370
    20
100
AcDbCircle
 10
9.279130717753957
 20
94.24336571803541
 30
0.0
 40
0.05
100
AcDbArc
 50
270.0
 51
0.0
  0
ARC
  5
755
330
1F
100
AcDbEntity
  8
DETAILS
 62
     6
370
    20
100
AcDbCircle
 10
9.479130717754685
 20
94.24336571803541
 30
0.0
 40
0.05
100
AcDbArc
 50
180.0
 51
270.0
  0
ARC
  5
756
330
1F
100
AcDbEntity
  8
DETAILS
 62
     6
370
    20
100
AcDbCircle
 10
10.02913071775487
 20
94.24336571803497
 30
0.0
 40
0.05
100
AcDbArc
 50
270.0
 51
0.0
  0
ARC
  5
757
330
1F
100
AcDbEntity
  8
DETAILS
 62
     6
370
    20
100
AcDbCircle
 10
10.22913071775468
 20
94.24336571803497
 30
0.0
 40
0.05
100
AcDbArc
 50
180.0
 51
270.0
  0
ARC
  5
758
330
1F
100
AcDbEntity
  8
DETAILS
 62
     6
370
    20
100
AcDbCircle
 10
10.82913071775687
 20
94.24336571803497
 30
0.0
 40
0.05
100
AcDbArc
 50
270.0
 51
0.0
  0
ARC
  5
759
330
1F
100
AcDbEntity
  8
DETAILS
 62
     6
370
    20
100
AcDbCircle
 10
11.02913071775668
 20
94.24336571803497
 30
0.0
 40
0.05
100
AcDbArc
 50
180.0
 51
270.0
  0
ARC
  5
75A
330
1F
100
AcDbEntity
  8
DETAILS
 62
     6
370
    20
100
AcDbCircle
 10
11.57913071775687
 20
94.24336571803497
 30
0.0
 40
0.05
100
AcDbArc
 50
270.0
 51
0.0
  0
ARC
  5
75B
330
1F
100
AcDbEntity
  8
DETAILS
 62
     6
370
    20
100
AcDbCircle
 10
11.77913071775577
 20
94.24336571803497
 30
0.0
 40
0.05
100
AcDbArc
 50
179.9999999999479
 51
270.0
  0
LINE
  5
75C
330
1F
100
AcDbEntity
  8
DETAILS
 62
     6
370
    20
100
AcDbLine
 10
8.529130717756686
 20
94.19336571803524
 30
0.0
 11
12.52913071775668
 21
94.19336571803524
 31
0.0
  0
LINE
  5
75D
330
1F
100
AcDbEntity
  8
DETAILS
 62
     6
370
    20
100
AcDbLine
 10
9.279130717753957
 20
94.19336571803524
 30
0.0
 11
9.479130717754685
 21
94.19336571803524
 31
0.0
  0
LINE
  5
75E
330
1F
100
AcDbEntity
  8
DETAILS
 62
     6
370
    20
100
AcDbLine
 10
10.02913071775487
 20
94.19336571803524
 30
0.0
 11
10.22913071775468
 21
94.19336571803524
 31
0.0
  0
LINE
  5
75F
330
1F
100
AcDbEntity
  8
DETAILS
 62
     6
370
    20
100
AcDbLine
 10
10.82913071775687
 20
94.19336571803524
 30
0.0
 11
11.02913071775668
 21
94.19336571803524
 31
0.0
  0
LINE
  5
760
330
1F
100
AcDbEntity
  8
DETAILS
 62
     6
370
    20
100
AcDbLine
 10
11.57913071775687
 20
94.19336571803524
 30
0.0
 11
11.77913071775577
 21
94.19336571803524
 31
0.0
  0
LINE
  5
761
330
1F
100
AcDbEntity
  8
DETAILS
 62
     6
370
    20
100
AcDbLine
 10
9.329130717755049
 20
89.17336571803526
 30
0.0
 11
9.429130717755413
 21
89.17336571803526
 31
0.0
  0
LINE
  5
762
330
1F
100
AcDbEntity
  8
DETAILS
 62
     6
370
    20
100
AcDbLine
 10
9.398742332323251
 20
88.45944339533252
 30
0.0
 11
9.429130717755413
 21
88.69336571803524
 31
0.0
  0
LINE
  5
763
330
1F
100
AcDbEntity
  8
DETAILS
 62
     6
370
    20
100
AcDbLine
 10
9.359519105295419
 20
88.45944339533298
 30
0.0
 11
9.329130717755049
 21
88.69336571803524
 31
0.0
  0
ARC
  5
764
330
1F
100
AcDbEntity
  8
DETAILS
 62
     6
370
    20
100
AcDbCircle
 10
9.379130718809335
 20
88.46336571803522
 30
0.0
 40
0.02
100
AcDbArc
 50
191.3099324739691
 51
348.6900675259439
  0
LINE
  5
765
330
1F
100
AcDbEntity
  8
DETAILS
 62
     6
370
    20
100
AcDbLine
 10
10.14874233127005
 20
88.45944339533252
 30
0.0
 11
10.17913071670222
 21
88.69336571803524
 31
0.0
  0
LINE
  5
766
330
1F
100
AcDbEntity
  8
DETAILS
 62
     6
370
    20
100
AcDbLine
 10
10.10951910424222
 20
88.45944339533298
 30
0.0
 11
10.07913071670185
 21
88.69336571803524
 31
0.0
  0
ARC
  5
767
330
1F
100
AcDbEntity
  8
DETAILS
 62
     6
370
    20
100
AcDbCircle
 10
10.12913071775614
 20
88.46336571803522
 30
0.0
 40
0.02
100
AcDbArc
 50
191.3099324739691
 51
348.6900675259439
  0
LINE
  5
768
330
1F
100
AcDbEntity
  8
DETAILS
 62
     6
370
    20
100
AcDbLine
 10
10.94874233127115
 20
88.45944339533252
 30
0.0
 11
10.97913071670331
 21
88.69336571803524
 31
0.0
  0
LINE
  5
769
330
1F
100
AcDbEntity
  8
DETAILS
 62
     6
370
    20
100
AcDbLine
 10
10.90951910424331
 20
88.45944339533298
 30
0.0
 11
10.87913071670294
 21
88.69336571803524
 31
0.0
  0
ARC
  5
76A
330
1F
100
AcDbEntity
  8
DETAILS
 62
     6
370
    20
100
AcDbCircle
 10
10.92913071775723
 20
88.46336571803522
 30
0.0
 40
0.02
100
AcDbArc
 50
191.3099324739691
 51
348.6900675259439
  0
LINE
  5
76B
330
1F
100
AcDbEntity
  8
DETAILS
 62
     6
370
    20
100
AcDbLine
 10
11.69874233127115
 20
88.45944339533252
 30
0.0
 11
11.72913071670331
 21
88.69336571803524
 31
0.0
  0
LINE
  5
76C
330
1F
100
AcDbEntity
  8
DETAILS
 62
     6
370
    20
100
AcDbLine
 10
11.65951910424331
 20
88.45944339533298
 30
0.0
 11
11.62913071670294
 21
88.69336571803524
 31
0.0
  0
ARC
  5
76D
330
1F
100
AcDbEntity
  8
DETAILS
 62
     6
370
    20
100
AcDbCircle
 10
11.67913071775723
 20
88.46336571803522
 30
0.0
 40
0.02
100
AcDbArc
 50
191.3099324739691
 51
348.6900675259439
  0
LINE
  5
76E
330
1F
100
AcDbEntity
  8
DETAILS
 62
     6
370
    20
100
AcDbLine
 10
9.069130717753921
 20
88.69336571803524
 30
0.0
 11
8.529130717756686
 21
88.1728502541191
 31
0.0
  0
LINE
  5
76F
330
1F
100
AcDbEntity
  8
DETAILS
 62
     6
370
    20
100
AcDbLine
 10
11.96913071775628
 20
88.69336571803478
 30
0.0
 11
12.52913071775668
 21
88.15908000374838
 31
0.0
  0
LINE
  5
770
330
1F
100
AcDbEntity
  8
DETAILS
 62
     6
370
    20
100
AcDbLine
 10
11.9791307177565
 20
94.19336571803524
 30
0.0
 11
12.52913071775668
 21
94.72362212829102
 31
0.0
  0
LINE
  5
771
330
1F
100
AcDbEntity
  8
DETAILS
 62
     6
370
    20
100
AcDbLine
 10
9.079130717755049
 20
94.19336571803524
 30
0.0
 11
8.529130717757595
 21
94.72362212829011
 31
0.0
  0
LINE
  5
772
330
1F
100
AcDbEntity
  8
0
  6
HIDDEN
 62
     1
 48
0.02
100
AcDbLine
 10
6.87913071775705
 20
85.69336571803523
 30
0.0
 11
7.50413071775705
 21
85.69336571803523
 31
0.0
  0
LINE
  5
773
330
1F
100
AcDbEntity
  8
0
  6
HIDDEN
 62
     1
 48
0.02
100
AcDbLine
 10
7.904130717756686
 20
85.69336571803523
 30
0.0
 11
7.904130717755776
 21
85.19336571803524
 31
0.0
  0
LINE
  5
774
330
1F
100
AcDbEntity
  8
0
  6
HIDDEN
 62
     1
 48
0.02
100
AcDbLine
 10
7.50413071775705
 20
85.69336571803523
 30
0.0
 11
7.504130717757959
 21
85.19336571803524
 31
0.0
  0
LINE
  5
775
330
1F
100
AcDbEntity
  8
0
  6
HIDDEN
 62
     1
 48
0.02
100
AcDbLine
 10
7.904130717755776
 20
85.69336571803523
 30
0.0
 11
8.529130717755776
 21
85.69336571803523
 31
0.0
  0
LINE
  5
776
330
1F
100
AcDbEntity
  8
0
  6
HIDDEN
 62
     1
 48
0.02
100
AcDbLine
 10
14.17913071775814
 20
85.69336571803523
 30
0.0
 11
14.17913071775814
 21
85.19336571803524
 31
0.0
  0
LINE
  5
777
330
1F
100
AcDbEntity
  8
0
  6
HIDDEN
 62
     1
 48
0.02
100
AcDbLine
 10
13.15413071775759
 20
85.69336571803523
 30
0.0
 11
13.15413071775759
 21
85.19336571803524
 31
0.0
  0
LINE
  5
778
330
1F
100
AcDbEntity
  8
0
  6
HIDDEN
 62
     1
 48
0.02
100
AcDbLine
 10
13.55413071775814
 20
85.69336571803523
 30
0.0
 11
13.55413071775814
 21
85.19336571803524
 31
0.0
  0
LINE
  5
779
330
1F
100
AcDbEntity
  8
0
  6
HIDDEN
 62
     1
 48
0.02
100
AcDbLine
 10
12.52913071775759
 20
85.69336571803523
 30
0.0
 11
13.15413071775759
 21
85.69336571803523
 31
0.0
  0
LINE
  5
77A
330
1F
100
AcDbEntity
  8
0
  6
HIDDEN
 62
     1
 48
0.02
100
AcDbLine
 10
13.55413071775814
 20
85.69336571803523
 30
0.0
 11
14.17913071775814
 21
85.69336571803523
 31
0.0
  0
LINE
  5
77B
330
1F
100
AcDbEntity
  8
0
  6
HIDDEN
 62
     1
 48
0.02
100
AcDbLine
 10
12.97913071775832
 20
85.44336571803524
 30
0.0
 11
12.97913071775832
 21
85.19336571803524
 31
0.0
  0
LINE
  5
77C
330
1F
100
AcDbEntity
  8
0
  6
HIDDEN
 62
     1
 48
0.02
100
AcDbLine
 10
12.72913071775832
 20
85.44336571803524
 30
0.0
 11
12.97913071775832
 21
85.44336571803524
 31
0.0
  0
LINE
  5
77D
330
1F
100
AcDbEntity
  8
0
 62
     1
100
AcDbLine
 10
6.529130717757595
 20
85.19336571803524
 30
0.0
 11
6.529130717757595
 21
73.19336571803524
 31
0.0
  0
LINE
  5
77E
330
1F
100
AcDbEntity
  8
0
 62
     1
100
AcDbLine
 10
14.52913071775759
 20
85.19336571803524
 30
0.0
 11
14.52913071775759
 21
73.19336571803524
 31
0.0
  0
LINE
  5
77F
330
1F
100
AcDbEntity
  8
0
 62
     1
100
AcDbLine
 10
6.529130717757595
 20
85.19336571803524
 30
0.0
 11
8.079130717756868
 21
85.19336571803524
 31
0.0
  0
LINE
  5
780
330
1F
100
AcDbEntity
  8
0
 62
     1
100
AcDbLine
 10
6.529130717757595
 20
73.19336571803524
 30
0.0
 11
8.529130717756686
 21
73.19336571803524
 31
0.0
  0
LINE
  5
781
330
1F
100
AcDbEntity
  8
0
 62
     1
100
AcDbLine
 10
8.529130717756686
 20
85.69336571803523
 30
0.0
 11
8.529130717757595
 21
73.19336571803524
 31
0.0
  0
LINE
  5
782
330
1F
100
AcDbEntity
  8
0
 62
     1
100
AcDbLine
 10
12.52913071775578
 20
85.69336571803523
 30
0.0
 11
12.52913071775759
 21
73.19336571803524
 31
0.0
  0
LINE
  5
783
330
1F
100
AcDbEntity
  8
0
 62
     1
100
AcDbLine
 10
6.87913071775705
 20
85.69336571803523
 30
0.0
 11
7.50413071775705
 21
85.69336571803523
 31
0.0
  0
LINE
  5
784
330
1F
100
AcDbEntity
  8
0
 62
     1
100
AcDbLine
 10
6.87913071775705
 20
85.69336571803523
 30
0.0
 11
6.87913071775705
 21
73.19336571803524
 31
0.0
  0
LINE
  5
785
330
1F
100
AcDbEntity
  8
0
 62
     1
100
AcDbLine
 10
14.17913071775723
 20
85.69336571803523
 30
0.0
 11
14.17913071775723
 21
85.19336571803524
 31
0.0
  0
LINE
  5
786
330
1F
100
AcDbEntity
  8
0
 62
     1
100
AcDbLine
 10
7.904130717756686
 20
85.69336571803523
 30
0.0
 11
7.904130717755776
 21
85.19336571803524
 31
0.0
  0
LINE
  5
787
330
1F
100
AcDbEntity
  8
0
 62
     1
100
AcDbLine
 10
7.50413071775705
 20
85.69336571803523
 30
0.0
 11
7.504130717757959
 21
85.19336571803524
 31
0.0
  0
LINE
  5
788
330
1F
100
AcDbEntity
  8
0
 62
     1
100
AcDbLine
 10
13.15413071775578
 20
85.69336571803523
 30
0.0
 11
13.15413071775578
 21
85.19336571803524
 31
0.0
  0
LINE
  5
789
330
1F
100
AcDbEntity
  8
0
 62
     1
100
AcDbLine
 10
13.55413071775723
 20
85.69336571803523
 30
0.0
 11
13.55413071775723
 21
85.19336571803524
 31
0.0
  0
LINE
  5
78A
330
1F
100
AcDbEntity
  8
0
 62
     1
100
AcDbLine
 10
12.52913071775668
 20
85.69336571803523
 30
0.0
 11
13.15413071775668
 21
85.69336571803523
 31
0.0
  0
LINE
  5
78B
330
1F
100
AcDbEntity
  8
0
 62
     1
100
AcDbLine
 10
13.55413071775723
 20
85.69336571803523
 30
0.0
 11
14.17913071775723
 21
85.69336571803523
 31
0.0
  0
LINE
  5
78C
330
1F
100
AcDbEntity
  8
0
 62
     1
100
AcDbLine
 10
7.904130717755776
 20
85.69336571803523
 30
0.0
 11
8.529130717755776
 21
85.69336571803523
 31
0.0
  0
LINE
  5
78D
330
1F
100
AcDbEntity
  8
0
 62
     1
100
AcDbLine
 10
8.329130717756868
 20
85.44336571803524
 30
0.0
 11
8.329130717756868
 21
73.19336571803524
 31
0.0
  0
LINE
  5
78E
330
1F
100
AcDbEntity
  8
0
 62
     1
100
AcDbLine
 10
12.7291307177565
 20
85.44336571803524
 30
0.0
 11
12.7291307177565
 21
73.19336571803524
 31
0.0
  0
LINE
  5
78F
330
1F
100
AcDbEntity
  8
0
 62
     1
100
AcDbLine
 10
8.079130717756868
 20
85.44336571803524
 30
0.0
 11
8.079130717756868
 21
85.19336571803524
 31
0.0
  0
LINE
  5
790
330
1F
100
AcDbEntity
  8
0
 62
     1
100
AcDbLine
 10
12.9791307177565
 20
85.44336571803524
 30
0.0
 11
12.9791307177565
 21
85.19336571803524
 31
0.0
  0
LINE
  5
791
330
1F
100
AcDbEntity
  8
0
 62
     1
100
AcDbLine
 10
8.079130717756868
 20
85.44336571803524
 30
0.0
 11
8.329130717756868
 21
85.44336571803524
 31
0.0
  0
LINE
  5
792
330
1F
100
AcDbEntity
  8
0
 62
     1
100
AcDbLine
 10
12.7291307177565
 20
85.44336571803524
 30
0.0
 11
12.9791307177565
 21
85.44336571803524
 31
0.0
  0
LINE
  5
793
330
1F
100
AcDbEntity
  8
0
 62
     1
100
AcDbLine
 10
12.94413071775665
 20
85.19336571803524
 30
0.0
 11
14.52913071775759
 21
85.19336571803524
 31
0.0
  0
LINE
  5
794
330
1F
100
AcDbEntity
  8
0
 62
     1
100
AcDbLine
 10
8.329130717756868
 20
85.19336571803524
 30
0.0
 11
8.529130717755776
 21
85.19336571803524
 31
0.0
  0
LINE
  5
795
330
1F
100
AcDbEntity
  8
0
 62
     1
100
AcDbLine
 10
12.94413071775665
 20
85.19336571803524
 30
0.0
 11
12.94413071775665
 21
73.19336571803524
 31
0.0
  0
LINE
  5
796
330
1F
100
AcDbEntity
  8
0
 62
     1
100
AcDbLine
 10
13.76413071775727
 20
85.19336571803524
 30
0.0
 11
13.76413071775727
 21
73.19336571803524
 31
0.0
  0
LINE
  5
797
330
1F
100
AcDbEntity
  8
A2 Hatch
  6
DASHED2
 48
0.15
100
AcDbLine
 10
13.10413071775741
 20
85.19336571803524
 30
0.0
 11
13.10413071775741
 21
73.19336571803524
 31
0.0
  0
LINE
  5
798
330
1F
100
AcDbEntity
  8
A2 Hatch
  6
DASHED2
 48
0.15
100
AcDbLine
 10
13.60413071775741
 20
85.19336571803524
 30
0.0
 11
13.60413071775741
 21
73.19336571803524
 31
0.0
  0
LINE
  5
799
330
1F
100
AcDbEntity
  8
0
 48
0.15
100
AcDbLine
 10
7.50413071775705
 20
85.19336571803524
 30
0.0
 11
7.904130717756686
 21
85.19336571803524
 31
0.0
  0
LINE
  5
79A
330
1F
100
AcDbEntity
  8
A2 Hatch
  6
DASHED2
 48
0.15
100
AcDbLine
 10
7.294130717757013
 20
85.69336571803523
 30
0.0
 11
7.294130717757013
 21
73.19336571803524
 31
0.0
  0
LINE
  5
79B
330
1F
100
AcDbEntity
  8
A2 Hatch
  6
DASHED2
 48
0.15
100
AcDbLine
 10
8.114130717756722
 20
85.69336571803523
 30
0.0
 11
8.114130717756722
 21
73.19336571803524
 31
0.0
  0
LINE
  5
79C
330
1F
100
AcDbEntity
  8
0
 62
     1
100
AcDbLine
 10
7.454130717756868
 20
85.69336571803523
 30
0.0
 11
7.454130717756868
 21
73.19336571803524
 31
0.0
  0
LINE
  5
79D
330
1F
100
AcDbEntity
  8
0
 62
     1
100
AcDbLine
 10
7.954130717756868
 20
85.69336571803523
 30
0.0
 11
7.954130717756868
 21
73.19336571803524
 31
0.0
  0
LINE
  5
79E
330
1F
100
AcDbEntity
  8
0
 62
     1
100
AcDbLine
 10
7.954130717756868
 20
85.19336571803524
 30
0.0
 11
7.454130717756868
 21
85.19336571803524
 31
0.0
  0
LINE
  5
79F
330
1F
100
AcDbEntity
  8
0
 62
     1
100
AcDbLine
 10
12.52913071775668
 20
85.19336571803524
 30
0.0
 11
12.7291307177565
 21
85.19336571803524
 31
0.0
  0
LINE
  5
7A0
330
1F
100
AcDbEntity
  8
0
 62
     1
100
AcDbLine
 10
12.52913071775759
 20
73.19336571803524
 30
0.0
 11
14.52913071775759
 21
73.19336571803524
 31
0.0
  0
LINE
  5
7A1
330
1F
100
AcDbEntity
  8
DETAILS
 62
     6
370
    20
100
AcDbLine
 10
12.52913071775668
 20
77.17336571803525
 30
0.0
 11
8.529130717756686
 21
77.17336571803525
 31
0.0
  0
LINE
  5
7A2
330
1F
100
AcDbEntity
  8
DETAILS
 62
     6
370
    20
100
AcDbLine
 10
12.52913071775668
 20
81.71336571803522
 30
0.0
 11
8.529130717756686
 21
81.71336571803522
 31
0.0
  0
LINE
  5
7A3
330
1F
100
AcDbEntity
  8
DETAILS
 62
     6
370
    20
100
AcDbLine
 10
12.52913071775668
 20
76.69336571803478
 30
0.0
 11
8.529130717756686
 21
76.69336571803524
 31
0.0
  0
LINE
  5
7A4
330
1F
100
AcDbEntity
  8
DETAILS
 62
     6
370
    20
100
AcDbLine
 10
12.52913071775668
 20
76.78336571803493
 30
0.0
 11
8.529130717756686
 21
76.78336571803538
 31
0.0
  0
LINE
  5
7A5
330
1F
100
AcDbEntity
  8
DETAILS
 62
     6
370
    20
100
AcDbLine
 10
12.52913071775668
 20
77.08336571803511
 30
0.0
 11
8.529130717756686
 21
77.08336571803511
 31
0.0
  0
LINE
  5
7A6
330
1F
100
AcDbEntity
  8
DETAILS
 62
     6
370
    20
100
AcDbLine
 10
12.52913071775668
 20
81.80336571803445
 30
0.0
 11
8.529130717756686
 21
81.80336571803536
 31
0.0
  0
LINE
  5
7A7
330
1F
100
AcDbEntity
  8
DETAILS
 62
     6
370
    20
100
AcDbLine
 10
12.52913071775668
 20
82.10336571803464
 30
0.0
 11
8.529130717756686
 21
82.10336571803509
 31
0.0
  0
LINE
  5
7A8
330
1F
100
AcDbEntity
  8
DETAILS
 62
     6
370
    20
100
AcDbLine
 10
8.719130717754467
 20
77.17336571803525
 30
0.0
 11
9.069130717753921
 21
77.17336571803525
 31
0.0
  0
LINE
  5
7A9
330
1F
100
AcDbEntity
  8
DETAILS
 62
     6
370
    20
100
AcDbLine
 10
11.96913071775537
 20
77.17336571803525
 30
0.0
 11
12.23126275211138
 21
77.43549775238808
 31
0.0
  0
LINE
  5
7AA
330
1F
100
AcDbEntity
  8
DETAILS
 62
     6
370
    20
100
AcDbLine
 10
9.069130717753921
 20
77.17336571803525
 30
0.0
 11
8.806998683397921
 21
77.43549775239398
 31
0.0
  0
LINE
  5
7AB
330
1F
100
AcDbEntity
  8
DETAILS
 62
     6
370
    20
100
AcDbLine
 10
11.9791307177565
 20
81.71336571803522
 30
0.0
 11
12.23126275211138
 21
81.46123368367852
 31
0.0
  0
LINE
  5
7AC
330
1F
100
AcDbEntity
  8
DETAILS
 62
     6
370
    20
100
AcDbLine
 10
9.079130717755049
 20
81.71336571803522
 30
0.0
 11
8.80699868339974
 21
81.4412336836831
 31
0.0
  0
LINE
  5
7AD
330
1F
100
AcDbEntity
  8
DETAILS
 62
     6
370
    20
100
AcDbLine
 10
12.31913071775574
 20
77.6476297867448
 30
0.0
 11
12.31913071775483
 21
81.24910164932362
 31
0.0
  0
LINE
  5
7AE
330
1F
100
AcDbEntity
  8
DETAILS
 62
     6
370
    20
100
AcDbLine
 10
8.719130717754467
 20
77.64762978674889
 30
0.0
 11
8.719130717754467
 21
81.22910164932591
 31
0.0
  0
ARC
  5
7AF
330
1F
100
AcDbEntity
  8
DETAILS
 62
     6
370
    20
100
AcDbCircle
 10
12.01913071775556
 20
77.6476297867448
 30
0.0
 40
0.3
100
AcDbArc
 50
314.9999999997973
 51
0.0
  0
ARC
  5
7B0
330
1F
100
AcDbEntity
  8
DETAILS
 62
     6
370
    20
100
AcDbCircle
 10
9.019130717755558
 20
77.64762978674844
 30
0.0
 40
0.3
100
AcDbArc
 50
180.0
 51
224.9999999996868
  0
ARC
  5
7B1
330
1F
100
AcDbEntity
  8
DETAILS
 62
     6
370
    20
100
AcDbCircle
 10
12.01913071775556
 20
81.24910164932316
 30
0.0
 40
0.3
100
AcDbArc
 50
0.0000000000260551
 51
44.99999999970522
  0
ARC
  5
7B2
330
1F
100
AcDbEntity
  8
DETAILS
 62
     6
370
    20
100
AcDbCircle
 10
9.019130717755558
 20
81.22910164932546
 30
0.0
 40
0.3
100
AcDbArc
 50
134.9999999997052
 51
180.0
  0
LINE
  5
7B3
330
1F
100
AcDbEntity
  8
DETAILS
 62
     6
370
    20
100
AcDbLine
 10
8.529130717756686
 20
82.19336571803523
 30
0.0
 11
9.079130717755049
 21
82.19336571803523
 31
0.0
  0
LINE
  5
7B4
330
1F
100
AcDbEntity
  8
DETAILS
 62
     6
370
    20
100
AcDbLine
 10
9.329130717755049
 20
82.24336571803542
 30
0.0
 11
9.329130717755049
 21
82.84768245411942
 31
0.0
  0
LINE
  5
7B5
330
1F
100
AcDbEntity
  8
DETAILS
 62
     6
370
    20
100
AcDbLine
 10
9.429130717755413
 20
82.24336571803542
 30
0.0
 11
9.429130717755413
 21
82.76125251024359
 31
0.0
  0
ARC
  5
7B6
330
1F
100
AcDbEntity
  8
DETAILS
 62
     6
370
    20
100
AcDbCircle
 10
9.490888376534655
 20
82.76549124559323
 30
0.0
 40
0.0619029506189981
100
AcDbArc
 50
134.9903235096027
 51
183.9263367617324
  0
LINE
  5
7B7
330
1F
100
AcDbEntity
  8
DETAILS
 62
     6
370
    20
100
AcDbLine
 10
11.77913071775577
 20
82.19336571803479
 30
0.0
 11
11.9791307177565
 21
82.19336571803479
 31
0.0
  0
LINE
  5
7B8
330
1F
100
AcDbEntity
  8
DETAILS
 62
     6
370
    20
100
AcDbLine
 10
11.7291307177565
 20
82.24336571803496
 30
0.0
 11
11.7291307177565
 21
82.84768245411942
 31
0.0
  0
LINE
  5
7B9
330
1F
100
AcDbEntity
  8
DETAILS
 62
     6
370
    20
100
AcDbLine
 10
11.62913071775614
 20
82.24336571803496
 30
0.0
 11
11.62913071775614
 21
82.76125251024314
 31
0.0
  0
ARC
  5
7BA
330
1F
100
AcDbEntity
  8
DETAILS
 62
     6
370
    20
100
AcDbCircle
 10
11.51687488575675
 20
82.75811745789907
 30
0.0
 40
0.1122996009395304
100
AcDbArc
 50
1.599726146933217
 51
27.09751498394529
  0
LINE
  5
7BB
330
1F
100
AcDbEntity
  8
DETAILS
 62
     6
370
    20
100
AcDbLine
 10
10.07913071775505
 20
82.24336571803496
 30
0.0
 11
10.07913071775505
 21
82.76125251024224
 31
0.0
  0
LINE
  5
7BC
330
1F
100
AcDbEntity
  8
DETAILS
 62
     6
370
    20
100
AcDbLine
 10
10.17913071775541
 20
82.24336571803496
 30
0.0
 11
10.17913071775541
 21
82.76125251024359
 31
0.0
  0
ARC
  5
7BD
330
1F
100
AcDbEntity
  8
DETAILS
 62
     6
370
    20
100
AcDbCircle
 10
10.12913071775432
 20
82.87910720381068
 30
0.0
 40
0.0935752503092939
100
AcDbArc
 50
311.7278668394932
 51
228.2721331609136
  0
ARC
  5
7BE
330
1F
100
AcDbEntity
  8
DETAILS
 62
     6
370
    20
100
AcDbCircle
 10
9.979130717754685
 20
82.76125251024224
 30
0.0
 40
0.1
100
AcDbArc
 50
0.0
 51
28.69723935241926
  0
ARC
  5
7BF
330
1F
100
AcDbEntity
  8
DETAILS
 62
     6
370
    20
100
AcDbCircle
 10
10.27913071775486
 20
82.76125251024359
 30
0.0
 40
0.1
100
AcDbArc
 50
151.3027606481171
 51
180.0
  0
LINE
  5
7C0
330
1F
100
AcDbEntity
  8
DETAILS
 62
     6
370
    20
100
AcDbLine
 10
10.87913071775705
 20
82.24336571803496
 30
0.0
 11
10.87913071775614
 21
82.76125251024224
 31
0.0
  0
LINE
  5
7C1
330
1F
100
AcDbEntity
  8
DETAILS
 62
     6
370
    20
100
AcDbLine
 10
10.9791307177565
 20
82.24336571803496
 30
0.0
 11
10.9791307177565
 21
82.76125251024314
 31
0.0
  0
ARC
  5
7C2
330
1F
100
AcDbEntity
  8
DETAILS
 62
     6
370
    20
100
AcDbCircle
 10
10.92913071775632
 20
82.87910720381024
 30
0.0
 40
0.0935752503091666
100
AcDbArc
 50
311.7278668395666
 51
228.2721331606194
  0
ARC
  5
7C3
330
1F
100
AcDbEntity
  8
DETAILS
 62
     6
370
    20
100
AcDbCircle
 10
10.77913071775668
 20
82.76125251024224
 30
0.0
 40
0.1
100
AcDbArc
 50
0.0
 51
28.69723935241926
  0
ARC
  5
7C4
330
1F
100
AcDbEntity
  8
DETAILS
 62
     6
370
    20
100
AcDbCircle
 10
11.07913071775687
 20
82.76125251024314
 30
0.0
 40
0.1
100
AcDbArc
 50
151.3027606481171
 51
180.0
  0
LINE
  5
7C5
330
1F
100
AcDbEntity
  8
DETAILS
 62
     6
370
    20
100
AcDbLine
 10
11.67913071775632
 20
82.97268245411942
 30
0.0
 11
12.52913071775668
 21
82.97268245411942
 31
0.0
  0
ARC
  5
7C6
330
1F
100
AcDbEntity
  8
DETAILS
 62
     6
370
    20
100
AcDbCircle
 10
9.39161771875473
 20
82.88164327753021
 30
0.0
 40
0.091207026586975
100
AcDbArc
 50
307.4863303690938
 51
93.47656839120459
  0
ARC
  5
7C7
330
1F
100
AcDbEntity
  8
DETAILS
 62
     6
370
    20
100
AcDbCircle
 10
11.67913071775632
 20
82.87910720381024
 30
0.0
 40
0.0935752503091878
100
AcDbArc
 50
90.0
 51
228.2720386612377
  0
LINE
  5
7C8
330
1F
100
AcDbEntity
  8
DETAILS
 62
     6
370
    20
100
AcDbLine
 10
9.397148543721357
 20
82.97268245411942
 30
0.0
 11
8.529130717755776
 21
82.97268245411942
 31
0.0
  0
LINE
  5
7C9
330
1F
100
AcDbEntity
  8
DETAILS
 62
     6
370
    20
100
AcDbLine
 10
9.329130717755049
 20
82.84768245411942
 30
0.0
 11
8.529130717755776
 21
82.84768245411942
 31
0.0
  0
LINE
  5
7CA
330
1F
100
AcDbEntity
  8
DETAILS
 62
     6
370
    20
100
AcDbLine
 10
11.7291307177565
 20
82.84768245411942
 30
0.0
 11
12.52913071775668
 21
82.84768245411942
 31
0.0
  0
LINE
  5
7CB
330
1F
100
AcDbEntity
  8
DETAILS
 62
     6
370
    20
100
AcDbLine
 10
11.57913071775687
 20
82.19336571803479
 30
0.0
 11
11.02913071775668
 21
82.19336571803523
 31
0.0
  0
LINE
  5
7CC
330
1F
100
AcDbEntity
  8
DETAILS
 62
     6
370
    20
100
AcDbLine
 10
10.82913071775687
 20
82.19336571803523
 30
0.0
 11
10.22913071775468
 21
82.19336571803523
 31
0.0
  0
LINE
  5
7CD
330
1F
100
AcDbEntity
  8
DETAILS
 62
     6
370
    20
100
AcDbLine
 10
10.02913071775487
 20
82.19336571803523
 30
0.0
 11
9.479130717754685
 21
82.19336571803523
 31
0.0
  0
LINE
  5
7CE
330
1F
100
AcDbEntity
  8
DETAILS
 62
     6
370
    20
100
AcDbLine
 10
9.279130717753957
 20
82.19336571803523
 30
0.0
 11
8.529130717756686
 21
82.19336571803523
 31
0.0
  0
ARC
  5
7CF
330
1F
100
AcDbEntity
  8
DETAILS
 62
     6
370
    20
100
AcDbCircle
 10
9.279130717753957
 20
82.24336571803542
 30
0.0
 40
0.05
100
AcDbArc
 50
270.0
 51
0.0
  0
ARC
  5
7D0
330
1F
100
AcDbEntity
  8
DETAILS
 62
     6
370
    20
100
AcDbCircle
 10
9.479130717754685
 20
82.24336571803542
 30
0.0
 40
0.05
100
AcDbArc
 50
180.0
 51
270.0
  0
ARC
  5
7D1
330
1F
100
AcDbEntity
  8
DETAILS
 62
     6
370
    20
100
AcDbCircle
 10
10.02913071775487
 20
82.24336571803496
 30
0.0
 40
0.05
100
AcDbArc
 50
270.0
 51
0.0
  0
ARC
  5
7D2
330
1F
100
AcDbEntity
  8
DETAILS
 62
     6
370
    20
100
AcDbCircle
 10
10.22913071775468
 20
82.24336571803496
 30
0.0
 40
0.05
100
AcDbArc
 50
180.0
 51
270.0
  0
ARC
  5
7D3
330
1F
100
AcDbEntity
  8
DETAILS
 62
     6
370
    20
100
AcDbCircle
 10
10.82913071775687
 20
82.24336571803496
 30
0.0
 40
0.05
100
AcDbArc
 50
270.0
 51
0.0
  0
ARC
  5
7D4
330
1F
100
AcDbEntity
  8
DETAILS
 62
     6
370
    20
100
AcDbCircle
 10
11.02913071775668
 20
82.24336571803496
 30
0.0
 40
0.05
100
AcDbArc
 50
180.0
 51
270.0
  0
ARC
  5
7D5
330
1F
100
AcDbEntity
  8
DETAILS
 62
     6
370
    20
100
AcDbCircle
 10
11.57913071775687
 20
82.24336571803496
 30
0.0
 40
0.05
100
AcDbArc
 50
270.0
 51
0.0
  0
ARC
  5
7D6
330
1F
100
AcDbEntity
  8
DETAILS
 62
     6
370
    20
100
AcDbCircle
 10
11.77913071775577
 20
82.24336571803496
 30
0.0
 40
0.05
100
AcDbArc
 50
179.9999999999479
 51
270.0
  0
LINE
  5
7D7
330
1F
100
AcDbEntity
  8
DETAILS
 62
     6
370
    20
100
AcDbLine
 10
8.529130717756686
 20
82.19336571803523
 30
0.0
 11
12.52913071775668
 21
82.19336571803523
 31
0.0
  0
LINE
  5
7D8
330
1F
100
AcDbEntity
  8
DETAILS
 62
     6
370
    20
100
AcDbLine
 10
9.279130717753957
 20
82.19336571803523
 30
0.0
 11
9.479130717754685
 21
82.19336571803523
 31
0.0
  0
LINE
  5
7D9
330
1F
100
AcDbEntity
  8
DETAILS
 62
     6
370
    20
100
AcDbLine
 10
10.02913071775487
 20
82.19336571803523
 30
0.0
 11
10.22913071775468
 21
82.19336571803523
 31
0.0
  0
LINE
  5
7DA
330
1F
100
AcDbEntity
  8
DETAILS
 62
     6
370
    20
100
AcDbLine
 10
10.82913071775687
 20
82.19336571803523
 30
0.0
 11
11.02913071775668
 21
82.19336571803523
 31
0.0
  0
LINE
  5
7DB
330
1F
100
AcDbEntity
  8
DETAILS
 62
     6
370
    20
100
AcDbLine
 10
11.57913071775687
 20
82.19336571803523
 30
0.0
 11
11.77913071775577
 21
82.19336571803523
 31
0.0
  0
LINE
  5
7DC
330
1F
100
AcDbEntity
  8
DETAILS
 62
     6
370
    20
100
AcDbLine
 10
9.329130717755049
 20
77.17336571803525
 30
0.0
 11
9.429130717755413
 21
77.17336571803525
 31
0.0
  0
LINE
  5
7DD
330
1F
100
AcDbEntity
  8
DETAILS
 62
     6
370
    20
100
AcDbLine
 10
9.398742332323251
 20
76.45944339533253
 30
0.0
 11
9.429130717755413
 21
76.69336571803524
 31
0.0
  0
LINE
  5
7DE
330
1F
100
AcDbEntity
  8
DETAILS
 62
     6
370
    20
100
AcDbLine
 10
9.359519105295419
 20
76.45944339533298
 30
0.0
 11
9.329130717755049
 21
76.69336571803524
 31
0.0
  0
ARC
  5
7DF
330
1F
100
AcDbEntity
  8
DETAILS
 62
     6
370
    20
100
AcDbCircle
 10
9.379130718809335
 20
76.46336571803522
 30
0.0
 40
0.02
100
AcDbArc
 50
191.3099324739691
 51
348.6900675259439
  0
LINE
  5
7E0
330
1F
100
AcDbEntity
  8
DETAILS
 62
     6
370
    20
100
AcDbLine
 10
10.14874233127005
 20
76.45944339533253
 30
0.0
 11
10.17913071670222
 21
76.69336571803524
 31
0.0
  0
LINE
  5
7E1
330
1F
100
AcDbEntity
  8
DETAILS
 62
     6
370
    20
100
AcDbLine
 10
10.10951910424222
 20
76.45944339533298
 30
0.0
 11
10.07913071670185
 21
76.69336571803524
 31
0.0
  0
ARC
  5
7E2
330
1F
100
AcDbEntity
  8
DETAILS
 62
     6
370
    20
100
AcDbCircle
 10
10.12913071775614
 20
76.46336571803522
 30
0.0
 40
0.02
100
AcDbArc
 50
191.3099324739691
 51
348.6900675259439
  0
LINE
  5
7E3
330
1F
100
AcDbEntity
  8
DETAILS
 62
     6
370
    20
100
AcDbLine
 10
10.94874233127115
 20
76.45944339533253
 30
0.0
 11
10.97913071670331
 21
76.69336571803524
 31
0.0
  0
LINE
  5
7E4
330
1F
100
AcDbEntity
  8
DETAILS
 62
     6
370
    20
100
AcDbLine
 10
10.90951910424331
 20
76.45944339533298
 30
0.0
 11
10.87913071670294
 21
76.69336571803524
 31
0.0
  0
ARC
  5
7E5
330
1F
100
AcDbEntity
  8
DETAILS
 62
     6
370
    20
100
AcDbCircle
 10
10.92913071775723
 20
76.46336571803522
 30
0.0
 40
0.02
100
AcDbArc
 50
191.3099324739691
 51
348.6900675259439
  0
LINE
  5
7E6
330
1F
100
AcDbEntity
  8
DETAILS
 62
     6
370
    20
100
AcDbLine
 10
11.69874233127115
 20
76.45944339533253
 30
0.0
 11
11.72913071670331
 21
76.69336571803524
 31
0.0
  0
LINE
  5
7E7
330
1F
100
AcDbEntity
  8
DETAILS
 62
     6
370
    20
100
AcDbLine
 10
11.65951910424331
 20
76.45944339533298
 30
0.0
 11
11.62913071670294
 21
76.69336571803524
 31
0.0
  0
ARC
  5
7E8
330
1F
100
AcDbEntity
  8
DETAILS
 62
     6
370
    20
100
AcDbCircle
 10
11.67913071775723
 20
76.46336571803522
 30
0.0
 40
0.02
100
AcDbArc
 50
191.3099324739691
 51
348.6900675259439
  0
LINE
  5
7E9
330
1F
100
AcDbEntity
  8
DETAILS
 62
     6
370
    20
100
AcDbLine
 10
9.069130717753921
 20
76.69336571803524
 30
0.0
 11
8.529130717756686
 21
76.17285025411911
 31
0.0
  0
LINE
  5
7EA
330
1F
100
AcDbEntity
  8
DETAILS
 62
     6
370
    20
100
AcDbLine
 10
11.96913071775628
 20
76.69336571803478
 30
0.0
 11
12.52913071775668
 21
76.15908000374838
 31
0.0
  0
LINE
  5
7EB
330
1F
100
AcDbEntity
  8
DETAILS
 62
     6
370
    20
100
AcDbLine
 10
11.9791307177565
 20
82.19336571803523
 30
0.0
 11
12.52913071775668
 21
82.72362212829103
 31
0.0
  0
LINE
  5
7EC
330
1F
100
AcDbEntity
  8
DETAILS
 62
     6
370
    20
100
AcDbLine
 10
9.079130717755049
 20
82.19336571803523
 30
0.0
 11
8.529130717757595
 21
82.72362212829012
 31
0.0
  0
LINE
  5
7ED
330
1F
100
AcDbEntity
  8
0
  6
HIDDEN
 62
     1
 48
0.02
100
AcDbLine
 10
6.87913071775705
 20
73.69336571803524
 30
0.0
 11
7.50413071775705
 21
73.69336571803524
 31
0.0
  0
LINE
  5
7EE
330
1F
100
AcDbEntity
  8
0
  6
HIDDEN
 62
     1
 48
0.02
100
AcDbLine
 10
7.904130717756686
 20
73.69336571803524
 30
0.0
 11
7.904130717755776
 21
73.19336571803524
 31
0.0
  0
LINE
  5
7EF
330
1F
100
AcDbEntity
  8
0
  6
HIDDEN
 62
     1
 48
0.02
100
AcDbLine
 10
7.50413071775705
 20
73.69336571803524
 30
0.0
 11
7.504130717757959
 21
73.19336571803524
 31
0.0
  0
LINE
  5
7F0
330
1F
100
AcDbEntity
  8
0
  6
HIDDEN
 62
     1
 48
0.02
100
AcDbLine
 10
7.904130717755776
 20
73.69336571803524
 30
0.0
 11
8.529130717755776
 21
73.69336571803524
 31
0.0
  0
LINE
  5
7F1
330
1F
100
AcDbEntity
  8
0
  6
HIDDEN
 62
     1
 48
0.02
100
AcDbLine
 10
14.17913071775814
 20
73.69336571803524
 30
0.0
 11
14.17913071775814
 21
73.19336571803524
 31
0.0
  0
LINE
  5
7F2
330
1F
100
AcDbEntity
  8
0
  6
HIDDEN
 62
     1
 48
0.02
100
AcDbLine
 10
13.15413071775759
 20
73.69336571803524
 30
0.0
 11
13.15413071775759
 21
73.19336571803524
 31
0.0
  0
LINE
  5
7F3
330
1F
100
AcDbEntity
  8
0
  6
HIDDEN
 62
     1
 48
0.02
100
AcDbLine
 10
13.55413071775814
 20
73.69336571803524
 30
0.0
 11
13.55413071775814
 21
73.19336571803524
 31
0.0
  0
LINE
  5
7F4
330
1F
100
AcDbEntity
  8
0
  6
HIDDEN
 62
     1
 48
0.02
100
AcDbLine
 10
12.52913071775759
 20
73.69336571803524
 30
0.0
 11
13.15413071775759
 21
73.69336571803524
 31
0.0
  0
LINE
  5
7F5
330
1F
100
AcDbEntity
  8
0
  6
HIDDEN
 62
     1
 48
0.02
100
AcDbLine
 10
13.55413071775814
 20
73.69336571803524
 30
0.0
 11
14.17913071775814
 21
73.69336571803524
 31
0.0
  0
LINE
  5
7F6
330
1F
100
AcDbEntity
  8
0
  6
HIDDEN
 62
     1
 48
0.02
100
AcDbLine
 10
12.97913071775832
 20
73.44336571803523
 30
0.0
 11
12.97913071775832
 21
73.19336571803524
 31
0.0
  0
LINE
  5
7F7
330
1F
100
AcDbEntity
  8
0
  6
HIDDEN
 62
     1
 48
0.02
100
AcDbLine
 10
12.72913071775832
 20
73.44336571803523
 30
0.0
 11
12.97913071775832
 21
73.44336571803523
 31
0.0
  0
LINE
  5
7F8
330
1F
100
AcDbEntity
  8
0
 48
0.15
100
AcDbLine
 10
8.529130717757595
 20
73.19336571803524
 30
0.0
 11
12.52913071775759
 21
73.19336571803524
 31
0.0
  0
LINE
  5
7F9
330
1F
100
AcDbEntity
  8
0
 48
0.15
100
AcDbLine
 10
15.0291307177585
 20
98.50030212880483
 30
0.0
 11
15.02913071775759
 21
72.69336571803569
 31
0.0
  0
LINE
  5
7FA
330
1F
100
AcDbEntity
  8
0
 48
0.15
100
AcDbLine
 10
6.029130717757595
 20
95.53634773027988
 30
0.0
 11
6.029130717757595
 21
72.69336571803524
 31
0.0
  0
LINE
  5
7FB
330
1F
100
AcDbEntity
  8
DIM
100
AcDbLine
 10
16.41353731681642
 20
98.96981341957507
 30
0.0
 11
11.4433768409944
 21
97.28422013944646
 31
0.0
  0
LINE
  5
7FC
330
1F
100
AcDbEntity
  8
DIM
100
AcDbLine
 10
12.14540910359568
 20
95.21419942598914
 30
0.0
 11
11.44337684099531
 21
97.28422013944646
 31
0.0
  0
LINE
  5
7FD
330
1F
100
AcDbEntity
  8
DIM
100
AcDbLine
 10
8.698263545311363
 20
98.66134498427392
 30
0.0
 11
9.400295807911732
 21
96.59132427081704
 31
0.0
  0
LINE
  5
7FE
330
1F
100
AcDbEntity
  8
DIM
100
AcDbLine
 10
9.400295807911732
 20
96.59132427081704
 30
0.0
 11
3.332944134284787
 21
94.69259979198159
 31
0.0
  0
LINE
  5
7FF
330
1F
100
AcDbEntity
  8
DIM
100
AcDbLine
 10
12.14540910359568
 20
95.21419942598914
 30
0.0
 11
8.698263545311363
 21
98.66134498427392
 31
0.0
  0
LINE
  5
800
330
1F
100
AcDbEntity
  8
0
 48
0.15
100
AcDbLine
 10
6.029130717757595
 20
72.69336571803524
 30
0.0
 11
8.55550630725969
 21
72.69336571803297
 31
0.0
  0
LINE
  5
801
330
1F
100
AcDbEntity
  8
0
 48
0.15
100
AcDbLine
 10
9.593183782073481
 20
73.19336571803524
 30
0.0
 11
9.343183782073481
 21
73.19336571803524
 31
0.0
  0
LINE
  5
802
330
1F
100
AcDbEntity
  8
0
 48
0.15
100
AcDbLine
 10
8.555506307258781
 20
73.19336571803524
 30
0.0
 11
8.555506307258781
 21
71.69336571803524
 31
0.0
  0
LINE
  5
803
330
1F
100
AcDbEntity
  8
0
 48
0.15
100
AcDbLine
 10
8.555506307258781
 20
71.69336571803524
 30
0.0
 11
8.055506307258781
 21
71.69336571803524
 31
0.0
  0
LINE
  5
804
330
1F
100
AcDbEntity
  8
0
 48
0.15
100
AcDbLine
 10
8.055506307258781
 20
71.69336571803524
 30
0.0
 11
8.055506307258781
 21
70.94336571803523
 31
0.0
  0
LINE
  5
805
330
1F
100
AcDbEntity
  8
0
 48
0.15
100
AcDbLine
 10
8.055506307258781
 20
70.94336571803523
 30
0.0
 11
8.180506307258781
 21
70.94336571803523
 31
0.0
  0
LINE
  5
806
330
1F
100
AcDbEntity
  8
0
 48
0.15
100
AcDbLine
 10
8.180506307258781
 20
70.94336571803523
 30
0.0
 11
8.180506307258781
 21
69.77658561480803
 31
0.0
  0
LINE
  5
807
330
1F
100
AcDbEntity
  8
0
 48
0.15
100
AcDbLine
 10
8.180506307258781
 20
69.77658561480803
 30
0.0
 11
8.055506307258781
 21
69.77658561480803
 31
0.0
  0
LINE
  5
808
330
1F
100
AcDbEntity
  8
0
 48
0.15
100
AcDbLine
 10
8.055506307258781
 20
69.77658561480803
 30
0.0
 11
8.055506307258781
 21
69.52658561480802
 31
0.0
  0
LINE
  5
809
330
1F
100
AcDbEntity
  8
0
 48
0.15
100
AcDbLine
 10
8.055506307258781
 20
69.52658561480802
 30
0.0
 11
8.490235080833315
 21
69.09185684123304
 31
0.0
  0
LINE
  5
80A
330
1F
100
AcDbEntity
  8
0
 48
0.15
100
AcDbLine
 10
8.490235080833315
 20
69.09185684123304
 30
0.0
 11
9.046162261250117
 21
69.09185684123304
 31
0.0
  0
LINE
  5
80B
330
1F
100
AcDbEntity
  8
0
 48
0.15
100
AcDbLine
 10
10.92496385440785
 20
69.52658561480802
 30
0.0
 11
10.49023508083331
 21
69.09185684123304
 31
0.0
  0
LINE
  5
80C
330
1F
100
AcDbEntity
  8
0
 48
0.15
100
AcDbLine
 10
10.92496385440785
 20
69.52658561480802
 30
0.0
 11
10.92496385440785
 21
70.97625044020651
 31
0.0
  0
LINE
  5
80D
330
1F
100
AcDbEntity
  8
0
 48
0.15
100
AcDbLine
 10
10.92496385440785
 20
70.97625044020651
 30
0.0
 11
11.7177693270259
 21
70.97625044020651
 31
0.0
  0
LINE
  5
80E
330
1F
100
AcDbEntity
  8
0
 48
0.15
100
AcDbLine
 10
11.7177693270259
 20
70.97625044020651
 30
0.0
 11
11.71776932702681
 21
73.19336571803524
 31
0.0
  0
LINE
  5
80F
330
1F
100
AcDbEntity
  8
0
 48
0.15
100
AcDbLine
 10
9.046162261251026
 20
69.95236123292534
 30
0.0
 11
9.046162261251026
 21
60.82525315422436
 31
0.0
  0
LINE
  5
810
330
1F
100
AcDbEntity
  8
0
 48
0.15
100
AcDbLine
 10
9.171162261251026
 20
69.95236123292534
 30
0.0
 11
9.171162261251026
 21
60.82525315422436
 31
0.0
  0
LINE
  5
811
330
1F
100
AcDbEntity
  8
0
 48
0.15
100
AcDbLine
 10
9.171162261251026
 20
69.95236123292534
 30
0.0
 11
9.046162261251026
 21
69.95236123292534
 31
0.0
  0
LINE
  5
812
330
1F
100
AcDbEntity
  8
0
 48
0.15
100
AcDbLine
 10
9.776095218892749
 20
69.95236123292534
 30
0.0
 11
9.776095218892749
 21
60.82525315422436
 31
0.0
  0
LINE
  5
813
330
1F
100
AcDbEntity
  8
0
 48
0.15
100
AcDbLine
 10
9.901095218892749
 20
69.95236123292534
 30
0.0
 11
9.901095218892749
 21
60.82525315422436
 31
0.0
  0
LINE
  5
814
330
1F
100
AcDbEntity
  8
0
 48
0.15
100
AcDbLine
 10
9.901095218892749
 20
69.95236123292534
 30
0.0
 11
9.776095218892749
 21
69.95236123292534
 31
0.0
  0
LINE
  5
815
330
1F
100
AcDbEntity
  8
0
 48
0.15
100
AcDbLine
 10
9.171162261251936
 20
69.09185684123304
 30
0.0
 11
9.776095218892749
 21
69.09185684123304
 31
0.0
  0
LINE
  5
816
330
1F
100
AcDbEntity
  8
0
 48
0.15
100
AcDbLine
 10
9.901095218892749
 20
69.09185684123304
 30
0.0
 11
10.49023508083331
 21
69.09185684123304
 31
0.0
  0
LINE
  5
817
330
1F
100
AcDbEntity
  8
0
 48
0.15
100
AcDbLine
 10
10.13638116228861
 20
69.79083896786005
 30
0.0
 11
9.901095218892749
 21
69.79083896786005
 31
0.0
  0
LINE
  5
818
330
1F
100
AcDbEntity
  8
0
 48
0.15
100
AcDbLine
 10
8.798716418134006
 20
69.79083896786005
 30
0.0
 11
8.798716418134006
 21
70.27293336776029
 31
0.0
  0
LINE
  5
819
330
1F
100
AcDbEntity
  8
0
 48
0.15
100
AcDbLine
 10
8.798716418134006
 20
70.27293336776029
 30
0.0
 11
8.944896686991285
 21
70.27293336776029
 31
0.0
  0
LINE
  5
81A
330
1F
100
AcDbEntity
  8
0
 48
0.15
100
AcDbLine
 10
10.13638116228861
 20
69.79083896786005
 30
0.0
 11
10.13638116228861
 21
70.27293336776029
 31
0.0
  0
LINE
  5
81B
330
1F
100
AcDbEntity
  8
0
 48
0.15
100
AcDbLine
 10
10.13638116228861
 20
70.27293336776029
 30
0.0
 11
9.990200893431335
 21
70.27293336776029
 31
0.0
  0
ARC
  5
81C
330
1F
100
AcDbEntity
  8
0
 48
0.15
100
AcDbCircle
 10
9.46754879021131
 20
69.75028126454026
 30
0.0
 40
0.7391416927765827
100
AcDbArc
 50
45.0
 51
135.0
  0
LINE
  5
81D
330
1F
100
AcDbEntity
  8
0
 48
0.15
100
AcDbLine
 10
9.046162261250117
 20
69.79083896786005
 30
0.0
 11
8.798716418134006
 21
69.79083896786005
 31
0.0
  0
LINE
  5
81E
330
1F
100
AcDbEntity
  8
0
 48
0.15
100
AcDbLine
 10
9.776095218892749
 20
69.79083896786005
 30
0.0
 11
9.171162261251936
 21
69.79083896786005
 31
0.0
  0
MTEXT
  5
81F
330
1F
100
AcDbEntity
  8
DIM
 62
     3
100
AcDbMText
 10
23.96380418966231
 20
61.10361941119845
 30
0.0
 40
1.0
 41
22.68954545454545
 71
     1
 72
     5
  1
WINDOW BY OTHERS
  7
RomanC
 73
     1
 44
1.0
1001
ACAD
1000
MTEXTBEGIN
1070
    73
1070
     1
1070
    44
1040
1.0
1070
    74
1070
     0
1000
MTEXTEND
  0
MTEXT
  5
820
330
1F
100
AcDbEntity
  8
DIM
 62
     3
100
AcDbMText
 10
23.96380418966231
 20
84.12357030022031
 30
0.0
 40
1.0
 41
22.68954545454545
 71
     1
 72
     5
  1
INTERIOR GYPSUM WALLBOARD FASTEN TO TIES
  7
RomanC
 73
     1
 44
1.0
1001
ACAD
1000
MTEXTBEGIN
1070
    73
1070
     1
1070
    44
1040
1.0
1070
    74
1070
     0
1000
MTEXTEND
  0
MTEXT
  5
821
330
1F
100
AcDbEntity
  8
DIM
 62
     3
100
AcDbMText
 10
23.96380418966231
 20
89.41662838786578
 30
0.0
 40
1.0
 41
22.68954545454545
 71
     1
 72
     5
  1
REINFORCEMENT PER ENGINEER
  7
RomanC
 73
     1
 44
1.0
1001
ACAD
1000
MTEXTBEGIN
1070
    73
1070
     1
1070
    44
1040
1.0
1070
    74
1070
     0
1000
MTEXTEND
  0
LWPOLYLINE
  5
822
330
1F
100
AcDbEntity
  8
0
 48
0.15
100
AcDbPolyline
 90
        2
 70
     1
 43
0.25
 10
11.18347390872253
 20
82.51902481678962
 42
1.0
 10
11.43347390872253
 20
82.51902481678962
 42
1.0
  0
LWPOLYLINE
  5
823
330
1F
100
AcDbEntity
  8
0
 48
0.15
100
AcDbPolyline
 90
        2
 70
     1
 43
0.25
 10
9.628521648215553
 20
82.51902481678962
 42
1.0
 10
9.878521648215553
 20
82.51902481678962
 42
1.0
  0
LWPOLYLINE
  5
824
330
1F
100
AcDbEntity
  8
0
 48
0.15
100
AcDbPolyline
 90
        2
 70
     1
 43
0.25
 10
11.18347390872253
 20
76.34180187978973
 42
1.0
 10
11.43347390872253
 20
76.34180187978973
 42
1.0
  0
LWPOLYLINE
  5
825
330
1F
100
AcDbEntity
  8
0
 48
0.15
100
AcDbPolyline
 90
        2
 70
     1
 43
0.25
 10
9.628521648215553
 20
76.34180187978973
 42
1.0
 10
9.878521648215553
 20
76.34180187978973
 42
1.0
  0
LEADER
  5
826
330
1F
100
AcDbEntity
  8
DIM
 48
0.15
100
AcDbLeader
  3
ARCTEXT 1-1
 76
     2
 10
15.02913071775759
 20
83.55257677999588
 30
0.0
 10
23.20791670272769
 20
83.55257677999588
 30
0.0
1001
ACAD
1000
DSTYLE
1002
{
1070
    40
1040
1.0
1070
    41
1040
0.5
1070
    77
1070
     0
1002
}
  0
LEADER
  5
827
330
1F
100
AcDbEntity
  8
DIM
 48
0.15
100
AcDbLeader
  3
ARCTEXT 1-1
 76
     3
 10
9.753521648215553
 20
82.39402481678963
 30
0.0
 10
16.31775183881103
 20
88.9582550073851
 30
0.0
 10
23.0060311452998
 20
88.9582550073851
 30
0.0
1001
ACAD
1000
DSTYLE
1002
{
1070
    40
1040
1.0
1070
    41
1040
0.5
1070
    77
1070
     0
1002
}
  0
LINE
  5
828
330
1F
100
AcDbEntity
  8
0
 48
0.15
100
AcDbLine
 10
15.02913071775759
 20
72.69336571803569
 30
0.0
 11
11.7177693270259
 21
72.69336571803524
 31
0.0
  0
MTEXT
  5
829
330
1F
100
AcDbEntity
  8
DIM
 62
     3
100
AcDbMText
 10
23.96380418966231
 20
67.1684731161913
 30
0.0
 40
1.0
 41
22.68954545454545
 71
     1
 72
     5
  1
WINDOW ATTACHMENT PER MANUFACTURER
  7
RomanC
 73
     1
 44
1.0
1001
ACAD
1000
MTEXTBEGIN
1070
    73
1070
     1
1070
    44
1040
1.0
1070
    74
1070
     0
1000
MTEXTEND
  0
LEADER
  5
82A
330
1F
100
AcDbEntity
  8
DIM
 48
0.15
100
AcDbLeader
  3
ARCTEXT 1-1
 76
     3
 10
11.32136659071687
 20
72.44375430661785
 30
0.0
 10
19.05365813868951
 20
66.55916881016356
 30
0.0
 10
22.93971238360058
 20
66.55916881016356
 30
0.0
1001
ACAD
1000
DSTYLE
1002
{
1070
    40
1040
1.0
1070
    41
1040
0.5
1070
    77
1070
     0
1002
}
  0
LEADER
  5
82B
330
1F
100
AcDbEntity
  8
DIM
 48
0.15
100
AcDbLeader
  3
ARCTEXT 1-1
 76
     3
 10
9.901095218892749
 20
65.38880719357485
 30
0.0
 10
18.99114650478253
 20
60.81930796794404
 30
0.0
 10
23.11637110794794
 20
60.81930796794404
 30
0.0
1001
ACAD
1000
DSTYLE
1002
{
1070
    40
1040
1.0
1070
    41
1040
0.5
1070
    77
1070
     0
1002
}
  0
LINE
  5
82C
330
1F
100
AcDbEntity
  8
A5 heavy
 48
0.15
100
AcDbLine
 10
11.07136659071688
 20
70.97625044020651
 30
0.0
 11
11.57136659071688
 21
70.97625044020651
 31
0.0
  0
LINE
  5
82D
330
1F
100
AcDbEntity
  8
A5 heavy
 48
0.15
100
AcDbLine
 10
11.32136659071687
 20
70.97625044020651
 30
0.0
 11
11.32136659071687
 21
74.25966698294769
 31
0.0
  0
ENDSEC
  0
SECTION
  2
OBJECTS
  0
DICTIONARY
  5
C
330
0
100
AcDbDictionary
281
     1
  3
ACAD_COLOR
350
73
  3
ACAD_GROUP
350
D
  3
ACAD_LAYOUT
350
1A
  3
ACAD_MATERIAL
350
72
  3
ACAD_MLINESTYLE
350
17
  3
ACAD_PLOTSETTINGS
350
19
  3
ACAD_PLOTSTYLENAME
350
E
  3
ACDBHEADERROUNDTRIPXREC
350
82F
  3
AcDbVariableDictionary
350
66
  0
DICTIONARY
  5
A4
330
2
100
AcDbDictionary
280
     1
281
     1
  3
ACAD_LAYERSTATES
360
A5
  0
DICTIONARY
  5
73
102
{ACAD_REACTORS
330
C
102
}
330
C
100
AcDbDictionary
281
     1
  0
DICTIONARY
  5
D
102
{ACAD_REACTORS
330
C
102
}
330
C
100
AcDbDictionary
281
     1
  0
DICTIONARY
  5
1A
102
{ACAD_REACTORS
330
C
102
}
330
C
100
AcDbDictionary
281
     1
  3
Layout1
350
59
  3
Layout2
350
5E
  3
Model
350
22
  0
DICTIONARY
  5
72
102
{ACAD_REACTORS
330
C
102
}
330
C
100
AcDbDictionary
281
     1
  0
DICTIONARY
  5
17
102
{ACAD_REACTORS
330
C
102
}
330
C
100
AcDbDictionary
281
     1
  3
Standard
350
18
  0
DICTIONARY
  5
19
102
{ACAD_REACTORS
330
C
102
}
330
C
100
AcDbDictionary
281
     1
  0
ACDBDICTIONARYWDFLT
  5
E
102
{ACAD_REACTORS
330
C
102
}
330
C
100
AcDbDictionary
281
     1
  3
Normal
350
F
100
AcDbDictionaryWithDefault
340
F
  0
DICTIONARY
  5
82F
102
{ACAD_REACTORS
330
C
102
}
330
C
100
AcDbDictionary
281
     1
  3
COLORDICT
350
831
  3
MATERIALDICT
350
830
  0
DICTIONARY
  5
66
102
{ACAD_REACTORS
330
C
102
}
330
C
100
AcDbDictionary
281
     1
  3
DIMASSOC
350
67
  3
HIDETEXT
350
6B
  3
PROJECTNAME
350
32B
  0
DICTIONARY
  5
A5
102
{ACAD_REACTORS
330
A4
102
}
330
A4
100
AcDbDictionary
281
     1
  0
LAYOUT
  5
59
102
{ACAD_XDICTIONARY
360
834
102
}
102
{ACAD_REACTORS
330
1A
102
}
330
1A
100
AcDbPlotSettings
  1

  2
None
  4

  6

 40
0.0
 41
0.0
 42
0.0
 43
0.0
 44
0.0
 45
0.0
 46
0.0
 47
0.0
 48
0.0
 49
0.0
140
0.0
141
0.0
142
1.0
143
1.0
 70
   688
 72
     0
 73
     0
 74
     5
  7

 75
    16
147
1.0
148
0.0
149
0.0
100
AcDbLayout
  1
Layout1
 70
     1
 71
     1
 10
0.0
 20
0.0
 11
12.0
 21
9.0
 12
0.0
 22
0.0
 32
0.0
 14
0.0
 24
0.0
 34
0.0
 15
0.0
 25
0.0
 35
0.0
146
0.0
 13
0.0
 23
0.0
 33
0.0
 16
1.0
 26
0.0
 36
0.0
 17
0.0
 27
1.0
 37
0.0
 76
     0
330
58
  0
LAYOUT
  5
5E
102
{ACAD_XDICTIONARY
360
836
102
}
102
{ACAD_REACTORS
330
1A
102
}
330
1A
100
AcDbPlotSettings
  1

  2
None
  4

  6

 40
0.0
 41
0.0
 42
0.0
 43
0.0
 44
0.0
 45
0.0
 46
0.0
 47
0.0
 48
0.0
 49
0.0
140
0.0
141
0.0
142
1.0
143
1.0
 70
   688
 72
     0
 73
     0
 74
     5
  7

 75
    16
147
1.0
148
0.0
149
0.0
100
AcDbLayout
  1
Layout2
 70
     1
 71
     2
 10
0.0
 20
0.0
 11
12.0
 21
9.0
 12
0.0
 22
0.0
 32
0.0
 14
0.0
 24
0.0
 34
0.0
 15
0.0
 25
0.0
 35
0.0
146
0.0
 13
0.0
 23
0.0
 33
0.0
 16
1.0
 26
0.0
 36
0.0
 17
0.0
 27
1.0
 37
0.0
 76
     0
330
5D
  0
LAYOUT
  5
22
102
{ACAD_XDICTIONARY
360
832
102
}
102
{ACAD_REACTORS
330
1A
102
}
330
1A
100
AcDbPlotSettings
  1

  2
none_device
  4
ANSI_A_(8.50_x_11.00_Inches)
  6

 40
6.349999904632568
 41
19.04999923706055
 42
6.350006103515625
 43
19.04998779296875
 44
215.8999938964844
 45
279.3999938964844
 46
0.0
 47
0.0
 48
0.0
 49
0.0
140
0.0
141
0.0
142
1.0
143
2.584895464708373
 70
 11952
 72
     0
 73
     1
 74
     0
  7

 75
     0
147
0.3868628397755418
148
0.0
149
0.0
100
AcDbLayout
  1
Model
 70
     1
 71
     0
 10
0.0
 20
0.0
 11
12.0
 21
9.0
 12
0.0
 22
0.0
 32
0.0
 14
0.0
 24
0.0
 34
0.0
 15
0.0
 25
0.0
 35
0.0
146
0.0
 13
0.0
 23
0.0
 33
0.0
 16
1.0
 26
0.0
 36
0.0
 17
0.0
 27
1.0
 37
0.0
 76
     0
330
1F
  0
MLINESTYLE
  5
18
102
{ACAD_REACTORS
330
17
102
}
330
17
100
AcDbMlineStyle
  2
STANDARD
 70
     0
  3

 62
   256
 51
90.0
 52
90.0
 71
     2
 49
0.5
 62
   256
  6
BYLAYER
 49
-0.5
 62
   256
  6
BYLAYER
  0
ACDBPLACEHOLDER
  5
F
102
{ACAD_REACTORS
330
E
102
}
330
E
  0
XRECORD
  5
831
102
{ACAD_REACTORS
330
82F
102
}
330
82F
100
AcDbXrecord
280
     1
340
73
  0
XRECORD
  5
830
102
{ACAD_REACTORS
330
82F
102
}
330
82F
100
AcDbXrecord
280
     1
340
72
  0
DICTIONARYVAR
  5
67
102
{ACAD_REACTORS
330
66
102
}
330
66
100
DictionaryVariables
280
     0
  1
2
  0
DICTIONARYVAR
  5
6B
102
{ACAD_REACTORS
330
66
102
}
330
66
100
DictionaryVariables
280
     0
  1
1
  0
DICTIONARYVAR
  5
32B
102
{ACAD_REACTORS
330
66
102
}
330
66
100
DictionaryVariables
280
     0
  1

  0
DICTIONARY
  5
834
330
59
100
AcDbDictionary
280
     1
281
     1
  3
ACAD_XREC_ROUNDTRIP
360
835
  0
DICTIONARY
  5
836
330
5E
100
AcDbDictionary
280
     1
281
     1
  3
ACAD_XREC_ROUNDTRIP
360
837
  0
DICTIONARY
  5
832
330
22
100
AcDbDictionary
280
     1
281
     1
  3
ACAD_XREC_ROUNDTRIP
360
833
  0
XRECORD
  5
835
102
{ACAD_REACTORS
330
834
102
}
330
834
100
AcDbXrecord
280
     1
102
SHADEPLOT
 70
     0
102
SHADEPLOTRESLEVEL
 70
     2
102
SHADEPLOTCUSTOMDPI
 70
   300
  0
XRECORD
  5
837
102
{ACAD_REACTORS
330
836
102
}
330
836
100
AcDbXrecord
280
     1
102
SHADEPLOT
 70
     0
102
SHADEPLOTRESLEVEL
 70
     2
102
SHADEPLOTCUSTOMDPI
 70
   300
  0
XRECORD
  5
833
102
{ACAD_REACTORS
330
832
102
}
330
832
100
AcDbXrecord
280
     1
102
SHADEPLOT
 70
     0
102
SHADEPLOTRESLEVEL
 70
     2
102
SHADEPLOTCUSTOMDPI
 70
   300
  0
ENDSEC
  0
EOF
