  0
SECTION
  2
HEADER
  9
$ACADVER
  1
AC1015
  9
$ACADMAINTVER
 70
    20
  9
$DWGCODEPAGE
  3
ANSI_1252
  9
$INSBASE
 10
0.0
 20
0.0
 30
0.0
  9
$EXTMIN
 10
-16.3053497445149
 20
16.9491759561127
 30
-0.0015258207003583
  9
$EXTMAX
 10
54.49566686222894
 20
87.30828682809791
 30
0.0000000349246037
  9
$LIMMIN
 10
0.0
 20
0.0
  9
$LIMMAX
 10
12.0
 20
9.0
  9
$ORTHOMODE
 70
     0
  9
$REGENMODE
 70
     1
  9
$FILLMODE
 70
     1
  9
$QTEXTMODE
 70
     0
  9
$MIRRTEXT
 70
     0
  9
$LTSCALE
 40
1.0
  9
$ATTMODE
 70
     1
  9
$TEXTSIZE
 40
0.2
  9
$TRACEWID
 40
0.05
  9
$TEXTSTYLE
  7
Standard
  9
$CLAYER
  8
0
  9
$CELTYPE
  6
ByLayer
  9
$CECOLOR
 62
   256
  9
$CELTSCALE
 40
1.0
  9
$DISPSILH
 70
     0
  9
$DIMSCALE
 40
1.0
  9
$DIMASZ
 40
0.18
  9
$DIMEXO
 40
0.0625
  9
$DIMDLI
 40
0.38
  9
$DIMRND
 40
0.0
  9
$DIMDLE
 40
0.0
  9
$DIMEXE
 40
0.18
  9
$DIMTP
 40
0.0
  9
$DIMTM
 40
0.0
  9
$DIMTXT
 40
0.18
  9
$DIMCEN
 40
0.09
  9
$DIMTSZ
 40
0.0
  9
$DIMTOL
 70
     0
  9
$DIMLIM
 70
     0
  9
$DIMTIH
 70
     1
  9
$DIMTOH
 70
     1
  9
$DIMSE1
 70
     0
  9
$DIMSE2
 70
     0
  9
$DIMTAD
 70
     0
  9
$DIMZIN
 70
     0
  9
$DIMBLK
  1

  9
$DIMASO
 70
     1
  9
$DIMSHO
 70
     1
  9
$DIMPOST
  1

  9
$DIMAPOST
  1

  9
$DIMALT
 70
     0
  9
$DIMALTD
 70
     2
  9
$DIMALTF
 40
25.4
  9
$DIMLFAC
 40
1.0
  9
$DIMTOFL
 70
     0
  9
$DIMTVP
 40
0.0
  9
$DIMTIX
 70
     0
  9
$DIMSOXD
 70
     0
  9
$DIMSAH
 70
     0
  9
$DIMBLK1
  1

  9
$DIMBLK2
  1

  9
$DIMSTYLE
  2
Standard
  9
$DIMCLRD
 70
     0
  9
$DIMCLRE
 70
     0
  9
$DIMCLRT
 70
     0
  9
$DIMTFAC
 40
1.0
  9
$DIMGAP
 40
0.09
  9
$DIMJUST
 70
     0
  9
$DIMSD1
 70
     0
  9
$DIMSD2
 70
     0
  9
$DIMTOLJ
 70
     1
  9
$DIMTZIN
 70
     0
  9
$DIMALTZ
 70
     0
  9
$DIMALTTZ
 70
     0
  9
$DIMUPT
 70
     0
  9
$DIMDEC
 70
     4
  9
$DIMTDEC
 70
     4
  9
$DIMALTU
 70
     2
  9
$DIMALTTD
 70
     2
  9
$DIMTXSTY
  7
Standard
  9
$DIMAUNIT
 70
     0
  9
$DIMADEC
 70
     0
  9
$DIMALTRND
 40
0.0
  9
$DIMAZIN
 70
     0
  9
$DIMDSEP
 70
    46
  9
$DIMATFIT
 70
     3
  9
$DIMFRAC
 70
     0
  9
$DIMLDRBLK
  1

  9
$DIMLUNIT
 70
     2
  9
$DIMLWD
 70
    -2
  9
$DIMLWE
 70
    -2
  9
$DIMTMOVE
 70
     0
  9
$LUNITS
 70
     2
  9
$LUPREC
 70
     4
  9
$SKETCHINC
 40
0.1
  9
$FILLETRAD
 40
0.0
  9
$AUNITS
 70
     0
  9
$AUPREC
 70
     0
  9
$MENU
  1
.
  9
$ELEVATION
 40
0.0
  9
$PELEVATION
 40
0.0
  9
$THICKNESS
 40
0.0
  9
$LIMCHECK
 70
     0
  9
$CHAMFERA
 40
0.0
  9
$CHAMFERB
 40
0.0
  9
$CHAMFERC
 40
0.0
  9
$CHAMFERD
 40
0.0
  9
$SKPOLY
 70
     0
  9
$TDCREATE
 40
2454938.360508912
  9
$TDUCREATE
 40
2454938.610508913
  9
$TDUPDATE
 40
2454938.362273970
  9
$TDUUPDATE
 40
2454938.612273970
  9
$TDINDWG
 40
0.0017654051
  9
$TDUSRTIMER
 40
0.0017654051
  9
$USRTIMER
 70
     1
  9
$ANGBASE
 50
0.0
  9
$ANGDIR
 70
     0
  9
$PDMODE
 70
     0
  9
$PDSIZE
 40
0.0
  9
$PLINEWID
 40
0.0
  9
$SPLFRAME
 70
     0
  9
$SPLINETYPE
 70
     6
  9
$SPLINESEGS
 70
     8
  9
$HANDSEED
  5
859
  9
$SURFTAB1
 70
     6
  9
$SURFTAB2
 70
     6
  9
$SURFTYPE
 70
     6
  9
$SURFU
 70
     6
  9
$SURFV
 70
     6
  9
$UCSBASE
  2

  9
$UCSNAME
  2

  9
$UCSORG
 10
0.0
 20
0.0
 30
0.0
  9
$UCSXDIR
 10
1.0
 20
0.0
 30
0.0
  9
$UCSYDIR
 10
0.0
 20
1.0
 30
0.0
  9
$UCSORTHOREF
  2

  9
$UCSORTHOVIEW
 70
     0
  9
$UCSORGTOP
 10
0.0
 20
0.0
 30
0.0
  9
$UCSORGBOTTOM
 10
0.0
 20
0.0
 30
0.0
  9
$UCSORGLEFT
 10
0.0
 20
0.0
 30
0.0
  9
$UCSORGRIGHT
 10
0.0
 20
0.0
 30
0.0
  9
$UCSORGFRONT
 10
0.0
 20
0.0
 30
0.0
  9
$UCSORGBACK
 10
0.0
 20
0.0
 30
0.0
  9
$PUCSBASE
  2

  9
$PUCSNAME
  2

  9
$PUCSORG
 10
0.0
 20
0.0
 30
0.0
  9
$PUCSXDIR
 10
1.0
 20
0.0
 30
0.0
  9
$PUCSYDIR
 10
0.0
 20
1.0
 30
0.0
  9
$PUCSORTHOREF
  2

  9
$PUCSORTHOVIEW
 70
     0
  9
$PUCSORGTOP
 10
0.0
 20
0.0
 30
0.0
  9
$PUCSORGBOTTOM
 10
0.0
 20
0.0
 30
0.0
  9
$PUCSORGLEFT
 10
0.0
 20
0.0
 30
0.0
  9
$PUCSORGRIGHT
 10
0.0
 20
0.0
 30
0.0
  9
$PUCSORGFRONT
 10
0.0
 20
0.0
 30
0.0
  9
$PUCSORGBACK
 10
0.0
 20
0.0
 30
0.0
  9
$USERI1
 70
     0
  9
$USERI2
 70
     0
  9
$USERI3
 70
     0
  9
$USERI4
 70
     0
  9
$USERI5
 70
     0
  9
$USERR1
 40
0.0
  9
$USERR2
 40
0.0
  9
$USERR3
 40
0.0
  9
$USERR4
 40
0.0
  9
$USERR5
 40
0.0
  9
$WORLDVIEW
 70
     1
  9
$SHADEDGE
 70
     3
  9
$SHADEDIF
 70
    70
  9
$TILEMODE
 70
     1
  9
$MAXACTVP
 70
    64
  9
$PINSBASE
 10
0.0
 20
0.0
 30
0.0
  9
$PLIMCHECK
 70
     0
  9
$PEXTMIN
 10
0.0
 20
0.0
 30
0.0
  9
$PEXTMAX
 10
0.0
 20
0.0
 30
0.0
  9
$PLIMMIN
 10
0.0
 20
0.0
  9
$PLIMMAX
 10
12.0
 20
9.0
  9
$UNITMODE
 70
     0
  9
$VISRETAIN
 70
     1
  9
$PLINEGEN
 70
     0
  9
$PSLTSCALE
 70
     1
  9
$TREEDEPTH
 70
  3020
  9
$CMLSTYLE
  2
Standard
  9
$CMLJUST
 70
     0
  9
$CMLSCALE
 40
1.0
  9
$PROXYGRAPHICS
 70
     1
  9
$MEASUREMENT
 70
     0
  9
$CELWEIGHT
370
    -1
  9
$ENDCAPS
280
     0
  9
$JOINSTYLE
280
     0
  9
$LWDISPLAY
290
     0
  9
$INSUNITS
 70
     1
  9
$HYPERLINKBASE
  1

  9
$STYLESHEET
  1

  9
$XEDIT
290
     1
  9
$CEPSNTYPE
380
     0
  9
$PSTYLEMODE
290
     1
  9
$FINGERPRINTGUID
  2
{FDEAD576-A652-11D2-9A35-0060089B3A3F}
  9
$VERSIONGUID
  2
{CB06704E-27DB-4421-9A64-A58FAFB961AB}
  9
$EXTNAMES
290
     1
  9
$PSVPSCALE
 40
0.0
  9
$OLESTARTUP
290
     0
  0
ENDSEC
  0
SECTION
  2
CLASSES
  0
CLASS
  1
ACDBDICTIONARYWDFLT
  2
AcDbDictionaryWithDefault
  3
ObjectDBX Classes
 90
        0
280
     0
281
     0
  0
CLASS
  1
ACDBPLACEHOLDER
  2
AcDbPlaceHolder
  3
ObjectDBX Classes
 90
        0
280
     0
281
     0
  0
CLASS
  1
LAYOUT
  2
AcDbLayout
  3
ObjectDBX Classes
 90
        0
280
     0
281
     0
  0
CLASS
  1
DICTIONARYVAR
  2
AcDbDictionaryVar
  3
ObjectDBX Classes
 90
        0
280
     0
281
     0
  0
CLASS
  1
SORTENTSTABLE
  2
AcDbSortentsTable
  3
ObjectDBX Classes
 90
        0
280
     0
281
     0
  0
ENDSEC
  0
SECTION
  2
TABLES
  0
TABLE
  2
VPORT
  5
8
330
0
100
AcDbSymbolTable
 70
     7
  0
VPORT
  5
84F
330
8
100
AcDbSymbolTableRecord
100
AcDbViewportTableRecord
  2
*Active
 70
     0
 10
0.0
 20
0.0
 11
1.0
 21
1.0
 12
19.09515855885702
 22
52.12873139210531
 13
0.0
 23
0.0
 14
0.5
 24
0.5
 15
0.5
 25
0.5
 16
0.0
 26
0.0
 36
1.0
 17
0.0
 27
0.0
 37
0.0
 40
70.86711889272158
 41
1.48433734939759
 42
50.0
 43
0.0
 44
0.0
 50
0.0
 51
0.0
 71
     0
 72
  1000
 73
     1
 74
     3
 75
     0
 76
     0
 77
     0
 78
     0
281
     0
 65
     1
110
0.0
120
0.0
130
0.0
111
1.0
121
0.0
131
0.0
112
0.0
122
1.0
132
0.0
 79
     0
146
0.0
  0
ENDTAB
  0
TABLE
  2
LTYPE
  5
5
330
0
100
AcDbSymbolTable
 70
     3
  0
LTYPE
  5
14
330
5
100
AcDbSymbolTableRecord
100
AcDbLinetypeTableRecord
  2
ByBlock
 70
     0
  3

 72
    65
 73
     0
 40
0.0
  0
LTYPE
  5
15
330
5
100
AcDbSymbolTableRecord
100
AcDbLinetypeTableRecord
  2
ByLayer
 70
     0
  3

 72
    65
 73
     0
 40
0.0
  0
LTYPE
  5
16
330
5
100
AcDbSymbolTableRecord
100
AcDbLinetypeTableRecord
  2
Continuous
 70
     0
  3
Solid line
 72
    65
 73
     0
 40
0.0
  0
LTYPE
  5
96
330
5
100
AcDbSymbolTableRecord
100
AcDbLinetypeTableRecord
  2
DASHED2
 70
     0
  3
_ _ _ _ _ _ _ _ _ _ _ _ _ _ _ _ _ _ _ _ _ _ _ _
 72
    65
 73
     2
 40
0.375
 49
0.25
 74
     0
 49
-0.125
 74
     0
  0
LTYPE
  5
97
330
5
100
AcDbSymbolTableRecord
100
AcDbLinetypeTableRecord
  2
HIDDEN
 70
     0
  3
Hidden __ __ __ __ __ __ __ __ __ __ __ __ __ _
 72
    65
 73
     2
 40
0.375
 49
0.25
 74
     0
 49
-0.125
 74
     0
  0
ENDTAB
  0
TABLE
  2
LAYER
  5
2
102
{ACAD_XDICTIONARY
360
A4
102
}
330
0
100
AcDbSymbolTable
 70
     6
  0
LAYER
  5
10
330
2
100
AcDbSymbolTableRecord
100
AcDbLayerTableRecord
  2
0
 70
     0
 62
     7
  6
Continuous
370
    -3
390
F
  0
LAYER
  5
98
330
2
100
AcDbSymbolTableRecord
100
AcDbLayerTableRecord
  2
DIM
 70
     0
 62
     3
  6
Continuous
370
    13
390
F
  0
LAYER
  5
99
330
2
100
AcDbSymbolTableRecord
100
AcDbLayerTableRecord
  2
Defpoints
 70
     0
 62
   252
  6
Continuous
290
     0
370
    -3
390
F
  0
LAYER
  5
9A
330
2
100
AcDbSymbolTableRecord
100
AcDbLayerTableRecord
  2
A2 Hatch
 70
     0
 62
     8
  6
Continuous
370
     9
390
F
  0
LAYER
  5
9B
330
2
100
AcDbSymbolTableRecord
100
AcDbLayerTableRecord
  2
A5 heavy
 70
     0
 62
     5
  6
Continuous
370
    53
390
F
  0
LAYER
  5
9C
330
2
100
AcDbSymbolTableRecord
100
AcDbLayerTableRecord
  2
DETAILS
 70
     0
 62
     7
  6
Continuous
370
    13
390
F
  0
ENDTAB
  0
TABLE
  2
STYLE
  5
3
330
0
100
AcDbSymbolTable
 70
     4
  0
STYLE
  5
11
330
3
100
AcDbSymbolTableRecord
100
AcDbTextStyleTableRecord
  2
Standard
 70
     0
 40
0.0
 41
1.0
 50
0.0
 71
     0
 42
0.2
  3
txt
  4

  0
STYLE
  5
9D
330
3
100
AcDbSymbolTableRecord
100
AcDbTextStyleTableRecord
  2
ARCHITXT
 70
     0
 40
0.0
 41
1.25
 50
0.0
 71
     0
 42
1.0
  3
ARCHITXT.shx
  4

  0
STYLE
  5
9E
330
3
100
AcDbSymbolTableRecord
100
AcDbTextStyleTableRecord
  2
ARCTEXT
 70
     0
 40
0.0
 41
0.85
 50
0.0
 71
     0
 42
5.096770384644268
  3
arctext.shx
  4

  0
STYLE
  5
9F
330
3
100
AcDbSymbolTableRecord
100
AcDbTextStyleTableRecord
  2
RomanC
 70
     0
 40
5.0
 41
0.85
 50
0.0
 71
     0
 42
10.0
  3
romanc.shx
  4

  0
ENDTAB
  0
TABLE
  2
VIEW
  5
6
330
0
100
AcDbSymbolTable
 70
     0
  0
ENDTAB
  0
TABLE
  2
UCS
  5
7
330
0
100
AcDbSymbolTable
 70
     0
  0
ENDTAB
  0
TABLE
  2
APPID
  5
9
330
0
100
AcDbSymbolTable
 70
     1
  0
APPID
  5
12
330
9
100
AcDbSymbolTableRecord
100
AcDbRegAppTableRecord
  2
ACAD
 70
     0
  0
ENDTAB
  0
TABLE
  2
DIMSTYLE
  5
A
330
0
100
AcDbSymbolTable
 70
     5
100
AcDbDimStyleTable
 71
     0
  0
DIMSTYLE
105
27
330
A
100
AcDbSymbolTableRecord
100
AcDbDimStyleTableRecord
  2
Standard
 70
     0
340
11
  0
DIMSTYLE
105
A0
330
A
100
AcDbSymbolTableRecord
100
AcDbDimStyleTableRecord
  2
Copy of ROMANS
 70
     0
 41
0.75
 42
0.125
 43
0.125
 44
0.125
 73
     0
 74
     0
 77
     1
 78
     3
140
1.0
141
6.0
147
0.25
172
     1
175
     1
176
     2
177
     2
178
     2
271
     3
272
     3
273
     4
275
     1
277
     4
279
     2
284
     3
285
     3
286
     3
340
9D
  0
DIMSTYLE
105
A1
330
A
100
AcDbSymbolTableRecord
100
AcDbDimStyleTableRecord
  2
ARCTEXT
 70
     0
 40
0.0
 41
2.0
 42
1.0
 43
0.375
 44
0.1875
 73
     0
 74
     0
140
4.0
141
2.0
147
2.0
176
     2
177
     2
178
     2
277
     4
340
9E
341
8D
342
89
  0
DIMSTYLE
105
A2
330
A
100
AcDbSymbolTableRecord
100
AcDbDimStyleTableRecord
  2
ARCTEXT1-4
 70
     0
 41
2.0
 42
2.0
 43
2.0
 44
2.0
 73
     0
 74
     0
 77
     1
 78
     3
140
4.0
141
2.0
147
2.0
172
     1
175
     1
275
     1
277
     4
279
     2
340
9E
341
8D
342
89
  0
DIMSTYLE
105
A3
330
A
100
AcDbSymbolTableRecord
100
AcDbDimStyleTableRecord
  2
ARCTEXT 1-1
 70
     0
 40
0.0
 41
1.0
 42
1.0
 43
0.375
 44
0.1875
 73
     0
 74
     0
 77
     1
 78
     3
140
1.0
141
1.0
147
0.5
176
   256
177
   256
178
   256
277
     4
279
     2
340
9E
341
8D
342
89
  0
ENDTAB
  0
TABLE
  2
BLOCK_RECORD
  5
1
330
0
100
AcDbSymbolTable
 70
     6
  0
BLOCK_RECORD
  5
1F
330
1
100
AcDbSymbolTableRecord
100
AcDbBlockTableRecord
  2
*Model_Space
340
22
  0
BLOCK_RECORD
  5
58
330
1
100
AcDbSymbolTableRecord
100
AcDbBlockTableRecord
  2
*Paper_Space
340
59
  0
BLOCK_RECORD
  5
5D
330
1
100
AcDbSymbolTableRecord
100
AcDbBlockTableRecord
  2
*Paper_Space0
340
5E
  0
BLOCK_RECORD
  5
89
330
1
100
AcDbSymbolTableRecord
100
AcDbBlockTableRecord
  2
_ArchTick
340
0
  0
BLOCK_RECORD
  5
8D
330
1
100
AcDbSymbolTableRecord
100
AcDbBlockTableRecord
  2
arrow
340
0
310
2800000020000000200000000100080000000000000400000000000000000000000000000000000000000000000080000080000000808000800000008000800080800000C0C0C000C0DCC000F0CAA6000020400000206000002080000020A0000020C0000020E00000400000004020000040400000406000004080000040A0
310
000040C0000040E00000600000006020000060400000606000006080000060A0000060C0000060E00000800000008020000080400000806000008080000080A0000080C0000080E00000A0000000A0200000A0400000A0600000A0800000A0A00000A0C00000A0E00000C0000000C0200000C0400000C0600000C0800000C0
310
A00000C0C00000C0E00000E0000000E0200000E0400000E0600000E0800000E0A00000E0C00000E0E00040000000400020004000400040006000400080004000A0004000C0004000E00040200000402020004020400040206000402080004020A0004020C0004020E000404000004040200040404000404060004040800040
310
40A0004040C0004040E00040600000406020004060400040606000406080004060A0004060C0004060E00040800000408020004080400040806000408080004080A0004080C0004080E00040A0000040A0200040A0400040A0600040A0800040A0A00040A0C00040A0E00040C0000040C0200040C0400040C0600040C08000
310
40C0A00040C0C00040C0E00040E0000040E0200040E0400040E0600040E0800040E0A00040E0C00040E0E00080000000800020008000400080006000800080008000A0008000C0008000E00080200000802020008020400080206000802080008020A0008020C0008020E00080400000804020008040400080406000804080
310
008040A0008040C0008040E00080600000806020008060400080606000806080008060A0008060C0008060E00080800000808020008080400080806000808080008080A0008080C0008080E00080A0000080A0200080A0400080A0600080A0800080A0A00080A0C00080A0E00080C0000080C0200080C0400080C0600080C0
310
800080C0A00080C0C00080C0E00080E0000080E0200080E0400080E0600080E0800080E0A00080E0C00080E0E000C0000000C0002000C0004000C0006000C0008000C000A000C000C000C000E000C0200000C0202000C0204000C0206000C0208000C020A000C020C000C020E000C0400000C0402000C0404000C0406000C0
310
408000C040A000C040C000C040E000C0600000C0602000C0604000C0606000C0608000C060A000C060C000C060E000C0800000C0802000C0804000C0806000C0808000C080A000C080C000C080E000C0A00000C0A02000C0A04000C0A06000C0A08000C0A0A000C0A0C000C0A0E000C0C00000C0C02000C0C04000C0C06000
310
C0C08000C0C0A000F0FBFF00A4A0A000808080000000FF0000FF000000FFFF00FF000000FF00FF00FFFF0000FFFFFF0000000000000000000000000000000000000000000000000000000000000000000000000000000000000000000000000000000000000000000000000000000000000000000000000000000000000000
310
0000000000000000000000000000000000000000000000000000000000000000000000000000000000000000000000000000000000000000000000000000000000000000000000000000000000000000000000000000000000000000000000000000000000000000000000000000000000000000000000FA00000000000000
310
000000000000000000000000000000000000000000000000FA00000000000000000000000000000000000000000000000000000000000000FA0000000000000000000000000000000000000000000000000000FAFA000000FA00000000000000000000000000000000000000000000000000000000FAFA00FA000000000000
310
000000000000000000000000000000000000000000000000FAF7F7000000000000000000000000000000000000000000000000000000000000F7F7F7F7F7F70000000000000000000000000000000000000000000000000000F7F7F7F7F7F7F7F7F7F700000000000000000000000000000000000000000000F7F7F7F7F7F7
310
F7F7F7F7F7F7F7F7000000000000000000000000000000000000F7F7F7F7F7F7F7F7F7F7F7F7F7F7F7F7F7F70000000000FAFA00000000000000F7F7F7F7F7F7F7F7F7F7F7F7F7F7F7F7F7F7F7F7F7FAFAFAFA00000000000000F7F7F7F7F7F7F7F7F7F7F7F7F7F7F7F7F7F70000000000000000000000000000F7F7F7F7F7
310
F7F7F7F7F7F7F7F700000000000000000000000000000000000000F7F7F7F7F7F7F7F70000000000000000000000000000000000000000000000FAF7F7F70000000000000000000000000000000000000000000000000000FAFA00FA0000000000000000000000000000000000000000000000000000FAFA000000FA000000
310
00000000000000000000000000000000000000000000000000000000FA00000000000000000000000000000000000000000000000000000000000000FA00000000000000000000000000000000000000000000000000000000000000FA00000000000000000000000000000000000000000000000000000000000000000000
310
00000000000000000000000000000000000000000000000000000000000000000000000000000000000000000000000000000000000000000000000000000000000000000000000000000000000000000000000000000000000000000000000000000000000000000000000000000000000000000000000000000000000000
310
0000000000000000000000000000000000000000000000000000000000000000000000000000000000000000000000000000000000000000
1001
ACAD
1000
DesignCenter Data
1002
{
1070
     1
1070
     1
1002
}
  0
ENDTAB
  0
ENDSEC
  0
SECTION
  2
BLOCKS
  0
BLOCK
  5
20
330
1F
100
AcDbEntity
  8
0
100
AcDbBlockBegin
  2
*Model_Space
 70
     0
 10
0.0
 20
0.0
 30
0.0
  3
*Model_Space
  1

  0
ENDBLK
  5
21
330
1F
100
AcDbEntity
  8
0
100
AcDbBlockEnd
  0
BLOCK
  5
5A
330
58
100
AcDbEntity
 67
     1
  8
0
100
AcDbBlockBegin
  2
*Paper_Space
 70
     0
 10
0.0
 20
0.0
 30
0.0
  3
*Paper_Space
  1

  0
ENDBLK
  5
5B
330
58
100
AcDbEntity
 67
     1
  8
0
100
AcDbBlockEnd
  0
BLOCK
  5
5F
330
5D
100
AcDbEntity
  8
0
100
AcDbBlockBegin
  2
*Paper_Space0
 70
     0
 10
0.0
 20
0.0
 30
0.0
  3
*Paper_Space0
  1

  0
ENDBLK
  5
60
330
5D
100
AcDbEntity
  8
0
100
AcDbBlockEnd
  0
BLOCK
  5
8A
330
89
100
AcDbEntity
  8
0
100
AcDbBlockBegin
  2
_ArchTick
 70
     0
 10
0.0
 20
0.0
 30
0.0
  3
_ArchTick
  1

  0
LWPOLYLINE
  5
8B
330
89
100
AcDbEntity
  8
0
  6
ByBlock
 62
     0
100
AcDbPolyline
 90
        2
 70
     0
 43
0.15
 10
-0.5
 20
-0.5
 10
0.5
 20
0.5
  0
ENDBLK
  5
8C
330
89
100
AcDbEntity
  8
0
100
AcDbBlockEnd
  0
BLOCK
  5
8E
330
8D
100
AcDbEntity
  8
0
100
AcDbBlockBegin
  2
arrow
 70
     0
 10
0.0
 20
0.0
 30
0.0
  3
arrow
  1

  0
HATCH
  5
8F
330
8D
100
AcDbEntity
  8
DIM
 62
   253
100
AcDbHatch
 10
0.0
 20
0.0
 30
0.0
210
0.0
220
0.0
230
1.0
  2
SOLID
 70
     1
 71
     0
 91
        1
 92
        7
 72
     0
 73
     1
 93
        3
 10
-2.0
 20
0.5
 10
-2.0
 20
-0.5
 10
0.0
 20
0.0
 97
        0
 75
     0
 76
     1
 47
0.0337394080685346
 98
        1
 10
-1.103351122172171
 20
0.05064816270351
  0
LWPOLYLINE
  5
90
330
8D
100
AcDbEntity
  8
DIM
370
    15
100
AcDbPolyline
 90
        4
 70
     0
 43
0.0
 10
0.0
 20
0.0
 10
-2.0
 20
-0.5
 10
-2.0
 20
0.5
 10
0.0
 20
0.0
  0
LWPOLYLINE
  5
91
330
8D
100
AcDbEntity
  8
DIM
370
     9
100
AcDbPolyline
 90
        2
 70
     0
 43
0.0
 10
0.3742552490839444
 20
0.0935638122700766
 10
0.0
 20
0.0
  0
LWPOLYLINE
  5
92
330
8D
100
AcDbEntity
  8
DIM
370
     9
100
AcDbPolyline
 90
        3
 70
     0
 43
0.0
 10
-2.0
 20
-0.9831764405007561
 10
-2.0
 20
-0.5
 10
-2.46875
 20
-0.6171875
  0
LWPOLYLINE
  5
93
330
8D
100
AcDbEntity
  8
DIM
370
     9
100
AcDbPolyline
 90
        3
 70
     0
 43
0.0
 10
-2.0
 20
0.9831764405007561
 10
-2.0
 20
0.5
 10
-2.46875
 20
0.6171875
  0
LWPOLYLINE
  5
94
330
8D
100
AcDbEntity
  8
DIM
370
     9
100
AcDbPolyline
 90
        2
 70
     0
 43
0.0
 10
0.3742552490839444
 20
-0.0935638122700766
 10
0.0
 20
0.0
  0
ENDBLK
  5
95
330
8D
100
AcDbEntity
  8
0
100
AcDbBlockEnd
  0
ENDSEC
  0
SECTION
  2
ENTITIES
  0
MTEXT
  5
70D
330
1F
100
AcDbEntity
  8
Defpoints
100
AcDbMText
 10
-13.3877641330001
 20
20.55346118541832
 30
0.0
 40
3.0
 41
90.07999999999999
 71
     2
 72
     5
  1
{\L116\P}\P            
  7
RomanC
 73
     1
 44
1.0
1001
ACAD
1000
MTEXTBEGIN
1070
    73
1070
     1
1070
    44
1040
1.0
1070
    74
1070
     0
1000
MTEXTEND
  0
MTEXT
  5
70E
330
1F
100
AcDbEntity
  8
DIM
100
AcDbMText
 10
23.70907753555903
 20
30.23230589382331
 30
0.0
 40
3.0
 41
71.41649521821006
 71
     2
 72
     5
  1
{\L2-4-2 WALL W/ FULL WALL WIDTH BUCK (FLUSH WINDOW)}\P               
  7
RomanC
 73
     1
 44
1.0
1001
ACAD
1000
MTEXTBEGIN
1070
    73
1070
     1
1070
    44
1040
1.0
1070
    74
1070
     0
1000
MTEXTEND
  0
LINE
  5
70F
330
1F
100
AcDbEntity
  8
0
 62
     1
100
AcDbLine
 10
14.78763847798828
 20
85.52671846355327
 30
0.0
 11
16.78763847798828
 21
85.52671846355327
 31
0.0
  0
LINE
  5
710
330
1F
100
AcDbEntity
  8
0
  6
HIDDEN
 62
     1
 48
0.02
100
AcDbLine
 10
16.43763847798882
 20
86.02671846355326
 30
0.0
 11
16.43763847798882
 21
85.52671846355327
 31
0.0
  0
LINE
  5
711
330
1F
100
AcDbEntity
  8
0
  6
HIDDEN
 62
     1
 48
0.02
100
AcDbLine
 10
15.41263847798828
 20
86.02671846355326
 30
0.0
 11
15.41263847798828
 21
85.52671846355327
 31
0.0
  0
LINE
  5
712
330
1F
100
AcDbEntity
  8
0
  6
HIDDEN
 62
     1
 48
0.02
100
AcDbLine
 10
15.81263847798882
 20
86.02671846355326
 30
0.0
 11
15.81263847798882
 21
85.52671846355327
 31
0.0
  0
LINE
  5
713
330
1F
100
AcDbEntity
  8
0
  6
HIDDEN
 62
     1
 48
0.02
100
AcDbLine
 10
14.90829614043096
 20
86.02671846355326
 30
0.0
 11
15.41263847798828
 21
86.02671846355326
 31
0.0
  0
LINE
  5
714
330
1F
100
AcDbEntity
  8
0
  6
HIDDEN
 62
     1
 48
0.02
100
AcDbLine
 10
15.81263847798882
 20
86.02671846355326
 30
0.0
 11
16.43763847798882
 21
86.02671846355326
 31
0.0
  0
LINE
  5
715
330
1F
100
AcDbEntity
  8
0
  6
HIDDEN
 62
     1
 48
0.02
100
AcDbLine
 10
15.23763847798901
 20
85.77671846355327
 30
0.0
 11
15.23763847798901
 21
85.52671846355327
 31
0.0
  0
LINE
  5
716
330
1F
100
AcDbEntity
  8
0
  6
HIDDEN
 62
     1
 48
0.02
100
AcDbLine
 10
14.98763847798901
 20
85.77671846355327
 30
0.0
 11
15.23763847798901
 21
85.77671846355327
 31
0.0
  0
LINE
  5
717
330
1F
100
AcDbEntity
  8
0
 62
     1
100
AcDbLine
 10
8.787638477988281
 20
84.02617108941752
 30
0.0
 11
8.787638477988281
 21
73.52671846355327
 31
0.0
  0
LINE
  5
718
330
1F
100
AcDbEntity
  8
0
 62
     1
100
AcDbLine
 10
16.78763847798919
 20
86.66408356084877
 30
0.0
 11
16.78763847798828
 21
73.52671846355327
 31
0.0
  0
LINE
  5
719
330
1F
100
AcDbEntity
  8
0
 62
     1
100
AcDbLine
 10
8.787638477988281
 20
73.52671846355327
 30
0.0
 11
10.78763847798737
 21
73.52671846355327
 31
0.0
  0
LINE
  5
71A
330
1F
100
AcDbEntity
  8
0
 62
     1
100
AcDbLine
 10
10.78763847798464
 20
84.65205354389501
 30
0.0
 11
10.78763847798828
 21
73.52671846355327
 31
0.0
  0
LINE
  5
71B
330
1F
100
AcDbEntity
  8
0
 62
     1
100
AcDbLine
 10
14.78763847798464
 20
85.98579830694973
 30
0.0
 11
14.78763847798828
 21
73.52671846355327
 31
0.0
  0
LINE
  5
71C
330
1F
100
AcDbEntity
  8
0
 62
     1
100
AcDbLine
 10
9.137638477987735
 20
84.13570051895034
 30
0.0
 11
9.137638477987735
 21
73.52671846355327
 31
0.0
  0
LINE
  5
71D
330
1F
100
AcDbEntity
  8
0
 62
     1
100
AcDbLine
 10
16.43763847798792
 20
86.02671846355326
 30
0.0
 11
16.43763847798792
 21
85.52671846355327
 31
0.0
  0
LINE
  5
71E
330
1F
100
AcDbEntity
  8
0
 62
     1
100
AcDbLine
 10
15.41263847798646
 20
86.02671846355326
 30
0.0
 11
15.41263847798646
 21
85.52671846355327
 31
0.0
  0
LINE
  5
71F
330
1F
100
AcDbEntity
  8
0
 62
     1
100
AcDbLine
 10
15.81263847798792
 20
86.02671846355326
 30
0.0
 11
15.81263847798792
 21
85.52671846355327
 31
0.0
  0
LINE
  5
720
330
1F
100
AcDbEntity
  8
0
 62
     1
100
AcDbLine
 10
14.90829614043096
 20
86.02671846355326
 30
0.0
 11
15.41263847798737
 21
86.02671846355326
 31
0.0
  0
LINE
  5
721
330
1F
100
AcDbEntity
  8
0
 62
     1
100
AcDbLine
 10
15.81263847798792
 20
86.02671846355326
 30
0.0
 11
16.43763847798792
 21
86.02671846355326
 31
0.0
  0
LINE
  5
722
330
1F
100
AcDbEntity
  8
0
 62
     1
100
AcDbLine
 10
10.58763847798664
 20
84.58946529844672
 30
0.0
 11
10.58763847798755
 21
73.52671846355327
 31
0.0
  0
LINE
  5
723
330
1F
100
AcDbEntity
  8
0
 62
     1
100
AcDbLine
 10
14.98763847798719
 20
86.05362683233954
 30
0.0
 11
14.98763847798719
 21
73.52671846355327
 31
0.0
  0
LINE
  5
724
330
1F
100
AcDbEntity
  8
0
 62
     1
100
AcDbLine
 10
15.23763847798719
 20
85.77671846355327
 30
0.0
 11
15.23763847798719
 21
85.52671846355327
 31
0.0
  0
LINE
  5
725
330
1F
100
AcDbEntity
  8
0
 62
     1
100
AcDbLine
 10
14.98763847798719
 20
85.77671846355327
 30
0.0
 11
15.23763847798719
 21
85.77671846355327
 31
0.0
  0
LINE
  5
726
330
1F
100
AcDbEntity
  8
0
 62
     1
100
AcDbLine
 10
15.20263847798733
 20
85.52671846355327
 30
0.0
 11
16.78763847798828
 21
85.52671846355327
 31
0.0
  0
LINE
  5
727
330
1F
100
AcDbEntity
  8
0
 62
     1
100
AcDbLine
 10
15.20263847798733
 20
86.12654249713353
 30
0.0
 11
15.20263847798733
 21
73.52671846355327
 31
0.0
  0
LINE
  5
728
330
1F
100
AcDbEntity
  8
0
 62
     1
100
AcDbLine
 10
16.02263847798886
 20
86.40463945123258
 30
0.0
 11
16.02263847798795
 21
73.52671846355327
 31
0.0
  0
LINE
  5
729
330
1F
100
AcDbEntity
  8
A2 Hatch
  6
DASHED2
 48
0.15
100
AcDbLine
 10
15.36263847798901
 20
86.18080531744601
 30
0.0
 11
15.3626384779881
 21
73.52671846355327
 31
0.0
  0
LINE
  5
72A
330
1F
100
AcDbEntity
  8
A2 Hatch
  6
DASHED2
 48
0.15
100
AcDbLine
 10
15.8626384779881
 20
86.35037663092054
 30
0.0
 11
15.8626384779881
 21
73.52671846355327
 31
0.0
  0
LINE
  5
72B
330
1F
100
AcDbEntity
  8
A2 Hatch
  6
DASHED2
 48
0.15
100
AcDbLine
 10
9.552638477987699
 20
84.26557112825468
 30
0.0
 11
9.552638477987699
 21
73.52671846355327
 31
0.0
  0
LINE
  5
72C
330
1F
100
AcDbEntity
  8
A2 Hatch
  6
DASHED2
 48
0.15
100
AcDbLine
 10
10.37263847798741
 20
84.5221829345902
 30
0.0
 11
10.37263847798741
 21
73.52671846355327
 31
0.0
  0
LINE
  5
72D
330
1F
100
AcDbEntity
  8
0
 62
     1
100
AcDbLine
 10
9.712638477987553
 20
84.31564172461241
 30
0.0
 11
9.712638477987553
 21
73.52671846355327
 31
0.0
  0
LINE
  5
72E
330
1F
100
AcDbEntity
  8
0
 62
     1
100
AcDbLine
 10
10.21263847798664
 20
84.47211233823201
 30
0.0
 11
10.21263847798755
 21
73.52671846355327
 31
0.0
  0
LINE
  5
72F
330
1F
100
AcDbEntity
  8
0
 62
     1
100
AcDbLine
 10
14.78763847798737
 20
85.52671846355327
 30
0.0
 11
14.98763847798719
 21
85.52671846355327
 31
0.0
  0
LINE
  5
730
330
1F
100
AcDbEntity
  8
0
 62
     1
100
AcDbLine
 10
14.78763847798828
 20
73.52671846355327
 30
0.0
 11
16.78763847798828
 21
73.52671846355327
 31
0.0
  0
LINE
  5
731
330
1F
100
AcDbEntity
  8
DETAILS
 62
     6
370
    20
100
AcDbLine
 10
14.78763847798737
 20
77.50671846355328
 30
0.0
 11
10.78763847798737
 21
77.50671846355328
 31
0.0
  0
LINE
  5
732
330
1F
100
AcDbEntity
  8
DETAILS
 62
     6
370
    20
100
AcDbLine
 10
14.78763847798737
 20
82.04671846355324
 30
0.0
 11
10.78763847798737
 21
82.04671846355324
 31
0.0
  0
LINE
  5
733
330
1F
100
AcDbEntity
  8
DETAILS
 62
     6
370
    20
100
AcDbLine
 10
14.78763847798737
 20
77.02671846355281
 30
0.0
 11
10.78763847798737
 21
77.02671846355326
 31
0.0
  0
LINE
  5
734
330
1F
100
AcDbEntity
  8
DETAILS
 62
     6
370
    20
100
AcDbLine
 10
14.78763847798737
 20
77.11671846355296
 30
0.0
 11
10.78763847798737
 21
77.11671846355341
 31
0.0
  0
LINE
  5
735
330
1F
100
AcDbEntity
  8
DETAILS
 62
     6
370
    20
100
AcDbLine
 10
14.78763847798737
 20
77.41671846355314
 30
0.0
 11
10.78763847798737
 21
77.41671846355314
 31
0.0
  0
LINE
  5
736
330
1F
100
AcDbEntity
  8
DETAILS
 62
     6
370
    20
100
AcDbLine
 10
14.78763847798737
 20
82.13671846355248
 30
0.0
 11
10.78763847798737
 21
82.13671846355339
 31
0.0
  0
LINE
  5
737
330
1F
100
AcDbEntity
  8
DETAILS
 62
     6
370
    20
100
AcDbLine
 10
14.78763847798737
 20
82.43671846355267
 30
0.0
 11
10.78763847798737
 21
82.43671846355312
 31
0.0
  0
LINE
  5
738
330
1F
100
AcDbEntity
  8
DETAILS
 62
     6
370
    20
100
AcDbLine
 10
10.97763847798515
 20
77.50671846355328
 30
0.0
 11
11.3276384779846
 21
77.50671846355328
 31
0.0
  0
LINE
  5
739
330
1F
100
AcDbEntity
  8
DETAILS
 62
     6
370
    20
100
AcDbLine
 10
14.22763847798606
 20
77.50671846355328
 30
0.0
 11
14.48977051234206
 21
77.7688504979061
 31
0.0
  0
LINE
  5
73A
330
1F
100
AcDbEntity
  8
DETAILS
 62
     6
370
    20
100
AcDbLine
 10
11.3276384779846
 20
77.50671846355328
 30
0.0
 11
11.0655064436286
 21
77.76885049791201
 31
0.0
  0
LINE
  5
73B
330
1F
100
AcDbEntity
  8
DETAILS
 62
     6
370
    20
100
AcDbLine
 10
14.23763847798719
 20
82.04671846355324
 30
0.0
 11
14.48977051234206
 21
81.79458642919655
 31
0.0
  0
LINE
  5
73C
330
1F
100
AcDbEntity
  8
DETAILS
 62
     6
370
    20
100
AcDbLine
 10
11.33763847798573
 20
82.04671846355324
 30
0.0
 11
11.06550644363042
 21
81.77458642920113
 31
0.0
  0
LINE
  5
73D
330
1F
100
AcDbEntity
  8
DETAILS
 62
     6
370
    20
100
AcDbLine
 10
14.57763847798642
 20
77.98098253226283
 30
0.0
 11
14.57763847798551
 21
81.58245439484165
 31
0.0
  0
LINE
  5
73E
330
1F
100
AcDbEntity
  8
DETAILS
 62
     6
370
    20
100
AcDbLine
 10
10.97763847798515
 20
77.98098253226692
 30
0.0
 11
10.97763847798515
 21
81.56245439484393
 31
0.0
  0
ARC
  5
73F
330
1F
100
AcDbEntity
  8
DETAILS
 62
     6
370
    20
100
AcDbCircle
 10
14.27763847798624
 20
77.98098253226283
 30
0.0
 40
0.3
100
AcDbArc
 50
314.9999999997974
 51
0.0
  0
ARC
  5
740
330
1F
100
AcDbEntity
  8
DETAILS
 62
     6
370
    20
100
AcDbCircle
 10
11.27763847798624
 20
77.98098253226647
 30
0.0
 40
0.3
100
AcDbArc
 50
180.0
 51
224.9999999996868
  0
ARC
  5
741
330
1F
100
AcDbEntity
  8
DETAILS
 62
     6
370
    20
100
AcDbCircle
 10
14.27763847798624
 20
81.58245439484119
 30
0.0
 40
0.3
100
AcDbArc
 50
0.0000000000260551
 51
44.99999999970515
  0
ARC
  5
742
330
1F
100
AcDbEntity
  8
DETAILS
 62
     6
370
    20
100
AcDbCircle
 10
11.27763847798624
 20
81.56245439484349
 30
0.0
 40
0.3
100
AcDbArc
 50
134.9999999997052
 51
180.0
  0
LINE
  5
743
330
1F
100
AcDbEntity
  8
DETAILS
 62
     6
370
    20
100
AcDbLine
 10
10.78763847798737
 20
82.52671846355326
 30
0.0
 11
11.33763847798573
 21
82.52671846355326
 31
0.0
  0
LINE
  5
744
330
1F
100
AcDbEntity
  8
DETAILS
 62
     6
370
    20
100
AcDbLine
 10
11.58763847798573
 20
82.57671846355345
 30
0.0
 11
11.58763847798573
 21
83.18103519963745
 31
0.0
  0
LINE
  5
745
330
1F
100
AcDbEntity
  8
DETAILS
 62
     6
370
    20
100
AcDbLine
 10
11.6876384779861
 20
82.57671846355345
 30
0.0
 11
11.6876384779861
 21
83.09460525576161
 31
0.0
  0
ARC
  5
746
330
1F
100
AcDbEntity
  8
DETAILS
 62
     6
370
    20
100
AcDbCircle
 10
11.74939613676534
 20
83.09884399111126
 30
0.0
 40
0.0619029506189981
100
AcDbArc
 50
134.9903235096027
 51
183.9263367617324
  0
LINE
  5
747
330
1F
100
AcDbEntity
  8
DETAILS
 62
     6
370
    20
100
AcDbLine
 10
14.03763847798646
 20
82.52671846355282
 30
0.0
 11
14.23763847798719
 21
82.52671846355282
 31
0.0
  0
LINE
  5
748
330
1F
100
AcDbEntity
  8
DETAILS
 62
     6
370
    20
100
AcDbLine
 10
13.98763847798719
 20
82.57671846355298
 30
0.0
 11
13.98763847798719
 21
83.18103519963745
 31
0.0
  0
LINE
  5
749
330
1F
100
AcDbEntity
  8
DETAILS
 62
     6
370
    20
100
AcDbLine
 10
13.88763847798682
 20
82.57671846355298
 30
0.0
 11
13.88763847798682
 21
83.09460525576117
 31
0.0
  0
ARC
  5
74A
330
1F
100
AcDbEntity
  8
DETAILS
 62
     6
370
    20
100
AcDbCircle
 10
13.77538264598743
 20
83.09147020341709
 30
0.0
 40
0.1122996009395304
100
AcDbArc
 50
1.599726146933217
 51
27.09751498394525
  0
LINE
  5
74B
330
1F
100
AcDbEntity
  8
DETAILS
 62
     6
370
    20
100
AcDbLine
 10
12.33763847798573
 20
82.57671846355298
 30
0.0
 11
12.33763847798573
 21
83.09460525576026
 31
0.0
  0
LINE
  5
74C
330
1F
100
AcDbEntity
  8
DETAILS
 62
     6
370
    20
100
AcDbLine
 10
12.4376384779861
 20
82.57671846355298
 30
0.0
 11
12.4376384779861
 21
83.09460525576161
 31
0.0
  0
ARC
  5
74D
330
1F
100
AcDbEntity
  8
DETAILS
 62
     6
370
    20
100
AcDbCircle
 10
12.38763847798501
 20
83.21245994932871
 30
0.0
 40
0.0935752503092939
100
AcDbArc
 50
311.7278668394931
 51
228.2721331609136
  0
ARC
  5
74E
330
1F
100
AcDbEntity
  8
DETAILS
 62
     6
370
    20
100
AcDbCircle
 10
12.23763847798537
 20
83.09460525576026
 30
0.0
 40
0.1
100
AcDbArc
 50
0.0
 51
28.69723935241921
  0
ARC
  5
74F
330
1F
100
AcDbEntity
  8
DETAILS
 62
     6
370
    20
100
AcDbCircle
 10
12.53763847798555
 20
83.09460525576161
 30
0.0
 40
0.1
100
AcDbArc
 50
151.3027606481171
 51
180.0
  0
LINE
  5
750
330
1F
100
AcDbEntity
  8
DETAILS
 62
     6
370
    20
100
AcDbLine
 10
13.13763847798773
 20
82.57671846355298
 30
0.0
 11
13.13763847798682
 21
83.09460525576026
 31
0.0
  0
LINE
  5
751
330
1F
100
AcDbEntity
  8
DETAILS
 62
     6
370
    20
100
AcDbLine
 10
13.23763847798719
 20
82.57671846355298
 30
0.0
 11
13.23763847798719
 21
83.09460525576117
 31
0.0
  0
ARC
  5
752
330
1F
100
AcDbEntity
  8
DETAILS
 62
     6
370
    20
100
AcDbCircle
 10
13.18763847798701
 20
83.21245994932827
 30
0.0
 40
0.0935752503091666
100
AcDbArc
 50
311.7278668395667
 51
228.2721331606194
  0
ARC
  5
753
330
1F
100
AcDbEntity
  8
DETAILS
 62
     6
370
    20
100
AcDbCircle
 10
13.03763847798737
 20
83.09460525576026
 30
0.0
 40
0.1
100
AcDbArc
 50
0.0
 51
28.69723935241921
  0
ARC
  5
754
330
1F
100
AcDbEntity
  8
DETAILS
 62
     6
370
    20
100
AcDbCircle
 10
13.33763847798755
 20
83.09460525576117
 30
0.0
 40
0.1
100
AcDbArc
 50
151.3027606481171
 51
180.0
  0
LINE
  5
755
330
1F
100
AcDbEntity
  8
DETAILS
 62
     6
370
    20
100
AcDbLine
 10
13.93763847798701
 20
83.30603519963744
 30
0.0
 11
14.78763847798737
 21
83.30603519963744
 31
0.0
  0
ARC
  5
756
330
1F
100
AcDbEntity
  8
DETAILS
 62
     6
370
    20
100
AcDbCircle
 10
11.65012547898541
 20
83.21499602304823
 30
0.0
 40
0.091207026586975
100
AcDbArc
 50
307.4863303690938
 51
93.47656839120459
  0
ARC
  5
757
330
1F
100
AcDbEntity
  8
DETAILS
 62
     6
370
    20
100
AcDbCircle
 10
13.93763847798701
 20
83.21245994932827
 30
0.0
 40
0.0935752503091878
100
AcDbArc
 50
90.0
 51
228.2720386612377
  0
LINE
  5
758
330
1F
100
AcDbEntity
  8
DETAILS
 62
     6
370
    20
100
AcDbLine
 10
11.65565630395204
 20
83.30603519963744
 30
0.0
 11
10.78763847798646
 21
83.30603519963744
 31
0.0
  0
LINE
  5
759
330
1F
100
AcDbEntity
  8
DETAILS
 62
     6
370
    20
100
AcDbLine
 10
11.58763847798573
 20
83.18103519963745
 30
0.0
 11
10.78763847798646
 21
83.18103519963745
 31
0.0
  0
LINE
  5
75A
330
1F
100
AcDbEntity
  8
DETAILS
 62
     6
370
    20
100
AcDbLine
 10
13.98763847798719
 20
83.18103519963745
 30
0.0
 11
14.78763847798737
 21
83.18103519963745
 31
0.0
  0
LINE
  5
75B
330
1F
100
AcDbEntity
  8
DETAILS
 62
     6
370
    20
100
AcDbLine
 10
13.83763847798755
 20
82.52671846355282
 30
0.0
 11
13.28763847798737
 21
82.52671846355326
 31
0.0
  0
LINE
  5
75C
330
1F
100
AcDbEntity
  8
DETAILS
 62
     6
370
    20
100
AcDbLine
 10
13.08763847798755
 20
82.52671846355326
 30
0.0
 11
12.48763847798537
 21
82.52671846355326
 31
0.0
  0
LINE
  5
75D
330
1F
100
AcDbEntity
  8
DETAILS
 62
     6
370
    20
100
AcDbLine
 10
12.28763847798555
 20
82.52671846355326
 30
0.0
 11
11.73763847798537
 21
82.52671846355326
 31
0.0
  0
LINE
  5
75E
330
1F
100
AcDbEntity
  8
DETAILS
 62
     6
370
    20
100
AcDbLine
 10
11.53763847798464
 20
82.52671846355326
 30
0.0
 11
10.78763847798737
 21
82.52671846355326
 31
0.0
  0
ARC
  5
75F
330
1F
100
AcDbEntity
  8
DETAILS
 62
     6
370
    20
100
AcDbCircle
 10
11.53763847798464
 20
82.57671846355345
 30
0.0
 40
0.05
100
AcDbArc
 50
270.0
 51
0.0
  0
ARC
  5
760
330
1F
100
AcDbEntity
  8
DETAILS
 62
     6
370
    20
100
AcDbCircle
 10
11.73763847798537
 20
82.57671846355345
 30
0.0
 40
0.05
100
AcDbArc
 50
180.0
 51
270.0
  0
ARC
  5
761
330
1F
100
AcDbEntity
  8
DETAILS
 62
     6
370
    20
100
AcDbCircle
 10
12.28763847798555
 20
82.57671846355298
 30
0.0
 40
0.05
100
AcDbArc
 50
270.0
 51
0.0
  0
ARC
  5
762
330
1F
100
AcDbEntity
  8
DETAILS
 62
     6
370
    20
100
AcDbCircle
 10
12.48763847798537
 20
82.57671846355298
 30
0.0
 40
0.05
100
AcDbArc
 50
180.0
 51
270.0
  0
ARC
  5
763
330
1F
100
AcDbEntity
  8
DETAILS
 62
     6
370
    20
100
AcDbCircle
 10
13.08763847798755
 20
82.57671846355298
 30
0.0
 40
0.05
100
AcDbArc
 50
270.0
 51
0.0
  0
ARC
  5
764
330
1F
100
AcDbEntity
  8
DETAILS
 62
     6
370
    20
100
AcDbCircle
 10
13.28763847798737
 20
82.57671846355298
 30
0.0
 40
0.05
100
AcDbArc
 50
180.0
 51
270.0
  0
ARC
  5
765
330
1F
100
AcDbEntity
  8
DETAILS
 62
     6
370
    20
100
AcDbCircle
 10
13.83763847798755
 20
82.57671846355298
 30
0.0
 40
0.05
100
AcDbArc
 50
270.0
 51
0.0
  0
ARC
  5
766
330
1F
100
AcDbEntity
  8
DETAILS
 62
     6
370
    20
100
AcDbCircle
 10
14.03763847798646
 20
82.57671846355298
 30
0.0
 40
0.05
100
AcDbArc
 50
179.9999999999479
 51
270.0
  0
LINE
  5
767
330
1F
100
AcDbEntity
  8
DETAILS
 62
     6
370
    20
100
AcDbLine
 10
10.78763847798737
 20
82.52671846355326
 30
0.0
 11
14.78763847798737
 21
82.52671846355326
 31
0.0
  0
LINE
  5
768
330
1F
100
AcDbEntity
  8
DETAILS
 62
     6
370
    20
100
AcDbLine
 10
11.53763847798464
 20
82.52671846355326
 30
0.0
 11
11.73763847798537
 21
82.52671846355326
 31
0.0
  0
LINE
  5
769
330
1F
100
AcDbEntity
  8
DETAILS
 62
     6
370
    20
100
AcDbLine
 10
12.28763847798555
 20
82.52671846355326
 30
0.0
 11
12.48763847798537
 21
82.52671846355326
 31
0.0
  0
LINE
  5
76A
330
1F
100
AcDbEntity
  8
DETAILS
 62
     6
370
    20
100
AcDbLine
 10
13.08763847798755
 20
82.52671846355326
 30
0.0
 11
13.28763847798737
 21
82.52671846355326
 31
0.0
  0
LINE
  5
76B
330
1F
100
AcDbEntity
  8
DETAILS
 62
     6
370
    20
100
AcDbLine
 10
13.83763847798755
 20
82.52671846355326
 30
0.0
 11
14.03763847798646
 21
82.52671846355326
 31
0.0
  0
LINE
  5
76C
330
1F
100
AcDbEntity
  8
DETAILS
 62
     6
370
    20
100
AcDbLine
 10
11.58763847798573
 20
77.50671846355328
 30
0.0
 11
11.6876384779861
 21
77.50671846355328
 31
0.0
  0
LINE
  5
76D
330
1F
100
AcDbEntity
  8
DETAILS
 62
     6
370
    20
100
AcDbLine
 10
11.65725009255393
 20
76.79279614085055
 30
0.0
 11
11.6876384779861
 21
77.02671846355326
 31
0.0
  0
LINE
  5
76E
330
1F
100
AcDbEntity
  8
DETAILS
 62
     6
370
    20
100
AcDbLine
 10
11.6180268655261
 20
76.79279614085101
 30
0.0
 11
11.58763847798573
 21
77.02671846355326
 31
0.0
  0
ARC
  5
76F
330
1F
100
AcDbEntity
  8
DETAILS
 62
     6
370
    20
100
AcDbCircle
 10
11.63763847904002
 20
76.79671846355325
 30
0.0
 40
0.02
100
AcDbArc
 50
191.3099324739691
 51
348.6900675259439
  0
LINE
  5
770
330
1F
100
AcDbEntity
  8
DETAILS
 62
     6
370
    20
100
AcDbLine
 10
12.40725009150074
 20
76.79279614085055
 30
0.0
 11
12.4376384769329
 21
77.02671846355326
 31
0.0
  0
LINE
  5
771
330
1F
100
AcDbEntity
  8
DETAILS
 62
     6
370
    20
100
AcDbLine
 10
12.36802686447291
 20
76.79279614085101
 30
0.0
 11
12.33763847693254
 21
77.02671846355326
 31
0.0
  0
ARC
  5
772
330
1F
100
AcDbEntity
  8
DETAILS
 62
     6
370
    20
100
AcDbCircle
 10
12.38763847798682
 20
76.79671846355325
 30
0.0
 40
0.02
100
AcDbArc
 50
191.3099324739691
 51
348.6900675259439
  0
LINE
  5
773
330
1F
100
AcDbEntity
  8
DETAILS
 62
     6
370
    20
100
AcDbLine
 10
13.20725009150183
 20
76.79279614085055
 30
0.0
 11
13.23763847693399
 21
77.02671846355326
 31
0.0
  0
LINE
  5
774
330
1F
100
AcDbEntity
  8
DETAILS
 62
     6
370
    20
100
AcDbLine
 10
13.168026864474
 20
76.79279614085101
 30
0.0
 11
13.13763847693363
 21
77.02671846355326
 31
0.0
  0
ARC
  5
775
330
1F
100
AcDbEntity
  8
DETAILS
 62
     6
370
    20
100
AcDbCircle
 10
13.18763847798791
 20
76.79671846355325
 30
0.0
 40
0.02
100
AcDbArc
 50
191.3099324739691
 51
348.6900675259439
  0
LINE
  5
776
330
1F
100
AcDbEntity
  8
DETAILS
 62
     6
370
    20
100
AcDbLine
 10
13.95725009150183
 20
76.79279614085055
 30
0.0
 11
13.98763847693399
 21
77.02671846355326
 31
0.0
  0
LINE
  5
777
330
1F
100
AcDbEntity
  8
DETAILS
 62
     6
370
    20
100
AcDbLine
 10
13.918026864474
 20
76.79279614085101
 30
0.0
 11
13.88763847693363
 21
77.02671846355326
 31
0.0
  0
ARC
  5
778
330
1F
100
AcDbEntity
  8
DETAILS
 62
     6
370
    20
100
AcDbCircle
 10
13.93763847798792
 20
76.79671846355325
 30
0.0
 40
0.02
100
AcDbArc
 50
191.3099324739691
 51
348.6900675259439
  0
LINE
  5
779
330
1F
100
AcDbEntity
  8
DETAILS
 62
     6
370
    20
100
AcDbLine
 10
11.3276384779846
 20
77.02671846355326
 30
0.0
 11
10.78763847798737
 21
76.50620299963714
 31
0.0
  0
LINE
  5
77A
330
1F
100
AcDbEntity
  8
DETAILS
 62
     6
370
    20
100
AcDbLine
 10
14.22763847798697
 20
77.02671846355281
 30
0.0
 11
14.78763847798737
 21
76.49243274926641
 31
0.0
  0
LINE
  5
77B
330
1F
100
AcDbEntity
  8
DETAILS
 62
     6
370
    20
100
AcDbLine
 10
14.23763847798719
 20
82.52671846355326
 30
0.0
 11
14.78763847798737
 21
83.05697487380905
 31
0.0
  0
LINE
  5
77C
330
1F
100
AcDbEntity
  8
DETAILS
 62
     6
370
    20
100
AcDbLine
 10
11.33763847798573
 20
82.52671846355326
 30
0.0
 11
10.78763847798828
 21
83.05697487380815
 31
0.0
  0
LINE
  5
77D
330
1F
100
AcDbEntity
  8
0
  6
HIDDEN
 62
     1
 48
0.02
100
AcDbLine
 10
9.137638477987735
 20
74.02671846355326
 30
0.0
 11
9.762638477987735
 21
74.02671846355326
 31
0.0
  0
LINE
  5
77E
330
1F
100
AcDbEntity
  8
0
  6
HIDDEN
 62
     1
 48
0.02
100
AcDbLine
 10
10.16263847798737
 20
74.02671846355326
 30
0.0
 11
10.16263847798646
 21
73.52671846355327
 31
0.0
  0
LINE
  5
77F
330
1F
100
AcDbEntity
  8
0
  6
HIDDEN
 62
     1
 48
0.02
100
AcDbLine
 10
9.762638477987735
 20
74.02671846355326
 30
0.0
 11
9.762638477988645
 21
73.52671846355327
 31
0.0
  0
LINE
  5
780
330
1F
100
AcDbEntity
  8
0
  6
HIDDEN
 62
     1
 48
0.02
100
AcDbLine
 10
10.16263847798646
 20
74.02671846355326
 30
0.0
 11
10.78763847798646
 21
74.02671846355326
 31
0.0
  0
LINE
  5
781
330
1F
100
AcDbEntity
  8
0
  6
HIDDEN
 62
     1
 48
0.02
100
AcDbLine
 10
16.43763847798882
 20
74.02671846355326
 30
0.0
 11
16.43763847798882
 21
73.52671846355327
 31
0.0
  0
LINE
  5
782
330
1F
100
AcDbEntity
  8
0
  6
HIDDEN
 62
     1
 48
0.02
100
AcDbLine
 10
15.41263847798828
 20
74.02671846355326
 30
0.0
 11
15.41263847798828
 21
73.52671846355327
 31
0.0
  0
LINE
  5
783
330
1F
100
AcDbEntity
  8
0
  6
HIDDEN
 62
     1
 48
0.02
100
AcDbLine
 10
15.81263847798882
 20
74.02671846355326
 30
0.0
 11
15.81263847798882
 21
73.52671846355327
 31
0.0
  0
LINE
  5
784
330
1F
100
AcDbEntity
  8
0
  6
HIDDEN
 62
     1
 48
0.02
100
AcDbLine
 10
14.78763847798828
 20
74.02671846355326
 30
0.0
 11
15.41263847798828
 21
74.02671846355326
 31
0.0
  0
LINE
  5
785
330
1F
100
AcDbEntity
  8
0
  6
HIDDEN
 62
     1
 48
0.02
100
AcDbLine
 10
15.81263847798882
 20
74.02671846355326
 30
0.0
 11
16.43763847798882
 21
74.02671846355326
 31
0.0
  0
LINE
  5
786
330
1F
100
AcDbEntity
  8
0
  6
HIDDEN
 62
     1
 48
0.02
100
AcDbLine
 10
15.23763847798901
 20
73.77671846355326
 30
0.0
 11
15.23763847798901
 21
73.52671846355327
 31
0.0
  0
LINE
  5
787
330
1F
100
AcDbEntity
  8
0
  6
HIDDEN
 62
     1
 48
0.02
100
AcDbLine
 10
14.98763847798901
 20
73.77671846355326
 30
0.0
 11
15.23763847798901
 21
73.77671846355326
 31
0.0
  0
LINE
  5
788
330
1F
100
AcDbEntity
  8
0
 62
     1
100
AcDbLine
 10
8.787638477988281
 20
73.52671846355327
 30
0.0
 11
8.787638477988281
 21
61.52671846355326
 31
0.0
  0
LINE
  5
789
330
1F
100
AcDbEntity
  8
0
 62
     1
100
AcDbLine
 10
16.78763847798828
 20
73.52671846355327
 30
0.0
 11
16.78763847798828
 21
61.52671846355326
 31
0.0
  0
LINE
  5
78A
330
1F
100
AcDbEntity
  8
0
 62
     1
100
AcDbLine
 10
8.787638477988281
 20
73.52671846355327
 30
0.0
 11
10.33763847798755
 21
73.52671846355327
 31
0.0
  0
LINE
  5
78B
330
1F
100
AcDbEntity
  8
0
 62
     1
100
AcDbLine
 10
8.787638477988281
 20
61.52671846355326
 30
0.0
 11
10.78763847798737
 21
61.52671846355326
 31
0.0
  0
LINE
  5
78C
330
1F
100
AcDbEntity
  8
0
 62
     1
100
AcDbLine
 10
10.78763847798737
 20
74.02671846355326
 30
0.0
 11
10.78763847798828
 21
61.52671846355326
 31
0.0
  0
LINE
  5
78D
330
1F
100
AcDbEntity
  8
0
 62
     1
100
AcDbLine
 10
14.78763847798646
 20
74.02671846355326
 30
0.0
 11
14.78763847798828
 21
61.52671846355326
 31
0.0
  0
LINE
  5
78E
330
1F
100
AcDbEntity
  8
0
 62
     1
100
AcDbLine
 10
9.137638477987735
 20
74.02671846355326
 30
0.0
 11
9.762638477987735
 21
74.02671846355326
 31
0.0
  0
LINE
  5
78F
330
1F
100
AcDbEntity
  8
0
 62
     1
100
AcDbLine
 10
9.137638477987735
 20
74.02671846355326
 30
0.0
 11
9.137638477987735
 21
61.52671846355326
 31
0.0
  0
LINE
  5
790
330
1F
100
AcDbEntity
  8
0
 62
     1
100
AcDbLine
 10
16.43763847798792
 20
74.02671846355326
 30
0.0
 11
16.43763847798792
 21
73.52671846355327
 31
0.0
  0
LINE
  5
791
330
1F
100
AcDbEntity
  8
0
 62
     1
100
AcDbLine
 10
10.16263847798737
 20
74.02671846355326
 30
0.0
 11
10.16263847798646
 21
73.52671846355327
 31
0.0
  0
LINE
  5
792
330
1F
100
AcDbEntity
  8
0
 62
     1
100
AcDbLine
 10
9.762638477987735
 20
74.02671846355326
 30
0.0
 11
9.762638477988645
 21
73.52671846355327
 31
0.0
  0
LINE
  5
793
330
1F
100
AcDbEntity
  8
0
 62
     1
100
AcDbLine
 10
15.41263847798646
 20
74.02671846355326
 30
0.0
 11
15.41263847798646
 21
73.52671846355327
 31
0.0
  0
LINE
  5
794
330
1F
100
AcDbEntity
  8
0
 62
     1
100
AcDbLine
 10
15.81263847798792
 20
74.02671846355326
 30
0.0
 11
15.81263847798792
 21
73.52671846355327
 31
0.0
  0
LINE
  5
795
330
1F
100
AcDbEntity
  8
0
 62
     1
100
AcDbLine
 10
14.78763847798737
 20
74.02671846355326
 30
0.0
 11
15.41263847798737
 21
74.02671846355326
 31
0.0
  0
LINE
  5
796
330
1F
100
AcDbEntity
  8
0
 62
     1
100
AcDbLine
 10
15.81263847798792
 20
74.02671846355326
 30
0.0
 11
16.43763847798792
 21
74.02671846355326
 31
0.0
  0
LINE
  5
797
330
1F
100
AcDbEntity
  8
0
 62
     1
100
AcDbLine
 10
10.16263847798646
 20
74.02671846355326
 30
0.0
 11
10.78763847798646
 21
74.02671846355326
 31
0.0
  0
LINE
  5
798
330
1F
100
AcDbEntity
  8
0
 62
     1
100
AcDbLine
 10
10.58763847798755
 20
73.77671846355326
 30
0.0
 11
10.58763847798755
 21
61.52671846355326
 31
0.0
  0
LINE
  5
799
330
1F
100
AcDbEntity
  8
0
 62
     1
100
AcDbLine
 10
14.98763847798719
 20
73.77671846355326
 30
0.0
 11
14.98763847798719
 21
61.52671846355326
 31
0.0
  0
LINE
  5
79A
330
1F
100
AcDbEntity
  8
0
 62
     1
100
AcDbLine
 10
10.33763847798755
 20
73.77671846355326
 30
0.0
 11
10.33763847798755
 21
73.52671846355327
 31
0.0
  0
LINE
  5
79B
330
1F
100
AcDbEntity
  8
0
 62
     1
100
AcDbLine
 10
15.23763847798719
 20
73.77671846355326
 30
0.0
 11
15.23763847798719
 21
73.52671846355327
 31
0.0
  0
LINE
  5
79C
330
1F
100
AcDbEntity
  8
0
 62
     1
100
AcDbLine
 10
10.33763847798755
 20
73.77671846355326
 30
0.0
 11
10.58763847798755
 21
73.77671846355326
 31
0.0
  0
LINE
  5
79D
330
1F
100
AcDbEntity
  8
0
 62
     1
100
AcDbLine
 10
14.98763847798719
 20
73.77671846355326
 30
0.0
 11
15.23763847798719
 21
73.77671846355326
 31
0.0
  0
LINE
  5
79E
330
1F
100
AcDbEntity
  8
0
 62
     1
100
AcDbLine
 10
15.20263847798733
 20
73.52671846355327
 30
0.0
 11
16.78763847798828
 21
73.52671846355327
 31
0.0
  0
LINE
  5
79F
330
1F
100
AcDbEntity
  8
0
 62
     1
100
AcDbLine
 10
10.58763847798755
 20
73.52671846355327
 30
0.0
 11
10.78763847798646
 21
73.52671846355327
 31
0.0
  0
LINE
  5
7A0
330
1F
100
AcDbEntity
  8
0
 62
     1
100
AcDbLine
 10
15.20263847798733
 20
73.52671846355327
 30
0.0
 11
15.20263847798733
 21
61.52671846355326
 31
0.0
  0
LINE
  5
7A1
330
1F
100
AcDbEntity
  8
0
 62
     1
100
AcDbLine
 10
16.02263847798795
 20
73.52671846355327
 30
0.0
 11
16.02263847798795
 21
61.52671846355326
 31
0.0
  0
LINE
  5
7A2
330
1F
100
AcDbEntity
  8
A2 Hatch
  6
DASHED2
 48
0.15
100
AcDbLine
 10
15.3626384779881
 20
73.52671846355327
 30
0.0
 11
15.3626384779881
 21
61.52671846355326
 31
0.0
  0
LINE
  5
7A3
330
1F
100
AcDbEntity
  8
A2 Hatch
  6
DASHED2
 48
0.15
100
AcDbLine
 10
15.8626384779881
 20
73.52671846355327
 30
0.0
 11
15.8626384779881
 21
61.52671846355326
 31
0.0
  0
LINE
  5
7A4
330
1F
100
AcDbEntity
  8
0
 48
0.15
100
AcDbLine
 10
9.762638477987735
 20
73.52671846355327
 30
0.0
 11
10.16263847798737
 21
73.52671846355327
 31
0.0
  0
LINE
  5
7A5
330
1F
100
AcDbEntity
  8
A2 Hatch
  6
DASHED2
 48
0.15
100
AcDbLine
 10
9.552638477987699
 20
74.02671846355326
 30
0.0
 11
9.552638477987699
 21
61.52671846355326
 31
0.0
  0
LINE
  5
7A6
330
1F
100
AcDbEntity
  8
A2 Hatch
  6
DASHED2
 48
0.15
100
AcDbLine
 10
10.37263847798741
 20
74.02671846355326
 30
0.0
 11
10.37263847798741
 21
61.52671846355326
 31
0.0
  0
LINE
  5
7A7
330
1F
100
AcDbEntity
  8
0
 62
     1
100
AcDbLine
 10
9.712638477987553
 20
74.02671846355326
 30
0.0
 11
9.712638477987553
 21
61.52671846355326
 31
0.0
  0
LINE
  5
7A8
330
1F
100
AcDbEntity
  8
0
 62
     1
100
AcDbLine
 10
10.21263847798755
 20
74.02671846355326
 30
0.0
 11
10.21263847798755
 21
61.52671846355326
 31
0.0
  0
LINE
  5
7A9
330
1F
100
AcDbEntity
  8
0
 62
     1
100
AcDbLine
 10
10.21263847798755
 20
73.52671846355327
 30
0.0
 11
9.712638477987553
 21
73.52671846355327
 31
0.0
  0
LINE
  5
7AA
330
1F
100
AcDbEntity
  8
0
 62
     1
100
AcDbLine
 10
14.78763847798737
 20
73.52671846355327
 30
0.0
 11
14.98763847798719
 21
73.52671846355327
 31
0.0
  0
LINE
  5
7AB
330
1F
100
AcDbEntity
  8
0
 62
     1
100
AcDbLine
 10
14.78763847798828
 20
61.52671846355326
 30
0.0
 11
16.78763847798828
 21
61.52671846355326
 31
0.0
  0
LINE
  5
7AC
330
1F
100
AcDbEntity
  8
DETAILS
 62
     6
370
    20
100
AcDbLine
 10
14.78763847798737
 20
65.50671846355328
 30
0.0
 11
10.78763847798737
 21
65.50671846355328
 31
0.0
  0
LINE
  5
7AD
330
1F
100
AcDbEntity
  8
DETAILS
 62
     6
370
    20
100
AcDbLine
 10
14.78763847798737
 20
70.04671846355325
 30
0.0
 11
10.78763847798737
 21
70.04671846355325
 31
0.0
  0
LINE
  5
7AE
330
1F
100
AcDbEntity
  8
DETAILS
 62
     6
370
    20
100
AcDbLine
 10
14.78763847798737
 20
65.02671846355281
 30
0.0
 11
10.78763847798737
 21
65.02671846355326
 31
0.0
  0
LINE
  5
7AF
330
1F
100
AcDbEntity
  8
DETAILS
 62
     6
370
    20
100
AcDbLine
 10
14.78763847798737
 20
65.11671846355295
 30
0.0
 11
10.78763847798737
 21
65.11671846355341
 31
0.0
  0
LINE
  5
7B0
330
1F
100
AcDbEntity
  8
DETAILS
 62
     6
370
    20
100
AcDbLine
 10
14.78763847798737
 20
65.41671846355313
 30
0.0
 11
10.78763847798737
 21
65.41671846355313
 31
0.0
  0
LINE
  5
7B1
330
1F
100
AcDbEntity
  8
DETAILS
 62
     6
370
    20
100
AcDbLine
 10
14.78763847798737
 20
70.13671846355248
 30
0.0
 11
10.78763847798737
 21
70.1367184635534
 31
0.0
  0
LINE
  5
7B2
330
1F
100
AcDbEntity
  8
DETAILS
 62
     6
370
    20
100
AcDbLine
 10
14.78763847798737
 20
70.43671846355266
 30
0.0
 11
10.78763847798737
 21
70.43671846355312
 31
0.0
  0
LINE
  5
7B3
330
1F
100
AcDbEntity
  8
DETAILS
 62
     6
370
    20
100
AcDbLine
 10
10.97763847798515
 20
65.50671846355328
 30
0.0
 11
11.3276384779846
 21
65.50671846355328
 31
0.0
  0
LINE
  5
7B4
330
1F
100
AcDbEntity
  8
DETAILS
 62
     6
370
    20
100
AcDbLine
 10
14.22763847798606
 20
65.50671846355328
 30
0.0
 11
14.48977051234206
 21
65.7688504979061
 31
0.0
  0
LINE
  5
7B5
330
1F
100
AcDbEntity
  8
DETAILS
 62
     6
370
    20
100
AcDbLine
 10
11.3276384779846
 20
65.50671846355328
 30
0.0
 11
11.0655064436286
 21
65.76885049791201
 31
0.0
  0
LINE
  5
7B6
330
1F
100
AcDbEntity
  8
DETAILS
 62
     6
370
    20
100
AcDbLine
 10
14.23763847798719
 20
70.04671846355325
 30
0.0
 11
14.48977051234206
 21
69.79458642919656
 31
0.0
  0
LINE
  5
7B7
330
1F
100
AcDbEntity
  8
DETAILS
 62
     6
370
    20
100
AcDbLine
 10
11.33763847798573
 20
70.04671846355325
 30
0.0
 11
11.06550644363042
 21
69.77458642920112
 31
0.0
  0
LINE
  5
7B8
330
1F
100
AcDbEntity
  8
DETAILS
 62
     6
370
    20
100
AcDbLine
 10
14.57763847798642
 20
65.98098253226282
 30
0.0
 11
14.57763847798551
 21
69.58245439484165
 31
0.0
  0
LINE
  5
7B9
330
1F
100
AcDbEntity
  8
DETAILS
 62
     6
370
    20
100
AcDbLine
 10
10.97763847798515
 20
65.98098253226692
 30
0.0
 11
10.97763847798515
 21
69.56245439484394
 31
0.0
  0
ARC
  5
7BA
330
1F
100
AcDbEntity
  8
DETAILS
 62
     6
370
    20
100
AcDbCircle
 10
14.27763847798624
 20
65.98098253226282
 30
0.0
 40
0.3
100
AcDbArc
 50
314.9999999997974
 51
0.0
  0
ARC
  5
7BB
330
1F
100
AcDbEntity
  8
DETAILS
 62
     6
370
    20
100
AcDbCircle
 10
11.27763847798624
 20
65.98098253226647
 30
0.0
 40
0.3
100
AcDbArc
 50
180.0
 51
224.9999999996868
  0
ARC
  5
7BC
330
1F
100
AcDbEntity
  8
DETAILS
 62
     6
370
    20
100
AcDbCircle
 10
14.27763847798624
 20
69.58245439484119
 30
0.0
 40
0.3
100
AcDbArc
 50
0.0000000000260551
 51
44.99999999970515
  0
ARC
  5
7BD
330
1F
100
AcDbEntity
  8
DETAILS
 62
     6
370
    20
100
AcDbCircle
 10
11.27763847798624
 20
69.56245439484348
 30
0.0
 40
0.3
100
AcDbArc
 50
134.9999999997052
 51
180.0
  0
LINE
  5
7BE
330
1F
100
AcDbEntity
  8
DETAILS
 62
     6
370
    20
100
AcDbLine
 10
10.78763847798737
 20
70.52671846355327
 30
0.0
 11
11.33763847798573
 21
70.52671846355327
 31
0.0
  0
LINE
  5
7BF
330
1F
100
AcDbEntity
  8
DETAILS
 62
     6
370
    20
100
AcDbLine
 10
11.58763847798573
 20
70.57671846355344
 30
0.0
 11
11.58763847798573
 21
71.18103519963745
 31
0.0
  0
LINE
  5
7C0
330
1F
100
AcDbEntity
  8
DETAILS
 62
     6
370
    20
100
AcDbLine
 10
11.6876384779861
 20
70.57671846355344
 30
0.0
 11
11.6876384779861
 21
71.09460525576162
 31
0.0
  0
ARC
  5
7C1
330
1F
100
AcDbEntity
  8
DETAILS
 62
     6
370
    20
100
AcDbCircle
 10
11.74939613676534
 20
71.09884399111127
 30
0.0
 40
0.0619029506189981
100
AcDbArc
 50
134.9903235096027
 51
183.9263367617324
  0
LINE
  5
7C2
330
1F
100
AcDbEntity
  8
DETAILS
 62
     6
370
    20
100
AcDbLine
 10
14.03763847798646
 20
70.52671846355281
 30
0.0
 11
14.23763847798719
 21
70.52671846355281
 31
0.0
  0
LINE
  5
7C3
330
1F
100
AcDbEntity
  8
DETAILS
 62
     6
370
    20
100
AcDbLine
 10
13.98763847798719
 20
70.57671846355299
 30
0.0
 11
13.98763847798719
 21
71.18103519963745
 31
0.0
  0
LINE
  5
7C4
330
1F
100
AcDbEntity
  8
DETAILS
 62
     6
370
    20
100
AcDbLine
 10
13.88763847798682
 20
70.57671846355299
 30
0.0
 11
13.88763847798682
 21
71.09460525576117
 31
0.0
  0
ARC
  5
7C5
330
1F
100
AcDbEntity
  8
DETAILS
 62
     6
370
    20
100
AcDbCircle
 10
13.77538264598743
 20
71.09147020341708
 30
0.0
 40
0.1122996009395304
100
AcDbArc
 50
1.599726146933217
 51
27.09751498394525
  0
LINE
  5
7C6
330
1F
100
AcDbEntity
  8
DETAILS
 62
     6
370
    20
100
AcDbLine
 10
12.33763847798573
 20
70.57671846355299
 30
0.0
 11
12.33763847798573
 21
71.09460525576025
 31
0.0
  0
LINE
  5
7C7
330
1F
100
AcDbEntity
  8
DETAILS
 62
     6
370
    20
100
AcDbLine
 10
12.4376384779861
 20
70.57671846355299
 30
0.0
 11
12.4376384779861
 21
71.09460525576162
 31
0.0
  0
ARC
  5
7C8
330
1F
100
AcDbEntity
  8
DETAILS
 62
     6
370
    20
100
AcDbCircle
 10
12.38763847798501
 20
71.21245994932872
 30
0.0
 40
0.0935752503092939
100
AcDbArc
 50
311.7278668394931
 51
228.2721331609136
  0
ARC
  5
7C9
330
1F
100
AcDbEntity
  8
DETAILS
 62
     6
370
    20
100
AcDbCircle
 10
12.23763847798537
 20
71.09460525576025
 30
0.0
 40
0.1
100
AcDbArc
 50
0.0
 51
28.69723935241921
  0
ARC
  5
7CA
330
1F
100
AcDbEntity
  8
DETAILS
 62
     6
370
    20
100
AcDbCircle
 10
12.53763847798555
 20
71.09460525576162
 30
0.0
 40
0.1
100
AcDbArc
 50
151.3027606481171
 51
180.0
  0
LINE
  5
7CB
330
1F
100
AcDbEntity
  8
DETAILS
 62
     6
370
    20
100
AcDbLine
 10
13.13763847798773
 20
70.57671846355299
 30
0.0
 11
13.13763847798682
 21
71.09460525576025
 31
0.0
  0
LINE
  5
7CC
330
1F
100
AcDbEntity
  8
DETAILS
 62
     6
370
    20
100
AcDbLine
 10
13.23763847798719
 20
70.57671846355299
 30
0.0
 11
13.23763847798719
 21
71.09460525576117
 31
0.0
  0
ARC
  5
7CD
330
1F
100
AcDbEntity
  8
DETAILS
 62
     6
370
    20
100
AcDbCircle
 10
13.18763847798701
 20
71.21245994932826
 30
0.0
 40
0.0935752503091666
100
AcDbArc
 50
311.7278668395667
 51
228.2721331606194
  0
ARC
  5
7CE
330
1F
100
AcDbEntity
  8
DETAILS
 62
     6
370
    20
100
AcDbCircle
 10
13.03763847798737
 20
71.09460525576025
 30
0.0
 40
0.1
100
AcDbArc
 50
0.0
 51
28.69723935241921
  0
ARC
  5
7CF
330
1F
100
AcDbEntity
  8
DETAILS
 62
     6
370
    20
100
AcDbCircle
 10
13.33763847798755
 20
71.09460525576117
 30
0.0
 40
0.1
100
AcDbArc
 50
151.3027606481171
 51
180.0
  0
LINE
  5
7D0
330
1F
100
AcDbEntity
  8
DETAILS
 62
     6
370
    20
100
AcDbLine
 10
13.93763847798701
 20
71.30603519963745
 30
0.0
 11
14.78763847798737
 21
71.30603519963745
 31
0.0
  0
ARC
  5
7D1
330
1F
100
AcDbEntity
  8
DETAILS
 62
     6
370
    20
100
AcDbCircle
 10
11.65012547898541
 20
71.21499602304822
 30
0.0
 40
0.091207026586975
100
AcDbArc
 50
307.4863303690938
 51
93.47656839120459
  0
ARC
  5
7D2
330
1F
100
AcDbEntity
  8
DETAILS
 62
     6
370
    20
100
AcDbCircle
 10
13.93763847798701
 20
71.21245994932826
 30
0.0
 40
0.0935752503091878
100
AcDbArc
 50
90.0
 51
228.2720386612377
  0
LINE
  5
7D3
330
1F
100
AcDbEntity
  8
DETAILS
 62
     6
370
    20
100
AcDbLine
 10
11.65565630395204
 20
71.30603519963745
 30
0.0
 11
10.78763847798646
 21
71.30603519963745
 31
0.0
  0
LINE
  5
7D4
330
1F
100
AcDbEntity
  8
DETAILS
 62
     6
370
    20
100
AcDbLine
 10
11.58763847798573
 20
71.18103519963745
 30
0.0
 11
10.78763847798646
 21
71.18103519963745
 31
0.0
  0
LINE
  5
7D5
330
1F
100
AcDbEntity
  8
DETAILS
 62
     6
370
    20
100
AcDbLine
 10
13.98763847798719
 20
71.18103519963745
 30
0.0
 11
14.78763847798737
 21
71.18103519963745
 31
0.0
  0
LINE
  5
7D6
330
1F
100
AcDbEntity
  8
DETAILS
 62
     6
370
    20
100
AcDbLine
 10
13.83763847798755
 20
70.52671846355281
 30
0.0
 11
13.28763847798737
 21
70.52671846355327
 31
0.0
  0
LINE
  5
7D7
330
1F
100
AcDbEntity
  8
DETAILS
 62
     6
370
    20
100
AcDbLine
 10
13.08763847798755
 20
70.52671846355327
 30
0.0
 11
12.48763847798537
 21
70.52671846355327
 31
0.0
  0
LINE
  5
7D8
330
1F
100
AcDbEntity
  8
DETAILS
 62
     6
370
    20
100
AcDbLine
 10
12.28763847798555
 20
70.52671846355327
 30
0.0
 11
11.73763847798537
 21
70.52671846355327
 31
0.0
  0
LINE
  5
7D9
330
1F
100
AcDbEntity
  8
DETAILS
 62
     6
370
    20
100
AcDbLine
 10
11.53763847798464
 20
70.52671846355327
 30
0.0
 11
10.78763847798737
 21
70.52671846355327
 31
0.0
  0
ARC
  5
7DA
330
1F
100
AcDbEntity
  8
DETAILS
 62
     6
370
    20
100
AcDbCircle
 10
11.53763847798464
 20
70.57671846355344
 30
0.0
 40
0.05
100
AcDbArc
 50
270.0
 51
0.0
  0
ARC
  5
7DB
330
1F
100
AcDbEntity
  8
DETAILS
 62
     6
370
    20
100
AcDbCircle
 10
11.73763847798537
 20
70.57671846355344
 30
0.0
 40
0.05
100
AcDbArc
 50
180.0
 51
270.0
  0
ARC
  5
7DC
330
1F
100
AcDbEntity
  8
DETAILS
 62
     6
370
    20
100
AcDbCircle
 10
12.28763847798555
 20
70.57671846355299
 30
0.0
 40
0.05
100
AcDbArc
 50
270.0
 51
0.0
  0
ARC
  5
7DD
330
1F
100
AcDbEntity
  8
DETAILS
 62
     6
370
    20
100
AcDbCircle
 10
12.48763847798537
 20
70.57671846355299
 30
0.0
 40
0.05
100
AcDbArc
 50
180.0
 51
270.0
  0
ARC
  5
7DE
330
1F
100
AcDbEntity
  8
DETAILS
 62
     6
370
    20
100
AcDbCircle
 10
13.08763847798755
 20
70.57671846355299
 30
0.0
 40
0.05
100
AcDbArc
 50
270.0
 51
0.0
  0
ARC
  5
7DF
330
1F
100
AcDbEntity
  8
DETAILS
 62
     6
370
    20
100
AcDbCircle
 10
13.28763847798737
 20
70.57671846355299
 30
0.0
 40
0.05
100
AcDbArc
 50
180.0
 51
270.0
  0
ARC
  5
7E0
330
1F
100
AcDbEntity
  8
DETAILS
 62
     6
370
    20
100
AcDbCircle
 10
13.83763847798755
 20
70.57671846355299
 30
0.0
 40
0.05
100
AcDbArc
 50
270.0
 51
0.0
  0
ARC
  5
7E1
330
1F
100
AcDbEntity
  8
DETAILS
 62
     6
370
    20
100
AcDbCircle
 10
14.03763847798646
 20
70.57671846355299
 30
0.0
 40
0.05
100
AcDbArc
 50
179.9999999999479
 51
270.0
  0
LINE
  5
7E2
330
1F
100
AcDbEntity
  8
DETAILS
 62
     6
370
    20
100
AcDbLine
 10
10.78763847798737
 20
70.52671846355327
 30
0.0
 11
14.78763847798737
 21
70.52671846355327
 31
0.0
  0
LINE
  5
7E3
330
1F
100
AcDbEntity
  8
DETAILS
 62
     6
370
    20
100
AcDbLine
 10
11.53763847798464
 20
70.52671846355327
 30
0.0
 11
11.73763847798537
 21
70.52671846355327
 31
0.0
  0
LINE
  5
7E4
330
1F
100
AcDbEntity
  8
DETAILS
 62
     6
370
    20
100
AcDbLine
 10
12.28763847798555
 20
70.52671846355327
 30
0.0
 11
12.48763847798537
 21
70.52671846355327
 31
0.0
  0
LINE
  5
7E5
330
1F
100
AcDbEntity
  8
DETAILS
 62
     6
370
    20
100
AcDbLine
 10
13.08763847798755
 20
70.52671846355327
 30
0.0
 11
13.28763847798737
 21
70.52671846355327
 31
0.0
  0
LINE
  5
7E6
330
1F
100
AcDbEntity
  8
DETAILS
 62
     6
370
    20
100
AcDbLine
 10
13.83763847798755
 20
70.52671846355327
 30
0.0
 11
14.03763847798646
 21
70.52671846355327
 31
0.0
  0
LINE
  5
7E7
330
1F
100
AcDbEntity
  8
DETAILS
 62
     6
370
    20
100
AcDbLine
 10
11.58763847798573
 20
65.50671846355328
 30
0.0
 11
11.6876384779861
 21
65.50671846355328
 31
0.0
  0
LINE
  5
7E8
330
1F
100
AcDbEntity
  8
DETAILS
 62
     6
370
    20
100
AcDbLine
 10
11.65725009255393
 20
64.79279614085055
 30
0.0
 11
11.6876384779861
 21
65.02671846355326
 31
0.0
  0
LINE
  5
7E9
330
1F
100
AcDbEntity
  8
DETAILS
 62
     6
370
    20
100
AcDbLine
 10
11.6180268655261
 20
64.79279614085101
 30
0.0
 11
11.58763847798573
 21
65.02671846355326
 31
0.0
  0
ARC
  5
7EA
330
1F
100
AcDbEntity
  8
DETAILS
 62
     6
370
    20
100
AcDbCircle
 10
11.63763847904002
 20
64.79671846355325
 30
0.0
 40
0.02
100
AcDbArc
 50
191.3099324739691
 51
348.6900675259439
  0
LINE
  5
7EB
330
1F
100
AcDbEntity
  8
DETAILS
 62
     6
370
    20
100
AcDbLine
 10
12.40725009150074
 20
64.79279614085055
 30
0.0
 11
12.4376384769329
 21
65.02671846355326
 31
0.0
  0
LINE
  5
7EC
330
1F
100
AcDbEntity
  8
DETAILS
 62
     6
370
    20
100
AcDbLine
 10
12.36802686447291
 20
64.79279614085101
 30
0.0
 11
12.33763847693254
 21
65.02671846355326
 31
0.0
  0
ARC
  5
7ED
330
1F
100
AcDbEntity
  8
DETAILS
 62
     6
370
    20
100
AcDbCircle
 10
12.38763847798682
 20
64.79671846355325
 30
0.0
 40
0.02
100
AcDbArc
 50
191.3099324739691
 51
348.6900675259439
  0
LINE
  5
7EE
330
1F
100
AcDbEntity
  8
DETAILS
 62
     6
370
    20
100
AcDbLine
 10
13.20725009150183
 20
64.79279614085055
 30
0.0
 11
13.23763847693399
 21
65.02671846355326
 31
0.0
  0
LINE
  5
7EF
330
1F
100
AcDbEntity
  8
DETAILS
 62
     6
370
    20
100
AcDbLine
 10
13.168026864474
 20
64.79279614085101
 30
0.0
 11
13.13763847693363
 21
65.02671846355326
 31
0.0
  0
ARC
  5
7F0
330
1F
100
AcDbEntity
  8
DETAILS
 62
     6
370
    20
100
AcDbCircle
 10
13.18763847798791
 20
64.79671846355325
 30
0.0
 40
0.02
100
AcDbArc
 50
191.3099324739691
 51
348.6900675259439
  0
LINE
  5
7F1
330
1F
100
AcDbEntity
  8
DETAILS
 62
     6
370
    20
100
AcDbLine
 10
13.95725009150183
 20
64.79279614085055
 30
0.0
 11
13.98763847693399
 21
65.02671846355326
 31
0.0
  0
LINE
  5
7F2
330
1F
100
AcDbEntity
  8
DETAILS
 62
     6
370
    20
100
AcDbLine
 10
13.918026864474
 20
64.79279614085101
 30
0.0
 11
13.88763847693363
 21
65.02671846355326
 31
0.0
  0
ARC
  5
7F3
330
1F
100
AcDbEntity
  8
DETAILS
 62
     6
370
    20
100
AcDbCircle
 10
13.93763847798792
 20
64.79671846355325
 30
0.0
 40
0.02
100
AcDbArc
 50
191.3099324739691
 51
348.6900675259439
  0
LINE
  5
7F4
330
1F
100
AcDbEntity
  8
DETAILS
 62
     6
370
    20
100
AcDbLine
 10
11.3276384779846
 20
65.02671846355326
 30
0.0
 11
10.78763847798737
 21
64.50620299963714
 31
0.0
  0
LINE
  5
7F5
330
1F
100
AcDbEntity
  8
DETAILS
 62
     6
370
    20
100
AcDbLine
 10
14.22763847798697
 20
65.02671846355281
 30
0.0
 11
14.78763847798737
 21
64.49243274926641
 31
0.0
  0
LINE
  5
7F6
330
1F
100
AcDbEntity
  8
DETAILS
 62
     6
370
    20
100
AcDbLine
 10
14.23763847798719
 20
70.52671846355327
 30
0.0
 11
14.78763847798737
 21
71.05697487380905
 31
0.0
  0
LINE
  5
7F7
330
1F
100
AcDbEntity
  8
DETAILS
 62
     6
370
    20
100
AcDbLine
 10
11.33763847798573
 20
70.52671846355327
 30
0.0
 11
10.78763847798828
 21
71.05697487380814
 31
0.0
  0
LINE
  5
7F8
330
1F
100
AcDbEntity
  8
0
  6
HIDDEN
 62
     1
 48
0.02
100
AcDbLine
 10
9.137638477987735
 20
62.02671846355326
 30
0.0
 11
9.762638477987735
 21
62.02671846355326
 31
0.0
  0
LINE
  5
7F9
330
1F
100
AcDbEntity
  8
0
  6
HIDDEN
 62
     1
 48
0.02
100
AcDbLine
 10
10.16263847798737
 20
62.02671846355326
 30
0.0
 11
10.16263847798646
 21
61.52671846355326
 31
0.0
  0
LINE
  5
7FA
330
1F
100
AcDbEntity
  8
0
  6
HIDDEN
 62
     1
 48
0.02
100
AcDbLine
 10
9.762638477987735
 20
62.02671846355326
 30
0.0
 11
9.762638477988645
 21
61.52671846355326
 31
0.0
  0
LINE
  5
7FB
330
1F
100
AcDbEntity
  8
0
  6
HIDDEN
 62
     1
 48
0.02
100
AcDbLine
 10
10.16263847798646
 20
62.02671846355326
 30
0.0
 11
10.78763847798646
 21
62.02671846355326
 31
0.0
  0
LINE
  5
7FC
330
1F
100
AcDbEntity
  8
0
  6
HIDDEN
 62
     1
 48
0.02
100
AcDbLine
 10
16.43763847798882
 20
62.02671846355326
 30
0.0
 11
16.43763847798882
 21
61.52671846355326
 31
0.0
  0
LINE
  5
7FD
330
1F
100
AcDbEntity
  8
0
  6
HIDDEN
 62
     1
 48
0.02
100
AcDbLine
 10
15.41263847798828
 20
62.02671846355326
 30
0.0
 11
15.41263847798828
 21
61.52671846355326
 31
0.0
  0
LINE
  5
7FE
330
1F
100
AcDbEntity
  8
0
  6
HIDDEN
 62
     1
 48
0.02
100
AcDbLine
 10
15.81263847798882
 20
62.02671846355326
 30
0.0
 11
15.81263847798882
 21
61.52671846355326
 31
0.0
  0
LINE
  5
7FF
330
1F
100
AcDbEntity
  8
0
  6
HIDDEN
 62
     1
 48
0.02
100
AcDbLine
 10
14.78763847798828
 20
62.02671846355326
 30
0.0
 11
15.41263847798828
 21
62.02671846355326
 31
0.0
  0
LINE
  5
800
330
1F
100
AcDbEntity
  8
0
  6
HIDDEN
 62
     1
 48
0.02
100
AcDbLine
 10
15.81263847798882
 20
62.02671846355326
 30
0.0
 11
16.43763847798882
 21
62.02671846355326
 31
0.0
  0
LINE
  5
801
330
1F
100
AcDbEntity
  8
0
  6
HIDDEN
 62
     1
 48
0.02
100
AcDbLine
 10
15.23763847798901
 20
61.77671846355327
 30
0.0
 11
15.23763847798901
 21
61.52671846355326
 31
0.0
  0
LINE
  5
802
330
1F
100
AcDbEntity
  8
0
  6
HIDDEN
 62
     1
 48
0.02
100
AcDbLine
 10
14.98763847798901
 20
61.77671846355327
 30
0.0
 11
15.23763847798901
 21
61.77671846355327
 31
0.0
  0
LINE
  5
803
330
1F
100
AcDbEntity
  8
A5 heavy
 48
0.15
100
AcDbLine
 10
10.78763847798828
 20
61.52671846355326
 30
0.0
 11
14.78763847798828
 21
61.52671846355326
 31
0.0
  0
LINE
  5
804
330
1F
100
AcDbEntity
  8
0
 48
0.15
100
AcDbLine
 10
17.28763847798919
 20
86.83365487432286
 30
0.0
 11
17.28763847798828
 21
59.52671846355326
 31
0.0
  0
LINE
  5
805
330
1F
100
AcDbEntity
  8
0
 48
0.15
100
AcDbLine
 10
8.287638477988281
 20
83.86970047579792
 30
0.0
 11
8.287638477988281
 21
59.52671846355372
 31
0.0
  0
LINE
  5
806
330
1F
100
AcDbEntity
  8
DIM
100
AcDbLine
 10
18.6720450770471
 20
87.30316616509311
 30
0.0
 11
13.70188460122509
 21
85.61757288496449
 31
0.0
  0
LINE
  5
807
330
1F
100
AcDbEntity
  8
DIM
100
AcDbLine
 10
14.40391686382637
 20
83.54755217150716
 30
0.0
 11
13.701884601226
 21
85.61757288496449
 31
0.0
  0
LINE
  5
808
330
1F
100
AcDbEntity
  8
DIM
100
AcDbLine
 10
10.95677130554205
 20
86.99469772979194
 30
0.0
 11
11.65880356814241
 21
84.92467701633506
 31
0.0
  0
LINE
  5
809
330
1F
100
AcDbEntity
  8
DIM
100
AcDbLine
 10
11.65880356814241
 20
84.92467701633506
 30
0.0
 11
5.591451894515472
 21
83.02595253749961
 31
0.0
  0
LINE
  5
80A
330
1F
100
AcDbEntity
  8
DIM
100
AcDbLine
 10
14.40391686382637
 20
83.54755217150716
 30
0.0
 11
10.95677130554205
 21
86.99469772979194
 31
0.0
  0
LINE
  5
80B
330
1F
100
AcDbEntity
  8
0
 48
0.15
100
AcDbLine
 10
8.287638477988281
 20
59.52671846355418
 30
0.0
 11
8.28763847798919
 21
59.27671846355327
 31
0.0
  0
LINE
  5
80C
330
1F
100
AcDbEntity
  8
0
 48
0.15
100
AcDbLine
 10
8.28763847798919
 20
59.27671846355327
 30
0.0
 11
8.41263847798919
 21
59.27671846355327
 31
0.0
  0
LINE
  5
80D
330
1F
100
AcDbEntity
  8
0
 48
0.15
100
AcDbLine
 10
8.41263847798919
 20
59.27671846355327
 30
0.0
 11
8.41263847798919
 21
57.27671846355327
 31
0.0
  0
LINE
  5
80E
330
1F
100
AcDbEntity
  8
0
 48
0.15
100
AcDbLine
 10
8.41263847798919
 20
57.27671846355327
 30
0.0
 11
8.28763847798919
 21
57.27671846355327
 31
0.0
  0
LINE
  5
80F
330
1F
100
AcDbEntity
  8
0
 48
0.15
100
AcDbLine
 10
8.28763847798919
 20
57.27671846355327
 30
0.0
 11
8.28763847798919
 21
57.02671846355326
 31
0.0
  0
LINE
  5
810
330
1F
100
AcDbEntity
  8
0
 48
0.15
100
AcDbLine
 10
8.28763847798919
 20
57.02671846355326
 30
0.0
 11
8.722367251563724
 21
56.59198968997827
 31
0.0
  0
LINE
  5
811
330
1F
100
AcDbEntity
  8
0
 48
0.15
100
AcDbLine
 10
8.722367251563724
 20
56.59198968997827
 30
0.0
 11
9.278294431980526
 21
56.59198968997827
 31
0.0
  0
LINE
  5
812
330
1F
100
AcDbEntity
  8
0
 48
0.15
100
AcDbLine
 10
11.15709602513826
 20
57.02671846355326
 30
0.0
 11
10.72236725156372
 21
56.59198968997827
 31
0.0
  0
LINE
  5
813
330
1F
100
AcDbEntity
  8
0
 48
0.15
100
AcDbLine
 10
11.15709602513826
 20
57.02671846355326
 30
0.0
 11
11.15709602513826
 21
58.47638328895175
 31
0.0
  0
LINE
  5
814
330
1F
100
AcDbEntity
  8
0
 48
0.15
100
AcDbLine
 10
11.15709602513826
 20
58.47638328895175
 30
0.0
 11
11.65709602513826
 21
58.47638328895175
 31
0.0
  0
LINE
  5
815
330
1F
100
AcDbEntity
  8
0
 48
0.15
100
AcDbLine
 10
11.65709602513826
 20
58.47638328895175
 30
0.0
 11
11.65709602513826
 21
60.02671846355326
 31
0.0
  0
LINE
  5
816
330
1F
100
AcDbEntity
  8
0
 48
0.15
100
AcDbLine
 10
9.278294431981436
 20
57.45249408167058
 30
0.0
 11
9.278294431981436
 21
48.3253860029696
 31
0.0
  0
LINE
  5
817
330
1F
100
AcDbEntity
  8
0
 48
0.15
100
AcDbLine
 10
9.403294431981436
 20
57.45249408167058
 30
0.0
 11
9.403294431981436
 21
48.3253860029696
 31
0.0
  0
LINE
  5
818
330
1F
100
AcDbEntity
  8
0
 48
0.15
100
AcDbLine
 10
9.403294431981436
 20
57.45249408167058
 30
0.0
 11
9.278294431981436
 21
57.45249408167058
 31
0.0
  0
LINE
  5
819
330
1F
100
AcDbEntity
  8
0
 48
0.15
100
AcDbLine
 10
10.00822738962316
 20
57.45249408167058
 30
0.0
 11
10.00822738962316
 21
48.3253860029696
 31
0.0
  0
LINE
  5
81A
330
1F
100
AcDbEntity
  8
0
 48
0.15
100
AcDbLine
 10
10.13322738962316
 20
57.45249408167058
 30
0.0
 11
10.13322738962316
 21
48.3253860029696
 31
0.0
  0
LINE
  5
81B
330
1F
100
AcDbEntity
  8
0
 48
0.15
100
AcDbLine
 10
10.13322738962316
 20
57.45249408167058
 30
0.0
 11
10.00822738962316
 21
57.45249408167058
 31
0.0
  0
LINE
  5
81C
330
1F
100
AcDbEntity
  8
0
 48
0.15
100
AcDbLine
 10
9.403294431982345
 20
56.59198968997827
 30
0.0
 11
10.00822738962316
 21
56.59198968997827
 31
0.0
  0
LINE
  5
81D
330
1F
100
AcDbEntity
  8
0
 48
0.15
100
AcDbLine
 10
10.13322738962316
 20
56.59198968997827
 30
0.0
 11
10.72236725156372
 21
56.59198968997827
 31
0.0
  0
LINE
  5
81E
330
1F
100
AcDbEntity
  8
0
 48
0.15
100
AcDbLine
 10
10.36851333301902
 20
57.29097181660529
 30
0.0
 11
10.13322738962316
 21
57.29097181660529
 31
0.0
  0
LINE
  5
81F
330
1F
100
AcDbEntity
  8
0
 48
0.15
100
AcDbLine
 10
9.030848588864415
 20
57.29097181660529
 30
0.0
 11
9.030848588864415
 21
57.77306621650552
 31
0.0
  0
LINE
  5
820
330
1F
100
AcDbEntity
  8
0
 48
0.15
100
AcDbLine
 10
9.030848588864415
 20
57.77306621650552
 30
0.0
 11
9.177028857721694
 21
57.77306621650552
 31
0.0
  0
LINE
  5
821
330
1F
100
AcDbEntity
  8
0
 48
0.15
100
AcDbLine
 10
10.36851333301902
 20
57.29097181660529
 30
0.0
 11
10.36851333301902
 21
57.77306621650552
 31
0.0
  0
LINE
  5
822
330
1F
100
AcDbEntity
  8
0
 48
0.15
100
AcDbLine
 10
10.36851333301902
 20
57.77306621650552
 30
0.0
 11
10.22233306416174
 21
57.77306621650552
 31
0.0
  0
ARC
  5
823
330
1F
100
AcDbEntity
  8
0
 48
0.15
100
AcDbCircle
 10
9.699680960941719
 20
57.2504141132855
 30
0.0
 40
0.7391416927765827
100
AcDbArc
 50
44.99999999999992
 51
135.0
  0
LINE
  5
824
330
1F
100
AcDbEntity
  8
0
 48
0.15
100
AcDbLine
 10
9.278294431980526
 20
57.29097181660529
 30
0.0
 11
9.030848588864415
 21
57.29097181660529
 31
0.0
  0
LINE
  5
825
330
1F
100
AcDbEntity
  8
0
 48
0.15
100
AcDbLine
 10
10.00822738962316
 20
57.29097181660529
 30
0.0
 11
9.403294431982345
 21
57.29097181660529
 31
0.0
  0
MTEXT
  5
826
330
1F
100
AcDbEntity
  8
DIM
 62
     3
100
AcDbMText
 10
26.222311949893
 20
46.38653079928201
 30
0.0
 40
1.0
 41
22.68954545454545
 71
     1
 72
     5
  1
WINDOW BY OTHERS
  7
RomanC
 73
     1
 44
1.0
1001
ACAD
1000
MTEXTBEGIN
1070
    73
1070
     1
1070
    44
1040
1.0
1070
    74
1070
     0
1000
MTEXTEND
  0
MTEXT
  5
827
330
1F
100
AcDbEntity
  8
DIM
 62
     3
100
AcDbMText
 10
26.222311949893
 20
61.02905834403657
 30
0.0
 40
1.0
 41
22.68954545454545
 71
     1
 72
     5
  1
WINDOW BUCK
  7
RomanC
 73
     1
 44
1.0
1001
ACAD
1000
MTEXTBEGIN
1070
    73
1070
     1
1070
    44
1040
1.0
1070
    74
1070
     0
1000
MTEXTEND
  0
MTEXT
  5
828
330
1F
100
AcDbEntity
  8
DIM
 62
     3
100
AcDbMText
 10
26.222311949893
 20
72.45692304573833
 30
0.0
 40
1.0
 41
22.68954545454545
 71
     1
 72
     5
  1
INTERIOR GYPSUM WALLBOARD FASTEN TO TIES
  7
RomanC
 73
     1
 44
1.0
1001
ACAD
1000
MTEXTBEGIN
1070
    73
1070
     1
1070
    44
1040
1.0
1070
    74
1070
     0
1000
MTEXTEND
  0
MTEXT
  5
829
330
1F
100
AcDbEntity
  8
DIM
 62
     3
100
AcDbMText
 10
26.222311949893
 20
77.74998113338381
 30
0.0
 40
1.0
 41
22.68954545454545
 71
     1
 72
     5
  1
REINFORCEMENT PER ENGINEER
  7
RomanC
 73
     1
 44
1.0
1001
ACAD
1000
MTEXTBEGIN
1070
    73
1070
     1
1070
    44
1040
1.0
1070
    74
1070
     0
1000
MTEXTEND
  0
LWPOLYLINE
  5
82A
330
1F
100
AcDbEntity
  8
0
 48
0.15
100
AcDbPolyline
 90
        2
 70
     1
 43
0.25
 10
13.44198166895322
 20
70.85237756230765
 42
1.0
 10
13.69198166895322
 20
70.85237756230765
 42
1.0
  0
LWPOLYLINE
  5
82B
330
1F
100
AcDbEntity
  8
0
 48
0.15
100
AcDbPolyline
 90
        2
 70
     1
 43
0.25
 10
11.88702940844624
 20
70.85237756230765
 42
1.0
 10
12.13702940844624
 20
70.85237756230765
 42
1.0
  0
LWPOLYLINE
  5
82C
330
1F
100
AcDbEntity
  8
0
 48
0.15
100
AcDbPolyline
 90
        2
 70
     1
 43
0.25
 10
13.44198166895322
 20
64.67515462530776
 42
1.0
 10
13.69198166895322
 20
64.67515462530776
 42
1.0
  0
LWPOLYLINE
  5
82D
330
1F
100
AcDbEntity
  8
0
 48
0.15
100
AcDbPolyline
 90
        2
 70
     1
 43
0.25
 10
11.88702940844624
 20
64.67515462530776
 42
1.0
 10
12.13702940844624
 20
64.67515462530776
 42
1.0
  0
LEADER
  5
82E
330
1F
100
AcDbEntity
  8
DIM
 48
0.15
100
AcDbLeader
  3
ARCTEXT 1-1
 76
     3
 10
10.13322738962316
 20
53.49418921516928
 30
0.0
 10
18.18395559930732
 20
45.87079606989902
 30
0.0
 10
25.26389331443889
 20
45.87079606989902
 30
0.0
1001
ACAD
1000
DSTYLE
1002
{
1070
    40
1040
1.0
1070
    41
1040
0.5
1070
    77
1070
     0
1002
}
  0
LEADER
  5
82F
330
1F
100
AcDbEntity
  8
DIM
 48
0.15
100
AcDbLeader
  3
ARCTEXT 1-1
 76
     2
 10
16.78763847798828
 20
60.77671846355326
 30
0.0
 10
25.33117312903588
 20
60.77671846355326
 30
0.0
1001
ACAD
1000
DSTYLE
1002
{
1070
    40
1040
1.0
1070
    41
1040
0.5
1070
    77
1070
     0
1002
}
  0
LEADER
  5
830
330
1F
100
AcDbEntity
  8
DIM
 48
0.15
100
AcDbLeader
  3
ARCTEXT 1-1
 76
     2
 10
17.28763847798828
 20
71.88592952551392
 30
0.0
 10
25.46642446295837
 20
71.88592952551392
 30
0.0
1001
ACAD
1000
DSTYLE
1002
{
1070
    40
1040
1.0
1070
    41
1040
0.5
1070
    77
1070
     0
1002
}
  0
LEADER
  5
831
330
1F
100
AcDbEntity
  8
DIM
 48
0.15
100
AcDbLeader
  3
ARCTEXT 1-1
 76
     3
 10
12.01202940844624
 20
70.72737756230765
 30
0.0
 10
18.57625959904172
 20
77.29160775290313
 30
0.0
 10
25.26453890553049
 20
77.29160775290313
 30
0.0
1001
ACAD
1000
DSTYLE
1002
{
1070
    40
1040
1.0
1070
    41
1040
0.5
1070
    77
1070
     0
1002
}
  0
LINE
  5
832
330
1F
100
AcDbEntity
  8
A5 heavy
 48
0.15
100
AcDbLine
 10
8.787638477987371
 20
61.52671846355281
 30
0.0
 11
8.787638477988281
 21
60.02671846355372
 31
0.0
  0
LINE
  5
833
330
1F
100
AcDbEntity
  8
A5 heavy
 48
0.15
100
AcDbLine
 10
8.787638477988281
 20
60.02671846355372
 30
0.0
 11
16.78763847798737
 21
60.02671846355372
 31
0.0
  0
LINE
  5
834
330
1F
100
AcDbEntity
  8
A5 heavy
 48
0.15
100
AcDbLine
 10
16.78763847798828
 20
61.52671846355326
 30
0.0
 11
16.78763847798737
 21
60.02671846355372
 31
0.0
  0
LINE
  5
835
330
1F
100
AcDbEntity
  8
A5 heavy
 48
0.15
100
AcDbLine
 10
16.78763847798828
 20
61.52671846355326
 30
0.0
 11
16.78763847798828
 21
61.52671846355326
 31
0.0
  0
LINE
  5
836
330
1F
100
AcDbEntity
  8
A5 heavy
 48
0.15
100
AcDbLine
 10
8.787638477987371
 20
61.52671846355281
 30
0.0
 11
8.787638477987371
 21
61.52671846355281
 31
0.0
  0
LWPOLYLINE
  5
837
330
1F
100
AcDbEntity
  8
A5 heavy
 48
0.15
100
AcDbPolyline
 90
        3
 70
     0
 43
0.0
 10
16.78763847798828
 20
61.52671846355326
 10
16.78763847798828
 20
61.52671846355326
 10
14.78763847798828
 20
61.52671846355281
  0
LWPOLYLINE
  5
838
330
1F
100
AcDbEntity
  8
A5 heavy
 48
0.15
100
AcDbPolyline
 90
        3
 70
     0
 43
0.0
 10
10.78763847798828
 20
61.52671846355236
 10
8.787638477987371
 20
61.52671846355281
 10
8.787638477987371
 20
61.52671846355281
  0
MTEXT
  5
839
330
1F
100
AcDbEntity
  8
DIM
 62
     3
100
AcDbMText
 10
26.39115957761251
 20
53.76357319199462
 30
0.0
 40
1.0
 41
22.68954545454545
 71
     1
 72
     5
  1
WINDOW ATTACHMENT PER MANUFACTURER
  7
RomanC
 73
     1
 44
1.0
1001
ACAD
1000
MTEXTBEGIN
1070
    73
1070
     1
1070
    44
1040
1.0
1070
    74
1070
     0
1000
MTEXTEND
  0
LEADER
  5
83A
330
1F
100
AcDbEntity
  8
DIM
 48
0.15
100
AcDbLeader
  3
ARCTEXT 1-1
 76
     3
 10
9.118359793195764
 20
60.77135586791758
 30
0.0
 10
18.40997314494771
 20
53.15426888596687
 30
0.0
 10
25.36706777155078
 20
53.15426888596687
 30
0.0
1001
ACAD
1000
DSTYLE
1002
{
1070
    40
1040
1.0
1070
    41
1040
0.5
1070
    77
1070
     0
1002
}
  0
LINE
  5
83B
330
1F
100
AcDbEntity
  8
A5 heavy
 48
0.15
100
AcDbLine
 10
8.287638477987371
 20
60.52135586791758
 30
0.0
 11
8.287638477987371
 21
61.02135586791757
 31
0.0
  0
LINE
  5
83C
330
1F
100
AcDbEntity
  8
A5 heavy
 48
0.15
100
AcDbLine
 10
8.287638477987371
 20
60.77135586791758
 30
0.0
 11
9.949081108404158
 21
60.77135586791712
 31
0.0
  0
LINE
  5
83D
330
1F
100
AcDbEntity
  8
0
 48
0.15
100
AcDbLine
 10
8.787638477988281
 20
61.52671846355281
 30
0.0
 11
8.287638477988281
 21
61.52671846355281
 31
0.0
  0
LINE
  5
83E
330
1F
100
AcDbEntity
  8
0
 48
0.15
100
AcDbLine
 10
17.28763847798828
 20
59.52671846355326
 30
0.0
 11
11.65709602513917
 21
59.52671846355326
 31
0.0
  0
LINE
  5
83F
330
1F
100
AcDbEntity
  8
A2 Hatch
 48
0.15
100
AcDbLine
 10
16.78763847798828
 20
61.52671846355326
 30
0.0
 11
8.787638477988281
 21
60.02671846355372
 31
0.0
  0
LINE
  5
840
330
1F
100
AcDbEntity
  8
A2 Hatch
 48
0.15
100
AcDbLine
 10
16.78763847798737
 20
60.02671846355372
 30
0.0
 11
8.787638477988281
 21
61.52671846355281
 31
0.0
  0
LINE
  5
841
330
1F
100
AcDbEntity
  8
A5 heavy
 48
0.15
100
AcDbLine
 10
11.3002142096083
 20
62.48270712107171
 30
0.0
 11
11.8002142096083
 21
62.48270712107171
 31
0.0
  0
LINE
  5
842
330
1F
100
AcDbEntity
  8
A5 heavy
 48
0.15
100
AcDbLine
 10
11.5502142096083
 20
62.48270712107171
 30
0.0
 11
11.5502142096083
 21
60.82126449065492
 31
0.0
  0
LINE
  5
843
330
1F
100
AcDbEntity
  8
A5 heavy
 48
0.15
100
AcDbLine
 10
13.5912559888674
 20
62.48270712107171
 30
0.0
 11
14.0912559888674
 21
62.48270712107171
 31
0.0
  0
LINE
  5
844
330
1F
100
AcDbEntity
  8
A5 heavy
 48
0.15
100
AcDbLine
 10
13.8412559888674
 20
62.48270712107171
 30
0.0
 11
13.8412559888674
 21
60.82126449065492
 31
0.0
  0
ENDSEC
  0
SECTION
  2
OBJECTS
  0
DICTIONARY
  5
C
330
0
100
AcDbDictionary
281
     1
  3
ACAD_COLOR
350
73
  3
ACAD_GROUP
350
D
  3
ACAD_LAYOUT
350
1A
  3
ACAD_MATERIAL
350
72
  3
ACAD_MLINESTYLE
350
17
  3
ACAD_PLOTSETTINGS
350
19
  3
ACAD_PLOTSTYLENAME
350
E
  3
ACDBHEADERROUNDTRIPXREC
350
850
  3
AcDbVariableDictionary
350
66
  0
DICTIONARY
  5
A4
330
2
100
AcDbDictionary
280
     1
281
     1
  3
ACAD_LAYERSTATES
360
A5
  0
DICTIONARY
  5
73
102
{ACAD_REACTORS
330
C
102
}
330
C
100
AcDbDictionary
281
     1
  0
DICTIONARY
  5
D
102
{ACAD_REACTORS
330
C
102
}
330
C
100
AcDbDictionary
281
     1
  0
DICTIONARY
  5
1A
102
{ACAD_REACTORS
330
C
102
}
330
C
100
AcDbDictionary
281
     1
  3
Layout1
350
59
  3
Layout2
350
5E
  3
Model
350
22
  0
DICTIONARY
  5
72
102
{ACAD_REACTORS
330
C
102
}
330
C
100
AcDbDictionary
281
     1
  0
DICTIONARY
  5
17
102
{ACAD_REACTORS
330
C
102
}
330
C
100
AcDbDictionary
281
     1
  3
Standard
350
18
  0
DICTIONARY
  5
19
102
{ACAD_REACTORS
330
C
102
}
330
C
100
AcDbDictionary
281
     1
  0
ACDBDICTIONARYWDFLT
  5
E
102
{ACAD_REACTORS
330
C
102
}
330
C
100
AcDbDictionary
281
     1
  3
Normal
350
F
100
AcDbDictionaryWithDefault
340
F
  0
DICTIONARY
  5
850
102
{ACAD_REACTORS
330
C
102
}
330
C
100
AcDbDictionary
281
     1
  3
COLORDICT
350
852
  3
MATERIALDICT
350
851
  0
DICTIONARY
  5
66
102
{ACAD_REACTORS
330
C
102
}
330
C
100
AcDbDictionary
281
     1
  3
DIMASSOC
350
67
  3
HIDETEXT
350
6B
  3
PROJECTNAME
350
33A
  0
DICTIONARY
  5
A5
102
{ACAD_REACTORS
330
A4
102
}
330
A4
100
AcDbDictionary
281
     1
  0
LAYOUT
  5
59
102
{ACAD_XDICTIONARY
360
855
102
}
102
{ACAD_REACTORS
330
1A
102
}
330
1A
100
AcDbPlotSettings
  1

  2
None
  4

  6

 40
0.0
 41
0.0
 42
0.0
 43
0.0
 44
0.0
 45
0.0
 46
0.0
 47
0.0
 48
0.0
 49
0.0
140
0.0
141
0.0
142
1.0
143
1.0
 70
   688
 72
     0
 73
     0
 74
     5
  7

 75
    16
147
1.0
148
0.0
149
0.0
100
AcDbLayout
  1
Layout1
 70
     1
 71
     1
 10
0.0
 20
0.0
 11
12.0
 21
9.0
 12
0.0
 22
0.0
 32
0.0
 14
0.0
 24
0.0
 34
0.0
 15
0.0
 25
0.0
 35
0.0
146
0.0
 13
0.0
 23
0.0
 33
0.0
 16
1.0
 26
0.0
 36
0.0
 17
0.0
 27
1.0
 37
0.0
 76
     0
330
58
  0
LAYOUT
  5
5E
102
{ACAD_XDICTIONARY
360
857
102
}
102
{ACAD_REACTORS
330
1A
102
}
330
1A
100
AcDbPlotSettings
  1

  2
None
  4

  6

 40
0.0
 41
0.0
 42
0.0
 43
0.0
 44
0.0
 45
0.0
 46
0.0
 47
0.0
 48
0.0
 49
0.0
140
0.0
141
0.0
142
1.0
143
1.0
 70
   688
 72
     0
 73
     0
 74
     5
  7

 75
    16
147
1.0
148
0.0
149
0.0
100
AcDbLayout
  1
Layout2
 70
     1
 71
     2
 10
0.0
 20
0.0
 11
12.0
 21
9.0
 12
0.0
 22
0.0
 32
0.0
 14
0.0
 24
0.0
 34
0.0
 15
0.0
 25
0.0
 35
0.0
146
0.0
 13
0.0
 23
0.0
 33
0.0
 16
1.0
 26
0.0
 36
0.0
 17
0.0
 27
1.0
 37
0.0
 76
     0
330
5D
  0
LAYOUT
  5
22
102
{ACAD_XDICTIONARY
360
853
102
}
102
{ACAD_REACTORS
330
1A
102
}
330
1A
100
AcDbPlotSettings
  1

  2
none_device
  4
ANSI_A_(8.50_x_11.00_Inches)
  6

 40
6.349999904632568
 41
19.04999923706055
 42
6.350006103515625
 43
19.04998779296875
 44
215.8999938964844
 45
279.3999938964844
 46
0.0
 47
0.0
 48
0.0
 49
0.0
140
0.0
141
0.0
142
1.0
143
2.584895464708373
 70
 11952
 72
     0
 73
     1
 74
     0
  7

 75
     0
147
0.3868628397755418
148
0.0
149
0.0
100
AcDbLayout
  1
Model
 70
     1
 71
     0
 10
0.0
 20
0.0
 11
12.0
 21
9.0
 12
0.0
 22
0.0
 32
0.0
 14
0.0
 24
0.0
 34
0.0
 15
0.0
 25
0.0
 35
0.0
146
0.0
 13
0.0
 23
0.0
 33
0.0
 16
1.0
 26
0.0
 36
0.0
 17
0.0
 27
1.0
 37
0.0
 76
     0
330
1F
  0
MLINESTYLE
  5
18
102
{ACAD_REACTORS
330
17
102
}
330
17
100
AcDbMlineStyle
  2
STANDARD
 70
     0
  3

 62
   256
 51
90.0
 52
90.0
 71
     2
 49
0.5
 62
   256
  6
BYLAYER
 49
-0.5
 62
   256
  6
BYLAYER
  0
ACDBPLACEHOLDER
  5
F
102
{ACAD_REACTORS
330
E
102
}
330
E
  0
XRECORD
  5
852
102
{ACAD_REACTORS
330
850
102
}
330
850
100
AcDbXrecord
280
     1
340
73
  0
XRECORD
  5
851
102
{ACAD_REACTORS
330
850
102
}
330
850
100
AcDbXrecord
280
     1
340
72
  0
DICTIONARYVAR
  5
67
102
{ACAD_REACTORS
330
66
102
}
330
66
100
DictionaryVariables
280
     0
  1
2
  0
DICTIONARYVAR
  5
6B
102
{ACAD_REACTORS
330
66
102
}
330
66
100
DictionaryVariables
280
     0
  1
1
  0
DICTIONARYVAR
  5
33A
102
{ACAD_REACTORS
330
66
102
}
330
66
100
DictionaryVariables
280
     0
  1

  0
DICTIONARY
  5
855
330
59
100
AcDbDictionary
280
     1
281
     1
  3
ACAD_XREC_ROUNDTRIP
360
856
  0
DICTIONARY
  5
857
330
5E
100
AcDbDictionary
280
     1
281
     1
  3
ACAD_XREC_ROUNDTRIP
360
858
  0
DICTIONARY
  5
853
330
22
100
AcDbDictionary
280
     1
281
     1
  3
ACAD_XREC_ROUNDTRIP
360
854
  0
XRECORD
  5
856
102
{ACAD_REACTORS
330
855
102
}
330
855
100
AcDbXrecord
280
     1
102
SHADEPLOT
 70
     0
102
SHADEPLOTRESLEVEL
 70
     2
102
SHADEPLOTCUSTOMDPI
 70
   300
  0
XRECORD
  5
858
102
{ACAD_REACTORS
330
857
102
}
330
857
100
AcDbXrecord
280
     1
102
SHADEPLOT
 70
     0
102
SHADEPLOTRESLEVEL
 70
     2
102
SHADEPLOTCUSTOMDPI
 70
   300
  0
XRECORD
  5
854
102
{ACAD_REACTORS
330
853
102
}
330
853
100
AcDbXrecord
280
     1
102
SHADEPLOT
 70
     0
102
SHADEPLOTRESLEVEL
 70
     2
102
SHADEPLOTCUSTOMDPI
 70
   300
  0
ENDSEC
  0
EOF
