  0
SECTION
  2
HEADER
  9
$ACADVER
  1
AC1015
  9
$ACADMAINTVER
 70
    20
  9
$DWGCODEPAGE
  3
ANSI_1252
  9
$INSBASE
 10
0.0
 20
0.0
 30
0.0
  9
$EXTMIN
 10
-47.40190155367824
 20
21.27389050292112
 30
-0.0015258207003583
  9
$EXTMAX
 10
23.75933075207328
 20
91.63300137490635
 30
0.0000000349246037
  9
$LIMMIN
 10
0.0
 20
0.0
  9
$LIMMAX
 10
12.0
 20
9.0
  9
$ORTHOMODE
 70
     0
  9
$REGENMODE
 70
     1
  9
$FILLMODE
 70
     1
  9
$QTEXTMODE
 70
     0
  9
$MIRRTEXT
 70
     0
  9
$LTSCALE
 40
1.0
  9
$ATTMODE
 70
     1
  9
$TEXTSIZE
 40
0.2
  9
$TRACEWID
 40
0.05
  9
$TEXTSTYLE
  7
Standard
  9
$CLAYER
  8
0
  9
$CELTYPE
  6
ByLayer
  9
$CECOLOR
 62
   256
  9
$CELTSCALE
 40
1.0
  9
$DISPSILH
 70
     0
  9
$DIMSCALE
 40
1.0
  9
$DIMASZ
 40
0.18
  9
$DIMEXO
 40
0.0625
  9
$DIMDLI
 40
0.38
  9
$DIMRND
 40
0.0
  9
$DIMDLE
 40
0.0
  9
$DIMEXE
 40
0.18
  9
$DIMTP
 40
0.0
  9
$DIMTM
 40
0.0
  9
$DIMTXT
 40
0.18
  9
$DIMCEN
 40
0.09
  9
$DIMTSZ
 40
0.0
  9
$DIMTOL
 70
     0
  9
$DIMLIM
 70
     0
  9
$DIMTIH
 70
     1
  9
$DIMTOH
 70
     1
  9
$DIMSE1
 70
     0
  9
$DIMSE2
 70
     0
  9
$DIMTAD
 70
     0
  9
$DIMZIN
 70
     0
  9
$DIMBLK
  1

  9
$DIMASO
 70
     1
  9
$DIMSHO
 70
     1
  9
$DIMPOST
  1

  9
$DIMAPOST
  1

  9
$DIMALT
 70
     0
  9
$DIMALTD
 70
     2
  9
$DIMALTF
 40
25.4
  9
$DIMLFAC
 40
1.0
  9
$DIMTOFL
 70
     0
  9
$DIMTVP
 40
0.0
  9
$DIMTIX
 70
     0
  9
$DIMSOXD
 70
     0
  9
$DIMSAH
 70
     0
  9
$DIMBLK1
  1

  9
$DIMBLK2
  1

  9
$DIMSTYLE
  2
Standard
  9
$DIMCLRD
 70
     0
  9
$DIMCLRE
 70
     0
  9
$DIMCLRT
 70
     0
  9
$DIMTFAC
 40
1.0
  9
$DIMGAP
 40
0.09
  9
$DIMJUST
 70
     0
  9
$DIMSD1
 70
     0
  9
$DIMSD2
 70
     0
  9
$DIMTOLJ
 70
     1
  9
$DIMTZIN
 70
     0
  9
$DIMALTZ
 70
     0
  9
$DIMALTTZ
 70
     0
  9
$DIMUPT
 70
     0
  9
$DIMDEC
 70
     4
  9
$DIMTDEC
 70
     4
  9
$DIMALTU
 70
     2
  9
$DIMALTTD
 70
     2
  9
$DIMTXSTY
  7
Standard
  9
$DIMAUNIT
 70
     0
  9
$DIMADEC
 70
     0
  9
$DIMALTRND
 40
0.0
  9
$DIMAZIN
 70
     0
  9
$DIMDSEP
 70
    46
  9
$DIMATFIT
 70
     3
  9
$DIMFRAC
 70
     0
  9
$DIMLDRBLK
  1

  9
$DIMLUNIT
 70
     2
  9
$DIMLWD
 70
    -2
  9
$DIMLWE
 70
    -2
  9
$DIMTMOVE
 70
     0
  9
$LUNITS
 70
     2
  9
$LUPREC
 70
     4
  9
$SKETCHINC
 40
0.1
  9
$FILLETRAD
 40
0.0
  9
$AUNITS
 70
     0
  9
$AUPREC
 70
     0
  9
$MENU
  1
.
  9
$ELEVATION
 40
0.0
  9
$PELEVATION
 40
0.0
  9
$THICKNESS
 40
0.0
  9
$LIMCHECK
 70
     0
  9
$CHAMFERA
 40
0.0
  9
$CHAMFERB
 40
0.0
  9
$CHAMFERC
 40
0.0
  9
$CHAMFERD
 40
0.0
  9
$SKPOLY
 70
     0
  9
$TDCREATE
 40
2454938.360508912
  9
$TDUCREATE
 40
2454938.610508913
  9
$TDUPDATE
 40
2454938.363429109
  9
$TDUUPDATE
 40
2454938.613429109
  9
$TDINDWG
 40
0.0029206597
  9
$TDUSRTIMER
 40
0.0029206597
  9
$USRTIMER
 70
     1
  9
$ANGBASE
 50
0.0
  9
$ANGDIR
 70
     0
  9
$PDMODE
 70
     0
  9
$PDSIZE
 40
0.0
  9
$PLINEWID
 40
0.0
  9
$SPLFRAME
 70
     0
  9
$SPLINETYPE
 70
     6
  9
$SPLINESEGS
 70
     8
  9
$HANDSEED
  5
15CC
  9
$SURFTAB1
 70
     6
  9
$SURFTAB2
 70
     6
  9
$SURFTYPE
 70
     6
  9
$SURFU
 70
     6
  9
$SURFV
 70
     6
  9
$UCSBASE
  2

  9
$UCSNAME
  2

  9
$UCSORG
 10
0.0
 20
0.0
 30
0.0
  9
$UCSXDIR
 10
1.0
 20
0.0
 30
0.0
  9
$UCSYDIR
 10
0.0
 20
1.0
 30
0.0
  9
$UCSORTHOREF
  2

  9
$UCSORTHOVIEW
 70
     0
  9
$UCSORGTOP
 10
0.0
 20
0.0
 30
0.0
  9
$UCSORGBOTTOM
 10
0.0
 20
0.0
 30
0.0
  9
$UCSORGLEFT
 10
0.0
 20
0.0
 30
0.0
  9
$UCSORGRIGHT
 10
0.0
 20
0.0
 30
0.0
  9
$UCSORGFRONT
 10
0.0
 20
0.0
 30
0.0
  9
$UCSORGBACK
 10
0.0
 20
0.0
 30
0.0
  9
$PUCSBASE
  2

  9
$PUCSNAME
  2

  9
$PUCSORG
 10
0.0
 20
0.0
 30
0.0
  9
$PUCSXDIR
 10
1.0
 20
0.0
 30
0.0
  9
$PUCSYDIR
 10
0.0
 20
1.0
 30
0.0
  9
$PUCSORTHOREF
  2

  9
$PUCSORTHOVIEW
 70
     0
  9
$PUCSORGTOP
 10
0.0
 20
0.0
 30
0.0
  9
$PUCSORGBOTTOM
 10
0.0
 20
0.0
 30
0.0
  9
$PUCSORGLEFT
 10
0.0
 20
0.0
 30
0.0
  9
$PUCSORGRIGHT
 10
0.0
 20
0.0
 30
0.0
  9
$PUCSORGFRONT
 10
0.0
 20
0.0
 30
0.0
  9
$PUCSORGBACK
 10
0.0
 20
0.0
 30
0.0
  9
$USERI1
 70
     0
  9
$USERI2
 70
     0
  9
$USERI3
 70
     0
  9
$USERI4
 70
     0
  9
$USERI5
 70
     0
  9
$USERR1
 40
0.0
  9
$USERR2
 40
0.0
  9
$USERR3
 40
0.0
  9
$USERR4
 40
0.0
  9
$USERR5
 40
0.0
  9
$WORLDVIEW
 70
     1
  9
$SHADEDGE
 70
     3
  9
$SHADEDIF
 70
    70
  9
$TILEMODE
 70
     1
  9
$MAXACTVP
 70
    64
  9
$PINSBASE
 10
0.0
 20
0.0
 30
0.0
  9
$PLIMCHECK
 70
     0
  9
$PEXTMIN
 10
0.0
 20
0.0
 30
0.0
  9
$PEXTMAX
 10
0.0
 20
0.0
 30
0.0
  9
$PLIMMIN
 10
0.0
 20
0.0
  9
$PLIMMAX
 10
12.0
 20
9.0
  9
$UNITMODE
 70
     0
  9
$VISRETAIN
 70
     1
  9
$PLINEGEN
 70
     0
  9
$PSLTSCALE
 70
     1
  9
$TREEDEPTH
 70
  3020
  9
$CMLSTYLE
  2
Standard
  9
$CMLJUST
 70
     0
  9
$CMLSCALE
 40
1.0
  9
$PROXYGRAPHICS
 70
     1
  9
$MEASUREMENT
 70
     0
  9
$CELWEIGHT
370
    -1
  9
$ENDCAPS
280
     0
  9
$JOINSTYLE
280
     0
  9
$LWDISPLAY
290
     0
  9
$INSUNITS
 70
     1
  9
$HYPERLINKBASE
  1

  9
$STYLESHEET
  1

  9
$XEDIT
290
     1
  9
$CEPSNTYPE
380
     0
  9
$PSTYLEMODE
290
     1
  9
$FINGERPRINTGUID
  2
{FDEAD576-A652-11D2-9A35-0060089B3A3F}
  9
$VERSIONGUID
  2
{116FE08F-58F0-4DFC-9B19-59C7DFFDDBFD}
  9
$EXTNAMES
290
     1
  9
$PSVPSCALE
 40
0.0
  9
$OLESTARTUP
290
     0
  0
ENDSEC
  0
SECTION
  2
CLASSES
  0
CLASS
  1
ACDBDICTIONARYWDFLT
  2
AcDbDictionaryWithDefault
  3
ObjectDBX Classes
 90
        0
280
     0
281
     0
  0
CLASS
  1
ACDBPLACEHOLDER
  2
AcDbPlaceHolder
  3
ObjectDBX Classes
 90
        0
280
     0
281
     0
  0
CLASS
  1
LAYOUT
  2
AcDbLayout
  3
ObjectDBX Classes
 90
        0
280
     0
281
     0
  0
CLASS
  1
DICTIONARYVAR
  2
AcDbDictionaryVar
  3
ObjectDBX Classes
 90
        0
280
     0
281
     0
  0
CLASS
  1
SORTENTSTABLE
  2
AcDbSortentsTable
  3
ObjectDBX Classes
 90
        0
280
     0
281
     0
  0
ENDSEC
  0
SECTION
  2
TABLES
  0
TABLE
  2
VPORT
  5
8
330
0
100
AcDbSymbolTable
 70
    11
  0
VPORT
  5
15C2
330
8
100
AcDbSymbolTableRecord
100
AcDbViewportTableRecord
  2
*Active
 70
     0
 10
0.0
 20
0.0
 11
1.0
 21
1.0
 12
-11.82128540080248
 22
56.45344593891373
 13
0.0
 23
0.0
 14
0.5
 24
0.5
 15
0.5
 25
0.5
 16
0.0
 26
0.0
 36
1.0
 17
0.0
 27
0.0
 37
0.0
 40
70.86711889272158
 41
1.48433734939759
 42
50.0
 43
0.0
 44
0.0
 50
0.0
 51
0.0
 71
     0
 72
  1000
 73
     1
 74
     3
 75
     0
 76
     0
 77
     0
 78
     0
281
     0
 65
     1
110
0.0
120
0.0
130
0.0
111
1.0
121
0.0
131
0.0
112
0.0
122
1.0
132
0.0
 79
     0
146
0.0
  0
ENDTAB
  0
TABLE
  2
LTYPE
  5
5
330
0
100
AcDbSymbolTable
 70
     4
  0
LTYPE
  5
14
330
5
100
AcDbSymbolTableRecord
100
AcDbLinetypeTableRecord
  2
ByBlock
 70
     0
  3

 72
    65
 73
     0
 40
0.0
  0
LTYPE
  5
15
330
5
100
AcDbSymbolTableRecord
100
AcDbLinetypeTableRecord
  2
ByLayer
 70
     0
  3

 72
    65
 73
     0
 40
0.0
  0
LTYPE
  5
16
330
5
100
AcDbSymbolTableRecord
100
AcDbLinetypeTableRecord
  2
Continuous
 70
     0
  3
Solid line
 72
    65
 73
     0
 40
0.0
  0
LTYPE
  5
96
330
5
100
AcDbSymbolTableRecord
100
AcDbLinetypeTableRecord
  2
DASHED2
 70
     0
  3
_ _ _ _ _ _ _ _ _ _ _ _ _ _ _ _ _ _ _ _ _ _ _ _
 72
    65
 73
     2
 40
0.375
 49
0.25
 74
     0
 49
-0.125
 74
     0
  0
LTYPE
  5
97
330
5
100
AcDbSymbolTableRecord
100
AcDbLinetypeTableRecord
  2
HIDDEN
 70
     0
  3
Hidden __ __ __ __ __ __ __ __ __ __ __ __ __ _
 72
    65
 73
     2
 40
0.375
 49
0.25
 74
     0
 49
-0.125
 74
     0
  0
LTYPE
  5
865
330
5
100
AcDbSymbolTableRecord
100
AcDbLinetypeTableRecord
  2
CENTER
 70
     0
  3
Center ____ _ ____ _ ____ _ ____ _ ____ _ ____
 72
    65
 73
     4
 40
2.0
 49
1.25
 74
     0
 49
-0.25
 74
     0
 49
0.25
 74
     0
 49
-0.25
 74
     0
  0
ENDTAB
  0
TABLE
  2
LAYER
  5
2
102
{ACAD_XDICTIONARY
360
A4
102
}
330
0
100
AcDbSymbolTable
 70
     9
  0
LAYER
  5
10
330
2
100
AcDbSymbolTableRecord
100
AcDbLayerTableRecord
  2
0
 70
     0
 62
     7
  6
Continuous
370
    -3
390
F
  0
LAYER
  5
98
330
2
100
AcDbSymbolTableRecord
100
AcDbLayerTableRecord
  2
DIM
 70
     0
 62
     3
  6
Continuous
370
    13
390
F
  0
LAYER
  5
99
330
2
100
AcDbSymbolTableRecord
100
AcDbLayerTableRecord
  2
Defpoints
 70
     0
 62
   252
  6
Continuous
290
     0
370
    -3
390
F
  0
LAYER
  5
9A
330
2
100
AcDbSymbolTableRecord
100
AcDbLayerTableRecord
  2
A2 Hatch
 70
     0
 62
     8
  6
Continuous
370
     9
390
F
  0
LAYER
  5
9B
330
2
100
AcDbSymbolTableRecord
100
AcDbLayerTableRecord
  2
A5 heavy
 70
     0
 62
     5
  6
Continuous
370
    53
390
F
  0
LAYER
  5
9C
330
2
100
AcDbSymbolTableRecord
100
AcDbLayerTableRecord
  2
DETAILS
 70
     0
 62
     7
  6
Continuous
370
    13
390
F
  0
LAYER
  5
866
330
2
100
AcDbSymbolTableRecord
100
AcDbLayerTableRecord
  2
A1 fine
 70
     0
 62
   251
  6
Continuous
370
     5
390
F
  0
LAYER
  5
867
330
2
100
AcDbSymbolTableRecord
100
AcDbLayerTableRecord
  2
A4 medium
 70
     0
 62
     7
  6
Continuous
370
    35
390
F
  0
LAYER
  5
868
330
2
100
AcDbSymbolTableRecord
100
AcDbLayerTableRecord
  2
REBAR
 70
     0
 62
     2
  6
CENTER
370
    30
390
F
  0
ENDTAB
  0
TABLE
  2
STYLE
  5
3
330
0
100
AcDbSymbolTable
 70
     4
  0
STYLE
  5
11
330
3
100
AcDbSymbolTableRecord
100
AcDbTextStyleTableRecord
  2
Standard
 70
     0
 40
0.0
 41
1.0
 50
0.0
 71
     0
 42
0.2
  3
txt
  4

  0
STYLE
  5
9D
330
3
100
AcDbSymbolTableRecord
100
AcDbTextStyleTableRecord
  2
ARCHITXT
 70
     0
 40
0.0
 41
1.25
 50
0.0
 71
     0
 42
1.0
  3
ARCHITXT.shx
  4

  0
STYLE
  5
9E
330
3
100
AcDbSymbolTableRecord
100
AcDbTextStyleTableRecord
  2
ARCTEXT
 70
     0
 40
0.0
 41
0.85
 50
0.0
 71
     0
 42
5.096770384644268
  3
arctext.shx
  4

  0
STYLE
  5
9F
330
3
100
AcDbSymbolTableRecord
100
AcDbTextStyleTableRecord
  2
RomanC
 70
     0
 40
5.0
 41
0.85
 50
0.0
 71
     0
 42
10.0
  3
romanc.shx
  4

  0
ENDTAB
  0
TABLE
  2
VIEW
  5
6
330
0
100
AcDbSymbolTable
 70
     0
  0
ENDTAB
  0
TABLE
  2
UCS
  5
7
330
0
100
AcDbSymbolTable
 70
     0
  0
ENDTAB
  0
TABLE
  2
APPID
  5
9
330
0
100
AcDbSymbolTable
 70
     1
  0
APPID
  5
12
330
9
100
AcDbSymbolTableRecord
100
AcDbRegAppTableRecord
  2
ACAD
 70
     0
  0
ENDTAB
  0
TABLE
  2
DIMSTYLE
  5
A
330
0
100
AcDbSymbolTable
 70
     5
100
AcDbDimStyleTable
 71
     0
  0
DIMSTYLE
105
27
330
A
100
AcDbSymbolTableRecord
100
AcDbDimStyleTableRecord
  2
Standard
 70
     0
340
11
  0
DIMSTYLE
105
A0
330
A
100
AcDbSymbolTableRecord
100
AcDbDimStyleTableRecord
  2
Copy of ROMANS
 70
     0
 41
0.75
 42
0.125
 43
0.125
 44
0.125
 73
     0
 74
     0
 77
     1
 78
     3
140
1.0
141
6.0
147
0.25
172
     1
175
     1
176
     2
177
     2
178
     2
271
     3
272
     3
273
     4
275
     1
277
     4
279
     2
284
     3
285
     3
286
     3
340
9D
  0
DIMSTYLE
105
A1
330
A
100
AcDbSymbolTableRecord
100
AcDbDimStyleTableRecord
  2
ARCTEXT
 70
     0
 40
0.0
 41
2.0
 42
1.0
 43
0.375
 44
0.1875
 73
     0
 74
     0
140
4.0
141
2.0
147
2.0
176
     2
177
     2
178
     2
277
     4
340
9E
341
8D
342
89
  0
DIMSTYLE
105
A2
330
A
100
AcDbSymbolTableRecord
100
AcDbDimStyleTableRecord
  2
ARCTEXT1-4
 70
     0
 41
2.0
 42
2.0
 43
2.0
 44
2.0
 73
     0
 74
     0
 77
     1
 78
     3
140
4.0
141
2.0
147
2.0
172
     1
175
     1
275
     1
277
     4
279
     2
340
9E
341
8D
342
89
  0
DIMSTYLE
105
A3
330
A
100
AcDbSymbolTableRecord
100
AcDbDimStyleTableRecord
  2
ARCTEXT 1-1
 70
     0
 40
0.0
 41
1.0
 42
1.0
 43
0.375
 44
0.1875
 73
     0
 74
     0
 77
     1
 78
     3
140
1.0
141
1.0
147
0.5
176
   256
177
   256
178
   256
277
     4
279
     2
340
9E
341
8D
342
89
  0
ENDTAB
  0
TABLE
  2
BLOCK_RECORD
  5
1
330
0
100
AcDbSymbolTable
 70
    10
  0
BLOCK_RECORD
  5
1F
330
1
100
AcDbSymbolTableRecord
100
AcDbBlockTableRecord
  2
*Model_Space
340
22
  0
BLOCK_RECORD
  5
58
330
1
100
AcDbSymbolTableRecord
100
AcDbBlockTableRecord
  2
*Paper_Space
340
59
  0
BLOCK_RECORD
  5
5D
330
1
100
AcDbSymbolTableRecord
100
AcDbBlockTableRecord
  2
*Paper_Space0
340
5E
  0
BLOCK_RECORD
  5
89
330
1
100
AcDbSymbolTableRecord
100
AcDbBlockTableRecord
  2
_ArchTick
340
0
102
{BLKREFS
331
85E
331
85F
331
1060
331
1061
102
}
  0
BLOCK_RECORD
  5
8D
330
1
100
AcDbSymbolTableRecord
100
AcDbBlockTableRecord
  2
arrow
340
0
310
2800000020000000200000000100080000000000000400000000000000000000000000000000000000000000000080000080000000808000800000008000800080800000C0C0C000C0DCC000F0CAA6000020400000206000002080000020A0000020C0000020E00000400000004020000040400000406000004080000040A0
310
000040C0000040E00000600000006020000060400000606000006080000060A0000060C0000060E00000800000008020000080400000806000008080000080A0000080C0000080E00000A0000000A0200000A0400000A0600000A0800000A0A00000A0C00000A0E00000C0000000C0200000C0400000C0600000C0800000C0
310
A00000C0C00000C0E00000E0000000E0200000E0400000E0600000E0800000E0A00000E0C00000E0E00040000000400020004000400040006000400080004000A0004000C0004000E00040200000402020004020400040206000402080004020A0004020C0004020E000404000004040200040404000404060004040800040
310
40A0004040C0004040E00040600000406020004060400040606000406080004060A0004060C0004060E00040800000408020004080400040806000408080004080A0004080C0004080E00040A0000040A0200040A0400040A0600040A0800040A0A00040A0C00040A0E00040C0000040C0200040C0400040C0600040C08000
310
40C0A00040C0C00040C0E00040E0000040E0200040E0400040E0600040E0800040E0A00040E0C00040E0E00080000000800020008000400080006000800080008000A0008000C0008000E00080200000802020008020400080206000802080008020A0008020C0008020E00080400000804020008040400080406000804080
310
008040A0008040C0008040E00080600000806020008060400080606000806080008060A0008060C0008060E00080800000808020008080400080806000808080008080A0008080C0008080E00080A0000080A0200080A0400080A0600080A0800080A0A00080A0C00080A0E00080C0000080C0200080C0400080C0600080C0
310
800080C0A00080C0C00080C0E00080E0000080E0200080E0400080E0600080E0800080E0A00080E0C00080E0E000C0000000C0002000C0004000C0006000C0008000C000A000C000C000C000E000C0200000C0202000C0204000C0206000C0208000C020A000C020C000C020E000C0400000C0402000C0404000C0406000C0
310
408000C040A000C040C000C040E000C0600000C0602000C0604000C0606000C0608000C060A000C060C000C060E000C0800000C0802000C0804000C0806000C0808000C080A000C080C000C080E000C0A00000C0A02000C0A04000C0A06000C0A08000C0A0A000C0A0C000C0A0E000C0C00000C0C02000C0C04000C0C06000
310
C0C08000C0C0A000F0FBFF00A4A0A000808080000000FF0000FF000000FFFF00FF000000FF00FF00FFFF0000FFFFFF0000000000000000000000000000000000000000000000000000000000000000000000000000000000000000000000000000000000000000000000000000000000000000000000000000000000000000
310
0000000000000000000000000000000000000000000000000000000000000000000000000000000000000000000000000000000000000000000000000000000000000000000000000000000000000000000000000000000000000000000000000000000000000000000000000000000000000000000000FA00000000000000
310
000000000000000000000000000000000000000000000000FA00000000000000000000000000000000000000000000000000000000000000FA0000000000000000000000000000000000000000000000000000FAFA000000FA00000000000000000000000000000000000000000000000000000000FAFA00FA000000000000
310
000000000000000000000000000000000000000000000000FAF7F7000000000000000000000000000000000000000000000000000000000000F7F7F7F7F7F70000000000000000000000000000000000000000000000000000F7F7F7F7F7F7F7F7F7F700000000000000000000000000000000000000000000F7F7F7F7F7F7
310
F7F7F7F7F7F7F7F7000000000000000000000000000000000000F7F7F7F7F7F7F7F7F7F7F7F7F7F7F7F7F7F70000000000FAFA00000000000000F7F7F7F7F7F7F7F7F7F7F7F7F7F7F7F7F7F7F7F7F7FAFAFAFA00000000000000F7F7F7F7F7F7F7F7F7F7F7F7F7F7F7F7F7F70000000000000000000000000000F7F7F7F7F7
310
F7F7F7F7F7F7F7F700000000000000000000000000000000000000F7F7F7F7F7F7F7F70000000000000000000000000000000000000000000000FAF7F7F70000000000000000000000000000000000000000000000000000FAFA00FA0000000000000000000000000000000000000000000000000000FAFA000000FA000000
310
00000000000000000000000000000000000000000000000000000000FA00000000000000000000000000000000000000000000000000000000000000FA00000000000000000000000000000000000000000000000000000000000000FA00000000000000000000000000000000000000000000000000000000000000000000
310
00000000000000000000000000000000000000000000000000000000000000000000000000000000000000000000000000000000000000000000000000000000000000000000000000000000000000000000000000000000000000000000000000000000000000000000000000000000000000000000000000000000000000
310
0000000000000000000000000000000000000000000000000000000000000000000000000000000000000000000000000000000000000000
1001
ACAD
1000
DesignCenter Data
1002
{
1070
     1
1070
     1
1002
}
  0
BLOCK_RECORD
  5
859
330
1
100
AcDbSymbolTableRecord
100
AcDbBlockTableRecord
  2
*D6
340
0
  0
BLOCK_RECORD
  5
1051
330
1
100
AcDbSymbolTableRecord
100
AcDbBlockTableRecord
  2
*D8
340
0
  0
ENDTAB
  0
ENDSEC
  0
SECTION
  2
BLOCKS
  0
BLOCK
  5
20
330
1F
100
AcDbEntity
  8
0
100
AcDbBlockBegin
  2
*Model_Space
 70
     0
 10
0.0
 20
0.0
 30
0.0
  3
*Model_Space
  1

  0
ENDBLK
  5
21
330
1F
100
AcDbEntity
  8
0
100
AcDbBlockEnd
  0
BLOCK
  5
5A
330
58
100
AcDbEntity
 67
     1
  8
0
100
AcDbBlockBegin
  2
*Paper_Space
 70
     0
 10
0.0
 20
0.0
 30
0.0
  3
*Paper_Space
  1

  0
ENDBLK
  5
5B
330
58
100
AcDbEntity
 67
     1
  8
0
100
AcDbBlockEnd
  0
BLOCK
  5
5F
330
5D
100
AcDbEntity
  8
0
100
AcDbBlockBegin
  2
*Paper_Space0
 70
     0
 10
0.0
 20
0.0
 30
0.0
  3
*Paper_Space0
  1

  0
ENDBLK
  5
60
330
5D
100
AcDbEntity
  8
0
100
AcDbBlockEnd
  0
BLOCK
  5
8A
330
89
100
AcDbEntity
  8
0
100
AcDbBlockBegin
  2
_ArchTick
 70
     0
 10
0.0
 20
0.0
 30
0.0
  3
_ArchTick
  1

  0
LWPOLYLINE
  5
8B
330
89
100
AcDbEntity
  8
0
  6
ByBlock
 62
     0
100
AcDbPolyline
 90
        2
 70
     0
 43
0.15
 10
-0.5
 20
-0.5
 10
0.5
 20
0.5
  0
ENDBLK
  5
8C
330
89
100
AcDbEntity
  8
0
100
AcDbBlockEnd
  0
BLOCK
  5
8E
330
8D
100
AcDbEntity
  8
0
100
AcDbBlockBegin
  2
arrow
 70
     0
 10
0.0
 20
0.0
 30
0.0
  3
arrow
  1

  0
HATCH
  5
8F
330
8D
100
AcDbEntity
  8
DIM
 62
   253
100
AcDbHatch
 10
0.0
 20
0.0
 30
0.0
210
0.0
220
0.0
230
1.0
  2
SOLID
 70
     1
 71
     0
 91
        1
 92
        7
 72
     0
 73
     1
 93
        3
 10
-2.0
 20
0.5
 10
-2.0
 20
-0.5
 10
0.0
 20
0.0
 97
        0
 75
     0
 76
     1
 47
0.0337394080685346
 98
        1
 10
-1.103351122172171
 20
0.05064816270351
  0
LWPOLYLINE
  5
90
330
8D
100
AcDbEntity
  8
DIM
370
    15
100
AcDbPolyline
 90
        4
 70
     0
 43
0.0
 10
0.0
 20
0.0
 10
-2.0
 20
-0.5
 10
-2.0
 20
0.5
 10
0.0
 20
0.0
  0
LWPOLYLINE
  5
91
330
8D
100
AcDbEntity
  8
DIM
370
     9
100
AcDbPolyline
 90
        2
 70
     0
 43
0.0
 10
0.3742552490839444
 20
0.0935638122700766
 10
0.0
 20
0.0
  0
LWPOLYLINE
  5
92
330
8D
100
AcDbEntity
  8
DIM
370
     9
100
AcDbPolyline
 90
        3
 70
     0
 43
0.0
 10
-2.0
 20
-0.9831764405007561
 10
-2.0
 20
-0.5
 10
-2.46875
 20
-0.6171875
  0
LWPOLYLINE
  5
93
330
8D
100
AcDbEntity
  8
DIM
370
     9
100
AcDbPolyline
 90
        3
 70
     0
 43
0.0
 10
-2.0
 20
0.9831764405007561
 10
-2.0
 20
0.5
 10
-2.46875
 20
0.6171875
  0
LWPOLYLINE
  5
94
330
8D
100
AcDbEntity
  8
DIM
370
     9
100
AcDbPolyline
 90
        2
 70
     0
 43
0.0
 10
0.3742552490839444
 20
-0.0935638122700766
 10
0.0
 20
0.0
  0
ENDBLK
  5
95
330
8D
100
AcDbEntity
  8
0
100
AcDbBlockEnd
  0
BLOCK
  5
85A
330
859
100
AcDbEntity
  8
0
 48
0.15
100
AcDbBlockBegin
  2
*D6
 70
     1
 10
0.0
 20
0.0
 30
0.0
  3
*D6
  1

  0
LINE
  5
85B
330
859
100
AcDbEntity
  8
DIM
 48
0.15
370
    -2
100
AcDbLine
 10
7258.804787169045
 20
-3362.37866615228
 30
0.0
 11
7244.452332516266
 21
-3362.37866615228
 31
0.0
  0
LINE
  5
85C
330
859
100
AcDbEntity
  8
DIM
 48
0.15
370
    -2
100
AcDbLine
 10
7259.321078680835
 20
-3366.510840404795
 30
0.0
 11
7244.452332516266
 21
-3366.510840404795
 31
0.0
  0
LINE
  5
85D
330
859
100
AcDbEntity
  8
DIM
 48
0.15
370
    -2
100
AcDbLine
 10
7244.639832516266
 20
-3362.37866615228
 30
0.0
 11
7244.639832516266
 21
-3366.510840404795
 31
0.0
  0
INSERT
  5
85E
330
859
100
AcDbEntity
  8
DIM
 48
0.15
370
    -2
100
AcDbBlockReference
  2
_ArchTick
 10
7244.639832516266
 20
-3362.37866615228
 30
0.0
 50
90.0
  0
INSERT
  5
85F
330
859
100
AcDbEntity
  8
DIM
 48
0.15
370
    -2
100
AcDbBlockReference
  2
_ArchTick
 10
7244.639832516266
 20
-3366.510840404795
 30
0.0
 50
270.0
  0
MTEXT
  5
860
330
859
100
AcDbEntity
  8
DIM
 48
0.15
100
AcDbMText
 10
7243.639832516267
 20
-3364.444753278536
 30
0.0
 40
1.0
 41
0.0
 71
     5
 72
     1
  1
\A1;.
  7
ARCTEXT
 11
0.0000000000000001
 21
1.0
 31
0.0
 73
     1
 44
1.0
1001
ACAD
1000
MTEXTBEGIN
1070
    73
1070
     1
1070
    44
1040
1.0
1070
    74
1070
     0
1000
MTEXTEND
  0
POINT
  5
861
330
859
100
AcDbEntity
  8
Defpoints
 62
     0
 48
0.15
100
AcDbPoint
 10
7259.804787169044
 20
-3362.37866615228
 30
0.0
  0
POINT
  5
862
330
859
100
AcDbEntity
  8
Defpoints
 62
     0
 48
0.15
100
AcDbPoint
 10
7260.321078680835
 20
-3366.510840404795
 30
0.0
  0
POINT
  5
863
330
859
100
AcDbEntity
  8
Defpoints
 62
     0
 48
0.15
100
AcDbPoint
 10
7244.639832516266
 20
-3366.510840404795
 30
0.0
  0
ENDBLK
  5
864
330
859
100
AcDbEntity
  8
0
 48
0.15
100
AcDbBlockEnd
  0
BLOCK
  5
105B
330
1051
100
AcDbEntity
  8
0
100
AcDbBlockBegin
  2
*D8
 70
     1
 10
0.0
 20
0.0
 30
0.0
  3
*D8
  1

  0
LINE
  5
105D
330
1051
100
AcDbEntity
  8
DIM
370
    -2
100
AcDbLine
 10
-6.349451024049841
 20
70.30828673096635
 30
0.0
 11
-20.70190567682769
 21
70.30828673096635
 31
0.0
  0
LINE
  5
105E
330
1051
100
AcDbEntity
  8
DIM
370
    -2
100
AcDbLine
 10
-5.833159512259072
 20
66.17611247845076
 30
0.0
 11
-20.70190567682769
 21
66.17611247845076
 31
0.0
  0
LINE
  5
105F
330
1051
100
AcDbEntity
  8
DIM
370
    -2
100
AcDbLine
 10
-20.51440567682769
 20
70.30828673096635
 30
0.0
 11
-20.51440567682769
 21
66.17611247845076
 31
0.0
  0
INSERT
  5
1060
330
1051
100
AcDbEntity
  8
DIM
370
    -2
100
AcDbBlockReference
  2
_ArchTick
 10
-20.51440567682769
 20
70.30828673096635
 30
0.0
 50
90.0
  0
INSERT
  5
1061
330
1051
100
AcDbEntity
  8
DIM
370
    -2
100
AcDbBlockReference
  2
_ArchTick
 10
-20.51440567682769
 20
66.17611247845076
 30
0.0
 50
270.0
  0
MTEXT
  5
1062
330
1051
100
AcDbEntity
  8
DIM
100
AcDbMText
 10
-21.51440567682771
 20
68.24219960470855
 30
0.0
 40
1.0
 41
0.0
 71
     5
 72
     1
  1
\A1;.
  7
ARCTEXT
 11
0.0000000000000001
 21
1.0
 31
0.0
 73
     1
 44
1.0
1001
ACAD
1000
MTEXTBEGIN
1070
    73
1070
     1
1070
    44
1040
1.0
1070
    74
1070
     0
1000
MTEXTEND
  0
POINT
  5
1063
330
1051
100
AcDbEntity
  8
Defpoints
 62
     0
100
AcDbPoint
 10
-5.349451024049841
 20
70.30828673096635
 30
0.0
  0
POINT
  5
1064
330
1051
100
AcDbEntity
  8
Defpoints
 62
     0
100
AcDbPoint
 10
-4.833159512259072
 20
66.17611247845076
 30
0.0
  0
POINT
  5
1065
330
1051
100
AcDbEntity
  8
Defpoints
 62
     0
100
AcDbPoint
 10
-20.51440567682769
 20
66.17611247845076
 30
0.0
  0
ENDBLK
  5
105C
330
1051
100
AcDbEntity
  8
0
100
AcDbBlockEnd
  0
ENDSEC
  0
SECTION
  2
ENTITIES
  0
MTEXT
  5
131C
330
1F
100
AcDbEntity
  8
Defpoints
100
AcDbMText
 10
-44.48514391985134
 20
24.87954985045443
 30
0.0
 40
3.0
 41
90.07999999999999
 71
     2
 72
     5
  1
{\L117\P}\P            
  7
RomanC
 73
     1
 44
1.0
1001
ACAD
1000
MTEXTBEGIN
1070
    73
1070
     1
1070
    44
1040
1.0
1070
    74
1070
     0
1000
MTEXTEND
  0
MTEXT
  5
131D
330
1F
100
AcDbEntity
  8
DIM
100
AcDbMText
 10
-7.388302251292202
 20
34.55839455885942
 30
0.0
 40
3.0
 41
71.41649521821006
 71
     2
 72
     5
  1
{\L6" WALL W/RECESSED WINDOW DETAIL}\P               
  7
RomanC
 73
     1
 44
1.0
1001
ACAD
1000
MTEXTBEGIN
1070
    73
1070
     1
1070
    44
1040
1.0
1070
    74
1070
     0
1000
MTEXTEND
  0
LINE
  5
131E
330
1F
100
AcDbEntity
  8
0
 62
     1
100
AcDbLine
 10
-16.30974130886295
 20
65.85280712858938
 30
0.0
 11
-14.30974130886295
 21
65.85280712858938
 31
0.0
  0
LINE
  5
131F
330
1F
100
AcDbEntity
  8
0
 48
0.15
100
AcDbLine
 10
-23.13474130886368
 20
65.85280712858983
 30
0.0
 11
-16.30974130886295
 21
65.85280712858938
 31
0.0
  0
LINE
  5
1320
330
1F
100
AcDbEntity
  8
0
 48
0.15
100
AcDbLine
 10
-23.13474130886277
 20
67.35280712858846
 30
0.0
 11
-16.93474130886386
 21
67.35280712858937
 31
0.0
  0
LINE
  5
1321
330
1F
100
AcDbEntity
  8
A2 Hatch
 48
0.15
100
AcDbLine
 10
-16.93474130886386
 20
67.35280712858937
 30
0.0
 11
-23.13474130886277
 21
65.85280712858846
 31
0.0
  0
LINE
  5
1322
330
1F
100
AcDbEntity
  8
A2 Hatch
 48
0.15
100
AcDbLine
 10
-23.13474130886277
 20
67.35280712858846
 30
0.0
 11
-16.93474130886386
 21
65.85280712858938
 31
0.0
  0
LWPOLYLINE
  5
1323
330
1F
100
AcDbEntity
  8
0
 48
0.15
100
AcDbPolyline
 90
        4
 70
     1
 43
0.0
 10
-21.80974130886295
 20
65.85280712858938
 10
-21.80974130886295
 20
64.35280712858937
 10
-14.30974130886295
 20
64.35280712858937
 10
-14.30974130886295
 20
65.85280712858938
  0
LINE
  5
1324
330
1F
100
AcDbEntity
  8
A2 Hatch
 48
0.15
100
AcDbLine
 10
-14.30974130886295
 20
65.85280712858938
 30
0.0
 11
-21.80974130886295
 21
64.35280712858937
 31
0.0
  0
LINE
  5
1325
330
1F
100
AcDbEntity
  8
A2 Hatch
 48
0.15
100
AcDbLine
 10
-14.30974130886295
 20
64.35280712858937
 30
0.0
 11
-21.80974130886295
 21
65.85280712858938
 31
0.0
  0
LINE
  5
1326
330
1F
100
AcDbEntity
  8
A5 heavy
 48
0.15
100
AcDbLine
 10
-18.02337473943441
 20
68.02907024151662
 30
0.0
 11
-18.52337473943441
 21
68.02907024151662
 31
0.0
  0
LINE
  5
1327
330
1F
100
AcDbEntity
  8
A5 heavy
 48
0.15
100
AcDbLine
 10
-18.27337473943441
 20
68.02907024151662
 30
0.0
 11
-18.27337473943441
 21
66.83170507815683
 31
0.0
  0
LINE
  5
1328
330
1F
100
AcDbEntity
  8
A5 heavy
 48
0.15
100
AcDbLine
 10
-21.92551067434431
 20
68.02907024151662
 30
0.0
 11
-21.42551067434431
 21
68.02907024151662
 31
0.0
  0
LINE
  5
1329
330
1F
100
AcDbEntity
  8
A5 heavy
 48
0.15
100
AcDbLine
 10
-21.67551067434431
 20
68.02907024151662
 30
0.0
 11
-21.67551067434431
 21
66.83170507815683
 31
0.0
  0
LINE
  5
132A
330
1F
100
AcDbEntity
  8
A5 heavy
 48
0.15
100
AcDbLine
 10
-14.30974130886295
 20
66.35952973953525
 30
0.0
 11
-14.30974130886295
 21
66.85952973953525
 31
0.0
  0
LINE
  5
132B
330
1F
100
AcDbEntity
  8
A5 heavy
 48
0.15
100
AcDbLine
 10
-14.30974130886295
 20
66.60952973953524
 30
0.0
 11
-17.07331046320303
 21
66.60952973953524
 31
0.0
  0
LINE
  5
132C
330
1F
100
AcDbEntity
  8
A5 heavy
 48
0.15
100
AcDbLine
 10
-25.75974130886368
 20
66.35952973953525
 30
0.0
 11
-25.75974130886368
 21
66.85952973953525
 31
0.0
  0
LINE
  5
132D
330
1F
100
AcDbEntity
  8
A5 heavy
 48
0.15
100
AcDbLine
 10
-25.75974130886368
 20
66.60952973953524
 30
0.0
 11
-22.27002051614306
 21
66.60952973953524
 31
0.0
  0
LINE
  5
132E
330
1F
100
AcDbEntity
  8
0
 48
0.15
100
AcDbLine
 10
-13.80974130886204
 20
91.15974353935897
 30
0.0
 11
-13.80974130886295
 21
63.85280712858937
 31
0.0
  0
LINE
  5
132F
330
1F
100
AcDbEntity
  8
DIM
100
AcDbLine
 10
-12.42533470980413
 20
91.62925483012921
 30
0.0
 11
-17.39549518562614
 21
89.9436615500006
 31
0.0
  0
LINE
  5
1330
330
1F
100
AcDbEntity
  8
DIM
100
AcDbLine
 10
-16.69346292302487
 20
87.87364083654328
 30
0.0
 11
-17.39549518562523
 21
89.9436615500006
 31
0.0
  0
LINE
  5
1331
330
1F
100
AcDbEntity
  8
DIM
100
AcDbLine
 10
-20.14060848130919
 20
91.32078639482804
 30
0.0
 11
-19.43857621870882
 21
89.25076568137118
 31
0.0
  0
LINE
  5
1332
330
1F
100
AcDbEntity
  8
DIM
100
AcDbLine
 10
-19.43857621870882
 20
89.25076568137118
 30
0.0
 11
-27.09380529856515
 21
86.86286985463473
 31
0.0
  0
LINE
  5
1333
330
1F
100
AcDbEntity
  8
DIM
100
AcDbLine
 10
-16.69346292302487
 20
87.87364083654328
 30
0.0
 11
-20.14060848130919
 21
91.32078639482804
 31
0.0
  0
LINE
  5
1334
330
1F
100
AcDbEntity
  8
0
 48
0.15
100
AcDbLine
 10
-26.25974130886277
 20
65.35280712859074
 30
0.0
 11
-22.05974130886295
 21
65.35280712858574
 31
0.0
  0
LINE
  5
1335
330
1F
100
AcDbEntity
  8
0
 48
0.15
100
AcDbLine
 10
-21.80974130886295
 20
65.58321350200802
 30
0.0
 11
-22.05974130886295
 21
65.58321350200802
 31
0.0
  0
LINE
  5
1336
330
1F
100
AcDbEntity
  8
0
 48
0.15
100
AcDbLine
 10
-22.05974130886295
 20
65.58321350200802
 30
0.0
 11
-22.05974130886295
 21
64.35280712858937
 31
0.0
  0
LINE
  5
1337
330
1F
100
AcDbEntity
  8
0
 48
0.15
100
AcDbLine
 10
-22.05974130886295
 20
64.35280712858937
 30
0.0
 11
-22.55974130886295
 21
64.35280712858937
 31
0.0
  0
LINE
  5
1338
330
1F
100
AcDbEntity
  8
0
 48
0.15
100
AcDbLine
 10
-22.55974130886295
 20
64.35280712858937
 30
0.0
 11
-22.55974130886295
 21
63.60280712858937
 31
0.0
  0
LINE
  5
1339
330
1F
100
AcDbEntity
  8
0
 48
0.15
100
AcDbLine
 10
-22.55974130886295
 20
63.60280712858937
 30
0.0
 11
-22.43474130886295
 21
63.60280712858937
 31
0.0
  0
LINE
  5
133A
330
1F
100
AcDbEntity
  8
0
 48
0.15
100
AcDbLine
 10
-22.43474130886295
 20
63.60280712858937
 30
0.0
 11
-22.43474130886295
 21
61.60280712858938
 31
0.0
  0
LINE
  5
133B
330
1F
100
AcDbEntity
  8
0
 48
0.15
100
AcDbLine
 10
-22.43474130886295
 20
61.60280712858938
 30
0.0
 11
-22.55974130886295
 21
61.60280712858938
 31
0.0
  0
LINE
  5
133C
330
1F
100
AcDbEntity
  8
0
 48
0.15
100
AcDbLine
 10
-22.55974130886295
 20
61.60280712858938
 30
0.0
 11
-22.55974130886295
 21
61.35280712858937
 31
0.0
  0
LINE
  5
133D
330
1F
100
AcDbEntity
  8
0
 48
0.15
100
AcDbLine
 10
-22.55974130886295
 20
61.35280712858937
 30
0.0
 11
-22.12501253528842
 21
60.91807835501438
 31
0.0
  0
LINE
  5
133E
330
1F
100
AcDbEntity
  8
0
 48
0.15
100
AcDbLine
 10
-22.12501253528842
 20
60.91807835501438
 30
0.0
 11
-21.56908535487162
 21
60.91807835501438
 31
0.0
  0
LINE
  5
133F
330
1F
100
AcDbEntity
  8
0
 48
0.15
100
AcDbLine
 10
-19.69028376171388
 20
61.35280712858937
 30
0.0
 11
-20.12501253528842
 21
60.91807835501438
 31
0.0
  0
LINE
  5
1340
330
1F
100
AcDbEntity
  8
0
 48
0.15
100
AcDbLine
 10
-19.69028376171388
 20
61.35280712858937
 30
0.0
 11
-19.69028376171388
 21
62.80247195398786
 31
0.0
  0
LINE
  5
1341
330
1F
100
AcDbEntity
  8
0
 48
0.15
100
AcDbLine
 10
-19.69028376171388
 20
62.80247195398786
 30
0.0
 11
-19.19028376171388
 21
62.80247195398786
 31
0.0
  0
LINE
  5
1342
330
1F
100
AcDbEntity
  8
0
 48
0.15
100
AcDbLine
 10
-19.19028376171388
 20
62.80247195398786
 30
0.0
 11
-19.19028376171388
 21
64.35280712858937
 31
0.0
  0
LINE
  5
1343
330
1F
100
AcDbEntity
  8
0
 48
0.15
100
AcDbLine
 10
-21.56908535487071
 20
61.77858274670668
 30
0.0
 11
-21.56908535487071
 21
52.6514746680057
 31
0.0
  0
LINE
  5
1344
330
1F
100
AcDbEntity
  8
0
 48
0.15
100
AcDbLine
 10
-21.44408535487071
 20
61.77858274670668
 30
0.0
 11
-21.44408535487071
 21
52.6514746680057
 31
0.0
  0
LINE
  5
1345
330
1F
100
AcDbEntity
  8
0
 48
0.15
100
AcDbLine
 10
-21.44408535487071
 20
61.77858274670668
 30
0.0
 11
-21.56908535487071
 21
61.77858274670668
 31
0.0
  0
LINE
  5
1346
330
1F
100
AcDbEntity
  8
0
 48
0.15
100
AcDbLine
 10
-20.83915239722899
 20
61.77858274670668
 30
0.0
 11
-20.83915239722899
 21
52.6514746680057
 31
0.0
  0
LINE
  5
1347
330
1F
100
AcDbEntity
  8
0
 48
0.15
100
AcDbLine
 10
-20.71415239722899
 20
61.77858274670668
 30
0.0
 11
-20.71415239722899
 21
52.6514746680057
 31
0.0
  0
LINE
  5
1348
330
1F
100
AcDbEntity
  8
0
 48
0.15
100
AcDbLine
 10
-20.71415239722899
 20
61.77858274670668
 30
0.0
 11
-20.83915239722899
 21
61.77858274670668
 31
0.0
  0
LINE
  5
1349
330
1F
100
AcDbEntity
  8
0
 48
0.15
100
AcDbLine
 10
-21.4440853548698
 20
60.91807835501438
 30
0.0
 11
-20.83915239722899
 21
60.91807835501438
 31
0.0
  0
LINE
  5
134A
330
1F
100
AcDbEntity
  8
0
 48
0.15
100
AcDbLine
 10
-20.71415239722899
 20
60.91807835501438
 30
0.0
 11
-20.12501253528842
 21
60.91807835501438
 31
0.0
  0
LINE
  5
134B
330
1F
100
AcDbEntity
  8
0
 48
0.15
100
AcDbLine
 10
-20.47886645383312
 20
61.6170604816414
 30
0.0
 11
-20.71415239722899
 21
61.6170604816414
 31
0.0
  0
LINE
  5
134C
330
1F
100
AcDbEntity
  8
0
 48
0.15
100
AcDbLine
 10
-21.81653119798773
 20
61.6170604816414
 30
0.0
 11
-21.81653119798773
 21
62.09915488154163
 31
0.0
  0
LINE
  5
134D
330
1F
100
AcDbEntity
  8
0
 48
0.15
100
AcDbLine
 10
-21.81653119798773
 20
62.09915488154163
 30
0.0
 11
-21.67035092913045
 21
62.09915488154163
 31
0.0
  0
LINE
  5
134E
330
1F
100
AcDbEntity
  8
0
 48
0.15
100
AcDbLine
 10
-20.47886645383312
 20
61.6170604816414
 30
0.0
 11
-20.47886645383312
 21
62.09915488154163
 31
0.0
  0
LINE
  5
134F
330
1F
100
AcDbEntity
  8
0
 48
0.15
100
AcDbLine
 10
-20.47886645383312
 20
62.09915488154163
 30
0.0
 11
-20.6250467226904
 21
62.09915488154163
 31
0.0
  0
ARC
  5
1350
330
1F
100
AcDbEntity
  8
0
 48
0.15
100
AcDbCircle
 10
-21.14769882591042
 20
61.57650277832161
 30
0.0
 40
0.7391416927765827
100
AcDbArc
 50
45.0
 51
135.0
  0
LINE
  5
1351
330
1F
100
AcDbEntity
  8
0
 48
0.15
100
AcDbLine
 10
-21.56908535487162
 20
61.6170604816414
 30
0.0
 11
-21.81653119798773
 21
61.6170604816414
 31
0.0
  0
LINE
  5
1352
330
1F
100
AcDbEntity
  8
0
 48
0.15
100
AcDbLine
 10
-20.83915239722899
 20
61.6170604816414
 30
0.0
 11
-21.4440853548698
 21
61.6170604816414
 31
0.0
  0
LINE
  5
1353
330
1F
100
AcDbEntity
  8
0
 48
0.15
100
AcDbLine
 10
-13.80974130886295
 20
63.85280712858937
 30
0.0
 11
-19.19028376171388
 21
63.85280712859028
 31
0.0
  0
LINE
  5
1354
330
1F
100
AcDbEntity
  8
A5 heavy
 48
0.15
100
AcDbLine
 10
-22.05974130886295
 20
64.71801031529847
 30
0.0
 11
-22.05974130886295
 21
65.21801031529847
 31
0.0
  0
LINE
  5
1355
330
1F
100
AcDbEntity
  8
A5 heavy
 48
0.15
100
AcDbLine
 10
-22.05974130886295
 20
64.96801031529847
 30
0.0
 11
-20.89829867844799
 21
64.96801031529847
 31
0.0
  0
MTEXT
  5
1356
330
1F
100
AcDbEntity
  8
DIM
 62
     3
100
AcDbMText
 10
-4.875067836958237
 20
60.01599802933313
 30
0.0
 40
1.0
 41
22.68954545454545
 71
     1
 72
     5
  1
SUB BUCK TO BE FASTENED TO CONCRETE (CONNECTION PER CODE)
  7
RomanC
 73
     1
 44
1.0
1001
ACAD
1000
MTEXTBEGIN
1070
    73
1070
     1
1070
    44
1040
1.0
1070
    74
1070
     0
1000
MTEXTEND
  0
MTEXT
  5
1357
330
1F
100
AcDbEntity
  8
DIM
 62
     3
100
AcDbMText
 10
-4.875067836958237
 20
52.21261946431813
 30
0.0
 40
1.0
 41
22.68954545454545
 71
     1
 72
     5
  1
WINDOW BY OTHERS
  7
RomanC
 73
     1
 44
1.0
1001
ACAD
1000
MTEXTBEGIN
1070
    73
1070
     1
1070
    44
1040
1.0
1070
    74
1070
     0
1000
MTEXTEND
  0
MTEXT
  5
1358
330
1F
100
AcDbEntity
  8
DIM
 62
     3
100
AcDbMText
 10
-4.875067836958237
 20
65.35514700907268
 30
0.0
 40
1.0
 41
22.68954545454545
 71
     1
 72
     5
  1
1x OR 2x BLOCKING FOR RECESSED WINDOW ATTACHMENT
  7
RomanC
 73
     1
 44
1.0
1001
ACAD
1000
MTEXTBEGIN
1070
    73
1070
     1
1070
    44
1040
1.0
1070
    74
1070
     0
1000
MTEXTEND
  0
MTEXT
  5
1359
330
1F
100
AcDbEntity
  8
DIM
 62
     3
100
AcDbMText
 10
-4.875067836958237
 20
71.10500848053314
 30
0.0
 40
1.0
 41
22.68954545454545
 71
     1
 72
     5
  1
WIND-LOCK TYPE FASTENER OR EQUIVALENT
  7
RomanC
 73
     1
 44
1.0
1001
ACAD
1000
MTEXTBEGIN
1070
    73
1070
     1
1070
    44
1040
1.0
1070
    74
1070
     0
1000
MTEXTEND
  0
MTEXT
  5
135A
330
1F
100
AcDbEntity
  8
DIM
 62
     3
100
AcDbMText
 10
-4.875067836958237
 20
76.78301171077444
 30
0.0
 40
1.0
 41
22.68954545454545
 71
     1
 72
     5
  1
INTERIOR GYPSUM WALLBOARD FASTEN TO TIES
  7
RomanC
 73
     1
 44
1.0
1001
ACAD
1000
MTEXTBEGIN
1070
    73
1070
     1
1070
    44
1040
1.0
1070
    74
1070
     0
1000
MTEXTEND
  0
MTEXT
  5
135B
330
1F
100
AcDbEntity
  8
DIM
 62
     3
100
AcDbMText
 10
-4.875067836958237
 20
81.07418264100605
 30
0.0
 40
1.0
 41
22.68954545454545
 71
     1
 72
     5
  1
REINFORCEMENT PER ENGINEER
  7
RomanC
 73
     1
 44
1.0
1001
ACAD
1000
MTEXTBEGIN
1070
    73
1070
     1
1070
    44
1040
1.0
1070
    74
1070
     0
1000
MTEXTEND
  0
LWPOLYLINE
  5
135C
330
1F
100
AcDbEntity
  8
0
 48
0.15
100
AcDbPolyline
 90
        2
 70
     1
 43
0.25
 10
-21.478100417365
 20
74.07539950509207
 42
1.0
 10
-21.228100417365
 20
74.07539950509207
 42
1.0
  0
LEADER
  5
135D
330
1F
100
AcDbEntity
  8
DIM
 48
0.15
100
AcDbLeader
  3
ARCTEXT 1-1
 76
     3
 10
-20.71415239722899
 20
59.12372921597196
 30
0.0
 10
-13.1972498109975
 20
51.69688473493514
 30
0.0
 10
-5.833486472412346
 20
51.69688473493514
 30
0.0
1001
ACAD
1000
DSTYLE
1002
{
1070
    40
1040
1.0
1070
    41
1040
0.5
1070
    77
1070
     0
1002
}
  0
LEADER
  5
135E
330
1F
100
AcDbEntity
  8
DIM
 48
0.15
100
AcDbLeader
  3
ARCTEXT 1-1
 76
     3
 10
-18.30974130886295
 20
66.60280712858938
 30
0.0
 10
-11.22306167923887
 20
59.51612749896483
 30
0.0
 10
-5.833486472412346
 20
59.51612749896483
 30
0.0
1001
ACAD
1000
DSTYLE
1002
{
1070
    40
1040
1.0
1070
    41
1040
0.5
1070
    77
1070
     0
1002
}
  0
LEADER
  5
135F
330
1F
100
AcDbEntity
  8
DIM
 48
0.15
100
AcDbLeader
  3
ARCTEXT 1-1
 76
     2
 10
-14.30974130886295
 20
65.10280712858937
 30
0.0
 10
-5.766206657815359
 20
65.10280712858937
 30
0.0
1001
ACAD
1000
DSTYLE
1002
{
1070
    40
1040
1.0
1070
    41
1040
0.5
1070
    77
1070
     0
1002
}
  0
LEADER
  5
1360
330
1F
100
AcDbEntity
  8
DIM
 48
0.15
100
AcDbLeader
  3
ARCTEXT 1-1
 76
     3
 10
-14.30974130886295
 20
66.60952973953524
 30
0.0
 10
-10.28594305917283
 20
70.63332798922491
 30
0.0
 10
-5.564274986743271
 20
70.63332798922491
 30
0.0
1001
ACAD
1000
DSTYLE
1002
{
1070
    40
1040
1.0
1070
    41
1040
0.5
1070
    77
1070
     0
1002
}
  0
LEADER
  5
1361
330
1F
100
AcDbEntity
  8
DIM
 48
0.15
100
AcDbLeader
  3
ARCTEXT 1-1
 76
     2
 10
-13.80974130886295
 20
76.21201819055002
 30
0.0
 10
-5.630955323892862
 20
76.21201819055002
 30
0.0
1001
ACAD
1000
DSTYLE
1002
{
1070
    40
1040
1.0
1070
    41
1040
0.5
1070
    77
1070
     0
1002
}
  0
LEADER
  5
1362
330
1F
100
AcDbEntity
  8
DIM
 48
0.15
100
AcDbLeader
  3
ARCTEXT 1-1
 76
     3
 10
-19.08535037840499
 20
74.05157906992989
 30
0.0
 10
-12.52112018780951
 20
80.61580926052537
 30
0.0
 10
-5.832840881320748
 20
80.61580926052537
 30
0.0
1001
ACAD
1000
DSTYLE
1002
{
1070
    40
1040
1.0
1070
    41
1040
0.5
1070
    77
1070
     0
1002
}
  0
LINE
  5
1363
330
1F
100
AcDbEntity
  8
0
 62
     1
100
AcDbLine
 10
-25.75974130886277
 20
65.85279515809159
 30
0.0
 11
-23.13474130886277
 21
65.85279515809159
 31
0.0
  0
LINE
  5
1364
330
1F
100
AcDbEntity
  8
0
 62
     1
100
AcDbLine
 10
-25.75974130886277
 20
65.85279515809159
 30
0.0
 11
-23.58474130886259
 21
65.85279515809159
 31
0.0
  0
LINE
  5
1365
330
1F
100
AcDbEntity
  8
0
 62
     1
100
AcDbLine
 10
-23.3347413088635
 20
65.85279515809159
 30
0.0
 11
-23.13474130886368
 21
65.85279515809159
 31
0.0
  0
LINE
  5
1366
330
1F
100
AcDbEntity
  8
0
 48
0.15
100
AcDbLine
 10
-24.78474130886241
 20
65.85279515809159
 30
0.0
 11
-23.75974130886277
 21
65.85279515809159
 31
0.0
  0
LINE
  5
1367
330
1F
100
AcDbEntity
  8
0
 62
     1
100
AcDbLine
 10
-23.70974130886259
 20
65.85279515809159
 30
0.0
 11
-24.8347413088635
 21
65.85279515809159
 31
0.0
  0
LINE
  5
1368
330
1F
100
AcDbEntity
  8
0
 62
     1
100
AcDbLine
 10
-25.75974130886277
 20
65.85280712858938
 30
0.0
 11
-23.58474130886259
 21
65.85280712858938
 31
0.0
  0
LINE
  5
1369
330
1F
100
AcDbEntity
  8
0
 62
     1
100
AcDbLine
 10
-25.40974130886241
 20
66.35280712858937
 30
0.0
 11
-24.78474130886241
 21
66.35280712858937
 31
0.0
  0
LINE
  5
136A
330
1F
100
AcDbEntity
  8
0
 62
     1
100
AcDbLine
 10
-23.75974130886277
 20
66.35280712858937
 30
0.0
 11
-23.75974130886368
 21
65.85280712858938
 31
0.0
  0
LINE
  5
136B
330
1F
100
AcDbEntity
  8
0
 62
     1
100
AcDbLine
 10
-24.78474130886241
 20
66.35280712858937
 30
0.0
 11
-24.78474130886241
 21
65.85280712858938
 31
0.0
  0
LINE
  5
136C
330
1F
100
AcDbEntity
  8
0
 62
     1
100
AcDbLine
 10
-23.75974130886368
 20
66.35280712858937
 30
0.0
 11
-23.13474130886368
 21
66.35280712858937
 31
0.0
  0
LINE
  5
136D
330
1F
100
AcDbEntity
  8
0
 62
     1
100
AcDbLine
 10
-23.5847413088635
 20
66.10280712858937
 30
0.0
 11
-23.5847413088635
 21
65.85280712858938
 31
0.0
  0
LINE
  5
136E
330
1F
100
AcDbEntity
  8
0
 62
     1
100
AcDbLine
 10
-23.5847413088635
 20
66.10280712858937
 30
0.0
 11
-23.3347413088635
 21
66.10280712858937
 31
0.0
  0
LINE
  5
136F
330
1F
100
AcDbEntity
  8
0
 62
     1
100
AcDbLine
 10
-23.3347413088635
 20
65.85280712858938
 30
0.0
 11
-23.13474130886368
 21
65.85280712858938
 31
0.0
  0
LINE
  5
1370
330
1F
100
AcDbEntity
  8
0
 48
0.15
100
AcDbLine
 10
-24.78474130886241
 20
65.85280712858938
 30
0.0
 11
-23.75974130886277
 21
65.85280712858938
 31
0.0
  0
LINE
  5
1371
330
1F
100
AcDbEntity
  8
0
 62
     1
100
AcDbLine
 10
-23.70974130886259
 20
65.85280712858938
 30
0.0
 11
-24.8347413088635
 21
65.85280712858938
 31
0.0
  0
LINE
  5
1372
330
1F
100
AcDbEntity
  8
0
 62
     1
100
AcDbLine
 10
-14.65974130886241
 20
66.35280712858937
 30
0.0
 11
-14.65974130886241
 21
65.85280712858938
 31
0.0
  0
LINE
  5
1373
330
1F
100
AcDbEntity
  8
0
 62
     1
100
AcDbLine
 10
-16.30974130886386
 20
66.35280712858937
 30
0.0
 11
-16.30974130886386
 21
65.85280712858938
 31
0.0
  0
LINE
  5
1374
330
1F
100
AcDbEntity
  8
0
 62
     1
100
AcDbLine
 10
-15.28474130886241
 20
66.35280712858937
 30
0.0
 11
-15.28474130886241
 21
65.85280712858938
 31
0.0
  0
LINE
  5
1375
330
1F
100
AcDbEntity
  8
0
 62
     1
100
AcDbLine
 10
-16.93474130886386
 20
66.35280712858937
 30
0.0
 11
-16.30974130886386
 21
66.35280712858937
 31
0.0
  0
LINE
  5
1376
330
1F
100
AcDbEntity
  8
0
 62
     1
100
AcDbLine
 10
-15.28474130886241
 20
66.35280712858937
 30
0.0
 11
-14.65974130886241
 21
66.35280712858937
 31
0.0
  0
LINE
  5
1377
330
1F
100
AcDbEntity
  8
0
 62
     1
100
AcDbLine
 10
-16.48474130886313
 20
66.10280712858937
 30
0.0
 11
-16.48474130886313
 21
65.85280712858938
 31
0.0
  0
LINE
  5
1378
330
1F
100
AcDbEntity
  8
0
 62
     1
100
AcDbLine
 10
-16.73474130886313
 20
66.10280712858937
 30
0.0
 11
-16.48474130886313
 21
66.10280712858937
 31
0.0
  0
LINE
  5
1379
330
1F
100
AcDbEntity
  8
0
 62
     1
100
AcDbLine
 10
-16.51974130886299
 20
65.85280712858938
 30
0.0
 11
-14.30974130886295
 21
65.85280712858938
 31
0.0
  0
LINE
  5
137A
330
1F
100
AcDbEntity
  8
0
 62
     1
100
AcDbLine
 10
-16.93474130886386
 20
65.85280712858938
 30
0.0
 11
-16.73474130886313
 21
65.85280712858938
 31
0.0
  0
LINE
  5
137B
330
1F
100
AcDbEntity
  8
0
 62
     1
100
AcDbLine
 10
-25.75974130886277
 20
65.85280712858938
 30
0.0
 11
-23.13474130886277
 21
65.85280712858938
 31
0.0
  0
LINE
  5
137C
330
1F
100
AcDbEntity
  8
0
 62
     1
100
AcDbLine
 10
-23.13474130886277
 20
66.35280712858937
 30
0.0
 11
-23.13474130886277
 21
65.85280712858938
 31
0.0
  0
LINE
  5
137D
330
1F
100
AcDbEntity
  8
0
  6
HIDDEN
 62
     1
 48
0.02
100
AcDbLine
 10
-25.40974130886241
 20
66.35280712858937
 30
0.0
 11
-24.78474130886241
 21
66.35280712858937
 31
0.0
  0
LINE
  5
137E
330
1F
100
AcDbEntity
  8
0
  6
HIDDEN
 62
     1
 48
0.02
100
AcDbLine
 10
-25.40974130886241
 20
66.35280712858937
 30
0.0
 11
-25.40974130886241
 21
65.85280712858938
 31
0.0
  0
LINE
  5
137F
330
1F
100
AcDbEntity
  8
0
  6
HIDDEN
 62
     1
 48
0.02
100
AcDbLine
 10
-23.75974130886277
 20
66.35280712858937
 30
0.0
 11
-23.75974130886368
 21
65.85280712858938
 31
0.0
  0
LINE
  5
1380
330
1F
100
AcDbEntity
  8
0
  6
HIDDEN
 62
     1
 48
0.02
100
AcDbLine
 10
-24.78474130886241
 20
66.35280712858937
 30
0.0
 11
-24.78474130886241
 21
65.85280712858938
 31
0.0
  0
LINE
  5
1381
330
1F
100
AcDbEntity
  8
0
  6
HIDDEN
 62
     1
 48
0.02
100
AcDbLine
 10
-23.75974130886368
 20
66.35280712858937
 30
0.0
 11
-23.13474130886368
 21
66.35280712858937
 31
0.0
  0
LINE
  5
1382
330
1F
100
AcDbEntity
  8
0
 62
     1
100
AcDbLine
 10
-16.93474130886204
 20
65.85280712858938
 30
0.0
 11
-14.30974130886295
 21
65.85280712858938
 31
0.0
  0
LINE
  5
1383
330
1F
100
AcDbEntity
  8
0
 62
     1
100
AcDbLine
 10
-16.93474130886204
 20
66.35280712858937
 30
0.0
 11
-16.93474130886204
 21
65.85280712858938
 31
0.0
  0
LINE
  5
1384
330
1F
100
AcDbEntity
  8
0
  6
HIDDEN
 62
     1
 48
0.02
100
AcDbLine
 10
-14.65974130886059
 20
66.35280712858937
 30
0.0
 11
-14.65974130886059
 21
65.85280712858938
 31
0.0
  0
LINE
  5
1385
330
1F
100
AcDbEntity
  8
0
  6
HIDDEN
 62
     1
 48
0.02
100
AcDbLine
 10
-16.30974130886204
 20
66.35280712858937
 30
0.0
 11
-16.30974130886204
 21
65.85280712858938
 31
0.0
  0
LINE
  5
1386
330
1F
100
AcDbEntity
  8
0
  6
HIDDEN
 62
     1
 48
0.02
100
AcDbLine
 10
-15.28474130886059
 20
66.35280712858937
 30
0.0
 11
-15.28474130886059
 21
65.85280712858938
 31
0.0
  0
LINE
  5
1387
330
1F
100
AcDbEntity
  8
0
  6
HIDDEN
 62
     1
 48
0.02
100
AcDbLine
 10
-16.93474130886204
 20
66.35280712858937
 30
0.0
 11
-16.30974130886204
 21
66.35280712858937
 31
0.0
  0
LINE
  5
1388
330
1F
100
AcDbEntity
  8
0
  6
HIDDEN
 62
     1
 48
0.02
100
AcDbLine
 10
-15.28474130886059
 20
66.35280712858937
 30
0.0
 11
-14.65974130886059
 21
66.35280712858937
 31
0.0
  0
LINE
  5
1389
330
1F
100
AcDbEntity
  8
0
  6
HIDDEN
 62
     1
 48
0.02
100
AcDbLine
 10
-16.73474130886132
 20
66.10280712858937
 30
0.0
 11
-16.73474130886132
 21
65.85280712858938
 31
0.0
  0
LINE
  5
138A
330
1F
100
AcDbEntity
  8
0
  6
HIDDEN
 62
     1
 48
0.02
100
AcDbLine
 10
-16.48474130886131
 20
66.10280712858937
 30
0.0
 11
-16.48474130886131
 21
65.85280712858938
 31
0.0
  0
LINE
  5
138B
330
1F
100
AcDbEntity
  8
0
  6
HIDDEN
 62
     1
 48
0.02
100
AcDbLine
 10
-16.73474130886132
 20
66.10280712858937
 30
0.0
 11
-16.48474130886131
 21
66.10280712858937
 31
0.0
  0
LINE
  5
138C
330
1F
100
AcDbEntity
  8
0
 62
     1
100
AcDbLine
 10
-25.75974130886277
 20
77.85279515809159
 30
0.0
 11
-23.13474130886277
 21
77.85279515809159
 31
0.0
  0
LINE
  5
138D
330
1F
100
AcDbEntity
  8
0
 62
     1
100
AcDbLine
 10
-25.75974130886277
 20
77.85279515809159
 30
0.0
 11
-23.58474130886259
 21
77.85279515809159
 31
0.0
  0
LINE
  5
138E
330
1F
100
AcDbEntity
  8
0
 62
     1
100
AcDbLine
 10
-23.3347413088635
 20
77.85279515809159
 30
0.0
 11
-23.13474130886368
 21
77.85279515809159
 31
0.0
  0
LINE
  5
138F
330
1F
100
AcDbEntity
  8
0
 48
0.15
100
AcDbLine
 10
-24.78474130886241
 20
77.85279515809159
 30
0.0
 11
-23.75974130886277
 21
77.85279515809159
 31
0.0
  0
LINE
  5
1390
330
1F
100
AcDbEntity
  8
0
 62
     1
100
AcDbLine
 10
-23.70974130886259
 20
77.85279515809159
 30
0.0
 11
-24.8347413088635
 21
77.85279515809159
 31
0.0
  0
LINE
  5
1391
330
1F
100
AcDbEntity
  8
0
 62
     1
100
AcDbLine
 10
-25.75974130886277
 20
77.85280712858938
 30
0.0
 11
-25.75974130886277
 21
65.85280712858938
 31
0.0
  0
LINE
  5
1392
330
1F
100
AcDbEntity
  8
0
 62
     1
100
AcDbLine
 10
-25.75974130886277
 20
77.85280712858938
 30
0.0
 11
-23.58474130886259
 21
77.85280712858938
 31
0.0
  0
LINE
  5
1393
330
1F
100
AcDbEntity
  8
0
 62
     1
100
AcDbLine
 10
-23.13474130886277
 20
78.35280712858938
 30
0.0
 11
-23.13474130886277
 21
65.85280712858938
 31
0.0
  0
LINE
  5
1394
330
1F
100
AcDbEntity
  8
0
 62
     1
100
AcDbLine
 10
-25.40974130886241
 20
78.35280712858938
 30
0.0
 11
-24.78474130886241
 21
78.35280712858938
 31
0.0
  0
LINE
  5
1395
330
1F
100
AcDbEntity
  8
0
 62
     1
100
AcDbLine
 10
-25.40974130886241
 20
78.35280712858938
 30
0.0
 11
-25.40974130886241
 21
65.85280712858938
 31
0.0
  0
LINE
  5
1396
330
1F
100
AcDbEntity
  8
0
 62
     1
100
AcDbLine
 10
-23.75974130886277
 20
78.35280712858938
 30
0.0
 11
-23.75974130886368
 21
77.85280712858938
 31
0.0
  0
LINE
  5
1397
330
1F
100
AcDbEntity
  8
0
 62
     1
100
AcDbLine
 10
-24.78474130886241
 20
78.35280712858938
 30
0.0
 11
-24.78474130886241
 21
77.85280712858938
 31
0.0
  0
LINE
  5
1398
330
1F
100
AcDbEntity
  8
0
 62
     1
100
AcDbLine
 10
-23.75974130886368
 20
78.35280712858938
 30
0.0
 11
-23.13474130886368
 21
78.35280712858938
 31
0.0
  0
LINE
  5
1399
330
1F
100
AcDbEntity
  8
0
 62
     1
100
AcDbLine
 10
-23.3347413088635
 20
78.10280712858937
 30
0.0
 11
-23.3347413088635
 21
65.85280712858938
 31
0.0
  0
LINE
  5
139A
330
1F
100
AcDbEntity
  8
0
 62
     1
100
AcDbLine
 10
-23.5847413088635
 20
78.10280712858937
 30
0.0
 11
-23.5847413088635
 21
77.85280712858938
 31
0.0
  0
LINE
  5
139B
330
1F
100
AcDbEntity
  8
0
 62
     1
100
AcDbLine
 10
-23.5847413088635
 20
78.10280712858937
 30
0.0
 11
-23.3347413088635
 21
78.10280712858937
 31
0.0
  0
LINE
  5
139C
330
1F
100
AcDbEntity
  8
0
 62
     1
100
AcDbLine
 10
-23.3347413088635
 20
77.85280712858938
 30
0.0
 11
-23.13474130886368
 21
77.85280712858938
 31
0.0
  0
LINE
  5
139D
330
1F
100
AcDbEntity
  8
0
 48
0.15
100
AcDbLine
 10
-24.78474130886241
 20
77.85280712858938
 30
0.0
 11
-23.75974130886277
 21
77.85280712858938
 31
0.0
  0
LINE
  5
139E
330
1F
100
AcDbEntity
  8
A2 Hatch
  6
DASHED2
 48
0.15
100
AcDbLine
 10
-24.99474130886336
 20
78.35280712858938
 30
0.0
 11
-24.99474130886336
 21
65.85280712858938
 31
0.0
  0
LINE
  5
139F
330
1F
100
AcDbEntity
  8
A2 Hatch
  6
DASHED2
 48
0.15
100
AcDbLine
 10
-23.54974130886365
 20
78.35280712858938
 30
0.0
 11
-23.54974130886274
 21
65.85280712858938
 31
0.0
  0
LINE
  5
13A0
330
1F
100
AcDbEntity
  8
0
 62
     1
100
AcDbLine
 10
-24.83474130886259
 20
78.35280712858938
 30
0.0
 11
-24.83474130886259
 21
65.85280712858938
 31
0.0
  0
LINE
  5
13A1
330
1F
100
AcDbEntity
  8
0
 62
     1
100
AcDbLine
 10
-23.70974130886259
 20
78.35280712858938
 30
0.0
 11
-23.70974130886259
 21
65.85280712858938
 31
0.0
  0
LINE
  5
13A2
330
1F
100
AcDbEntity
  8
0
 62
     1
100
AcDbLine
 10
-23.70974130886259
 20
77.85280712858938
 30
0.0
 11
-24.8347413088635
 21
77.85280712858938
 31
0.0
  0
ARC
  5
13A3
330
1F
100
AcDbEntity
  8
DETAILS
 62
     6
370
    20
100
AcDbCircle
 10
-23.13474130886186
 20
70.0160853504415
 30
0.0
 40
0.0999999999999136
100
AcDbArc
 50
179.9999999996873
 51
209.7448812965932
  0
LINE
  5
13A4
330
1F
100
AcDbEntity
  8
DETAILS
 62
     6
370
    20
100
AcDbLine
 10
-23.23474130886314
 20
72.10280712858938
 30
0.0
 11
-16.83474130886441
 21
72.10280712858938
 31
0.0
  0
LINE
  5
13A5
330
1F
100
AcDbEntity
  8
0
 62
     1
100
AcDbLine
 10
-14.30974130886295
 20
77.85280712858938
 30
0.0
 11
-14.30974130886295
 21
65.85280712858938
 31
0.0
  0
LINE
  5
13A6
330
1F
100
AcDbEntity
  8
0
 62
     1
100
AcDbLine
 10
-16.93474130886386
 20
78.35280712858938
 30
0.0
 11
-16.93474130886295
 21
65.85280712858938
 31
0.0
  0
LINE
  5
13A7
330
1F
100
AcDbEntity
  8
0
 62
     1
100
AcDbLine
 10
-14.65974130886241
 20
78.35280712858938
 30
0.0
 11
-14.65974130886241
 21
77.85280712858938
 31
0.0
  0
LINE
  5
13A8
330
1F
100
AcDbEntity
  8
0
 62
     1
100
AcDbLine
 10
-16.30974130886386
 20
78.35280712858938
 30
0.0
 11
-16.30974130886386
 21
77.85280712858938
 31
0.0
  0
LINE
  5
13A9
330
1F
100
AcDbEntity
  8
0
 62
     1
100
AcDbLine
 10
-15.28474130886241
 20
78.35280712858938
 30
0.0
 11
-15.28474130886241
 21
77.85280712858938
 31
0.0
  0
LINE
  5
13AA
330
1F
100
AcDbEntity
  8
0
 62
     1
100
AcDbLine
 10
-16.93474130886386
 20
78.35280712858938
 30
0.0
 11
-16.30974130886386
 21
78.35280712858938
 31
0.0
  0
LINE
  5
13AB
330
1F
100
AcDbEntity
  8
0
 62
     1
100
AcDbLine
 10
-15.28474130886241
 20
78.35280712858938
 30
0.0
 11
-14.65974130886241
 21
78.35280712858938
 31
0.0
  0
LINE
  5
13AC
330
1F
100
AcDbEntity
  8
0
 62
     1
100
AcDbLine
 10
-16.73474130886313
 20
78.10280712858937
 30
0.0
 11
-16.73474130886313
 21
65.85280712858938
 31
0.0
  0
LINE
  5
13AD
330
1F
100
AcDbEntity
  8
0
 62
     1
100
AcDbLine
 10
-16.48474130886313
 20
78.10280712858937
 30
0.0
 11
-16.48474130886313
 21
77.85280712858938
 31
0.0
  0
LINE
  5
13AE
330
1F
100
AcDbEntity
  8
0
 62
     1
100
AcDbLine
 10
-16.73474130886313
 20
78.10280712858937
 30
0.0
 11
-16.48474130886313
 21
78.10280712858937
 31
0.0
  0
LINE
  5
13AF
330
1F
100
AcDbEntity
  8
0
 62
     1
100
AcDbLine
 10
-16.51974130886299
 20
77.85280712858938
 30
0.0
 11
-14.30974130886295
 21
77.85280712858938
 31
0.0
  0
LINE
  5
13B0
330
1F
100
AcDbEntity
  8
0
 62
     1
100
AcDbLine
 10
-16.51974130886299
 20
77.85280712858938
 30
0.0
 11
-16.51974130886299
 21
65.85280712858938
 31
0.0
  0
LINE
  5
13B1
330
1F
100
AcDbEntity
  8
0
 62
     1
100
AcDbLine
 10
-15.07474130886328
 20
77.85280712858938
 30
0.0
 11
-15.07474130886328
 21
65.85280712858938
 31
0.0
  0
LINE
  5
13B2
330
1F
100
AcDbEntity
  8
A2 Hatch
  6
DASHED2
 48
0.15
100
AcDbLine
 10
-16.35974130886313
 20
77.85280712858938
 30
0.0
 11
-16.35974130886313
 21
65.85280712858938
 31
0.0
  0
LINE
  5
13B3
330
1F
100
AcDbEntity
  8
A2 Hatch
  6
DASHED2
 48
0.15
100
AcDbLine
 10
-15.23474130886313
 20
77.85280712858938
 30
0.0
 11
-15.23474130886313
 21
65.85280712858938
 31
0.0
  0
LINE
  5
13B4
330
1F
100
AcDbEntity
  8
0
 62
     1
100
AcDbLine
 10
-16.93474130886386
 20
77.85280712858938
 30
0.0
 11
-16.73474130886313
 21
77.85280712858938
 31
0.0
  0
LINE
  5
13B5
330
1F
100
AcDbEntity
  8
DETAILS
 62
     6
370
    20
100
AcDbLine
 10
-23.23474130886223
 20
77.47780712858937
 30
0.0
 11
-23.23474130886314
 21
66.78006083721519
 31
0.0
  0
LINE
  5
13B6
330
1F
100
AcDbEntity
  8
DETAILS
 62
     6
370
    20
100
AcDbLine
 10
-22.55974130886205
 20
72.72280712858926
 30
0.0
 11
-22.04035918495481
 21
72.72280712858926
 31
0.0
  0
ARC
  5
13B7
330
1F
100
AcDbEntity
  8
DETAILS
 62
     6
370
    20
100
AcDbCircle
 10
-22.04035918495572
 20
72.87280712858936
 30
0.0
 40
0.1500000000000909
100
AcDbArc
 50
270.0000000001563
 51
43.83086067193248
  0
LINE
  5
13B8
330
1F
100
AcDbEntity
  8
DETAILS
 62
     6
370
    20
100
AcDbLine
 10
-21.93215108679976
 20
72.97668690281742
 30
0.0
 11
-22.45153321070609
 21
73.51770994855385
 31
0.0
  0
ARC
  5
13B9
330
1F
100
AcDbEntity
  8
DETAILS
 62
     6
370
    20
100
AcDbCircle
 10
-22.55974130886114
 20
73.41383017432534
 30
0.0
 40
0.1499999999999651
100
AcDbArc
 50
43.83086067209848
 51
179.9999999999739
  0
LINE
  5
13BA
330
1F
100
AcDbEntity
  8
DETAILS
 62
     6
370
    20
100
AcDbLine
 10
-22.70974130886168
 20
73.41383017432534
 30
0.0
 11
-22.70974130886168
 21
72.87280712858891
 31
0.0
  0
ARC
  5
13BB
330
1F
100
AcDbEntity
  8
DETAILS
 62
     6
370
    20
100
AcDbCircle
 10
-22.55974130886205
 20
72.87280712858891
 30
0.0
 40
0.1499999999996362
100
AcDbArc
 50
179.9999999999479
 51
270.0000000001563
  0
LINE
  5
13BC
330
1F
100
AcDbEntity
  8
DETAILS
 62
     6
370
    20
100
AcDbLine
 10
-22.70974130886168
 20
71.35280712858937
 30
0.0
 11
-22.70974130886168
 21
70.81178408285293
 31
0.0
  0
ARC
  5
13BD
330
1F
100
AcDbEntity
  8
DETAILS
 62
     6
370
    20
100
AcDbCircle
 10
-22.55974130886114
 20
70.81178408285293
 30
0.0
 40
0.1500000000000909
100
AcDbArc
 50
180.000000000026
 51
316.1691393279015
  0
LINE
  5
13BE
330
1F
100
AcDbEntity
  8
DETAILS
 62
     6
370
    20
100
AcDbLine
 10
-22.45153321070609
 20
70.70790430862487
 30
0.0
 11
-21.93215108679976
 21
71.24892735436086
 31
0.0
  0
ARC
  5
13BF
330
1F
100
AcDbEntity
  8
DETAILS
 62
     6
370
    20
100
AcDbCircle
 10
-22.04035918495572
 20
71.35280712858937
 30
0.0
 40
0.1500000000001751
100
AcDbArc
 50
316.1691393280675
 51
89.99999999984366
  0
LINE
  5
13C0
330
1F
100
AcDbEntity
  8
DETAILS
 62
     6
370
    20
100
AcDbLine
 10
-22.04035918495481
 20
71.50280712858901
 30
0.0
 11
-22.55974130886205
 21
71.50280712858901
 31
0.0
  0
ARC
  5
13C1
330
1F
100
AcDbEntity
  8
DETAILS
 62
     6
370
    20
100
AcDbCircle
 10
-22.55974130886205
 20
71.35280712858937
 30
0.0
 40
0.1499999999998636
100
AcDbArc
 50
89.99999999984366
 51
180.0000000000521
  0
LINE
  5
13C2
330
1F
100
AcDbEntity
  8
DETAILS
 62
     6
370
    20
100
AcDbLine
 10
-22.55974130886205
 20
72.77280712858945
 30
0.0
 11
-22.04035918495481
 21
72.77280712858945
 31
0.0
  0
ARC
  5
13C3
330
1F
100
AcDbEntity
  8
DETAILS
 62
     6
370
    20
100
AcDbCircle
 10
-22.04035918495481
 20
72.87280712858891
 30
0.0
 40
0.1000000000000227
100
AcDbArc
 50
270.0
 51
43.83086067200606
  0
LINE
  5
13C4
330
1F
100
AcDbEntity
  8
DETAILS
 62
     6
370
    20
100
AcDbLine
 10
-21.96822045285114
 20
72.94206031140792
 30
0.0
 11
-22.48760257675747
 21
73.48308335714435
 31
0.0
  0
ARC
  5
13C5
330
1F
100
AcDbEntity
  8
DETAILS
 62
     6
370
    20
100
AcDbCircle
 10
-22.55974130886114
 20
73.41383017432534
 30
0.0
 40
0.1000000000001123
100
AcDbArc
 50
43.8308606720609
 51
180.0
  0
LINE
  5
13C6
330
1F
100
AcDbEntity
  8
DETAILS
 62
     6
370
    20
100
AcDbLine
 10
-22.65974130886059
 20
73.41383017432534
 30
0.0
 11
-22.6597413088615
 21
72.87280712858891
 31
0.0
  0
ARC
  5
13C7
330
1F
100
AcDbEntity
  8
DETAILS
 62
     6
370
    20
100
AcDbCircle
 10
-22.55974130886114
 20
72.87280712858936
 30
0.0
 40
0.1000000000003638
100
AcDbArc
 50
180.0000000001302
 51
269.9999999997394
  0
LINE
  5
13C8
330
1F
100
AcDbEntity
  8
DETAILS
 62
     6
370
    20
100
AcDbLine
 10
-22.6597413088615
 20
71.35280712858937
 30
0.0
 11
-22.65974130886059
 21
70.81178408285293
 31
0.0
  0
ARC
  5
13C9
330
1F
100
AcDbEntity
  8
DETAILS
 62
     6
370
    20
100
AcDbCircle
 10
-22.55974130886114
 20
70.81178408285293
 30
0.0
 40
0.0999999999999091
100
AcDbArc
 50
179.9999999999739
 51
316.1691393279939
  0
LINE
  5
13CA
330
1F
100
AcDbEntity
  8
DETAILS
 62
     6
370
    20
100
AcDbLine
 10
-22.48760257675747
 20
70.74253090003438
 30
0.0
 11
-21.96822045285114
 21
71.28355394577036
 31
0.0
  0
ARC
  5
13CB
330
1F
100
AcDbEntity
  8
DETAILS
 62
     6
370
    20
100
AcDbCircle
 10
-22.04035918495481
 20
71.35280712858937
 30
0.0
 40
0.1000000000000336
100
AcDbArc
 50
316.1691393279939
 51
90.0
  0
LINE
  5
13CC
330
1F
100
AcDbEntity
  8
DETAILS
 62
     6
370
    20
100
AcDbLine
 10
-22.04035918495481
 20
71.45280712858928
 30
0.0
 11
-22.55974130886205
 21
71.45280712858928
 31
0.0
  0
ARC
  5
13CD
330
1F
100
AcDbEntity
  8
DETAILS
 62
     6
370
    20
100
AcDbCircle
 10
-22.55974130886114
 20
71.35280712858892
 30
0.0
 40
0.1000000000001364
100
AcDbArc
 50
90.00000000026055
 51
179.9999999998697
  0
LINE
  5
13CE
330
1F
100
AcDbEntity
  8
DETAILS
 62
     6
370
    20
100
AcDbLine
 10
-16.83474130886441
 20
77.47780712858937
 30
0.0
 11
-16.8347413088635
 21
66.78006083721519
 31
0.0
  0
LINE
  5
13CF
330
1F
100
AcDbEntity
  8
DETAILS
 62
     6
370
    20
100
AcDbLine
 10
-17.35974130886495
 20
72.87280712858891
 30
0.0
 11
-17.35974130886495
 21
73.41383017432534
 31
0.0
  0
ARC
  5
13D0
330
1F
100
AcDbEntity
  8
DETAILS
 62
     6
370
    20
100
AcDbCircle
 10
-17.5097413088655
 20
73.41383017432534
 30
0.0
 40
0.1500000000000909
100
AcDbArc
 50
0.0000000000260551
 51
136.1691393279015
  0
LINE
  5
13D1
330
1F
100
AcDbEntity
  8
DETAILS
 62
     6
370
    20
100
AcDbLine
 10
-17.61794940702055
 20
73.51770994855385
 30
0.0
 11
-18.13733153092687
 21
72.97668690281742
 31
0.0
  0
ARC
  5
13D2
330
1F
100
AcDbEntity
  8
DETAILS
 62
     6
370
    20
100
AcDbCircle
 10
-18.02912343277091
 20
72.87280712858936
 30
0.0
 40
0.1500000000001751
100
AcDbArc
 50
136.1691393280675
 51
269.9999999998437
  0
LINE
  5
13D3
330
1F
100
AcDbEntity
  8
DETAILS
 62
     6
370
    20
100
AcDbLine
 10
-18.02912343277182
 20
72.72280712858926
 30
0.0
 11
-17.50974130886459
 21
72.72280712858926
 31
0.0
  0
ARC
  5
13D4
330
1F
100
AcDbEntity
  8
DETAILS
 62
     6
370
    20
100
AcDbCircle
 10
-17.50974130886459
 20
72.87280712858891
 30
0.0
 40
0.1499999999998067
100
AcDbArc
 50
269.9999999998437
 51
0.0000000000781653
  0
LINE
  5
13D5
330
1F
100
AcDbEntity
  8
DETAILS
 62
     6
370
    20
100
AcDbLine
 10
-17.50974130886459
 20
71.50280712858901
 30
0.0
 11
-18.02912343277182
 21
71.50280712858901
 31
0.0
  0
ARC
  5
13D6
330
1F
100
AcDbEntity
  8
DETAILS
 62
     6
370
    20
100
AcDbCircle
 10
-18.02912343277091
 20
71.35280712858937
 30
0.0
 40
0.1500000000001478
100
AcDbArc
 50
90.00000000015633
 51
223.8308606719325
  0
LINE
  5
13D7
330
1F
100
AcDbEntity
  8
DETAILS
 62
     6
370
    20
100
AcDbLine
 10
-18.13733153092687
 20
71.24892735436086
 30
0.0
 11
-17.61794940702055
 21
70.70790430862487
 31
0.0
  0
ARC
  5
13D8
330
1F
100
AcDbEntity
  8
DETAILS
 62
     6
370
    20
100
AcDbCircle
 10
-17.5097413088655
 20
70.81178408285293
 30
0.0
 40
0.1499999999999651
100
AcDbArc
 50
223.8308606720985
 51
359.999999999974
  0
LINE
  5
13D9
330
1F
100
AcDbEntity
  8
DETAILS
 62
     6
370
    20
100
AcDbLine
 10
-17.35974130886495
 20
70.81178408285293
 30
0.0
 11
-17.35974130886495
 21
71.35280712858937
 31
0.0
  0
ARC
  5
13DA
330
1F
100
AcDbEntity
  8
DETAILS
 62
     6
370
    20
100
AcDbCircle
 10
-17.50974130886459
 20
71.35280712858937
 30
0.0
 40
0.1499999999996362
100
AcDbArc
 50
359.9999999999218
 51
90.00000000015633
  0
ARC
  5
13DB
330
1F
100
AcDbEntity
  8
DETAILS
 62
     6
370
    20
100
AcDbCircle
 10
-21.55983221112763
 20
70.59780712858927
 30
0.0
 40
0.010000000000022
100
AcDbArc
 50
97.40989078445366
 51
262.5901092155463
  0
LINE
  5
13DC
330
1F
100
AcDbEntity
  8
DETAILS
 62
     6
370
    20
100
AcDbLine
 10
-21.56112187896395
 20
70.58789063944849
 30
0.0
 11
-21.40501178936063
 21
70.57280712858918
 31
0.0
  0
LINE
  5
13DD
330
1F
100
AcDbEntity
  8
DETAILS
 62
     6
370
    20
100
AcDbLine
 10
-21.40501178936063
 20
70.57280712858918
 30
0.0
 11
-20.03474130886332
 21
70.57280712858918
 31
0.0
  0
LINE
  5
13DE
330
1F
100
AcDbEntity
  8
DETAILS
 62
     6
370
    20
100
AcDbLine
 10
-20.03474130886332
 20
70.57280712858918
 30
0.0
 11
-18.664470828366
 21
70.57280712858918
 31
0.0
  0
LINE
  5
13DF
330
1F
100
AcDbEntity
  8
DETAILS
 62
     6
370
    20
100
AcDbLine
 10
-18.664470828366
 20
70.57280712858918
 30
0.0
 11
-18.50836073876269
 21
70.58789063944849
 31
0.0
  0
ARC
  5
13E0
330
1F
100
AcDbEntity
  8
DETAILS
 62
     6
370
    20
100
AcDbCircle
 10
-18.509650406599
 20
70.59780712858927
 30
0.0
 40
0.0099999999999656
100
AcDbArc
 50
277.4098907844536
 51
82.59010921554635
  0
LINE
  5
13E1
330
1F
100
AcDbEntity
  8
DETAILS
 62
     6
370
    20
100
AcDbLine
 10
-18.50836073876269
 20
70.60772361772959
 30
0.0
 11
-18.6644708283651
 21
70.62280712858935
 31
0.0
  0
LINE
  5
13E2
330
1F
100
AcDbEntity
  8
DETAILS
 62
     6
370
    20
100
AcDbLine
 10
-18.6644708283651
 20
70.62280712858935
 30
0.0
 11
-20.03474130886332
 21
70.62280712858935
 31
0.0
  0
LINE
  5
13E3
330
1F
100
AcDbEntity
  8
DETAILS
 62
     6
370
    20
100
AcDbLine
 10
-20.03474130886332
 20
70.62280712858935
 30
0.0
 11
-21.40501178936063
 21
70.6228071285889
 31
0.0
  0
LINE
  5
13E4
330
1F
100
AcDbEntity
  8
DETAILS
 62
     6
370
    20
100
AcDbLine
 10
-21.40501178936063
 20
70.6228071285889
 30
0.0
 11
-21.56112187896395
 21
70.60772361772959
 31
0.0
  0
ARC
  5
13E5
330
1F
100
AcDbEntity
  8
DETAILS
 62
     6
370
    20
100
AcDbCircle
 10
-18.15236309647514
 20
74.33280712858939
 30
0.0
 40
0.1000000000001364
100
AcDbArc
 50
270.0000000002606
 51
316.1691393281413
  0
LINE
  5
13E6
330
1F
100
AcDbEntity
  8
DETAILS
 62
     6
370
    20
100
AcDbLine
 10
-18.08022436437056
 20
74.26355394577038
 30
0.0
 11
-16.96260257676238
 21
75.45378497453047
 31
0.0
  0
ARC
  5
13E7
330
1F
100
AcDbEntity
  8
DETAILS
 62
     6
370
    20
100
AcDbCircle
 10
-17.03474130886332
 20
75.52303815734948
 30
0.0
 40
0.0999999999994431
100
AcDbArc
 50
316.1691393272021
 51
359.9999999992444
  0
ARC
  5
13E8
330
1F
100
AcDbEntity
  8
DETAILS
 62
     6
370
    20
100
AcDbCircle
 10
-23.03474818855045
 20
75.52303815734811
 30
0.0
 40
0.0999999999999091
100
AcDbArc
 50
179.9999999998697
 51
223.8308606719873
  0
LINE
  5
13E9
330
1F
100
AcDbEntity
  8
DETAILS
 62
     6
370
    20
100
AcDbLine
 10
-23.10688692065321
 20
75.45378497452955
 30
0.0
 11
-21.98925825335607
 21
74.26355394577038
 31
0.0
  0
ARC
  5
13EA
330
1F
100
AcDbEntity
  8
DETAILS
 62
     6
370
    20
100
AcDbCircle
 10
-21.9171195212524
 20
74.33280712858939
 30
0.0
 40
0.1000000000001911
100
AcDbArc
 50
223.8308606721347
 51
270.0
  0
LINE
  5
13EB
330
1F
100
AcDbEntity
  8
DETAILS
 62
     6
370
    20
100
AcDbLine
 10
-21.9171195212524
 20
74.23280712858948
 30
0.0
 11
-21.90974130886241
 21
74.23280712858948
 31
0.0
  0
LINE
  5
13EC
330
1F
100
AcDbEntity
  8
DETAILS
 62
     6
370
    20
100
AcDbLine
 10
-21.90974130886241
 20
74.23280712858948
 30
0.0
 11
-21.90974130886241
 21
74.1828071285893
 31
0.0
  0
LINE
  5
13ED
330
1F
100
AcDbEntity
  8
DETAILS
 62
     6
370
    20
100
AcDbLine
 10
-21.90974130886241
 20
74.1828071285893
 30
0.0
 11
-21.80974130886204
 21
74.1828071285893
 31
0.0
  0
ARC
  5
13EE
330
1F
100
AcDbEntity
  8
DETAILS
 62
     6
370
    20
100
AcDbCircle
 10
-21.80974130886204
 20
74.13280712858912
 30
0.0
 40
0.0500000000001819
100
AcDbArc
 50
359.9999999998697
 51
90.0
  0
LINE
  5
13EF
330
1F
100
AcDbEntity
  8
DETAILS
 62
     6
370
    20
100
AcDbLine
 10
-21.75974130886095
 20
74.13280712858912
 30
0.0
 11
-21.75974130886277
 21
74.07780712858929
 31
0.0
  0
ARC
  5
13F0
330
1F
100
AcDbEntity
  8
DETAILS
 62
     6
370
    20
100
AcDbCircle
 10
-21.33474130886168
 20
74.07780712858883
 30
0.0
 40
0.4250000000001819
100
AcDbArc
 50
179.9999999999739
 51
359.999999999974
  0
LINE
  5
13F1
330
1F
100
AcDbEntity
  8
DETAILS
 62
     6
370
    20
100
AcDbLine
 10
-20.90974130886241
 20
74.07780712858883
 30
0.0
 11
-20.90974130886241
 21
74.13280712858912
 31
0.0
  0
ARC
  5
13F2
330
1F
100
AcDbEntity
  8
DETAILS
 62
     6
370
    20
100
AcDbCircle
 10
-20.85974130886222
 20
74.13280712858912
 30
0.0
 40
0.0500000000001819
100
AcDbArc
 50
90.0
 51
179.9999999996613
  0
LINE
  5
13F3
330
1F
100
AcDbEntity
  8
DETAILS
 62
     6
370
    20
100
AcDbLine
 10
-20.85974130886222
 20
74.1828071285893
 30
0.0
 11
-20.50974130886277
 21
74.1828071285893
 31
0.0
  0
ARC
  5
13F4
330
1F
100
AcDbEntity
  8
DETAILS
 62
     6
370
    20
100
AcDbCircle
 10
-20.50974130886277
 20
74.13280712858912
 30
0.0
 40
0.0500000000001819
100
AcDbArc
 50
359.9999999998697
 51
90.0
  0
LINE
  5
13F5
330
1F
100
AcDbEntity
  8
DETAILS
 62
     6
370
    20
100
AcDbLine
 10
-20.45974130886259
 20
74.13280712858912
 30
0.0
 11
-20.4597413088635
 21
74.0778071285861
 31
0.0
  0
ARC
  5
13F6
330
1F
100
AcDbEntity
  8
DETAILS
 62
     6
370
    20
100
AcDbCircle
 10
-20.03474130886241
 20
74.0778071285861
 30
0.0
 40
0.4250000000001819
100
AcDbArc
 50
180.0
 51
270.0
  0
ARC
  5
13F7
330
1F
100
AcDbEntity
  8
DETAILS
 62
     6
370
    20
100
AcDbCircle
 10
-20.03474130886332
 20
74.0778071285861
 30
0.0
 40
0.4249999999997272
100
AcDbArc
 50
270.0000000000521
 51
0.0000000000521102
  0
LINE
  5
13F8
330
1F
100
AcDbEntity
  8
DETAILS
 62
     6
370
    20
100
AcDbLine
 10
-19.60974130886313
 20
74.0778071285861
 30
0.0
 11
-19.60974130886404
 21
74.13280712858912
 31
0.0
  0
ARC
  5
13F9
330
1F
100
AcDbEntity
  8
DETAILS
 62
     6
370
    20
100
AcDbCircle
 10
-19.55974130886386
 20
74.13280712858912
 30
0.0
 40
0.0500000000001819
100
AcDbArc
 50
90.0
 51
180.0
  0
LINE
  5
13FA
330
1F
100
AcDbEntity
  8
DETAILS
 62
     6
370
    20
100
AcDbLine
 10
-19.55974130886386
 20
74.1828071285893
 30
0.0
 11
-19.20974130886441
 21
74.1828071285893
 31
0.0
  0
ARC
  5
13FB
330
1F
100
AcDbEntity
  8
DETAILS
 62
     6
370
    20
100
AcDbCircle
 10
-19.20974130886441
 20
74.13280712858912
 30
0.0
 40
0.0500000000001819
100
AcDbArc
 50
0.000000000260551
 51
90.0
  0
LINE
  5
13FC
330
1F
100
AcDbEntity
  8
DETAILS
 62
     6
370
    20
100
AcDbLine
 10
-19.15974130886423
 20
74.13280712858912
 30
0.0
 11
-19.15974130886423
 21
74.07780712858883
 31
0.0
  0
ARC
  5
13FD
330
1F
100
AcDbEntity
  8
DETAILS
 62
     6
370
    20
100
AcDbCircle
 10
-18.73474130886404
 20
74.07780712858883
 30
0.0
 40
0.4249999999997272
100
AcDbArc
 50
180.000000000026
 51
0.0000000000260551
  0
LINE
  5
13FE
330
1F
100
AcDbEntity
  8
DETAILS
 62
     6
370
    20
100
AcDbLine
 10
-18.30974130886386
 20
74.07780712858929
 30
0.0
 11
-18.30974130886568
 21
74.13280712858912
 31
0.0
  0
ARC
  5
13FF
330
1F
100
AcDbEntity
  8
DETAILS
 62
     6
370
    20
100
AcDbCircle
 10
-18.25974130886459
 20
74.13280712858912
 30
0.0
 40
0.0500000000001819
100
AcDbArc
 50
90.0
 51
180.0
  0
LINE
  5
1400
330
1F
100
AcDbEntity
  8
DETAILS
 62
     6
370
    20
100
AcDbLine
 10
-18.25974130886459
 20
74.1828071285893
 30
0.0
 11
-18.15974130886423
 21
74.1828071285893
 31
0.0
  0
LINE
  5
1401
330
1F
100
AcDbEntity
  8
DETAILS
 62
     6
370
    20
100
AcDbLine
 10
-18.15974130886423
 20
74.1828071285893
 30
0.0
 11
-18.15974130886423
 21
74.23280712858948
 31
0.0
  0
LINE
  5
1402
330
1F
100
AcDbEntity
  8
DETAILS
 62
     6
370
    20
100
AcDbLine
 10
-18.15974130886423
 20
74.23280712858948
 30
0.0
 11
-18.15236309647423
 21
74.23280712858948
 31
0.0
  0
LINE
  5
1403
330
1F
100
AcDbEntity
  8
DETAILS
 62
     6
370
    20
100
AcDbLine
 10
-18.15236309647423
 20
74.23280712858948
 30
0.0
 11
-18.30974130886477
 21
74.23280712858948
 31
0.0
  0
ARC
  5
1404
330
1F
100
AcDbEntity
  8
DETAILS
 62
     6
370
    20
100
AcDbCircle
 10
-18.30974130886477
 20
74.1828071285893
 30
0.0
 40
0.0500000000001819
100
AcDbArc
 50
90.0
 51
179.9999999998697
  0
LINE
  5
1405
330
1F
100
AcDbEntity
  8
DETAILS
 62
     6
370
    20
100
AcDbLine
 10
-18.35974130886495
 20
74.1828071285893
 30
0.0
 11
-18.35974130886495
 21
74.07780712858929
 31
0.0
  0
ARC
  5
1406
330
1F
100
AcDbEntity
  8
DETAILS
 62
     6
370
    20
100
AcDbCircle
 10
-18.73474130886495
 20
74.07780712858883
 30
0.0
 40
0.375
100
AcDbArc
 50
180.0
 51
0.0
  0
LINE
  5
1407
330
1F
100
AcDbEntity
  8
DETAILS
 62
     6
370
    20
100
AcDbLine
 10
-19.10974130886495
 20
74.07780712858883
 30
0.0
 11
-19.10974130886495
 21
74.1828071285893
 31
0.0
  0
ARC
  5
1408
330
1F
100
AcDbEntity
  8
DETAILS
 62
     6
370
    20
100
AcDbCircle
 10
-19.15974130886423
 20
74.1828071285893
 30
0.0
 40
0.0500000000001819
100
AcDbArc
 50
0.0000000001302755
 51
90.0
  0
LINE
  5
1409
330
1F
100
AcDbEntity
  8
DETAILS
 62
     6
370
    20
100
AcDbLine
 10
-19.15974130886423
 20
74.23280712858948
 30
0.0
 11
-19.60974130886495
 21
74.23280712858948
 31
0.0
  0
ARC
  5
140A
330
1F
100
AcDbEntity
  8
DETAILS
 62
     6
370
    20
100
AcDbCircle
 10
-19.60974130886495
 20
74.1828071285893
 30
0.0
 40
0.0500000000001251
100
AcDbArc
 50
90.0
 51
179.9999999998697
  0
LINE
  5
140B
330
1F
100
AcDbEntity
  8
DETAILS
 62
     6
370
    20
100
AcDbLine
 10
-19.65974130886422
 20
74.1828071285893
 30
0.0
 11
-19.65974130886422
 21
74.0778071285861
 31
0.0
  0
ARC
  5
140C
330
1F
100
AcDbEntity
  8
DETAILS
 62
     6
370
    20
100
AcDbCircle
 10
-20.03474130886332
 20
74.0778071285861
 30
0.0
 40
0.3749999999995452
100
AcDbArc
 50
270.0000000000521
 51
0.0000000000521102
  0
ARC
  5
140D
330
1F
100
AcDbEntity
  8
DETAILS
 62
     6
370
    20
100
AcDbCircle
 10
-20.03474130886241
 20
74.0778071285861
 30
0.0
 40
0.3749999999998295
100
AcDbArc
 50
180.0
 51
269.9999999999479
  0
LINE
  5
140E
330
1F
100
AcDbEntity
  8
DETAILS
 62
     6
370
    20
100
AcDbLine
 10
-20.40974130886241
 20
74.0778071285861
 30
0.0
 11
-20.40974130886241
 21
74.1828071285893
 31
0.0
  0
ARC
  5
140F
330
1F
100
AcDbEntity
  8
DETAILS
 62
     6
370
    20
100
AcDbCircle
 10
-20.45974130886168
 20
74.1828071285893
 30
0.0
 40
0.0500000000001819
100
AcDbArc
 50
0.0000000001302755
 51
90.0
  0
LINE
  5
1410
330
1F
100
AcDbEntity
  8
DETAILS
 62
     6
370
    20
100
AcDbLine
 10
-20.45974130886168
 20
74.23280712858948
 30
0.0
 11
-20.90974130886241
 21
74.23280712858948
 31
0.0
  0
ARC
  5
1411
330
1F
100
AcDbEntity
  8
DETAILS
 62
     6
370
    20
100
AcDbCircle
 10
-20.90974130886241
 20
74.1828071285893
 30
0.0
 40
0.0500000000001819
100
AcDbArc
 50
90.0
 51
179.9999999998697
  0
LINE
  5
1412
330
1F
100
AcDbEntity
  8
DETAILS
 62
     6
370
    20
100
AcDbLine
 10
-20.95974130886168
 20
74.1828071285893
 30
0.0
 11
-20.95974130886168
 21
74.07780712858883
 31
0.0
  0
ARC
  5
1413
330
1F
100
AcDbEntity
  8
DETAILS
 62
     6
370
    20
100
AcDbCircle
 10
-21.33474130886168
 20
74.07780712858883
 30
0.0
 40
0.3749999999995452
100
AcDbArc
 50
179.9999999999739
 51
0.0
  0
LINE
  5
1414
330
1F
100
AcDbEntity
  8
DETAILS
 62
     6
370
    20
100
AcDbLine
 10
-21.70974130886168
 20
74.07780712858929
 30
0.0
 11
-21.70974130886168
 21
74.1828071285893
 31
0.0
  0
ARC
  5
1415
330
1F
100
AcDbEntity
  8
DETAILS
 62
     6
370
    20
100
AcDbCircle
 10
-21.75974130886186
 20
74.1828071285893
 30
0.0
 40
0.0500000000001819
100
AcDbArc
 50
0.0000000001302755
 51
90.0
  0
LINE
  5
1416
330
1F
100
AcDbEntity
  8
DETAILS
 62
     6
370
    20
100
AcDbLine
 10
-21.75974130886186
 20
74.23280712858948
 30
0.0
 11
-21.9171195212524
 21
74.23280712858948
 31
0.0
  0
LINE
  5
1417
330
1F
100
AcDbEntity
  8
DETAILS
 62
     6
370
    20
100
AcDbLine
 10
-16.93474130886295
 20
68.76138577235249
 30
0.0
 11
-16.93474130886386
 21
66.75326591797082
 31
0.0
  0
LINE
  5
1418
330
1F
100
AcDbEntity
  8
DETAILS
 62
     6
370
    20
100
AcDbLine
 10
-23.13474130886277
 20
66.75326591797082
 30
0.0
 11
-23.13474130886368
 21
68.76138577235249
 31
0.0
  0
LINE
  5
1419
330
1F
100
AcDbEntity
  8
DETAILS
 62
     6
370
    20
100
AcDbLine
 10
-23.23474130886314
 20
77.43895087958506
 30
0.0
 11
-23.23474130886314
 21
77.47555341996283
 31
0.0
  0
ARC
  5
141A
330
1F
100
AcDbEntity
  8
DETAILS
 62
     6
370
    20
100
AcDbCircle
 10
-23.28474130886332
 20
77.47555341996238
 30
0.0
 40
0.0500000000001819
100
AcDbArc
 50
0.0000000004429368
 51
30.00000000045302
  0
LINE
  5
141B
330
1F
100
AcDbEntity
  8
DETAILS
 62
     6
370
    20
100
AcDbLine
 10
-23.24144003867457
 20
77.50055341996293
 30
0.0
 11
-23.28712899330037
 21
77.57968901072243
 31
0.0
  0
LINE
  5
141C
330
1F
100
AcDbEntity
  8
DETAILS
 62
     6
370
    20
100
AcDbLine
 10
-23.28712899330037
 20
77.57968901072243
 30
0.0
 11
-23.20052645292287
 21
77.62968901072216
 31
0.0
  0
LINE
  5
141D
330
1F
100
AcDbEntity
  8
DETAILS
 62
     6
370
    20
100
AcDbLine
 10
-23.20052645292287
 20
77.62968901072216
 30
0.0
 11
-23.1414400386742
 21
77.5273483392073
 31
0.0
  0
ARC
  5
141E
330
1F
100
AcDbEntity
  8
DETAILS
 62
     6
370
    20
100
AcDbCircle
 10
-23.18474130886295
 20
77.5023483392072
 30
0.0
 40
0.0499999999997213
100
AcDbArc
 50
0.0000000003387164
 51
30.00000000054676
  0
LINE
  5
141F
330
1F
100
AcDbEntity
  8
DETAILS
 62
     6
370
    20
100
AcDbLine
 10
-23.13474130886368
 20
77.5023483392072
 30
0.0
 11
-23.13474130886186
 21
75.52303815734856
 31
0.0
  0
LINE
  5
1420
330
1F
100
AcDbEntity
  8
DETAILS
 62
     6
370
    20
100
AcDbLine
 10
-23.13474130886186
 20
75.52303815734856
 30
0.0
 11
-23.13474130886277
 21
68.76138577235295
 31
0.0
  0
ARC
  5
1421
330
1F
100
AcDbEntity
  8
DETAILS
 62
     6
370
    20
100
AcDbCircle
 10
-23.03474130886332
 20
68.76138577235295
 30
0.0
 40
0.0999999999999091
100
AcDbArc
 50
135.0000000001474
 51
180.0000000001302
  0
LINE
  5
1422
330
1F
100
AcDbEntity
  8
DETAILS
 62
     6
370
    20
100
AcDbLine
 10
-23.10545198698162
 20
68.83209645047125
 30
0.0
 11
-21.45367529168414
 21
70.50887314576701
 31
0.0
  0
ARC
  5
1423
330
1F
100
AcDbEntity
  8
DETAILS
 62
     6
370
    20
100
AcDbCircle
 10
-21.34760927450622
 20
70.40280712858955
 30
0.0
 40
0.1499999999998163
100
AcDbArc
 50
90.0
 51
135.0000000000184
  0
LINE
  5
1424
330
1F
100
AcDbEntity
  8
DETAILS
 62
     6
370
    20
100
AcDbLine
 10
-21.34760927450622
 20
70.5528071285892
 30
0.0
 11
-20.03474130886332
 21
70.5528071285892
 31
0.0
  0
LINE
  5
1425
330
1F
100
AcDbEntity
  8
DETAILS
 62
     6
370
    20
100
AcDbLine
 10
-20.03474130886332
 20
70.5528071285892
 30
0.0
 11
-18.72187334322041
 21
70.5528071285892
 31
0.0
  0
ARC
  5
1426
330
1F
100
AcDbEntity
  8
DETAILS
 62
     6
370
    20
100
AcDbCircle
 10
-18.72187334322041
 20
70.40280712858955
 30
0.0
 40
0.1499999999998067
100
AcDbArc
 50
44.99999999998157
 51
90.0
  0
LINE
  5
1427
330
1F
100
AcDbEntity
  8
DETAILS
 62
     6
370
    20
100
AcDbLine
 10
-18.6158073260425
 20
70.50887314576701
 30
0.0
 11
-16.9640306307441
 21
68.83209645047125
 31
0.0
  0
ARC
  5
1428
330
1F
100
AcDbEntity
  8
DETAILS
 62
     6
370
    20
100
AcDbCircle
 10
-17.03474130886332
 20
68.76138577235295
 30
0.0
 40
0.0999999999999044
100
AcDbArc
 50
359.9999999998958
 51
44.99999999985261
  0
LINE
  5
1429
330
1F
100
AcDbEntity
  8
DETAILS
 62
     6
370
    20
100
AcDbLine
 10
-16.93474130886295
 20
68.76138577235295
 30
0.0
 11
-16.93474130886477
 21
75.52303815734856
 31
0.0
  0
LINE
  5
142A
330
1F
100
AcDbEntity
  8
DETAILS
 62
     6
370
    20
100
AcDbLine
 10
-16.93474130886477
 20
75.52303815734856
 30
0.0
 11
-16.93474130886295
 21
77.5023483392072
 31
0.0
  0
ARC
  5
142B
330
1F
100
AcDbEntity
  8
DETAILS
 62
     6
370
    20
100
AcDbCircle
 10
-16.88474130886368
 20
77.5023483392072
 30
0.0
 40
0.0500000000001819
100
AcDbArc
 50
149.9999999997345
 51
179.9999999997394
  0
LINE
  5
142C
330
1F
100
AcDbEntity
  8
DETAILS
 62
     6
370
    20
100
AcDbLine
 10
-16.92804257905243
 20
77.52734833920775
 30
0.0
 11
-16.86895616480376
 21
77.62968901072216
 31
0.0
  0
LINE
  5
142D
330
1F
100
AcDbEntity
  8
DETAILS
 62
     6
370
    20
100
AcDbLine
 10
-16.86895616480376
 20
77.62968901072216
 30
0.0
 11
-16.78235362442626
 21
77.57968901072243
 31
0.0
  0
LINE
  5
142E
330
1F
100
AcDbEntity
  8
DETAILS
 62
     6
370
    20
100
AcDbLine
 10
-16.78235362442626
 20
77.57968901072243
 30
0.0
 11
-16.82804257905206
 21
77.50055341996293
 31
0.0
  0
ARC
  5
142F
330
1F
100
AcDbEntity
  8
DETAILS
 62
     6
370
    20
100
AcDbCircle
 10
-16.78474130886332
 20
77.47555341996238
 30
0.0
 40
0.0500000000002004
100
AcDbArc
 50
149.999999999547
 51
179.999999999531
  0
LINE
  5
1430
330
1F
100
AcDbEntity
  8
DETAILS
 62
     6
370
    20
100
AcDbLine
 10
-16.8347413088635
 20
77.47555341996283
 30
0.0
 11
-16.8347413088635
 21
77.43895087958506
 31
0.0
  0
LINE
  5
1431
330
1F
100
AcDbEntity
  8
DETAILS
 62
     6
370
    20
100
AcDbLine
 10
-17.40974130886513
 20
72.87280712858891
 30
0.0
 11
-17.40974130886604
 21
73.41383017432534
 31
0.0
  0
ARC
  5
1432
330
1F
100
AcDbEntity
  8
DETAILS
 62
     6
370
    20
100
AcDbCircle
 10
-17.5097413088655
 20
73.41383017432534
 30
0.0
 40
0.0999999999999091
100
AcDbArc
 50
0.0
 51
136.1691393279388
  0
LINE
  5
1433
330
1F
100
AcDbEntity
  8
DETAILS
 62
     6
370
    20
100
AcDbLine
 10
-17.58188004096917
 20
73.48308335714435
 30
0.0
 11
-18.10126216487549
 21
72.94206031140792
 31
0.0
  0
ARC
  5
1434
330
1F
100
AcDbEntity
  8
DETAILS
 62
     6
370
    20
100
AcDbCircle
 10
-18.02912343277182
 20
72.87280712858936
 30
0.0
 40
0.1000000000000336
100
AcDbArc
 50
136.1691393279939
 51
270.0
  0
LINE
  5
1435
330
1F
100
AcDbEntity
  8
DETAILS
 62
     6
370
    20
100
AcDbLine
 10
-18.02912343277182
 20
72.77280712858945
 30
0.0
 11
-17.50974130886459
 21
72.77280712858945
 31
0.0
  0
ARC
  5
1436
330
1F
100
AcDbEntity
  8
DETAILS
 62
     6
370
    20
100
AcDbCircle
 10
-17.5097413088655
 20
72.87280712858936
 30
0.0
 40
0.1000000000001364
100
AcDbArc
 50
270.0000000002606
 51
359.9999999998958
  0
LINE
  5
1437
330
1F
100
AcDbEntity
  8
DETAILS
 62
     6
370
    20
100
AcDbLine
 10
-17.50974130886459
 20
71.45280712858928
 30
0.0
 11
-18.02912343277182
 21
71.45280712858928
 31
0.0
  0
ARC
  5
1438
330
1F
100
AcDbEntity
  8
DETAILS
 62
     6
370
    20
100
AcDbCircle
 10
-18.02912343277182
 20
71.35280712858937
 30
0.0
 40
0.1000000000000227
100
AcDbArc
 50
90.0
 51
223.830860672006
  0
LINE
  5
1439
330
1F
100
AcDbEntity
  8
DETAILS
 62
     6
370
    20
100
AcDbLine
 10
-18.10126216487549
 20
71.28355394577036
 30
0.0
 11
-17.58188004096917
 21
70.74253090003438
 31
0.0
  0
ARC
  5
143A
330
1F
100
AcDbEntity
  8
DETAILS
 62
     6
370
    20
100
AcDbCircle
 10
-17.5097413088655
 20
70.81178408285293
 30
0.0
 40
0.1000000000000336
100
AcDbArc
 50
223.830860672006
 51
0.0000000000260551
  0
LINE
  5
143B
330
1F
100
AcDbEntity
  8
DETAILS
 62
     6
370
    20
100
AcDbLine
 10
-17.40974130886604
 20
70.81178408285293
 30
0.0
 11
-17.40974130886513
 21
71.35280712858937
 31
0.0
  0
ARC
  5
143C
330
1F
100
AcDbEntity
  8
DETAILS
 62
     6
370
    20
100
AcDbCircle
 10
-17.5097413088655
 20
71.35280712858892
 30
0.0
 40
0.1000000000003638
100
AcDbArc
 50
0.0000000001042204
 51
89.99999999973944
  0
LINE
  5
143D
330
1F
100
AcDbEntity
  8
0
 62
     1
100
AcDbLine
 10
-25.75974130886277
 20
77.85280712858938
 30
0.0
 11
-23.13474130886277
 21
77.85280712858938
 31
0.0
  0
LINE
  5
143E
330
1F
100
AcDbEntity
  8
0
 62
     1
100
AcDbLine
 10
-23.13474130886277
 20
78.35280712858938
 30
0.0
 11
-23.13474130886277
 21
77.85280712858938
 31
0.0
  0
LINE
  5
143F
330
1F
100
AcDbEntity
  8
0
  6
HIDDEN
 62
     1
 48
0.02
100
AcDbLine
 10
-25.40974130886241
 20
78.35280712858938
 30
0.0
 11
-24.78474130886241
 21
78.35280712858938
 31
0.0
  0
LINE
  5
1440
330
1F
100
AcDbEntity
  8
0
  6
HIDDEN
 62
     1
 48
0.02
100
AcDbLine
 10
-25.40974130886241
 20
78.35280712858938
 30
0.0
 11
-25.40974130886241
 21
77.85280712858938
 31
0.0
  0
LINE
  5
1441
330
1F
100
AcDbEntity
  8
0
  6
HIDDEN
 62
     1
 48
0.02
100
AcDbLine
 10
-23.75974130886277
 20
78.35280712858938
 30
0.0
 11
-23.75974130886368
 21
77.85280712858938
 31
0.0
  0
LINE
  5
1442
330
1F
100
AcDbEntity
  8
0
  6
HIDDEN
 62
     1
 48
0.02
100
AcDbLine
 10
-24.78474130886241
 20
78.35280712858938
 30
0.0
 11
-24.78474130886241
 21
77.85280712858938
 31
0.0
  0
LINE
  5
1443
330
1F
100
AcDbEntity
  8
0
  6
HIDDEN
 62
     1
 48
0.02
100
AcDbLine
 10
-23.75974130886368
 20
78.35280712858938
 30
0.0
 11
-23.13474130886368
 21
78.35280712858938
 31
0.0
  0
LINE
  5
1444
330
1F
100
AcDbEntity
  8
0
 62
     1
100
AcDbLine
 10
-16.93474130886204
 20
77.85280712858938
 30
0.0
 11
-14.30974130886295
 21
77.85280712858938
 31
0.0
  0
LINE
  5
1445
330
1F
100
AcDbEntity
  8
0
 62
     1
100
AcDbLine
 10
-16.93474130886204
 20
78.35280712858938
 30
0.0
 11
-16.93474130886204
 21
77.85280712858938
 31
0.0
  0
LINE
  5
1446
330
1F
100
AcDbEntity
  8
0
  6
HIDDEN
 62
     1
 48
0.02
100
AcDbLine
 10
-14.65974130886059
 20
78.35280712858938
 30
0.0
 11
-14.65974130886059
 21
77.85280712858938
 31
0.0
  0
LINE
  5
1447
330
1F
100
AcDbEntity
  8
0
  6
HIDDEN
 62
     1
 48
0.02
100
AcDbLine
 10
-16.30974130886204
 20
78.35280712858938
 30
0.0
 11
-16.30974130886204
 21
77.85280712858938
 31
0.0
  0
LINE
  5
1448
330
1F
100
AcDbEntity
  8
0
  6
HIDDEN
 62
     1
 48
0.02
100
AcDbLine
 10
-15.28474130886059
 20
78.35280712858938
 30
0.0
 11
-15.28474130886059
 21
77.85280712858938
 31
0.0
  0
LINE
  5
1449
330
1F
100
AcDbEntity
  8
0
  6
HIDDEN
 62
     1
 48
0.02
100
AcDbLine
 10
-16.93474130886204
 20
78.35280712858938
 30
0.0
 11
-16.30974130886204
 21
78.35280712858938
 31
0.0
  0
LINE
  5
144A
330
1F
100
AcDbEntity
  8
0
  6
HIDDEN
 62
     1
 48
0.02
100
AcDbLine
 10
-15.28474130886059
 20
78.35280712858938
 30
0.0
 11
-14.65974130886059
 21
78.35280712858938
 31
0.0
  0
LINE
  5
144B
330
1F
100
AcDbEntity
  8
0
  6
HIDDEN
 62
     1
 48
0.02
100
AcDbLine
 10
-16.73474130886132
 20
78.10280712858937
 30
0.0
 11
-16.73474130886132
 21
77.85280712858938
 31
0.0
  0
LINE
  5
144C
330
1F
100
AcDbEntity
  8
0
  6
HIDDEN
 62
     1
 48
0.02
100
AcDbLine
 10
-16.48474130886131
 20
78.10280712858937
 30
0.0
 11
-16.48474130886131
 21
77.85280712858938
 31
0.0
  0
LINE
  5
144D
330
1F
100
AcDbEntity
  8
0
  6
HIDDEN
 62
     1
 48
0.02
100
AcDbLine
 10
-16.73474130886132
 20
78.10280712858937
 30
0.0
 11
-16.48474130886131
 21
78.10280712858937
 31
0.0
  0
LINE
  5
144E
330
1F
100
AcDbEntity
  8
0
 62
     1
100
AcDbLine
 10
-25.75974130886277
 20
65.85280712858938
 30
0.0
 11
-23.13474130886277
 21
65.85280712858938
 31
0.0
  0
LINE
  5
144F
330
1F
100
AcDbEntity
  8
0
 62
     1
100
AcDbLine
 10
-25.75974130886277
 20
65.85280712858938
 30
0.0
 11
-23.58474130886259
 21
65.85280712858938
 31
0.0
  0
LINE
  5
1450
330
1F
100
AcDbEntity
  8
0
 62
     1
100
AcDbLine
 10
-23.3347413088635
 20
65.85280712858938
 30
0.0
 11
-23.13474130886368
 21
65.85280712858938
 31
0.0
  0
LINE
  5
1451
330
1F
100
AcDbEntity
  8
0
 48
0.15
100
AcDbLine
 10
-24.78474130886241
 20
65.85280712858938
 30
0.0
 11
-23.75974130886277
 21
65.85280712858938
 31
0.0
  0
LINE
  5
1452
330
1F
100
AcDbEntity
  8
0
 62
     1
100
AcDbLine
 10
-23.70974130886259
 20
65.85280712858938
 30
0.0
 11
-24.8347413088635
 21
65.85280712858938
 31
0.0
  0
LINE
  5
1453
330
1F
100
AcDbEntity
  8
0
 62
     1
100
AcDbLine
 10
-25.75974130886277
 20
65.8528190990867
 30
0.0
 11
-23.58474130886259
 21
65.8528190990867
 31
0.0
  0
LINE
  5
1454
330
1F
100
AcDbEntity
  8
0
 62
     1
100
AcDbLine
 10
-25.40974130886241
 20
66.3528190990867
 30
0.0
 11
-24.78474130886241
 21
66.3528190990867
 31
0.0
  0
LINE
  5
1455
330
1F
100
AcDbEntity
  8
0
 62
     1
100
AcDbLine
 10
-23.75974130886277
 20
66.3528190990867
 30
0.0
 11
-23.75974130886368
 21
65.8528190990867
 31
0.0
  0
LINE
  5
1456
330
1F
100
AcDbEntity
  8
0
 62
     1
100
AcDbLine
 10
-24.78474130886241
 20
66.3528190990867
 30
0.0
 11
-24.78474130886241
 21
65.8528190990867
 31
0.0
  0
LINE
  5
1457
330
1F
100
AcDbEntity
  8
0
 62
     1
100
AcDbLine
 10
-23.75974130886368
 20
66.3528190990867
 30
0.0
 11
-23.13474130886368
 21
66.3528190990867
 31
0.0
  0
LINE
  5
1458
330
1F
100
AcDbEntity
  8
0
 62
     1
100
AcDbLine
 10
-23.5847413088635
 20
66.1028190990867
 30
0.0
 11
-23.5847413088635
 21
65.8528190990867
 31
0.0
  0
LINE
  5
1459
330
1F
100
AcDbEntity
  8
0
 62
     1
100
AcDbLine
 10
-23.5847413088635
 20
66.1028190990867
 30
0.0
 11
-23.3347413088635
 21
66.1028190990867
 31
0.0
  0
LINE
  5
145A
330
1F
100
AcDbEntity
  8
0
 62
     1
100
AcDbLine
 10
-23.3347413088635
 20
65.8528190990867
 30
0.0
 11
-23.13474130886368
 21
65.8528190990867
 31
0.0
  0
LINE
  5
145B
330
1F
100
AcDbEntity
  8
0
 48
0.15
100
AcDbLine
 10
-24.78474130886241
 20
65.8528190990867
 30
0.0
 11
-23.75974130886277
 21
65.8528190990867
 31
0.0
  0
LINE
  5
145C
330
1F
100
AcDbEntity
  8
0
 62
     1
100
AcDbLine
 10
-23.70974130886259
 20
65.8528190990867
 30
0.0
 11
-24.8347413088635
 21
65.8528190990867
 31
0.0
  0
LINE
  5
145D
330
1F
100
AcDbEntity
  8
0
 62
     1
100
AcDbLine
 10
-14.65974130886241
 20
66.3528190990867
 30
0.0
 11
-14.65974130886241
 21
65.8528190990867
 31
0.0
  0
LINE
  5
145E
330
1F
100
AcDbEntity
  8
0
 62
     1
100
AcDbLine
 10
-16.30974130886386
 20
66.3528190990867
 30
0.0
 11
-16.30974130886386
 21
65.8528190990867
 31
0.0
  0
LINE
  5
145F
330
1F
100
AcDbEntity
  8
0
 62
     1
100
AcDbLine
 10
-15.28474130886241
 20
66.3528190990867
 30
0.0
 11
-15.28474130886241
 21
65.8528190990867
 31
0.0
  0
LINE
  5
1460
330
1F
100
AcDbEntity
  8
0
 62
     1
100
AcDbLine
 10
-16.93474130886386
 20
66.3528190990867
 30
0.0
 11
-16.30974130886386
 21
66.3528190990867
 31
0.0
  0
LINE
  5
1461
330
1F
100
AcDbEntity
  8
0
 62
     1
100
AcDbLine
 10
-15.28474130886241
 20
66.3528190990867
 30
0.0
 11
-14.65974130886241
 21
66.3528190990867
 31
0.0
  0
LINE
  5
1462
330
1F
100
AcDbEntity
  8
0
 62
     1
100
AcDbLine
 10
-16.48474130886313
 20
66.1028190990867
 30
0.0
 11
-16.48474130886313
 21
65.8528190990867
 31
0.0
  0
LINE
  5
1463
330
1F
100
AcDbEntity
  8
0
 62
     1
100
AcDbLine
 10
-16.73474130886313
 20
66.1028190990867
 30
0.0
 11
-16.48474130886313
 21
66.1028190990867
 31
0.0
  0
LINE
  5
1464
330
1F
100
AcDbEntity
  8
0
 62
     1
100
AcDbLine
 10
-16.51974130886299
 20
65.8528190990867
 30
0.0
 11
-14.30974130886295
 21
65.8528190990867
 31
0.0
  0
LINE
  5
1465
330
1F
100
AcDbEntity
  8
0
 62
     1
100
AcDbLine
 10
-16.93474130886386
 20
65.8528190990867
 30
0.0
 11
-16.73474130886313
 21
65.8528190990867
 31
0.0
  0
LINE
  5
1466
330
1F
100
AcDbEntity
  8
0
 62
     1
100
AcDbLine
 10
-25.75974130886277
 20
65.8528190990867
 30
0.0
 11
-23.13474130886277
 21
65.8528190990867
 31
0.0
  0
LINE
  5
1467
330
1F
100
AcDbEntity
  8
0
 62
     1
100
AcDbLine
 10
-23.13474130886277
 20
66.3528190990867
 30
0.0
 11
-23.13474130886277
 21
65.8528190990867
 31
0.0
  0
LINE
  5
1468
330
1F
100
AcDbEntity
  8
0
  6
HIDDEN
 62
     1
 48
0.02
100
AcDbLine
 10
-25.40974130886241
 20
66.3528190990867
 30
0.0
 11
-24.78474130886241
 21
66.3528190990867
 31
0.0
  0
LINE
  5
1469
330
1F
100
AcDbEntity
  8
0
  6
HIDDEN
 62
     1
 48
0.02
100
AcDbLine
 10
-25.40974130886241
 20
66.3528190990867
 30
0.0
 11
-25.40974130886241
 21
65.8528190990867
 31
0.0
  0
LINE
  5
146A
330
1F
100
AcDbEntity
  8
0
  6
HIDDEN
 62
     1
 48
0.02
100
AcDbLine
 10
-23.75974130886277
 20
66.3528190990867
 30
0.0
 11
-23.75974130886368
 21
65.8528190990867
 31
0.0
  0
LINE
  5
146B
330
1F
100
AcDbEntity
  8
0
  6
HIDDEN
 62
     1
 48
0.02
100
AcDbLine
 10
-24.78474130886241
 20
66.3528190990867
 30
0.0
 11
-24.78474130886241
 21
65.8528190990867
 31
0.0
  0
LINE
  5
146C
330
1F
100
AcDbEntity
  8
0
  6
HIDDEN
 62
     1
 48
0.02
100
AcDbLine
 10
-23.75974130886368
 20
66.3528190990867
 30
0.0
 11
-23.13474130886368
 21
66.3528190990867
 31
0.0
  0
LINE
  5
146D
330
1F
100
AcDbEntity
  8
0
 62
     1
100
AcDbLine
 10
-16.93474130886204
 20
65.8528190990867
 30
0.0
 11
-14.30974130886295
 21
65.8528190990867
 31
0.0
  0
LINE
  5
146E
330
1F
100
AcDbEntity
  8
0
 62
     1
100
AcDbLine
 10
-16.93474130886204
 20
66.3528190990867
 30
0.0
 11
-16.93474130886204
 21
65.8528190990867
 31
0.0
  0
LINE
  5
146F
330
1F
100
AcDbEntity
  8
0
  6
HIDDEN
 62
     1
 48
0.02
100
AcDbLine
 10
-14.65974130886059
 20
66.3528190990867
 30
0.0
 11
-14.65974130886059
 21
65.8528190990867
 31
0.0
  0
LINE
  5
1470
330
1F
100
AcDbEntity
  8
0
  6
HIDDEN
 62
     1
 48
0.02
100
AcDbLine
 10
-16.30974130886204
 20
66.3528190990867
 30
0.0
 11
-16.30974130886204
 21
65.8528190990867
 31
0.0
  0
LINE
  5
1471
330
1F
100
AcDbEntity
  8
0
  6
HIDDEN
 62
     1
 48
0.02
100
AcDbLine
 10
-15.28474130886059
 20
66.3528190990867
 30
0.0
 11
-15.28474130886059
 21
65.8528190990867
 31
0.0
  0
LINE
  5
1472
330
1F
100
AcDbEntity
  8
0
  6
HIDDEN
 62
     1
 48
0.02
100
AcDbLine
 10
-16.93474130886204
 20
66.3528190990867
 30
0.0
 11
-16.30974130886204
 21
66.3528190990867
 31
0.0
  0
LINE
  5
1473
330
1F
100
AcDbEntity
  8
0
  6
HIDDEN
 62
     1
 48
0.02
100
AcDbLine
 10
-15.28474130886059
 20
66.3528190990867
 30
0.0
 11
-14.65974130886059
 21
66.3528190990867
 31
0.0
  0
LINE
  5
1474
330
1F
100
AcDbEntity
  8
0
  6
HIDDEN
 62
     1
 48
0.02
100
AcDbLine
 10
-16.73474130886132
 20
66.1028190990867
 30
0.0
 11
-16.73474130886132
 21
65.8528190990867
 31
0.0
  0
LINE
  5
1475
330
1F
100
AcDbEntity
  8
0
  6
HIDDEN
 62
     1
 48
0.02
100
AcDbLine
 10
-16.48474130886131
 20
66.1028190990867
 30
0.0
 11
-16.48474130886131
 21
65.8528190990867
 31
0.0
  0
LINE
  5
1476
330
1F
100
AcDbEntity
  8
0
  6
HIDDEN
 62
     1
 48
0.02
100
AcDbLine
 10
-16.73474130886132
 20
66.1028190990867
 30
0.0
 11
-16.48474130886131
 21
66.1028190990867
 31
0.0
  0
ARC
  5
1477
330
1F
100
AcDbEntity
  8
DETAILS
 62
     6
370
    20
100
AcDbCircle
 10
-16.8847413088655
 20
66.7532778884686
 30
0.0
 40
0.0499999999997272
100
AcDbArc
 50
180.0000000004429
 51
210.0000000006405
  0
LINE
  5
1478
330
1F
100
AcDbEntity
  8
DETAILS
 62
     6
370
    20
100
AcDbLine
 10
-16.92804257905425
 20
66.72827788846851
 30
0.0
 11
-16.86895616480649
 21
66.62593721695365
 31
0.0
  0
LINE
  5
1479
330
1F
100
AcDbEntity
  8
DETAILS
 62
     6
370
    20
100
AcDbLine
 10
-16.86895616480649
 20
66.62593721695365
 30
0.0
 11
-16.78235362442808
 21
66.67593721695382
 31
0.0
  0
LINE
  5
147A
330
1F
100
AcDbEntity
  8
DETAILS
 62
     6
370
    20
100
AcDbLine
 10
-16.78235362442808
 20
66.67593721695382
 30
0.0
 11
-16.82804257905479
 21
66.75507280771242
 31
0.0
  0
ARC
  5
147B
330
1F
100
AcDbEntity
  8
DETAILS
 62
     6
370
    20
100
AcDbCircle
 10
-16.78474130886604
 20
66.78007280771296
 30
0.0
 40
0.0499999999997213
100
AcDbArc
 50
180.0000000003126
 51
210.0000000005468
  0
LINE
  5
147C
330
1F
100
AcDbEntity
  8
DETAILS
 62
     6
370
    20
100
AcDbLine
 10
-16.83474130886622
 20
66.78007280771296
 30
0.0
 11
-16.83474130886532
 21
66.81667534809119
 31
0.0
  0
LINE
  5
147D
330
1F
100
AcDbEntity
  8
DETAILS
 62
     6
370
    20
100
AcDbLine
 10
-23.23474130886314
 20
66.81667534809029
 30
0.0
 11
-23.23474130886314
 21
66.78007280771296
 31
0.0
  0
ARC
  5
147E
330
1F
100
AcDbEntity
  8
DETAILS
 62
     6
370
    20
100
AcDbCircle
 10
-23.28474130886332
 20
66.78007280771296
 30
0.0
 40
0.0499999999997272
100
AcDbArc
 50
329.9999999994532
 51
359.9999999996613
  0
LINE
  5
147F
330
1F
100
AcDbEntity
  8
DETAILS
 62
     6
370
    20
100
AcDbLine
 10
-23.24144003867457
 20
66.75507280771242
 30
0.0
 11
-23.28712899330128
 21
66.67593721695292
 31
0.0
  0
LINE
  5
1480
330
1F
100
AcDbEntity
  8
DETAILS
 62
     6
370
    20
100
AcDbLine
 10
-23.28712899330128
 20
66.67593721695292
 30
0.0
 11
-23.20052645292287
 21
66.62593721695365
 31
0.0
  0
LINE
  5
1481
330
1F
100
AcDbEntity
  8
DETAILS
 62
     6
370
    20
100
AcDbLine
 10
-23.20052645292287
 20
66.62593721695365
 30
0.0
 11
-23.14144003867511
 21
66.72827788846851
 31
0.0
  0
ARC
  5
1482
330
1F
100
AcDbEntity
  8
DETAILS
 62
     6
370
    20
100
AcDbCircle
 10
-23.18474130886386
 20
66.7532778884686
 30
0.0
 40
0.0499999999997782
100
AcDbArc
 50
329.9999999993595
 51
359.999999999531
  0
LINE
  5
1483
330
1F
100
AcDbEntity
  8
0
 62
     1
100
AcDbLine
 10
-25.75974130886277
 20
77.85280712858938
 30
0.0
 11
-23.13474130886277
 21
77.85280712858938
 31
0.0
  0
LINE
  5
1484
330
1F
100
AcDbEntity
  8
0
 62
     1
100
AcDbLine
 10
-25.75974130886277
 20
77.85280712858938
 30
0.0
 11
-23.58474130886259
 21
77.85280712858938
 31
0.0
  0
LINE
  5
1485
330
1F
100
AcDbEntity
  8
0
 62
     1
100
AcDbLine
 10
-23.3347413088635
 20
77.85280712858938
 30
0.0
 11
-23.13474130886368
 21
77.85280712858938
 31
0.0
  0
LINE
  5
1486
330
1F
100
AcDbEntity
  8
0
 48
0.15
100
AcDbLine
 10
-24.78474130886241
 20
77.85280712858938
 30
0.0
 11
-23.75974130886277
 21
77.85280712858938
 31
0.0
  0
LINE
  5
1487
330
1F
100
AcDbEntity
  8
0
 62
     1
100
AcDbLine
 10
-23.70974130886259
 20
77.85280712858938
 30
0.0
 11
-24.8347413088635
 21
77.85280712858938
 31
0.0
  0
LINE
  5
1488
330
1F
100
AcDbEntity
  8
0
 62
     1
100
AcDbLine
 10
-25.75974130886277
 20
77.8528190990867
 30
0.0
 11
-23.58474130886259
 21
77.8528190990867
 31
0.0
  0
LINE
  5
1489
330
1F
100
AcDbEntity
  8
0
 62
     1
100
AcDbLine
 10
-25.40974130886241
 20
78.3528190990867
 30
0.0
 11
-24.78474130886241
 21
78.3528190990867
 31
0.0
  0
LINE
  5
148A
330
1F
100
AcDbEntity
  8
0
 62
     1
100
AcDbLine
 10
-23.75974130886277
 20
78.3528190990867
 30
0.0
 11
-23.75974130886368
 21
77.8528190990867
 31
0.0
  0
LINE
  5
148B
330
1F
100
AcDbEntity
  8
0
 62
     1
100
AcDbLine
 10
-24.78474130886241
 20
78.3528190990867
 30
0.0
 11
-24.78474130886241
 21
77.8528190990867
 31
0.0
  0
LINE
  5
148C
330
1F
100
AcDbEntity
  8
0
 62
     1
100
AcDbLine
 10
-23.75974130886368
 20
78.3528190990867
 30
0.0
 11
-23.13474130886368
 21
78.3528190990867
 31
0.0
  0
LINE
  5
148D
330
1F
100
AcDbEntity
  8
0
 62
     1
100
AcDbLine
 10
-23.5847413088635
 20
78.1028190990867
 30
0.0
 11
-23.5847413088635
 21
77.8528190990867
 31
0.0
  0
LINE
  5
148E
330
1F
100
AcDbEntity
  8
0
 62
     1
100
AcDbLine
 10
-23.5847413088635
 20
78.1028190990867
 30
0.0
 11
-23.3347413088635
 21
78.1028190990867
 31
0.0
  0
LINE
  5
148F
330
1F
100
AcDbEntity
  8
0
 62
     1
100
AcDbLine
 10
-23.3347413088635
 20
77.8528190990867
 30
0.0
 11
-23.13474130886368
 21
77.8528190990867
 31
0.0
  0
LINE
  5
1490
330
1F
100
AcDbEntity
  8
0
 48
0.15
100
AcDbLine
 10
-24.78474130886241
 20
77.8528190990867
 30
0.0
 11
-23.75974130886277
 21
77.8528190990867
 31
0.0
  0
LINE
  5
1491
330
1F
100
AcDbEntity
  8
0
 62
     1
100
AcDbLine
 10
-23.70974130886259
 20
77.8528190990867
 30
0.0
 11
-24.8347413088635
 21
77.8528190990867
 31
0.0
  0
LINE
  5
1492
330
1F
100
AcDbEntity
  8
0
 62
     1
100
AcDbLine
 10
-14.65974130886241
 20
78.3528190990867
 30
0.0
 11
-14.65974130886241
 21
77.8528190990867
 31
0.0
  0
LINE
  5
1493
330
1F
100
AcDbEntity
  8
0
 62
     1
100
AcDbLine
 10
-16.30974130886386
 20
78.3528190990867
 30
0.0
 11
-16.30974130886386
 21
77.8528190990867
 31
0.0
  0
LINE
  5
1494
330
1F
100
AcDbEntity
  8
0
 62
     1
100
AcDbLine
 10
-15.28474130886241
 20
78.3528190990867
 30
0.0
 11
-15.28474130886241
 21
77.8528190990867
 31
0.0
  0
LINE
  5
1495
330
1F
100
AcDbEntity
  8
0
 62
     1
100
AcDbLine
 10
-16.93474130886386
 20
78.3528190990867
 30
0.0
 11
-16.30974130886386
 21
78.3528190990867
 31
0.0
  0
LINE
  5
1496
330
1F
100
AcDbEntity
  8
0
 62
     1
100
AcDbLine
 10
-15.28474130886241
 20
78.3528190990867
 30
0.0
 11
-14.65974130886241
 21
78.3528190990867
 31
0.0
  0
LINE
  5
1497
330
1F
100
AcDbEntity
  8
0
 62
     1
100
AcDbLine
 10
-16.48474130886313
 20
78.1028190990867
 30
0.0
 11
-16.48474130886313
 21
77.8528190990867
 31
0.0
  0
LINE
  5
1498
330
1F
100
AcDbEntity
  8
0
 62
     1
100
AcDbLine
 10
-16.73474130886313
 20
78.1028190990867
 30
0.0
 11
-16.48474130886313
 21
78.1028190990867
 31
0.0
  0
LINE
  5
1499
330
1F
100
AcDbEntity
  8
0
 62
     1
100
AcDbLine
 10
-16.51974130886299
 20
77.8528190990867
 30
0.0
 11
-14.30974130886295
 21
77.8528190990867
 31
0.0
  0
LINE
  5
149A
330
1F
100
AcDbEntity
  8
0
 62
     1
100
AcDbLine
 10
-16.93474130886386
 20
77.8528190990867
 30
0.0
 11
-16.73474130886313
 21
77.8528190990867
 31
0.0
  0
LINE
  5
149B
330
1F
100
AcDbEntity
  8
0
 62
     1
100
AcDbLine
 10
-25.75974130886277
 20
77.8528190990867
 30
0.0
 11
-23.13474130886277
 21
77.8528190990867
 31
0.0
  0
LINE
  5
149C
330
1F
100
AcDbEntity
  8
0
 62
     1
100
AcDbLine
 10
-23.13474130886277
 20
78.3528190990867
 30
0.0
 11
-23.13474130886277
 21
77.8528190990867
 31
0.0
  0
LINE
  5
149D
330
1F
100
AcDbEntity
  8
0
  6
HIDDEN
 62
     1
 48
0.02
100
AcDbLine
 10
-25.40974130886241
 20
78.3528190990867
 30
0.0
 11
-24.78474130886241
 21
78.3528190990867
 31
0.0
  0
LINE
  5
149E
330
1F
100
AcDbEntity
  8
0
  6
HIDDEN
 62
     1
 48
0.02
100
AcDbLine
 10
-25.40974130886241
 20
78.3528190990867
 30
0.0
 11
-25.40974130886241
 21
77.8528190990867
 31
0.0
  0
LINE
  5
149F
330
1F
100
AcDbEntity
  8
0
  6
HIDDEN
 62
     1
 48
0.02
100
AcDbLine
 10
-23.75974130886277
 20
78.3528190990867
 30
0.0
 11
-23.75974130886368
 21
77.8528190990867
 31
0.0
  0
LINE
  5
14A0
330
1F
100
AcDbEntity
  8
0
  6
HIDDEN
 62
     1
 48
0.02
100
AcDbLine
 10
-24.78474130886241
 20
78.3528190990867
 30
0.0
 11
-24.78474130886241
 21
77.8528190990867
 31
0.0
  0
LINE
  5
14A1
330
1F
100
AcDbEntity
  8
0
  6
HIDDEN
 62
     1
 48
0.02
100
AcDbLine
 10
-23.75974130886368
 20
78.3528190990867
 30
0.0
 11
-23.13474130886368
 21
78.3528190990867
 31
0.0
  0
LINE
  5
14A2
330
1F
100
AcDbEntity
  8
0
 62
     1
100
AcDbLine
 10
-16.93474130886204
 20
77.8528190990867
 30
0.0
 11
-14.30974130886295
 21
77.8528190990867
 31
0.0
  0
LINE
  5
14A3
330
1F
100
AcDbEntity
  8
0
 62
     1
100
AcDbLine
 10
-16.93474130886204
 20
78.3528190990867
 30
0.0
 11
-16.93474130886204
 21
77.8528190990867
 31
0.0
  0
LINE
  5
14A4
330
1F
100
AcDbEntity
  8
0
  6
HIDDEN
 62
     1
 48
0.02
100
AcDbLine
 10
-14.65974130886059
 20
78.3528190990867
 30
0.0
 11
-14.65974130886059
 21
77.8528190990867
 31
0.0
  0
LINE
  5
14A5
330
1F
100
AcDbEntity
  8
0
  6
HIDDEN
 62
     1
 48
0.02
100
AcDbLine
 10
-16.30974130886204
 20
78.3528190990867
 30
0.0
 11
-16.30974130886204
 21
77.8528190990867
 31
0.0
  0
LINE
  5
14A6
330
1F
100
AcDbEntity
  8
0
  6
HIDDEN
 62
     1
 48
0.02
100
AcDbLine
 10
-15.28474130886059
 20
78.3528190990867
 30
0.0
 11
-15.28474130886059
 21
77.8528190990867
 31
0.0
  0
LINE
  5
14A7
330
1F
100
AcDbEntity
  8
0
  6
HIDDEN
 62
     1
 48
0.02
100
AcDbLine
 10
-16.93474130886204
 20
78.3528190990867
 30
0.0
 11
-16.30974130886204
 21
78.3528190990867
 31
0.0
  0
LINE
  5
14A8
330
1F
100
AcDbEntity
  8
0
  6
HIDDEN
 62
     1
 48
0.02
100
AcDbLine
 10
-15.28474130886059
 20
78.3528190990867
 30
0.0
 11
-14.65974130886059
 21
78.3528190990867
 31
0.0
  0
LINE
  5
14A9
330
1F
100
AcDbEntity
  8
0
  6
HIDDEN
 62
     1
 48
0.02
100
AcDbLine
 10
-16.73474130886132
 20
78.1028190990867
 30
0.0
 11
-16.73474130886132
 21
77.8528190990867
 31
0.0
  0
LINE
  5
14AA
330
1F
100
AcDbEntity
  8
0
  6
HIDDEN
 62
     1
 48
0.02
100
AcDbLine
 10
-16.48474130886131
 20
78.1028190990867
 30
0.0
 11
-16.48474130886131
 21
77.8528190990867
 31
0.0
  0
LINE
  5
14AB
330
1F
100
AcDbEntity
  8
0
  6
HIDDEN
 62
     1
 48
0.02
100
AcDbLine
 10
-16.73474130886132
 20
78.1028190990867
 30
0.0
 11
-16.48474130886131
 21
78.1028190990867
 31
0.0
  0
LINE
  5
14AC
330
1F
100
AcDbEntity
  8
0
 48
0.15
100
AcDbLine
 10
-26.25974130886277
 20
65.35280712859074
 30
0.0
 11
-26.25974130886277
 21
87.12303945889587
 31
0.0
  0
LINE
  5
14AD
330
1F
100
AcDbEntity
  8
0
 62
     1
100
AcDbLine
 10
-25.75974130886368
 20
77.85279515809159
 30
0.0
 11
-23.13474130886368
 21
77.85279515809159
 31
0.0
  0
LINE
  5
14AE
330
1F
100
AcDbEntity
  8
0
 62
     1
100
AcDbLine
 10
-25.75974130886368
 20
77.85279515809159
 30
0.0
 11
-23.5847413088635
 21
77.85279515809159
 31
0.0
  0
LINE
  5
14AF
330
1F
100
AcDbEntity
  8
0
 62
     1
100
AcDbLine
 10
-23.33474130886441
 20
77.85279515809159
 30
0.0
 11
-23.13474130886459
 21
77.85279515809159
 31
0.0
  0
LINE
  5
14B0
330
1F
100
AcDbEntity
  8
0
 48
0.15
100
AcDbLine
 10
-24.78474130886332
 20
77.85279515809159
 30
0.0
 11
-23.75974130886368
 21
77.85279515809159
 31
0.0
  0
LINE
  5
14B1
330
1F
100
AcDbEntity
  8
0
 62
     1
100
AcDbLine
 10
-23.7097413088635
 20
77.85279515809159
 30
0.0
 11
-24.83474130886441
 21
77.85279515809159
 31
0.0
  0
LINE
  5
14B2
330
1F
100
AcDbEntity
  8
0
 62
     1
100
AcDbLine
 10
-25.75974130886368
 20
77.85280712858938
 30
0.0
 11
-23.5847413088635
 21
77.85280712858938
 31
0.0
  0
LINE
  5
14B3
330
1F
100
AcDbEntity
  8
0
 62
     1
100
AcDbLine
 10
-25.40974130886332
 20
78.35280712858938
 30
0.0
 11
-24.78474130886332
 21
78.35280712858938
 31
0.0
  0
LINE
  5
14B4
330
1F
100
AcDbEntity
  8
0
 62
     1
100
AcDbLine
 10
-23.75974130886368
 20
78.35280712858938
 30
0.0
 11
-23.75974130886459
 21
77.85280712858938
 31
0.0
  0
LINE
  5
14B5
330
1F
100
AcDbEntity
  8
0
 62
     1
100
AcDbLine
 10
-24.78474130886332
 20
78.35280712858938
 30
0.0
 11
-24.78474130886332
 21
77.85280712858938
 31
0.0
  0
LINE
  5
14B6
330
1F
100
AcDbEntity
  8
0
 62
     1
100
AcDbLine
 10
-23.75974130886459
 20
78.35280712858938
 30
0.0
 11
-23.13474130886459
 21
78.35280712858938
 31
0.0
  0
LINE
  5
14B7
330
1F
100
AcDbEntity
  8
0
 62
     1
100
AcDbLine
 10
-23.58474130886441
 20
78.10280712858937
 30
0.0
 11
-23.58474130886441
 21
77.85280712858938
 31
0.0
  0
LINE
  5
14B8
330
1F
100
AcDbEntity
  8
0
 62
     1
100
AcDbLine
 10
-23.58474130886441
 20
78.10280712858937
 30
0.0
 11
-23.33474130886441
 21
78.10280712858937
 31
0.0
  0
LINE
  5
14B9
330
1F
100
AcDbEntity
  8
0
 62
     1
100
AcDbLine
 10
-23.33474130886441
 20
77.85280712858938
 30
0.0
 11
-23.13474130886459
 21
77.85280712858938
 31
0.0
  0
LINE
  5
14BA
330
1F
100
AcDbEntity
  8
0
 48
0.15
100
AcDbLine
 10
-24.78474130886332
 20
77.85280712858938
 30
0.0
 11
-23.75974130886368
 21
77.85280712858938
 31
0.0
  0
LINE
  5
14BB
330
1F
100
AcDbEntity
  8
0
 62
     1
100
AcDbLine
 10
-23.7097413088635
 20
77.85280712858938
 30
0.0
 11
-24.83474130886441
 21
77.85280712858938
 31
0.0
  0
LINE
  5
14BC
330
1F
100
AcDbEntity
  8
0
 62
     1
100
AcDbLine
 10
-14.65974130886332
 20
78.35280712858938
 30
0.0
 11
-14.65974130886332
 21
77.85280712858938
 31
0.0
  0
LINE
  5
14BD
330
1F
100
AcDbEntity
  8
0
 62
     1
100
AcDbLine
 10
-16.30974130886477
 20
78.35280712858938
 30
0.0
 11
-16.30974130886477
 21
77.85280712858938
 31
0.0
  0
LINE
  5
14BE
330
1F
100
AcDbEntity
  8
0
 62
     1
100
AcDbLine
 10
-15.28474130886332
 20
78.35280712858938
 30
0.0
 11
-15.28474130886332
 21
77.85280712858938
 31
0.0
  0
LINE
  5
14BF
330
1F
100
AcDbEntity
  8
0
 62
     1
100
AcDbLine
 10
-16.93474130886477
 20
78.35280712858938
 30
0.0
 11
-16.30974130886477
 21
78.35280712858938
 31
0.0
  0
LINE
  5
14C0
330
1F
100
AcDbEntity
  8
0
 62
     1
100
AcDbLine
 10
-15.28474130886332
 20
78.35280712858938
 30
0.0
 11
-14.65974130886332
 21
78.35280712858938
 31
0.0
  0
LINE
  5
14C1
330
1F
100
AcDbEntity
  8
0
 62
     1
100
AcDbLine
 10
-16.48474130886404
 20
78.10280712858937
 30
0.0
 11
-16.48474130886404
 21
77.85280712858938
 31
0.0
  0
LINE
  5
14C2
330
1F
100
AcDbEntity
  8
0
 62
     1
100
AcDbLine
 10
-16.73474130886404
 20
78.10280712858937
 30
0.0
 11
-16.48474130886404
 21
78.10280712858937
 31
0.0
  0
LINE
  5
14C3
330
1F
100
AcDbEntity
  8
0
 62
     1
100
AcDbLine
 10
-25.75974130886368
 20
77.85280712858938
 30
0.0
 11
-23.13474130886368
 21
77.85280712858938
 31
0.0
  0
LINE
  5
14C4
330
1F
100
AcDbEntity
  8
0
 62
     1
100
AcDbLine
 10
-23.13474130886368
 20
78.35280712858938
 30
0.0
 11
-23.13474130886368
 21
77.85280712858938
 31
0.0
  0
LINE
  5
14C5
330
1F
100
AcDbEntity
  8
0
  6
HIDDEN
 62
     1
 48
0.02
100
AcDbLine
 10
-25.40974130886332
 20
78.35280712858938
 30
0.0
 11
-24.78474130886332
 21
78.35280712858938
 31
0.0
  0
LINE
  5
14C6
330
1F
100
AcDbEntity
  8
0
  6
HIDDEN
 62
     1
 48
0.02
100
AcDbLine
 10
-25.40974130886332
 20
78.35280712858938
 30
0.0
 11
-25.40974130886332
 21
77.85280712858938
 31
0.0
  0
LINE
  5
14C7
330
1F
100
AcDbEntity
  8
0
  6
HIDDEN
 62
     1
 48
0.02
100
AcDbLine
 10
-23.75974130886368
 20
78.35280712858938
 30
0.0
 11
-23.75974130886459
 21
77.85280712858938
 31
0.0
  0
LINE
  5
14C8
330
1F
100
AcDbEntity
  8
0
  6
HIDDEN
 62
     1
 48
0.02
100
AcDbLine
 10
-24.78474130886332
 20
78.35280712858938
 30
0.0
 11
-24.78474130886332
 21
77.85280712858938
 31
0.0
  0
LINE
  5
14C9
330
1F
100
AcDbEntity
  8
0
  6
HIDDEN
 62
     1
 48
0.02
100
AcDbLine
 10
-23.75974130886459
 20
78.35280712858938
 30
0.0
 11
-23.13474130886459
 21
78.35280712858938
 31
0.0
  0
LINE
  5
14CA
330
1F
100
AcDbEntity
  8
0
  6
HIDDEN
 62
     1
 48
0.02
100
AcDbLine
 10
-14.6597413088615
 20
78.35280712858938
 30
0.0
 11
-14.6597413088615
 21
77.85280712858938
 31
0.0
  0
LINE
  5
14CB
330
1F
100
AcDbEntity
  8
0
  6
HIDDEN
 62
     1
 48
0.02
100
AcDbLine
 10
-16.30974130886295
 20
78.35280712858938
 30
0.0
 11
-16.30974130886295
 21
77.85280712858938
 31
0.0
  0
LINE
  5
14CC
330
1F
100
AcDbEntity
  8
0
  6
HIDDEN
 62
     1
 48
0.02
100
AcDbLine
 10
-15.2847413088615
 20
78.35280712858938
 30
0.0
 11
-15.2847413088615
 21
77.85280712858938
 31
0.0
  0
LINE
  5
14CD
330
1F
100
AcDbEntity
  8
0
  6
HIDDEN
 62
     1
 48
0.02
100
AcDbLine
 10
-16.93474130886295
 20
78.35280712858938
 30
0.0
 11
-16.30974130886295
 21
78.35280712858938
 31
0.0
  0
LINE
  5
14CE
330
1F
100
AcDbEntity
  8
0
  6
HIDDEN
 62
     1
 48
0.02
100
AcDbLine
 10
-15.2847413088615
 20
78.35280712858938
 30
0.0
 11
-14.6597413088615
 21
78.35280712858938
 31
0.0
  0
LINE
  5
14CF
330
1F
100
AcDbEntity
  8
0
  6
HIDDEN
 62
     1
 48
0.02
100
AcDbLine
 10
-16.73474130886222
 20
78.10280712858937
 30
0.0
 11
-16.73474130886222
 21
77.85280712858938
 31
0.0
  0
LINE
  5
14D0
330
1F
100
AcDbEntity
  8
0
  6
HIDDEN
 62
     1
 48
0.02
100
AcDbLine
 10
-16.48474130886222
 20
78.10280712858937
 30
0.0
 11
-16.48474130886222
 21
77.85280712858938
 31
0.0
  0
LINE
  5
14D1
330
1F
100
AcDbEntity
  8
0
  6
HIDDEN
 62
     1
 48
0.02
100
AcDbLine
 10
-16.73474130886222
 20
78.10280712858937
 30
0.0
 11
-16.48474130886222
 21
78.10280712858937
 31
0.0
  0
LINE
  5
14D2
330
1F
100
AcDbEntity
  8
0
 62
     1
100
AcDbLine
 10
-25.75974130886459
 20
87.27900447325627
 30
0.0
 11
-25.75974130886368
 21
77.85280712858938
 31
0.0
  0
LINE
  5
14D3
330
1F
100
AcDbEntity
  8
0
 62
     1
100
AcDbLine
 10
-23.13474130886368
 20
88.09782079864479
 30
0.0
 11
-23.13474130886368
 21
77.85280712858938
 31
0.0
  0
LINE
  5
14D4
330
1F
100
AcDbEntity
  8
0
 62
     1
100
AcDbLine
 10
-25.40974130886241
 20
87.38817998330731
 30
0.0
 11
-25.40974130886332
 21
77.85280712858938
 31
0.0
  0
LINE
  5
14D5
330
1F
100
AcDbEntity
  8
0
 62
     1
100
AcDbLine
 10
-23.33474130886441
 20
88.03543479290173
 30
0.0
 11
-23.33474130886441
 21
77.85280712858938
 31
0.0
  0
LINE
  5
14D6
330
1F
100
AcDbEntity
  8
A2 Hatch
  6
DASHED2
 48
0.15
100
AcDbLine
 10
-24.99474130886336
 20
87.51763094522519
 30
0.0
 11
-24.99474130886426
 21
77.85280712858938
 31
0.0
  0
LINE
  5
14D7
330
1F
100
AcDbEntity
  8
A2 Hatch
  6
DASHED2
 48
0.15
100
AcDbLine
 10
-23.54974130886274
 20
87.96836983672646
 30
0.0
 11
-23.54974130886365
 21
77.85280712858938
 31
0.0
  0
LINE
  5
14D8
330
1F
100
AcDbEntity
  8
0
 62
     1
100
AcDbLine
 10
-24.83474130886259
 20
87.56753974982146
 30
0.0
 11
-24.8347413088635
 21
77.85280712858938
 31
0.0
  0
LINE
  5
14D9
330
1F
100
AcDbEntity
  8
0
 62
     1
100
AcDbLine
 10
-23.70974130886168
 20
87.91846103213154
 30
0.0
 11
-23.7097413088635
 21
77.85280712858938
 31
0.0
  0
ARC
  5
14DA
330
1F
100
AcDbEntity
  8
DETAILS
 62
     6
370
    20
100
AcDbCircle
 10
-23.13474130886277
 20
82.01608535044149
 30
0.0
 40
0.0999999999999136
100
AcDbArc
 50
179.9999999996873
 51
209.7448812965932
  0
LINE
  5
14DB
330
1F
100
AcDbEntity
  8
DETAILS
 62
     6
370
    20
100
AcDbLine
 10
-23.23474130886404
 20
84.10280712858938
 30
0.0
 11
-16.83474130886532
 21
84.10280712858938
 31
0.0
  0
LINE
  5
14DC
330
1F
100
AcDbEntity
  8
0
 62
     1
100
AcDbLine
 10
-14.30974130886295
 20
90.99017222588443
 30
0.0
 11
-14.30974130886386
 21
77.85280712858938
 31
0.0
  0
LINE
  5
14DD
330
1F
100
AcDbEntity
  8
0
 62
     1
100
AcDbLine
 10
-16.93474130886295
 20
90.09992283014279
 30
0.0
 11
-16.93474130886386
 21
77.85280712858938
 31
0.0
  0
LINE
  5
14DE
330
1F
100
AcDbEntity
  8
0
 62
     1
100
AcDbLine
 10
-14.65974130886332
 20
90.35280712858938
 30
0.0
 11
-14.65974130886332
 21
89.85280712858937
 31
0.0
  0
LINE
  5
14DF
330
1F
100
AcDbEntity
  8
0
 62
     1
100
AcDbLine
 10
-16.30974130886477
 20
90.31188697198585
 30
0.0
 11
-16.30974130886477
 21
89.85280712858937
 31
0.0
  0
LINE
  5
14E0
330
1F
100
AcDbEntity
  8
0
 62
     1
100
AcDbLine
 10
-15.28474130886332
 20
90.35280712858938
 30
0.0
 11
-15.28474130886332
 21
89.85280712858937
 31
0.0
  0
LINE
  5
14E1
330
1F
100
AcDbEntity
  8
0
 62
     1
100
AcDbLine
 10
-15.28474130886332
 20
90.35280712858938
 30
0.0
 11
-14.65974130886332
 21
90.35280712858938
 31
0.0
  0
LINE
  5
14E2
330
1F
100
AcDbEntity
  8
0
 62
     1
100
AcDbLine
 10
-16.73474130886313
 20
90.1677513555326
 30
0.0
 11
-16.73474130886404
 21
77.85280712858938
 31
0.0
  0
LINE
  5
14E3
330
1F
100
AcDbEntity
  8
0
 62
     1
100
AcDbLine
 10
-16.48474130886404
 20
90.10280712858937
 30
0.0
 11
-16.48474130886404
 21
89.85280712858937
 31
0.0
  0
LINE
  5
14E4
330
1F
100
AcDbEntity
  8
0
 62
     1
100
AcDbLine
 10
-16.73474130886404
 20
90.10280712858937
 30
0.0
 11
-16.48474130886404
 21
90.10280712858937
 31
0.0
  0
LINE
  5
14E5
330
1F
100
AcDbEntity
  8
0
 62
     1
100
AcDbLine
 10
-16.5197413088639
 20
89.85280712858937
 30
0.0
 11
-14.30974130886386
 21
89.85280712858937
 31
0.0
  0
LINE
  5
14E6
330
1F
100
AcDbEntity
  8
0
 62
     1
100
AcDbLine
 10
-16.5197413088639
 20
90.24066702032703
 30
0.0
 11
-16.5197413088639
 21
77.85280712858938
 31
0.0
  0
LINE
  5
14E7
330
1F
100
AcDbEntity
  8
0
 62
     1
100
AcDbLine
 10
-15.07474130886419
 20
90.73072811626824
 30
0.0
 11
-15.07474130886419
 21
77.85280712858938
 31
0.0
  0
LINE
  5
14E8
330
1F
100
AcDbEntity
  8
A2 Hatch
  6
DASHED2
 48
0.15
100
AcDbLine
 10
-16.35974130886404
 20
90.29492984063907
 30
0.0
 11
-16.35974130886404
 21
77.85280712858938
 31
0.0
  0
LINE
  5
14E9
330
1F
100
AcDbEntity
  8
A2 Hatch
  6
DASHED2
 48
0.15
100
AcDbLine
 10
-15.23474130886404
 20
90.67646529595666
 30
0.0
 11
-15.23474130886404
 21
77.85280712858938
 31
0.0
  0
LINE
  5
14EA
330
1F
100
AcDbEntity
  8
0
 62
     1
100
AcDbLine
 10
-16.93474130886477
 20
89.85280712858937
 30
0.0
 11
-16.73474130886404
 21
89.85280712858937
 31
0.0
  0
LINE
  5
14EB
330
1F
100
AcDbEntity
  8
DETAILS
 62
     6
370
    20
100
AcDbLine
 10
-23.23474130886314
 20
88.06662779577417
 30
0.0
 11
-23.23474130886404
 21
78.78006083721519
 31
0.0
  0
LINE
  5
14EC
330
1F
100
AcDbEntity
  8
DETAILS
 62
     6
370
    20
100
AcDbLine
 10
-22.55974130886295
 20
84.72280712858927
 30
0.0
 11
-22.04035918495572
 21
84.72280712858927
 31
0.0
  0
ARC
  5
14ED
330
1F
100
AcDbEntity
  8
DETAILS
 62
     6
370
    20
100
AcDbCircle
 10
-22.04035918495663
 20
84.87280712858936
 30
0.0
 40
0.1500000000000909
100
AcDbArc
 50
270.0000000001563
 51
43.83086067193248
  0
LINE
  5
14EE
330
1F
100
AcDbEntity
  8
DETAILS
 62
     6
370
    20
100
AcDbLine
 10
-21.93215108680067
 20
84.97668690281741
 30
0.0
 11
-22.451533210707
 21
85.51770994855386
 31
0.0
  0
ARC
  5
14EF
330
1F
100
AcDbEntity
  8
DETAILS
 62
     6
370
    20
100
AcDbCircle
 10
-22.55974130886205
 20
85.41383017432535
 30
0.0
 40
0.1499999999999651
100
AcDbArc
 50
43.83086067209848
 51
179.9999999999739
  0
LINE
  5
14F0
330
1F
100
AcDbEntity
  8
DETAILS
 62
     6
370
    20
100
AcDbLine
 10
-22.70974130886259
 20
85.41383017432535
 30
0.0
 11
-22.70974130886259
 21
84.8728071285889
 31
0.0
  0
ARC
  5
14F1
330
1F
100
AcDbEntity
  8
DETAILS
 62
     6
370
    20
100
AcDbCircle
 10
-22.55974130886295
 20
84.8728071285889
 30
0.0
 40
0.1499999999996362
100
AcDbArc
 50
179.9999999999479
 51
270.0000000001563
  0
LINE
  5
14F2
330
1F
100
AcDbEntity
  8
DETAILS
 62
     6
370
    20
100
AcDbLine
 10
-22.70974130886259
 20
83.35280712858937
 30
0.0
 11
-22.70974130886259
 21
82.81178408285294
 31
0.0
  0
ARC
  5
14F3
330
1F
100
AcDbEntity
  8
DETAILS
 62
     6
370
    20
100
AcDbCircle
 10
-22.55974130886205
 20
82.81178408285294
 30
0.0
 40
0.1500000000000909
100
AcDbArc
 50
180.000000000026
 51
316.1691393279015
  0
LINE
  5
14F4
330
1F
100
AcDbEntity
  8
DETAILS
 62
     6
370
    20
100
AcDbLine
 10
-22.451533210707
 20
82.70790430862488
 30
0.0
 11
-21.93215108680067
 21
83.24892735436085
 31
0.0
  0
ARC
  5
14F5
330
1F
100
AcDbEntity
  8
DETAILS
 62
     6
370
    20
100
AcDbCircle
 10
-22.04035918495663
 20
83.35280712858937
 30
0.0
 40
0.1500000000001751
100
AcDbArc
 50
316.1691393280675
 51
89.99999999984366
  0
LINE
  5
14F6
330
1F
100
AcDbEntity
  8
DETAILS
 62
     6
370
    20
100
AcDbLine
 10
-22.04035918495572
 20
83.50280712858902
 30
0.0
 11
-22.55974130886295
 21
83.50280712858902
 31
0.0
  0
ARC
  5
14F7
330
1F
100
AcDbEntity
  8
DETAILS
 62
     6
370
    20
100
AcDbCircle
 10
-22.55974130886295
 20
83.35280712858937
 30
0.0
 40
0.1499999999998636
100
AcDbArc
 50
89.99999999984366
 51
180.0000000000521
  0
LINE
  5
14F8
330
1F
100
AcDbEntity
  8
DETAILS
 62
     6
370
    20
100
AcDbLine
 10
-22.55974130886295
 20
84.77280712858945
 30
0.0
 11
-22.04035918495572
 21
84.77280712858945
 31
0.0
  0
ARC
  5
14F9
330
1F
100
AcDbEntity
  8
DETAILS
 62
     6
370
    20
100
AcDbCircle
 10
-22.04035918495572
 20
84.8728071285889
 30
0.0
 40
0.1000000000000227
100
AcDbArc
 50
270.0
 51
43.83086067200606
  0
LINE
  5
14FA
330
1F
100
AcDbEntity
  8
DETAILS
 62
     6
370
    20
100
AcDbLine
 10
-21.96822045285205
 20
84.94206031140791
 30
0.0
 11
-22.48760257675838
 21
85.48308335714436
 31
0.0
  0
ARC
  5
14FB
330
1F
100
AcDbEntity
  8
DETAILS
 62
     6
370
    20
100
AcDbCircle
 10
-22.55974130886205
 20
85.41383017432535
 30
0.0
 40
0.1000000000001123
100
AcDbArc
 50
43.8308606720609
 51
180.0
  0
LINE
  5
14FC
330
1F
100
AcDbEntity
  8
DETAILS
 62
     6
370
    20
100
AcDbLine
 10
-22.6597413088615
 20
85.41383017432535
 30
0.0
 11
-22.65974130886241
 21
84.8728071285889
 31
0.0
  0
ARC
  5
14FD
330
1F
100
AcDbEntity
  8
DETAILS
 62
     6
370
    20
100
AcDbCircle
 10
-22.55974130886205
 20
84.87280712858936
 30
0.0
 40
0.1000000000003638
100
AcDbArc
 50
180.0000000001302
 51
269.9999999997394
  0
LINE
  5
14FE
330
1F
100
AcDbEntity
  8
DETAILS
 62
     6
370
    20
100
AcDbLine
 10
-22.65974130886241
 20
83.35280712858937
 30
0.0
 11
-22.6597413088615
 21
82.81178408285294
 31
0.0
  0
ARC
  5
14FF
330
1F
100
AcDbEntity
  8
DETAILS
 62
     6
370
    20
100
AcDbCircle
 10
-22.55974130886205
 20
82.81178408285294
 30
0.0
 40
0.0999999999999091
100
AcDbArc
 50
179.9999999999739
 51
316.1691393279939
  0
LINE
  5
1500
330
1F
100
AcDbEntity
  8
DETAILS
 62
     6
370
    20
100
AcDbLine
 10
-22.48760257675838
 20
82.74253090003439
 30
0.0
 11
-21.96822045285205
 21
83.28355394577036
 31
0.0
  0
ARC
  5
1501
330
1F
100
AcDbEntity
  8
DETAILS
 62
     6
370
    20
100
AcDbCircle
 10
-22.04035918495572
 20
83.35280712858937
 30
0.0
 40
0.1000000000000336
100
AcDbArc
 50
316.1691393279939
 51
90.0
  0
LINE
  5
1502
330
1F
100
AcDbEntity
  8
DETAILS
 62
     6
370
    20
100
AcDbLine
 10
-22.04035918495572
 20
83.45280712858928
 30
0.0
 11
-22.55974130886295
 21
83.45280712858928
 31
0.0
  0
ARC
  5
1503
330
1F
100
AcDbEntity
  8
DETAILS
 62
     6
370
    20
100
AcDbCircle
 10
-22.55974130886205
 20
83.35280712858892
 30
0.0
 40
0.1000000000001364
100
AcDbArc
 50
90.00000000026055
 51
179.9999999998697
  0
LINE
  5
1504
330
1F
100
AcDbEntity
  8
DETAILS
 62
     6
370
    20
100
AcDbLine
 10
-16.83474130886532
 20
89.47780712858937
 30
0.0
 11
-16.83474130886441
 21
78.78006083721519
 31
0.0
  0
LINE
  5
1505
330
1F
100
AcDbEntity
  8
DETAILS
 62
     6
370
    20
100
AcDbLine
 10
-17.35974130886586
 20
84.8728071285889
 30
0.0
 11
-17.35974130886586
 21
85.41383017432535
 31
0.0
  0
ARC
  5
1506
330
1F
100
AcDbEntity
  8
DETAILS
 62
     6
370
    20
100
AcDbCircle
 10
-17.50974130886641
 20
85.41383017432535
 30
0.0
 40
0.1500000000000909
100
AcDbArc
 50
0.0000000000260551
 51
136.1691393279015
  0
LINE
  5
1507
330
1F
100
AcDbEntity
  8
DETAILS
 62
     6
370
    20
100
AcDbLine
 10
-17.61794940702145
 20
85.51770994855386
 30
0.0
 11
-18.13733153092778
 21
84.97668690281741
 31
0.0
  0
ARC
  5
1508
330
1F
100
AcDbEntity
  8
DETAILS
 62
     6
370
    20
100
AcDbCircle
 10
-18.02912343277182
 20
84.87280712858936
 30
0.0
 40
0.1500000000001751
100
AcDbArc
 50
136.1691393280675
 51
269.9999999998437
  0
LINE
  5
1509
330
1F
100
AcDbEntity
  8
DETAILS
 62
     6
370
    20
100
AcDbLine
 10
-18.02912343277273
 20
84.72280712858927
 30
0.0
 11
-17.5097413088655
 21
84.72280712858927
 31
0.0
  0
ARC
  5
150A
330
1F
100
AcDbEntity
  8
DETAILS
 62
     6
370
    20
100
AcDbCircle
 10
-17.5097413088655
 20
84.8728071285889
 30
0.0
 40
0.1499999999998067
100
AcDbArc
 50
269.9999999998437
 51
0.0000000000781653
  0
LINE
  5
150B
330
1F
100
AcDbEntity
  8
DETAILS
 62
     6
370
    20
100
AcDbLine
 10
-17.5097413088655
 20
83.50280712858902
 30
0.0
 11
-18.02912343277273
 21
83.50280712858902
 31
0.0
  0
ARC
  5
150C
330
1F
100
AcDbEntity
  8
DETAILS
 62
     6
370
    20
100
AcDbCircle
 10
-18.02912343277182
 20
83.35280712858937
 30
0.0
 40
0.1500000000001478
100
AcDbArc
 50
90.00000000015633
 51
223.8308606719325
  0
LINE
  5
150D
330
1F
100
AcDbEntity
  8
DETAILS
 62
     6
370
    20
100
AcDbLine
 10
-18.13733153092778
 20
83.24892735436085
 30
0.0
 11
-17.61794940702145
 21
82.70790430862488
 31
0.0
  0
ARC
  5
150E
330
1F
100
AcDbEntity
  8
DETAILS
 62
     6
370
    20
100
AcDbCircle
 10
-17.50974130886641
 20
82.81178408285294
 30
0.0
 40
0.1499999999999651
100
AcDbArc
 50
223.8308606720985
 51
359.999999999974
  0
LINE
  5
150F
330
1F
100
AcDbEntity
  8
DETAILS
 62
     6
370
    20
100
AcDbLine
 10
-17.35974130886586
 20
82.81178408285294
 30
0.0
 11
-17.35974130886586
 21
83.35280712858937
 31
0.0
  0
ARC
  5
1510
330
1F
100
AcDbEntity
  8
DETAILS
 62
     6
370
    20
100
AcDbCircle
 10
-17.5097413088655
 20
83.35280712858937
 30
0.0
 40
0.1499999999996362
100
AcDbArc
 50
359.9999999999218
 51
90.00000000015633
  0
ARC
  5
1511
330
1F
100
AcDbEntity
  8
DETAILS
 62
     6
370
    20
100
AcDbCircle
 10
-21.55983221112854
 20
82.59780712858926
 30
0.0
 40
0.010000000000022
100
AcDbArc
 50
97.40989078445366
 51
262.5901092155463
  0
LINE
  5
1512
330
1F
100
AcDbEntity
  8
DETAILS
 62
     6
370
    20
100
AcDbLine
 10
-21.56112187896486
 20
82.58789063944849
 30
0.0
 11
-21.40501178936154
 21
82.57280712858918
 31
0.0
  0
LINE
  5
1513
330
1F
100
AcDbEntity
  8
DETAILS
 62
     6
370
    20
100
AcDbLine
 10
-21.40501178936154
 20
82.57280712858918
 30
0.0
 11
-20.03474130886423
 21
82.57280712858918
 31
0.0
  0
LINE
  5
1514
330
1F
100
AcDbEntity
  8
DETAILS
 62
     6
370
    20
100
AcDbLine
 10
-20.03474130886423
 20
82.57280712858918
 30
0.0
 11
-18.66447082836691
 21
82.57280712858918
 31
0.0
  0
LINE
  5
1515
330
1F
100
AcDbEntity
  8
DETAILS
 62
     6
370
    20
100
AcDbLine
 10
-18.66447082836691
 20
82.57280712858918
 30
0.0
 11
-18.5083607387636
 21
82.58789063944849
 31
0.0
  0
ARC
  5
1516
330
1F
100
AcDbEntity
  8
DETAILS
 62
     6
370
    20
100
AcDbCircle
 10
-18.50965040659992
 20
82.59780712858926
 30
0.0
 40
0.0099999999999656
100
AcDbArc
 50
277.4098907844536
 51
82.59010921554635
  0
LINE
  5
1517
330
1F
100
AcDbEntity
  8
DETAILS
 62
     6
370
    20
100
AcDbLine
 10
-18.5083607387636
 20
82.60772361772959
 30
0.0
 11
-18.664470828366
 21
82.62280712858936
 31
0.0
  0
LINE
  5
1518
330
1F
100
AcDbEntity
  8
DETAILS
 62
     6
370
    20
100
AcDbLine
 10
-18.664470828366
 20
82.62280712858936
 30
0.0
 11
-20.03474130886423
 21
82.62280712858936
 31
0.0
  0
LINE
  5
1519
330
1F
100
AcDbEntity
  8
DETAILS
 62
     6
370
    20
100
AcDbLine
 10
-20.03474130886423
 20
82.62280712858936
 30
0.0
 11
-21.40501178936154
 21
82.6228071285889
 31
0.0
  0
LINE
  5
151A
330
1F
100
AcDbEntity
  8
DETAILS
 62
     6
370
    20
100
AcDbLine
 10
-21.40501178936154
 20
82.6228071285889
 30
0.0
 11
-21.56112187896486
 21
82.60772361772959
 31
0.0
  0
ARC
  5
151B
330
1F
100
AcDbEntity
  8
DETAILS
 62
     6
370
    20
100
AcDbCircle
 10
-18.15236309647605
 20
86.33280712858939
 30
0.0
 40
0.1000000000001364
100
AcDbArc
 50
270.0000000002606
 51
316.1691393281413
  0
LINE
  5
151C
330
1F
100
AcDbEntity
  8
DETAILS
 62
     6
370
    20
100
AcDbLine
 10
-18.08022436437147
 20
86.26355394577037
 30
0.0
 11
-16.96260257676328
 21
87.45378497453046
 31
0.0
  0
ARC
  5
151D
330
1F
100
AcDbEntity
  8
DETAILS
 62
     6
370
    20
100
AcDbCircle
 10
-23.03474818855136
 20
87.5230381573481
 30
0.0
 40
0.0999999999999091
100
AcDbArc
 50
179.9999999998697
 51
223.8308606719873
  0
LINE
  5
151E
330
1F
100
AcDbEntity
  8
DETAILS
 62
     6
370
    20
100
AcDbLine
 10
-23.10688692065412
 20
87.45378497452955
 30
0.0
 11
-21.98925825335698
 21
86.26355394577037
 31
0.0
  0
ARC
  5
151F
330
1F
100
AcDbEntity
  8
DETAILS
 62
     6
370
    20
100
AcDbCircle
 10
-21.91711952125331
 20
86.33280712858939
 30
0.0
 40
0.1000000000001911
100
AcDbArc
 50
223.8308606721347
 51
270.0
  0
LINE
  5
1520
330
1F
100
AcDbEntity
  8
DETAILS
 62
     6
370
    20
100
AcDbLine
 10
-21.91711952125331
 20
86.23280712858948
 30
0.0
 11
-21.90974130886332
 21
86.23280712858948
 31
0.0
  0
LINE
  5
1521
330
1F
100
AcDbEntity
  8
DETAILS
 62
     6
370
    20
100
AcDbLine
 10
-21.90974130886332
 20
86.23280712858948
 30
0.0
 11
-21.90974130886332
 21
86.18280712858931
 31
0.0
  0
LINE
  5
1522
330
1F
100
AcDbEntity
  8
DETAILS
 62
     6
370
    20
100
AcDbLine
 10
-21.90974130886332
 20
86.18280712858931
 30
0.0
 11
-21.80974130886295
 21
86.18280712858931
 31
0.0
  0
ARC
  5
1523
330
1F
100
AcDbEntity
  8
DETAILS
 62
     6
370
    20
100
AcDbCircle
 10
-21.80974130886295
 20
86.13280712858912
 30
0.0
 40
0.0500000000001819
100
AcDbArc
 50
359.9999999998697
 51
90.0
  0
LINE
  5
1524
330
1F
100
AcDbEntity
  8
DETAILS
 62
     6
370
    20
100
AcDbLine
 10
-21.75974130886186
 20
86.13280712858912
 30
0.0
 11
-21.75974130886368
 21
86.07780712858929
 31
0.0
  0
ARC
  5
1525
330
1F
100
AcDbEntity
  8
DETAILS
 62
     6
370
    20
100
AcDbCircle
 10
-21.33474130886259
 20
86.07780712858883
 30
0.0
 40
0.4250000000001819
100
AcDbArc
 50
179.9999999999739
 51
359.999999999974
  0
LINE
  5
1526
330
1F
100
AcDbEntity
  8
DETAILS
 62
     6
370
    20
100
AcDbLine
 10
-20.90974130886332
 20
86.07780712858883
 30
0.0
 11
-20.90974130886332
 21
86.13280712858912
 31
0.0
  0
ARC
  5
1527
330
1F
100
AcDbEntity
  8
DETAILS
 62
     6
370
    20
100
AcDbCircle
 10
-20.85974130886314
 20
86.13280712858912
 30
0.0
 40
0.0500000000001819
100
AcDbArc
 50
90.0
 51
179.9999999996613
  0
LINE
  5
1528
330
1F
100
AcDbEntity
  8
DETAILS
 62
     6
370
    20
100
AcDbLine
 10
-20.85974130886314
 20
86.18280712858931
 30
0.0
 11
-20.50974130886368
 21
86.18280712858931
 31
0.0
  0
ARC
  5
1529
330
1F
100
AcDbEntity
  8
DETAILS
 62
     6
370
    20
100
AcDbCircle
 10
-20.50974130886368
 20
86.13280712858912
 30
0.0
 40
0.0500000000001819
100
AcDbArc
 50
359.9999999998697
 51
90.0
  0
LINE
  5
152A
330
1F
100
AcDbEntity
  8
DETAILS
 62
     6
370
    20
100
AcDbLine
 10
-20.4597413088635
 20
86.13280712858912
 30
0.0
 11
-20.45974130886441
 21
86.07780712858611
 31
0.0
  0
ARC
  5
152B
330
1F
100
AcDbEntity
  8
DETAILS
 62
     6
370
    20
100
AcDbCircle
 10
-20.03474130886332
 20
86.07780712858611
 30
0.0
 40
0.4250000000001819
100
AcDbArc
 50
180.0
 51
270.0
  0
ARC
  5
152C
330
1F
100
AcDbEntity
  8
DETAILS
 62
     6
370
    20
100
AcDbCircle
 10
-20.03474130886423
 20
86.07780712858611
 30
0.0
 40
0.4249999999997272
100
AcDbArc
 50
270.0000000000521
 51
0.0000000000521102
  0
LINE
  5
152D
330
1F
100
AcDbEntity
  8
DETAILS
 62
     6
370
    20
100
AcDbLine
 10
-19.60974130886404
 20
86.07780712858611
 30
0.0
 11
-19.60974130886495
 21
86.13280712858912
 31
0.0
  0
ARC
  5
152E
330
1F
100
AcDbEntity
  8
DETAILS
 62
     6
370
    20
100
AcDbCircle
 10
-19.55974130886477
 20
86.13280712858912
 30
0.0
 40
0.0500000000001819
100
AcDbArc
 50
90.0
 51
180.0
  0
LINE
  5
152F
330
1F
100
AcDbEntity
  8
DETAILS
 62
     6
370
    20
100
AcDbLine
 10
-19.55974130886477
 20
86.18280712858931
 30
0.0
 11
-19.20974130886532
 21
86.18280712858931
 31
0.0
  0
ARC
  5
1530
330
1F
100
AcDbEntity
  8
DETAILS
 62
     6
370
    20
100
AcDbCircle
 10
-19.20974130886532
 20
86.13280712858912
 30
0.0
 40
0.0500000000001819
100
AcDbArc
 50
0.000000000260551
 51
90.0
  0
LINE
  5
1531
330
1F
100
AcDbEntity
  8
DETAILS
 62
     6
370
    20
100
AcDbLine
 10
-19.15974130886514
 20
86.13280712858912
 30
0.0
 11
-19.15974130886514
 21
86.07780712858883
 31
0.0
  0
ARC
  5
1532
330
1F
100
AcDbEntity
  8
DETAILS
 62
     6
370
    20
100
AcDbCircle
 10
-18.73474130886495
 20
86.07780712858883
 30
0.0
 40
0.4249999999997272
100
AcDbArc
 50
180.000000000026
 51
0.0000000000260551
  0
LINE
  5
1533
330
1F
100
AcDbEntity
  8
DETAILS
 62
     6
370
    20
100
AcDbLine
 10
-18.30974130886477
 20
86.07780712858929
 30
0.0
 11
-18.30974130886659
 21
86.13280712858912
 31
0.0
  0
ARC
  5
1534
330
1F
100
AcDbEntity
  8
DETAILS
 62
     6
370
    20
100
AcDbCircle
 10
-18.2597413088655
 20
86.13280712858912
 30
0.0
 40
0.0500000000001819
100
AcDbArc
 50
90.0
 51
180.0
  0
LINE
  5
1535
330
1F
100
AcDbEntity
  8
DETAILS
 62
     6
370
    20
100
AcDbLine
 10
-18.2597413088655
 20
86.18280712858931
 30
0.0
 11
-18.15974130886514
 21
86.18280712858931
 31
0.0
  0
LINE
  5
1536
330
1F
100
AcDbEntity
  8
DETAILS
 62
     6
370
    20
100
AcDbLine
 10
-18.15974130886514
 20
86.18280712858931
 30
0.0
 11
-18.15974130886514
 21
86.23280712858948
 31
0.0
  0
LINE
  5
1537
330
1F
100
AcDbEntity
  8
DETAILS
 62
     6
370
    20
100
AcDbLine
 10
-18.15974130886514
 20
86.23280712858948
 30
0.0
 11
-18.15236309647514
 21
86.23280712858948
 31
0.0
  0
LINE
  5
1538
330
1F
100
AcDbEntity
  8
DETAILS
 62
     6
370
    20
100
AcDbLine
 10
-18.15236309647514
 20
86.23280712858948
 30
0.0
 11
-18.30974130886568
 21
86.23280712858948
 31
0.0
  0
ARC
  5
1539
330
1F
100
AcDbEntity
  8
DETAILS
 62
     6
370
    20
100
AcDbCircle
 10
-18.30974130886568
 20
86.18280712858931
 30
0.0
 40
0.0500000000001819
100
AcDbArc
 50
90.0
 51
179.9999999998697
  0
LINE
  5
153A
330
1F
100
AcDbEntity
  8
DETAILS
 62
     6
370
    20
100
AcDbLine
 10
-18.35974130886586
 20
86.18280712858931
 30
0.0
 11
-18.35974130886586
 21
86.07780712858929
 31
0.0
  0
ARC
  5
153B
330
1F
100
AcDbEntity
  8
DETAILS
 62
     6
370
    20
100
AcDbCircle
 10
-18.73474130886586
 20
86.07780712858883
 30
0.0
 40
0.375
100
AcDbArc
 50
180.0
 51
0.0
  0
LINE
  5
153C
330
1F
100
AcDbEntity
  8
DETAILS
 62
     6
370
    20
100
AcDbLine
 10
-19.10974130886586
 20
86.07780712858883
 30
0.0
 11
-19.10974130886586
 21
86.18280712858931
 31
0.0
  0
ARC
  5
153D
330
1F
100
AcDbEntity
  8
DETAILS
 62
     6
370
    20
100
AcDbCircle
 10
-19.15974130886514
 20
86.18280712858931
 30
0.0
 40
0.0500000000001819
100
AcDbArc
 50
0.0000000001302755
 51
90.0
  0
LINE
  5
153E
330
1F
100
AcDbEntity
  8
DETAILS
 62
     6
370
    20
100
AcDbLine
 10
-19.15974130886514
 20
86.23280712858948
 30
0.0
 11
-19.60974130886586
 21
86.23280712858948
 31
0.0
  0
ARC
  5
153F
330
1F
100
AcDbEntity
  8
DETAILS
 62
     6
370
    20
100
AcDbCircle
 10
-19.60974130886586
 20
86.18280712858931
 30
0.0
 40
0.0500000000001251
100
AcDbArc
 50
90.0
 51
179.9999999998697
  0
LINE
  5
1540
330
1F
100
AcDbEntity
  8
DETAILS
 62
     6
370
    20
100
AcDbLine
 10
-19.65974130886514
 20
86.18280712858931
 30
0.0
 11
-19.65974130886514
 21
86.07780712858611
 31
0.0
  0
ARC
  5
1541
330
1F
100
AcDbEntity
  8
DETAILS
 62
     6
370
    20
100
AcDbCircle
 10
-20.03474130886423
 20
86.07780712858611
 30
0.0
 40
0.3749999999995452
100
AcDbArc
 50
270.0000000000521
 51
0.0000000000521102
  0
ARC
  5
1542
330
1F
100
AcDbEntity
  8
DETAILS
 62
     6
370
    20
100
AcDbCircle
 10
-20.03474130886332
 20
86.07780712858611
 30
0.0
 40
0.3749999999998295
100
AcDbArc
 50
180.0
 51
269.9999999999479
  0
LINE
  5
1543
330
1F
100
AcDbEntity
  8
DETAILS
 62
     6
370
    20
100
AcDbLine
 10
-20.40974130886332
 20
86.07780712858611
 30
0.0
 11
-20.40974130886332
 21
86.18280712858931
 31
0.0
  0
ARC
  5
1544
330
1F
100
AcDbEntity
  8
DETAILS
 62
     6
370
    20
100
AcDbCircle
 10
-20.45974130886259
 20
86.18280712858931
 30
0.0
 40
0.0500000000001819
100
AcDbArc
 50
0.0000000001302755
 51
90.0
  0
LINE
  5
1545
330
1F
100
AcDbEntity
  8
DETAILS
 62
     6
370
    20
100
AcDbLine
 10
-20.45974130886259
 20
86.23280712858948
 30
0.0
 11
-20.90974130886332
 21
86.23280712858948
 31
0.0
  0
ARC
  5
1546
330
1F
100
AcDbEntity
  8
DETAILS
 62
     6
370
    20
100
AcDbCircle
 10
-20.90974130886332
 20
86.18280712858931
 30
0.0
 40
0.0500000000001819
100
AcDbArc
 50
90.0
 51
179.9999999998697
  0
LINE
  5
1547
330
1F
100
AcDbEntity
  8
DETAILS
 62
     6
370
    20
100
AcDbLine
 10
-20.95974130886259
 20
86.18280712858931
 30
0.0
 11
-20.95974130886259
 21
86.07780712858883
 31
0.0
  0
ARC
  5
1548
330
1F
100
AcDbEntity
  8
DETAILS
 62
     6
370
    20
100
AcDbCircle
 10
-21.33474130886259
 20
86.07780712858883
 30
0.0
 40
0.3749999999995452
100
AcDbArc
 50
179.9999999999739
 51
0.0
  0
LINE
  5
1549
330
1F
100
AcDbEntity
  8
DETAILS
 62
     6
370
    20
100
AcDbLine
 10
-21.70974130886259
 20
86.07780712858929
 30
0.0
 11
-21.70974130886259
 21
86.18280712858931
 31
0.0
  0
ARC
  5
154A
330
1F
100
AcDbEntity
  8
DETAILS
 62
     6
370
    20
100
AcDbCircle
 10
-21.75974130886277
 20
86.18280712858931
 30
0.0
 40
0.0500000000001819
100
AcDbArc
 50
0.0000000001302755
 51
90.0
  0
LINE
  5
154B
330
1F
100
AcDbEntity
  8
DETAILS
 62
     6
370
    20
100
AcDbLine
 10
-21.75974130886277
 20
86.23280712858948
 30
0.0
 11
-21.91711952125331
 21
86.23280712858948
 31
0.0
  0
LINE
  5
154C
330
1F
100
AcDbEntity
  8
DETAILS
 62
     6
370
    20
100
AcDbLine
 10
-23.13474130886368
 20
78.75326591797082
 30
0.0
 11
-23.13474130886459
 21
80.7613857723525
 31
0.0
  0
LINE
  5
154D
330
1F
100
AcDbEntity
  8
DETAILS
 62
     6
370
    20
100
AcDbLine
 10
-23.13474130886277
 20
88.09782079864616
 30
0.0
 11
-23.13474130886277
 21
87.52303815734856
 31
0.0
  0
LINE
  5
154E
330
1F
100
AcDbEntity
  8
DETAILS
 62
     6
370
    20
100
AcDbLine
 10
-23.13474130886277
 20
87.52303815734856
 30
0.0
 11
-23.13474130886368
 21
80.76138577235296
 31
0.0
  0
ARC
  5
154F
330
1F
100
AcDbEntity
  8
DETAILS
 62
     6
370
    20
100
AcDbCircle
 10
-23.03474130886423
 20
80.76138577235296
 30
0.0
 40
0.0999999999999091
100
AcDbArc
 50
135.0000000001474
 51
180.0000000001302
  0
LINE
  5
1550
330
1F
100
AcDbEntity
  8
DETAILS
 62
     6
370
    20
100
AcDbLine
 10
-23.10545198698253
 20
80.83209645047125
 30
0.0
 11
-21.45367529168504
 21
82.50887314576701
 31
0.0
  0
ARC
  5
1551
330
1F
100
AcDbEntity
  8
DETAILS
 62
     6
370
    20
100
AcDbCircle
 10
-21.34760927450713
 20
82.40280712858956
 30
0.0
 40
0.1499999999998163
100
AcDbArc
 50
90.0
 51
135.0000000000184
  0
LINE
  5
1552
330
1F
100
AcDbEntity
  8
DETAILS
 62
     6
370
    20
100
AcDbLine
 10
-21.34760927450713
 20
82.55280712858919
 30
0.0
 11
-20.03474130886423
 21
82.55280712858919
 31
0.0
  0
LINE
  5
1553
330
1F
100
AcDbEntity
  8
DETAILS
 62
     6
370
    20
100
AcDbLine
 10
-20.03474130886423
 20
82.55280712858919
 30
0.0
 11
-18.72187334322132
 21
82.55280712858919
 31
0.0
  0
ARC
  5
1554
330
1F
100
AcDbEntity
  8
DETAILS
 62
     6
370
    20
100
AcDbCircle
 10
-18.72187334322132
 20
82.40280712858956
 30
0.0
 40
0.1499999999998067
100
AcDbArc
 50
44.99999999998157
 51
90.0
  0
LINE
  5
1555
330
1F
100
AcDbEntity
  8
DETAILS
 62
     6
370
    20
100
AcDbLine
 10
-18.61580732604341
 20
82.50887314576701
 30
0.0
 11
-16.96403063074501
 21
80.83209645047125
 31
0.0
  0
ARC
  5
1556
330
1F
100
AcDbEntity
  8
DETAILS
 62
     6
370
    20
100
AcDbCircle
 10
-17.03474130886422
 20
80.76138577235296
 30
0.0
 40
0.0999999999999044
100
AcDbArc
 50
359.9999999998958
 51
44.99999999985261
  0
LINE
  5
1557
330
1F
100
AcDbEntity
  8
DETAILS
 62
     6
370
    20
100
AcDbLine
 10
-16.93474130886386
 20
80.76138577235296
 30
0.0
 11
-16.93474130886568
 21
87.52303815734856
 31
0.0
  0
ARC
  5
1558
330
1F
100
AcDbEntity
  8
DETAILS
 62
     6
370
    20
100
AcDbCircle
 10
-16.88474130886459
 20
89.5023483392072
 30
0.0
 40
0.0500000000001819
100
AcDbArc
 50
149.9999999997345
 51
179.9999999997394
  0
LINE
  5
1559
330
1F
100
AcDbEntity
  8
DETAILS
 62
     6
370
    20
100
AcDbLine
 10
-16.92804257905334
 20
89.52734833920775
 30
0.0
 11
-16.86895616480467
 21
89.62968901072215
 31
0.0
  0
LINE
  5
155A
330
1F
100
AcDbEntity
  8
DETAILS
 62
     6
370
    20
100
AcDbLine
 10
-16.86895616480467
 20
89.62968901072215
 30
0.0
 11
-16.78235362442717
 21
89.57968901072243
 31
0.0
  0
LINE
  5
155B
330
1F
100
AcDbEntity
  8
DETAILS
 62
     6
370
    20
100
AcDbLine
 10
-16.78235362442717
 20
89.57968901072243
 30
0.0
 11
-16.82804257905297
 21
89.50055341996293
 31
0.0
  0
ARC
  5
155C
330
1F
100
AcDbEntity
  8
DETAILS
 62
     6
370
    20
100
AcDbCircle
 10
-16.78474130886423
 20
89.47555341996238
 30
0.0
 40
0.0500000000002004
100
AcDbArc
 50
149.999999999547
 51
179.999999999531
  0
LINE
  5
155D
330
1F
100
AcDbEntity
  8
DETAILS
 62
     6
370
    20
100
AcDbLine
 10
-16.83474130886441
 20
89.47555341996283
 30
0.0
 11
-16.83474130886441
 21
89.43895087958507
 31
0.0
  0
LINE
  5
155E
330
1F
100
AcDbEntity
  8
DETAILS
 62
     6
370
    20
100
AcDbLine
 10
-17.40974130886604
 20
84.8728071285889
 30
0.0
 11
-17.40974130886695
 21
85.41383017432535
 31
0.0
  0
ARC
  5
155F
330
1F
100
AcDbEntity
  8
DETAILS
 62
     6
370
    20
100
AcDbCircle
 10
-17.50974130886641
 20
85.41383017432535
 30
0.0
 40
0.0999999999999091
100
AcDbArc
 50
0.0
 51
136.1691393279388
  0
LINE
  5
1560
330
1F
100
AcDbEntity
  8
DETAILS
 62
     6
370
    20
100
AcDbLine
 10
-17.58188004097007
 20
85.48308335714436
 30
0.0
 11
-18.1012621648764
 21
84.94206031140791
 31
0.0
  0
ARC
  5
1561
330
1F
100
AcDbEntity
  8
DETAILS
 62
     6
370
    20
100
AcDbCircle
 10
-18.02912343277273
 20
84.87280712858936
 30
0.0
 40
0.1000000000000336
100
AcDbArc
 50
136.1691393279939
 51
270.0
  0
LINE
  5
1562
330
1F
100
AcDbEntity
  8
DETAILS
 62
     6
370
    20
100
AcDbLine
 10
-18.02912343277273
 20
84.77280712858945
 30
0.0
 11
-17.5097413088655
 21
84.77280712858945
 31
0.0
  0
ARC
  5
1563
330
1F
100
AcDbEntity
  8
DETAILS
 62
     6
370
    20
100
AcDbCircle
 10
-17.50974130886641
 20
84.87280712858936
 30
0.0
 40
0.1000000000001364
100
AcDbArc
 50
270.0000000002606
 51
359.9999999998958
  0
LINE
  5
1564
330
1F
100
AcDbEntity
  8
DETAILS
 62
     6
370
    20
100
AcDbLine
 10
-17.5097413088655
 20
83.45280712858928
 30
0.0
 11
-18.02912343277273
 21
83.45280712858928
 31
0.0
  0
ARC
  5
1565
330
1F
100
AcDbEntity
  8
DETAILS
 62
     6
370
    20
100
AcDbCircle
 10
-18.02912343277273
 20
83.35280712858937
 30
0.0
 40
0.1000000000000227
100
AcDbArc
 50
90.0
 51
223.830860672006
  0
LINE
  5
1566
330
1F
100
AcDbEntity
  8
DETAILS
 62
     6
370
    20
100
AcDbLine
 10
-18.1012621648764
 20
83.28355394577036
 30
0.0
 11
-17.58188004097007
 21
82.74253090003439
 31
0.0
  0
ARC
  5
1567
330
1F
100
AcDbEntity
  8
DETAILS
 62
     6
370
    20
100
AcDbCircle
 10
-17.50974130886641
 20
82.81178408285294
 30
0.0
 40
0.1000000000000336
100
AcDbArc
 50
223.830860672006
 51
0.0000000000260551
  0
LINE
  5
1568
330
1F
100
AcDbEntity
  8
DETAILS
 62
     6
370
    20
100
AcDbLine
 10
-17.40974130886695
 20
82.81178408285294
 30
0.0
 11
-17.40974130886604
 21
83.35280712858937
 31
0.0
  0
ARC
  5
1569
330
1F
100
AcDbEntity
  8
DETAILS
 62
     6
370
    20
100
AcDbCircle
 10
-17.50974130886641
 20
83.35280712858892
 30
0.0
 40
0.1000000000003638
100
AcDbArc
 50
0.0000000001042204
 51
89.99999999973944
  0
LINE
  5
156A
330
1F
100
AcDbEntity
  8
0
 62
     1
100
AcDbLine
 10
-16.93474130886295
 20
89.85280712858937
 30
0.0
 11
-14.30974130886386
 21
89.85280712858937
 31
0.0
  0
LINE
  5
156B
330
1F
100
AcDbEntity
  8
0
 62
     1
100
AcDbLine
 10
-16.93474130886295
 20
90.09992283014369
 30
0.0
 11
-16.93474130886295
 21
89.85280712858937
 31
0.0
  0
LINE
  5
156C
330
1F
100
AcDbEntity
  8
0
  6
HIDDEN
 62
     1
 48
0.02
100
AcDbLine
 10
-14.6597413088615
 20
90.35280712858938
 30
0.0
 11
-14.6597413088615
 21
89.85280712858937
 31
0.0
  0
LINE
  5
156D
330
1F
100
AcDbEntity
  8
0
  6
HIDDEN
 62
     1
 48
0.02
100
AcDbLine
 10
-16.30974130886386
 20
90.31188697198675
 30
0.0
 11
-16.30974130886295
 21
89.85280712858937
 31
0.0
  0
LINE
  5
156E
330
1F
100
AcDbEntity
  8
0
  6
HIDDEN
 62
     1
 48
0.02
100
AcDbLine
 10
-15.2847413088615
 20
90.35280712858938
 30
0.0
 11
-15.2847413088615
 21
89.85280712858937
 31
0.0
  0
LINE
  5
156F
330
1F
100
AcDbEntity
  8
0
  6
HIDDEN
 62
     1
 48
0.02
100
AcDbLine
 10
-15.2847413088615
 20
90.35280712858938
 30
0.0
 11
-14.6597413088615
 21
90.35280712858938
 31
0.0
  0
LINE
  5
1570
330
1F
100
AcDbEntity
  8
0
  6
HIDDEN
 62
     1
 48
0.02
100
AcDbLine
 10
-16.73474130886222
 20
90.10280712858937
 30
0.0
 11
-16.73474130886222
 21
89.85280712858937
 31
0.0
  0
LINE
  5
1571
330
1F
100
AcDbEntity
  8
0
  6
HIDDEN
 62
     1
 48
0.02
100
AcDbLine
 10
-16.48474130886222
 20
90.10280712858937
 30
0.0
 11
-16.48474130886222
 21
89.85280712858937
 31
0.0
  0
LINE
  5
1572
330
1F
100
AcDbEntity
  8
0
  6
HIDDEN
 62
     1
 48
0.02
100
AcDbLine
 10
-16.73474130886222
 20
90.10280712858937
 30
0.0
 11
-16.48474130886222
 21
90.10280712858937
 31
0.0
  0
LINE
  5
1573
330
1F
100
AcDbEntity
  8
0
 62
     1
100
AcDbLine
 10
-25.75974130886368
 20
77.85280712858938
 30
0.0
 11
-23.13474130886368
 21
77.85280712858938
 31
0.0
  0
LINE
  5
1574
330
1F
100
AcDbEntity
  8
0
 62
     1
100
AcDbLine
 10
-25.75974130886368
 20
77.85280712858938
 30
0.0
 11
-23.5847413088635
 21
77.85280712858938
 31
0.0
  0
LINE
  5
1575
330
1F
100
AcDbEntity
  8
0
 62
     1
100
AcDbLine
 10
-23.33474130886441
 20
77.85280712858938
 30
0.0
 11
-23.13474130886459
 21
77.85280712858938
 31
0.0
  0
LINE
  5
1576
330
1F
100
AcDbEntity
  8
0
 48
0.15
100
AcDbLine
 10
-24.78474130886332
 20
77.85280712858938
 30
0.0
 11
-23.75974130886368
 21
77.85280712858938
 31
0.0
  0
LINE
  5
1577
330
1F
100
AcDbEntity
  8
0
 62
     1
100
AcDbLine
 10
-23.7097413088635
 20
77.85280712858938
 30
0.0
 11
-24.83474130886441
 21
77.85280712858938
 31
0.0
  0
LINE
  5
1578
330
1F
100
AcDbEntity
  8
0
 62
     1
100
AcDbLine
 10
-25.75974130886368
 20
77.8528190990867
 30
0.0
 11
-23.5847413088635
 21
77.8528190990867
 31
0.0
  0
LINE
  5
1579
330
1F
100
AcDbEntity
  8
0
 62
     1
100
AcDbLine
 10
-25.40974130886332
 20
78.3528190990867
 30
0.0
 11
-24.78474130886332
 21
78.3528190990867
 31
0.0
  0
LINE
  5
157A
330
1F
100
AcDbEntity
  8
0
 62
     1
100
AcDbLine
 10
-23.75974130886368
 20
78.3528190990867
 30
0.0
 11
-23.75974130886459
 21
77.8528190990867
 31
0.0
  0
LINE
  5
157B
330
1F
100
AcDbEntity
  8
0
 62
     1
100
AcDbLine
 10
-24.78474130886332
 20
78.3528190990867
 30
0.0
 11
-24.78474130886332
 21
77.8528190990867
 31
0.0
  0
LINE
  5
157C
330
1F
100
AcDbEntity
  8
0
 62
     1
100
AcDbLine
 10
-23.75974130886459
 20
78.3528190990867
 30
0.0
 11
-23.13474130886459
 21
78.3528190990867
 31
0.0
  0
LINE
  5
157D
330
1F
100
AcDbEntity
  8
0
 62
     1
100
AcDbLine
 10
-23.58474130886441
 20
78.1028190990867
 30
0.0
 11
-23.58474130886441
 21
77.8528190990867
 31
0.0
  0
LINE
  5
157E
330
1F
100
AcDbEntity
  8
0
 62
     1
100
AcDbLine
 10
-23.58474130886441
 20
78.1028190990867
 30
0.0
 11
-23.33474130886441
 21
78.1028190990867
 31
0.0
  0
LINE
  5
157F
330
1F
100
AcDbEntity
  8
0
 62
     1
100
AcDbLine
 10
-23.33474130886441
 20
77.8528190990867
 30
0.0
 11
-23.13474130886459
 21
77.8528190990867
 31
0.0
  0
LINE
  5
1580
330
1F
100
AcDbEntity
  8
0
 48
0.15
100
AcDbLine
 10
-24.78474130886332
 20
77.8528190990867
 30
0.0
 11
-23.75974130886368
 21
77.8528190990867
 31
0.0
  0
LINE
  5
1581
330
1F
100
AcDbEntity
  8
0
 62
     1
100
AcDbLine
 10
-23.7097413088635
 20
77.8528190990867
 30
0.0
 11
-24.83474130886441
 21
77.8528190990867
 31
0.0
  0
LINE
  5
1582
330
1F
100
AcDbEntity
  8
0
 62
     1
100
AcDbLine
 10
-14.65974130886332
 20
78.3528190990867
 30
0.0
 11
-14.65974130886332
 21
77.8528190990867
 31
0.0
  0
LINE
  5
1583
330
1F
100
AcDbEntity
  8
0
 62
     1
100
AcDbLine
 10
-16.30974130886477
 20
78.3528190990867
 30
0.0
 11
-16.30974130886477
 21
77.8528190990867
 31
0.0
  0
LINE
  5
1584
330
1F
100
AcDbEntity
  8
0
 62
     1
100
AcDbLine
 10
-15.28474130886332
 20
78.3528190990867
 30
0.0
 11
-15.28474130886332
 21
77.8528190990867
 31
0.0
  0
LINE
  5
1585
330
1F
100
AcDbEntity
  8
0
 62
     1
100
AcDbLine
 10
-16.93474130886477
 20
78.3528190990867
 30
0.0
 11
-16.30974130886477
 21
78.3528190990867
 31
0.0
  0
LINE
  5
1586
330
1F
100
AcDbEntity
  8
0
 62
     1
100
AcDbLine
 10
-15.28474130886332
 20
78.3528190990867
 30
0.0
 11
-14.65974130886332
 21
78.3528190990867
 31
0.0
  0
LINE
  5
1587
330
1F
100
AcDbEntity
  8
0
 62
     1
100
AcDbLine
 10
-16.48474130886404
 20
78.1028190990867
 30
0.0
 11
-16.48474130886404
 21
77.8528190990867
 31
0.0
  0
LINE
  5
1588
330
1F
100
AcDbEntity
  8
0
 62
     1
100
AcDbLine
 10
-16.73474130886404
 20
78.1028190990867
 30
0.0
 11
-16.48474130886404
 21
78.1028190990867
 31
0.0
  0
LINE
  5
1589
330
1F
100
AcDbEntity
  8
0
 62
     1
100
AcDbLine
 10
-25.75974130886368
 20
77.8528190990867
 30
0.0
 11
-23.13474130886368
 21
77.8528190990867
 31
0.0
  0
LINE
  5
158A
330
1F
100
AcDbEntity
  8
0
 62
     1
100
AcDbLine
 10
-23.13474130886368
 20
78.3528190990867
 30
0.0
 11
-23.13474130886368
 21
77.8528190990867
 31
0.0
  0
LINE
  5
158B
330
1F
100
AcDbEntity
  8
0
  6
HIDDEN
 62
     1
 48
0.02
100
AcDbLine
 10
-25.40974130886332
 20
78.3528190990867
 30
0.0
 11
-24.78474130886332
 21
78.3528190990867
 31
0.0
  0
LINE
  5
158C
330
1F
100
AcDbEntity
  8
0
  6
HIDDEN
 62
     1
 48
0.02
100
AcDbLine
 10
-25.40974130886332
 20
78.3528190990867
 30
0.0
 11
-25.40974130886332
 21
77.8528190990867
 31
0.0
  0
LINE
  5
158D
330
1F
100
AcDbEntity
  8
0
  6
HIDDEN
 62
     1
 48
0.02
100
AcDbLine
 10
-23.75974130886368
 20
78.3528190990867
 30
0.0
 11
-23.75974130886459
 21
77.8528190990867
 31
0.0
  0
LINE
  5
158E
330
1F
100
AcDbEntity
  8
0
  6
HIDDEN
 62
     1
 48
0.02
100
AcDbLine
 10
-24.78474130886332
 20
78.3528190990867
 30
0.0
 11
-24.78474130886332
 21
77.8528190990867
 31
0.0
  0
LINE
  5
158F
330
1F
100
AcDbEntity
  8
0
  6
HIDDEN
 62
     1
 48
0.02
100
AcDbLine
 10
-23.75974130886459
 20
78.3528190990867
 30
0.0
 11
-23.13474130886459
 21
78.3528190990867
 31
0.0
  0
LINE
  5
1590
330
1F
100
AcDbEntity
  8
0
  6
HIDDEN
 62
     1
 48
0.02
100
AcDbLine
 10
-14.6597413088615
 20
78.3528190990867
 30
0.0
 11
-14.6597413088615
 21
77.8528190990867
 31
0.0
  0
LINE
  5
1591
330
1F
100
AcDbEntity
  8
0
  6
HIDDEN
 62
     1
 48
0.02
100
AcDbLine
 10
-16.30974130886295
 20
78.3528190990867
 30
0.0
 11
-16.30974130886295
 21
77.8528190990867
 31
0.0
  0
LINE
  5
1592
330
1F
100
AcDbEntity
  8
0
  6
HIDDEN
 62
     1
 48
0.02
100
AcDbLine
 10
-15.2847413088615
 20
78.3528190990867
 30
0.0
 11
-15.2847413088615
 21
77.8528190990867
 31
0.0
  0
LINE
  5
1593
330
1F
100
AcDbEntity
  8
0
  6
HIDDEN
 62
     1
 48
0.02
100
AcDbLine
 10
-16.93474130886295
 20
78.3528190990867
 30
0.0
 11
-16.30974130886295
 21
78.3528190990867
 31
0.0
  0
LINE
  5
1594
330
1F
100
AcDbEntity
  8
0
  6
HIDDEN
 62
     1
 48
0.02
100
AcDbLine
 10
-15.2847413088615
 20
78.3528190990867
 30
0.0
 11
-14.6597413088615
 21
78.3528190990867
 31
0.0
  0
LINE
  5
1595
330
1F
100
AcDbEntity
  8
0
  6
HIDDEN
 62
     1
 48
0.02
100
AcDbLine
 10
-16.73474130886222
 20
78.1028190990867
 30
0.0
 11
-16.73474130886222
 21
77.8528190990867
 31
0.0
  0
LINE
  5
1596
330
1F
100
AcDbEntity
  8
0
  6
HIDDEN
 62
     1
 48
0.02
100
AcDbLine
 10
-16.48474130886222
 20
78.1028190990867
 30
0.0
 11
-16.48474130886222
 21
77.8528190990867
 31
0.0
  0
LINE
  5
1597
330
1F
100
AcDbEntity
  8
0
  6
HIDDEN
 62
     1
 48
0.02
100
AcDbLine
 10
-16.73474130886222
 20
78.1028190990867
 30
0.0
 11
-16.48474130886222
 21
78.1028190990867
 31
0.0
  0
ARC
  5
1598
330
1F
100
AcDbEntity
  8
DETAILS
 62
     6
370
    20
100
AcDbCircle
 10
-16.88474130886641
 20
78.7532778884686
 30
0.0
 40
0.0499999999997272
100
AcDbArc
 50
180.0000000004429
 51
210.0000000006405
  0
LINE
  5
1599
330
1F
100
AcDbEntity
  8
DETAILS
 62
     6
370
    20
100
AcDbLine
 10
-16.92804257905516
 20
78.72827788846851
 30
0.0
 11
-16.8689561648074
 21
78.62593721695365
 31
0.0
  0
LINE
  5
159A
330
1F
100
AcDbEntity
  8
DETAILS
 62
     6
370
    20
100
AcDbLine
 10
-16.8689561648074
 20
78.62593721695365
 30
0.0
 11
-16.78235362442899
 21
78.67593721695382
 31
0.0
  0
LINE
  5
159B
330
1F
100
AcDbEntity
  8
DETAILS
 62
     6
370
    20
100
AcDbLine
 10
-16.78235362442899
 20
78.67593721695382
 30
0.0
 11
-16.8280425790557
 21
78.75507280771242
 31
0.0
  0
ARC
  5
159C
330
1F
100
AcDbEntity
  8
DETAILS
 62
     6
370
    20
100
AcDbCircle
 10
-16.78474130886695
 20
78.78007280771297
 30
0.0
 40
0.0499999999997213
100
AcDbArc
 50
180.0000000003126
 51
210.0000000005468
  0
LINE
  5
159D
330
1F
100
AcDbEntity
  8
DETAILS
 62
     6
370
    20
100
AcDbLine
 10
-16.83474130886714
 20
78.78007280771297
 30
0.0
 11
-16.83474130886622
 21
78.81667534809119
 31
0.0
  0
LINE
  5
159E
330
1F
100
AcDbEntity
  8
DETAILS
 62
     6
370
    20
100
AcDbLine
 10
-23.23474130886404
 20
78.81667534809029
 30
0.0
 11
-23.23474130886404
 21
78.78007280771297
 31
0.0
  0
ARC
  5
159F
330
1F
100
AcDbEntity
  8
DETAILS
 62
     6
370
    20
100
AcDbCircle
 10
-23.28474130886423
 20
78.78007280771297
 30
0.0
 40
0.0499999999997272
100
AcDbArc
 50
329.9999999994532
 51
359.9999999996613
  0
LINE
  5
15A0
330
1F
100
AcDbEntity
  8
DETAILS
 62
     6
370
    20
100
AcDbLine
 10
-23.24144003867548
 20
78.75507280771242
 30
0.0
 11
-23.28712899330219
 21
78.67593721695292
 31
0.0
  0
LINE
  5
15A1
330
1F
100
AcDbEntity
  8
DETAILS
 62
     6
370
    20
100
AcDbLine
 10
-23.28712899330219
 20
78.67593721695292
 30
0.0
 11
-23.20052645292378
 21
78.62593721695365
 31
0.0
  0
LINE
  5
15A2
330
1F
100
AcDbEntity
  8
DETAILS
 62
     6
370
    20
100
AcDbLine
 10
-23.20052645292378
 20
78.62593721695365
 30
0.0
 11
-23.14144003867602
 21
78.72827788846851
 31
0.0
  0
ARC
  5
15A3
330
1F
100
AcDbEntity
  8
DETAILS
 62
     6
370
    20
100
AcDbCircle
 10
-23.18474130886477
 20
78.7532778884686
 30
0.0
 40
0.0499999999997782
100
AcDbArc
 50
329.9999999993595
 51
359.999999999531
  0
LINE
  5
15A4
330
1F
100
AcDbEntity
  8
0
 62
     1
100
AcDbLine
 10
-14.65974130886332
 20
90.3528190990867
 30
0.0
 11
-14.65974130886332
 21
89.85281909908669
 31
0.0
  0
LINE
  5
15A5
330
1F
100
AcDbEntity
  8
0
 62
     1
100
AcDbLine
 10
-16.30974130886477
 20
90.31188697198585
 30
0.0
 11
-16.30974130886477
 21
89.85281909908669
 31
0.0
  0
LINE
  5
15A6
330
1F
100
AcDbEntity
  8
0
 62
     1
100
AcDbLine
 10
-15.28474130886332
 20
90.3528190990867
 30
0.0
 11
-15.28474130886332
 21
89.85281909908669
 31
0.0
  0
LINE
  5
15A7
330
1F
100
AcDbEntity
  8
0
 62
     1
100
AcDbLine
 10
-15.28474130886332
 20
90.3528190990867
 30
0.0
 11
-14.65974130886332
 21
90.3528190990867
 31
0.0
  0
LINE
  5
15A8
330
1F
100
AcDbEntity
  8
0
 62
     1
100
AcDbLine
 10
-16.48474130886404
 20
90.1028190990867
 30
0.0
 11
-16.48474130886404
 21
89.85281909908669
 31
0.0
  0
LINE
  5
15A9
330
1F
100
AcDbEntity
  8
0
 62
     1
100
AcDbLine
 10
-16.73474130886404
 20
90.1028190990867
 30
0.0
 11
-16.48474130886404
 21
90.1028190990867
 31
0.0
  0
LINE
  5
15AA
330
1F
100
AcDbEntity
  8
0
 62
     1
100
AcDbLine
 10
-16.5197413088639
 20
89.85281909908669
 30
0.0
 11
-14.30974130886386
 21
89.85281909908669
 31
0.0
  0
LINE
  5
15AB
330
1F
100
AcDbEntity
  8
0
 62
     1
100
AcDbLine
 10
-16.93474130886477
 20
89.85281909908669
 30
0.0
 11
-16.73474130886404
 21
89.85281909908669
 31
0.0
  0
LINE
  5
15AC
330
1F
100
AcDbEntity
  8
0
 62
     1
100
AcDbLine
 10
-16.93474130886295
 20
89.85281909908669
 30
0.0
 11
-14.30974130886386
 21
89.85281909908669
 31
0.0
  0
LINE
  5
15AD
330
1F
100
AcDbEntity
  8
0
 62
     1
100
AcDbLine
 10
-16.93474130886295
 20
90.09992283014369
 30
0.0
 11
-16.93474130886295
 21
89.85281909908669
 31
0.0
  0
LINE
  5
15AE
330
1F
100
AcDbEntity
  8
0
  6
HIDDEN
 62
     1
 48
0.02
100
AcDbLine
 10
-14.6597413088615
 20
90.3528190990867
 30
0.0
 11
-14.6597413088615
 21
89.85281909908669
 31
0.0
  0
LINE
  5
15AF
330
1F
100
AcDbEntity
  8
0
  6
HIDDEN
 62
     1
 48
0.02
100
AcDbLine
 10
-16.30974130886386
 20
90.31188697198675
 30
0.0
 11
-16.30974130886295
 21
89.85281909908669
 31
0.0
  0
LINE
  5
15B0
330
1F
100
AcDbEntity
  8
0
  6
HIDDEN
 62
     1
 48
0.02
100
AcDbLine
 10
-15.2847413088615
 20
90.3528190990867
 30
0.0
 11
-15.2847413088615
 21
89.85281909908669
 31
0.0
  0
LINE
  5
15B1
330
1F
100
AcDbEntity
  8
0
  6
HIDDEN
 62
     1
 48
0.02
100
AcDbLine
 10
-15.2847413088615
 20
90.3528190990867
 30
0.0
 11
-14.6597413088615
 21
90.3528190990867
 31
0.0
  0
LINE
  5
15B2
330
1F
100
AcDbEntity
  8
0
  6
HIDDEN
 62
     1
 48
0.02
100
AcDbLine
 10
-16.73474130886222
 20
90.1028190990867
 30
0.0
 11
-16.73474130886222
 21
89.85281909908669
 31
0.0
  0
LINE
  5
15B3
330
1F
100
AcDbEntity
  8
0
  6
HIDDEN
 62
     1
 48
0.02
100
AcDbLine
 10
-16.48474130886222
 20
90.1028190990867
 30
0.0
 11
-16.48474130886222
 21
89.85281909908669
 31
0.0
  0
LINE
  5
15B4
330
1F
100
AcDbEntity
  8
0
  6
HIDDEN
 62
     1
 48
0.02
100
AcDbLine
 10
-16.73474130886222
 20
90.1028190990867
 30
0.0
 11
-16.48474130886222
 21
90.1028190990867
 31
0.0
  0
LWPOLYLINE
  5
15B5
330
1F
100
AcDbEntity
  8
0
 48
0.15
100
AcDbPolyline
 90
        2
 70
     1
 43
0.25
 10
-18.86555862123657
 20
74.07539950509207
 42
1.0
 10
-18.61555862123657
 20
74.07539950509207
 42
1.0
  0
LWPOLYLINE
  5
15B6
330
1F
100
AcDbEntity
  8
0
 48
0.15
100
AcDbPolyline
 90
        2
 70
     1
 43
0.25
 10
-21.478100417365
 20
69.95186793981864
 42
1.0
 10
-21.228100417365
 20
69.95186793981864
 42
1.0
  0
LWPOLYLINE
  5
15B7
330
1F
100
AcDbEntity
  8
0
 48
0.15
100
AcDbPolyline
 90
        2
 70
     1
 43
0.25
 10
-18.86555862123657
 20
69.95186793981864
 42
1.0
 10
-18.61555862123657
 20
69.95186793981864
 42
1.0
  0
ENDSEC
  0
SECTION
  2
OBJECTS
  0
DICTIONARY
  5
C
330
0
100
AcDbDictionary
281
     1
  3
ACAD_COLOR
350
73
  3
ACAD_GROUP
350
D
  3
ACAD_LAYOUT
350
1A
  3
ACAD_MATERIAL
350
72
  3
ACAD_MLINESTYLE
350
17
  3
ACAD_PLOTSETTINGS
350
19
  3
ACAD_PLOTSTYLENAME
350
E
  3
ACDBHEADERROUNDTRIPXREC
350
15C3
  3
AcDbVariableDictionary
350
66
  0
DICTIONARY
  5
A4
330
2
100
AcDbDictionary
280
     1
281
     1
  3
ACAD_LAYERSTATES
360
A5
  0
DICTIONARY
  5
73
102
{ACAD_REACTORS
330
C
102
}
330
C
100
AcDbDictionary
281
     1
  0
DICTIONARY
  5
D
102
{ACAD_REACTORS
330
C
102
}
330
C
100
AcDbDictionary
281
     1
  0
DICTIONARY
  5
1A
102
{ACAD_REACTORS
330
C
102
}
330
C
100
AcDbDictionary
281
     1
  3
Layout1
350
59
  3
Layout2
350
5E
  3
Model
350
22
  0
DICTIONARY
  5
72
102
{ACAD_REACTORS
330
C
102
}
330
C
100
AcDbDictionary
281
     1
  0
DICTIONARY
  5
17
102
{ACAD_REACTORS
330
C
102
}
330
C
100
AcDbDictionary
281
     1
  3
Standard
350
18
  0
DICTIONARY
  5
19
102
{ACAD_REACTORS
330
C
102
}
330
C
100
AcDbDictionary
281
     1
  0
ACDBDICTIONARYWDFLT
  5
E
102
{ACAD_REACTORS
330
C
102
}
330
C
100
AcDbDictionary
281
     1
  3
Normal
350
F
100
AcDbDictionaryWithDefault
340
F
  0
DICTIONARY
  5
15C3
102
{ACAD_REACTORS
330
C
102
}
330
C
100
AcDbDictionary
281
     1
  3
COLORDICT
350
15C5
  3
MATERIALDICT
350
15C4
  0
DICTIONARY
  5
66
102
{ACAD_REACTORS
330
C
102
}
330
C
100
AcDbDictionary
281
     1
  3
DIMASSOC
350
67
  3
HIDETEXT
350
6B
  3
PROJECTNAME
350
33A
  0
DICTIONARY
  5
A5
102
{ACAD_REACTORS
330
A4
102
}
330
A4
100
AcDbDictionary
281
     1
  0
LAYOUT
  5
59
102
{ACAD_XDICTIONARY
360
15C8
102
}
102
{ACAD_REACTORS
330
1A
102
}
330
1A
100
AcDbPlotSettings
  1

  2
None
  4

  6

 40
0.0
 41
0.0
 42
0.0
 43
0.0
 44
0.0
 45
0.0
 46
0.0
 47
0.0
 48
0.0
 49
0.0
140
0.0
141
0.0
142
1.0
143
1.0
 70
   688
 72
     0
 73
     0
 74
     5
  7

 75
    16
147
1.0
148
0.0
149
0.0
100
AcDbLayout
  1
Layout1
 70
     1
 71
     1
 10
0.0
 20
0.0
 11
12.0
 21
9.0
 12
0.0
 22
0.0
 32
0.0
 14
0.0
 24
0.0
 34
0.0
 15
0.0
 25
0.0
 35
0.0
146
0.0
 13
0.0
 23
0.0
 33
0.0
 16
1.0
 26
0.0
 36
0.0
 17
0.0
 27
1.0
 37
0.0
 76
     0
330
58
  0
LAYOUT
  5
5E
102
{ACAD_XDICTIONARY
360
15CA
102
}
102
{ACAD_REACTORS
330
1A
102
}
330
1A
100
AcDbPlotSettings
  1

  2
None
  4

  6

 40
0.0
 41
0.0
 42
0.0
 43
0.0
 44
0.0
 45
0.0
 46
0.0
 47
0.0
 48
0.0
 49
0.0
140
0.0
141
0.0
142
1.0
143
1.0
 70
   688
 72
     0
 73
     0
 74
     5
  7

 75
    16
147
1.0
148
0.0
149
0.0
100
AcDbLayout
  1
Layout2
 70
     1
 71
     2
 10
0.0
 20
0.0
 11
12.0
 21
9.0
 12
0.0
 22
0.0
 32
0.0
 14
0.0
 24
0.0
 34
0.0
 15
0.0
 25
0.0
 35
0.0
146
0.0
 13
0.0
 23
0.0
 33
0.0
 16
1.0
 26
0.0
 36
0.0
 17
0.0
 27
1.0
 37
0.0
 76
     0
330
5D
  0
LAYOUT
  5
22
102
{ACAD_XDICTIONARY
360
15C6
102
}
102
{ACAD_REACTORS
330
1A
102
}
330
1A
100
AcDbPlotSettings
  1

  2
none_device
  4
ANSI_A_(8.50_x_11.00_Inches)
  6

 40
6.349999904632568
 41
19.04999923706055
 42
6.350006103515625
 43
19.04998779296875
 44
215.8999938964844
 45
279.3999938964844
 46
0.0
 47
0.0
 48
0.0
 49
0.0
140
0.0
141
0.0
142
1.0
143
2.584895464708373
 70
 11952
 72
     0
 73
     1
 74
     0
  7

 75
     0
147
0.3868628397755418
148
0.0
149
0.0
100
AcDbLayout
  1
Model
 70
     1
 71
     0
 10
0.0
 20
0.0
 11
12.0
 21
9.0
 12
0.0
 22
0.0
 32
0.0
 14
0.0
 24
0.0
 34
0.0
 15
0.0
 25
0.0
 35
0.0
146
0.0
 13
0.0
 23
0.0
 33
0.0
 16
1.0
 26
0.0
 36
0.0
 17
0.0
 27
1.0
 37
0.0
 76
     0
330
1F
  0
MLINESTYLE
  5
18
102
{ACAD_REACTORS
330
17
102
}
330
17
100
AcDbMlineStyle
  2
STANDARD
 70
     0
  3

 62
   256
 51
90.0
 52
90.0
 71
     2
 49
0.5
 62
   256
  6
BYLAYER
 49
-0.5
 62
   256
  6
BYLAYER
  0
ACDBPLACEHOLDER
  5
F
102
{ACAD_REACTORS
330
E
102
}
330
E
  0
XRECORD
  5
15C5
102
{ACAD_REACTORS
330
15C3
102
}
330
15C3
100
AcDbXrecord
280
     1
340
73
  0
XRECORD
  5
15C4
102
{ACAD_REACTORS
330
15C3
102
}
330
15C3
100
AcDbXrecord
280
     1
340
72
  0
DICTIONARYVAR
  5
67
102
{ACAD_REACTORS
330
66
102
}
330
66
100
DictionaryVariables
280
     0
  1
2
  0
DICTIONARYVAR
  5
6B
102
{ACAD_REACTORS
330
66
102
}
330
66
100
DictionaryVariables
280
     0
  1
1
  0
DICTIONARYVAR
  5
33A
102
{ACAD_REACTORS
330
66
102
}
330
66
100
DictionaryVariables
280
     0
  1

  0
DICTIONARY
  5
15C8
330
59
100
AcDbDictionary
280
     1
281
     1
  3
ACAD_XREC_ROUNDTRIP
360
15C9
  0
DICTIONARY
  5
15CA
330
5E
100
AcDbDictionary
280
     1
281
     1
  3
ACAD_XREC_ROUNDTRIP
360
15CB
  0
DICTIONARY
  5
15C6
330
22
100
AcDbDictionary
280
     1
281
     1
  3
ACAD_XREC_ROUNDTRIP
360
15C7
  0
XRECORD
  5
15C9
102
{ACAD_REACTORS
330
15C8
102
}
330
15C8
100
AcDbXrecord
280
     1
102
SHADEPLOT
 70
     0
102
SHADEPLOTRESLEVEL
 70
     2
102
SHADEPLOTCUSTOMDPI
 70
   300
  0
XRECORD
  5
15CB
102
{ACAD_REACTORS
330
15CA
102
}
330
15CA
100
AcDbXrecord
280
     1
102
SHADEPLOT
 70
     0
102
SHADEPLOTRESLEVEL
 70
     2
102
SHADEPLOTCUSTOMDPI
 70
   300
  0
XRECORD
  5
15C7
102
{ACAD_REACTORS
330
15C6
102
}
330
15C6
100
AcDbXrecord
280
     1
102
SHADEPLOT
 70
     0
102
SHADEPLOTRESLEVEL
 70
     2
102
SHADEPLOTCUSTOMDPI
 70
   300
  0
ENDSEC
  0
EOF
