  0
SECTION
  2
HEADER
  9
$ACADVER
  1
AC1015
  9
$ACADMAINTVER
 70
    20
  9
$DWGCODEPAGE
  3
ANSI_1252
  9
$INSBASE
 10
0.0
 20
0.0
 30
0.0
  9
$EXTMIN
 10
-48.44528495770049
 20
28.94490358795616
 30
-0.0015258207003583
  9
$EXTMAX
 10
24.54186830508999
 20
99.41980333669665
 30
0.0000000349246037
  9
$LIMMIN
 10
0.0
 20
0.0
  9
$LIMMAX
 10
12.0
 20
9.0
  9
$ORTHOMODE
 70
     0
  9
$REGENMODE
 70
     1
  9
$FILLMODE
 70
     1
  9
$QTEXTMODE
 70
     0
  9
$MIRRTEXT
 70
     0
  9
$LTSCALE
 40
1.0
  9
$ATTMODE
 70
     1
  9
$TEXTSIZE
 40
0.2
  9
$TRACEWID
 40
0.05
  9
$TEXTSTYLE
  7
Standard
  9
$CLAYER
  8
0
  9
$CELTYPE
  6
ByLayer
  9
$CECOLOR
 62
   256
  9
$CELTSCALE
 40
1.0
  9
$DISPSILH
 70
     0
  9
$DIMSCALE
 40
1.0
  9
$DIMASZ
 40
0.18
  9
$DIMEXO
 40
0.0625
  9
$DIMDLI
 40
0.38
  9
$DIMRND
 40
0.0
  9
$DIMDLE
 40
0.0
  9
$DIMEXE
 40
0.18
  9
$DIMTP
 40
0.0
  9
$DIMTM
 40
0.0
  9
$DIMTXT
 40
0.18
  9
$DIMCEN
 40
0.09
  9
$DIMTSZ
 40
0.0
  9
$DIMTOL
 70
     0
  9
$DIMLIM
 70
     0
  9
$DIMTIH
 70
     1
  9
$DIMTOH
 70
     1
  9
$DIMSE1
 70
     0
  9
$DIMSE2
 70
     0
  9
$DIMTAD
 70
     0
  9
$DIMZIN
 70
     0
  9
$DIMBLK
  1

  9
$DIMASO
 70
     1
  9
$DIMSHO
 70
     1
  9
$DIMPOST
  1

  9
$DIMAPOST
  1

  9
$DIMALT
 70
     0
  9
$DIMALTD
 70
     2
  9
$DIMALTF
 40
25.4
  9
$DIMLFAC
 40
1.0
  9
$DIMTOFL
 70
     0
  9
$DIMTVP
 40
0.0
  9
$DIMTIX
 70
     0
  9
$DIMSOXD
 70
     0
  9
$DIMSAH
 70
     0
  9
$DIMBLK1
  1

  9
$DIMBLK2
  1

  9
$DIMSTYLE
  2
Standard
  9
$DIMCLRD
 70
     0
  9
$DIMCLRE
 70
     0
  9
$DIMCLRT
 70
     0
  9
$DIMTFAC
 40
1.0
  9
$DIMGAP
 40
0.09
  9
$DIMJUST
 70
     0
  9
$DIMSD1
 70
     0
  9
$DIMSD2
 70
     0
  9
$DIMTOLJ
 70
     1
  9
$DIMTZIN
 70
     0
  9
$DIMALTZ
 70
     0
  9
$DIMALTTZ
 70
     0
  9
$DIMUPT
 70
     0
  9
$DIMDEC
 70
     4
  9
$DIMTDEC
 70
     4
  9
$DIMALTU
 70
     2
  9
$DIMALTTD
 70
     2
  9
$DIMTXSTY
  7
Standard
  9
$DIMAUNIT
 70
     0
  9
$DIMADEC
 70
     0
  9
$DIMALTRND
 40
0.0
  9
$DIMAZIN
 70
     0
  9
$DIMDSEP
 70
    46
  9
$DIMATFIT
 70
     3
  9
$DIMFRAC
 70
     0
  9
$DIMLDRBLK
  1

  9
$DIMLUNIT
 70
     2
  9
$DIMLWD
 70
    -2
  9
$DIMLWE
 70
    -2
  9
$DIMTMOVE
 70
     0
  9
$LUNITS
 70
     2
  9
$LUPREC
 70
     4
  9
$SKETCHINC
 40
0.1
  9
$FILLETRAD
 40
0.0
  9
$AUNITS
 70
     0
  9
$AUPREC
 70
     0
  9
$MENU
  1
.
  9
$ELEVATION
 40
0.0
  9
$PELEVATION
 40
0.0
  9
$THICKNESS
 40
0.0
  9
$LIMCHECK
 70
     0
  9
$CHAMFERA
 40
0.0
  9
$CHAMFERB
 40
0.0
  9
$CHAMFERC
 40
0.0
  9
$CHAMFERD
 40
0.0
  9
$SKPOLY
 70
     0
  9
$TDCREATE
 40
2454938.360508912
  9
$TDUCREATE
 40
2454938.610508913
  9
$TDUPDATE
 40
2454938.363687465
  9
$TDUUPDATE
 40
2454938.613687466
  9
$TDINDWG
 40
0.0031791319
  9
$TDUSRTIMER
 40
0.0031791319
  9
$USRTIMER
 70
     1
  9
$ANGBASE
 50
0.0
  9
$ANGDIR
 70
     0
  9
$PDMODE
 70
     0
  9
$PDSIZE
 40
0.0
  9
$PLINEWID
 40
0.0
  9
$SPLFRAME
 70
     0
  9
$SPLINETYPE
 70
     6
  9
$SPLINESEGS
 70
     8
  9
$HANDSEED
  5
1B42
  9
$SURFTAB1
 70
     6
  9
$SURFTAB2
 70
     6
  9
$SURFTYPE
 70
     6
  9
$SURFU
 70
     6
  9
$SURFV
 70
     6
  9
$UCSBASE
  2

  9
$UCSNAME
  2

  9
$UCSORG
 10
0.0
 20
0.0
 30
0.0
  9
$UCSXDIR
 10
1.0
 20
0.0
 30
0.0
  9
$UCSYDIR
 10
0.0
 20
1.0
 30
0.0
  9
$UCSORTHOREF
  2

  9
$UCSORTHOVIEW
 70
     0
  9
$UCSORGTOP
 10
0.0
 20
0.0
 30
0.0
  9
$UCSORGBOTTOM
 10
0.0
 20
0.0
 30
0.0
  9
$UCSORGLEFT
 10
0.0
 20
0.0
 30
0.0
  9
$UCSORGRIGHT
 10
0.0
 20
0.0
 30
0.0
  9
$UCSORGFRONT
 10
0.0
 20
0.0
 30
0.0
  9
$UCSORGBACK
 10
0.0
 20
0.0
 30
0.0
  9
$PUCSBASE
  2

  9
$PUCSNAME
  2

  9
$PUCSORG
 10
0.0
 20
0.0
 30
0.0
  9
$PUCSXDIR
 10
1.0
 20
0.0
 30
0.0
  9
$PUCSYDIR
 10
0.0
 20
1.0
 30
0.0
  9
$PUCSORTHOREF
  2

  9
$PUCSORTHOVIEW
 70
     0
  9
$PUCSORGTOP
 10
0.0
 20
0.0
 30
0.0
  9
$PUCSORGBOTTOM
 10
0.0
 20
0.0
 30
0.0
  9
$PUCSORGLEFT
 10
0.0
 20
0.0
 30
0.0
  9
$PUCSORGRIGHT
 10
0.0
 20
0.0
 30
0.0
  9
$PUCSORGFRONT
 10
0.0
 20
0.0
 30
0.0
  9
$PUCSORGBACK
 10
0.0
 20
0.0
 30
0.0
  9
$USERI1
 70
     0
  9
$USERI2
 70
     0
  9
$USERI3
 70
     0
  9
$USERI4
 70
     0
  9
$USERI5
 70
     0
  9
$USERR1
 40
0.0
  9
$USERR2
 40
0.0
  9
$USERR3
 40
0.0
  9
$USERR4
 40
0.0
  9
$USERR5
 40
0.0
  9
$WORLDVIEW
 70
     1
  9
$SHADEDGE
 70
     3
  9
$SHADEDIF
 70
    70
  9
$TILEMODE
 70
     1
  9
$MAXACTVP
 70
    64
  9
$PINSBASE
 10
0.0
 20
0.0
 30
0.0
  9
$PLIMCHECK
 70
     0
  9
$PEXTMIN
 10
0.0
 20
0.0
 30
0.0
  9
$PEXTMAX
 10
0.0
 20
0.0
 30
0.0
  9
$PLIMMIN
 10
0.0
 20
0.0
  9
$PLIMMAX
 10
12.0
 20
9.0
  9
$UNITMODE
 70
     0
  9
$VISRETAIN
 70
     1
  9
$PLINEGEN
 70
     0
  9
$PSLTSCALE
 70
     1
  9
$TREEDEPTH
 70
  3020
  9
$CMLSTYLE
  2
Standard
  9
$CMLJUST
 70
     0
  9
$CMLSCALE
 40
1.0
  9
$PROXYGRAPHICS
 70
     1
  9
$MEASUREMENT
 70
     0
  9
$CELWEIGHT
370
    -1
  9
$ENDCAPS
280
     0
  9
$JOINSTYLE
280
     0
  9
$LWDISPLAY
290
     0
  9
$INSUNITS
 70
     1
  9
$HYPERLINKBASE
  1

  9
$STYLESHEET
  1

  9
$XEDIT
290
     1
  9
$CEPSNTYPE
380
     0
  9
$PSTYLEMODE
290
     1
  9
$FINGERPRINTGUID
  2
{FDEAD576-A652-11D2-9A35-0060089B3A3F}
  9
$VERSIONGUID
  2
{156AFC3E-FB8D-4831-8720-C4A1DCF4F5E6}
  9
$EXTNAMES
290
     1
  9
$PSVPSCALE
 40
0.0
  9
$OLESTARTUP
290
     0
  0
ENDSEC
  0
SECTION
  2
CLASSES
  0
CLASS
  1
ACDBDICTIONARYWDFLT
  2
AcDbDictionaryWithDefault
  3
ObjectDBX Classes
 90
        0
280
     0
281
     0
  0
CLASS
  1
ACDBPLACEHOLDER
  2
AcDbPlaceHolder
  3
ObjectDBX Classes
 90
        0
280
     0
281
     0
  0
CLASS
  1
LAYOUT
  2
AcDbLayout
  3
ObjectDBX Classes
 90
        0
280
     0
281
     0
  0
CLASS
  1
DICTIONARYVAR
  2
AcDbDictionaryVar
  3
ObjectDBX Classes
 90
        0
280
     0
281
     0
  0
CLASS
  1
SORTENTSTABLE
  2
AcDbSortentsTable
  3
ObjectDBX Classes
 90
        0
280
     0
281
     0
  0
ENDSEC
  0
SECTION
  2
TABLES
  0
TABLE
  2
VPORT
  5
8
330
0
100
AcDbSymbolTable
 70
    12
  0
VPORT
  5
1B38
330
8
100
AcDbSymbolTableRecord
100
AcDbViewportTableRecord
  2
*Active
 70
     0
 10
0.0
 20
0.0
 11
1.0
 21
1.0
 12
-11.95170832630525
 22
64.1823534623264
 13
0.0
 23
0.0
 14
0.5
 24
0.5
 15
0.5
 25
0.5
 16
0.0
 26
0.0
 36
1.0
 17
0.0
 27
0.0
 37
0.0
 40
70.98374379024765
 41
1.48433734939759
 42
50.0
 43
0.0
 44
0.0
 50
0.0
 51
0.0
 71
     0
 72
  1000
 73
     1
 74
     3
 75
     0
 76
     0
 77
     0
 78
     0
281
     0
 65
     1
110
0.0
120
0.0
130
0.0
111
1.0
121
0.0
131
0.0
112
0.0
122
1.0
132
0.0
 79
     0
146
0.0
  0
ENDTAB
  0
TABLE
  2
LTYPE
  5
5
330
0
100
AcDbSymbolTable
 70
     4
  0
LTYPE
  5
14
330
5
100
AcDbSymbolTableRecord
100
AcDbLinetypeTableRecord
  2
ByBlock
 70
     0
  3

 72
    65
 73
     0
 40
0.0
  0
LTYPE
  5
15
330
5
100
AcDbSymbolTableRecord
100
AcDbLinetypeTableRecord
  2
ByLayer
 70
     0
  3

 72
    65
 73
     0
 40
0.0
  0
LTYPE
  5
16
330
5
100
AcDbSymbolTableRecord
100
AcDbLinetypeTableRecord
  2
Continuous
 70
     0
  3
Solid line
 72
    65
 73
     0
 40
0.0
  0
LTYPE
  5
96
330
5
100
AcDbSymbolTableRecord
100
AcDbLinetypeTableRecord
  2
DASHED2
 70
     0
  3
_ _ _ _ _ _ _ _ _ _ _ _ _ _ _ _ _ _ _ _ _ _ _ _
 72
    65
 73
     2
 40
0.375
 49
0.25
 74
     0
 49
-0.125
 74
     0
  0
LTYPE
  5
97
330
5
100
AcDbSymbolTableRecord
100
AcDbLinetypeTableRecord
  2
HIDDEN
 70
     0
  3
Hidden __ __ __ __ __ __ __ __ __ __ __ __ __ _
 72
    65
 73
     2
 40
0.375
 49
0.25
 74
     0
 49
-0.125
 74
     0
  0
LTYPE
  5
865
330
5
100
AcDbSymbolTableRecord
100
AcDbLinetypeTableRecord
  2
CENTER
 70
     0
  3
Center ____ _ ____ _ ____ _ ____ _ ____ _ ____
 72
    65
 73
     4
 40
2.0
 49
1.25
 74
     0
 49
-0.25
 74
     0
 49
0.25
 74
     0
 49
-0.25
 74
     0
  0
ENDTAB
  0
TABLE
  2
LAYER
  5
2
102
{ACAD_XDICTIONARY
360
A4
102
}
330
0
100
AcDbSymbolTable
 70
     9
  0
LAYER
  5
10
330
2
100
AcDbSymbolTableRecord
100
AcDbLayerTableRecord
  2
0
 70
     0
 62
     7
  6
Continuous
370
    -3
390
F
  0
LAYER
  5
98
330
2
100
AcDbSymbolTableRecord
100
AcDbLayerTableRecord
  2
DIM
 70
     0
 62
     3
  6
Continuous
370
    13
390
F
  0
LAYER
  5
99
330
2
100
AcDbSymbolTableRecord
100
AcDbLayerTableRecord
  2
Defpoints
 70
     0
 62
   252
  6
Continuous
290
     0
370
    -3
390
F
  0
LAYER
  5
9A
330
2
100
AcDbSymbolTableRecord
100
AcDbLayerTableRecord
  2
A2 Hatch
 70
     0
 62
     8
  6
Continuous
370
     9
390
F
  0
LAYER
  5
9B
330
2
100
AcDbSymbolTableRecord
100
AcDbLayerTableRecord
  2
A5 heavy
 70
     0
 62
     5
  6
Continuous
370
    53
390
F
  0
LAYER
  5
9C
330
2
100
AcDbSymbolTableRecord
100
AcDbLayerTableRecord
  2
DETAILS
 70
     0
 62
     7
  6
Continuous
370
    13
390
F
  0
LAYER
  5
866
330
2
100
AcDbSymbolTableRecord
100
AcDbLayerTableRecord
  2
A1 fine
 70
     0
 62
   251
  6
Continuous
370
     5
390
F
  0
LAYER
  5
867
330
2
100
AcDbSymbolTableRecord
100
AcDbLayerTableRecord
  2
A4 medium
 70
     0
 62
     7
  6
Continuous
370
    35
390
F
  0
LAYER
  5
868
330
2
100
AcDbSymbolTableRecord
100
AcDbLayerTableRecord
  2
REBAR
 70
     0
 62
     2
  6
CENTER
370
    30
390
F
  0
ENDTAB
  0
TABLE
  2
STYLE
  5
3
330
0
100
AcDbSymbolTable
 70
     4
  0
STYLE
  5
11
330
3
100
AcDbSymbolTableRecord
100
AcDbTextStyleTableRecord
  2
Standard
 70
     0
 40
0.0
 41
1.0
 50
0.0
 71
     0
 42
0.2
  3
txt
  4

  0
STYLE
  5
9D
330
3
100
AcDbSymbolTableRecord
100
AcDbTextStyleTableRecord
  2
ARCHITXT
 70
     0
 40
0.0
 41
1.25
 50
0.0
 71
     0
 42
1.0
  3
ARCHITXT.shx
  4

  0
STYLE
  5
9E
330
3
100
AcDbSymbolTableRecord
100
AcDbTextStyleTableRecord
  2
ARCTEXT
 70
     0
 40
0.0
 41
0.85
 50
0.0
 71
     0
 42
5.096770384644268
  3
arctext.shx
  4

  0
STYLE
  5
9F
330
3
100
AcDbSymbolTableRecord
100
AcDbTextStyleTableRecord
  2
RomanC
 70
     0
 40
5.0
 41
0.85
 50
0.0
 71
     0
 42
10.0
  3
romanc.shx
  4

  0
ENDTAB
  0
TABLE
  2
VIEW
  5
6
330
0
100
AcDbSymbolTable
 70
     0
  0
ENDTAB
  0
TABLE
  2
UCS
  5
7
330
0
100
AcDbSymbolTable
 70
     0
  0
ENDTAB
  0
TABLE
  2
APPID
  5
9
330
0
100
AcDbSymbolTable
 70
     1
  0
APPID
  5
12
330
9
100
AcDbSymbolTableRecord
100
AcDbRegAppTableRecord
  2
ACAD
 70
     0
  0
ENDTAB
  0
TABLE
  2
DIMSTYLE
  5
A
330
0
100
AcDbSymbolTable
 70
     5
100
AcDbDimStyleTable
 71
     0
  0
DIMSTYLE
105
27
330
A
100
AcDbSymbolTableRecord
100
AcDbDimStyleTableRecord
  2
Standard
 70
     0
340
11
  0
DIMSTYLE
105
A0
330
A
100
AcDbSymbolTableRecord
100
AcDbDimStyleTableRecord
  2
Copy of ROMANS
 70
     0
 41
0.75
 42
0.125
 43
0.125
 44
0.125
 73
     0
 74
     0
 77
     1
 78
     3
140
1.0
141
6.0
147
0.25
172
     1
175
     1
176
     2
177
     2
178
     2
271
     3
272
     3
273
     4
275
     1
277
     4
279
     2
284
     3
285
     3
286
     3
340
9D
  0
DIMSTYLE
105
A1
330
A
100
AcDbSymbolTableRecord
100
AcDbDimStyleTableRecord
  2
ARCTEXT
 70
     0
 40
0.0
 41
2.0
 42
1.0
 43
0.375
 44
0.1875
 73
     0
 74
     0
140
4.0
141
2.0
147
2.0
176
     2
177
     2
178
     2
277
     4
340
9E
341
8D
342
89
  0
DIMSTYLE
105
A2
330
A
100
AcDbSymbolTableRecord
100
AcDbDimStyleTableRecord
  2
ARCTEXT1-4
 70
     0
 41
2.0
 42
2.0
 43
2.0
 44
2.0
 73
     0
 74
     0
 77
     1
 78
     3
140
4.0
141
2.0
147
2.0
172
     1
175
     1
275
     1
277
     4
279
     2
340
9E
341
8D
342
89
  0
DIMSTYLE
105
A3
330
A
100
AcDbSymbolTableRecord
100
AcDbDimStyleTableRecord
  2
ARCTEXT 1-1
 70
     0
 40
0.0
 41
1.0
 42
1.0
 43
0.375
 44
0.1875
 73
     0
 74
     0
 77
     1
 78
     3
140
1.0
141
1.0
147
0.5
176
   256
177
   256
178
   256
277
     4
279
     2
340
9E
341
8D
342
89
  0
ENDTAB
  0
TABLE
  2
BLOCK_RECORD
  5
1
330
0
100
AcDbSymbolTable
 70
    11
  0
BLOCK_RECORD
  5
1F
330
1
100
AcDbSymbolTableRecord
100
AcDbBlockTableRecord
  2
*Model_Space
340
22
  0
BLOCK_RECORD
  5
58
330
1
100
AcDbSymbolTableRecord
100
AcDbBlockTableRecord
  2
*Paper_Space
340
59
  0
BLOCK_RECORD
  5
5D
330
1
100
AcDbSymbolTableRecord
100
AcDbBlockTableRecord
  2
*Paper_Space0
340
5E
  0
BLOCK_RECORD
  5
89
330
1
100
AcDbSymbolTableRecord
100
AcDbBlockTableRecord
  2
_ArchTick
340
0
102
{BLKREFS
331
85E
331
85F
331
1060
331
1061
102
}
  0
BLOCK_RECORD
  5
8D
330
1
100
AcDbSymbolTableRecord
100
AcDbBlockTableRecord
  2
arrow
340
0
310
2800000020000000200000000100080000000000000400000000000000000000000000000000000000000000000080000080000000808000800000008000800080800000C0C0C000C0DCC000F0CAA6000020400000206000002080000020A0000020C0000020E00000400000004020000040400000406000004080000040A0
310
000040C0000040E00000600000006020000060400000606000006080000060A0000060C0000060E00000800000008020000080400000806000008080000080A0000080C0000080E00000A0000000A0200000A0400000A0600000A0800000A0A00000A0C00000A0E00000C0000000C0200000C0400000C0600000C0800000C0
310
A00000C0C00000C0E00000E0000000E0200000E0400000E0600000E0800000E0A00000E0C00000E0E00040000000400020004000400040006000400080004000A0004000C0004000E00040200000402020004020400040206000402080004020A0004020C0004020E000404000004040200040404000404060004040800040
310
40A0004040C0004040E00040600000406020004060400040606000406080004060A0004060C0004060E00040800000408020004080400040806000408080004080A0004080C0004080E00040A0000040A0200040A0400040A0600040A0800040A0A00040A0C00040A0E00040C0000040C0200040C0400040C0600040C08000
310
40C0A00040C0C00040C0E00040E0000040E0200040E0400040E0600040E0800040E0A00040E0C00040E0E00080000000800020008000400080006000800080008000A0008000C0008000E00080200000802020008020400080206000802080008020A0008020C0008020E00080400000804020008040400080406000804080
310
008040A0008040C0008040E00080600000806020008060400080606000806080008060A0008060C0008060E00080800000808020008080400080806000808080008080A0008080C0008080E00080A0000080A0200080A0400080A0600080A0800080A0A00080A0C00080A0E00080C0000080C0200080C0400080C0600080C0
310
800080C0A00080C0C00080C0E00080E0000080E0200080E0400080E0600080E0800080E0A00080E0C00080E0E000C0000000C0002000C0004000C0006000C0008000C000A000C000C000C000E000C0200000C0202000C0204000C0206000C0208000C020A000C020C000C020E000C0400000C0402000C0404000C0406000C0
310
408000C040A000C040C000C040E000C0600000C0602000C0604000C0606000C0608000C060A000C060C000C060E000C0800000C0802000C0804000C0806000C0808000C080A000C080C000C080E000C0A00000C0A02000C0A04000C0A06000C0A08000C0A0A000C0A0C000C0A0E000C0C00000C0C02000C0C04000C0C06000
310
C0C08000C0C0A000F0FBFF00A4A0A000808080000000FF0000FF000000FFFF00FF000000FF00FF00FFFF0000FFFFFF0000000000000000000000000000000000000000000000000000000000000000000000000000000000000000000000000000000000000000000000000000000000000000000000000000000000000000
310
0000000000000000000000000000000000000000000000000000000000000000000000000000000000000000000000000000000000000000000000000000000000000000000000000000000000000000000000000000000000000000000000000000000000000000000000000000000000000000000000FA00000000000000
310
000000000000000000000000000000000000000000000000FA00000000000000000000000000000000000000000000000000000000000000FA0000000000000000000000000000000000000000000000000000FAFA000000FA00000000000000000000000000000000000000000000000000000000FAFA00FA000000000000
310
000000000000000000000000000000000000000000000000FAF7F7000000000000000000000000000000000000000000000000000000000000F7F7F7F7F7F70000000000000000000000000000000000000000000000000000F7F7F7F7F7F7F7F7F7F700000000000000000000000000000000000000000000F7F7F7F7F7F7
310
F7F7F7F7F7F7F7F7000000000000000000000000000000000000F7F7F7F7F7F7F7F7F7F7F7F7F7F7F7F7F7F70000000000FAFA00000000000000F7F7F7F7F7F7F7F7F7F7F7F7F7F7F7F7F7F7F7F7F7FAFAFAFA00000000000000F7F7F7F7F7F7F7F7F7F7F7F7F7F7F7F7F7F70000000000000000000000000000F7F7F7F7F7
310
F7F7F7F7F7F7F7F700000000000000000000000000000000000000F7F7F7F7F7F7F7F70000000000000000000000000000000000000000000000FAF7F7F70000000000000000000000000000000000000000000000000000FAFA00FA0000000000000000000000000000000000000000000000000000FAFA000000FA000000
310
00000000000000000000000000000000000000000000000000000000FA00000000000000000000000000000000000000000000000000000000000000FA00000000000000000000000000000000000000000000000000000000000000FA00000000000000000000000000000000000000000000000000000000000000000000
310
00000000000000000000000000000000000000000000000000000000000000000000000000000000000000000000000000000000000000000000000000000000000000000000000000000000000000000000000000000000000000000000000000000000000000000000000000000000000000000000000000000000000000
310
0000000000000000000000000000000000000000000000000000000000000000000000000000000000000000000000000000000000000000
1001
ACAD
1000
DesignCenter Data
1002
{
1070
     1
1070
     1
1002
}
  0
BLOCK_RECORD
  5
859
330
1
100
AcDbSymbolTableRecord
100
AcDbBlockTableRecord
  2
*D6
340
0
  0
BLOCK_RECORD
  5
1051
330
1
100
AcDbSymbolTableRecord
100
AcDbBlockTableRecord
  2
*D8
340
0
  0
ENDTAB
  0
ENDSEC
  0
SECTION
  2
BLOCKS
  0
BLOCK
  5
20
330
1F
100
AcDbEntity
  8
0
100
AcDbBlockBegin
  2
*Model_Space
 70
     0
 10
0.0
 20
0.0
 30
0.0
  3
*Model_Space
  1

  0
ENDBLK
  5
21
330
1F
100
AcDbEntity
  8
0
100
AcDbBlockEnd
  0
BLOCK
  5
5A
330
58
100
AcDbEntity
 67
     1
  8
0
100
AcDbBlockBegin
  2
*Paper_Space
 70
     0
 10
0.0
 20
0.0
 30
0.0
  3
*Paper_Space
  1

  0
ENDBLK
  5
5B
330
58
100
AcDbEntity
 67
     1
  8
0
100
AcDbBlockEnd
  0
BLOCK
  5
5F
330
5D
100
AcDbEntity
  8
0
100
AcDbBlockBegin
  2
*Paper_Space0
 70
     0
 10
0.0
 20
0.0
 30
0.0
  3
*Paper_Space0
  1

  0
ENDBLK
  5
60
330
5D
100
AcDbEntity
  8
0
100
AcDbBlockEnd
  0
BLOCK
  5
8A
330
89
100
AcDbEntity
  8
0
100
AcDbBlockBegin
  2
_ArchTick
 70
     0
 10
0.0
 20
0.0
 30
0.0
  3
_ArchTick
  1

  0
LWPOLYLINE
  5
8B
330
89
100
AcDbEntity
  8
0
  6
ByBlock
 62
     0
100
AcDbPolyline
 90
        2
 70
     0
 43
0.15
 10
-0.5
 20
-0.5
 10
0.5
 20
0.5
  0
ENDBLK
  5
8C
330
89
100
AcDbEntity
  8
0
100
AcDbBlockEnd
  0
BLOCK
  5
8E
330
8D
100
AcDbEntity
  8
0
100
AcDbBlockBegin
  2
arrow
 70
     0
 10
0.0
 20
0.0
 30
0.0
  3
arrow
  1

  0
HATCH
  5
8F
330
8D
100
AcDbEntity
  8
DIM
 62
   253
100
AcDbHatch
 10
0.0
 20
0.0
 30
0.0
210
0.0
220
0.0
230
1.0
  2
SOLID
 70
     1
 71
     0
 91
        1
 92
        7
 72
     0
 73
     1
 93
        3
 10
-2.0
 20
0.5
 10
-2.0
 20
-0.5
 10
0.0
 20
0.0
 97
        0
 75
     0
 76
     1
 47
0.0337394080685346
 98
        1
 10
-1.103351122172171
 20
0.05064816270351
  0
LWPOLYLINE
  5
90
330
8D
100
AcDbEntity
  8
DIM
370
    15
100
AcDbPolyline
 90
        4
 70
     0
 43
0.0
 10
0.0
 20
0.0
 10
-2.0
 20
-0.5
 10
-2.0
 20
0.5
 10
0.0
 20
0.0
  0
LWPOLYLINE
  5
91
330
8D
100
AcDbEntity
  8
DIM
370
     9
100
AcDbPolyline
 90
        2
 70
     0
 43
0.0
 10
0.3742552490839444
 20
0.0935638122700766
 10
0.0
 20
0.0
  0
LWPOLYLINE
  5
92
330
8D
100
AcDbEntity
  8
DIM
370
     9
100
AcDbPolyline
 90
        3
 70
     0
 43
0.0
 10
-2.0
 20
-0.9831764405007561
 10
-2.0
 20
-0.5
 10
-2.46875
 20
-0.6171875
  0
LWPOLYLINE
  5
93
330
8D
100
AcDbEntity
  8
DIM
370
     9
100
AcDbPolyline
 90
        3
 70
     0
 43
0.0
 10
-2.0
 20
0.9831764405007561
 10
-2.0
 20
0.5
 10
-2.46875
 20
0.6171875
  0
LWPOLYLINE
  5
94
330
8D
100
AcDbEntity
  8
DIM
370
     9
100
AcDbPolyline
 90
        2
 70
     0
 43
0.0
 10
0.3742552490839444
 20
-0.0935638122700766
 10
0.0
 20
0.0
  0
ENDBLK
  5
95
330
8D
100
AcDbEntity
  8
0
100
AcDbBlockEnd
  0
BLOCK
  5
85A
330
859
100
AcDbEntity
  8
0
 48
0.15
100
AcDbBlockBegin
  2
*D6
 70
     1
 10
0.0
 20
0.0
 30
0.0
  3
*D6
  1

  0
LINE
  5
85B
330
859
100
AcDbEntity
  8
DIM
 48
0.15
370
    -2
100
AcDbLine
 10
7258.804787169045
 20
-3362.37866615228
 30
0.0
 11
7244.452332516266
 21
-3362.37866615228
 31
0.0
  0
LINE
  5
85C
330
859
100
AcDbEntity
  8
DIM
 48
0.15
370
    -2
100
AcDbLine
 10
7259.321078680835
 20
-3366.510840404795
 30
0.0
 11
7244.452332516266
 21
-3366.510840404795
 31
0.0
  0
LINE
  5
85D
330
859
100
AcDbEntity
  8
DIM
 48
0.15
370
    -2
100
AcDbLine
 10
7244.639832516266
 20
-3362.37866615228
 30
0.0
 11
7244.639832516266
 21
-3366.510840404795
 31
0.0
  0
INSERT
  5
85E
330
859
100
AcDbEntity
  8
DIM
 48
0.15
370
    -2
100
AcDbBlockReference
  2
_ArchTick
 10
7244.639832516266
 20
-3362.37866615228
 30
0.0
 50
90.0
  0
INSERT
  5
85F
330
859
100
AcDbEntity
  8
DIM
 48
0.15
370
    -2
100
AcDbBlockReference
  2
_ArchTick
 10
7244.639832516266
 20
-3366.510840404795
 30
0.0
 50
270.0
  0
MTEXT
  5
860
330
859
100
AcDbEntity
  8
DIM
 48
0.15
100
AcDbMText
 10
7243.639832516267
 20
-3364.444753278536
 30
0.0
 40
1.0
 41
0.0
 71
     5
 72
     1
  1
\A1;.
  7
ARCTEXT
 11
0.0000000000000001
 21
1.0
 31
0.0
 73
     1
 44
1.0
1001
ACAD
1000
MTEXTBEGIN
1070
    73
1070
     1
1070
    44
1040
1.0
1070
    74
1070
     0
1000
MTEXTEND
  0
POINT
  5
861
330
859
100
AcDbEntity
  8
Defpoints
 62
     0
 48
0.15
100
AcDbPoint
 10
7259.804787169044
 20
-3362.37866615228
 30
0.0
  0
POINT
  5
862
330
859
100
AcDbEntity
  8
Defpoints
 62
     0
 48
0.15
100
AcDbPoint
 10
7260.321078680835
 20
-3366.510840404795
 30
0.0
  0
POINT
  5
863
330
859
100
AcDbEntity
  8
Defpoints
 62
     0
 48
0.15
100
AcDbPoint
 10
7244.639832516266
 20
-3366.510840404795
 30
0.0
  0
ENDBLK
  5
864
330
859
100
AcDbEntity
  8
0
 48
0.15
100
AcDbBlockEnd
  0
BLOCK
  5
105B
330
1051
100
AcDbEntity
  8
0
100
AcDbBlockBegin
  2
*D8
 70
     1
 10
0.0
 20
0.0
 30
0.0
  3
*D8
  1

  0
LINE
  5
105D
330
1051
100
AcDbEntity
  8
DIM
370
    -2
100
AcDbLine
 10
-6.349451024049841
 20
70.30828673096635
 30
0.0
 11
-20.70190567682769
 21
70.30828673096635
 31
0.0
  0
LINE
  5
105E
330
1051
100
AcDbEntity
  8
DIM
370
    -2
100
AcDbLine
 10
-5.833159512259072
 20
66.17611247845076
 30
0.0
 11
-20.70190567682769
 21
66.17611247845076
 31
0.0
  0
LINE
  5
105F
330
1051
100
AcDbEntity
  8
DIM
370
    -2
100
AcDbLine
 10
-20.51440567682769
 20
70.30828673096635
 30
0.0
 11
-20.51440567682769
 21
66.17611247845076
 31
0.0
  0
INSERT
  5
1060
330
1051
100
AcDbEntity
  8
DIM
370
    -2
100
AcDbBlockReference
  2
_ArchTick
 10
-20.51440567682769
 20
70.30828673096635
 30
0.0
 50
90.0
  0
INSERT
  5
1061
330
1051
100
AcDbEntity
  8
DIM
370
    -2
100
AcDbBlockReference
  2
_ArchTick
 10
-20.51440567682769
 20
66.17611247845076
 30
0.0
 50
270.0
  0
MTEXT
  5
1062
330
1051
100
AcDbEntity
  8
DIM
100
AcDbMText
 10
-21.51440567682771
 20
68.24219960470855
 30
0.0
 40
1.0
 41
0.0
 71
     5
 72
     1
  1
\A1;.
  7
ARCTEXT
 11
0.0000000000000001
 21
1.0
 31
0.0
 73
     1
 44
1.0
1001
ACAD
1000
MTEXTBEGIN
1070
    73
1070
     1
1070
    44
1040
1.0
1070
    74
1070
     0
1000
MTEXTEND
  0
POINT
  5
1063
330
1051
100
AcDbEntity
  8
Defpoints
 62
     0
100
AcDbPoint
 10
-5.349451024049841
 20
70.30828673096635
 30
0.0
  0
POINT
  5
1064
330
1051
100
AcDbEntity
  8
Defpoints
 62
     0
100
AcDbPoint
 10
-4.833159512259072
 20
66.17611247845076
 30
0.0
  0
POINT
  5
1065
330
1051
100
AcDbEntity
  8
Defpoints
 62
     0
100
AcDbPoint
 10
-20.51440567682769
 20
66.17611247845076
 30
0.0
  0
ENDBLK
  5
105C
330
1051
100
AcDbEntity
  8
0
100
AcDbBlockEnd
  0
ENDSEC
  0
SECTION
  2
ENTITIES
  0
MTEXT
  5
1885
330
1F
100
AcDbEntity
  8
Defpoints
100
AcDbMText
 10
-45.52539175554272
 20
32.55051867413164
 30
0.0
 40
3.0
 41
90.07999999999999
 71
     2
 72
     5
  1
{\L118\P}\P            
  7
RomanC
 73
     1
 44
1.0
1001
ACAD
1000
MTEXTBEGIN
1070
    73
1070
     1
1070
    44
1040
1.0
1070
    74
1070
     0
1000
MTEXTEND
  0
MTEXT
  5
1886
330
1F
100
AcDbEntity
  8
DIM
100
AcDbMText
 10
-8.428550086983591
 20
42.22936338253663
 30
0.0
 40
3.0
 41
71.41649521821006
 71
     2
 72
     5
  1
{\L6" WALL W/ SUBSURFACE BUCK AND WINDOW}\P               
  7
RomanC
 73
     1
 44
1.0
1001
ACAD
1000
MTEXTBEGIN
1070
    73
1070
     1
1070
    44
1040
1.0
1070
    74
1070
     0
1000
MTEXTEND
  0
LINE
  5
1887
330
1F
100
AcDbEntity
  8
0
 62
     1
100
AcDbLine
 10
-17.34998914455434
 20
85.52377595226658
 30
0.0
 11
-15.34998914455434
 21
85.52377595226658
 31
0.0
  0
LINE
  5
1888
330
1F
100
AcDbEntity
  8
0
  6
HIDDEN
 62
     1
 48
0.02
100
AcDbLine
 10
-15.6999891445538
 20
86.02377595226659
 30
0.0
 11
-15.6999891445538
 21
85.52377595226658
 31
0.0
  0
LINE
  5
1889
330
1F
100
AcDbEntity
  8
0
  6
HIDDEN
 62
     1
 48
0.02
100
AcDbLine
 10
-16.3249891445538
 20
86.02377595226659
 30
0.0
 11
-16.3249891445538
 21
85.52377595226658
 31
0.0
  0
LINE
  5
188A
330
1F
100
AcDbEntity
  8
0
  6
HIDDEN
 62
     1
 48
0.02
100
AcDbLine
 10
-16.3249891445538
 20
86.02377595226659
 30
0.0
 11
-15.6999891445538
 21
86.02377595226659
 31
0.0
  0
LINE
  5
188B
330
1F
100
AcDbEntity
  8
0
 62
     1
100
AcDbLine
 10
-15.6999891445547
 20
86.02377595226659
 30
0.0
 11
-15.6999891445547
 21
85.52377595226658
 31
0.0
  0
LINE
  5
188C
330
1F
100
AcDbEntity
  8
0
 62
     1
100
AcDbLine
 10
-16.3249891445547
 20
86.02377595226659
 30
0.0
 11
-16.3249891445547
 21
85.52377595226658
 31
0.0
  0
LINE
  5
188D
330
1F
100
AcDbEntity
  8
0
 62
     1
100
AcDbLine
 10
-16.3249891445547
 20
86.02377595226659
 30
0.0
 11
-15.6999891445547
 21
86.02377595226659
 31
0.0
  0
LINE
  5
188E
330
1F
100
AcDbEntity
  8
0
 62
     1
100
AcDbLine
 10
-16.93498914455529
 20
85.52377595226658
 30
0.0
 11
-15.34998914455434
 21
85.52377595226658
 31
0.0
  0
LINE
  5
188F
330
1F
100
AcDbEntity
  8
0
 62
     1
100
AcDbLine
 10
-17.34998914455525
 20
85.52377595226658
 30
0.0
 11
-17.14998914455543
 21
85.52377595226658
 31
0.0
  0
LINE
  5
1890
330
1F
100
AcDbEntity
  8
0
 48
0.15
100
AcDbLine
 10
-24.17498914455507
 20
73.52377595226659
 30
0.0
 11
-17.34998914455434
 21
73.52377595226659
 31
0.0
  0
LINE
  5
1891
330
1F
100
AcDbEntity
  8
0
 48
0.15
100
AcDbLine
 10
-24.17498914455416
 20
75.02377595226704
 30
0.0
 11
-17.97498914455616
 21
75.02377595226704
 31
0.0
  0
LINE
  5
1892
330
1F
100
AcDbEntity
  8
A2 Hatch
 48
0.15
100
AcDbLine
 10
-17.97498914455616
 20
75.02377595226704
 30
0.0
 11
-24.17498914455416
 21
73.52377595226704
 31
0.0
  0
LINE
  5
1893
330
1F
100
AcDbEntity
  8
A2 Hatch
 48
0.15
100
AcDbLine
 10
-24.17498914455416
 20
75.02377595226704
 30
0.0
 11
-17.97498914455616
 21
73.52377595226704
 31
0.0
  0
LINE
  5
1894
330
1F
100
AcDbEntity
  8
A5 heavy
 48
0.15
100
AcDbLine
 10
-18.95576274898928
 20
75.70003906519429
 30
0.0
 11
-19.45576274898929
 21
75.70003906519429
 31
0.0
  0
LINE
  5
1895
330
1F
100
AcDbEntity
  8
A5 heavy
 48
0.15
100
AcDbLine
 10
-19.20576274898929
 20
75.70003906519429
 30
0.0
 11
-19.20576274898929
 21
74.5026739018345
 31
0.0
  0
LINE
  5
1896
330
1F
100
AcDbEntity
  8
A5 heavy
 48
0.15
100
AcDbLine
 10
-23.05853917279535
 20
75.70003906519429
 30
0.0
 11
-22.55853917279535
 21
75.70003906519429
 31
0.0
  0
LINE
  5
1897
330
1F
100
AcDbEntity
  8
A5 heavy
 48
0.15
100
AcDbLine
 10
-22.80853917279535
 20
75.70003906519429
 30
0.0
 11
-22.80853917279535
 21
74.5026739018345
 31
0.0
  0
LINE
  5
1898
330
1F
100
AcDbEntity
  8
A5 heavy
 48
0.15
100
AcDbLine
 10
-15.34998914455434
 20
74.03049856321246
 30
0.0
 11
-15.34998914455434
 21
74.53049856321246
 31
0.0
  0
LINE
  5
1899
330
1F
100
AcDbEntity
  8
A5 heavy
 48
0.15
100
AcDbLine
 10
-15.34998914455434
 20
74.28049856321246
 30
0.0
 11
-18.98173997767378
 21
74.28049856321246
 31
0.0
  0
LINE
  5
189A
330
1F
100
AcDbEntity
  8
A5 heavy
 48
0.15
100
AcDbLine
 10
-26.79998914455598
 20
74.03049856321246
 30
0.0
 11
-26.79998914455598
 21
74.53049856321246
 31
0.0
  0
LINE
  5
189B
330
1F
100
AcDbEntity
  8
A5 heavy
 48
0.15
100
AcDbLine
 10
-26.79998914455598
 20
74.28049856321246
 30
0.0
 11
-23.2860586858568
 21
74.28049856321246
 31
0.0
  0
LINE
  5
189C
330
1F
100
AcDbEntity
  8
0
 48
0.15
100
AcDbLine
 10
-14.84998914455343
 20
98.83071236303619
 30
0.0
 11
-14.84998914455434
 21
73.02377595226705
 31
0.0
  0
LINE
  5
189D
330
1F
100
AcDbEntity
  8
DIM
100
AcDbLine
 10
-13.23165087451787
 20
99.41612973198932
 30
0.0
 11
-20.59169734835075
 21
96.93458394470788
 31
0.0
  0
LINE
  5
189E
330
1F
100
AcDbEntity
  8
DIM
100
AcDbLine
 10
-19.88966508574947
 20
94.86456323125054
 30
0.0
 11
-20.59169734834984
 21
96.93458394470788
 31
0.0
  0
LINE
  5
189F
330
1F
100
AcDbEntity
  8
DIM
100
AcDbLine
 10
-23.33681064403379
 20
98.31170878953532
 30
0.0
 11
-22.63477838143342
 21
96.24168807607844
 31
0.0
  0
LINE
  5
18A0
330
1F
100
AcDbEntity
  8
DIM
100
AcDbLine
 10
-22.63477838143342
 20
96.24168807607844
 30
0.0
 11
-30.04477507335639
 21
93.90437428151249
 31
0.0
  0
LINE
  5
18A1
330
1F
100
AcDbEntity
  8
DIM
100
AcDbLine
 10
-19.88966508574947
 20
94.86456323125054
 30
0.0
 11
-23.33681064403379
 21
98.31170878953532
 31
0.0
  0
LINE
  5
18A2
330
1F
100
AcDbEntity
  8
0
 48
0.15
100
AcDbLine
 10
-27.29998914455325
 20
73.02377595226795
 30
0.0
 11
-23.32361355505225
 21
73.02377595226431
 31
0.0
  0
LINE
  5
18A3
330
1F
100
AcDbEntity
  8
0
 48
0.15
100
AcDbLine
 10
-20.28593608023846
 20
73.52377595226659
 30
0.0
 11
-20.53593608023846
 21
73.52377595226659
 31
0.0
  0
LINE
  5
18A4
330
1F
100
AcDbEntity
  8
0
 48
0.15
100
AcDbLine
 10
-23.32361355505316
 20
73.52377595226659
 30
0.0
 11
-23.32361355505316
 21
72.02377595226659
 31
0.0
  0
LINE
  5
18A5
330
1F
100
AcDbEntity
  8
0
 48
0.15
100
AcDbLine
 10
-23.32361355505316
 20
72.02377595226659
 30
0.0
 11
-23.82361355505316
 21
72.02377595226659
 31
0.0
  0
LINE
  5
18A6
330
1F
100
AcDbEntity
  8
0
 48
0.15
100
AcDbLine
 10
-23.82361355505316
 20
72.02377595226659
 30
0.0
 11
-23.82361355505316
 21
71.27377595226659
 31
0.0
  0
LINE
  5
18A7
330
1F
100
AcDbEntity
  8
0
 48
0.15
100
AcDbLine
 10
-23.82361355505316
 20
71.27377595226659
 30
0.0
 11
-23.69861355505316
 21
71.27377595226659
 31
0.0
  0
LINE
  5
18A8
330
1F
100
AcDbEntity
  8
0
 48
0.15
100
AcDbLine
 10
-23.69861355505316
 20
71.27377595226659
 30
0.0
 11
-23.69861355505316
 21
70.10699584903938
 31
0.0
  0
LINE
  5
18A9
330
1F
100
AcDbEntity
  8
0
 48
0.15
100
AcDbLine
 10
-23.69861355505316
 20
70.10699584903938
 30
0.0
 11
-23.82361355505316
 21
70.10699584903938
 31
0.0
  0
LINE
  5
18AA
330
1F
100
AcDbEntity
  8
0
 48
0.15
100
AcDbLine
 10
-23.82361355505316
 20
70.10699584903938
 30
0.0
 11
-23.82361355505316
 21
69.85699584903938
 31
0.0
  0
LINE
  5
18AB
330
1F
100
AcDbEntity
  8
0
 48
0.15
100
AcDbLine
 10
-23.82361355505316
 20
69.85699584903938
 30
0.0
 11
-23.38888478147862
 21
69.42226707546439
 31
0.0
  0
LINE
  5
18AC
330
1F
100
AcDbEntity
  8
0
 48
0.15
100
AcDbLine
 10
-23.38888478147862
 20
69.42226707546439
 30
0.0
 11
-22.83295760106182
 21
69.42226707546439
 31
0.0
  0
LINE
  5
18AD
330
1F
100
AcDbEntity
  8
0
 48
0.15
100
AcDbLine
 10
-20.95415600790409
 20
69.85699584903938
 30
0.0
 11
-21.38888478147862
 21
69.42226707546439
 31
0.0
  0
LINE
  5
18AE
330
1F
100
AcDbEntity
  8
0
 48
0.15
100
AcDbLine
 10
-20.95415600790409
 20
69.85699584903938
 30
0.0
 11
-20.95415600790409
 21
72.40755705626185
 31
0.0
  0
LINE
  5
18AF
330
1F
100
AcDbEntity
  8
0
 48
0.15
100
AcDbLine
 10
-20.95415600790409
 20
72.40755705626185
 30
0.0
 11
-20.16135053528604
 21
72.40755705626185
 31
0.0
  0
LINE
  5
18B0
330
1F
100
AcDbEntity
  8
0
 48
0.15
100
AcDbLine
 10
-20.16135053528604
 20
72.40755705626185
 30
0.0
 11
-20.16135053528512
 21
73.52377595226659
 31
0.0
  0
LINE
  5
18B1
330
1F
100
AcDbEntity
  8
0
 48
0.15
100
AcDbLine
 10
-22.83295760106091
 20
70.28277146715669
 30
0.0
 11
-22.83295760106091
 21
61.15566338845571
 31
0.0
  0
LINE
  5
18B2
330
1F
100
AcDbEntity
  8
0
 48
0.15
100
AcDbLine
 10
-22.70795760106091
 20
70.28277146715669
 30
0.0
 11
-22.70795760106091
 21
61.15566338845571
 31
0.0
  0
LINE
  5
18B3
330
1F
100
AcDbEntity
  8
0
 48
0.15
100
AcDbLine
 10
-22.70795760106091
 20
70.28277146715669
 30
0.0
 11
-22.83295760106091
 21
70.28277146715669
 31
0.0
  0
LINE
  5
18B4
330
1F
100
AcDbEntity
  8
0
 48
0.15
100
AcDbLine
 10
-22.10302464341919
 20
70.28277146715669
 30
0.0
 11
-22.10302464341919
 21
61.15566338845571
 31
0.0
  0
LINE
  5
18B5
330
1F
100
AcDbEntity
  8
0
 48
0.15
100
AcDbLine
 10
-21.97802464341919
 20
70.28277146715669
 30
0.0
 11
-21.97802464341919
 21
61.15566338845571
 31
0.0
  0
LINE
  5
18B6
330
1F
100
AcDbEntity
  8
0
 48
0.15
100
AcDbLine
 10
-21.97802464341919
 20
70.28277146715669
 30
0.0
 11
-22.10302464341919
 21
70.28277146715669
 31
0.0
  0
LINE
  5
18B7
330
1F
100
AcDbEntity
  8
0
 48
0.15
100
AcDbLine
 10
-22.70795760106
 20
69.42226707546439
 30
0.0
 11
-22.10302464341919
 21
69.42226707546439
 31
0.0
  0
LINE
  5
18B8
330
1F
100
AcDbEntity
  8
0
 48
0.15
100
AcDbLine
 10
-21.97802464341919
 20
69.42226707546439
 30
0.0
 11
-21.38888478147862
 21
69.42226707546439
 31
0.0
  0
LINE
  5
18B9
330
1F
100
AcDbEntity
  8
0
 48
0.15
100
AcDbLine
 10
-21.74273870002332
 20
70.1212492020914
 30
0.0
 11
-21.97802464341919
 21
70.1212492020914
 31
0.0
  0
LINE
  5
18BA
330
1F
100
AcDbEntity
  8
0
 48
0.15
100
AcDbLine
 10
-23.08040344417793
 20
70.1212492020914
 30
0.0
 11
-23.08040344417793
 21
70.60334360199163
 31
0.0
  0
LINE
  5
18BB
330
1F
100
AcDbEntity
  8
0
 48
0.15
100
AcDbLine
 10
-23.08040344417793
 20
70.60334360199163
 30
0.0
 11
-22.93422317532066
 21
70.60334360199163
 31
0.0
  0
LINE
  5
18BC
330
1F
100
AcDbEntity
  8
0
 48
0.15
100
AcDbLine
 10
-21.74273870002332
 20
70.1212492020914
 30
0.0
 11
-21.74273870002332
 21
70.60334360199163
 31
0.0
  0
LINE
  5
18BD
330
1F
100
AcDbEntity
  8
0
 48
0.15
100
AcDbLine
 10
-21.74273870002332
 20
70.60334360199163
 30
0.0
 11
-21.8889189688806
 21
70.60334360199163
 31
0.0
  0
ARC
  5
18BE
330
1F
100
AcDbEntity
  8
0
 48
0.15
100
AcDbCircle
 10
-22.41157107210063
 20
70.08069149877162
 30
0.0
 40
0.7391416927765827
100
AcDbArc
 50
45.0
 51
135.0
  0
LINE
  5
18BF
330
1F
100
AcDbEntity
  8
0
 48
0.15
100
AcDbLine
 10
-22.83295760106182
 20
70.1212492020914
 30
0.0
 11
-23.08040344417793
 21
70.1212492020914
 31
0.0
  0
LINE
  5
18C0
330
1F
100
AcDbEntity
  8
0
 48
0.15
100
AcDbLine
 10
-22.10302464341919
 20
70.1212492020914
 30
0.0
 11
-22.70795760106
 21
70.1212492020914
 31
0.0
  0
MTEXT
  5
18C1
330
1F
100
AcDbEntity
  8
DIM
 62
     3
100
AcDbMText
 10
-5.915315672649626
 20
67.68696685301034
 30
0.0
 40
1.0
 41
22.68954545454545
 71
     1
 72
     5
  1
SUB BUCK TO BE FASTENED TO CONCRETE (CONNECTION PER CODE)
  7
RomanC
 73
     1
 44
1.0
1001
ACAD
1000
MTEXTBEGIN
1070
    73
1070
     1
1070
    44
1040
1.0
1070
    74
1070
     0
1000
MTEXTEND
  0
MTEXT
  5
18C2
330
1F
100
AcDbEntity
  8
DIM
 62
     3
100
AcDbMText
 10
-5.915315672649626
 20
56.70533547817609
 30
0.0
 40
1.0
 41
22.68954545454545
 71
     1
 72
     5
  1
WINDOW BY OTHERS
  7
RomanC
 73
     1
 44
1.0
1001
ACAD
1000
MTEXTBEGIN
1070
    73
1070
     1
1070
    44
1040
1.0
1070
    74
1070
     0
1000
MTEXTEND
  0
MTEXT
  5
18C3
330
1F
100
AcDbEntity
  8
DIM
 62
     3
100
AcDbMText
 10
-5.915315672649626
 20
78.77597730421036
 30
0.0
 40
1.0
 41
22.68954545454545
 71
     1
 72
     5
  1
WIND-LOCK TYPE FASTENER OR EQUIVALENT
  7
RomanC
 73
     1
 44
1.0
1001
ACAD
1000
MTEXTBEGIN
1070
    73
1070
     1
1070
    44
1040
1.0
1070
    74
1070
     0
1000
MTEXTEND
  0
MTEXT
  5
18C4
330
1F
100
AcDbEntity
  8
DIM
 62
     3
100
AcDbMText
 10
-5.915315672649626
 20
84.45398053445165
 30
0.0
 40
1.0
 41
22.68954545454545
 71
     1
 72
     5
  1
INTERIOR GYPSUM WALLBOARD FASTEN TO TIES
  7
RomanC
 73
     1
 44
1.0
1001
ACAD
1000
MTEXTBEGIN
1070
    73
1070
     1
1070
    44
1040
1.0
1070
    74
1070
     0
1000
MTEXTEND
  0
MTEXT
  5
18C5
330
1F
100
AcDbEntity
  8
DIM
 62
     3
100
AcDbMText
 10
-5.915315672649626
 20
88.89356322993041
 30
0.0
 40
1.0
 41
22.68954545454545
 71
     1
 72
     5
  1
REINFORCEMENT PER ENGINEER
  7
RomanC
 73
     1
 44
1.0
1001
ACAD
1000
MTEXTBEGIN
1070
    73
1070
     1
1070
    44
1040
1.0
1070
    74
1070
     0
1000
MTEXTEND
  0
LEADER
  5
18C6
330
1F
100
AcDbEntity
  8
DIM
 48
0.15
100
AcDbLeader
  3
ARCTEXT 1-1
 76
     3
 10
-19.34998914455434
 20
74.27377595226658
 30
0.0
 10
-12.26330951493025
 20
67.18709632264205
 30
0.0
 10
-6.873734308103735
 20
67.18709632264205
 30
0.0
1001
ACAD
1000
DSTYLE
1002
{
1070
    40
1040
1.0
1070
    41
1040
0.5
1070
    77
1070
     0
1002
}
  0
LEADER
  5
18C7
330
1F
100
AcDbEntity
  8
DIM
 48
0.15
100
AcDbLeader
  3
ARCTEXT 1-1
 76
     3
 10
-15.34998914455434
 20
74.28049856321246
 30
0.0
 10
-11.32619089486422
 20
78.30429681290212
 30
0.0
 10
-6.60452282243466
 20
78.30429681290212
 30
0.0
1001
ACAD
1000
DSTYLE
1002
{
1070
    40
1040
1.0
1070
    41
1040
0.5
1070
    77
1070
     0
1002
}
  0
LEADER
  5
18C8
330
1F
100
AcDbEntity
  8
DIM
 48
0.15
100
AcDbLeader
  3
ARCTEXT 1-1
 76
     2
 10
-14.84998914455434
 20
83.88298701422725
 30
0.0
 10
-6.671203159584251
 20
83.88298701422725
 30
0.0
1001
ACAD
1000
DSTYLE
1002
{
1070
    40
1040
1.0
1070
    41
1040
0.5
1070
    77
1070
     0
1002
}
  0
LEADER
  5
18C9
330
1F
100
AcDbEntity
  8
DIM
 48
0.15
100
AcDbLeader
  3
ARCTEXT 1-1
 76
     3
 10
-20.12559821409638
 20
81.87095965885424
 30
0.0
 10
-13.5613680235009
 20
88.43518984944973
 30
0.0
 10
-6.873088717012137
 20
88.43518984944973
 30
0.0
1001
ACAD
1000
DSTYLE
1002
{
1070
    40
1040
1.0
1070
    41
1040
0.5
1070
    77
1070
     0
1002
}
  0
LINE
  5
18CA
330
1F
100
AcDbEntity
  8
0
 48
0.15
100
AcDbLine
 10
-14.84998914455434
 20
73.02377595226705
 30
0.0
 11
-20.16135053528694
 21
73.02377595226658
 31
0.0
  0
MTEXT
  5
18CB
330
1F
100
AcDbEntity
  8
DIM
 62
     3
100
AcDbMText
 10
-5.915315672649626
 20
61.27160007933849
 30
0.0
 40
1.0
 41
22.68954545454545
 71
     1
 72
     5
  1
WINDOW ATTACHMENT PER MANUFACTURER
  7
RomanC
 73
     1
 44
1.0
1001
ACAD
1000
MTEXTBEGIN
1070
    73
1070
     1
1070
    44
1040
1.0
1070
    74
1070
     0
1000
MTEXTEND
  0
LEADER
  5
18CC
330
1F
100
AcDbEntity
  8
DIM
 48
0.15
100
AcDbLeader
  3
ARCTEXT 1-1
 76
     3
 10
-20.55775327159506
 20
73.01284025290311
 30
0.0
 10
-10.82546172362242
 20
60.66229577331075
 30
0.0
 10
-6.939407478711359
 20
60.66229577331075
 30
0.0
1001
ACAD
1000
DSTYLE
1002
{
1070
    40
1040
1.0
1070
    41
1040
0.5
1070
    77
1070
     0
1002
}
  0
LEADER
  5
18CD
330
1F
100
AcDbEntity
  8
DIM
 48
0.15
100
AcDbLeader
  3
ARCTEXT 1-1
 76
     3
 10
-21.97802464341919
 20
67.56708340266238
 30
0.0
 10
-10.8879733575294
 20
56.42102403492168
 30
0.0
 10
-6.762748754363997
 20
56.42102403492168
 30
0.0
1001
ACAD
1000
DSTYLE
1002
{
1070
    40
1040
1.0
1070
    41
1040
0.5
1070
    77
1070
     0
1002
}
  0
LINE
  5
18CE
330
1F
100
AcDbEntity
  8
A5 heavy
 48
0.15
100
AcDbLine
 10
-20.80775327159506
 20
72.40755705626185
 30
0.0
 11
-20.30775327159506
 21
72.40755705626185
 31
0.0
  0
LINE
  5
18CF
330
1F
100
AcDbEntity
  8
A5 heavy
 48
0.15
100
AcDbLine
 10
-20.55775327159506
 20
72.40755705626185
 30
0.0
 11
-20.55775327159506
 21
74.59007721717904
 31
0.0
  0
LINE
  5
18D0
330
1F
100
AcDbEntity
  8
0
 62
     1
100
AcDbLine
 10
-26.79998914455507
 20
73.52376398176926
 30
0.0
 11
-24.17498914455507
 21
73.52376398176926
 31
0.0
  0
LINE
  5
18D1
330
1F
100
AcDbEntity
  8
0
 62
     1
100
AcDbLine
 10
-26.79998914455507
 20
73.52376398176926
 30
0.0
 11
-24.62498914455489
 21
73.52376398176926
 31
0.0
  0
LINE
  5
18D2
330
1F
100
AcDbEntity
  8
0
 62
     1
100
AcDbLine
 10
-24.3749891445558
 20
73.52376398176926
 30
0.0
 11
-24.17498914455598
 21
73.52376398176926
 31
0.0
  0
LINE
  5
18D3
330
1F
100
AcDbEntity
  8
0
 48
0.15
100
AcDbLine
 10
-25.82498914455471
 20
73.52376398176926
 30
0.0
 11
-24.79998914455507
 21
73.52376398176926
 31
0.0
  0
LINE
  5
18D4
330
1F
100
AcDbEntity
  8
0
 62
     1
100
AcDbLine
 10
-24.74998914455489
 20
73.52376398176926
 30
0.0
 11
-25.8749891445558
 21
73.52376398176926
 31
0.0
  0
LINE
  5
18D5
330
1F
100
AcDbEntity
  8
0
 62
     1
100
AcDbLine
 10
-26.79998914455507
 20
73.52377595226704
 30
0.0
 11
-24.62498914455489
 21
73.52377595226704
 31
0.0
  0
LINE
  5
18D6
330
1F
100
AcDbEntity
  8
0
 62
     1
100
AcDbLine
 10
-26.44998914455471
 20
74.02377595226704
 30
0.0
 11
-25.82498914455471
 21
74.02377595226704
 31
0.0
  0
LINE
  5
18D7
330
1F
100
AcDbEntity
  8
0
 62
     1
100
AcDbLine
 10
-24.79998914455507
 20
74.02377595226704
 30
0.0
 11
-24.79998914455598
 21
73.52377595226704
 31
0.0
  0
LINE
  5
18D8
330
1F
100
AcDbEntity
  8
0
 62
     1
100
AcDbLine
 10
-25.82498914455471
 20
74.02377595226704
 30
0.0
 11
-25.82498914455471
 21
73.52377595226704
 31
0.0
  0
LINE
  5
18D9
330
1F
100
AcDbEntity
  8
0
 62
     1
100
AcDbLine
 10
-24.79998914455598
 20
74.02377595226704
 30
0.0
 11
-24.17498914455598
 21
74.02377595226704
 31
0.0
  0
LINE
  5
18DA
330
1F
100
AcDbEntity
  8
0
 62
     1
100
AcDbLine
 10
-24.6249891445558
 20
73.77377595226704
 30
0.0
 11
-24.6249891445558
 21
73.52377595226704
 31
0.0
  0
LINE
  5
18DB
330
1F
100
AcDbEntity
  8
0
 62
     1
100
AcDbLine
 10
-24.6249891445558
 20
73.77377595226704
 30
0.0
 11
-24.3749891445558
 21
73.77377595226704
 31
0.0
  0
LINE
  5
18DC
330
1F
100
AcDbEntity
  8
0
 62
     1
100
AcDbLine
 10
-24.3749891445558
 20
73.52377595226704
 30
0.0
 11
-24.17498914455598
 21
73.52377595226704
 31
0.0
  0
LINE
  5
18DD
330
1F
100
AcDbEntity
  8
0
 48
0.15
100
AcDbLine
 10
-25.82498914455471
 20
73.52377595226704
 30
0.0
 11
-24.79998914455507
 21
73.52377595226704
 31
0.0
  0
LINE
  5
18DE
330
1F
100
AcDbEntity
  8
0
 62
     1
100
AcDbLine
 10
-24.74998914455489
 20
73.52377595226704
 30
0.0
 11
-25.8749891445558
 21
73.52377595226704
 31
0.0
  0
LINE
  5
18DF
330
1F
100
AcDbEntity
  8
0
 62
     1
100
AcDbLine
 10
-15.6999891445547
 20
74.02377595226704
 30
0.0
 11
-15.6999891445547
 21
73.52377595226704
 31
0.0
  0
LINE
  5
18E0
330
1F
100
AcDbEntity
  8
0
 62
     1
100
AcDbLine
 10
-17.34998914455616
 20
74.02377595226704
 30
0.0
 11
-17.34998914455616
 21
73.52377595226704
 31
0.0
  0
LINE
  5
18E1
330
1F
100
AcDbEntity
  8
0
 62
     1
100
AcDbLine
 10
-16.3249891445547
 20
74.02377595226704
 30
0.0
 11
-16.3249891445547
 21
73.52377595226704
 31
0.0
  0
LINE
  5
18E2
330
1F
100
AcDbEntity
  8
0
 62
     1
100
AcDbLine
 10
-17.97498914455616
 20
74.02377595226704
 30
0.0
 11
-17.34998914455616
 21
74.02377595226704
 31
0.0
  0
LINE
  5
18E3
330
1F
100
AcDbEntity
  8
0
 62
     1
100
AcDbLine
 10
-16.3249891445547
 20
74.02377595226704
 30
0.0
 11
-15.6999891445547
 21
74.02377595226704
 31
0.0
  0
LINE
  5
18E4
330
1F
100
AcDbEntity
  8
0
 62
     1
100
AcDbLine
 10
-17.52498914455543
 20
73.77377595226704
 30
0.0
 11
-17.52498914455543
 21
73.52377595226704
 31
0.0
  0
LINE
  5
18E5
330
1F
100
AcDbEntity
  8
0
 62
     1
100
AcDbLine
 10
-17.77498914455543
 20
73.77377595226704
 30
0.0
 11
-17.52498914455543
 21
73.77377595226704
 31
0.0
  0
LINE
  5
18E6
330
1F
100
AcDbEntity
  8
0
 62
     1
100
AcDbLine
 10
-17.55998914455529
 20
73.52377595226704
 30
0.0
 11
-15.34998914455525
 21
73.52377595226704
 31
0.0
  0
LINE
  5
18E7
330
1F
100
AcDbEntity
  8
0
 62
     1
100
AcDbLine
 10
-17.97498914455616
 20
73.52377595226704
 30
0.0
 11
-17.77498914455543
 21
73.52377595226704
 31
0.0
  0
LINE
  5
18E8
330
1F
100
AcDbEntity
  8
0
 62
     1
100
AcDbLine
 10
-26.79998914455507
 20
73.52377595226704
 30
0.0
 11
-24.17498914455507
 21
73.52377595226704
 31
0.0
  0
LINE
  5
18E9
330
1F
100
AcDbEntity
  8
0
 62
     1
100
AcDbLine
 10
-24.17498914455507
 20
74.02377595226704
 30
0.0
 11
-24.17498914455507
 21
73.52377595226704
 31
0.0
  0
LINE
  5
18EA
330
1F
100
AcDbEntity
  8
0
  6
HIDDEN
 62
     1
 48
0.02
100
AcDbLine
 10
-26.44998914455471
 20
74.02377595226704
 30
0.0
 11
-25.82498914455471
 21
74.02377595226704
 31
0.0
  0
LINE
  5
18EB
330
1F
100
AcDbEntity
  8
0
  6
HIDDEN
 62
     1
 48
0.02
100
AcDbLine
 10
-26.44998914455471
 20
74.02377595226704
 30
0.0
 11
-26.44998914455471
 21
73.52377595226704
 31
0.0
  0
LINE
  5
18EC
330
1F
100
AcDbEntity
  8
0
  6
HIDDEN
 62
     1
 48
0.02
100
AcDbLine
 10
-24.79998914455507
 20
74.02377595226704
 30
0.0
 11
-24.79998914455598
 21
73.52377595226704
 31
0.0
  0
LINE
  5
18ED
330
1F
100
AcDbEntity
  8
0
  6
HIDDEN
 62
     1
 48
0.02
100
AcDbLine
 10
-25.82498914455471
 20
74.02377595226704
 30
0.0
 11
-25.82498914455471
 21
73.52377595226704
 31
0.0
  0
LINE
  5
18EE
330
1F
100
AcDbEntity
  8
0
  6
HIDDEN
 62
     1
 48
0.02
100
AcDbLine
 10
-24.79998914455598
 20
74.02377595226704
 30
0.0
 11
-24.17498914455598
 21
74.02377595226704
 31
0.0
  0
LINE
  5
18EF
330
1F
100
AcDbEntity
  8
0
 62
     1
100
AcDbLine
 10
-17.97498914455434
 20
73.52377595226704
 30
0.0
 11
-15.34998914455525
 21
73.52377595226704
 31
0.0
  0
LINE
  5
18F0
330
1F
100
AcDbEntity
  8
0
 62
     1
100
AcDbLine
 10
-17.97498914455434
 20
74.02377595226704
 30
0.0
 11
-17.97498914455434
 21
73.52377595226704
 31
0.0
  0
LINE
  5
18F1
330
1F
100
AcDbEntity
  8
0
  6
HIDDEN
 62
     1
 48
0.02
100
AcDbLine
 10
-15.69998914455289
 20
74.02377595226704
 30
0.0
 11
-15.69998914455289
 21
73.52377595226704
 31
0.0
  0
LINE
  5
18F2
330
1F
100
AcDbEntity
  8
0
  6
HIDDEN
 62
     1
 48
0.02
100
AcDbLine
 10
-17.34998914455434
 20
74.02377595226704
 30
0.0
 11
-17.34998914455434
 21
73.52377595226704
 31
0.0
  0
LINE
  5
18F3
330
1F
100
AcDbEntity
  8
0
  6
HIDDEN
 62
     1
 48
0.02
100
AcDbLine
 10
-16.32498914455289
 20
74.02377595226704
 30
0.0
 11
-16.32498914455289
 21
73.52377595226704
 31
0.0
  0
LINE
  5
18F4
330
1F
100
AcDbEntity
  8
0
  6
HIDDEN
 62
     1
 48
0.02
100
AcDbLine
 10
-17.97498914455434
 20
74.02377595226704
 30
0.0
 11
-17.34998914455434
 21
74.02377595226704
 31
0.0
  0
LINE
  5
18F5
330
1F
100
AcDbEntity
  8
0
  6
HIDDEN
 62
     1
 48
0.02
100
AcDbLine
 10
-16.32498914455289
 20
74.02377595226704
 30
0.0
 11
-15.69998914455289
 21
74.02377595226704
 31
0.0
  0
LINE
  5
18F6
330
1F
100
AcDbEntity
  8
0
  6
HIDDEN
 62
     1
 48
0.02
100
AcDbLine
 10
-17.77498914455361
 20
73.77377595226704
 30
0.0
 11
-17.77498914455361
 21
73.52377595226704
 31
0.0
  0
LINE
  5
18F7
330
1F
100
AcDbEntity
  8
0
  6
HIDDEN
 62
     1
 48
0.02
100
AcDbLine
 10
-17.52498914455361
 20
73.77377595226704
 30
0.0
 11
-17.52498914455361
 21
73.52377595226704
 31
0.0
  0
LINE
  5
18F8
330
1F
100
AcDbEntity
  8
0
  6
HIDDEN
 62
     1
 48
0.02
100
AcDbLine
 10
-17.77498914455361
 20
73.77377595226704
 30
0.0
 11
-17.52498914455361
 21
73.77377595226704
 31
0.0
  0
LINE
  5
18F9
330
1F
100
AcDbEntity
  8
0
 62
     1
100
AcDbLine
 10
-26.79998914455507
 20
85.52376398176926
 30
0.0
 11
-24.17498914455507
 21
85.52376398176926
 31
0.0
  0
LINE
  5
18FA
330
1F
100
AcDbEntity
  8
0
 62
     1
100
AcDbLine
 10
-26.79998914455507
 20
85.52376398176926
 30
0.0
 11
-24.62498914455489
 21
85.52376398176926
 31
0.0
  0
LINE
  5
18FB
330
1F
100
AcDbEntity
  8
0
 62
     1
100
AcDbLine
 10
-24.3749891445558
 20
85.52376398176926
 30
0.0
 11
-24.17498914455598
 21
85.52376398176926
 31
0.0
  0
LINE
  5
18FC
330
1F
100
AcDbEntity
  8
0
 48
0.15
100
AcDbLine
 10
-25.82498914455471
 20
85.52376398176926
 30
0.0
 11
-24.79998914455507
 21
85.52376398176926
 31
0.0
  0
LINE
  5
18FD
330
1F
100
AcDbEntity
  8
0
 62
     1
100
AcDbLine
 10
-24.74998914455489
 20
85.52376398176926
 30
0.0
 11
-25.8749891445558
 21
85.52376398176926
 31
0.0
  0
LINE
  5
18FE
330
1F
100
AcDbEntity
  8
0
 62
     1
100
AcDbLine
 10
-26.79998914455507
 20
85.52377595226705
 30
0.0
 11
-26.79998914455507
 21
73.52377595226704
 31
0.0
  0
LINE
  5
18FF
330
1F
100
AcDbEntity
  8
0
 62
     1
100
AcDbLine
 10
-26.79998914455507
 20
85.52377595226705
 30
0.0
 11
-24.62498914455489
 21
85.52377595226705
 31
0.0
  0
LINE
  5
1900
330
1F
100
AcDbEntity
  8
0
 62
     1
100
AcDbLine
 10
-24.17498914455507
 20
86.02377595226704
 30
0.0
 11
-24.17498914455507
 21
73.52377595226704
 31
0.0
  0
LINE
  5
1901
330
1F
100
AcDbEntity
  8
0
 62
     1
100
AcDbLine
 10
-26.44998914455471
 20
86.02377595226704
 30
0.0
 11
-25.82498914455471
 21
86.02377595226704
 31
0.0
  0
LINE
  5
1902
330
1F
100
AcDbEntity
  8
0
 62
     1
100
AcDbLine
 10
-26.44998914455471
 20
86.02377595226704
 30
0.0
 11
-26.44998914455471
 21
73.52377595226704
 31
0.0
  0
LINE
  5
1903
330
1F
100
AcDbEntity
  8
0
 62
     1
100
AcDbLine
 10
-24.79998914455507
 20
86.02377595226704
 30
0.0
 11
-24.79998914455598
 21
85.52377595226705
 31
0.0
  0
LINE
  5
1904
330
1F
100
AcDbEntity
  8
0
 62
     1
100
AcDbLine
 10
-25.82498914455471
 20
86.02377595226704
 30
0.0
 11
-25.82498914455471
 21
85.52377595226705
 31
0.0
  0
LINE
  5
1905
330
1F
100
AcDbEntity
  8
0
 62
     1
100
AcDbLine
 10
-24.79998914455598
 20
86.02377595226704
 30
0.0
 11
-24.17498914455598
 21
86.02377595226704
 31
0.0
  0
LINE
  5
1906
330
1F
100
AcDbEntity
  8
0
 62
     1
100
AcDbLine
 10
-24.3749891445558
 20
85.77377595226705
 30
0.0
 11
-24.3749891445558
 21
73.52377595226704
 31
0.0
  0
LINE
  5
1907
330
1F
100
AcDbEntity
  8
0
 62
     1
100
AcDbLine
 10
-24.6249891445558
 20
85.77377595226705
 30
0.0
 11
-24.6249891445558
 21
85.52377595226705
 31
0.0
  0
LINE
  5
1908
330
1F
100
AcDbEntity
  8
0
 62
     1
100
AcDbLine
 10
-24.6249891445558
 20
85.77377595226705
 30
0.0
 11
-24.3749891445558
 21
85.77377595226705
 31
0.0
  0
LINE
  5
1909
330
1F
100
AcDbEntity
  8
0
 62
     1
100
AcDbLine
 10
-24.3749891445558
 20
85.52377595226705
 30
0.0
 11
-24.17498914455598
 21
85.52377595226705
 31
0.0
  0
LINE
  5
190A
330
1F
100
AcDbEntity
  8
0
 48
0.15
100
AcDbLine
 10
-25.82498914455471
 20
85.52377595226705
 30
0.0
 11
-24.79998914455507
 21
85.52377595226705
 31
0.0
  0
LINE
  5
190B
330
1F
100
AcDbEntity
  8
A2 Hatch
  6
DASHED2
 48
0.15
100
AcDbLine
 10
-26.03498914455566
 20
86.02377595226704
 30
0.0
 11
-26.03498914455566
 21
73.52377595226704
 31
0.0
  0
LINE
  5
190C
330
1F
100
AcDbEntity
  8
A2 Hatch
  6
DASHED2
 48
0.15
100
AcDbLine
 10
-24.58998914455595
 20
86.02377595226704
 30
0.0
 11
-24.58998914455504
 21
73.52377595226704
 31
0.0
  0
LINE
  5
190D
330
1F
100
AcDbEntity
  8
0
 62
     1
100
AcDbLine
 10
-25.87498914455489
 20
86.02377595226704
 30
0.0
 11
-25.87498914455489
 21
73.52377595226704
 31
0.0
  0
LINE
  5
190E
330
1F
100
AcDbEntity
  8
0
 62
     1
100
AcDbLine
 10
-24.74998914455489
 20
86.02377595226704
 30
0.0
 11
-24.74998914455489
 21
73.52377595226704
 31
0.0
  0
LINE
  5
190F
330
1F
100
AcDbEntity
  8
0
 62
     1
100
AcDbLine
 10
-24.74998914455489
 20
85.52377595226705
 30
0.0
 11
-25.8749891445558
 21
85.52377595226705
 31
0.0
  0
ARC
  5
1910
330
1F
100
AcDbEntity
  8
DETAILS
 62
     6
370
    20
100
AcDbCircle
 10
-24.17498914455416
 20
77.68705417411917
 30
0.0
 40
0.0999999999999136
100
AcDbArc
 50
179.9999999996873
 51
209.7448812965932
  0
LINE
  5
1911
330
1F
100
AcDbEntity
  8
DETAILS
 62
     6
370
    20
100
AcDbLine
 10
-24.27498914455544
 20
79.77377595226704
 30
0.0
 11
-17.8749891445567
 21
79.77377595226704
 31
0.0
  0
LINE
  5
1912
330
1F
100
AcDbEntity
  8
0
 62
     1
100
AcDbLine
 10
-15.34998914455525
 20
85.52377595226705
 30
0.0
 11
-15.34998914455525
 21
73.52377595226704
 31
0.0
  0
LINE
  5
1913
330
1F
100
AcDbEntity
  8
0
 62
     1
100
AcDbLine
 10
-17.97498914455616
 20
86.02377595226704
 30
0.0
 11
-17.97498914455525
 21
73.52377595226704
 31
0.0
  0
LINE
  5
1914
330
1F
100
AcDbEntity
  8
0
 62
     1
100
AcDbLine
 10
-15.6999891445547
 20
86.02377595226704
 30
0.0
 11
-15.6999891445547
 21
85.52377595226705
 31
0.0
  0
LINE
  5
1915
330
1F
100
AcDbEntity
  8
0
 62
     1
100
AcDbLine
 10
-17.34998914455616
 20
86.02377595226704
 30
0.0
 11
-17.34998914455616
 21
85.52377595226705
 31
0.0
  0
LINE
  5
1916
330
1F
100
AcDbEntity
  8
0
 62
     1
100
AcDbLine
 10
-16.3249891445547
 20
86.02377595226704
 30
0.0
 11
-16.3249891445547
 21
85.52377595226705
 31
0.0
  0
LINE
  5
1917
330
1F
100
AcDbEntity
  8
0
 62
     1
100
AcDbLine
 10
-17.97498914455616
 20
86.02377595226704
 30
0.0
 11
-17.34998914455616
 21
86.02377595226704
 31
0.0
  0
LINE
  5
1918
330
1F
100
AcDbEntity
  8
0
 62
     1
100
AcDbLine
 10
-16.3249891445547
 20
86.02377595226704
 30
0.0
 11
-15.6999891445547
 21
86.02377595226704
 31
0.0
  0
LINE
  5
1919
330
1F
100
AcDbEntity
  8
0
 62
     1
100
AcDbLine
 10
-17.77498914455543
 20
85.77377595226705
 30
0.0
 11
-17.77498914455543
 21
73.52377595226704
 31
0.0
  0
LINE
  5
191A
330
1F
100
AcDbEntity
  8
0
 62
     1
100
AcDbLine
 10
-17.52498914455543
 20
85.77377595226705
 30
0.0
 11
-17.52498914455543
 21
85.52377595226705
 31
0.0
  0
LINE
  5
191B
330
1F
100
AcDbEntity
  8
0
 62
     1
100
AcDbLine
 10
-17.77498914455543
 20
85.77377595226705
 30
0.0
 11
-17.52498914455543
 21
85.77377595226705
 31
0.0
  0
LINE
  5
191C
330
1F
100
AcDbEntity
  8
0
 62
     1
100
AcDbLine
 10
-17.55998914455529
 20
85.52377595226705
 30
0.0
 11
-15.34998914455525
 21
85.52377595226705
 31
0.0
  0
LINE
  5
191D
330
1F
100
AcDbEntity
  8
0
 62
     1
100
AcDbLine
 10
-17.55998914455529
 20
85.52377595226705
 30
0.0
 11
-17.55998914455529
 21
73.52377595226704
 31
0.0
  0
LINE
  5
191E
330
1F
100
AcDbEntity
  8
0
 62
     1
100
AcDbLine
 10
-16.11498914455558
 20
85.52377595226705
 30
0.0
 11
-16.11498914455558
 21
73.52377595226704
 31
0.0
  0
LINE
  5
191F
330
1F
100
AcDbEntity
  8
A2 Hatch
  6
DASHED2
 48
0.15
100
AcDbLine
 10
-17.39998914455543
 20
85.52377595226705
 30
0.0
 11
-17.39998914455543
 21
73.52377595226704
 31
0.0
  0
LINE
  5
1920
330
1F
100
AcDbEntity
  8
A2 Hatch
  6
DASHED2
 48
0.15
100
AcDbLine
 10
-16.27498914455543
 20
85.52377595226705
 30
0.0
 11
-16.27498914455543
 21
73.52377595226704
 31
0.0
  0
LINE
  5
1921
330
1F
100
AcDbEntity
  8
0
 62
     1
100
AcDbLine
 10
-17.97498914455616
 20
85.52377595226705
 30
0.0
 11
-17.77498914455543
 21
85.52377595226705
 31
0.0
  0
LINE
  5
1922
330
1F
100
AcDbEntity
  8
DETAILS
 62
     6
370
    20
100
AcDbLine
 10
-24.27498914455453
 20
85.14877595226705
 30
0.0
 11
-24.27498914455544
 21
74.45102966089286
 31
0.0
  0
LINE
  5
1923
330
1F
100
AcDbEntity
  8
DETAILS
 62
     6
370
    20
100
AcDbLine
 10
-23.59998914455434
 20
80.39377595226694
 30
0.0
 11
-23.08060702064711
 21
80.39377595226694
 31
0.0
  0
ARC
  5
1924
330
1F
100
AcDbEntity
  8
DETAILS
 62
     6
370
    20
100
AcDbCircle
 10
-23.08060702064802
 20
80.54377595226702
 30
0.0
 40
0.1500000000000909
100
AcDbArc
 50
270.0000000001563
 51
43.83086067193248
  0
LINE
  5
1925
330
1F
100
AcDbEntity
  8
DETAILS
 62
     6
370
    20
100
AcDbLine
 10
-22.97239892249206
 20
80.64765572649509
 30
0.0
 11
-23.49178104639839
 21
81.18867877223152
 31
0.0
  0
ARC
  5
1926
330
1F
100
AcDbEntity
  8
DETAILS
 62
     6
370
    20
100
AcDbCircle
 10
-23.59998914455343
 20
81.084798998003
 30
0.0
 40
0.1499999999999651
100
AcDbArc
 50
43.83086067209848
 51
179.9999999999739
  0
LINE
  5
1927
330
1F
100
AcDbEntity
  8
DETAILS
 62
     6
370
    20
100
AcDbLine
 10
-23.74998914455398
 20
81.084798998003
 30
0.0
 11
-23.74998914455398
 21
80.54377595226657
 31
0.0
  0
ARC
  5
1928
330
1F
100
AcDbEntity
  8
DETAILS
 62
     6
370
    20
100
AcDbCircle
 10
-23.59998914455434
 20
80.54377595226657
 30
0.0
 40
0.1499999999996362
100
AcDbArc
 50
179.9999999999479
 51
270.0000000001563
  0
LINE
  5
1929
330
1F
100
AcDbEntity
  8
DETAILS
 62
     6
370
    20
100
AcDbLine
 10
-23.74998914455398
 20
79.02377595226704
 30
0.0
 11
-23.74998914455398
 21
78.4827529065306
 31
0.0
  0
ARC
  5
192A
330
1F
100
AcDbEntity
  8
DETAILS
 62
     6
370
    20
100
AcDbCircle
 10
-23.59998914455343
 20
78.4827529065306
 30
0.0
 40
0.1500000000000909
100
AcDbArc
 50
180.000000000026
 51
316.1691393279015
  0
LINE
  5
192B
330
1F
100
AcDbEntity
  8
DETAILS
 62
     6
370
    20
100
AcDbLine
 10
-23.49178104639839
 20
78.37887313230254
 30
0.0
 11
-22.97239892249206
 21
78.91989617803853
 31
0.0
  0
ARC
  5
192C
330
1F
100
AcDbEntity
  8
DETAILS
 62
     6
370
    20
100
AcDbCircle
 10
-23.08060702064802
 20
79.02377595226704
 30
0.0
 40
0.1500000000001751
100
AcDbArc
 50
316.1691393280675
 51
89.99999999984366
  0
LINE
  5
192D
330
1F
100
AcDbEntity
  8
DETAILS
 62
     6
370
    20
100
AcDbLine
 10
-23.08060702064711
 20
79.17377595226668
 30
0.0
 11
-23.59998914455434
 21
79.17377595226668
 31
0.0
  0
ARC
  5
192E
330
1F
100
AcDbEntity
  8
DETAILS
 62
     6
370
    20
100
AcDbCircle
 10
-23.59998914455434
 20
79.02377595226704
 30
0.0
 40
0.1499999999998636
100
AcDbArc
 50
89.99999999984366
 51
180.0000000000521
  0
LINE
  5
192F
330
1F
100
AcDbEntity
  8
DETAILS
 62
     6
370
    20
100
AcDbLine
 10
-23.59998914455434
 20
80.44377595226711
 30
0.0
 11
-23.08060702064711
 21
80.44377595226711
 31
0.0
  0
ARC
  5
1930
330
1F
100
AcDbEntity
  8
DETAILS
 62
     6
370
    20
100
AcDbCircle
 10
-23.08060702064711
 20
80.54377595226657
 30
0.0
 40
0.1000000000000227
100
AcDbArc
 50
270.0
 51
43.83086067200606
  0
LINE
  5
1931
330
1F
100
AcDbEntity
  8
DETAILS
 62
     6
370
    20
100
AcDbLine
 10
-23.00846828854344
 20
80.61302913508558
 30
0.0
 11
-23.52785041244977
 21
81.15405218082202
 31
0.0
  0
ARC
  5
1932
330
1F
100
AcDbEntity
  8
DETAILS
 62
     6
370
    20
100
AcDbCircle
 10
-23.59998914455343
 20
81.084798998003
 30
0.0
 40
0.1000000000001123
100
AcDbArc
 50
43.8308606720609
 51
180.0
  0
LINE
  5
1933
330
1F
100
AcDbEntity
  8
DETAILS
 62
     6
370
    20
100
AcDbLine
 10
-23.69998914455289
 20
81.084798998003
 30
0.0
 11
-23.6999891445538
 21
80.54377595226657
 31
0.0
  0
ARC
  5
1934
330
1F
100
AcDbEntity
  8
DETAILS
 62
     6
370
    20
100
AcDbCircle
 10
-23.59998914455343
 20
80.54377595226702
 30
0.0
 40
0.1000000000003638
100
AcDbArc
 50
180.0000000001302
 51
269.9999999997394
  0
LINE
  5
1935
330
1F
100
AcDbEntity
  8
DETAILS
 62
     6
370
    20
100
AcDbLine
 10
-23.6999891445538
 20
79.02377595226704
 30
0.0
 11
-23.69998914455289
 21
78.4827529065306
 31
0.0
  0
ARC
  5
1936
330
1F
100
AcDbEntity
  8
DETAILS
 62
     6
370
    20
100
AcDbCircle
 10
-23.59998914455343
 20
78.4827529065306
 30
0.0
 40
0.0999999999999091
100
AcDbArc
 50
179.9999999999739
 51
316.1691393279939
  0
LINE
  5
1937
330
1F
100
AcDbEntity
  8
DETAILS
 62
     6
370
    20
100
AcDbLine
 10
-23.52785041244977
 20
78.41349972371205
 30
0.0
 11
-23.00846828854344
 21
78.95452276944803
 31
0.0
  0
ARC
  5
1938
330
1F
100
AcDbEntity
  8
DETAILS
 62
     6
370
    20
100
AcDbCircle
 10
-23.08060702064711
 20
79.02377595226704
 30
0.0
 40
0.1000000000000336
100
AcDbArc
 50
316.1691393279939
 51
90.0
  0
LINE
  5
1939
330
1F
100
AcDbEntity
  8
DETAILS
 62
     6
370
    20
100
AcDbLine
 10
-23.08060702064711
 20
79.12377595226695
 30
0.0
 11
-23.59998914455434
 21
79.12377595226695
 31
0.0
  0
ARC
  5
193A
330
1F
100
AcDbEntity
  8
DETAILS
 62
     6
370
    20
100
AcDbCircle
 10
-23.59998914455343
 20
79.02377595226659
 30
0.0
 40
0.1000000000001364
100
AcDbArc
 50
90.00000000026055
 51
179.9999999998697
  0
LINE
  5
193B
330
1F
100
AcDbEntity
  8
DETAILS
 62
     6
370
    20
100
AcDbLine
 10
-17.8749891445567
 20
85.14877595226705
 30
0.0
 11
-17.8749891445558
 21
74.45102966089286
 31
0.0
  0
LINE
  5
193C
330
1F
100
AcDbEntity
  8
DETAILS
 62
     6
370
    20
100
AcDbLine
 10
-18.39998914455725
 20
80.54377595226657
 30
0.0
 11
-18.39998914455725
 21
81.084798998003
 31
0.0
  0
ARC
  5
193D
330
1F
100
AcDbEntity
  8
DETAILS
 62
     6
370
    20
100
AcDbCircle
 10
-18.5499891445578
 20
81.084798998003
 30
0.0
 40
0.1500000000000909
100
AcDbArc
 50
0.0000000000260551
 51
136.1691393279015
  0
LINE
  5
193E
330
1F
100
AcDbEntity
  8
DETAILS
 62
     6
370
    20
100
AcDbLine
 10
-18.65819724271284
 20
81.18867877223152
 30
0.0
 11
-19.17757936661917
 21
80.64765572649509
 31
0.0
  0
ARC
  5
193F
330
1F
100
AcDbEntity
  8
DETAILS
 62
     6
370
    20
100
AcDbCircle
 10
-19.06937126846321
 20
80.54377595226702
 30
0.0
 40
0.1500000000001751
100
AcDbArc
 50
136.1691393280675
 51
269.9999999998437
  0
LINE
  5
1940
330
1F
100
AcDbEntity
  8
DETAILS
 62
     6
370
    20
100
AcDbLine
 10
-19.06937126846412
 20
80.39377595226694
 30
0.0
 11
-18.54998914455689
 21
80.39377595226694
 31
0.0
  0
ARC
  5
1941
330
1F
100
AcDbEntity
  8
DETAILS
 62
     6
370
    20
100
AcDbCircle
 10
-18.54998914455689
 20
80.54377595226657
 30
0.0
 40
0.1499999999998067
100
AcDbArc
 50
269.9999999998437
 51
0.0000000000781653
  0
LINE
  5
1942
330
1F
100
AcDbEntity
  8
DETAILS
 62
     6
370
    20
100
AcDbLine
 10
-18.54998914455689
 20
79.17377595226668
 30
0.0
 11
-19.06937126846412
 21
79.17377595226668
 31
0.0
  0
ARC
  5
1943
330
1F
100
AcDbEntity
  8
DETAILS
 62
     6
370
    20
100
AcDbCircle
 10
-19.06937126846321
 20
79.02377595226704
 30
0.0
 40
0.1500000000001478
100
AcDbArc
 50
90.00000000015633
 51
223.8308606719325
  0
LINE
  5
1944
330
1F
100
AcDbEntity
  8
DETAILS
 62
     6
370
    20
100
AcDbLine
 10
-19.17757936661917
 20
78.91989617803853
 30
0.0
 11
-18.65819724271284
 21
78.37887313230254
 31
0.0
  0
ARC
  5
1945
330
1F
100
AcDbEntity
  8
DETAILS
 62
     6
370
    20
100
AcDbCircle
 10
-18.5499891445578
 20
78.4827529065306
 30
0.0
 40
0.1499999999999651
100
AcDbArc
 50
223.8308606720985
 51
359.999999999974
  0
LINE
  5
1946
330
1F
100
AcDbEntity
  8
DETAILS
 62
     6
370
    20
100
AcDbLine
 10
-18.39998914455725
 20
78.4827529065306
 30
0.0
 11
-18.39998914455725
 21
79.02377595226704
 31
0.0
  0
ARC
  5
1947
330
1F
100
AcDbEntity
  8
DETAILS
 62
     6
370
    20
100
AcDbCircle
 10
-18.54998914455689
 20
79.02377595226704
 30
0.0
 40
0.1499999999996362
100
AcDbArc
 50
359.9999999999218
 51
90.00000000015633
  0
ARC
  5
1948
330
1F
100
AcDbEntity
  8
DETAILS
 62
     6
370
    20
100
AcDbCircle
 10
-22.60008004681993
 20
78.26877595226694
 30
0.0
 40
0.010000000000022
100
AcDbArc
 50
97.40989078445366
 51
262.5901092155463
  0
LINE
  5
1949
330
1F
100
AcDbEntity
  8
DETAILS
 62
     6
370
    20
100
AcDbLine
 10
-22.60136971465624
 20
78.25885946312616
 30
0.0
 11
-22.44525962505293
 21
78.24377595226684
 31
0.0
  0
LINE
  5
194A
330
1F
100
AcDbEntity
  8
DETAILS
 62
     6
370
    20
100
AcDbLine
 10
-22.44525962505293
 20
78.24377595226684
 30
0.0
 11
-21.07498914455562
 21
78.24377595226684
 31
0.0
  0
LINE
  5
194B
330
1F
100
AcDbEntity
  8
DETAILS
 62
     6
370
    20
100
AcDbLine
 10
-21.07498914455562
 20
78.24377595226684
 30
0.0
 11
-19.7047186640583
 21
78.24377595226684
 31
0.0
  0
LINE
  5
194C
330
1F
100
AcDbEntity
  8
DETAILS
 62
     6
370
    20
100
AcDbLine
 10
-19.7047186640583
 20
78.24377595226684
 30
0.0
 11
-19.54860857445499
 21
78.25885946312616
 31
0.0
  0
ARC
  5
194D
330
1F
100
AcDbEntity
  8
DETAILS
 62
     6
370
    20
100
AcDbCircle
 10
-19.5498982422913
 20
78.26877595226694
 30
0.0
 40
0.0099999999999656
100
AcDbArc
 50
277.4098907844536
 51
82.59010921554635
  0
LINE
  5
194E
330
1F
100
AcDbEntity
  8
DETAILS
 62
     6
370
    20
100
AcDbLine
 10
-19.54860857445499
 20
78.27869244140726
 30
0.0
 11
-19.70471866405739
 21
78.29377595226702
 31
0.0
  0
LINE
  5
194F
330
1F
100
AcDbEntity
  8
DETAILS
 62
     6
370
    20
100
AcDbLine
 10
-19.70471866405739
 20
78.29377595226702
 30
0.0
 11
-21.07498914455562
 21
78.29377595226702
 31
0.0
  0
LINE
  5
1950
330
1F
100
AcDbEntity
  8
DETAILS
 62
     6
370
    20
100
AcDbLine
 10
-21.07498914455562
 20
78.29377595226702
 30
0.0
 11
-22.44525962505293
 21
78.29377595226657
 31
0.0
  0
LINE
  5
1951
330
1F
100
AcDbEntity
  8
DETAILS
 62
     6
370
    20
100
AcDbLine
 10
-22.44525962505293
 20
78.29377595226657
 30
0.0
 11
-22.60136971465624
 21
78.27869244140726
 31
0.0
  0
ARC
  5
1952
330
1F
100
AcDbEntity
  8
DETAILS
 62
     6
370
    20
100
AcDbCircle
 10
-19.19261093216744
 20
82.00377595226706
 30
0.0
 40
0.1000000000001364
100
AcDbArc
 50
270.0000000002606
 51
316.1691393281413
  0
LINE
  5
1953
330
1F
100
AcDbEntity
  8
DETAILS
 62
     6
370
    20
100
AcDbLine
 10
-19.12047220006286
 20
81.93452276944805
 30
0.0
 11
-18.00285041245468
 21
83.12475379820813
 31
0.0
  0
ARC
  5
1954
330
1F
100
AcDbEntity
  8
DETAILS
 62
     6
370
    20
100
AcDbCircle
 10
-24.07499602424275
 20
83.19400698102578
 30
0.0
 40
0.0999999999999091
100
AcDbArc
 50
179.9999999998697
 51
223.8308606719873
  0
LINE
  5
1955
330
1F
100
AcDbEntity
  8
DETAILS
 62
     6
370
    20
100
AcDbLine
 10
-24.14713475634551
 20
83.12475379820723
 30
0.0
 11
-23.02950608904837
 21
81.93452276944805
 31
0.0
  0
ARC
  5
1956
330
1F
100
AcDbEntity
  8
DETAILS
 62
     6
370
    20
100
AcDbCircle
 10
-22.9573673569447
 20
82.00377595226706
 30
0.0
 40
0.1000000000001911
100
AcDbArc
 50
223.8308606721347
 51
270.0
  0
LINE
  5
1957
330
1F
100
AcDbEntity
  8
DETAILS
 62
     6
370
    20
100
AcDbLine
 10
-22.9573673569447
 20
81.90377595226715
 30
0.0
 11
-22.9499891445547
 21
81.90377595226715
 31
0.0
  0
LINE
  5
1958
330
1F
100
AcDbEntity
  8
DETAILS
 62
     6
370
    20
100
AcDbLine
 10
-22.9499891445547
 20
81.90377595226715
 30
0.0
 11
-22.9499891445547
 21
81.85377595226697
 31
0.0
  0
LINE
  5
1959
330
1F
100
AcDbEntity
  8
DETAILS
 62
     6
370
    20
100
AcDbLine
 10
-22.9499891445547
 20
81.85377595226697
 30
0.0
 11
-22.84998914455434
 21
81.85377595226697
 31
0.0
  0
ARC
  5
195A
330
1F
100
AcDbEntity
  8
DETAILS
 62
     6
370
    20
100
AcDbCircle
 10
-22.84998914455434
 20
81.80377595226678
 30
0.0
 40
0.0500000000001819
100
AcDbArc
 50
359.9999999998697
 51
90.0
  0
LINE
  5
195B
330
1F
100
AcDbEntity
  8
DETAILS
 62
     6
370
    20
100
AcDbLine
 10
-22.79998914455325
 20
81.80377595226678
 30
0.0
 11
-22.79998914455507
 21
81.74877595226694
 31
0.0
  0
ARC
  5
195C
330
1F
100
AcDbEntity
  8
DETAILS
 62
     6
370
    20
100
AcDbCircle
 10
-22.37498914455398
 20
81.7487759522665
 30
0.0
 40
0.4250000000001819
100
AcDbArc
 50
179.9999999999739
 51
359.999999999974
  0
LINE
  5
195D
330
1F
100
AcDbEntity
  8
DETAILS
 62
     6
370
    20
100
AcDbLine
 10
-21.94998914455471
 20
81.7487759522665
 30
0.0
 11
-21.94998914455471
 21
81.80377595226678
 31
0.0
  0
ARC
  5
195E
330
1F
100
AcDbEntity
  8
DETAILS
 62
     6
370
    20
100
AcDbCircle
 10
-21.89998914455452
 20
81.80377595226678
 30
0.0
 40
0.0500000000001819
100
AcDbArc
 50
90.0
 51
179.9999999996613
  0
LINE
  5
195F
330
1F
100
AcDbEntity
  8
DETAILS
 62
     6
370
    20
100
AcDbLine
 10
-21.89998914455452
 20
81.85377595226697
 30
0.0
 11
-21.54998914455507
 21
81.85377595226697
 31
0.0
  0
ARC
  5
1960
330
1F
100
AcDbEntity
  8
DETAILS
 62
     6
370
    20
100
AcDbCircle
 10
-21.54998914455507
 20
81.80377595226678
 30
0.0
 40
0.0500000000001819
100
AcDbArc
 50
359.9999999998697
 51
90.0
  0
LINE
  5
1961
330
1F
100
AcDbEntity
  8
DETAILS
 62
     6
370
    20
100
AcDbLine
 10
-21.49998914455489
 20
81.80377595226678
 30
0.0
 11
-21.4999891445558
 21
81.74877595226377
 31
0.0
  0
ARC
  5
1962
330
1F
100
AcDbEntity
  8
DETAILS
 62
     6
370
    20
100
AcDbCircle
 10
-21.0749891445547
 20
81.74877595226377
 30
0.0
 40
0.4250000000001819
100
AcDbArc
 50
180.0
 51
270.0
  0
ARC
  5
1963
330
1F
100
AcDbEntity
  8
DETAILS
 62
     6
370
    20
100
AcDbCircle
 10
-21.07498914455562
 20
81.74877595226377
 30
0.0
 40
0.4249999999997272
100
AcDbArc
 50
270.0000000000521
 51
0.0000000000521102
  0
LINE
  5
1964
330
1F
100
AcDbEntity
  8
DETAILS
 62
     6
370
    20
100
AcDbLine
 10
-20.64998914455543
 20
81.74877595226377
 30
0.0
 11
-20.64998914455634
 21
81.80377595226678
 31
0.0
  0
ARC
  5
1965
330
1F
100
AcDbEntity
  8
DETAILS
 62
     6
370
    20
100
AcDbCircle
 10
-20.59998914455616
 20
81.80377595226678
 30
0.0
 40
0.0500000000001819
100
AcDbArc
 50
90.0
 51
180.0
  0
LINE
  5
1966
330
1F
100
AcDbEntity
  8
DETAILS
 62
     6
370
    20
100
AcDbLine
 10
-20.59998914455616
 20
81.85377595226697
 30
0.0
 11
-20.24998914455671
 21
81.85377595226697
 31
0.0
  0
ARC
  5
1967
330
1F
100
AcDbEntity
  8
DETAILS
 62
     6
370
    20
100
AcDbCircle
 10
-20.24998914455671
 20
81.80377595226678
 30
0.0
 40
0.0500000000001819
100
AcDbArc
 50
0.000000000260551
 51
90.0
  0
LINE
  5
1968
330
1F
100
AcDbEntity
  8
DETAILS
 62
     6
370
    20
100
AcDbLine
 10
-20.19998914455653
 20
81.80377595226678
 30
0.0
 11
-20.19998914455653
 21
81.7487759522665
 31
0.0
  0
ARC
  5
1969
330
1F
100
AcDbEntity
  8
DETAILS
 62
     6
370
    20
100
AcDbCircle
 10
-19.77498914455634
 20
81.7487759522665
 30
0.0
 40
0.4249999999997272
100
AcDbArc
 50
180.000000000026
 51
0.0000000000260551
  0
LINE
  5
196A
330
1F
100
AcDbEntity
  8
DETAILS
 62
     6
370
    20
100
AcDbLine
 10
-19.34998914455616
 20
81.74877595226694
 30
0.0
 11
-19.34998914455798
 21
81.80377595226678
 31
0.0
  0
ARC
  5
196B
330
1F
100
AcDbEntity
  8
DETAILS
 62
     6
370
    20
100
AcDbCircle
 10
-19.29998914455689
 20
81.80377595226678
 30
0.0
 40
0.0500000000001819
100
AcDbArc
 50
90.0
 51
180.0
  0
LINE
  5
196C
330
1F
100
AcDbEntity
  8
DETAILS
 62
     6
370
    20
100
AcDbLine
 10
-19.29998914455689
 20
81.85377595226697
 30
0.0
 11
-19.19998914455652
 21
81.85377595226697
 31
0.0
  0
LINE
  5
196D
330
1F
100
AcDbEntity
  8
DETAILS
 62
     6
370
    20
100
AcDbLine
 10
-19.19998914455652
 20
81.85377595226697
 30
0.0
 11
-19.19998914455652
 21
81.90377595226715
 31
0.0
  0
LINE
  5
196E
330
1F
100
AcDbEntity
  8
DETAILS
 62
     6
370
    20
100
AcDbLine
 10
-19.19998914455652
 20
81.90377595226715
 30
0.0
 11
-19.19261093216653
 21
81.90377595226715
 31
0.0
  0
LINE
  5
196F
330
1F
100
AcDbEntity
  8
DETAILS
 62
     6
370
    20
100
AcDbLine
 10
-19.19261093216653
 20
81.90377595226715
 30
0.0
 11
-19.34998914455707
 21
81.90377595226715
 31
0.0
  0
ARC
  5
1970
330
1F
100
AcDbEntity
  8
DETAILS
 62
     6
370
    20
100
AcDbCircle
 10
-19.34998914455707
 20
81.85377595226697
 30
0.0
 40
0.0500000000001819
100
AcDbArc
 50
90.0
 51
179.9999999998697
  0
LINE
  5
1971
330
1F
100
AcDbEntity
  8
DETAILS
 62
     6
370
    20
100
AcDbLine
 10
-19.39998914455725
 20
81.85377595226697
 30
0.0
 11
-19.39998914455725
 21
81.74877595226694
 31
0.0
  0
ARC
  5
1972
330
1F
100
AcDbEntity
  8
DETAILS
 62
     6
370
    20
100
AcDbCircle
 10
-19.77498914455725
 20
81.7487759522665
 30
0.0
 40
0.375
100
AcDbArc
 50
180.0
 51
0.0
  0
LINE
  5
1973
330
1F
100
AcDbEntity
  8
DETAILS
 62
     6
370
    20
100
AcDbLine
 10
-20.14998914455725
 20
81.7487759522665
 30
0.0
 11
-20.14998914455725
 21
81.85377595226697
 31
0.0
  0
ARC
  5
1974
330
1F
100
AcDbEntity
  8
DETAILS
 62
     6
370
    20
100
AcDbCircle
 10
-20.19998914455653
 20
81.85377595226697
 30
0.0
 40
0.0500000000001819
100
AcDbArc
 50
0.0000000001302755
 51
90.0
  0
LINE
  5
1975
330
1F
100
AcDbEntity
  8
DETAILS
 62
     6
370
    20
100
AcDbLine
 10
-20.19998914455653
 20
81.90377595226715
 30
0.0
 11
-20.64998914455725
 21
81.90377595226715
 31
0.0
  0
ARC
  5
1976
330
1F
100
AcDbEntity
  8
DETAILS
 62
     6
370
    20
100
AcDbCircle
 10
-20.64998914455725
 20
81.85377595226697
 30
0.0
 40
0.0500000000001251
100
AcDbArc
 50
90.0
 51
179.9999999998697
  0
LINE
  5
1977
330
1F
100
AcDbEntity
  8
DETAILS
 62
     6
370
    20
100
AcDbLine
 10
-20.69998914455652
 20
81.85377595226697
 30
0.0
 11
-20.69998914455652
 21
81.74877595226377
 31
0.0
  0
ARC
  5
1978
330
1F
100
AcDbEntity
  8
DETAILS
 62
     6
370
    20
100
AcDbCircle
 10
-21.07498914455562
 20
81.74877595226377
 30
0.0
 40
0.3749999999995452
100
AcDbArc
 50
270.0000000000521
 51
0.0000000000521102
  0
ARC
  5
1979
330
1F
100
AcDbEntity
  8
DETAILS
 62
     6
370
    20
100
AcDbCircle
 10
-21.0749891445547
 20
81.74877595226377
 30
0.0
 40
0.3749999999998295
100
AcDbArc
 50
180.0
 51
269.9999999999479
  0
LINE
  5
197A
330
1F
100
AcDbEntity
  8
DETAILS
 62
     6
370
    20
100
AcDbLine
 10
-21.44998914455471
 20
81.74877595226377
 30
0.0
 11
-21.44998914455471
 21
81.85377595226697
 31
0.0
  0
ARC
  5
197B
330
1F
100
AcDbEntity
  8
DETAILS
 62
     6
370
    20
100
AcDbCircle
 10
-21.49998914455398
 20
81.85377595226697
 30
0.0
 40
0.0500000000001819
100
AcDbArc
 50
0.0000000001302755
 51
90.0
  0
LINE
  5
197C
330
1F
100
AcDbEntity
  8
DETAILS
 62
     6
370
    20
100
AcDbLine
 10
-21.49998914455398
 20
81.90377595226715
 30
0.0
 11
-21.94998914455471
 21
81.90377595226715
 31
0.0
  0
ARC
  5
197D
330
1F
100
AcDbEntity
  8
DETAILS
 62
     6
370
    20
100
AcDbCircle
 10
-21.94998914455471
 20
81.85377595226697
 30
0.0
 40
0.0500000000001819
100
AcDbArc
 50
90.0
 51
179.9999999998697
  0
LINE
  5
197E
330
1F
100
AcDbEntity
  8
DETAILS
 62
     6
370
    20
100
AcDbLine
 10
-21.99998914455398
 20
81.85377595226697
 30
0.0
 11
-21.99998914455398
 21
81.7487759522665
 31
0.0
  0
ARC
  5
197F
330
1F
100
AcDbEntity
  8
DETAILS
 62
     6
370
    20
100
AcDbCircle
 10
-22.37498914455398
 20
81.7487759522665
 30
0.0
 40
0.3749999999995452
100
AcDbArc
 50
179.9999999999739
 51
0.0
  0
LINE
  5
1980
330
1F
100
AcDbEntity
  8
DETAILS
 62
     6
370
    20
100
AcDbLine
 10
-22.74998914455398
 20
81.74877595226694
 30
0.0
 11
-22.74998914455398
 21
81.85377595226697
 31
0.0
  0
ARC
  5
1981
330
1F
100
AcDbEntity
  8
DETAILS
 62
     6
370
    20
100
AcDbCircle
 10
-22.79998914455416
 20
81.85377595226697
 30
0.0
 40
0.0500000000001819
100
AcDbArc
 50
0.0000000001302755
 51
90.0
  0
LINE
  5
1982
330
1F
100
AcDbEntity
  8
DETAILS
 62
     6
370
    20
100
AcDbLine
 10
-22.79998914455416
 20
81.90377595226715
 30
0.0
 11
-22.9573673569447
 21
81.90377595226715
 31
0.0
  0
LINE
  5
1983
330
1F
100
AcDbEntity
  8
DETAILS
 62
     6
370
    20
100
AcDbLine
 10
-17.97498914455525
 20
76.43235459603016
 30
0.0
 11
-17.97498914455616
 21
74.42423474164849
 31
0.0
  0
LINE
  5
1984
330
1F
100
AcDbEntity
  8
DETAILS
 62
     6
370
    20
100
AcDbLine
 10
-24.17498914455507
 20
74.42423474164849
 30
0.0
 11
-24.17498914455598
 21
76.43235459603016
 31
0.0
  0
LINE
  5
1985
330
1F
100
AcDbEntity
  8
DETAILS
 62
     6
370
    20
100
AcDbLine
 10
-24.27498914455544
 20
85.10991970326273
 30
0.0
 11
-24.27498914455544
 21
85.1465222436405
 31
0.0
  0
ARC
  5
1986
330
1F
100
AcDbEntity
  8
DETAILS
 62
     6
370
    20
100
AcDbCircle
 10
-24.32498914455562
 20
85.14652224364004
 30
0.0
 40
0.0500000000001819
100
AcDbArc
 50
0.0000000004429368
 51
30.00000000045302
  0
LINE
  5
1987
330
1F
100
AcDbEntity
  8
DETAILS
 62
     6
370
    20
100
AcDbLine
 10
-24.28168787436687
 20
85.17152224364059
 30
0.0
 11
-24.32737682899267
 21
85.25065783440011
 31
0.0
  0
LINE
  5
1988
330
1F
100
AcDbEntity
  8
DETAILS
 62
     6
370
    20
100
AcDbLine
 10
-24.32737682899267
 20
85.25065783440011
 30
0.0
 11
-24.24077428861517
 21
85.30065783439983
 31
0.0
  0
LINE
  5
1989
330
1F
100
AcDbEntity
  8
DETAILS
 62
     6
370
    20
100
AcDbLine
 10
-24.24077428861517
 20
85.30065783439983
 30
0.0
 11
-24.18168787436651
 21
85.19831716288496
 31
0.0
  0
ARC
  5
198A
330
1F
100
AcDbEntity
  8
DETAILS
 62
     6
370
    20
100
AcDbCircle
 10
-24.22498914455526
 20
85.17331716288486
 30
0.0
 40
0.0499999999997213
100
AcDbArc
 50
0.0000000003387164
 51
30.00000000054676
  0
LINE
  5
198B
330
1F
100
AcDbEntity
  8
DETAILS
 62
     6
370
    20
100
AcDbLine
 10
-24.17498914455598
 20
85.17331716288486
 30
0.0
 11
-24.17498914455416
 21
83.19400698102624
 31
0.0
  0
LINE
  5
198C
330
1F
100
AcDbEntity
  8
DETAILS
 62
     6
370
    20
100
AcDbLine
 10
-24.17498914455416
 20
83.19400698102624
 30
0.0
 11
-24.17498914455507
 21
76.43235459603062
 31
0.0
  0
ARC
  5
198D
330
1F
100
AcDbEntity
  8
DETAILS
 62
     6
370
    20
100
AcDbCircle
 10
-24.07498914455562
 20
76.43235459603062
 30
0.0
 40
0.0999999999999091
100
AcDbArc
 50
135.0000000001474
 51
180.0000000001302
  0
LINE
  5
198E
330
1F
100
AcDbEntity
  8
DETAILS
 62
     6
370
    20
100
AcDbLine
 10
-24.14569982267392
 20
76.50306527414892
 30
0.0
 11
-22.49392312737644
 21
78.17984196944468
 31
0.0
  0
ARC
  5
198F
330
1F
100
AcDbEntity
  8
DETAILS
 62
     6
370
    20
100
AcDbCircle
 10
-22.38785711019852
 20
78.07377595226722
 30
0.0
 40
0.1499999999998163
100
AcDbArc
 50
90.0
 51
135.0000000000184
  0
LINE
  5
1990
330
1F
100
AcDbEntity
  8
DETAILS
 62
     6
370
    20
100
AcDbLine
 10
-22.38785711019852
 20
78.22377595226686
 30
0.0
 11
-21.07498914455562
 21
78.22377595226686
 31
0.0
  0
LINE
  5
1991
330
1F
100
AcDbEntity
  8
DETAILS
 62
     6
370
    20
100
AcDbLine
 10
-21.07498914455562
 20
78.22377595226686
 30
0.0
 11
-19.76212117891271
 21
78.22377595226686
 31
0.0
  0
ARC
  5
1992
330
1F
100
AcDbEntity
  8
DETAILS
 62
     6
370
    20
100
AcDbCircle
 10
-19.76212117891271
 20
78.07377595226722
 30
0.0
 40
0.1499999999998067
100
AcDbArc
 50
44.99999999998157
 51
90.0
  0
LINE
  5
1993
330
1F
100
AcDbEntity
  8
DETAILS
 62
     6
370
    20
100
AcDbLine
 10
-19.6560551617348
 20
78.17984196944468
 30
0.0
 11
-18.0042784664364
 21
76.50306527414892
 31
0.0
  0
ARC
  5
1994
330
1F
100
AcDbEntity
  8
DETAILS
 62
     6
370
    20
100
AcDbCircle
 10
-18.07498914455561
 20
76.43235459603062
 30
0.0
 40
0.0999999999999044
100
AcDbArc
 50
359.9999999998958
 51
44.99999999985261
  0
LINE
  5
1995
330
1F
100
AcDbEntity
  8
DETAILS
 62
     6
370
    20
100
AcDbLine
 10
-17.97498914455525
 20
76.43235459603062
 30
0.0
 11
-17.97498914455707
 21
83.19400698102624
 31
0.0
  0
LINE
  5
1996
330
1F
100
AcDbEntity
  8
DETAILS
 62
     6
370
    20
100
AcDbLine
 10
-17.97498914455707
 20
83.19400698102624
 30
0.0
 11
-17.97498914455525
 21
85.17331716288486
 31
0.0
  0
ARC
  5
1997
330
1F
100
AcDbEntity
  8
DETAILS
 62
     6
370
    20
100
AcDbCircle
 10
-17.92498914455598
 20
85.17331716288486
 30
0.0
 40
0.0500000000001819
100
AcDbArc
 50
149.9999999997345
 51
179.9999999997394
  0
LINE
  5
1998
330
1F
100
AcDbEntity
  8
DETAILS
 62
     6
370
    20
100
AcDbLine
 10
-17.96829041474473
 20
85.19831716288541
 30
0.0
 11
-17.90920400049606
 21
85.30065783439983
 31
0.0
  0
LINE
  5
1999
330
1F
100
AcDbEntity
  8
DETAILS
 62
     6
370
    20
100
AcDbLine
 10
-17.90920400049606
 20
85.30065783439983
 30
0.0
 11
-17.82260146011856
 21
85.25065783440011
 31
0.0
  0
LINE
  5
199A
330
1F
100
AcDbEntity
  8
DETAILS
 62
     6
370
    20
100
AcDbLine
 10
-17.82260146011856
 20
85.25065783440011
 30
0.0
 11
-17.86829041474436
 21
85.17152224364059
 31
0.0
  0
ARC
  5
199B
330
1F
100
AcDbEntity
  8
DETAILS
 62
     6
370
    20
100
AcDbCircle
 10
-17.82498914455561
 20
85.14652224364004
 30
0.0
 40
0.0500000000002004
100
AcDbArc
 50
149.999999999547
 51
179.999999999531
  0
LINE
  5
199C
330
1F
100
AcDbEntity
  8
DETAILS
 62
     6
370
    20
100
AcDbLine
 10
-17.8749891445558
 20
85.1465222436405
 30
0.0
 11
-17.8749891445558
 21
85.10991970326273
 31
0.0
  0
LINE
  5
199D
330
1F
100
AcDbEntity
  8
DETAILS
 62
     6
370
    20
100
AcDbLine
 10
-18.44998914455743
 20
80.54377595226657
 30
0.0
 11
-18.44998914455834
 21
81.084798998003
 31
0.0
  0
ARC
  5
199E
330
1F
100
AcDbEntity
  8
DETAILS
 62
     6
370
    20
100
AcDbCircle
 10
-18.5499891445578
 20
81.084798998003
 30
0.0
 40
0.0999999999999091
100
AcDbArc
 50
0.0
 51
136.1691393279388
  0
LINE
  5
199F
330
1F
100
AcDbEntity
  8
DETAILS
 62
     6
370
    20
100
AcDbLine
 10
-18.62212787666146
 20
81.15405218082202
 30
0.0
 11
-19.14151000056779
 21
80.61302913508558
 31
0.0
  0
ARC
  5
19A0
330
1F
100
AcDbEntity
  8
DETAILS
 62
     6
370
    20
100
AcDbCircle
 10
-19.06937126846412
 20
80.54377595226702
 30
0.0
 40
0.1000000000000336
100
AcDbArc
 50
136.1691393279939
 51
270.0
  0
LINE
  5
19A1
330
1F
100
AcDbEntity
  8
DETAILS
 62
     6
370
    20
100
AcDbLine
 10
-19.06937126846412
 20
80.44377595226711
 30
0.0
 11
-18.54998914455689
 21
80.44377595226711
 31
0.0
  0
ARC
  5
19A2
330
1F
100
AcDbEntity
  8
DETAILS
 62
     6
370
    20
100
AcDbCircle
 10
-18.5499891445578
 20
80.54377595226702
 30
0.0
 40
0.1000000000001364
100
AcDbArc
 50
270.0000000002606
 51
359.9999999998958
  0
LINE
  5
19A3
330
1F
100
AcDbEntity
  8
DETAILS
 62
     6
370
    20
100
AcDbLine
 10
-18.54998914455689
 20
79.12377595226695
 30
0.0
 11
-19.06937126846412
 21
79.12377595226695
 31
0.0
  0
ARC
  5
19A4
330
1F
100
AcDbEntity
  8
DETAILS
 62
     6
370
    20
100
AcDbCircle
 10
-19.06937126846412
 20
79.02377595226704
 30
0.0
 40
0.1000000000000227
100
AcDbArc
 50
90.0
 51
223.830860672006
  0
LINE
  5
19A5
330
1F
100
AcDbEntity
  8
DETAILS
 62
     6
370
    20
100
AcDbLine
 10
-19.14151000056779
 20
78.95452276944803
 30
0.0
 11
-18.62212787666146
 21
78.41349972371205
 31
0.0
  0
ARC
  5
19A6
330
1F
100
AcDbEntity
  8
DETAILS
 62
     6
370
    20
100
AcDbCircle
 10
-18.5499891445578
 20
78.4827529065306
 30
0.0
 40
0.1000000000000336
100
AcDbArc
 50
223.830860672006
 51
0.0000000000260551
  0
LINE
  5
19A7
330
1F
100
AcDbEntity
  8
DETAILS
 62
     6
370
    20
100
AcDbLine
 10
-18.44998914455834
 20
78.4827529065306
 30
0.0
 11
-18.44998914455743
 21
79.02377595226704
 31
0.0
  0
ARC
  5
19A8
330
1F
100
AcDbEntity
  8
DETAILS
 62
     6
370
    20
100
AcDbCircle
 10
-18.5499891445578
 20
79.02377595226659
 30
0.0
 40
0.1000000000003638
100
AcDbArc
 50
0.0000000001042204
 51
89.99999999973944
  0
LINE
  5
19A9
330
1F
100
AcDbEntity
  8
0
 62
     1
100
AcDbLine
 10
-26.79998914455507
 20
85.52377595226705
 30
0.0
 11
-24.17498914455507
 21
85.52377595226705
 31
0.0
  0
LINE
  5
19AA
330
1F
100
AcDbEntity
  8
0
 62
     1
100
AcDbLine
 10
-24.17498914455507
 20
86.02377595226704
 30
0.0
 11
-24.17498914455507
 21
85.52377595226705
 31
0.0
  0
LINE
  5
19AB
330
1F
100
AcDbEntity
  8
0
  6
HIDDEN
 62
     1
 48
0.02
100
AcDbLine
 10
-26.44998914455471
 20
86.02377595226704
 30
0.0
 11
-25.82498914455471
 21
86.02377595226704
 31
0.0
  0
LINE
  5
19AC
330
1F
100
AcDbEntity
  8
0
  6
HIDDEN
 62
     1
 48
0.02
100
AcDbLine
 10
-26.44998914455471
 20
86.02377595226704
 30
0.0
 11
-26.44998914455471
 21
85.52377595226705
 31
0.0
  0
LINE
  5
19AD
330
1F
100
AcDbEntity
  8
0
  6
HIDDEN
 62
     1
 48
0.02
100
AcDbLine
 10
-24.79998914455507
 20
86.02377595226704
 30
0.0
 11
-24.79998914455598
 21
85.52377595226705
 31
0.0
  0
LINE
  5
19AE
330
1F
100
AcDbEntity
  8
0
  6
HIDDEN
 62
     1
 48
0.02
100
AcDbLine
 10
-25.82498914455471
 20
86.02377595226704
 30
0.0
 11
-25.82498914455471
 21
85.52377595226705
 31
0.0
  0
LINE
  5
19AF
330
1F
100
AcDbEntity
  8
0
  6
HIDDEN
 62
     1
 48
0.02
100
AcDbLine
 10
-24.79998914455598
 20
86.02377595226704
 30
0.0
 11
-24.17498914455598
 21
86.02377595226704
 31
0.0
  0
LINE
  5
19B0
330
1F
100
AcDbEntity
  8
0
 62
     1
100
AcDbLine
 10
-17.97498914455434
 20
85.52377595226705
 30
0.0
 11
-15.34998914455525
 21
85.52377595226705
 31
0.0
  0
LINE
  5
19B1
330
1F
100
AcDbEntity
  8
0
 62
     1
100
AcDbLine
 10
-17.97498914455434
 20
86.02377595226704
 30
0.0
 11
-17.97498914455434
 21
85.52377595226705
 31
0.0
  0
LINE
  5
19B2
330
1F
100
AcDbEntity
  8
0
  6
HIDDEN
 62
     1
 48
0.02
100
AcDbLine
 10
-15.69998914455289
 20
86.02377595226704
 30
0.0
 11
-15.69998914455289
 21
85.52377595226705
 31
0.0
  0
LINE
  5
19B3
330
1F
100
AcDbEntity
  8
0
  6
HIDDEN
 62
     1
 48
0.02
100
AcDbLine
 10
-17.34998914455434
 20
86.02377595226704
 30
0.0
 11
-17.34998914455434
 21
85.52377595226705
 31
0.0
  0
LINE
  5
19B4
330
1F
100
AcDbEntity
  8
0
  6
HIDDEN
 62
     1
 48
0.02
100
AcDbLine
 10
-16.32498914455289
 20
86.02377595226704
 30
0.0
 11
-16.32498914455289
 21
85.52377595226705
 31
0.0
  0
LINE
  5
19B5
330
1F
100
AcDbEntity
  8
0
  6
HIDDEN
 62
     1
 48
0.02
100
AcDbLine
 10
-17.97498914455434
 20
86.02377595226704
 30
0.0
 11
-17.34998914455434
 21
86.02377595226704
 31
0.0
  0
LINE
  5
19B6
330
1F
100
AcDbEntity
  8
0
  6
HIDDEN
 62
     1
 48
0.02
100
AcDbLine
 10
-16.32498914455289
 20
86.02377595226704
 30
0.0
 11
-15.69998914455289
 21
86.02377595226704
 31
0.0
  0
LINE
  5
19B7
330
1F
100
AcDbEntity
  8
0
  6
HIDDEN
 62
     1
 48
0.02
100
AcDbLine
 10
-17.77498914455361
 20
85.77377595226705
 30
0.0
 11
-17.77498914455361
 21
85.52377595226705
 31
0.0
  0
LINE
  5
19B8
330
1F
100
AcDbEntity
  8
0
  6
HIDDEN
 62
     1
 48
0.02
100
AcDbLine
 10
-17.52498914455361
 20
85.77377595226705
 30
0.0
 11
-17.52498914455361
 21
85.52377595226705
 31
0.0
  0
LINE
  5
19B9
330
1F
100
AcDbEntity
  8
0
  6
HIDDEN
 62
     1
 48
0.02
100
AcDbLine
 10
-17.77498914455361
 20
85.77377595226705
 30
0.0
 11
-17.52498914455361
 21
85.77377595226705
 31
0.0
  0
LINE
  5
19BA
330
1F
100
AcDbEntity
  8
0
 62
     1
100
AcDbLine
 10
-26.79998914455507
 20
73.52377595226704
 30
0.0
 11
-24.17498914455507
 21
73.52377595226704
 31
0.0
  0
LINE
  5
19BB
330
1F
100
AcDbEntity
  8
0
 62
     1
100
AcDbLine
 10
-26.79998914455507
 20
73.52377595226704
 30
0.0
 11
-24.62498914455489
 21
73.52377595226704
 31
0.0
  0
LINE
  5
19BC
330
1F
100
AcDbEntity
  8
0
 62
     1
100
AcDbLine
 10
-24.3749891445558
 20
73.52377595226704
 30
0.0
 11
-24.17498914455598
 21
73.52377595226704
 31
0.0
  0
LINE
  5
19BD
330
1F
100
AcDbEntity
  8
0
 48
0.15
100
AcDbLine
 10
-25.82498914455471
 20
73.52377595226704
 30
0.0
 11
-24.79998914455507
 21
73.52377595226704
 31
0.0
  0
LINE
  5
19BE
330
1F
100
AcDbEntity
  8
0
 62
     1
100
AcDbLine
 10
-24.74998914455489
 20
73.52377595226704
 30
0.0
 11
-25.8749891445558
 21
73.52377595226704
 31
0.0
  0
LINE
  5
19BF
330
1F
100
AcDbEntity
  8
0
 62
     1
100
AcDbLine
 10
-26.79998914455507
 20
73.52378792276437
 30
0.0
 11
-24.62498914455489
 21
73.52378792276437
 31
0.0
  0
LINE
  5
19C0
330
1F
100
AcDbEntity
  8
0
 62
     1
100
AcDbLine
 10
-26.44998914455471
 20
74.02378792276437
 30
0.0
 11
-25.82498914455471
 21
74.02378792276437
 31
0.0
  0
LINE
  5
19C1
330
1F
100
AcDbEntity
  8
0
 62
     1
100
AcDbLine
 10
-24.79998914455507
 20
74.02378792276437
 30
0.0
 11
-24.79998914455598
 21
73.52378792276437
 31
0.0
  0
LINE
  5
19C2
330
1F
100
AcDbEntity
  8
0
 62
     1
100
AcDbLine
 10
-25.82498914455471
 20
74.02378792276437
 30
0.0
 11
-25.82498914455471
 21
73.52378792276437
 31
0.0
  0
LINE
  5
19C3
330
1F
100
AcDbEntity
  8
0
 62
     1
100
AcDbLine
 10
-24.79998914455598
 20
74.02378792276437
 30
0.0
 11
-24.17498914455598
 21
74.02378792276437
 31
0.0
  0
LINE
  5
19C4
330
1F
100
AcDbEntity
  8
0
 62
     1
100
AcDbLine
 10
-24.6249891445558
 20
73.77378792276437
 30
0.0
 11
-24.6249891445558
 21
73.52378792276437
 31
0.0
  0
LINE
  5
19C5
330
1F
100
AcDbEntity
  8
0
 62
     1
100
AcDbLine
 10
-24.6249891445558
 20
73.77378792276437
 30
0.0
 11
-24.3749891445558
 21
73.77378792276437
 31
0.0
  0
LINE
  5
19C6
330
1F
100
AcDbEntity
  8
0
 62
     1
100
AcDbLine
 10
-24.3749891445558
 20
73.52378792276437
 30
0.0
 11
-24.17498914455598
 21
73.52378792276437
 31
0.0
  0
LINE
  5
19C7
330
1F
100
AcDbEntity
  8
0
 48
0.15
100
AcDbLine
 10
-25.82498914455471
 20
73.52378792276437
 30
0.0
 11
-24.79998914455507
 21
73.52378792276437
 31
0.0
  0
LINE
  5
19C8
330
1F
100
AcDbEntity
  8
0
 62
     1
100
AcDbLine
 10
-24.74998914455489
 20
73.52378792276437
 30
0.0
 11
-25.8749891445558
 21
73.52378792276437
 31
0.0
  0
LINE
  5
19C9
330
1F
100
AcDbEntity
  8
0
 62
     1
100
AcDbLine
 10
-15.6999891445547
 20
74.02378792276437
 30
0.0
 11
-15.6999891445547
 21
73.52378792276437
 31
0.0
  0
LINE
  5
19CA
330
1F
100
AcDbEntity
  8
0
 62
     1
100
AcDbLine
 10
-17.34998914455616
 20
74.02378792276437
 30
0.0
 11
-17.34998914455616
 21
73.52378792276437
 31
0.0
  0
LINE
  5
19CB
330
1F
100
AcDbEntity
  8
0
 62
     1
100
AcDbLine
 10
-16.3249891445547
 20
74.02378792276437
 30
0.0
 11
-16.3249891445547
 21
73.52378792276437
 31
0.0
  0
LINE
  5
19CC
330
1F
100
AcDbEntity
  8
0
 62
     1
100
AcDbLine
 10
-17.97498914455616
 20
74.02378792276437
 30
0.0
 11
-17.34998914455616
 21
74.02378792276437
 31
0.0
  0
LINE
  5
19CD
330
1F
100
AcDbEntity
  8
0
 62
     1
100
AcDbLine
 10
-16.3249891445547
 20
74.02378792276437
 30
0.0
 11
-15.6999891445547
 21
74.02378792276437
 31
0.0
  0
LINE
  5
19CE
330
1F
100
AcDbEntity
  8
0
 62
     1
100
AcDbLine
 10
-17.52498914455543
 20
73.77378792276437
 30
0.0
 11
-17.52498914455543
 21
73.52378792276437
 31
0.0
  0
LINE
  5
19CF
330
1F
100
AcDbEntity
  8
0
 62
     1
100
AcDbLine
 10
-17.77498914455543
 20
73.77378792276437
 30
0.0
 11
-17.52498914455543
 21
73.77378792276437
 31
0.0
  0
LINE
  5
19D0
330
1F
100
AcDbEntity
  8
0
 62
     1
100
AcDbLine
 10
-17.55998914455529
 20
73.52378792276437
 30
0.0
 11
-15.34998914455525
 21
73.52378792276437
 31
0.0
  0
LINE
  5
19D1
330
1F
100
AcDbEntity
  8
0
 62
     1
100
AcDbLine
 10
-17.97498914455616
 20
73.52378792276437
 30
0.0
 11
-17.77498914455543
 21
73.52378792276437
 31
0.0
  0
LINE
  5
19D2
330
1F
100
AcDbEntity
  8
0
 62
     1
100
AcDbLine
 10
-26.79998914455507
 20
73.52378792276437
 30
0.0
 11
-24.17498914455507
 21
73.52378792276437
 31
0.0
  0
LINE
  5
19D3
330
1F
100
AcDbEntity
  8
0
 62
     1
100
AcDbLine
 10
-24.17498914455507
 20
74.02378792276437
 30
0.0
 11
-24.17498914455507
 21
73.52378792276437
 31
0.0
  0
LINE
  5
19D4
330
1F
100
AcDbEntity
  8
0
  6
HIDDEN
 62
     1
 48
0.02
100
AcDbLine
 10
-26.44998914455471
 20
74.02378792276437
 30
0.0
 11
-25.82498914455471
 21
74.02378792276437
 31
0.0
  0
LINE
  5
19D5
330
1F
100
AcDbEntity
  8
0
  6
HIDDEN
 62
     1
 48
0.02
100
AcDbLine
 10
-26.44998914455471
 20
74.02378792276437
 30
0.0
 11
-26.44998914455471
 21
73.52378792276437
 31
0.0
  0
LINE
  5
19D6
330
1F
100
AcDbEntity
  8
0
  6
HIDDEN
 62
     1
 48
0.02
100
AcDbLine
 10
-24.79998914455507
 20
74.02378792276437
 30
0.0
 11
-24.79998914455598
 21
73.52378792276437
 31
0.0
  0
LINE
  5
19D7
330
1F
100
AcDbEntity
  8
0
  6
HIDDEN
 62
     1
 48
0.02
100
AcDbLine
 10
-25.82498914455471
 20
74.02378792276437
 30
0.0
 11
-25.82498914455471
 21
73.52378792276437
 31
0.0
  0
LINE
  5
19D8
330
1F
100
AcDbEntity
  8
0
  6
HIDDEN
 62
     1
 48
0.02
100
AcDbLine
 10
-24.79998914455598
 20
74.02378792276437
 30
0.0
 11
-24.17498914455598
 21
74.02378792276437
 31
0.0
  0
LINE
  5
19D9
330
1F
100
AcDbEntity
  8
0
 62
     1
100
AcDbLine
 10
-17.97498914455434
 20
73.52378792276437
 30
0.0
 11
-15.34998914455525
 21
73.52378792276437
 31
0.0
  0
LINE
  5
19DA
330
1F
100
AcDbEntity
  8
0
 62
     1
100
AcDbLine
 10
-17.97498914455434
 20
74.02378792276437
 30
0.0
 11
-17.97498914455434
 21
73.52378792276437
 31
0.0
  0
LINE
  5
19DB
330
1F
100
AcDbEntity
  8
0
  6
HIDDEN
 62
     1
 48
0.02
100
AcDbLine
 10
-15.69998914455289
 20
74.02378792276437
 30
0.0
 11
-15.69998914455289
 21
73.52378792276437
 31
0.0
  0
LINE
  5
19DC
330
1F
100
AcDbEntity
  8
0
  6
HIDDEN
 62
     1
 48
0.02
100
AcDbLine
 10
-17.34998914455434
 20
74.02378792276437
 30
0.0
 11
-17.34998914455434
 21
73.52378792276437
 31
0.0
  0
LINE
  5
19DD
330
1F
100
AcDbEntity
  8
0
  6
HIDDEN
 62
     1
 48
0.02
100
AcDbLine
 10
-16.32498914455289
 20
74.02378792276437
 30
0.0
 11
-16.32498914455289
 21
73.52378792276437
 31
0.0
  0
LINE
  5
19DE
330
1F
100
AcDbEntity
  8
0
  6
HIDDEN
 62
     1
 48
0.02
100
AcDbLine
 10
-17.97498914455434
 20
74.02378792276437
 30
0.0
 11
-17.34998914455434
 21
74.02378792276437
 31
0.0
  0
LINE
  5
19DF
330
1F
100
AcDbEntity
  8
0
  6
HIDDEN
 62
     1
 48
0.02
100
AcDbLine
 10
-16.32498914455289
 20
74.02378792276437
 30
0.0
 11
-15.69998914455289
 21
74.02378792276437
 31
0.0
  0
LINE
  5
19E0
330
1F
100
AcDbEntity
  8
0
  6
HIDDEN
 62
     1
 48
0.02
100
AcDbLine
 10
-17.77498914455361
 20
73.77378792276437
 30
0.0
 11
-17.77498914455361
 21
73.52378792276437
 31
0.0
  0
LINE
  5
19E1
330
1F
100
AcDbEntity
  8
0
  6
HIDDEN
 62
     1
 48
0.02
100
AcDbLine
 10
-17.52498914455361
 20
73.77378792276437
 30
0.0
 11
-17.52498914455361
 21
73.52378792276437
 31
0.0
  0
LINE
  5
19E2
330
1F
100
AcDbEntity
  8
0
  6
HIDDEN
 62
     1
 48
0.02
100
AcDbLine
 10
-17.77498914455361
 20
73.77378792276437
 30
0.0
 11
-17.52498914455361
 21
73.77378792276437
 31
0.0
  0
ARC
  5
19E3
330
1F
100
AcDbEntity
  8
DETAILS
 62
     6
370
    20
100
AcDbCircle
 10
-17.9249891445578
 20
74.42424671214627
 30
0.0
 40
0.0499999999997272
100
AcDbArc
 50
180.0000000004429
 51
210.0000000006405
  0
LINE
  5
19E4
330
1F
100
AcDbEntity
  8
DETAILS
 62
     6
370
    20
100
AcDbLine
 10
-17.96829041474655
 20
74.39924671214618
 30
0.0
 11
-17.90920400049879
 21
74.29690604063131
 31
0.0
  0
LINE
  5
19E5
330
1F
100
AcDbEntity
  8
DETAILS
 62
     6
370
    20
100
AcDbLine
 10
-17.90920400049879
 20
74.29690604063131
 30
0.0
 11
-17.82260146012038
 21
74.34690604063149
 31
0.0
  0
LINE
  5
19E6
330
1F
100
AcDbEntity
  8
DETAILS
 62
     6
370
    20
100
AcDbLine
 10
-17.82260146012038
 20
74.34690604063149
 30
0.0
 11
-17.86829041474709
 21
74.42604163139009
 31
0.0
  0
ARC
  5
19E7
330
1F
100
AcDbEntity
  8
DETAILS
 62
     6
370
    20
100
AcDbCircle
 10
-17.82498914455834
 20
74.45104163139063
 30
0.0
 40
0.0499999999997213
100
AcDbArc
 50
180.0000000003126
 51
210.0000000005468
  0
LINE
  5
19E8
330
1F
100
AcDbEntity
  8
DETAILS
 62
     6
370
    20
100
AcDbLine
 10
-17.87498914455852
 20
74.45104163139063
 30
0.0
 11
-17.87498914455762
 21
74.48764417176886
 31
0.0
  0
LINE
  5
19E9
330
1F
100
AcDbEntity
  8
DETAILS
 62
     6
370
    20
100
AcDbLine
 10
-24.27498914455544
 20
74.48764417176795
 30
0.0
 11
-24.27498914455544
 21
74.45104163139063
 31
0.0
  0
ARC
  5
19EA
330
1F
100
AcDbEntity
  8
DETAILS
 62
     6
370
    20
100
AcDbCircle
 10
-24.32498914455562
 20
74.45104163139063
 30
0.0
 40
0.0499999999997272
100
AcDbArc
 50
329.9999999994532
 51
359.9999999996613
  0
LINE
  5
19EB
330
1F
100
AcDbEntity
  8
DETAILS
 62
     6
370
    20
100
AcDbLine
 10
-24.28168787436687
 20
74.42604163139009
 30
0.0
 11
-24.32737682899358
 21
74.34690604063058
 31
0.0
  0
LINE
  5
19EC
330
1F
100
AcDbEntity
  8
DETAILS
 62
     6
370
    20
100
AcDbLine
 10
-24.32737682899358
 20
74.34690604063058
 30
0.0
 11
-24.24077428861517
 21
74.29690604063131
 31
0.0
  0
LINE
  5
19ED
330
1F
100
AcDbEntity
  8
DETAILS
 62
     6
370
    20
100
AcDbLine
 10
-24.24077428861517
 20
74.29690604063131
 30
0.0
 11
-24.18168787436741
 21
74.39924671214618
 31
0.0
  0
ARC
  5
19EE
330
1F
100
AcDbEntity
  8
DETAILS
 62
     6
370
    20
100
AcDbCircle
 10
-24.22498914455616
 20
74.42424671214627
 30
0.0
 40
0.0499999999997782
100
AcDbArc
 50
329.9999999993595
 51
359.999999999531
  0
LINE
  5
19EF
330
1F
100
AcDbEntity
  8
0
 62
     1
100
AcDbLine
 10
-26.79998914455507
 20
85.52377595226705
 30
0.0
 11
-24.17498914455507
 21
85.52377595226705
 31
0.0
  0
LINE
  5
19F0
330
1F
100
AcDbEntity
  8
0
 62
     1
100
AcDbLine
 10
-26.79998914455507
 20
85.52377595226705
 30
0.0
 11
-24.62498914455489
 21
85.52377595226705
 31
0.0
  0
LINE
  5
19F1
330
1F
100
AcDbEntity
  8
0
 62
     1
100
AcDbLine
 10
-24.3749891445558
 20
85.52377595226705
 30
0.0
 11
-24.17498914455598
 21
85.52377595226705
 31
0.0
  0
LINE
  5
19F2
330
1F
100
AcDbEntity
  8
0
 48
0.15
100
AcDbLine
 10
-25.82498914455471
 20
85.52377595226705
 30
0.0
 11
-24.79998914455507
 21
85.52377595226705
 31
0.0
  0
LINE
  5
19F3
330
1F
100
AcDbEntity
  8
0
 62
     1
100
AcDbLine
 10
-24.74998914455489
 20
85.52377595226705
 30
0.0
 11
-25.8749891445558
 21
85.52377595226705
 31
0.0
  0
LINE
  5
19F4
330
1F
100
AcDbEntity
  8
0
 62
     1
100
AcDbLine
 10
-26.79998914455507
 20
85.52378792276437
 30
0.0
 11
-24.62498914455489
 21
85.52378792276437
 31
0.0
  0
LINE
  5
19F5
330
1F
100
AcDbEntity
  8
0
 62
     1
100
AcDbLine
 10
-26.44998914455471
 20
86.02378792276438
 30
0.0
 11
-25.82498914455471
 21
86.02378792276438
 31
0.0
  0
LINE
  5
19F6
330
1F
100
AcDbEntity
  8
0
 62
     1
100
AcDbLine
 10
-24.79998914455507
 20
86.02378792276438
 30
0.0
 11
-24.79998914455598
 21
85.52378792276437
 31
0.0
  0
LINE
  5
19F7
330
1F
100
AcDbEntity
  8
0
 62
     1
100
AcDbLine
 10
-25.82498914455471
 20
86.02378792276438
 30
0.0
 11
-25.82498914455471
 21
85.52378792276437
 31
0.0
  0
LINE
  5
19F8
330
1F
100
AcDbEntity
  8
0
 62
     1
100
AcDbLine
 10
-24.79998914455598
 20
86.02378792276438
 30
0.0
 11
-24.17498914455598
 21
86.02378792276438
 31
0.0
  0
LINE
  5
19F9
330
1F
100
AcDbEntity
  8
0
 62
     1
100
AcDbLine
 10
-24.6249891445558
 20
85.77378792276437
 30
0.0
 11
-24.6249891445558
 21
85.52378792276437
 31
0.0
  0
LINE
  5
19FA
330
1F
100
AcDbEntity
  8
0
 62
     1
100
AcDbLine
 10
-24.6249891445558
 20
85.77378792276437
 30
0.0
 11
-24.3749891445558
 21
85.77378792276437
 31
0.0
  0
LINE
  5
19FB
330
1F
100
AcDbEntity
  8
0
 62
     1
100
AcDbLine
 10
-24.3749891445558
 20
85.52378792276437
 30
0.0
 11
-24.17498914455598
 21
85.52378792276437
 31
0.0
  0
LINE
  5
19FC
330
1F
100
AcDbEntity
  8
0
 48
0.15
100
AcDbLine
 10
-25.82498914455471
 20
85.52378792276437
 30
0.0
 11
-24.79998914455507
 21
85.52378792276437
 31
0.0
  0
LINE
  5
19FD
330
1F
100
AcDbEntity
  8
0
 62
     1
100
AcDbLine
 10
-24.74998914455489
 20
85.52378792276437
 30
0.0
 11
-25.8749891445558
 21
85.52378792276437
 31
0.0
  0
LINE
  5
19FE
330
1F
100
AcDbEntity
  8
0
 62
     1
100
AcDbLine
 10
-15.6999891445547
 20
86.02378792276438
 30
0.0
 11
-15.6999891445547
 21
85.52378792276437
 31
0.0
  0
LINE
  5
19FF
330
1F
100
AcDbEntity
  8
0
 62
     1
100
AcDbLine
 10
-17.34998914455616
 20
86.02378792276438
 30
0.0
 11
-17.34998914455616
 21
85.52378792276437
 31
0.0
  0
LINE
  5
1A00
330
1F
100
AcDbEntity
  8
0
 62
     1
100
AcDbLine
 10
-16.3249891445547
 20
86.02378792276438
 30
0.0
 11
-16.3249891445547
 21
85.52378792276437
 31
0.0
  0
LINE
  5
1A01
330
1F
100
AcDbEntity
  8
0
 62
     1
100
AcDbLine
 10
-17.97498914455616
 20
86.02378792276438
 30
0.0
 11
-17.34998914455616
 21
86.02378792276438
 31
0.0
  0
LINE
  5
1A02
330
1F
100
AcDbEntity
  8
0
 62
     1
100
AcDbLine
 10
-16.3249891445547
 20
86.02378792276438
 30
0.0
 11
-15.6999891445547
 21
86.02378792276438
 31
0.0
  0
LINE
  5
1A03
330
1F
100
AcDbEntity
  8
0
 62
     1
100
AcDbLine
 10
-17.52498914455543
 20
85.77378792276437
 30
0.0
 11
-17.52498914455543
 21
85.52378792276437
 31
0.0
  0
LINE
  5
1A04
330
1F
100
AcDbEntity
  8
0
 62
     1
100
AcDbLine
 10
-17.77498914455543
 20
85.77378792276437
 30
0.0
 11
-17.52498914455543
 21
85.77378792276437
 31
0.0
  0
LINE
  5
1A05
330
1F
100
AcDbEntity
  8
0
 62
     1
100
AcDbLine
 10
-17.55998914455529
 20
85.52378792276437
 30
0.0
 11
-15.34998914455525
 21
85.52378792276437
 31
0.0
  0
LINE
  5
1A06
330
1F
100
AcDbEntity
  8
0
 62
     1
100
AcDbLine
 10
-17.97498914455616
 20
85.52378792276437
 30
0.0
 11
-17.77498914455543
 21
85.52378792276437
 31
0.0
  0
LINE
  5
1A07
330
1F
100
AcDbEntity
  8
0
 62
     1
100
AcDbLine
 10
-26.79998914455507
 20
85.52378792276437
 30
0.0
 11
-24.17498914455507
 21
85.52378792276437
 31
0.0
  0
LINE
  5
1A08
330
1F
100
AcDbEntity
  8
0
 62
     1
100
AcDbLine
 10
-24.17498914455507
 20
86.02378792276438
 30
0.0
 11
-24.17498914455507
 21
85.52378792276437
 31
0.0
  0
LINE
  5
1A09
330
1F
100
AcDbEntity
  8
0
  6
HIDDEN
 62
     1
 48
0.02
100
AcDbLine
 10
-26.44998914455471
 20
86.02378792276438
 30
0.0
 11
-25.82498914455471
 21
86.02378792276438
 31
0.0
  0
LINE
  5
1A0A
330
1F
100
AcDbEntity
  8
0
  6
HIDDEN
 62
     1
 48
0.02
100
AcDbLine
 10
-26.44998914455471
 20
86.02378792276438
 30
0.0
 11
-26.44998914455471
 21
85.52378792276437
 31
0.0
  0
LINE
  5
1A0B
330
1F
100
AcDbEntity
  8
0
  6
HIDDEN
 62
     1
 48
0.02
100
AcDbLine
 10
-24.79998914455507
 20
86.02378792276438
 30
0.0
 11
-24.79998914455598
 21
85.52378792276437
 31
0.0
  0
LINE
  5
1A0C
330
1F
100
AcDbEntity
  8
0
  6
HIDDEN
 62
     1
 48
0.02
100
AcDbLine
 10
-25.82498914455471
 20
86.02378792276438
 30
0.0
 11
-25.82498914455471
 21
85.52378792276437
 31
0.0
  0
LINE
  5
1A0D
330
1F
100
AcDbEntity
  8
0
  6
HIDDEN
 62
     1
 48
0.02
100
AcDbLine
 10
-24.79998914455598
 20
86.02378792276438
 30
0.0
 11
-24.17498914455598
 21
86.02378792276438
 31
0.0
  0
LINE
  5
1A0E
330
1F
100
AcDbEntity
  8
0
 62
     1
100
AcDbLine
 10
-17.97498914455434
 20
85.52378792276437
 30
0.0
 11
-15.34998914455525
 21
85.52378792276437
 31
0.0
  0
LINE
  5
1A0F
330
1F
100
AcDbEntity
  8
0
 62
     1
100
AcDbLine
 10
-17.97498914455434
 20
86.02378792276438
 30
0.0
 11
-17.97498914455434
 21
85.52378792276437
 31
0.0
  0
LINE
  5
1A10
330
1F
100
AcDbEntity
  8
0
  6
HIDDEN
 62
     1
 48
0.02
100
AcDbLine
 10
-15.69998914455289
 20
86.02378792276438
 30
0.0
 11
-15.69998914455289
 21
85.52378792276437
 31
0.0
  0
LINE
  5
1A11
330
1F
100
AcDbEntity
  8
0
  6
HIDDEN
 62
     1
 48
0.02
100
AcDbLine
 10
-17.34998914455434
 20
86.02378792276438
 30
0.0
 11
-17.34998914455434
 21
85.52378792276437
 31
0.0
  0
LINE
  5
1A12
330
1F
100
AcDbEntity
  8
0
  6
HIDDEN
 62
     1
 48
0.02
100
AcDbLine
 10
-16.32498914455289
 20
86.02378792276438
 30
0.0
 11
-16.32498914455289
 21
85.52378792276437
 31
0.0
  0
LINE
  5
1A13
330
1F
100
AcDbEntity
  8
0
  6
HIDDEN
 62
     1
 48
0.02
100
AcDbLine
 10
-17.97498914455434
 20
86.02378792276438
 30
0.0
 11
-17.34998914455434
 21
86.02378792276438
 31
0.0
  0
LINE
  5
1A14
330
1F
100
AcDbEntity
  8
0
  6
HIDDEN
 62
     1
 48
0.02
100
AcDbLine
 10
-16.32498914455289
 20
86.02378792276438
 30
0.0
 11
-15.69998914455289
 21
86.02378792276438
 31
0.0
  0
LINE
  5
1A15
330
1F
100
AcDbEntity
  8
0
  6
HIDDEN
 62
     1
 48
0.02
100
AcDbLine
 10
-17.77498914455361
 20
85.77378792276437
 30
0.0
 11
-17.77498914455361
 21
85.52378792276437
 31
0.0
  0
LINE
  5
1A16
330
1F
100
AcDbEntity
  8
0
  6
HIDDEN
 62
     1
 48
0.02
100
AcDbLine
 10
-17.52498914455361
 20
85.77378792276437
 30
0.0
 11
-17.52498914455361
 21
85.52378792276437
 31
0.0
  0
LINE
  5
1A17
330
1F
100
AcDbEntity
  8
0
  6
HIDDEN
 62
     1
 48
0.02
100
AcDbLine
 10
-17.77498914455361
 20
85.77378792276437
 30
0.0
 11
-17.52498914455361
 21
85.77378792276437
 31
0.0
  0
LINE
  5
1A18
330
1F
100
AcDbEntity
  8
0
 48
0.15
100
AcDbLine
 10
-27.29998914455325
 20
73.02377595226795
 30
0.0
 11
-27.29998914457144
 21
94.7701541571601
 31
0.0
  0
LINE
  5
1A19
330
1F
100
AcDbEntity
  8
0
 62
     1
100
AcDbLine
 10
-17.34998914455434
 20
97.5237759522666
 30
0.0
 11
-15.34998914455434
 21
97.5237759522666
 31
0.0
  0
LINE
  5
1A1A
330
1F
100
AcDbEntity
  8
0
  6
HIDDEN
 62
     1
 48
0.02
100
AcDbLine
 10
-15.6999891445538
 20
98.02377595226658
 30
0.0
 11
-15.6999891445538
 21
97.5237759522666
 31
0.0
  0
LINE
  5
1A1B
330
1F
100
AcDbEntity
  8
0
  6
HIDDEN
 62
     1
 48
0.02
100
AcDbLine
 10
-16.3249891445538
 20
98.02377595226658
 30
0.0
 11
-16.3249891445538
 21
97.5237759522666
 31
0.0
  0
LINE
  5
1A1C
330
1F
100
AcDbEntity
  8
0
  6
HIDDEN
 62
     1
 48
0.02
100
AcDbLine
 10
-16.3249891445538
 20
98.02377595226658
 30
0.0
 11
-15.6999891445538
 21
98.02377595226658
 31
0.0
  0
LINE
  5
1A1D
330
1F
100
AcDbEntity
  8
0
 62
     1
100
AcDbLine
 10
-15.6999891445547
 20
98.02377595226658
 30
0.0
 11
-15.6999891445547
 21
97.5237759522666
 31
0.0
  0
LINE
  5
1A1E
330
1F
100
AcDbEntity
  8
0
 62
     1
100
AcDbLine
 10
-16.3249891445547
 20
98.02377595226658
 30
0.0
 11
-16.3249891445547
 21
97.5237759522666
 31
0.0
  0
LINE
  5
1A1F
330
1F
100
AcDbEntity
  8
0
 62
     1
100
AcDbLine
 10
-16.3249891445547
 20
98.02377595226658
 30
0.0
 11
-15.6999891445547
 21
98.02377595226658
 31
0.0
  0
LINE
  5
1A20
330
1F
100
AcDbEntity
  8
0
 62
     1
100
AcDbLine
 10
-16.93498914455529
 20
97.5237759522666
 30
0.0
 11
-15.34998914455434
 21
97.5237759522666
 31
0.0
  0
LINE
  5
1A21
330
1F
100
AcDbEntity
  8
0
 62
     1
100
AcDbLine
 10
-17.34998914455525
 20
97.5237759522666
 30
0.0
 11
-17.14998914455543
 21
97.5237759522666
 31
0.0
  0
LINE
  5
1A22
330
1F
100
AcDbEntity
  8
0
 62
     1
100
AcDbLine
 10
-26.79998914455507
 20
85.52376398176926
 30
0.0
 11
-24.17498914455507
 21
85.52376398176926
 31
0.0
  0
LINE
  5
1A23
330
1F
100
AcDbEntity
  8
0
 62
     1
100
AcDbLine
 10
-26.79998914455507
 20
85.52376398176926
 30
0.0
 11
-24.62498914455489
 21
85.52376398176926
 31
0.0
  0
LINE
  5
1A24
330
1F
100
AcDbEntity
  8
0
 62
     1
100
AcDbLine
 10
-24.3749891445558
 20
85.52376398176926
 30
0.0
 11
-24.17498914455598
 21
85.52376398176926
 31
0.0
  0
LINE
  5
1A25
330
1F
100
AcDbEntity
  8
0
 48
0.15
100
AcDbLine
 10
-25.82498914455471
 20
85.52376398176926
 30
0.0
 11
-24.79998914455507
 21
85.52376398176926
 31
0.0
  0
LINE
  5
1A26
330
1F
100
AcDbEntity
  8
0
 62
     1
100
AcDbLine
 10
-24.74998914455489
 20
85.52376398176926
 30
0.0
 11
-25.8749891445558
 21
85.52376398176926
 31
0.0
  0
LINE
  5
1A27
330
1F
100
AcDbEntity
  8
0
 62
     1
100
AcDbLine
 10
-26.79998914455507
 20
85.52377595226705
 30
0.0
 11
-24.62498914455489
 21
85.52377595226705
 31
0.0
  0
LINE
  5
1A28
330
1F
100
AcDbEntity
  8
0
 62
     1
100
AcDbLine
 10
-26.44998914455471
 20
86.02377595226704
 30
0.0
 11
-25.82498914455471
 21
86.02377595226704
 31
0.0
  0
LINE
  5
1A29
330
1F
100
AcDbEntity
  8
0
 62
     1
100
AcDbLine
 10
-24.79998914455507
 20
86.02377595226704
 30
0.0
 11
-24.79998914455598
 21
85.52377595226705
 31
0.0
  0
LINE
  5
1A2A
330
1F
100
AcDbEntity
  8
0
 62
     1
100
AcDbLine
 10
-25.82498914455471
 20
86.02377595226704
 30
0.0
 11
-25.82498914455471
 21
85.52377595226705
 31
0.0
  0
LINE
  5
1A2B
330
1F
100
AcDbEntity
  8
0
 62
     1
100
AcDbLine
 10
-24.79998914455598
 20
86.02377595226704
 30
0.0
 11
-24.17498914455598
 21
86.02377595226704
 31
0.0
  0
LINE
  5
1A2C
330
1F
100
AcDbEntity
  8
0
 62
     1
100
AcDbLine
 10
-24.6249891445558
 20
85.77377595226705
 30
0.0
 11
-24.6249891445558
 21
85.52377595226705
 31
0.0
  0
LINE
  5
1A2D
330
1F
100
AcDbEntity
  8
0
 62
     1
100
AcDbLine
 10
-24.6249891445558
 20
85.77377595226705
 30
0.0
 11
-24.3749891445558
 21
85.77377595226705
 31
0.0
  0
LINE
  5
1A2E
330
1F
100
AcDbEntity
  8
0
 62
     1
100
AcDbLine
 10
-24.3749891445558
 20
85.52377595226705
 30
0.0
 11
-24.17498914455598
 21
85.52377595226705
 31
0.0
  0
LINE
  5
1A2F
330
1F
100
AcDbEntity
  8
0
 48
0.15
100
AcDbLine
 10
-25.82498914455471
 20
85.52377595226705
 30
0.0
 11
-24.79998914455507
 21
85.52377595226705
 31
0.0
  0
LINE
  5
1A30
330
1F
100
AcDbEntity
  8
0
 62
     1
100
AcDbLine
 10
-24.74998914455489
 20
85.52377595226705
 30
0.0
 11
-25.8749891445558
 21
85.52377595226705
 31
0.0
  0
LINE
  5
1A31
330
1F
100
AcDbEntity
  8
0
 62
     1
100
AcDbLine
 10
-15.6999891445547
 20
86.02377595226704
 30
0.0
 11
-15.6999891445547
 21
85.52377595226705
 31
0.0
  0
LINE
  5
1A32
330
1F
100
AcDbEntity
  8
0
 62
     1
100
AcDbLine
 10
-17.34998914455616
 20
86.02377595226704
 30
0.0
 11
-17.34998914455616
 21
85.52377595226705
 31
0.0
  0
LINE
  5
1A33
330
1F
100
AcDbEntity
  8
0
 62
     1
100
AcDbLine
 10
-16.3249891445547
 20
86.02377595226704
 30
0.0
 11
-16.3249891445547
 21
85.52377595226705
 31
0.0
  0
LINE
  5
1A34
330
1F
100
AcDbEntity
  8
0
 62
     1
100
AcDbLine
 10
-17.97498914455616
 20
86.02377595226704
 30
0.0
 11
-17.34998914455616
 21
86.02377595226704
 31
0.0
  0
LINE
  5
1A35
330
1F
100
AcDbEntity
  8
0
 62
     1
100
AcDbLine
 10
-16.3249891445547
 20
86.02377595226704
 30
0.0
 11
-15.6999891445547
 21
86.02377595226704
 31
0.0
  0
LINE
  5
1A36
330
1F
100
AcDbEntity
  8
0
 62
     1
100
AcDbLine
 10
-17.52498914455543
 20
85.77377595226705
 30
0.0
 11
-17.52498914455543
 21
85.52377595226705
 31
0.0
  0
LINE
  5
1A37
330
1F
100
AcDbEntity
  8
0
 62
     1
100
AcDbLine
 10
-17.77498914455543
 20
85.77377595226705
 30
0.0
 11
-17.52498914455543
 21
85.77377595226705
 31
0.0
  0
LINE
  5
1A38
330
1F
100
AcDbEntity
  8
0
 62
     1
100
AcDbLine
 10
-17.55998914455529
 20
85.52377595226705
 30
0.0
 11
-15.34998914455525
 21
85.52377595226705
 31
0.0
  0
LINE
  5
1A39
330
1F
100
AcDbEntity
  8
0
 62
     1
100
AcDbLine
 10
-17.97498914455616
 20
85.52377595226705
 30
0.0
 11
-17.77498914455543
 21
85.52377595226705
 31
0.0
  0
LINE
  5
1A3A
330
1F
100
AcDbEntity
  8
0
 62
     1
100
AcDbLine
 10
-26.79998914455507
 20
85.52377595226705
 30
0.0
 11
-24.17498914455507
 21
85.52377595226705
 31
0.0
  0
LINE
  5
1A3B
330
1F
100
AcDbEntity
  8
0
 62
     1
100
AcDbLine
 10
-24.17498914455507
 20
86.02377595226704
 30
0.0
 11
-24.17498914455507
 21
85.52377595226705
 31
0.0
  0
LINE
  5
1A3C
330
1F
100
AcDbEntity
  8
0
  6
HIDDEN
 62
     1
 48
0.02
100
AcDbLine
 10
-26.44998914455471
 20
86.02377595226704
 30
0.0
 11
-25.82498914455471
 21
86.02377595226704
 31
0.0
  0
LINE
  5
1A3D
330
1F
100
AcDbEntity
  8
0
  6
HIDDEN
 62
     1
 48
0.02
100
AcDbLine
 10
-26.44998914455471
 20
86.02377595226704
 30
0.0
 11
-26.44998914455471
 21
85.52377595226705
 31
0.0
  0
LINE
  5
1A3E
330
1F
100
AcDbEntity
  8
0
  6
HIDDEN
 62
     1
 48
0.02
100
AcDbLine
 10
-24.79998914455507
 20
86.02377595226704
 30
0.0
 11
-24.79998914455598
 21
85.52377595226705
 31
0.0
  0
LINE
  5
1A3F
330
1F
100
AcDbEntity
  8
0
  6
HIDDEN
 62
     1
 48
0.02
100
AcDbLine
 10
-25.82498914455471
 20
86.02377595226704
 30
0.0
 11
-25.82498914455471
 21
85.52377595226705
 31
0.0
  0
LINE
  5
1A40
330
1F
100
AcDbEntity
  8
0
  6
HIDDEN
 62
     1
 48
0.02
100
AcDbLine
 10
-24.79998914455598
 20
86.02377595226704
 30
0.0
 11
-24.17498914455598
 21
86.02377595226704
 31
0.0
  0
LINE
  5
1A41
330
1F
100
AcDbEntity
  8
0
 62
     1
100
AcDbLine
 10
-17.97498914455434
 20
85.52377595226705
 30
0.0
 11
-15.34998914455525
 21
85.52377595226705
 31
0.0
  0
LINE
  5
1A42
330
1F
100
AcDbEntity
  8
0
 62
     1
100
AcDbLine
 10
-17.97498914455434
 20
86.02377595226704
 30
0.0
 11
-17.97498914455434
 21
85.52377595226705
 31
0.0
  0
LINE
  5
1A43
330
1F
100
AcDbEntity
  8
0
  6
HIDDEN
 62
     1
 48
0.02
100
AcDbLine
 10
-15.69998914455289
 20
86.02377595226704
 30
0.0
 11
-15.69998914455289
 21
85.52377595226705
 31
0.0
  0
LINE
  5
1A44
330
1F
100
AcDbEntity
  8
0
  6
HIDDEN
 62
     1
 48
0.02
100
AcDbLine
 10
-17.34998914455434
 20
86.02377595226704
 30
0.0
 11
-17.34998914455434
 21
85.52377595226705
 31
0.0
  0
LINE
  5
1A45
330
1F
100
AcDbEntity
  8
0
  6
HIDDEN
 62
     1
 48
0.02
100
AcDbLine
 10
-16.32498914455289
 20
86.02377595226704
 30
0.0
 11
-16.32498914455289
 21
85.52377595226705
 31
0.0
  0
LINE
  5
1A46
330
1F
100
AcDbEntity
  8
0
  6
HIDDEN
 62
     1
 48
0.02
100
AcDbLine
 10
-17.97498914455434
 20
86.02377595226704
 30
0.0
 11
-17.34998914455434
 21
86.02377595226704
 31
0.0
  0
LINE
  5
1A47
330
1F
100
AcDbEntity
  8
0
  6
HIDDEN
 62
     1
 48
0.02
100
AcDbLine
 10
-16.32498914455289
 20
86.02377595226704
 30
0.0
 11
-15.69998914455289
 21
86.02377595226704
 31
0.0
  0
LINE
  5
1A48
330
1F
100
AcDbEntity
  8
0
  6
HIDDEN
 62
     1
 48
0.02
100
AcDbLine
 10
-17.77498914455361
 20
85.77377595226705
 30
0.0
 11
-17.77498914455361
 21
85.52377595226705
 31
0.0
  0
LINE
  5
1A49
330
1F
100
AcDbEntity
  8
0
  6
HIDDEN
 62
     1
 48
0.02
100
AcDbLine
 10
-17.52498914455361
 20
85.77377595226705
 30
0.0
 11
-17.52498914455361
 21
85.52377595226705
 31
0.0
  0
LINE
  5
1A4A
330
1F
100
AcDbEntity
  8
0
  6
HIDDEN
 62
     1
 48
0.02
100
AcDbLine
 10
-17.77498914455361
 20
85.77377595226705
 30
0.0
 11
-17.52498914455361
 21
85.77377595226705
 31
0.0
  0
LINE
  5
1A4B
330
1F
100
AcDbEntity
  8
0
 62
     1
100
AcDbLine
 10
-26.79998914455507
 20
94.92786770898607
 30
0.0
 11
-26.79998914455507
 21
85.52377595226705
 31
0.0
  0
LINE
  5
1A4C
330
1F
100
AcDbEntity
  8
0
 62
     1
100
AcDbLine
 10
-24.17498914455416
 20
95.75586385605999
 30
0.0
 11
-24.17498914455507
 21
85.52377595226705
 31
0.0
  0
LINE
  5
1A4D
330
1F
100
AcDbEntity
  8
0
 62
     1
100
AcDbLine
 10
-26.44998914455471
 20
95.03826719526347
 30
0.0
 11
-26.44998914455471
 21
85.52377595226705
 31
0.0
  0
LINE
  5
1A4E
330
1F
100
AcDbEntity
  8
0
 62
     1
100
AcDbLine
 10
-24.3749891445558
 20
95.69277843533024
 30
0.0
 11
-24.3749891445558
 21
85.52377595226705
 31
0.0
  0
LINE
  5
1A4F
330
1F
100
AcDbEntity
  8
A2 Hatch
  6
DASHED2
 48
0.15
100
AcDbLine
 10
-26.03498914455474
 20
95.16916944327618
 30
0.0
 11
-26.03498914455566
 21
85.52377595226705
 31
0.0
  0
LINE
  5
1A50
330
1F
100
AcDbEntity
  8
A2 Hatch
  6
DASHED2
 48
0.15
100
AcDbLine
 10
-24.58998914455686
 20
95.62496160804682
 30
0.0
 11
-24.58998914455504
 21
85.52377595226705
 31
0.0
  0
LINE
  5
1A51
330
1F
100
AcDbEntity
  8
0
 62
     1
100
AcDbLine
 10
-25.87498914455398
 20
95.21963777986007
 30
0.0
 11
-25.87498914455489
 21
85.52377595226705
 31
0.0
  0
LINE
  5
1A52
330
1F
100
AcDbEntity
  8
0
 62
     1
100
AcDbLine
 10
-24.74998914455489
 20
95.57449327146292
 30
0.0
 11
-24.74998914455489
 21
85.52377595226705
 31
0.0
  0
ARC
  5
1A53
330
1F
100
AcDbEntity
  8
DETAILS
 62
     6
370
    20
100
AcDbCircle
 10
-24.17498914455416
 20
89.68705417411916
 30
0.0
 40
0.0999999999999136
100
AcDbArc
 50
179.9999999996873
 51
209.7448812965932
  0
LINE
  5
1A54
330
1F
100
AcDbEntity
  8
DETAILS
 62
     6
370
    20
100
AcDbLine
 10
-24.27498914455544
 20
91.77377595226705
 30
0.0
 11
-17.8749891445567
 21
91.77377595226705
 31
0.0
  0
LINE
  5
1A55
330
1F
100
AcDbEntity
  8
0
 62
     1
100
AcDbLine
 10
-15.34998914455525
 20
98.6611410495621
 30
0.0
 11
-15.34998914455525
 21
85.52377595226705
 31
0.0
  0
LINE
  5
1A56
330
1F
100
AcDbEntity
  8
0
 62
     1
100
AcDbLine
 10
-17.97498914455434
 20
97.77089165382045
 30
0.0
 11
-17.97498914455525
 21
85.52377595226705
 31
0.0
  0
LINE
  5
1A57
330
1F
100
AcDbEntity
  8
0
 62
     1
100
AcDbLine
 10
-15.6999891445547
 20
98.02377595226705
 30
0.0
 11
-15.6999891445547
 21
97.52377595226704
 31
0.0
  0
LINE
  5
1A58
330
1F
100
AcDbEntity
  8
0
 62
     1
100
AcDbLine
 10
-17.34998914455707
 20
97.98285579566396
 30
0.0
 11
-17.34998914455616
 21
97.52377595226704
 31
0.0
  0
LINE
  5
1A59
330
1F
100
AcDbEntity
  8
0
 62
     1
100
AcDbLine
 10
-16.3249891445547
 20
98.02377595226705
 30
0.0
 11
-16.3249891445547
 21
97.52377595226704
 31
0.0
  0
LINE
  5
1A5A
330
1F
100
AcDbEntity
  8
0
 62
     1
100
AcDbLine
 10
-16.3249891445547
 20
98.02377595226705
 30
0.0
 11
-15.6999891445547
 21
98.02377595226705
 31
0.0
  0
LINE
  5
1A5B
330
1F
100
AcDbEntity
  8
0
 62
     1
100
AcDbLine
 10
-17.77498914455543
 20
97.83872017921027
 30
0.0
 11
-17.77498914455543
 21
85.52377595226705
 31
0.0
  0
LINE
  5
1A5C
330
1F
100
AcDbEntity
  8
0
 62
     1
100
AcDbLine
 10
-17.52498914455543
 20
97.77377595226704
 30
0.0
 11
-17.52498914455543
 21
97.52377595226704
 31
0.0
  0
LINE
  5
1A5D
330
1F
100
AcDbEntity
  8
0
 62
     1
100
AcDbLine
 10
-17.77498914455543
 20
97.77377595226704
 30
0.0
 11
-17.52498914455543
 21
97.77377595226704
 31
0.0
  0
LINE
  5
1A5E
330
1F
100
AcDbEntity
  8
0
 62
     1
100
AcDbLine
 10
-17.55998914455529
 20
97.52377595226704
 30
0.0
 11
-15.34998914455525
 21
97.52377595226704
 31
0.0
  0
LINE
  5
1A5F
330
1F
100
AcDbEntity
  8
0
 62
     1
100
AcDbLine
 10
-17.55998914455529
 20
97.91163584400472
 30
0.0
 11
-17.55998914455529
 21
85.52377595226705
 31
0.0
  0
LINE
  5
1A60
330
1F
100
AcDbEntity
  8
0
 62
     1
100
AcDbLine
 10
-16.11498914455558
 20
98.40169693994591
 30
0.0
 11
-16.11498914455558
 21
85.52377595226705
 31
0.0
  0
LINE
  5
1A61
330
1F
100
AcDbEntity
  8
A2 Hatch
  6
DASHED2
 48
0.15
100
AcDbLine
 10
-17.39998914455543
 20
97.96589866431673
 30
0.0
 11
-17.39998914455543
 21
85.52377595226705
 31
0.0
  0
LINE
  5
1A62
330
1F
100
AcDbEntity
  8
A2 Hatch
  6
DASHED2
 48
0.15
100
AcDbLine
 10
-16.27498914455543
 20
98.34743411963433
 30
0.0
 11
-16.27498914455543
 21
85.52377595226705
 31
0.0
  0
LINE
  5
1A63
330
1F
100
AcDbEntity
  8
0
 62
     1
100
AcDbLine
 10
-17.97498914455616
 20
97.52377595226704
 30
0.0
 11
-17.77498914455543
 21
97.52377595226704
 31
0.0
  0
LINE
  5
1A64
330
1F
100
AcDbEntity
  8
DETAILS
 62
     6
370
    20
100
AcDbLine
 10
-24.27498914455453
 20
95.72432114569442
 30
0.0
 11
-24.27498914455544
 21
86.45102966089286
 31
0.0
  0
LINE
  5
1A65
330
1F
100
AcDbEntity
  8
DETAILS
 62
     6
370
    20
100
AcDbLine
 10
-23.59998914455434
 20
92.39377595226693
 30
0.0
 11
-23.08060702064711
 21
92.39377595226693
 31
0.0
  0
ARC
  5
1A66
330
1F
100
AcDbEntity
  8
DETAILS
 62
     6
370
    20
100
AcDbCircle
 10
-23.08060702064802
 20
92.54377595226703
 30
0.0
 40
0.1500000000000909
100
AcDbArc
 50
270.0000000001563
 51
43.83086067193248
  0
LINE
  5
1A67
330
1F
100
AcDbEntity
  8
DETAILS
 62
     6
370
    20
100
AcDbLine
 10
-22.97239892249206
 20
92.64765572649508
 30
0.0
 11
-23.49178104639839
 21
93.18867877223153
 31
0.0
  0
ARC
  5
1A68
330
1F
100
AcDbEntity
  8
DETAILS
 62
     6
370
    20
100
AcDbCircle
 10
-23.59998914455343
 20
93.08479899800301
 30
0.0
 40
0.1499999999999651
100
AcDbArc
 50
43.83086067209848
 51
179.9999999999739
  0
LINE
  5
1A69
330
1F
100
AcDbEntity
  8
DETAILS
 62
     6
370
    20
100
AcDbLine
 10
-23.74998914455398
 20
93.08479899800301
 30
0.0
 11
-23.74998914455398
 21
92.54377595226657
 31
0.0
  0
ARC
  5
1A6A
330
1F
100
AcDbEntity
  8
DETAILS
 62
     6
370
    20
100
AcDbCircle
 10
-23.59998914455434
 20
92.54377595226657
 30
0.0
 40
0.1499999999996362
100
AcDbArc
 50
179.9999999999479
 51
270.0000000001563
  0
LINE
  5
1A6B
330
1F
100
AcDbEntity
  8
DETAILS
 62
     6
370
    20
100
AcDbLine
 10
-23.74998914455398
 20
91.02377595226704
 30
0.0
 11
-23.74998914455398
 21
90.48275290653061
 31
0.0
  0
ARC
  5
1A6C
330
1F
100
AcDbEntity
  8
DETAILS
 62
     6
370
    20
100
AcDbCircle
 10
-23.59998914455343
 20
90.48275290653061
 30
0.0
 40
0.1500000000000909
100
AcDbArc
 50
180.000000000026
 51
316.1691393279015
  0
LINE
  5
1A6D
330
1F
100
AcDbEntity
  8
DETAILS
 62
     6
370
    20
100
AcDbLine
 10
-23.49178104639839
 20
90.37887313230255
 30
0.0
 11
-22.97239892249206
 21
90.91989617803852
 31
0.0
  0
ARC
  5
1A6E
330
1F
100
AcDbEntity
  8
DETAILS
 62
     6
370
    20
100
AcDbCircle
 10
-23.08060702064802
 20
91.02377595226704
 30
0.0
 40
0.1500000000001751
100
AcDbArc
 50
316.1691393280675
 51
89.99999999984366
  0
LINE
  5
1A6F
330
1F
100
AcDbEntity
  8
DETAILS
 62
     6
370
    20
100
AcDbLine
 10
-23.08060702064711
 20
91.17377595226669
 30
0.0
 11
-23.59998914455434
 21
91.17377595226669
 31
0.0
  0
ARC
  5
1A70
330
1F
100
AcDbEntity
  8
DETAILS
 62
     6
370
    20
100
AcDbCircle
 10
-23.59998914455434
 20
91.02377595226704
 30
0.0
 40
0.1499999999998636
100
AcDbArc
 50
89.99999999984366
 51
180.0000000000521
  0
LINE
  5
1A71
330
1F
100
AcDbEntity
  8
DETAILS
 62
     6
370
    20
100
AcDbLine
 10
-23.59998914455434
 20
92.44377595226712
 30
0.0
 11
-23.08060702064711
 21
92.44377595226712
 31
0.0
  0
ARC
  5
1A72
330
1F
100
AcDbEntity
  8
DETAILS
 62
     6
370
    20
100
AcDbCircle
 10
-23.08060702064711
 20
92.54377595226657
 30
0.0
 40
0.1000000000000227
100
AcDbArc
 50
270.0
 51
43.83086067200606
  0
LINE
  5
1A73
330
1F
100
AcDbEntity
  8
DETAILS
 62
     6
370
    20
100
AcDbLine
 10
-23.00846828854344
 20
92.61302913508558
 30
0.0
 11
-23.52785041244977
 21
93.15405218082203
 31
0.0
  0
ARC
  5
1A74
330
1F
100
AcDbEntity
  8
DETAILS
 62
     6
370
    20
100
AcDbCircle
 10
-23.59998914455343
 20
93.08479899800301
 30
0.0
 40
0.1000000000001123
100
AcDbArc
 50
43.8308606720609
 51
180.0
  0
LINE
  5
1A75
330
1F
100
AcDbEntity
  8
DETAILS
 62
     6
370
    20
100
AcDbLine
 10
-23.69998914455289
 20
93.08479899800301
 30
0.0
 11
-23.6999891445538
 21
92.54377595226657
 31
0.0
  0
ARC
  5
1A76
330
1F
100
AcDbEntity
  8
DETAILS
 62
     6
370
    20
100
AcDbCircle
 10
-23.59998914455343
 20
92.54377595226703
 30
0.0
 40
0.1000000000003638
100
AcDbArc
 50
180.0000000001302
 51
269.9999999997394
  0
LINE
  5
1A77
330
1F
100
AcDbEntity
  8
DETAILS
 62
     6
370
    20
100
AcDbLine
 10
-23.6999891445538
 20
91.02377595226704
 30
0.0
 11
-23.69998914455289
 21
90.48275290653061
 31
0.0
  0
ARC
  5
1A78
330
1F
100
AcDbEntity
  8
DETAILS
 62
     6
370
    20
100
AcDbCircle
 10
-23.59998914455343
 20
90.48275290653061
 30
0.0
 40
0.0999999999999091
100
AcDbArc
 50
179.9999999999739
 51
316.1691393279939
  0
LINE
  5
1A79
330
1F
100
AcDbEntity
  8
DETAILS
 62
     6
370
    20
100
AcDbLine
 10
-23.52785041244977
 20
90.41349972371206
 30
0.0
 11
-23.00846828854344
 21
90.95452276944802
 31
0.0
  0
ARC
  5
1A7A
330
1F
100
AcDbEntity
  8
DETAILS
 62
     6
370
    20
100
AcDbCircle
 10
-23.08060702064711
 20
91.02377595226704
 30
0.0
 40
0.1000000000000336
100
AcDbArc
 50
316.1691393279939
 51
90.0
  0
LINE
  5
1A7B
330
1F
100
AcDbEntity
  8
DETAILS
 62
     6
370
    20
100
AcDbLine
 10
-23.08060702064711
 20
91.12377595226694
 30
0.0
 11
-23.59998914455434
 21
91.12377595226694
 31
0.0
  0
ARC
  5
1A7C
330
1F
100
AcDbEntity
  8
DETAILS
 62
     6
370
    20
100
AcDbCircle
 10
-23.59998914455343
 20
91.02377595226659
 30
0.0
 40
0.1000000000001364
100
AcDbArc
 50
90.00000000026055
 51
179.9999999998697
  0
LINE
  5
1A7D
330
1F
100
AcDbEntity
  8
DETAILS
 62
     6
370
    20
100
AcDbLine
 10
-17.8749891445567
 20
97.14877595226704
 30
0.0
 11
-17.8749891445558
 21
86.45102966089286
 31
0.0
  0
LINE
  5
1A7E
330
1F
100
AcDbEntity
  8
DETAILS
 62
     6
370
    20
100
AcDbLine
 10
-18.39998914455725
 20
92.54377595226657
 30
0.0
 11
-18.39998914455725
 21
93.08479899800301
 31
0.0
  0
ARC
  5
1A7F
330
1F
100
AcDbEntity
  8
DETAILS
 62
     6
370
    20
100
AcDbCircle
 10
-18.5499891445578
 20
93.08479899800301
 30
0.0
 40
0.1500000000000909
100
AcDbArc
 50
0.0000000000260551
 51
136.1691393279015
  0
LINE
  5
1A80
330
1F
100
AcDbEntity
  8
DETAILS
 62
     6
370
    20
100
AcDbLine
 10
-18.65819724271284
 20
93.18867877223153
 30
0.0
 11
-19.17757936661917
 21
92.64765572649508
 31
0.0
  0
ARC
  5
1A81
330
1F
100
AcDbEntity
  8
DETAILS
 62
     6
370
    20
100
AcDbCircle
 10
-19.06937126846321
 20
92.54377595226703
 30
0.0
 40
0.1500000000001751
100
AcDbArc
 50
136.1691393280675
 51
269.9999999998437
  0
LINE
  5
1A82
330
1F
100
AcDbEntity
  8
DETAILS
 62
     6
370
    20
100
AcDbLine
 10
-19.06937126846412
 20
92.39377595226693
 30
0.0
 11
-18.54998914455689
 21
92.39377595226693
 31
0.0
  0
ARC
  5
1A83
330
1F
100
AcDbEntity
  8
DETAILS
 62
     6
370
    20
100
AcDbCircle
 10
-18.54998914455689
 20
92.54377595226657
 30
0.0
 40
0.1499999999998067
100
AcDbArc
 50
269.9999999998437
 51
0.0000000000781653
  0
LINE
  5
1A84
330
1F
100
AcDbEntity
  8
DETAILS
 62
     6
370
    20
100
AcDbLine
 10
-18.54998914455689
 20
91.17377595226669
 30
0.0
 11
-19.06937126846412
 21
91.17377595226669
 31
0.0
  0
ARC
  5
1A85
330
1F
100
AcDbEntity
  8
DETAILS
 62
     6
370
    20
100
AcDbCircle
 10
-19.06937126846321
 20
91.02377595226704
 30
0.0
 40
0.1500000000001478
100
AcDbArc
 50
90.00000000015633
 51
223.8308606719325
  0
LINE
  5
1A86
330
1F
100
AcDbEntity
  8
DETAILS
 62
     6
370
    20
100
AcDbLine
 10
-19.17757936661917
 20
90.91989617803852
 30
0.0
 11
-18.65819724271284
 21
90.37887313230255
 31
0.0
  0
ARC
  5
1A87
330
1F
100
AcDbEntity
  8
DETAILS
 62
     6
370
    20
100
AcDbCircle
 10
-18.5499891445578
 20
90.48275290653061
 30
0.0
 40
0.1499999999999651
100
AcDbArc
 50
223.8308606720985
 51
359.999999999974
  0
LINE
  5
1A88
330
1F
100
AcDbEntity
  8
DETAILS
 62
     6
370
    20
100
AcDbLine
 10
-18.39998914455725
 20
90.48275290653061
 30
0.0
 11
-18.39998914455725
 21
91.02377595226704
 31
0.0
  0
ARC
  5
1A89
330
1F
100
AcDbEntity
  8
DETAILS
 62
     6
370
    20
100
AcDbCircle
 10
-18.54998914455689
 20
91.02377595226704
 30
0.0
 40
0.1499999999996362
100
AcDbArc
 50
359.9999999999218
 51
90.00000000015633
  0
ARC
  5
1A8A
330
1F
100
AcDbEntity
  8
DETAILS
 62
     6
370
    20
100
AcDbCircle
 10
-22.60008004681993
 20
90.26877595226693
 30
0.0
 40
0.010000000000022
100
AcDbArc
 50
97.40989078445366
 51
262.5901092155463
  0
LINE
  5
1A8B
330
1F
100
AcDbEntity
  8
DETAILS
 62
     6
370
    20
100
AcDbLine
 10
-22.60136971465624
 20
90.25885946312616
 30
0.0
 11
-22.44525962505293
 21
90.24377595226685
 31
0.0
  0
LINE
  5
1A8C
330
1F
100
AcDbEntity
  8
DETAILS
 62
     6
370
    20
100
AcDbLine
 10
-22.44525962505293
 20
90.24377595226685
 30
0.0
 11
-21.07498914455562
 21
90.24377595226685
 31
0.0
  0
LINE
  5
1A8D
330
1F
100
AcDbEntity
  8
DETAILS
 62
     6
370
    20
100
AcDbLine
 10
-21.07498914455562
 20
90.24377595226685
 30
0.0
 11
-19.7047186640583
 21
90.24377595226685
 31
0.0
  0
LINE
  5
1A8E
330
1F
100
AcDbEntity
  8
DETAILS
 62
     6
370
    20
100
AcDbLine
 10
-19.7047186640583
 20
90.24377595226685
 30
0.0
 11
-19.54860857445499
 21
90.25885946312616
 31
0.0
  0
ARC
  5
1A8F
330
1F
100
AcDbEntity
  8
DETAILS
 62
     6
370
    20
100
AcDbCircle
 10
-19.5498982422913
 20
90.26877595226693
 30
0.0
 40
0.0099999999999656
100
AcDbArc
 50
277.4098907844536
 51
82.59010921554635
  0
LINE
  5
1A90
330
1F
100
AcDbEntity
  8
DETAILS
 62
     6
370
    20
100
AcDbLine
 10
-19.54860857445499
 20
90.27869244140726
 30
0.0
 11
-19.70471866405739
 21
90.29377595226703
 31
0.0
  0
LINE
  5
1A91
330
1F
100
AcDbEntity
  8
DETAILS
 62
     6
370
    20
100
AcDbLine
 10
-19.70471866405739
 20
90.29377595226703
 30
0.0
 11
-21.07498914455562
 21
90.29377595226703
 31
0.0
  0
LINE
  5
1A92
330
1F
100
AcDbEntity
  8
DETAILS
 62
     6
370
    20
100
AcDbLine
 10
-21.07498914455562
 20
90.29377595226703
 30
0.0
 11
-22.44525962505293
 21
90.29377595226657
 31
0.0
  0
LINE
  5
1A93
330
1F
100
AcDbEntity
  8
DETAILS
 62
     6
370
    20
100
AcDbLine
 10
-22.44525962505293
 20
90.29377595226657
 30
0.0
 11
-22.60136971465624
 21
90.27869244140726
 31
0.0
  0
ARC
  5
1A94
330
1F
100
AcDbEntity
  8
DETAILS
 62
     6
370
    20
100
AcDbCircle
 10
-19.19261093216744
 20
94.00377595226705
 30
0.0
 40
0.1000000000001364
100
AcDbArc
 50
270.0000000002606
 51
316.1691393281413
  0
LINE
  5
1A95
330
1F
100
AcDbEntity
  8
DETAILS
 62
     6
370
    20
100
AcDbLine
 10
-19.12047220006286
 20
93.93452276944804
 30
0.0
 11
-18.00285041245468
 21
95.12475379820813
 31
0.0
  0
ARC
  5
1A96
330
1F
100
AcDbEntity
  8
DETAILS
 62
     6
370
    20
100
AcDbCircle
 10
-24.07499602424275
 20
95.19400698102577
 30
0.0
 40
0.0999999999999091
100
AcDbArc
 50
179.9999999998697
 51
223.8308606719873
  0
LINE
  5
1A97
330
1F
100
AcDbEntity
  8
DETAILS
 62
     6
370
    20
100
AcDbLine
 10
-24.14713475634551
 20
95.12475379820722
 30
0.0
 11
-23.02950608904837
 21
93.93452276944804
 31
0.0
  0
ARC
  5
1A98
330
1F
100
AcDbEntity
  8
DETAILS
 62
     6
370
    20
100
AcDbCircle
 10
-22.9573673569447
 20
94.00377595226705
 30
0.0
 40
0.1000000000001911
100
AcDbArc
 50
223.8308606721347
 51
270.0
  0
LINE
  5
1A99
330
1F
100
AcDbEntity
  8
DETAILS
 62
     6
370
    20
100
AcDbLine
 10
-22.9573673569447
 20
93.90377595226715
 30
0.0
 11
-22.9499891445547
 21
93.90377595226715
 31
0.0
  0
LINE
  5
1A9A
330
1F
100
AcDbEntity
  8
DETAILS
 62
     6
370
    20
100
AcDbLine
 10
-22.9499891445547
 20
93.90377595226715
 30
0.0
 11
-22.9499891445547
 21
93.85377595226698
 31
0.0
  0
LINE
  5
1A9B
330
1F
100
AcDbEntity
  8
DETAILS
 62
     6
370
    20
100
AcDbLine
 10
-22.9499891445547
 20
93.85377595226698
 30
0.0
 11
-22.84998914455434
 21
93.85377595226698
 31
0.0
  0
ARC
  5
1A9C
330
1F
100
AcDbEntity
  8
DETAILS
 62
     6
370
    20
100
AcDbCircle
 10
-22.84998914455434
 20
93.80377595226679
 30
0.0
 40
0.0500000000001819
100
AcDbArc
 50
359.9999999998697
 51
90.0
  0
LINE
  5
1A9D
330
1F
100
AcDbEntity
  8
DETAILS
 62
     6
370
    20
100
AcDbLine
 10
-22.79998914455325
 20
93.80377595226679
 30
0.0
 11
-22.79998914455507
 21
93.74877595226696
 31
0.0
  0
ARC
  5
1A9E
330
1F
100
AcDbEntity
  8
DETAILS
 62
     6
370
    20
100
AcDbCircle
 10
-22.37498914455398
 20
93.74877595226649
 30
0.0
 40
0.4250000000001819
100
AcDbArc
 50
179.9999999999739
 51
359.999999999974
  0
LINE
  5
1A9F
330
1F
100
AcDbEntity
  8
DETAILS
 62
     6
370
    20
100
AcDbLine
 10
-21.94998914455471
 20
93.74877595226649
 30
0.0
 11
-21.94998914455471
 21
93.80377595226679
 31
0.0
  0
ARC
  5
1AA0
330
1F
100
AcDbEntity
  8
DETAILS
 62
     6
370
    20
100
AcDbCircle
 10
-21.89998914455452
 20
93.80377595226679
 30
0.0
 40
0.0500000000001819
100
AcDbArc
 50
90.0
 51
179.9999999996613
  0
LINE
  5
1AA1
330
1F
100
AcDbEntity
  8
DETAILS
 62
     6
370
    20
100
AcDbLine
 10
-21.89998914455452
 20
93.85377595226698
 30
0.0
 11
-21.54998914455507
 21
93.85377595226698
 31
0.0
  0
ARC
  5
1AA2
330
1F
100
AcDbEntity
  8
DETAILS
 62
     6
370
    20
100
AcDbCircle
 10
-21.54998914455507
 20
93.80377595226679
 30
0.0
 40
0.0500000000001819
100
AcDbArc
 50
359.9999999998697
 51
90.0
  0
LINE
  5
1AA3
330
1F
100
AcDbEntity
  8
DETAILS
 62
     6
370
    20
100
AcDbLine
 10
-21.49998914455489
 20
93.80377595226679
 30
0.0
 11
-21.4999891445558
 21
93.74877595226378
 31
0.0
  0
ARC
  5
1AA4
330
1F
100
AcDbEntity
  8
DETAILS
 62
     6
370
    20
100
AcDbCircle
 10
-21.0749891445547
 20
93.74877595226378
 30
0.0
 40
0.4250000000001819
100
AcDbArc
 50
180.0
 51
270.0
  0
ARC
  5
1AA5
330
1F
100
AcDbEntity
  8
DETAILS
 62
     6
370
    20
100
AcDbCircle
 10
-21.07498914455562
 20
93.74877595226378
 30
0.0
 40
0.4249999999997272
100
AcDbArc
 50
270.0000000000521
 51
0.0000000000521102
  0
LINE
  5
1AA6
330
1F
100
AcDbEntity
  8
DETAILS
 62
     6
370
    20
100
AcDbLine
 10
-20.64998914455543
 20
93.74877595226378
 30
0.0
 11
-20.64998914455634
 21
93.80377595226679
 31
0.0
  0
ARC
  5
1AA7
330
1F
100
AcDbEntity
  8
DETAILS
 62
     6
370
    20
100
AcDbCircle
 10
-20.59998914455616
 20
93.80377595226679
 30
0.0
 40
0.0500000000001819
100
AcDbArc
 50
90.0
 51
180.0
  0
LINE
  5
1AA8
330
1F
100
AcDbEntity
  8
DETAILS
 62
     6
370
    20
100
AcDbLine
 10
-20.59998914455616
 20
93.85377595226698
 30
0.0
 11
-20.24998914455671
 21
93.85377595226698
 31
0.0
  0
ARC
  5
1AA9
330
1F
100
AcDbEntity
  8
DETAILS
 62
     6
370
    20
100
AcDbCircle
 10
-20.24998914455671
 20
93.80377595226679
 30
0.0
 40
0.0500000000001819
100
AcDbArc
 50
0.000000000260551
 51
90.0
  0
LINE
  5
1AAA
330
1F
100
AcDbEntity
  8
DETAILS
 62
     6
370
    20
100
AcDbLine
 10
-20.19998914455653
 20
93.80377595226679
 30
0.0
 11
-20.19998914455653
 21
93.74877595226649
 31
0.0
  0
ARC
  5
1AAB
330
1F
100
AcDbEntity
  8
DETAILS
 62
     6
370
    20
100
AcDbCircle
 10
-19.77498914455634
 20
93.74877595226649
 30
0.0
 40
0.4249999999997272
100
AcDbArc
 50
180.000000000026
 51
0.0000000000260551
  0
LINE
  5
1AAC
330
1F
100
AcDbEntity
  8
DETAILS
 62
     6
370
    20
100
AcDbLine
 10
-19.34998914455616
 20
93.74877595226696
 30
0.0
 11
-19.34998914455798
 21
93.80377595226679
 31
0.0
  0
ARC
  5
1AAD
330
1F
100
AcDbEntity
  8
DETAILS
 62
     6
370
    20
100
AcDbCircle
 10
-19.29998914455689
 20
93.80377595226679
 30
0.0
 40
0.0500000000001819
100
AcDbArc
 50
90.0
 51
180.0
  0
LINE
  5
1AAE
330
1F
100
AcDbEntity
  8
DETAILS
 62
     6
370
    20
100
AcDbLine
 10
-19.29998914455689
 20
93.85377595226698
 30
0.0
 11
-19.19998914455652
 21
93.85377595226698
 31
0.0
  0
LINE
  5
1AAF
330
1F
100
AcDbEntity
  8
DETAILS
 62
     6
370
    20
100
AcDbLine
 10
-19.19998914455652
 20
93.85377595226698
 30
0.0
 11
-19.19998914455652
 21
93.90377595226715
 31
0.0
  0
LINE
  5
1AB0
330
1F
100
AcDbEntity
  8
DETAILS
 62
     6
370
    20
100
AcDbLine
 10
-19.19998914455652
 20
93.90377595226715
 30
0.0
 11
-19.19261093216653
 21
93.90377595226715
 31
0.0
  0
LINE
  5
1AB1
330
1F
100
AcDbEntity
  8
DETAILS
 62
     6
370
    20
100
AcDbLine
 10
-19.19261093216653
 20
93.90377595226715
 30
0.0
 11
-19.34998914455707
 21
93.90377595226715
 31
0.0
  0
ARC
  5
1AB2
330
1F
100
AcDbEntity
  8
DETAILS
 62
     6
370
    20
100
AcDbCircle
 10
-19.34998914455707
 20
93.85377595226698
 30
0.0
 40
0.0500000000001819
100
AcDbArc
 50
90.0
 51
179.9999999998697
  0
LINE
  5
1AB3
330
1F
100
AcDbEntity
  8
DETAILS
 62
     6
370
    20
100
AcDbLine
 10
-19.39998914455725
 20
93.85377595226698
 30
0.0
 11
-19.39998914455725
 21
93.74877595226696
 31
0.0
  0
ARC
  5
1AB4
330
1F
100
AcDbEntity
  8
DETAILS
 62
     6
370
    20
100
AcDbCircle
 10
-19.77498914455725
 20
93.74877595226649
 30
0.0
 40
0.375
100
AcDbArc
 50
180.0
 51
0.0
  0
LINE
  5
1AB5
330
1F
100
AcDbEntity
  8
DETAILS
 62
     6
370
    20
100
AcDbLine
 10
-20.14998914455725
 20
93.74877595226649
 30
0.0
 11
-20.14998914455725
 21
93.85377595226698
 31
0.0
  0
ARC
  5
1AB6
330
1F
100
AcDbEntity
  8
DETAILS
 62
     6
370
    20
100
AcDbCircle
 10
-20.19998914455653
 20
93.85377595226698
 30
0.0
 40
0.0500000000001819
100
AcDbArc
 50
0.0000000001302755
 51
90.0
  0
LINE
  5
1AB7
330
1F
100
AcDbEntity
  8
DETAILS
 62
     6
370
    20
100
AcDbLine
 10
-20.19998914455653
 20
93.90377595226715
 30
0.0
 11
-20.64998914455725
 21
93.90377595226715
 31
0.0
  0
ARC
  5
1AB8
330
1F
100
AcDbEntity
  8
DETAILS
 62
     6
370
    20
100
AcDbCircle
 10
-20.64998914455725
 20
93.85377595226698
 30
0.0
 40
0.0500000000001251
100
AcDbArc
 50
90.0
 51
179.9999999998697
  0
LINE
  5
1AB9
330
1F
100
AcDbEntity
  8
DETAILS
 62
     6
370
    20
100
AcDbLine
 10
-20.69998914455652
 20
93.85377595226698
 30
0.0
 11
-20.69998914455652
 21
93.74877595226378
 31
0.0
  0
ARC
  5
1ABA
330
1F
100
AcDbEntity
  8
DETAILS
 62
     6
370
    20
100
AcDbCircle
 10
-21.07498914455562
 20
93.74877595226378
 30
0.0
 40
0.3749999999995452
100
AcDbArc
 50
270.0000000000521
 51
0.0000000000521102
  0
ARC
  5
1ABB
330
1F
100
AcDbEntity
  8
DETAILS
 62
     6
370
    20
100
AcDbCircle
 10
-21.0749891445547
 20
93.74877595226378
 30
0.0
 40
0.3749999999998295
100
AcDbArc
 50
180.0
 51
269.9999999999479
  0
LINE
  5
1ABC
330
1F
100
AcDbEntity
  8
DETAILS
 62
     6
370
    20
100
AcDbLine
 10
-21.44998914455471
 20
93.74877595226378
 30
0.0
 11
-21.44998914455471
 21
93.85377595226698
 31
0.0
  0
ARC
  5
1ABD
330
1F
100
AcDbEntity
  8
DETAILS
 62
     6
370
    20
100
AcDbCircle
 10
-21.49998914455398
 20
93.85377595226698
 30
0.0
 40
0.0500000000001819
100
AcDbArc
 50
0.0000000001302755
 51
90.0
  0
LINE
  5
1ABE
330
1F
100
AcDbEntity
  8
DETAILS
 62
     6
370
    20
100
AcDbLine
 10
-21.49998914455398
 20
93.90377595226715
 30
0.0
 11
-21.94998914455471
 21
93.90377595226715
 31
0.0
  0
ARC
  5
1ABF
330
1F
100
AcDbEntity
  8
DETAILS
 62
     6
370
    20
100
AcDbCircle
 10
-21.94998914455471
 20
93.85377595226698
 30
0.0
 40
0.0500000000001819
100
AcDbArc
 50
90.0
 51
179.9999999998697
  0
LINE
  5
1AC0
330
1F
100
AcDbEntity
  8
DETAILS
 62
     6
370
    20
100
AcDbLine
 10
-21.99998914455398
 20
93.85377595226698
 30
0.0
 11
-21.99998914455398
 21
93.74877595226649
 31
0.0
  0
ARC
  5
1AC1
330
1F
100
AcDbEntity
  8
DETAILS
 62
     6
370
    20
100
AcDbCircle
 10
-22.37498914455398
 20
93.74877595226649
 30
0.0
 40
0.3749999999995452
100
AcDbArc
 50
179.9999999999739
 51
0.0
  0
LINE
  5
1AC2
330
1F
100
AcDbEntity
  8
DETAILS
 62
     6
370
    20
100
AcDbLine
 10
-22.74998914455398
 20
93.74877595226696
 30
0.0
 11
-22.74998914455398
 21
93.85377595226698
 31
0.0
  0
ARC
  5
1AC3
330
1F
100
AcDbEntity
  8
DETAILS
 62
     6
370
    20
100
AcDbCircle
 10
-22.79998914455416
 20
93.85377595226698
 30
0.0
 40
0.0500000000001819
100
AcDbArc
 50
0.0000000001302755
 51
90.0
  0
LINE
  5
1AC4
330
1F
100
AcDbEntity
  8
DETAILS
 62
     6
370
    20
100
AcDbLine
 10
-22.79998914455416
 20
93.90377595226715
 30
0.0
 11
-22.9573673569447
 21
93.90377595226715
 31
0.0
  0
LINE
  5
1AC5
330
1F
100
AcDbEntity
  8
DETAILS
 62
     6
370
    20
100
AcDbLine
 10
-17.97498914455525
 20
88.43235459603016
 30
0.0
 11
-17.97498914455616
 21
86.42423474164848
 31
0.0
  0
LINE
  5
1AC6
330
1F
100
AcDbEntity
  8
DETAILS
 62
     6
370
    20
100
AcDbLine
 10
-24.17498914455507
 20
86.42423474164848
 30
0.0
 11
-24.17498914455598
 21
88.43235459603016
 31
0.0
  0
LINE
  5
1AC7
330
1F
100
AcDbEntity
  8
DETAILS
 62
     6
370
    20
100
AcDbLine
 10
-24.17498914455416
 20
95.75586385605999
 30
0.0
 11
-24.17498914455416
 21
95.19400698102623
 31
0.0
  0
LINE
  5
1AC8
330
1F
100
AcDbEntity
  8
DETAILS
 62
     6
370
    20
100
AcDbLine
 10
-24.17498914455416
 20
95.19400698102623
 30
0.0
 11
-24.17498914455507
 21
88.43235459603063
 31
0.0
  0
ARC
  5
1AC9
330
1F
100
AcDbEntity
  8
DETAILS
 62
     6
370
    20
100
AcDbCircle
 10
-24.07498914455562
 20
88.43235459603063
 30
0.0
 40
0.0999999999999091
100
AcDbArc
 50
135.0000000001474
 51
180.0000000001302
  0
LINE
  5
1ACA
330
1F
100
AcDbEntity
  8
DETAILS
 62
     6
370
    20
100
AcDbLine
 10
-24.14569982267392
 20
88.50306527414891
 30
0.0
 11
-22.49392312737644
 21
90.17984196944468
 31
0.0
  0
ARC
  5
1ACB
330
1F
100
AcDbEntity
  8
DETAILS
 62
     6
370
    20
100
AcDbCircle
 10
-22.38785711019852
 20
90.07377595226722
 30
0.0
 40
0.1499999999998163
100
AcDbArc
 50
90.0
 51
135.0000000000184
  0
LINE
  5
1ACC
330
1F
100
AcDbEntity
  8
DETAILS
 62
     6
370
    20
100
AcDbLine
 10
-22.38785711019852
 20
90.22377595226686
 30
0.0
 11
-21.07498914455562
 21
90.22377595226686
 31
0.0
  0
LINE
  5
1ACD
330
1F
100
AcDbEntity
  8
DETAILS
 62
     6
370
    20
100
AcDbLine
 10
-21.07498914455562
 20
90.22377595226686
 30
0.0
 11
-19.76212117891271
 21
90.22377595226686
 31
0.0
  0
ARC
  5
1ACE
330
1F
100
AcDbEntity
  8
DETAILS
 62
     6
370
    20
100
AcDbCircle
 10
-19.76212117891271
 20
90.07377595226722
 30
0.0
 40
0.1499999999998067
100
AcDbArc
 50
44.99999999998157
 51
90.0
  0
LINE
  5
1ACF
330
1F
100
AcDbEntity
  8
DETAILS
 62
     6
370
    20
100
AcDbLine
 10
-19.6560551617348
 20
90.17984196944468
 30
0.0
 11
-18.0042784664364
 21
88.50306527414891
 31
0.0
  0
ARC
  5
1AD0
330
1F
100
AcDbEntity
  8
DETAILS
 62
     6
370
    20
100
AcDbCircle
 10
-18.07498914455561
 20
88.43235459603063
 30
0.0
 40
0.0999999999999044
100
AcDbArc
 50
359.9999999998958
 51
44.99999999985261
  0
LINE
  5
1AD1
330
1F
100
AcDbEntity
  8
DETAILS
 62
     6
370
    20
100
AcDbLine
 10
-17.97498914455525
 20
88.43235459603063
 30
0.0
 11
-17.97498914455707
 21
95.19400698102623
 31
0.0
  0
LINE
  5
1AD2
330
1F
100
AcDbEntity
  8
DETAILS
 62
     6
370
    20
100
AcDbLine
 10
-17.97498914455707
 20
95.19400698102623
 30
0.0
 11
-17.97498914455525
 21
97.17331716288487
 31
0.0
  0
ARC
  5
1AD3
330
1F
100
AcDbEntity
  8
DETAILS
 62
     6
370
    20
100
AcDbCircle
 10
-17.92498914455598
 20
97.17331716288487
 30
0.0
 40
0.0500000000001819
100
AcDbArc
 50
149.9999999997345
 51
179.9999999997394
  0
LINE
  5
1AD4
330
1F
100
AcDbEntity
  8
DETAILS
 62
     6
370
    20
100
AcDbLine
 10
-17.96829041474473
 20
97.19831716288542
 30
0.0
 11
-17.90920400049606
 21
97.30065783439982
 31
0.0
  0
LINE
  5
1AD5
330
1F
100
AcDbEntity
  8
DETAILS
 62
     6
370
    20
100
AcDbLine
 10
-17.90920400049606
 20
97.30065783439982
 30
0.0
 11
-17.82260146011856
 21
97.2506578344001
 31
0.0
  0
LINE
  5
1AD6
330
1F
100
AcDbEntity
  8
DETAILS
 62
     6
370
    20
100
AcDbLine
 10
-17.82260146011856
 20
97.2506578344001
 30
0.0
 11
-17.86829041474436
 21
97.1715222436406
 31
0.0
  0
ARC
  5
1AD7
330
1F
100
AcDbEntity
  8
DETAILS
 62
     6
370
    20
100
AcDbCircle
 10
-17.82498914455561
 20
97.14652224364005
 30
0.0
 40
0.0500000000002004
100
AcDbArc
 50
149.999999999547
 51
179.999999999531
  0
LINE
  5
1AD8
330
1F
100
AcDbEntity
  8
DETAILS
 62
     6
370
    20
100
AcDbLine
 10
-17.8749891445558
 20
97.14652224364051
 30
0.0
 11
-17.8749891445558
 21
97.10991970326274
 31
0.0
  0
LINE
  5
1AD9
330
1F
100
AcDbEntity
  8
DETAILS
 62
     6
370
    20
100
AcDbLine
 10
-18.44998914455743
 20
92.54377595226657
 30
0.0
 11
-18.44998914455834
 21
93.08479899800301
 31
0.0
  0
ARC
  5
1ADA
330
1F
100
AcDbEntity
  8
DETAILS
 62
     6
370
    20
100
AcDbCircle
 10
-18.5499891445578
 20
93.08479899800301
 30
0.0
 40
0.0999999999999091
100
AcDbArc
 50
0.0
 51
136.1691393279388
  0
LINE
  5
1ADB
330
1F
100
AcDbEntity
  8
DETAILS
 62
     6
370
    20
100
AcDbLine
 10
-18.62212787666146
 20
93.15405218082203
 30
0.0
 11
-19.14151000056779
 21
92.61302913508558
 31
0.0
  0
ARC
  5
1ADC
330
1F
100
AcDbEntity
  8
DETAILS
 62
     6
370
    20
100
AcDbCircle
 10
-19.06937126846412
 20
92.54377595226703
 30
0.0
 40
0.1000000000000336
100
AcDbArc
 50
136.1691393279939
 51
270.0
  0
LINE
  5
1ADD
330
1F
100
AcDbEntity
  8
DETAILS
 62
     6
370
    20
100
AcDbLine
 10
-19.06937126846412
 20
92.44377595226712
 30
0.0
 11
-18.54998914455689
 21
92.44377595226712
 31
0.0
  0
ARC
  5
1ADE
330
1F
100
AcDbEntity
  8
DETAILS
 62
     6
370
    20
100
AcDbCircle
 10
-18.5499891445578
 20
92.54377595226703
 30
0.0
 40
0.1000000000001364
100
AcDbArc
 50
270.0000000002606
 51
359.9999999998958
  0
LINE
  5
1ADF
330
1F
100
AcDbEntity
  8
DETAILS
 62
     6
370
    20
100
AcDbLine
 10
-18.54998914455689
 20
91.12377595226694
 30
0.0
 11
-19.06937126846412
 21
91.12377595226694
 31
0.0
  0
ARC
  5
1AE0
330
1F
100
AcDbEntity
  8
DETAILS
 62
     6
370
    20
100
AcDbCircle
 10
-19.06937126846412
 20
91.02377595226704
 30
0.0
 40
0.1000000000000227
100
AcDbArc
 50
90.0
 51
223.830860672006
  0
LINE
  5
1AE1
330
1F
100
AcDbEntity
  8
DETAILS
 62
     6
370
    20
100
AcDbLine
 10
-19.14151000056779
 20
90.95452276944802
 30
0.0
 11
-18.62212787666146
 21
90.41349972371206
 31
0.0
  0
ARC
  5
1AE2
330
1F
100
AcDbEntity
  8
DETAILS
 62
     6
370
    20
100
AcDbCircle
 10
-18.5499891445578
 20
90.48275290653061
 30
0.0
 40
0.1000000000000336
100
AcDbArc
 50
223.830860672006
 51
0.0000000000260551
  0
LINE
  5
1AE3
330
1F
100
AcDbEntity
  8
DETAILS
 62
     6
370
    20
100
AcDbLine
 10
-18.44998914455834
 20
90.48275290653061
 30
0.0
 11
-18.44998914455743
 21
91.02377595226704
 31
0.0
  0
ARC
  5
1AE4
330
1F
100
AcDbEntity
  8
DETAILS
 62
     6
370
    20
100
AcDbCircle
 10
-18.5499891445578
 20
91.02377595226659
 30
0.0
 40
0.1000000000003638
100
AcDbArc
 50
0.0000000001042204
 51
89.99999999973944
  0
LINE
  5
1AE5
330
1F
100
AcDbEntity
  8
0
 62
     1
100
AcDbLine
 10
-17.97498914455434
 20
97.52377595226704
 30
0.0
 11
-15.34998914455525
 21
97.52377595226704
 31
0.0
  0
LINE
  5
1AE6
330
1F
100
AcDbEntity
  8
0
 62
     1
100
AcDbLine
 10
-17.97498914455434
 20
97.77089165382092
 30
0.0
 11
-17.97498914455434
 21
97.52377595226704
 31
0.0
  0
LINE
  5
1AE7
330
1F
100
AcDbEntity
  8
0
  6
HIDDEN
 62
     1
 48
0.02
100
AcDbLine
 10
-15.69998914455289
 20
98.02377595226705
 30
0.0
 11
-15.69998914455289
 21
97.52377595226704
 31
0.0
  0
LINE
  5
1AE8
330
1F
100
AcDbEntity
  8
0
  6
HIDDEN
 62
     1
 48
0.02
100
AcDbLine
 10
-17.34998914455525
 20
97.98285579566396
 30
0.0
 11
-17.34998914455434
 21
97.52377595226704
 31
0.0
  0
LINE
  5
1AE9
330
1F
100
AcDbEntity
  8
0
  6
HIDDEN
 62
     1
 48
0.02
100
AcDbLine
 10
-16.32498914455289
 20
98.02377595226705
 30
0.0
 11
-16.32498914455289
 21
97.52377595226704
 31
0.0
  0
LINE
  5
1AEA
330
1F
100
AcDbEntity
  8
0
  6
HIDDEN
 62
     1
 48
0.02
100
AcDbLine
 10
-16.32498914455289
 20
98.02377595226705
 30
0.0
 11
-15.69998914455289
 21
98.02377595226705
 31
0.0
  0
LINE
  5
1AEB
330
1F
100
AcDbEntity
  8
0
  6
HIDDEN
 62
     1
 48
0.02
100
AcDbLine
 10
-17.77498914455361
 20
97.77377595226704
 30
0.0
 11
-17.77498914455361
 21
97.52377595226704
 31
0.0
  0
LINE
  5
1AEC
330
1F
100
AcDbEntity
  8
0
  6
HIDDEN
 62
     1
 48
0.02
100
AcDbLine
 10
-17.52498914455361
 20
97.77377595226704
 30
0.0
 11
-17.52498914455361
 21
97.52377595226704
 31
0.0
  0
LINE
  5
1AED
330
1F
100
AcDbEntity
  8
0
  6
HIDDEN
 62
     1
 48
0.02
100
AcDbLine
 10
-17.77498914455361
 20
97.77377595226704
 30
0.0
 11
-17.52498914455361
 21
97.77377595226704
 31
0.0
  0
LINE
  5
1AEE
330
1F
100
AcDbEntity
  8
0
 62
     1
100
AcDbLine
 10
-26.79998914455507
 20
85.52377595226705
 30
0.0
 11
-24.17498914455507
 21
85.52377595226705
 31
0.0
  0
LINE
  5
1AEF
330
1F
100
AcDbEntity
  8
0
 62
     1
100
AcDbLine
 10
-26.79998914455507
 20
85.52377595226705
 30
0.0
 11
-24.62498914455489
 21
85.52377595226705
 31
0.0
  0
LINE
  5
1AF0
330
1F
100
AcDbEntity
  8
0
 62
     1
100
AcDbLine
 10
-24.3749891445558
 20
85.52377595226705
 30
0.0
 11
-24.17498914455598
 21
85.52377595226705
 31
0.0
  0
LINE
  5
1AF1
330
1F
100
AcDbEntity
  8
0
 48
0.15
100
AcDbLine
 10
-25.82498914455471
 20
85.52377595226705
 30
0.0
 11
-24.79998914455507
 21
85.52377595226705
 31
0.0
  0
LINE
  5
1AF2
330
1F
100
AcDbEntity
  8
0
 62
     1
100
AcDbLine
 10
-24.74998914455489
 20
85.52377595226705
 30
0.0
 11
-25.8749891445558
 21
85.52377595226705
 31
0.0
  0
LINE
  5
1AF3
330
1F
100
AcDbEntity
  8
0
 62
     1
100
AcDbLine
 10
-26.79998914455507
 20
85.52378792276437
 30
0.0
 11
-24.62498914455489
 21
85.52378792276437
 31
0.0
  0
LINE
  5
1AF4
330
1F
100
AcDbEntity
  8
0
 62
     1
100
AcDbLine
 10
-26.44998914455471
 20
86.02378792276438
 30
0.0
 11
-25.82498914455471
 21
86.02378792276438
 31
0.0
  0
LINE
  5
1AF5
330
1F
100
AcDbEntity
  8
0
 62
     1
100
AcDbLine
 10
-24.79998914455507
 20
86.02378792276438
 30
0.0
 11
-24.79998914455598
 21
85.52378792276437
 31
0.0
  0
LINE
  5
1AF6
330
1F
100
AcDbEntity
  8
0
 62
     1
100
AcDbLine
 10
-25.82498914455471
 20
86.02378792276438
 30
0.0
 11
-25.82498914455471
 21
85.52378792276437
 31
0.0
  0
LINE
  5
1AF7
330
1F
100
AcDbEntity
  8
0
 62
     1
100
AcDbLine
 10
-24.79998914455598
 20
86.02378792276438
 30
0.0
 11
-24.17498914455598
 21
86.02378792276438
 31
0.0
  0
LINE
  5
1AF8
330
1F
100
AcDbEntity
  8
0
 62
     1
100
AcDbLine
 10
-24.6249891445558
 20
85.77378792276437
 30
0.0
 11
-24.6249891445558
 21
85.52378792276437
 31
0.0
  0
LINE
  5
1AF9
330
1F
100
AcDbEntity
  8
0
 62
     1
100
AcDbLine
 10
-24.6249891445558
 20
85.77378792276437
 30
0.0
 11
-24.3749891445558
 21
85.77378792276437
 31
0.0
  0
LINE
  5
1AFA
330
1F
100
AcDbEntity
  8
0
 62
     1
100
AcDbLine
 10
-24.3749891445558
 20
85.52378792276437
 30
0.0
 11
-24.17498914455598
 21
85.52378792276437
 31
0.0
  0
LINE
  5
1AFB
330
1F
100
AcDbEntity
  8
0
 48
0.15
100
AcDbLine
 10
-25.82498914455471
 20
85.52378792276437
 30
0.0
 11
-24.79998914455507
 21
85.52378792276437
 31
0.0
  0
LINE
  5
1AFC
330
1F
100
AcDbEntity
  8
0
 62
     1
100
AcDbLine
 10
-24.74998914455489
 20
85.52378792276437
 30
0.0
 11
-25.8749891445558
 21
85.52378792276437
 31
0.0
  0
LINE
  5
1AFD
330
1F
100
AcDbEntity
  8
0
 62
     1
100
AcDbLine
 10
-15.6999891445547
 20
86.02378792276438
 30
0.0
 11
-15.6999891445547
 21
85.52378792276437
 31
0.0
  0
LINE
  5
1AFE
330
1F
100
AcDbEntity
  8
0
 62
     1
100
AcDbLine
 10
-17.34998914455616
 20
86.02378792276438
 30
0.0
 11
-17.34998914455616
 21
85.52378792276437
 31
0.0
  0
LINE
  5
1AFF
330
1F
100
AcDbEntity
  8
0
 62
     1
100
AcDbLine
 10
-16.3249891445547
 20
86.02378792276438
 30
0.0
 11
-16.3249891445547
 21
85.52378792276437
 31
0.0
  0
LINE
  5
1B00
330
1F
100
AcDbEntity
  8
0
 62
     1
100
AcDbLine
 10
-17.97498914455616
 20
86.02378792276438
 30
0.0
 11
-17.34998914455616
 21
86.02378792276438
 31
0.0
  0
LINE
  5
1B01
330
1F
100
AcDbEntity
  8
0
 62
     1
100
AcDbLine
 10
-16.3249891445547
 20
86.02378792276438
 30
0.0
 11
-15.6999891445547
 21
86.02378792276438
 31
0.0
  0
LINE
  5
1B02
330
1F
100
AcDbEntity
  8
0
 62
     1
100
AcDbLine
 10
-17.52498914455543
 20
85.77378792276437
 30
0.0
 11
-17.52498914455543
 21
85.52378792276437
 31
0.0
  0
LINE
  5
1B03
330
1F
100
AcDbEntity
  8
0
 62
     1
100
AcDbLine
 10
-17.77498914455543
 20
85.77378792276437
 30
0.0
 11
-17.52498914455543
 21
85.77378792276437
 31
0.0
  0
LINE
  5
1B04
330
1F
100
AcDbEntity
  8
0
 62
     1
100
AcDbLine
 10
-17.55998914455529
 20
85.52378792276437
 30
0.0
 11
-15.34998914455525
 21
85.52378792276437
 31
0.0
  0
LINE
  5
1B05
330
1F
100
AcDbEntity
  8
0
 62
     1
100
AcDbLine
 10
-17.97498914455616
 20
85.52378792276437
 30
0.0
 11
-17.77498914455543
 21
85.52378792276437
 31
0.0
  0
LINE
  5
1B06
330
1F
100
AcDbEntity
  8
0
 62
     1
100
AcDbLine
 10
-26.79998914455507
 20
85.52378792276437
 30
0.0
 11
-24.17498914455507
 21
85.52378792276437
 31
0.0
  0
LINE
  5
1B07
330
1F
100
AcDbEntity
  8
0
 62
     1
100
AcDbLine
 10
-24.17498914455507
 20
86.02378792276438
 30
0.0
 11
-24.17498914455507
 21
85.52378792276437
 31
0.0
  0
LINE
  5
1B08
330
1F
100
AcDbEntity
  8
0
  6
HIDDEN
 62
     1
 48
0.02
100
AcDbLine
 10
-26.44998914455471
 20
86.02378792276438
 30
0.0
 11
-25.82498914455471
 21
86.02378792276438
 31
0.0
  0
LINE
  5
1B09
330
1F
100
AcDbEntity
  8
0
  6
HIDDEN
 62
     1
 48
0.02
100
AcDbLine
 10
-26.44998914455471
 20
86.02378792276438
 30
0.0
 11
-26.44998914455471
 21
85.52378792276437
 31
0.0
  0
LINE
  5
1B0A
330
1F
100
AcDbEntity
  8
0
  6
HIDDEN
 62
     1
 48
0.02
100
AcDbLine
 10
-24.79998914455507
 20
86.02378792276438
 30
0.0
 11
-24.79998914455598
 21
85.52378792276437
 31
0.0
  0
LINE
  5
1B0B
330
1F
100
AcDbEntity
  8
0
  6
HIDDEN
 62
     1
 48
0.02
100
AcDbLine
 10
-25.82498914455471
 20
86.02378792276438
 30
0.0
 11
-25.82498914455471
 21
85.52378792276437
 31
0.0
  0
LINE
  5
1B0C
330
1F
100
AcDbEntity
  8
0
  6
HIDDEN
 62
     1
 48
0.02
100
AcDbLine
 10
-24.79998914455598
 20
86.02378792276438
 30
0.0
 11
-24.17498914455598
 21
86.02378792276438
 31
0.0
  0
LINE
  5
1B0D
330
1F
100
AcDbEntity
  8
0
 62
     1
100
AcDbLine
 10
-17.97498914455434
 20
85.52378792276437
 30
0.0
 11
-15.34998914455525
 21
85.52378792276437
 31
0.0
  0
LINE
  5
1B0E
330
1F
100
AcDbEntity
  8
0
 62
     1
100
AcDbLine
 10
-17.97498914455434
 20
86.02378792276438
 30
0.0
 11
-17.97498914455434
 21
85.52378792276437
 31
0.0
  0
LINE
  5
1B0F
330
1F
100
AcDbEntity
  8
0
  6
HIDDEN
 62
     1
 48
0.02
100
AcDbLine
 10
-15.69998914455289
 20
86.02378792276438
 30
0.0
 11
-15.69998914455289
 21
85.52378792276437
 31
0.0
  0
LINE
  5
1B10
330
1F
100
AcDbEntity
  8
0
  6
HIDDEN
 62
     1
 48
0.02
100
AcDbLine
 10
-17.34998914455434
 20
86.02378792276438
 30
0.0
 11
-17.34998914455434
 21
85.52378792276437
 31
0.0
  0
LINE
  5
1B11
330
1F
100
AcDbEntity
  8
0
  6
HIDDEN
 62
     1
 48
0.02
100
AcDbLine
 10
-16.32498914455289
 20
86.02378792276438
 30
0.0
 11
-16.32498914455289
 21
85.52378792276437
 31
0.0
  0
LINE
  5
1B12
330
1F
100
AcDbEntity
  8
0
  6
HIDDEN
 62
     1
 48
0.02
100
AcDbLine
 10
-17.97498914455434
 20
86.02378792276438
 30
0.0
 11
-17.34998914455434
 21
86.02378792276438
 31
0.0
  0
LINE
  5
1B13
330
1F
100
AcDbEntity
  8
0
  6
HIDDEN
 62
     1
 48
0.02
100
AcDbLine
 10
-16.32498914455289
 20
86.02378792276438
 30
0.0
 11
-15.69998914455289
 21
86.02378792276438
 31
0.0
  0
LINE
  5
1B14
330
1F
100
AcDbEntity
  8
0
  6
HIDDEN
 62
     1
 48
0.02
100
AcDbLine
 10
-17.77498914455361
 20
85.77378792276437
 30
0.0
 11
-17.77498914455361
 21
85.52378792276437
 31
0.0
  0
LINE
  5
1B15
330
1F
100
AcDbEntity
  8
0
  6
HIDDEN
 62
     1
 48
0.02
100
AcDbLine
 10
-17.52498914455361
 20
85.77378792276437
 30
0.0
 11
-17.52498914455361
 21
85.52378792276437
 31
0.0
  0
LINE
  5
1B16
330
1F
100
AcDbEntity
  8
0
  6
HIDDEN
 62
     1
 48
0.02
100
AcDbLine
 10
-17.77498914455361
 20
85.77378792276437
 30
0.0
 11
-17.52498914455361
 21
85.77378792276437
 31
0.0
  0
ARC
  5
1B17
330
1F
100
AcDbEntity
  8
DETAILS
 62
     6
370
    20
100
AcDbCircle
 10
-17.9249891445578
 20
86.42424671214627
 30
0.0
 40
0.0499999999997272
100
AcDbArc
 50
180.0000000004429
 51
210.0000000006405
  0
LINE
  5
1B18
330
1F
100
AcDbEntity
  8
DETAILS
 62
     6
370
    20
100
AcDbLine
 10
-17.96829041474655
 20
86.39924671214618
 30
0.0
 11
-17.90920400049879
 21
86.29690604063132
 31
0.0
  0
LINE
  5
1B19
330
1F
100
AcDbEntity
  8
DETAILS
 62
     6
370
    20
100
AcDbLine
 10
-17.90920400049879
 20
86.29690604063132
 30
0.0
 11
-17.82260146012038
 21
86.3469060406315
 31
0.0
  0
LINE
  5
1B1A
330
1F
100
AcDbEntity
  8
DETAILS
 62
     6
370
    20
100
AcDbLine
 10
-17.82260146012038
 20
86.3469060406315
 30
0.0
 11
-17.86829041474709
 21
86.4260416313901
 31
0.0
  0
ARC
  5
1B1B
330
1F
100
AcDbEntity
  8
DETAILS
 62
     6
370
    20
100
AcDbCircle
 10
-17.82498914455834
 20
86.45104163139064
 30
0.0
 40
0.0499999999997213
100
AcDbArc
 50
180.0000000003126
 51
210.0000000005468
  0
LINE
  5
1B1C
330
1F
100
AcDbEntity
  8
DETAILS
 62
     6
370
    20
100
AcDbLine
 10
-17.87498914455852
 20
86.45104163139064
 30
0.0
 11
-17.87498914455762
 21
86.48764417176886
 31
0.0
  0
LINE
  5
1B1D
330
1F
100
AcDbEntity
  8
DETAILS
 62
     6
370
    20
100
AcDbLine
 10
-24.27498914455544
 20
86.48764417176796
 30
0.0
 11
-24.27498914455544
 21
86.45104163139064
 31
0.0
  0
ARC
  5
1B1E
330
1F
100
AcDbEntity
  8
DETAILS
 62
     6
370
    20
100
AcDbCircle
 10
-24.32498914455562
 20
86.45104163139064
 30
0.0
 40
0.0499999999997272
100
AcDbArc
 50
329.9999999994532
 51
359.9999999996613
  0
LINE
  5
1B1F
330
1F
100
AcDbEntity
  8
DETAILS
 62
     6
370
    20
100
AcDbLine
 10
-24.28168787436687
 20
86.4260416313901
 30
0.0
 11
-24.32737682899358
 21
86.34690604063058
 31
0.0
  0
LINE
  5
1B20
330
1F
100
AcDbEntity
  8
DETAILS
 62
     6
370
    20
100
AcDbLine
 10
-24.32737682899358
 20
86.34690604063058
 30
0.0
 11
-24.24077428861517
 21
86.29690604063132
 31
0.0
  0
LINE
  5
1B21
330
1F
100
AcDbEntity
  8
DETAILS
 62
     6
370
    20
100
AcDbLine
 10
-24.24077428861517
 20
86.29690604063132
 30
0.0
 11
-24.18168787436741
 21
86.39924671214618
 31
0.0
  0
ARC
  5
1B22
330
1F
100
AcDbEntity
  8
DETAILS
 62
     6
370
    20
100
AcDbCircle
 10
-24.22498914455616
 20
86.42424671214627
 30
0.0
 40
0.0499999999997782
100
AcDbArc
 50
329.9999999993595
 51
359.999999999531
  0
LINE
  5
1B23
330
1F
100
AcDbEntity
  8
0
 62
     1
100
AcDbLine
 10
-15.6999891445547
 20
98.02378792276437
 30
0.0
 11
-15.6999891445547
 21
97.52378792276438
 31
0.0
  0
LINE
  5
1B24
330
1F
100
AcDbEntity
  8
0
 62
     1
100
AcDbLine
 10
-17.34998914455707
 20
97.98285579566396
 30
0.0
 11
-17.34998914455616
 21
97.52378792276438
 31
0.0
  0
LINE
  5
1B25
330
1F
100
AcDbEntity
  8
0
 62
     1
100
AcDbLine
 10
-16.3249891445547
 20
98.02378792276437
 30
0.0
 11
-16.3249891445547
 21
97.52378792276438
 31
0.0
  0
LINE
  5
1B26
330
1F
100
AcDbEntity
  8
0
 62
     1
100
AcDbLine
 10
-16.3249891445547
 20
98.02378792276437
 30
0.0
 11
-15.6999891445547
 21
98.02378792276437
 31
0.0
  0
LINE
  5
1B27
330
1F
100
AcDbEntity
  8
0
 62
     1
100
AcDbLine
 10
-17.52498914455543
 20
97.77378792276437
 30
0.0
 11
-17.52498914455543
 21
97.52378792276438
 31
0.0
  0
LINE
  5
1B28
330
1F
100
AcDbEntity
  8
0
 62
     1
100
AcDbLine
 10
-17.77498914455543
 20
97.77378792276437
 30
0.0
 11
-17.52498914455543
 21
97.77378792276437
 31
0.0
  0
LINE
  5
1B29
330
1F
100
AcDbEntity
  8
0
 62
     1
100
AcDbLine
 10
-17.55998914455529
 20
97.52378792276438
 30
0.0
 11
-15.34998914455525
 21
97.52378792276438
 31
0.0
  0
LINE
  5
1B2A
330
1F
100
AcDbEntity
  8
0
 62
     1
100
AcDbLine
 10
-17.97498914455616
 20
97.52378792276438
 30
0.0
 11
-17.77498914455543
 21
97.52378792276438
 31
0.0
  0
LINE
  5
1B2B
330
1F
100
AcDbEntity
  8
0
 62
     1
100
AcDbLine
 10
-17.97498914455434
 20
97.52378792276438
 30
0.0
 11
-15.34998914455525
 21
97.52378792276438
 31
0.0
  0
LINE
  5
1B2C
330
1F
100
AcDbEntity
  8
0
 62
     1
100
AcDbLine
 10
-17.97498914455434
 20
97.77089165382092
 30
0.0
 11
-17.97498914455434
 21
97.52378792276438
 31
0.0
  0
LINE
  5
1B2D
330
1F
100
AcDbEntity
  8
0
  6
HIDDEN
 62
     1
 48
0.02
100
AcDbLine
 10
-15.69998914455289
 20
98.02378792276437
 30
0.0
 11
-15.69998914455289
 21
97.52378792276438
 31
0.0
  0
LINE
  5
1B2E
330
1F
100
AcDbEntity
  8
0
  6
HIDDEN
 62
     1
 48
0.02
100
AcDbLine
 10
-17.34998914455525
 20
97.98285579566396
 30
0.0
 11
-17.34998914455434
 21
97.52378792276438
 31
0.0
  0
LINE
  5
1B2F
330
1F
100
AcDbEntity
  8
0
  6
HIDDEN
 62
     1
 48
0.02
100
AcDbLine
 10
-16.32498914455289
 20
98.02378792276437
 30
0.0
 11
-16.32498914455289
 21
97.52378792276438
 31
0.0
  0
LINE
  5
1B30
330
1F
100
AcDbEntity
  8
0
  6
HIDDEN
 62
     1
 48
0.02
100
AcDbLine
 10
-16.32498914455289
 20
98.02378792276437
 30
0.0
 11
-15.69998914455289
 21
98.02378792276437
 31
0.0
  0
LINE
  5
1B31
330
1F
100
AcDbEntity
  8
0
  6
HIDDEN
 62
     1
 48
0.02
100
AcDbLine
 10
-17.77498914455361
 20
97.77378792276437
 30
0.0
 11
-17.77498914455361
 21
97.52378792276438
 31
0.0
  0
LINE
  5
1B32
330
1F
100
AcDbEntity
  8
0
  6
HIDDEN
 62
     1
 48
0.02
100
AcDbLine
 10
-17.52498914455361
 20
97.77378792276437
 30
0.0
 11
-17.52498914455361
 21
97.52378792276438
 31
0.0
  0
LINE
  5
1B33
330
1F
100
AcDbEntity
  8
0
  6
HIDDEN
 62
     1
 48
0.02
100
AcDbLine
 10
-17.77498914455361
 20
97.77378792276437
 30
0.0
 11
-17.52498914455361
 21
97.77378792276437
 31
0.0
  0
LWPOLYLINE
  5
1B34
330
1F
100
AcDbEntity
  8
0
 48
0.15
100
AcDbPolyline
 90
        2
 70
     1
 43
0.25
 10
-22.5183482530573
 20
77.62283676349631
 42
1.0
 10
-22.2683482530573
 20
77.62283676349631
 42
1.0
  0
LWPOLYLINE
  5
1B35
330
1F
100
AcDbEntity
  8
0
 48
0.15
100
AcDbPolyline
 90
        2
 70
     1
 43
0.25
 10
-19.90580645692887
 20
77.62283676349631
 42
1.0
 10
-19.65580645692887
 20
77.62283676349631
 42
1.0
  0
LWPOLYLINE
  5
1B36
330
1F
100
AcDbEntity
  8
0
 48
0.15
100
AcDbPolyline
 90
        2
 70
     1
 43
0.25
 10
-22.5183482530573
 20
81.7367891209197
 42
1.0
 10
-22.2683482530573
 20
81.7367891209197
 42
1.0
  0
LWPOLYLINE
  5
1B37
330
1F
100
AcDbEntity
  8
0
 48
0.15
100
AcDbPolyline
 90
        2
 70
     1
 43
0.25
 10
-19.89998914455725
 20
81.7487759522665
 42
1.0
 10
-19.64998914455725
 20
81.7487759522665
 42
1.0
  0
ENDSEC
  0
SECTION
  2
OBJECTS
  0
DICTIONARY
  5
C
330
0
100
AcDbDictionary
281
     1
  3
ACAD_COLOR
350
73
  3
ACAD_GROUP
350
D
  3
ACAD_LAYOUT
350
1A
  3
ACAD_MATERIAL
350
72
  3
ACAD_MLINESTYLE
350
17
  3
ACAD_PLOTSETTINGS
350
19
  3
ACAD_PLOTSTYLENAME
350
E
  3
ACDBHEADERROUNDTRIPXREC
350
1B39
  3
AcDbVariableDictionary
350
66
  0
DICTIONARY
  5
A4
330
2
100
AcDbDictionary
280
     1
281
     1
  3
ACAD_LAYERSTATES
360
A5
  0
DICTIONARY
  5
73
102
{ACAD_REACTORS
330
C
102
}
330
C
100
AcDbDictionary
281
     1
  0
DICTIONARY
  5
D
102
{ACAD_REACTORS
330
C
102
}
330
C
100
AcDbDictionary
281
     1
  0
DICTIONARY
  5
1A
102
{ACAD_REACTORS
330
C
102
}
330
C
100
AcDbDictionary
281
     1
  3
Layout1
350
59
  3
Layout2
350
5E
  3
Model
350
22
  0
DICTIONARY
  5
72
102
{ACAD_REACTORS
330
C
102
}
330
C
100
AcDbDictionary
281
     1
  0
DICTIONARY
  5
17
102
{ACAD_REACTORS
330
C
102
}
330
C
100
AcDbDictionary
281
     1
  3
Standard
350
18
  0
DICTIONARY
  5
19
102
{ACAD_REACTORS
330
C
102
}
330
C
100
AcDbDictionary
281
     1
  0
ACDBDICTIONARYWDFLT
  5
E
102
{ACAD_REACTORS
330
C
102
}
330
C
100
AcDbDictionary
281
     1
  3
Normal
350
F
100
AcDbDictionaryWithDefault
340
F
  0
DICTIONARY
  5
1B39
102
{ACAD_REACTORS
330
C
102
}
330
C
100
AcDbDictionary
281
     1
  3
COLORDICT
350
1B3B
  3
MATERIALDICT
350
1B3A
  0
DICTIONARY
  5
66
102
{ACAD_REACTORS
330
C
102
}
330
C
100
AcDbDictionary
281
     1
  3
DIMASSOC
350
67
  3
HIDETEXT
350
6B
  3
PROJECTNAME
350
33A
  0
DICTIONARY
  5
A5
102
{ACAD_REACTORS
330
A4
102
}
330
A4
100
AcDbDictionary
281
     1
  0
LAYOUT
  5
59
102
{ACAD_XDICTIONARY
360
1B3E
102
}
102
{ACAD_REACTORS
330
1A
102
}
330
1A
100
AcDbPlotSettings
  1

  2
None
  4

  6

 40
0.0
 41
0.0
 42
0.0
 43
0.0
 44
0.0
 45
0.0
 46
0.0
 47
0.0
 48
0.0
 49
0.0
140
0.0
141
0.0
142
1.0
143
1.0
 70
   688
 72
     0
 73
     0
 74
     5
  7

 75
    16
147
1.0
148
0.0
149
0.0
100
AcDbLayout
  1
Layout1
 70
     1
 71
     1
 10
0.0
 20
0.0
 11
12.0
 21
9.0
 12
0.0
 22
0.0
 32
0.0
 14
0.0
 24
0.0
 34
0.0
 15
0.0
 25
0.0
 35
0.0
146
0.0
 13
0.0
 23
0.0
 33
0.0
 16
1.0
 26
0.0
 36
0.0
 17
0.0
 27
1.0
 37
0.0
 76
     0
330
58
  0
LAYOUT
  5
5E
102
{ACAD_XDICTIONARY
360
1B40
102
}
102
{ACAD_REACTORS
330
1A
102
}
330
1A
100
AcDbPlotSettings
  1

  2
None
  4

  6

 40
0.0
 41
0.0
 42
0.0
 43
0.0
 44
0.0
 45
0.0
 46
0.0
 47
0.0
 48
0.0
 49
0.0
140
0.0
141
0.0
142
1.0
143
1.0
 70
   688
 72
     0
 73
     0
 74
     5
  7

 75
    16
147
1.0
148
0.0
149
0.0
100
AcDbLayout
  1
Layout2
 70
     1
 71
     2
 10
0.0
 20
0.0
 11
12.0
 21
9.0
 12
0.0
 22
0.0
 32
0.0
 14
0.0
 24
0.0
 34
0.0
 15
0.0
 25
0.0
 35
0.0
146
0.0
 13
0.0
 23
0.0
 33
0.0
 16
1.0
 26
0.0
 36
0.0
 17
0.0
 27
1.0
 37
0.0
 76
     0
330
5D
  0
LAYOUT
  5
22
102
{ACAD_XDICTIONARY
360
1B3C
102
}
102
{ACAD_REACTORS
330
1A
102
}
330
1A
100
AcDbPlotSettings
  1

  2
none_device
  4
ANSI_A_(8.50_x_11.00_Inches)
  6

 40
6.349999904632568
 41
19.04999923706055
 42
6.350006103515625
 43
19.04998779296875
 44
215.8999938964844
 45
279.3999938964844
 46
0.0
 47
0.0
 48
0.0
 49
0.0
140
0.0
141
0.0
142
1.0
143
2.584895464708373
 70
 11952
 72
     0
 73
     1
 74
     0
  7

 75
     0
147
0.3868628397755418
148
0.0
149
0.0
100
AcDbLayout
  1
Model
 70
     1
 71
     0
 10
0.0
 20
0.0
 11
12.0
 21
9.0
 12
0.0
 22
0.0
 32
0.0
 14
0.0
 24
0.0
 34
0.0
 15
0.0
 25
0.0
 35
0.0
146
0.0
 13
0.0
 23
0.0
 33
0.0
 16
1.0
 26
0.0
 36
0.0
 17
0.0
 27
1.0
 37
0.0
 76
     0
330
1F
  0
MLINESTYLE
  5
18
102
{ACAD_REACTORS
330
17
102
}
330
17
100
AcDbMlineStyle
  2
STANDARD
 70
     0
  3

 62
   256
 51
90.0
 52
90.0
 71
     2
 49
0.5
 62
   256
  6
BYLAYER
 49
-0.5
 62
   256
  6
BYLAYER
  0
ACDBPLACEHOLDER
  5
F
102
{ACAD_REACTORS
330
E
102
}
330
E
  0
XRECORD
  5
1B3B
102
{ACAD_REACTORS
330
1B39
102
}
330
1B39
100
AcDbXrecord
280
     1
340
73
  0
XRECORD
  5
1B3A
102
{ACAD_REACTORS
330
1B39
102
}
330
1B39
100
AcDbXrecord
280
     1
340
72
  0
DICTIONARYVAR
  5
67
102
{ACAD_REACTORS
330
66
102
}
330
66
100
DictionaryVariables
280
     0
  1
2
  0
DICTIONARYVAR
  5
6B
102
{ACAD_REACTORS
330
66
102
}
330
66
100
DictionaryVariables
280
     0
  1
1
  0
DICTIONARYVAR
  5
33A
102
{ACAD_REACTORS
330
66
102
}
330
66
100
DictionaryVariables
280
     0
  1

  0
DICTIONARY
  5
1B3E
330
59
100
AcDbDictionary
280
     1
281
     1
  3
ACAD_XREC_ROUNDTRIP
360
1B3F
  0
DICTIONARY
  5
1B40
330
5E
100
AcDbDictionary
280
     1
281
     1
  3
ACAD_XREC_ROUNDTRIP
360
1B41
  0
DICTIONARY
  5
1B3C
330
22
100
AcDbDictionary
280
     1
281
     1
  3
ACAD_XREC_ROUNDTRIP
360
1B3D
  0
XRECORD
  5
1B3F
102
{ACAD_REACTORS
330
1B3E
102
}
330
1B3E
100
AcDbXrecord
280
     1
102
SHADEPLOT
 70
     0
102
SHADEPLOTRESLEVEL
 70
     2
102
SHADEPLOTCUSTOMDPI
 70
   300
  0
XRECORD
  5
1B41
102
{ACAD_REACTORS
330
1B40
102
}
330
1B40
100
AcDbXrecord
280
     1
102
SHADEPLOT
 70
     0
102
SHADEPLOTRESLEVEL
 70
     2
102
SHADEPLOTCUSTOMDPI
 70
   300
  0
XRECORD
  5
1B3D
102
{ACAD_REACTORS
330
1B3C
102
}
330
1B3C
100
AcDbXrecord
280
     1
102
SHADEPLOT
 70
     0
102
SHADEPLOTRESLEVEL
 70
     2
102
SHADEPLOTCUSTOMDPI
 70
   300
  0
ENDSEC
  0
EOF
