  0
SECTION
  2
HEADER
  9
$ACADVER
  1
AC1015
  9
$ACADMAINTVER
 70
    20
  9
$DWGCODEPAGE
  3
ANSI_1252
  9
$INSBASE
 10
0.0
 20
0.0
 30
0.0
  9
$EXTMIN
 10
-66.94670853259516
 20
27.93754036018552
 30
-0.0015258207003583
  9
$EXTMAX
 10
6.158446424697842
 20
99.17664669551061
 30
0.0000000349246037
  9
$LIMMIN
 10
0.0
 20
0.0
  9
$LIMMAX
 10
12.0
 20
9.0
  9
$ORTHOMODE
 70
     0
  9
$REGENMODE
 70
     1
  9
$FILLMODE
 70
     1
  9
$QTEXTMODE
 70
     0
  9
$MIRRTEXT
 70
     0
  9
$LTSCALE
 40
1.0
  9
$ATTMODE
 70
     1
  9
$TEXTSIZE
 40
0.2
  9
$TRACEWID
 40
0.05
  9
$TEXTSTYLE
  7
Standard
  9
$CLAYER
  8
0
  9
$CELTYPE
  6
ByLayer
  9
$CECOLOR
 62
   256
  9
$CELTSCALE
 40
1.0
  9
$DISPSILH
 70
     0
  9
$DIMSCALE
 40
1.0
  9
$DIMASZ
 40
0.18
  9
$DIMEXO
 40
0.0625
  9
$DIMDLI
 40
0.38
  9
$DIMRND
 40
0.0
  9
$DIMDLE
 40
0.0
  9
$DIMEXE
 40
0.18
  9
$DIMTP
 40
0.0
  9
$DIMTM
 40
0.0
  9
$DIMTXT
 40
0.18
  9
$DIMCEN
 40
0.09
  9
$DIMTSZ
 40
0.0
  9
$DIMTOL
 70
     0
  9
$DIMLIM
 70
     0
  9
$DIMTIH
 70
     1
  9
$DIMTOH
 70
     1
  9
$DIMSE1
 70
     0
  9
$DIMSE2
 70
     0
  9
$DIMTAD
 70
     0
  9
$DIMZIN
 70
     0
  9
$DIMBLK
  1

  9
$DIMASO
 70
     1
  9
$DIMSHO
 70
     1
  9
$DIMPOST
  1

  9
$DIMAPOST
  1

  9
$DIMALT
 70
     0
  9
$DIMALTD
 70
     2
  9
$DIMALTF
 40
25.4
  9
$DIMLFAC
 40
1.0
  9
$DIMTOFL
 70
     0
  9
$DIMTVP
 40
0.0
  9
$DIMTIX
 70
     0
  9
$DIMSOXD
 70
     0
  9
$DIMSAH
 70
     0
  9
$DIMBLK1
  1

  9
$DIMBLK2
  1

  9
$DIMSTYLE
  2
Standard
  9
$DIMCLRD
 70
     0
  9
$DIMCLRE
 70
     0
  9
$DIMCLRT
 70
     0
  9
$DIMTFAC
 40
1.0
  9
$DIMGAP
 40
0.09
  9
$DIMJUST
 70
     0
  9
$DIMSD1
 70
     0
  9
$DIMSD2
 70
     0
  9
$DIMTOLJ
 70
     1
  9
$DIMTZIN
 70
     0
  9
$DIMALTZ
 70
     0
  9
$DIMALTTZ
 70
     0
  9
$DIMUPT
 70
     0
  9
$DIMDEC
 70
     4
  9
$DIMTDEC
 70
     4
  9
$DIMALTU
 70
     2
  9
$DIMALTTD
 70
     2
  9
$DIMTXSTY
  7
Standard
  9
$DIMAUNIT
 70
     0
  9
$DIMADEC
 70
     0
  9
$DIMALTRND
 40
0.0
  9
$DIMAZIN
 70
     0
  9
$DIMDSEP
 70
    46
  9
$DIMATFIT
 70
     3
  9
$DIMFRAC
 70
     0
  9
$DIMLDRBLK
  1

  9
$DIMLUNIT
 70
     2
  9
$DIMLWD
 70
    -2
  9
$DIMLWE
 70
    -2
  9
$DIMTMOVE
 70
     0
  9
$LUNITS
 70
     2
  9
$LUPREC
 70
     4
  9
$SKETCHINC
 40
0.1
  9
$FILLETRAD
 40
0.0
  9
$AUNITS
 70
     0
  9
$AUPREC
 70
     0
  9
$MENU
  1
.
  9
$ELEVATION
 40
0.0
  9
$PELEVATION
 40
0.0
  9
$THICKNESS
 40
0.0
  9
$LIMCHECK
 70
     0
  9
$CHAMFERA
 40
0.0
  9
$CHAMFERB
 40
0.0
  9
$CHAMFERC
 40
0.0
  9
$CHAMFERD
 40
0.0
  9
$SKPOLY
 70
     0
  9
$TDCREATE
 40
2454938.360508912
  9
$TDUCREATE
 40
2454938.610508913
  9
$TDUPDATE
 40
2454938.365236447
  9
$TDUUPDATE
 40
2454938.615236447
  9
$TDINDWG
 40
0.0047284606
  9
$TDUSRTIMER
 40
0.0047284606
  9
$USRTIMER
 70
     1
  9
$ANGBASE
 50
0.0
  9
$ANGDIR
 70
     0
  9
$PDMODE
 70
     0
  9
$PDSIZE
 40
0.0
  9
$PLINEWID
 40
0.0
  9
$SPLFRAME
 70
     0
  9
$SPLINETYPE
 70
     6
  9
$SPLINESEGS
 70
     8
  9
$HANDSEED
  5
2BBC
  9
$SURFTAB1
 70
     6
  9
$SURFTAB2
 70
     6
  9
$SURFTYPE
 70
     6
  9
$SURFU
 70
     6
  9
$SURFV
 70
     6
  9
$UCSBASE
  2

  9
$UCSNAME
  2

  9
$UCSORG
 10
0.0
 20
0.0
 30
0.0
  9
$UCSXDIR
 10
1.0
 20
0.0
 30
0.0
  9
$UCSYDIR
 10
0.0
 20
1.0
 30
0.0
  9
$UCSORTHOREF
  2

  9
$UCSORTHOVIEW
 70
     0
  9
$UCSORGTOP
 10
0.0
 20
0.0
 30
0.0
  9
$UCSORGBOTTOM
 10
0.0
 20
0.0
 30
0.0
  9
$UCSORGLEFT
 10
0.0
 20
0.0
 30
0.0
  9
$UCSORGRIGHT
 10
0.0
 20
0.0
 30
0.0
  9
$UCSORGFRONT
 10
0.0
 20
0.0
 30
0.0
  9
$UCSORGBACK
 10
0.0
 20
0.0
 30
0.0
  9
$PUCSBASE
  2

  9
$PUCSNAME
  2

  9
$PUCSORG
 10
0.0
 20
0.0
 30
0.0
  9
$PUCSXDIR
 10
1.0
 20
0.0
 30
0.0
  9
$PUCSYDIR
 10
0.0
 20
1.0
 30
0.0
  9
$PUCSORTHOREF
  2

  9
$PUCSORTHOVIEW
 70
     0
  9
$PUCSORGTOP
 10
0.0
 20
0.0
 30
0.0
  9
$PUCSORGBOTTOM
 10
0.0
 20
0.0
 30
0.0
  9
$PUCSORGLEFT
 10
0.0
 20
0.0
 30
0.0
  9
$PUCSORGRIGHT
 10
0.0
 20
0.0
 30
0.0
  9
$PUCSORGFRONT
 10
0.0
 20
0.0
 30
0.0
  9
$PUCSORGBACK
 10
0.0
 20
0.0
 30
0.0
  9
$USERI1
 70
     0
  9
$USERI2
 70
     0
  9
$USERI3
 70
     0
  9
$USERI4
 70
     0
  9
$USERI5
 70
     0
  9
$USERR1
 40
0.0
  9
$USERR2
 40
0.0
  9
$USERR3
 40
0.0
  9
$USERR4
 40
0.0
  9
$USERR5
 40
0.0
  9
$WORLDVIEW
 70
     1
  9
$SHADEDGE
 70
     3
  9
$SHADEDIF
 70
    70
  9
$TILEMODE
 70
     1
  9
$MAXACTVP
 70
    64
  9
$PINSBASE
 10
0.0
 20
0.0
 30
0.0
  9
$PLIMCHECK
 70
     0
  9
$PEXTMIN
 10
0.0
 20
0.0
 30
0.0
  9
$PEXTMAX
 10
0.0
 20
0.0
 30
0.0
  9
$PLIMMIN
 10
0.0
 20
0.0
  9
$PLIMMAX
 10
12.0
 20
9.0
  9
$UNITMODE
 70
     0
  9
$VISRETAIN
 70
     1
  9
$PLINEGEN
 70
     0
  9
$PSLTSCALE
 70
     1
  9
$TREEDEPTH
 70
  3020
  9
$CMLSTYLE
  2
Standard
  9
$CMLJUST
 70
     0
  9
$CMLSCALE
 40
1.0
  9
$PROXYGRAPHICS
 70
     1
  9
$MEASUREMENT
 70
     0
  9
$CELWEIGHT
370
    -1
  9
$ENDCAPS
280
     0
  9
$JOINSTYLE
280
     0
  9
$LWDISPLAY
290
     0
  9
$INSUNITS
 70
     1
  9
$HYPERLINKBASE
  1

  9
$STYLESHEET
  1

  9
$XEDIT
290
     1
  9
$CEPSNTYPE
380
     0
  9
$PSTYLEMODE
290
     1
  9
$FINGERPRINTGUID
  2
{FDEAD576-A652-11D2-9A35-0060089B3A3F}
  9
$VERSIONGUID
  2
{CBF39914-65F3-46F1-BAA9-AC6E109D4086}
  9
$EXTNAMES
290
     1
  9
$PSVPSCALE
 40
0.0
  9
$OLESTARTUP
290
     0
  0
ENDSEC
  0
SECTION
  2
CLASSES
  0
CLASS
  1
ACDBDICTIONARYWDFLT
  2
AcDbDictionaryWithDefault
  3
ObjectDBX Classes
 90
        0
280
     0
281
     0
  0
CLASS
  1
ACDBPLACEHOLDER
  2
AcDbPlaceHolder
  3
ObjectDBX Classes
 90
        0
280
     0
281
     0
  0
CLASS
  1
LAYOUT
  2
AcDbLayout
  3
ObjectDBX Classes
 90
        0
280
     0
281
     0
  0
CLASS
  1
DICTIONARYVAR
  2
AcDbDictionaryVar
  3
ObjectDBX Classes
 90
        0
280
     0
281
     0
  0
CLASS
  1
SORTENTSTABLE
  2
AcDbSortentsTable
  3
ObjectDBX Classes
 90
        0
280
     0
281
     0
  0
ENDSEC
  0
SECTION
  2
TABLES
  0
TABLE
  2
VPORT
  5
8
330
0
100
AcDbSymbolTable
 70
    19
  0
VPORT
  5
2BB2
330
8
100
AcDbSymbolTableRecord
100
AcDbViewportTableRecord
  2
*Active
 70
     0
 10
0.0
 20
0.0
 11
1.0
 21
1.0
 12
-30.39413105394866
 22
63.55709352784806
 13
0.0
 23
0.0
 14
0.5
 24
0.5
 15
0.5
 25
0.5
 16
0.0
 26
0.0
 36
1.0
 17
0.0
 27
0.0
 37
0.0
 40
71.7534681139195
 41
1.48433734939759
 42
50.0
 43
0.0
 44
0.0
 50
0.0
 51
0.0
 71
     0
 72
  1000
 73
     1
 74
     3
 75
     0
 76
     0
 77
     0
 78
     0
281
     0
 65
     1
110
0.0
120
0.0
130
0.0
111
1.0
121
0.0
131
0.0
112
0.0
122
1.0
132
0.0
 79
     0
146
0.0
  0
ENDTAB
  0
TABLE
  2
LTYPE
  5
5
330
0
100
AcDbSymbolTable
 70
     4
  0
LTYPE
  5
14
330
5
100
AcDbSymbolTableRecord
100
AcDbLinetypeTableRecord
  2
ByBlock
 70
     0
  3

 72
    65
 73
     0
 40
0.0
  0
LTYPE
  5
15
330
5
100
AcDbSymbolTableRecord
100
AcDbLinetypeTableRecord
  2
ByLayer
 70
     0
  3

 72
    65
 73
     0
 40
0.0
  0
LTYPE
  5
16
330
5
100
AcDbSymbolTableRecord
100
AcDbLinetypeTableRecord
  2
Continuous
 70
     0
  3
Solid line
 72
    65
 73
     0
 40
0.0
  0
LTYPE
  5
96
330
5
100
AcDbSymbolTableRecord
100
AcDbLinetypeTableRecord
  2
DASHED2
 70
     0
  3
_ _ _ _ _ _ _ _ _ _ _ _ _ _ _ _ _ _ _ _ _ _ _ _
 72
    65
 73
     2
 40
0.375
 49
0.25
 74
     0
 49
-0.125
 74
     0
  0
LTYPE
  5
97
330
5
100
AcDbSymbolTableRecord
100
AcDbLinetypeTableRecord
  2
HIDDEN
 70
     0
  3
Hidden __ __ __ __ __ __ __ __ __ __ __ __ __ _
 72
    65
 73
     2
 40
0.375
 49
0.25
 74
     0
 49
-0.125
 74
     0
  0
LTYPE
  5
865
330
5
100
AcDbSymbolTableRecord
100
AcDbLinetypeTableRecord
  2
CENTER
 70
     0
  3
Center ____ _ ____ _ ____ _ ____ _ ____ _ ____
 72
    65
 73
     4
 40
2.0
 49
1.25
 74
     0
 49
-0.25
 74
     0
 49
0.25
 74
     0
 49
-0.25
 74
     0
  0
ENDTAB
  0
TABLE
  2
LAYER
  5
2
102
{ACAD_XDICTIONARY
360
A4
102
}
330
0
100
AcDbSymbolTable
 70
     9
  0
LAYER
  5
10
330
2
100
AcDbSymbolTableRecord
100
AcDbLayerTableRecord
  2
0
 70
     0
 62
     7
  6
Continuous
370
    -3
390
F
  0
LAYER
  5
98
330
2
100
AcDbSymbolTableRecord
100
AcDbLayerTableRecord
  2
DIM
 70
     0
 62
     3
  6
Continuous
370
    13
390
F
  0
LAYER
  5
99
330
2
100
AcDbSymbolTableRecord
100
AcDbLayerTableRecord
  2
Defpoints
 70
     0
 62
   252
  6
Continuous
290
     0
370
    -3
390
F
  0
LAYER
  5
9A
330
2
100
AcDbSymbolTableRecord
100
AcDbLayerTableRecord
  2
A2 Hatch
 70
     0
 62
     8
  6
Continuous
370
     9
390
F
  0
LAYER
  5
9B
330
2
100
AcDbSymbolTableRecord
100
AcDbLayerTableRecord
  2
A5 heavy
 70
     0
 62
     5
  6
Continuous
370
    53
390
F
  0
LAYER
  5
9C
330
2
100
AcDbSymbolTableRecord
100
AcDbLayerTableRecord
  2
DETAILS
 70
     0
 62
     7
  6
Continuous
370
    13
390
F
  0
LAYER
  5
866
330
2
100
AcDbSymbolTableRecord
100
AcDbLayerTableRecord
  2
A1 fine
 70
     0
 62
   251
  6
Continuous
370
     5
390
F
  0
LAYER
  5
867
330
2
100
AcDbSymbolTableRecord
100
AcDbLayerTableRecord
  2
A4 medium
 70
     0
 62
     7
  6
Continuous
370
    35
390
F
  0
LAYER
  5
868
330
2
100
AcDbSymbolTableRecord
100
AcDbLayerTableRecord
  2
REBAR
 70
     0
 62
     2
  6
CENTER
370
    30
390
F
  0
ENDTAB
  0
TABLE
  2
STYLE
  5
3
330
0
100
AcDbSymbolTable
 70
     4
  0
STYLE
  5
11
330
3
100
AcDbSymbolTableRecord
100
AcDbTextStyleTableRecord
  2
Standard
 70
     0
 40
0.0
 41
1.0
 50
0.0
 71
     0
 42
0.2
  3
txt
  4

  0
STYLE
  5
9D
330
3
100
AcDbSymbolTableRecord
100
AcDbTextStyleTableRecord
  2
ARCHITXT
 70
     0
 40
0.0
 41
1.25
 50
0.0
 71
     0
 42
1.0
  3
ARCHITXT.shx
  4

  0
STYLE
  5
9E
330
3
100
AcDbSymbolTableRecord
100
AcDbTextStyleTableRecord
  2
ARCTEXT
 70
     0
 40
0.0
 41
0.85
 50
0.0
 71
     0
 42
5.096770384644268
  3
arctext.shx
  4

  0
STYLE
  5
9F
330
3
100
AcDbSymbolTableRecord
100
AcDbTextStyleTableRecord
  2
RomanC
 70
     0
 40
5.0
 41
0.85
 50
0.0
 71
     0
 42
10.0
  3
romanc.shx
  4

  0
ENDTAB
  0
TABLE
  2
VIEW
  5
6
330
0
100
AcDbSymbolTable
 70
     0
  0
ENDTAB
  0
TABLE
  2
UCS
  5
7
330
0
100
AcDbSymbolTable
 70
     0
  0
ENDTAB
  0
TABLE
  2
APPID
  5
9
330
0
100
AcDbSymbolTable
 70
     1
  0
APPID
  5
12
330
9
100
AcDbSymbolTableRecord
100
AcDbRegAppTableRecord
  2
ACAD
 70
     0
  0
ENDTAB
  0
TABLE
  2
DIMSTYLE
  5
A
330
0
100
AcDbSymbolTable
 70
     5
100
AcDbDimStyleTable
 71
     0
  0
DIMSTYLE
105
27
330
A
100
AcDbSymbolTableRecord
100
AcDbDimStyleTableRecord
  2
Standard
 70
     0
340
11
  0
DIMSTYLE
105
A0
330
A
100
AcDbSymbolTableRecord
100
AcDbDimStyleTableRecord
  2
Copy of ROMANS
 70
     0
 41
0.75
 42
0.125
 43
0.125
 44
0.125
 73
     0
 74
     0
 77
     1
 78
     3
140
1.0
141
6.0
147
0.25
172
     1
175
     1
176
     2
177
     2
178
     2
271
     3
272
     3
273
     4
275
     1
277
     4
279
     2
284
     3
285
     3
286
     3
340
9D
  0
DIMSTYLE
105
A1
330
A
100
AcDbSymbolTableRecord
100
AcDbDimStyleTableRecord
  2
ARCTEXT
 70
     0
 40
0.0
 41
2.0
 42
1.0
 43
0.375
 44
0.1875
 73
     0
 74
     0
140
4.0
141
2.0
147
2.0
176
     2
177
     2
178
     2
277
     4
340
9E
341
8D
342
89
  0
DIMSTYLE
105
A2
330
A
100
AcDbSymbolTableRecord
100
AcDbDimStyleTableRecord
  2
ARCTEXT1-4
 70
     0
 41
2.0
 42
2.0
 43
2.0
 44
2.0
 73
     0
 74
     0
 77
     1
 78
     3
140
4.0
141
2.0
147
2.0
172
     1
175
     1
275
     1
277
     4
279
     2
340
9E
341
8D
342
89
  0
DIMSTYLE
105
A3
330
A
100
AcDbSymbolTableRecord
100
AcDbDimStyleTableRecord
  2
ARCTEXT 1-1
 70
     0
 40
0.0
 41
1.0
 42
1.0
 43
0.375
 44
0.1875
 73
     0
 74
     0
 77
     1
 78
     3
140
1.0
141
1.0
147
0.5
176
   256
177
   256
178
   256
277
     4
279
     2
340
9E
341
8D
342
89
  0
ENDTAB
  0
TABLE
  2
BLOCK_RECORD
  5
1
330
0
100
AcDbSymbolTable
 70
    14
  0
BLOCK_RECORD
  5
1F
330
1
100
AcDbSymbolTableRecord
100
AcDbBlockTableRecord
  2
*Model_Space
340
22
  0
BLOCK_RECORD
  5
58
330
1
100
AcDbSymbolTableRecord
100
AcDbBlockTableRecord
  2
*Paper_Space
340
59
  0
BLOCK_RECORD
  5
5D
330
1
100
AcDbSymbolTableRecord
100
AcDbBlockTableRecord
  2
*Paper_Space0
340
5E
  0
BLOCK_RECORD
  5
89
330
1
100
AcDbSymbolTableRecord
100
AcDbBlockTableRecord
  2
_ArchTick
340
0
102
{BLKREFS
331
85E
331
85F
331
1060
331
1061
102
}
  0
BLOCK_RECORD
  5
8D
330
1
100
AcDbSymbolTableRecord
100
AcDbBlockTableRecord
  2
arrow
340
0
310
2800000020000000200000000100080000000000000400000000000000000000000000000000000000000000000080000080000000808000800000008000800080800000C0C0C000C0DCC000F0CAA6000020400000206000002080000020A0000020C0000020E00000400000004020000040400000406000004080000040A0
310
000040C0000040E00000600000006020000060400000606000006080000060A0000060C0000060E00000800000008020000080400000806000008080000080A0000080C0000080E00000A0000000A0200000A0400000A0600000A0800000A0A00000A0C00000A0E00000C0000000C0200000C0400000C0600000C0800000C0
310
A00000C0C00000C0E00000E0000000E0200000E0400000E0600000E0800000E0A00000E0C00000E0E00040000000400020004000400040006000400080004000A0004000C0004000E00040200000402020004020400040206000402080004020A0004020C0004020E000404000004040200040404000404060004040800040
310
40A0004040C0004040E00040600000406020004060400040606000406080004060A0004060C0004060E00040800000408020004080400040806000408080004080A0004080C0004080E00040A0000040A0200040A0400040A0600040A0800040A0A00040A0C00040A0E00040C0000040C0200040C0400040C0600040C08000
310
40C0A00040C0C00040C0E00040E0000040E0200040E0400040E0600040E0800040E0A00040E0C00040E0E00080000000800020008000400080006000800080008000A0008000C0008000E00080200000802020008020400080206000802080008020A0008020C0008020E00080400000804020008040400080406000804080
310
008040A0008040C0008040E00080600000806020008060400080606000806080008060A0008060C0008060E00080800000808020008080400080806000808080008080A0008080C0008080E00080A0000080A0200080A0400080A0600080A0800080A0A00080A0C00080A0E00080C0000080C0200080C0400080C0600080C0
310
800080C0A00080C0C00080C0E00080E0000080E0200080E0400080E0600080E0800080E0A00080E0C00080E0E000C0000000C0002000C0004000C0006000C0008000C000A000C000C000C000E000C0200000C0202000C0204000C0206000C0208000C020A000C020C000C020E000C0400000C0402000C0404000C0406000C0
310
408000C040A000C040C000C040E000C0600000C0602000C0604000C0606000C0608000C060A000C060C000C060E000C0800000C0802000C0804000C0806000C0808000C080A000C080C000C080E000C0A00000C0A02000C0A04000C0A06000C0A08000C0A0A000C0A0C000C0A0E000C0C00000C0C02000C0C04000C0C06000
310
C0C08000C0C0A000F0FBFF00A4A0A000808080000000FF0000FF000000FFFF00FF000000FF00FF00FFFF0000FFFFFF0000000000000000000000000000000000000000000000000000000000000000000000000000000000000000000000000000000000000000000000000000000000000000000000000000000000000000
310
0000000000000000000000000000000000000000000000000000000000000000000000000000000000000000000000000000000000000000000000000000000000000000000000000000000000000000000000000000000000000000000000000000000000000000000000000000000000000000000000FA00000000000000
310
000000000000000000000000000000000000000000000000FA00000000000000000000000000000000000000000000000000000000000000FA0000000000000000000000000000000000000000000000000000FAFA000000FA00000000000000000000000000000000000000000000000000000000FAFA00FA000000000000
310
000000000000000000000000000000000000000000000000FAF7F7000000000000000000000000000000000000000000000000000000000000F7F7F7F7F7F70000000000000000000000000000000000000000000000000000F7F7F7F7F7F7F7F7F7F700000000000000000000000000000000000000000000F7F7F7F7F7F7
310
F7F7F7F7F7F7F7F7000000000000000000000000000000000000F7F7F7F7F7F7F7F7F7F7F7F7F7F7F7F7F7F70000000000FAFA00000000000000F7F7F7F7F7F7F7F7F7F7F7F7F7F7F7F7F7F7F7F7F7FAFAFAFA00000000000000F7F7F7F7F7F7F7F7F7F7F7F7F7F7F7F7F7F70000000000000000000000000000F7F7F7F7F7
310
F7F7F7F7F7F7F7F700000000000000000000000000000000000000F7F7F7F7F7F7F7F70000000000000000000000000000000000000000000000FAF7F7F70000000000000000000000000000000000000000000000000000FAFA00FA0000000000000000000000000000000000000000000000000000FAFA000000FA000000
310
00000000000000000000000000000000000000000000000000000000FA00000000000000000000000000000000000000000000000000000000000000FA00000000000000000000000000000000000000000000000000000000000000FA00000000000000000000000000000000000000000000000000000000000000000000
310
00000000000000000000000000000000000000000000000000000000000000000000000000000000000000000000000000000000000000000000000000000000000000000000000000000000000000000000000000000000000000000000000000000000000000000000000000000000000000000000000000000000000000
310
0000000000000000000000000000000000000000000000000000000000000000000000000000000000000000000000000000000000000000
1001
ACAD
1000
DesignCenter Data
1002
{
1070
     1
1070
     1
1002
}
  0
BLOCK_RECORD
  5
859
330
1
100
AcDbSymbolTableRecord
100
AcDbBlockTableRecord
  2
*D6
340
0
  0
BLOCK_RECORD
  5
1051
330
1
100
AcDbSymbolTableRecord
100
AcDbBlockTableRecord
  2
*D8
340
0
  0
ENDTAB
  0
ENDSEC
  0
SECTION
  2
BLOCKS
  0
BLOCK
  5
20
330
1F
100
AcDbEntity
  8
0
100
AcDbBlockBegin
  2
*Model_Space
 70
     0
 10
0.0
 20
0.0
 30
0.0
  3
*Model_Space
  1

  0
ENDBLK
  5
21
330
1F
100
AcDbEntity
  8
0
100
AcDbBlockEnd
  0
BLOCK
  5
5A
330
58
100
AcDbEntity
 67
     1
  8
0
100
AcDbBlockBegin
  2
*Paper_Space
 70
     0
 10
0.0
 20
0.0
 30
0.0
  3
*Paper_Space
  1

  0
ENDBLK
  5
5B
330
58
100
AcDbEntity
 67
     1
  8
0
100
AcDbBlockEnd
  0
BLOCK
  5
5F
330
5D
100
AcDbEntity
  8
0
100
AcDbBlockBegin
  2
*Paper_Space0
 70
     0
 10
0.0
 20
0.0
 30
0.0
  3
*Paper_Space0
  1

  0
ENDBLK
  5
60
330
5D
100
AcDbEntity
  8
0
100
AcDbBlockEnd
  0
BLOCK
  5
8A
330
89
100
AcDbEntity
  8
0
100
AcDbBlockBegin
  2
_ArchTick
 70
     0
 10
0.0
 20
0.0
 30
0.0
  3
_ArchTick
  1

  0
LWPOLYLINE
  5
8B
330
89
100
AcDbEntity
  8
0
  6
ByBlock
 62
     0
100
AcDbPolyline
 90
        2
 70
     0
 43
0.15
 10
-0.5
 20
-0.5
 10
0.5
 20
0.5
  0
ENDBLK
  5
8C
330
89
100
AcDbEntity
  8
0
100
AcDbBlockEnd
  0
BLOCK
  5
8E
330
8D
100
AcDbEntity
  8
0
100
AcDbBlockBegin
  2
arrow
 70
     0
 10
0.0
 20
0.0
 30
0.0
  3
arrow
  1

  0
HATCH
  5
8F
330
8D
100
AcDbEntity
  8
DIM
 62
   253
100
AcDbHatch
 10
0.0
 20
0.0
 30
0.0
210
0.0
220
0.0
230
1.0
  2
SOLID
 70
     1
 71
     0
 91
        1
 92
        7
 72
     0
 73
     1
 93
        3
 10
-2.0
 20
0.5
 10
-2.0
 20
-0.5
 10
0.0
 20
0.0
 97
        0
 75
     0
 76
     1
 47
0.0337394080685346
 98
        1
 10
-1.103351122172171
 20
0.05064816270351
  0
LWPOLYLINE
  5
90
330
8D
100
AcDbEntity
  8
DIM
370
    15
100
AcDbPolyline
 90
        4
 70
     0
 43
0.0
 10
0.0
 20
0.0
 10
-2.0
 20
-0.5
 10
-2.0
 20
0.5
 10
0.0
 20
0.0
  0
LWPOLYLINE
  5
91
330
8D
100
AcDbEntity
  8
DIM
370
     9
100
AcDbPolyline
 90
        2
 70
     0
 43
0.0
 10
0.3742552490839444
 20
0.0935638122700766
 10
0.0
 20
0.0
  0
LWPOLYLINE
  5
92
330
8D
100
AcDbEntity
  8
DIM
370
     9
100
AcDbPolyline
 90
        3
 70
     0
 43
0.0
 10
-2.0
 20
-0.9831764405007561
 10
-2.0
 20
-0.5
 10
-2.46875
 20
-0.6171875
  0
LWPOLYLINE
  5
93
330
8D
100
AcDbEntity
  8
DIM
370
     9
100
AcDbPolyline
 90
        3
 70
     0
 43
0.0
 10
-2.0
 20
0.9831764405007561
 10
-2.0
 20
0.5
 10
-2.46875
 20
0.6171875
  0
LWPOLYLINE
  5
94
330
8D
100
AcDbEntity
  8
DIM
370
     9
100
AcDbPolyline
 90
        2
 70
     0
 43
0.0
 10
0.3742552490839444
 20
-0.0935638122700766
 10
0.0
 20
0.0
  0
ENDBLK
  5
95
330
8D
100
AcDbEntity
  8
0
100
AcDbBlockEnd
  0
BLOCK
  5
85A
330
859
100
AcDbEntity
  8
0
 48
0.15
100
AcDbBlockBegin
  2
*D6
 70
     1
 10
0.0
 20
0.0
 30
0.0
  3
*D6
  1

  0
LINE
  5
85B
330
859
100
AcDbEntity
  8
DIM
 48
0.15
370
    -2
100
AcDbLine
 10
7258.804787169045
 20
-3362.37866615228
 30
0.0
 11
7244.452332516266
 21
-3362.37866615228
 31
0.0
  0
LINE
  5
85C
330
859
100
AcDbEntity
  8
DIM
 48
0.15
370
    -2
100
AcDbLine
 10
7259.321078680835
 20
-3366.510840404795
 30
0.0
 11
7244.452332516266
 21
-3366.510840404795
 31
0.0
  0
LINE
  5
85D
330
859
100
AcDbEntity
  8
DIM
 48
0.15
370
    -2
100
AcDbLine
 10
7244.639832516266
 20
-3362.37866615228
 30
0.0
 11
7244.639832516266
 21
-3366.510840404795
 31
0.0
  0
INSERT
  5
85E
330
859
100
AcDbEntity
  8
DIM
 48
0.15
370
    -2
100
AcDbBlockReference
  2
_ArchTick
 10
7244.639832516266
 20
-3362.37866615228
 30
0.0
 50
90.0
  0
INSERT
  5
85F
330
859
100
AcDbEntity
  8
DIM
 48
0.15
370
    -2
100
AcDbBlockReference
  2
_ArchTick
 10
7244.639832516266
 20
-3366.510840404795
 30
0.0
 50
270.0
  0
MTEXT
  5
860
330
859
100
AcDbEntity
  8
DIM
 48
0.15
100
AcDbMText
 10
7243.639832516267
 20
-3364.444753278536
 30
0.0
 40
1.0
 41
0.0
 71
     5
 72
     1
  1
\A1;.
  7
ARCTEXT
 11
0.0000000000000001
 21
1.0
 31
0.0
 73
     1
 44
1.0
1001
ACAD
1000
MTEXTBEGIN
1070
    73
1070
     1
1070
    44
1040
1.0
1070
    74
1070
     0
1000
MTEXTEND
  0
POINT
  5
861
330
859
100
AcDbEntity
  8
Defpoints
 62
     0
 48
0.15
100
AcDbPoint
 10
7259.804787169044
 20
-3362.37866615228
 30
0.0
  0
POINT
  5
862
330
859
100
AcDbEntity
  8
Defpoints
 62
     0
 48
0.15
100
AcDbPoint
 10
7260.321078680835
 20
-3366.510840404795
 30
0.0
  0
POINT
  5
863
330
859
100
AcDbEntity
  8
Defpoints
 62
     0
 48
0.15
100
AcDbPoint
 10
7244.639832516266
 20
-3366.510840404795
 30
0.0
  0
ENDBLK
  5
864
330
859
100
AcDbEntity
  8
0
 48
0.15
100
AcDbBlockEnd
  0
BLOCK
  5
105B
330
1051
100
AcDbEntity
  8
0
100
AcDbBlockBegin
  2
*D8
 70
     1
 10
0.0
 20
0.0
 30
0.0
  3
*D8
  1

  0
LINE
  5
105D
330
1051
100
AcDbEntity
  8
DIM
370
    -2
100
AcDbLine
 10
-6.349451024049841
 20
70.30828673096635
 30
0.0
 11
-20.70190567682769
 21
70.30828673096635
 31
0.0
  0
LINE
  5
105E
330
1051
100
AcDbEntity
  8
DIM
370
    -2
100
AcDbLine
 10
-5.833159512259072
 20
66.17611247845076
 30
0.0
 11
-20.70190567682769
 21
66.17611247845076
 31
0.0
  0
LINE
  5
105F
330
1051
100
AcDbEntity
  8
DIM
370
    -2
100
AcDbLine
 10
-20.51440567682769
 20
70.30828673096635
 30
0.0
 11
-20.51440567682769
 21
66.17611247845076
 31
0.0
  0
INSERT
  5
1060
330
1051
100
AcDbEntity
  8
DIM
370
    -2
100
AcDbBlockReference
  2
_ArchTick
 10
-20.51440567682769
 20
70.30828673096635
 30
0.0
 50
90.0
  0
INSERT
  5
1061
330
1051
100
AcDbEntity
  8
DIM
370
    -2
100
AcDbBlockReference
  2
_ArchTick
 10
-20.51440567682769
 20
66.17611247845076
 30
0.0
 50
270.0
  0
MTEXT
  5
1062
330
1051
100
AcDbEntity
  8
DIM
100
AcDbMText
 10
-21.51440567682771
 20
68.24219960470855
 30
0.0
 40
1.0
 41
0.0
 71
     5
 72
     1
  1
\A1;.
  7
ARCTEXT
 11
0.0000000000000001
 21
1.0
 31
0.0
 73
     1
 44
1.0
1001
ACAD
1000
MTEXTBEGIN
1070
    73
1070
     1
1070
    44
1040
1.0
1070
    74
1070
     0
1000
MTEXTEND
  0
POINT
  5
1063
330
1051
100
AcDbEntity
  8
Defpoints
 62
     0
100
AcDbPoint
 10
-5.349451024049841
 20
70.30828673096635
 30
0.0
  0
POINT
  5
1064
330
1051
100
AcDbEntity
  8
Defpoints
 62
     0
100
AcDbPoint
 10
-4.833159512259072
 20
66.17611247845076
 30
0.0
  0
POINT
  5
1065
330
1051
100
AcDbEntity
  8
Defpoints
 62
     0
100
AcDbPoint
 10
-20.51440567682769
 20
66.17611247845076
 30
0.0
  0
ENDBLK
  5
105C
330
1051
100
AcDbEntity
  8
0
100
AcDbBlockEnd
  0
ENDSEC
  0
SECTION
  2
ENTITIES
  0
MTEXT
  5
2905
330
1F
100
AcDbEntity
  8
Defpoints
100
AcDbMText
 10
-64.1537182715712
 20
31.5415855625244
 30
0.0
 40
3.0
 41
90.07999999999999
 71
     2
 72
     5
  1
{\L121\P}\P            
  7
RomanC
 73
     1
 44
1.0
1001
ACAD
1000
MTEXTBEGIN
1070
    73
1070
     1
1070
    44
1040
1.0
1070
    74
1070
     0
1000
MTEXTEND
  0
MTEXT
  5
2906
330
1F
100
AcDbEntity
  8
DIM
100
AcDbMText
 10
-27.05687660301206
 20
41.2204302709294
 30
0.0
 40
3.0
 41
71.41649521821006
 71
     2
 72
     5
  1
{\L6" WALL W/ FLUSH ON V-BUCK}\P               
  7
RomanC
 73
     1
 44
1.0
1001
ACAD
1000
MTEXTBEGIN
1070
    73
1070
     1
1070
    44
1040
1.0
1070
    74
1070
     0
1000
MTEXTEND
  0
LINE
  5
2907
330
1F
100
AcDbEntity
  8
0
 62
     1
100
AcDbLine
 10
-45.42831566058262
 20
72.51485481115668
 30
0.0
 11
-39.97831566058372
 21
72.51484284065935
 31
0.0
  0
LINE
  5
2908
330
1F
100
AcDbEntity
  8
0
 62
     1
100
AcDbLine
 10
-35.97831566058281
 20
72.51484284065935
 30
0.0
 11
-33.97831566058281
 21
72.51484284065935
 31
0.0
  0
LINE
  5
2909
330
1F
100
AcDbEntity
  8
A5 heavy
 48
0.15
100
AcDbLine
 10
-39.97831566058281
 20
72.51484284065935
 30
0.0
 11
-35.97831566058281
 21
72.51484284065935
 31
0.0
  0
LINE
  5
290A
330
1F
100
AcDbEntity
  8
0
 48
0.15
100
AcDbLine
 10
-33.47831566058099
 20
98.36363416847706
 30
0.0
 11
-33.47831566058281
 21
70.51484284065935
 31
0.0
  0
LINE
  5
290B
330
1F
100
AcDbEntity
  8
DIM
100
AcDbLine
 10
-31.08249838745101
 20
99.17556880418231
 30
0.0
 11
-38.66555047017224
 21
96.60569726207057
 31
0.0
  0
LINE
  5
290C
330
1F
100
AcDbEntity
  8
DIM
100
AcDbLine
 10
-37.96351820757096
 20
94.53567654861325
 30
0.0
 11
-38.66555047017133
 21
96.60569726207057
 31
0.0
  0
LINE
  5
290D
330
1F
100
AcDbEntity
  8
DIM
100
AcDbLine
 10
-41.41066376585527
 20
97.98282210689803
 30
0.0
 11
-40.7086315032549
 21
95.91280139344116
 31
0.0
  0
LINE
  5
290E
330
1F
100
AcDbEntity
  8
DIM
100
AcDbLine
 10
-40.7086315032549
 20
95.91280139344116
 30
0.0
 11
-48.58815737419004
 21
93.4245580732824
 31
0.0
  0
LINE
  5
290F
330
1F
100
AcDbEntity
  8
DIM
100
AcDbLine
 10
-37.96351820757096
 20
94.53567654861325
 30
0.0
 11
-41.41066376585527
 21
97.98282210689803
 31
0.0
  0
LINE
  5
2910
330
1F
100
AcDbEntity
  8
0
 48
0.15
100
AcDbLine
 10
-45.92831566058353
 20
70.2648428406589
 30
0.0
 11
-45.80331566058354
 21
70.2648428406589
 31
0.0
  0
LINE
  5
2911
330
1F
100
AcDbEntity
  8
0
 48
0.15
100
AcDbLine
 10
-45.80331566058354
 20
70.2648428406589
 30
0.0
 11
-45.80331566058354
 21
68.2648428406589
 31
0.0
  0
LINE
  5
2912
330
1F
100
AcDbEntity
  8
0
 48
0.15
100
AcDbLine
 10
-45.80331566058354
 20
68.2648428406589
 30
0.0
 11
-45.92831566058353
 21
68.2648428406589
 31
0.0
  0
LINE
  5
2913
330
1F
100
AcDbEntity
  8
0
 48
0.15
100
AcDbLine
 10
-45.92831566058353
 20
68.2648428406589
 30
0.0
 11
-45.92831566058353
 21
68.0148428406589
 31
0.0
  0
LINE
  5
2914
330
1F
100
AcDbEntity
  8
0
 48
0.15
100
AcDbLine
 10
-45.92831566058353
 20
68.0148428406589
 30
0.0
 11
-45.493586887009
 21
67.58011406708391
 31
0.0
  0
LINE
  5
2915
330
1F
100
AcDbEntity
  8
0
 48
0.15
100
AcDbLine
 10
-45.493586887009
 20
67.58011406708391
 30
0.0
 11
-44.9376597065922
 21
67.58011406708391
 31
0.0
  0
LINE
  5
2916
330
1F
100
AcDbEntity
  8
0
 48
0.15
100
AcDbLine
 10
-43.05885811343446
 20
68.0148428406589
 30
0.0
 11
-43.493586887009
 21
67.58011406708391
 31
0.0
  0
LINE
  5
2917
330
1F
100
AcDbEntity
  8
0
 48
0.15
100
AcDbLine
 10
-43.05885811343446
 20
68.0148428406589
 30
0.0
 11
-43.05885811343446
 21
69.46450766605739
 31
0.0
  0
LINE
  5
2918
330
1F
100
AcDbEntity
  8
0
 48
0.15
100
AcDbLine
 10
-43.05885811343446
 20
69.46450766605739
 30
0.0
 11
-42.55885811343446
 21
69.46450766605739
 31
0.0
  0
LINE
  5
2919
330
1F
100
AcDbEntity
  8
0
 48
0.15
100
AcDbLine
 10
-42.55885811343446
 20
69.46450766605739
 30
0.0
 11
-42.55885811343446
 21
71.0148428406589
 31
0.0
  0
LINE
  5
291A
330
1F
100
AcDbEntity
  8
0
 48
0.15
100
AcDbLine
 10
-44.93765970659128
 20
68.44061845877622
 30
0.0
 11
-44.93765970659128
 21
59.31351038007523
 31
0.0
  0
LINE
  5
291B
330
1F
100
AcDbEntity
  8
0
 48
0.15
100
AcDbLine
 10
-44.81265970659129
 20
68.44061845877622
 30
0.0
 11
-44.81265970659129
 21
59.31351038007523
 31
0.0
  0
LINE
  5
291C
330
1F
100
AcDbEntity
  8
0
 48
0.15
100
AcDbLine
 10
-44.81265970659129
 20
68.44061845877622
 30
0.0
 11
-44.93765970659128
 21
68.44061845877622
 31
0.0
  0
LINE
  5
291D
330
1F
100
AcDbEntity
  8
0
 48
0.15
100
AcDbLine
 10
-44.20772674894957
 20
68.44061845877622
 30
0.0
 11
-44.20772674894957
 21
59.31351038007523
 31
0.0
  0
LINE
  5
291E
330
1F
100
AcDbEntity
  8
0
 48
0.15
100
AcDbLine
 10
-44.08272674894956
 20
68.44061845877622
 30
0.0
 11
-44.08272674894956
 21
59.31351038007523
 31
0.0
  0
LINE
  5
291F
330
1F
100
AcDbEntity
  8
0
 48
0.15
100
AcDbLine
 10
-44.08272674894956
 20
68.44061845877622
 30
0.0
 11
-44.20772674894957
 21
68.44061845877622
 31
0.0
  0
LINE
  5
2920
330
1F
100
AcDbEntity
  8
0
 48
0.15
100
AcDbLine
 10
-44.81265970659038
 20
67.58011406708391
 30
0.0
 11
-44.20772674894957
 21
67.58011406708391
 31
0.0
  0
LINE
  5
2921
330
1F
100
AcDbEntity
  8
0
 48
0.15
100
AcDbLine
 10
-44.08272674894956
 20
67.58011406708391
 30
0.0
 11
-43.493586887009
 21
67.58011406708391
 31
0.0
  0
LINE
  5
2922
330
1F
100
AcDbEntity
  8
0
 48
0.15
100
AcDbLine
 10
-43.8474408055537
 20
68.27909619371093
 30
0.0
 11
-44.08272674894956
 21
68.27909619371093
 31
0.0
  0
LINE
  5
2923
330
1F
100
AcDbEntity
  8
0
 48
0.15
100
AcDbLine
 10
-45.18510554970831
 20
68.27909619371093
 30
0.0
 11
-45.18510554970831
 21
68.76119059361116
 31
0.0
  0
LINE
  5
2924
330
1F
100
AcDbEntity
  8
0
 48
0.15
100
AcDbLine
 10
-45.18510554970831
 20
68.76119059361116
 30
0.0
 11
-45.03892528085103
 21
68.76119059361116
 31
0.0
  0
LINE
  5
2925
330
1F
100
AcDbEntity
  8
0
 48
0.15
100
AcDbLine
 10
-43.8474408055537
 20
68.27909619371093
 30
0.0
 11
-43.8474408055537
 21
68.76119059361116
 31
0.0
  0
LINE
  5
2926
330
1F
100
AcDbEntity
  8
0
 48
0.15
100
AcDbLine
 10
-43.8474408055537
 20
68.76119059361116
 30
0.0
 11
-43.99362107441098
 21
68.76119059361116
 31
0.0
  0
ARC
  5
2927
330
1F
100
AcDbEntity
  8
0
 48
0.15
100
AcDbCircle
 10
-44.516273177631
 20
68.23853849039114
 30
0.0
 40
0.7391416927765827
100
AcDbArc
 50
44.99999999999971
 51
135.0000000000003
  0
LINE
  5
2928
330
1F
100
AcDbEntity
  8
0
 48
0.15
100
AcDbLine
 10
-44.9376597065922
 20
68.27909619371093
 30
0.0
 11
-45.18510554970831
 21
68.27909619371093
 31
0.0
  0
LINE
  5
2929
330
1F
100
AcDbEntity
  8
0
 48
0.15
100
AcDbLine
 10
-44.20772674894957
 20
68.27909619371093
 30
0.0
 11
-44.81265970659038
 21
68.27909619371093
 31
0.0
  0
MTEXT
  5
292A
330
1F
100
AcDbEntity
  8
DIM
 62
     3
100
AcDbMText
 10
-24.54364218867809
 20
57.3746551763881
 30
0.0
 40
1.0
 41
22.68954545454545
 71
     1
 72
     5
  1
WINDOW BY OTHERS
  7
RomanC
 73
     1
 44
1.0
1001
ACAD
1000
MTEXTBEGIN
1070
    73
1070
     1
1070
    44
1040
1.0
1070
    74
1070
     0
1000
MTEXTEND
  0
MTEXT
  5
292B
330
1F
100
AcDbEntity
  8
DIM
 62
     3
100
AcDbMText
 10
-24.54364218867809
 20
72.01718272114266
 30
0.0
 40
1.0
 41
22.68954545454545
 71
     1
 72
     5
  1
V-BUCK FORM
  7
RomanC
 73
     1
 44
1.0
1001
ACAD
1000
MTEXTBEGIN
1070
    73
1070
     1
1070
    44
1040
1.0
1070
    74
1070
     0
1000
MTEXTEND
  0
MTEXT
  5
292C
330
1F
100
AcDbEntity
  8
DIM
 62
     3
100
AcDbMText
 10
-24.54364218867809
 20
82.41029328577969
 30
0.0
 40
1.0
 41
22.68954545454545
 71
     1
 72
     5
  1
INTERIOR GYPSUM WALLBOARD FASTEN TO TIES
  7
RomanC
 73
     1
 44
1.0
1001
ACAD
1000
MTEXTBEGIN
1070
    73
1070
     1
1070
    44
1040
1.0
1070
    74
1070
     0
1000
MTEXTEND
  0
MTEXT
  5
292D
330
1F
100
AcDbEntity
  8
DIM
 62
     3
100
AcDbMText
 10
-24.54364218867809
 20
87.70335137342517
 30
0.0
 40
1.0
 41
22.68954545454545
 71
     1
 72
     5
  1
REINFORCEMENT PER ENGINEER
  7
RomanC
 73
     1
 44
1.0
1001
ACAD
1000
MTEXTBEGIN
1070
    73
1070
     1
1070
    44
1040
1.0
1070
    74
1070
     0
1000
MTEXTEND
  0
LEADER
  5
292E
330
1F
100
AcDbEntity
  8
DIM
 48
0.15
100
AcDbLeader
  3
ARCTEXT 1-1
 76
     3
 10
-43.61205705538501
 20
67.46164389870881
 30
0.0
 10
-32.58199853926377
 20
56.85892044700512
 30
0.0
 10
-25.5020608241322
 20
56.85892044700512
 30
0.0
1001
ACAD
1000
DSTYLE
1002
{
1070
    40
1040
1.0
1070
    41
1040
0.5
1070
    77
1070
     0
1002
}
  0
LEADER
  5
292F
330
1F
100
AcDbEntity
  8
DIM
 48
0.15
100
AcDbLeader
  3
ARCTEXT 1-1
 76
     2
 10
-33.97831566058281
 20
71.76484284065935
 30
0.0
 10
-25.43478100953521
 20
71.76484284065935
 30
0.0
1001
ACAD
1000
DSTYLE
1002
{
1070
    40
1040
1.0
1070
    41
1040
0.5
1070
    77
1070
     0
1002
}
  0
LEADER
  5
2930
330
1F
100
AcDbEntity
  8
DIM
 48
0.15
100
AcDbLeader
  3
ARCTEXT 1-1
 76
     2
 10
-33.47831566058281
 20
81.83929976555527
 30
0.0
 10
-25.29952967561272
 20
81.83929976555527
 30
0.0
1001
ACAD
1000
DSTYLE
1002
{
1070
    40
1040
1.0
1070
    41
1040
0.5
1070
    77
1070
     0
1002
}
  0
LEADER
  5
2931
330
1F
100
AcDbEntity
  8
DIM
 48
0.15
100
AcDbLeader
  3
ARCTEXT 1-1
 76
     3
 10
-38.75392473012485
 20
80.68074780234899
 30
0.0
 10
-32.18969453952937
 20
87.24497799294448
 30
0.0
 10
-25.5014152330406
 20
87.24497799294448
 30
0.0
1001
ACAD
1000
DSTYLE
1002
{
1070
    40
1040
1.0
1070
    41
1040
0.5
1070
    77
1070
     0
1002
}
  0
LINE
  5
2932
330
1F
100
AcDbEntity
  8
A5 heavy
 48
0.15
100
AcDbLine
 10
-45.55331566058263
 20
73.51485481115668
 30
0.0
 11
-45.55331566058263
 21
71.01485481115713
 31
0.0
  0
LINE
  5
2933
330
1F
100
AcDbEntity
  8
A5 heavy
 48
0.15
100
AcDbLine
 10
-45.55331566058263
 20
71.01485481115713
 30
0.0
 11
-33.85331566058372
 21
71.01484284065981
 31
0.0
  0
LINE
  5
2934
330
1F
100
AcDbEntity
  8
A5 heavy
 48
0.15
100
AcDbLine
 10
-33.85331566058281
 20
73.51484284065936
 30
0.0
 11
-33.85331566058372
 21
71.01484284065981
 31
0.0
  0
LINE
  5
2935
330
1F
100
AcDbEntity
  8
A5 heavy
 48
0.15
100
AcDbLine
 10
-33.97831566058281
 20
73.51484284065936
 30
0.0
 11
-33.85331566058281
 21
73.51484284065936
 31
0.0
  0
LINE
  5
2936
330
1F
100
AcDbEntity
  8
A5 heavy
 48
0.15
100
AcDbLine
 10
-45.42831566058262
 20
73.51485481115668
 30
0.0
 11
-45.55331566058263
 21
73.51485481115668
 31
0.0
  0
LINE
  5
2937
330
1F
100
AcDbEntity
  8
A2 Hatch
 48
0.15
100
AcDbLine
 10
-44.25038249046989
 20
72.51485481115714
 30
0.0
 11
-44.25038249046989
 21
71.01485481115713
 31
0.0
  0
LINE
  5
2938
330
1F
100
AcDbEntity
  8
A2 Hatch
 48
0.15
100
AcDbLine
 10
-35.16444058798166
 20
72.51484284065935
 30
0.0
 11
-35.16444058798166
 21
71.01484284065981
 31
0.0
  0
LINE
  5
2939
330
1F
100
AcDbEntity
  8
A2 Hatch
 48
0.15
100
AcDbLine
 10
-40.03262478406774
 20
72.5148428406589
 30
0.0
 11
-40.03262478406774
 21
71.01484284065981
 31
0.0
  0
LINE
  5
293A
330
1F
100
AcDbEntity
  8
A2 Hatch
 48
0.15
100
AcDbLine
 10
-38.97737572384372
 20
72.5148428406589
 30
0.0
 11
-38.97737572384372
 21
71.01484284065981
 31
0.0
  0
LINE
  5
293B
330
1F
100
AcDbEntity
  8
A5 heavy
 48
0.15
100
AcDbLine
 10
-39.50500025395573
 20
72.51484284065935
 30
0.0
 11
-39.50500025395573
 21
73.57605567576474
 31
0.0
  0
LINE
  5
293C
330
1F
100
AcDbEntity
  8
A5 heavy
 48
0.15
100
AcDbLine
 10
-39.50500025395573
 20
73.57605567576474
 30
0.0
 11
-39.99431000832934
 21
73.57605567576474
 31
0.0
  0
LWPOLYLINE
  5
293D
330
1F
100
AcDbEntity
  8
A5 heavy
 48
0.15
100
AcDbPolyline
 90
        3
 70
     0
 43
0.0
 10
-33.97831566058281
 20
73.51484284065936
 10
-33.97831566058281
 20
72.51484284065935
 10
-35.97831566058281
 20
72.5148428406589
  0
LWPOLYLINE
  5
293E
330
1F
100
AcDbEntity
  8
A5 heavy
 48
0.15
100
AcDbPolyline
 90
        3
 70
     0
 43
0.0
 10
-39.97831566058281
 20
72.51484284065845
 10
-45.42831566058353
 20
72.51485481115622
 10
-45.42831566058262
 20
73.51485481115668
  0
MTEXT
  5
293F
330
1F
100
AcDbEntity
  8
DIM
 62
     3
100
AcDbMText
 10
-24.37479456095858
 20
64.75169756910071
 30
0.0
 40
1.0
 41
22.68954545454545
 71
     1
 72
     5
  1
WINDOW ATTACHMENT PER MANUFACTURER
  7
RomanC
 73
     1
 44
1.0
1001
ACAD
1000
MTEXTBEGIN
1070
    73
1070
     1
1070
    44
1040
1.0
1070
    74
1070
     0
1000
MTEXTEND
  0
LEADER
  5
2940
330
1F
100
AcDbEntity
  8
DIM
 48
0.15
100
AcDbLeader
  3
ARCTEXT 1-1
 76
     3
 10
-44.67217172792257
 20
71.75949221552099
 30
0.0
 10
-32.35598099362338
 20
64.14239326307296
 30
0.0
 10
-25.39888636702031
 20
64.14239326307296
 30
0.0
1001
ACAD
1000
DSTYLE
1002
{
1070
    40
1040
1.0
1070
    41
1040
0.5
1070
    77
1070
     0
1002
}
  0
LINE
  5
2941
330
1F
100
AcDbEntity
  8
A5 heavy
 48
0.15
100
AcDbLine
 10
-45.92831566058353
 20
71.50949221552099
 30
0.0
 11
-45.92831566058353
 21
72.00949221552099
 31
0.0
  0
LINE
  5
2942
330
1F
100
AcDbEntity
  8
A5 heavy
 48
0.15
100
AcDbLine
 10
-45.92831566058353
 20
71.75949221552099
 30
0.0
 11
-44.26687303016675
 21
71.75949221552054
 31
0.0
  0
LINE
  5
2943
330
1F
100
AcDbEntity
  8
0
 48
0.15
100
AcDbLine
 10
-45.55331566058263
 20
72.733615961554
 30
0.0
 11
-45.92831566058262
 21
72.733615961554
 31
0.0
  0
LINE
  5
2944
330
1F
100
AcDbEntity
  8
0
 48
0.15
100
AcDbLine
 10
-33.47831566058281
 20
70.51484284065935
 30
0.0
 11
-42.55885811343446
 21
70.51484284065935
 31
0.0
  0
LINE
  5
2945
330
1F
100
AcDbEntity
  8
0
 62
     1
100
AcDbLine
 10
-45.42831566058262
 20
72.51483087016158
 30
0.0
 11
-42.80331566058262
 21
72.51483087016158
 31
0.0
  0
LINE
  5
2946
330
1F
100
AcDbEntity
  8
0
 62
     1
100
AcDbLine
 10
-45.42831566058262
 20
72.51483087016158
 30
0.0
 11
-43.25331566058244
 21
72.51483087016158
 31
0.0
  0
LINE
  5
2947
330
1F
100
AcDbEntity
  8
0
 62
     1
100
AcDbLine
 10
-43.00331566058335
 20
72.51483087016158
 30
0.0
 11
-42.80331566058353
 21
72.51483087016158
 31
0.0
  0
LINE
  5
2948
330
1F
100
AcDbEntity
  8
0
 48
0.15
100
AcDbLine
 10
-44.45331566058226
 20
72.51483087016158
 30
0.0
 11
-43.42831566058262
 21
72.51483087016158
 31
0.0
  0
LINE
  5
2949
330
1F
100
AcDbEntity
  8
0
 62
     1
100
AcDbLine
 10
-43.37831566058244
 20
72.51483087016158
 30
0.0
 11
-44.50331566058335
 21
72.51483087016158
 31
0.0
  0
LINE
  5
294A
330
1F
100
AcDbEntity
  8
0
 62
     1
100
AcDbLine
 10
-45.42831566058262
 20
72.51484284065935
 30
0.0
 11
-43.25331566058244
 21
72.51484284065935
 31
0.0
  0
LINE
  5
294B
330
1F
100
AcDbEntity
  8
0
 62
     1
100
AcDbLine
 10
-45.07831566058226
 20
73.01484284065935
 30
0.0
 11
-44.45331566058226
 21
73.01484284065935
 31
0.0
  0
LINE
  5
294C
330
1F
100
AcDbEntity
  8
0
 62
     1
100
AcDbLine
 10
-43.42831566058262
 20
73.01484284065935
 30
0.0
 11
-43.42831566058353
 21
72.51484284065935
 31
0.0
  0
LINE
  5
294D
330
1F
100
AcDbEntity
  8
0
 62
     1
100
AcDbLine
 10
-44.45331566058226
 20
73.01484284065935
 30
0.0
 11
-44.45331566058226
 21
72.51484284065935
 31
0.0
  0
LINE
  5
294E
330
1F
100
AcDbEntity
  8
0
 62
     1
100
AcDbLine
 10
-43.42831566058353
 20
73.01484284065935
 30
0.0
 11
-42.80331566058353
 21
73.01484284065935
 31
0.0
  0
LINE
  5
294F
330
1F
100
AcDbEntity
  8
0
 62
     1
100
AcDbLine
 10
-43.25331566058335
 20
72.76484284065936
 30
0.0
 11
-43.25331566058335
 21
72.51484284065935
 31
0.0
  0
LINE
  5
2950
330
1F
100
AcDbEntity
  8
0
 62
     1
100
AcDbLine
 10
-43.25331566058335
 20
72.76484284065936
 30
0.0
 11
-43.00331566058335
 21
72.76484284065936
 31
0.0
  0
LINE
  5
2951
330
1F
100
AcDbEntity
  8
0
 62
     1
100
AcDbLine
 10
-43.00331566058335
 20
72.51484284065935
 30
0.0
 11
-42.80331566058353
 21
72.51484284065935
 31
0.0
  0
LINE
  5
2952
330
1F
100
AcDbEntity
  8
0
 48
0.15
100
AcDbLine
 10
-44.45331566058226
 20
72.51484284065935
 30
0.0
 11
-43.42831566058262
 21
72.51484284065935
 31
0.0
  0
LINE
  5
2953
330
1F
100
AcDbEntity
  8
0
 62
     1
100
AcDbLine
 10
-43.37831566058244
 20
72.51484284065935
 30
0.0
 11
-44.50331566058335
 21
72.51484284065935
 31
0.0
  0
LINE
  5
2954
330
1F
100
AcDbEntity
  8
0
 62
     1
100
AcDbLine
 10
-34.32831566058226
 20
73.01484284065935
 30
0.0
 11
-34.32831566058226
 21
72.51484284065935
 31
0.0
  0
LINE
  5
2955
330
1F
100
AcDbEntity
  8
0
 62
     1
100
AcDbLine
 10
-35.97831566058372
 20
73.01484284065935
 30
0.0
 11
-35.97831566058372
 21
72.51484284065935
 31
0.0
  0
LINE
  5
2956
330
1F
100
AcDbEntity
  8
0
 62
     1
100
AcDbLine
 10
-34.95331566058226
 20
73.01484284065935
 30
0.0
 11
-34.95331566058226
 21
72.51484284065935
 31
0.0
  0
LINE
  5
2957
330
1F
100
AcDbEntity
  8
0
 62
     1
100
AcDbLine
 10
-36.60331566058372
 20
73.01484284065935
 30
0.0
 11
-35.97831566058372
 21
73.01484284065935
 31
0.0
  0
LINE
  5
2958
330
1F
100
AcDbEntity
  8
0
 62
     1
100
AcDbLine
 10
-34.95331566058226
 20
73.01484284065935
 30
0.0
 11
-34.32831566058226
 21
73.01484284065935
 31
0.0
  0
LINE
  5
2959
330
1F
100
AcDbEntity
  8
0
 62
     1
100
AcDbLine
 10
-36.15331566058299
 20
72.76484284065936
 30
0.0
 11
-36.15331566058299
 21
72.51484284065935
 31
0.0
  0
LINE
  5
295A
330
1F
100
AcDbEntity
  8
0
 62
     1
100
AcDbLine
 10
-36.40331566058299
 20
72.76484284065936
 30
0.0
 11
-36.15331566058299
 21
72.76484284065936
 31
0.0
  0
LINE
  5
295B
330
1F
100
AcDbEntity
  8
0
 62
     1
100
AcDbLine
 10
-36.18831566058285
 20
72.51484284065935
 30
0.0
 11
-33.97831566058281
 21
72.51484284065935
 31
0.0
  0
LINE
  5
295C
330
1F
100
AcDbEntity
  8
0
 62
     1
100
AcDbLine
 10
-36.60331566058372
 20
72.51484284065935
 30
0.0
 11
-36.40331566058299
 21
72.51484284065935
 31
0.0
  0
LINE
  5
295D
330
1F
100
AcDbEntity
  8
0
 62
     1
100
AcDbLine
 10
-45.42831566058262
 20
72.51484284065935
 30
0.0
 11
-42.80331566058262
 21
72.51484284065935
 31
0.0
  0
LINE
  5
295E
330
1F
100
AcDbEntity
  8
0
 62
     1
100
AcDbLine
 10
-42.80331566058262
 20
73.01484284065935
 30
0.0
 11
-42.80331566058262
 21
72.51484284065935
 31
0.0
  0
LINE
  5
295F
330
1F
100
AcDbEntity
  8
0
  6
HIDDEN
 62
     1
 48
0.02
100
AcDbLine
 10
-45.07831566058226
 20
73.01484284065935
 30
0.0
 11
-44.45331566058226
 21
73.01484284065935
 31
0.0
  0
LINE
  5
2960
330
1F
100
AcDbEntity
  8
0
  6
HIDDEN
 62
     1
 48
0.02
100
AcDbLine
 10
-45.07831566058226
 20
73.01484284065935
 30
0.0
 11
-45.07831566058226
 21
72.51484284065935
 31
0.0
  0
LINE
  5
2961
330
1F
100
AcDbEntity
  8
0
  6
HIDDEN
 62
     1
 48
0.02
100
AcDbLine
 10
-43.42831566058262
 20
73.01484284065935
 30
0.0
 11
-43.42831566058353
 21
72.51484284065935
 31
0.0
  0
LINE
  5
2962
330
1F
100
AcDbEntity
  8
0
  6
HIDDEN
 62
     1
 48
0.02
100
AcDbLine
 10
-44.45331566058226
 20
73.01484284065935
 30
0.0
 11
-44.45331566058226
 21
72.51484284065935
 31
0.0
  0
LINE
  5
2963
330
1F
100
AcDbEntity
  8
0
  6
HIDDEN
 62
     1
 48
0.02
100
AcDbLine
 10
-43.42831566058353
 20
73.01484284065935
 30
0.0
 11
-42.80331566058353
 21
73.01484284065935
 31
0.0
  0
LINE
  5
2964
330
1F
100
AcDbEntity
  8
0
 62
     1
100
AcDbLine
 10
-36.6033156605819
 20
72.51484284065935
 30
0.0
 11
-33.97831566058281
 21
72.51484284065935
 31
0.0
  0
LINE
  5
2965
330
1F
100
AcDbEntity
  8
0
 62
     1
100
AcDbLine
 10
-36.6033156605819
 20
73.01484284065935
 30
0.0
 11
-36.6033156605819
 21
72.51484284065935
 31
0.0
  0
LINE
  5
2966
330
1F
100
AcDbEntity
  8
0
  6
HIDDEN
 62
     1
 48
0.02
100
AcDbLine
 10
-34.32831566058045
 20
73.01484284065935
 30
0.0
 11
-34.32831566058045
 21
72.51484284065935
 31
0.0
  0
LINE
  5
2967
330
1F
100
AcDbEntity
  8
0
  6
HIDDEN
 62
     1
 48
0.02
100
AcDbLine
 10
-35.9783156605819
 20
73.01484284065935
 30
0.0
 11
-35.9783156605819
 21
72.51484284065935
 31
0.0
  0
LINE
  5
2968
330
1F
100
AcDbEntity
  8
0
  6
HIDDEN
 62
     1
 48
0.02
100
AcDbLine
 10
-34.95331566058045
 20
73.01484284065935
 30
0.0
 11
-34.95331566058045
 21
72.51484284065935
 31
0.0
  0
LINE
  5
2969
330
1F
100
AcDbEntity
  8
0
  6
HIDDEN
 62
     1
 48
0.02
100
AcDbLine
 10
-36.6033156605819
 20
73.01484284065935
 30
0.0
 11
-35.9783156605819
 21
73.01484284065935
 31
0.0
  0
LINE
  5
296A
330
1F
100
AcDbEntity
  8
0
  6
HIDDEN
 62
     1
 48
0.02
100
AcDbLine
 10
-34.95331566058045
 20
73.01484284065935
 30
0.0
 11
-34.32831566058045
 21
73.01484284065935
 31
0.0
  0
LINE
  5
296B
330
1F
100
AcDbEntity
  8
0
  6
HIDDEN
 62
     1
 48
0.02
100
AcDbLine
 10
-36.40331566058117
 20
72.76484284065936
 30
0.0
 11
-36.40331566058117
 21
72.51484284065935
 31
0.0
  0
LINE
  5
296C
330
1F
100
AcDbEntity
  8
0
  6
HIDDEN
 62
     1
 48
0.02
100
AcDbLine
 10
-36.15331566058117
 20
72.76484284065936
 30
0.0
 11
-36.15331566058117
 21
72.51484284065935
 31
0.0
  0
LINE
  5
296D
330
1F
100
AcDbEntity
  8
0
  6
HIDDEN
 62
     1
 48
0.02
100
AcDbLine
 10
-36.40331566058117
 20
72.76484284065936
 30
0.0
 11
-36.15331566058117
 21
72.76484284065936
 31
0.0
  0
LINE
  5
296E
330
1F
100
AcDbEntity
  8
0
 62
     1
100
AcDbLine
 10
-45.42831566058262
 20
84.51483087016157
 30
0.0
 11
-42.80331566058262
 21
84.51483087016157
 31
0.0
  0
LINE
  5
296F
330
1F
100
AcDbEntity
  8
0
 62
     1
100
AcDbLine
 10
-45.42831566058262
 20
84.51483087016157
 30
0.0
 11
-43.25331566058244
 21
84.51483087016157
 31
0.0
  0
LINE
  5
2970
330
1F
100
AcDbEntity
  8
0
 62
     1
100
AcDbLine
 10
-43.00331566058335
 20
84.51483087016157
 30
0.0
 11
-42.80331566058353
 21
84.51483087016157
 31
0.0
  0
LINE
  5
2971
330
1F
100
AcDbEntity
  8
0
 48
0.15
100
AcDbLine
 10
-44.45331566058226
 20
84.51483087016157
 30
0.0
 11
-43.42831566058262
 21
84.51483087016157
 31
0.0
  0
LINE
  5
2972
330
1F
100
AcDbEntity
  8
0
 62
     1
100
AcDbLine
 10
-43.37831566058244
 20
84.51483087016157
 30
0.0
 11
-44.50331566058335
 21
84.51483087016157
 31
0.0
  0
LINE
  5
2973
330
1F
100
AcDbEntity
  8
0
 62
     1
100
AcDbLine
 10
-45.42831566058262
 20
84.51484284065935
 30
0.0
 11
-45.42831566058262
 21
72.51484284065935
 31
0.0
  0
LINE
  5
2974
330
1F
100
AcDbEntity
  8
0
 62
     1
100
AcDbLine
 10
-45.42831566058262
 20
84.51484284065935
 30
0.0
 11
-43.25331566058244
 21
84.51484284065935
 31
0.0
  0
LINE
  5
2975
330
1F
100
AcDbEntity
  8
0
 62
     1
100
AcDbLine
 10
-42.80331566058262
 20
85.01484284065936
 30
0.0
 11
-42.80331566058262
 21
72.51484284065935
 31
0.0
  0
LINE
  5
2976
330
1F
100
AcDbEntity
  8
0
 62
     1
100
AcDbLine
 10
-45.07831566058226
 20
85.01484284065936
 30
0.0
 11
-44.45331566058226
 21
85.01484284065936
 31
0.0
  0
LINE
  5
2977
330
1F
100
AcDbEntity
  8
0
 62
     1
100
AcDbLine
 10
-45.07831566058226
 20
85.01484284065936
 30
0.0
 11
-45.07831566058226
 21
72.51484284065935
 31
0.0
  0
LINE
  5
2978
330
1F
100
AcDbEntity
  8
0
 62
     1
100
AcDbLine
 10
-43.42831566058262
 20
85.01484284065936
 30
0.0
 11
-43.42831566058353
 21
84.51484284065935
 31
0.0
  0
LINE
  5
2979
330
1F
100
AcDbEntity
  8
0
 62
     1
100
AcDbLine
 10
-44.45331566058226
 20
85.01484284065936
 30
0.0
 11
-44.45331566058226
 21
84.51484284065935
 31
0.0
  0
LINE
  5
297A
330
1F
100
AcDbEntity
  8
0
 62
     1
100
AcDbLine
 10
-43.42831566058353
 20
85.01484284065936
 30
0.0
 11
-42.80331566058353
 21
85.01484284065936
 31
0.0
  0
LINE
  5
297B
330
1F
100
AcDbEntity
  8
0
 62
     1
100
AcDbLine
 10
-43.00331566058335
 20
84.76484284065936
 30
0.0
 11
-43.00331566058335
 21
72.51484284065935
 31
0.0
  0
LINE
  5
297C
330
1F
100
AcDbEntity
  8
0
 62
     1
100
AcDbLine
 10
-43.25331566058335
 20
84.76484284065936
 30
0.0
 11
-43.25331566058335
 21
84.51484284065935
 31
0.0
  0
LINE
  5
297D
330
1F
100
AcDbEntity
  8
0
 62
     1
100
AcDbLine
 10
-43.25331566058335
 20
84.76484284065936
 30
0.0
 11
-43.00331566058335
 21
84.76484284065936
 31
0.0
  0
LINE
  5
297E
330
1F
100
AcDbEntity
  8
0
 62
     1
100
AcDbLine
 10
-43.00331566058335
 20
84.51484284065935
 30
0.0
 11
-42.80331566058353
 21
84.51484284065935
 31
0.0
  0
LINE
  5
297F
330
1F
100
AcDbEntity
  8
0
 48
0.15
100
AcDbLine
 10
-44.45331566058226
 20
84.51484284065935
 30
0.0
 11
-43.42831566058262
 21
84.51484284065935
 31
0.0
  0
LINE
  5
2980
330
1F
100
AcDbEntity
  8
A2 Hatch
  6
DASHED2
 48
0.15
100
AcDbLine
 10
-44.66331566058321
 20
85.01484284065936
 30
0.0
 11
-44.66331566058321
 21
72.51484284065935
 31
0.0
  0
LINE
  5
2981
330
1F
100
AcDbEntity
  8
A2 Hatch
  6
DASHED2
 48
0.15
100
AcDbLine
 10
-43.21831566058349
 20
85.01484284065936
 30
0.0
 11
-43.21831566058259
 21
72.51484284065935
 31
0.0
  0
LINE
  5
2982
330
1F
100
AcDbEntity
  8
0
 62
     1
100
AcDbLine
 10
-44.50331566058244
 20
85.01484284065936
 30
0.0
 11
-44.50331566058244
 21
72.51484284065935
 31
0.0
  0
LINE
  5
2983
330
1F
100
AcDbEntity
  8
0
 62
     1
100
AcDbLine
 10
-43.37831566058244
 20
85.01484284065936
 30
0.0
 11
-43.37831566058244
 21
72.51484284065935
 31
0.0
  0
LINE
  5
2984
330
1F
100
AcDbEntity
  8
0
 62
     1
100
AcDbLine
 10
-43.37831566058244
 20
84.51484284065935
 30
0.0
 11
-44.50331566058335
 21
84.51484284065935
 31
0.0
  0
ARC
  5
2985
330
1F
100
AcDbEntity
  8
DETAILS
 62
     6
370
    20
100
AcDbCircle
 10
-42.80331566058172
 20
76.67812106251147
 30
0.0
 40
0.0999999999999136
100
AcDbArc
 50
179.9999999996873
 51
209.7448812965932
  0
LINE
  5
2986
330
1F
100
AcDbEntity
  8
DETAILS
 62
     6
370
    20
100
AcDbLine
 10
-42.90331566058299
 20
78.76484284065935
 30
0.0
 11
-36.50331566058426
 21
78.76484284065935
 31
0.0
  0
LINE
  5
2987
330
1F
100
AcDbEntity
  8
0
 62
     1
100
AcDbLine
 10
-33.97831566058281
 20
84.51484284065935
 30
0.0
 11
-33.97831566058281
 21
72.51484284065935
 31
0.0
  0
LINE
  5
2988
330
1F
100
AcDbEntity
  8
0
 62
     1
100
AcDbLine
 10
-36.60331566058372
 20
85.01484284065936
 30
0.0
 11
-36.60331566058281
 21
72.51484284065935
 31
0.0
  0
LINE
  5
2989
330
1F
100
AcDbEntity
  8
0
 62
     1
100
AcDbLine
 10
-34.32831566058226
 20
85.01484284065936
 30
0.0
 11
-34.32831566058226
 21
84.51484284065935
 31
0.0
  0
LINE
  5
298A
330
1F
100
AcDbEntity
  8
0
 62
     1
100
AcDbLine
 10
-35.97831566058372
 20
85.01484284065936
 30
0.0
 11
-35.97831566058372
 21
84.51484284065935
 31
0.0
  0
LINE
  5
298B
330
1F
100
AcDbEntity
  8
0
 62
     1
100
AcDbLine
 10
-34.95331566058226
 20
85.01484284065936
 30
0.0
 11
-34.95331566058226
 21
84.51484284065935
 31
0.0
  0
LINE
  5
298C
330
1F
100
AcDbEntity
  8
0
 62
     1
100
AcDbLine
 10
-36.60331566058372
 20
85.01484284065936
 30
0.0
 11
-35.97831566058372
 21
85.01484284065936
 31
0.0
  0
LINE
  5
298D
330
1F
100
AcDbEntity
  8
0
 62
     1
100
AcDbLine
 10
-34.95331566058226
 20
85.01484284065936
 30
0.0
 11
-34.32831566058226
 21
85.01484284065936
 31
0.0
  0
LINE
  5
298E
330
1F
100
AcDbEntity
  8
0
 62
     1
100
AcDbLine
 10
-36.40331566058299
 20
84.76484284065936
 30
0.0
 11
-36.40331566058299
 21
72.51484284065935
 31
0.0
  0
LINE
  5
298F
330
1F
100
AcDbEntity
  8
0
 62
     1
100
AcDbLine
 10
-36.15331566058299
 20
84.76484284065936
 30
0.0
 11
-36.15331566058299
 21
84.51484284065935
 31
0.0
  0
LINE
  5
2990
330
1F
100
AcDbEntity
  8
0
 62
     1
100
AcDbLine
 10
-36.40331566058299
 20
84.76484284065936
 30
0.0
 11
-36.15331566058299
 21
84.76484284065936
 31
0.0
  0
LINE
  5
2991
330
1F
100
AcDbEntity
  8
0
 62
     1
100
AcDbLine
 10
-36.18831566058285
 20
84.51484284065935
 30
0.0
 11
-33.97831566058281
 21
84.51484284065935
 31
0.0
  0
LINE
  5
2992
330
1F
100
AcDbEntity
  8
0
 62
     1
100
AcDbLine
 10
-36.18831566058285
 20
84.51484284065935
 30
0.0
 11
-36.18831566058285
 21
72.51484284065935
 31
0.0
  0
LINE
  5
2993
330
1F
100
AcDbEntity
  8
0
 62
     1
100
AcDbLine
 10
-34.74331566058314
 20
84.51484284065935
 30
0.0
 11
-34.74331566058314
 21
72.51484284065935
 31
0.0
  0
LINE
  5
2994
330
1F
100
AcDbEntity
  8
A2 Hatch
  6
DASHED2
 48
0.15
100
AcDbLine
 10
-36.02831566058299
 20
84.51484284065935
 30
0.0
 11
-36.02831566058299
 21
72.51484284065935
 31
0.0
  0
LINE
  5
2995
330
1F
100
AcDbEntity
  8
A2 Hatch
  6
DASHED2
 48
0.15
100
AcDbLine
 10
-34.90331566058299
 20
84.51484284065935
 30
0.0
 11
-34.90331566058299
 21
72.51484284065935
 31
0.0
  0
LINE
  5
2996
330
1F
100
AcDbEntity
  8
0
 62
     1
100
AcDbLine
 10
-36.60331566058372
 20
84.51484284065935
 30
0.0
 11
-36.40331566058299
 21
84.51484284065935
 31
0.0
  0
LINE
  5
2997
330
1F
100
AcDbEntity
  8
DETAILS
 62
     6
370
    20
100
AcDbLine
 10
-42.90331566058208
 20
84.13984284065936
 30
0.0
 11
-42.90331566058299
 21
73.44209654928516
 31
0.0
  0
LINE
  5
2998
330
1F
100
AcDbEntity
  8
DETAILS
 62
     6
370
    20
100
AcDbLine
 10
-42.22831566058189
 20
79.38484284065925
 30
0.0
 11
-41.70893353667466
 21
79.38484284065925
 31
0.0
  0
ARC
  5
2999
330
1F
100
AcDbEntity
  8
DETAILS
 62
     6
370
    20
100
AcDbCircle
 10
-41.70893353667557
 20
79.53484284065933
 30
0.0
 40
0.1500000000000909
100
AcDbArc
 50
270.0000000001563
 51
43.83086067193221
  0
LINE
  5
299A
330
1F
100
AcDbEntity
  8
DETAILS
 62
     6
370
    20
100
AcDbLine
 10
-41.60072543851962
 20
79.6387226148874
 30
0.0
 11
-42.12010756242594
 21
80.17974566062383
 31
0.0
  0
ARC
  5
299B
330
1F
100
AcDbEntity
  8
DETAILS
 62
     6
370
    20
100
AcDbCircle
 10
-42.22831566058099
 20
80.07586588639531
 30
0.0
 40
0.1499999999999651
100
AcDbArc
 50
43.83086067209876
 51
179.9999999999739
  0
LINE
  5
299C
330
1F
100
AcDbEntity
  8
DETAILS
 62
     6
370
    20
100
AcDbLine
 10
-42.37831566058154
 20
80.07586588639531
 30
0.0
 11
-42.37831566058154
 21
79.53484284065888
 31
0.0
  0
ARC
  5
299D
330
1F
100
AcDbEntity
  8
DETAILS
 62
     6
370
    20
100
AcDbCircle
 10
-42.22831566058189
 20
79.53484284065888
 30
0.0
 40
0.1499999999996362
100
AcDbArc
 50
179.9999999999479
 51
270.0000000001563
  0
LINE
  5
299E
330
1F
100
AcDbEntity
  8
DETAILS
 62
     6
370
    20
100
AcDbLine
 10
-42.37831566058154
 20
78.01484284065935
 30
0.0
 11
-42.37831566058154
 21
77.47381979492292
 31
0.0
  0
ARC
  5
299F
330
1F
100
AcDbEntity
  8
DETAILS
 62
     6
370
    20
100
AcDbCircle
 10
-42.22831566058099
 20
77.47381979492292
 30
0.0
 40
0.1500000000000909
100
AcDbArc
 50
180.000000000026
 51
316.1691393279012
  0
LINE
  5
29A0
330
1F
100
AcDbEntity
  8
DETAILS
 62
     6
370
    20
100
AcDbLine
 10
-42.12010756242594
 20
77.36994002069486
 30
0.0
 11
-41.60072543851962
 21
77.91096306643083
 31
0.0
  0
ARC
  5
29A1
330
1F
100
AcDbEntity
  8
DETAILS
 62
     6
370
    20
100
AcDbCircle
 10
-41.70893353667557
 20
78.01484284065935
 30
0.0
 40
0.1500000000001751
100
AcDbArc
 50
316.1691393280678
 51
89.99999999984366
  0
LINE
  5
29A2
330
1F
100
AcDbEntity
  8
DETAILS
 62
     6
370
    20
100
AcDbLine
 10
-41.70893353667466
 20
78.16484284065899
 30
0.0
 11
-42.22831566058189
 21
78.16484284065899
 31
0.0
  0
ARC
  5
29A3
330
1F
100
AcDbEntity
  8
DETAILS
 62
     6
370
    20
100
AcDbCircle
 10
-42.22831566058189
 20
78.01484284065935
 30
0.0
 40
0.1499999999998636
100
AcDbArc
 50
89.99999999984366
 51
180.0000000000521
  0
LINE
  5
29A4
330
1F
100
AcDbEntity
  8
DETAILS
 62
     6
370
    20
100
AcDbLine
 10
-42.22831566058189
 20
79.43484284065942
 30
0.0
 11
-41.70893353667466
 21
79.43484284065942
 31
0.0
  0
ARC
  5
29A5
330
1F
100
AcDbEntity
  8
DETAILS
 62
     6
370
    20
100
AcDbCircle
 10
-41.70893353667466
 20
79.53484284065888
 30
0.0
 40
0.1000000000000227
100
AcDbArc
 50
270.0
 51
43.83086067200606
  0
LINE
  5
29A6
330
1F
100
AcDbEntity
  8
DETAILS
 62
     6
370
    20
100
AcDbLine
 10
-41.636794804571
 20
79.60409602347789
 30
0.0
 11
-42.15617692847732
 21
80.14511906921432
 31
0.0
  0
ARC
  5
29A7
330
1F
100
AcDbEntity
  8
DETAILS
 62
     6
370
    20
100
AcDbCircle
 10
-42.22831566058099
 20
80.07586588639531
 30
0.0
 40
0.1000000000001123
100
AcDbArc
 50
43.83086067206119
 51
180.0
  0
LINE
  5
29A8
330
1F
100
AcDbEntity
  8
DETAILS
 62
     6
370
    20
100
AcDbLine
 10
-42.32831566058044
 20
80.07586588639531
 30
0.0
 11
-42.32831566058135
 21
79.53484284065888
 31
0.0
  0
ARC
  5
29A9
330
1F
100
AcDbEntity
  8
DETAILS
 62
     6
370
    20
100
AcDbCircle
 10
-42.22831566058099
 20
79.53484284065933
 30
0.0
 40
0.1000000000003638
100
AcDbArc
 50
180.0000000001302
 51
269.9999999997394
  0
LINE
  5
29AA
330
1F
100
AcDbEntity
  8
DETAILS
 62
     6
370
    20
100
AcDbLine
 10
-42.32831566058135
 20
78.01484284065935
 30
0.0
 11
-42.32831566058044
 21
77.47381979492292
 31
0.0
  0
ARC
  5
29AB
330
1F
100
AcDbEntity
  8
DETAILS
 62
     6
370
    20
100
AcDbCircle
 10
-42.22831566058099
 20
77.47381979492292
 30
0.0
 40
0.0999999999999091
100
AcDbArc
 50
179.9999999999739
 51
316.1691393279939
  0
LINE
  5
29AC
330
1F
100
AcDbEntity
  8
DETAILS
 62
     6
370
    20
100
AcDbLine
 10
-42.15617692847732
 20
77.40456661210436
 30
0.0
 11
-41.636794804571
 21
77.94558965784034
 31
0.0
  0
ARC
  5
29AD
330
1F
100
AcDbEntity
  8
DETAILS
 62
     6
370
    20
100
AcDbCircle
 10
-41.70893353667466
 20
78.01484284065935
 30
0.0
 40
0.1000000000000336
100
AcDbArc
 50
316.1691393279939
 51
90.0
  0
LINE
  5
29AE
330
1F
100
AcDbEntity
  8
DETAILS
 62
     6
370
    20
100
AcDbLine
 10
-41.70893353667466
 20
78.11484284065926
 30
0.0
 11
-42.22831566058189
 21
78.11484284065926
 31
0.0
  0
ARC
  5
29AF
330
1F
100
AcDbEntity
  8
DETAILS
 62
     6
370
    20
100
AcDbCircle
 10
-42.22831566058099
 20
78.0148428406589
 30
0.0
 40
0.1000000000001364
100
AcDbArc
 50
90.00000000026055
 51
179.9999999998697
  0
LINE
  5
29B0
330
1F
100
AcDbEntity
  8
DETAILS
 62
     6
370
    20
100
AcDbLine
 10
-36.50331566058426
 20
84.13984284065936
 30
0.0
 11
-36.50331566058336
 21
73.44209654928516
 31
0.0
  0
LINE
  5
29B1
330
1F
100
AcDbEntity
  8
DETAILS
 62
     6
370
    20
100
AcDbLine
 10
-37.02831566058481
 20
79.53484284065888
 30
0.0
 11
-37.02831566058481
 21
80.07586588639531
 31
0.0
  0
ARC
  5
29B2
330
1F
100
AcDbEntity
  8
DETAILS
 62
     6
370
    20
100
AcDbCircle
 10
-37.17831566058535
 20
80.07586588639531
 30
0.0
 40
0.1500000000000909
100
AcDbArc
 50
0.0000000000260551
 51
136.1691393279012
  0
LINE
  5
29B3
330
1F
100
AcDbEntity
  8
DETAILS
 62
     6
370
    20
100
AcDbLine
 10
-37.2865237587404
 20
80.17974566062383
 30
0.0
 11
-37.80590588264673
 21
79.6387226148874
 31
0.0
  0
ARC
  5
29B4
330
1F
100
AcDbEntity
  8
DETAILS
 62
     6
370
    20
100
AcDbCircle
 10
-37.69769778449077
 20
79.53484284065933
 30
0.0
 40
0.1500000000001751
100
AcDbArc
 50
136.1691393280678
 51
269.9999999998437
  0
LINE
  5
29B5
330
1F
100
AcDbEntity
  8
DETAILS
 62
     6
370
    20
100
AcDbLine
 10
-37.69769778449168
 20
79.38484284065925
 30
0.0
 11
-37.17831566058445
 21
79.38484284065925
 31
0.0
  0
ARC
  5
29B6
330
1F
100
AcDbEntity
  8
DETAILS
 62
     6
370
    20
100
AcDbCircle
 10
-37.17831566058445
 20
79.53484284065888
 30
0.0
 40
0.1499999999998067
100
AcDbArc
 50
269.9999999998437
 51
0.0000000000781653
  0
LINE
  5
29B7
330
1F
100
AcDbEntity
  8
DETAILS
 62
     6
370
    20
100
AcDbLine
 10
-37.17831566058445
 20
78.16484284065899
 30
0.0
 11
-37.69769778449168
 21
78.16484284065899
 31
0.0
  0
ARC
  5
29B8
330
1F
100
AcDbEntity
  8
DETAILS
 62
     6
370
    20
100
AcDbCircle
 10
-37.69769778449077
 20
78.01484284065935
 30
0.0
 40
0.1500000000001478
100
AcDbArc
 50
90.00000000015633
 51
223.8308606719322
  0
LINE
  5
29B9
330
1F
100
AcDbEntity
  8
DETAILS
 62
     6
370
    20
100
AcDbLine
 10
-37.80590588264673
 20
77.91096306643083
 30
0.0
 11
-37.2865237587404
 21
77.36994002069486
 31
0.0
  0
ARC
  5
29BA
330
1F
100
AcDbEntity
  8
DETAILS
 62
     6
370
    20
100
AcDbCircle
 10
-37.17831566058535
 20
77.47381979492292
 30
0.0
 40
0.1499999999999651
100
AcDbArc
 50
223.8308606720988
 51
359.999999999974
  0
LINE
  5
29BB
330
1F
100
AcDbEntity
  8
DETAILS
 62
     6
370
    20
100
AcDbLine
 10
-37.02831566058481
 20
77.47381979492292
 30
0.0
 11
-37.02831566058481
 21
78.01484284065935
 31
0.0
  0
ARC
  5
29BC
330
1F
100
AcDbEntity
  8
DETAILS
 62
     6
370
    20
100
AcDbCircle
 10
-37.17831566058445
 20
78.01484284065935
 30
0.0
 40
0.1499999999996362
100
AcDbArc
 50
359.9999999999218
 51
90.00000000015633
  0
ARC
  5
29BD
330
1F
100
AcDbEntity
  8
DETAILS
 62
     6
370
    20
100
AcDbCircle
 10
-41.22840656284748
 20
77.25984284065924
 30
0.0
 40
0.010000000000022
100
AcDbArc
 50
97.40989078445407
 51
262.5901092155459
  0
LINE
  5
29BE
330
1F
100
AcDbEntity
  8
DETAILS
 62
     6
370
    20
100
AcDbLine
 10
-41.2296962306838
 20
77.24992635151846
 30
0.0
 11
-41.07358614108048
 21
77.23484284065915
 31
0.0
  0
LINE
  5
29BF
330
1F
100
AcDbEntity
  8
DETAILS
 62
     6
370
    20
100
AcDbLine
 10
-41.07358614108048
 20
77.23484284065915
 30
0.0
 11
-39.70331566058317
 21
77.23484284065915
 31
0.0
  0
LINE
  5
29C0
330
1F
100
AcDbEntity
  8
DETAILS
 62
     6
370
    20
100
AcDbLine
 10
-39.70331566058317
 20
77.23484284065915
 30
0.0
 11
-38.33304518008586
 21
77.23484284065915
 31
0.0
  0
LINE
  5
29C1
330
1F
100
AcDbEntity
  8
DETAILS
 62
     6
370
    20
100
AcDbLine
 10
-38.33304518008586
 20
77.23484284065915
 30
0.0
 11
-38.17693509048254
 21
77.24992635151846
 31
0.0
  0
ARC
  5
29C2
330
1F
100
AcDbEntity
  8
DETAILS
 62
     6
370
    20
100
AcDbCircle
 10
-38.17822475831886
 20
77.25984284065924
 30
0.0
 40
0.0099999999999656
100
AcDbArc
 50
277.409890784454
 51
82.59010921554594
  0
LINE
  5
29C3
330
1F
100
AcDbEntity
  8
DETAILS
 62
     6
370
    20
100
AcDbLine
 10
-38.17693509048254
 20
77.26975932979957
 30
0.0
 11
-38.33304518008495
 21
77.28484284065934
 31
0.0
  0
LINE
  5
29C4
330
1F
100
AcDbEntity
  8
DETAILS
 62
     6
370
    20
100
AcDbLine
 10
-38.33304518008495
 20
77.28484284065934
 30
0.0
 11
-39.70331566058317
 21
77.28484284065934
 31
0.0
  0
LINE
  5
29C5
330
1F
100
AcDbEntity
  8
DETAILS
 62
     6
370
    20
100
AcDbLine
 10
-39.70331566058317
 20
77.28484284065934
 30
0.0
 11
-41.07358614108048
 21
77.28484284065888
 31
0.0
  0
LINE
  5
29C6
330
1F
100
AcDbEntity
  8
DETAILS
 62
     6
370
    20
100
AcDbLine
 10
-41.07358614108048
 20
77.28484284065888
 30
0.0
 11
-41.2296962306838
 21
77.26975932979957
 31
0.0
  0
ARC
  5
29C7
330
1F
100
AcDbEntity
  8
DETAILS
 62
     6
370
    20
100
AcDbCircle
 10
-37.820937448195
 20
80.99484284065937
 30
0.0
 40
0.1000000000001364
100
AcDbArc
 50
270.0000000002606
 51
316.1691393281411
  0
LINE
  5
29C8
330
1F
100
AcDbEntity
  8
DETAILS
 62
     6
370
    20
100
AcDbLine
 10
-37.74879871609042
 20
80.92558965784036
 30
0.0
 11
-36.63117692848223
 21
82.11582068660044
 31
0.0
  0
ARC
  5
29C9
330
1F
100
AcDbEntity
  8
DETAILS
 62
     6
370
    20
100
AcDbCircle
 10
-36.70331566058318
 20
82.18507386941945
 30
0.0
 40
0.0999999999994431
100
AcDbArc
 50
316.1691393272024
 51
359.9999999992444
  0
ARC
  5
29CA
330
1F
100
AcDbEntity
  8
DETAILS
 62
     6
370
    20
100
AcDbCircle
 10
-42.70332254027031
 20
82.18507386941809
 30
0.0
 40
0.0999999999999091
100
AcDbArc
 50
179.9999999998697
 51
223.8308606719873
  0
LINE
  5
29CB
330
1F
100
AcDbEntity
  8
DETAILS
 62
     6
370
    20
100
AcDbLine
 10
-42.77546127237306
 20
82.11582068659954
 30
0.0
 11
-41.65783260507592
 21
80.92558965784036
 31
0.0
  0
ARC
  5
29CC
330
1F
100
AcDbEntity
  8
DETAILS
 62
     6
370
    20
100
AcDbCircle
 10
-41.58569387297226
 20
80.99484284065937
 30
0.0
 40
0.1000000000001911
100
AcDbArc
 50
223.8308606721345
 51
270.0
  0
LINE
  5
29CD
330
1F
100
AcDbEntity
  8
DETAILS
 62
     6
370
    20
100
AcDbLine
 10
-41.58569387297226
 20
80.89484284065946
 30
0.0
 11
-41.57831566058226
 21
80.89484284065946
 31
0.0
  0
LINE
  5
29CE
330
1F
100
AcDbEntity
  8
DETAILS
 62
     6
370
    20
100
AcDbLine
 10
-41.57831566058226
 20
80.89484284065946
 30
0.0
 11
-41.57831566058226
 21
80.84484284065927
 31
0.0
  0
LINE
  5
29CF
330
1F
100
AcDbEntity
  8
DETAILS
 62
     6
370
    20
100
AcDbLine
 10
-41.57831566058226
 20
80.84484284065927
 30
0.0
 11
-41.47831566058189
 21
80.84484284065927
 31
0.0
  0
ARC
  5
29D0
330
1F
100
AcDbEntity
  8
DETAILS
 62
     6
370
    20
100
AcDbCircle
 10
-41.47831566058189
 20
80.79484284065911
 30
0.0
 40
0.0500000000001819
100
AcDbArc
 50
359.9999999998697
 51
90.0
  0
LINE
  5
29D1
330
1F
100
AcDbEntity
  8
DETAILS
 62
     6
370
    20
100
AcDbLine
 10
-41.4283156605808
 20
80.79484284065911
 30
0.0
 11
-41.42831566058262
 21
80.73984284065927
 31
0.0
  0
ARC
  5
29D2
330
1F
100
AcDbEntity
  8
DETAILS
 62
     6
370
    20
100
AcDbCircle
 10
-41.00331566058153
 20
80.73984284065881
 30
0.0
 40
0.4250000000001819
100
AcDbArc
 50
179.9999999999739
 51
359.999999999974
  0
LINE
  5
29D3
330
1F
100
AcDbEntity
  8
DETAILS
 62
     6
370
    20
100
AcDbLine
 10
-40.57831566058226
 20
80.73984284065881
 30
0.0
 11
-40.57831566058226
 21
80.79484284065911
 31
0.0
  0
ARC
  5
29D4
330
1F
100
AcDbEntity
  8
DETAILS
 62
     6
370
    20
100
AcDbCircle
 10
-40.52831566058208
 20
80.79484284065911
 30
0.0
 40
0.0500000000001819
100
AcDbArc
 50
90.0
 51
179.9999999996613
  0
LINE
  5
29D5
330
1F
100
AcDbEntity
  8
DETAILS
 62
     6
370
    20
100
AcDbLine
 10
-40.52831566058208
 20
80.84484284065927
 30
0.0
 11
-40.17831566058262
 21
80.84484284065927
 31
0.0
  0
ARC
  5
29D6
330
1F
100
AcDbEntity
  8
DETAILS
 62
     6
370
    20
100
AcDbCircle
 10
-40.17831566058262
 20
80.79484284065911
 30
0.0
 40
0.0500000000001819
100
AcDbArc
 50
359.9999999998697
 51
90.0
  0
LINE
  5
29D7
330
1F
100
AcDbEntity
  8
DETAILS
 62
     6
370
    20
100
AcDbLine
 10
-40.12831566058244
 20
80.79484284065911
 30
0.0
 11
-40.12831566058335
 21
80.73984284065607
 31
0.0
  0
ARC
  5
29D8
330
1F
100
AcDbEntity
  8
DETAILS
 62
     6
370
    20
100
AcDbCircle
 10
-39.70331566058226
 20
80.73984284065607
 30
0.0
 40
0.4250000000001819
100
AcDbArc
 50
180.0
 51
270.0
  0
ARC
  5
29D9
330
1F
100
AcDbEntity
  8
DETAILS
 62
     6
370
    20
100
AcDbCircle
 10
-39.70331566058317
 20
80.73984284065607
 30
0.0
 40
0.4249999999997272
100
AcDbArc
 50
270.0000000000521
 51
0.0000000000521102
  0
LINE
  5
29DA
330
1F
100
AcDbEntity
  8
DETAILS
 62
     6
370
    20
100
AcDbLine
 10
-39.27831566058299
 20
80.73984284065607
 30
0.0
 11
-39.2783156605839
 21
80.79484284065911
 31
0.0
  0
ARC
  5
29DB
330
1F
100
AcDbEntity
  8
DETAILS
 62
     6
370
    20
100
AcDbCircle
 10
-39.22831566058372
 20
80.79484284065911
 30
0.0
 40
0.0500000000001819
100
AcDbArc
 50
90.0
 51
180.0
  0
LINE
  5
29DC
330
1F
100
AcDbEntity
  8
DETAILS
 62
     6
370
    20
100
AcDbLine
 10
-39.22831566058372
 20
80.84484284065927
 30
0.0
 11
-38.87831566058427
 21
80.84484284065927
 31
0.0
  0
ARC
  5
29DD
330
1F
100
AcDbEntity
  8
DETAILS
 62
     6
370
    20
100
AcDbCircle
 10
-38.87831566058427
 20
80.79484284065911
 30
0.0
 40
0.0500000000001819
100
AcDbArc
 50
0.000000000260551
 51
90.0
  0
LINE
  5
29DE
330
1F
100
AcDbEntity
  8
DETAILS
 62
     6
370
    20
100
AcDbLine
 10
-38.82831566058408
 20
80.79484284065911
 30
0.0
 11
-38.82831566058408
 21
80.73984284065881
 31
0.0
  0
ARC
  5
29DF
330
1F
100
AcDbEntity
  8
DETAILS
 62
     6
370
    20
100
AcDbCircle
 10
-38.4033156605839
 20
80.73984284065881
 30
0.0
 40
0.4249999999997272
100
AcDbArc
 50
180.000000000026
 51
0.0000000000260551
  0
LINE
  5
29E0
330
1F
100
AcDbEntity
  8
DETAILS
 62
     6
370
    20
100
AcDbLine
 10
-37.97831566058372
 20
80.73984284065927
 30
0.0
 11
-37.97831566058554
 21
80.79484284065911
 31
0.0
  0
ARC
  5
29E1
330
1F
100
AcDbEntity
  8
DETAILS
 62
     6
370
    20
100
AcDbCircle
 10
-37.92831566058445
 20
80.79484284065911
 30
0.0
 40
0.0500000000001819
100
AcDbArc
 50
90.0
 51
180.0
  0
LINE
  5
29E2
330
1F
100
AcDbEntity
  8
DETAILS
 62
     6
370
    20
100
AcDbLine
 10
-37.92831566058445
 20
80.84484284065927
 30
0.0
 11
-37.82831566058408
 21
80.84484284065927
 31
0.0
  0
LINE
  5
29E3
330
1F
100
AcDbEntity
  8
DETAILS
 62
     6
370
    20
100
AcDbLine
 10
-37.82831566058408
 20
80.84484284065927
 30
0.0
 11
-37.82831566058408
 21
80.89484284065946
 31
0.0
  0
LINE
  5
29E4
330
1F
100
AcDbEntity
  8
DETAILS
 62
     6
370
    20
100
AcDbLine
 10
-37.82831566058408
 20
80.89484284065946
 30
0.0
 11
-37.82093744819409
 21
80.89484284065946
 31
0.0
  0
LINE
  5
29E5
330
1F
100
AcDbEntity
  8
DETAILS
 62
     6
370
    20
100
AcDbLine
 10
-37.82093744819409
 20
80.89484284065946
 30
0.0
 11
-37.97831566058463
 21
80.89484284065946
 31
0.0
  0
ARC
  5
29E6
330
1F
100
AcDbEntity
  8
DETAILS
 62
     6
370
    20
100
AcDbCircle
 10
-37.97831566058463
 20
80.84484284065927
 30
0.0
 40
0.0500000000001819
100
AcDbArc
 50
90.0
 51
179.9999999998697
  0
LINE
  5
29E7
330
1F
100
AcDbEntity
  8
DETAILS
 62
     6
370
    20
100
AcDbLine
 10
-38.02831566058481
 20
80.84484284065927
 30
0.0
 11
-38.02831566058481
 21
80.73984284065927
 31
0.0
  0
ARC
  5
29E8
330
1F
100
AcDbEntity
  8
DETAILS
 62
     6
370
    20
100
AcDbCircle
 10
-38.40331566058481
 20
80.73984284065881
 30
0.0
 40
0.375
100
AcDbArc
 50
180.0
 51
0.0
  0
LINE
  5
29E9
330
1F
100
AcDbEntity
  8
DETAILS
 62
     6
370
    20
100
AcDbLine
 10
-38.77831566058481
 20
80.73984284065881
 30
0.0
 11
-38.77831566058481
 21
80.84484284065927
 31
0.0
  0
ARC
  5
29EA
330
1F
100
AcDbEntity
  8
DETAILS
 62
     6
370
    20
100
AcDbCircle
 10
-38.82831566058408
 20
80.84484284065927
 30
0.0
 40
0.0500000000001819
100
AcDbArc
 50
0.0000000001302755
 51
90.0
  0
LINE
  5
29EB
330
1F
100
AcDbEntity
  8
DETAILS
 62
     6
370
    20
100
AcDbLine
 10
-38.82831566058408
 20
80.89484284065946
 30
0.0
 11
-39.27831566058481
 21
80.89484284065946
 31
0.0
  0
ARC
  5
29EC
330
1F
100
AcDbEntity
  8
DETAILS
 62
     6
370
    20
100
AcDbCircle
 10
-39.27831566058481
 20
80.84484284065927
 30
0.0
 40
0.0500000000001251
100
AcDbArc
 50
90.0
 51
179.9999999998697
  0
LINE
  5
29ED
330
1F
100
AcDbEntity
  8
DETAILS
 62
     6
370
    20
100
AcDbLine
 10
-39.32831566058408
 20
80.84484284065927
 30
0.0
 11
-39.32831566058408
 21
80.73984284065607
 31
0.0
  0
ARC
  5
29EE
330
1F
100
AcDbEntity
  8
DETAILS
 62
     6
370
    20
100
AcDbCircle
 10
-39.70331566058317
 20
80.73984284065607
 30
0.0
 40
0.3749999999995452
100
AcDbArc
 50
270.0000000000521
 51
0.0000000000521102
  0
ARC
  5
29EF
330
1F
100
AcDbEntity
  8
DETAILS
 62
     6
370
    20
100
AcDbCircle
 10
-39.70331566058226
 20
80.73984284065607
 30
0.0
 40
0.3749999999998295
100
AcDbArc
 50
180.0
 51
269.9999999999479
  0
LINE
  5
29F0
330
1F
100
AcDbEntity
  8
DETAILS
 62
     6
370
    20
100
AcDbLine
 10
-40.07831566058226
 20
80.73984284065607
 30
0.0
 11
-40.07831566058226
 21
80.84484284065927
 31
0.0
  0
ARC
  5
29F1
330
1F
100
AcDbEntity
  8
DETAILS
 62
     6
370
    20
100
AcDbCircle
 10
-40.12831566058153
 20
80.84484284065927
 30
0.0
 40
0.0500000000001819
100
AcDbArc
 50
0.0000000001302755
 51
90.0
  0
LINE
  5
29F2
330
1F
100
AcDbEntity
  8
DETAILS
 62
     6
370
    20
100
AcDbLine
 10
-40.12831566058153
 20
80.89484284065946
 30
0.0
 11
-40.57831566058226
 21
80.89484284065946
 31
0.0
  0
ARC
  5
29F3
330
1F
100
AcDbEntity
  8
DETAILS
 62
     6
370
    20
100
AcDbCircle
 10
-40.57831566058226
 20
80.84484284065927
 30
0.0
 40
0.0500000000001819
100
AcDbArc
 50
90.0
 51
179.9999999998697
  0
LINE
  5
29F4
330
1F
100
AcDbEntity
  8
DETAILS
 62
     6
370
    20
100
AcDbLine
 10
-40.62831566058153
 20
80.84484284065927
 30
0.0
 11
-40.62831566058153
 21
80.73984284065881
 31
0.0
  0
ARC
  5
29F5
330
1F
100
AcDbEntity
  8
DETAILS
 62
     6
370
    20
100
AcDbCircle
 10
-41.00331566058153
 20
80.73984284065881
 30
0.0
 40
0.3749999999995452
100
AcDbArc
 50
179.9999999999739
 51
0.0
  0
LINE
  5
29F6
330
1F
100
AcDbEntity
  8
DETAILS
 62
     6
370
    20
100
AcDbLine
 10
-41.37831566058153
 20
80.73984284065927
 30
0.0
 11
-41.37831566058153
 21
80.84484284065927
 31
0.0
  0
ARC
  5
29F7
330
1F
100
AcDbEntity
  8
DETAILS
 62
     6
370
    20
100
AcDbCircle
 10
-41.42831566058172
 20
80.84484284065927
 30
0.0
 40
0.0500000000001819
100
AcDbArc
 50
0.0000000001302755
 51
90.0
  0
LINE
  5
29F8
330
1F
100
AcDbEntity
  8
DETAILS
 62
     6
370
    20
100
AcDbLine
 10
-41.42831566058172
 20
80.89484284065946
 30
0.0
 11
-41.58569387297226
 21
80.89484284065946
 31
0.0
  0
LINE
  5
29F9
330
1F
100
AcDbEntity
  8
DETAILS
 62
     6
370
    20
100
AcDbLine
 10
-36.60331566058281
 20
75.42342148442248
 30
0.0
 11
-36.60331566058372
 21
73.4153016300408
 31
0.0
  0
LINE
  5
29FA
330
1F
100
AcDbEntity
  8
DETAILS
 62
     6
370
    20
100
AcDbLine
 10
-42.80331566058262
 20
73.4153016300408
 30
0.0
 11
-42.80331566058353
 21
75.42342148442248
 31
0.0
  0
LINE
  5
29FB
330
1F
100
AcDbEntity
  8
DETAILS
 62
     6
370
    20
100
AcDbLine
 10
-42.90331566058299
 20
84.10098659165504
 30
0.0
 11
-42.90331566058299
 21
84.13758913203281
 31
0.0
  0
ARC
  5
29FC
330
1F
100
AcDbEntity
  8
DETAILS
 62
     6
370
    20
100
AcDbCircle
 10
-42.95331566058317
 20
84.13758913203237
 30
0.0
 40
0.0500000000001819
100
AcDbArc
 50
0.0000000004429368
 51
30.00000000045302
  0
LINE
  5
29FD
330
1F
100
AcDbEntity
  8
DETAILS
 62
     6
370
    20
100
AcDbLine
 10
-42.91001439039442
 20
84.16258913203291
 30
0.0
 11
-42.95570334502023
 21
84.24172472279241
 31
0.0
  0
LINE
  5
29FE
330
1F
100
AcDbEntity
  8
DETAILS
 62
     6
370
    20
100
AcDbLine
 10
-42.95570334502023
 20
84.24172472279241
 30
0.0
 11
-42.86910080464273
 21
84.29172472279214
 31
0.0
  0
LINE
  5
29FF
330
1F
100
AcDbEntity
  8
DETAILS
 62
     6
370
    20
100
AcDbLine
 10
-42.86910080464273
 20
84.29172472279214
 30
0.0
 11
-42.81001439039406
 21
84.18938405127727
 31
0.0
  0
ARC
  5
2A00
330
1F
100
AcDbEntity
  8
DETAILS
 62
     6
370
    20
100
AcDbCircle
 10
-42.85331566058281
 20
84.16438405127719
 30
0.0
 40
0.0499999999997213
100
AcDbArc
 50
0.0000000003387164
 51
30.00000000054656
  0
LINE
  5
2A01
330
1F
100
AcDbEntity
  8
DETAILS
 62
     6
370
    20
100
AcDbLine
 10
-42.80331566058353
 20
84.16438405127719
 30
0.0
 11
-42.80331566058172
 21
82.18507386941855
 31
0.0
  0
LINE
  5
2A02
330
1F
100
AcDbEntity
  8
DETAILS
 62
     6
370
    20
100
AcDbLine
 10
-42.80331566058172
 20
82.18507386941855
 30
0.0
 11
-42.80331566058262
 21
75.42342148442293
 31
0.0
  0
ARC
  5
2A03
330
1F
100
AcDbEntity
  8
DETAILS
 62
     6
370
    20
100
AcDbCircle
 10
-42.70331566058317
 20
75.42342148442293
 30
0.0
 40
0.0999999999999091
100
AcDbArc
 50
135.0000000001477
 51
180.0000000001302
  0
LINE
  5
2A04
330
1F
100
AcDbEntity
  8
DETAILS
 62
     6
370
    20
100
AcDbLine
 10
-42.77402633870147
 20
75.49413216254123
 30
0.0
 11
-41.12224964340398
 21
77.17090885783699
 31
0.0
  0
ARC
  5
2A05
330
1F
100
AcDbEntity
  8
DETAILS
 62
     6
370
    20
100
AcDbCircle
 10
-41.01618362622608
 20
77.06484284065954
 30
0.0
 40
0.1499999999998163
100
AcDbArc
 50
90.0
 51
135.0000000000187
  0
LINE
  5
2A06
330
1F
100
AcDbEntity
  8
DETAILS
 62
     6
370
    20
100
AcDbLine
 10
-41.01618362622608
 20
77.21484284065917
 30
0.0
 11
-39.70331566058317
 21
77.21484284065917
 31
0.0
  0
LINE
  5
2A07
330
1F
100
AcDbEntity
  8
DETAILS
 62
     6
370
    20
100
AcDbLine
 10
-39.70331566058317
 20
77.21484284065917
 30
0.0
 11
-38.39044769494027
 21
77.21484284065917
 31
0.0
  0
ARC
  5
2A08
330
1F
100
AcDbEntity
  8
DETAILS
 62
     6
370
    20
100
AcDbCircle
 10
-38.39044769494027
 20
77.06484284065954
 30
0.0
 40
0.1499999999998067
100
AcDbArc
 50
44.99999999998129
 51
90.0
  0
LINE
  5
2A09
330
1F
100
AcDbEntity
  8
DETAILS
 62
     6
370
    20
100
AcDbLine
 10
-38.28438167776236
 20
77.17090885783699
 30
0.0
 11
-36.63260498246396
 21
75.49413216254123
 31
0.0
  0
ARC
  5
2A0A
330
1F
100
AcDbEntity
  8
DETAILS
 62
     6
370
    20
100
AcDbCircle
 10
-36.70331566058318
 20
75.42342148442293
 30
0.0
 40
0.0999999999999044
100
AcDbArc
 50
359.9999999998958
 51
44.99999999985233
  0
LINE
  5
2A0B
330
1F
100
AcDbEntity
  8
DETAILS
 62
     6
370
    20
100
AcDbLine
 10
-36.60331566058281
 20
75.42342148442293
 30
0.0
 11
-36.60331566058463
 21
82.18507386941855
 31
0.0
  0
LINE
  5
2A0C
330
1F
100
AcDbEntity
  8
DETAILS
 62
     6
370
    20
100
AcDbLine
 10
-36.60331566058463
 20
82.18507386941855
 30
0.0
 11
-36.60331566058281
 21
84.16438405127719
 31
0.0
  0
ARC
  5
2A0D
330
1F
100
AcDbEntity
  8
DETAILS
 62
     6
370
    20
100
AcDbCircle
 10
-36.55331566058354
 20
84.16438405127719
 30
0.0
 40
0.0500000000001819
100
AcDbArc
 50
149.9999999997343
 51
179.9999999997394
  0
LINE
  5
2A0E
330
1F
100
AcDbEntity
  8
DETAILS
 62
     6
370
    20
100
AcDbLine
 10
-36.59661693077229
 20
84.18938405127773
 30
0.0
 11
-36.53753051652362
 21
84.29172472279214
 31
0.0
  0
LINE
  5
2A0F
330
1F
100
AcDbEntity
  8
DETAILS
 62
     6
370
    20
100
AcDbLine
 10
-36.53753051652362
 20
84.29172472279214
 30
0.0
 11
-36.45092797614612
 21
84.24172472279241
 31
0.0
  0
LINE
  5
2A10
330
1F
100
AcDbEntity
  8
DETAILS
 62
     6
370
    20
100
AcDbLine
 10
-36.45092797614612
 20
84.24172472279241
 30
0.0
 11
-36.49661693077192
 21
84.16258913203291
 31
0.0
  0
ARC
  5
2A11
330
1F
100
AcDbEntity
  8
DETAILS
 62
     6
370
    20
100
AcDbCircle
 10
-36.45331566058317
 20
84.13758913203237
 30
0.0
 40
0.0500000000002004
100
AcDbArc
 50
149.999999999547
 51
179.999999999531
  0
LINE
  5
2A12
330
1F
100
AcDbEntity
  8
DETAILS
 62
     6
370
    20
100
AcDbLine
 10
-36.50331566058336
 20
84.13758913203281
 30
0.0
 11
-36.50331566058336
 21
84.10098659165504
 31
0.0
  0
LINE
  5
2A13
330
1F
100
AcDbEntity
  8
DETAILS
 62
     6
370
    20
100
AcDbLine
 10
-37.07831566058499
 20
79.53484284065888
 30
0.0
 11
-37.0783156605859
 21
80.07586588639531
 31
0.0
  0
ARC
  5
2A14
330
1F
100
AcDbEntity
  8
DETAILS
 62
     6
370
    20
100
AcDbCircle
 10
-37.17831566058535
 20
80.07586588639531
 30
0.0
 40
0.0999999999999091
100
AcDbArc
 50
0.0
 51
136.1691393279388
  0
LINE
  5
2A15
330
1F
100
AcDbEntity
  8
DETAILS
 62
     6
370
    20
100
AcDbLine
 10
-37.25045439268902
 20
80.14511906921432
 30
0.0
 11
-37.76983651659535
 21
79.60409602347789
 31
0.0
  0
ARC
  5
2A16
330
1F
100
AcDbEntity
  8
DETAILS
 62
     6
370
    20
100
AcDbCircle
 10
-37.69769778449168
 20
79.53484284065933
 30
0.0
 40
0.1000000000000336
100
AcDbArc
 50
136.1691393279939
 51
270.0
  0
LINE
  5
2A17
330
1F
100
AcDbEntity
  8
DETAILS
 62
     6
370
    20
100
AcDbLine
 10
-37.69769778449168
 20
79.43484284065942
 30
0.0
 11
-37.17831566058445
 21
79.43484284065942
 31
0.0
  0
ARC
  5
2A18
330
1F
100
AcDbEntity
  8
DETAILS
 62
     6
370
    20
100
AcDbCircle
 10
-37.17831566058535
 20
79.53484284065933
 30
0.0
 40
0.1000000000001364
100
AcDbArc
 50
270.0000000002606
 51
359.9999999998958
  0
LINE
  5
2A19
330
1F
100
AcDbEntity
  8
DETAILS
 62
     6
370
    20
100
AcDbLine
 10
-37.17831566058445
 20
78.11484284065926
 30
0.0
 11
-37.69769778449168
 21
78.11484284065926
 31
0.0
  0
ARC
  5
2A1A
330
1F
100
AcDbEntity
  8
DETAILS
 62
     6
370
    20
100
AcDbCircle
 10
-37.69769778449168
 20
78.01484284065935
 30
0.0
 40
0.1000000000000227
100
AcDbArc
 50
90.0
 51
223.830860672006
  0
LINE
  5
2A1B
330
1F
100
AcDbEntity
  8
DETAILS
 62
     6
370
    20
100
AcDbLine
 10
-37.76983651659535
 20
77.94558965784034
 30
0.0
 11
-37.25045439268902
 21
77.40456661210436
 31
0.0
  0
ARC
  5
2A1C
330
1F
100
AcDbEntity
  8
DETAILS
 62
     6
370
    20
100
AcDbCircle
 10
-37.17831566058535
 20
77.47381979492292
 30
0.0
 40
0.1000000000000336
100
AcDbArc
 50
223.830860672006
 51
0.0000000000260551
  0
LINE
  5
2A1D
330
1F
100
AcDbEntity
  8
DETAILS
 62
     6
370
    20
100
AcDbLine
 10
-37.0783156605859
 20
77.47381979492292
 30
0.0
 11
-37.07831566058499
 21
78.01484284065935
 31
0.0
  0
ARC
  5
2A1E
330
1F
100
AcDbEntity
  8
DETAILS
 62
     6
370
    20
100
AcDbCircle
 10
-37.17831566058535
 20
78.0148428406589
 30
0.0
 40
0.1000000000003638
100
AcDbArc
 50
0.0000000001042204
 51
89.99999999973944
  0
LINE
  5
2A1F
330
1F
100
AcDbEntity
  8
0
 62
     1
100
AcDbLine
 10
-45.42831566058262
 20
84.51484284065935
 30
0.0
 11
-42.80331566058262
 21
84.51484284065935
 31
0.0
  0
LINE
  5
2A20
330
1F
100
AcDbEntity
  8
0
 62
     1
100
AcDbLine
 10
-42.80331566058262
 20
85.01484284065936
 30
0.0
 11
-42.80331566058262
 21
84.51484284065935
 31
0.0
  0
LINE
  5
2A21
330
1F
100
AcDbEntity
  8
0
  6
HIDDEN
 62
     1
 48
0.02
100
AcDbLine
 10
-45.07831566058226
 20
85.01484284065936
 30
0.0
 11
-44.45331566058226
 21
85.01484284065936
 31
0.0
  0
LINE
  5
2A22
330
1F
100
AcDbEntity
  8
0
  6
HIDDEN
 62
     1
 48
0.02
100
AcDbLine
 10
-45.07831566058226
 20
85.01484284065936
 30
0.0
 11
-45.07831566058226
 21
84.51484284065935
 31
0.0
  0
LINE
  5
2A23
330
1F
100
AcDbEntity
  8
0
  6
HIDDEN
 62
     1
 48
0.02
100
AcDbLine
 10
-43.42831566058262
 20
85.01484284065936
 30
0.0
 11
-43.42831566058353
 21
84.51484284065935
 31
0.0
  0
LINE
  5
2A24
330
1F
100
AcDbEntity
  8
0
  6
HIDDEN
 62
     1
 48
0.02
100
AcDbLine
 10
-44.45331566058226
 20
85.01484284065936
 30
0.0
 11
-44.45331566058226
 21
84.51484284065935
 31
0.0
  0
LINE
  5
2A25
330
1F
100
AcDbEntity
  8
0
  6
HIDDEN
 62
     1
 48
0.02
100
AcDbLine
 10
-43.42831566058353
 20
85.01484284065936
 30
0.0
 11
-42.80331566058353
 21
85.01484284065936
 31
0.0
  0
LINE
  5
2A26
330
1F
100
AcDbEntity
  8
0
 62
     1
100
AcDbLine
 10
-36.6033156605819
 20
84.51484284065935
 30
0.0
 11
-33.97831566058281
 21
84.51484284065935
 31
0.0
  0
LINE
  5
2A27
330
1F
100
AcDbEntity
  8
0
 62
     1
100
AcDbLine
 10
-36.6033156605819
 20
85.01484284065936
 30
0.0
 11
-36.6033156605819
 21
84.51484284065935
 31
0.0
  0
LINE
  5
2A28
330
1F
100
AcDbEntity
  8
0
  6
HIDDEN
 62
     1
 48
0.02
100
AcDbLine
 10
-34.32831566058045
 20
85.01484284065936
 30
0.0
 11
-34.32831566058045
 21
84.51484284065935
 31
0.0
  0
LINE
  5
2A29
330
1F
100
AcDbEntity
  8
0
  6
HIDDEN
 62
     1
 48
0.02
100
AcDbLine
 10
-35.9783156605819
 20
85.01484284065936
 30
0.0
 11
-35.9783156605819
 21
84.51484284065935
 31
0.0
  0
LINE
  5
2A2A
330
1F
100
AcDbEntity
  8
0
  6
HIDDEN
 62
     1
 48
0.02
100
AcDbLine
 10
-34.95331566058045
 20
85.01484284065936
 30
0.0
 11
-34.95331566058045
 21
84.51484284065935
 31
0.0
  0
LINE
  5
2A2B
330
1F
100
AcDbEntity
  8
0
  6
HIDDEN
 62
     1
 48
0.02
100
AcDbLine
 10
-36.6033156605819
 20
85.01484284065936
 30
0.0
 11
-35.9783156605819
 21
85.01484284065936
 31
0.0
  0
LINE
  5
2A2C
330
1F
100
AcDbEntity
  8
0
  6
HIDDEN
 62
     1
 48
0.02
100
AcDbLine
 10
-34.95331566058045
 20
85.01484284065936
 30
0.0
 11
-34.32831566058045
 21
85.01484284065936
 31
0.0
  0
LINE
  5
2A2D
330
1F
100
AcDbEntity
  8
0
  6
HIDDEN
 62
     1
 48
0.02
100
AcDbLine
 10
-36.40331566058117
 20
84.76484284065936
 30
0.0
 11
-36.40331566058117
 21
84.51484284065935
 31
0.0
  0
LINE
  5
2A2E
330
1F
100
AcDbEntity
  8
0
  6
HIDDEN
 62
     1
 48
0.02
100
AcDbLine
 10
-36.15331566058117
 20
84.76484284065936
 30
0.0
 11
-36.15331566058117
 21
84.51484284065935
 31
0.0
  0
LINE
  5
2A2F
330
1F
100
AcDbEntity
  8
0
  6
HIDDEN
 62
     1
 48
0.02
100
AcDbLine
 10
-36.40331566058117
 20
84.76484284065936
 30
0.0
 11
-36.15331566058117
 21
84.76484284065936
 31
0.0
  0
LINE
  5
2A30
330
1F
100
AcDbEntity
  8
0
 62
     1
100
AcDbLine
 10
-45.42831566058262
 20
72.51484284065935
 30
0.0
 11
-42.80331566058262
 21
72.51484284065935
 31
0.0
  0
LINE
  5
2A31
330
1F
100
AcDbEntity
  8
0
 62
     1
100
AcDbLine
 10
-45.42831566058262
 20
72.51484284065935
 30
0.0
 11
-43.25331566058244
 21
72.51484284065935
 31
0.0
  0
LINE
  5
2A32
330
1F
100
AcDbEntity
  8
0
 62
     1
100
AcDbLine
 10
-43.00331566058335
 20
72.51484284065935
 30
0.0
 11
-42.80331566058353
 21
72.51484284065935
 31
0.0
  0
LINE
  5
2A33
330
1F
100
AcDbEntity
  8
0
 48
0.15
100
AcDbLine
 10
-44.45331566058226
 20
72.51484284065935
 30
0.0
 11
-43.42831566058262
 21
72.51484284065935
 31
0.0
  0
LINE
  5
2A34
330
1F
100
AcDbEntity
  8
0
 62
     1
100
AcDbLine
 10
-43.37831566058244
 20
72.51484284065935
 30
0.0
 11
-44.50331566058335
 21
72.51484284065935
 31
0.0
  0
LINE
  5
2A35
330
1F
100
AcDbEntity
  8
0
 62
     1
100
AcDbLine
 10
-45.42831566058262
 20
72.51485481115668
 30
0.0
 11
-43.25331566058244
 21
72.51485481115668
 31
0.0
  0
LINE
  5
2A36
330
1F
100
AcDbEntity
  8
0
 62
     1
100
AcDbLine
 10
-45.07831566058226
 20
73.01485481115668
 30
0.0
 11
-44.45331566058226
 21
73.01485481115668
 31
0.0
  0
LINE
  5
2A37
330
1F
100
AcDbEntity
  8
0
 62
     1
100
AcDbLine
 10
-43.42831566058262
 20
73.01485481115668
 30
0.0
 11
-43.42831566058353
 21
72.51485481115668
 31
0.0
  0
LINE
  5
2A38
330
1F
100
AcDbEntity
  8
0
 62
     1
100
AcDbLine
 10
-44.45331566058226
 20
73.01485481115668
 30
0.0
 11
-44.45331566058226
 21
72.51485481115668
 31
0.0
  0
LINE
  5
2A39
330
1F
100
AcDbEntity
  8
0
 62
     1
100
AcDbLine
 10
-43.42831566058353
 20
73.01485481115668
 30
0.0
 11
-42.80331566058353
 21
73.01485481115668
 31
0.0
  0
LINE
  5
2A3A
330
1F
100
AcDbEntity
  8
0
 62
     1
100
AcDbLine
 10
-43.25331566058335
 20
72.76485481115668
 30
0.0
 11
-43.25331566058335
 21
72.51485481115668
 31
0.0
  0
LINE
  5
2A3B
330
1F
100
AcDbEntity
  8
0
 62
     1
100
AcDbLine
 10
-43.25331566058335
 20
72.76485481115668
 30
0.0
 11
-43.00331566058335
 21
72.76485481115668
 31
0.0
  0
LINE
  5
2A3C
330
1F
100
AcDbEntity
  8
0
 62
     1
100
AcDbLine
 10
-43.00331566058335
 20
72.51485481115668
 30
0.0
 11
-42.80331566058353
 21
72.51485481115668
 31
0.0
  0
LINE
  5
2A3D
330
1F
100
AcDbEntity
  8
0
 48
0.15
100
AcDbLine
 10
-44.45331566058226
 20
72.51485481115668
 30
0.0
 11
-43.42831566058262
 21
72.51485481115668
 31
0.0
  0
LINE
  5
2A3E
330
1F
100
AcDbEntity
  8
0
 62
     1
100
AcDbLine
 10
-43.37831566058244
 20
72.51485481115668
 30
0.0
 11
-44.50331566058335
 21
72.51485481115668
 31
0.0
  0
LINE
  5
2A3F
330
1F
100
AcDbEntity
  8
0
 62
     1
100
AcDbLine
 10
-34.32831566058226
 20
73.01485481115668
 30
0.0
 11
-34.32831566058226
 21
72.51485481115668
 31
0.0
  0
LINE
  5
2A40
330
1F
100
AcDbEntity
  8
0
 62
     1
100
AcDbLine
 10
-35.97831566058372
 20
73.01485481115668
 30
0.0
 11
-35.97831566058372
 21
72.51485481115668
 31
0.0
  0
LINE
  5
2A41
330
1F
100
AcDbEntity
  8
0
 62
     1
100
AcDbLine
 10
-34.95331566058226
 20
73.01485481115668
 30
0.0
 11
-34.95331566058226
 21
72.51485481115668
 31
0.0
  0
LINE
  5
2A42
330
1F
100
AcDbEntity
  8
0
 62
     1
100
AcDbLine
 10
-36.60331566058372
 20
73.01485481115668
 30
0.0
 11
-35.97831566058372
 21
73.01485481115668
 31
0.0
  0
LINE
  5
2A43
330
1F
100
AcDbEntity
  8
0
 62
     1
100
AcDbLine
 10
-34.95331566058226
 20
73.01485481115668
 30
0.0
 11
-34.32831566058226
 21
73.01485481115668
 31
0.0
  0
LINE
  5
2A44
330
1F
100
AcDbEntity
  8
0
 62
     1
100
AcDbLine
 10
-36.15331566058299
 20
72.76485481115668
 30
0.0
 11
-36.15331566058299
 21
72.51485481115668
 31
0.0
  0
LINE
  5
2A45
330
1F
100
AcDbEntity
  8
0
 62
     1
100
AcDbLine
 10
-36.40331566058299
 20
72.76485481115668
 30
0.0
 11
-36.15331566058299
 21
72.76485481115668
 31
0.0
  0
LINE
  5
2A46
330
1F
100
AcDbEntity
  8
0
 62
     1
100
AcDbLine
 10
-36.18831566058285
 20
72.51485481115668
 30
0.0
 11
-33.97831566058281
 21
72.51485481115668
 31
0.0
  0
LINE
  5
2A47
330
1F
100
AcDbEntity
  8
0
 62
     1
100
AcDbLine
 10
-36.60331566058372
 20
72.51485481115668
 30
0.0
 11
-36.40331566058299
 21
72.51485481115668
 31
0.0
  0
LINE
  5
2A48
330
1F
100
AcDbEntity
  8
0
 62
     1
100
AcDbLine
 10
-45.42831566058262
 20
72.51485481115668
 30
0.0
 11
-42.80331566058262
 21
72.51485481115668
 31
0.0
  0
LINE
  5
2A49
330
1F
100
AcDbEntity
  8
0
 62
     1
100
AcDbLine
 10
-42.80331566058262
 20
73.01485481115668
 30
0.0
 11
-42.80331566058262
 21
72.51485481115668
 31
0.0
  0
LINE
  5
2A4A
330
1F
100
AcDbEntity
  8
0
  6
HIDDEN
 62
     1
 48
0.02
100
AcDbLine
 10
-45.07831566058226
 20
73.01485481115668
 30
0.0
 11
-44.45331566058226
 21
73.01485481115668
 31
0.0
  0
LINE
  5
2A4B
330
1F
100
AcDbEntity
  8
0
  6
HIDDEN
 62
     1
 48
0.02
100
AcDbLine
 10
-45.07831566058226
 20
73.01485481115668
 30
0.0
 11
-45.07831566058226
 21
72.51485481115668
 31
0.0
  0
LINE
  5
2A4C
330
1F
100
AcDbEntity
  8
0
  6
HIDDEN
 62
     1
 48
0.02
100
AcDbLine
 10
-43.42831566058262
 20
73.01485481115668
 30
0.0
 11
-43.42831566058353
 21
72.51485481115668
 31
0.0
  0
LINE
  5
2A4D
330
1F
100
AcDbEntity
  8
0
  6
HIDDEN
 62
     1
 48
0.02
100
AcDbLine
 10
-44.45331566058226
 20
73.01485481115668
 30
0.0
 11
-44.45331566058226
 21
72.51485481115668
 31
0.0
  0
LINE
  5
2A4E
330
1F
100
AcDbEntity
  8
0
  6
HIDDEN
 62
     1
 48
0.02
100
AcDbLine
 10
-43.42831566058353
 20
73.01485481115668
 30
0.0
 11
-42.80331566058353
 21
73.01485481115668
 31
0.0
  0
LINE
  5
2A4F
330
1F
100
AcDbEntity
  8
0
 62
     1
100
AcDbLine
 10
-36.6033156605819
 20
72.51485481115668
 30
0.0
 11
-33.97831566058281
 21
72.51485481115668
 31
0.0
  0
LINE
  5
2A50
330
1F
100
AcDbEntity
  8
0
 62
     1
100
AcDbLine
 10
-36.6033156605819
 20
73.01485481115668
 30
0.0
 11
-36.6033156605819
 21
72.51485481115668
 31
0.0
  0
LINE
  5
2A51
330
1F
100
AcDbEntity
  8
0
  6
HIDDEN
 62
     1
 48
0.02
100
AcDbLine
 10
-34.32831566058045
 20
73.01485481115668
 30
0.0
 11
-34.32831566058045
 21
72.51485481115668
 31
0.0
  0
LINE
  5
2A52
330
1F
100
AcDbEntity
  8
0
  6
HIDDEN
 62
     1
 48
0.02
100
AcDbLine
 10
-35.9783156605819
 20
73.01485481115668
 30
0.0
 11
-35.9783156605819
 21
72.51485481115668
 31
0.0
  0
LINE
  5
2A53
330
1F
100
AcDbEntity
  8
0
  6
HIDDEN
 62
     1
 48
0.02
100
AcDbLine
 10
-34.95331566058045
 20
73.01485481115668
 30
0.0
 11
-34.95331566058045
 21
72.51485481115668
 31
0.0
  0
LINE
  5
2A54
330
1F
100
AcDbEntity
  8
0
  6
HIDDEN
 62
     1
 48
0.02
100
AcDbLine
 10
-36.6033156605819
 20
73.01485481115668
 30
0.0
 11
-35.9783156605819
 21
73.01485481115668
 31
0.0
  0
LINE
  5
2A55
330
1F
100
AcDbEntity
  8
0
  6
HIDDEN
 62
     1
 48
0.02
100
AcDbLine
 10
-34.95331566058045
 20
73.01485481115668
 30
0.0
 11
-34.32831566058045
 21
73.01485481115668
 31
0.0
  0
LINE
  5
2A56
330
1F
100
AcDbEntity
  8
0
  6
HIDDEN
 62
     1
 48
0.02
100
AcDbLine
 10
-36.40331566058117
 20
72.76485481115668
 30
0.0
 11
-36.40331566058117
 21
72.51485481115668
 31
0.0
  0
LINE
  5
2A57
330
1F
100
AcDbEntity
  8
0
  6
HIDDEN
 62
     1
 48
0.02
100
AcDbLine
 10
-36.15331566058117
 20
72.76485481115668
 30
0.0
 11
-36.15331566058117
 21
72.51485481115668
 31
0.0
  0
LINE
  5
2A58
330
1F
100
AcDbEntity
  8
0
  6
HIDDEN
 62
     1
 48
0.02
100
AcDbLine
 10
-36.40331566058117
 20
72.76485481115668
 30
0.0
 11
-36.15331566058117
 21
72.76485481115668
 31
0.0
  0
ARC
  5
2A59
330
1F
100
AcDbEntity
  8
DETAILS
 62
     6
370
    20
100
AcDbCircle
 10
-36.55331566058535
 20
73.41531360053858
 30
0.0
 40
0.0499999999997272
100
AcDbArc
 50
180.0000000004429
 51
210.0000000006405
  0
LINE
  5
2A5A
330
1F
100
AcDbEntity
  8
DETAILS
 62
     6
370
    20
100
AcDbLine
 10
-36.5966169307741
 20
73.39031360053849
 30
0.0
 11
-36.53753051652635
 21
73.28797292902362
 31
0.0
  0
LINE
  5
2A5B
330
1F
100
AcDbEntity
  8
DETAILS
 62
     6
370
    20
100
AcDbLine
 10
-36.53753051652635
 20
73.28797292902362
 30
0.0
 11
-36.45092797614794
 21
73.33797292902381
 31
0.0
  0
LINE
  5
2A5C
330
1F
100
AcDbEntity
  8
DETAILS
 62
     6
370
    20
100
AcDbLine
 10
-36.45092797614794
 20
73.33797292902381
 30
0.0
 11
-36.49661693077465
 21
73.4171085197824
 31
0.0
  0
ARC
  5
2A5D
330
1F
100
AcDbEntity
  8
DETAILS
 62
     6
370
    20
100
AcDbCircle
 10
-36.4533156605859
 20
73.44210851978295
 30
0.0
 40
0.0499999999997213
100
AcDbArc
 50
180.0000000003126
 51
210.0000000005465
  0
LINE
  5
2A5E
330
1F
100
AcDbEntity
  8
DETAILS
 62
     6
370
    20
100
AcDbLine
 10
-36.50331566058608
 20
73.44210851978295
 30
0.0
 11
-36.50331566058517
 21
73.47871106016118
 31
0.0
  0
LINE
  5
2A5F
330
1F
100
AcDbEntity
  8
DETAILS
 62
     6
370
    20
100
AcDbLine
 10
-42.90331566058299
 20
73.47871106016026
 30
0.0
 11
-42.90331566058299
 21
73.44210851978295
 31
0.0
  0
ARC
  5
2A60
330
1F
100
AcDbEntity
  8
DETAILS
 62
     6
370
    20
100
AcDbCircle
 10
-42.95331566058317
 20
73.44210851978295
 30
0.0
 40
0.0499999999997272
100
AcDbArc
 50
329.9999999994534
 51
359.9999999996613
  0
LINE
  5
2A61
330
1F
100
AcDbEntity
  8
DETAILS
 62
     6
370
    20
100
AcDbLine
 10
-42.91001439039442
 20
73.4171085197824
 30
0.0
 11
-42.95570334502113
 21
73.33797292902289
 31
0.0
  0
LINE
  5
2A62
330
1F
100
AcDbEntity
  8
DETAILS
 62
     6
370
    20
100
AcDbLine
 10
-42.95570334502113
 20
73.33797292902289
 30
0.0
 11
-42.86910080464273
 21
73.28797292902362
 31
0.0
  0
LINE
  5
2A63
330
1F
100
AcDbEntity
  8
DETAILS
 62
     6
370
    20
100
AcDbLine
 10
-42.86910080464273
 20
73.28797292902362
 30
0.0
 11
-42.81001439039497
 21
73.39031360053849
 31
0.0
  0
ARC
  5
2A64
330
1F
100
AcDbEntity
  8
DETAILS
 62
     6
370
    20
100
AcDbCircle
 10
-42.85331566058371
 20
73.41531360053858
 30
0.0
 40
0.0499999999997782
100
AcDbArc
 50
329.9999999993595
 51
359.999999999531
  0
LINE
  5
2A65
330
1F
100
AcDbEntity
  8
0
 62
     1
100
AcDbLine
 10
-45.42831566058262
 20
84.51484284065935
 30
0.0
 11
-42.80331566058262
 21
84.51484284065935
 31
0.0
  0
LINE
  5
2A66
330
1F
100
AcDbEntity
  8
0
 62
     1
100
AcDbLine
 10
-45.42831566058262
 20
84.51484284065935
 30
0.0
 11
-43.25331566058244
 21
84.51484284065935
 31
0.0
  0
LINE
  5
2A67
330
1F
100
AcDbEntity
  8
0
 62
     1
100
AcDbLine
 10
-43.00331566058335
 20
84.51484284065935
 30
0.0
 11
-42.80331566058353
 21
84.51484284065935
 31
0.0
  0
LINE
  5
2A68
330
1F
100
AcDbEntity
  8
0
 48
0.15
100
AcDbLine
 10
-44.45331566058226
 20
84.51484284065935
 30
0.0
 11
-43.42831566058262
 21
84.51484284065935
 31
0.0
  0
LINE
  5
2A69
330
1F
100
AcDbEntity
  8
0
 62
     1
100
AcDbLine
 10
-43.37831566058244
 20
84.51484284065935
 30
0.0
 11
-44.50331566058335
 21
84.51484284065935
 31
0.0
  0
LINE
  5
2A6A
330
1F
100
AcDbEntity
  8
0
 62
     1
100
AcDbLine
 10
-45.42831566058262
 20
84.51485481115668
 30
0.0
 11
-43.25331566058244
 21
84.51485481115668
 31
0.0
  0
LINE
  5
2A6B
330
1F
100
AcDbEntity
  8
0
 62
     1
100
AcDbLine
 10
-45.07831566058226
 20
85.01485481115668
 30
0.0
 11
-44.45331566058226
 21
85.01485481115668
 31
0.0
  0
LINE
  5
2A6C
330
1F
100
AcDbEntity
  8
0
 62
     1
100
AcDbLine
 10
-43.42831566058262
 20
85.01485481115668
 30
0.0
 11
-43.42831566058353
 21
84.51485481115668
 31
0.0
  0
LINE
  5
2A6D
330
1F
100
AcDbEntity
  8
0
 62
     1
100
AcDbLine
 10
-44.45331566058226
 20
85.01485481115668
 30
0.0
 11
-44.45331566058226
 21
84.51485481115668
 31
0.0
  0
LINE
  5
2A6E
330
1F
100
AcDbEntity
  8
0
 62
     1
100
AcDbLine
 10
-43.42831566058353
 20
85.01485481115668
 30
0.0
 11
-42.80331566058353
 21
85.01485481115668
 31
0.0
  0
LINE
  5
2A6F
330
1F
100
AcDbEntity
  8
0
 62
     1
100
AcDbLine
 10
-43.25331566058335
 20
84.76485481115668
 30
0.0
 11
-43.25331566058335
 21
84.51485481115668
 31
0.0
  0
LINE
  5
2A70
330
1F
100
AcDbEntity
  8
0
 62
     1
100
AcDbLine
 10
-43.25331566058335
 20
84.76485481115668
 30
0.0
 11
-43.00331566058335
 21
84.76485481115668
 31
0.0
  0
LINE
  5
2A71
330
1F
100
AcDbEntity
  8
0
 62
     1
100
AcDbLine
 10
-43.00331566058335
 20
84.51485481115668
 30
0.0
 11
-42.80331566058353
 21
84.51485481115668
 31
0.0
  0
LINE
  5
2A72
330
1F
100
AcDbEntity
  8
0
 48
0.15
100
AcDbLine
 10
-44.45331566058226
 20
84.51485481115668
 30
0.0
 11
-43.42831566058262
 21
84.51485481115668
 31
0.0
  0
LINE
  5
2A73
330
1F
100
AcDbEntity
  8
0
 62
     1
100
AcDbLine
 10
-43.37831566058244
 20
84.51485481115668
 30
0.0
 11
-44.50331566058335
 21
84.51485481115668
 31
0.0
  0
LINE
  5
2A74
330
1F
100
AcDbEntity
  8
0
 62
     1
100
AcDbLine
 10
-34.32831566058226
 20
85.01485481115668
 30
0.0
 11
-34.32831566058226
 21
84.51485481115668
 31
0.0
  0
LINE
  5
2A75
330
1F
100
AcDbEntity
  8
0
 62
     1
100
AcDbLine
 10
-35.97831566058372
 20
85.01485481115668
 30
0.0
 11
-35.97831566058372
 21
84.51485481115668
 31
0.0
  0
LINE
  5
2A76
330
1F
100
AcDbEntity
  8
0
 62
     1
100
AcDbLine
 10
-34.95331566058226
 20
85.01485481115668
 30
0.0
 11
-34.95331566058226
 21
84.51485481115668
 31
0.0
  0
LINE
  5
2A77
330
1F
100
AcDbEntity
  8
0
 62
     1
100
AcDbLine
 10
-36.60331566058372
 20
85.01485481115668
 30
0.0
 11
-35.97831566058372
 21
85.01485481115668
 31
0.0
  0
LINE
  5
2A78
330
1F
100
AcDbEntity
  8
0
 62
     1
100
AcDbLine
 10
-34.95331566058226
 20
85.01485481115668
 30
0.0
 11
-34.32831566058226
 21
85.01485481115668
 31
0.0
  0
LINE
  5
2A79
330
1F
100
AcDbEntity
  8
0
 62
     1
100
AcDbLine
 10
-36.15331566058299
 20
84.76485481115668
 30
0.0
 11
-36.15331566058299
 21
84.51485481115668
 31
0.0
  0
LINE
  5
2A7A
330
1F
100
AcDbEntity
  8
0
 62
     1
100
AcDbLine
 10
-36.40331566058299
 20
84.76485481115668
 30
0.0
 11
-36.15331566058299
 21
84.76485481115668
 31
0.0
  0
LINE
  5
2A7B
330
1F
100
AcDbEntity
  8
0
 62
     1
100
AcDbLine
 10
-36.18831566058285
 20
84.51485481115668
 30
0.0
 11
-33.97831566058281
 21
84.51485481115668
 31
0.0
  0
LINE
  5
2A7C
330
1F
100
AcDbEntity
  8
0
 62
     1
100
AcDbLine
 10
-36.60331566058372
 20
84.51485481115668
 30
0.0
 11
-36.40331566058299
 21
84.51485481115668
 31
0.0
  0
LINE
  5
2A7D
330
1F
100
AcDbEntity
  8
0
 62
     1
100
AcDbLine
 10
-45.42831566058262
 20
84.51485481115668
 30
0.0
 11
-42.80331566058262
 21
84.51485481115668
 31
0.0
  0
LINE
  5
2A7E
330
1F
100
AcDbEntity
  8
0
 62
     1
100
AcDbLine
 10
-42.80331566058262
 20
85.01485481115668
 30
0.0
 11
-42.80331566058262
 21
84.51485481115668
 31
0.0
  0
LINE
  5
2A7F
330
1F
100
AcDbEntity
  8
0
  6
HIDDEN
 62
     1
 48
0.02
100
AcDbLine
 10
-45.07831566058226
 20
85.01485481115668
 30
0.0
 11
-44.45331566058226
 21
85.01485481115668
 31
0.0
  0
LINE
  5
2A80
330
1F
100
AcDbEntity
  8
0
  6
HIDDEN
 62
     1
 48
0.02
100
AcDbLine
 10
-45.07831566058226
 20
85.01485481115668
 30
0.0
 11
-45.07831566058226
 21
84.51485481115668
 31
0.0
  0
LINE
  5
2A81
330
1F
100
AcDbEntity
  8
0
  6
HIDDEN
 62
     1
 48
0.02
100
AcDbLine
 10
-43.42831566058262
 20
85.01485481115668
 30
0.0
 11
-43.42831566058353
 21
84.51485481115668
 31
0.0
  0
LINE
  5
2A82
330
1F
100
AcDbEntity
  8
0
  6
HIDDEN
 62
     1
 48
0.02
100
AcDbLine
 10
-44.45331566058226
 20
85.01485481115668
 30
0.0
 11
-44.45331566058226
 21
84.51485481115668
 31
0.0
  0
LINE
  5
2A83
330
1F
100
AcDbEntity
  8
0
  6
HIDDEN
 62
     1
 48
0.02
100
AcDbLine
 10
-43.42831566058353
 20
85.01485481115668
 30
0.0
 11
-42.80331566058353
 21
85.01485481115668
 31
0.0
  0
LINE
  5
2A84
330
1F
100
AcDbEntity
  8
0
 62
     1
100
AcDbLine
 10
-36.6033156605819
 20
84.51485481115668
 30
0.0
 11
-33.97831566058281
 21
84.51485481115668
 31
0.0
  0
LINE
  5
2A85
330
1F
100
AcDbEntity
  8
0
 62
     1
100
AcDbLine
 10
-36.6033156605819
 20
85.01485481115668
 30
0.0
 11
-36.6033156605819
 21
84.51485481115668
 31
0.0
  0
LINE
  5
2A86
330
1F
100
AcDbEntity
  8
0
  6
HIDDEN
 62
     1
 48
0.02
100
AcDbLine
 10
-34.32831566058045
 20
85.01485481115668
 30
0.0
 11
-34.32831566058045
 21
84.51485481115668
 31
0.0
  0
LINE
  5
2A87
330
1F
100
AcDbEntity
  8
0
  6
HIDDEN
 62
     1
 48
0.02
100
AcDbLine
 10
-35.9783156605819
 20
85.01485481115668
 30
0.0
 11
-35.9783156605819
 21
84.51485481115668
 31
0.0
  0
LINE
  5
2A88
330
1F
100
AcDbEntity
  8
0
  6
HIDDEN
 62
     1
 48
0.02
100
AcDbLine
 10
-34.95331566058045
 20
85.01485481115668
 30
0.0
 11
-34.95331566058045
 21
84.51485481115668
 31
0.0
  0
LINE
  5
2A89
330
1F
100
AcDbEntity
  8
0
  6
HIDDEN
 62
     1
 48
0.02
100
AcDbLine
 10
-36.6033156605819
 20
85.01485481115668
 30
0.0
 11
-35.9783156605819
 21
85.01485481115668
 31
0.0
  0
LINE
  5
2A8A
330
1F
100
AcDbEntity
  8
0
  6
HIDDEN
 62
     1
 48
0.02
100
AcDbLine
 10
-34.95331566058045
 20
85.01485481115668
 30
0.0
 11
-34.32831566058045
 21
85.01485481115668
 31
0.0
  0
LINE
  5
2A8B
330
1F
100
AcDbEntity
  8
0
  6
HIDDEN
 62
     1
 48
0.02
100
AcDbLine
 10
-36.40331566058117
 20
84.76485481115668
 30
0.0
 11
-36.40331566058117
 21
84.51485481115668
 31
0.0
  0
LINE
  5
2A8C
330
1F
100
AcDbEntity
  8
0
  6
HIDDEN
 62
     1
 48
0.02
100
AcDbLine
 10
-36.15331566058117
 20
84.76485481115668
 30
0.0
 11
-36.15331566058117
 21
84.51485481115668
 31
0.0
  0
LINE
  5
2A8D
330
1F
100
AcDbEntity
  8
0
  6
HIDDEN
 62
     1
 48
0.02
100
AcDbLine
 10
-36.40331566058117
 20
84.76485481115668
 30
0.0
 11
-36.15331566058117
 21
84.76485481115668
 31
0.0
  0
LINE
  5
2A8E
330
1F
100
AcDbEntity
  8
0
 48
0.15
100
AcDbLine
 10
-45.92831566058353
 20
70.2648428406589
 30
0.0
 11
-45.92831566059354
 21
94.26449863378564
 31
0.0
  0
LINE
  5
2A8F
330
1F
100
AcDbEntity
  8
0
 62
     1
100
AcDbLine
 10
-35.97831566058281
 20
84.51484284065935
 30
0.0
 11
-33.97831566058281
 21
84.51484284065935
 31
0.0
  0
LINE
  5
2A90
330
1F
100
AcDbEntity
  8
0
 62
     1
100
AcDbLine
 10
-45.42831566058262
 20
84.51483087016157
 30
0.0
 11
-42.80331566058262
 21
84.51483087016157
 31
0.0
  0
LINE
  5
2A91
330
1F
100
AcDbEntity
  8
0
 62
     1
100
AcDbLine
 10
-45.42831566058262
 20
84.51483087016157
 30
0.0
 11
-43.25331566058244
 21
84.51483087016157
 31
0.0
  0
LINE
  5
2A92
330
1F
100
AcDbEntity
  8
0
 62
     1
100
AcDbLine
 10
-43.00331566058335
 20
84.51483087016157
 30
0.0
 11
-42.80331566058353
 21
84.51483087016157
 31
0.0
  0
LINE
  5
2A93
330
1F
100
AcDbEntity
  8
0
 48
0.15
100
AcDbLine
 10
-44.45331566058226
 20
84.51483087016157
 30
0.0
 11
-43.42831566058262
 21
84.51483087016157
 31
0.0
  0
LINE
  5
2A94
330
1F
100
AcDbEntity
  8
0
 62
     1
100
AcDbLine
 10
-43.37831566058244
 20
84.51483087016157
 30
0.0
 11
-44.50331566058335
 21
84.51483087016157
 31
0.0
  0
LINE
  5
2A95
330
1F
100
AcDbEntity
  8
0
 62
     1
100
AcDbLine
 10
-45.42831566058262
 20
84.51484284065935
 30
0.0
 11
-43.25331566058244
 21
84.51484284065935
 31
0.0
  0
LINE
  5
2A96
330
1F
100
AcDbEntity
  8
0
 62
     1
100
AcDbLine
 10
-45.07831566058226
 20
85.01484284065936
 30
0.0
 11
-44.45331566058226
 21
85.01484284065936
 31
0.0
  0
LINE
  5
2A97
330
1F
100
AcDbEntity
  8
0
 62
     1
100
AcDbLine
 10
-43.42831566058262
 20
85.01484284065936
 30
0.0
 11
-43.42831566058353
 21
84.51484284065935
 31
0.0
  0
LINE
  5
2A98
330
1F
100
AcDbEntity
  8
0
 62
     1
100
AcDbLine
 10
-44.45331566058226
 20
85.01484284065936
 30
0.0
 11
-44.45331566058226
 21
84.51484284065935
 31
0.0
  0
LINE
  5
2A99
330
1F
100
AcDbEntity
  8
0
 62
     1
100
AcDbLine
 10
-43.42831566058353
 20
85.01484284065936
 30
0.0
 11
-42.80331566058353
 21
85.01484284065936
 31
0.0
  0
LINE
  5
2A9A
330
1F
100
AcDbEntity
  8
0
 62
     1
100
AcDbLine
 10
-43.25331566058335
 20
84.76484284065936
 30
0.0
 11
-43.25331566058335
 21
84.51484284065935
 31
0.0
  0
LINE
  5
2A9B
330
1F
100
AcDbEntity
  8
0
 62
     1
100
AcDbLine
 10
-43.25331566058335
 20
84.76484284065936
 30
0.0
 11
-43.00331566058335
 21
84.76484284065936
 31
0.0
  0
LINE
  5
2A9C
330
1F
100
AcDbEntity
  8
0
 62
     1
100
AcDbLine
 10
-43.00331566058335
 20
84.51484284065935
 30
0.0
 11
-42.80331566058353
 21
84.51484284065935
 31
0.0
  0
LINE
  5
2A9D
330
1F
100
AcDbEntity
  8
0
 48
0.15
100
AcDbLine
 10
-44.45331566058226
 20
84.51484284065935
 30
0.0
 11
-43.42831566058262
 21
84.51484284065935
 31
0.0
  0
LINE
  5
2A9E
330
1F
100
AcDbEntity
  8
0
 62
     1
100
AcDbLine
 10
-43.37831566058244
 20
84.51484284065935
 30
0.0
 11
-44.50331566058335
 21
84.51484284065935
 31
0.0
  0
LINE
  5
2A9F
330
1F
100
AcDbEntity
  8
0
 62
     1
100
AcDbLine
 10
-34.32831566058226
 20
85.01484284065936
 30
0.0
 11
-34.32831566058226
 21
84.51484284065935
 31
0.0
  0
LINE
  5
2AA0
330
1F
100
AcDbEntity
  8
0
 62
     1
100
AcDbLine
 10
-35.97831566058372
 20
85.01484284065936
 30
0.0
 11
-35.97831566058372
 21
84.51484284065935
 31
0.0
  0
LINE
  5
2AA1
330
1F
100
AcDbEntity
  8
0
 62
     1
100
AcDbLine
 10
-34.95331566058226
 20
85.01484284065936
 30
0.0
 11
-34.95331566058226
 21
84.51484284065935
 31
0.0
  0
LINE
  5
2AA2
330
1F
100
AcDbEntity
  8
0
 62
     1
100
AcDbLine
 10
-36.60331566058372
 20
85.01484284065936
 30
0.0
 11
-35.97831566058372
 21
85.01484284065936
 31
0.0
  0
LINE
  5
2AA3
330
1F
100
AcDbEntity
  8
0
 62
     1
100
AcDbLine
 10
-34.95331566058226
 20
85.01484284065936
 30
0.0
 11
-34.32831566058226
 21
85.01484284065936
 31
0.0
  0
LINE
  5
2AA4
330
1F
100
AcDbEntity
  8
0
 62
     1
100
AcDbLine
 10
-36.15331566058299
 20
84.76484284065936
 30
0.0
 11
-36.15331566058299
 21
84.51484284065935
 31
0.0
  0
LINE
  5
2AA5
330
1F
100
AcDbEntity
  8
0
 62
     1
100
AcDbLine
 10
-36.40331566058299
 20
84.76484284065936
 30
0.0
 11
-36.15331566058299
 21
84.76484284065936
 31
0.0
  0
LINE
  5
2AA6
330
1F
100
AcDbEntity
  8
0
 62
     1
100
AcDbLine
 10
-36.18831566058285
 20
84.51484284065935
 30
0.0
 11
-33.97831566058281
 21
84.51484284065935
 31
0.0
  0
LINE
  5
2AA7
330
1F
100
AcDbEntity
  8
0
 62
     1
100
AcDbLine
 10
-36.60331566058372
 20
84.51484284065935
 30
0.0
 11
-36.40331566058299
 21
84.51484284065935
 31
0.0
  0
LINE
  5
2AA8
330
1F
100
AcDbEntity
  8
0
 62
     1
100
AcDbLine
 10
-45.42831566058262
 20
84.51484284065935
 30
0.0
 11
-42.80331566058262
 21
84.51484284065935
 31
0.0
  0
LINE
  5
2AA9
330
1F
100
AcDbEntity
  8
0
 62
     1
100
AcDbLine
 10
-42.80331566058262
 20
85.01484284065936
 30
0.0
 11
-42.80331566058262
 21
84.51484284065935
 31
0.0
  0
LINE
  5
2AAA
330
1F
100
AcDbEntity
  8
0
  6
HIDDEN
 62
     1
 48
0.02
100
AcDbLine
 10
-45.07831566058226
 20
85.01484284065936
 30
0.0
 11
-44.45331566058226
 21
85.01484284065936
 31
0.0
  0
LINE
  5
2AAB
330
1F
100
AcDbEntity
  8
0
  6
HIDDEN
 62
     1
 48
0.02
100
AcDbLine
 10
-45.07831566058226
 20
85.01484284065936
 30
0.0
 11
-45.07831566058226
 21
84.51484284065935
 31
0.0
  0
LINE
  5
2AAC
330
1F
100
AcDbEntity
  8
0
  6
HIDDEN
 62
     1
 48
0.02
100
AcDbLine
 10
-43.42831566058262
 20
85.01484284065936
 30
0.0
 11
-43.42831566058353
 21
84.51484284065935
 31
0.0
  0
LINE
  5
2AAD
330
1F
100
AcDbEntity
  8
0
  6
HIDDEN
 62
     1
 48
0.02
100
AcDbLine
 10
-44.45331566058226
 20
85.01484284065936
 30
0.0
 11
-44.45331566058226
 21
84.51484284065935
 31
0.0
  0
LINE
  5
2AAE
330
1F
100
AcDbEntity
  8
0
  6
HIDDEN
 62
     1
 48
0.02
100
AcDbLine
 10
-43.42831566058353
 20
85.01484284065936
 30
0.0
 11
-42.80331566058353
 21
85.01484284065936
 31
0.0
  0
LINE
  5
2AAF
330
1F
100
AcDbEntity
  8
0
 62
     1
100
AcDbLine
 10
-36.6033156605819
 20
84.51484284065935
 30
0.0
 11
-33.97831566058281
 21
84.51484284065935
 31
0.0
  0
LINE
  5
2AB0
330
1F
100
AcDbEntity
  8
0
 62
     1
100
AcDbLine
 10
-36.6033156605819
 20
85.01484284065936
 30
0.0
 11
-36.6033156605819
 21
84.51484284065935
 31
0.0
  0
LINE
  5
2AB1
330
1F
100
AcDbEntity
  8
0
  6
HIDDEN
 62
     1
 48
0.02
100
AcDbLine
 10
-34.32831566058045
 20
85.01484284065936
 30
0.0
 11
-34.32831566058045
 21
84.51484284065935
 31
0.0
  0
LINE
  5
2AB2
330
1F
100
AcDbEntity
  8
0
  6
HIDDEN
 62
     1
 48
0.02
100
AcDbLine
 10
-35.9783156605819
 20
85.01484284065936
 30
0.0
 11
-35.9783156605819
 21
84.51484284065935
 31
0.0
  0
LINE
  5
2AB3
330
1F
100
AcDbEntity
  8
0
  6
HIDDEN
 62
     1
 48
0.02
100
AcDbLine
 10
-34.95331566058045
 20
85.01484284065936
 30
0.0
 11
-34.95331566058045
 21
84.51484284065935
 31
0.0
  0
LINE
  5
2AB4
330
1F
100
AcDbEntity
  8
0
  6
HIDDEN
 62
     1
 48
0.02
100
AcDbLine
 10
-36.6033156605819
 20
85.01484284065936
 30
0.0
 11
-35.9783156605819
 21
85.01484284065936
 31
0.0
  0
LINE
  5
2AB5
330
1F
100
AcDbEntity
  8
0
  6
HIDDEN
 62
     1
 48
0.02
100
AcDbLine
 10
-34.95331566058045
 20
85.01484284065936
 30
0.0
 11
-34.32831566058045
 21
85.01484284065936
 31
0.0
  0
LINE
  5
2AB6
330
1F
100
AcDbEntity
  8
0
  6
HIDDEN
 62
     1
 48
0.02
100
AcDbLine
 10
-36.40331566058117
 20
84.76484284065936
 30
0.0
 11
-36.40331566058117
 21
84.51484284065935
 31
0.0
  0
LINE
  5
2AB7
330
1F
100
AcDbEntity
  8
0
  6
HIDDEN
 62
     1
 48
0.02
100
AcDbLine
 10
-36.15331566058117
 20
84.76484284065936
 30
0.0
 11
-36.15331566058117
 21
84.51484284065935
 31
0.0
  0
LINE
  5
2AB8
330
1F
100
AcDbEntity
  8
0
  6
HIDDEN
 62
     1
 48
0.02
100
AcDbLine
 10
-36.40331566058117
 20
84.76484284065936
 30
0.0
 11
-36.15331566058117
 21
84.76484284065936
 31
0.0
  0
LINE
  5
2AB9
330
1F
100
AcDbEntity
  8
0
 62
     1
100
AcDbLine
 10
-45.42831566058353
 20
94.42239159339823
 30
0.0
 11
-45.42831566058262
 21
84.51484284065935
 31
0.0
  0
LINE
  5
2ABA
330
1F
100
AcDbEntity
  8
0
 62
     1
100
AcDbLine
 10
-42.80331566058262
 20
95.25132963134609
 30
0.0
 11
-42.80331566058262
 21
84.51484284065935
 31
0.0
  0
LINE
  5
2ABB
330
1F
100
AcDbEntity
  8
0
 62
     1
100
AcDbLine
 10
-45.07831566058226
 20
94.53291666512422
 30
0.0
 11
-45.07831566058226
 21
84.51484284065935
 31
0.0
  0
LINE
  5
2ABC
330
1F
100
AcDbEntity
  8
0
 62
     1
100
AcDbLine
 10
-43.00331566058335
 20
95.18817244750261
 30
0.0
 11
-43.00331566058335
 21
84.51484284065935
 31
0.0
  0
LINE
  5
2ABD
330
1F
100
AcDbEntity
  8
A2 Hatch
  6
DASHED2
 48
0.15
100
AcDbLine
 10
-44.66331566058321
 20
94.66396782159945
 30
0.0
 11
-44.66331566058321
 21
84.51484284065935
 31
0.0
  0
LINE
  5
2ABE
330
1F
100
AcDbEntity
  8
A2 Hatch
  6
DASHED2
 48
0.15
100
AcDbLine
 10
-43.21831566058259
 20
95.12027847486995
 30
0.0
 11
-43.21831566058259
 21
84.51484284065935
 31
0.0
  0
LINE
  5
2ABF
330
1F
100
AcDbEntity
  8
0
 62
     1
100
AcDbLine
 10
-44.50331566058335
 20
94.71449356867486
 30
0.0
 11
-44.50331566058244
 21
84.51484284065935
 31
0.0
  0
LINE
  5
2AC0
330
1F
100
AcDbEntity
  8
0
 62
     1
100
AcDbLine
 10
-43.37831566058244
 20
95.06975272779545
 30
0.0
 11
-43.37831566058244
 21
84.51484284065935
 31
0.0
  0
ARC
  5
2AC1
330
1F
100
AcDbEntity
  8
DETAILS
 62
     6
370
    20
100
AcDbCircle
 10
-42.80331566058172
 20
88.67812106251149
 30
0.0
 40
0.0999999999999136
100
AcDbArc
 50
179.9999999996873
 51
209.7448812965932
  0
LINE
  5
2AC2
330
1F
100
AcDbEntity
  8
DETAILS
 62
     6
370
    20
100
AcDbLine
 10
-42.90331566058299
 20
90.76484284065935
 30
0.0
 11
-36.50331566058426
 21
90.76484284065935
 31
0.0
  0
LINE
  5
2AC3
330
1F
100
AcDbEntity
  8
0
 62
     1
100
AcDbLine
 10
-33.9783156605819
 20
98.19418580427617
 30
0.0
 11
-33.97831566058281
 21
84.51484284065935
 31
0.0
  0
LINE
  5
2AC4
330
1F
100
AcDbEntity
  8
0
 62
     1
100
AcDbLine
 10
-36.60331566058372
 20
97.30458189222936
 30
0.0
 11
-36.60331566058281
 21
84.51484284065935
 31
0.0
  0
LINE
  5
2AC5
330
1F
100
AcDbEntity
  8
0
 62
     1
100
AcDbLine
 10
-34.32831566058226
 20
97.01484284065935
 30
0.0
 11
-34.32831566058226
 21
96.51484284065936
 31
0.0
  0
LINE
  5
2AC6
330
1F
100
AcDbEntity
  8
0
 62
     1
100
AcDbLine
 10
-35.97831566058372
 20
97.01484284065935
 30
0.0
 11
-35.97831566058372
 21
96.51484284065936
 31
0.0
  0
LINE
  5
2AC7
330
1F
100
AcDbEntity
  8
0
 62
     1
100
AcDbLine
 10
-34.95331566058226
 20
97.01484284065935
 30
0.0
 11
-34.95331566058226
 21
96.51484284065936
 31
0.0
  0
LINE
  5
2AC8
330
1F
100
AcDbEntity
  8
0
 62
     1
100
AcDbLine
 10
-36.60331566058372
 20
97.01484284065935
 30
0.0
 11
-35.97831566058372
 21
97.01484284065935
 31
0.0
  0
LINE
  5
2AC9
330
1F
100
AcDbEntity
  8
0
 62
     1
100
AcDbLine
 10
-34.95331566058226
 20
97.01484284065935
 30
0.0
 11
-34.32831566058226
 21
97.01484284065935
 31
0.0
  0
LINE
  5
2ACA
330
1F
100
AcDbEntity
  8
0
 62
     1
100
AcDbLine
 10
-36.40331566058299
 20
97.37236123791007
 30
0.0
 11
-36.40331566058299
 21
84.51484284065935
 31
0.0
  0
LINE
  5
2ACB
330
1F
100
AcDbEntity
  8
0
 62
     1
100
AcDbLine
 10
-36.15331566058299
 20
96.76484284065935
 30
0.0
 11
-36.15331566058299
 21
96.51484284065936
 31
0.0
  0
LINE
  5
2ACC
330
1F
100
AcDbEntity
  8
0
 62
     1
100
AcDbLine
 10
-36.40331566058299
 20
96.76484284065935
 30
0.0
 11
-36.15331566058299
 21
96.76484284065935
 31
0.0
  0
LINE
  5
2ACD
330
1F
100
AcDbEntity
  8
0
 62
     1
100
AcDbLine
 10
-36.18831566058285
 20
96.51484284065936
 30
0.0
 11
-33.97831566058281
 21
96.51484284065936
 31
0.0
  0
LINE
  5
2ACE
330
1F
100
AcDbEntity
  8
0
 62
     1
100
AcDbLine
 10
-36.18831566058285
 20
97.4452240345151
 30
0.0
 11
-36.18831566058285
 21
84.51484284065935
 31
0.0
  0
LINE
  5
2ACF
330
1F
100
AcDbEntity
  8
0
 62
     1
100
AcDbLine
 10
-34.74331566058314
 20
97.93492980705122
 30
0.0
 11
-34.74331566058314
 21
84.51484284065935
 31
0.0
  0
LINE
  5
2AD0
330
1F
100
AcDbEntity
  8
A2 Hatch
  6
DASHED2
 48
0.15
100
AcDbLine
 10
-36.02831566058299
 20
97.49944751105857
 30
0.0
 11
-36.02831566058299
 21
84.51484284065935
 31
0.0
  0
LINE
  5
2AD1
330
1F
100
AcDbEntity
  8
A2 Hatch
  6
DASHED2
 48
0.15
100
AcDbLine
 10
-34.90331566058299
 20
97.88070633050773
 30
0.0
 11
-34.90331566058299
 21
84.51484284065935
 31
0.0
  0
LINE
  5
2AD2
330
1F
100
AcDbEntity
  8
0
 62
     1
100
AcDbLine
 10
-36.60331566058372
 20
96.51484284065936
 30
0.0
 11
-36.40331566058299
 21
96.51484284065936
 31
0.0
  0
LINE
  5
2AD3
330
1F
100
AcDbEntity
  8
DETAILS
 62
     6
370
    20
100
AcDbLine
 10
-42.90331566058116
 20
95.21975103942503
 30
0.0
 11
-42.90331566058299
 21
85.44209654928517
 31
0.0
  0
LINE
  5
2AD4
330
1F
100
AcDbEntity
  8
DETAILS
 62
     6
370
    20
100
AcDbLine
 10
-42.22831566058189
 20
91.38484284065924
 30
0.0
 11
-41.70893353667466
 21
91.38484284065924
 31
0.0
  0
ARC
  5
2AD5
330
1F
100
AcDbEntity
  8
DETAILS
 62
     6
370
    20
100
AcDbCircle
 10
-41.70893353667557
 20
91.53484284065934
 30
0.0
 40
0.1500000000000909
100
AcDbArc
 50
270.0000000001563
 51
43.83086067193221
  0
LINE
  5
2AD6
330
1F
100
AcDbEntity
  8
DETAILS
 62
     6
370
    20
100
AcDbLine
 10
-41.60072543851962
 20
91.63872261488739
 30
0.0
 11
-42.12010756242594
 21
92.17974566062384
 31
0.0
  0
ARC
  5
2AD7
330
1F
100
AcDbEntity
  8
DETAILS
 62
     6
370
    20
100
AcDbCircle
 10
-42.22831566058099
 20
92.07586588639532
 30
0.0
 40
0.1499999999999651
100
AcDbArc
 50
43.83086067209876
 51
179.9999999999739
  0
LINE
  5
2AD8
330
1F
100
AcDbEntity
  8
DETAILS
 62
     6
370
    20
100
AcDbLine
 10
-42.37831566058154
 20
92.07586588639532
 30
0.0
 11
-42.37831566058154
 21
91.53484284065887
 31
0.0
  0
ARC
  5
2AD9
330
1F
100
AcDbEntity
  8
DETAILS
 62
     6
370
    20
100
AcDbCircle
 10
-42.22831566058189
 20
91.53484284065887
 30
0.0
 40
0.1499999999996362
100
AcDbArc
 50
179.9999999999479
 51
270.0000000001563
  0
LINE
  5
2ADA
330
1F
100
AcDbEntity
  8
DETAILS
 62
     6
370
    20
100
AcDbLine
 10
-42.37831566058154
 20
90.01484284065936
 30
0.0
 11
-42.37831566058154
 21
89.47381979492291
 31
0.0
  0
ARC
  5
2ADB
330
1F
100
AcDbEntity
  8
DETAILS
 62
     6
370
    20
100
AcDbCircle
 10
-42.22831566058099
 20
89.47381979492291
 30
0.0
 40
0.1500000000000909
100
AcDbArc
 50
180.000000000026
 51
316.1691393279012
  0
LINE
  5
2ADC
330
1F
100
AcDbEntity
  8
DETAILS
 62
     6
370
    20
100
AcDbLine
 10
-42.12010756242594
 20
89.36994002069486
 30
0.0
 11
-41.60072543851962
 21
89.91096306643084
 31
0.0
  0
ARC
  5
2ADD
330
1F
100
AcDbEntity
  8
DETAILS
 62
     6
370
    20
100
AcDbCircle
 10
-41.70893353667557
 20
90.01484284065936
 30
0.0
 40
0.1500000000001751
100
AcDbArc
 50
316.1691393280678
 51
89.99999999984366
  0
LINE
  5
2ADE
330
1F
100
AcDbEntity
  8
DETAILS
 62
     6
370
    20
100
AcDbLine
 10
-41.70893353667466
 20
90.16484284065899
 30
0.0
 11
-42.22831566058189
 21
90.16484284065899
 31
0.0
  0
ARC
  5
2ADF
330
1F
100
AcDbEntity
  8
DETAILS
 62
     6
370
    20
100
AcDbCircle
 10
-42.22831566058189
 20
90.01484284065936
 30
0.0
 40
0.1499999999998636
100
AcDbArc
 50
89.99999999984366
 51
180.0000000000521
  0
LINE
  5
2AE0
330
1F
100
AcDbEntity
  8
DETAILS
 62
     6
370
    20
100
AcDbLine
 10
-42.22831566058189
 20
91.43484284065943
 30
0.0
 11
-41.70893353667466
 21
91.43484284065943
 31
0.0
  0
ARC
  5
2AE1
330
1F
100
AcDbEntity
  8
DETAILS
 62
     6
370
    20
100
AcDbCircle
 10
-41.70893353667466
 20
91.53484284065887
 30
0.0
 40
0.1000000000000227
100
AcDbArc
 50
270.0
 51
43.83086067200606
  0
LINE
  5
2AE2
330
1F
100
AcDbEntity
  8
DETAILS
 62
     6
370
    20
100
AcDbLine
 10
-41.636794804571
 20
91.60409602347789
 30
0.0
 11
-42.15617692847732
 21
92.14511906921433
 31
0.0
  0
ARC
  5
2AE3
330
1F
100
AcDbEntity
  8
DETAILS
 62
     6
370
    20
100
AcDbCircle
 10
-42.22831566058099
 20
92.07586588639532
 30
0.0
 40
0.1000000000001123
100
AcDbArc
 50
43.83086067206119
 51
180.0
  0
LINE
  5
2AE4
330
1F
100
AcDbEntity
  8
DETAILS
 62
     6
370
    20
100
AcDbLine
 10
-42.32831566058044
 20
92.07586588639532
 30
0.0
 11
-42.32831566058135
 21
91.53484284065887
 31
0.0
  0
ARC
  5
2AE5
330
1F
100
AcDbEntity
  8
DETAILS
 62
     6
370
    20
100
AcDbCircle
 10
-42.22831566058099
 20
91.53484284065934
 30
0.0
 40
0.1000000000003638
100
AcDbArc
 50
180.0000000001302
 51
269.9999999997394
  0
LINE
  5
2AE6
330
1F
100
AcDbEntity
  8
DETAILS
 62
     6
370
    20
100
AcDbLine
 10
-42.32831566058135
 20
90.01484284065936
 30
0.0
 11
-42.32831566058044
 21
89.47381979492291
 31
0.0
  0
ARC
  5
2AE7
330
1F
100
AcDbEntity
  8
DETAILS
 62
     6
370
    20
100
AcDbCircle
 10
-42.22831566058099
 20
89.47381979492291
 30
0.0
 40
0.0999999999999091
100
AcDbArc
 50
179.9999999999739
 51
316.1691393279939
  0
LINE
  5
2AE8
330
1F
100
AcDbEntity
  8
DETAILS
 62
     6
370
    20
100
AcDbLine
 10
-42.15617692847732
 20
89.40456661210436
 30
0.0
 11
-41.636794804571
 21
89.94558965784035
 31
0.0
  0
ARC
  5
2AE9
330
1F
100
AcDbEntity
  8
DETAILS
 62
     6
370
    20
100
AcDbCircle
 10
-41.70893353667466
 20
90.01484284065936
 30
0.0
 40
0.1000000000000336
100
AcDbArc
 50
316.1691393279939
 51
90.0
  0
LINE
  5
2AEA
330
1F
100
AcDbEntity
  8
DETAILS
 62
     6
370
    20
100
AcDbLine
 10
-41.70893353667466
 20
90.11484284065927
 30
0.0
 11
-42.22831566058189
 21
90.11484284065927
 31
0.0
  0
ARC
  5
2AEB
330
1F
100
AcDbEntity
  8
DETAILS
 62
     6
370
    20
100
AcDbCircle
 10
-42.22831566058099
 20
90.0148428406589
 30
0.0
 40
0.1000000000001364
100
AcDbArc
 50
90.00000000026055
 51
179.9999999998697
  0
LINE
  5
2AEC
330
1F
100
AcDbEntity
  8
DETAILS
 62
     6
370
    20
100
AcDbLine
 10
-36.50331566058426
 20
96.13984284065935
 30
0.0
 11
-36.50331566058336
 21
85.44209654928517
 31
0.0
  0
LINE
  5
2AED
330
1F
100
AcDbEntity
  8
DETAILS
 62
     6
370
    20
100
AcDbLine
 10
-37.02831566058481
 20
91.53484284065887
 30
0.0
 11
-37.02831566058481
 21
92.07586588639532
 31
0.0
  0
ARC
  5
2AEE
330
1F
100
AcDbEntity
  8
DETAILS
 62
     6
370
    20
100
AcDbCircle
 10
-37.17831566058535
 20
92.07586588639532
 30
0.0
 40
0.1500000000000909
100
AcDbArc
 50
0.0000000000260551
 51
136.1691393279012
  0
LINE
  5
2AEF
330
1F
100
AcDbEntity
  8
DETAILS
 62
     6
370
    20
100
AcDbLine
 10
-37.2865237587404
 20
92.17974566062384
 30
0.0
 11
-37.80590588264673
 21
91.63872261488739
 31
0.0
  0
ARC
  5
2AF0
330
1F
100
AcDbEntity
  8
DETAILS
 62
     6
370
    20
100
AcDbCircle
 10
-37.69769778449077
 20
91.53484284065934
 30
0.0
 40
0.1500000000001751
100
AcDbArc
 50
136.1691393280678
 51
269.9999999998437
  0
LINE
  5
2AF1
330
1F
100
AcDbEntity
  8
DETAILS
 62
     6
370
    20
100
AcDbLine
 10
-37.69769778449168
 20
91.38484284065924
 30
0.0
 11
-37.17831566058445
 21
91.38484284065924
 31
0.0
  0
ARC
  5
2AF2
330
1F
100
AcDbEntity
  8
DETAILS
 62
     6
370
    20
100
AcDbCircle
 10
-37.17831566058445
 20
91.53484284065887
 30
0.0
 40
0.1499999999998067
100
AcDbArc
 50
269.9999999998437
 51
0.0000000000781653
  0
LINE
  5
2AF3
330
1F
100
AcDbEntity
  8
DETAILS
 62
     6
370
    20
100
AcDbLine
 10
-37.17831566058445
 20
90.16484284065899
 30
0.0
 11
-37.69769778449168
 21
90.16484284065899
 31
0.0
  0
ARC
  5
2AF4
330
1F
100
AcDbEntity
  8
DETAILS
 62
     6
370
    20
100
AcDbCircle
 10
-37.69769778449077
 20
90.01484284065936
 30
0.0
 40
0.1500000000001478
100
AcDbArc
 50
90.00000000015633
 51
223.8308606719322
  0
LINE
  5
2AF5
330
1F
100
AcDbEntity
  8
DETAILS
 62
     6
370
    20
100
AcDbLine
 10
-37.80590588264673
 20
89.91096306643084
 30
0.0
 11
-37.2865237587404
 21
89.36994002069486
 31
0.0
  0
ARC
  5
2AF6
330
1F
100
AcDbEntity
  8
DETAILS
 62
     6
370
    20
100
AcDbCircle
 10
-37.17831566058535
 20
89.47381979492291
 30
0.0
 40
0.1499999999999651
100
AcDbArc
 50
223.8308606720988
 51
359.999999999974
  0
LINE
  5
2AF7
330
1F
100
AcDbEntity
  8
DETAILS
 62
     6
370
    20
100
AcDbLine
 10
-37.02831566058481
 20
89.47381979492291
 30
0.0
 11
-37.02831566058481
 21
90.01484284065936
 31
0.0
  0
ARC
  5
2AF8
330
1F
100
AcDbEntity
  8
DETAILS
 62
     6
370
    20
100
AcDbCircle
 10
-37.17831566058445
 20
90.01484284065936
 30
0.0
 40
0.1499999999996362
100
AcDbArc
 50
359.9999999999218
 51
90.00000000015633
  0
ARC
  5
2AF9
330
1F
100
AcDbEntity
  8
DETAILS
 62
     6
370
    20
100
AcDbCircle
 10
-41.22840656284748
 20
89.25984284065924
 30
0.0
 40
0.010000000000022
100
AcDbArc
 50
97.40989078445407
 51
262.5901092155459
  0
LINE
  5
2AFA
330
1F
100
AcDbEntity
  8
DETAILS
 62
     6
370
    20
100
AcDbLine
 10
-41.2296962306838
 20
89.24992635151847
 30
0.0
 11
-41.07358614108048
 21
89.23484284065915
 31
0.0
  0
LINE
  5
2AFB
330
1F
100
AcDbEntity
  8
DETAILS
 62
     6
370
    20
100
AcDbLine
 10
-41.07358614108048
 20
89.23484284065915
 30
0.0
 11
-39.70331566058317
 21
89.23484284065915
 31
0.0
  0
LINE
  5
2AFC
330
1F
100
AcDbEntity
  8
DETAILS
 62
     6
370
    20
100
AcDbLine
 10
-39.70331566058317
 20
89.23484284065915
 30
0.0
 11
-38.33304518008586
 21
89.23484284065915
 31
0.0
  0
LINE
  5
2AFD
330
1F
100
AcDbEntity
  8
DETAILS
 62
     6
370
    20
100
AcDbLine
 10
-38.33304518008586
 20
89.23484284065915
 30
0.0
 11
-38.17693509048254
 21
89.24992635151847
 31
0.0
  0
ARC
  5
2AFE
330
1F
100
AcDbEntity
  8
DETAILS
 62
     6
370
    20
100
AcDbCircle
 10
-38.17822475831886
 20
89.25984284065924
 30
0.0
 40
0.0099999999999656
100
AcDbArc
 50
277.409890784454
 51
82.59010921554594
  0
LINE
  5
2AFF
330
1F
100
AcDbEntity
  8
DETAILS
 62
     6
370
    20
100
AcDbLine
 10
-38.17693509048254
 20
89.26975932979956
 30
0.0
 11
-38.33304518008495
 21
89.28484284065934
 31
0.0
  0
LINE
  5
2B00
330
1F
100
AcDbEntity
  8
DETAILS
 62
     6
370
    20
100
AcDbLine
 10
-38.33304518008495
 20
89.28484284065934
 30
0.0
 11
-39.70331566058317
 21
89.28484284065934
 31
0.0
  0
LINE
  5
2B01
330
1F
100
AcDbEntity
  8
DETAILS
 62
     6
370
    20
100
AcDbLine
 10
-39.70331566058317
 20
89.28484284065934
 30
0.0
 11
-41.07358614108048
 21
89.28484284065888
 31
0.0
  0
LINE
  5
2B02
330
1F
100
AcDbEntity
  8
DETAILS
 62
     6
370
    20
100
AcDbLine
 10
-41.07358614108048
 20
89.28484284065888
 30
0.0
 11
-41.2296962306838
 21
89.26975932979956
 31
0.0
  0
ARC
  5
2B03
330
1F
100
AcDbEntity
  8
DETAILS
 62
     6
370
    20
100
AcDbCircle
 10
-37.820937448195
 20
92.99484284065938
 30
0.0
 40
0.1000000000001364
100
AcDbArc
 50
270.0000000002606
 51
316.1691393281411
  0
LINE
  5
2B04
330
1F
100
AcDbEntity
  8
DETAILS
 62
     6
370
    20
100
AcDbLine
 10
-37.74879871609042
 20
92.92558965784037
 30
0.0
 11
-36.63117692848223
 21
94.11582068660043
 31
0.0
  0
ARC
  5
2B05
330
1F
100
AcDbEntity
  8
DETAILS
 62
     6
370
    20
100
AcDbCircle
 10
-36.70331566058318
 20
94.18507386941945
 30
0.0
 40
0.0999999999994431
100
AcDbArc
 50
316.1691393272024
 51
359.9999999992444
  0
ARC
  5
2B06
330
1F
100
AcDbEntity
  8
DETAILS
 62
     6
370
    20
100
AcDbCircle
 10
-42.70332254027031
 20
94.1850738694181
 30
0.0
 40
0.0999999999999091
100
AcDbArc
 50
179.9999999998697
 51
223.8308606719873
  0
LINE
  5
2B07
330
1F
100
AcDbEntity
  8
DETAILS
 62
     6
370
    20
100
AcDbLine
 10
-42.77546127237306
 20
94.11582068659953
 30
0.0
 11
-41.65783260507592
 21
92.92558965784037
 31
0.0
  0
ARC
  5
2B08
330
1F
100
AcDbEntity
  8
DETAILS
 62
     6
370
    20
100
AcDbCircle
 10
-41.58569387297226
 20
92.99484284065938
 30
0.0
 40
0.1000000000001911
100
AcDbArc
 50
223.8308606721345
 51
270.0
  0
LINE
  5
2B09
330
1F
100
AcDbEntity
  8
DETAILS
 62
     6
370
    20
100
AcDbLine
 10
-41.58569387297226
 20
92.89484284065947
 30
0.0
 11
-41.57831566058226
 21
92.89484284065947
 31
0.0
  0
LINE
  5
2B0A
330
1F
100
AcDbEntity
  8
DETAILS
 62
     6
370
    20
100
AcDbLine
 10
-41.57831566058226
 20
92.89484284065947
 30
0.0
 11
-41.57831566058226
 21
92.84484284065928
 31
0.0
  0
LINE
  5
2B0B
330
1F
100
AcDbEntity
  8
DETAILS
 62
     6
370
    20
100
AcDbLine
 10
-41.57831566058226
 20
92.84484284065928
 30
0.0
 11
-41.47831566058189
 21
92.84484284065928
 31
0.0
  0
ARC
  5
2B0C
330
1F
100
AcDbEntity
  8
DETAILS
 62
     6
370
    20
100
AcDbCircle
 10
-41.47831566058189
 20
92.7948428406591
 30
0.0
 40
0.0500000000001819
100
AcDbArc
 50
359.9999999998697
 51
90.0
  0
LINE
  5
2B0D
330
1F
100
AcDbEntity
  8
DETAILS
 62
     6
370
    20
100
AcDbLine
 10
-41.4283156605808
 20
92.7948428406591
 30
0.0
 11
-41.42831566058262
 21
92.73984284065926
 31
0.0
  0
ARC
  5
2B0E
330
1F
100
AcDbEntity
  8
DETAILS
 62
     6
370
    20
100
AcDbCircle
 10
-41.00331566058153
 20
92.7398428406588
 30
0.0
 40
0.4250000000001819
100
AcDbArc
 50
179.9999999999739
 51
359.999999999974
  0
LINE
  5
2B0F
330
1F
100
AcDbEntity
  8
DETAILS
 62
     6
370
    20
100
AcDbLine
 10
-40.57831566058226
 20
92.7398428406588
 30
0.0
 11
-40.57831566058226
 21
92.7948428406591
 31
0.0
  0
ARC
  5
2B10
330
1F
100
AcDbEntity
  8
DETAILS
 62
     6
370
    20
100
AcDbCircle
 10
-40.52831566058208
 20
92.7948428406591
 30
0.0
 40
0.0500000000001819
100
AcDbArc
 50
90.0
 51
179.9999999996613
  0
LINE
  5
2B11
330
1F
100
AcDbEntity
  8
DETAILS
 62
     6
370
    20
100
AcDbLine
 10
-40.52831566058208
 20
92.84484284065928
 30
0.0
 11
-40.17831566058262
 21
92.84484284065928
 31
0.0
  0
ARC
  5
2B12
330
1F
100
AcDbEntity
  8
DETAILS
 62
     6
370
    20
100
AcDbCircle
 10
-40.17831566058262
 20
92.7948428406591
 30
0.0
 40
0.0500000000001819
100
AcDbArc
 50
359.9999999998697
 51
90.0
  0
LINE
  5
2B13
330
1F
100
AcDbEntity
  8
DETAILS
 62
     6
370
    20
100
AcDbLine
 10
-40.12831566058244
 20
92.7948428406591
 30
0.0
 11
-40.12831566058335
 21
92.73984284065608
 31
0.0
  0
ARC
  5
2B14
330
1F
100
AcDbEntity
  8
DETAILS
 62
     6
370
    20
100
AcDbCircle
 10
-39.70331566058226
 20
92.73984284065608
 30
0.0
 40
0.4250000000001819
100
AcDbArc
 50
180.0
 51
270.0
  0
ARC
  5
2B15
330
1F
100
AcDbEntity
  8
DETAILS
 62
     6
370
    20
100
AcDbCircle
 10
-39.70331566058317
 20
92.73984284065608
 30
0.0
 40
0.4249999999997272
100
AcDbArc
 50
270.0000000000521
 51
0.0000000000521102
  0
LINE
  5
2B16
330
1F
100
AcDbEntity
  8
DETAILS
 62
     6
370
    20
100
AcDbLine
 10
-39.27831566058299
 20
92.73984284065608
 30
0.0
 11
-39.2783156605839
 21
92.7948428406591
 31
0.0
  0
ARC
  5
2B17
330
1F
100
AcDbEntity
  8
DETAILS
 62
     6
370
    20
100
AcDbCircle
 10
-39.22831566058372
 20
92.7948428406591
 30
0.0
 40
0.0500000000001819
100
AcDbArc
 50
90.0
 51
180.0
  0
LINE
  5
2B18
330
1F
100
AcDbEntity
  8
DETAILS
 62
     6
370
    20
100
AcDbLine
 10
-39.22831566058372
 20
92.84484284065928
 30
0.0
 11
-38.87831566058427
 21
92.84484284065928
 31
0.0
  0
ARC
  5
2B19
330
1F
100
AcDbEntity
  8
DETAILS
 62
     6
370
    20
100
AcDbCircle
 10
-38.87831566058427
 20
92.7948428406591
 30
0.0
 40
0.0500000000001819
100
AcDbArc
 50
0.000000000260551
 51
90.0
  0
LINE
  5
2B1A
330
1F
100
AcDbEntity
  8
DETAILS
 62
     6
370
    20
100
AcDbLine
 10
-38.82831566058408
 20
92.7948428406591
 30
0.0
 11
-38.82831566058408
 21
92.7398428406588
 31
0.0
  0
ARC
  5
2B1B
330
1F
100
AcDbEntity
  8
DETAILS
 62
     6
370
    20
100
AcDbCircle
 10
-38.4033156605839
 20
92.7398428406588
 30
0.0
 40
0.4249999999997272
100
AcDbArc
 50
180.000000000026
 51
0.0000000000260551
  0
LINE
  5
2B1C
330
1F
100
AcDbEntity
  8
DETAILS
 62
     6
370
    20
100
AcDbLine
 10
-37.97831566058372
 20
92.73984284065926
 30
0.0
 11
-37.97831566058554
 21
92.7948428406591
 31
0.0
  0
ARC
  5
2B1D
330
1F
100
AcDbEntity
  8
DETAILS
 62
     6
370
    20
100
AcDbCircle
 10
-37.92831566058445
 20
92.7948428406591
 30
0.0
 40
0.0500000000001819
100
AcDbArc
 50
90.0
 51
180.0
  0
LINE
  5
2B1E
330
1F
100
AcDbEntity
  8
DETAILS
 62
     6
370
    20
100
AcDbLine
 10
-37.92831566058445
 20
92.84484284065928
 30
0.0
 11
-37.82831566058408
 21
92.84484284065928
 31
0.0
  0
LINE
  5
2B1F
330
1F
100
AcDbEntity
  8
DETAILS
 62
     6
370
    20
100
AcDbLine
 10
-37.82831566058408
 20
92.84484284065928
 30
0.0
 11
-37.82831566058408
 21
92.89484284065947
 31
0.0
  0
LINE
  5
2B20
330
1F
100
AcDbEntity
  8
DETAILS
 62
     6
370
    20
100
AcDbLine
 10
-37.82831566058408
 20
92.89484284065947
 30
0.0
 11
-37.82093744819409
 21
92.89484284065947
 31
0.0
  0
LINE
  5
2B21
330
1F
100
AcDbEntity
  8
DETAILS
 62
     6
370
    20
100
AcDbLine
 10
-37.82093744819409
 20
92.89484284065947
 30
0.0
 11
-37.97831566058463
 21
92.89484284065947
 31
0.0
  0
ARC
  5
2B22
330
1F
100
AcDbEntity
  8
DETAILS
 62
     6
370
    20
100
AcDbCircle
 10
-37.97831566058463
 20
92.84484284065928
 30
0.0
 40
0.0500000000001819
100
AcDbArc
 50
90.0
 51
179.9999999998697
  0
LINE
  5
2B23
330
1F
100
AcDbEntity
  8
DETAILS
 62
     6
370
    20
100
AcDbLine
 10
-38.02831566058481
 20
92.84484284065928
 30
0.0
 11
-38.02831566058481
 21
92.73984284065926
 31
0.0
  0
ARC
  5
2B24
330
1F
100
AcDbEntity
  8
DETAILS
 62
     6
370
    20
100
AcDbCircle
 10
-38.40331566058481
 20
92.7398428406588
 30
0.0
 40
0.375
100
AcDbArc
 50
180.0
 51
0.0
  0
LINE
  5
2B25
330
1F
100
AcDbEntity
  8
DETAILS
 62
     6
370
    20
100
AcDbLine
 10
-38.77831566058481
 20
92.7398428406588
 30
0.0
 11
-38.77831566058481
 21
92.84484284065928
 31
0.0
  0
ARC
  5
2B26
330
1F
100
AcDbEntity
  8
DETAILS
 62
     6
370
    20
100
AcDbCircle
 10
-38.82831566058408
 20
92.84484284065928
 30
0.0
 40
0.0500000000001819
100
AcDbArc
 50
0.0000000001302755
 51
90.0
  0
LINE
  5
2B27
330
1F
100
AcDbEntity
  8
DETAILS
 62
     6
370
    20
100
AcDbLine
 10
-38.82831566058408
 20
92.89484284065947
 30
0.0
 11
-39.27831566058481
 21
92.89484284065947
 31
0.0
  0
ARC
  5
2B28
330
1F
100
AcDbEntity
  8
DETAILS
 62
     6
370
    20
100
AcDbCircle
 10
-39.27831566058481
 20
92.84484284065928
 30
0.0
 40
0.0500000000001251
100
AcDbArc
 50
90.0
 51
179.9999999998697
  0
LINE
  5
2B29
330
1F
100
AcDbEntity
  8
DETAILS
 62
     6
370
    20
100
AcDbLine
 10
-39.32831566058408
 20
92.84484284065928
 30
0.0
 11
-39.32831566058408
 21
92.73984284065608
 31
0.0
  0
ARC
  5
2B2A
330
1F
100
AcDbEntity
  8
DETAILS
 62
     6
370
    20
100
AcDbCircle
 10
-39.70331566058317
 20
92.73984284065608
 30
0.0
 40
0.3749999999995452
100
AcDbArc
 50
270.0000000000521
 51
0.0000000000521102
  0
ARC
  5
2B2B
330
1F
100
AcDbEntity
  8
DETAILS
 62
     6
370
    20
100
AcDbCircle
 10
-39.70331566058226
 20
92.73984284065608
 30
0.0
 40
0.3749999999998295
100
AcDbArc
 50
180.0
 51
269.9999999999479
  0
LINE
  5
2B2C
330
1F
100
AcDbEntity
  8
DETAILS
 62
     6
370
    20
100
AcDbLine
 10
-40.07831566058226
 20
92.73984284065608
 30
0.0
 11
-40.07831566058226
 21
92.84484284065928
 31
0.0
  0
ARC
  5
2B2D
330
1F
100
AcDbEntity
  8
DETAILS
 62
     6
370
    20
100
AcDbCircle
 10
-40.12831566058153
 20
92.84484284065928
 30
0.0
 40
0.0500000000001819
100
AcDbArc
 50
0.0000000001302755
 51
90.0
  0
LINE
  5
2B2E
330
1F
100
AcDbEntity
  8
DETAILS
 62
     6
370
    20
100
AcDbLine
 10
-40.12831566058153
 20
92.89484284065947
 30
0.0
 11
-40.57831566058226
 21
92.89484284065947
 31
0.0
  0
ARC
  5
2B2F
330
1F
100
AcDbEntity
  8
DETAILS
 62
     6
370
    20
100
AcDbCircle
 10
-40.57831566058226
 20
92.84484284065928
 30
0.0
 40
0.0500000000001819
100
AcDbArc
 50
90.0
 51
179.9999999998697
  0
LINE
  5
2B30
330
1F
100
AcDbEntity
  8
DETAILS
 62
     6
370
    20
100
AcDbLine
 10
-40.62831566058153
 20
92.84484284065928
 30
0.0
 11
-40.62831566058153
 21
92.7398428406588
 31
0.0
  0
ARC
  5
2B31
330
1F
100
AcDbEntity
  8
DETAILS
 62
     6
370
    20
100
AcDbCircle
 10
-41.00331566058153
 20
92.7398428406588
 30
0.0
 40
0.3749999999995452
100
AcDbArc
 50
179.9999999999739
 51
0.0
  0
LINE
  5
2B32
330
1F
100
AcDbEntity
  8
DETAILS
 62
     6
370
    20
100
AcDbLine
 10
-41.37831566058153
 20
92.73984284065926
 30
0.0
 11
-41.37831566058153
 21
92.84484284065928
 31
0.0
  0
ARC
  5
2B33
330
1F
100
AcDbEntity
  8
DETAILS
 62
     6
370
    20
100
AcDbCircle
 10
-41.42831566058172
 20
92.84484284065928
 30
0.0
 40
0.0500000000001819
100
AcDbArc
 50
0.0000000001302755
 51
90.0
  0
LINE
  5
2B34
330
1F
100
AcDbEntity
  8
DETAILS
 62
     6
370
    20
100
AcDbLine
 10
-41.42831566058172
 20
92.89484284065947
 30
0.0
 11
-41.58569387297226
 21
92.89484284065947
 31
0.0
  0
LINE
  5
2B35
330
1F
100
AcDbEntity
  8
DETAILS
 62
     6
370
    20
100
AcDbLine
 10
-42.80331566058172
 20
95.25132963134655
 30
0.0
 11
-42.80331566058172
 21
94.18507386941854
 31
0.0
  0
LINE
  5
2B36
330
1F
100
AcDbEntity
  8
DETAILS
 62
     6
370
    20
100
AcDbLine
 10
-42.80331566058172
 20
94.18507386941854
 30
0.0
 11
-42.80331566058262
 21
87.42342148442293
 31
0.0
  0
ARC
  5
2B37
330
1F
100
AcDbEntity
  8
DETAILS
 62
     6
370
    20
100
AcDbCircle
 10
-42.70331566058317
 20
87.42342148442293
 30
0.0
 40
0.0999999999999091
100
AcDbArc
 50
135.0000000001477
 51
180.0000000001302
  0
LINE
  5
2B38
330
1F
100
AcDbEntity
  8
DETAILS
 62
     6
370
    20
100
AcDbLine
 10
-42.77402633870147
 20
87.49413216254124
 30
0.0
 11
-41.12224964340398
 21
89.17090885783698
 31
0.0
  0
ARC
  5
2B39
330
1F
100
AcDbEntity
  8
DETAILS
 62
     6
370
    20
100
AcDbCircle
 10
-41.01618362622608
 20
89.06484284065953
 30
0.0
 40
0.1499999999998163
100
AcDbArc
 50
90.0
 51
135.0000000000187
  0
LINE
  5
2B3A
330
1F
100
AcDbEntity
  8
DETAILS
 62
     6
370
    20
100
AcDbLine
 10
-41.01618362622608
 20
89.21484284065916
 30
0.0
 11
-39.70331566058317
 21
89.21484284065916
 31
0.0
  0
LINE
  5
2B3B
330
1F
100
AcDbEntity
  8
DETAILS
 62
     6
370
    20
100
AcDbLine
 10
-39.70331566058317
 20
89.21484284065916
 30
0.0
 11
-38.39044769494027
 21
89.21484284065916
 31
0.0
  0
ARC
  5
2B3C
330
1F
100
AcDbEntity
  8
DETAILS
 62
     6
370
    20
100
AcDbCircle
 10
-38.39044769494027
 20
89.06484284065953
 30
0.0
 40
0.1499999999998067
100
AcDbArc
 50
44.99999999998129
 51
90.0
  0
LINE
  5
2B3D
330
1F
100
AcDbEntity
  8
DETAILS
 62
     6
370
    20
100
AcDbLine
 10
-38.28438167776236
 20
89.17090885783698
 30
0.0
 11
-36.63260498246396
 21
87.49413216254124
 31
0.0
  0
ARC
  5
2B3E
330
1F
100
AcDbEntity
  8
DETAILS
 62
     6
370
    20
100
AcDbCircle
 10
-36.70331566058318
 20
87.42342148442293
 30
0.0
 40
0.0999999999999044
100
AcDbArc
 50
359.9999999998958
 51
44.99999999985233
  0
LINE
  5
2B3F
330
1F
100
AcDbEntity
  8
DETAILS
 62
     6
370
    20
100
AcDbLine
 10
-36.60331566058281
 20
87.42342148442293
 30
0.0
 11
-36.60331566058463
 21
94.18507386941854
 31
0.0
  0
ARC
  5
2B40
330
1F
100
AcDbEntity
  8
DETAILS
 62
     6
370
    20
100
AcDbCircle
 10
-36.55331566058354
 20
96.16438405127718
 30
0.0
 40
0.0500000000001819
100
AcDbArc
 50
149.9999999997343
 51
179.9999999997394
  0
LINE
  5
2B41
330
1F
100
AcDbEntity
  8
DETAILS
 62
     6
370
    20
100
AcDbLine
 10
-36.59661693077229
 20
96.18938405127773
 30
0.0
 11
-36.53753051652362
 21
96.29172472279215
 31
0.0
  0
LINE
  5
2B42
330
1F
100
AcDbEntity
  8
DETAILS
 62
     6
370
    20
100
AcDbLine
 10
-36.53753051652362
 20
96.29172472279215
 30
0.0
 11
-36.45092797614612
 21
96.24172472279241
 31
0.0
  0
LINE
  5
2B43
330
1F
100
AcDbEntity
  8
DETAILS
 62
     6
370
    20
100
AcDbLine
 10
-36.45092797614612
 20
96.24172472279241
 30
0.0
 11
-36.49661693077192
 21
96.1625891320329
 31
0.0
  0
ARC
  5
2B44
330
1F
100
AcDbEntity
  8
DETAILS
 62
     6
370
    20
100
AcDbCircle
 10
-36.45331566058317
 20
96.13758913203236
 30
0.0
 40
0.0500000000002004
100
AcDbArc
 50
149.999999999547
 51
179.999999999531
  0
LINE
  5
2B45
330
1F
100
AcDbEntity
  8
DETAILS
 62
     6
370
    20
100
AcDbLine
 10
-36.50331566058336
 20
96.13758913203282
 30
0.0
 11
-36.50331566058336
 21
96.10098659165505
 31
0.0
  0
LINE
  5
2B46
330
1F
100
AcDbEntity
  8
DETAILS
 62
     6
370
    20
100
AcDbLine
 10
-37.07831566058499
 20
91.53484284065887
 30
0.0
 11
-37.0783156605859
 21
92.07586588639532
 31
0.0
  0
ARC
  5
2B47
330
1F
100
AcDbEntity
  8
DETAILS
 62
     6
370
    20
100
AcDbCircle
 10
-37.17831566058535
 20
92.07586588639532
 30
0.0
 40
0.0999999999999091
100
AcDbArc
 50
0.0
 51
136.1691393279388
  0
LINE
  5
2B48
330
1F
100
AcDbEntity
  8
DETAILS
 62
     6
370
    20
100
AcDbLine
 10
-37.25045439268902
 20
92.14511906921433
 30
0.0
 11
-37.76983651659535
 21
91.60409602347789
 31
0.0
  0
ARC
  5
2B49
330
1F
100
AcDbEntity
  8
DETAILS
 62
     6
370
    20
100
AcDbCircle
 10
-37.69769778449168
 20
91.53484284065934
 30
0.0
 40
0.1000000000000336
100
AcDbArc
 50
136.1691393279939
 51
270.0
  0
LINE
  5
2B4A
330
1F
100
AcDbEntity
  8
DETAILS
 62
     6
370
    20
100
AcDbLine
 10
-37.69769778449168
 20
91.43484284065943
 30
0.0
 11
-37.17831566058445
 21
91.43484284065943
 31
0.0
  0
ARC
  5
2B4B
330
1F
100
AcDbEntity
  8
DETAILS
 62
     6
370
    20
100
AcDbCircle
 10
-37.17831566058535
 20
91.53484284065934
 30
0.0
 40
0.1000000000001364
100
AcDbArc
 50
270.0000000002606
 51
359.9999999998958
  0
LINE
  5
2B4C
330
1F
100
AcDbEntity
  8
DETAILS
 62
     6
370
    20
100
AcDbLine
 10
-37.17831566058445
 20
90.11484284065927
 30
0.0
 11
-37.69769778449168
 21
90.11484284065927
 31
0.0
  0
ARC
  5
2B4D
330
1F
100
AcDbEntity
  8
DETAILS
 62
     6
370
    20
100
AcDbCircle
 10
-37.69769778449168
 20
90.01484284065936
 30
0.0
 40
0.1000000000000227
100
AcDbArc
 50
90.0
 51
223.830860672006
  0
LINE
  5
2B4E
330
1F
100
AcDbEntity
  8
DETAILS
 62
     6
370
    20
100
AcDbLine
 10
-37.76983651659535
 20
89.94558965784035
 30
0.0
 11
-37.25045439268902
 21
89.40456661210436
 31
0.0
  0
ARC
  5
2B4F
330
1F
100
AcDbEntity
  8
DETAILS
 62
     6
370
    20
100
AcDbCircle
 10
-37.17831566058535
 20
89.47381979492291
 30
0.0
 40
0.1000000000000336
100
AcDbArc
 50
223.830860672006
 51
0.0000000000260551
  0
LINE
  5
2B50
330
1F
100
AcDbEntity
  8
DETAILS
 62
     6
370
    20
100
AcDbLine
 10
-37.0783156605859
 20
89.47381979492291
 30
0.0
 11
-37.07831566058499
 21
90.01484284065936
 31
0.0
  0
ARC
  5
2B51
330
1F
100
AcDbEntity
  8
DETAILS
 62
     6
370
    20
100
AcDbCircle
 10
-37.17831566058535
 20
90.0148428406589
 30
0.0
 40
0.1000000000003638
100
AcDbArc
 50
0.0000000001042204
 51
89.99999999973944
  0
LINE
  5
2B52
330
1F
100
AcDbEntity
  8
0
 62
     1
100
AcDbLine
 10
-36.6033156605819
 20
96.51484284065936
 30
0.0
 11
-33.97831566058281
 21
96.51484284065936
 31
0.0
  0
LINE
  5
2B53
330
1F
100
AcDbEntity
  8
0
 62
     1
100
AcDbLine
 10
-36.6033156605819
 20
97.01484284065935
 30
0.0
 11
-36.6033156605819
 21
96.51484284065936
 31
0.0
  0
LINE
  5
2B54
330
1F
100
AcDbEntity
  8
0
  6
HIDDEN
 62
     1
 48
0.02
100
AcDbLine
 10
-34.32831566058045
 20
97.01484284065935
 30
0.0
 11
-34.32831566058045
 21
96.51484284065936
 31
0.0
  0
LINE
  5
2B55
330
1F
100
AcDbEntity
  8
0
  6
HIDDEN
 62
     1
 48
0.02
100
AcDbLine
 10
-35.9783156605819
 20
97.01484284065935
 30
0.0
 11
-35.9783156605819
 21
96.51484284065936
 31
0.0
  0
LINE
  5
2B56
330
1F
100
AcDbEntity
  8
0
  6
HIDDEN
 62
     1
 48
0.02
100
AcDbLine
 10
-34.95331566058045
 20
97.01484284065935
 30
0.0
 11
-34.95331566058045
 21
96.51484284065936
 31
0.0
  0
LINE
  5
2B57
330
1F
100
AcDbEntity
  8
0
  6
HIDDEN
 62
     1
 48
0.02
100
AcDbLine
 10
-36.6033156605819
 20
97.01484284065935
 30
0.0
 11
-35.9783156605819
 21
97.01484284065935
 31
0.0
  0
LINE
  5
2B58
330
1F
100
AcDbEntity
  8
0
  6
HIDDEN
 62
     1
 48
0.02
100
AcDbLine
 10
-34.95331566058045
 20
97.01484284065935
 30
0.0
 11
-34.32831566058045
 21
97.01484284065935
 31
0.0
  0
LINE
  5
2B59
330
1F
100
AcDbEntity
  8
0
  6
HIDDEN
 62
     1
 48
0.02
100
AcDbLine
 10
-36.40331566058117
 20
96.76484284065935
 30
0.0
 11
-36.40331566058117
 21
96.51484284065936
 31
0.0
  0
LINE
  5
2B5A
330
1F
100
AcDbEntity
  8
0
  6
HIDDEN
 62
     1
 48
0.02
100
AcDbLine
 10
-36.15331566058117
 20
96.76484284065935
 30
0.0
 11
-36.15331566058117
 21
96.51484284065936
 31
0.0
  0
LINE
  5
2B5B
330
1F
100
AcDbEntity
  8
0
  6
HIDDEN
 62
     1
 48
0.02
100
AcDbLine
 10
-36.40331566058117
 20
96.76484284065935
 30
0.0
 11
-36.15331566058117
 21
96.76484284065935
 31
0.0
  0
LINE
  5
2B5C
330
1F
100
AcDbEntity
  8
0
 62
     1
100
AcDbLine
 10
-45.42831566058262
 20
84.51484284065935
 30
0.0
 11
-42.80331566058262
 21
84.51484284065935
 31
0.0
  0
LINE
  5
2B5D
330
1F
100
AcDbEntity
  8
0
 62
     1
100
AcDbLine
 10
-45.42831566058262
 20
84.51484284065935
 30
0.0
 11
-43.25331566058244
 21
84.51484284065935
 31
0.0
  0
LINE
  5
2B5E
330
1F
100
AcDbEntity
  8
0
 62
     1
100
AcDbLine
 10
-43.00331566058335
 20
84.51484284065935
 30
0.0
 11
-42.80331566058353
 21
84.51484284065935
 31
0.0
  0
LINE
  5
2B5F
330
1F
100
AcDbEntity
  8
0
 48
0.15
100
AcDbLine
 10
-44.45331566058226
 20
84.51484284065935
 30
0.0
 11
-43.42831566058262
 21
84.51484284065935
 31
0.0
  0
LINE
  5
2B60
330
1F
100
AcDbEntity
  8
0
 62
     1
100
AcDbLine
 10
-43.37831566058244
 20
84.51484284065935
 30
0.0
 11
-44.50331566058335
 21
84.51484284065935
 31
0.0
  0
LINE
  5
2B61
330
1F
100
AcDbEntity
  8
0
 62
     1
100
AcDbLine
 10
-45.42831566058262
 20
84.51485481115668
 30
0.0
 11
-43.25331566058244
 21
84.51485481115668
 31
0.0
  0
LINE
  5
2B62
330
1F
100
AcDbEntity
  8
0
 62
     1
100
AcDbLine
 10
-45.07831566058226
 20
85.01485481115668
 30
0.0
 11
-44.45331566058226
 21
85.01485481115668
 31
0.0
  0
LINE
  5
2B63
330
1F
100
AcDbEntity
  8
0
 62
     1
100
AcDbLine
 10
-43.42831566058262
 20
85.01485481115668
 30
0.0
 11
-43.42831566058353
 21
84.51485481115668
 31
0.0
  0
LINE
  5
2B64
330
1F
100
AcDbEntity
  8
0
 62
     1
100
AcDbLine
 10
-44.45331566058226
 20
85.01485481115668
 30
0.0
 11
-44.45331566058226
 21
84.51485481115668
 31
0.0
  0
LINE
  5
2B65
330
1F
100
AcDbEntity
  8
0
 62
     1
100
AcDbLine
 10
-43.42831566058353
 20
85.01485481115668
 30
0.0
 11
-42.80331566058353
 21
85.01485481115668
 31
0.0
  0
LINE
  5
2B66
330
1F
100
AcDbEntity
  8
0
 62
     1
100
AcDbLine
 10
-43.25331566058335
 20
84.76485481115668
 30
0.0
 11
-43.25331566058335
 21
84.51485481115668
 31
0.0
  0
LINE
  5
2B67
330
1F
100
AcDbEntity
  8
0
 62
     1
100
AcDbLine
 10
-43.25331566058335
 20
84.76485481115668
 30
0.0
 11
-43.00331566058335
 21
84.76485481115668
 31
0.0
  0
LINE
  5
2B68
330
1F
100
AcDbEntity
  8
0
 62
     1
100
AcDbLine
 10
-43.00331566058335
 20
84.51485481115668
 30
0.0
 11
-42.80331566058353
 21
84.51485481115668
 31
0.0
  0
LINE
  5
2B69
330
1F
100
AcDbEntity
  8
0
 48
0.15
100
AcDbLine
 10
-44.45331566058226
 20
84.51485481115668
 30
0.0
 11
-43.42831566058262
 21
84.51485481115668
 31
0.0
  0
LINE
  5
2B6A
330
1F
100
AcDbEntity
  8
0
 62
     1
100
AcDbLine
 10
-43.37831566058244
 20
84.51485481115668
 30
0.0
 11
-44.50331566058335
 21
84.51485481115668
 31
0.0
  0
LINE
  5
2B6B
330
1F
100
AcDbEntity
  8
0
 62
     1
100
AcDbLine
 10
-34.32831566058226
 20
85.01485481115668
 30
0.0
 11
-34.32831566058226
 21
84.51485481115668
 31
0.0
  0
LINE
  5
2B6C
330
1F
100
AcDbEntity
  8
0
 62
     1
100
AcDbLine
 10
-35.97831566058372
 20
85.01485481115668
 30
0.0
 11
-35.97831566058372
 21
84.51485481115668
 31
0.0
  0
LINE
  5
2B6D
330
1F
100
AcDbEntity
  8
0
 62
     1
100
AcDbLine
 10
-34.95331566058226
 20
85.01485481115668
 30
0.0
 11
-34.95331566058226
 21
84.51485481115668
 31
0.0
  0
LINE
  5
2B6E
330
1F
100
AcDbEntity
  8
0
 62
     1
100
AcDbLine
 10
-36.60331566058372
 20
85.01485481115668
 30
0.0
 11
-35.97831566058372
 21
85.01485481115668
 31
0.0
  0
LINE
  5
2B6F
330
1F
100
AcDbEntity
  8
0
 62
     1
100
AcDbLine
 10
-34.95331566058226
 20
85.01485481115668
 30
0.0
 11
-34.32831566058226
 21
85.01485481115668
 31
0.0
  0
LINE
  5
2B70
330
1F
100
AcDbEntity
  8
0
 62
     1
100
AcDbLine
 10
-36.15331566058299
 20
84.76485481115668
 30
0.0
 11
-36.15331566058299
 21
84.51485481115668
 31
0.0
  0
LINE
  5
2B71
330
1F
100
AcDbEntity
  8
0
 62
     1
100
AcDbLine
 10
-36.40331566058299
 20
84.76485481115668
 30
0.0
 11
-36.15331566058299
 21
84.76485481115668
 31
0.0
  0
LINE
  5
2B72
330
1F
100
AcDbEntity
  8
0
 62
     1
100
AcDbLine
 10
-36.18831566058285
 20
84.51485481115668
 30
0.0
 11
-33.97831566058281
 21
84.51485481115668
 31
0.0
  0
LINE
  5
2B73
330
1F
100
AcDbEntity
  8
0
 62
     1
100
AcDbLine
 10
-36.60331566058372
 20
84.51485481115668
 30
0.0
 11
-36.40331566058299
 21
84.51485481115668
 31
0.0
  0
LINE
  5
2B74
330
1F
100
AcDbEntity
  8
0
 62
     1
100
AcDbLine
 10
-45.42831566058262
 20
84.51485481115668
 30
0.0
 11
-42.80331566058262
 21
84.51485481115668
 31
0.0
  0
LINE
  5
2B75
330
1F
100
AcDbEntity
  8
0
 62
     1
100
AcDbLine
 10
-42.80331566058262
 20
85.01485481115668
 30
0.0
 11
-42.80331566058262
 21
84.51485481115668
 31
0.0
  0
LINE
  5
2B76
330
1F
100
AcDbEntity
  8
0
  6
HIDDEN
 62
     1
 48
0.02
100
AcDbLine
 10
-45.07831566058226
 20
85.01485481115668
 30
0.0
 11
-44.45331566058226
 21
85.01485481115668
 31
0.0
  0
LINE
  5
2B77
330
1F
100
AcDbEntity
  8
0
  6
HIDDEN
 62
     1
 48
0.02
100
AcDbLine
 10
-45.07831566058226
 20
85.01485481115668
 30
0.0
 11
-45.07831566058226
 21
84.51485481115668
 31
0.0
  0
LINE
  5
2B78
330
1F
100
AcDbEntity
  8
0
  6
HIDDEN
 62
     1
 48
0.02
100
AcDbLine
 10
-43.42831566058262
 20
85.01485481115668
 30
0.0
 11
-43.42831566058353
 21
84.51485481115668
 31
0.0
  0
LINE
  5
2B79
330
1F
100
AcDbEntity
  8
0
  6
HIDDEN
 62
     1
 48
0.02
100
AcDbLine
 10
-44.45331566058226
 20
85.01485481115668
 30
0.0
 11
-44.45331566058226
 21
84.51485481115668
 31
0.0
  0
LINE
  5
2B7A
330
1F
100
AcDbEntity
  8
0
  6
HIDDEN
 62
     1
 48
0.02
100
AcDbLine
 10
-43.42831566058353
 20
85.01485481115668
 30
0.0
 11
-42.80331566058353
 21
85.01485481115668
 31
0.0
  0
LINE
  5
2B7B
330
1F
100
AcDbEntity
  8
0
 62
     1
100
AcDbLine
 10
-36.6033156605819
 20
84.51485481115668
 30
0.0
 11
-33.97831566058281
 21
84.51485481115668
 31
0.0
  0
LINE
  5
2B7C
330
1F
100
AcDbEntity
  8
0
 62
     1
100
AcDbLine
 10
-36.6033156605819
 20
85.01485481115668
 30
0.0
 11
-36.6033156605819
 21
84.51485481115668
 31
0.0
  0
LINE
  5
2B7D
330
1F
100
AcDbEntity
  8
0
  6
HIDDEN
 62
     1
 48
0.02
100
AcDbLine
 10
-34.32831566058045
 20
85.01485481115668
 30
0.0
 11
-34.32831566058045
 21
84.51485481115668
 31
0.0
  0
LINE
  5
2B7E
330
1F
100
AcDbEntity
  8
0
  6
HIDDEN
 62
     1
 48
0.02
100
AcDbLine
 10
-35.9783156605819
 20
85.01485481115668
 30
0.0
 11
-35.9783156605819
 21
84.51485481115668
 31
0.0
  0
LINE
  5
2B7F
330
1F
100
AcDbEntity
  8
0
  6
HIDDEN
 62
     1
 48
0.02
100
AcDbLine
 10
-34.95331566058045
 20
85.01485481115668
 30
0.0
 11
-34.95331566058045
 21
84.51485481115668
 31
0.0
  0
LINE
  5
2B80
330
1F
100
AcDbEntity
  8
0
  6
HIDDEN
 62
     1
 48
0.02
100
AcDbLine
 10
-36.6033156605819
 20
85.01485481115668
 30
0.0
 11
-35.9783156605819
 21
85.01485481115668
 31
0.0
  0
LINE
  5
2B81
330
1F
100
AcDbEntity
  8
0
  6
HIDDEN
 62
     1
 48
0.02
100
AcDbLine
 10
-34.95331566058045
 20
85.01485481115668
 30
0.0
 11
-34.32831566058045
 21
85.01485481115668
 31
0.0
  0
LINE
  5
2B82
330
1F
100
AcDbEntity
  8
0
  6
HIDDEN
 62
     1
 48
0.02
100
AcDbLine
 10
-36.40331566058117
 20
84.76485481115668
 30
0.0
 11
-36.40331566058117
 21
84.51485481115668
 31
0.0
  0
LINE
  5
2B83
330
1F
100
AcDbEntity
  8
0
  6
HIDDEN
 62
     1
 48
0.02
100
AcDbLine
 10
-36.15331566058117
 20
84.76485481115668
 30
0.0
 11
-36.15331566058117
 21
84.51485481115668
 31
0.0
  0
LINE
  5
2B84
330
1F
100
AcDbEntity
  8
0
  6
HIDDEN
 62
     1
 48
0.02
100
AcDbLine
 10
-36.40331566058117
 20
84.76485481115668
 30
0.0
 11
-36.15331566058117
 21
84.76485481115668
 31
0.0
  0
ARC
  5
2B85
330
1F
100
AcDbEntity
  8
DETAILS
 62
     6
370
    20
100
AcDbCircle
 10
-36.55331566058535
 20
85.41531360053857
 30
0.0
 40
0.0499999999997272
100
AcDbArc
 50
180.0000000004429
 51
210.0000000006405
  0
LINE
  5
2B86
330
1F
100
AcDbEntity
  8
DETAILS
 62
     6
370
    20
100
AcDbLine
 10
-36.5966169307741
 20
85.39031360053849
 30
0.0
 11
-36.53753051652635
 21
85.28797292902362
 31
0.0
  0
LINE
  5
2B87
330
1F
100
AcDbEntity
  8
DETAILS
 62
     6
370
    20
100
AcDbLine
 10
-36.53753051652635
 20
85.28797292902362
 30
0.0
 11
-36.45092797614794
 21
85.33797292902381
 31
0.0
  0
LINE
  5
2B88
330
1F
100
AcDbEntity
  8
DETAILS
 62
     6
370
    20
100
AcDbLine
 10
-36.45092797614794
 20
85.33797292902381
 30
0.0
 11
-36.49661693077465
 21
85.4171085197824
 31
0.0
  0
ARC
  5
2B89
330
1F
100
AcDbEntity
  8
DETAILS
 62
     6
370
    20
100
AcDbCircle
 10
-36.4533156605859
 20
85.44210851978295
 30
0.0
 40
0.0499999999997213
100
AcDbArc
 50
180.0000000003126
 51
210.0000000005465
  0
LINE
  5
2B8A
330
1F
100
AcDbEntity
  8
DETAILS
 62
     6
370
    20
100
AcDbLine
 10
-36.50331566058608
 20
85.44210851978295
 30
0.0
 11
-36.50331566058517
 21
85.47871106016117
 31
0.0
  0
LINE
  5
2B8B
330
1F
100
AcDbEntity
  8
DETAILS
 62
     6
370
    20
100
AcDbLine
 10
-42.90331566058299
 20
85.47871106016026
 30
0.0
 11
-42.90331566058299
 21
85.44210851978295
 31
0.0
  0
ARC
  5
2B8C
330
1F
100
AcDbEntity
  8
DETAILS
 62
     6
370
    20
100
AcDbCircle
 10
-42.95331566058317
 20
85.44210851978295
 30
0.0
 40
0.0499999999997272
100
AcDbArc
 50
329.9999999994534
 51
359.9999999996613
  0
LINE
  5
2B8D
330
1F
100
AcDbEntity
  8
DETAILS
 62
     6
370
    20
100
AcDbLine
 10
-42.91001439039442
 20
85.4171085197824
 30
0.0
 11
-42.95570334502113
 21
85.3379729290229
 31
0.0
  0
LINE
  5
2B8E
330
1F
100
AcDbEntity
  8
DETAILS
 62
     6
370
    20
100
AcDbLine
 10
-42.95570334502113
 20
85.3379729290229
 30
0.0
 11
-42.86910080464273
 21
85.28797292902362
 31
0.0
  0
LINE
  5
2B8F
330
1F
100
AcDbEntity
  8
DETAILS
 62
     6
370
    20
100
AcDbLine
 10
-42.86910080464273
 20
85.28797292902362
 30
0.0
 11
-42.81001439039497
 21
85.39031360053849
 31
0.0
  0
ARC
  5
2B90
330
1F
100
AcDbEntity
  8
DETAILS
 62
     6
370
    20
100
AcDbCircle
 10
-42.85331566058371
 20
85.41531360053857
 30
0.0
 40
0.0499999999997782
100
AcDbArc
 50
329.9999999993595
 51
359.999999999531
  0
LINE
  5
2B91
330
1F
100
AcDbEntity
  8
0
 62
     1
100
AcDbLine
 10
-34.32831566058226
 20
97.01485481115668
 30
0.0
 11
-34.32831566058226
 21
96.51485481115669
 31
0.0
  0
LINE
  5
2B92
330
1F
100
AcDbEntity
  8
0
 62
     1
100
AcDbLine
 10
-35.97831566058372
 20
97.01485481115668
 30
0.0
 11
-35.97831566058372
 21
96.51485481115669
 31
0.0
  0
LINE
  5
2B93
330
1F
100
AcDbEntity
  8
0
 62
     1
100
AcDbLine
 10
-34.95331566058226
 20
97.01485481115668
 30
0.0
 11
-34.95331566058226
 21
96.51485481115669
 31
0.0
  0
LINE
  5
2B94
330
1F
100
AcDbEntity
  8
0
 62
     1
100
AcDbLine
 10
-36.60331566058372
 20
97.01485481115668
 30
0.0
 11
-35.97831566058372
 21
97.01485481115668
 31
0.0
  0
LINE
  5
2B95
330
1F
100
AcDbEntity
  8
0
 62
     1
100
AcDbLine
 10
-34.95331566058226
 20
97.01485481115668
 30
0.0
 11
-34.32831566058226
 21
97.01485481115668
 31
0.0
  0
LINE
  5
2B96
330
1F
100
AcDbEntity
  8
0
 62
     1
100
AcDbLine
 10
-36.15331566058299
 20
96.76485481115669
 30
0.0
 11
-36.15331566058299
 21
96.51485481115669
 31
0.0
  0
LINE
  5
2B97
330
1F
100
AcDbEntity
  8
0
 62
     1
100
AcDbLine
 10
-36.40331566058299
 20
96.76485481115669
 30
0.0
 11
-36.15331566058299
 21
96.76485481115669
 31
0.0
  0
LINE
  5
2B98
330
1F
100
AcDbEntity
  8
0
 62
     1
100
AcDbLine
 10
-36.18831566058285
 20
96.51485481115669
 30
0.0
 11
-33.97831566058281
 21
96.51485481115669
 31
0.0
  0
LINE
  5
2B99
330
1F
100
AcDbEntity
  8
0
 62
     1
100
AcDbLine
 10
-36.60331566058372
 20
96.51485481115669
 30
0.0
 11
-36.40331566058299
 21
96.51485481115669
 31
0.0
  0
LINE
  5
2B9A
330
1F
100
AcDbEntity
  8
0
 62
     1
100
AcDbLine
 10
-36.6033156605819
 20
96.51485481115669
 30
0.0
 11
-33.97831566058281
 21
96.51485481115669
 31
0.0
  0
LINE
  5
2B9B
330
1F
100
AcDbEntity
  8
0
 62
     1
100
AcDbLine
 10
-36.6033156605819
 20
97.01485481115668
 30
0.0
 11
-36.6033156605819
 21
96.51485481115669
 31
0.0
  0
LINE
  5
2B9C
330
1F
100
AcDbEntity
  8
0
  6
HIDDEN
 62
     1
 48
0.02
100
AcDbLine
 10
-34.32831566058045
 20
97.01485481115668
 30
0.0
 11
-34.32831566058045
 21
96.51485481115669
 31
0.0
  0
LINE
  5
2B9D
330
1F
100
AcDbEntity
  8
0
  6
HIDDEN
 62
     1
 48
0.02
100
AcDbLine
 10
-35.9783156605819
 20
97.01485481115668
 30
0.0
 11
-35.9783156605819
 21
96.51485481115669
 31
0.0
  0
LINE
  5
2B9E
330
1F
100
AcDbEntity
  8
0
  6
HIDDEN
 62
     1
 48
0.02
100
AcDbLine
 10
-34.95331566058045
 20
97.01485481115668
 30
0.0
 11
-34.95331566058045
 21
96.51485481115669
 31
0.0
  0
LINE
  5
2B9F
330
1F
100
AcDbEntity
  8
0
  6
HIDDEN
 62
     1
 48
0.02
100
AcDbLine
 10
-36.6033156605819
 20
97.01485481115668
 30
0.0
 11
-35.9783156605819
 21
97.01485481115668
 31
0.0
  0
LINE
  5
2BA0
330
1F
100
AcDbEntity
  8
0
  6
HIDDEN
 62
     1
 48
0.02
100
AcDbLine
 10
-34.95331566058045
 20
97.01485481115668
 30
0.0
 11
-34.32831566058045
 21
97.01485481115668
 31
0.0
  0
LINE
  5
2BA1
330
1F
100
AcDbEntity
  8
0
  6
HIDDEN
 62
     1
 48
0.02
100
AcDbLine
 10
-36.40331566058117
 20
96.76485481115669
 30
0.0
 11
-36.40331566058117
 21
96.51485481115669
 31
0.0
  0
LINE
  5
2BA2
330
1F
100
AcDbEntity
  8
0
  6
HIDDEN
 62
     1
 48
0.02
100
AcDbLine
 10
-36.15331566058117
 20
96.76485481115669
 30
0.0
 11
-36.15331566058117
 21
96.51485481115669
 31
0.0
  0
LINE
  5
2BA3
330
1F
100
AcDbEntity
  8
0
  6
HIDDEN
 62
     1
 48
0.02
100
AcDbLine
 10
-36.40331566058117
 20
96.76485481115669
 30
0.0
 11
-36.15331566058117
 21
96.76485481115669
 31
0.0
  0
LWPOLYLINE
  5
2BA4
330
1F
100
AcDbEntity
  8
0
 48
0.15
100
AcDbPolyline
 90
        2
 70
     1
 43
0.25
 10
-41.12831566058154
 20
80.73984284065881
 42
1.0
 10
-40.87831566058153
 20
80.73984284065881
 42
1.0
  0
LWPOLYLINE
  5
2BA5
330
1F
100
AcDbEntity
  8
0
 48
0.15
100
AcDbPolyline
 90
        2
 70
     1
 43
0.25
 10
-38.52831566058481
 20
80.73984284065881
 42
1.0
 10
-38.27831566058481
 20
80.73984284065881
 42
1.0
  0
LWPOLYLINE
  5
2BA6
330
1F
100
AcDbEntity
  8
0
 48
0.15
100
AcDbPolyline
 90
        2
 70
     1
 43
0.25
 10
-41.12831566058154
 20
76.67405770987688
 42
1.0
 10
-40.87831566058153
 20
76.67405770987688
 42
1.0
  0
LWPOLYLINE
  5
2BA7
330
1F
100
AcDbEntity
  8
0
 48
0.15
100
AcDbPolyline
 90
        2
 70
     1
 43
0.25
 10
-38.52831566058481
 20
76.67405770987688
 42
1.0
 10
-38.27831566058481
 20
76.67405770987688
 42
1.0
  0
ENDSEC
  0
SECTION
  2
OBJECTS
  0
DICTIONARY
  5
C
330
0
100
AcDbDictionary
281
     1
  3
ACAD_COLOR
350
73
  3
ACAD_GROUP
350
D
  3
ACAD_LAYOUT
350
1A
  3
ACAD_MATERIAL
350
72
  3
ACAD_MLINESTYLE
350
17
  3
ACAD_PLOTSETTINGS
350
19
  3
ACAD_PLOTSTYLENAME
350
E
  3
ACDBHEADERROUNDTRIPXREC
350
2BB3
  3
AcDbVariableDictionary
350
66
  0
DICTIONARY
  5
A4
330
2
100
AcDbDictionary
280
     1
281
     1
  3
ACAD_LAYERSTATES
360
A5
  0
DICTIONARY
  5
73
102
{ACAD_REACTORS
330
C
102
}
330
C
100
AcDbDictionary
281
     1
  0
DICTIONARY
  5
D
102
{ACAD_REACTORS
330
C
102
}
330
C
100
AcDbDictionary
281
     1
  0
DICTIONARY
  5
1A
102
{ACAD_REACTORS
330
C
102
}
330
C
100
AcDbDictionary
281
     1
  3
Layout1
350
59
  3
Layout2
350
5E
  3
Model
350
22
  0
DICTIONARY
  5
72
102
{ACAD_REACTORS
330
C
102
}
330
C
100
AcDbDictionary
281
     1
  0
DICTIONARY
  5
17
102
{ACAD_REACTORS
330
C
102
}
330
C
100
AcDbDictionary
281
     1
  3
Standard
350
18
  0
DICTIONARY
  5
19
102
{ACAD_REACTORS
330
C
102
}
330
C
100
AcDbDictionary
281
     1
  0
ACDBDICTIONARYWDFLT
  5
E
102
{ACAD_REACTORS
330
C
102
}
330
C
100
AcDbDictionary
281
     1
  3
Normal
350
F
100
AcDbDictionaryWithDefault
340
F
  0
DICTIONARY
  5
2BB3
102
{ACAD_REACTORS
330
C
102
}
330
C
100
AcDbDictionary
281
     1
  3
COLORDICT
350
2BB5
  3
MATERIALDICT
350
2BB4
  0
DICTIONARY
  5
66
102
{ACAD_REACTORS
330
C
102
}
330
C
100
AcDbDictionary
281
     1
  3
DIMASSOC
350
67
  3
HIDETEXT
350
6B
  3
PROJECTNAME
350
33A
  0
DICTIONARY
  5
A5
102
{ACAD_REACTORS
330
A4
102
}
330
A4
100
AcDbDictionary
281
     1
  0
LAYOUT
  5
59
102
{ACAD_XDICTIONARY
360
2BB8
102
}
102
{ACAD_REACTORS
330
1A
102
}
330
1A
100
AcDbPlotSettings
  1

  2
None
  4

  6

 40
0.0
 41
0.0
 42
0.0
 43
0.0
 44
0.0
 45
0.0
 46
0.0
 47
0.0
 48
0.0
 49
0.0
140
0.0
141
0.0
142
1.0
143
1.0
 70
   688
 72
     0
 73
     0
 74
     5
  7

 75
    16
147
1.0
148
0.0
149
0.0
100
AcDbLayout
  1
Layout1
 70
     1
 71
     1
 10
0.0
 20
0.0
 11
12.0
 21
9.0
 12
0.0
 22
0.0
 32
0.0
 14
0.0
 24
0.0
 34
0.0
 15
0.0
 25
0.0
 35
0.0
146
0.0
 13
0.0
 23
0.0
 33
0.0
 16
1.0
 26
0.0
 36
0.0
 17
0.0
 27
1.0
 37
0.0
 76
     0
330
58
  0
LAYOUT
  5
5E
102
{ACAD_XDICTIONARY
360
2BBA
102
}
102
{ACAD_REACTORS
330
1A
102
}
330
1A
100
AcDbPlotSettings
  1

  2
None
  4

  6

 40
0.0
 41
0.0
 42
0.0
 43
0.0
 44
0.0
 45
0.0
 46
0.0
 47
0.0
 48
0.0
 49
0.0
140
0.0
141
0.0
142
1.0
143
1.0
 70
   688
 72
     0
 73
     0
 74
     5
  7

 75
    16
147
1.0
148
0.0
149
0.0
100
AcDbLayout
  1
Layout2
 70
     1
 71
     2
 10
0.0
 20
0.0
 11
12.0
 21
9.0
 12
0.0
 22
0.0
 32
0.0
 14
0.0
 24
0.0
 34
0.0
 15
0.0
 25
0.0
 35
0.0
146
0.0
 13
0.0
 23
0.0
 33
0.0
 16
1.0
 26
0.0
 36
0.0
 17
0.0
 27
1.0
 37
0.0
 76
     0
330
5D
  0
LAYOUT
  5
22
102
{ACAD_XDICTIONARY
360
2BB6
102
}
102
{ACAD_REACTORS
330
1A
102
}
330
1A
100
AcDbPlotSettings
  1

  2
none_device
  4
ANSI_A_(8.50_x_11.00_Inches)
  6

 40
6.349999904632568
 41
19.04999923706055
 42
6.350006103515625
 43
19.04998779296875
 44
215.8999938964844
 45
279.3999938964844
 46
0.0
 47
0.0
 48
0.0
 49
0.0
140
0.0
141
0.0
142
1.0
143
2.584895464708373
 70
 11952
 72
     0
 73
     1
 74
     0
  7

 75
     0
147
0.3868628397755418
148
0.0
149
0.0
100
AcDbLayout
  1
Model
 70
     1
 71
     0
 10
0.0
 20
0.0
 11
12.0
 21
9.0
 12
0.0
 22
0.0
 32
0.0
 14
0.0
 24
0.0
 34
0.0
 15
0.0
 25
0.0
 35
0.0
146
0.0
 13
0.0
 23
0.0
 33
0.0
 16
1.0
 26
0.0
 36
0.0
 17
0.0
 27
1.0
 37
0.0
 76
     0
330
1F
  0
MLINESTYLE
  5
18
102
{ACAD_REACTORS
330
17
102
}
330
17
100
AcDbMlineStyle
  2
STANDARD
 70
     0
  3

 62
   256
 51
90.0
 52
90.0
 71
     2
 49
0.5
 62
   256
  6
BYLAYER
 49
-0.5
 62
   256
  6
BYLAYER
  0
ACDBPLACEHOLDER
  5
F
102
{ACAD_REACTORS
330
E
102
}
330
E
  0
XRECORD
  5
2BB5
102
{ACAD_REACTORS
330
2BB3
102
}
330
2BB3
100
AcDbXrecord
280
     1
340
73
  0
XRECORD
  5
2BB4
102
{ACAD_REACTORS
330
2BB3
102
}
330
2BB3
100
AcDbXrecord
280
     1
340
72
  0
DICTIONARYVAR
  5
67
102
{ACAD_REACTORS
330
66
102
}
330
66
100
DictionaryVariables
280
     0
  1
2
  0
DICTIONARYVAR
  5
6B
102
{ACAD_REACTORS
330
66
102
}
330
66
100
DictionaryVariables
280
     0
  1
1
  0
DICTIONARYVAR
  5
33A
102
{ACAD_REACTORS
330
66
102
}
330
66
100
DictionaryVariables
280
     0
  1

  0
DICTIONARY
  5
2BB8
330
59
100
AcDbDictionary
280
     1
281
     1
  3
ACAD_XREC_ROUNDTRIP
360
2BB9
  0
DICTIONARY
  5
2BBA
330
5E
100
AcDbDictionary
280
     1
281
     1
  3
ACAD_XREC_ROUNDTRIP
360
2BBB
  0
DICTIONARY
  5
2BB6
330
22
100
AcDbDictionary
280
     1
281
     1
  3
ACAD_XREC_ROUNDTRIP
360
2BB7
  0
XRECORD
  5
2BB9
102
{ACAD_REACTORS
330
2BB8
102
}
330
2BB8
100
AcDbXrecord
280
     1
102
SHADEPLOT
 70
     0
102
SHADEPLOTRESLEVEL
 70
     2
102
SHADEPLOTCUSTOMDPI
 70
   300
  0
XRECORD
  5
2BBB
102
{ACAD_REACTORS
330
2BBA
102
}
330
2BBA
100
AcDbXrecord
280
     1
102
SHADEPLOT
 70
     0
102
SHADEPLOTRESLEVEL
 70
     2
102
SHADEPLOTCUSTOMDPI
 70
   300
  0
XRECORD
  5
2BB7
102
{ACAD_REACTORS
330
2BB6
102
}
330
2BB6
100
AcDbXrecord
280
     1
102
SHADEPLOT
 70
     0
102
SHADEPLOTRESLEVEL
 70
     2
102
SHADEPLOTCUSTOMDPI
 70
   300
  0
ENDSEC
  0
EOF
