  0
SECTION
  2
HEADER
  9
$ACADVER
  1
AC1015
  9
$ACADMAINTVER
 70
    20
  9
$DWGCODEPAGE
  3
ANSI_1252
  9
$INSBASE
 10
0.0
 20
0.0
 30
0.0
  9
$EXTMIN
 10
-70.51781244517134
 20
20.77599833287357
 30
-0.0015258207003583
  9
$EXTMAX
 10
1.252060179593172
 20
91.76615858317489
 30
0.0000000349246037
  9
$LIMMIN
 10
0.0
 20
0.0
  9
$LIMMAX
 10
12.0
 20
9.0
  9
$ORTHOMODE
 70
     0
  9
$REGENMODE
 70
     1
  9
$FILLMODE
 70
     1
  9
$QTEXTMODE
 70
     0
  9
$MIRRTEXT
 70
     0
  9
$LTSCALE
 40
1.0
  9
$ATTMODE
 70
     1
  9
$TEXTSIZE
 40
0.2
  9
$TRACEWID
 40
0.05
  9
$TEXTSTYLE
  7
Standard
  9
$CLAYER
  8
0
  9
$CELTYPE
  6
ByLayer
  9
$CECOLOR
 62
   256
  9
$CELTSCALE
 40
1.0
  9
$DISPSILH
 70
     0
  9
$DIMSCALE
 40
1.0
  9
$DIMASZ
 40
0.18
  9
$DIMEXO
 40
0.0625
  9
$DIMDLI
 40
0.38
  9
$DIMRND
 40
0.0
  9
$DIMDLE
 40
0.0
  9
$DIMEXE
 40
0.18
  9
$DIMTP
 40
0.0
  9
$DIMTM
 40
0.0
  9
$DIMTXT
 40
0.18
  9
$DIMCEN
 40
0.09
  9
$DIMTSZ
 40
0.0
  9
$DIMTOL
 70
     0
  9
$DIMLIM
 70
     0
  9
$DIMTIH
 70
     1
  9
$DIMTOH
 70
     1
  9
$DIMSE1
 70
     0
  9
$DIMSE2
 70
     0
  9
$DIMTAD
 70
     0
  9
$DIMZIN
 70
     0
  9
$DIMBLK
  1

  9
$DIMASO
 70
     1
  9
$DIMSHO
 70
     1
  9
$DIMPOST
  1

  9
$DIMAPOST
  1

  9
$DIMALT
 70
     0
  9
$DIMALTD
 70
     2
  9
$DIMALTF
 40
25.4
  9
$DIMLFAC
 40
1.0
  9
$DIMTOFL
 70
     0
  9
$DIMTVP
 40
0.0
  9
$DIMTIX
 70
     0
  9
$DIMSOXD
 70
     0
  9
$DIMSAH
 70
     0
  9
$DIMBLK1
  1

  9
$DIMBLK2
  1

  9
$DIMSTYLE
  2
Standard
  9
$DIMCLRD
 70
     0
  9
$DIMCLRE
 70
     0
  9
$DIMCLRT
 70
     0
  9
$DIMTFAC
 40
1.0
  9
$DIMGAP
 40
0.09
  9
$DIMJUST
 70
     0
  9
$DIMSD1
 70
     0
  9
$DIMSD2
 70
     0
  9
$DIMTOLJ
 70
     1
  9
$DIMTZIN
 70
     0
  9
$DIMALTZ
 70
     0
  9
$DIMALTTZ
 70
     0
  9
$DIMUPT
 70
     0
  9
$DIMDEC
 70
     4
  9
$DIMTDEC
 70
     4
  9
$DIMALTU
 70
     2
  9
$DIMALTTD
 70
     2
  9
$DIMTXSTY
  7
Standard
  9
$DIMAUNIT
 70
     0
  9
$DIMADEC
 70
     0
  9
$DIMALTRND
 40
0.0
  9
$DIMAZIN
 70
     0
  9
$DIMDSEP
 70
    46
  9
$DIMATFIT
 70
     3
  9
$DIMFRAC
 70
     0
  9
$DIMLDRBLK
  1

  9
$DIMLUNIT
 70
     2
  9
$DIMLWD
 70
    -2
  9
$DIMLWE
 70
    -2
  9
$DIMTMOVE
 70
     0
  9
$LUNITS
 70
     2
  9
$LUPREC
 70
     4
  9
$SKETCHINC
 40
0.1
  9
$FILLETRAD
 40
0.0
  9
$AUNITS
 70
     0
  9
$AUPREC
 70
     0
  9
$MENU
  1
.
  9
$ELEVATION
 40
0.0
  9
$PELEVATION
 40
0.0
  9
$THICKNESS
 40
0.0
  9
$LIMCHECK
 70
     0
  9
$CHAMFERA
 40
0.0
  9
$CHAMFERB
 40
0.0
  9
$CHAMFERC
 40
0.0
  9
$CHAMFERD
 40
0.0
  9
$SKPOLY
 70
     0
  9
$TDCREATE
 40
2454938.360508912
  9
$TDUCREATE
 40
2454938.610508913
  9
$TDUPDATE
 40
2454938.365506863
  9
$TDUUPDATE
 40
2454938.615506863
  9
$TDINDWG
 40
0.0049994560
  9
$TDUSRTIMER
 40
0.0049994560
  9
$USRTIMER
 70
     1
  9
$ANGBASE
 50
0.0
  9
$ANGDIR
 70
     0
  9
$PDMODE
 70
     0
  9
$PDSIZE
 40
0.0
  9
$PLINEWID
 40
0.0
  9
$SPLFRAME
 70
     0
  9
$SPLINETYPE
 70
     6
  9
$SPLINESEGS
 70
     8
  9
$HANDSEED
  5
30CE
  9
$SURFTAB1
 70
     6
  9
$SURFTAB2
 70
     6
  9
$SURFTYPE
 70
     6
  9
$SURFU
 70
     6
  9
$SURFV
 70
     6
  9
$UCSBASE
  2

  9
$UCSNAME
  2

  9
$UCSORG
 10
0.0
 20
0.0
 30
0.0
  9
$UCSXDIR
 10
1.0
 20
0.0
 30
0.0
  9
$UCSYDIR
 10
0.0
 20
1.0
 30
0.0
  9
$UCSORTHOREF
  2

  9
$UCSORTHOVIEW
 70
     0
  9
$UCSORGTOP
 10
0.0
 20
0.0
 30
0.0
  9
$UCSORGBOTTOM
 10
0.0
 20
0.0
 30
0.0
  9
$UCSORGLEFT
 10
0.0
 20
0.0
 30
0.0
  9
$UCSORGRIGHT
 10
0.0
 20
0.0
 30
0.0
  9
$UCSORGFRONT
 10
0.0
 20
0.0
 30
0.0
  9
$UCSORGBACK
 10
0.0
 20
0.0
 30
0.0
  9
$PUCSBASE
  2

  9
$PUCSNAME
  2

  9
$PUCSORG
 10
0.0
 20
0.0
 30
0.0
  9
$PUCSXDIR
 10
1.0
 20
0.0
 30
0.0
  9
$PUCSYDIR
 10
0.0
 20
1.0
 30
0.0
  9
$PUCSORTHOREF
  2

  9
$PUCSORTHOVIEW
 70
     0
  9
$PUCSORGTOP
 10
0.0
 20
0.0
 30
0.0
  9
$PUCSORGBOTTOM
 10
0.0
 20
0.0
 30
0.0
  9
$PUCSORGLEFT
 10
0.0
 20
0.0
 30
0.0
  9
$PUCSORGRIGHT
 10
0.0
 20
0.0
 30
0.0
  9
$PUCSORGFRONT
 10
0.0
 20
0.0
 30
0.0
  9
$PUCSORGBACK
 10
0.0
 20
0.0
 30
0.0
  9
$USERI1
 70
     0
  9
$USERI2
 70
     0
  9
$USERI3
 70
     0
  9
$USERI4
 70
     0
  9
$USERI5
 70
     0
  9
$USERR1
 40
0.0
  9
$USERR2
 40
0.0
  9
$USERR3
 40
0.0
  9
$USERR4
 40
0.0
  9
$USERR5
 40
0.0
  9
$WORLDVIEW
 70
     1
  9
$SHADEDGE
 70
     3
  9
$SHADEDIF
 70
    70
  9
$TILEMODE
 70
     1
  9
$MAXACTVP
 70
    64
  9
$PINSBASE
 10
0.0
 20
0.0
 30
0.0
  9
$PLIMCHECK
 70
     0
  9
$PEXTMIN
 10
0.0
 20
0.0
 30
0.0
  9
$PEXTMAX
 10
0.0
 20
0.0
 30
0.0
  9
$PLIMMIN
 10
0.0
 20
0.0
  9
$PLIMMAX
 10
12.0
 20
9.0
  9
$UNITMODE
 70
     0
  9
$VISRETAIN
 70
     1
  9
$PLINEGEN
 70
     0
  9
$PSLTSCALE
 70
     1
  9
$TREEDEPTH
 70
  3020
  9
$CMLSTYLE
  2
Standard
  9
$CMLJUST
 70
     0
  9
$CMLSCALE
 40
1.0
  9
$PROXYGRAPHICS
 70
     1
  9
$MEASUREMENT
 70
     0
  9
$CELWEIGHT
370
    -1
  9
$ENDCAPS
280
     0
  9
$JOINSTYLE
280
     0
  9
$LWDISPLAY
290
     0
  9
$INSUNITS
 70
     1
  9
$HYPERLINKBASE
  1

  9
$STYLESHEET
  1

  9
$XEDIT
290
     1
  9
$CEPSNTYPE
380
     0
  9
$PSTYLEMODE
290
     1
  9
$FINGERPRINTGUID
  2
{FDEAD576-A652-11D2-9A35-0060089B3A3F}
  9
$VERSIONGUID
  2
{97798944-614F-40E1-8820-269BDBFA3F84}
  9
$EXTNAMES
290
     1
  9
$PSVPSCALE
 40
0.0
  9
$OLESTARTUP
290
     0
  0
ENDSEC
  0
SECTION
  2
CLASSES
  0
CLASS
  1
ACDBDICTIONARYWDFLT
  2
AcDbDictionaryWithDefault
  3
ObjectDBX Classes
 90
        0
280
     0
281
     0
  0
CLASS
  1
ACDBPLACEHOLDER
  2
AcDbPlaceHolder
  3
ObjectDBX Classes
 90
        0
280
     0
281
     0
  0
CLASS
  1
LAYOUT
  2
AcDbLayout
  3
ObjectDBX Classes
 90
        0
280
     0
281
     0
  0
CLASS
  1
DICTIONARYVAR
  2
AcDbDictionaryVar
  3
ObjectDBX Classes
 90
        0
280
     0
281
     0
  0
CLASS
  1
SORTENTSTABLE
  2
AcDbSortentsTable
  3
ObjectDBX Classes
 90
        0
280
     0
281
     0
  0
ENDSEC
  0
SECTION
  2
TABLES
  0
TABLE
  2
VPORT
  5
8
330
0
100
AcDbSymbolTable
 70
    20
  0
VPORT
  5
30C4
330
8
100
AcDbSymbolTableRecord
100
AcDbViewportTableRecord
  2
*Active
 70
     0
 10
0.0
 20
0.0
 11
1.0
 21
1.0
 12
-34.6328761327891
 22
56.27107845802424
 13
0.0
 23
0.0
 14
0.5
 24
0.5
 15
0.5
 25
0.5
 16
0.0
 26
0.0
 36
1.0
 17
0.0
 27
0.0
 37
0.0
 40
71.50272458423853
 41
1.48433734939759
 42
50.0
 43
0.0
 44
0.0
 50
0.0
 51
0.0
 71
     0
 72
  1000
 73
     1
 74
     3
 75
     0
 76
     0
 77
     0
 78
     0
281
     0
 65
     1
110
0.0
120
0.0
130
0.0
111
1.0
121
0.0
131
0.0
112
0.0
122
1.0
132
0.0
 79
     0
146
0.0
  0
ENDTAB
  0
TABLE
  2
LTYPE
  5
5
330
0
100
AcDbSymbolTable
 70
     4
  0
LTYPE
  5
14
330
5
100
AcDbSymbolTableRecord
100
AcDbLinetypeTableRecord
  2
ByBlock
 70
     0
  3

 72
    65
 73
     0
 40
0.0
  0
LTYPE
  5
15
330
5
100
AcDbSymbolTableRecord
100
AcDbLinetypeTableRecord
  2
ByLayer
 70
     0
  3

 72
    65
 73
     0
 40
0.0
  0
LTYPE
  5
16
330
5
100
AcDbSymbolTableRecord
100
AcDbLinetypeTableRecord
  2
Continuous
 70
     0
  3
Solid line
 72
    65
 73
     0
 40
0.0
  0
LTYPE
  5
96
330
5
100
AcDbSymbolTableRecord
100
AcDbLinetypeTableRecord
  2
DASHED2
 70
     0
  3
_ _ _ _ _ _ _ _ _ _ _ _ _ _ _ _ _ _ _ _ _ _ _ _
 72
    65
 73
     2
 40
0.375
 49
0.25
 74
     0
 49
-0.125
 74
     0
  0
LTYPE
  5
97
330
5
100
AcDbSymbolTableRecord
100
AcDbLinetypeTableRecord
  2
HIDDEN
 70
     0
  3
Hidden __ __ __ __ __ __ __ __ __ __ __ __ __ _
 72
    65
 73
     2
 40
0.375
 49
0.25
 74
     0
 49
-0.125
 74
     0
  0
LTYPE
  5
865
330
5
100
AcDbSymbolTableRecord
100
AcDbLinetypeTableRecord
  2
CENTER
 70
     0
  3
Center ____ _ ____ _ ____ _ ____ _ ____ _ ____
 72
    65
 73
     4
 40
2.0
 49
1.25
 74
     0
 49
-0.25
 74
     0
 49
0.25
 74
     0
 49
-0.25
 74
     0
  0
ENDTAB
  0
TABLE
  2
LAYER
  5
2
102
{ACAD_XDICTIONARY
360
A4
102
}
330
0
100
AcDbSymbolTable
 70
     9
  0
LAYER
  5
10
330
2
100
AcDbSymbolTableRecord
100
AcDbLayerTableRecord
  2
0
 70
     0
 62
     7
  6
Continuous
370
    -3
390
F
  0
LAYER
  5
98
330
2
100
AcDbSymbolTableRecord
100
AcDbLayerTableRecord
  2
DIM
 70
     0
 62
     3
  6
Continuous
370
    13
390
F
  0
LAYER
  5
99
330
2
100
AcDbSymbolTableRecord
100
AcDbLayerTableRecord
  2
Defpoints
 70
     0
 62
   252
  6
Continuous
290
     0
370
    -3
390
F
  0
LAYER
  5
9A
330
2
100
AcDbSymbolTableRecord
100
AcDbLayerTableRecord
  2
A2 Hatch
 70
     0
 62
     8
  6
Continuous
370
     9
390
F
  0
LAYER
  5
9B
330
2
100
AcDbSymbolTableRecord
100
AcDbLayerTableRecord
  2
A5 heavy
 70
     0
 62
     5
  6
Continuous
370
    53
390
F
  0
LAYER
  5
9C
330
2
100
AcDbSymbolTableRecord
100
AcDbLayerTableRecord
  2
DETAILS
 70
     0
 62
     7
  6
Continuous
370
    13
390
F
  0
LAYER
  5
866
330
2
100
AcDbSymbolTableRecord
100
AcDbLayerTableRecord
  2
A1 fine
 70
     0
 62
   251
  6
Continuous
370
     5
390
F
  0
LAYER
  5
867
330
2
100
AcDbSymbolTableRecord
100
AcDbLayerTableRecord
  2
A4 medium
 70
     0
 62
     7
  6
Continuous
370
    35
390
F
  0
LAYER
  5
868
330
2
100
AcDbSymbolTableRecord
100
AcDbLayerTableRecord
  2
REBAR
 70
     0
 62
     2
  6
CENTER
370
    30
390
F
  0
ENDTAB
  0
TABLE
  2
STYLE
  5
3
330
0
100
AcDbSymbolTable
 70
     4
  0
STYLE
  5
11
330
3
100
AcDbSymbolTableRecord
100
AcDbTextStyleTableRecord
  2
Standard
 70
     0
 40
0.0
 41
1.0
 50
0.0
 71
     0
 42
0.2
  3
txt
  4

  0
STYLE
  5
9D
330
3
100
AcDbSymbolTableRecord
100
AcDbTextStyleTableRecord
  2
ARCHITXT
 70
     0
 40
0.0
 41
1.25
 50
0.0
 71
     0
 42
1.0
  3
ARCHITXT.shx
  4

  0
STYLE
  5
9E
330
3
100
AcDbSymbolTableRecord
100
AcDbTextStyleTableRecord
  2
ARCTEXT
 70
     0
 40
0.0
 41
0.85
 50
0.0
 71
     0
 42
5.096770384644268
  3
arctext.shx
  4

  0
STYLE
  5
9F
330
3
100
AcDbSymbolTableRecord
100
AcDbTextStyleTableRecord
  2
RomanC
 70
     0
 40
5.0
 41
0.85
 50
0.0
 71
     0
 42
10.0
  3
romanc.shx
  4

  0
ENDTAB
  0
TABLE
  2
VIEW
  5
6
330
0
100
AcDbSymbolTable
 70
     0
  0
ENDTAB
  0
TABLE
  2
UCS
  5
7
330
0
100
AcDbSymbolTable
 70
     0
  0
ENDTAB
  0
TABLE
  2
APPID
  5
9
330
0
100
AcDbSymbolTable
 70
     1
  0
APPID
  5
12
330
9
100
AcDbSymbolTableRecord
100
AcDbRegAppTableRecord
  2
ACAD
 70
     0
  0
ENDTAB
  0
TABLE
  2
DIMSTYLE
  5
A
330
0
100
AcDbSymbolTable
 70
     5
100
AcDbDimStyleTable
 71
     0
  0
DIMSTYLE
105
27
330
A
100
AcDbSymbolTableRecord
100
AcDbDimStyleTableRecord
  2
Standard
 70
     0
340
11
  0
DIMSTYLE
105
A0
330
A
100
AcDbSymbolTableRecord
100
AcDbDimStyleTableRecord
  2
Copy of ROMANS
 70
     0
 41
0.75
 42
0.125
 43
0.125
 44
0.125
 73
     0
 74
     0
 77
     1
 78
     3
140
1.0
141
6.0
147
0.25
172
     1
175
     1
176
     2
177
     2
178
     2
271
     3
272
     3
273
     4
275
     1
277
     4
279
     2
284
     3
285
     3
286
     3
340
9D
  0
DIMSTYLE
105
A1
330
A
100
AcDbSymbolTableRecord
100
AcDbDimStyleTableRecord
  2
ARCTEXT
 70
     0
 40
0.0
 41
2.0
 42
1.0
 43
0.375
 44
0.1875
 73
     0
 74
     0
140
4.0
141
2.0
147
2.0
176
     2
177
     2
178
     2
277
     4
340
9E
341
8D
342
89
  0
DIMSTYLE
105
A2
330
A
100
AcDbSymbolTableRecord
100
AcDbDimStyleTableRecord
  2
ARCTEXT1-4
 70
     0
 41
2.0
 42
2.0
 43
2.0
 44
2.0
 73
     0
 74
     0
 77
     1
 78
     3
140
4.0
141
2.0
147
2.0
172
     1
175
     1
275
     1
277
     4
279
     2
340
9E
341
8D
342
89
  0
DIMSTYLE
105
A3
330
A
100
AcDbSymbolTableRecord
100
AcDbDimStyleTableRecord
  2
ARCTEXT 1-1
 70
     0
 40
0.0
 41
1.0
 42
1.0
 43
0.375
 44
0.1875
 73
     0
 74
     0
 77
     1
 78
     3
140
1.0
141
1.0
147
0.5
176
   256
177
   256
178
   256
277
     4
279
     2
340
9E
341
8D
342
89
  0
ENDTAB
  0
TABLE
  2
BLOCK_RECORD
  5
1
330
0
100
AcDbSymbolTable
 70
    15
  0
BLOCK_RECORD
  5
1F
330
1
100
AcDbSymbolTableRecord
100
AcDbBlockTableRecord
  2
*Model_Space
340
22
  0
BLOCK_RECORD
  5
58
330
1
100
AcDbSymbolTableRecord
100
AcDbBlockTableRecord
  2
*Paper_Space
340
59
  0
BLOCK_RECORD
  5
5D
330
1
100
AcDbSymbolTableRecord
100
AcDbBlockTableRecord
  2
*Paper_Space0
340
5E
  0
BLOCK_RECORD
  5
89
330
1
100
AcDbSymbolTableRecord
100
AcDbBlockTableRecord
  2
_ArchTick
340
0
102
{BLKREFS
331
85E
331
85F
331
1060
331
1061
102
}
  0
BLOCK_RECORD
  5
8D
330
1
100
AcDbSymbolTableRecord
100
AcDbBlockTableRecord
  2
arrow
340
0
310
2800000020000000200000000100080000000000000400000000000000000000000000000000000000000000000080000080000000808000800000008000800080800000C0C0C000C0DCC000F0CAA6000020400000206000002080000020A0000020C0000020E00000400000004020000040400000406000004080000040A0
310
000040C0000040E00000600000006020000060400000606000006080000060A0000060C0000060E00000800000008020000080400000806000008080000080A0000080C0000080E00000A0000000A0200000A0400000A0600000A0800000A0A00000A0C00000A0E00000C0000000C0200000C0400000C0600000C0800000C0
310
A00000C0C00000C0E00000E0000000E0200000E0400000E0600000E0800000E0A00000E0C00000E0E00040000000400020004000400040006000400080004000A0004000C0004000E00040200000402020004020400040206000402080004020A0004020C0004020E000404000004040200040404000404060004040800040
310
40A0004040C0004040E00040600000406020004060400040606000406080004060A0004060C0004060E00040800000408020004080400040806000408080004080A0004080C0004080E00040A0000040A0200040A0400040A0600040A0800040A0A00040A0C00040A0E00040C0000040C0200040C0400040C0600040C08000
310
40C0A00040C0C00040C0E00040E0000040E0200040E0400040E0600040E0800040E0A00040E0C00040E0E00080000000800020008000400080006000800080008000A0008000C0008000E00080200000802020008020400080206000802080008020A0008020C0008020E00080400000804020008040400080406000804080
310
008040A0008040C0008040E00080600000806020008060400080606000806080008060A0008060C0008060E00080800000808020008080400080806000808080008080A0008080C0008080E00080A0000080A0200080A0400080A0600080A0800080A0A00080A0C00080A0E00080C0000080C0200080C0400080C0600080C0
310
800080C0A00080C0C00080C0E00080E0000080E0200080E0400080E0600080E0800080E0A00080E0C00080E0E000C0000000C0002000C0004000C0006000C0008000C000A000C000C000C000E000C0200000C0202000C0204000C0206000C0208000C020A000C020C000C020E000C0400000C0402000C0404000C0406000C0
310
408000C040A000C040C000C040E000C0600000C0602000C0604000C0606000C0608000C060A000C060C000C060E000C0800000C0802000C0804000C0806000C0808000C080A000C080C000C080E000C0A00000C0A02000C0A04000C0A06000C0A08000C0A0A000C0A0C000C0A0E000C0C00000C0C02000C0C04000C0C06000
310
C0C08000C0C0A000F0FBFF00A4A0A000808080000000FF0000FF000000FFFF00FF000000FF00FF00FFFF0000FFFFFF0000000000000000000000000000000000000000000000000000000000000000000000000000000000000000000000000000000000000000000000000000000000000000000000000000000000000000
310
0000000000000000000000000000000000000000000000000000000000000000000000000000000000000000000000000000000000000000000000000000000000000000000000000000000000000000000000000000000000000000000000000000000000000000000000000000000000000000000000FA00000000000000
310
000000000000000000000000000000000000000000000000FA00000000000000000000000000000000000000000000000000000000000000FA0000000000000000000000000000000000000000000000000000FAFA000000FA00000000000000000000000000000000000000000000000000000000FAFA00FA000000000000
310
000000000000000000000000000000000000000000000000FAF7F7000000000000000000000000000000000000000000000000000000000000F7F7F7F7F7F70000000000000000000000000000000000000000000000000000F7F7F7F7F7F7F7F7F7F700000000000000000000000000000000000000000000F7F7F7F7F7F7
310
F7F7F7F7F7F7F7F7000000000000000000000000000000000000F7F7F7F7F7F7F7F7F7F7F7F7F7F7F7F7F7F70000000000FAFA00000000000000F7F7F7F7F7F7F7F7F7F7F7F7F7F7F7F7F7F7F7F7F7FAFAFAFA00000000000000F7F7F7F7F7F7F7F7F7F7F7F7F7F7F7F7F7F70000000000000000000000000000F7F7F7F7F7
310
F7F7F7F7F7F7F7F700000000000000000000000000000000000000F7F7F7F7F7F7F7F70000000000000000000000000000000000000000000000FAF7F7F70000000000000000000000000000000000000000000000000000FAFA00FA0000000000000000000000000000000000000000000000000000FAFA000000FA000000
310
00000000000000000000000000000000000000000000000000000000FA00000000000000000000000000000000000000000000000000000000000000FA00000000000000000000000000000000000000000000000000000000000000FA00000000000000000000000000000000000000000000000000000000000000000000
310
00000000000000000000000000000000000000000000000000000000000000000000000000000000000000000000000000000000000000000000000000000000000000000000000000000000000000000000000000000000000000000000000000000000000000000000000000000000000000000000000000000000000000
310
0000000000000000000000000000000000000000000000000000000000000000000000000000000000000000000000000000000000000000
1001
ACAD
1000
DesignCenter Data
1002
{
1070
     1
1070
     1
1002
}
  0
BLOCK_RECORD
  5
859
330
1
100
AcDbSymbolTableRecord
100
AcDbBlockTableRecord
  2
*D6
340
0
  0
BLOCK_RECORD
  5
1051
330
1
100
AcDbSymbolTableRecord
100
AcDbBlockTableRecord
  2
*D8
340
0
  0
ENDTAB
  0
ENDSEC
  0
SECTION
  2
BLOCKS
  0
BLOCK
  5
20
330
1F
100
AcDbEntity
  8
0
100
AcDbBlockBegin
  2
*Model_Space
 70
     0
 10
0.0
 20
0.0
 30
0.0
  3
*Model_Space
  1

  0
ENDBLK
  5
21
330
1F
100
AcDbEntity
  8
0
100
AcDbBlockEnd
  0
BLOCK
  5
5A
330
58
100
AcDbEntity
 67
     1
  8
0
100
AcDbBlockBegin
  2
*Paper_Space
 70
     0
 10
0.0
 20
0.0
 30
0.0
  3
*Paper_Space
  1

  0
ENDBLK
  5
5B
330
58
100
AcDbEntity
 67
     1
  8
0
100
AcDbBlockEnd
  0
BLOCK
  5
5F
330
5D
100
AcDbEntity
  8
0
100
AcDbBlockBegin
  2
*Paper_Space0
 70
     0
 10
0.0
 20
0.0
 30
0.0
  3
*Paper_Space0
  1

  0
ENDBLK
  5
60
330
5D
100
AcDbEntity
  8
0
100
AcDbBlockEnd
  0
BLOCK
  5
8A
330
89
100
AcDbEntity
  8
0
100
AcDbBlockBegin
  2
_ArchTick
 70
     0
 10
0.0
 20
0.0
 30
0.0
  3
_ArchTick
  1

  0
LWPOLYLINE
  5
8B
330
89
100
AcDbEntity
  8
0
  6
ByBlock
 62
     0
100
AcDbPolyline
 90
        2
 70
     0
 43
0.15
 10
-0.5
 20
-0.5
 10
0.5
 20
0.5
  0
ENDBLK
  5
8C
330
89
100
AcDbEntity
  8
0
100
AcDbBlockEnd
  0
BLOCK
  5
8E
330
8D
100
AcDbEntity
  8
0
100
AcDbBlockBegin
  2
arrow
 70
     0
 10
0.0
 20
0.0
 30
0.0
  3
arrow
  1

  0
HATCH
  5
8F
330
8D
100
AcDbEntity
  8
DIM
 62
   253
100
AcDbHatch
 10
0.0
 20
0.0
 30
0.0
210
0.0
220
0.0
230
1.0
  2
SOLID
 70
     1
 71
     0
 91
        1
 92
        7
 72
     0
 73
     1
 93
        3
 10
-2.0
 20
0.5
 10
-2.0
 20
-0.5
 10
0.0
 20
0.0
 97
        0
 75
     0
 76
     1
 47
0.0337394080685346
 98
        1
 10
-1.103351122172171
 20
0.05064816270351
  0
LWPOLYLINE
  5
90
330
8D
100
AcDbEntity
  8
DIM
370
    15
100
AcDbPolyline
 90
        4
 70
     0
 43
0.0
 10
0.0
 20
0.0
 10
-2.0
 20
-0.5
 10
-2.0
 20
0.5
 10
0.0
 20
0.0
  0
LWPOLYLINE
  5
91
330
8D
100
AcDbEntity
  8
DIM
370
     9
100
AcDbPolyline
 90
        2
 70
     0
 43
0.0
 10
0.3742552490839444
 20
0.0935638122700766
 10
0.0
 20
0.0
  0
LWPOLYLINE
  5
92
330
8D
100
AcDbEntity
  8
DIM
370
     9
100
AcDbPolyline
 90
        3
 70
     0
 43
0.0
 10
-2.0
 20
-0.9831764405007561
 10
-2.0
 20
-0.5
 10
-2.46875
 20
-0.6171875
  0
LWPOLYLINE
  5
93
330
8D
100
AcDbEntity
  8
DIM
370
     9
100
AcDbPolyline
 90
        3
 70
     0
 43
0.0
 10
-2.0
 20
0.9831764405007561
 10
-2.0
 20
0.5
 10
-2.46875
 20
0.6171875
  0
LWPOLYLINE
  5
94
330
8D
100
AcDbEntity
  8
DIM
370
     9
100
AcDbPolyline
 90
        2
 70
     0
 43
0.0
 10
0.3742552490839444
 20
-0.0935638122700766
 10
0.0
 20
0.0
  0
ENDBLK
  5
95
330
8D
100
AcDbEntity
  8
0
100
AcDbBlockEnd
  0
BLOCK
  5
85A
330
859
100
AcDbEntity
  8
0
 48
0.15
100
AcDbBlockBegin
  2
*D6
 70
     1
 10
0.0
 20
0.0
 30
0.0
  3
*D6
  1

  0
LINE
  5
85B
330
859
100
AcDbEntity
  8
DIM
 48
0.15
370
    -2
100
AcDbLine
 10
7258.804787169045
 20
-3362.37866615228
 30
0.0
 11
7244.452332516266
 21
-3362.37866615228
 31
0.0
  0
LINE
  5
85C
330
859
100
AcDbEntity
  8
DIM
 48
0.15
370
    -2
100
AcDbLine
 10
7259.321078680835
 20
-3366.510840404795
 30
0.0
 11
7244.452332516266
 21
-3366.510840404795
 31
0.0
  0
LINE
  5
85D
330
859
100
AcDbEntity
  8
DIM
 48
0.15
370
    -2
100
AcDbLine
 10
7244.639832516266
 20
-3362.37866615228
 30
0.0
 11
7244.639832516266
 21
-3366.510840404795
 31
0.0
  0
INSERT
  5
85E
330
859
100
AcDbEntity
  8
DIM
 48
0.15
370
    -2
100
AcDbBlockReference
  2
_ArchTick
 10
7244.639832516266
 20
-3362.37866615228
 30
0.0
 50
90.0
  0
INSERT
  5
85F
330
859
100
AcDbEntity
  8
DIM
 48
0.15
370
    -2
100
AcDbBlockReference
  2
_ArchTick
 10
7244.639832516266
 20
-3366.510840404795
 30
0.0
 50
270.0
  0
MTEXT
  5
860
330
859
100
AcDbEntity
  8
DIM
 48
0.15
100
AcDbMText
 10
7243.639832516267
 20
-3364.444753278536
 30
0.0
 40
1.0
 41
0.0
 71
     5
 72
     1
  1
\A1;.
  7
ARCTEXT
 11
0.0000000000000001
 21
1.0
 31
0.0
 73
     1
 44
1.0
1001
ACAD
1000
MTEXTBEGIN
1070
    73
1070
     1
1070
    44
1040
1.0
1070
    74
1070
     0
1000
MTEXTEND
  0
POINT
  5
861
330
859
100
AcDbEntity
  8
Defpoints
 62
     0
 48
0.15
100
AcDbPoint
 10
7259.804787169044
 20
-3362.37866615228
 30
0.0
  0
POINT
  5
862
330
859
100
AcDbEntity
  8
Defpoints
 62
     0
 48
0.15
100
AcDbPoint
 10
7260.321078680835
 20
-3366.510840404795
 30
0.0
  0
POINT
  5
863
330
859
100
AcDbEntity
  8
Defpoints
 62
     0
 48
0.15
100
AcDbPoint
 10
7244.639832516266
 20
-3366.510840404795
 30
0.0
  0
ENDBLK
  5
864
330
859
100
AcDbEntity
  8
0
 48
0.15
100
AcDbBlockEnd
  0
BLOCK
  5
105B
330
1051
100
AcDbEntity
  8
0
100
AcDbBlockBegin
  2
*D8
 70
     1
 10
0.0
 20
0.0
 30
0.0
  3
*D8
  1

  0
LINE
  5
105D
330
1051
100
AcDbEntity
  8
DIM
370
    -2
100
AcDbLine
 10
-6.349451024049841
 20
70.30828673096635
 30
0.0
 11
-20.70190567682769
 21
70.30828673096635
 31
0.0
  0
LINE
  5
105E
330
1051
100
AcDbEntity
  8
DIM
370
    -2
100
AcDbLine
 10
-5.833159512259072
 20
66.17611247845076
 30
0.0
 11
-20.70190567682769
 21
66.17611247845076
 31
0.0
  0
LINE
  5
105F
330
1051
100
AcDbEntity
  8
DIM
370
    -2
100
AcDbLine
 10
-20.51440567682769
 20
70.30828673096635
 30
0.0
 11
-20.51440567682769
 21
66.17611247845076
 31
0.0
  0
INSERT
  5
1060
330
1051
100
AcDbEntity
  8
DIM
370
    -2
100
AcDbBlockReference
  2
_ArchTick
 10
-20.51440567682769
 20
70.30828673096635
 30
0.0
 50
90.0
  0
INSERT
  5
1061
330
1051
100
AcDbEntity
  8
DIM
370
    -2
100
AcDbBlockReference
  2
_ArchTick
 10
-20.51440567682769
 20
66.17611247845076
 30
0.0
 50
270.0
  0
MTEXT
  5
1062
330
1051
100
AcDbEntity
  8
DIM
100
AcDbMText
 10
-21.51440567682771
 20
68.24219960470855
 30
0.0
 40
1.0
 41
0.0
 71
     5
 72
     1
  1
\A1;.
  7
ARCTEXT
 11
0.0000000000000001
 21
1.0
 31
0.0
 73
     1
 44
1.0
1001
ACAD
1000
MTEXTBEGIN
1070
    73
1070
     1
1070
    44
1040
1.0
1070
    74
1070
     0
1000
MTEXTEND
  0
POINT
  5
1063
330
1051
100
AcDbEntity
  8
Defpoints
 62
     0
100
AcDbPoint
 10
-5.349451024049841
 20
70.30828673096635
 30
0.0
  0
POINT
  5
1064
330
1051
100
AcDbEntity
  8
Defpoints
 62
     0
100
AcDbPoint
 10
-4.833159512259072
 20
66.17611247845076
 30
0.0
  0
POINT
  5
1065
330
1051
100
AcDbEntity
  8
Defpoints
 62
     0
100
AcDbPoint
 10
-20.51440567682769
 20
66.17611247845076
 30
0.0
  0
ENDBLK
  5
105C
330
1051
100
AcDbEntity
  8
0
100
AcDbBlockEnd
  0
ENDSEC
  0
SECTION
  2
ENTITIES
  0
MTEXT
  5
2E43
330
1F
100
AcDbEntity
  8
Defpoints
100
AcDbMText
 10
-67.419108045403
 20
24.37722520806628
 30
0.0
 40
3.0
 41
90.07999999999999
 71
     2
 72
     5
  1
{\L122\P}\P            
  7
RomanC
 73
     1
 44
1.0
1001
ACAD
1000
MTEXTBEGIN
1070
    73
1070
     1
1070
    44
1040
1.0
1070
    74
1070
     0
1000
MTEXTEND
  0
MTEXT
  5
2E44
330
1F
100
AcDbEntity
  8
DIM
100
AcDbMText
 10
-30.32226637684386
 20
34.05606991647128
 30
0.0
 40
3.0
 41
71.41649521821006
 71
     2
 72
     5
  1
{\L6" WALL W/ FULL WALL WIDTH BUCK (FLUSH WINDOW)}\P               
  7
RomanC
 73
     1
 44
1.0
1001
ACAD
1000
MTEXTBEGIN
1070
    73
1070
     1
1070
    44
1040
1.0
1070
    74
1070
     0
1000
MTEXTEND
  0
LINE
  5
2E45
330
1F
100
AcDbEntity
  8
0
 62
     1
100
AcDbLine
 10
-45.2437054344146
 20
65.35048248620123
 30
0.0
 11
-43.24370543441552
 21
65.35048248620123
 31
0.0
  0
LINE
  5
2E46
330
1F
100
AcDbEntity
  8
0
 62
     1
100
AcDbLine
 10
-39.24370543441461
 20
65.35048248620123
 30
0.0
 11
-33.79370543441752
 21
65.35048248620123
 31
0.0
  0
LINE
  5
2E47
330
1F
100
AcDbEntity
  8
A5 heavy
 48
0.15
100
AcDbLine
 10
-43.2437054344146
 20
65.35048248620123
 30
0.0
 11
-39.24370543441461
 21
65.35048248620123
 31
0.0
  0
LINE
  5
2E48
330
1F
100
AcDbEntity
  8
0
 48
0.15
100
AcDbLine
 10
-45.7437054344146
 20
87.11343042876213
 30
0.0
 11
-45.7437054344146
 21
63.35048248620168
 31
0.0
  0
LINE
  5
2E49
330
1F
100
AcDbEntity
  8
DIM
100
AcDbLine
 10
-31.63110250210599
 20
91.76090677931378
 30
0.0
 11
-38.47596728393461
 21
89.44133690761246
 31
0.0
  0
LINE
  5
2E4A
330
1F
100
AcDbEntity
  8
DIM
100
AcDbLine
 10
-37.77393502133333
 20
87.37131619415512
 30
0.0
 11
-38.4759672839337
 21
89.44133690761246
 31
0.0
  0
LINE
  5
2E4B
330
1F
100
AcDbEntity
  8
DIM
100
AcDbLine
 10
-41.22108057961765
 20
90.8184617524399
 30
0.0
 11
-40.51904831701728
 21
88.74844103898302
 31
0.0
  0
LINE
  5
2E4C
330
1F
100
AcDbEntity
  8
DIM
100
AcDbLine
 10
-40.51904831701728
 20
88.74844103898302
 30
0.0
 11
-47.45163039585992
 21
86.53272826435941
 31
0.0
  0
LINE
  5
2E4D
330
1F
100
AcDbEntity
  8
DIM
100
AcDbLine
 10
-37.77393502133333
 20
87.37131619415512
 30
0.0
 11
-41.22108057961765
 21
90.8184617524399
 31
0.0
  0
LINE
  5
2E4E
330
1F
100
AcDbEntity
  8
0
 48
0.15
100
AcDbLine
 10
-45.7437054344146
 20
63.35048248620214
 30
0.0
 11
-45.7437054344137
 21
63.10048248620123
 31
0.0
  0
LINE
  5
2E4F
330
1F
100
AcDbEntity
  8
0
 48
0.15
100
AcDbLine
 10
-45.7437054344137
 20
63.10048248620123
 30
0.0
 11
-45.61870543441369
 21
63.10048248620123
 31
0.0
  0
LINE
  5
2E50
330
1F
100
AcDbEntity
  8
0
 48
0.15
100
AcDbLine
 10
-45.61870543441369
 20
63.10048248620123
 30
0.0
 11
-45.61870543441369
 21
61.10048248620123
 31
0.0
  0
LINE
  5
2E51
330
1F
100
AcDbEntity
  8
0
 48
0.15
100
AcDbLine
 10
-45.61870543441369
 20
61.10048248620123
 30
0.0
 11
-45.7437054344137
 21
61.10048248620123
 31
0.0
  0
LINE
  5
2E52
330
1F
100
AcDbEntity
  8
0
 48
0.15
100
AcDbLine
 10
-45.7437054344137
 20
61.10048248620123
 30
0.0
 11
-45.7437054344137
 21
60.85048248620123
 31
0.0
  0
LINE
  5
2E53
330
1F
100
AcDbEntity
  8
0
 48
0.15
100
AcDbLine
 10
-45.7437054344137
 20
60.85048248620123
 30
0.0
 11
-45.30897666083916
 21
60.41575371262624
 31
0.0
  0
LINE
  5
2E54
330
1F
100
AcDbEntity
  8
0
 48
0.15
100
AcDbLine
 10
-45.30897666083916
 20
60.41575371262624
 30
0.0
 11
-44.75304948042236
 21
60.41575371262624
 31
0.0
  0
LINE
  5
2E55
330
1F
100
AcDbEntity
  8
0
 48
0.15
100
AcDbLine
 10
-42.87424788726463
 20
60.85048248620123
 30
0.0
 11
-43.30897666083916
 21
60.41575371262624
 31
0.0
  0
LINE
  5
2E56
330
1F
100
AcDbEntity
  8
0
 48
0.15
100
AcDbLine
 10
-42.87424788726463
 20
60.85048248620123
 30
0.0
 11
-42.87424788726463
 21
62.30014731159972
 31
0.0
  0
LINE
  5
2E57
330
1F
100
AcDbEntity
  8
0
 48
0.15
100
AcDbLine
 10
-42.87424788726463
 20
62.30014731159972
 30
0.0
 11
-42.37424788726463
 21
62.30014731159972
 31
0.0
  0
LINE
  5
2E58
330
1F
100
AcDbEntity
  8
0
 48
0.15
100
AcDbLine
 10
-42.37424788726463
 20
62.30014731159972
 30
0.0
 11
-42.37424788726463
 21
63.85048248620122
 31
0.0
  0
LINE
  5
2E59
330
1F
100
AcDbEntity
  8
0
 48
0.15
100
AcDbLine
 10
-44.75304948042145
 20
61.27625810431855
 30
0.0
 11
-44.75304948042145
 21
52.14915002561756
 31
0.0
  0
LINE
  5
2E5A
330
1F
100
AcDbEntity
  8
0
 48
0.15
100
AcDbLine
 10
-44.62804948042145
 20
61.27625810431855
 30
0.0
 11
-44.62804948042145
 21
52.14915002561756
 31
0.0
  0
LINE
  5
2E5B
330
1F
100
AcDbEntity
  8
0
 48
0.15
100
AcDbLine
 10
-44.62804948042145
 20
61.27625810431855
 30
0.0
 11
-44.75304948042145
 21
61.27625810431855
 31
0.0
  0
LINE
  5
2E5C
330
1F
100
AcDbEntity
  8
0
 48
0.15
100
AcDbLine
 10
-44.02311652277973
 20
61.27625810431855
 30
0.0
 11
-44.02311652277973
 21
52.14915002561756
 31
0.0
  0
LINE
  5
2E5D
330
1F
100
AcDbEntity
  8
0
 48
0.15
100
AcDbLine
 10
-43.89811652277972
 20
61.27625810431855
 30
0.0
 11
-43.89811652277972
 21
52.14915002561756
 31
0.0
  0
LINE
  5
2E5E
330
1F
100
AcDbEntity
  8
0
 48
0.15
100
AcDbLine
 10
-43.89811652277972
 20
61.27625810431855
 30
0.0
 11
-44.02311652277973
 21
61.27625810431855
 31
0.0
  0
LINE
  5
2E5F
330
1F
100
AcDbEntity
  8
0
 48
0.15
100
AcDbLine
 10
-44.62804948042054
 20
60.41575371262624
 30
0.0
 11
-44.02311652277973
 21
60.41575371262624
 31
0.0
  0
LINE
  5
2E60
330
1F
100
AcDbEntity
  8
0
 48
0.15
100
AcDbLine
 10
-43.89811652277972
 20
60.41575371262624
 30
0.0
 11
-43.30897666083916
 21
60.41575371262624
 31
0.0
  0
LINE
  5
2E61
330
1F
100
AcDbEntity
  8
0
 48
0.15
100
AcDbLine
 10
-43.66283057938386
 20
61.11473583925326
 30
0.0
 11
-43.89811652277972
 21
61.11473583925326
 31
0.0
  0
LINE
  5
2E62
330
1F
100
AcDbEntity
  8
0
 48
0.15
100
AcDbLine
 10
-45.00049532353847
 20
61.11473583925326
 30
0.0
 11
-45.00049532353847
 21
61.59683023915349
 31
0.0
  0
LINE
  5
2E63
330
1F
100
AcDbEntity
  8
0
 48
0.15
100
AcDbLine
 10
-45.00049532353847
 20
61.59683023915349
 30
0.0
 11
-44.85431505468119
 21
61.59683023915349
 31
0.0
  0
LINE
  5
2E64
330
1F
100
AcDbEntity
  8
0
 48
0.15
100
AcDbLine
 10
-43.66283057938386
 20
61.11473583925326
 30
0.0
 11
-43.66283057938386
 21
61.59683023915349
 31
0.0
  0
LINE
  5
2E65
330
1F
100
AcDbEntity
  8
0
 48
0.15
100
AcDbLine
 10
-43.66283057938386
 20
61.59683023915349
 30
0.0
 11
-43.80901084824114
 21
61.59683023915349
 31
0.0
  0
ARC
  5
2E66
330
1F
100
AcDbEntity
  8
0
 48
0.15
100
AcDbCircle
 10
-44.33166295146117
 20
61.07417813593347
 30
0.0
 40
0.7391416927765827
100
AcDbArc
 50
44.99999999999971
 51
135.0000000000003
  0
LINE
  5
2E67
330
1F
100
AcDbEntity
  8
0
 48
0.15
100
AcDbLine
 10
-44.75304948042236
 20
61.11473583925326
 30
0.0
 11
-45.00049532353847
 21
61.11473583925326
 31
0.0
  0
LINE
  5
2E68
330
1F
100
AcDbEntity
  8
0
 48
0.15
100
AcDbLine
 10
-44.02311652277973
 20
61.11473583925326
 30
0.0
 11
-44.62804948042054
 21
61.11473583925326
 31
0.0
  0
MTEXT
  5
2E69
330
1F
100
AcDbEntity
  8
DIM
 62
     3
100
AcDbMText
 10
-24.32504860855812
 20
50.21029482192997
 30
0.0
 40
1.0
 41
22.68954545454545
 71
     1
 72
     5
  1
WINDOW BY OTHERS
  7
RomanC
 73
     1
 44
1.0
1001
ACAD
1000
MTEXTBEGIN
1070
    73
1070
     1
1070
    44
1040
1.0
1070
    74
1070
     0
1000
MTEXTEND
  0
MTEXT
  5
2E6A
330
1F
100
AcDbEntity
  8
DIM
 62
     3
100
AcDbMText
 10
-24.32504860855812
 20
64.85282236668453
 30
0.0
 40
1.0
 41
22.68954545454545
 71
     1
 72
     5
  1
WINDOW BUCK
  7
RomanC
 73
     1
 44
1.0
1001
ACAD
1000
MTEXTBEGIN
1070
    73
1070
     1
1070
    44
1040
1.0
1070
    74
1070
     0
1000
MTEXTEND
  0
MTEXT
  5
2E6B
330
1F
100
AcDbEntity
  8
DIM
 62
     3
100
AcDbMText
 10
-24.32504860855812
 20
75.35617000592274
 30
0.0
 40
1.0
 41
22.68954545454545
 71
     1
 72
     5
  1
INTERIOR GYPSUM WALLBOARD FASTEN TO TIES
  7
RomanC
 73
     1
 44
1.0
1001
ACAD
1000
MTEXTBEGIN
1070
    73
1070
     1
1070
    44
1040
1.0
1070
    74
1070
     0
1000
MTEXTEND
  0
MTEXT
  5
2E6C
330
1F
100
AcDbEntity
  8
DIM
 62
     3
100
AcDbMText
 10
-24.32504860855812
 20
80.6492280935682
 30
0.0
 40
1.0
 41
22.68954545454545
 71
     1
 72
     5
  1
REINFORCEMENT PER ENGINEER
  7
RomanC
 73
     1
 44
1.0
1001
ACAD
1000
MTEXTBEGIN
1070
    73
1070
     1
1070
    44
1040
1.0
1070
    74
1070
     0
1000
MTEXTEND
  0
LEADER
  5
2E6D
330
1F
100
AcDbEntity
  8
DIM
 48
0.15
100
AcDbLeader
  3
ARCTEXT 1-1
 76
     3
 10
-43.89811652278064
 20
59.41563320878512
 30
0.0
 10
-32.36340495914379
 20
49.69456009254699
 30
0.0
 10
-25.28346724401223
 20
49.69456009254699
 30
0.0
1001
ACAD
1000
DSTYLE
1002
{
1070
    40
1040
1.0
1070
    41
1040
0.5
1070
    77
1070
     0
1002
}
  0
LEADER
  5
2E6E
330
1F
100
AcDbEntity
  8
DIM
 48
0.15
100
AcDbLeader
  3
ARCTEXT 1-1
 76
     2
 10
-33.75972208046284
 20
64.60048248620123
 30
0.0
 10
-25.21618742941524
 20
64.60048248620123
 30
0.0
1001
ACAD
1000
DSTYLE
1002
{
1070
    40
1040
1.0
1070
    41
1040
0.5
1070
    77
1070
     0
1002
}
  0
LEADER
  5
2E6F
330
1F
100
AcDbEntity
  8
DIM
 48
0.15
100
AcDbLeader
  3
ARCTEXT 1-1
 76
     2
 10
-33.25972208046284
 20
74.78517648569831
 30
0.0
 10
-25.08093609549275
 20
74.78517648569831
 30
0.0
1001
ACAD
1000
DSTYLE
1002
{
1070
    40
1040
1.0
1070
    41
1040
0.5
1070
    77
1070
     0
1002
}
  0
LEADER
  5
2E70
330
1F
100
AcDbEntity
  8
DIM
 48
0.15
100
AcDbLeader
  3
ARCTEXT 1-1
 76
     3
 10
-38.53533115000488
 20
73.62662452249205
 30
0.0
 10
-31.9711009594094
 20
80.19085471308754
 30
0.0
 10
-25.28282165292063
 20
80.19085471308754
 30
0.0
1001
ACAD
1000
DSTYLE
1002
{
1070
    40
1040
1.0
1070
    41
1040
0.5
1070
    77
1070
     0
1002
}
  0
LINE
  5
2E71
330
1F
100
AcDbEntity
  8
A5 heavy
 48
0.15
100
AcDbLine
 10
-45.24370543441551
 20
65.35048248620078
 30
0.0
 11
-45.2437054344146
 21
63.85048248620169
 31
0.0
  0
LINE
  5
2E72
330
1F
100
AcDbEntity
  8
A5 heavy
 48
0.15
100
AcDbLine
 10
-45.2437054344146
 20
63.85048248620169
 30
0.0
 11
-33.79370543441843
 21
63.85048248620169
 31
0.0
  0
LINE
  5
2E73
330
1F
100
AcDbEntity
  8
A5 heavy
 48
0.15
100
AcDbLine
 10
-33.79370543441752
 20
65.35048248620123
 30
0.0
 11
-33.79370543441843
 21
63.85048248620169
 31
0.0
  0
LINE
  5
2E74
330
1F
100
AcDbEntity
  8
A5 heavy
 48
0.15
100
AcDbLine
 10
-33.79370543441752
 20
65.35048248620123
 30
0.0
 11
-33.79370543441752
 21
65.35048248620123
 31
0.0
  0
LINE
  5
2E75
330
1F
100
AcDbEntity
  8
A5 heavy
 48
0.15
100
AcDbLine
 10
-45.24370543441551
 20
65.35048248620078
 30
0.0
 11
-45.24370543441551
 21
65.35048248620078
 31
0.0
  0
LWPOLYLINE
  5
2E76
330
1F
100
AcDbEntity
  8
A5 heavy
 48
0.15
100
AcDbPolyline
 90
        3
 70
     0
 43
0.0
 10
-33.79370543441752
 20
65.35048248620123
 10
-33.79370543441752
 20
65.35048248620123
 10
-39.24370543441461
 20
65.35048248620078
  0
LWPOLYLINE
  5
2E77
330
1F
100
AcDbEntity
  8
A5 heavy
 48
0.15
100
AcDbPolyline
 90
        3
 70
     0
 43
0.0
 10
-43.2437054344146
 20
65.35048248620032
 10
-45.24370543441551
 20
65.35048248620078
 10
-45.24370543441551
 20
65.35048248620078
  0
MTEXT
  5
2E78
330
1F
100
AcDbEntity
  8
DIM
 62
     3
100
AcDbMText
 10
-24.15620098083861
 20
57.58733721464259
 30
0.0
 40
1.0
 41
22.68954545454545
 71
     1
 72
     5
  1
WINDOW ATTACHMENT PER MANUFACTURER
  7
RomanC
 73
     1
 44
1.0
1001
ACAD
1000
MTEXTBEGIN
1070
    73
1070
     1
1070
    44
1040
1.0
1070
    74
1070
     0
1000
MTEXTEND
  0
LEADER
  5
2E79
330
1F
100
AcDbEntity
  8
DIM
 48
0.15
100
AcDbLeader
  3
ARCTEXT 1-1
 76
     3
 10
-43.58916955009232
 20
64.59511989056508
 30
0.0
 10
-32.1373874135034
 20
56.97803290861483
 30
0.0
 10
-25.18029278690034
 20
56.97803290861483
 30
0.0
1001
ACAD
1000
DSTYLE
1002
{
1070
    40
1040
1.0
1070
    41
1040
0.5
1070
    77
1070
     0
1002
}
  0
LINE
  5
2E7A
330
1F
100
AcDbEntity
  8
A5 heavy
 48
0.15
100
AcDbLine
 10
-45.74370543441552
 20
64.34511989056554
 30
0.0
 11
-45.74370543441552
 21
64.84511989056554
 31
0.0
  0
LINE
  5
2E7B
330
1F
100
AcDbEntity
  8
A5 heavy
 48
0.15
100
AcDbLine
 10
-45.74370543441552
 20
64.59511989056554
 30
0.0
 11
-44.08226280399873
 21
64.59511989056508
 31
0.0
  0
LINE
  5
2E7C
330
1F
100
AcDbEntity
  8
0
 48
0.15
100
AcDbLine
 10
-45.2437054344146
 20
65.35048248620078
 30
0.0
 11
-45.7437054344146
 21
65.35048248620078
 31
0.0
  0
LINE
  5
2E7D
330
1F
100
AcDbEntity
  8
0
 48
0.15
100
AcDbLine
 10
-33.29370543441752
 20
63.35048248620077
 30
0.0
 11
-42.37424788726372
 21
63.35048248620123
 31
0.0
  0
LINE
  5
2E7E
330
1F
100
AcDbEntity
  8
A2 Hatch
 48
0.15
100
AcDbLine
 10
-33.79370543441752
 20
65.35048248620123
 30
0.0
 11
-45.2437054344146
 21
63.85048248620169
 31
0.0
  0
LINE
  5
2E7F
330
1F
100
AcDbEntity
  8
A2 Hatch
 48
0.15
100
AcDbLine
 10
-33.79370543441843
 20
63.85048248620169
 30
0.0
 11
-45.2437054344146
 21
65.35048248620078
 31
0.0
  0
LINE
  5
2E80
330
1F
100
AcDbEntity
  8
A5 heavy
 48
0.15
100
AcDbLine
 10
-41.22312113746289
 20
66.30647114371967
 30
0.0
 11
-40.72312113746289
 21
66.30647114371967
 31
0.0
  0
LINE
  5
2E81
330
1F
100
AcDbEntity
  8
A5 heavy
 48
0.15
100
AcDbLine
 10
-40.9731211374629
 20
66.30647114371967
 30
0.0
 11
-40.9731211374629
 21
64.64502851330289
 31
0.0
  0
LINE
  5
2E82
330
1F
100
AcDbEntity
  8
A5 heavy
 48
0.15
100
AcDbLine
 10
-38.9320793582038
 20
66.30647114371967
 30
0.0
 11
-38.43207935820379
 21
66.30647114371967
 31
0.0
  0
LINE
  5
2E83
330
1F
100
AcDbEntity
  8
A5 heavy
 48
0.15
100
AcDbLine
 10
-38.68207935820379
 20
66.30647114371967
 30
0.0
 11
-38.68207935820379
 21
64.64502851330289
 31
0.0
  0
LINE
  5
2E84
330
1F
100
AcDbEntity
  8
0
 62
     1
100
AcDbLine
 10
-45.24370543441733
 20
65.35048248620123
 30
0.0
 11
-42.61870543441733
 21
65.35048248620123
 31
0.0
  0
LINE
  5
2E85
330
1F
100
AcDbEntity
  8
0
 62
     1
100
AcDbLine
 10
-45.24370543441733
 20
65.35048248620123
 30
0.0
 11
-43.06870543441715
 21
65.35048248620123
 31
0.0
  0
LINE
  5
2E86
330
1F
100
AcDbEntity
  8
0
 62
     1
100
AcDbLine
 10
-42.81870543441806
 20
65.35048248620123
 30
0.0
 11
-42.61870543441824
 21
65.35048248620123
 31
0.0
  0
LINE
  5
2E87
330
1F
100
AcDbEntity
  8
0
 48
0.15
100
AcDbLine
 10
-44.26870543441697
 20
65.35048248620123
 30
0.0
 11
-43.24370543441733
 21
65.35048248620123
 31
0.0
  0
LINE
  5
2E88
330
1F
100
AcDbEntity
  8
0
 62
     1
100
AcDbLine
 10
-43.19370543441715
 20
65.35048248620123
 30
0.0
 11
-44.31870543441806
 21
65.35048248620123
 31
0.0
  0
LINE
  5
2E89
330
1F
100
AcDbEntity
  8
0
 62
     1
100
AcDbLine
 10
-45.24370543441733
 20
65.35049445669901
 30
0.0
 11
-43.06870543441715
 21
65.35049445669901
 31
0.0
  0
LINE
  5
2E8A
330
1F
100
AcDbEntity
  8
0
 62
     1
100
AcDbLine
 10
-44.89370543441697
 20
65.85049445669901
 30
0.0
 11
-44.26870543441697
 21
65.85049445669901
 31
0.0
  0
LINE
  5
2E8B
330
1F
100
AcDbEntity
  8
0
 62
     1
100
AcDbLine
 10
-43.24370543441733
 20
65.85049445669901
 30
0.0
 11
-43.24370543441824
 21
65.35049445669901
 31
0.0
  0
LINE
  5
2E8C
330
1F
100
AcDbEntity
  8
0
 62
     1
100
AcDbLine
 10
-44.26870543441697
 20
65.85049445669901
 30
0.0
 11
-44.26870543441697
 21
65.35049445669901
 31
0.0
  0
LINE
  5
2E8D
330
1F
100
AcDbEntity
  8
0
 62
     1
100
AcDbLine
 10
-43.24370543441824
 20
65.85049445669901
 30
0.0
 11
-42.61870543441824
 21
65.85049445669901
 31
0.0
  0
LINE
  5
2E8E
330
1F
100
AcDbEntity
  8
0
 62
     1
100
AcDbLine
 10
-43.06870543441806
 20
65.60049445669901
 30
0.0
 11
-43.06870543441806
 21
65.35049445669901
 31
0.0
  0
LINE
  5
2E8F
330
1F
100
AcDbEntity
  8
0
 62
     1
100
AcDbLine
 10
-43.06870543441806
 20
65.60049445669901
 30
0.0
 11
-42.81870543441806
 21
65.60049445669901
 31
0.0
  0
LINE
  5
2E90
330
1F
100
AcDbEntity
  8
0
 62
     1
100
AcDbLine
 10
-42.81870543441806
 20
65.35049445669901
 30
0.0
 11
-42.61870543441824
 21
65.35049445669901
 31
0.0
  0
LINE
  5
2E91
330
1F
100
AcDbEntity
  8
0
 48
0.15
100
AcDbLine
 10
-44.26870543441697
 20
65.35049445669901
 30
0.0
 11
-43.24370543441733
 21
65.35049445669901
 31
0.0
  0
LINE
  5
2E92
330
1F
100
AcDbEntity
  8
0
 62
     1
100
AcDbLine
 10
-43.19370543441715
 20
65.35049445669901
 30
0.0
 11
-44.31870543441806
 21
65.35049445669901
 31
0.0
  0
LINE
  5
2E93
330
1F
100
AcDbEntity
  8
0
 62
     1
100
AcDbLine
 10
-34.14370543441697
 20
65.85049445669901
 30
0.0
 11
-34.14370543441697
 21
65.35049445669901
 31
0.0
  0
LINE
  5
2E94
330
1F
100
AcDbEntity
  8
0
 62
     1
100
AcDbLine
 10
-35.79370543441843
 20
65.85049445669901
 30
0.0
 11
-35.79370543441843
 21
65.35049445669901
 31
0.0
  0
LINE
  5
2E95
330
1F
100
AcDbEntity
  8
0
 62
     1
100
AcDbLine
 10
-34.76870543441697
 20
65.85049445669901
 30
0.0
 11
-34.76870543441697
 21
65.35049445669901
 31
0.0
  0
LINE
  5
2E96
330
1F
100
AcDbEntity
  8
0
 62
     1
100
AcDbLine
 10
-36.41870543441843
 20
65.85049445669901
 30
0.0
 11
-35.79370543441843
 21
65.85049445669901
 31
0.0
  0
LINE
  5
2E97
330
1F
100
AcDbEntity
  8
0
 62
     1
100
AcDbLine
 10
-34.76870543441697
 20
65.85049445669901
 30
0.0
 11
-34.14370543441697
 21
65.85049445669901
 31
0.0
  0
LINE
  5
2E98
330
1F
100
AcDbEntity
  8
0
 62
     1
100
AcDbLine
 10
-35.9687054344177
 20
65.60049445669901
 30
0.0
 11
-35.9687054344177
 21
65.35049445669901
 31
0.0
  0
LINE
  5
2E99
330
1F
100
AcDbEntity
  8
0
 62
     1
100
AcDbLine
 10
-36.2187054344177
 20
65.60049445669901
 30
0.0
 11
-35.9687054344177
 21
65.60049445669901
 31
0.0
  0
LINE
  5
2E9A
330
1F
100
AcDbEntity
  8
0
 62
     1
100
AcDbLine
 10
-36.00370543441755
 20
65.35049445669901
 30
0.0
 11
-33.79370543441752
 21
65.35049445669901
 31
0.0
  0
LINE
  5
2E9B
330
1F
100
AcDbEntity
  8
0
 62
     1
100
AcDbLine
 10
-36.41870543441843
 20
65.35049445669901
 30
0.0
 11
-36.2187054344177
 21
65.35049445669901
 31
0.0
  0
LINE
  5
2E9C
330
1F
100
AcDbEntity
  8
0
 62
     1
100
AcDbLine
 10
-45.24370543441733
 20
65.35049445669901
 30
0.0
 11
-42.61870543441733
 21
65.35049445669901
 31
0.0
  0
LINE
  5
2E9D
330
1F
100
AcDbEntity
  8
0
 62
     1
100
AcDbLine
 10
-42.61870543441733
 20
65.85049445669901
 30
0.0
 11
-42.61870543441733
 21
65.35049445669901
 31
0.0
  0
LINE
  5
2E9E
330
1F
100
AcDbEntity
  8
0
  6
HIDDEN
 62
     1
 48
0.02
100
AcDbLine
 10
-44.89370543441697
 20
65.85049445669901
 30
0.0
 11
-44.26870543441697
 21
65.85049445669901
 31
0.0
  0
LINE
  5
2E9F
330
1F
100
AcDbEntity
  8
0
  6
HIDDEN
 62
     1
 48
0.02
100
AcDbLine
 10
-44.89370543441697
 20
65.85049445669901
 30
0.0
 11
-44.89370543441697
 21
65.35049445669901
 31
0.0
  0
LINE
  5
2EA0
330
1F
100
AcDbEntity
  8
0
  6
HIDDEN
 62
     1
 48
0.02
100
AcDbLine
 10
-43.24370543441733
 20
65.85049445669901
 30
0.0
 11
-43.24370543441824
 21
65.35049445669901
 31
0.0
  0
LINE
  5
2EA1
330
1F
100
AcDbEntity
  8
0
  6
HIDDEN
 62
     1
 48
0.02
100
AcDbLine
 10
-44.26870543441697
 20
65.85049445669901
 30
0.0
 11
-44.26870543441697
 21
65.35049445669901
 31
0.0
  0
LINE
  5
2EA2
330
1F
100
AcDbEntity
  8
0
  6
HIDDEN
 62
     1
 48
0.02
100
AcDbLine
 10
-43.24370543441824
 20
65.85049445669901
 30
0.0
 11
-42.61870543441824
 21
65.85049445669901
 31
0.0
  0
LINE
  5
2EA3
330
1F
100
AcDbEntity
  8
0
 62
     1
100
AcDbLine
 10
-36.41870543441661
 20
65.35049445669901
 30
0.0
 11
-33.79370543441752
 21
65.35049445669901
 31
0.0
  0
LINE
  5
2EA4
330
1F
100
AcDbEntity
  8
0
 62
     1
100
AcDbLine
 10
-36.41870543441661
 20
65.85049445669901
 30
0.0
 11
-36.41870543441661
 21
65.35049445669901
 31
0.0
  0
LINE
  5
2EA5
330
1F
100
AcDbEntity
  8
0
  6
HIDDEN
 62
     1
 48
0.02
100
AcDbLine
 10
-34.14370543441516
 20
65.85049445669901
 30
0.0
 11
-34.14370543441516
 21
65.35049445669901
 31
0.0
  0
LINE
  5
2EA6
330
1F
100
AcDbEntity
  8
0
  6
HIDDEN
 62
     1
 48
0.02
100
AcDbLine
 10
-35.79370543441661
 20
65.85049445669901
 30
0.0
 11
-35.79370543441661
 21
65.35049445669901
 31
0.0
  0
LINE
  5
2EA7
330
1F
100
AcDbEntity
  8
0
  6
HIDDEN
 62
     1
 48
0.02
100
AcDbLine
 10
-34.76870543441516
 20
65.85049445669901
 30
0.0
 11
-34.76870543441516
 21
65.35049445669901
 31
0.0
  0
LINE
  5
2EA8
330
1F
100
AcDbEntity
  8
0
  6
HIDDEN
 62
     1
 48
0.02
100
AcDbLine
 10
-36.41870543441661
 20
65.85049445669901
 30
0.0
 11
-35.79370543441661
 21
65.85049445669901
 31
0.0
  0
LINE
  5
2EA9
330
1F
100
AcDbEntity
  8
0
  6
HIDDEN
 62
     1
 48
0.02
100
AcDbLine
 10
-34.76870543441516
 20
65.85049445669901
 30
0.0
 11
-34.14370543441516
 21
65.85049445669901
 31
0.0
  0
LINE
  5
2EAA
330
1F
100
AcDbEntity
  8
0
  6
HIDDEN
 62
     1
 48
0.02
100
AcDbLine
 10
-36.21870543441588
 20
65.60049445669901
 30
0.0
 11
-36.21870543441588
 21
65.35049445669901
 31
0.0
  0
LINE
  5
2EAB
330
1F
100
AcDbEntity
  8
0
  6
HIDDEN
 62
     1
 48
0.02
100
AcDbLine
 10
-35.96870543441588
 20
65.60049445669901
 30
0.0
 11
-35.96870543441588
 21
65.35049445669901
 31
0.0
  0
LINE
  5
2EAC
330
1F
100
AcDbEntity
  8
0
  6
HIDDEN
 62
     1
 48
0.02
100
AcDbLine
 10
-36.21870543441588
 20
65.60049445669901
 30
0.0
 11
-35.96870543441588
 21
65.60049445669901
 31
0.0
  0
LINE
  5
2EAD
330
1F
100
AcDbEntity
  8
0
 62
     1
100
AcDbLine
 10
-45.24370543441733
 20
77.35048248620123
 30
0.0
 11
-42.61870543441733
 21
77.35048248620123
 31
0.0
  0
LINE
  5
2EAE
330
1F
100
AcDbEntity
  8
0
 62
     1
100
AcDbLine
 10
-45.24370543441733
 20
77.35048248620123
 30
0.0
 11
-43.06870543441715
 21
77.35048248620123
 31
0.0
  0
LINE
  5
2EAF
330
1F
100
AcDbEntity
  8
0
 62
     1
100
AcDbLine
 10
-42.81870543441806
 20
77.35048248620123
 30
0.0
 11
-42.61870543441824
 21
77.35048248620123
 31
0.0
  0
LINE
  5
2EB0
330
1F
100
AcDbEntity
  8
0
 48
0.15
100
AcDbLine
 10
-44.26870543441697
 20
77.35048248620123
 30
0.0
 11
-43.24370543441733
 21
77.35048248620123
 31
0.0
  0
LINE
  5
2EB1
330
1F
100
AcDbEntity
  8
0
 62
     1
100
AcDbLine
 10
-43.19370543441715
 20
77.35048248620123
 30
0.0
 11
-44.31870543441806
 21
77.35048248620123
 31
0.0
  0
LINE
  5
2EB2
330
1F
100
AcDbEntity
  8
0
 62
     1
100
AcDbLine
 10
-45.24370543441733
 20
77.35049445669901
 30
0.0
 11
-45.24370543441733
 21
65.35049445669901
 31
0.0
  0
LINE
  5
2EB3
330
1F
100
AcDbEntity
  8
0
 62
     1
100
AcDbLine
 10
-45.24370543441733
 20
77.35049445669901
 30
0.0
 11
-43.06870543441715
 21
77.35049445669901
 31
0.0
  0
LINE
  5
2EB4
330
1F
100
AcDbEntity
  8
0
 62
     1
100
AcDbLine
 10
-42.61870543441733
 20
77.85049445669901
 30
0.0
 11
-42.61870543441733
 21
65.35049445669901
 31
0.0
  0
LINE
  5
2EB5
330
1F
100
AcDbEntity
  8
0
 62
     1
100
AcDbLine
 10
-44.89370543441697
 20
77.85049445669901
 30
0.0
 11
-44.26870543441697
 21
77.85049445669901
 31
0.0
  0
LINE
  5
2EB6
330
1F
100
AcDbEntity
  8
0
 62
     1
100
AcDbLine
 10
-44.89370543441697
 20
77.85049445669901
 30
0.0
 11
-44.89370543441697
 21
65.35049445669901
 31
0.0
  0
LINE
  5
2EB7
330
1F
100
AcDbEntity
  8
0
 62
     1
100
AcDbLine
 10
-43.24370543441733
 20
77.85049445669901
 30
0.0
 11
-43.24370543441824
 21
77.35049445669901
 31
0.0
  0
LINE
  5
2EB8
330
1F
100
AcDbEntity
  8
0
 62
     1
100
AcDbLine
 10
-44.26870543441697
 20
77.85049445669901
 30
0.0
 11
-44.26870543441697
 21
77.35049445669901
 31
0.0
  0
LINE
  5
2EB9
330
1F
100
AcDbEntity
  8
0
 62
     1
100
AcDbLine
 10
-43.24370543441824
 20
77.85049445669901
 30
0.0
 11
-42.61870543441824
 21
77.85049445669901
 31
0.0
  0
LINE
  5
2EBA
330
1F
100
AcDbEntity
  8
0
 62
     1
100
AcDbLine
 10
-42.81870543441806
 20
77.60049445669901
 30
0.0
 11
-42.81870543441806
 21
65.35049445669901
 31
0.0
  0
LINE
  5
2EBB
330
1F
100
AcDbEntity
  8
0
 62
     1
100
AcDbLine
 10
-43.06870543441806
 20
77.60049445669901
 30
0.0
 11
-43.06870543441806
 21
77.35049445669901
 31
0.0
  0
LINE
  5
2EBC
330
1F
100
AcDbEntity
  8
0
 62
     1
100
AcDbLine
 10
-43.06870543441806
 20
77.60049445669901
 30
0.0
 11
-42.81870543441806
 21
77.60049445669901
 31
0.0
  0
LINE
  5
2EBD
330
1F
100
AcDbEntity
  8
0
 62
     1
100
AcDbLine
 10
-42.81870543441806
 20
77.35049445669901
 30
0.0
 11
-42.61870543441824
 21
77.35049445669901
 31
0.0
  0
LINE
  5
2EBE
330
1F
100
AcDbEntity
  8
0
 48
0.15
100
AcDbLine
 10
-44.26870543441697
 20
77.35049445669901
 30
0.0
 11
-43.24370543441733
 21
77.35049445669901
 31
0.0
  0
LINE
  5
2EBF
330
1F
100
AcDbEntity
  8
A2 Hatch
  6
DASHED2
 48
0.15
100
AcDbLine
 10
-44.47870543441792
 20
77.85049445669901
 30
0.0
 11
-44.47870543441792
 21
65.35049445669901
 31
0.0
  0
LINE
  5
2EC0
330
1F
100
AcDbEntity
  8
A2 Hatch
  6
DASHED2
 48
0.15
100
AcDbLine
 10
-43.03370543441821
 20
77.85049445669901
 30
0.0
 11
-43.03370543441729
 21
65.35049445669901
 31
0.0
  0
LINE
  5
2EC1
330
1F
100
AcDbEntity
  8
0
 62
     1
100
AcDbLine
 10
-44.31870543441715
 20
77.85049445669901
 30
0.0
 11
-44.31870543441715
 21
65.35049445669901
 31
0.0
  0
LINE
  5
2EC2
330
1F
100
AcDbEntity
  8
0
 62
     1
100
AcDbLine
 10
-43.19370543441715
 20
77.85049445669901
 30
0.0
 11
-43.19370543441715
 21
65.35049445669901
 31
0.0
  0
LINE
  5
2EC3
330
1F
100
AcDbEntity
  8
0
 62
     1
100
AcDbLine
 10
-43.19370543441715
 20
77.35049445669901
 30
0.0
 11
-44.31870543441806
 21
77.35049445669901
 31
0.0
  0
ARC
  5
2EC4
330
1F
100
AcDbEntity
  8
DETAILS
 62
     6
370
    20
100
AcDbCircle
 10
-42.61870543441642
 20
69.51377267855114
 30
0.0
 40
0.0999999999999136
100
AcDbArc
 50
179.9999999996873
 51
209.7448812965932
  0
LINE
  5
2EC5
330
1F
100
AcDbEntity
  8
DETAILS
 62
     6
370
    20
100
AcDbLine
 10
-42.7187054344177
 20
71.60049445669901
 30
0.0
 11
-36.31870543441897
 21
71.60049445669901
 31
0.0
  0
LINE
  5
2EC6
330
1F
100
AcDbEntity
  8
0
 62
     1
100
AcDbLine
 10
-33.79370543441752
 20
77.35049445669901
 30
0.0
 11
-33.79370543441752
 21
65.35049445669901
 31
0.0
  0
LINE
  5
2EC7
330
1F
100
AcDbEntity
  8
0
 62
     1
100
AcDbLine
 10
-36.41870543441843
 20
77.85049445669901
 30
0.0
 11
-36.41870543441752
 21
65.35049445669901
 31
0.0
  0
LINE
  5
2EC8
330
1F
100
AcDbEntity
  8
0
 62
     1
100
AcDbLine
 10
-34.14370543441697
 20
77.85049445669901
 30
0.0
 11
-34.14370543441697
 21
77.35049445669901
 31
0.0
  0
LINE
  5
2EC9
330
1F
100
AcDbEntity
  8
0
 62
     1
100
AcDbLine
 10
-35.79370543441843
 20
77.85049445669901
 30
0.0
 11
-35.79370543441843
 21
77.35049445669901
 31
0.0
  0
LINE
  5
2ECA
330
1F
100
AcDbEntity
  8
0
 62
     1
100
AcDbLine
 10
-34.76870543441697
 20
77.85049445669901
 30
0.0
 11
-34.76870543441697
 21
77.35049445669901
 31
0.0
  0
LINE
  5
2ECB
330
1F
100
AcDbEntity
  8
0
 62
     1
100
AcDbLine
 10
-36.41870543441843
 20
77.85049445669901
 30
0.0
 11
-35.79370543441843
 21
77.85049445669901
 31
0.0
  0
LINE
  5
2ECC
330
1F
100
AcDbEntity
  8
0
 62
     1
100
AcDbLine
 10
-34.76870543441697
 20
77.85049445669901
 30
0.0
 11
-34.14370543441697
 21
77.85049445669901
 31
0.0
  0
LINE
  5
2ECD
330
1F
100
AcDbEntity
  8
0
 62
     1
100
AcDbLine
 10
-36.2187054344177
 20
77.60049445669901
 30
0.0
 11
-36.2187054344177
 21
65.35049445669901
 31
0.0
  0
LINE
  5
2ECE
330
1F
100
AcDbEntity
  8
0
 62
     1
100
AcDbLine
 10
-35.9687054344177
 20
77.60049445669901
 30
0.0
 11
-35.9687054344177
 21
77.35049445669901
 31
0.0
  0
LINE
  5
2ECF
330
1F
100
AcDbEntity
  8
0
 62
     1
100
AcDbLine
 10
-36.2187054344177
 20
77.60049445669901
 30
0.0
 11
-35.9687054344177
 21
77.60049445669901
 31
0.0
  0
LINE
  5
2ED0
330
1F
100
AcDbEntity
  8
0
 62
     1
100
AcDbLine
 10
-36.00370543441755
 20
77.35049445669901
 30
0.0
 11
-33.79370543441752
 21
77.35049445669901
 31
0.0
  0
LINE
  5
2ED1
330
1F
100
AcDbEntity
  8
0
 62
     1
100
AcDbLine
 10
-36.00370543441755
 20
77.35049445669901
 30
0.0
 11
-36.00370543441755
 21
65.35049445669901
 31
0.0
  0
LINE
  5
2ED2
330
1F
100
AcDbEntity
  8
0
 62
     1
100
AcDbLine
 10
-34.55870543441785
 20
77.35049445669901
 30
0.0
 11
-34.55870543441785
 21
65.35049445669901
 31
0.0
  0
LINE
  5
2ED3
330
1F
100
AcDbEntity
  8
A2 Hatch
  6
DASHED2
 48
0.15
100
AcDbLine
 10
-35.8437054344177
 20
77.35049445669901
 30
0.0
 11
-35.8437054344177
 21
65.35049445669901
 31
0.0
  0
LINE
  5
2ED4
330
1F
100
AcDbEntity
  8
A2 Hatch
  6
DASHED2
 48
0.15
100
AcDbLine
 10
-34.7187054344177
 20
77.35049445669901
 30
0.0
 11
-34.7187054344177
 21
65.35049445669901
 31
0.0
  0
LINE
  5
2ED5
330
1F
100
AcDbEntity
  8
0
 62
     1
100
AcDbLine
 10
-36.41870543441843
 20
77.35049445669901
 30
0.0
 11
-36.2187054344177
 21
77.35049445669901
 31
0.0
  0
LINE
  5
2ED6
330
1F
100
AcDbEntity
  8
DETAILS
 62
     6
370
    20
100
AcDbLine
 10
-42.71870543441679
 20
76.97549445669901
 30
0.0
 11
-42.7187054344177
 21
66.27774816532483
 31
0.0
  0
LINE
  5
2ED7
330
1F
100
AcDbEntity
  8
DETAILS
 62
     6
370
    20
100
AcDbLine
 10
-42.04370543441661
 20
72.2204944566989
 30
0.0
 11
-41.52432331050937
 21
72.2204944566989
 31
0.0
  0
ARC
  5
2ED8
330
1F
100
AcDbEntity
  8
DETAILS
 62
     6
370
    20
100
AcDbCircle
 10
-41.52432331051028
 20
72.37049445669899
 30
0.0
 40
0.1500000000000909
100
AcDbArc
 50
270.0000000001563
 51
43.83086067193221
  0
LINE
  5
2ED9
330
1F
100
AcDbEntity
  8
DETAILS
 62
     6
370
    20
100
AcDbLine
 10
-41.41611521235432
 20
72.47437423092705
 30
0.0
 11
-41.93549733626065
 21
73.01539727666349
 31
0.0
  0
ARC
  5
2EDA
330
1F
100
AcDbEntity
  8
DETAILS
 62
     6
370
    20
100
AcDbCircle
 10
-42.04370543441569
 20
72.91151750243497
 30
0.0
 40
0.1499999999999651
100
AcDbArc
 50
43.83086067209876
 51
179.9999999999739
  0
LINE
  5
2EDB
330
1F
100
AcDbEntity
  8
DETAILS
 62
     6
370
    20
100
AcDbLine
 10
-42.19370543441624
 20
72.91151750243497
 30
0.0
 11
-42.19370543441624
 21
72.37049445669853
 31
0.0
  0
ARC
  5
2EDC
330
1F
100
AcDbEntity
  8
DETAILS
 62
     6
370
    20
100
AcDbCircle
 10
-42.04370543441661
 20
72.37049445669853
 30
0.0
 40
0.1499999999996362
100
AcDbArc
 50
179.9999999999479
 51
270.0000000001563
  0
LINE
  5
2EDD
330
1F
100
AcDbEntity
  8
DETAILS
 62
     6
370
    20
100
AcDbLine
 10
-42.19370543441624
 20
70.85049445669901
 30
0.0
 11
-42.19370543441624
 21
70.30947141096257
 31
0.0
  0
ARC
  5
2EDE
330
1F
100
AcDbEntity
  8
DETAILS
 62
     6
370
    20
100
AcDbCircle
 10
-42.04370543441569
 20
70.30947141096257
 30
0.0
 40
0.1500000000000909
100
AcDbArc
 50
180.000000000026
 51
316.1691393279012
  0
LINE
  5
2EDF
330
1F
100
AcDbEntity
  8
DETAILS
 62
     6
370
    20
100
AcDbLine
 10
-41.93549733626065
 20
70.20559163673451
 30
0.0
 11
-41.41611521235432
 21
70.74661468247049
 31
0.0
  0
ARC
  5
2EE0
330
1F
100
AcDbEntity
  8
DETAILS
 62
     6
370
    20
100
AcDbCircle
 10
-41.52432331051028
 20
70.85049445669901
 30
0.0
 40
0.1500000000001751
100
AcDbArc
 50
316.1691393280678
 51
89.99999999984366
  0
LINE
  5
2EE1
330
1F
100
AcDbEntity
  8
DETAILS
 62
     6
370
    20
100
AcDbLine
 10
-41.52432331050937
 20
71.00049445669864
 30
0.0
 11
-42.04370543441661
 21
71.00049445669864
 31
0.0
  0
ARC
  5
2EE2
330
1F
100
AcDbEntity
  8
DETAILS
 62
     6
370
    20
100
AcDbCircle
 10
-42.04370543441661
 20
70.85049445669901
 30
0.0
 40
0.1499999999998636
100
AcDbArc
 50
89.99999999984366
 51
180.0000000000521
  0
LINE
  5
2EE3
330
1F
100
AcDbEntity
  8
DETAILS
 62
     6
370
    20
100
AcDbLine
 10
-42.04370543441661
 20
72.27049445669909
 30
0.0
 11
-41.52432331050937
 21
72.27049445669909
 31
0.0
  0
ARC
  5
2EE4
330
1F
100
AcDbEntity
  8
DETAILS
 62
     6
370
    20
100
AcDbCircle
 10
-41.52432331050937
 20
72.37049445669853
 30
0.0
 40
0.1000000000000227
100
AcDbArc
 50
270.0
 51
43.83086067200606
  0
LINE
  5
2EE5
330
1F
100
AcDbEntity
  8
DETAILS
 62
     6
370
    20
100
AcDbLine
 10
-41.4521845784057
 20
72.43974763951754
 30
0.0
 11
-41.97156670231203
 21
72.98077068525398
 31
0.0
  0
ARC
  5
2EE6
330
1F
100
AcDbEntity
  8
DETAILS
 62
     6
370
    20
100
AcDbCircle
 10
-42.04370543441569
 20
72.91151750243497
 30
0.0
 40
0.1000000000001123
100
AcDbArc
 50
43.83086067206119
 51
180.0
  0
LINE
  5
2EE7
330
1F
100
AcDbEntity
  8
DETAILS
 62
     6
370
    20
100
AcDbLine
 10
-42.14370543441515
 20
72.91151750243497
 30
0.0
 11
-42.14370543441606
 21
72.37049445669853
 31
0.0
  0
ARC
  5
2EE8
330
1F
100
AcDbEntity
  8
DETAILS
 62
     6
370
    20
100
AcDbCircle
 10
-42.04370543441569
 20
72.37049445669899
 30
0.0
 40
0.1000000000003638
100
AcDbArc
 50
180.0000000001302
 51
269.9999999997394
  0
LINE
  5
2EE9
330
1F
100
AcDbEntity
  8
DETAILS
 62
     6
370
    20
100
AcDbLine
 10
-42.14370543441606
 20
70.85049445669901
 30
0.0
 11
-42.14370543441515
 21
70.30947141096257
 31
0.0
  0
ARC
  5
2EEA
330
1F
100
AcDbEntity
  8
DETAILS
 62
     6
370
    20
100
AcDbCircle
 10
-42.04370543441569
 20
70.30947141096257
 30
0.0
 40
0.0999999999999091
100
AcDbArc
 50
179.9999999999739
 51
316.1691393279939
  0
LINE
  5
2EEB
330
1F
100
AcDbEntity
  8
DETAILS
 62
     6
370
    20
100
AcDbLine
 10
-41.97156670231203
 20
70.24021822814401
 30
0.0
 11
-41.4521845784057
 21
70.78124127388
 31
0.0
  0
ARC
  5
2EEC
330
1F
100
AcDbEntity
  8
DETAILS
 62
     6
370
    20
100
AcDbCircle
 10
-41.52432331050937
 20
70.85049445669901
 30
0.0
 40
0.1000000000000336
100
AcDbArc
 50
316.1691393279939
 51
90.0
  0
LINE
  5
2EED
330
1F
100
AcDbEntity
  8
DETAILS
 62
     6
370
    20
100
AcDbLine
 10
-41.52432331050937
 20
70.95049445669892
 30
0.0
 11
-42.04370543441661
 21
70.95049445669892
 31
0.0
  0
ARC
  5
2EEE
330
1F
100
AcDbEntity
  8
DETAILS
 62
     6
370
    20
100
AcDbCircle
 10
-42.04370543441569
 20
70.85049445669856
 30
0.0
 40
0.1000000000001364
100
AcDbArc
 50
90.00000000026055
 51
179.9999999998697
  0
LINE
  5
2EEF
330
1F
100
AcDbEntity
  8
DETAILS
 62
     6
370
    20
100
AcDbLine
 10
-36.31870543441897
 20
76.97549445669901
 30
0.0
 11
-36.31870543441806
 21
66.27774816532483
 31
0.0
  0
LINE
  5
2EF0
330
1F
100
AcDbEntity
  8
DETAILS
 62
     6
370
    20
100
AcDbLine
 10
-36.84370543441952
 20
72.37049445669853
 30
0.0
 11
-36.84370543441952
 21
72.91151750243497
 31
0.0
  0
ARC
  5
2EF1
330
1F
100
AcDbEntity
  8
DETAILS
 62
     6
370
    20
100
AcDbCircle
 10
-36.99370543442006
 20
72.91151750243497
 30
0.0
 40
0.1500000000000909
100
AcDbArc
 50
0.0000000000260551
 51
136.1691393279012
  0
LINE
  5
2EF2
330
1F
100
AcDbEntity
  8
DETAILS
 62
     6
370
    20
100
AcDbLine
 10
-37.10191353257511
 20
73.01539727666349
 30
0.0
 11
-37.62129565648144
 21
72.47437423092705
 31
0.0
  0
ARC
  5
2EF3
330
1F
100
AcDbEntity
  8
DETAILS
 62
     6
370
    20
100
AcDbCircle
 10
-37.51308755832548
 20
72.37049445669899
 30
0.0
 40
0.1500000000001751
100
AcDbArc
 50
136.1691393280678
 51
269.9999999998437
  0
LINE
  5
2EF4
330
1F
100
AcDbEntity
  8
DETAILS
 62
     6
370
    20
100
AcDbLine
 10
-37.51308755832639
 20
72.2204944566989
 30
0.0
 11
-36.99370543441915
 21
72.2204944566989
 31
0.0
  0
ARC
  5
2EF5
330
1F
100
AcDbEntity
  8
DETAILS
 62
     6
370
    20
100
AcDbCircle
 10
-36.99370543441915
 20
72.37049445669853
 30
0.0
 40
0.1499999999998067
100
AcDbArc
 50
269.9999999998437
 51
0.0000000000781653
  0
LINE
  5
2EF6
330
1F
100
AcDbEntity
  8
DETAILS
 62
     6
370
    20
100
AcDbLine
 10
-36.99370543441915
 20
71.00049445669864
 30
0.0
 11
-37.51308755832639
 21
71.00049445669864
 31
0.0
  0
ARC
  5
2EF7
330
1F
100
AcDbEntity
  8
DETAILS
 62
     6
370
    20
100
AcDbCircle
 10
-37.51308755832548
 20
70.85049445669901
 30
0.0
 40
0.1500000000001478
100
AcDbArc
 50
90.00000000015633
 51
223.8308606719322
  0
LINE
  5
2EF8
330
1F
100
AcDbEntity
  8
DETAILS
 62
     6
370
    20
100
AcDbLine
 10
-37.62129565648144
 20
70.74661468247049
 30
0.0
 11
-37.10191353257511
 21
70.20559163673451
 31
0.0
  0
ARC
  5
2EF9
330
1F
100
AcDbEntity
  8
DETAILS
 62
     6
370
    20
100
AcDbCircle
 10
-36.99370543442006
 20
70.30947141096257
 30
0.0
 40
0.1499999999999651
100
AcDbArc
 50
223.8308606720988
 51
359.999999999974
  0
LINE
  5
2EFA
330
1F
100
AcDbEntity
  8
DETAILS
 62
     6
370
    20
100
AcDbLine
 10
-36.84370543441952
 20
70.30947141096257
 30
0.0
 11
-36.84370543441952
 21
70.85049445669901
 31
0.0
  0
ARC
  5
2EFB
330
1F
100
AcDbEntity
  8
DETAILS
 62
     6
370
    20
100
AcDbCircle
 10
-36.99370543441915
 20
70.85049445669901
 30
0.0
 40
0.1499999999996362
100
AcDbArc
 50
359.9999999999218
 51
90.00000000015633
  0
ARC
  5
2EFC
330
1F
100
AcDbEntity
  8
DETAILS
 62
     6
370
    20
100
AcDbCircle
 10
-41.04379633668219
 20
70.0954944566989
 30
0.0
 40
0.010000000000022
100
AcDbArc
 50
97.40989078445407
 51
262.5901092155459
  0
LINE
  5
2EFD
330
1F
100
AcDbEntity
  8
DETAILS
 62
     6
370
    20
100
AcDbLine
 10
-41.0450860045185
 20
70.08557796755813
 30
0.0
 11
-40.88897591491519
 21
70.07049445669881
 31
0.0
  0
LINE
  5
2EFE
330
1F
100
AcDbEntity
  8
DETAILS
 62
     6
370
    20
100
AcDbLine
 10
-40.88897591491519
 20
70.07049445669881
 30
0.0
 11
-39.51870543441788
 21
70.07049445669881
 31
0.0
  0
LINE
  5
2EFF
330
1F
100
AcDbEntity
  8
DETAILS
 62
     6
370
    20
100
AcDbLine
 10
-39.51870543441788
 20
70.07049445669881
 30
0.0
 11
-38.14843495392057
 21
70.07049445669881
 31
0.0
  0
LINE
  5
2F00
330
1F
100
AcDbEntity
  8
DETAILS
 62
     6
370
    20
100
AcDbLine
 10
-38.14843495392057
 20
70.07049445669881
 30
0.0
 11
-37.99232486431725
 21
70.08557796755813
 31
0.0
  0
ARC
  5
2F01
330
1F
100
AcDbEntity
  8
DETAILS
 62
     6
370
    20
100
AcDbCircle
 10
-37.99361453215357
 20
70.0954944566989
 30
0.0
 40
0.0099999999999656
100
AcDbArc
 50
277.409890784454
 51
82.59010921554594
  0
LINE
  5
2F02
330
1F
100
AcDbEntity
  8
DETAILS
 62
     6
370
    20
100
AcDbLine
 10
-37.99232486431725
 20
70.10541094583922
 30
0.0
 11
-38.14843495391966
 21
70.12049445669899
 31
0.0
  0
LINE
  5
2F03
330
1F
100
AcDbEntity
  8
DETAILS
 62
     6
370
    20
100
AcDbLine
 10
-38.14843495391966
 20
70.12049445669899
 30
0.0
 11
-39.51870543441788
 21
70.12049445669899
 31
0.0
  0
LINE
  5
2F04
330
1F
100
AcDbEntity
  8
DETAILS
 62
     6
370
    20
100
AcDbLine
 10
-39.51870543441788
 20
70.12049445669899
 30
0.0
 11
-40.88897591491519
 21
70.12049445669854
 31
0.0
  0
LINE
  5
2F05
330
1F
100
AcDbEntity
  8
DETAILS
 62
     6
370
    20
100
AcDbLine
 10
-40.88897591491519
 20
70.12049445669854
 30
0.0
 11
-41.0450860045185
 21
70.10541094583922
 31
0.0
  0
ARC
  5
2F06
330
1F
100
AcDbEntity
  8
DETAILS
 62
     6
370
    20
100
AcDbCircle
 10
-37.63632722202971
 20
73.83049445669903
 30
0.0
 40
0.1000000000001364
100
AcDbArc
 50
270.0000000002606
 51
316.1691393281411
  0
LINE
  5
2F07
330
1F
100
AcDbEntity
  8
DETAILS
 62
     6
370
    20
100
AcDbLine
 10
-37.56418848992513
 20
73.76124127388002
 30
0.0
 11
-36.44656670231694
 21
74.95147230264009
 31
0.0
  0
ARC
  5
2F08
330
1F
100
AcDbEntity
  8
DETAILS
 62
     6
370
    20
100
AcDbCircle
 10
-36.51870543441788
 20
75.0207254854591
 30
0.0
 40
0.0999999999994431
100
AcDbArc
 50
316.1691393272024
 51
359.9999999992444
  0
ARC
  5
2F09
330
1F
100
AcDbEntity
  8
DETAILS
 62
     6
370
    20
100
AcDbCircle
 10
-42.51871231410501
 20
75.02072548545775
 30
0.0
 40
0.0999999999999091
100
AcDbArc
 50
179.9999999998697
 51
223.8308606719873
  0
LINE
  5
2F0A
330
1F
100
AcDbEntity
  8
DETAILS
 62
     6
370
    20
100
AcDbLine
 10
-42.59085104620777
 20
74.95147230263919
 30
0.0
 11
-41.47322237891063
 21
73.76124127388002
 31
0.0
  0
ARC
  5
2F0B
330
1F
100
AcDbEntity
  8
DETAILS
 62
     6
370
    20
100
AcDbCircle
 10
-41.40108364680696
 20
73.83049445669903
 30
0.0
 40
0.1000000000001911
100
AcDbArc
 50
223.8308606721345
 51
270.0
  0
LINE
  5
2F0C
330
1F
100
AcDbEntity
  8
DETAILS
 62
     6
370
    20
100
AcDbLine
 10
-41.40108364680696
 20
73.73049445669912
 30
0.0
 11
-41.39370543441697
 21
73.73049445669912
 31
0.0
  0
LINE
  5
2F0D
330
1F
100
AcDbEntity
  8
DETAILS
 62
     6
370
    20
100
AcDbLine
 10
-41.39370543441697
 20
73.73049445669912
 30
0.0
 11
-41.39370543441697
 21
73.68049445669893
 31
0.0
  0
LINE
  5
2F0E
330
1F
100
AcDbEntity
  8
DETAILS
 62
     6
370
    20
100
AcDbLine
 10
-41.39370543441697
 20
73.68049445669893
 30
0.0
 11
-41.29370543441661
 21
73.68049445669893
 31
0.0
  0
ARC
  5
2F0F
330
1F
100
AcDbEntity
  8
DETAILS
 62
     6
370
    20
100
AcDbCircle
 10
-41.29370543441661
 20
73.63049445669876
 30
0.0
 40
0.0500000000001819
100
AcDbArc
 50
359.9999999998697
 51
90.0
  0
LINE
  5
2F10
330
1F
100
AcDbEntity
  8
DETAILS
 62
     6
370
    20
100
AcDbLine
 10
-41.24370543441552
 20
73.63049445669876
 30
0.0
 11
-41.24370543441734
 21
73.57549445669892
 31
0.0
  0
ARC
  5
2F11
330
1F
100
AcDbEntity
  8
DETAILS
 62
     6
370
    20
100
AcDbCircle
 10
-40.81870543441624
 20
73.57549445669846
 30
0.0
 40
0.4250000000001819
100
AcDbArc
 50
179.9999999999739
 51
359.999999999974
  0
LINE
  5
2F12
330
1F
100
AcDbEntity
  8
DETAILS
 62
     6
370
    20
100
AcDbLine
 10
-40.39370543441697
 20
73.57549445669846
 30
0.0
 11
-40.39370543441697
 21
73.63049445669876
 31
0.0
  0
ARC
  5
2F13
330
1F
100
AcDbEntity
  8
DETAILS
 62
     6
370
    20
100
AcDbCircle
 10
-40.34370543441679
 20
73.63049445669876
 30
0.0
 40
0.0500000000001819
100
AcDbArc
 50
90.0
 51
179.9999999996613
  0
LINE
  5
2F14
330
1F
100
AcDbEntity
  8
DETAILS
 62
     6
370
    20
100
AcDbLine
 10
-40.34370543441679
 20
73.68049445669893
 30
0.0
 11
-39.99370543441734
 21
73.68049445669893
 31
0.0
  0
ARC
  5
2F15
330
1F
100
AcDbEntity
  8
DETAILS
 62
     6
370
    20
100
AcDbCircle
 10
-39.99370543441734
 20
73.63049445669876
 30
0.0
 40
0.0500000000001819
100
AcDbArc
 50
359.9999999998697
 51
90.0
  0
LINE
  5
2F16
330
1F
100
AcDbEntity
  8
DETAILS
 62
     6
370
    20
100
AcDbLine
 10
-39.94370543441716
 20
73.63049445669876
 30
0.0
 11
-39.94370543441807
 21
73.57549445669573
 31
0.0
  0
ARC
  5
2F17
330
1F
100
AcDbEntity
  8
DETAILS
 62
     6
370
    20
100
AcDbCircle
 10
-39.51870543441697
 20
73.57549445669573
 30
0.0
 40
0.4250000000001819
100
AcDbArc
 50
180.0
 51
270.0
  0
ARC
  5
2F18
330
1F
100
AcDbEntity
  8
DETAILS
 62
     6
370
    20
100
AcDbCircle
 10
-39.51870543441788
 20
73.57549445669573
 30
0.0
 40
0.4249999999997272
100
AcDbArc
 50
270.0000000000521
 51
0.0000000000521102
  0
LINE
  5
2F19
330
1F
100
AcDbEntity
  8
DETAILS
 62
     6
370
    20
100
AcDbLine
 10
-39.0937054344177
 20
73.57549445669573
 30
0.0
 11
-39.09370543441861
 21
73.63049445669876
 31
0.0
  0
ARC
  5
2F1A
330
1F
100
AcDbEntity
  8
DETAILS
 62
     6
370
    20
100
AcDbCircle
 10
-39.04370543441843
 20
73.63049445669876
 30
0.0
 40
0.0500000000001819
100
AcDbArc
 50
90.0
 51
180.0
  0
LINE
  5
2F1B
330
1F
100
AcDbEntity
  8
DETAILS
 62
     6
370
    20
100
AcDbLine
 10
-39.04370543441843
 20
73.68049445669893
 30
0.0
 11
-38.69370543441898
 21
73.68049445669893
 31
0.0
  0
ARC
  5
2F1C
330
1F
100
AcDbEntity
  8
DETAILS
 62
     6
370
    20
100
AcDbCircle
 10
-38.69370543441898
 20
73.63049445669876
 30
0.0
 40
0.0500000000001819
100
AcDbArc
 50
0.000000000260551
 51
90.0
  0
LINE
  5
2F1D
330
1F
100
AcDbEntity
  8
DETAILS
 62
     6
370
    20
100
AcDbLine
 10
-38.64370543441879
 20
73.63049445669876
 30
0.0
 11
-38.64370543441879
 21
73.57549445669846
 31
0.0
  0
ARC
  5
2F1E
330
1F
100
AcDbEntity
  8
DETAILS
 62
     6
370
    20
100
AcDbCircle
 10
-38.21870543441861
 20
73.57549445669846
 30
0.0
 40
0.4249999999997272
100
AcDbArc
 50
180.000000000026
 51
0.0000000000260551
  0
LINE
  5
2F1F
330
1F
100
AcDbEntity
  8
DETAILS
 62
     6
370
    20
100
AcDbLine
 10
-37.79370543441843
 20
73.57549445669892
 30
0.0
 11
-37.79370543442025
 21
73.63049445669876
 31
0.0
  0
ARC
  5
2F20
330
1F
100
AcDbEntity
  8
DETAILS
 62
     6
370
    20
100
AcDbCircle
 10
-37.74370543441916
 20
73.63049445669876
 30
0.0
 40
0.0500000000001819
100
AcDbArc
 50
90.0
 51
180.0
  0
LINE
  5
2F21
330
1F
100
AcDbEntity
  8
DETAILS
 62
     6
370
    20
100
AcDbLine
 10
-37.74370543441916
 20
73.68049445669893
 30
0.0
 11
-37.64370543441879
 21
73.68049445669893
 31
0.0
  0
LINE
  5
2F22
330
1F
100
AcDbEntity
  8
DETAILS
 62
     6
370
    20
100
AcDbLine
 10
-37.64370543441879
 20
73.68049445669893
 30
0.0
 11
-37.64370543441879
 21
73.73049445669912
 31
0.0
  0
LINE
  5
2F23
330
1F
100
AcDbEntity
  8
DETAILS
 62
     6
370
    20
100
AcDbLine
 10
-37.64370543441879
 20
73.73049445669912
 30
0.0
 11
-37.6363272220288
 21
73.73049445669912
 31
0.0
  0
LINE
  5
2F24
330
1F
100
AcDbEntity
  8
DETAILS
 62
     6
370
    20
100
AcDbLine
 10
-37.6363272220288
 20
73.73049445669912
 30
0.0
 11
-37.79370543441934
 21
73.73049445669912
 31
0.0
  0
ARC
  5
2F25
330
1F
100
AcDbEntity
  8
DETAILS
 62
     6
370
    20
100
AcDbCircle
 10
-37.79370543441934
 20
73.68049445669893
 30
0.0
 40
0.0500000000001819
100
AcDbArc
 50
90.0
 51
179.9999999998697
  0
LINE
  5
2F26
330
1F
100
AcDbEntity
  8
DETAILS
 62
     6
370
    20
100
AcDbLine
 10
-37.84370543441952
 20
73.68049445669893
 30
0.0
 11
-37.84370543441952
 21
73.57549445669892
 31
0.0
  0
ARC
  5
2F27
330
1F
100
AcDbEntity
  8
DETAILS
 62
     6
370
    20
100
AcDbCircle
 10
-38.21870543441952
 20
73.57549445669846
 30
0.0
 40
0.375
100
AcDbArc
 50
180.0
 51
0.0
  0
LINE
  5
2F28
330
1F
100
AcDbEntity
  8
DETAILS
 62
     6
370
    20
100
AcDbLine
 10
-38.59370543441952
 20
73.57549445669846
 30
0.0
 11
-38.59370543441952
 21
73.68049445669893
 31
0.0
  0
ARC
  5
2F29
330
1F
100
AcDbEntity
  8
DETAILS
 62
     6
370
    20
100
AcDbCircle
 10
-38.64370543441879
 20
73.68049445669893
 30
0.0
 40
0.0500000000001819
100
AcDbArc
 50
0.0000000001302755
 51
90.0
  0
LINE
  5
2F2A
330
1F
100
AcDbEntity
  8
DETAILS
 62
     6
370
    20
100
AcDbLine
 10
-38.64370543441879
 20
73.73049445669912
 30
0.0
 11
-39.09370543441952
 21
73.73049445669912
 31
0.0
  0
ARC
  5
2F2B
330
1F
100
AcDbEntity
  8
DETAILS
 62
     6
370
    20
100
AcDbCircle
 10
-39.09370543441952
 20
73.68049445669893
 30
0.0
 40
0.0500000000001251
100
AcDbArc
 50
90.0
 51
179.9999999998697
  0
LINE
  5
2F2C
330
1F
100
AcDbEntity
  8
DETAILS
 62
     6
370
    20
100
AcDbLine
 10
-39.14370543441879
 20
73.68049445669893
 30
0.0
 11
-39.14370543441879
 21
73.57549445669573
 31
0.0
  0
ARC
  5
2F2D
330
1F
100
AcDbEntity
  8
DETAILS
 62
     6
370
    20
100
AcDbCircle
 10
-39.51870543441788
 20
73.57549445669573
 30
0.0
 40
0.3749999999995452
100
AcDbArc
 50
270.0000000000521
 51
0.0000000000521102
  0
ARC
  5
2F2E
330
1F
100
AcDbEntity
  8
DETAILS
 62
     6
370
    20
100
AcDbCircle
 10
-39.51870543441697
 20
73.57549445669573
 30
0.0
 40
0.3749999999998295
100
AcDbArc
 50
180.0
 51
269.9999999999479
  0
LINE
  5
2F2F
330
1F
100
AcDbEntity
  8
DETAILS
 62
     6
370
    20
100
AcDbLine
 10
-39.89370543441697
 20
73.57549445669573
 30
0.0
 11
-39.89370543441697
 21
73.68049445669893
 31
0.0
  0
ARC
  5
2F30
330
1F
100
AcDbEntity
  8
DETAILS
 62
     6
370
    20
100
AcDbCircle
 10
-39.94370543441625
 20
73.68049445669893
 30
0.0
 40
0.0500000000001819
100
AcDbArc
 50
0.0000000001302755
 51
90.0
  0
LINE
  5
2F31
330
1F
100
AcDbEntity
  8
DETAILS
 62
     6
370
    20
100
AcDbLine
 10
-39.94370543441625
 20
73.73049445669912
 30
0.0
 11
-40.39370543441697
 21
73.73049445669912
 31
0.0
  0
ARC
  5
2F32
330
1F
100
AcDbEntity
  8
DETAILS
 62
     6
370
    20
100
AcDbCircle
 10
-40.39370543441697
 20
73.68049445669893
 30
0.0
 40
0.0500000000001819
100
AcDbArc
 50
90.0
 51
179.9999999998697
  0
LINE
  5
2F33
330
1F
100
AcDbEntity
  8
DETAILS
 62
     6
370
    20
100
AcDbLine
 10
-40.44370543441624
 20
73.68049445669893
 30
0.0
 11
-40.44370543441624
 21
73.57549445669846
 31
0.0
  0
ARC
  5
2F34
330
1F
100
AcDbEntity
  8
DETAILS
 62
     6
370
    20
100
AcDbCircle
 10
-40.81870543441624
 20
73.57549445669846
 30
0.0
 40
0.3749999999995452
100
AcDbArc
 50
179.9999999999739
 51
0.0
  0
LINE
  5
2F35
330
1F
100
AcDbEntity
  8
DETAILS
 62
     6
370
    20
100
AcDbLine
 10
-41.19370543441625
 20
73.57549445669892
 30
0.0
 11
-41.19370543441625
 21
73.68049445669893
 31
0.0
  0
ARC
  5
2F36
330
1F
100
AcDbEntity
  8
DETAILS
 62
     6
370
    20
100
AcDbCircle
 10
-41.24370543441642
 20
73.68049445669893
 30
0.0
 40
0.0500000000001819
100
AcDbArc
 50
0.0000000001302755
 51
90.0
  0
LINE
  5
2F37
330
1F
100
AcDbEntity
  8
DETAILS
 62
     6
370
    20
100
AcDbLine
 10
-41.24370543441642
 20
73.73049445669912
 30
0.0
 11
-41.40108364680696
 21
73.73049445669912
 31
0.0
  0
LINE
  5
2F38
330
1F
100
AcDbEntity
  8
DETAILS
 62
     6
370
    20
100
AcDbLine
 10
-36.41870543441752
 20
68.25907310046213
 30
0.0
 11
-36.41870543441843
 21
66.25095324608046
 31
0.0
  0
LINE
  5
2F39
330
1F
100
AcDbEntity
  8
DETAILS
 62
     6
370
    20
100
AcDbLine
 10
-42.61870543441733
 20
66.25095324608046
 30
0.0
 11
-42.61870543441824
 21
68.25907310046213
 31
0.0
  0
LINE
  5
2F3A
330
1F
100
AcDbEntity
  8
DETAILS
 62
     6
370
    20
100
AcDbLine
 10
-42.7187054344177
 20
76.9366382076947
 30
0.0
 11
-42.7187054344177
 21
76.97324074807247
 31
0.0
  0
ARC
  5
2F3B
330
1F
100
AcDbEntity
  8
DETAILS
 62
     6
370
    20
100
AcDbCircle
 10
-42.76870543441788
 20
76.97324074807202
 30
0.0
 40
0.0500000000001819
100
AcDbArc
 50
0.0000000004429368
 51
30.00000000045302
  0
LINE
  5
2F3C
330
1F
100
AcDbEntity
  8
DETAILS
 62
     6
370
    20
100
AcDbLine
 10
-42.72540416422913
 20
76.99824074807256
 30
0.0
 11
-42.77109311885493
 21
77.07737633883207
 31
0.0
  0
LINE
  5
2F3D
330
1F
100
AcDbEntity
  8
DETAILS
 62
     6
370
    20
100
AcDbLine
 10
-42.77109311885493
 20
77.07737633883207
 30
0.0
 11
-42.68449057847743
 21
77.12737633883179
 31
0.0
  0
LINE
  5
2F3E
330
1F
100
AcDbEntity
  8
DETAILS
 62
     6
370
    20
100
AcDbLine
 10
-42.68449057847743
 20
77.12737633883179
 30
0.0
 11
-42.62540416422877
 21
77.02503566731692
 31
0.0
  0
ARC
  5
2F3F
330
1F
100
AcDbEntity
  8
DETAILS
 62
     6
370
    20
100
AcDbCircle
 10
-42.66870543441751
 20
77.00003566731684
 30
0.0
 40
0.0499999999997213
100
AcDbArc
 50
0.0000000003387164
 51
30.00000000054656
  0
LINE
  5
2F40
330
1F
100
AcDbEntity
  8
DETAILS
 62
     6
370
    20
100
AcDbLine
 10
-42.61870543441824
 20
77.00003566731684
 30
0.0
 11
-42.61870543441642
 21
75.0207254854582
 31
0.0
  0
LINE
  5
2F41
330
1F
100
AcDbEntity
  8
DETAILS
 62
     6
370
    20
100
AcDbLine
 10
-42.61870543441642
 20
75.0207254854582
 30
0.0
 11
-42.61870543441733
 21
68.25907310046258
 31
0.0
  0
ARC
  5
2F42
330
1F
100
AcDbEntity
  8
DETAILS
 62
     6
370
    20
100
AcDbCircle
 10
-42.51870543441788
 20
68.25907310046258
 30
0.0
 40
0.0999999999999091
100
AcDbArc
 50
135.0000000001477
 51
180.0000000001302
  0
LINE
  5
2F43
330
1F
100
AcDbEntity
  8
DETAILS
 62
     6
370
    20
100
AcDbLine
 10
-42.58941611253618
 20
68.32978377858089
 30
0.0
 11
-40.9376394172387
 21
70.00656047387664
 31
0.0
  0
ARC
  5
2F44
330
1F
100
AcDbEntity
  8
DETAILS
 62
     6
370
    20
100
AcDbCircle
 10
-40.83157340006079
 20
69.90049445669919
 30
0.0
 40
0.1499999999998163
100
AcDbArc
 50
90.0
 51
135.0000000000187
  0
LINE
  5
2F45
330
1F
100
AcDbEntity
  8
DETAILS
 62
     6
370
    20
100
AcDbLine
 10
-40.83157340006079
 20
70.05049445669882
 30
0.0
 11
-39.51870543441788
 21
70.05049445669882
 31
0.0
  0
LINE
  5
2F46
330
1F
100
AcDbEntity
  8
DETAILS
 62
     6
370
    20
100
AcDbLine
 10
-39.51870543441788
 20
70.05049445669882
 30
0.0
 11
-38.20583746877498
 21
70.05049445669882
 31
0.0
  0
ARC
  5
2F47
330
1F
100
AcDbEntity
  8
DETAILS
 62
     6
370
    20
100
AcDbCircle
 10
-38.20583746877498
 20
69.90049445669919
 30
0.0
 40
0.1499999999998067
100
AcDbArc
 50
44.99999999998129
 51
90.0
  0
LINE
  5
2F48
330
1F
100
AcDbEntity
  8
DETAILS
 62
     6
370
    20
100
AcDbLine
 10
-38.09977145159706
 20
70.00656047387664
 30
0.0
 11
-36.44799475629867
 21
68.32978377858089
 31
0.0
  0
ARC
  5
2F49
330
1F
100
AcDbEntity
  8
DETAILS
 62
     6
370
    20
100
AcDbCircle
 10
-36.51870543441788
 20
68.25907310046258
 30
0.0
 40
0.0999999999999044
100
AcDbArc
 50
359.9999999998958
 51
44.99999999985233
  0
LINE
  5
2F4A
330
1F
100
AcDbEntity
  8
DETAILS
 62
     6
370
    20
100
AcDbLine
 10
-36.41870543441752
 20
68.25907310046258
 30
0.0
 11
-36.41870543441934
 21
75.0207254854582
 31
0.0
  0
LINE
  5
2F4B
330
1F
100
AcDbEntity
  8
DETAILS
 62
     6
370
    20
100
AcDbLine
 10
-36.41870543441934
 20
75.0207254854582
 30
0.0
 11
-36.41870543441752
 21
77.00003566731684
 31
0.0
  0
ARC
  5
2F4C
330
1F
100
AcDbEntity
  8
DETAILS
 62
     6
370
    20
100
AcDbCircle
 10
-36.36870543441825
 20
77.00003566731684
 30
0.0
 40
0.0500000000001819
100
AcDbArc
 50
149.9999999997343
 51
179.9999999997394
  0
LINE
  5
2F4D
330
1F
100
AcDbEntity
  8
DETAILS
 62
     6
370
    20
100
AcDbLine
 10
-36.412006704607
 20
77.02503566731738
 30
0.0
 11
-36.35292029035833
 21
77.12737633883179
 31
0.0
  0
LINE
  5
2F4E
330
1F
100
AcDbEntity
  8
DETAILS
 62
     6
370
    20
100
AcDbLine
 10
-36.35292029035833
 20
77.12737633883179
 30
0.0
 11
-36.26631774998083
 21
77.07737633883207
 31
0.0
  0
LINE
  5
2F4F
330
1F
100
AcDbEntity
  8
DETAILS
 62
     6
370
    20
100
AcDbLine
 10
-36.26631774998083
 20
77.07737633883207
 30
0.0
 11
-36.31200670460663
 21
76.99824074807256
 31
0.0
  0
ARC
  5
2F50
330
1F
100
AcDbEntity
  8
DETAILS
 62
     6
370
    20
100
AcDbCircle
 10
-36.26870543441788
 20
76.97324074807202
 30
0.0
 40
0.0500000000002004
100
AcDbArc
 50
149.999999999547
 51
179.999999999531
  0
LINE
  5
2F51
330
1F
100
AcDbEntity
  8
DETAILS
 62
     6
370
    20
100
AcDbLine
 10
-36.31870543441806
 20
76.97324074807247
 30
0.0
 11
-36.31870543441806
 21
76.9366382076947
 31
0.0
  0
LINE
  5
2F52
330
1F
100
AcDbEntity
  8
DETAILS
 62
     6
370
    20
100
AcDbLine
 10
-36.8937054344197
 20
72.37049445669853
 30
0.0
 11
-36.89370543442061
 21
72.91151750243497
 31
0.0
  0
ARC
  5
2F53
330
1F
100
AcDbEntity
  8
DETAILS
 62
     6
370
    20
100
AcDbCircle
 10
-36.99370543442006
 20
72.91151750243497
 30
0.0
 40
0.0999999999999091
100
AcDbArc
 50
0.0
 51
136.1691393279388
  0
LINE
  5
2F54
330
1F
100
AcDbEntity
  8
DETAILS
 62
     6
370
    20
100
AcDbLine
 10
-37.06584416652373
 20
72.98077068525398
 30
0.0
 11
-37.58522629043006
 21
72.43974763951754
 31
0.0
  0
ARC
  5
2F55
330
1F
100
AcDbEntity
  8
DETAILS
 62
     6
370
    20
100
AcDbCircle
 10
-37.51308755832639
 20
72.37049445669899
 30
0.0
 40
0.1000000000000336
100
AcDbArc
 50
136.1691393279939
 51
270.0
  0
LINE
  5
2F56
330
1F
100
AcDbEntity
  8
DETAILS
 62
     6
370
    20
100
AcDbLine
 10
-37.51308755832639
 20
72.27049445669909
 30
0.0
 11
-36.99370543441915
 21
72.27049445669909
 31
0.0
  0
ARC
  5
2F57
330
1F
100
AcDbEntity
  8
DETAILS
 62
     6
370
    20
100
AcDbCircle
 10
-36.99370543442006
 20
72.37049445669899
 30
0.0
 40
0.1000000000001364
100
AcDbArc
 50
270.0000000002606
 51
359.9999999998958
  0
LINE
  5
2F58
330
1F
100
AcDbEntity
  8
DETAILS
 62
     6
370
    20
100
AcDbLine
 10
-36.99370543441915
 20
70.95049445669892
 30
0.0
 11
-37.51308755832639
 21
70.95049445669892
 31
0.0
  0
ARC
  5
2F59
330
1F
100
AcDbEntity
  8
DETAILS
 62
     6
370
    20
100
AcDbCircle
 10
-37.51308755832639
 20
70.85049445669901
 30
0.0
 40
0.1000000000000227
100
AcDbArc
 50
90.0
 51
223.830860672006
  0
LINE
  5
2F5A
330
1F
100
AcDbEntity
  8
DETAILS
 62
     6
370
    20
100
AcDbLine
 10
-37.58522629043006
 20
70.78124127388
 30
0.0
 11
-37.06584416652373
 21
70.24021822814401
 31
0.0
  0
ARC
  5
2F5B
330
1F
100
AcDbEntity
  8
DETAILS
 62
     6
370
    20
100
AcDbCircle
 10
-36.99370543442006
 20
70.30947141096257
 30
0.0
 40
0.1000000000000336
100
AcDbArc
 50
223.830860672006
 51
0.0000000000260551
  0
LINE
  5
2F5C
330
1F
100
AcDbEntity
  8
DETAILS
 62
     6
370
    20
100
AcDbLine
 10
-36.89370543442061
 20
70.30947141096257
 30
0.0
 11
-36.8937054344197
 21
70.85049445669901
 31
0.0
  0
ARC
  5
2F5D
330
1F
100
AcDbEntity
  8
DETAILS
 62
     6
370
    20
100
AcDbCircle
 10
-36.99370543442006
 20
70.85049445669856
 30
0.0
 40
0.1000000000003638
100
AcDbArc
 50
0.0000000001042204
 51
89.99999999973944
  0
LINE
  5
2F5E
330
1F
100
AcDbEntity
  8
0
 62
     1
100
AcDbLine
 10
-45.24370543441733
 20
77.35049445669901
 30
0.0
 11
-42.61870543441733
 21
77.35049445669901
 31
0.0
  0
LINE
  5
2F5F
330
1F
100
AcDbEntity
  8
0
 62
     1
100
AcDbLine
 10
-42.61870543441733
 20
77.85049445669901
 30
0.0
 11
-42.61870543441733
 21
77.35049445669901
 31
0.0
  0
LINE
  5
2F60
330
1F
100
AcDbEntity
  8
0
  6
HIDDEN
 62
     1
 48
0.02
100
AcDbLine
 10
-44.89370543441697
 20
77.85049445669901
 30
0.0
 11
-44.26870543441697
 21
77.85049445669901
 31
0.0
  0
LINE
  5
2F61
330
1F
100
AcDbEntity
  8
0
  6
HIDDEN
 62
     1
 48
0.02
100
AcDbLine
 10
-44.89370543441697
 20
77.85049445669901
 30
0.0
 11
-44.89370543441697
 21
77.35049445669901
 31
0.0
  0
LINE
  5
2F62
330
1F
100
AcDbEntity
  8
0
  6
HIDDEN
 62
     1
 48
0.02
100
AcDbLine
 10
-43.24370543441733
 20
77.85049445669901
 30
0.0
 11
-43.24370543441824
 21
77.35049445669901
 31
0.0
  0
LINE
  5
2F63
330
1F
100
AcDbEntity
  8
0
  6
HIDDEN
 62
     1
 48
0.02
100
AcDbLine
 10
-44.26870543441697
 20
77.85049445669901
 30
0.0
 11
-44.26870543441697
 21
77.35049445669901
 31
0.0
  0
LINE
  5
2F64
330
1F
100
AcDbEntity
  8
0
  6
HIDDEN
 62
     1
 48
0.02
100
AcDbLine
 10
-43.24370543441824
 20
77.85049445669901
 30
0.0
 11
-42.61870543441824
 21
77.85049445669901
 31
0.0
  0
LINE
  5
2F65
330
1F
100
AcDbEntity
  8
0
 62
     1
100
AcDbLine
 10
-36.41870543441661
 20
77.35049445669901
 30
0.0
 11
-33.79370543441752
 21
77.35049445669901
 31
0.0
  0
LINE
  5
2F66
330
1F
100
AcDbEntity
  8
0
 62
     1
100
AcDbLine
 10
-36.41870543441661
 20
77.85049445669901
 30
0.0
 11
-36.41870543441661
 21
77.35049445669901
 31
0.0
  0
LINE
  5
2F67
330
1F
100
AcDbEntity
  8
0
  6
HIDDEN
 62
     1
 48
0.02
100
AcDbLine
 10
-34.14370543441516
 20
77.85049445669901
 30
0.0
 11
-34.14370543441516
 21
77.35049445669901
 31
0.0
  0
LINE
  5
2F68
330
1F
100
AcDbEntity
  8
0
  6
HIDDEN
 62
     1
 48
0.02
100
AcDbLine
 10
-35.79370543441661
 20
77.85049445669901
 30
0.0
 11
-35.79370543441661
 21
77.35049445669901
 31
0.0
  0
LINE
  5
2F69
330
1F
100
AcDbEntity
  8
0
  6
HIDDEN
 62
     1
 48
0.02
100
AcDbLine
 10
-34.76870543441516
 20
77.85049445669901
 30
0.0
 11
-34.76870543441516
 21
77.35049445669901
 31
0.0
  0
LINE
  5
2F6A
330
1F
100
AcDbEntity
  8
0
  6
HIDDEN
 62
     1
 48
0.02
100
AcDbLine
 10
-36.41870543441661
 20
77.85049445669901
 30
0.0
 11
-35.79370543441661
 21
77.85049445669901
 31
0.0
  0
LINE
  5
2F6B
330
1F
100
AcDbEntity
  8
0
  6
HIDDEN
 62
     1
 48
0.02
100
AcDbLine
 10
-34.76870543441516
 20
77.85049445669901
 30
0.0
 11
-34.14370543441516
 21
77.85049445669901
 31
0.0
  0
LINE
  5
2F6C
330
1F
100
AcDbEntity
  8
0
  6
HIDDEN
 62
     1
 48
0.02
100
AcDbLine
 10
-36.21870543441588
 20
77.60049445669901
 30
0.0
 11
-36.21870543441588
 21
77.35049445669901
 31
0.0
  0
LINE
  5
2F6D
330
1F
100
AcDbEntity
  8
0
  6
HIDDEN
 62
     1
 48
0.02
100
AcDbLine
 10
-35.96870543441588
 20
77.60049445669901
 30
0.0
 11
-35.96870543441588
 21
77.35049445669901
 31
0.0
  0
LINE
  5
2F6E
330
1F
100
AcDbEntity
  8
0
  6
HIDDEN
 62
     1
 48
0.02
100
AcDbLine
 10
-36.21870543441588
 20
77.60049445669901
 30
0.0
 11
-35.96870543441588
 21
77.60049445669901
 31
0.0
  0
LINE
  5
2F6F
330
1F
100
AcDbEntity
  8
0
 62
     1
100
AcDbLine
 10
-45.24370543441733
 20
65.35049445669901
 30
0.0
 11
-42.61870543441733
 21
65.35049445669901
 31
0.0
  0
LINE
  5
2F70
330
1F
100
AcDbEntity
  8
0
 62
     1
100
AcDbLine
 10
-45.24370543441733
 20
65.35049445669901
 30
0.0
 11
-43.06870543441715
 21
65.35049445669901
 31
0.0
  0
LINE
  5
2F71
330
1F
100
AcDbEntity
  8
0
 62
     1
100
AcDbLine
 10
-42.81870543441806
 20
65.35049445669901
 30
0.0
 11
-42.61870543441824
 21
65.35049445669901
 31
0.0
  0
LINE
  5
2F72
330
1F
100
AcDbEntity
  8
0
 48
0.15
100
AcDbLine
 10
-44.26870543441697
 20
65.35049445669901
 30
0.0
 11
-43.24370543441733
 21
65.35049445669901
 31
0.0
  0
LINE
  5
2F73
330
1F
100
AcDbEntity
  8
0
 62
     1
100
AcDbLine
 10
-43.19370543441715
 20
65.35049445669901
 30
0.0
 11
-44.31870543441806
 21
65.35049445669901
 31
0.0
  0
LINE
  5
2F74
330
1F
100
AcDbEntity
  8
0
 62
     1
100
AcDbLine
 10
-45.24370543441733
 20
65.35050642719633
 30
0.0
 11
-43.06870543441715
 21
65.35050642719633
 31
0.0
  0
LINE
  5
2F75
330
1F
100
AcDbEntity
  8
0
 62
     1
100
AcDbLine
 10
-44.89370543441697
 20
65.85050642719633
 30
0.0
 11
-44.26870543441697
 21
65.85050642719633
 31
0.0
  0
LINE
  5
2F76
330
1F
100
AcDbEntity
  8
0
 62
     1
100
AcDbLine
 10
-43.24370543441733
 20
65.85050642719633
 30
0.0
 11
-43.24370543441824
 21
65.35050642719633
 31
0.0
  0
LINE
  5
2F77
330
1F
100
AcDbEntity
  8
0
 62
     1
100
AcDbLine
 10
-44.26870543441697
 20
65.85050642719633
 30
0.0
 11
-44.26870543441697
 21
65.35050642719633
 31
0.0
  0
LINE
  5
2F78
330
1F
100
AcDbEntity
  8
0
 62
     1
100
AcDbLine
 10
-43.24370543441824
 20
65.85050642719633
 30
0.0
 11
-42.61870543441824
 21
65.85050642719633
 31
0.0
  0
LINE
  5
2F79
330
1F
100
AcDbEntity
  8
0
 62
     1
100
AcDbLine
 10
-43.06870543441806
 20
65.60050642719634
 30
0.0
 11
-43.06870543441806
 21
65.35050642719633
 31
0.0
  0
LINE
  5
2F7A
330
1F
100
AcDbEntity
  8
0
 62
     1
100
AcDbLine
 10
-43.06870543441806
 20
65.60050642719634
 30
0.0
 11
-42.81870543441806
 21
65.60050642719634
 31
0.0
  0
LINE
  5
2F7B
330
1F
100
AcDbEntity
  8
0
 62
     1
100
AcDbLine
 10
-42.81870543441806
 20
65.35050642719633
 30
0.0
 11
-42.61870543441824
 21
65.35050642719633
 31
0.0
  0
LINE
  5
2F7C
330
1F
100
AcDbEntity
  8
0
 48
0.15
100
AcDbLine
 10
-44.26870543441697
 20
65.35050642719633
 30
0.0
 11
-43.24370543441733
 21
65.35050642719633
 31
0.0
  0
LINE
  5
2F7D
330
1F
100
AcDbEntity
  8
0
 62
     1
100
AcDbLine
 10
-43.19370543441715
 20
65.35050642719633
 30
0.0
 11
-44.31870543441806
 21
65.35050642719633
 31
0.0
  0
LINE
  5
2F7E
330
1F
100
AcDbEntity
  8
0
 62
     1
100
AcDbLine
 10
-34.14370543441697
 20
65.85050642719633
 30
0.0
 11
-34.14370543441697
 21
65.35050642719633
 31
0.0
  0
LINE
  5
2F7F
330
1F
100
AcDbEntity
  8
0
 62
     1
100
AcDbLine
 10
-35.79370543441843
 20
65.85050642719633
 30
0.0
 11
-35.79370543441843
 21
65.35050642719633
 31
0.0
  0
LINE
  5
2F80
330
1F
100
AcDbEntity
  8
0
 62
     1
100
AcDbLine
 10
-34.76870543441697
 20
65.85050642719633
 30
0.0
 11
-34.76870543441697
 21
65.35050642719633
 31
0.0
  0
LINE
  5
2F81
330
1F
100
AcDbEntity
  8
0
 62
     1
100
AcDbLine
 10
-36.41870543441843
 20
65.85050642719633
 30
0.0
 11
-35.79370543441843
 21
65.85050642719633
 31
0.0
  0
LINE
  5
2F82
330
1F
100
AcDbEntity
  8
0
 62
     1
100
AcDbLine
 10
-34.76870543441697
 20
65.85050642719633
 30
0.0
 11
-34.14370543441697
 21
65.85050642719633
 31
0.0
  0
LINE
  5
2F83
330
1F
100
AcDbEntity
  8
0
 62
     1
100
AcDbLine
 10
-35.9687054344177
 20
65.60050642719634
 30
0.0
 11
-35.9687054344177
 21
65.35050642719633
 31
0.0
  0
LINE
  5
2F84
330
1F
100
AcDbEntity
  8
0
 62
     1
100
AcDbLine
 10
-36.2187054344177
 20
65.60050642719634
 30
0.0
 11
-35.9687054344177
 21
65.60050642719634
 31
0.0
  0
LINE
  5
2F85
330
1F
100
AcDbEntity
  8
0
 62
     1
100
AcDbLine
 10
-36.00370543441755
 20
65.35050642719633
 30
0.0
 11
-33.79370543441752
 21
65.35050642719633
 31
0.0
  0
LINE
  5
2F86
330
1F
100
AcDbEntity
  8
0
 62
     1
100
AcDbLine
 10
-36.41870543441843
 20
65.35050642719633
 30
0.0
 11
-36.2187054344177
 21
65.35050642719633
 31
0.0
  0
LINE
  5
2F87
330
1F
100
AcDbEntity
  8
0
 62
     1
100
AcDbLine
 10
-45.24370543441733
 20
65.35050642719633
 30
0.0
 11
-42.61870543441733
 21
65.35050642719633
 31
0.0
  0
LINE
  5
2F88
330
1F
100
AcDbEntity
  8
0
 62
     1
100
AcDbLine
 10
-42.61870543441733
 20
65.85050642719633
 30
0.0
 11
-42.61870543441733
 21
65.35050642719633
 31
0.0
  0
LINE
  5
2F89
330
1F
100
AcDbEntity
  8
0
  6
HIDDEN
 62
     1
 48
0.02
100
AcDbLine
 10
-44.89370543441697
 20
65.85050642719633
 30
0.0
 11
-44.26870543441697
 21
65.85050642719633
 31
0.0
  0
LINE
  5
2F8A
330
1F
100
AcDbEntity
  8
0
  6
HIDDEN
 62
     1
 48
0.02
100
AcDbLine
 10
-44.89370543441697
 20
65.85050642719633
 30
0.0
 11
-44.89370543441697
 21
65.35050642719633
 31
0.0
  0
LINE
  5
2F8B
330
1F
100
AcDbEntity
  8
0
  6
HIDDEN
 62
     1
 48
0.02
100
AcDbLine
 10
-43.24370543441733
 20
65.85050642719633
 30
0.0
 11
-43.24370543441824
 21
65.35050642719633
 31
0.0
  0
LINE
  5
2F8C
330
1F
100
AcDbEntity
  8
0
  6
HIDDEN
 62
     1
 48
0.02
100
AcDbLine
 10
-44.26870543441697
 20
65.85050642719633
 30
0.0
 11
-44.26870543441697
 21
65.35050642719633
 31
0.0
  0
LINE
  5
2F8D
330
1F
100
AcDbEntity
  8
0
  6
HIDDEN
 62
     1
 48
0.02
100
AcDbLine
 10
-43.24370543441824
 20
65.85050642719633
 30
0.0
 11
-42.61870543441824
 21
65.85050642719633
 31
0.0
  0
LINE
  5
2F8E
330
1F
100
AcDbEntity
  8
0
 62
     1
100
AcDbLine
 10
-36.41870543441661
 20
65.35050642719633
 30
0.0
 11
-33.79370543441752
 21
65.35050642719633
 31
0.0
  0
LINE
  5
2F8F
330
1F
100
AcDbEntity
  8
0
 62
     1
100
AcDbLine
 10
-36.41870543441661
 20
65.85050642719633
 30
0.0
 11
-36.41870543441661
 21
65.35050642719633
 31
0.0
  0
LINE
  5
2F90
330
1F
100
AcDbEntity
  8
0
  6
HIDDEN
 62
     1
 48
0.02
100
AcDbLine
 10
-34.14370543441516
 20
65.85050642719633
 30
0.0
 11
-34.14370543441516
 21
65.35050642719633
 31
0.0
  0
LINE
  5
2F91
330
1F
100
AcDbEntity
  8
0
  6
HIDDEN
 62
     1
 48
0.02
100
AcDbLine
 10
-35.79370543441661
 20
65.85050642719633
 30
0.0
 11
-35.79370543441661
 21
65.35050642719633
 31
0.0
  0
LINE
  5
2F92
330
1F
100
AcDbEntity
  8
0
  6
HIDDEN
 62
     1
 48
0.02
100
AcDbLine
 10
-34.76870543441516
 20
65.85050642719633
 30
0.0
 11
-34.76870543441516
 21
65.35050642719633
 31
0.0
  0
LINE
  5
2F93
330
1F
100
AcDbEntity
  8
0
  6
HIDDEN
 62
     1
 48
0.02
100
AcDbLine
 10
-36.41870543441661
 20
65.85050642719633
 30
0.0
 11
-35.79370543441661
 21
65.85050642719633
 31
0.0
  0
LINE
  5
2F94
330
1F
100
AcDbEntity
  8
0
  6
HIDDEN
 62
     1
 48
0.02
100
AcDbLine
 10
-34.76870543441516
 20
65.85050642719633
 30
0.0
 11
-34.14370543441516
 21
65.85050642719633
 31
0.0
  0
LINE
  5
2F95
330
1F
100
AcDbEntity
  8
0
  6
HIDDEN
 62
     1
 48
0.02
100
AcDbLine
 10
-36.21870543441588
 20
65.60050642719634
 30
0.0
 11
-36.21870543441588
 21
65.35050642719633
 31
0.0
  0
LINE
  5
2F96
330
1F
100
AcDbEntity
  8
0
  6
HIDDEN
 62
     1
 48
0.02
100
AcDbLine
 10
-35.96870543441588
 20
65.60050642719634
 30
0.0
 11
-35.96870543441588
 21
65.35050642719633
 31
0.0
  0
LINE
  5
2F97
330
1F
100
AcDbEntity
  8
0
  6
HIDDEN
 62
     1
 48
0.02
100
AcDbLine
 10
-36.21870543441588
 20
65.60050642719634
 30
0.0
 11
-35.96870543441588
 21
65.60050642719634
 31
0.0
  0
ARC
  5
2F98
330
1F
100
AcDbEntity
  8
DETAILS
 62
     6
370
    20
100
AcDbCircle
 10
-36.36870543442006
 20
66.25096521657823
 30
0.0
 40
0.0499999999997272
100
AcDbArc
 50
180.0000000004429
 51
210.0000000006405
  0
LINE
  5
2F99
330
1F
100
AcDbEntity
  8
DETAILS
 62
     6
370
    20
100
AcDbLine
 10
-36.41200670460881
 20
66.22596521657815
 30
0.0
 11
-36.35292029036106
 21
66.12362454506328
 31
0.0
  0
LINE
  5
2F9A
330
1F
100
AcDbEntity
  8
DETAILS
 62
     6
370
    20
100
AcDbLine
 10
-36.35292029036106
 20
66.12362454506328
 30
0.0
 11
-36.26631774998265
 21
66.17362454506346
 31
0.0
  0
LINE
  5
2F9B
330
1F
100
AcDbEntity
  8
DETAILS
 62
     6
370
    20
100
AcDbLine
 10
-36.26631774998265
 20
66.17362454506346
 30
0.0
 11
-36.31200670460936
 21
66.25276013582205
 31
0.0
  0
ARC
  5
2F9C
330
1F
100
AcDbEntity
  8
DETAILS
 62
     6
370
    20
100
AcDbCircle
 10
-36.26870543442061
 20
66.2777601358226
 30
0.0
 40
0.0499999999997213
100
AcDbArc
 50
180.0000000003126
 51
210.0000000005465
  0
LINE
  5
2F9D
330
1F
100
AcDbEntity
  8
DETAILS
 62
     6
370
    20
100
AcDbLine
 10
-36.31870543442079
 20
66.2777601358226
 30
0.0
 11
-36.31870543441988
 21
66.31436267620083
 31
0.0
  0
LINE
  5
2F9E
330
1F
100
AcDbEntity
  8
DETAILS
 62
     6
370
    20
100
AcDbLine
 10
-42.7187054344177
 20
66.31436267619992
 30
0.0
 11
-42.7187054344177
 21
66.2777601358226
 31
0.0
  0
ARC
  5
2F9F
330
1F
100
AcDbEntity
  8
DETAILS
 62
     6
370
    20
100
AcDbCircle
 10
-42.76870543441788
 20
66.2777601358226
 30
0.0
 40
0.0499999999997272
100
AcDbArc
 50
329.9999999994534
 51
359.9999999996613
  0
LINE
  5
2FA0
330
1F
100
AcDbEntity
  8
DETAILS
 62
     6
370
    20
100
AcDbLine
 10
-42.72540416422913
 20
66.25276013582205
 30
0.0
 11
-42.77109311885584
 21
66.17362454506255
 31
0.0
  0
LINE
  5
2FA1
330
1F
100
AcDbEntity
  8
DETAILS
 62
     6
370
    20
100
AcDbLine
 10
-42.77109311885584
 20
66.17362454506255
 30
0.0
 11
-42.68449057847743
 21
66.12362454506328
 31
0.0
  0
LINE
  5
2FA2
330
1F
100
AcDbEntity
  8
DETAILS
 62
     6
370
    20
100
AcDbLine
 10
-42.68449057847743
 20
66.12362454506328
 30
0.0
 11
-42.62540416422967
 21
66.22596521657815
 31
0.0
  0
ARC
  5
2FA3
330
1F
100
AcDbEntity
  8
DETAILS
 62
     6
370
    20
100
AcDbCircle
 10
-42.66870543441842
 20
66.25096521657823
 30
0.0
 40
0.0499999999997782
100
AcDbArc
 50
329.9999999993595
 51
359.999999999531
  0
LINE
  5
2FA4
330
1F
100
AcDbEntity
  8
0
 62
     1
100
AcDbLine
 10
-45.24370543441733
 20
77.35049445669901
 30
0.0
 11
-42.61870543441733
 21
77.35049445669901
 31
0.0
  0
LINE
  5
2FA5
330
1F
100
AcDbEntity
  8
0
 62
     1
100
AcDbLine
 10
-45.24370543441733
 20
77.35049445669901
 30
0.0
 11
-43.06870543441715
 21
77.35049445669901
 31
0.0
  0
LINE
  5
2FA6
330
1F
100
AcDbEntity
  8
0
 62
     1
100
AcDbLine
 10
-42.81870543441806
 20
77.35049445669901
 30
0.0
 11
-42.61870543441824
 21
77.35049445669901
 31
0.0
  0
LINE
  5
2FA7
330
1F
100
AcDbEntity
  8
0
 48
0.15
100
AcDbLine
 10
-44.26870543441697
 20
77.35049445669901
 30
0.0
 11
-43.24370543441733
 21
77.35049445669901
 31
0.0
  0
LINE
  5
2FA8
330
1F
100
AcDbEntity
  8
0
 62
     1
100
AcDbLine
 10
-43.19370543441715
 20
77.35049445669901
 30
0.0
 11
-44.31870543441806
 21
77.35049445669901
 31
0.0
  0
LINE
  5
2FA9
330
1F
100
AcDbEntity
  8
0
 62
     1
100
AcDbLine
 10
-45.24370543441733
 20
77.35050642719634
 30
0.0
 11
-43.06870543441715
 21
77.35050642719634
 31
0.0
  0
LINE
  5
2FAA
330
1F
100
AcDbEntity
  8
0
 62
     1
100
AcDbLine
 10
-44.89370543441697
 20
77.85050642719633
 30
0.0
 11
-44.26870543441697
 21
77.85050642719633
 31
0.0
  0
LINE
  5
2FAB
330
1F
100
AcDbEntity
  8
0
 62
     1
100
AcDbLine
 10
-43.24370543441733
 20
77.85050642719633
 30
0.0
 11
-43.24370543441824
 21
77.35050642719634
 31
0.0
  0
LINE
  5
2FAC
330
1F
100
AcDbEntity
  8
0
 62
     1
100
AcDbLine
 10
-44.26870543441697
 20
77.85050642719633
 30
0.0
 11
-44.26870543441697
 21
77.35050642719634
 31
0.0
  0
LINE
  5
2FAD
330
1F
100
AcDbEntity
  8
0
 62
     1
100
AcDbLine
 10
-43.24370543441824
 20
77.85050642719633
 30
0.0
 11
-42.61870543441824
 21
77.85050642719633
 31
0.0
  0
LINE
  5
2FAE
330
1F
100
AcDbEntity
  8
0
 62
     1
100
AcDbLine
 10
-43.06870543441806
 20
77.60050642719633
 30
0.0
 11
-43.06870543441806
 21
77.35050642719634
 31
0.0
  0
LINE
  5
2FAF
330
1F
100
AcDbEntity
  8
0
 62
     1
100
AcDbLine
 10
-43.06870543441806
 20
77.60050642719633
 30
0.0
 11
-42.81870543441806
 21
77.60050642719633
 31
0.0
  0
LINE
  5
2FB0
330
1F
100
AcDbEntity
  8
0
 62
     1
100
AcDbLine
 10
-42.81870543441806
 20
77.35050642719634
 30
0.0
 11
-42.61870543441824
 21
77.35050642719634
 31
0.0
  0
LINE
  5
2FB1
330
1F
100
AcDbEntity
  8
0
 48
0.15
100
AcDbLine
 10
-44.26870543441697
 20
77.35050642719634
 30
0.0
 11
-43.24370543441733
 21
77.35050642719634
 31
0.0
  0
LINE
  5
2FB2
330
1F
100
AcDbEntity
  8
0
 62
     1
100
AcDbLine
 10
-43.19370543441715
 20
77.35050642719634
 30
0.0
 11
-44.31870543441806
 21
77.35050642719634
 31
0.0
  0
LINE
  5
2FB3
330
1F
100
AcDbEntity
  8
0
 62
     1
100
AcDbLine
 10
-34.14370543441697
 20
77.85050642719633
 30
0.0
 11
-34.14370543441697
 21
77.35050642719634
 31
0.0
  0
LINE
  5
2FB4
330
1F
100
AcDbEntity
  8
0
 62
     1
100
AcDbLine
 10
-35.79370543441843
 20
77.85050642719633
 30
0.0
 11
-35.79370543441843
 21
77.35050642719634
 31
0.0
  0
LINE
  5
2FB5
330
1F
100
AcDbEntity
  8
0
 62
     1
100
AcDbLine
 10
-34.76870543441697
 20
77.85050642719633
 30
0.0
 11
-34.76870543441697
 21
77.35050642719634
 31
0.0
  0
LINE
  5
2FB6
330
1F
100
AcDbEntity
  8
0
 62
     1
100
AcDbLine
 10
-36.41870543441843
 20
77.85050642719633
 30
0.0
 11
-35.79370543441843
 21
77.85050642719633
 31
0.0
  0
LINE
  5
2FB7
330
1F
100
AcDbEntity
  8
0
 62
     1
100
AcDbLine
 10
-34.76870543441697
 20
77.85050642719633
 30
0.0
 11
-34.14370543441697
 21
77.85050642719633
 31
0.0
  0
LINE
  5
2FB8
330
1F
100
AcDbEntity
  8
0
 62
     1
100
AcDbLine
 10
-35.9687054344177
 20
77.60050642719633
 30
0.0
 11
-35.9687054344177
 21
77.35050642719634
 31
0.0
  0
LINE
  5
2FB9
330
1F
100
AcDbEntity
  8
0
 62
     1
100
AcDbLine
 10
-36.2187054344177
 20
77.60050642719633
 30
0.0
 11
-35.9687054344177
 21
77.60050642719633
 31
0.0
  0
LINE
  5
2FBA
330
1F
100
AcDbEntity
  8
0
 62
     1
100
AcDbLine
 10
-36.00370543441755
 20
77.35050642719634
 30
0.0
 11
-33.79370543441752
 21
77.35050642719634
 31
0.0
  0
LINE
  5
2FBB
330
1F
100
AcDbEntity
  8
0
 62
     1
100
AcDbLine
 10
-36.41870543441843
 20
77.35050642719634
 30
0.0
 11
-36.2187054344177
 21
77.35050642719634
 31
0.0
  0
LINE
  5
2FBC
330
1F
100
AcDbEntity
  8
0
 62
     1
100
AcDbLine
 10
-45.24370543441733
 20
77.35050642719634
 30
0.0
 11
-42.61870543441733
 21
77.35050642719634
 31
0.0
  0
LINE
  5
2FBD
330
1F
100
AcDbEntity
  8
0
 62
     1
100
AcDbLine
 10
-42.61870543441733
 20
77.85050642719633
 30
0.0
 11
-42.61870543441733
 21
77.35050642719634
 31
0.0
  0
LINE
  5
2FBE
330
1F
100
AcDbEntity
  8
0
  6
HIDDEN
 62
     1
 48
0.02
100
AcDbLine
 10
-44.89370543441697
 20
77.85050642719633
 30
0.0
 11
-44.26870543441697
 21
77.85050642719633
 31
0.0
  0
LINE
  5
2FBF
330
1F
100
AcDbEntity
  8
0
  6
HIDDEN
 62
     1
 48
0.02
100
AcDbLine
 10
-44.89370543441697
 20
77.85050642719633
 30
0.0
 11
-44.89370543441697
 21
77.35050642719634
 31
0.0
  0
LINE
  5
2FC0
330
1F
100
AcDbEntity
  8
0
  6
HIDDEN
 62
     1
 48
0.02
100
AcDbLine
 10
-43.24370543441733
 20
77.85050642719633
 30
0.0
 11
-43.24370543441824
 21
77.35050642719634
 31
0.0
  0
LINE
  5
2FC1
330
1F
100
AcDbEntity
  8
0
  6
HIDDEN
 62
     1
 48
0.02
100
AcDbLine
 10
-44.26870543441697
 20
77.85050642719633
 30
0.0
 11
-44.26870543441697
 21
77.35050642719634
 31
0.0
  0
LINE
  5
2FC2
330
1F
100
AcDbEntity
  8
0
  6
HIDDEN
 62
     1
 48
0.02
100
AcDbLine
 10
-43.24370543441824
 20
77.85050642719633
 30
0.0
 11
-42.61870543441824
 21
77.85050642719633
 31
0.0
  0
LINE
  5
2FC3
330
1F
100
AcDbEntity
  8
0
 62
     1
100
AcDbLine
 10
-36.41870543441661
 20
77.35050642719634
 30
0.0
 11
-33.79370543441752
 21
77.35050642719634
 31
0.0
  0
LINE
  5
2FC4
330
1F
100
AcDbEntity
  8
0
 62
     1
100
AcDbLine
 10
-36.41870543441661
 20
77.85050642719633
 30
0.0
 11
-36.41870543441661
 21
77.35050642719634
 31
0.0
  0
LINE
  5
2FC5
330
1F
100
AcDbEntity
  8
0
  6
HIDDEN
 62
     1
 48
0.02
100
AcDbLine
 10
-34.14370543441516
 20
77.85050642719633
 30
0.0
 11
-34.14370543441516
 21
77.35050642719634
 31
0.0
  0
LINE
  5
2FC6
330
1F
100
AcDbEntity
  8
0
  6
HIDDEN
 62
     1
 48
0.02
100
AcDbLine
 10
-35.79370543441661
 20
77.85050642719633
 30
0.0
 11
-35.79370543441661
 21
77.35050642719634
 31
0.0
  0
LINE
  5
2FC7
330
1F
100
AcDbEntity
  8
0
  6
HIDDEN
 62
     1
 48
0.02
100
AcDbLine
 10
-34.76870543441516
 20
77.85050642719633
 30
0.0
 11
-34.76870543441516
 21
77.35050642719634
 31
0.0
  0
LINE
  5
2FC8
330
1F
100
AcDbEntity
  8
0
  6
HIDDEN
 62
     1
 48
0.02
100
AcDbLine
 10
-36.41870543441661
 20
77.85050642719633
 30
0.0
 11
-35.79370543441661
 21
77.85050642719633
 31
0.0
  0
LINE
  5
2FC9
330
1F
100
AcDbEntity
  8
0
  6
HIDDEN
 62
     1
 48
0.02
100
AcDbLine
 10
-34.76870543441516
 20
77.85050642719633
 30
0.0
 11
-34.14370543441516
 21
77.85050642719633
 31
0.0
  0
LINE
  5
2FCA
330
1F
100
AcDbEntity
  8
0
  6
HIDDEN
 62
     1
 48
0.02
100
AcDbLine
 10
-36.21870543441588
 20
77.60050642719633
 30
0.0
 11
-36.21870543441588
 21
77.35050642719634
 31
0.0
  0
LINE
  5
2FCB
330
1F
100
AcDbEntity
  8
0
  6
HIDDEN
 62
     1
 48
0.02
100
AcDbLine
 10
-35.96870543441588
 20
77.60050642719633
 30
0.0
 11
-35.96870543441588
 21
77.35050642719634
 31
0.0
  0
LINE
  5
2FCC
330
1F
100
AcDbEntity
  8
0
  6
HIDDEN
 62
     1
 48
0.02
100
AcDbLine
 10
-36.21870543441588
 20
77.60050642719633
 30
0.0
 11
-35.96870543441588
 21
77.60050642719633
 31
0.0
  0
LINE
  5
2FCD
330
1F
100
AcDbEntity
  8
0
 48
0.15
100
AcDbLine
 10
-33.29370543441752
 20
63.35048248620077
 30
0.0
 11
-33.29370543442207
 21
91.19748824683265
 31
0.0
  0
LINE
  5
2FCE
330
1F
100
AcDbEntity
  8
0
 62
     1
100
AcDbLine
 10
-44.89370543441697
 20
77.85048248620123
 30
0.0
 11
-44.26870543441697
 21
77.85048248620123
 31
0.0
  0
LINE
  5
2FCF
330
1F
100
AcDbEntity
  8
0
 62
     1
100
AcDbLine
 10
-43.24370543441733
 20
77.85048248620123
 30
0.0
 11
-43.24370543441824
 21
77.35048248620123
 31
0.0
  0
LINE
  5
2FD0
330
1F
100
AcDbEntity
  8
0
 62
     1
100
AcDbLine
 10
-44.26870543441697
 20
77.85048248620123
 30
0.0
 11
-44.26870543441697
 21
77.35048248620123
 31
0.0
  0
LINE
  5
2FD1
330
1F
100
AcDbEntity
  8
0
 62
     1
100
AcDbLine
 10
-43.24370543441824
 20
77.85048248620123
 30
0.0
 11
-42.61870543441824
 21
77.85048248620123
 31
0.0
  0
LINE
  5
2FD2
330
1F
100
AcDbEntity
  8
0
 62
     1
100
AcDbLine
 10
-43.06870543441806
 20
77.60048248620122
 30
0.0
 11
-43.06870543441806
 21
77.35048248620123
 31
0.0
  0
LINE
  5
2FD3
330
1F
100
AcDbEntity
  8
0
 62
     1
100
AcDbLine
 10
-43.06870543441806
 20
77.60048248620122
 30
0.0
 11
-42.81870543441806
 21
77.60048248620122
 31
0.0
  0
LINE
  5
2FD4
330
1F
100
AcDbEntity
  8
0
 62
     1
100
AcDbLine
 10
-34.14370543441697
 20
77.85048248620123
 30
0.0
 11
-34.14370543441697
 21
77.35048248620123
 31
0.0
  0
LINE
  5
2FD5
330
1F
100
AcDbEntity
  8
0
 62
     1
100
AcDbLine
 10
-35.79370543441843
 20
77.85048248620123
 30
0.0
 11
-35.79370543441843
 21
77.35048248620123
 31
0.0
  0
LINE
  5
2FD6
330
1F
100
AcDbEntity
  8
0
 62
     1
100
AcDbLine
 10
-34.76870543441697
 20
77.85048248620123
 30
0.0
 11
-34.76870543441697
 21
77.35048248620123
 31
0.0
  0
LINE
  5
2FD7
330
1F
100
AcDbEntity
  8
0
 62
     1
100
AcDbLine
 10
-36.41870543441843
 20
77.85048248620123
 30
0.0
 11
-35.79370543441843
 21
77.85048248620123
 31
0.0
  0
LINE
  5
2FD8
330
1F
100
AcDbEntity
  8
0
 62
     1
100
AcDbLine
 10
-34.76870543441697
 20
77.85048248620123
 30
0.0
 11
-34.14370543441697
 21
77.85048248620123
 31
0.0
  0
LINE
  5
2FD9
330
1F
100
AcDbEntity
  8
0
 62
     1
100
AcDbLine
 10
-42.61870543441733
 20
77.85048248620123
 30
0.0
 11
-42.61870543441733
 21
77.35048248620123
 31
0.0
  0
LINE
  5
2FDA
330
1F
100
AcDbEntity
  8
0
  6
HIDDEN
 62
     1
 48
0.02
100
AcDbLine
 10
-44.89370543441697
 20
77.85048248620123
 30
0.0
 11
-44.26870543441697
 21
77.85048248620123
 31
0.0
  0
LINE
  5
2FDB
330
1F
100
AcDbEntity
  8
0
  6
HIDDEN
 62
     1
 48
0.02
100
AcDbLine
 10
-44.89370543441697
 20
77.85048248620123
 30
0.0
 11
-44.89370543441697
 21
77.35048248620123
 31
0.0
  0
LINE
  5
2FDC
330
1F
100
AcDbEntity
  8
0
  6
HIDDEN
 62
     1
 48
0.02
100
AcDbLine
 10
-43.24370543441733
 20
77.85048248620123
 30
0.0
 11
-43.24370543441824
 21
77.35048248620123
 31
0.0
  0
LINE
  5
2FDD
330
1F
100
AcDbEntity
  8
0
  6
HIDDEN
 62
     1
 48
0.02
100
AcDbLine
 10
-44.26870543441697
 20
77.85048248620123
 30
0.0
 11
-44.26870543441697
 21
77.35048248620123
 31
0.0
  0
LINE
  5
2FDE
330
1F
100
AcDbEntity
  8
0
  6
HIDDEN
 62
     1
 48
0.02
100
AcDbLine
 10
-43.24370543441824
 20
77.85048248620123
 30
0.0
 11
-42.61870543441824
 21
77.85048248620123
 31
0.0
  0
LINE
  5
2FDF
330
1F
100
AcDbEntity
  8
0
 62
     1
100
AcDbLine
 10
-36.41870543441661
 20
77.85048248620123
 30
0.0
 11
-36.41870543441661
 21
77.35048248620123
 31
0.0
  0
LINE
  5
2FE0
330
1F
100
AcDbEntity
  8
0
  6
HIDDEN
 62
     1
 48
0.02
100
AcDbLine
 10
-34.14370543441516
 20
77.85048248620123
 30
0.0
 11
-34.14370543441516
 21
77.35048248620123
 31
0.0
  0
LINE
  5
2FE1
330
1F
100
AcDbEntity
  8
0
  6
HIDDEN
 62
     1
 48
0.02
100
AcDbLine
 10
-35.79370543441661
 20
77.85048248620123
 30
0.0
 11
-35.79370543441661
 21
77.35048248620123
 31
0.0
  0
LINE
  5
2FE2
330
1F
100
AcDbEntity
  8
0
  6
HIDDEN
 62
     1
 48
0.02
100
AcDbLine
 10
-34.76870543441516
 20
77.85048248620123
 30
0.0
 11
-34.76870543441516
 21
77.35048248620123
 31
0.0
  0
LINE
  5
2FE3
330
1F
100
AcDbEntity
  8
0
  6
HIDDEN
 62
     1
 48
0.02
100
AcDbLine
 10
-36.41870543441661
 20
77.85048248620123
 30
0.0
 11
-35.79370543441661
 21
77.85048248620123
 31
0.0
  0
LINE
  5
2FE4
330
1F
100
AcDbEntity
  8
0
  6
HIDDEN
 62
     1
 48
0.02
100
AcDbLine
 10
-34.76870543441516
 20
77.85048248620123
 30
0.0
 11
-34.14370543441516
 21
77.85048248620123
 31
0.0
  0
LINE
  5
2FE5
330
1F
100
AcDbEntity
  8
0
 62
     1
100
AcDbLine
 10
-45.24370543441733
 20
87.26990104237993
 30
0.0
 11
-45.24370543441733
 21
77.35048248620123
 31
0.0
  0
LINE
  5
2FE6
330
1F
100
AcDbEntity
  8
0
 62
     1
100
AcDbLine
 10
-42.61870543441733
 20
88.09137176388238
 30
0.0
 11
-42.61870543441733
 21
77.35048248620123
 31
0.0
  0
LINE
  5
2FE7
330
1F
100
AcDbEntity
  8
0
 62
     1
100
AcDbLine
 10
-44.89370543441788
 20
87.37943047191365
 30
0.0
 11
-44.89370543441697
 21
77.35048248620123
 31
0.0
  0
LINE
  5
2FE8
330
1F
100
AcDbEntity
  8
0
 62
     1
100
AcDbLine
 10
-42.81870543441806
 20
88.02878351843409
 30
0.0
 11
-42.81870543441806
 21
77.35048248620123
 31
0.0
  0
LINE
  5
2FE9
330
1F
100
AcDbEntity
  8
A2 Hatch
  6
DASHED2
 48
0.15
100
AcDbLine
 10
-44.47870543441792
 20
87.50930108121755
 30
0.0
 11
-44.47870543441792
 21
77.35048248620123
 31
0.0
  0
LINE
  5
2FEA
330
1F
100
AcDbEntity
  8
A2 Hatch
  6
DASHED2
 48
0.15
100
AcDbLine
 10
-43.03370543441912
 20
87.96150115457848
 30
0.0
 11
-43.03370543441729
 21
77.35048248620123
 31
0.0
  0
LINE
  5
2FEB
330
1F
100
AcDbEntity
  8
0
 62
     1
100
AcDbLine
 10
-44.31870543441625
 20
87.5593716775762
 30
0.0
 11
-44.31870543441715
 21
77.35048248620123
 31
0.0
  0
LINE
  5
2FEC
330
1F
100
AcDbEntity
  8
0
 62
     1
100
AcDbLine
 10
-43.19370543441715
 20
87.91143055821985
 30
0.0
 11
-43.19370543441715
 21
77.35048248620123
 31
0.0
  0
ARC
  5
2FED
330
1F
100
AcDbEntity
  8
DETAILS
 62
     6
370
    20
100
AcDbCircle
 10
-42.61870543441642
 20
81.51376070805335
 30
0.0
 40
0.0999999999999136
100
AcDbArc
 50
179.9999999996873
 51
209.7448812965932
  0
LINE
  5
2FEE
330
1F
100
AcDbEntity
  8
DETAILS
 62
     6
370
    20
100
AcDbLine
 10
-42.7187054344177
 20
83.60048248620122
 30
0.0
 11
-36.31870543441897
 21
83.60048248620122
 31
0.0
  0
LINE
  5
2FEF
330
1F
100
AcDbEntity
  8
0
 62
     1
100
AcDbLine
 10
-33.79370543441661
 20
91.02929149132123
 30
0.0
 11
-33.79370543441752
 21
77.35048248620123
 31
0.0
  0
LINE
  5
2FF0
330
1F
100
AcDbEntity
  8
0
 62
     1
100
AcDbLine
 10
-36.41870543441843
 20
90.13904209557868
 30
0.0
 11
-36.41870543441752
 21
77.35048248620123
 31
0.0
  0
LINE
  5
2FF1
330
1F
100
AcDbEntity
  8
0
 62
     1
100
AcDbLine
 10
-34.14370543441697
 20
89.85048248620122
 30
0.0
 11
-34.14370543441697
 21
89.35048248620123
 31
0.0
  0
LINE
  5
2FF2
330
1F
100
AcDbEntity
  8
0
 62
     1
100
AcDbLine
 10
-35.79370543441843
 20
89.85048248620122
 30
0.0
 11
-35.79370543441843
 21
89.35048248620123
 31
0.0
  0
LINE
  5
2FF3
330
1F
100
AcDbEntity
  8
0
 62
     1
100
AcDbLine
 10
-34.76870543441697
 20
89.85048248620122
 30
0.0
 11
-34.76870543441697
 21
89.35048248620123
 31
0.0
  0
LINE
  5
2FF4
330
1F
100
AcDbEntity
  8
0
 62
     1
100
AcDbLine
 10
-36.41870543441843
 20
89.85048248620122
 30
0.0
 11
-35.79370543441843
 21
89.85048248620122
 31
0.0
  0
LINE
  5
2FF5
330
1F
100
AcDbEntity
  8
0
 62
     1
100
AcDbLine
 10
-34.76870543441697
 20
89.85048248620122
 30
0.0
 11
-34.14370543441697
 21
89.85048248620122
 31
0.0
  0
LINE
  5
2FF6
330
1F
100
AcDbEntity
  8
0
 62
     1
100
AcDbLine
 10
-36.2187054344177
 20
90.20687062096895
 30
0.0
 11
-36.2187054344177
 21
77.35048248620123
 31
0.0
  0
LINE
  5
2FF7
330
1F
100
AcDbEntity
  8
0
 62
     1
100
AcDbLine
 10
-35.9687054344177
 20
89.60048248620124
 30
0.0
 11
-35.9687054344177
 21
89.35048248620123
 31
0.0
  0
LINE
  5
2FF8
330
1F
100
AcDbEntity
  8
0
 62
     1
100
AcDbLine
 10
-36.2187054344177
 20
89.60048248620124
 30
0.0
 11
-35.9687054344177
 21
89.60048248620124
 31
0.0
  0
LINE
  5
2FF9
330
1F
100
AcDbEntity
  8
0
 62
     1
100
AcDbLine
 10
-36.00370543441755
 20
89.35048248620123
 30
0.0
 11
-33.79370543441752
 21
89.35048248620123
 31
0.0
  0
LINE
  5
2FFA
330
1F
100
AcDbEntity
  8
0
 62
     1
100
AcDbLine
 10
-36.00370543441755
 20
90.27978628576338
 30
0.0
 11
-36.00370543441755
 21
77.35048248620123
 31
0.0
  0
LINE
  5
2FFB
330
1F
100
AcDbEntity
  8
0
 62
     1
100
AcDbLine
 10
-34.55870543441785
 20
90.76984738170503
 30
0.0
 11
-34.55870543441785
 21
77.35048248620123
 31
0.0
  0
LINE
  5
2FFC
330
1F
100
AcDbEntity
  8
A2 Hatch
  6
DASHED2
 48
0.15
100
AcDbLine
 10
-35.84370543441679
 20
90.33404910607542
 30
0.0
 11
-35.8437054344177
 21
77.35048248620123
 31
0.0
  0
LINE
  5
2FFD
330
1F
100
AcDbEntity
  8
A2 Hatch
  6
DASHED2
 48
0.15
100
AcDbLine
 10
-34.7187054344177
 20
90.715584561393
 30
0.0
 11
-34.7187054344177
 21
77.35048248620123
 31
0.0
  0
LINE
  5
2FFE
330
1F
100
AcDbEntity
  8
0
 62
     1
100
AcDbLine
 10
-36.41870543441843
 20
89.35048248620123
 30
0.0
 11
-36.2187054344177
 21
89.35048248620123
 31
0.0
  0
LINE
  5
2FFF
330
1F
100
AcDbEntity
  8
DETAILS
 62
     6
370
    20
100
AcDbLine
 10
-42.71870543441679
 20
88.06007764115847
 30
0.0
 11
-42.7187054344177
 21
78.27773619482704
 31
0.0
  0
LINE
  5
3000
330
1F
100
AcDbEntity
  8
DETAILS
 62
     6
370
    20
100
AcDbLine
 10
-42.04370543441661
 20
84.22048248620113
 30
0.0
 11
-41.52432331050937
 21
84.22048248620113
 31
0.0
  0
ARC
  5
3001
330
1F
100
AcDbEntity
  8
DETAILS
 62
     6
370
    20
100
AcDbCircle
 10
-41.52432331051028
 20
84.3704824862012
 30
0.0
 40
0.1500000000000909
100
AcDbArc
 50
270.0000000001563
 51
43.83086067193221
  0
LINE
  5
3002
330
1F
100
AcDbEntity
  8
DETAILS
 62
     6
370
    20
100
AcDbLine
 10
-41.41611521235432
 20
84.47436226042928
 30
0.0
 11
-41.93549733626065
 21
85.01538530616571
 31
0.0
  0
ARC
  5
3003
330
1F
100
AcDbEntity
  8
DETAILS
 62
     6
370
    20
100
AcDbCircle
 10
-42.04370543441569
 20
84.91150553193719
 30
0.0
 40
0.1499999999999651
100
AcDbArc
 50
43.83086067209876
 51
179.9999999999739
  0
LINE
  5
3004
330
1F
100
AcDbEntity
  8
DETAILS
 62
     6
370
    20
100
AcDbLine
 10
-42.19370543441624
 20
84.91150553193719
 30
0.0
 11
-42.19370543441624
 21
84.37048248620076
 31
0.0
  0
ARC
  5
3005
330
1F
100
AcDbEntity
  8
DETAILS
 62
     6
370
    20
100
AcDbCircle
 10
-42.04370543441661
 20
84.37048248620076
 30
0.0
 40
0.1499999999996362
100
AcDbArc
 50
179.9999999999479
 51
270.0000000001563
  0
LINE
  5
3006
330
1F
100
AcDbEntity
  8
DETAILS
 62
     6
370
    20
100
AcDbLine
 10
-42.19370543441624
 20
82.85048248620123
 30
0.0
 11
-42.19370543441624
 21
82.3094594404648
 31
0.0
  0
ARC
  5
3007
330
1F
100
AcDbEntity
  8
DETAILS
 62
     6
370
    20
100
AcDbCircle
 10
-42.04370543441569
 20
82.3094594404648
 30
0.0
 40
0.1500000000000909
100
AcDbArc
 50
180.000000000026
 51
316.1691393279012
  0
LINE
  5
3008
330
1F
100
AcDbEntity
  8
DETAILS
 62
     6
370
    20
100
AcDbLine
 10
-41.93549733626065
 20
82.20557966623672
 30
0.0
 11
-41.41611521235432
 21
82.74660271197271
 31
0.0
  0
ARC
  5
3009
330
1F
100
AcDbEntity
  8
DETAILS
 62
     6
370
    20
100
AcDbCircle
 10
-41.52432331051028
 20
82.85048248620123
 30
0.0
 40
0.1500000000001751
100
AcDbArc
 50
316.1691393280678
 51
89.99999999984366
  0
LINE
  5
300A
330
1F
100
AcDbEntity
  8
DETAILS
 62
     6
370
    20
100
AcDbLine
 10
-41.52432331050937
 20
83.00048248620086
 30
0.0
 11
-42.04370543441661
 21
83.00048248620086
 31
0.0
  0
ARC
  5
300B
330
1F
100
AcDbEntity
  8
DETAILS
 62
     6
370
    20
100
AcDbCircle
 10
-42.04370543441661
 20
82.85048248620123
 30
0.0
 40
0.1499999999998636
100
AcDbArc
 50
89.99999999984366
 51
180.0000000000521
  0
LINE
  5
300C
330
1F
100
AcDbEntity
  8
DETAILS
 62
     6
370
    20
100
AcDbLine
 10
-42.04370543441661
 20
84.27048248620129
 30
0.0
 11
-41.52432331050937
 21
84.27048248620129
 31
0.0
  0
ARC
  5
300D
330
1F
100
AcDbEntity
  8
DETAILS
 62
     6
370
    20
100
AcDbCircle
 10
-41.52432331050937
 20
84.37048248620076
 30
0.0
 40
0.1000000000000227
100
AcDbArc
 50
270.0
 51
43.83086067200606
  0
LINE
  5
300E
330
1F
100
AcDbEntity
  8
DETAILS
 62
     6
370
    20
100
AcDbLine
 10
-41.4521845784057
 20
84.43973566901977
 30
0.0
 11
-41.97156670231203
 21
84.9807587147562
 31
0.0
  0
ARC
  5
300F
330
1F
100
AcDbEntity
  8
DETAILS
 62
     6
370
    20
100
AcDbCircle
 10
-42.04370543441569
 20
84.91150553193719
 30
0.0
 40
0.1000000000001123
100
AcDbArc
 50
43.83086067206119
 51
180.0
  0
LINE
  5
3010
330
1F
100
AcDbEntity
  8
DETAILS
 62
     6
370
    20
100
AcDbLine
 10
-42.14370543441515
 20
84.91150553193719
 30
0.0
 11
-42.14370543441606
 21
84.37048248620076
 31
0.0
  0
ARC
  5
3011
330
1F
100
AcDbEntity
  8
DETAILS
 62
     6
370
    20
100
AcDbCircle
 10
-42.04370543441569
 20
84.3704824862012
 30
0.0
 40
0.1000000000003638
100
AcDbArc
 50
180.0000000001302
 51
269.9999999997394
  0
LINE
  5
3012
330
1F
100
AcDbEntity
  8
DETAILS
 62
     6
370
    20
100
AcDbLine
 10
-42.14370543441606
 20
82.85048248620123
 30
0.0
 11
-42.14370543441515
 21
82.3094594404648
 31
0.0
  0
ARC
  5
3013
330
1F
100
AcDbEntity
  8
DETAILS
 62
     6
370
    20
100
AcDbCircle
 10
-42.04370543441569
 20
82.3094594404648
 30
0.0
 40
0.0999999999999091
100
AcDbArc
 50
179.9999999999739
 51
316.1691393279939
  0
LINE
  5
3014
330
1F
100
AcDbEntity
  8
DETAILS
 62
     6
370
    20
100
AcDbLine
 10
-41.97156670231203
 20
82.24020625764623
 30
0.0
 11
-41.4521845784057
 21
82.78122930338222
 31
0.0
  0
ARC
  5
3015
330
1F
100
AcDbEntity
  8
DETAILS
 62
     6
370
    20
100
AcDbCircle
 10
-41.52432331050937
 20
82.85048248620123
 30
0.0
 40
0.1000000000000336
100
AcDbArc
 50
316.1691393279939
 51
90.0
  0
LINE
  5
3016
330
1F
100
AcDbEntity
  8
DETAILS
 62
     6
370
    20
100
AcDbLine
 10
-41.52432331050937
 20
82.95048248620114
 30
0.0
 11
-42.04370543441661
 21
82.95048248620114
 31
0.0
  0
ARC
  5
3017
330
1F
100
AcDbEntity
  8
DETAILS
 62
     6
370
    20
100
AcDbCircle
 10
-42.04370543441569
 20
82.85048248620077
 30
0.0
 40
0.1000000000001364
100
AcDbArc
 50
90.00000000026055
 51
179.9999999998697
  0
LINE
  5
3018
330
1F
100
AcDbEntity
  8
DETAILS
 62
     6
370
    20
100
AcDbLine
 10
-36.31870543441897
 20
88.97548248620124
 30
0.0
 11
-36.31870543441806
 21
78.27773619482704
 31
0.0
  0
LINE
  5
3019
330
1F
100
AcDbEntity
  8
DETAILS
 62
     6
370
    20
100
AcDbLine
 10
-36.84370543441952
 20
84.37048248620076
 30
0.0
 11
-36.84370543441952
 21
84.91150553193719
 31
0.0
  0
ARC
  5
301A
330
1F
100
AcDbEntity
  8
DETAILS
 62
     6
370
    20
100
AcDbCircle
 10
-36.99370543442006
 20
84.91150553193719
 30
0.0
 40
0.1500000000000909
100
AcDbArc
 50
0.0000000000260551
 51
136.1691393279012
  0
LINE
  5
301B
330
1F
100
AcDbEntity
  8
DETAILS
 62
     6
370
    20
100
AcDbLine
 10
-37.10191353257511
 20
85.01538530616571
 30
0.0
 11
-37.62129565648144
 21
84.47436226042928
 31
0.0
  0
ARC
  5
301C
330
1F
100
AcDbEntity
  8
DETAILS
 62
     6
370
    20
100
AcDbCircle
 10
-37.51308755832548
 20
84.3704824862012
 30
0.0
 40
0.1500000000001751
100
AcDbArc
 50
136.1691393280678
 51
269.9999999998437
  0
LINE
  5
301D
330
1F
100
AcDbEntity
  8
DETAILS
 62
     6
370
    20
100
AcDbLine
 10
-37.51308755832639
 20
84.22048248620113
 30
0.0
 11
-36.99370543441915
 21
84.22048248620113
 31
0.0
  0
ARC
  5
301E
330
1F
100
AcDbEntity
  8
DETAILS
 62
     6
370
    20
100
AcDbCircle
 10
-36.99370543441915
 20
84.37048248620076
 30
0.0
 40
0.1499999999998067
100
AcDbArc
 50
269.9999999998437
 51
0.0000000000781653
  0
LINE
  5
301F
330
1F
100
AcDbEntity
  8
DETAILS
 62
     6
370
    20
100
AcDbLine
 10
-36.99370543441915
 20
83.00048248620086
 30
0.0
 11
-37.51308755832639
 21
83.00048248620086
 31
0.0
  0
ARC
  5
3020
330
1F
100
AcDbEntity
  8
DETAILS
 62
     6
370
    20
100
AcDbCircle
 10
-37.51308755832548
 20
82.85048248620123
 30
0.0
 40
0.1500000000001478
100
AcDbArc
 50
90.00000000015633
 51
223.8308606719322
  0
LINE
  5
3021
330
1F
100
AcDbEntity
  8
DETAILS
 62
     6
370
    20
100
AcDbLine
 10
-37.62129565648144
 20
82.74660271197271
 30
0.0
 11
-37.10191353257511
 21
82.20557966623672
 31
0.0
  0
ARC
  5
3022
330
1F
100
AcDbEntity
  8
DETAILS
 62
     6
370
    20
100
AcDbCircle
 10
-36.99370543442006
 20
82.3094594404648
 30
0.0
 40
0.1499999999999651
100
AcDbArc
 50
223.8308606720988
 51
359.999999999974
  0
LINE
  5
3023
330
1F
100
AcDbEntity
  8
DETAILS
 62
     6
370
    20
100
AcDbLine
 10
-36.84370543441952
 20
82.3094594404648
 30
0.0
 11
-36.84370543441952
 21
82.85048248620123
 31
0.0
  0
ARC
  5
3024
330
1F
100
AcDbEntity
  8
DETAILS
 62
     6
370
    20
100
AcDbCircle
 10
-36.99370543441915
 20
82.85048248620123
 30
0.0
 40
0.1499999999996362
100
AcDbArc
 50
359.9999999999218
 51
90.00000000015633
  0
ARC
  5
3025
330
1F
100
AcDbEntity
  8
DETAILS
 62
     6
370
    20
100
AcDbCircle
 10
-41.04379633668219
 20
82.09548248620112
 30
0.0
 40
0.010000000000022
100
AcDbArc
 50
97.40989078445407
 51
262.5901092155459
  0
LINE
  5
3026
330
1F
100
AcDbEntity
  8
DETAILS
 62
     6
370
    20
100
AcDbLine
 10
-41.0450860045185
 20
82.08556599706033
 30
0.0
 11
-40.88897591491519
 21
82.07048248620102
 31
0.0
  0
LINE
  5
3027
330
1F
100
AcDbEntity
  8
DETAILS
 62
     6
370
    20
100
AcDbLine
 10
-40.88897591491519
 20
82.07048248620102
 30
0.0
 11
-39.51870543441788
 21
82.07048248620102
 31
0.0
  0
LINE
  5
3028
330
1F
100
AcDbEntity
  8
DETAILS
 62
     6
370
    20
100
AcDbLine
 10
-39.51870543441788
 20
82.07048248620102
 30
0.0
 11
-38.14843495392057
 21
82.07048248620102
 31
0.0
  0
LINE
  5
3029
330
1F
100
AcDbEntity
  8
DETAILS
 62
     6
370
    20
100
AcDbLine
 10
-38.14843495392057
 20
82.07048248620102
 30
0.0
 11
-37.99232486431725
 21
82.08556599706033
 31
0.0
  0
ARC
  5
302A
330
1F
100
AcDbEntity
  8
DETAILS
 62
     6
370
    20
100
AcDbCircle
 10
-37.99361453215357
 20
82.09548248620112
 30
0.0
 40
0.0099999999999656
100
AcDbArc
 50
277.409890784454
 51
82.59010921554594
  0
LINE
  5
302B
330
1F
100
AcDbEntity
  8
DETAILS
 62
     6
370
    20
100
AcDbLine
 10
-37.99232486431725
 20
82.10539897534145
 30
0.0
 11
-38.14843495391966
 21
82.12048248620121
 31
0.0
  0
LINE
  5
302C
330
1F
100
AcDbEntity
  8
DETAILS
 62
     6
370
    20
100
AcDbLine
 10
-38.14843495391966
 20
82.12048248620121
 30
0.0
 11
-39.51870543441788
 21
82.12048248620121
 31
0.0
  0
LINE
  5
302D
330
1F
100
AcDbEntity
  8
DETAILS
 62
     6
370
    20
100
AcDbLine
 10
-39.51870543441788
 20
82.12048248620121
 30
0.0
 11
-40.88897591491519
 21
82.12048248620076
 31
0.0
  0
LINE
  5
302E
330
1F
100
AcDbEntity
  8
DETAILS
 62
     6
370
    20
100
AcDbLine
 10
-40.88897591491519
 20
82.12048248620076
 30
0.0
 11
-41.0450860045185
 21
82.10539897534145
 31
0.0
  0
ARC
  5
302F
330
1F
100
AcDbEntity
  8
DETAILS
 62
     6
370
    20
100
AcDbCircle
 10
-37.63632722202971
 20
85.83048248620125
 30
0.0
 40
0.1000000000001364
100
AcDbArc
 50
270.0000000002606
 51
316.1691393281411
  0
LINE
  5
3030
330
1F
100
AcDbEntity
  8
DETAILS
 62
     6
370
    20
100
AcDbLine
 10
-37.56418848992513
 20
85.76122930338224
 30
0.0
 11
-36.44656670231694
 21
86.95146033214232
 31
0.0
  0
ARC
  5
3031
330
1F
100
AcDbEntity
  8
DETAILS
 62
     6
370
    20
100
AcDbCircle
 10
-36.51870543441788
 20
87.02071351496133
 30
0.0
 40
0.0999999999994431
100
AcDbArc
 50
316.1691393272024
 51
359.9999999992444
  0
ARC
  5
3032
330
1F
100
AcDbEntity
  8
DETAILS
 62
     6
370
    20
100
AcDbCircle
 10
-42.51871231410501
 20
87.02071351495996
 30
0.0
 40
0.0999999999999091
100
AcDbArc
 50
179.9999999998697
 51
223.8308606719873
  0
LINE
  5
3033
330
1F
100
AcDbEntity
  8
DETAILS
 62
     6
370
    20
100
AcDbLine
 10
-42.59085104620777
 20
86.95146033214141
 30
0.0
 11
-41.47322237891063
 21
85.76122930338224
 31
0.0
  0
ARC
  5
3034
330
1F
100
AcDbEntity
  8
DETAILS
 62
     6
370
    20
100
AcDbCircle
 10
-41.40108364680696
 20
85.83048248620125
 30
0.0
 40
0.1000000000001911
100
AcDbArc
 50
223.8308606721345
 51
270.0
  0
LINE
  5
3035
330
1F
100
AcDbEntity
  8
DETAILS
 62
     6
370
    20
100
AcDbLine
 10
-41.40108364680696
 20
85.73048248620134
 30
0.0
 11
-41.39370543441697
 21
85.73048248620134
 31
0.0
  0
LINE
  5
3036
330
1F
100
AcDbEntity
  8
DETAILS
 62
     6
370
    20
100
AcDbLine
 10
-41.39370543441697
 20
85.73048248620134
 30
0.0
 11
-41.39370543441697
 21
85.68048248620115
 31
0.0
  0
LINE
  5
3037
330
1F
100
AcDbEntity
  8
DETAILS
 62
     6
370
    20
100
AcDbLine
 10
-41.39370543441697
 20
85.68048248620115
 30
0.0
 11
-41.29370543441661
 21
85.68048248620115
 31
0.0
  0
ARC
  5
3038
330
1F
100
AcDbEntity
  8
DETAILS
 62
     6
370
    20
100
AcDbCircle
 10
-41.29370543441661
 20
85.63048248620097
 30
0.0
 40
0.0500000000001819
100
AcDbArc
 50
359.9999999998697
 51
90.0
  0
LINE
  5
3039
330
1F
100
AcDbEntity
  8
DETAILS
 62
     6
370
    20
100
AcDbLine
 10
-41.24370543441552
 20
85.63048248620097
 30
0.0
 11
-41.24370543441734
 21
85.57548248620113
 31
0.0
  0
ARC
  5
303A
330
1F
100
AcDbEntity
  8
DETAILS
 62
     6
370
    20
100
AcDbCircle
 10
-40.81870543441624
 20
85.57548248620069
 30
0.0
 40
0.4250000000001819
100
AcDbArc
 50
179.9999999999739
 51
359.999999999974
  0
LINE
  5
303B
330
1F
100
AcDbEntity
  8
DETAILS
 62
     6
370
    20
100
AcDbLine
 10
-40.39370543441697
 20
85.57548248620069
 30
0.0
 11
-40.39370543441697
 21
85.63048248620097
 31
0.0
  0
ARC
  5
303C
330
1F
100
AcDbEntity
  8
DETAILS
 62
     6
370
    20
100
AcDbCircle
 10
-40.34370543441679
 20
85.63048248620097
 30
0.0
 40
0.0500000000001819
100
AcDbArc
 50
90.0
 51
179.9999999996613
  0
LINE
  5
303D
330
1F
100
AcDbEntity
  8
DETAILS
 62
     6
370
    20
100
AcDbLine
 10
-40.34370543441679
 20
85.68048248620115
 30
0.0
 11
-39.99370543441734
 21
85.68048248620115
 31
0.0
  0
ARC
  5
303E
330
1F
100
AcDbEntity
  8
DETAILS
 62
     6
370
    20
100
AcDbCircle
 10
-39.99370543441734
 20
85.63048248620097
 30
0.0
 40
0.0500000000001819
100
AcDbArc
 50
359.9999999998697
 51
90.0
  0
LINE
  5
303F
330
1F
100
AcDbEntity
  8
DETAILS
 62
     6
370
    20
100
AcDbLine
 10
-39.94370543441716
 20
85.63048248620097
 30
0.0
 11
-39.94370543441807
 21
85.57548248619795
 31
0.0
  0
ARC
  5
3040
330
1F
100
AcDbEntity
  8
DETAILS
 62
     6
370
    20
100
AcDbCircle
 10
-39.51870543441697
 20
85.57548248619795
 30
0.0
 40
0.4250000000001819
100
AcDbArc
 50
180.0
 51
270.0
  0
ARC
  5
3041
330
1F
100
AcDbEntity
  8
DETAILS
 62
     6
370
    20
100
AcDbCircle
 10
-39.51870543441788
 20
85.57548248619795
 30
0.0
 40
0.4249999999997272
100
AcDbArc
 50
270.0000000000521
 51
0.0000000000521102
  0
LINE
  5
3042
330
1F
100
AcDbEntity
  8
DETAILS
 62
     6
370
    20
100
AcDbLine
 10
-39.0937054344177
 20
85.57548248619795
 30
0.0
 11
-39.09370543441861
 21
85.63048248620097
 31
0.0
  0
ARC
  5
3043
330
1F
100
AcDbEntity
  8
DETAILS
 62
     6
370
    20
100
AcDbCircle
 10
-39.04370543441843
 20
85.63048248620097
 30
0.0
 40
0.0500000000001819
100
AcDbArc
 50
90.0
 51
180.0
  0
LINE
  5
3044
330
1F
100
AcDbEntity
  8
DETAILS
 62
     6
370
    20
100
AcDbLine
 10
-39.04370543441843
 20
85.68048248620115
 30
0.0
 11
-38.69370543441898
 21
85.68048248620115
 31
0.0
  0
ARC
  5
3045
330
1F
100
AcDbEntity
  8
DETAILS
 62
     6
370
    20
100
AcDbCircle
 10
-38.69370543441898
 20
85.63048248620097
 30
0.0
 40
0.0500000000001819
100
AcDbArc
 50
0.000000000260551
 51
90.0
  0
LINE
  5
3046
330
1F
100
AcDbEntity
  8
DETAILS
 62
     6
370
    20
100
AcDbLine
 10
-38.64370543441879
 20
85.63048248620097
 30
0.0
 11
-38.64370543441879
 21
85.57548248620069
 31
0.0
  0
ARC
  5
3047
330
1F
100
AcDbEntity
  8
DETAILS
 62
     6
370
    20
100
AcDbCircle
 10
-38.21870543441861
 20
85.57548248620069
 30
0.0
 40
0.4249999999997272
100
AcDbArc
 50
180.000000000026
 51
0.0000000000260551
  0
LINE
  5
3048
330
1F
100
AcDbEntity
  8
DETAILS
 62
     6
370
    20
100
AcDbLine
 10
-37.79370543441843
 20
85.57548248620113
 30
0.0
 11
-37.79370543442025
 21
85.63048248620097
 31
0.0
  0
ARC
  5
3049
330
1F
100
AcDbEntity
  8
DETAILS
 62
     6
370
    20
100
AcDbCircle
 10
-37.74370543441916
 20
85.63048248620097
 30
0.0
 40
0.0500000000001819
100
AcDbArc
 50
90.0
 51
180.0
  0
LINE
  5
304A
330
1F
100
AcDbEntity
  8
DETAILS
 62
     6
370
    20
100
AcDbLine
 10
-37.74370543441916
 20
85.68048248620115
 30
0.0
 11
-37.64370543441879
 21
85.68048248620115
 31
0.0
  0
LINE
  5
304B
330
1F
100
AcDbEntity
  8
DETAILS
 62
     6
370
    20
100
AcDbLine
 10
-37.64370543441879
 20
85.68048248620115
 30
0.0
 11
-37.64370543441879
 21
85.73048248620134
 31
0.0
  0
LINE
  5
304C
330
1F
100
AcDbEntity
  8
DETAILS
 62
     6
370
    20
100
AcDbLine
 10
-37.64370543441879
 20
85.73048248620134
 30
0.0
 11
-37.6363272220288
 21
85.73048248620134
 31
0.0
  0
LINE
  5
304D
330
1F
100
AcDbEntity
  8
DETAILS
 62
     6
370
    20
100
AcDbLine
 10
-37.6363272220288
 20
85.73048248620134
 30
0.0
 11
-37.79370543441934
 21
85.73048248620134
 31
0.0
  0
ARC
  5
304E
330
1F
100
AcDbEntity
  8
DETAILS
 62
     6
370
    20
100
AcDbCircle
 10
-37.79370543441934
 20
85.68048248620115
 30
0.0
 40
0.0500000000001819
100
AcDbArc
 50
90.0
 51
179.9999999998697
  0
LINE
  5
304F
330
1F
100
AcDbEntity
  8
DETAILS
 62
     6
370
    20
100
AcDbLine
 10
-37.84370543441952
 20
85.68048248620115
 30
0.0
 11
-37.84370543441952
 21
85.57548248620113
 31
0.0
  0
ARC
  5
3050
330
1F
100
AcDbEntity
  8
DETAILS
 62
     6
370
    20
100
AcDbCircle
 10
-38.21870543441952
 20
85.57548248620069
 30
0.0
 40
0.375
100
AcDbArc
 50
180.0
 51
0.0
  0
LINE
  5
3051
330
1F
100
AcDbEntity
  8
DETAILS
 62
     6
370
    20
100
AcDbLine
 10
-38.59370543441952
 20
85.57548248620069
 30
0.0
 11
-38.59370543441952
 21
85.68048248620115
 31
0.0
  0
ARC
  5
3052
330
1F
100
AcDbEntity
  8
DETAILS
 62
     6
370
    20
100
AcDbCircle
 10
-38.64370543441879
 20
85.68048248620115
 30
0.0
 40
0.0500000000001819
100
AcDbArc
 50
0.0000000001302755
 51
90.0
  0
LINE
  5
3053
330
1F
100
AcDbEntity
  8
DETAILS
 62
     6
370
    20
100
AcDbLine
 10
-38.64370543441879
 20
85.73048248620134
 30
0.0
 11
-39.09370543441952
 21
85.73048248620134
 31
0.0
  0
ARC
  5
3054
330
1F
100
AcDbEntity
  8
DETAILS
 62
     6
370
    20
100
AcDbCircle
 10
-39.09370543441952
 20
85.68048248620115
 30
0.0
 40
0.0500000000001251
100
AcDbArc
 50
90.0
 51
179.9999999998697
  0
LINE
  5
3055
330
1F
100
AcDbEntity
  8
DETAILS
 62
     6
370
    20
100
AcDbLine
 10
-39.14370543441879
 20
85.68048248620115
 30
0.0
 11
-39.14370543441879
 21
85.57548248619795
 31
0.0
  0
ARC
  5
3056
330
1F
100
AcDbEntity
  8
DETAILS
 62
     6
370
    20
100
AcDbCircle
 10
-39.51870543441788
 20
85.57548248619795
 30
0.0
 40
0.3749999999995452
100
AcDbArc
 50
270.0000000000521
 51
0.0000000000521102
  0
ARC
  5
3057
330
1F
100
AcDbEntity
  8
DETAILS
 62
     6
370
    20
100
AcDbCircle
 10
-39.51870543441697
 20
85.57548248619795
 30
0.0
 40
0.3749999999998295
100
AcDbArc
 50
180.0
 51
269.9999999999479
  0
LINE
  5
3058
330
1F
100
AcDbEntity
  8
DETAILS
 62
     6
370
    20
100
AcDbLine
 10
-39.89370543441697
 20
85.57548248619795
 30
0.0
 11
-39.89370543441697
 21
85.68048248620115
 31
0.0
  0
ARC
  5
3059
330
1F
100
AcDbEntity
  8
DETAILS
 62
     6
370
    20
100
AcDbCircle
 10
-39.94370543441625
 20
85.68048248620115
 30
0.0
 40
0.0500000000001819
100
AcDbArc
 50
0.0000000001302755
 51
90.0
  0
LINE
  5
305A
330
1F
100
AcDbEntity
  8
DETAILS
 62
     6
370
    20
100
AcDbLine
 10
-39.94370543441625
 20
85.73048248620134
 30
0.0
 11
-40.39370543441697
 21
85.73048248620134
 31
0.0
  0
ARC
  5
305B
330
1F
100
AcDbEntity
  8
DETAILS
 62
     6
370
    20
100
AcDbCircle
 10
-40.39370543441697
 20
85.68048248620115
 30
0.0
 40
0.0500000000001819
100
AcDbArc
 50
90.0
 51
179.9999999998697
  0
LINE
  5
305C
330
1F
100
AcDbEntity
  8
DETAILS
 62
     6
370
    20
100
AcDbLine
 10
-40.44370543441624
 20
85.68048248620115
 30
0.0
 11
-40.44370543441624
 21
85.57548248620069
 31
0.0
  0
ARC
  5
305D
330
1F
100
AcDbEntity
  8
DETAILS
 62
     6
370
    20
100
AcDbCircle
 10
-40.81870543441624
 20
85.57548248620069
 30
0.0
 40
0.3749999999995452
100
AcDbArc
 50
179.9999999999739
 51
0.0
  0
LINE
  5
305E
330
1F
100
AcDbEntity
  8
DETAILS
 62
     6
370
    20
100
AcDbLine
 10
-41.19370543441625
 20
85.57548248620113
 30
0.0
 11
-41.19370543441625
 21
85.68048248620115
 31
0.0
  0
ARC
  5
305F
330
1F
100
AcDbEntity
  8
DETAILS
 62
     6
370
    20
100
AcDbCircle
 10
-41.24370543441642
 20
85.68048248620115
 30
0.0
 40
0.0500000000001819
100
AcDbArc
 50
0.0000000001302755
 51
90.0
  0
LINE
  5
3060
330
1F
100
AcDbEntity
  8
DETAILS
 62
     6
370
    20
100
AcDbLine
 10
-41.24370543441642
 20
85.73048248620134
 30
0.0
 11
-41.40108364680696
 21
85.73048248620134
 31
0.0
  0
LINE
  5
3061
330
1F
100
AcDbEntity
  8
DETAILS
 62
     6
370
    20
100
AcDbLine
 10
-36.41870543441752
 20
80.25906112996436
 30
0.0
 11
-36.41870543441843
 21
78.25094127558267
 31
0.0
  0
LINE
  5
3062
330
1F
100
AcDbEntity
  8
DETAILS
 62
     6
370
    20
100
AcDbLine
 10
-42.61870543441733
 20
78.25094127558267
 30
0.0
 11
-42.61870543441824
 21
80.25906112996436
 31
0.0
  0
LINE
  5
3063
330
1F
100
AcDbEntity
  8
DETAILS
 62
     6
370
    20
100
AcDbLine
 10
-42.61870543441642
 20
88.09137176388194
 30
0.0
 11
-42.61870543441642
 21
87.02071351496043
 31
0.0
  0
LINE
  5
3064
330
1F
100
AcDbEntity
  8
DETAILS
 62
     6
370
    20
100
AcDbLine
 10
-42.61870543441642
 20
87.02071351496043
 30
0.0
 11
-42.61870543441733
 21
80.2590611299648
 31
0.0
  0
ARC
  5
3065
330
1F
100
AcDbEntity
  8
DETAILS
 62
     6
370
    20
100
AcDbCircle
 10
-42.51870543441788
 20
80.2590611299648
 30
0.0
 40
0.0999999999999091
100
AcDbArc
 50
135.0000000001477
 51
180.0000000001302
  0
LINE
  5
3066
330
1F
100
AcDbEntity
  8
DETAILS
 62
     6
370
    20
100
AcDbLine
 10
-42.58941611253618
 20
80.32977180808311
 30
0.0
 11
-40.9376394172387
 21
82.00654850337887
 31
0.0
  0
ARC
  5
3067
330
1F
100
AcDbEntity
  8
DETAILS
 62
     6
370
    20
100
AcDbCircle
 10
-40.83157340006079
 20
81.90048248620142
 30
0.0
 40
0.1499999999998163
100
AcDbArc
 50
90.0
 51
135.0000000000187
  0
LINE
  5
3068
330
1F
100
AcDbEntity
  8
DETAILS
 62
     6
370
    20
100
AcDbLine
 10
-40.83157340006079
 20
82.05048248620105
 30
0.0
 11
-39.51870543441788
 21
82.05048248620105
 31
0.0
  0
LINE
  5
3069
330
1F
100
AcDbEntity
  8
DETAILS
 62
     6
370
    20
100
AcDbLine
 10
-39.51870543441788
 20
82.05048248620105
 30
0.0
 11
-38.20583746877498
 21
82.05048248620105
 31
0.0
  0
ARC
  5
306A
330
1F
100
AcDbEntity
  8
DETAILS
 62
     6
370
    20
100
AcDbCircle
 10
-38.20583746877498
 20
81.90048248620142
 30
0.0
 40
0.1499999999998067
100
AcDbArc
 50
44.99999999998129
 51
90.0
  0
LINE
  5
306B
330
1F
100
AcDbEntity
  8
DETAILS
 62
     6
370
    20
100
AcDbLine
 10
-38.09977145159706
 20
82.00654850337887
 30
0.0
 11
-36.44799475629867
 21
80.32977180808311
 31
0.0
  0
ARC
  5
306C
330
1F
100
AcDbEntity
  8
DETAILS
 62
     6
370
    20
100
AcDbCircle
 10
-36.51870543441788
 20
80.2590611299648
 30
0.0
 40
0.0999999999999044
100
AcDbArc
 50
359.9999999998958
 51
44.99999999985233
  0
LINE
  5
306D
330
1F
100
AcDbEntity
  8
DETAILS
 62
     6
370
    20
100
AcDbLine
 10
-36.41870543441752
 20
80.2590611299648
 30
0.0
 11
-36.41870543441934
 21
87.02071351496043
 31
0.0
  0
ARC
  5
306E
330
1F
100
AcDbEntity
  8
DETAILS
 62
     6
370
    20
100
AcDbCircle
 10
-36.36870543441825
 20
89.00002369681905
 30
0.0
 40
0.0500000000001819
100
AcDbArc
 50
149.9999999997343
 51
179.9999999997394
  0
LINE
  5
306F
330
1F
100
AcDbEntity
  8
DETAILS
 62
     6
370
    20
100
AcDbLine
 10
-36.412006704607
 20
89.02502369681959
 30
0.0
 11
-36.35292029035833
 21
89.12736436833402
 31
0.0
  0
LINE
  5
3070
330
1F
100
AcDbEntity
  8
DETAILS
 62
     6
370
    20
100
AcDbLine
 10
-36.35292029035833
 20
89.12736436833402
 30
0.0
 11
-36.26631774998083
 21
89.07736436833429
 31
0.0
  0
LINE
  5
3071
330
1F
100
AcDbEntity
  8
DETAILS
 62
     6
370
    20
100
AcDbLine
 10
-36.26631774998083
 20
89.07736436833429
 30
0.0
 11
-36.31200670460663
 21
88.99822877757477
 31
0.0
  0
ARC
  5
3072
330
1F
100
AcDbEntity
  8
DETAILS
 62
     6
370
    20
100
AcDbCircle
 10
-36.26870543441788
 20
88.97322877757423
 30
0.0
 40
0.0500000000002004
100
AcDbArc
 50
149.999999999547
 51
179.999999999531
  0
LINE
  5
3073
330
1F
100
AcDbEntity
  8
DETAILS
 62
     6
370
    20
100
AcDbLine
 10
-36.31870543441806
 20
88.97322877757469
 30
0.0
 11
-36.31870543441806
 21
88.93662623719691
 31
0.0
  0
LINE
  5
3074
330
1F
100
AcDbEntity
  8
DETAILS
 62
     6
370
    20
100
AcDbLine
 10
-36.8937054344197
 20
84.37048248620076
 30
0.0
 11
-36.89370543442061
 21
84.91150553193719
 31
0.0
  0
ARC
  5
3075
330
1F
100
AcDbEntity
  8
DETAILS
 62
     6
370
    20
100
AcDbCircle
 10
-36.99370543442006
 20
84.91150553193719
 30
0.0
 40
0.0999999999999091
100
AcDbArc
 50
0.0
 51
136.1691393279388
  0
LINE
  5
3076
330
1F
100
AcDbEntity
  8
DETAILS
 62
     6
370
    20
100
AcDbLine
 10
-37.06584416652373
 20
84.9807587147562
 30
0.0
 11
-37.58522629043006
 21
84.43973566901977
 31
0.0
  0
ARC
  5
3077
330
1F
100
AcDbEntity
  8
DETAILS
 62
     6
370
    20
100
AcDbCircle
 10
-37.51308755832639
 20
84.3704824862012
 30
0.0
 40
0.1000000000000336
100
AcDbArc
 50
136.1691393279939
 51
270.0
  0
LINE
  5
3078
330
1F
100
AcDbEntity
  8
DETAILS
 62
     6
370
    20
100
AcDbLine
 10
-37.51308755832639
 20
84.27048248620129
 30
0.0
 11
-36.99370543441915
 21
84.27048248620129
 31
0.0
  0
ARC
  5
3079
330
1F
100
AcDbEntity
  8
DETAILS
 62
     6
370
    20
100
AcDbCircle
 10
-36.99370543442006
 20
84.3704824862012
 30
0.0
 40
0.1000000000001364
100
AcDbArc
 50
270.0000000002606
 51
359.9999999998958
  0
LINE
  5
307A
330
1F
100
AcDbEntity
  8
DETAILS
 62
     6
370
    20
100
AcDbLine
 10
-36.99370543441915
 20
82.95048248620114
 30
0.0
 11
-37.51308755832639
 21
82.95048248620114
 31
0.0
  0
ARC
  5
307B
330
1F
100
AcDbEntity
  8
DETAILS
 62
     6
370
    20
100
AcDbCircle
 10
-37.51308755832639
 20
82.85048248620123
 30
0.0
 40
0.1000000000000227
100
AcDbArc
 50
90.0
 51
223.830860672006
  0
LINE
  5
307C
330
1F
100
AcDbEntity
  8
DETAILS
 62
     6
370
    20
100
AcDbLine
 10
-37.58522629043006
 20
82.78122930338222
 30
0.0
 11
-37.06584416652373
 21
82.24020625764623
 31
0.0
  0
ARC
  5
307D
330
1F
100
AcDbEntity
  8
DETAILS
 62
     6
370
    20
100
AcDbCircle
 10
-36.99370543442006
 20
82.3094594404648
 30
0.0
 40
0.1000000000000336
100
AcDbArc
 50
223.830860672006
 51
0.0000000000260551
  0
LINE
  5
307E
330
1F
100
AcDbEntity
  8
DETAILS
 62
     6
370
    20
100
AcDbLine
 10
-36.89370543442061
 20
82.3094594404648
 30
0.0
 11
-36.8937054344197
 21
82.85048248620123
 31
0.0
  0
ARC
  5
307F
330
1F
100
AcDbEntity
  8
DETAILS
 62
     6
370
    20
100
AcDbCircle
 10
-36.99370543442006
 20
82.85048248620077
 30
0.0
 40
0.1000000000003638
100
AcDbArc
 50
0.0000000001042204
 51
89.99999999973944
  0
LINE
  5
3080
330
1F
100
AcDbEntity
  8
0
 62
     1
100
AcDbLine
 10
-36.41870543441661
 20
89.35048248620123
 30
0.0
 11
-33.79370543441752
 21
89.35048248620123
 31
0.0
  0
LINE
  5
3081
330
1F
100
AcDbEntity
  8
0
 62
     1
100
AcDbLine
 10
-36.41870543441661
 20
89.85048248620122
 30
0.0
 11
-36.41870543441661
 21
89.35048248620123
 31
0.0
  0
LINE
  5
3082
330
1F
100
AcDbEntity
  8
0
  6
HIDDEN
 62
     1
 48
0.02
100
AcDbLine
 10
-34.14370543441516
 20
89.85048248620122
 30
0.0
 11
-34.14370543441516
 21
89.35048248620123
 31
0.0
  0
LINE
  5
3083
330
1F
100
AcDbEntity
  8
0
  6
HIDDEN
 62
     1
 48
0.02
100
AcDbLine
 10
-35.79370543441661
 20
89.85048248620122
 30
0.0
 11
-35.79370543441661
 21
89.35048248620123
 31
0.0
  0
LINE
  5
3084
330
1F
100
AcDbEntity
  8
0
  6
HIDDEN
 62
     1
 48
0.02
100
AcDbLine
 10
-34.76870543441516
 20
89.85048248620122
 30
0.0
 11
-34.76870543441516
 21
89.35048248620123
 31
0.0
  0
LINE
  5
3085
330
1F
100
AcDbEntity
  8
0
  6
HIDDEN
 62
     1
 48
0.02
100
AcDbLine
 10
-36.41870543441661
 20
89.85048248620122
 30
0.0
 11
-35.79370543441661
 21
89.85048248620122
 31
0.0
  0
LINE
  5
3086
330
1F
100
AcDbEntity
  8
0
  6
HIDDEN
 62
     1
 48
0.02
100
AcDbLine
 10
-34.76870543441516
 20
89.85048248620122
 30
0.0
 11
-34.14370543441516
 21
89.85048248620122
 31
0.0
  0
LINE
  5
3087
330
1F
100
AcDbEntity
  8
0
  6
HIDDEN
 62
     1
 48
0.02
100
AcDbLine
 10
-36.21870543441588
 20
89.60048248620124
 30
0.0
 11
-36.21870543441588
 21
89.35048248620123
 31
0.0
  0
LINE
  5
3088
330
1F
100
AcDbEntity
  8
0
  6
HIDDEN
 62
     1
 48
0.02
100
AcDbLine
 10
-35.96870543441588
 20
89.60048248620124
 30
0.0
 11
-35.96870543441588
 21
89.35048248620123
 31
0.0
  0
LINE
  5
3089
330
1F
100
AcDbEntity
  8
0
  6
HIDDEN
 62
     1
 48
0.02
100
AcDbLine
 10
-36.21870543441588
 20
89.60048248620124
 30
0.0
 11
-35.96870543441588
 21
89.60048248620124
 31
0.0
  0
LINE
  5
308A
330
1F
100
AcDbEntity
  8
0
 62
     1
100
AcDbLine
 10
-44.89370543441697
 20
77.85049445669855
 30
0.0
 11
-44.26870543441697
 21
77.85049445669855
 31
0.0
  0
LINE
  5
308B
330
1F
100
AcDbEntity
  8
0
 62
     1
100
AcDbLine
 10
-43.24370543441733
 20
77.85049445669855
 30
0.0
 11
-43.24370543441824
 21
77.35049445669855
 31
0.0
  0
LINE
  5
308C
330
1F
100
AcDbEntity
  8
0
 62
     1
100
AcDbLine
 10
-44.26870543441697
 20
77.85049445669855
 30
0.0
 11
-44.26870543441697
 21
77.35049445669855
 31
0.0
  0
LINE
  5
308D
330
1F
100
AcDbEntity
  8
0
 62
     1
100
AcDbLine
 10
-43.24370543441824
 20
77.85049445669855
 30
0.0
 11
-42.61870543441824
 21
77.85049445669855
 31
0.0
  0
LINE
  5
308E
330
1F
100
AcDbEntity
  8
0
 62
     1
100
AcDbLine
 10
-43.06870543441806
 20
77.60049445669856
 30
0.0
 11
-43.06870543441806
 21
77.35049445669855
 31
0.0
  0
LINE
  5
308F
330
1F
100
AcDbEntity
  8
0
 62
     1
100
AcDbLine
 10
-43.06870543441806
 20
77.60049445669856
 30
0.0
 11
-42.81870543441806
 21
77.60049445669856
 31
0.0
  0
LINE
  5
3090
330
1F
100
AcDbEntity
  8
0
 62
     1
100
AcDbLine
 10
-34.14370543441697
 20
77.85049445669855
 30
0.0
 11
-34.14370543441697
 21
77.35049445669855
 31
0.0
  0
LINE
  5
3091
330
1F
100
AcDbEntity
  8
0
 62
     1
100
AcDbLine
 10
-35.79370543441843
 20
77.85049445669855
 30
0.0
 11
-35.79370543441843
 21
77.35049445669855
 31
0.0
  0
LINE
  5
3092
330
1F
100
AcDbEntity
  8
0
 62
     1
100
AcDbLine
 10
-34.76870543441697
 20
77.85049445669855
 30
0.0
 11
-34.76870543441697
 21
77.35049445669855
 31
0.0
  0
LINE
  5
3093
330
1F
100
AcDbEntity
  8
0
 62
     1
100
AcDbLine
 10
-36.41870543441843
 20
77.85049445669855
 30
0.0
 11
-35.79370543441843
 21
77.85049445669855
 31
0.0
  0
LINE
  5
3094
330
1F
100
AcDbEntity
  8
0
 62
     1
100
AcDbLine
 10
-34.76870543441697
 20
77.85049445669855
 30
0.0
 11
-34.14370543441697
 21
77.85049445669855
 31
0.0
  0
LINE
  5
3095
330
1F
100
AcDbEntity
  8
0
 62
     1
100
AcDbLine
 10
-42.61870543441733
 20
77.85049445669855
 30
0.0
 11
-42.61870543441733
 21
77.35049445669855
 31
0.0
  0
LINE
  5
3096
330
1F
100
AcDbEntity
  8
0
  6
HIDDEN
 62
     1
 48
0.02
100
AcDbLine
 10
-44.89370543441697
 20
77.85049445669855
 30
0.0
 11
-44.26870543441697
 21
77.85049445669855
 31
0.0
  0
LINE
  5
3097
330
1F
100
AcDbEntity
  8
0
  6
HIDDEN
 62
     1
 48
0.02
100
AcDbLine
 10
-44.89370543441697
 20
77.85049445669855
 30
0.0
 11
-44.89370543441697
 21
77.35049445669855
 31
0.0
  0
LINE
  5
3098
330
1F
100
AcDbEntity
  8
0
  6
HIDDEN
 62
     1
 48
0.02
100
AcDbLine
 10
-43.24370543441733
 20
77.85049445669855
 30
0.0
 11
-43.24370543441824
 21
77.35049445669855
 31
0.0
  0
LINE
  5
3099
330
1F
100
AcDbEntity
  8
0
  6
HIDDEN
 62
     1
 48
0.02
100
AcDbLine
 10
-44.26870543441697
 20
77.85049445669855
 30
0.0
 11
-44.26870543441697
 21
77.35049445669855
 31
0.0
  0
LINE
  5
309A
330
1F
100
AcDbEntity
  8
0
  6
HIDDEN
 62
     1
 48
0.02
100
AcDbLine
 10
-43.24370543441824
 20
77.85049445669855
 30
0.0
 11
-42.61870543441824
 21
77.85049445669855
 31
0.0
  0
LINE
  5
309B
330
1F
100
AcDbEntity
  8
0
 62
     1
100
AcDbLine
 10
-36.41870543441661
 20
77.85049445669855
 30
0.0
 11
-36.41870543441661
 21
77.35049445669855
 31
0.0
  0
LINE
  5
309C
330
1F
100
AcDbEntity
  8
0
  6
HIDDEN
 62
     1
 48
0.02
100
AcDbLine
 10
-34.14370543441516
 20
77.85049445669855
 30
0.0
 11
-34.14370543441516
 21
77.35049445669855
 31
0.0
  0
LINE
  5
309D
330
1F
100
AcDbEntity
  8
0
  6
HIDDEN
 62
     1
 48
0.02
100
AcDbLine
 10
-35.79370543441661
 20
77.85049445669855
 30
0.0
 11
-35.79370543441661
 21
77.35049445669855
 31
0.0
  0
LINE
  5
309E
330
1F
100
AcDbEntity
  8
0
  6
HIDDEN
 62
     1
 48
0.02
100
AcDbLine
 10
-34.76870543441516
 20
77.85049445669855
 30
0.0
 11
-34.76870543441516
 21
77.35049445669855
 31
0.0
  0
LINE
  5
309F
330
1F
100
AcDbEntity
  8
0
  6
HIDDEN
 62
     1
 48
0.02
100
AcDbLine
 10
-36.41870543441661
 20
77.85049445669855
 30
0.0
 11
-35.79370543441661
 21
77.85049445669855
 31
0.0
  0
LINE
  5
30A0
330
1F
100
AcDbEntity
  8
0
  6
HIDDEN
 62
     1
 48
0.02
100
AcDbLine
 10
-34.76870543441516
 20
77.85049445669855
 30
0.0
 11
-34.14370543441516
 21
77.85049445669855
 31
0.0
  0
ARC
  5
30A1
330
1F
100
AcDbEntity
  8
DETAILS
 62
     6
370
    20
100
AcDbCircle
 10
-36.36870543442006
 20
78.25095324608046
 30
0.0
 40
0.0499999999997272
100
AcDbArc
 50
180.0000000004429
 51
210.0000000006405
  0
LINE
  5
30A2
330
1F
100
AcDbEntity
  8
DETAILS
 62
     6
370
    20
100
AcDbLine
 10
-36.41200670460881
 20
78.22595324608037
 30
0.0
 11
-36.35292029036106
 21
78.1236125745655
 31
0.0
  0
LINE
  5
30A3
330
1F
100
AcDbEntity
  8
DETAILS
 62
     6
370
    20
100
AcDbLine
 10
-36.35292029036106
 20
78.1236125745655
 30
0.0
 11
-36.26631774998265
 21
78.17361257456568
 31
0.0
  0
LINE
  5
30A4
330
1F
100
AcDbEntity
  8
DETAILS
 62
     6
370
    20
100
AcDbLine
 10
-36.26631774998265
 20
78.17361257456568
 30
0.0
 11
-36.31200670460936
 21
78.25274816532427
 31
0.0
  0
ARC
  5
30A5
330
1F
100
AcDbEntity
  8
DETAILS
 62
     6
370
    20
100
AcDbCircle
 10
-36.26870543442061
 20
78.27774816532482
 30
0.0
 40
0.0499999999997213
100
AcDbArc
 50
180.0000000003126
 51
210.0000000005465
  0
LINE
  5
30A6
330
1F
100
AcDbEntity
  8
DETAILS
 62
     6
370
    20
100
AcDbLine
 10
-36.31870543442079
 20
78.27774816532482
 30
0.0
 11
-36.31870543441988
 21
78.31435070570305
 31
0.0
  0
LINE
  5
30A7
330
1F
100
AcDbEntity
  8
DETAILS
 62
     6
370
    20
100
AcDbLine
 10
-42.7187054344177
 20
78.31435070570214
 30
0.0
 11
-42.7187054344177
 21
78.27774816532482
 31
0.0
  0
ARC
  5
30A8
330
1F
100
AcDbEntity
  8
DETAILS
 62
     6
370
    20
100
AcDbCircle
 10
-42.76870543441788
 20
78.27774816532482
 30
0.0
 40
0.0499999999997272
100
AcDbArc
 50
329.9999999994534
 51
359.9999999996613
  0
LINE
  5
30A9
330
1F
100
AcDbEntity
  8
DETAILS
 62
     6
370
    20
100
AcDbLine
 10
-42.72540416422913
 20
78.25274816532427
 30
0.0
 11
-42.77109311885584
 21
78.17361257456477
 31
0.0
  0
LINE
  5
30AA
330
1F
100
AcDbEntity
  8
DETAILS
 62
     6
370
    20
100
AcDbLine
 10
-42.77109311885584
 20
78.17361257456477
 30
0.0
 11
-42.68449057847743
 21
78.1236125745655
 31
0.0
  0
LINE
  5
30AB
330
1F
100
AcDbEntity
  8
DETAILS
 62
     6
370
    20
100
AcDbLine
 10
-42.68449057847743
 20
78.1236125745655
 30
0.0
 11
-42.62540416422967
 21
78.22595324608037
 31
0.0
  0
ARC
  5
30AC
330
1F
100
AcDbEntity
  8
DETAILS
 62
     6
370
    20
100
AcDbCircle
 10
-42.66870543441842
 20
78.25095324608046
 30
0.0
 40
0.0499999999997782
100
AcDbArc
 50
329.9999999993595
 51
359.999999999531
  0
LINE
  5
30AD
330
1F
100
AcDbEntity
  8
0
 62
     1
100
AcDbLine
 10
-34.14370543441697
 20
89.85049445669856
 30
0.0
 11
-34.14370543441697
 21
89.35049445669855
 31
0.0
  0
LINE
  5
30AE
330
1F
100
AcDbEntity
  8
0
 62
     1
100
AcDbLine
 10
-35.79370543441843
 20
89.85049445669856
 30
0.0
 11
-35.79370543441843
 21
89.35049445669855
 31
0.0
  0
LINE
  5
30AF
330
1F
100
AcDbEntity
  8
0
 62
     1
100
AcDbLine
 10
-34.76870543441697
 20
89.85049445669856
 30
0.0
 11
-34.76870543441697
 21
89.35049445669855
 31
0.0
  0
LINE
  5
30B0
330
1F
100
AcDbEntity
  8
0
 62
     1
100
AcDbLine
 10
-36.41870543441843
 20
89.85049445669856
 30
0.0
 11
-35.79370543441843
 21
89.85049445669856
 31
0.0
  0
LINE
  5
30B1
330
1F
100
AcDbEntity
  8
0
 62
     1
100
AcDbLine
 10
-34.76870543441697
 20
89.85049445669856
 30
0.0
 11
-34.14370543441697
 21
89.85049445669856
 31
0.0
  0
LINE
  5
30B2
330
1F
100
AcDbEntity
  8
0
 62
     1
100
AcDbLine
 10
-35.9687054344177
 20
89.60049445669856
 30
0.0
 11
-35.9687054344177
 21
89.35049445669855
 31
0.0
  0
LINE
  5
30B3
330
1F
100
AcDbEntity
  8
0
 62
     1
100
AcDbLine
 10
-36.2187054344177
 20
89.60049445669856
 30
0.0
 11
-35.9687054344177
 21
89.60049445669856
 31
0.0
  0
LINE
  5
30B4
330
1F
100
AcDbEntity
  8
0
 62
     1
100
AcDbLine
 10
-36.00370543441755
 20
89.35049445669855
 30
0.0
 11
-33.79370543441752
 21
89.35049445669855
 31
0.0
  0
LINE
  5
30B5
330
1F
100
AcDbEntity
  8
0
 62
     1
100
AcDbLine
 10
-36.41870543441843
 20
89.35049445669855
 30
0.0
 11
-36.2187054344177
 21
89.35049445669855
 31
0.0
  0
LINE
  5
30B6
330
1F
100
AcDbEntity
  8
0
 62
     1
100
AcDbLine
 10
-36.41870543441661
 20
89.35049445669855
 30
0.0
 11
-33.79370543441752
 21
89.35049445669855
 31
0.0
  0
LINE
  5
30B7
330
1F
100
AcDbEntity
  8
0
 62
     1
100
AcDbLine
 10
-36.41870543441661
 20
89.85049445669856
 30
0.0
 11
-36.41870543441661
 21
89.35049445669855
 31
0.0
  0
LINE
  5
30B8
330
1F
100
AcDbEntity
  8
0
  6
HIDDEN
 62
     1
 48
0.02
100
AcDbLine
 10
-34.14370543441516
 20
89.85049445669856
 30
0.0
 11
-34.14370543441516
 21
89.35049445669855
 31
0.0
  0
LINE
  5
30B9
330
1F
100
AcDbEntity
  8
0
  6
HIDDEN
 62
     1
 48
0.02
100
AcDbLine
 10
-35.79370543441661
 20
89.85049445669856
 30
0.0
 11
-35.79370543441661
 21
89.35049445669855
 31
0.0
  0
LINE
  5
30BA
330
1F
100
AcDbEntity
  8
0
  6
HIDDEN
 62
     1
 48
0.02
100
AcDbLine
 10
-34.76870543441516
 20
89.85049445669856
 30
0.0
 11
-34.76870543441516
 21
89.35049445669855
 31
0.0
  0
LINE
  5
30BB
330
1F
100
AcDbEntity
  8
0
  6
HIDDEN
 62
     1
 48
0.02
100
AcDbLine
 10
-36.41870543441661
 20
89.85049445669856
 30
0.0
 11
-35.79370543441661
 21
89.85049445669856
 31
0.0
  0
LINE
  5
30BC
330
1F
100
AcDbEntity
  8
0
  6
HIDDEN
 62
     1
 48
0.02
100
AcDbLine
 10
-34.76870543441516
 20
89.85049445669856
 30
0.0
 11
-34.14370543441516
 21
89.85049445669856
 31
0.0
  0
LINE
  5
30BD
330
1F
100
AcDbEntity
  8
0
  6
HIDDEN
 62
     1
 48
0.02
100
AcDbLine
 10
-36.21870543441588
 20
89.60049445669856
 30
0.0
 11
-36.21870543441588
 21
89.35049445669855
 31
0.0
  0
LINE
  5
30BE
330
1F
100
AcDbEntity
  8
0
  6
HIDDEN
 62
     1
 48
0.02
100
AcDbLine
 10
-35.96870543441588
 20
89.60049445669856
 30
0.0
 11
-35.96870543441588
 21
89.35049445669855
 31
0.0
  0
LINE
  5
30BF
330
1F
100
AcDbEntity
  8
0
  6
HIDDEN
 62
     1
 48
0.02
100
AcDbLine
 10
-36.21870543441588
 20
89.60049445669856
 30
0.0
 11
-35.96870543441588
 21
89.60049445669856
 31
0.0
  0
LWPOLYLINE
  5
30C0
330
1F
100
AcDbEntity
  8
0
 48
0.15
100
AcDbPolyline
 90
        2
 70
     1
 43
0.25
 10
-40.94370543441624
 20
73.57549445669846
 42
1.0
 10
-40.69370543441624
 20
73.57549445669846
 42
1.0
  0
LWPOLYLINE
  5
30C1
330
1F
100
AcDbEntity
  8
0
 48
0.15
100
AcDbPolyline
 90
        2
 70
     1
 43
0.25
 10
-38.34370543441952
 20
73.57549445669846
 42
1.0
 10
-38.09370543441952
 20
73.57549445669846
 42
1.0
  0
LWPOLYLINE
  5
30C2
330
1F
100
AcDbEntity
  8
0
 48
0.15
100
AcDbPolyline
 90
        2
 70
     1
 43
0.25
 10
-40.94370543441624
 20
69.50970932591653
 42
1.0
 10
-40.69370543441624
 20
69.50970932591653
 42
1.0
  0
LWPOLYLINE
  5
30C3
330
1F
100
AcDbEntity
  8
0
 48
0.15
100
AcDbPolyline
 90
        2
 70
     1
 43
0.25
 10
-38.34370543441952
 20
69.50970932591653
 42
1.0
 10
-38.09370543441952
 20
69.50970932591653
 42
1.0
  0
ENDSEC
  0
SECTION
  2
OBJECTS
  0
DICTIONARY
  5
C
330
0
100
AcDbDictionary
281
     1
  3
ACAD_COLOR
350
73
  3
ACAD_GROUP
350
D
  3
ACAD_LAYOUT
350
1A
  3
ACAD_MATERIAL
350
72
  3
ACAD_MLINESTYLE
350
17
  3
ACAD_PLOTSETTINGS
350
19
  3
ACAD_PLOTSTYLENAME
350
E
  3
ACDBHEADERROUNDTRIPXREC
350
30C5
  3
AcDbVariableDictionary
350
66
  0
DICTIONARY
  5
A4
330
2
100
AcDbDictionary
280
     1
281
     1
  3
ACAD_LAYERSTATES
360
A5
  0
DICTIONARY
  5
73
102
{ACAD_REACTORS
330
C
102
}
330
C
100
AcDbDictionary
281
     1
  0
DICTIONARY
  5
D
102
{ACAD_REACTORS
330
C
102
}
330
C
100
AcDbDictionary
281
     1
  0
DICTIONARY
  5
1A
102
{ACAD_REACTORS
330
C
102
}
330
C
100
AcDbDictionary
281
     1
  3
Layout1
350
59
  3
Layout2
350
5E
  3
Model
350
22
  0
DICTIONARY
  5
72
102
{ACAD_REACTORS
330
C
102
}
330
C
100
AcDbDictionary
281
     1
  0
DICTIONARY
  5
17
102
{ACAD_REACTORS
330
C
102
}
330
C
100
AcDbDictionary
281
     1
  3
Standard
350
18
  0
DICTIONARY
  5
19
102
{ACAD_REACTORS
330
C
102
}
330
C
100
AcDbDictionary
281
     1
  0
ACDBDICTIONARYWDFLT
  5
E
102
{ACAD_REACTORS
330
C
102
}
330
C
100
AcDbDictionary
281
     1
  3
Normal
350
F
100
AcDbDictionaryWithDefault
340
F
  0
DICTIONARY
  5
30C5
102
{ACAD_REACTORS
330
C
102
}
330
C
100
AcDbDictionary
281
     1
  3
COLORDICT
350
30C7
  3
MATERIALDICT
350
30C6
  0
DICTIONARY
  5
66
102
{ACAD_REACTORS
330
C
102
}
330
C
100
AcDbDictionary
281
     1
  3
DIMASSOC
350
67
  3
HIDETEXT
350
6B
  3
PROJECTNAME
350
33A
  0
DICTIONARY
  5
A5
102
{ACAD_REACTORS
330
A4
102
}
330
A4
100
AcDbDictionary
281
     1
  0
LAYOUT
  5
59
102
{ACAD_XDICTIONARY
360
30CA
102
}
102
{ACAD_REACTORS
330
1A
102
}
330
1A
100
AcDbPlotSettings
  1

  2
None
  4

  6

 40
0.0
 41
0.0
 42
0.0
 43
0.0
 44
0.0
 45
0.0
 46
0.0
 47
0.0
 48
0.0
 49
0.0
140
0.0
141
0.0
142
1.0
143
1.0
 70
   688
 72
     0
 73
     0
 74
     5
  7

 75
    16
147
1.0
148
0.0
149
0.0
100
AcDbLayout
  1
Layout1
 70
     1
 71
     1
 10
0.0
 20
0.0
 11
12.0
 21
9.0
 12
0.0
 22
0.0
 32
0.0
 14
0.0
 24
0.0
 34
0.0
 15
0.0
 25
0.0
 35
0.0
146
0.0
 13
0.0
 23
0.0
 33
0.0
 16
1.0
 26
0.0
 36
0.0
 17
0.0
 27
1.0
 37
0.0
 76
     0
330
58
  0
LAYOUT
  5
5E
102
{ACAD_XDICTIONARY
360
30CC
102
}
102
{ACAD_REACTORS
330
1A
102
}
330
1A
100
AcDbPlotSettings
  1

  2
None
  4

  6

 40
0.0
 41
0.0
 42
0.0
 43
0.0
 44
0.0
 45
0.0
 46
0.0
 47
0.0
 48
0.0
 49
0.0
140
0.0
141
0.0
142
1.0
143
1.0
 70
   688
 72
     0
 73
     0
 74
     5
  7

 75
    16
147
1.0
148
0.0
149
0.0
100
AcDbLayout
  1
Layout2
 70
     1
 71
     2
 10
0.0
 20
0.0
 11
12.0
 21
9.0
 12
0.0
 22
0.0
 32
0.0
 14
0.0
 24
0.0
 34
0.0
 15
0.0
 25
0.0
 35
0.0
146
0.0
 13
0.0
 23
0.0
 33
0.0
 16
1.0
 26
0.0
 36
0.0
 17
0.0
 27
1.0
 37
0.0
 76
     0
330
5D
  0
LAYOUT
  5
22
102
{ACAD_XDICTIONARY
360
30C8
102
}
102
{ACAD_REACTORS
330
1A
102
}
330
1A
100
AcDbPlotSettings
  1

  2
none_device
  4
ANSI_A_(8.50_x_11.00_Inches)
  6

 40
6.349999904632568
 41
19.04999923706055
 42
6.350006103515625
 43
19.04998779296875
 44
215.8999938964844
 45
279.3999938964844
 46
0.0
 47
0.0
 48
0.0
 49
0.0
140
0.0
141
0.0
142
1.0
143
2.584895464708373
 70
 11952
 72
     0
 73
     1
 74
     0
  7

 75
     0
147
0.3868628397755418
148
0.0
149
0.0
100
AcDbLayout
  1
Model
 70
     1
 71
     0
 10
0.0
 20
0.0
 11
12.0
 21
9.0
 12
0.0
 22
0.0
 32
0.0
 14
0.0
 24
0.0
 34
0.0
 15
0.0
 25
0.0
 35
0.0
146
0.0
 13
0.0
 23
0.0
 33
0.0
 16
1.0
 26
0.0
 36
0.0
 17
0.0
 27
1.0
 37
0.0
 76
     0
330
1F
  0
MLINESTYLE
  5
18
102
{ACAD_REACTORS
330
17
102
}
330
17
100
AcDbMlineStyle
  2
STANDARD
 70
     0
  3

 62
   256
 51
90.0
 52
90.0
 71
     2
 49
0.5
 62
   256
  6
BYLAYER
 49
-0.5
 62
   256
  6
BYLAYER
  0
ACDBPLACEHOLDER
  5
F
102
{ACAD_REACTORS
330
E
102
}
330
E
  0
XRECORD
  5
30C7
102
{ACAD_REACTORS
330
30C5
102
}
330
30C5
100
AcDbXrecord
280
     1
340
73
  0
XRECORD
  5
30C6
102
{ACAD_REACTORS
330
30C5
102
}
330
30C5
100
AcDbXrecord
280
     1
340
72
  0
DICTIONARYVAR
  5
67
102
{ACAD_REACTORS
330
66
102
}
330
66
100
DictionaryVariables
280
     0
  1
2
  0
DICTIONARYVAR
  5
6B
102
{ACAD_REACTORS
330
66
102
}
330
66
100
DictionaryVariables
280
     0
  1
1
  0
DICTIONARYVAR
  5
33A
102
{ACAD_REACTORS
330
66
102
}
330
66
100
DictionaryVariables
280
     0
  1

  0
DICTIONARY
  5
30CA
330
59
100
AcDbDictionary
280
     1
281
     1
  3
ACAD_XREC_ROUNDTRIP
360
30CB
  0
DICTIONARY
  5
30CC
330
5E
100
AcDbDictionary
280
     1
281
     1
  3
ACAD_XREC_ROUNDTRIP
360
30CD
  0
DICTIONARY
  5
30C8
330
22
100
AcDbDictionary
280
     1
281
     1
  3
ACAD_XREC_ROUNDTRIP
360
30C9
  0
XRECORD
  5
30CB
102
{ACAD_REACTORS
330
30CA
102
}
330
30CA
100
AcDbXrecord
280
     1
102
SHADEPLOT
 70
     0
102
SHADEPLOTRESLEVEL
 70
     2
102
SHADEPLOTCUSTOMDPI
 70
   300
  0
XRECORD
  5
30CD
102
{ACAD_REACTORS
330
30CC
102
}
330
30CC
100
AcDbXrecord
280
     1
102
SHADEPLOT
 70
     0
102
SHADEPLOTRESLEVEL
 70
     2
102
SHADEPLOTCUSTOMDPI
 70
   300
  0
XRECORD
  5
30C9
102
{ACAD_REACTORS
330
30C8
102
}
330
30C8
100
AcDbXrecord
280
     1
102
SHADEPLOT
 70
     0
102
SHADEPLOTRESLEVEL
 70
     2
102
SHADEPLOTCUSTOMDPI
 70
   300
  0
ENDSEC
  0
EOF
