  0
SECTION
  2
HEADER
  9
$ACADVER
  1
AC1015
  9
$ACADMAINTVER
 70
    20
  9
$DWGCODEPAGE
  3
ANSI_1252
  9
$INSBASE
 10
0.0
 20
0.0
 30
0.0
  9
$EXTMIN
 10
-202.5608619124369
 20
403.8598068246162
 30
0.0
  9
$EXTMAX
 10
-122.4045132973105
 20
488.7356943429868
 30
0.0
  9
$LIMMIN
 10
0.0
 20
0.0
  9
$LIMMAX
 10
12.0
 20
9.0
  9
$ORTHOMODE
 70
     0
  9
$REGENMODE
 70
     1
  9
$FILLMODE
 70
     1
  9
$QTEXTMODE
 70
     0
  9
$MIRRTEXT
 70
     0
  9
$LTSCALE
 40
1.0
  9
$ATTMODE
 70
     1
  9
$TEXTSIZE
 40
0.2
  9
$TRACEWID
 40
0.05
  9
$TEXTSTYLE
  7
Standard
  9
$CLAYER
  8
0
  9
$CELTYPE
  6
ByLayer
  9
$CECOLOR
 62
   256
  9
$CELTSCALE
 40
1.0
  9
$DISPSILH
 70
     0
  9
$DIMSCALE
 40
1.0
  9
$DIMASZ
 40
0.18
  9
$DIMEXO
 40
0.0625
  9
$DIMDLI
 40
0.38
  9
$DIMRND
 40
0.0
  9
$DIMDLE
 40
0.0
  9
$DIMEXE
 40
0.18
  9
$DIMTP
 40
0.0
  9
$DIMTM
 40
0.0
  9
$DIMTXT
 40
0.18
  9
$DIMCEN
 40
0.09
  9
$DIMTSZ
 40
0.0
  9
$DIMTOL
 70
     0
  9
$DIMLIM
 70
     0
  9
$DIMTIH
 70
     1
  9
$DIMTOH
 70
     1
  9
$DIMSE1
 70
     0
  9
$DIMSE2
 70
     0
  9
$DIMTAD
 70
     0
  9
$DIMZIN
 70
     0
  9
$DIMBLK
  1

  9
$DIMASO
 70
     1
  9
$DIMSHO
 70
     1
  9
$DIMPOST
  1

  9
$DIMAPOST
  1

  9
$DIMALT
 70
     0
  9
$DIMALTD
 70
     2
  9
$DIMALTF
 40
25.4
  9
$DIMLFAC
 40
1.0
  9
$DIMTOFL
 70
     0
  9
$DIMTVP
 40
0.0
  9
$DIMTIX
 70
     0
  9
$DIMSOXD
 70
     0
  9
$DIMSAH
 70
     0
  9
$DIMBLK1
  1

  9
$DIMBLK2
  1

  9
$DIMSTYLE
  2
Standard
  9
$DIMCLRD
 70
     0
  9
$DIMCLRE
 70
     0
  9
$DIMCLRT
 70
     0
  9
$DIMTFAC
 40
1.0
  9
$DIMGAP
 40
0.09
  9
$DIMJUST
 70
     0
  9
$DIMSD1
 70
     0
  9
$DIMSD2
 70
     0
  9
$DIMTOLJ
 70
     1
  9
$DIMTZIN
 70
     0
  9
$DIMALTZ
 70
     0
  9
$DIMALTTZ
 70
     0
  9
$DIMUPT
 70
     0
  9
$DIMDEC
 70
     4
  9
$DIMTDEC
 70
     4
  9
$DIMALTU
 70
     2
  9
$DIMALTTD
 70
     2
  9
$DIMTXSTY
  7
Standard
  9
$DIMAUNIT
 70
     0
  9
$DIMADEC
 70
     0
  9
$DIMALTRND
 40
0.0
  9
$DIMAZIN
 70
     0
  9
$DIMDSEP
 70
    46
  9
$DIMATFIT
 70
     3
  9
$DIMFRAC
 70
     0
  9
$DIMLDRBLK
  1

  9
$DIMLUNIT
 70
     2
  9
$DIMLWD
 70
    -2
  9
$DIMLWE
 70
    -2
  9
$DIMTMOVE
 70
     0
  9
$LUNITS
 70
     2
  9
$LUPREC
 70
     4
  9
$SKETCHINC
 40
0.1
  9
$FILLETRAD
 40
0.0
  9
$AUNITS
 70
     0
  9
$AUPREC
 70
     0
  9
$MENU
  1
.
  9
$ELEVATION
 40
0.0
  9
$PELEVATION
 40
0.0
  9
$THICKNESS
 40
0.0
  9
$LIMCHECK
 70
     0
  9
$CHAMFERA
 40
0.0
  9
$CHAMFERB
 40
0.0
  9
$CHAMFERC
 40
0.0
  9
$CHAMFERD
 40
0.0
  9
$SKPOLY
 70
     0
  9
$TDCREATE
 40
2454861.564484954
  9
$TDUCREATE
 40
2454861.856151620
  9
$TDUPDATE
 40
2454861.597151377
  9
$TDUUPDATE
 40
2454861.888818044
  9
$TDINDWG
 40
0.0326725810
  9
$TDUSRTIMER
 40
0.0326704861
  9
$USRTIMER
 70
     1
  9
$ANGBASE
 50
0.0
  9
$ANGDIR
 70
     0
  9
$PDMODE
 70
     0
  9
$PDSIZE
 40
0.0
  9
$PLINEWID
 40
0.0
  9
$SPLFRAME
 70
     0
  9
$SPLINETYPE
 70
     6
  9
$SPLINESEGS
 70
     8
  9
$HANDSEED
  5
10D50
  9
$SURFTAB1
 70
     6
  9
$SURFTAB2
 70
     6
  9
$SURFTYPE
 70
     6
  9
$SURFU
 70
     6
  9
$SURFV
 70
     6
  9
$UCSBASE
  2

  9
$UCSNAME
  2

  9
$UCSORG
 10
0.0
 20
0.0
 30
0.0
  9
$UCSXDIR
 10
1.0
 20
0.0
 30
0.0
  9
$UCSYDIR
 10
0.0
 20
1.0
 30
0.0
  9
$UCSORTHOREF
  2

  9
$UCSORTHOVIEW
 70
     0
  9
$UCSORGTOP
 10
0.0
 20
0.0
 30
0.0
  9
$UCSORGBOTTOM
 10
0.0
 20
0.0
 30
0.0
  9
$UCSORGLEFT
 10
0.0
 20
0.0
 30
0.0
  9
$UCSORGRIGHT
 10
0.0
 20
0.0
 30
0.0
  9
$UCSORGFRONT
 10
0.0
 20
0.0
 30
0.0
  9
$UCSORGBACK
 10
0.0
 20
0.0
 30
0.0
  9
$PUCSBASE
  2

  9
$PUCSNAME
  2

  9
$PUCSORG
 10
0.0
 20
0.0
 30
0.0
  9
$PUCSXDIR
 10
1.0
 20
0.0
 30
0.0
  9
$PUCSYDIR
 10
0.0
 20
1.0
 30
0.0
  9
$PUCSORTHOREF
  2

  9
$PUCSORTHOVIEW
 70
     0
  9
$PUCSORGTOP
 10
0.0
 20
0.0
 30
0.0
  9
$PUCSORGBOTTOM
 10
0.0
 20
0.0
 30
0.0
  9
$PUCSORGLEFT
 10
0.0
 20
0.0
 30
0.0
  9
$PUCSORGRIGHT
 10
0.0
 20
0.0
 30
0.0
  9
$PUCSORGFRONT
 10
0.0
 20
0.0
 30
0.0
  9
$PUCSORGBACK
 10
0.0
 20
0.0
 30
0.0
  9
$USERI1
 70
     0
  9
$USERI2
 70
     0
  9
$USERI3
 70
     0
  9
$USERI4
 70
     0
  9
$USERI5
 70
     0
  9
$USERR1
 40
0.0
  9
$USERR2
 40
0.0
  9
$USERR3
 40
0.0
  9
$USERR4
 40
0.0
  9
$USERR5
 40
0.0
  9
$WORLDVIEW
 70
     1
  9
$SHADEDGE
 70
     3
  9
$SHADEDIF
 70
    70
  9
$TILEMODE
 70
     1
  9
$MAXACTVP
 70
    64
  9
$PINSBASE
 10
0.0
 20
0.0
 30
0.0
  9
$PLIMCHECK
 70
     0
  9
$PEXTMIN
 10
0.0
 20
0.0
 30
0.0
  9
$PEXTMAX
 10
0.0
 20
0.0
 30
0.0
  9
$PLIMMIN
 10
0.0
 20
0.0
  9
$PLIMMAX
 10
12.0
 20
9.0
  9
$UNITMODE
 70
     0
  9
$VISRETAIN
 70
     1
  9
$PLINEGEN
 70
     0
  9
$PSLTSCALE
 70
     1
  9
$TREEDEPTH
 70
  3020
  9
$CMLSTYLE
  2
Standard
  9
$CMLJUST
 70
     0
  9
$CMLSCALE
 40
1.0
  9
$PROXYGRAPHICS
 70
     1
  9
$MEASUREMENT
 70
     0
  9
$CELWEIGHT
370
    -1
  9
$ENDCAPS
280
     0
  9
$JOINSTYLE
280
     0
  9
$LWDISPLAY
290
     0
  9
$INSUNITS
 70
     1
  9
$HYPERLINKBASE
  1

  9
$STYLESHEET
  1

  9
$XEDIT
290
     1
  9
$CEPSNTYPE
380
     0
  9
$PSTYLEMODE
290
     1
  9
$FINGERPRINTGUID
  2
{FDEAD576-A652-11D2-9A35-0060089B3A3F}
  9
$VERSIONGUID
  2
{6600EC68-8BC7-441A-A17D-ACADACE8C721}
  9
$EXTNAMES
290
     1
  9
$PSVPSCALE
 40
0.0
  9
$OLESTARTUP
290
     0
  0
ENDSEC
  0
SECTION
  2
CLASSES
  0
CLASS
  1
ACDBDICTIONARYWDFLT
  2
AcDbDictionaryWithDefault
  3
ObjectDBX Classes
 90
        0
280
     0
281
     0
  0
CLASS
  1
ACDBPLACEHOLDER
  2
AcDbPlaceHolder
  3
ObjectDBX Classes
 90
        0
280
     0
281
     0
  0
CLASS
  1
LAYOUT
  2
AcDbLayout
  3
ObjectDBX Classes
 90
        0
280
     0
281
     0
  0
CLASS
  1
DICTIONARYVAR
  2
AcDbDictionaryVar
  3
ObjectDBX Classes
 90
        0
280
     0
281
     0
  0
CLASS
  1
SORTENTSTABLE
  2
AcDbSortentsTable
  3
ObjectDBX Classes
 90
        0
280
     0
281
     0
  0
ENDSEC
  0
SECTION
  2
TABLES
  0
TABLE
  2
VPORT
  5
8
330
0
100
AcDbSymbolTable
 70
    80
  0
VPORT
  5
10D42
330
8
100
AcDbSymbolTableRecord
100
AcDbViewportTableRecord
  2
*Active
 70
     0
 10
0.0
 20
0.0
 11
1.0
 21
1.0
 12
-162.4826876048736
 22
446.2977505838016
 13
0.0
 23
0.0
 14
0.5
 24
0.5
 15
0.5
 25
0.5
 16
0.0
 26
0.0
 36
1.0
 17
0.0
 27
0.0
 37
0.0
 40
85.48870981092205
 41
1.48433734939759
 42
50.0
 43
0.0
 44
0.0
 50
0.0
 51
0.0
 71
     0
 72
  1000
 73
     1
 74
     3
 75
     0
 76
     0
 77
     0
 78
     0
281
     0
 65
     1
110
0.0
120
0.0
130
0.0
111
1.0
121
0.0
131
0.0
112
0.0
122
1.0
132
0.0
 79
     0
146
0.0
  0
ENDTAB
  0
TABLE
  2
LTYPE
  5
5
330
0
100
AcDbSymbolTable
 70
     6
  0
LTYPE
  5
14
330
5
100
AcDbSymbolTableRecord
100
AcDbLinetypeTableRecord
  2
ByBlock
 70
     0
  3

 72
    65
 73
     0
 40
0.0
  0
LTYPE
  5
15
330
5
100
AcDbSymbolTableRecord
100
AcDbLinetypeTableRecord
  2
ByLayer
 70
     0
  3

 72
    65
 73
     0
 40
0.0
  0
LTYPE
  5
16
330
5
100
AcDbSymbolTableRecord
100
AcDbLinetypeTableRecord
  2
Continuous
 70
     0
  3
Solid line
 72
    65
 73
     0
 40
0.0
  0
LTYPE
  5
96
330
5
100
AcDbSymbolTableRecord
100
AcDbLinetypeTableRecord
  2
HIDDEN2
 70
     0
  3
Hidden (.5x) _ _ _ _ _ _ _ _ _ _ _ _ _ _ _ _ _
 72
    65
 73
     2
 40
0.1875
 49
0.125
 74
     0
 49
-0.0625
 74
     0
  0
LTYPE
  5
97
330
5
100
AcDbSymbolTableRecord
100
AcDbLinetypeTableRecord
  2
DASHED
 70
     0
  3
Dashed __ __ __ __ __ __ __ __ __ __ __ __ __ _
 72
    65
 73
     2
 40
0.75
 49
0.5
 74
     0
 49
-0.25
 74
     0
  0
LTYPE
  5
98
330
5
100
AcDbSymbolTableRecord
100
AcDbLinetypeTableRecord
  2
CENTER
 70
     0
  3
Center ____ _ ____ _ ____ _ ____ _ ____ _ ____
 72
    65
 73
     4
 40
2.0
 49
1.25
 74
     0
 49
-0.25
 74
     0
 49
0.25
 74
     0
 49
-0.25
 74
     0
  0
LTYPE
  5
99
330
5
100
AcDbSymbolTableRecord
100
AcDbLinetypeTableRecord
  2
DASHED2
 70
     0
  3
_ _ _ _ _ _ _ _ _ _ _ _ _ _ _ _ _ _ _ _ _ _ _ _
 72
    65
 73
     2
 40
0.375
 49
0.25
 74
     0
 49
-0.125
 74
     0
  0
LTYPE
  5
9A
330
5
100
AcDbSymbolTableRecord
100
AcDbLinetypeTableRecord
  2
HIDDEN
 70
     0
  3
Hidden __ __ __ __ __ __ __ __ __ __ __ __ __ _
 72
    65
 73
     2
 40
0.375
 49
0.25
 74
     0
 49
-0.125
 74
     0
  0
ENDTAB
  0
TABLE
  2
LAYER
  5
2
102
{ACAD_XDICTIONARY
360
A9
102
}
330
0
100
AcDbSymbolTable
 70
    11
  0
LAYER
  5
10
330
2
100
AcDbSymbolTableRecord
100
AcDbLayerTableRecord
  2
0
 70
     0
 62
     7
  6
Continuous
370
    -3
390
F
  0
LAYER
  5
9B
330
2
100
AcDbSymbolTableRecord
100
AcDbLayerTableRecord
  2
DIM
 70
     0
 62
     3
  6
Continuous
370
    13
390
F
  0
LAYER
  5
9C
330
2
100
AcDbSymbolTableRecord
100
AcDbLayerTableRecord
  2
Defpoints
 70
     0
 62
   252
  6
Continuous
290
     0
370
    -3
390
F
  0
LAYER
  5
9D
330
2
100
AcDbSymbolTableRecord
100
AcDbLayerTableRecord
  2
A2 Hatch
 70
     0
 62
     8
  6
Continuous
370
     9
390
F
  0
LAYER
  5
9E
330
2
100
AcDbSymbolTableRecord
100
AcDbLayerTableRecord
  2
DETAILS
 70
     0
 62
     7
  6
Continuous
370
    13
390
F
  0
LAYER
  5
9F
330
2
100
AcDbSymbolTableRecord
100
AcDbLayerTableRecord
  2
A4 medium
 70
     0
 62
     7
  6
Continuous
370
    35
390
F
  0
LAYER
  5
A0
330
2
100
AcDbSymbolTableRecord
100
AcDbLayerTableRecord
  2
REBAR
 70
     0
 62
     2
  6
CENTER
370
    30
390
F
  0
LAYER
  5
28AC
330
2
100
AcDbSymbolTableRecord
100
AcDbLayerTableRecord
  2
A5 heavy
 70
     0
 62
     5
  6
Continuous
370
    53
390
F
  0
LAYER
  5
2FC3
330
2
100
AcDbSymbolTableRecord
100
AcDbLayerTableRecord
  2
GRADE
 70
     0
 62
     5
  6
Continuous
370
   100
390
F
  0
LAYER
  5
51AE
330
2
100
AcDbSymbolTableRecord
100
AcDbLayerTableRecord
  2
HANGERS
 70
     0
 62
   253
  6
Continuous
370
    -3
390
F
  0
LAYER
  5
FD8D
330
2
100
AcDbSymbolTableRecord
100
AcDbLayerTableRecord
  2
A1 fine
 70
     0
 62
   251
  6
Continuous
370
     5
390
F
  0
ENDTAB
  0
TABLE
  2
STYLE
  5
3
330
0
100
AcDbSymbolTable
 70
     5
  0
STYLE
  5
11
330
3
100
AcDbSymbolTableRecord
100
AcDbTextStyleTableRecord
  2
Standard
 70
     0
 40
0.0
 41
1.0
 50
0.0
 71
     0
 42
0.2
  3
txt
  4

  0
STYLE
  5
A1
330
3
100
AcDbSymbolTableRecord
100
AcDbTextStyleTableRecord
  2
ARCHITXT
 70
     0
 40
0.0
 41
1.25
 50
0.0
 71
     0
 42
1.0
  3
ARCHITXT.shx
  4

  0
STYLE
  5
A2
330
3
100
AcDbSymbolTableRecord
100
AcDbTextStyleTableRecord
  2
ARCTEXT
 70
     0
 40
0.0
 41
0.85
 50
0.0
 71
     0
 42
5.096770384644268
  3
arctext.shx
  4

  0
STYLE
  5
A3
330
3
100
AcDbSymbolTableRecord
100
AcDbTextStyleTableRecord
  2
ROMAND
 70
     0
 40
0.0
 41
0.85
 50
0.0
 71
     0
 42
6.0
  3
romand.shx
  4

  0
STYLE
  5
A4
330
3
100
AcDbSymbolTableRecord
100
AcDbTextStyleTableRecord
  2
RomanC
 70
     0
 40
5.0
 41
0.85
 50
0.0
 71
     0
 42
10.0
  3
romanc.shx
  4

  0
ENDTAB
  0
TABLE
  2
VIEW
  5
6
330
0
100
AcDbSymbolTable
 70
     0
  0
ENDTAB
  0
TABLE
  2
UCS
  5
7
330
0
100
AcDbSymbolTable
 70
     0
  0
ENDTAB
  0
TABLE
  2
APPID
  5
9
330
0
100
AcDbSymbolTable
 70
     1
  0
APPID
  5
12
330
9
100
AcDbSymbolTableRecord
100
AcDbRegAppTableRecord
  2
ACAD
 70
     0
  0
ENDTAB
  0
TABLE
  2
DIMSTYLE
  5
A
330
0
100
AcDbSymbolTable
 70
     5
100
AcDbDimStyleTable
 71
     0
  0
DIMSTYLE
105
27
330
A
100
AcDbSymbolTableRecord
100
AcDbDimStyleTableRecord
  2
Standard
 70
     0
340
11
  0
DIMSTYLE
105
A5
330
A
100
AcDbSymbolTableRecord
100
AcDbDimStyleTableRecord
  2
Copy of ROMANS
 70
     0
 41
0.75
 42
0.125
 43
0.125
 44
0.125
 73
     0
 74
     0
 77
     1
 78
     3
140
1.0
141
6.0
147
0.25
172
     1
175
     1
176
     2
177
     2
178
     2
271
     3
272
     3
273
     4
275
     1
277
     4
279
     2
284
     3
285
     3
286
     3
340
A1
  0
DIMSTYLE
105
A6
330
A
100
AcDbSymbolTableRecord
100
AcDbDimStyleTableRecord
  2
ARCTEXT
 70
     0
 40
0.0
 41
2.0
 42
1.0
 43
0.375
 44
0.1875
 73
     0
 74
     0
140
4.0
141
2.0
147
2.0
176
     2
177
     2
178
     2
277
     4
340
A2
341
8D
342
89
  0
DIMSTYLE
105
A7
102
{ACAD_REACTORS
330
1B1
330
1B7
330
1B6
330
199
330
1F8
330
1E9
330
1E8
330
19D
330
19C
330
481
102
}
330
A
100
AcDbSymbolTableRecord
100
AcDbDimStyleTableRecord
  2
ARCTEXT1-4
 70
     0
 41
2.0
 42
2.0
 43
2.0
 44
2.0
 73
     0
 74
     0
 77
     1
 78
     3
140
4.0
141
2.0
147
2.0
172
     1
175
     1
275
     1
277
     4
279
     2
340
A2
341
8D
342
89
  0
DIMSTYLE
105
A8
330
A
100
AcDbSymbolTableRecord
100
AcDbDimStyleTableRecord
  2
ARCTEXT 1-1
 70
     0
 40
0.0
 41
1.0
 42
1.0
 43
0.375
 44
0.1875
 73
     0
 74
     0
 77
     1
 78
     3
140
1.0
141
1.0
147
0.5
176
   256
177
   256
178
   256
277
     4
279
     2
340
A2
341
8D
342
89
  0
ENDTAB
  0
TABLE
  2
BLOCK_RECORD
  5
1
330
0
100
AcDbSymbolTable
 70
    45
  0
BLOCK_RECORD
  5
1F
330
1
100
AcDbSymbolTableRecord
100
AcDbBlockTableRecord
  2
*Model_Space
340
22
  0
BLOCK_RECORD
  5
58
330
1
100
AcDbSymbolTableRecord
100
AcDbBlockTableRecord
  2
*Paper_Space
340
59
  0
BLOCK_RECORD
  5
5D
330
1
100
AcDbSymbolTableRecord
100
AcDbBlockTableRecord
  2
*Paper_Space0
340
5E
  0
BLOCK_RECORD
  5
89
330
1
100
AcDbSymbolTableRecord
100
AcDbBlockTableRecord
  2
_ArchTick
340
0
  0
BLOCK_RECORD
  5
8D
330
1
100
AcDbSymbolTableRecord
100
AcDbBlockTableRecord
  2
arrow
340
0
310
2800000020000000200000000100080000000000000400000000000000000000000000000000000000000000000080000080000000808000800000008000800080800000C0C0C000C0DCC000F0CAA6000020400000206000002080000020A0000020C0000020E00000400000004020000040400000406000004080000040A0
310
000040C0000040E00000600000006020000060400000606000006080000060A0000060C0000060E00000800000008020000080400000806000008080000080A0000080C0000080E00000A0000000A0200000A0400000A0600000A0800000A0A00000A0C00000A0E00000C0000000C0200000C0400000C0600000C0800000C0
310
A00000C0C00000C0E00000E0000000E0200000E0400000E0600000E0800000E0A00000E0C00000E0E00040000000400020004000400040006000400080004000A0004000C0004000E00040200000402020004020400040206000402080004020A0004020C0004020E000404000004040200040404000404060004040800040
310
40A0004040C0004040E00040600000406020004060400040606000406080004060A0004060C0004060E00040800000408020004080400040806000408080004080A0004080C0004080E00040A0000040A0200040A0400040A0600040A0800040A0A00040A0C00040A0E00040C0000040C0200040C0400040C0600040C08000
310
40C0A00040C0C00040C0E00040E0000040E0200040E0400040E0600040E0800040E0A00040E0C00040E0E00080000000800020008000400080006000800080008000A0008000C0008000E00080200000802020008020400080206000802080008020A0008020C0008020E00080400000804020008040400080406000804080
310
008040A0008040C0008040E00080600000806020008060400080606000806080008060A0008060C0008060E00080800000808020008080400080806000808080008080A0008080C0008080E00080A0000080A0200080A0400080A0600080A0800080A0A00080A0C00080A0E00080C0000080C0200080C0400080C0600080C0
310
800080C0A00080C0C00080C0E00080E0000080E0200080E0400080E0600080E0800080E0A00080E0C00080E0E000C0000000C0002000C0004000C0006000C0008000C000A000C000C000C000E000C0200000C0202000C0204000C0206000C0208000C020A000C020C000C020E000C0400000C0402000C0404000C0406000C0
310
408000C040A000C040C000C040E000C0600000C0602000C0604000C0606000C0608000C060A000C060C000C060E000C0800000C0802000C0804000C0806000C0808000C080A000C080C000C080E000C0A00000C0A02000C0A04000C0A06000C0A08000C0A0A000C0A0C000C0A0E000C0C00000C0C02000C0C04000C0C06000
310
C0C08000C0C0A000F0FBFF00A4A0A000808080000000FF0000FF000000FFFF00FF000000FF00FF00FFFF0000FFFFFF0000000000000000000000000000000000000000000000000000000000000000000000000000000000000000000000000000000000000000000000000000000000000000000000000000000000000000
310
0000000000000000000000000000000000000000000000000000000000000000000000000000000000000000000000000000000000000000000000000000000000000000000000000000000000000000000000000000000000000000000000000000000000000000000000000000000000000000000000FA00000000000000
310
000000000000000000000000000000000000000000000000FA00000000000000000000000000000000000000000000000000000000000000FA0000000000000000000000000000000000000000000000000000FAFA000000FA00000000000000000000000000000000000000000000000000000000FAFA00FA000000000000
310
000000000000000000000000000000000000000000000000FAF7F7000000000000000000000000000000000000000000000000000000000000F7F7F7F7F7F70000000000000000000000000000000000000000000000000000F7F7F7F7F7F7F7F7F7F700000000000000000000000000000000000000000000F7F7F7F7F7F7
310
F7F7F7F7F7F7F7F7000000000000000000000000000000000000F7F7F7F7F7F7F7F7F7F7F7F7F7F7F7F7F7F70000000000FAFA00000000000000F7F7F7F7F7F7F7F7F7F7F7F7F7F7F7F7F7F7F7F7F7FAFAFAFA00000000000000F7F7F7F7F7F7F7F7F7F7F7F7F7F7F7F7F7F70000000000000000000000000000F7F7F7F7F7
310
F7F7F7F7F7F7F7F700000000000000000000000000000000000000F7F7F7F7F7F7F7F70000000000000000000000000000000000000000000000FAF7F7F70000000000000000000000000000000000000000000000000000FAFA00FA0000000000000000000000000000000000000000000000000000FAFA000000FA000000
310
00000000000000000000000000000000000000000000000000000000FA00000000000000000000000000000000000000000000000000000000000000FA00000000000000000000000000000000000000000000000000000000000000FA00000000000000000000000000000000000000000000000000000000000000000000
310
00000000000000000000000000000000000000000000000000000000000000000000000000000000000000000000000000000000000000000000000000000000000000000000000000000000000000000000000000000000000000000000000000000000000000000000000000000000000000000000000000000000000000
310
0000000000000000000000000000000000000000000000000000000000000000000000000000000000000000000000000000000000000000
1001
ACAD
1000
DesignCenter Data
1002
{
1070
     1
1070
     1
1002
}
  0
ENDTAB
  0
ENDSEC
  0
SECTION
  2
BLOCKS
  0
BLOCK
  5
20
330
1F
100
AcDbEntity
  8
0
100
AcDbBlockBegin
  2
*Model_Space
 70
     0
 10
0.0
 20
0.0
 30
0.0
  3
*Model_Space
  1

  0
ENDBLK
  5
21
330
1F
100
AcDbEntity
  8
0
100
AcDbBlockEnd
  0
BLOCK
  5
5A
330
58
100
AcDbEntity
 67
     1
  8
0
100
AcDbBlockBegin
  2
*Paper_Space
 70
     0
 10
0.0
 20
0.0
 30
0.0
  3
*Paper_Space
  1

  0
ENDBLK
  5
5B
330
58
100
AcDbEntity
 67
     1
  8
0
100
AcDbBlockEnd
  0
BLOCK
  5
5F
330
5D
100
AcDbEntity
  8
0
100
AcDbBlockBegin
  2
*Paper_Space0
 70
     0
 10
0.0
 20
0.0
 30
0.0
  3
*Paper_Space0
  1

  0
ENDBLK
  5
60
330
5D
100
AcDbEntity
  8
0
100
AcDbBlockEnd
  0
BLOCK
  5
8A
330
89
100
AcDbEntity
  8
0
100
AcDbBlockBegin
  2
_ArchTick
 70
     0
 10
0.0
 20
0.0
 30
0.0
  3
_ArchTick
  1

  0
LWPOLYLINE
  5
8B
330
89
100
AcDbEntity
  8
0
  6
ByBlock
 62
     0
100
AcDbPolyline
 90
        2
 70
     0
 43
0.15
 10
-0.5
 20
-0.5
 10
0.5
 20
0.5
  0
ENDBLK
  5
8C
330
89
100
AcDbEntity
  8
0
100
AcDbBlockEnd
  0
BLOCK
  5
8E
330
8D
100
AcDbEntity
  8
0
100
AcDbBlockBegin
  2
arrow
 70
     0
 10
0.0
 20
0.0
 30
0.0
  3
arrow
  1

  0
HATCH
  5
8F
330
8D
100
AcDbEntity
  8
DIM
 62
   253
100
AcDbHatch
 10
0.0
 20
0.0
 30
0.0
210
0.0
220
0.0
230
1.0
  2
SOLID
 70
     1
 71
     0
 91
        1
 92
        7
 72
     0
 73
     1
 93
        3
 10
-2.0
 20
0.5
 10
-2.0
 20
-0.5
 10
0.0
 20
0.0
 97
        0
 75
     0
 76
     1
 47
0.0337394080685346
 98
        1
 10
-1.103351122172171
 20
0.05064816270351
  0
LWPOLYLINE
  5
90
330
8D
100
AcDbEntity
  8
DIM
370
    15
100
AcDbPolyline
 90
        4
 70
     0
 43
0.0
 10
0.0
 20
0.0
 10
-2.0
 20
-0.5
 10
-2.0
 20
0.5
 10
0.0
 20
0.0
  0
LWPOLYLINE
  5
91
330
8D
100
AcDbEntity
  8
DIM
370
     9
100
AcDbPolyline
 90
        2
 70
     0
 43
0.0
 10
0.3742552490839444
 20
0.0935638122700766
 10
0.0
 20
0.0
  0
LWPOLYLINE
  5
92
330
8D
100
AcDbEntity
  8
DIM
370
     9
100
AcDbPolyline
 90
        3
 70
     0
 43
0.0
 10
-2.0
 20
-0.9831764405007561
 10
-2.0
 20
-0.5
 10
-2.46875
 20
-0.6171875
  0
LWPOLYLINE
  5
93
330
8D
100
AcDbEntity
  8
DIM
370
     9
100
AcDbPolyline
 90
        3
 70
     0
 43
0.0
 10
-2.0
 20
0.9831764405007561
 10
-2.0
 20
0.5
 10
-2.46875
 20
0.6171875
  0
LWPOLYLINE
  5
94
330
8D
100
AcDbEntity
  8
DIM
370
     9
100
AcDbPolyline
 90
        2
 70
     0
 43
0.0
 10
0.3742552490839444
 20
-0.0935638122700766
 10
0.0
 20
0.0
  0
ENDBLK
  5
95
330
8D
100
AcDbEntity
  8
0
100
AcDbBlockEnd
  0
ENDSEC
  0
SECTION
  2
ENTITIES
  0
LINE
  5
10B4C
330
1F
100
AcDbEntity
  8
0
 62
     1
100
AcDbLine
 10
-172.3878336481765
 20
452.0919856793233
 30
0.0
 11
-170.3878336481765
 21
452.0919856793233
 31
0.0
  0
LINE
  5
10B4D
330
1F
100
AcDbEntity
  8
0
  6
HIDDEN
 62
     1
 48
0.02
100
AcDbLine
 10
-172.0378336481761
 20
452.5919856793233
 30
0.0
 11
-171.4128336481761
 21
452.5919856793233
 31
0.0
  0
LINE
  5
10B4E
330
1F
100
AcDbEntity
  8
0
  6
HIDDEN
 62
     1
 48
0.02
100
AcDbLine
 10
-171.0128336481765
 20
452.5919856793233
 30
0.0
 11
-171.0128336481783
 21
452.0919856793233
 31
0.0
  0
LINE
  5
10B4F
330
1F
100
AcDbEntity
  8
0
  6
HIDDEN
 62
     1
 48
0.02
100
AcDbLine
 10
-171.4128336481761
 20
452.5919856793233
 30
0.0
 11
-171.4128336481761
 21
452.0919856793233
 31
0.0
  0
LINE
  5
10B50
330
1F
100
AcDbEntity
  8
0
  6
HIDDEN
 62
     1
 48
0.02
100
AcDbLine
 10
-171.0128336481783
 20
452.5919856793233
 30
0.0
 11
-170.3878336481783
 21
452.5919856793233
 31
0.0
  0
LINE
  5
10B51
330
1F
100
AcDbEntity
  8
0
 62
     1
100
AcDbLine
 10
-172.3878336481765
 20
452.0919856793233
 30
0.0
 11
-172.3878336481765
 21
440.0919856793233
 31
0.0
  0
LINE
  5
10B52
330
1F
100
AcDbEntity
  8
0
 62
     1
100
AcDbLine
 10
-172.3878336481765
 20
452.0919856793233
 30
0.0
 11
-170.8378336481772
 21
452.0919856793233
 31
0.0
  0
LINE
  5
10B53
330
1F
100
AcDbEntity
  8
0
 62
     1
100
AcDbLine
 10
-172.3878336481765
 20
440.0919856793233
 30
0.0
 11
-170.3878336481765
 21
440.0919856793233
 31
0.0
  0
LINE
  5
10B54
330
1F
100
AcDbEntity
  8
0
 62
     1
100
AcDbLine
 10
-170.3878336481765
 20
452.5919856793233
 30
0.0
 11
-170.3878336481765
 21
440.0919856793233
 31
0.0
  0
LINE
  5
10B55
330
1F
100
AcDbEntity
  8
0
 62
     1
100
AcDbLine
 10
-172.0378336481761
 20
452.5919856793233
 30
0.0
 11
-171.4128336481761
 21
452.5919856793233
 31
0.0
  0
LINE
  5
10B56
330
1F
100
AcDbEntity
  8
0
 62
     1
100
AcDbLine
 10
-172.0378336481761
 20
452.5919856793233
 30
0.0
 11
-172.0378336481761
 21
440.0919856793233
 31
0.0
  0
LINE
  5
10B57
330
1F
100
AcDbEntity
  8
0
 62
     1
100
AcDbLine
 10
-171.0128336481765
 20
452.5919856793233
 30
0.0
 11
-171.0128336481783
 21
452.0919856793233
 31
0.0
  0
LINE
  5
10B58
330
1F
100
AcDbEntity
  8
0
 62
     1
100
AcDbLine
 10
-171.4128336481761
 20
452.5919856793233
 30
0.0
 11
-171.4128336481761
 21
452.0919856793233
 31
0.0
  0
LINE
  5
10B59
330
1F
100
AcDbEntity
  8
0
 62
     1
100
AcDbLine
 10
-171.0128336481783
 20
452.5919856793233
 30
0.0
 11
-170.3878336481783
 21
452.5919856793233
 31
0.0
  0
LINE
  5
10B5A
330
1F
100
AcDbEntity
  8
0
 62
     1
100
AcDbLine
 10
-170.5878336481772
 20
452.3419856793233
 30
0.0
 11
-170.5878336481772
 21
440.0919856793233
 31
0.0
  0
LINE
  5
10B5B
330
1F
100
AcDbEntity
  8
0
 62
     1
100
AcDbLine
 10
-170.8378336481772
 20
452.3419856793233
 30
0.0
 11
-170.8378336481772
 21
452.0919856793233
 31
0.0
  0
LINE
  5
10B5C
330
1F
100
AcDbEntity
  8
0
 62
     1
100
AcDbLine
 10
-170.8378336481772
 20
452.3419856793233
 30
0.0
 11
-170.5878336481772
 21
452.3419856793233
 31
0.0
  0
LINE
  5
10B5D
330
1F
100
AcDbEntity
  8
0
 62
     1
100
AcDbLine
 10
-170.5878336481772
 20
452.0919856793233
 30
0.0
 11
-170.3878336481783
 21
452.0919856793233
 31
0.0
  0
LINE
  5
10B5E
330
1F
100
AcDbEntity
  8
0
 48
0.15
100
AcDbLine
 10
-171.4128336481761
 20
452.0919856793233
 30
0.0
 11
-171.0128336481765
 21
452.0919856793233
 31
0.0
  0
LINE
  5
10B5F
330
1F
100
AcDbEntity
  8
A2 Hatch
  6
DASHED2
 48
0.15
100
AcDbLine
 10
-171.6228336481771
 20
452.5919856793233
 30
0.0
 11
-171.6228336481771
 21
440.0919856793233
 31
0.0
  0
LINE
  5
10B60
330
1F
100
AcDbEntity
  8
A2 Hatch
  6
DASHED2
 48
0.15
100
AcDbLine
 10
-170.8028336481774
 20
452.5919856793233
 30
0.0
 11
-170.8028336481774
 21
440.0919856793233
 31
0.0
  0
LINE
  5
10B61
330
1F
100
AcDbEntity
  8
0
 62
     1
100
AcDbLine
 10
-171.4628336481772
 20
452.5919856793233
 30
0.0
 11
-171.4628336481772
 21
440.0919856793233
 31
0.0
  0
LINE
  5
10B62
330
1F
100
AcDbEntity
  8
0
 62
     1
100
AcDbLine
 10
-170.9628336481772
 20
452.5919856793233
 30
0.0
 11
-170.9628336481772
 21
440.0919856793233
 31
0.0
  0
LINE
  5
10B63
330
1F
100
AcDbEntity
  8
0
 62
     1
100
AcDbLine
 10
-170.9628336481772
 20
452.0919856793233
 30
0.0
 11
-171.4628336481772
 21
452.0919856793233
 31
0.0
  0
LINE
  5
10B64
330
1F
100
AcDbEntity
  8
0
  6
HIDDEN
 62
     1
 48
0.02
100
AcDbLine
 10
-172.0378336481761
 20
440.5919856793233
 30
0.0
 11
-171.4128336481761
 21
440.5919856793233
 31
0.0
  0
LINE
  5
10B65
330
1F
100
AcDbEntity
  8
0
  6
HIDDEN
 62
     1
 48
0.02
100
AcDbLine
 10
-171.0128336481765
 20
440.5919856793233
 30
0.0
 11
-171.0128336481783
 21
440.0919856793233
 31
0.0
  0
LINE
  5
10B66
330
1F
100
AcDbEntity
  8
0
  6
HIDDEN
 62
     1
 48
0.02
100
AcDbLine
 10
-171.4128336481761
 20
440.5919856793233
 30
0.0
 11
-171.4128336481761
 21
440.0919856793233
 31
0.0
  0
LINE
  5
10B67
330
1F
100
AcDbEntity
  8
0
  6
HIDDEN
 62
     1
 48
0.02
100
AcDbLine
 10
-171.0128336481783
 20
440.5919856793233
 30
0.0
 11
-170.3878336481783
 21
440.5919856793233
 31
0.0
  0
LINE
  5
10B68
330
1F
100
AcDbEntity
  8
0
 62
     1
100
AcDbLine
 10
-160.3878336481765
 20
442.0919856793233
 30
0.0
 11
-160.3878336481765
 21
440.0919856793233
 31
0.0
  0
LINE
  5
10B69
330
1F
100
AcDbEntity
  8
0
 62
     1
100
AcDbLine
 10
-162.3878336481765
 20
442.0919856793233
 30
0.0
 11
-162.3878336481765
 21
440.0919856793233
 31
0.0
  0
LINE
  5
10B6A
330
1F
100
AcDbEntity
  8
0
 62
     1
100
AcDbLine
 10
-162.1878336481758
 20
442.0919856793233
 30
0.0
 11
-162.1878336481758
 21
440.0919856793233
 31
0.0
  0
LINE
  5
10B6B
330
1F
100
AcDbEntity
  8
0
 62
     1
100
AcDbLine
 10
-161.9728336481774
 20
442.0919856793233
 30
0.0
 11
-161.9728336481756
 21
440.0919856793233
 31
0.0
  0
LINE
  5
10B6C
330
1F
100
AcDbEntity
  8
0
 62
     1
100
AcDbLine
 10
-161.1528336481759
 20
442.0919856793233
 30
0.0
 11
-161.1528336481759
 21
440.0919856793233
 31
0.0
  0
LINE
  5
10B6D
330
1F
100
AcDbEntity
  8
A2 Hatch
  6
DASHED2
 48
0.15
100
AcDbLine
 10
-161.8128336481758
 20
442.0919856793233
 30
0.0
 11
-161.8128336481758
 21
440.0919856793233
 31
0.0
  0
LINE
  5
10B6E
330
1F
100
AcDbEntity
  8
A2 Hatch
  6
DASHED2
 48
0.15
100
AcDbLine
 10
-161.3128336481776
 20
442.0919856793233
 30
0.0
 11
-161.3128336481758
 21
440.0919856793233
 31
0.0
  0
LINE
  5
10B6F
330
1F
100
AcDbEntity
  8
0
 62
     1
100
AcDbLine
 10
-162.3878336481765
 20
440.0919856793233
 30
0.0
 11
-160.3878336481765
 21
440.0919856793233
 31
0.0
  0
LINE
  5
10B70
330
1F
100
AcDbEntity
  8
0
  6
HIDDEN
 62
     1
 48
0.02
100
AcDbLine
 10
-160.737833648175
 20
440.5919856793235
 30
0.0
 11
-160.737833648175
 21
440.0919856793235
 31
0.0
  0
LINE
  5
10B71
330
1F
100
AcDbEntity
  8
0
  6
HIDDEN
 62
     1
 48
0.02
100
AcDbLine
 10
-161.7628336481747
 20
440.5919856793235
 30
0.0
 11
-161.7628336481747
 21
440.0919856793235
 31
0.0
  0
LINE
  5
10B72
330
1F
100
AcDbEntity
  8
0
  6
HIDDEN
 62
     1
 48
0.02
100
AcDbLine
 10
-161.3628336481751
 20
440.5919856793235
 30
0.0
 11
-161.3628336481751
 21
440.0919856793235
 31
0.0
  0
LINE
  5
10B73
330
1F
100
AcDbEntity
  8
0
  6
HIDDEN
 62
     1
 48
0.02
100
AcDbLine
 10
-162.3878336481747
 20
440.5919856793235
 30
0.0
 11
-161.7628336481747
 21
440.5919856793235
 31
0.0
  0
LINE
  5
10B74
330
1F
100
AcDbEntity
  8
0
  6
HIDDEN
 62
     1
 48
0.02
100
AcDbLine
 10
-161.3628336481751
 20
440.5919856793235
 30
0.0
 11
-160.737833648175
 21
440.5919856793235
 31
0.0
  0
LINE
  5
10B75
330
1F
100
AcDbEntity
  8
0
 62
     1
100
AcDbLine
 10
-172.3878336481765
 20
440.0919856793233
 30
0.0
 11
-172.3878336481765
 21
428.0919856793233
 31
0.0
  0
LINE
  5
10B76
330
1F
100
AcDbEntity
  8
0
 62
     1
100
AcDbLine
 10
-172.3878336481765
 20
440.0919856793233
 30
0.0
 11
-170.8378336481772
 21
440.0919856793233
 31
0.0
  0
LINE
  5
10B77
330
1F
100
AcDbEntity
  8
0
 62
     1
100
AcDbLine
 10
-170.3878336481765
 20
440.5919856793233
 30
0.0
 11
-170.3878336481765
 21
428.7702709332217
 31
0.0
  0
LINE
  5
10B78
330
1F
100
AcDbEntity
  8
0
 62
     1
100
AcDbLine
 10
-172.0378336481761
 20
440.5919856793233
 30
0.0
 11
-171.4128336481761
 21
440.5919856793233
 31
0.0
  0
LINE
  5
10B79
330
1F
100
AcDbEntity
  8
0
 62
     1
100
AcDbLine
 10
-172.0378336481761
 20
440.5919856793233
 30
0.0
 11
-172.0378336481761
 21
428.2106855987559
 31
0.0
  0
LINE
  5
10B7A
330
1F
100
AcDbEntity
  8
0
 62
     1
100
AcDbLine
 10
-171.0128336481765
 20
440.5919856793233
 30
0.0
 11
-171.0128336481783
 21
440.0919856793233
 31
0.0
  0
LINE
  5
10B7B
330
1F
100
AcDbEntity
  8
0
 62
     1
100
AcDbLine
 10
-171.4128336481761
 20
440.5919856793233
 30
0.0
 11
-171.4128336481761
 21
440.0919856793233
 31
0.0
  0
LINE
  5
10B7C
330
1F
100
AcDbEntity
  8
0
 62
     1
100
AcDbLine
 10
-171.0128336481783
 20
440.5919856793233
 30
0.0
 11
-170.3878336481783
 21
440.5919856793233
 31
0.0
  0
LINE
  5
10B7D
330
1F
100
AcDbEntity
  8
0
 62
     1
100
AcDbLine
 10
-170.5878336481772
 20
440.3419856793233
 30
0.0
 11
-170.5878336481772
 21
428.7024424078314
 31
0.0
  0
LINE
  5
10B7E
330
1F
100
AcDbEntity
  8
0
 62
     1
100
AcDbLine
 10
-170.8378336481772
 20
440.3419856793233
 30
0.0
 11
-170.8378336481772
 21
440.0919856793233
 31
0.0
  0
LINE
  5
10B7F
330
1F
100
AcDbEntity
  8
0
 62
     1
100
AcDbLine
 10
-170.8378336481772
 20
440.3419856793233
 30
0.0
 11
-170.5878336481772
 21
440.3419856793233
 31
0.0
  0
LINE
  5
10B80
330
1F
100
AcDbEntity
  8
0
 62
     1
100
AcDbLine
 10
-170.5878336481772
 20
440.0919856793233
 30
0.0
 11
-170.3878336481783
 21
440.0919856793233
 31
0.0
  0
LINE
  5
10B81
330
1F
100
AcDbEntity
  8
0
 48
0.15
100
AcDbLine
 10
-171.4128336481761
 20
440.0919856793233
 30
0.0
 11
-171.0128336481765
 21
440.0919856793233
 31
0.0
  0
LINE
  5
10B82
330
1F
100
AcDbEntity
  8
A2 Hatch
  6
DASHED2
 48
0.15
100
AcDbLine
 10
-171.6228336481771
 20
440.5919856793233
 30
0.0
 11
-171.6228336481771
 21
428.3514297889393
 31
0.0
  0
LINE
  5
10B83
330
1F
100
AcDbEntity
  8
A2 Hatch
  6
DASHED2
 48
0.15
100
AcDbLine
 10
-170.8028336481774
 20
440.5919856793233
 30
0.0
 11
-170.8028336481774
 21
428.6295267430379
 31
0.0
  0
LINE
  5
10B84
330
1F
100
AcDbEntity
  8
0
 62
     1
100
AcDbLine
 10
-171.4628336481772
 20
440.5919856793233
 30
0.0
 11
-171.4628336481772
 21
428.4056926092513
 31
0.0
  0
LINE
  5
10B85
330
1F
100
AcDbEntity
  8
0
 62
     1
100
AcDbLine
 10
-170.9628336481772
 20
440.5919856793233
 30
0.0
 11
-170.9628336481772
 21
428.575263922726
 31
0.0
  0
LINE
  5
10B86
330
1F
100
AcDbEntity
  8
0
 62
     1
100
AcDbLine
 10
-170.9628336481772
 20
440.0919856793233
 30
0.0
 11
-171.4628336481772
 21
440.0919856793233
 31
0.0
  0
LINE
  5
10B87
330
1F
100
AcDbEntity
  8
0
  6
HIDDEN
 62
     1
 48
0.02
100
AcDbLine
 10
-172.0378336481761
 20
428.5919856793233
 30
0.0
 11
-171.4128336481761
 21
428.5919856793233
 31
0.0
  0
LINE
  5
10B88
330
1F
100
AcDbEntity
  8
0
  6
HIDDEN
 62
     1
 48
0.02
100
AcDbLine
 10
-171.0128336481765
 20
428.5919856793233
 30
0.0
 11
-171.0128336481765
 21
428.5583067913783
 31
0.0
  0
LINE
  5
10B89
330
1F
100
AcDbEntity
  8
0
  6
HIDDEN
 62
     1
 48
0.02
100
AcDbLine
 10
-171.4128336481761
 20
428.5919856793233
 30
0.0
 11
-171.4128336481761
 21
428.4226497405987
 31
0.0
  0
LINE
  5
10B8A
330
1F
100
AcDbEntity
  8
0
  6
HIDDEN
 62
     1
 48
0.02
100
AcDbLine
 10
-171.0128336481783
 20
428.5919856793233
 30
0.0
 11
-170.9135276769765
 21
428.5919856793233
 31
0.0
  0
LINE
  5
10B8B
330
1F
100
AcDbEntity
  8
0
 62
     1
100
AcDbLine
 10
-160.3878336481765
 20
440.0919856793233
 30
0.0
 11
-160.3878336481765
 21
432.1616972027117
 31
0.0
  0
LINE
  5
10B8C
330
1F
100
AcDbEntity
  8
0
 62
     1
100
AcDbLine
 10
-162.3878336481765
 20
440.5919856793233
 30
0.0
 11
-162.3878336481765
 21
431.4834119488137
 31
0.0
  0
LINE
  5
10B8D
330
1F
100
AcDbEntity
  8
0
 62
     1
100
AcDbLine
 10
-160.7378336481769
 20
440.5919856793233
 30
0.0
 11
-160.7378336481769
 21
440.0919856793233
 31
0.0
  0
LINE
  5
10B8E
330
1F
100
AcDbEntity
  8
0
 62
     1
100
AcDbLine
 10
-161.7628336481765
 20
440.5919856793235
 30
0.0
 11
-161.7628336481765
 21
440.0919856793233
 31
0.0
  0
LINE
  5
10B8F
330
1F
100
AcDbEntity
  8
0
 62
     1
100
AcDbLine
 10
-161.3628336481769
 20
440.5919856793233
 30
0.0
 11
-161.3628336481769
 21
440.0919856793233
 31
0.0
  0
LINE
  5
10B90
330
1F
100
AcDbEntity
  8
0
 62
     1
100
AcDbLine
 10
-162.3878336481765
 20
440.5919856793233
 30
0.0
 11
-161.7628336481765
 21
440.5919856793233
 31
0.0
  0
LINE
  5
10B91
330
1F
100
AcDbEntity
  8
0
 62
     1
100
AcDbLine
 10
-161.3628336481769
 20
440.5919856793233
 30
0.0
 11
-160.7378336481769
 21
440.5919856793233
 31
0.0
  0
LINE
  5
10B92
330
1F
100
AcDbEntity
  8
0
 62
     1
100
AcDbLine
 10
-162.1878336481758
 20
440.3419856793233
 30
0.0
 11
-162.1878336481758
 21
431.5512404742038
 31
0.0
  0
LINE
  5
10B93
330
1F
100
AcDbEntity
  8
0
 62
     1
100
AcDbLine
 10
-161.9378336481758
 20
440.3419856793233
 30
0.0
 11
-161.9378336481758
 21
440.0919856793233
 31
0.0
  0
LINE
  5
10B94
330
1F
100
AcDbEntity
  8
0
 62
     1
100
AcDbLine
 10
-162.1878336481758
 20
440.3419856793233
 30
0.0
 11
-161.9378336481758
 21
440.3419856793233
 31
0.0
  0
LINE
  5
10B95
330
1F
100
AcDbEntity
  8
0
 62
     1
100
AcDbLine
 10
-161.9728336481756
 20
440.0919856793233
 30
0.0
 11
-160.3878336481765
 21
440.0919856793233
 31
0.0
  0
LINE
  5
10B96
330
1F
100
AcDbEntity
  8
0
 62
     1
100
AcDbLine
 10
-161.9728336481756
 20
440.0919856793233
 30
0.0
 11
-161.9728336481756
 21
431.6241561389976
 31
0.0
  0
LINE
  5
10B97
330
1F
100
AcDbEntity
  8
0
 62
     1
100
AcDbLine
 10
-161.1528336481759
 20
440.0919856793233
 30
0.0
 11
-161.1528336481759
 21
431.902253093096
 31
0.0
  0
LINE
  5
10B98
330
1F
100
AcDbEntity
  8
A2 Hatch
  6
DASHED2
 48
0.15
100
AcDbLine
 10
-161.8128336481758
 20
440.0919856793233
 30
0.0
 11
-161.8128336481758
 21
431.6784189593094
 31
0.0
  0
LINE
  5
10B99
330
1F
100
AcDbEntity
  8
A2 Hatch
  6
DASHED2
 48
0.15
100
AcDbLine
 10
-161.3128336481758
 20
440.0919856793233
 30
0.0
 11
-161.3128336481758
 21
431.8479902727839
 31
0.0
  0
LINE
  5
10B9A
330
1F
100
AcDbEntity
  8
0
 62
     1
100
AcDbLine
 10
-162.3878336481765
 20
440.0919856793233
 30
0.0
 11
-162.1878336481758
 21
440.0919856793233
 31
0.0
  0
LWPOLYLINE
  5
10B9B
330
1F
100
AcDbEntity
  8
DETAILS
 62
     6
370
    20
100
AcDbPolyline
 90
        4
 70
     0
 43
0.0
 10
-162.716995570613
 20
431.3717791097468
 10
-162.7579128183087
 20
431.4126963574422
 42
0.1989123673782988
 10
-162.8286234964279
 20
431.4419856793232
 10
-165.8789932853404
 20
431.4419856793234
  0
LWPOLYLINE
  5
10B9C
330
1F
100
AcDbEntity
  8
DETAILS
 62
     6
370
    20
100
AcDbPolyline
 90
        3
 70
     0
 43
0.0
 10
-164.8537704574163
 20
430.4167628514
 42
0.2862530396408763
 10
-164.7027940516335
 20
430.5651057891808
 10
-164.4913635102301
 20
431.4419856793232
  0
LWPOLYLINE
  5
10B9D
330
1F
100
AcDbEntity
  8
DETAILS
 62
     6
370
    20
100
AcDbPolyline
 90
        3
 70
     0
 43
0.0
 10
-164.7750133370945
 20
430.3380057310777
 42
0.2327280263363164
 10
-164.6055800147104
 20
430.5416658441096
 10
-164.3884977069327
 20
431.4419856793232
  0
LWPOLYLINE
  5
10B9E
330
1F
100
AcDbEntity
  8
DETAILS
 62
     6
370
    20
100
AcDbPolyline
 90
        2
 70
     1
 43
0.0
 10
-164.436721082512
 20
431.2419856793233
 10
-164.4185517838858
 20
431.2419856793233
  0
LWPOLYLINE
  5
10B9F
330
1F
100
AcDbEntity
  8
DETAILS
 62
     6
370
    20
100
AcDbPolyline
 90
        6
 70
     0
 43
0.0
 10
-164.4185517838858
 20
431.2419856793232
 42
0.279322065306064
 10
-164.374231547158
 20
431.2688401241433
 42
-0.6059183769079624
 10
-163.8027170921749
 20
431.2688401246445
 42
0.2793220653054726
 10
-163.7583968564075
 20
431.2419856793233
 10
-163.6652275577788
 20
431.2419856793233
 10
-163.7583968564075
 20
431.2419856793233
  0
LWPOLYLINE
  5
10BA0
330
1F
100
AcDbEntity
  8
DETAILS
 62
     6
370
    20
100
AcDbPolyline
 90
        7
 70
     0
 43
0.0
 10
-163.2372021401906
 20
431.4419856793232
 10
-163.1372021401902
 20
431.4419856793232
 10
-162.8872021401902
 20
431.4419856793232
 10
-163.4832786379128
 20
431.4419856793232
 10
-163.6737976437351
 20
430.6518335859442
 42
0.4853378929632635
 10
-163.508533780964
 20
430.4419856793232
 10
-163.457283748793
 20
430.4419856793232
  0
LWPOLYLINE
  5
10BA1
330
1F
100
AcDbEntity
  8
DETAILS
 62
     6
370
    20
100
AcDbPolyline
 90
        4
 70
     0
 43
0.0
 10
-163.6170041821996
 20
431.4419856793232
 10
-163.8001758917352
 20
430.6823055145367
 42
0.4853378929632635
 10
-163.508533780964
 20
430.3119856793233
 10
-163.4131952072902
 20
430.3119856793233
  0
LWPOLYLINE
  5
10BA2
330
1F
100
AcDbEntity
  8
DETAILS
 62
     6
370
    20
100
AcDbPolyline
 90
        6
 70
     0
 43
0.0
 10
-166.8677693826674
 20
431.5419856793231
 10
-169.5384651561606
 20
431.5419856793234
 10
-169.6361927630358
 20
431.5198961068237
 42
0.7807764064044151
 10
-169.6361927630358
 20
431.5140752518228
 10
-169.5384651561606
 20
431.4919856793231
 10
-166.8508122513184
 20
431.4919856793231
  0
LWPOLYLINE
  5
10BA3
330
1F
100
AcDbEntity
  8
DETAILS
 62
     6
370
    20
100
AcDbPolyline
 90
        4
 70
     0
 43
0.0
 10
-170.3878336481765
 20
432.2913541713347
 10
-170.0177544780425
 20
431.9212750012044
 42
0.1989123673781765
 10
-169.9470437999251
 20
431.8919856793235
 10
-166.9864693020998
 20
431.8919856793232
  0
LWPOLYLINE
  5
10BA4
330
1F
100
AcDbEntity
  8
DETAILS
 62
     6
370
    20
100
AcDbPolyline
 90
        4
 70
     0
 43
0.0
 10
-170.3878336481765
 20
432.4913541713339
 10
-170.1349117655671
 20
432.2384322887277
 42
0.1989123673777967
 10
-169.7813583749765
 20
432.0919856793233
 10
-167.0542978274887
 20
432.0919856793233
  0
LWPOLYLINE
  5
10BA5
330
1F
100
AcDbEntity
  8
DETAILS
 62
     6
370
    20
100
AcDbPolyline
 90
        2
 70
     0
 43
0.0
 10
-163.0997060296057
 20
431.2419856793233
 10
-163.531502013492
 20
431.2419856793233
  0
LWPOLYLINE
  5
10BA6
330
1F
100
AcDbEntity
  8
DETAILS
 62
     6
370
    20
100
AcDbPolyline
 90
        4
 70
     0
 43
0.0
 10
-162.3878336481765
 20
432.0413541713352
 10
-162.6561361230113
 20
431.773051696502
 42
0.4142135623745727
 10
-162.6561361230132
 20
431.5609196621454
 10
-162.5303089586203
 20
431.4350924977542
  0
LWPOLYLINE
  5
10BA7
330
1F
100
AcDbEntity
  8
DETAILS
 62
     6
370
    20
100
AcDbPolyline
 90
        4
 70
     0
 43
0.0
 10
-166.9355979080563
 20
431.7419856793234
 10
-169.888465156161
 20
431.7419856793234
 10
-169.888465156161
 20
431.5919856793233
 10
-166.8847265140147
 20
431.5919856793233
  0
LWPOLYLINE
  5
10BA8
330
1F
100
AcDbEntity
  8
DETAILS
 62
     6
370
    20
100
AcDbPolyline
 90
        2
 70
     1
 43
0.0
 10
-166.0395868858094
 20
437.4419856793235
 10
-166.0577561844355
 20
437.4419856793232
  0
LWPOLYLINE
  5
10BA9
330
1F
100
AcDbEntity
  8
DETAILS
 62
     6
370
    20
100
AcDbPolyline
 90
        6
 70
     0
 43
0.0
 10
-166.0577561844355
 20
437.4419856793235
 42
0.279322065306064
 10
-166.1020764211652
 20
437.4151312345035
 42
-0.2793220653060733
 10
-166.3878336481765
 20
437.2419856793234
 10
-162.8286234964279
 20
437.2419856793234
 42
0.1989123673782991
 10
-162.7579128183087
 20
437.2712750012043
 10
-162.3878336481783
 20
437.6413541713326
  0
LWPOLYLINE
  5
10BAA
330
1F
100
AcDbEntity
  8
DETAILS
 62
     6
370
    20
100
AcDbPolyline
 90
        2
 70
     1
 43
0.0
 10
-165.939586885809
 20
437.4419856793232
 10
-164.5395868858094
 20
437.4419856793232
  0
LWPOLYLINE
  5
10BAB
330
1F
100
AcDbEntity
  8
DETAILS
 62
     6
370
    20
100
AcDbPolyline
 90
        6
 70
     0
 43
0.0
 10
-164.4913635102301
 20
437.2419856793234
 10
-164.7027940516335
 20
438.1188655694658
 42
0.3464949689054692
 10
-164.8972221254815
 20
438.2719856793234
 10
-165.7395868858101
 20
438.2719856793234
 42
0.4142135623730951
 10
-165.9395868858108
 20
438.0719856793233
 10
-165.9395868858108
 20
437.2419856793234
  0
LWPOLYLINE
  5
10BAC
330
1F
100
AcDbEntity
  8
DETAILS
 62
     6
370
    20
100
AcDbPolyline
 90
        6
 70
     0
 43
0.0
 10
-164.3884977069327
 20
437.2419856793234
 10
-164.6055800147104
 20
438.142305514537
 42
0.3464949689054692
 10
-164.8972221254815
 20
438.3719856793235
 10
-165.7395868858101
 20
438.3719856793235
 42
0.4142135623730951
 10
-166.0395868858094
 20
438.0719856793233
 10
-166.0395868858094
 20
437.2419856793234
  0
LWPOLYLINE
  5
10BAD
330
1F
100
AcDbEntity
  8
DETAILS
 62
     6
370
    20
100
AcDbPolyline
 90
        2
 70
     1
 43
0.0
 10
-164.436721082512
 20
437.4419856793235
 10
-164.4185517838858
 20
437.4419856793232
  0
LWPOLYLINE
  5
10BAE
330
1F
100
AcDbEntity
  8
DETAILS
 62
     6
370
    20
100
AcDbPolyline
 90
        6
 70
     0
 43
0.0
 10
-163.7583968564075
 20
437.4419856793235
 10
-163.6652275577788
 20
437.4419856793235
 10
-163.7583968564075
 20
437.4419856793235
 42
0.2793220653054726
 10
-163.8027170931353
 20
437.4151312345032
 42
-0.6059183769079625
 10
-164.3742315481166
 20
437.4151312340021
 42
0.279322065306064
 10
-164.4185517838858
 20
437.4419856793235
  0
LWPOLYLINE
  5
10BAF
330
1F
100
AcDbEntity
  8
DETAILS
 62
     6
370
    20
100
AcDbPolyline
 90
        7
 70
     0
 43
0.0
 10
-162.3878336481765
 20
438.2419856793234
 10
-163.508533780964
 20
438.2419856793234
 42
0.4853378929632635
 10
-163.6737976437333
 20
438.0321377727026
 10
-163.4832786379128
 20
437.2419856793234
 10
-162.8872021401902
 20
437.2419856793234
 10
-163.137202140192
 20
437.2419856793234
 10
-163.2372021401906
 20
437.2419856793234
  0
LWPOLYLINE
  5
10BB0
330
1F
100
AcDbEntity
  8
DETAILS
 62
     6
370
    20
100
AcDbPolyline
 90
        4
 70
     0
 43
0.0
 10
-162.3878336481765
 20
438.3719856793232
 10
-163.508533780964
 20
438.3719856793235
 42
0.4853378929632635
 10
-163.8001758917352
 20
438.0016658441099
 10
-163.6170041821996
 20
437.2419856793234
  0
LWPOLYLINE
  5
10BB1
330
1F
100
AcDbEntity
  8
DETAILS
 62
     6
370
    20
100
AcDbPolyline
 90
       10
 70
     1
 43
0.0
 10
-166.3878336481765
 20
437.1919856793234
 10
-169.5384651561606
 20
437.1919856793234
 10
-169.6361927630358
 20
437.1698961068237
 42
0.7807764064044151
 10
-169.6361927630358
 20
437.164075251823
 10
-169.5384651561606
 20
437.1419856793234
 10
-166.3878336481765
 20
437.1419856793234
 10
-163.2372021401906
 20
437.1419856793234
 10
-163.1394745333153
 20
437.164075251823
 42
0.7807764064044151
 10
-163.1394745333153
 20
437.1698961068237
 10
-163.2372021401906
 20
437.1919856793234
  0
LWPOLYLINE
  5
10BB2
330
1F
100
AcDbEntity
  8
DETAILS
 62
     6
370
    20
100
AcDbPolyline
 90
        7
 70
     0
 43
0.0
 10
-162.3878336481783
 20
436.3926171873144
 10
-162.7579128183087
 20
436.7626963574424
 42
0.1989123673781766
 10
-162.8286234964279
 20
436.7919856793234
 10
-166.3878336481765
 20
436.7919856793234
 10
-169.9470437999251
 20
436.7919856793234
 42
0.1989123673781765
 10
-170.0177544780425
 20
436.7626963574424
 10
-170.3878336481765
 20
436.3926171873116
  0
LWPOLYLINE
  5
10BB3
330
1F
100
AcDbEntity
  8
DETAILS
 62
     6
370
    20
100
AcDbPolyline
 90
        7
 70
     0
 43
0.0
 10
-162.3878336481765
 20
436.1926171873159
 10
-162.640755530784
 20
436.4455390699191
 42
0.1989123673777966
 10
-162.9943089213746
 20
436.5919856793233
 10
-166.3878336481765
 20
436.5919856793233
 10
-169.7813583749765
 20
436.5919856793233
 42
0.1989123673777966
 10
-170.1349117655671
 20
436.4455390699191
 10
-170.3878336481765
 20
436.1926171873125
  0
LWPOLYLINE
  5
10BB4
330
1F
100
AcDbEntity
  8
DETAILS
 62
     6
370
    20
100
AcDbPolyline
 90
        4
 70
     0
 43
0.0
 10
-163.531502013492
 20
437.4419856793232
 10
-162.9943089213765
 20
437.4419856793235
 42
0.1989123673788307
 10
-162.640755530784
 20
437.588432288729
 10
-162.3878336481783
 20
437.8413541713345
  0
LWPOLYLINE
  5
10BB5
330
1F
100
AcDbEntity
  8
DETAILS
 62
     6
370
    20
100
AcDbPolyline
 90
        4
 70
     0
 43
0.0
 10
-162.3878336481783
 20
437.391354171336
 10
-162.6561361230132
 20
437.1230516965011
 42
0.4142135623745727
 10
-162.6561361230113
 20
436.9109196621447
 10
-162.3878336481765
 20
436.6426171873121
  0
LWPOLYLINE
  5
10BB6
330
1F
100
AcDbEntity
  8
DETAILS
 62
     6
370
    20
100
AcDbPolyline
 90
        6
 70
     1
 43
0.0
 10
-166.3878336481765
 20
437.0919856793233
 10
-162.8872021401902
 20
437.0919856793233
 10
-162.8872021401902
 20
436.9419856793235
 10
-166.3878336481765
 20
436.9419856793232
 10
-169.888465156161
 20
436.9419856793232
 10
-169.888465156161
 20
437.0919856793235
  0
LWPOLYLINE
  5
10BB7
330
1F
100
AcDbEntity
  8
DETAILS
 62
     6
370
    20
100
AcDbPolyline
 90
        4
 70
     0
 43
0.0
 10
-166.8338551199712
 20
431.4419856793232
 10
-169.9470437999251
 20
431.4419856793232
 42
0.1989123673782987
 10
-170.0177544780425
 20
431.4126963574422
 10
-170.3878336481765
 20
431.0426171873115
  0
LWPOLYLINE
  5
10BB8
330
1F
100
AcDbEntity
  8
DETAILS
 62
     6
370
    20
100
AcDbPolyline
 90
        2
 70
     1
 43
0.0
 10
-166.8360804105422
 20
431.2419856793233
 10
-168.2360804105436
 20
431.2419856793233
  0
LWPOLYLINE
  5
10BB9
330
1F
100
AcDbEntity
  8
DETAILS
 62
     6
370
    20
100
AcDbPolyline
 90
        6
 70
     0
 43
0.0
 10
-168.2843037861229
 20
431.4419856793232
 10
-168.0728732447177
 20
430.5651057891808
 42
0.3464949689054692
 10
-167.8784451708696
 20
430.4119856793232
 10
-167.0360804105429
 20
430.4119856793232
 42
0.4142135623730951
 10
-166.8360804105422
 20
430.6119856793233
 10
-166.8360804105422
 20
431.4419856793232
  0
LWPOLYLINE
  5
10BBA
330
1F
100
AcDbEntity
  8
DETAILS
 62
     6
370
    20
100
AcDbPolyline
 90
        6
 70
     0
 43
0.0
 10
-168.3871695894203
 20
431.4419856793232
 10
-168.1700872816426
 20
430.5416658441096
 42
0.3464949689054692
 10
-167.8784451708696
 20
430.3119856793233
 10
-167.0360804105429
 20
430.3119856793233
 42
0.4142135623730951
 10
-166.7360804105418
 20
430.6119856793233
 10
-166.7360804105418
 20
431.1536860034344
  0
LWPOLYLINE
  5
10BBB
330
1F
100
AcDbEntity
  8
DETAILS
 62
     6
370
    20
100
AcDbPolyline
 90
        2
 70
     1
 43
0.0
 10
-168.3389462138392
 20
431.2419856793233
 10
-168.3571155124654
 20
431.2419856793233
  0
LWPOLYLINE
  5
10BBC
330
1F
100
AcDbEntity
  8
DETAILS
 62
     6
370
    20
100
AcDbPolyline
 90
        6
 70
     0
 43
0.0
 10
-169.0172704399455
 20
431.2419856793233
 10
-169.1104397385724
 20
431.2419856793233
 10
-169.0172704399455
 20
431.2419856793233
 42
0.2793220653054726
 10
-168.9729502032158
 20
431.2688401241433
 42
-0.6059183769079624
 10
-168.4014357482346
 20
431.2688401246445
 42
0.279322065306064
 10
-168.3571155124654
 20
431.2419856793232
  0
LWPOLYLINE
  5
10BBD
330
1F
100
AcDbEntity
  8
DETAILS
 62
     6
370
    20
100
AcDbPolyline
 90
        7
 70
     0
 43
0.0
 10
-170.3878336481765
 20
430.4419856793232
 10
-169.267133515389
 20
430.4419856793232
 42
0.4853378929632635
 10
-169.1018696526179
 20
430.651833585944
 10
-169.2923886584402
 20
431.4419856793232
 10
-169.888465156161
 20
431.4419856793232
 10
-169.638465156161
 20
431.4419856793232
 10
-169.5384651561606
 20
431.4419856793232
  0
LWPOLYLINE
  5
10BBE
330
1F
100
AcDbEntity
  8
DETAILS
 62
     6
370
    20
100
AcDbPolyline
 90
        4
 70
     0
 43
0.0
 10
-170.3878336481765
 20
430.3119856793233
 10
-169.267133515389
 20
430.3119856793233
 42
0.4853378929632635
 10
-168.975491404616
 20
430.6823055145367
 10
-169.1586631141534
 20
431.4419856793232
  0
LWPOLYLINE
  5
10BBF
330
1F
100
AcDbEntity
  8
DETAILS
 62
     6
370
    20
100
AcDbPolyline
 90
        4
 70
     0
 43
0.0
 10
-169.2441652828591
 20
431.2419856793233
 10
-169.7813583749747
 20
431.2419856793233
 42
0.1989123673788306
 10
-170.1349117655671
 20
431.0955390699176
 10
-170.3878336481765
 20
430.8426171873096
  0
LWPOLYLINE
  5
10BC0
330
1F
100
AcDbEntity
  8
DETAILS
 62
     6
370
    20
100
AcDbPolyline
 90
        4
 70
     0
 43
0.0
 10
-170.3878336481765
 20
431.2926171873085
 10
-170.1195311733398
 20
431.5609196621454
 42
0.4142135623745727
 10
-170.1195311733398
 20
431.773051696502
 10
-170.3878336481765
 20
432.0413541713373
  0
LWPOLYLINE
  5
10BC1
330
1F
100
AcDbEntity
  8
DETAILS
 62
     6
370
    20
100
AcDbPolyline
 90
        2
 70
     1
 43
0.0
 10
-166.7360804105418
 20
437.4419856793235
 10
-166.7179111119175
 20
437.4419856793232
  0
LWPOLYLINE
  5
10BC2
330
1F
100
AcDbEntity
  8
DETAILS
 62
     6
370
    20
100
AcDbPolyline
 90
        6
 70
     0
 43
0.0
 10
-170.3878336481765
 20
437.6413541713353
 10
-170.0177544780425
 20
437.2712750012043
 42
0.1989123673782989
 10
-169.9470437999251
 20
437.2419856793234
 10
-166.3878336481765
 20
437.2419856793231
 42
-0.2793220653060733
 10
-166.6735908761483
 20
437.4151312340021
 42
0.279322065306064
 10
-166.7179111119175
 20
437.4419856793235
  0
LWPOLYLINE
  5
10BC3
330
1F
100
AcDbEntity
  8
DETAILS
 62
     6
370
    20
100
AcDbPolyline
 90
        2
 70
     1
 43
0.0
 10
-166.8360804105422
 20
437.4419856793232
 10
-168.2360804105436
 20
437.4419856793232
  0
LWPOLYLINE
  5
10BC4
330
1F
100
AcDbEntity
  8
DETAILS
 62
     6
370
    20
100
AcDbPolyline
 90
        6
 70
     0
 43
0.0
 10
-166.8360804105422
 20
437.2419856793234
 10
-166.8360804105422
 20
438.0719856793233
 42
0.4142135623730951
 10
-167.0360804105429
 20
438.2719856793234
 10
-167.8784451708696
 20
438.2719856793234
 42
0.3464949689054692
 10
-168.0728732447177
 20
438.1188655694658
 10
-168.2843037861229
 20
437.2419856793234
  0
LWPOLYLINE
  5
10BC5
330
1F
100
AcDbEntity
  8
DETAILS
 62
     6
370
    20
100
AcDbPolyline
 90
        6
 70
     0
 43
0.0
 10
-166.7360804105418
 20
437.2419856793234
 10
-166.7360804105418
 20
438.0719856793233
 42
0.4142135623730951
 10
-167.0360804105429
 20
438.3719856793235
 10
-167.8784451708696
 20
438.3719856793235
 42
0.3464949689054692
 10
-168.1700872816426
 20
438.142305514537
 10
-168.3871695894203
 20
437.2419856793234
  0
LWPOLYLINE
  5
10BC6
330
1F
100
AcDbEntity
  8
DETAILS
 62
     6
370
    20
100
AcDbPolyline
 90
        2
 70
     1
 43
0.0
 10
-168.3389462138392
 20
437.4419856793235
 10
-168.3571155124654
 20
437.4419856793232
  0
LWPOLYLINE
  5
10BC7
330
1F
100
AcDbEntity
  8
DETAILS
 62
     6
370
    20
100
AcDbPolyline
 90
        6
 70
     0
 43
0.0
 10
-168.3571155124654
 20
437.4419856793235
 42
0.279322065306064
 10
-168.401435749195
 20
437.4151312345035
 42
-0.6059183769079624
 10
-168.9729502041763
 20
437.4151312340021
 42
0.2793220653054726
 10
-169.0172704399455
 20
437.4419856793235
 10
-169.1104397385724
 20
437.4419856793235
 10
-169.0172704399455
 20
437.4419856793235
  0
LWPOLYLINE
  5
10BC8
330
1F
100
AcDbEntity
  8
DETAILS
 62
     6
370
    20
100
AcDbPolyline
 90
        7
 70
     0
 43
0.0
 10
-169.5384651561606
 20
437.2419856793234
 10
-169.638465156161
 20
437.2419856793234
 10
-169.888465156161
 20
437.2419856793234
 10
-169.2923886584402
 20
437.2419856793234
 10
-169.1018696526179
 20
438.0321377727024
 42
0.4853378929632635
 10
-169.267133515389
 20
438.2419856793234
 10
-170.3878336481783
 20
438.2419856793234
  0
LWPOLYLINE
  5
10BC9
330
1F
100
AcDbEntity
  8
DETAILS
 62
     6
370
    20
100
AcDbPolyline
 90
        4
 70
     0
 43
0.0
 10
-169.1586631141534
 20
437.2419856793234
 10
-168.975491404616
 20
438.0016658441099
 42
0.4853378929632635
 10
-169.267133515389
 20
438.3719856793235
 10
-170.3878336481783
 20
438.3719856793232
  0
LWPOLYLINE
  5
10BCA
330
1F
100
AcDbEntity
  8
DETAILS
 62
     6
370
    20
100
AcDbPolyline
 90
        4
 70
     0
 43
0.0
 10
-170.3878336481765
 20
437.8413541713374
 10
-170.1349117655671
 20
437.588432288729
 42
0.1989123673788307
 10
-169.7813583749747
 20
437.4419856793235
 10
-169.2441652828591
 20
437.4419856793232
  0
LWPOLYLINE
  5
10BCB
330
1F
100
AcDbEntity
  8
DETAILS
 62
     6
370
    20
100
AcDbPolyline
 90
        4
 70
     0
 43
0.0
 10
-170.3878336481765
 20
436.6426171873091
 10
-170.1195311733398
 20
436.9109196621447
 42
0.4142135623745727
 10
-170.1195311733398
 20
437.1230516965011
 10
-170.3878336481783
 20
437.3913541713385
  0
LINE
  5
10BCC
330
1F
100
AcDbEntity
  8
0
 62
     1
100
AcDbLine
 10
-172.0378336481761
 20
428.5919856793233
 30
0.0
 11
-171.4128336481761
 21
428.5919856793233
 31
0.0
  0
LINE
  5
10BCD
330
1F
100
AcDbEntity
  8
0
 62
     1
100
AcDbLine
 10
-171.0128336481765
 20
428.5919856793233
 30
0.0
 11
-171.0128336481765
 21
428.5583067913783
 31
0.0
  0
LINE
  5
10BCE
330
1F
100
AcDbEntity
  8
0
 62
     1
100
AcDbLine
 10
-171.4128336481761
 20
428.5919856793233
 30
0.0
 11
-171.4128336481761
 21
428.4226497405987
 31
0.0
  0
LINE
  5
10BCF
330
1F
100
AcDbEntity
  8
0
 62
     1
100
AcDbLine
 10
-171.0128336481783
 20
428.5919856793233
 30
0.0
 11
-170.9135276769765
 21
428.5919856793233
 31
0.0
  0
LINE
  5
10BD0
330
1F
100
AcDbEntity
  8
0
 62
     1
100
AcDbLine
 10
-172.3878336481765
 20
464.0919976498206
 30
0.0
 11
-170.3878336481765
 21
464.0919976498206
 31
0.0
  0
LINE
  5
10BD1
330
1F
100
AcDbEntity
  8
0
 62
     1
100
AcDbLine
 10
-170.3878336481765
 20
464.5919976498206
 30
0.0
 11
-170.3878336481765
 21
464.0919976498206
 31
0.0
  0
LINE
  5
10BD2
330
1F
100
AcDbEntity
  8
0
  6
HIDDEN
 62
     1
 48
0.02
100
AcDbLine
 10
-172.0378336481761
 20
464.5919976498206
 30
0.0
 11
-171.4128336481761
 21
464.5919976498206
 31
0.0
  0
LINE
  5
10BD3
330
1F
100
AcDbEntity
  8
0
  6
HIDDEN
 62
     1
 48
0.02
100
AcDbLine
 10
-172.0378336481761
 20
464.5919976498206
 30
0.0
 11
-172.0378336481761
 21
464.0919976498206
 31
0.0
  0
LINE
  5
10BD4
330
1F
100
AcDbEntity
  8
0
  6
HIDDEN
 62
     1
 48
0.02
100
AcDbLine
 10
-171.0128336481765
 20
464.5919976498206
 30
0.0
 11
-171.0128336481783
 21
464.0919976498206
 31
0.0
  0
LINE
  5
10BD5
330
1F
100
AcDbEntity
  8
0
  6
HIDDEN
 62
     1
 48
0.02
100
AcDbLine
 10
-171.4128336481761
 20
464.5919976498206
 30
0.0
 11
-171.4128336481761
 21
464.0919976498206
 31
0.0
  0
LINE
  5
10BD6
330
1F
100
AcDbEntity
  8
0
  6
HIDDEN
 62
     1
 48
0.02
100
AcDbLine
 10
-171.0128336481783
 20
464.5919976498206
 30
0.0
 11
-170.3878336481783
 21
464.5919976498206
 31
0.0
  0
LINE
  5
10BD7
330
1F
100
AcDbEntity
  8
A5 heavy
 48
0.15
100
AcDbLine
 10
-168.1720746796062
 20
464.0919976498206
 30
0.0
 11
-131.7093762725297
 21
464.0919976498204
 31
0.0
  0
LINE
  5
10BD8
330
1F
100
AcDbEntity
  8
A4 medium
 48
0.15
100
AcDbLine
 10
-168.1720746796026
 20
444.5919856793233
 30
0.0
 11
-129.4936173039558
 21
444.5919856793233
 31
0.0
  0
LINE
  5
10BD9
330
1F
100
AcDbEntity
  8
DIM
100
AcDbLine
 10
-126.5887355758394
 20
455.6780084019491
 30
0.0
 11
-132.4208674925329
 21
452.8081238561384
 31
0.0
  0
LINE
  5
10BDA
330
1F
100
AcDbEntity
  8
DIM
100
AcDbLine
 10
-132.4208674925329
 20
452.8081238561384
 30
0.0
 11
-129.5064347813721
 21
452.8048142903884
 31
0.0
  0
LINE
  5
10BDB
330
1F
100
AcDbEntity
  8
DIM
100
AcDbLine
 10
-129.5064347813721
 20
452.8048142903884
 30
0.0
 11
-129.51576108909
 21
444.5919856793233
 31
0.0
  0
LINE
  5
10BDC
330
1F
100
AcDbEntity
  8
DIM
100
AcDbLine
 10
-129.4936173039558
 20
464.0919976498204
 30
0.0
 11
-129.5031682870002
 21
455.6813179676991
 31
0.0
  0
LINE
  5
10BDD
330
1F
100
AcDbEntity
  8
DIM
100
AcDbLine
 10
-126.5887355758394
 20
455.6780084019491
 30
0.0
 11
-129.5031682870002
 21
455.6813179676993
 31
0.0
  0
LINE
  5
10BDE
330
1F
100
AcDbEntity
  8
REBAR
 48
0.15
100
AcDbLine
 10
-166.3878336481765
 20
487.3883600791181
 30
0.0
 11
-166.3878336481765
 21
459.0919976498204
 31
0.0
  0
CIRCLE
  5
10BDF
330
1F
100
AcDbEntity
  8
A2 Hatch
 48
0.15
100
AcDbCircle
 10
-166.3878336481765
 20
437.7358807775334
 30
0.0
 40
0.8157720410317779
  0
HATCH
  5
10BE0
330
1F
100
AcDbEntity
  8
A2 Hatch
 48
0.15
100
AcDbHatch
 10
0.0
 20
0.0
 30
0.0
210
0.0
220
0.0
230
1.0
  2
SOLID
 70
     1
 71
     0
 91
        1
 92
        1
 93
        1
 72
     2
 10
-166.3878336481765
 20
437.7358807775334
 40
0.2243383222039483
 50
0.0
 51
360.0
 73
     1
 97
        0
 75
     0
 76
     1
 98
        1
 10
-3407.009243858377
 20
789.1799987683724
  0
LINE
  5
10BE1
330
1F
100
AcDbEntity
  8
0
 62
     1
100
AcDbLine
 10
-172.3878336481765
 20
464.0919976498206
 30
0.0
 11
-170.3878336481765
 21
464.0919976498206
 31
0.0
  0
LINE
  5
10BE2
330
1F
100
AcDbEntity
  8
0
  6
HIDDEN
 62
     1
 48
0.02
100
AcDbLine
 10
-172.0378336481761
 20
464.5919976498206
 30
0.0
 11
-171.4128336481761
 21
464.5919976498206
 31
0.0
  0
LINE
  5
10BE3
330
1F
100
AcDbEntity
  8
0
  6
HIDDEN
 62
     1
 48
0.02
100
AcDbLine
 10
-171.0128336481765
 20
464.5919976498206
 30
0.0
 11
-171.0128336481783
 21
464.0919976498204
 31
0.0
  0
LINE
  5
10BE4
330
1F
100
AcDbEntity
  8
0
  6
HIDDEN
 62
     1
 48
0.02
100
AcDbLine
 10
-171.4128336481761
 20
464.5919976498206
 30
0.0
 11
-171.4128336481761
 21
464.0919976498206
 31
0.0
  0
LINE
  5
10BE5
330
1F
100
AcDbEntity
  8
0
  6
HIDDEN
 62
     1
 48
0.02
100
AcDbLine
 10
-171.0128336481783
 20
464.5919976498206
 30
0.0
 11
-170.3878336481783
 21
464.5919976498206
 31
0.0
  0
LINE
  5
10BE6
330
1F
100
AcDbEntity
  8
0
 62
     1
100
AcDbLine
 10
-172.3878336481765
 20
464.0919976498206
 30
0.0
 11
-170.8378336481772
 21
464.0919976498206
 31
0.0
  0
LINE
  5
10BE7
330
1F
100
AcDbEntity
  8
0
 62
     1
100
AcDbLine
 10
-172.0378336481761
 20
464.5919976498206
 30
0.0
 11
-171.4128336481761
 21
464.5919976498206
 31
0.0
  0
LINE
  5
10BE8
330
1F
100
AcDbEntity
  8
0
 62
     1
100
AcDbLine
 10
-171.0128336481765
 20
464.5919976498206
 30
0.0
 11
-171.0128336481783
 21
464.0919976498204
 31
0.0
  0
LINE
  5
10BE9
330
1F
100
AcDbEntity
  8
0
 62
     1
100
AcDbLine
 10
-171.4128336481761
 20
464.5919976498206
 30
0.0
 11
-171.4128336481761
 21
464.0919976498206
 31
0.0
  0
LINE
  5
10BEA
330
1F
100
AcDbEntity
  8
0
 62
     1
100
AcDbLine
 10
-171.0128336481783
 20
464.5919976498206
 30
0.0
 11
-170.3878336481783
 21
464.5919976498206
 31
0.0
  0
LINE
  5
10BEB
330
1F
100
AcDbEntity
  8
0
 62
     1
100
AcDbLine
 10
-170.8378336481772
 20
464.3419976498206
 30
0.0
 11
-170.8378336481772
 21
464.0919976498206
 31
0.0
  0
LINE
  5
10BEC
330
1F
100
AcDbEntity
  8
0
 62
     1
100
AcDbLine
 10
-170.8378336481772
 20
464.3419976498206
 30
0.0
 11
-170.5878336481772
 21
464.3419976498206
 31
0.0
  0
LINE
  5
10BED
330
1F
100
AcDbEntity
  8
0
 62
     1
100
AcDbLine
 10
-170.5878336481772
 20
464.0919976498206
 30
0.0
 11
-170.3878336481783
 21
464.0919976498206
 31
0.0
  0
LINE
  5
10BEE
330
1F
100
AcDbEntity
  8
0
 48
0.15
100
AcDbLine
 10
-171.4128336481761
 20
464.0919976498206
 30
0.0
 11
-171.0128336481765
 21
464.0919976498206
 31
0.0
  0
LINE
  5
10BEF
330
1F
100
AcDbEntity
  8
0
 62
     1
100
AcDbLine
 10
-170.9628336481772
 20
464.0919976498206
 30
0.0
 11
-171.4628336481772
 21
464.0919976498206
 31
0.0
  0
LINE
  5
10BF0
330
1F
100
AcDbEntity
  8
0
 62
     1
100
AcDbLine
 10
-172.3878336481765
 20
464.0919976498206
 30
0.0
 11
-172.3878336481765
 21
452.0919976498206
 31
0.0
  0
LINE
  5
10BF1
330
1F
100
AcDbEntity
  8
0
 62
     1
100
AcDbLine
 10
-172.3878336481765
 20
464.0919976498206
 30
0.0
 11
-170.8378336481772
 21
464.0919976498206
 31
0.0
  0
LINE
  5
10BF2
330
1F
100
AcDbEntity
  8
0
 62
     1
100
AcDbLine
 10
-172.3878336481765
 20
452.0919976498206
 30
0.0
 11
-170.3878336481765
 21
452.0919976498206
 31
0.0
  0
LINE
  5
10BF3
330
1F
100
AcDbEntity
  8
0
 62
     1
100
AcDbLine
 10
-170.3878336481765
 20
464.5919976498206
 30
0.0
 11
-170.3878336481765
 21
452.0919976498206
 31
0.0
  0
LINE
  5
10BF4
330
1F
100
AcDbEntity
  8
0
 62
     1
100
AcDbLine
 10
-172.0378336481761
 20
464.5919976498206
 30
0.0
 11
-171.4128336481761
 21
464.5919976498206
 31
0.0
  0
LINE
  5
10BF5
330
1F
100
AcDbEntity
  8
0
 62
     1
100
AcDbLine
 10
-172.0378336481761
 20
464.5919976498206
 30
0.0
 11
-172.0378336481761
 21
452.0919976498206
 31
0.0
  0
LINE
  5
10BF6
330
1F
100
AcDbEntity
  8
0
 62
     1
100
AcDbLine
 10
-171.0128336481765
 20
464.5919976498206
 30
0.0
 11
-171.0128336481783
 21
464.0919976498204
 31
0.0
  0
LINE
  5
10BF7
330
1F
100
AcDbEntity
  8
0
 62
     1
100
AcDbLine
 10
-171.4128336481761
 20
464.5919976498206
 30
0.0
 11
-171.4128336481761
 21
464.0919976498206
 31
0.0
  0
LINE
  5
10BF8
330
1F
100
AcDbEntity
  8
0
 62
     1
100
AcDbLine
 10
-171.0128336481783
 20
464.5919976498206
 30
0.0
 11
-170.3878336481783
 21
464.5919976498206
 31
0.0
  0
LINE
  5
10BF9
330
1F
100
AcDbEntity
  8
0
 62
     1
100
AcDbLine
 10
-170.5878336481772
 20
464.3419976498206
 30
0.0
 11
-170.5878336481772
 21
452.0919976498206
 31
0.0
  0
LINE
  5
10BFA
330
1F
100
AcDbEntity
  8
0
 62
     1
100
AcDbLine
 10
-170.8378336481772
 20
464.3419976498206
 30
0.0
 11
-170.8378336481772
 21
464.0919976498206
 31
0.0
  0
LINE
  5
10BFB
330
1F
100
AcDbEntity
  8
0
 62
     1
100
AcDbLine
 10
-170.8378336481772
 20
464.3419976498206
 30
0.0
 11
-170.5878336481772
 21
464.3419976498206
 31
0.0
  0
LINE
  5
10BFC
330
1F
100
AcDbEntity
  8
0
 62
     1
100
AcDbLine
 10
-170.5878336481772
 20
464.0919976498206
 30
0.0
 11
-170.3878336481783
 21
464.0919976498206
 31
0.0
  0
LINE
  5
10BFD
330
1F
100
AcDbEntity
  8
0
 48
0.15
100
AcDbLine
 10
-171.4128336481761
 20
464.0919976498206
 30
0.0
 11
-171.0128336481765
 21
464.0919976498206
 31
0.0
  0
LINE
  5
10BFE
330
1F
100
AcDbEntity
  8
A2 Hatch
  6
DASHED2
 48
0.15
100
AcDbLine
 10
-171.6228336481771
 20
464.5919976498206
 30
0.0
 11
-171.6228336481771
 21
452.0919976498206
 31
0.0
  0
LINE
  5
10BFF
330
1F
100
AcDbEntity
  8
A2 Hatch
  6
DASHED2
 48
0.15
100
AcDbLine
 10
-170.8028336481774
 20
464.5919976498206
 30
0.0
 11
-170.8028336481774
 21
452.0919976498206
 31
0.0
  0
LINE
  5
10C00
330
1F
100
AcDbEntity
  8
0
 62
     1
100
AcDbLine
 10
-171.4628336481772
 20
464.5919976498206
 30
0.0
 11
-171.4628336481772
 21
452.0919976498206
 31
0.0
  0
LINE
  5
10C01
330
1F
100
AcDbEntity
  8
0
 62
     1
100
AcDbLine
 10
-170.9628336481772
 20
464.5919976498206
 30
0.0
 11
-170.9628336481772
 21
452.0919976498206
 31
0.0
  0
LINE
  5
10C02
330
1F
100
AcDbEntity
  8
0
 62
     1
100
AcDbLine
 10
-170.9628336481772
 20
464.0919976498206
 30
0.0
 11
-171.4628336481772
 21
464.0919976498206
 31
0.0
  0
LINE
  5
10C03
330
1F
100
AcDbEntity
  8
0
  6
HIDDEN
 62
     1
 48
0.02
100
AcDbLine
 10
-172.0378336481761
 20
452.5919976498206
 30
0.0
 11
-171.4128336481761
 21
452.5919976498206
 31
0.0
  0
LINE
  5
10C04
330
1F
100
AcDbEntity
  8
0
  6
HIDDEN
 62
     1
 48
0.02
100
AcDbLine
 10
-171.0128336481765
 20
452.5919976498206
 30
0.0
 11
-171.0128336481783
 21
452.0919976498204
 31
0.0
  0
LINE
  5
10C05
330
1F
100
AcDbEntity
  8
0
  6
HIDDEN
 62
     1
 48
0.02
100
AcDbLine
 10
-171.4128336481761
 20
452.5919976498206
 30
0.0
 11
-171.4128336481761
 21
452.0919976498206
 31
0.0
  0
LINE
  5
10C06
330
1F
100
AcDbEntity
  8
0
  6
HIDDEN
 62
     1
 48
0.02
100
AcDbLine
 10
-171.0128336481783
 20
452.5919976498206
 30
0.0
 11
-170.3878336481783
 21
452.5919976498206
 31
0.0
  0
LINE
  5
10C07
330
1F
100
AcDbEntity
  8
0
 62
     1
100
AcDbLine
 10
-162.3878336481765
 20
464.5919976498206
 30
0.0
 11
-162.3878336481765
 21
464.0919976498206
 31
0.0
  0
LINE
  5
10C08
330
1F
100
AcDbEntity
  8
0
 62
     1
100
AcDbLine
 10
-162.3878336481765
 20
464.0919976498206
 30
0.0
 11
-162.1878336481758
 21
464.0919976498206
 31
0.0
  0
LINE
  5
10C09
330
1F
100
AcDbEntity
  8
0
 62
     1
100
AcDbLine
 10
-172.3878336481765
 20
452.0919976498206
 30
0.0
 11
-170.8378336481772
 21
452.0919976498206
 31
0.0
  0
LINE
  5
10C0A
330
1F
100
AcDbEntity
  8
0
 62
     1
100
AcDbLine
 10
-172.0378336481761
 20
452.5919976498206
 30
0.0
 11
-171.4128336481761
 21
452.5919976498206
 31
0.0
  0
LINE
  5
10C0B
330
1F
100
AcDbEntity
  8
0
 62
     1
100
AcDbLine
 10
-171.0128336481765
 20
452.5919976498206
 30
0.0
 11
-171.0128336481783
 21
452.0919976498204
 31
0.0
  0
LINE
  5
10C0C
330
1F
100
AcDbEntity
  8
0
 62
     1
100
AcDbLine
 10
-171.4128336481761
 20
452.5919976498206
 30
0.0
 11
-171.4128336481761
 21
452.0919976498206
 31
0.0
  0
LINE
  5
10C0D
330
1F
100
AcDbEntity
  8
0
 62
     1
100
AcDbLine
 10
-171.0128336481783
 20
452.5919976498206
 30
0.0
 11
-170.3878336481783
 21
452.5919976498206
 31
0.0
  0
LINE
  5
10C0E
330
1F
100
AcDbEntity
  8
0
 62
     1
100
AcDbLine
 10
-170.8378336481772
 20
452.3419976498206
 30
0.0
 11
-170.8378336481772
 21
452.0919976498206
 31
0.0
  0
LINE
  5
10C0F
330
1F
100
AcDbEntity
  8
0
 62
     1
100
AcDbLine
 10
-170.8378336481772
 20
452.3419976498206
 30
0.0
 11
-170.5878336481772
 21
452.3419976498206
 31
0.0
  0
LINE
  5
10C10
330
1F
100
AcDbEntity
  8
0
 62
     1
100
AcDbLine
 10
-170.5878336481772
 20
452.0919976498206
 30
0.0
 11
-170.3878336481783
 21
452.0919976498206
 31
0.0
  0
LINE
  5
10C11
330
1F
100
AcDbEntity
  8
0
 48
0.15
100
AcDbLine
 10
-171.4128336481761
 20
452.0919976498206
 30
0.0
 11
-171.0128336481765
 21
452.0919976498206
 31
0.0
  0
LINE
  5
10C12
330
1F
100
AcDbEntity
  8
0
 62
     1
100
AcDbLine
 10
-170.9628336481772
 20
452.0919976498206
 30
0.0
 11
-171.4628336481772
 21
452.0919976498206
 31
0.0
  0
LINE
  5
10C13
330
1F
100
AcDbEntity
  8
0
 62
     1
100
AcDbLine
 10
-172.3878336481765
 20
464.0919976498206
 30
0.0
 11
-170.3878336481765
 21
464.0919976498206
 31
0.0
  0
LINE
  5
10C14
330
1F
100
AcDbEntity
  8
0
 62
     1
100
AcDbLine
 10
-170.3878336481765
 20
464.5919976498206
 30
0.0
 11
-170.3878336481765
 21
464.0919976498206
 31
0.0
  0
LINE
  5
10C15
330
1F
100
AcDbEntity
  8
0
  6
HIDDEN
 62
     1
 48
0.02
100
AcDbLine
 10
-172.0378336481761
 20
464.5919976498206
 30
0.0
 11
-171.4128336481761
 21
464.5919976498206
 31
0.0
  0
LINE
  5
10C16
330
1F
100
AcDbEntity
  8
0
  6
HIDDEN
 62
     1
 48
0.02
100
AcDbLine
 10
-172.0378336481761
 20
464.5919976498206
 30
0.0
 11
-172.0378336481761
 21
464.0919976498206
 31
0.0
  0
LINE
  5
10C17
330
1F
100
AcDbEntity
  8
0
  6
HIDDEN
 62
     1
 48
0.02
100
AcDbLine
 10
-171.0128336481765
 20
464.5919976498206
 30
0.0
 11
-171.0128336481783
 21
464.0919976498206
 31
0.0
  0
LINE
  5
10C18
330
1F
100
AcDbEntity
  8
0
  6
HIDDEN
 62
     1
 48
0.02
100
AcDbLine
 10
-171.4128336481761
 20
464.5919976498206
 30
0.0
 11
-171.4128336481761
 21
464.0919976498206
 31
0.0
  0
LINE
  5
10C19
330
1F
100
AcDbEntity
  8
0
  6
HIDDEN
 62
     1
 48
0.02
100
AcDbLine
 10
-171.0128336481783
 20
464.5919976498206
 30
0.0
 11
-170.3878336481783
 21
464.5919976498206
 31
0.0
  0
LWPOLYLINE
  5
10C1A
330
1F
100
AcDbEntity
  8
DETAILS
 62
     6
370
    20
100
AcDbPolyline
 90
        2
 70
     1
 43
0.0
 10
-165.926647867679
 20
468.0169976498204
 10
-165.9130208937084
 20
468.0169976498204
  0
LINE
  5
10C1B
330
1F
100
AcDbEntity
  8
A4 medium
 48
0.15
100
AcDbLine
 10
-132.3456420159735
 20
463.5919957005683
 30
0.0
 11
-131.3456420159735
 21
462.5919957005684
 31
0.0
  0
LINE
  5
10C1C
330
1F
100
AcDbEntity
  8
A4 medium
 48
0.15
100
AcDbLine
 10
-131.3456420159735
 20
463.5919957005683
 30
0.0
 11
-132.3456420159735
 21
462.5919957005684
 31
0.0
  0
LINE
  5
10C1D
330
1F
100
AcDbEntity
  8
A4 medium
 48
0.15
100
AcDbLine
 10
-131.8456420159735
 20
463.0919957005684
 30
0.0
 11
-137.8456420159736
 21
463.0919957005684
 31
0.0
  0
LINE
  5
10C1E
330
1F
100
AcDbEntity
  8
A4 medium
 48
0.15
100
AcDbLine
 10
-137.8456420159736
 20
463.0919957005684
 30
0.0
 11
-143.8456420159735
 21
463.0919957005684
 31
0.0
  0
LINE
  5
10C1F
330
1F
100
AcDbEntity
  8
A4 medium
 48
0.15
100
AcDbLine
 10
-143.8456420159717
 20
463.0919957005684
 30
0.0
 11
-149.8456420159717
 21
463.0919957005684
 31
0.0
  0
LINE
  5
10C20
330
1F
100
AcDbEntity
  8
A4 medium
 48
0.15
100
AcDbLine
 10
-150.3456420159717
 20
463.5919957005683
 30
0.0
 11
-149.3456420159717
 21
462.5919957005684
 31
0.0
  0
LINE
  5
10C21
330
1F
100
AcDbEntity
  8
A4 medium
 48
0.15
100
AcDbLine
 10
-149.3456420159717
 20
463.5919957005683
 30
0.0
 11
-150.3456420159717
 21
462.5919957005684
 31
0.0
  0
LINE
  5
10C22
330
1F
100
AcDbEntity
  8
A4 medium
 48
0.15
100
AcDbLine
 10
-156.3456420159717
 20
463.5919957005683
 30
0.0
 11
-155.3456420159717
 21
462.5919957005684
 31
0.0
  0
LINE
  5
10C23
330
1F
100
AcDbEntity
  8
A4 medium
 48
0.15
100
AcDbLine
 10
-155.3456420159717
 20
463.5919957005683
 30
0.0
 11
-156.3456420159717
 21
462.5919957005684
 31
0.0
  0
LINE
  5
10C24
330
1F
100
AcDbEntity
  8
A4 medium
 48
0.15
100
AcDbLine
 10
-144.3807839856225
 20
463.6267335873907
 30
0.0
 11
-143.3807839856225
 21
462.6267335873907
 31
0.0
  0
LINE
  5
10C25
330
1F
100
AcDbEntity
  8
A4 medium
 48
0.15
100
AcDbLine
 10
-143.3807839856225
 20
463.6267335873907
 30
0.0
 11
-144.3807839856225
 21
462.6267335873907
 31
0.0
  0
LINE
  5
10C26
330
1F
100
AcDbEntity
  8
A4 medium
 48
0.15
100
AcDbLine
 10
-129.9871111618384
 20
463.0919957005684
 30
0.0
 11
-131.8456420159754
 21
463.0919957005684
 31
0.0
  0
LINE
  5
10C27
330
1F
100
AcDbEntity
  8
REBAR
 48
0.15
100
AcDbLine
 10
-162.369713040859
 20
463.0919957005684
 30
0.0
 11
-151.0432803772281
 21
463.0919957005684
 31
0.0
  0
LINE
  5
10C28
330
1F
100
AcDbEntity
  8
REBAR
 48
0.15
100
AcDbLine
 10
-165.3697130408571
 20
484.5469475971295
 30
0.0
 11
-165.369713040859
 21
466.0919957005686
 31
0.0
  0
ARC
  5
10C29
330
1F
100
AcDbEntity
  8
REBAR
 48
0.15
100
AcDbCircle
 10
-162.369713040859
 20
466.0919957005684
 30
0.0
 40
3.0
100
AcDbArc
 50
180.0
 51
270.0
  0
LEADER
  5
10C2A
330
1F
100
AcDbEntity
  8
DIM
100
AcDbLeader
  3
ARCTEXT1-4
 76
     3
 10
-164.491033384419
 20
463.9706753570088
 30
0.0
 10
-153.3881551732619
 20
486.9597659520723
 30
0.0
 10
-146.2906801553716
 20
486.9597659520723
 30
0.0
1001
ACAD
1000
DSTYLE
1002
{
1070
    41
1040
0.5
1070
    77
1070
     0
1002
}
  0
MTEXT
  5
10C2B
330
1F
100
AcDbEntity
  8
DIM
 62
     3
100
AcDbMText
 10
-145.3892135090399
 20
487.3513081783545
 30
0.0
 40
1.0
 41
22.68954545454545
 71
     1
 72
     5
  1
BENT REINF IN VERT CORES 
  7
RomanC
 73
     1
 44
1.0
1001
ACAD
1000
MTEXTBEGIN
1070
    73
1070
     1
1070
    44
1040
1.0
1070
    74
1070
     0
1000
MTEXTEND
  0
MTEXT
  5
10C2C
330
1F
100
AcDbEntity
  8
DIM
 62
     3
100
AcDbMText
 10
-144.941716185115
 20
481.2529077593552
 30
0.0
 40
1.0
 41
22.68954545454545
 71
     1
 72
     5
  1
CONC. SLAB OVER METAL DECK
  7
RomanC
 73
     1
 44
1.0
1001
ACAD
1000
MTEXTBEGIN
1070
    73
1070
     1
1070
    44
1040
1.0
1070
    74
1070
     0
1000
MTEXTEND
  0
LEADER
  5
10C2D
330
1F
100
AcDbEntity
  8
DIM
100
AcDbLeader
  3
ARCTEXT1-4
 76
     3
 10
-152.6532856273942
 20
464.0919976498202
 30
0.0
 10
-152.660800231345
 20
480.7585854288426
 30
0.0
 10
-145.5633252134565
 20
480.7585854288426
 30
0.0
1001
ACAD
1000
DSTYLE
1002
{
1070
    41
1040
0.5
1070
    77
1070
     0
1002
}
  0
LINE
  5
10C2E
330
1F
100
AcDbEntity
  8
0
 62
     1
100
AcDbLine
 10
-172.3878336481765
 20
483.5295197162817
 30
0.0
 11
-172.3878336481765
 21
476.0919976498207
 31
0.0
  0
LINE
  5
10C2F
330
1F
100
AcDbEntity
  8
0
 62
     1
100
AcDbLine
 10
-172.3878336481765
 20
476.0919976498207
 30
0.0
 11
-170.3878336481783
 21
476.0919976498207
 31
0.0
  0
LINE
  5
10C30
330
1F
100
AcDbEntity
  8
0
 62
     1
100
AcDbLine
 10
-170.3878336481783
 20
484.2078049701798
 30
0.0
 11
-170.3878336481765
 21
476.0919976498207
 31
0.0
  0
LINE
  5
10C31
330
1F
100
AcDbEntity
  8
0
 62
     1
100
AcDbLine
 10
-172.0378336481761
 20
483.6482196357136
 30
0.0
 11
-172.0378336481779
 21
476.0919976498207
 31
0.0
  0
LINE
  5
10C32
330
1F
100
AcDbEntity
  8
0
 62
     1
100
AcDbLine
 10
-170.5878336481754
 20
484.1399764447897
 30
0.0
 11
-170.5878336481772
 21
476.0919976498207
 31
0.0
  0
LINE
  5
10C33
330
1F
100
AcDbEntity
  8
A2 Hatch
  6
DASHED2
 48
0.15
100
AcDbLine
 10
-171.6228336481771
 20
483.7889638258974
 30
0.0
 11
-171.6228336481771
 21
476.0919976498207
 31
0.0
  0
LINE
  5
10C34
330
1F
100
AcDbEntity
  8
A2 Hatch
  6
DASHED2
 48
0.15
100
AcDbLine
 10
-170.8028336481774
 20
484.0670607799958
 30
0.0
 11
-170.8028336481774
 21
476.0919976498207
 31
0.0
  0
LINE
  5
10C35
330
1F
100
AcDbEntity
  8
0
 62
     1
100
AcDbLine
 10
-171.4628336481772
 20
483.8432266462095
 30
0.0
 11
-171.4628336481772
 21
476.0919976498207
 31
0.0
  0
LINE
  5
10C36
330
1F
100
AcDbEntity
  8
0
 62
     1
100
AcDbLine
 10
-170.9628336481772
 20
484.0127979596839
 30
0.0
 11
-170.9628336481772
 21
476.0919976498207
 31
0.0
  0
LINE
  5
10C37
330
1F
100
AcDbEntity
  8
0
  6
HIDDEN
 62
     1
 48
0.02
100
AcDbLine
 10
-172.0378336481779
 20
476.5919976498206
 30
0.0
 11
-171.412833648178
 21
476.5919976498206
 31
0.0
  0
LINE
  5
10C38
330
1F
100
AcDbEntity
  8
0
  6
HIDDEN
 62
     1
 48
0.02
100
AcDbLine
 10
-171.0128336481783
 20
476.5919976498206
 30
0.0
 11
-171.0128336481783
 21
476.0919976498204
 31
0.0
  0
LINE
  5
10C39
330
1F
100
AcDbEntity
  8
0
  6
HIDDEN
 62
     1
 48
0.02
100
AcDbLine
 10
-171.412833648178
 20
476.5919976498206
 30
0.0
 11
-171.4128336481761
 21
476.0919976498207
 31
0.0
  0
LINE
  5
10C3A
330
1F
100
AcDbEntity
  8
0
  6
HIDDEN
 62
     1
 48
0.02
100
AcDbLine
 10
-171.0128336481783
 20
476.5919976498206
 30
0.0
 11
-170.3878336481783
 21
476.5919976498206
 31
0.0
  0
LINE
  5
10C3B
330
1F
100
AcDbEntity
  8
0
 62
     1
100
AcDbLine
 10
-160.3878336481765
 20
487.5992312396698
 30
0.0
 11
-160.3878336481765
 21
476.0919976498207
 31
0.0
  0
LINE
  5
10C3C
330
1F
100
AcDbEntity
  8
0
 62
     1
100
AcDbLine
 10
-162.3878336481783
 20
486.9209459857715
 30
0.0
 11
-162.3878336481765
 21
476.0919976498207
 31
0.0
  0
LINE
  5
10C3D
330
1F
100
AcDbEntity
  8
0
 62
     1
100
AcDbLine
 10
-162.1878336481776
 20
486.9887745111612
 30
0.0
 11
-162.1878336481776
 21
476.0919976498207
 31
0.0
  0
LINE
  5
10C3E
330
1F
100
AcDbEntity
  8
0
 62
     1
100
AcDbLine
 10
-161.9728336481774
 20
487.0616901759555
 30
0.0
 11
-161.9728336481774
 21
476.0919976498207
 31
0.0
  0
LINE
  5
10C3F
330
1F
100
AcDbEntity
  8
0
 62
     1
100
AcDbLine
 10
-161.1528336481759
 20
487.3397871300539
 30
0.0
 11
-161.1528336481759
 21
476.0919976498207
 31
0.0
  0
LINE
  5
10C40
330
1F
100
AcDbEntity
  8
A2 Hatch
  6
DASHED2
 48
0.15
100
AcDbLine
 10
-161.8128336481758
 20
487.1159529962673
 30
0.0
 11
-161.8128336481758
 21
476.0919976498207
 31
0.0
  0
LINE
  5
10C41
330
1F
100
AcDbEntity
  8
A2 Hatch
  6
DASHED2
 48
0.15
100
AcDbLine
 10
-161.3128336481758
 20
487.285524309742
 30
0.0
 11
-161.3128336481758
 21
476.0919976498207
 31
0.0
  0
LINE
  5
10C42
330
1F
100
AcDbEntity
  8
0
 62
     1
100
AcDbLine
 10
-162.3878336481765
 20
476.0919976498207
 30
0.0
 11
-160.3878336481765
 21
476.0919976498207
 31
0.0
  0
LINE
  5
10C43
330
1F
100
AcDbEntity
  8
0
  6
HIDDEN
 62
     1
 48
0.02
100
AcDbLine
 10
-160.737833648175
 20
476.5919976498206
 30
0.0
 11
-160.737833648175
 21
476.0919976498207
 31
0.0
  0
LINE
  5
10C44
330
1F
100
AcDbEntity
  8
0
  6
HIDDEN
 62
     1
 48
0.02
100
AcDbLine
 10
-161.7628336481765
 20
476.5919976498206
 30
0.0
 11
-161.7628336481765
 21
476.0919976498207
 31
0.0
  0
LINE
  5
10C45
330
1F
100
AcDbEntity
  8
0
  6
HIDDEN
 62
     1
 48
0.02
100
AcDbLine
 10
-161.3628336481751
 20
476.5919976498206
 30
0.0
 11
-161.3628336481751
 21
476.0919976498207
 31
0.0
  0
LINE
  5
10C46
330
1F
100
AcDbEntity
  8
0
  6
HIDDEN
 62
     1
 48
0.02
100
AcDbLine
 10
-162.3878336481747
 20
476.5919976498206
 30
0.0
 11
-161.7628336481747
 21
476.5919976498206
 31
0.0
  0
LINE
  5
10C47
330
1F
100
AcDbEntity
  8
0
  6
HIDDEN
 62
     1
 48
0.02
100
AcDbLine
 10
-161.3628336481751
 20
476.5919976498206
 30
0.0
 11
-160.737833648175
 21
476.5919976498206
 31
0.0
  0
LWPOLYLINE
  5
10C48
330
1F
100
AcDbEntity
  8
DETAILS
 62
     6
370
    20
100
AcDbPolyline
 90
        2
 70
     1
 43
0.0
 10
-166.0395868858094
 20
479.2419976498205
 10
-166.0577561844355
 20
479.2419976498205
  0
LWPOLYLINE
  5
10C49
330
1F
100
AcDbEntity
  8
DETAILS
 62
     6
370
    20
100
AcDbPolyline
 90
        6
 70
     0
 43
0.0
 10
-162.3878336481765
 20
479.0426291578106
 10
-162.7579128183105
 20
479.4127083279394
 42
0.1989123673782988
 10
-162.8286234964279
 20
479.4419976498205
 10
-166.3878336481765
 20
479.4419976498205
 42
-0.2793220653060733
 10
-166.1020764202047
 20
479.2688520951418
 42
0.279322065306064
 10
-166.0577561844355
 20
479.2419976498202
  0
LWPOLYLINE
  5
10C4A
330
1F
100
AcDbEntity
  8
DETAILS
 62
     6
370
    20
100
AcDbPolyline
 90
        2
 70
     1
 43
0.0
 10
-165.9395868858108
 20
479.2419976498205
 10
-164.5395868858094
 20
479.2419976498205
  0
LWPOLYLINE
  5
10C4B
330
1F
100
AcDbEntity
  8
DETAILS
 62
     6
370
    20
100
AcDbPolyline
 90
        6
 70
     0
 43
0.0
 10
-165.9395868858108
 20
479.4419976498203
 10
-165.939586885809
 20
478.6119976498204
 42
0.4142135623730951
 10
-165.7395868858101
 20
478.4119976498203
 10
-164.8972221254834
 20
478.4119976498203
 42
0.3464949689054693
 10
-164.7027940516353
 20
478.5651177596779
 10
-164.4913635102301
 20
479.4419976498205
  0
LWPOLYLINE
  5
10C4C
330
1F
100
AcDbEntity
  8
DETAILS
 62
     6
370
    20
100
AcDbPolyline
 90
        6
 70
     0
 43
0.0
 10
-166.0395868858112
 20
479.4419976498203
 10
-166.0395868858094
 20
478.6119976498204
 42
0.4142135623730951
 10
-165.7395868858101
 20
478.3119976498205
 10
-164.8972221254834
 20
478.3119976498205
 42
0.3464949689054693
 10
-164.6055800147104
 20
478.5416778146067
 10
-164.3884977069327
 20
479.4419976498205
  0
LWPOLYLINE
  5
10C4D
330
1F
100
AcDbEntity
  8
DETAILS
 62
     6
370
    20
100
AcDbPolyline
 90
        2
 70
     1
 43
0.0
 10
-164.436721082512
 20
479.2419976498205
 10
-164.4185517838876
 20
479.2419976498205
  0
LWPOLYLINE
  5
10C4E
330
1F
100
AcDbEntity
  8
DETAILS
 62
     6
370
    20
100
AcDbPolyline
 90
        6
 70
     0
 43
0.0
 10
-164.4185517838876
 20
479.2419976498202
 42
0.279322065306064
 10
-164.374231547158
 20
479.2688520946405
 42
-0.6059183769079624
 10
-163.8027170921767
 20
479.2688520951418
 42
0.2793220653054726
 10
-163.7583968564075
 20
479.2419976498205
 10
-163.6652275577788
 20
479.2419976498205
 10
-163.7583968564075
 20
479.2419976498205
  0
LWPOLYLINE
  5
10C4F
330
1F
100
AcDbEntity
  8
DETAILS
 62
     6
370
    20
100
AcDbPolyline
 90
        7
 70
     0
 43
0.0
 10
-163.2372021401924
 20
479.4419976498205
 10
-163.137202140192
 20
479.4419976498205
 10
-162.887202140192
 20
479.4419976498205
 10
-163.4832786379128
 20
479.4419976498205
 10
-163.6737976437351
 20
478.6518455564413
 42
0.4853378929632635
 10
-163.508533780964
 20
478.4419976498205
 10
-162.3878336481765
 20
478.4419976498203
  0
LWPOLYLINE
  5
10C50
330
1F
100
AcDbEntity
  8
DETAILS
 62
     6
370
    20
100
AcDbPolyline
 90
        4
 70
     0
 43
0.0
 10
-163.6170041821996
 20
479.4419976498205
 10
-163.800175891737
 20
478.6823174850338
 42
0.4853378929632635
 10
-163.508533780964
 20
478.3119976498205
 10
-162.3878336481765
 20
478.3119976498205
  0
LWPOLYLINE
  5
10C51
330
1F
100
AcDbEntity
  8
DETAILS
 62
     6
370
    20
100
AcDbPolyline
 90
       10
 70
     1
 43
0.0
 10
-166.3878336481765
 20
479.4919976498203
 10
-163.2372021401924
 20
479.4919976498203
 10
-163.1394745333172
 20
479.5140872223199
 42
0.7807764064044151
 10
-163.1394745333172
 20
479.5199080773207
 10
-163.2372021401906
 20
479.5419976498204
 10
-166.3878336481765
 20
479.5419976498204
 10
-169.5384651561625
 20
479.5419976498204
 10
-169.6361927630358
 20
479.5199080773207
 42
0.7807764064044151
 10
-169.6361927630358
 20
479.5140872223199
 10
-169.5384651561606
 20
479.4919976498203
  0
LWPOLYLINE
  5
10C52
330
1F
100
AcDbEntity
  8
DETAILS
 62
     6
370
    20
100
AcDbPolyline
 90
        7
 70
     0
 43
0.0
 10
-170.3878336481783
 20
480.2913661418318
 10
-170.0177544780425
 20
479.9212869717015
 42
0.1989123673781765
 10
-169.9470437999251
 20
479.8919976498206
 10
-166.3878336481765
 20
479.8919976498203
 10
-162.8286234964279
 20
479.8919976498206
 42
0.1989123673781768
 10
-162.7579128183105
 20
479.9212869717015
 10
-162.3878336481783
 20
480.2913661418296
  0
LWPOLYLINE
  5
10C53
330
1F
100
AcDbEntity
  8
DETAILS
 62
     6
370
    20
100
AcDbPolyline
 90
        7
 70
     0
 43
0.0
 10
-170.3878336481783
 20
480.491366141831
 10
-170.134911765569
 20
480.2384442592248
 42
0.1989123673777967
 10
-169.7813583749783
 20
480.0919976498206
 10
-166.3878336481765
 20
480.0919976498204
 10
-162.9943089213746
 20
480.0919976498206
 42
0.1989123673777968
 10
-162.640755530784
 20
480.2384442592248
 10
-162.3878336481783
 20
480.4913661418282
  0
LWPOLYLINE
  5
10C54
330
1F
100
AcDbEntity
  8
DETAILS
 62
     6
370
    20
100
AcDbPolyline
 90
        4
 70
     0
 43
0.0
 10
-162.3878336481783
 20
478.8426291578088
 10
-162.6407555307859
 20
479.095551040415
 42
0.1989123673788307
 10
-162.9943089213765
 20
479.2419976498205
 10
-163.531502013492
 20
479.2419976498205
  0
LWPOLYLINE
  5
10C55
330
1F
100
AcDbEntity
  8
DETAILS
 62
     6
370
    20
100
AcDbPolyline
 90
        4
 70
     0
 43
0.0
 10
-162.3878336481783
 20
480.0413661418323
 10
-162.6561361230132
 20
479.7730636669991
 42
0.4142135623745727
 10
-162.6561361230132
 20
479.5609316326426
 10
-162.3878336481765
 20
479.2926291578079
  0
LWPOLYLINE
  5
10C56
330
1F
100
AcDbEntity
  8
DETAILS
 62
     6
370
    20
100
AcDbPolyline
 90
        6
 70
     1
 43
0.0
 10
-166.3878336481765
 20
479.5919976498204
 10
-162.887202140192
 20
479.5919976498204
 10
-162.887202140192
 20
479.7419976498205
 10
-166.3878336481765
 20
479.7419976498205
 10
-169.888465156161
 20
479.7419976498205
 10
-169.888465156161
 20
479.5919976498204
  0
LWPOLYLINE
  5
10C57
330
1F
100
AcDbEntity
  8
DETAILS
 62
     6
370
    20
100
AcDbPolyline
 90
        2
 70
     1
 43
0.0
 10
-166.0395868858094
 20
485.4419976498205
 10
-166.0577561844355
 20
485.4419976498205
  0
LWPOLYLINE
  5
10C58
330
1F
100
AcDbEntity
  8
DETAILS
 62
     6
370
    20
100
AcDbPolyline
 90
        4
 70
     0
 43
0.0
 10
-166.0577561844355
 20
485.4419976498205
 42
0.2793220653059341
 10
-166.1020764211652
 20
485.4151432050006
 42
-0.2793220653060733
 10
-166.3878336481765
 20
485.2419976498205
 10
-164.2414712188791
 20
485.2419976498205
  0
LWPOLYLINE
  5
10C59
330
1F
100
AcDbEntity
  8
DETAILS
 62
     6
370
    20
100
AcDbPolyline
 90
        2
 70
     1
 43
0.0
 10
-165.9395868858108
 20
485.4419976498205
 10
-164.5395868858094
 20
485.4419976498205
  0
LWPOLYLINE
  5
10C5A
330
1F
100
AcDbEntity
  8
DETAILS
 62
     6
370
    20
100
AcDbPolyline
 90
        2
 70
     0
 43
0.0
 10
-164.4913635102301
 20
485.2419976498205
 10
-164.5707607814919
 20
485.5712872124343
  0
LWPOLYLINE
  5
10C5B
330
1F
100
AcDbEntity
  8
DETAILS
 62
     6
370
    20
100
AcDbPolyline
 90
        2
 70
     0
 43
0.0
 10
-164.3884977069327
 20
485.2419976498205
 10
-164.4352118408159
 20
485.4357382717584
  0
LWPOLYLINE
  5
10C5C
330
1F
100
AcDbEntity
  8
DETAILS
 62
     6
370
    20
100
AcDbPolyline
 90
        3
 70
     0
 43
0.0
 10
-162.3878336481783
 20
486.2419976498205
 10
-163.508533780964
 20
486.2419976498205
 42
0.1016459754494563
 10
-163.5755470085959
 20
486.2282321764854
 42
0.1016459754494563
  0
LWPOLYLINE
  5
10C5D
330
1F
100
AcDbEntity
  8
DETAILS
 62
     6
370
    20
100
AcDbPolyline
 90
        3
 70
     0
 43
0.0
 10
-162.3878336481783
 20
486.3719976498203
 10
-163.508533780964
 20
486.3719976498206
 42
0.0930837404127276
 10
-163.6173721816402
 20
486.3515583812159
 42
0.0930837404127276
  0
LWPOLYLINE
  5
10C5E
330
1F
100
AcDbEntity
  8
DETAILS
 62
     6
370
    20
100
AcDbPolyline
 90
        3
 70
     0
 43
0.0
 10
-167.6332619564808
 20
485.1419976498205
 10
-166.3878336481765
 20
485.1419976498205
 10
-164.1414712188788
 20
485.1419976498205
  0
LWPOLYLINE
  5
10C5F
330
1F
100
AcDbEntity
  8
DETAILS
 62
     6
370
    20
100
AcDbPolyline
 90
        4
 70
     0
 43
0.0
 10
-162.3878336481783
 20
484.3926291578115
 10
-162.7579128183105
 20
484.7627083279395
 42
0.1989123673781766
 10
-162.8286234964279
 20
484.7919976498205
 10
-163.0884586583078
 20
484.7919976498205
  0
LWPOLYLINE
  5
10C60
330
1F
100
AcDbEntity
  8
DETAILS
 62
     6
370
    20
100
AcDbPolyline
 90
        4
 70
     0
 43
0.0
 10
-162.3878336481783
 20
484.1926291578132
 10
-162.640755530784
 20
484.4455510404162
 42
0.1989123673777966
 10
-162.9943089213746
 20
484.5919976498204
 10
-163.0206301329188
 20
484.5919976498204
  0
LWPOLYLINE
  5
10C61
330
1F
100
AcDbEntity
  8
DETAILS
 62
     6
370
    20
100
AcDbPolyline
 90
        4
 70
     0
 43
0.0
 10
-163.3089013658253
 20
485.4419976498205
 10
-162.9943089213765
 20
485.4419976498205
 42
0.1989123673788307
 10
-162.6407555307859
 20
485.5884442592261
 10
-162.3878336481783
 20
485.8413661418316
  0
LWPOLYLINE
  5
10C62
330
1F
100
AcDbEntity
  8
DETAILS
 62
     6
370
    20
100
AcDbPolyline
 90
        4
 70
     0
 43
0.0
 10
-162.3878336481783
 20
485.3913661418331
 10
-162.6561361230132
 20
485.1230636669982
 42
0.4142135623745727
 10
-162.6561361230132
 20
484.910931632642
 10
-162.3878336481783
 20
484.6426291578092
  0
LWPOLYLINE
  5
10C63
330
1F
100
AcDbEntity
  8
DETAILS
 62
     6
370
    20
100
AcDbPolyline
 90
        3
 70
     0
 43
0.0
 10
-167.7806925536014
 20
485.0919976498206
 10
-166.3878336481765
 20
485.0919976498206
 10
-164.0914712188777
 20
485.0919976498206
  0
LWPOLYLINE
  5
10C64
330
1F
100
AcDbEntity
  8
DETAILS
 62
     6
370
    20
100
AcDbPolyline
 90
        2
 70
     1
 43
0.0
 10
-166.7360804105436
 20
479.2419976498205
 10
-166.7179111119175
 20
479.2419976498205
  0
LWPOLYLINE
  5
10C65
330
1F
100
AcDbEntity
  8
DETAILS
 62
     6
370
    20
100
AcDbPolyline
 90
        6
 70
     0
 43
0.0
 10
-166.7179111119175
 20
479.2419976498202
 42
0.279322065306064
 10
-166.6735908751878
 20
479.2688520946405
 42
-0.2793220653060734
 10
-166.3878336481765
 20
479.4419976498205
 10
-169.9470437999251
 20
479.4419976498205
 42
0.1989123673782987
 10
-170.0177544780425
 20
479.4127083279394
 10
-170.3878336481783
 20
479.0426291578086
  0
LWPOLYLINE
  5
10C66
330
1F
100
AcDbEntity
  8
DETAILS
 62
     6
370
    20
100
AcDbPolyline
 90
        2
 70
     1
 43
0.0
 10
-166.8360804105422
 20
479.2419976498205
 10
-168.2360804105436
 20
479.2419976498205
  0
LWPOLYLINE
  5
10C67
330
1F
100
AcDbEntity
  8
DETAILS
 62
     6
370
    20
100
AcDbPolyline
 90
        6
 70
     0
 43
0.0
 10
-168.2843037861229
 20
479.4419976498205
 10
-168.0728732447177
 20
478.5651177596779
 42
0.3464949689054692
 10
-167.8784451708696
 20
478.4119976498203
 10
-167.0360804105429
 20
478.4119976498203
 42
0.4142135623730951
 10
-166.8360804105422
 20
478.6119976498204
 10
-166.8360804105422
 20
479.4419976498203
  0
LWPOLYLINE
  5
10C68
330
1F
100
AcDbEntity
  8
DETAILS
 62
     6
370
    20
100
AcDbPolyline
 90
        6
 70
     0
 43
0.0
 10
-168.3871695894203
 20
479.4419976498205
 10
-168.1700872816426
 20
478.5416778146067
 42
0.3464949689054692
 10
-167.8784451708696
 20
478.3119976498205
 10
-167.0360804105429
 20
478.3119976498205
 42
0.4142135623730951
 10
-166.7360804105436
 20
478.6119976498204
 10
-166.7360804105418
 20
479.4419976498203
  0
LWPOLYLINE
  5
10C69
330
1F
100
AcDbEntity
  8
DETAILS
 62
     6
370
    20
100
AcDbPolyline
 90
        2
 70
     1
 43
0.0
 10
-168.338946213841
 20
479.2419976498205
 10
-168.3571155124654
 20
479.2419976498205
  0
LWPOLYLINE
  5
10C6A
330
1F
100
AcDbEntity
  8
DETAILS
 62
     6
370
    20
100
AcDbPolyline
 90
        6
 70
     0
 43
0.0
 10
-169.0172704399455
 20
479.2419976498205
 10
-169.1104397385724
 20
479.2419976498205
 10
-169.0172704399455
 20
479.2419976498205
 42
0.2793220653054726
 10
-168.9729502032177
 20
479.2688520946405
 42
-0.6059183769079624
 10
-168.4014357482346
 20
479.2688520951418
 42
0.279322065306064
 10
-168.3571155124654
 20
479.2419976498202
  0
LWPOLYLINE
  5
10C6B
330
1F
100
AcDbEntity
  8
DETAILS
 62
     6
370
    20
100
AcDbPolyline
 90
        7
 70
     0
 43
0.0
 10
-170.3878336481783
 20
478.4419976498203
 10
-169.267133515389
 20
478.4419976498205
 42
0.4853378929632635
 10
-169.1018696526179
 20
478.6518455564413
 10
-169.2923886584402
 20
479.4419976498205
 10
-169.888465156161
 20
479.4419976498205
 10
-169.638465156161
 20
479.4419976498205
 10
-169.5384651561606
 20
479.4419976498205
  0
LWPOLYLINE
  5
10C6C
330
1F
100
AcDbEntity
  8
DETAILS
 62
     6
370
    20
100
AcDbPolyline
 90
        4
 70
     0
 43
0.0
 10
-170.3878336481783
 20
478.3119976498205
 10
-169.267133515389
 20
478.3119976498205
 42
0.4853378929632635
 10
-168.975491404616
 20
478.6823174850338
 10
-169.1586631141534
 20
479.4419976498205
  0
LWPOLYLINE
  5
10C6D
330
1F
100
AcDbEntity
  8
DETAILS
 62
     6
370
    20
100
AcDbPolyline
 90
        4
 70
     0
 43
0.0
 10
-169.244165282861
 20
479.2419976498205
 10
-169.7813583749765
 20
479.2419976498205
 42
0.1989123673788306
 10
-170.1349117655671
 20
479.095551040415
 10
-170.3878336481765
 20
478.8426291578067
  0
LWPOLYLINE
  5
10C6E
330
1F
100
AcDbEntity
  8
DETAILS
 62
     6
370
    20
100
AcDbPolyline
 90
        4
 70
     0
 43
0.0
 10
-170.3878336481783
 20
479.2926291578056
 10
-170.1195311733398
 20
479.5609316326426
 42
0.4142135623745727
 10
-170.1195311733398
 20
479.7730636669991
 10
-170.3878336481765
 20
480.0413661418343
  0
LWPOLYLINE
  5
10C6F
330
1F
100
AcDbEntity
  8
DETAILS
 62
     6
370
    20
100
AcDbPolyline
 90
        2
 70
     1
 43
0.0
 10
-166.7360804105436
 20
485.4419976498205
 10
-166.7179111119175
 20
485.4419976498205
  0
LWPOLYLINE
  5
10C70
330
1F
100
AcDbEntity
  8
DETAILS
 62
     6
370
    20
100
AcDbPolyline
 90
        4
 70
     0
 43
0.0
 10
-167.3384007622416
 20
485.2419976498203
 10
-166.3878336481765
 20
485.2419976498203
 42
-0.2793220653060733
 10
-166.6735908761483
 20
485.4151432044992
 42
0.279322065306064
 10
-166.7179111119175
 20
485.4419976498205
  0
LWPOLYLINE
  5
10C71
330
1F
100
AcDbEntity
  8
DETAILS
 62
     6
370
    20
100
AcDbPolyline
 90
        2
 70
     0
 43
0.0
 10
-166.8360804105422
 20
485.2419976498207
 10
-166.8360804105422
 20
485.4123558934658
  0
LWPOLYLINE
  5
10C72
330
1F
100
AcDbEntity
  8
DETAILS
 62
     6
370
    20
100
AcDbPolyline
 90
        2
 70
     0
 43
0.0
 10
-166.7360804105418
 20
485.2419976498207
 10
-166.7360804105418
 20
485.4462701561605
  0
LINE
  5
10C73
330
1F
100
AcDbEntity
  8
0
 62
     1
100
AcDbLine
 10
-172.3878336481765
 20
476.0919976498207
 30
0.0
 11
-172.3878336481765
 21
464.0919976498206
 31
0.0
  0
LINE
  5
10C74
330
1F
100
AcDbEntity
  8
0
 62
     1
100
AcDbLine
 10
-172.3878336481765
 20
476.0919976498207
 30
0.0
 11
-170.8378336481772
 21
476.0919976498207
 31
0.0
  0
LINE
  5
10C75
330
1F
100
AcDbEntity
  8
0
 62
     1
100
AcDbLine
 10
-172.3878336481765
 20
464.0919976498206
 30
0.0
 11
-170.3878336481783
 21
464.0919976498206
 31
0.0
  0
LINE
  5
10C76
330
1F
100
AcDbEntity
  8
0
 62
     1
100
AcDbLine
 10
-170.3878336481783
 20
476.5919976498206
 30
0.0
 11
-170.3878336481765
 21
464.0919976498206
 31
0.0
  0
LINE
  5
10C77
330
1F
100
AcDbEntity
  8
0
 62
     1
100
AcDbLine
 10
-172.0378336481779
 20
476.5919976498206
 30
0.0
 11
-171.412833648178
 21
476.5919976498206
 31
0.0
  0
LINE
  5
10C78
330
1F
100
AcDbEntity
  8
0
 62
     1
100
AcDbLine
 10
-172.0378336481779
 20
476.5919976498206
 30
0.0
 11
-172.0378336481779
 21
464.0919976498206
 31
0.0
  0
LINE
  5
10C79
330
1F
100
AcDbEntity
  8
0
 62
     1
100
AcDbLine
 10
-171.0128336481783
 20
476.5919976498206
 30
0.0
 11
-171.0128336481783
 21
476.0919976498204
 31
0.0
  0
LINE
  5
10C7A
330
1F
100
AcDbEntity
  8
0
 62
     1
100
AcDbLine
 10
-171.412833648178
 20
476.5919976498206
 30
0.0
 11
-171.4128336481761
 21
476.0919976498207
 31
0.0
  0
LINE
  5
10C7B
330
1F
100
AcDbEntity
  8
0
 62
     1
100
AcDbLine
 10
-171.0128336481783
 20
476.5919976498206
 30
0.0
 11
-170.3878336481783
 21
476.5919976498206
 31
0.0
  0
LINE
  5
10C7C
330
1F
100
AcDbEntity
  8
0
 62
     1
100
AcDbLine
 10
-170.5878336481772
 20
476.3419976498206
 30
0.0
 11
-170.5878336481772
 21
464.0919976498206
 31
0.0
  0
LINE
  5
10C7D
330
1F
100
AcDbEntity
  8
0
 62
     1
100
AcDbLine
 10
-170.8378336481772
 20
476.3419976498206
 30
0.0
 11
-170.8378336481772
 21
476.0919976498207
 31
0.0
  0
LINE
  5
10C7E
330
1F
100
AcDbEntity
  8
0
 62
     1
100
AcDbLine
 10
-170.8378336481772
 20
476.3419976498206
 30
0.0
 11
-170.5878336481772
 21
476.3419976498206
 31
0.0
  0
LINE
  5
10C7F
330
1F
100
AcDbEntity
  8
0
 62
     1
100
AcDbLine
 10
-170.5878336481772
 20
476.0919976498207
 30
0.0
 11
-170.3878336481783
 21
476.0919976498207
 31
0.0
  0
LINE
  5
10C80
330
1F
100
AcDbEntity
  8
0
 48
0.15
100
AcDbLine
 10
-171.412833648178
 20
476.0919976498207
 30
0.0
 11
-171.0128336481783
 21
476.0919976498207
 31
0.0
  0
LINE
  5
10C81
330
1F
100
AcDbEntity
  8
A2 Hatch
  6
DASHED2
 48
0.15
100
AcDbLine
 10
-171.6228336481771
 20
476.5919976498206
 30
0.0
 11
-171.6228336481771
 21
464.0919976498206
 31
0.0
  0
LINE
  5
10C82
330
1F
100
AcDbEntity
  8
A2 Hatch
  6
DASHED2
 48
0.15
100
AcDbLine
 10
-170.8028336481774
 20
476.5919976498206
 30
0.0
 11
-170.8028336481774
 21
464.0919976498206
 31
0.0
  0
LINE
  5
10C83
330
1F
100
AcDbEntity
  8
0
 62
     1
100
AcDbLine
 10
-171.4628336481772
 20
476.5919976498206
 30
0.0
 11
-171.4628336481772
 21
464.0919976498206
 31
0.0
  0
LINE
  5
10C84
330
1F
100
AcDbEntity
  8
0
 62
     1
100
AcDbLine
 10
-170.9628336481772
 20
476.5919976498206
 30
0.0
 11
-170.9628336481772
 21
464.0919976498206
 31
0.0
  0
LINE
  5
10C85
330
1F
100
AcDbEntity
  8
0
 62
     1
100
AcDbLine
 10
-170.9628336481772
 20
476.0919976498207
 30
0.0
 11
-171.4628336481772
 21
476.0919976498207
 31
0.0
  0
LINE
  5
10C86
330
1F
100
AcDbEntity
  8
0
  6
HIDDEN
 62
     1
 48
0.02
100
AcDbLine
 10
-172.0378336481779
 20
464.5919976498206
 30
0.0
 11
-171.412833648178
 21
464.5919976498206
 31
0.0
  0
LINE
  5
10C87
330
1F
100
AcDbEntity
  8
0
  6
HIDDEN
 62
     1
 48
0.02
100
AcDbLine
 10
-171.0128336481783
 20
464.5919976498206
 30
0.0
 11
-171.0128336481783
 21
464.0919976498204
 31
0.0
  0
LINE
  5
10C88
330
1F
100
AcDbEntity
  8
0
  6
HIDDEN
 62
     1
 48
0.02
100
AcDbLine
 10
-171.412833648178
 20
464.5919976498206
 30
0.0
 11
-171.4128336481761
 21
464.0919976498206
 31
0.0
  0
LINE
  5
10C89
330
1F
100
AcDbEntity
  8
0
  6
HIDDEN
 62
     1
 48
0.02
100
AcDbLine
 10
-171.0128336481783
 20
464.5919976498206
 30
0.0
 11
-170.3878336481783
 21
464.5919976498206
 31
0.0
  0
LINE
  5
10C8A
330
1F
100
AcDbEntity
  8
0
 62
     1
100
AcDbLine
 10
-160.3878336481765
 20
476.0919976498207
 30
0.0
 11
-160.3878336481765
 21
464.0919976498206
 31
0.0
  0
LINE
  5
10C8B
330
1F
100
AcDbEntity
  8
0
 62
     1
100
AcDbLine
 10
-162.3878336481783
 20
476.5919976498206
 30
0.0
 11
-162.3878336481765
 21
464.0919976498206
 31
0.0
  0
LINE
  5
10C8C
330
1F
100
AcDbEntity
  8
0
 62
     1
100
AcDbLine
 10
-160.7378336481769
 20
476.5919976498206
 30
0.0
 11
-160.7378336481769
 21
476.0919976498207
 31
0.0
  0
LINE
  5
10C8D
330
1F
100
AcDbEntity
  8
0
 62
     1
100
AcDbLine
 10
-161.7628336481783
 20
476.5919976498206
 30
0.0
 11
-161.7628336481783
 21
476.0919976498207
 31
0.0
  0
LINE
  5
10C8E
330
1F
100
AcDbEntity
  8
0
 62
     1
100
AcDbLine
 10
-161.3628336481769
 20
476.5919976498206
 30
0.0
 11
-161.3628336481769
 21
476.0919976498207
 31
0.0
  0
LINE
  5
10C8F
330
1F
100
AcDbEntity
  8
0
 62
     1
100
AcDbLine
 10
-162.3878336481765
 20
476.5919976498206
 30
0.0
 11
-161.7628336481765
 21
476.5919976498206
 31
0.0
  0
LINE
  5
10C90
330
1F
100
AcDbEntity
  8
0
 62
     1
100
AcDbLine
 10
-161.3628336481769
 20
476.5919976498206
 30
0.0
 11
-160.7378336481769
 21
476.5919976498206
 31
0.0
  0
LINE
  5
10C91
330
1F
100
AcDbEntity
  8
0
 62
     1
100
AcDbLine
 10
-162.1878336481776
 20
476.3419976498206
 30
0.0
 11
-162.1878336481776
 21
464.0919976498206
 31
0.0
  0
LINE
  5
10C92
330
1F
100
AcDbEntity
  8
0
 62
     1
100
AcDbLine
 10
-161.9378336481776
 20
476.3419976498206
 30
0.0
 11
-161.9378336481776
 21
476.0919976498207
 31
0.0
  0
LINE
  5
10C93
330
1F
100
AcDbEntity
  8
0
 62
     1
100
AcDbLine
 10
-162.1878336481776
 20
476.3419976498206
 30
0.0
 11
-161.9378336481776
 21
476.3419976498206
 31
0.0
  0
LINE
  5
10C94
330
1F
100
AcDbEntity
  8
0
 62
     1
100
AcDbLine
 10
-161.9728336481774
 20
476.0919976498207
 30
0.0
 11
-160.3878336481765
 21
476.0919976498207
 31
0.0
  0
LINE
  5
10C95
330
1F
100
AcDbEntity
  8
0
 62
     1
100
AcDbLine
 10
-161.9728336481774
 20
476.0919976498207
 30
0.0
 11
-161.9728336481774
 21
464.0919976498206
 31
0.0
  0
LINE
  5
10C96
330
1F
100
AcDbEntity
  8
0
 62
     1
100
AcDbLine
 10
-161.1528336481759
 20
476.0919976498207
 30
0.0
 11
-161.1528336481759
 21
464.0919976498206
 31
0.0
  0
LINE
  5
10C97
330
1F
100
AcDbEntity
  8
A2 Hatch
  6
DASHED2
 48
0.15
100
AcDbLine
 10
-161.8128336481758
 20
476.0919976498207
 30
0.0
 11
-161.8128336481758
 21
464.0919976498206
 31
0.0
  0
LINE
  5
10C98
330
1F
100
AcDbEntity
  8
A2 Hatch
  6
DASHED2
 48
0.15
100
AcDbLine
 10
-161.3128336481758
 20
476.0919976498207
 30
0.0
 11
-161.3128336481758
 21
464.0919976498206
 31
0.0
  0
LINE
  5
10C99
330
1F
100
AcDbEntity
  8
0
 62
     1
100
AcDbLine
 10
-162.3878336481765
 20
476.0919976498207
 30
0.0
 11
-162.1878336481776
 21
476.0919976498207
 31
0.0
  0
LINE
  5
10C9A
330
1F
100
AcDbEntity
  8
0
 62
     1
100
AcDbLine
 10
-162.3878336481765
 20
464.0919976498206
 30
0.0
 11
-160.3878336481765
 21
464.0919976498206
 31
0.0
  0
LINE
  5
10C9B
330
1F
100
AcDbEntity
  8
0
  6
HIDDEN
 62
     1
 48
0.02
100
AcDbLine
 10
-160.737833648175
 20
464.5919976498206
 30
0.0
 11
-160.737833648175
 21
464.0919976498206
 31
0.0
  0
LINE
  5
10C9C
330
1F
100
AcDbEntity
  8
0
  6
HIDDEN
 62
     1
 48
0.02
100
AcDbLine
 10
-161.7628336481765
 20
464.5919976498206
 30
0.0
 11
-161.7628336481765
 21
464.0919976498206
 31
0.0
  0
LINE
  5
10C9D
330
1F
100
AcDbEntity
  8
0
  6
HIDDEN
 62
     1
 48
0.02
100
AcDbLine
 10
-161.3628336481751
 20
464.5919976498206
 30
0.0
 11
-161.3628336481751
 21
464.0919976498206
 31
0.0
  0
LINE
  5
10C9E
330
1F
100
AcDbEntity
  8
0
  6
HIDDEN
 62
     1
 48
0.02
100
AcDbLine
 10
-162.3878336481747
 20
464.5919976498206
 30
0.0
 11
-161.7628336481747
 21
464.5919976498206
 31
0.0
  0
LINE
  5
10C9F
330
1F
100
AcDbEntity
  8
0
  6
HIDDEN
 62
     1
 48
0.02
100
AcDbLine
 10
-161.3628336481751
 20
464.5919976498206
 30
0.0
 11
-160.737833648175
 21
464.5919976498206
 31
0.0
  0
LWPOLYLINE
  5
10CA0
330
1F
100
AcDbEntity
  8
DETAILS
 62
     6
370
    20
100
AcDbPolyline
 90
        2
 70
     1
 43
0.0
 10
-166.0395868858094
 20
467.2419976498205
 10
-166.0577561844355
 20
467.2419976498205
  0
LWPOLYLINE
  5
10CA1
330
1F
100
AcDbEntity
  8
DETAILS
 62
     6
370
    20
100
AcDbPolyline
 90
        6
 70
     0
 43
0.0
 10
-162.3878336481765
 20
467.0426291578106
 10
-162.7579128183105
 20
467.4127083279394
 42
0.1989123673782988
 10
-162.8286234964279
 20
467.4419976498206
 10
-166.3878336481765
 20
467.4419976498206
 42
-0.2793220653060733
 10
-166.1020764202047
 20
467.2688520951417
 42
0.279322065306064
 10
-166.0577561844355
 20
467.2419976498202
  0
LWPOLYLINE
  5
10CA2
330
1F
100
AcDbEntity
  8
DETAILS
 62
     6
370
    20
100
AcDbPolyline
 90
        2
 70
     1
 43
0.0
 10
-165.9395868858108
 20
467.2419976498205
 10
-164.5395868858094
 20
467.2419976498205
  0
LWPOLYLINE
  5
10CA3
330
1F
100
AcDbEntity
  8
DETAILS
 62
     6
370
    20
100
AcDbPolyline
 90
        6
 70
     0
 43
0.0
 10
-165.9395868858108
 20
467.4419976498203
 10
-165.939586885809
 20
466.6119976498204
 42
0.4142135623730951
 10
-165.7395868858101
 20
466.4119976498203
 10
-164.8972221254834
 20
466.4119976498203
 42
0.3464949689054693
 10
-164.7027940516353
 20
466.5651177596779
 10
-164.4913635102301
 20
467.4419976498206
  0
LWPOLYLINE
  5
10CA4
330
1F
100
AcDbEntity
  8
DETAILS
 62
     6
370
    20
100
AcDbPolyline
 90
        6
 70
     0
 43
0.0
 10
-166.0395868858112
 20
467.4419976498203
 10
-166.0395868858094
 20
466.6119976498204
 42
0.4142135623730951
 10
-165.7395868858101
 20
466.3119976498204
 10
-164.8972221254834
 20
466.3119976498204
 42
0.3464949689054693
 10
-164.6055800147104
 20
466.5416778146067
 10
-164.3884977069327
 20
467.4419976498206
  0
LWPOLYLINE
  5
10CA5
330
1F
100
AcDbEntity
  8
DETAILS
 62
     6
370
    20
100
AcDbPolyline
 90
        2
 70
     1
 43
0.0
 10
-164.436721082512
 20
467.2419976498205
 10
-164.4185517838876
 20
467.2419976498205
  0
LWPOLYLINE
  5
10CA6
330
1F
100
AcDbEntity
  8
DETAILS
 62
     6
370
    20
100
AcDbPolyline
 90
        6
 70
     0
 43
0.0
 10
-164.4185517838876
 20
467.2419976498202
 42
0.279322065306064
 10
-164.374231547158
 20
467.2688520946405
 42
-0.6059183769079624
 10
-163.8027170921767
 20
467.2688520951417
 42
0.2793220653054726
 10
-163.7583968564075
 20
467.2419976498205
 10
-163.6652275577788
 20
467.2419976498205
 10
-163.7583968564075
 20
467.2419976498205
  0
LWPOLYLINE
  5
10CA7
330
1F
100
AcDbEntity
  8
DETAILS
 62
     6
370
    20
100
AcDbPolyline
 90
        7
 70
     0
 43
0.0
 10
-163.2372021401924
 20
467.4419976498206
 10
-163.137202140192
 20
467.4419976498206
 10
-162.887202140192
 20
467.4419976498206
 10
-163.4832786379128
 20
467.4419976498206
 10
-163.6737976437351
 20
466.6518455564413
 42
0.4853378929632635
 10
-163.508533780964
 20
466.4419976498205
 10
-162.3878336481765
 20
466.4419976498203
  0
LWPOLYLINE
  5
10CA8
330
1F
100
AcDbEntity
  8
DETAILS
 62
     6
370
    20
100
AcDbPolyline
 90
        4
 70
     0
 43
0.0
 10
-163.6170041821996
 20
467.4419976498206
 10
-163.800175891737
 20
466.6823174850338
 42
0.4853378929632635
 10
-163.508533780964
 20
466.3119976498204
 10
-162.3878336481765
 20
466.3119976498204
  0
LWPOLYLINE
  5
10CA9
330
1F
100
AcDbEntity
  8
DETAILS
 62
     6
370
    20
100
AcDbPolyline
 90
       10
 70
     1
 43
0.0
 10
-166.3878336481765
 20
467.4919976498203
 10
-163.2372021401924
 20
467.4919976498203
 10
-163.1394745333172
 20
467.51408722232
 42
0.7807764064044151
 10
-163.1394745333172
 20
467.5199080773207
 10
-163.2372021401906
 20
467.5419976498204
 10
-166.3878336481765
 20
467.5419976498204
 10
-169.5384651561625
 20
467.5419976498204
 10
-169.6361927630358
 20
467.5199080773207
 42
0.7807764064044151
 10
-169.6361927630358
 20
467.51408722232
 10
-169.5384651561606
 20
467.4919976498203
  0
LWPOLYLINE
  5
10CAA
330
1F
100
AcDbEntity
  8
DETAILS
 62
     6
370
    20
100
AcDbPolyline
 90
        7
 70
     0
 43
0.0
 10
-170.3878336481783
 20
468.2913661418318
 10
-170.0177544780425
 20
467.9212869717015
 42
0.1989123673781765
 10
-169.9470437999251
 20
467.8919976498206
 10
-166.3878336481765
 20
467.8919976498203
 10
-162.8286234964279
 20
467.8919976498206
 42
0.1989123673781768
 10
-162.7579128183105
 20
467.9212869717015
 10
-162.3878336481783
 20
468.2913661418296
  0
LWPOLYLINE
  5
10CAB
330
1F
100
AcDbEntity
  8
DETAILS
 62
     6
370
    20
100
AcDbPolyline
 90
        7
 70
     0
 43
0.0
 10
-170.3878336481783
 20
468.491366141831
 10
-170.134911765569
 20
468.2384442592248
 42
0.1989123673777967
 10
-169.7813583749783
 20
468.0919976498207
 10
-166.3878336481765
 20
468.0919976498204
 10
-162.9943089213746
 20
468.0919976498207
 42
0.1989123673777968
 10
-162.640755530784
 20
468.2384442592248
 10
-162.3878336481783
 20
468.4913661418282
  0
LWPOLYLINE
  5
10CAC
330
1F
100
AcDbEntity
  8
DETAILS
 62
     6
370
    20
100
AcDbPolyline
 90
        4
 70
     0
 43
0.0
 10
-162.3878336481783
 20
466.8426291578088
 10
-162.6407555307859
 20
467.095551040415
 42
0.1989123673788307
 10
-162.9943089213765
 20
467.2419976498205
 10
-163.531502013492
 20
467.2419976498205
  0
LWPOLYLINE
  5
10CAD
330
1F
100
AcDbEntity
  8
DETAILS
 62
     6
370
    20
100
AcDbPolyline
 90
        4
 70
     0
 43
0.0
 10
-162.3878336481783
 20
468.0413661418323
 10
-162.6561361230132
 20
467.773063666999
 42
0.4142135623745727
 10
-162.6561361230132
 20
467.5609316326426
 10
-162.3878336481765
 20
467.2926291578079
  0
LWPOLYLINE
  5
10CAE
330
1F
100
AcDbEntity
  8
DETAILS
 62
     6
370
    20
100
AcDbPolyline
 90
        6
 70
     1
 43
0.0
 10
-166.3878336481765
 20
467.5919976498204
 10
-162.887202140192
 20
467.5919976498204
 10
-162.887202140192
 20
467.7419976498205
 10
-166.3878336481765
 20
467.7419976498205
 10
-169.888465156161
 20
467.7419976498205
 10
-169.888465156161
 20
467.5919976498204
  0
LWPOLYLINE
  5
10CAF
330
1F
100
AcDbEntity
  8
DETAILS
 62
     6
370
    20
100
AcDbPolyline
 90
        2
 70
     1
 43
0.0
 10
-166.0395868858094
 20
473.4419976498205
 10
-166.0577561844355
 20
473.4419976498205
  0
LWPOLYLINE
  5
10CB0
330
1F
100
AcDbEntity
  8
DETAILS
 62
     6
370
    20
100
AcDbPolyline
 90
        6
 70
     0
 43
0.0
 10
-166.0577561844355
 20
473.4419976498205
 42
0.279322065306064
 10
-166.1020764211652
 20
473.4151432050006
 42
-0.2793220653060733
 10
-166.3878336481765
 20
473.2419976498205
 10
-162.8286234964279
 20
473.2419976498205
 42
0.1989123673782991
 10
-162.7579128183105
 20
473.2712869717014
 10
-162.3878336481783
 20
473.6413661418297
  0
LWPOLYLINE
  5
10CB1
330
1F
100
AcDbEntity
  8
DETAILS
 62
     6
370
    20
100
AcDbPolyline
 90
        2
 70
     1
 43
0.0
 10
-165.9395868858108
 20
473.4419976498205
 10
-164.5395868858094
 20
473.4419976498205
  0
LWPOLYLINE
  5
10CB2
330
1F
100
AcDbEntity
  8
DETAILS
 62
     6
370
    20
100
AcDbPolyline
 90
        6
 70
     0
 43
0.0
 10
-164.4913635102301
 20
473.2419976498205
 10
-164.7027940516353
 20
474.1188775399631
 42
0.3464949689054692
 10
-164.8972221254834
 20
474.2719976498205
 10
-165.7395868858101
 20
474.2719976498205
 42
0.4142135623730951
 10
-165.9395868858108
 20
474.0719976498207
 10
-165.9395868858108
 20
473.2419976498207
  0
LWPOLYLINE
  5
10CB3
330
1F
100
AcDbEntity
  8
DETAILS
 62
     6
370
    20
100
AcDbPolyline
 90
        6
 70
     0
 43
0.0
 10
-164.3884977069327
 20
473.2419976498205
 10
-164.6055800147104
 20
474.1423174850341
 42
0.3464949689054692
 10
-164.8972221254834
 20
474.3719976498206
 10
-165.7395868858101
 20
474.3719976498206
 42
0.4142135623730951
 10
-166.0395868858094
 20
474.0719976498207
 10
-166.0395868858112
 20
473.2419976498207
  0
LWPOLYLINE
  5
10CB4
330
1F
100
AcDbEntity
  8
DETAILS
 62
     6
370
    20
100
AcDbPolyline
 90
        2
 70
     1
 43
0.0
 10
-164.436721082512
 20
473.4419976498205
 10
-164.4185517838876
 20
473.4419976498205
  0
LWPOLYLINE
  5
10CB5
330
1F
100
AcDbEntity
  8
DETAILS
 62
     6
370
    20
100
AcDbPolyline
 90
        6
 70
     0
 43
0.0
 10
-163.7583968564075
 20
473.4419976498205
 10
-163.6652275577807
 20
473.4419976498205
 10
-163.7583968564075
 20
473.4419976498205
 42
0.2793220653054726
 10
-163.8027170931353
 20
473.4151432050006
 42
-0.6059183769079625
 10
-164.3742315481184
 20
473.4151432044992
 42
0.279322065306064
 10
-164.4185517838876
 20
473.4419976498205
  0
LWPOLYLINE
  5
10CB6
330
1F
100
AcDbEntity
  8
DETAILS
 62
     6
370
    20
100
AcDbPolyline
 90
        7
 70
     0
 43
0.0
 10
-162.3878336481783
 20
474.2419976498204
 10
-163.508533780964
 20
474.2419976498204
 42
0.4853378929632635
 10
-163.6737976437351
 20
474.0321497431997
 10
-163.4832786379128
 20
473.2419976498205
 10
-162.887202140192
 20
473.2419976498205
 10
-163.137202140192
 20
473.2419976498205
 10
-163.2372021401924
 20
473.2419976498205
  0
LWPOLYLINE
  5
10CB7
330
1F
100
AcDbEntity
  8
DETAILS
 62
     6
370
    20
100
AcDbPolyline
 90
        4
 70
     0
 43
0.0
 10
-162.3878336481783
 20
474.3719976498204
 10
-163.508533780964
 20
474.3719976498206
 42
0.4853378929632635
 10
-163.800175891737
 20
474.0016778146071
 10
-163.6170041821996
 20
473.2419976498205
  0
LWPOLYLINE
  5
10CB8
330
1F
100
AcDbEntity
  8
DETAILS
 62
     6
370
    20
100
AcDbPolyline
 90
       10
 70
     1
 43
0.0
 10
-166.3878336481765
 20
473.1919976498205
 10
-169.5384651561606
 20
473.1919976498205
 10
-169.6361927630358
 20
473.1699080773209
 42
0.7807764064044151
 10
-169.6361927630358
 20
473.16408722232
 10
-169.5384651561625
 20
473.1419976498206
 10
-166.3878336481765
 20
473.1419976498206
 10
-163.2372021401906
 20
473.1419976498206
 10
-163.1394745333172
 20
473.16408722232
 42
0.7807764064044151
 10
-163.1394745333172
 20
473.1699080773209
 10
-163.2372021401924
 20
473.1919976498205
  0
LWPOLYLINE
  5
10CB9
330
1F
100
AcDbEntity
  8
DETAILS
 62
     6
370
    20
100
AcDbPolyline
 90
        7
 70
     0
 43
0.0
 10
-162.3878336481783
 20
472.3926291578115
 10
-162.7579128183105
 20
472.7627083279395
 42
0.1989123673781766
 10
-162.8286234964279
 20
472.7919976498204
 10
-166.3878336481765
 20
472.7919976498204
 10
-169.9470437999251
 20
472.7919976498204
 42
0.1989123673781765
 10
-170.0177544780425
 20
472.7627083279395
 10
-170.3878336481783
 20
472.392629157809
  0
LWPOLYLINE
  5
10CBA
330
1F
100
AcDbEntity
  8
DETAILS
 62
     6
370
    20
100
AcDbPolyline
 90
        7
 70
     0
 43
0.0
 10
-162.3878336481783
 20
472.1926291578133
 10
-162.640755530784
 20
472.4455510404162
 42
0.1989123673777966
 10
-162.9943089213746
 20
472.5919976498204
 10
-166.3878336481765
 20
472.5919976498206
 10
-169.7813583749783
 20
472.5919976498204
 42
0.1989123673777966
 10
-170.134911765569
 20
472.4455510404162
 10
-170.3878336481783
 20
472.1926291578096
  0
LWPOLYLINE
  5
10CBB
330
1F
100
AcDbEntity
  8
DETAILS
 62
     6
370
    20
100
AcDbPolyline
 90
        4
 70
     0
 43
0.0
 10
-163.531502013492
 20
473.4419976498205
 10
-162.9943089213765
 20
473.4419976498205
 42
0.1989123673788307
 10
-162.6407555307859
 20
473.5884442592261
 10
-162.3878336481783
 20
473.8413661418316
  0
LWPOLYLINE
  5
10CBC
330
1F
100
AcDbEntity
  8
DETAILS
 62
     6
370
    20
100
AcDbPolyline
 90
        4
 70
     0
 43
0.0
 10
-162.3878336481783
 20
473.3913661418331
 10
-162.6561361230132
 20
473.1230636669983
 42
0.4142135623745727
 10
-162.6561361230132
 20
472.910931632642
 10
-162.3878336481783
 20
472.6426291578092
  0
LWPOLYLINE
  5
10CBD
330
1F
100
AcDbEntity
  8
DETAILS
 62
     6
370
    20
100
AcDbPolyline
 90
        6
 70
     1
 43
0.0
 10
-166.3878336481765
 20
473.0919976498206
 10
-162.887202140192
 20
473.0919976498206
 10
-162.887202140192
 20
472.9419976498205
 10
-166.3878336481765
 20
472.9419976498205
 10
-169.888465156161
 20
472.9419976498205
 10
-169.888465156161
 20
473.0919976498206
  0
LWPOLYLINE
  5
10CBE
330
1F
100
AcDbEntity
  8
DETAILS
 62
     6
370
    20
100
AcDbPolyline
 90
        2
 70
     1
 43
0.0
 10
-166.7360804105436
 20
467.2419976498205
 10
-166.7179111119175
 20
467.2419976498205
  0
LWPOLYLINE
  5
10CBF
330
1F
100
AcDbEntity
  8
DETAILS
 62
     6
370
    20
100
AcDbPolyline
 90
        6
 70
     0
 43
0.0
 10
-166.7179111119175
 20
467.2419976498202
 42
0.279322065306064
 10
-166.6735908751878
 20
467.2688520946405
 42
-0.2793220653060734
 10
-166.3878336481765
 20
467.4419976498206
 10
-169.9470437999251
 20
467.4419976498206
 42
0.1989123673782987
 10
-170.0177544780425
 20
467.4127083279394
 10
-170.3878336481783
 20
467.0426291578086
  0
LWPOLYLINE
  5
10CC0
330
1F
100
AcDbEntity
  8
DETAILS
 62
     6
370
    20
100
AcDbPolyline
 90
        2
 70
     1
 43
0.0
 10
-166.8360804105422
 20
467.2419976498205
 10
-168.2360804105436
 20
467.2419976498205
  0
LWPOLYLINE
  5
10CC1
330
1F
100
AcDbEntity
  8
DETAILS
 62
     6
370
    20
100
AcDbPolyline
 90
        6
 70
     0
 43
0.0
 10
-168.2843037861229
 20
467.4419976498206
 10
-168.0728732447177
 20
466.5651177596779
 42
0.3464949689054692
 10
-167.8784451708696
 20
466.4119976498203
 10
-167.0360804105429
 20
466.4119976498203
 42
0.4142135623730951
 10
-166.8360804105422
 20
466.6119976498204
 10
-166.8360804105422
 20
467.4419976498203
  0
LWPOLYLINE
  5
10CC2
330
1F
100
AcDbEntity
  8
DETAILS
 62
     6
370
    20
100
AcDbPolyline
 90
        6
 70
     0
 43
0.0
 10
-168.3871695894203
 20
467.4419976498206
 10
-168.1700872816426
 20
466.5416778146067
 42
0.3464949689054692
 10
-167.8784451708696
 20
466.3119976498204
 10
-167.0360804105429
 20
466.3119976498204
 42
0.4142135623730951
 10
-166.7360804105436
 20
466.6119976498204
 10
-166.7360804105418
 20
467.4419976498203
  0
LWPOLYLINE
  5
10CC3
330
1F
100
AcDbEntity
  8
DETAILS
 62
     6
370
    20
100
AcDbPolyline
 90
        2
 70
     1
 43
0.0
 10
-168.338946213841
 20
467.2419976498205
 10
-168.3571155124654
 20
467.2419976498205
  0
LWPOLYLINE
  5
10CC4
330
1F
100
AcDbEntity
  8
DETAILS
 62
     6
370
    20
100
AcDbPolyline
 90
        6
 70
     0
 43
0.0
 10
-169.0172704399455
 20
467.2419976498205
 10
-169.1104397385724
 20
467.2419976498205
 10
-169.0172704399455
 20
467.2419976498205
 42
0.2793220653054726
 10
-168.9729502032177
 20
467.2688520946405
 42
-0.6059183769079624
 10
-168.4014357482346
 20
467.2688520951417
 42
0.279322065306064
 10
-168.3571155124654
 20
467.2419976498202
  0
LWPOLYLINE
  5
10CC5
330
1F
100
AcDbEntity
  8
DETAILS
 62
     6
370
    20
100
AcDbPolyline
 90
        7
 70
     0
 43
0.0
 10
-170.3878336481783
 20
466.4419976498203
 10
-169.267133515389
 20
466.4419976498205
 42
0.4853378929632635
 10
-169.1018696526179
 20
466.6518455564413
 10
-169.2923886584402
 20
467.4419976498206
 10
-169.888465156161
 20
467.4419976498206
 10
-169.638465156161
 20
467.4419976498206
 10
-169.5384651561606
 20
467.4419976498206
  0
LWPOLYLINE
  5
10CC6
330
1F
100
AcDbEntity
  8
DETAILS
 62
     6
370
    20
100
AcDbPolyline
 90
        4
 70
     0
 43
0.0
 10
-170.3878336481783
 20
466.3119976498204
 10
-169.267133515389
 20
466.3119976498204
 42
0.4853378929632635
 10
-168.975491404616
 20
466.6823174850338
 10
-169.1586631141534
 20
467.4419976498206
  0
LWPOLYLINE
  5
10CC7
330
1F
100
AcDbEntity
  8
DETAILS
 62
     6
370
    20
100
AcDbPolyline
 90
        4
 70
     0
 43
0.0
 10
-169.244165282861
 20
467.2419976498205
 10
-169.7813583749765
 20
467.2419976498205
 42
0.1989123673788306
 10
-170.1349117655671
 20
467.095551040415
 10
-170.3878336481765
 20
466.8426291578067
  0
LWPOLYLINE
  5
10CC8
330
1F
100
AcDbEntity
  8
DETAILS
 62
     6
370
    20
100
AcDbPolyline
 90
        4
 70
     0
 43
0.0
 10
-170.3878336481783
 20
467.2926291578057
 10
-170.1195311733398
 20
467.5609316326426
 42
0.4142135623745727
 10
-170.1195311733398
 20
467.773063666999
 10
-170.3878336481765
 20
468.0413661418343
  0
LWPOLYLINE
  5
10CC9
330
1F
100
AcDbEntity
  8
DETAILS
 62
     6
370
    20
100
AcDbPolyline
 90
        2
 70
     1
 43
0.0
 10
-166.7360804105436
 20
473.4419976498205
 10
-166.7179111119175
 20
473.4419976498205
  0
LWPOLYLINE
  5
10CCA
330
1F
100
AcDbEntity
  8
DETAILS
 62
     6
370
    20
100
AcDbPolyline
 90
        6
 70
     0
 43
0.0
 10
-170.3878336481783
 20
473.6413661418324
 10
-170.0177544780425
 20
473.2712869717014
 42
0.1989123673782989
 10
-169.9470437999251
 20
473.2419976498205
 10
-166.3878336481765
 20
473.2419976498203
 42
-0.2793220653060733
 10
-166.6735908761483
 20
473.4151432044992
 42
0.279322065306064
 10
-166.7179111119175
 20
473.4419976498205
  0
LWPOLYLINE
  5
10CCB
330
1F
100
AcDbEntity
  8
DETAILS
 62
     6
370
    20
100
AcDbPolyline
 90
        2
 70
     1
 43
0.0
 10
-166.8360804105422
 20
473.4419976498205
 10
-168.2360804105436
 20
473.4419976498205
  0
LWPOLYLINE
  5
10CCC
330
1F
100
AcDbEntity
  8
DETAILS
 62
     6
370
    20
100
AcDbPolyline
 90
        6
 70
     0
 43
0.0
 10
-166.8360804105422
 20
473.2419976498207
 10
-166.836080410544
 20
474.0719976498207
 42
0.4142135623730951
 10
-167.0360804105429
 20
474.2719976498205
 10
-167.8784451708696
 20
474.2719976498205
 42
0.3464949689054692
 10
-168.0728732447177
 20
474.1188775399631
 10
-168.2843037861229
 20
473.2419976498205
  0
LWPOLYLINE
  5
10CCD
330
1F
100
AcDbEntity
  8
DETAILS
 62
     6
370
    20
100
AcDbPolyline
 90
        6
 70
     0
 43
0.0
 10
-166.7360804105418
 20
473.2419976498207
 10
-166.7360804105436
 20
474.0719976498207
 42
0.4142135623730951
 10
-167.0360804105429
 20
474.3719976498206
 10
-167.8784451708696
 20
474.3719976498206
 42
0.3464949689054692
 10
-168.1700872816426
 20
474.1423174850341
 10
-168.3871695894203
 20
473.2419976498205
  0
LWPOLYLINE
  5
10CCE
330
1F
100
AcDbEntity
  8
DETAILS
 62
     6
370
    20
100
AcDbPolyline
 90
        2
 70
     1
 43
0.0
 10
-168.338946213841
 20
473.4419976498205
 10
-168.3571155124654
 20
473.4419976498205
  0
LWPOLYLINE
  5
10CCF
330
1F
100
AcDbEntity
  8
DETAILS
 62
     6
370
    20
100
AcDbPolyline
 90
        6
 70
     0
 43
0.0
 10
-168.3571155124654
 20
473.4419976498205
 42
0.279322065306064
 10
-168.401435749195
 20
473.4151432050006
 42
-0.6059183769079624
 10
-168.9729502041763
 20
473.4151432044992
 42
0.2793220653054726
 10
-169.0172704399455
 20
473.4419976498205
 10
-169.1104397385742
 20
473.4419976498205
 10
-169.0172704399455
 20
473.4419976498205
  0
LWPOLYLINE
  5
10CD0
330
1F
100
AcDbEntity
  8
DETAILS
 62
     6
370
    20
100
AcDbPolyline
 90
        7
 70
     0
 43
0.0
 10
-169.5384651561606
 20
473.2419976498205
 10
-169.638465156161
 20
473.2419976498205
 10
-169.888465156161
 20
473.2419976498205
 10
-169.2923886584402
 20
473.2419976498205
 10
-169.1018696526179
 20
474.0321497431994
 42
0.4853378929632635
 10
-169.267133515389
 20
474.2419976498204
 10
-170.3878336481783
 20
474.2419976498204
  0
LWPOLYLINE
  5
10CD1
330
1F
100
AcDbEntity
  8
DETAILS
 62
     6
370
    20
100
AcDbPolyline
 90
        4
 70
     0
 43
0.0
 10
-169.1586631141534
 20
473.2419976498205
 10
-168.975491404616
 20
474.0016778146071
 42
0.4853378929632635
 10
-169.267133515389
 20
474.3719976498206
 10
-170.3878336481783
 20
474.3719976498204
  0
LWPOLYLINE
  5
10CD2
330
1F
100
AcDbEntity
  8
DETAILS
 62
     6
370
    20
100
AcDbPolyline
 90
        4
 70
     0
 43
0.0
 10
-170.3878336481783
 20
473.8413661418348
 10
-170.1349117655671
 20
473.5884442592261
 42
0.1989123673788307
 10
-169.7813583749765
 20
473.4419976498205
 10
-169.244165282861
 20
473.4419976498205
  0
LWPOLYLINE
  5
10CD3
330
1F
100
AcDbEntity
  8
DETAILS
 62
     6
370
    20
100
AcDbPolyline
 90
        4
 70
     0
 43
0.0
 10
-170.3878336481783
 20
472.6426291578063
 10
-170.1195311733398
 20
472.910931632642
 42
0.4142135623745727
 10
-170.1195311733398
 20
473.1230636669983
 10
-170.3878336481783
 20
473.3913661418358
  0
LINE
  5
10CD4
330
1F
100
AcDbEntity
  8
0
 62
     1
100
AcDbLine
 10
-172.3878336481765
 20
464.0919976498206
 30
0.0
 11
-170.8378336481772
 21
464.0919976498206
 31
0.0
  0
LINE
  5
10CD5
330
1F
100
AcDbEntity
  8
0
 62
     1
100
AcDbLine
 10
-172.0378336481779
 20
464.5919976498206
 30
0.0
 11
-171.412833648178
 21
464.5919976498206
 31
0.0
  0
LINE
  5
10CD6
330
1F
100
AcDbEntity
  8
0
 62
     1
100
AcDbLine
 10
-171.0128336481783
 20
464.5919976498206
 30
0.0
 11
-171.0128336481783
 21
464.0919976498204
 31
0.0
  0
LINE
  5
10CD7
330
1F
100
AcDbEntity
  8
0
 62
     1
100
AcDbLine
 10
-171.412833648178
 20
464.5919976498206
 30
0.0
 11
-171.4128336481761
 21
464.0919976498206
 31
0.0
  0
LINE
  5
10CD8
330
1F
100
AcDbEntity
  8
0
 62
     1
100
AcDbLine
 10
-171.0128336481783
 20
464.5919976498206
 30
0.0
 11
-170.3878336481783
 21
464.5919976498206
 31
0.0
  0
LINE
  5
10CD9
330
1F
100
AcDbEntity
  8
0
 62
     1
100
AcDbLine
 10
-170.8378336481772
 20
464.3419976498206
 30
0.0
 11
-170.8378336481772
 21
464.0919976498206
 31
0.0
  0
LINE
  5
10CDA
330
1F
100
AcDbEntity
  8
0
 62
     1
100
AcDbLine
 10
-170.8378336481772
 20
464.3419976498206
 30
0.0
 11
-170.5878336481772
 21
464.3419976498206
 31
0.0
  0
LINE
  5
10CDB
330
1F
100
AcDbEntity
  8
0
 62
     1
100
AcDbLine
 10
-170.5878336481772
 20
464.0919976498206
 30
0.0
 11
-170.3878336481783
 21
464.0919976498206
 31
0.0
  0
LINE
  5
10CDC
330
1F
100
AcDbEntity
  8
0
 48
0.15
100
AcDbLine
 10
-171.412833648178
 20
464.0919976498206
 30
0.0
 11
-171.0128336481783
 21
464.0919976498206
 31
0.0
  0
LINE
  5
10CDD
330
1F
100
AcDbEntity
  8
0
 62
     1
100
AcDbLine
 10
-170.9628336481772
 20
464.0919976498206
 30
0.0
 11
-171.4628336481772
 21
464.0919976498206
 31
0.0
  0
LINE
  5
10CDE
330
1F
100
AcDbEntity
  8
0
 62
     1
100
AcDbLine
 10
-160.7378336481769
 20
464.5919976498206
 30
0.0
 11
-160.7378336481769
 21
464.0919976498206
 31
0.0
  0
LINE
  5
10CDF
330
1F
100
AcDbEntity
  8
0
 62
     1
100
AcDbLine
 10
-161.7628336481783
 20
464.5919976498206
 30
0.0
 11
-161.7628336481783
 21
464.0919976498206
 31
0.0
  0
LINE
  5
10CE0
330
1F
100
AcDbEntity
  8
0
 62
     1
100
AcDbLine
 10
-161.3628336481769
 20
464.5919976498206
 30
0.0
 11
-161.3628336481769
 21
464.0919976498206
 31
0.0
  0
LINE
  5
10CE1
330
1F
100
AcDbEntity
  8
0
 62
     1
100
AcDbLine
 10
-162.3878336481765
 20
464.5919976498206
 30
0.0
 11
-161.7628336481765
 21
464.5919976498206
 31
0.0
  0
LINE
  5
10CE2
330
1F
100
AcDbEntity
  8
0
 62
     1
100
AcDbLine
 10
-161.3628336481769
 20
464.5919976498206
 30
0.0
 11
-160.7378336481769
 21
464.5919976498206
 31
0.0
  0
LINE
  5
10CE3
330
1F
100
AcDbEntity
  8
0
 62
     1
100
AcDbLine
 10
-161.9378336481776
 20
464.3419976498206
 30
0.0
 11
-161.9378336481776
 21
464.0919976498206
 31
0.0
  0
LINE
  5
10CE4
330
1F
100
AcDbEntity
  8
0
 62
     1
100
AcDbLine
 10
-162.1878336481776
 20
464.3419976498206
 30
0.0
 11
-161.9378336481776
 21
464.3419976498206
 31
0.0
  0
LINE
  5
10CE5
330
1F
100
AcDbEntity
  8
0
 62
     1
100
AcDbLine
 10
-161.9728336481774
 20
464.0919976498206
 30
0.0
 11
-160.3878336481765
 21
464.0919976498206
 31
0.0
  0
LINE
  5
10CE6
330
1F
100
AcDbEntity
  8
0
 62
     1
100
AcDbLine
 10
-162.3878336481765
 20
464.0919976498206
 30
0.0
 11
-162.1878336481776
 21
464.0919976498206
 31
0.0
  0
LEADER
  5
10CE7
330
1F
100
AcDbEntity
  8
DIM
100
AcDbLeader
  3
ARCTEXT1-4
 76
     3
 10
-172.3878336481783
 20
474.1392163594581
 30
0.0
 10
-181.015300380256
 20
474.1400555998924
 30
0.0
 10
-183.0876392656417
 20
474.1400555998924
 30
0.0
211
-1.0
221
0.0
231
0.0
1001
ACAD
1000
DSTYLE
1002
{
1070
    41
1040
0.5
1070
    77
1070
     0
1002
}
  0
MTEXT
  5
10CE8
330
1F
100
AcDbEntity
  8
DIM
 62
     3
100
AcDbMText
 10
-183.3280247508018
 20
474.6414440142055
 30
0.0
 40
1.0
 41
22.68954545454545
 71
     3
 72
     5
  1
GREENBLOCK ICF 
  7
RomanC
 73
     1
 44
1.0
1001
ACAD
1000
MTEXTBEGIN
1070
    73
1070
     1
1070
    44
1040
1.0
1070
    74
1070
     0
1000
MTEXTEND
  0
MTEXT
  5
10CE9
330
1F
100
AcDbEntity
  8
DIM
 62
     3
100
AcDbMText
 10
-183.1727666743416
 20
441.2457605822327
 30
0.0
 40
1.0
 41
22.68954545454545
 71
     3
 72
     5
  1
CONT VERT REINF (BEYOND) 
  7
RomanC
 73
     1
 44
1.0
1001
ACAD
1000
MTEXTBEGIN
1070
    73
1070
     1
1070
    44
1040
1.0
1070
    74
1070
     0
1000
MTEXTEND
  0
MTEXT
  5
10CEA
330
1F
100
AcDbEntity
  8
DIM
 62
     3
100
AcDbMText
 10
-184.2613454639348
 20
435.875576806009
 30
0.0
 40
1.0
 41
22.68954545454545
 71
     3
 72
     5
  1
HORIZ REINF 
  7
RomanC
 73
     1
 44
1.0
1001
ACAD
1000
MTEXTBEGIN
1070
    73
1070
     1
1070
    44
1040
1.0
1070
    74
1070
     0
1000
MTEXTEND
  0
LEADER
  5
10CEB
330
1F
100
AcDbEntity
  8
DIM
100
AcDbLeader
  3
ARCTEXT1-4
 76
     3
 10
-167.2036056892092
 20
437.7358807775334
 30
0.0
 10
-182.5613931232464
 20
435.3725605117159
 30
0.0
 10
-183.7899972986587
 20
435.3725605117159
 30
0.0
211
-1.0
221
0.0
231
0.0
1001
ACAD
1000
DSTYLE
1002
{
1070
    41
1040
0.5
1070
    77
1070
     0
1002
}
  0
LEADER
  5
10CEC
330
1F
100
AcDbEntity
  8
DIM
100
AcDbLeader
  3
ARCTEXT1-4
 76
     3
 10
-166.3878336481765
 20
440.5004114225092
 30
0.0
 10
-179.25555570322
 20
440.5008310427263
 30
0.0
 10
-182.3006082980581
 20
440.5008310427263
 30
0.0
211
-1.0
221
0.0
231
0.0
1001
ACAD
1000
DSTYLE
1002
{
1070
    41
1040
0.5
1070
    77
1070
     0
1002
}
  0
LINE
  5
10CED
330
1F
100
AcDbEntity
  8
A4 medium
 48
0.15
100
AcDbLine
 10
-168.1720746796026
 20
458.0919976498204
 30
0.0
 11
-129.4936173039558
 21
458.0919976498204
 31
0.0
  0
LINE
  5
10CEE
330
1F
100
AcDbEntity
  8
A4 medium
 48
0.15
100
AcDbLine
 10
-168.1720746796026
 20
459.0919976498204
 30
0.0
 11
-129.4936173039558
 21
459.0919976498204
 31
0.0
  0
LINE
  5
10CEF
330
1F
100
AcDbEntity
  8
A4 medium
 48
0.15
100
AcDbLine
 10
-157.5220746796011
 20
461.5919976498203
 30
0.0
 11
-153.5220746796029
 21
461.5919976498203
 31
0.0
  0
LINE
  5
10CF0
330
1F
100
AcDbEntity
  8
A4 medium
 48
0.15
100
AcDbLine
 10
-138.3807839856243
 20
463.6267335873907
 30
0.0
 11
-137.3807839856243
 21
462.6267335873907
 31
0.0
  0
LINE
  5
10CF1
330
1F
100
AcDbEntity
  8
A4 medium
 48
0.15
100
AcDbLine
 10
-137.3807839856243
 20
463.6267335873907
 30
0.0
 11
-138.3807839856243
 21
462.6267335873907
 31
0.0
  0
LINE
  5
10CF2
330
1F
100
AcDbEntity
  8
A4 medium
 48
0.15
100
AcDbLine
 10
-157.5220746796029
 20
461.5919976498203
 30
0.0
 11
-158.1720746796026
 21
459.0919976498204
 31
0.0
  0
LINE
  5
10CF3
330
1F
100
AcDbEntity
  8
A4 medium
 48
0.15
100
AcDbLine
 10
-153.5220746796011
 20
461.5919976498203
 30
0.0
 11
-152.8720746796015
 21
459.0919976498204
 31
0.0
  0
LINE
  5
10CF4
330
1F
100
AcDbEntity
  8
0
 48
0.15
100
AcDbLine
 10
-152.8720746796015
 20
459.0919976498204
 30
0.0
 11
-150.8720746796015
 21
459.0919976498204
 31
0.0
  0
LINE
  5
10CF5
330
1F
100
AcDbEntity
  8
A4 medium
 48
0.15
100
AcDbLine
 10
-150.2220746796
 20
461.5919976498203
 30
0.0
 11
-146.2220746796018
 21
461.5919976498203
 31
0.0
  0
LINE
  5
10CF6
330
1F
100
AcDbEntity
  8
A4 medium
 48
0.15
100
AcDbLine
 10
-150.2220746796018
 20
461.5919976498203
 30
0.0
 11
-150.8720746796015
 21
459.0919976498204
 31
0.0
  0
LINE
  5
10CF7
330
1F
100
AcDbEntity
  8
A4 medium
 48
0.15
100
AcDbLine
 10
-146.2220746796
 20
461.5919976498203
 30
0.0
 11
-145.5720746796004
 21
459.0919976498204
 31
0.0
  0
LINE
  5
10CF8
330
1F
100
AcDbEntity
  8
A4 medium
 48
0.15
100
AcDbLine
 10
-142.9220746796007
 20
461.5919976498203
 30
0.0
 11
-138.9220746796008
 21
461.5919976498203
 31
0.0
  0
LINE
  5
10CF9
330
1F
100
AcDbEntity
  8
A4 medium
 48
0.15
100
AcDbLine
 10
-142.9220746796007
 20
461.5919976498203
 30
0.0
 11
-143.5720746796004
 21
459.0919976498204
 31
0.0
  0
LINE
  5
10CFA
330
1F
100
AcDbEntity
  8
A4 medium
 48
0.15
100
AcDbLine
 10
-138.9220746796008
 20
461.5919976498203
 30
0.0
 11
-138.2720746795993
 21
459.0919976498204
 31
0.0
  0
LINE
  5
10CFB
330
1F
100
AcDbEntity
  8
A4 medium
 48
0.15
100
AcDbLine
 10
-135.6220746795997
 20
461.5919976498203
 30
0.0
 11
-131.6220746796015
 21
461.5919976498203
 31
0.0
  0
LINE
  5
10CFC
330
1F
100
AcDbEntity
  8
A4 medium
 48
0.15
100
AcDbLine
 10
-135.6220746795997
 20
461.5919976498203
 30
0.0
 11
-136.2720746795993
 21
459.0919976498204
 31
0.0
  0
LINE
  5
10CFD
330
1F
100
AcDbEntity
  8
A4 medium
 48
0.15
100
AcDbLine
 10
-131.6220746795996
 20
461.5919976498203
 30
0.0
 11
-130.9720746796
 21
459.0919976498204
 31
0.0
  0
LINE
  5
10CFE
330
1F
100
AcDbEntity
  8
REBAR
 48
0.15
100
AcDbLine
 10
-166.3878336481765
 20
442.0919856793233
 30
0.0
 11
-166.3878336481765
 21
431.9508260421606
 31
0.0
  0
LINE
  5
10CFF
330
1F
100
AcDbEntity
  8
0
 48
0.15
100
AcDbLine
 10
-160.1720746796026
 20
442.0919856793233
 30
0.0
 11
-160.1720746796026
 21
444.5919856793233
 31
0.0
  0
LINE
  5
10D00
330
1F
100
AcDbEntity
  8
A5 heavy
 48
0.15
100
AcDbLine
 10
-160.1720746796044
 20
442.0919856793233
 30
0.0
 11
-168.1720746796026
 21
442.0919856793233
 31
0.0
  0
LINE
  5
10D01
330
1F
100
AcDbEntity
  8
A4 medium
 48
0.15
100
AcDbLine
 10
-168.1720746796026
 20
445.5919856793233
 30
0.0
 11
-129.4936173039558
 21
445.5919856793233
 31
0.0
  0
LINE
  5
10D02
330
1F
100
AcDbEntity
  8
A4 medium
 48
0.15
100
AcDbLine
 10
-160.1720746796026
 20
444.5919856793233
 30
0.0
 11
-160.1720746796026
 21
442.9419856793232
 31
0.0
  0
LINE
  5
10D03
330
1F
100
AcDbEntity
  8
A4 medium
 48
0.15
100
AcDbLine
 10
-160.1720746796026
 20
442.9419856793232
 30
0.0
 11
-168.1720746796026
 21
442.9419856793232
 31
0.0
  0
LEADER
  5
10D04
330
1F
100
AcDbEntity
  8
DIM
100
AcDbLeader
  3
ARCTEXT1-4
 76
     3
 10
-151.048604960354
 20
444.5919856793233
 30
0.0
 10
-147.9952764807466
 20
437.2320746947706
 30
0.0
 10
-139.525164752168
 20
437.2377627091335
 30
0.0
1001
ACAD
1000
DSTYLE
1002
{
1070
    41
1040
0.5
1070
    77
1070
     0
1002
}
  0
MTEXT
  5
10D05
330
1F
100
AcDbEntity
  8
DIM
 62
     3
100
AcDbMText
 10
-138.0513312493266
 20
437.7572152816886
 30
0.0
 40
1.0
 41
22.68954545454545
 71
     1
 72
     5
  1
STEEL BEAM
  7
RomanC
 73
     1
 44
1.0
1001
ACAD
1000
MTEXTBEGIN
1070
    73
1070
     1
1070
    44
1040
1.0
1070
    74
1070
     0
1000
MTEXTEND
  0
LEADER
  5
10D06
330
1F
100
AcDbEntity
  8
DIM
100
AcDbLeader
  3
ARCTEXT1-4
 76
     3
 10
-162.9508665574929
 20
444.2791331614556
 30
0.0
 10
-161.2677760587547
 20
449.5161664286659
 30
0.0
 10
-156.1796559883922
 20
449.5161664286659
 30
0.0
1001
ACAD
1000
DSTYLE
1002
{
1070
    41
1040
0.5
1070
    77
1070
     0
1002
}
  0
MTEXT
  5
10D07
330
1F
100
AcDbEntity
  8
DIM
 62
     3
100
AcDbMText
 10
-155.5209267194358
 20
449.9674905275368
 30
0.0
 40
1.0
 41
22.68954545454545
 71
     1
 72
     5
  1
BEARING PL
  7
RomanC
 73
     1
 44
1.0
1001
ACAD
1000
MTEXTBEGIN
1070
    73
1070
     1
1070
    44
1040
1.0
1070
    74
1070
     0
1000
MTEXTEND
  0
LEADER
  5
10D08
330
1F
100
AcDbEntity
  8
DIM
100
AcDbLeader
  3
ARCTEXT1-4
 76
     3
 10
-166.2950813975775
 20
445.5919856793233
 30
0.0
 10
-159.5251500604998
 20
455.9158597848726
 30
0.0
 10
-148.433038986749
 20
455.9158597848726
 30
0.0
1001
ACAD
1000
DSTYLE
1002
{
1070
    41
1040
0.5
1070
    77
1070
     0
1002
}
  0
LINE
  5
10D09
330
1F
100
AcDbEntity
  8
DIM
100
AcDbLine
 10
-155.5198527116198
 20
455.9158597848726
 30
0.0
 11
-155.5198527116198
 21
453.4158597848726
 31
0.0
  0
LINE
  5
10D0A
330
1F
100
AcDbEntity
  8
DIM
100
AcDbLine
 10
-155.5198527116198
 20
453.4158597848726
 30
0.0
 11
-153.0198527116198
 21
455.9158597848726
 31
0.0
  0
LINE
  5
10D0B
330
1F
100
AcDbEntity
  8
0
 48
0.15
100
AcDbLine
 10
-164.1720746796026
 20
442.0919856793233
 30
0.0
 11
-165.1720746796026
 21
442.0919856793233
 31
0.0
  0
LINE
  5
10D0C
330
1F
100
AcDbEntity
  8
A2 Hatch
 48
0.15
370
    30
100
AcDbLine
 10
-165.1720746796026
 20
442.0919856793233
 30
0.0
 11
-165.1720746796026
 21
438.934108987274
 31
0.0
  0
LINE
  5
10D0D
330
1F
100
AcDbEntity
  8
A2 Hatch
 48
0.15
370
    30
100
AcDbLine
 10
-165.6720746796026
 20
442.0919856793233
 30
0.0
 11
-165.6720746796026
 21
438.934108987274
 31
0.0
  0
LINE
  5
10D0E
330
1F
100
AcDbEntity
  8
A2 Hatch
 48
0.15
370
    30
100
AcDbLine
 10
-164.9220746796026
 20
438.934108987274
 30
0.0
 11
-165.9220746796026
 21
438.934108987274
 31
0.0
  0
LINE
  5
10D0F
330
1F
100
AcDbEntity
  8
A2 Hatch
 48
0.15
370
    30
100
AcDbLine
 10
-165.9220746796026
 20
438.934108987274
 30
0.0
 11
-165.9220746796026
 21
438.684108987274
 31
0.0
  0
LINE
  5
10D10
330
1F
100
AcDbEntity
  8
A2 Hatch
 48
0.15
370
    30
100
AcDbLine
 10
-164.9220746796026
 20
438.934108987274
 30
0.0
 11
-164.9220746796026
 21
438.684108987274
 31
0.0
  0
LINE
  5
10D11
330
1F
100
AcDbEntity
  8
A2 Hatch
 48
0.15
370
    30
100
AcDbLine
 10
-164.9220746796026
 20
438.684108987274
 30
0.0
 11
-165.9220746796026
 21
438.684108987274
 31
0.0
  0
LINE
  5
10D12
330
1F
100
AcDbEntity
  8
0
 62
     1
100
AcDbLine
 10
-162.3878336481765
 20
442.0919856793233
 30
0.0
 11
-160.3878336481765
 21
442.0919856793233
 31
0.0
  0
LINE
  5
10D13
330
1F
100
AcDbEntity
  8
DIM
100
AcDbLine
 10
-157.0368449696351
 20
488.7356943429868
 30
0.0
 11
-163.6637256040657
 21
486.4882366361483
 31
0.0
  0
LINE
  5
10D14
330
1F
100
AcDbEntity
  8
DIM
100
AcDbLine
 10
-162.7276825872639
 20
483.7282090182058
 30
0.0
 11
-163.6637256040657
 21
486.4882366361488
 31
0.0
  0
LINE
  5
10D15
330
1F
100
AcDbEntity
  8
DIM
100
AcDbLine
 10
-167.3238766649764
 20
488.3244030959186
 30
0.0
 11
-166.3878336481747
 21
485.5643754779761
 31
0.0
  0
LINE
  5
10D16
330
1F
100
AcDbEntity
  8
DIM
100
AcDbLine
 10
-166.3878336481747
 20
485.5643754779761
 30
0.0
 11
-173.8526358796797
 21
483.0327428395293
 31
0.0
  0
LINE
  5
10D17
330
1F
100
AcDbEntity
  8
DIM
100
AcDbLine
 10
-162.7276825872639
 20
483.7282090182058
 30
0.0
 11
-167.3238766649764
 21
488.3244030959186
 31
0.0
  0
LINE
  5
10D18
330
1F
100
AcDbEntity
  8
DIM
100
AcDbLine
 10
-157.0368449696369
 20
433.2981603060288
 30
0.0
 11
-163.6637256040657
 21
431.0507025991902
 31
0.0
  0
LINE
  5
10D19
330
1F
100
AcDbEntity
  8
DIM
100
AcDbLine
 10
-162.7276825872639
 20
428.2906749812476
 30
0.0
 11
-163.6637256040657
 21
431.0507025991904
 31
0.0
  0
LINE
  5
10D1A
330
1F
100
AcDbEntity
  8
DIM
100
AcDbLine
 10
-167.3238766649764
 20
432.8868690589605
 30
0.0
 11
-166.3878336481765
 21
430.126841441018
 31
0.0
  0
LINE
  5
10D1B
330
1F
100
AcDbEntity
  8
DIM
100
AcDbLine
 10
-166.3878336481765
 20
430.126841441018
 30
0.0
 11
-173.8526358796797
 21
427.5952088025709
 31
0.0
  0
LINE
  5
10D1C
330
1F
100
AcDbEntity
  8
DIM
100
AcDbLine
 10
-162.7276825872639
 20
428.2906749812476
 30
0.0
 11
-167.3238766649764
 21
432.8868690589605
 31
0.0
  0
LWPOLYLINE
  5
10D1D
330
1F
100
AcDbEntity
  8
DETAILS
 62
     6
370
    20
100
AcDbPolyline
 90
        5
 70
     0
 43
0.0
 10
-166.5289932853401
 20
432.0919856793233
 10
-166.3878336481747
 20
432.0919856793233
 10
-162.9943089213746
 20
432.0919856793233
 42
0.1989123673777968
 10
-162.640755530784
 20
432.2384322887277
 10
-162.3878336481765
 20
432.4913541713311
  0
LWPOLYLINE
  5
10D1E
330
1F
100
AcDbEntity
  8
DETAILS
 62
     6
370
    20
100
AcDbPolyline
 90
        4
 70
     0
 43
0.0
 10
-166.3289932853394
 20
431.8919856793232
 10
-162.8286234964279
 20
431.8919856793235
 42
0.1989123673781768
 10
-162.7579128183087
 20
431.9212750012044
 10
-162.3878336481765
 20
432.2913541713325
  0
LWPOLYLINE
  5
10D1F
330
1F
100
AcDbEntity
  8
DETAILS
 62
     6
370
    20
100
AcDbPolyline
 90
        4
 70
     0
 43
0.0
 10
-166.0289932853401
 20
431.5919856793233
 10
-162.8872021401902
 20
431.5919856793233
 10
-162.8872021401902
 20
431.7419856793234
 10
-166.1789932853397
 20
431.7419856793234
  0
LWPOLYLINE
  5
10D20
330
1F
100
AcDbEntity
  8
DETAILS
 62
     6
370
    20
100
AcDbPolyline
 90
        6
 70
     0
 43
0.0
 10
-165.9289932853397
 20
431.4919856793231
 10
-163.2372021401906
 20
431.4919856793231
 10
-163.1394745333153
 20
431.5140752518228
 42
0.7807764064044151
 10
-163.1394745333153
 20
431.5198961068237
 10
-163.2372021401906
 20
431.5419856793234
 10
-165.9789932853408
 20
431.5419856793231
  0
LINE
  5
10D21
330
1F
100
AcDbEntity
  8
DETAILS
 62
     6
370
    20
100
AcDbLine
 10
-165.6789932853397
 20
431.2419856793233
 30
0.0
 11
-164.5395868858094
 21
431.2419856793233
 31
0.0
  0
LINE
  5
10D22
330
1F
100
AcDbEntity
  8
DETAILS
 62
     6
370
    20
100
AcDbLine
 10
-164.5395868858094
 20
431.2419856793233
 30
0.0
 11
-165.6789932853397
 21
431.2419856793233
 31
0.0
  0
LWPOLYLINE
  5
10D23
330
1F
100
AcDbEntity
  8
DETAILS
 62
     6
370
    20
100
AcDbPolyline
 90
        2
 70
     0
 43
0.0
 10
-170.3648698242294
 20
484.2155929817578
 10
-170.3878336481783
 20
484.1926291578096
  0
LWPOLYLINE
  5
10D24
330
1F
100
AcDbEntity
  8
DETAILS
 62
     6
370
    20
100
AcDbPolyline
 90
        4
 70
     0
 43
0.0
 10
-165.271471218878
 20
486.2719976498205
 10
-165.7395868858101
 20
486.2719976498205
 42
0.4142135623730951
 10
-165.9395868858108
 20
486.0719976498207
 10
-165.9395868858108
 20
485.2419976498207
  0
LWPOLYLINE
  5
10D25
330
1F
100
AcDbEntity
  8
DETAILS
 62
     6
370
    20
100
AcDbPolyline
 90
        4
 70
     0
 43
0.0
 10
-165.3714712188783
 20
486.3719976498206
 10
-165.7395868858101
 20
486.3719976498206
 42
0.4142135623730951
 10
-166.0395868858094
 20
486.0719976498207
 10
-166.0395868858112
 20
485.2419976498207
  0
LWPOLYLINE
  5
10D26
330
1F
100
AcDbEntity
  8
DETAILS
 62
     6
370
    20
100
AcDbPolyline
 90
        4
 70
     0
 43
0.0
 10
-163.2410728404346
 20
485.2419976498205
 10
-162.887202140192
 20
485.2419976498205
 10
-163.137202140192
 20
485.2419976498205
 10
-163.2372021401924
 20
485.2419976498205
  0
LWPOLYLINE
  5
10D27
330
1F
100
AcDbEntity
  8
DETAILS
 62
     6
370
    20
100
AcDbPolyline
 90
        4
 70
     0
 43
0.0
 10
-163.2410728404346
 20
485.2419976498205
 10
-162.8286234964279
 20
485.2419976498205
 42
0.1989123673782991
 10
-162.7579128183105
 20
485.2712869717014
 10
-162.3878336481783
 20
485.6413661418297
  0
LWPOLYLINE
  5
10D28
330
1F
100
AcDbEntity
  8
DETAILS
 62
     6
370
    20
100
AcDbPolyline
 90
        3
 70
     0
 43
0.0
 10
-164.191471218878
 20
485.1919976498205
 10
-166.3878336481765
 20
485.1919976498205
 10
-167.4858313593621
 20
485.1919976498205
  0
LWPOLYLINE
  5
10D29
330
1F
100
AcDbEntity
  8
DETAILS
 62
     6
370
    20
100
AcDbPolyline
 90
        4
 70
     0
 43
0.0
 10
-163.2092976548655
 20
485.1483049581787
 10
-163.1394745333172
 20
485.16408722232
 42
0.7807764064044151
 10
-163.1394745333172
 20
485.1699080773208
 10
-163.2230292568482
 20
485.1887941237736
  0
LWPOLYLINE
  5
10D2A
330
1F
100
AcDbEntity
  8
DETAILS
 62
     6
370
    20
100
AcDbPolyline
 90
        4
 70
     0
 43
0.0
 10
-163.1902014463929
 20
485.0919976498206
 10
-162.887202140192
 20
485.0919976498206
 10
-162.887202140192
 20
484.9419976498205
 10
-163.1393300523513
 20
484.9419976498205
  0
LWPOLYLINE
  5
10D2B
330
1F
100
AcDbEntity
  8
DETAILS
 62
     6
370
    20
100
AcDbPolyline
 90
        3
 70
     0
 43
0.0
 10
-163.9414712188781
 20
484.9419976498205
 10
-166.3878336481765
 20
484.9419976498205
 10
-168.222984344963
 20
484.9419976498205
  0
LWPOLYLINE
  5
10D2C
330
1F
100
AcDbEntity
  8
DETAILS
 62
     6
370
    20
100
AcDbPolyline
 90
        3
 70
     0
 43
0.0
 10
-163.7914712188784
 20
484.7919976498205
 10
-166.3878336481765
 20
484.7919976498205
 10
-168.6652761363228
 20
484.7919976498205
  0
LWPOLYLINE
  5
10D2D
330
1F
100
AcDbEntity
  8
DETAILS
 62
     6
370
    20
100
AcDbPolyline
 90
        3
 70
     0
 43
0.0
 10
-163.5914712188777
 20
484.5919976498204
 10
-166.3878336481765
 20
484.5919976498207
 10
-169.2549985248032
 20
484.5919976498204
  0
MTEXT
  5
10D2E
330
1F
100
AcDbEntity
  8
DIM
100
AcDbMText
 10
-157.9925725435722
 20
419.6480634532612
 30
0.0
 40
3.0
 41
75.01028236056123
 71
     2
 72
     5
  1
{\L8" WALL; STEEL BEAM PERPENDICULAR TO WALL}
  7
RomanC
 73
     1
 44
1.0
1001
ACAD
1000
MTEXTBEGIN
1070
    73
1070
     1
1070
    44
1040
1.0
1070
    74
1070
     0
1000
MTEXTEND
  0
MTEXT
  5
10D2F
330
1F
100
AcDbEntity
  8
DIM
 62
     3
100
AcDbMText
 10
-137.9687073912981
 20
431.430895091565
 30
0.0
 40
1.0
 41
18.04317826978041
 71
     1
 72
     5
  1
REINFORCEMENT AND WELD PER ENGINEER
  7
RomanC
 73
     1
 44
1.0
1001
ACAD
1000
MTEXTBEGIN
1070
    73
1070
     1
1070
    44
1040
1.0
1070
    74
1070
     0
1000
MTEXTEND
  0
LWPOLYLINE
  5
10D30
330
1F
100
AcDbEntity
  8
A4 medium
 48
0.15
100
AcDbPolyline
 90
        4
 70
     1
 43
0.0
 10
-138.5668443292878
 20
432.1165235653309
 10
-122.4045132973105
 20
432.1165235653309
 10
-122.4045132973105
 20
427.7053435807277
 10
-138.5668443292878
 20
427.7053435807277
  0
MTEXT
  5
10D31
330
1F
100
AcDbEntity
  8
Defpoints
100
AcDbMText
 10
-157.6239993701191
 20
407.4598068246163
 30
0.0
 40
3.0
 41
90.07999999999999
 71
     2
 72
     5
  1
{\L39\P}\P            
  7
RomanC
 73
     1
 44
1.0
1001
ACAD
1000
MTEXTBEGIN
1070
    73
1070
     1
1070
    44
1040
1.0
1070
    74
1070
     0
1000
MTEXTEND
  0
MTEXT
  5
10D32
330
1F
100
AcDbEntity
  8
DIM
 62
     3
100
AcDbMText
 10
-147.5335417128434
 20
456.3276253512793
 30
0.0
 40
1.0
 41
22.68954545454545
 71
     1
 72
     5
  1
WELD PER ENGINEER
  7
RomanC
 73
     1
 44
1.0
1001
ACAD
1000
MTEXTBEGIN
1070
    73
1070
     1
1070
    44
1040
1.0
1070
    74
1070
     0
1000
MTEXTEND
  0
LINE
  5
10D33
330
1F
100
AcDbEntity
  8
A5 heavy
 48
0.15
100
AcDbLine
 10
-168.1720746796026
 20
442.0919856793233
 30
0.0
 11
-168.1720746796062
 21
464.0919976498206
 31
0.0
  0
ENDSEC
  0
SECTION
  2
OBJECTS
  0
DICTIONARY
  5
C
330
0
100
AcDbDictionary
281
     1
  3
ACAD_COLOR
350
73
  3
ACAD_GROUP
350
D
  3
ACAD_LAYOUT
350
1A
  3
ACAD_MATERIAL
350
72
  3
ACAD_MLINESTYLE
350
17
  3
ACAD_PLOTSETTINGS
350
19
  3
ACAD_PLOTSTYLENAME
350
E
  3
ACDBHEADERROUNDTRIPXREC
350
10D43
  3
AcDbVariableDictionary
350
66
  0
DICTIONARY
  5
A9
330
2
100
AcDbDictionary
280
     1
281
     1
  3
ACAD_LAYERSTATES
360
AA
  0
DICTIONARY
  5
73
102
{ACAD_REACTORS
330
C
102
}
330
C
100
AcDbDictionary
281
     1
  0
DICTIONARY
  5
D
102
{ACAD_REACTORS
330
C
102
}
330
C
100
AcDbDictionary
281
     1
  0
DICTIONARY
  5
1A
102
{ACAD_REACTORS
330
C
102
}
330
C
100
AcDbDictionary
281
     1
  3
Layout1
350
59
  3
Layout2
350
5E
  3
Model
350
22
  0
DICTIONARY
  5
72
102
{ACAD_REACTORS
330
C
102
}
330
C
100
AcDbDictionary
281
     1
  0
DICTIONARY
  5
17
102
{ACAD_REACTORS
330
C
102
}
330
C
100
AcDbDictionary
281
     1
  3
Standard
350
18
  0
DICTIONARY
  5
19
102
{ACAD_REACTORS
330
C
102
}
330
C
100
AcDbDictionary
281
     1
  0
ACDBDICTIONARYWDFLT
  5
E
102
{ACAD_REACTORS
330
C
102
}
330
C
100
AcDbDictionary
281
     1
  3
Normal
350
F
100
AcDbDictionaryWithDefault
340
F
  0
DICTIONARY
  5
10D43
102
{ACAD_REACTORS
330
C
102
}
330
C
100
AcDbDictionary
281
     1
  3
COLORDICT
350
10D45
  3
MATERIALDICT
350
10D44
  0
DICTIONARY
  5
66
102
{ACAD_REACTORS
330
C
102
}
330
C
100
AcDbDictionary
281
     1
  3
DIMASSOC
350
67
  3
HIDETEXT
350
6B
  3
PROJECTNAME
350
1065
  0
DICTIONARY
  5
AA
102
{ACAD_REACTORS
330
A9
102
}
330
A9
100
AcDbDictionary
281
     1
  0
LAYOUT
  5
59
102
{ACAD_XDICTIONARY
360
10D48
102
}
102
{ACAD_REACTORS
330
1A
102
}
330
1A
100
AcDbPlotSettings
  1

  2
None
  4

  6

 40
0.0
 41
0.0
 42
0.0
 43
0.0
 44
0.0
 45
0.0
 46
0.0
 47
0.0
 48
0.0
 49
0.0
140
0.0
141
0.0
142
1.0
143
1.0
 70
   688
 72
     0
 73
     0
 74
     5
  7

 75
    16
147
1.0
148
0.0
149
0.0
100
AcDbLayout
  1
Layout1
 70
     1
 71
     1
 10
0.0
 20
0.0
 11
12.0
 21
9.0
 12
0.0
 22
0.0
 32
0.0
 14
0.0
 24
0.0
 34
0.0
 15
0.0
 25
0.0
 35
0.0
146
0.0
 13
0.0
 23
0.0
 33
0.0
 16
1.0
 26
0.0
 36
0.0
 17
0.0
 27
1.0
 37
0.0
 76
     0
330
58
  0
LAYOUT
  5
5E
102
{ACAD_XDICTIONARY
360
10D4A
102
}
102
{ACAD_REACTORS
330
1A
102
}
330
1A
100
AcDbPlotSettings
  1

  2
None
  4

  6

 40
0.0
 41
0.0
 42
0.0
 43
0.0
 44
0.0
 45
0.0
 46
0.0
 47
0.0
 48
0.0
 49
0.0
140
0.0
141
0.0
142
1.0
143
1.0
 70
   688
 72
     0
 73
     0
 74
     5
  7

 75
    16
147
1.0
148
0.0
149
0.0
100
AcDbLayout
  1
Layout2
 70
     1
 71
     2
 10
0.0
 20
0.0
 11
12.0
 21
9.0
 12
0.0
 22
0.0
 32
0.0
 14
0.0
 24
0.0
 34
0.0
 15
0.0
 25
0.0
 35
0.0
146
0.0
 13
0.0
 23
0.0
 33
0.0
 16
1.0
 26
0.0
 36
0.0
 17
0.0
 27
1.0
 37
0.0
 76
     0
330
5D
  0
LAYOUT
  5
22
102
{ACAD_XDICTIONARY
360
10D46
102
}
102
{ACAD_REACTORS
330
1A
102
}
330
1A
100
AcDbPlotSettings
  1

  2
none_device
  4
ANSI_A_(8.50_x_11.00_Inches)
  6

 40
6.349999904632568
 41
19.04999923706055
 42
6.350006103515625
 43
19.04998779296875
 44
215.8999938964844
 45
279.3999938964844
 46
0.0
 47
0.0
 48
0.0
 49
0.0
140
0.0
141
0.0
142
1.0
143
2.584895464708373
 70
 11952
 72
     0
 73
     1
 74
     0
  7

 75
     0
147
0.3868628397755418
148
0.0
149
0.0
100
AcDbLayout
  1
Model
 70
     1
 71
     0
 10
0.0
 20
0.0
 11
12.0
 21
9.0
 12
0.0
 22
0.0
 32
0.0
 14
0.0
 24
0.0
 34
0.0
 15
0.0
 25
0.0
 35
0.0
146
0.0
 13
0.0
 23
0.0
 33
0.0
 16
1.0
 26
0.0
 36
0.0
 17
0.0
 27
1.0
 37
0.0
 76
     0
330
1F
  0
MLINESTYLE
  5
18
102
{ACAD_REACTORS
330
17
102
}
330
17
100
AcDbMlineStyle
  2
STANDARD
 70
     0
  3

 62
   256
 51
90.0
 52
90.0
 71
     2
 49
0.5
 62
   256
  6
BYLAYER
 49
-0.5
 62
   256
  6
BYLAYER
  0
ACDBPLACEHOLDER
  5
F
102
{ACAD_REACTORS
330
E
102
}
330
E
  0
XRECORD
  5
10D45
102
{ACAD_REACTORS
330
10D43
102
}
330
10D43
100
AcDbXrecord
280
     1
340
73
  0
XRECORD
  5
10D44
102
{ACAD_REACTORS
330
10D43
102
}
330
10D43
100
AcDbXrecord
280
     1
340
72
  0
DICTIONARYVAR
  5
67
102
{ACAD_REACTORS
330
66
102
}
330
66
100
DictionaryVariables
280
     0
  1
2
  0
DICTIONARYVAR
  5
6B
102
{ACAD_REACTORS
330
66
102
}
330
66
100
DictionaryVariables
280
     0
  1
1
  0
DICTIONARYVAR
  5
1065
102
{ACAD_REACTORS
330
66
102
}
330
66
100
DictionaryVariables
280
     0
  1

  0
DICTIONARY
  5
10D48
330
59
100
AcDbDictionary
280
     1
281
     1
  3
ACAD_XREC_ROUNDTRIP
360
10D49
  0
DICTIONARY
  5
10D4A
330
5E
100
AcDbDictionary
280
     1
281
     1
  3
ACAD_XREC_ROUNDTRIP
360
10D4B
  0
DICTIONARY
  5
10D46
330
22
100
AcDbDictionary
280
     1
281
     1
  3
ACAD_XREC_ROUNDTRIP
360
10D47
  0
XRECORD
  5
10D49
102
{ACAD_REACTORS
330
10D48
102
}
330
10D48
100
AcDbXrecord
280
     1
102
SHADEPLOT
 70
     0
102
SHADEPLOTRESLEVEL
 70
     2
102
SHADEPLOTCUSTOMDPI
 70
   300
  0
XRECORD
  5
10D4B
102
{ACAD_REACTORS
330
10D4A
102
}
330
10D4A
100
AcDbXrecord
280
     1
102
SHADEPLOT
 70
     0
102
SHADEPLOTRESLEVEL
 70
     2
102
SHADEPLOTCUSTOMDPI
 70
   300
  0
XRECORD
  5
10D47
102
{ACAD_REACTORS
330
10D46
102
}
330
10D46
100
AcDbXrecord
280
     1
102
SHADEPLOT
 70
     0
102
SHADEPLOTRESLEVEL
 70
     2
102
SHADEPLOTCUSTOMDPI
 70
   300
  0
ENDSEC
  0
EOF
