  0
SECTION
  2
HEADER
  9
$ACADVER
  1
AC1015
  9
$ACADMAINTVER
 70
    20
  9
$DWGCODEPAGE
  3
ANSI_1252
  9
$INSBASE
 10
0.0
 20
0.0
 30
0.0
  9
$EXTMIN
 10
-9.380701757465175
 20
26.06403615752749
 30
-0.0015258207003583
  9
$EXTMAX
 10
61.53774213204048
 20
96.42328834806846
 30
0.0000000349246037
  9
$LIMMIN
 10
0.0
 20
0.0
  9
$LIMMAX
 10
12.0
 20
9.0
  9
$ORTHOMODE
 70
     0
  9
$REGENMODE
 70
     1
  9
$FILLMODE
 70
     1
  9
$QTEXTMODE
 70
     0
  9
$MIRRTEXT
 70
     0
  9
$LTSCALE
 40
1.0
  9
$ATTMODE
 70
     1
  9
$TEXTSIZE
 40
0.2
  9
$TRACEWID
 40
0.05
  9
$TEXTSTYLE
  7
Standard
  9
$CLAYER
  8
0
  9
$CELTYPE
  6
ByLayer
  9
$CECOLOR
 62
   256
  9
$CELTSCALE
 40
1.0
  9
$DISPSILH
 70
     0
  9
$DIMSCALE
 40
1.0
  9
$DIMASZ
 40
0.18
  9
$DIMEXO
 40
0.0625
  9
$DIMDLI
 40
0.38
  9
$DIMRND
 40
0.0
  9
$DIMDLE
 40
0.0
  9
$DIMEXE
 40
0.18
  9
$DIMTP
 40
0.0
  9
$DIMTM
 40
0.0
  9
$DIMTXT
 40
0.18
  9
$DIMCEN
 40
0.09
  9
$DIMTSZ
 40
0.0
  9
$DIMTOL
 70
     0
  9
$DIMLIM
 70
     0
  9
$DIMTIH
 70
     1
  9
$DIMTOH
 70
     1
  9
$DIMSE1
 70
     0
  9
$DIMSE2
 70
     0
  9
$DIMTAD
 70
     0
  9
$DIMZIN
 70
     0
  9
$DIMBLK
  1

  9
$DIMASO
 70
     1
  9
$DIMSHO
 70
     1
  9
$DIMPOST
  1

  9
$DIMAPOST
  1

  9
$DIMALT
 70
     0
  9
$DIMALTD
 70
     2
  9
$DIMALTF
 40
25.4
  9
$DIMLFAC
 40
1.0
  9
$DIMTOFL
 70
     0
  9
$DIMTVP
 40
0.0
  9
$DIMTIX
 70
     0
  9
$DIMSOXD
 70
     0
  9
$DIMSAH
 70
     0
  9
$DIMBLK1
  1

  9
$DIMBLK2
  1

  9
$DIMSTYLE
  2
Standard
  9
$DIMCLRD
 70
     0
  9
$DIMCLRE
 70
     0
  9
$DIMCLRT
 70
     0
  9
$DIMTFAC
 40
1.0
  9
$DIMGAP
 40
0.09
  9
$DIMJUST
 70
     0
  9
$DIMSD1
 70
     0
  9
$DIMSD2
 70
     0
  9
$DIMTOLJ
 70
     1
  9
$DIMTZIN
 70
     0
  9
$DIMALTZ
 70
     0
  9
$DIMALTTZ
 70
     0
  9
$DIMUPT
 70
     0
  9
$DIMDEC
 70
     4
  9
$DIMTDEC
 70
     4
  9
$DIMALTU
 70
     2
  9
$DIMALTTD
 70
     2
  9
$DIMTXSTY
  7
Standard
  9
$DIMAUNIT
 70
     0
  9
$DIMADEC
 70
     0
  9
$DIMALTRND
 40
0.0
  9
$DIMAZIN
 70
     0
  9
$DIMDSEP
 70
    46
  9
$DIMATFIT
 70
     3
  9
$DIMFRAC
 70
     0
  9
$DIMLDRBLK
  1

  9
$DIMLUNIT
 70
     2
  9
$DIMLWD
 70
    -2
  9
$DIMLWE
 70
    -2
  9
$DIMTMOVE
 70
     0
  9
$LUNITS
 70
     2
  9
$LUPREC
 70
     4
  9
$SKETCHINC
 40
0.1
  9
$FILLETRAD
 40
0.0
  9
$AUNITS
 70
     0
  9
$AUPREC
 70
     0
  9
$MENU
  1
.
  9
$ELEVATION
 40
0.0
  9
$PELEVATION
 40
0.0
  9
$THICKNESS
 40
0.0
  9
$LIMCHECK
 70
     0
  9
$CHAMFERA
 40
0.0
  9
$CHAMFERB
 40
0.0
  9
$CHAMFERC
 40
0.0
  9
$CHAMFERD
 40
0.0
  9
$SKPOLY
 70
     0
  9
$TDCREATE
 40
2454938.341299120
  9
$TDUCREATE
 40
2454938.591299121
  9
$TDUPDATE
 40
2454938.345603379
  9
$TDUUPDATE
 40
2454938.595603380
  9
$TDINDWG
 40
0.0043063426
  9
$TDUSRTIMER
 40
0.0043063426
  9
$USRTIMER
 70
     1
  9
$ANGBASE
 50
0.0
  9
$ANGDIR
 70
     0
  9
$PDMODE
 70
     0
  9
$PDSIZE
 40
0.0
  9
$PLINEWID
 40
0.0
  9
$SPLFRAME
 70
     0
  9
$SPLINETYPE
 70
     6
  9
$SPLINESEGS
 70
     8
  9
$HANDSEED
  5
5D0
  9
$SURFTAB1
 70
     6
  9
$SURFTAB2
 70
     6
  9
$SURFTYPE
 70
     6
  9
$SURFU
 70
     6
  9
$SURFV
 70
     6
  9
$UCSBASE
  2

  9
$UCSNAME
  2

  9
$UCSORG
 10
0.0
 20
0.0
 30
0.0
  9
$UCSXDIR
 10
1.0
 20
0.0
 30
0.0
  9
$UCSYDIR
 10
0.0
 20
1.0
 30
0.0
  9
$UCSORTHOREF
  2

  9
$UCSORTHOVIEW
 70
     0
  9
$UCSORGTOP
 10
0.0
 20
0.0
 30
0.0
  9
$UCSORGBOTTOM
 10
0.0
 20
0.0
 30
0.0
  9
$UCSORGLEFT
 10
0.0
 20
0.0
 30
0.0
  9
$UCSORGRIGHT
 10
0.0
 20
0.0
 30
0.0
  9
$UCSORGFRONT
 10
0.0
 20
0.0
 30
0.0
  9
$UCSORGBACK
 10
0.0
 20
0.0
 30
0.0
  9
$PUCSBASE
  2

  9
$PUCSNAME
  2

  9
$PUCSORG
 10
0.0
 20
0.0
 30
0.0
  9
$PUCSXDIR
 10
1.0
 20
0.0
 30
0.0
  9
$PUCSYDIR
 10
0.0
 20
1.0
 30
0.0
  9
$PUCSORTHOREF
  2

  9
$PUCSORTHOVIEW
 70
     0
  9
$PUCSORGTOP
 10
0.0
 20
0.0
 30
0.0
  9
$PUCSORGBOTTOM
 10
0.0
 20
0.0
 30
0.0
  9
$PUCSORGLEFT
 10
0.0
 20
0.0
 30
0.0
  9
$PUCSORGRIGHT
 10
0.0
 20
0.0
 30
0.0
  9
$PUCSORGFRONT
 10
0.0
 20
0.0
 30
0.0
  9
$PUCSORGBACK
 10
0.0
 20
0.0
 30
0.0
  9
$USERI1
 70
     0
  9
$USERI2
 70
     0
  9
$USERI3
 70
     0
  9
$USERI4
 70
     0
  9
$USERI5
 70
     0
  9
$USERR1
 40
0.0
  9
$USERR2
 40
0.0
  9
$USERR3
 40
0.0
  9
$USERR4
 40
0.0
  9
$USERR5
 40
0.0
  9
$WORLDVIEW
 70
     1
  9
$SHADEDGE
 70
     3
  9
$SHADEDIF
 70
    70
  9
$TILEMODE
 70
     1
  9
$MAXACTVP
 70
    64
  9
$PINSBASE
 10
0.0
 20
0.0
 30
0.0
  9
$PLIMCHECK
 70
     0
  9
$PEXTMIN
 10
0.0
 20
0.0
 30
0.0
  9
$PEXTMAX
 10
0.0
 20
0.0
 30
0.0
  9
$PLIMMIN
 10
0.0
 20
0.0
  9
$PLIMMAX
 10
12.0
 20
9.0
  9
$UNITMODE
 70
     0
  9
$VISRETAIN
 70
     1
  9
$PLINEGEN
 70
     0
  9
$PSLTSCALE
 70
     1
  9
$TREEDEPTH
 70
  3020
  9
$CMLSTYLE
  2
Standard
  9
$CMLJUST
 70
     0
  9
$CMLSCALE
 40
1.0
  9
$PROXYGRAPHICS
 70
     1
  9
$MEASUREMENT
 70
     0
  9
$CELWEIGHT
370
    -1
  9
$ENDCAPS
280
     0
  9
$JOINSTYLE
280
     0
  9
$LWDISPLAY
290
     0
  9
$INSUNITS
 70
     1
  9
$HYPERLINKBASE
  1

  9
$STYLESHEET
  1

  9
$XEDIT
290
     1
  9
$CEPSNTYPE
380
     0
  9
$PSTYLEMODE
290
     1
  9
$FINGERPRINTGUID
  2
{FDEAD576-A652-11D2-9A35-0060089B3A3F}
  9
$VERSIONGUID
  2
{59676710-ACDF-42E7-8FB3-5D9AE8F3E4E5}
  9
$EXTNAMES
290
     1
  9
$PSVPSCALE
 40
0.0
  9
$OLESTARTUP
290
     0
  0
ENDSEC
  0
SECTION
  2
CLASSES
  0
CLASS
  1
ACDBDICTIONARYWDFLT
  2
AcDbDictionaryWithDefault
  3
ObjectDBX Classes
 90
        0
280
     0
281
     0
  0
CLASS
  1
ACDBPLACEHOLDER
  2
AcDbPlaceHolder
  3
ObjectDBX Classes
 90
        0
280
     0
281
     0
  0
CLASS
  1
LAYOUT
  2
AcDbLayout
  3
ObjectDBX Classes
 90
        0
280
     0
281
     0
  0
CLASS
  1
DICTIONARYVAR
  2
AcDbDictionaryVar
  3
ObjectDBX Classes
 90
        0
280
     0
281
     0
  0
CLASS
  1
SORTENTSTABLE
  2
AcDbSortentsTable
  3
ObjectDBX Classes
 90
        0
280
     0
281
     0
  0
ENDSEC
  0
SECTION
  2
TABLES
  0
TABLE
  2
VPORT
  5
8
330
0
100
AcDbSymbolTable
 70
     5
  0
VPORT
  5
5C6
330
8
100
AcDbSymbolTableRecord
100
AcDbViewportTableRecord
  2
*Active
 70
     0
 10
0.0
 20
0.0
 11
1.0
 21
1.0
 12
26.07852018728765
 22
61.24366225279798
 13
0.0
 23
0.0
 14
0.5
 24
0.5
 15
0.5
 25
0.5
 16
0.0
 26
0.0
 36
1.0
 17
0.0
 27
0.0
 37
0.0
 40
70.86726123162794
 41
1.48433734939759
 42
50.0
 43
0.0
 44
0.0
 50
0.0
 51
0.0
 71
     0
 72
  1000
 73
     1
 74
     3
 75
     0
 76
     0
 77
     0
 78
     0
281
     0
 65
     1
110
0.0
120
0.0
130
0.0
111
1.0
121
0.0
131
0.0
112
0.0
122
1.0
132
0.0
 79
     0
146
0.0
  0
ENDTAB
  0
TABLE
  2
LTYPE
  5
5
330
0
100
AcDbSymbolTable
 70
     3
  0
LTYPE
  5
14
330
5
100
AcDbSymbolTableRecord
100
AcDbLinetypeTableRecord
  2
ByBlock
 70
     0
  3

 72
    65
 73
     0
 40
0.0
  0
LTYPE
  5
15
330
5
100
AcDbSymbolTableRecord
100
AcDbLinetypeTableRecord
  2
ByLayer
 70
     0
  3

 72
    65
 73
     0
 40
0.0
  0
LTYPE
  5
16
330
5
100
AcDbSymbolTableRecord
100
AcDbLinetypeTableRecord
  2
Continuous
 70
     0
  3
Solid line
 72
    65
 73
     0
 40
0.0
  0
LTYPE
  5
96
330
5
100
AcDbSymbolTableRecord
100
AcDbLinetypeTableRecord
  2
DASHED2
 70
     0
  3
_ _ _ _ _ _ _ _ _ _ _ _ _ _ _ _ _ _ _ _ _ _ _ _
 72
    65
 73
     2
 40
0.375
 49
0.25
 74
     0
 49
-0.125
 74
     0
  0
LTYPE
  5
97
330
5
100
AcDbSymbolTableRecord
100
AcDbLinetypeTableRecord
  2
HIDDEN
 70
     0
  3
Hidden __ __ __ __ __ __ __ __ __ __ __ __ __ _
 72
    65
 73
     2
 40
0.375
 49
0.25
 74
     0
 49
-0.125
 74
     0
  0
ENDTAB
  0
TABLE
  2
LAYER
  5
2
102
{ACAD_XDICTIONARY
360
A4
102
}
330
0
100
AcDbSymbolTable
 70
     6
  0
LAYER
  5
10
330
2
100
AcDbSymbolTableRecord
100
AcDbLayerTableRecord
  2
0
 70
     0
 62
     7
  6
Continuous
370
    -3
390
F
  0
LAYER
  5
98
330
2
100
AcDbSymbolTableRecord
100
AcDbLayerTableRecord
  2
DIM
 70
     0
 62
     3
  6
Continuous
370
    13
390
F
  0
LAYER
  5
99
330
2
100
AcDbSymbolTableRecord
100
AcDbLayerTableRecord
  2
Defpoints
 70
     0
 62
   252
  6
Continuous
290
     0
370
    -3
390
F
  0
LAYER
  5
9A
330
2
100
AcDbSymbolTableRecord
100
AcDbLayerTableRecord
  2
A2 Hatch
 70
     0
 62
     8
  6
Continuous
370
     9
390
F
  0
LAYER
  5
9B
330
2
100
AcDbSymbolTableRecord
100
AcDbLayerTableRecord
  2
A5 heavy
 70
     0
 62
     5
  6
Continuous
370
    53
390
F
  0
LAYER
  5
9C
330
2
100
AcDbSymbolTableRecord
100
AcDbLayerTableRecord
  2
DETAILS
 70
     0
 62
     7
  6
Continuous
370
    13
390
F
  0
ENDTAB
  0
TABLE
  2
STYLE
  5
3
330
0
100
AcDbSymbolTable
 70
     4
  0
STYLE
  5
11
330
3
100
AcDbSymbolTableRecord
100
AcDbTextStyleTableRecord
  2
Standard
 70
     0
 40
0.0
 41
1.0
 50
0.0
 71
     0
 42
0.2
  3
txt
  4

  0
STYLE
  5
9D
330
3
100
AcDbSymbolTableRecord
100
AcDbTextStyleTableRecord
  2
ARCHITXT
 70
     0
 40
0.0
 41
1.25
 50
0.0
 71
     0
 42
1.0
  3
ARCHITXT.shx
  4

  0
STYLE
  5
9E
330
3
100
AcDbSymbolTableRecord
100
AcDbTextStyleTableRecord
  2
ARCTEXT
 70
     0
 40
0.0
 41
0.85
 50
0.0
 71
     0
 42
5.096770384644268
  3
arctext.shx
  4

  0
STYLE
  5
9F
330
3
100
AcDbSymbolTableRecord
100
AcDbTextStyleTableRecord
  2
RomanC
 70
     0
 40
5.0
 41
0.85
 50
0.0
 71
     0
 42
10.0
  3
romanc.shx
  4

  0
ENDTAB
  0
TABLE
  2
VIEW
  5
6
330
0
100
AcDbSymbolTable
 70
     0
  0
ENDTAB
  0
TABLE
  2
UCS
  5
7
330
0
100
AcDbSymbolTable
 70
     0
  0
ENDTAB
  0
TABLE
  2
APPID
  5
9
330
0
100
AcDbSymbolTable
 70
     1
  0
APPID
  5
12
330
9
100
AcDbSymbolTableRecord
100
AcDbRegAppTableRecord
  2
ACAD
 70
     0
  0
ENDTAB
  0
TABLE
  2
DIMSTYLE
  5
A
330
0
100
AcDbSymbolTable
 70
     5
100
AcDbDimStyleTable
 71
     0
  0
DIMSTYLE
105
27
330
A
100
AcDbSymbolTableRecord
100
AcDbDimStyleTableRecord
  2
Standard
 70
     0
340
11
  0
DIMSTYLE
105
A0
330
A
100
AcDbSymbolTableRecord
100
AcDbDimStyleTableRecord
  2
Copy of ROMANS
 70
     0
 41
0.75
 42
0.125
 43
0.125
 44
0.125
 73
     0
 74
     0
 77
     1
 78
     3
140
1.0
141
6.0
147
0.25
172
     1
175
     1
176
     2
177
     2
178
     2
271
     3
272
     3
273
     4
275
     1
277
     4
279
     2
284
     3
285
     3
286
     3
340
9D
  0
DIMSTYLE
105
A1
330
A
100
AcDbSymbolTableRecord
100
AcDbDimStyleTableRecord
  2
ARCTEXT
 70
     0
 40
0.0
 41
2.0
 42
1.0
 43
0.375
 44
0.1875
 73
     0
 74
     0
140
4.0
141
2.0
147
2.0
176
     2
177
     2
178
     2
277
     4
340
9E
341
8D
342
89
  0
DIMSTYLE
105
A2
330
A
100
AcDbSymbolTableRecord
100
AcDbDimStyleTableRecord
  2
ARCTEXT1-4
 70
     0
 41
2.0
 42
2.0
 43
2.0
 44
2.0
 73
     0
 74
     0
 77
     1
 78
     3
140
4.0
141
2.0
147
2.0
172
     1
175
     1
275
     1
277
     4
279
     2
340
9E
341
8D
342
89
  0
DIMSTYLE
105
A3
102
{ACAD_REACTORS
330
1E4
330
1E3
330
1E2
330
1E1
330
1E0
330
1DF
102
}
330
A
100
AcDbSymbolTableRecord
100
AcDbDimStyleTableRecord
  2
ARCTEXT 1-1
 70
     0
 40
0.0
 41
1.0
 42
1.0
 43
0.375
 44
0.1875
 73
     0
 74
     0
 77
     1
 78
     3
140
1.0
141
1.0
147
0.5
176
   256
177
   256
178
   256
277
     4
279
     2
340
9E
341
8D
342
89
  0
ENDTAB
  0
TABLE
  2
BLOCK_RECORD
  5
1
330
0
100
AcDbSymbolTable
 70
     5
  0
BLOCK_RECORD
  5
1F
330
1
100
AcDbSymbolTableRecord
100
AcDbBlockTableRecord
  2
*Model_Space
340
22
  0
BLOCK_RECORD
  5
58
330
1
100
AcDbSymbolTableRecord
100
AcDbBlockTableRecord
  2
*Paper_Space
340
59
  0
BLOCK_RECORD
  5
5D
330
1
100
AcDbSymbolTableRecord
100
AcDbBlockTableRecord
  2
*Paper_Space0
340
5E
  0
BLOCK_RECORD
  5
89
330
1
100
AcDbSymbolTableRecord
100
AcDbBlockTableRecord
  2
_ArchTick
340
0
  0
BLOCK_RECORD
  5
8D
330
1
100
AcDbSymbolTableRecord
100
AcDbBlockTableRecord
  2
arrow
340
0
310
2800000020000000200000000100080000000000000400000000000000000000000000000000000000000000000080000080000000808000800000008000800080800000C0C0C000C0DCC000F0CAA6000020400000206000002080000020A0000020C0000020E00000400000004020000040400000406000004080000040A0
310
000040C0000040E00000600000006020000060400000606000006080000060A0000060C0000060E00000800000008020000080400000806000008080000080A0000080C0000080E00000A0000000A0200000A0400000A0600000A0800000A0A00000A0C00000A0E00000C0000000C0200000C0400000C0600000C0800000C0
310
A00000C0C00000C0E00000E0000000E0200000E0400000E0600000E0800000E0A00000E0C00000E0E00040000000400020004000400040006000400080004000A0004000C0004000E00040200000402020004020400040206000402080004020A0004020C0004020E000404000004040200040404000404060004040800040
310
40A0004040C0004040E00040600000406020004060400040606000406080004060A0004060C0004060E00040800000408020004080400040806000408080004080A0004080C0004080E00040A0000040A0200040A0400040A0600040A0800040A0A00040A0C00040A0E00040C0000040C0200040C0400040C0600040C08000
310
40C0A00040C0C00040C0E00040E0000040E0200040E0400040E0600040E0800040E0A00040E0C00040E0E00080000000800020008000400080006000800080008000A0008000C0008000E00080200000802020008020400080206000802080008020A0008020C0008020E00080400000804020008040400080406000804080
310
008040A0008040C0008040E00080600000806020008060400080606000806080008060A0008060C0008060E00080800000808020008080400080806000808080008080A0008080C0008080E00080A0000080A0200080A0400080A0600080A0800080A0A00080A0C00080A0E00080C0000080C0200080C0400080C0600080C0
310
800080C0A00080C0C00080C0E00080E0000080E0200080E0400080E0600080E0800080E0A00080E0C00080E0E000C0000000C0002000C0004000C0006000C0008000C000A000C000C000C000E000C0200000C0202000C0204000C0206000C0208000C020A000C020C000C020E000C0400000C0402000C0404000C0406000C0
310
408000C040A000C040C000C040E000C0600000C0602000C0604000C0606000C0608000C060A000C060C000C060E000C0800000C0802000C0804000C0806000C0808000C080A000C080C000C080E000C0A00000C0A02000C0A04000C0A06000C0A08000C0A0A000C0A0C000C0A0E000C0C00000C0C02000C0C04000C0C06000
310
C0C08000C0C0A000F0FBFF00A4A0A000808080000000FF0000FF000000FFFF00FF000000FF00FF00FFFF0000FFFFFF0000000000000000000000000000000000000000000000000000000000000000000000000000000000000000000000000000000000000000000000000000000000000000000000000000000000000000
310
0000000000000000000000000000000000000000000000000000000000000000000000000000000000000000000000000000000000000000000000000000000000000000000000000000000000000000000000000000000000000000000000000000000000000000000000000000000000000000000000FA00000000000000
310
000000000000000000000000000000000000000000000000FA00000000000000000000000000000000000000000000000000000000000000FA0000000000000000000000000000000000000000000000000000FAFA000000FA00000000000000000000000000000000000000000000000000000000FAFA00FA000000000000
310
000000000000000000000000000000000000000000000000FAF7F7000000000000000000000000000000000000000000000000000000000000F7F7F7F7F7F70000000000000000000000000000000000000000000000000000F7F7F7F7F7F7F7F7F7F700000000000000000000000000000000000000000000F7F7F7F7F7F7
310
F7F7F7F7F7F7F7F7000000000000000000000000000000000000F7F7F7F7F7F7F7F7F7F7F7F7F7F7F7F7F7F70000000000FAFA00000000000000F7F7F7F7F7F7F7F7F7F7F7F7F7F7F7F7F7F7F7F7F7FAFAFAFA00000000000000F7F7F7F7F7F7F7F7F7F7F7F7F7F7F7F7F7F70000000000000000000000000000F7F7F7F7F7
310
F7F7F7F7F7F7F7F700000000000000000000000000000000000000F7F7F7F7F7F7F7F70000000000000000000000000000000000000000000000FAF7F7F70000000000000000000000000000000000000000000000000000FAFA00FA0000000000000000000000000000000000000000000000000000FAFA000000FA000000
310
00000000000000000000000000000000000000000000000000000000FA00000000000000000000000000000000000000000000000000000000000000FA00000000000000000000000000000000000000000000000000000000000000FA00000000000000000000000000000000000000000000000000000000000000000000
310
00000000000000000000000000000000000000000000000000000000000000000000000000000000000000000000000000000000000000000000000000000000000000000000000000000000000000000000000000000000000000000000000000000000000000000000000000000000000000000000000000000000000000
310
0000000000000000000000000000000000000000000000000000000000000000000000000000000000000000000000000000000000000000
1001
ACAD
1000
DesignCenter Data
1002
{
1070
     1
1070
     1
1002
}
  0
ENDTAB
  0
ENDSEC
  0
SECTION
  2
BLOCKS
  0
BLOCK
  5
20
330
1F
100
AcDbEntity
  8
0
100
AcDbBlockBegin
  2
*Model_Space
 70
     0
 10
0.0
 20
0.0
 30
0.0
  3
*Model_Space
  1

  0
ENDBLK
  5
21
330
1F
100
AcDbEntity
  8
0
100
AcDbBlockEnd
  0
BLOCK
  5
5A
330
58
100
AcDbEntity
 67
     1
  8
0
100
AcDbBlockBegin
  2
*Paper_Space
 70
     0
 10
0.0
 20
0.0
 30
0.0
  3
*Paper_Space
  1

  0
ENDBLK
  5
5B
330
58
100
AcDbEntity
 67
     1
  8
0
100
AcDbBlockEnd
  0
BLOCK
  5
5F
330
5D
100
AcDbEntity
  8
0
100
AcDbBlockBegin
  2
*Paper_Space0
 70
     0
 10
0.0
 20
0.0
 30
0.0
  3
*Paper_Space0
  1

  0
ENDBLK
  5
60
330
5D
100
AcDbEntity
  8
0
100
AcDbBlockEnd
  0
BLOCK
  5
8A
330
89
100
AcDbEntity
  8
0
100
AcDbBlockBegin
  2
_ArchTick
 70
     0
 10
0.0
 20
0.0
 30
0.0
  3
_ArchTick
  1

  0
LWPOLYLINE
  5
8B
330
89
100
AcDbEntity
  8
0
  6
ByBlock
 62
     0
100
AcDbPolyline
 90
        2
 70
     0
 43
0.15
 10
-0.5
 20
-0.5
 10
0.5
 20
0.5
  0
ENDBLK
  5
8C
330
89
100
AcDbEntity
  8
0
100
AcDbBlockEnd
  0
BLOCK
  5
8E
330
8D
100
AcDbEntity
  8
0
100
AcDbBlockBegin
  2
arrow
 70
     0
 10
0.0
 20
0.0
 30
0.0
  3
arrow
  1

  0
HATCH
  5
8F
330
8D
100
AcDbEntity
  8
DIM
 62
   253
100
AcDbHatch
 10
0.0
 20
0.0
 30
0.0
210
0.0
220
0.0
230
1.0
  2
SOLID
 70
     1
 71
     0
 91
        1
 92
        7
 72
     0
 73
     1
 93
        3
 10
-2.0
 20
0.5
 10
-2.0
 20
-0.5
 10
0.0
 20
0.0
 97
        0
 75
     0
 76
     1
 47
0.0337394080685346
 98
        1
 10
-1.103351122172171
 20
0.05064816270351
  0
LWPOLYLINE
  5
90
330
8D
100
AcDbEntity
  8
DIM
370
    15
100
AcDbPolyline
 90
        4
 70
     0
 43
0.0
 10
0.0
 20
0.0
 10
-2.0
 20
-0.5
 10
-2.0
 20
0.5
 10
0.0
 20
0.0
  0
LWPOLYLINE
  5
91
330
8D
100
AcDbEntity
  8
DIM
370
     9
100
AcDbPolyline
 90
        2
 70
     0
 43
0.0
 10
0.3742552490839444
 20
0.0935638122700766
 10
0.0
 20
0.0
  0
LWPOLYLINE
  5
92
330
8D
100
AcDbEntity
  8
DIM
370
     9
100
AcDbPolyline
 90
        3
 70
     0
 43
0.0
 10
-2.0
 20
-0.9831764405007561
 10
-2.0
 20
-0.5
 10
-2.46875
 20
-0.6171875
  0
LWPOLYLINE
  5
93
330
8D
100
AcDbEntity
  8
DIM
370
     9
100
AcDbPolyline
 90
        3
 70
     0
 43
0.0
 10
-2.0
 20
0.9831764405007561
 10
-2.0
 20
0.5
 10
-2.46875
 20
0.6171875
  0
LWPOLYLINE
  5
94
330
8D
100
AcDbEntity
  8
DIM
370
     9
100
AcDbPolyline
 90
        2
 70
     0
 43
0.0
 10
0.3742552490839444
 20
-0.0935638122700766
 10
0.0
 20
0.0
  0
ENDBLK
  5
95
330
8D
100
AcDbEntity
  8
0
100
AcDbBlockEnd
  0
ENDSEC
  0
SECTION
  2
ENTITIES
  0
MTEXT
  5
481
330
1F
100
AcDbEntity
  8
Defpoints
100
AcDbMText
 10
-6.464987726532541
 20
29.66917568075027
 30
0.0
 40
3.0
 41
90.07999999999999
 71
     2
 72
     5
  1
{\L112\P}\P            
  7
RomanC
 73
     1
 44
1.0
1001
ACAD
1000
MTEXTBEGIN
1070
    73
1070
     1
1070
    44
1040
1.0
1070
    74
1070
     0
1000
MTEXTEND
  0
MTEXT
  5
482
330
1F
100
AcDbEntity
  8
DIM
100
AcDbMText
 10
30.6318539420266
 20
39.34802038915527
 30
0.0
 40
3.0
 41
71.41649521821006
 71
     2
 72
     5
  1
{\L2-4-2 WALL W/ SUBSURFACE BUCK AND WINDOW}\P               
  7
RomanC
 73
     1
 44
1.0
1001
ACAD
1000
MTEXTBEGIN
1070
    73
1070
     1
1070
    44
1040
1.0
1070
    74
1070
     0
1000
MTEXTEND
  0
LINE
  5
483
330
1F
100
AcDbEntity
  8
0
 62
     1
100
AcDbLine
 10
21.71041488445585
 20
94.64243295888522
 30
0.0
 11
23.71041488445584
 21
94.64243295888522
 31
0.0
  0
LINE
  5
484
330
1F
100
AcDbEntity
  8
0
  6
HIDDEN
 62
     1
 48
0.02
100
AcDbLine
 10
23.36041488445639
 20
95.14243295888523
 30
0.0
 11
23.36041488445639
 21
94.64243295888522
 31
0.0
  0
LINE
  5
485
330
1F
100
AcDbEntity
  8
0
  6
HIDDEN
 62
     1
 48
0.02
100
AcDbLine
 10
22.33541488445585
 20
95.14243295888523
 30
0.0
 11
22.33541488445585
 21
94.64243295888522
 31
0.0
  0
LINE
  5
486
330
1F
100
AcDbEntity
  8
0
  6
HIDDEN
 62
     1
 48
0.02
100
AcDbLine
 10
22.73541488445639
 20
95.14243295888523
 30
0.0
 11
22.73541488445639
 21
94.64243295888522
 31
0.0
  0
LINE
  5
487
330
1F
100
AcDbEntity
  8
0
  6
HIDDEN
 62
     1
 48
0.02
100
AcDbLine
 10
21.83107254689852
 20
95.14243295888523
 30
0.0
 11
22.33541488445585
 21
95.14243295888523
 31
0.0
  0
LINE
  5
488
330
1F
100
AcDbEntity
  8
0
  6
HIDDEN
 62
     1
 48
0.02
100
AcDbLine
 10
22.73541488445639
 20
95.14243295888523
 30
0.0
 11
23.36041488445639
 21
95.14243295888523
 31
0.0
  0
LINE
  5
489
330
1F
100
AcDbEntity
  8
0
  6
HIDDEN
 62
     1
 48
0.02
100
AcDbLine
 10
22.16041488445657
 20
94.89243295888522
 30
0.0
 11
22.16041488445657
 21
94.64243295888522
 31
0.0
  0
LINE
  5
48A
330
1F
100
AcDbEntity
  8
0
  6
HIDDEN
 62
     1
 48
0.02
100
AcDbLine
 10
21.91041488445657
 20
94.89243295888522
 30
0.0
 11
22.16041488445657
 21
94.89243295888522
 31
0.0
  0
LINE
  5
48B
330
1F
100
AcDbEntity
  8
0
 62
     1
100
AcDbLine
 10
15.71041488445584
 20
93.14188558474947
 30
0.0
 11
15.71041488445584
 21
82.64243295888523
 31
0.0
  0
LINE
  5
48C
330
1F
100
AcDbEntity
  8
0
 62
     1
100
AcDbLine
 10
23.71041488445675
 20
95.77979805618074
 30
0.0
 11
23.71041488445584
 21
82.64243295888523
 31
0.0
  0
LINE
  5
48D
330
1F
100
AcDbEntity
  8
0
 62
     1
100
AcDbLine
 10
15.71041488445584
 20
82.64243295888523
 30
0.0
 11
17.71041488445493
 21
82.64243295888523
 31
0.0
  0
LINE
  5
48E
330
1F
100
AcDbEntity
  8
0
 62
     1
100
AcDbLine
 10
17.7104148844522
 20
93.76776803922698
 30
0.0
 11
17.71041488445584
 21
82.64243295888523
 31
0.0
  0
LINE
  5
48F
330
1F
100
AcDbEntity
  8
0
 62
     1
100
AcDbLine
 10
21.7104148844522
 20
95.1015128022817
 30
0.0
 11
21.71041488445585
 21
82.64243295888523
 31
0.0
  0
LINE
  5
490
330
1F
100
AcDbEntity
  8
0
 62
     1
100
AcDbLine
 10
16.0604148844553
 20
93.25141501428229
 30
0.0
 11
16.0604148844553
 21
82.64243295888523
 31
0.0
  0
LINE
  5
491
330
1F
100
AcDbEntity
  8
0
 62
     1
100
AcDbLine
 10
23.36041488445548
 20
95.14243295888523
 30
0.0
 11
23.36041488445548
 21
94.64243295888522
 31
0.0
  0
LINE
  5
492
330
1F
100
AcDbEntity
  8
0
 62
     1
100
AcDbLine
 10
22.33541488445403
 20
95.14243295888523
 30
0.0
 11
22.33541488445403
 21
94.64243295888522
 31
0.0
  0
LINE
  5
493
330
1F
100
AcDbEntity
  8
0
 62
     1
100
AcDbLine
 10
22.73541488445548
 20
95.14243295888523
 30
0.0
 11
22.73541488445548
 21
94.64243295888522
 31
0.0
  0
LINE
  5
494
330
1F
100
AcDbEntity
  8
0
 62
     1
100
AcDbLine
 10
21.83107254689852
 20
95.14243295888523
 30
0.0
 11
22.33541488445494
 21
95.14243295888523
 31
0.0
  0
LINE
  5
495
330
1F
100
AcDbEntity
  8
0
 62
     1
100
AcDbLine
 10
22.73541488445548
 20
95.14243295888523
 30
0.0
 11
23.36041488445548
 21
95.14243295888523
 31
0.0
  0
LINE
  5
496
330
1F
100
AcDbEntity
  8
0
 62
     1
100
AcDbLine
 10
17.51041488445421
 20
93.70517979377869
 30
0.0
 11
17.51041488445511
 21
82.64243295888523
 31
0.0
  0
LINE
  5
497
330
1F
100
AcDbEntity
  8
0
 62
     1
100
AcDbLine
 10
21.91041488445475
 20
95.16934132767151
 30
0.0
 11
21.91041488445475
 21
82.64243295888523
 31
0.0
  0
LINE
  5
498
330
1F
100
AcDbEntity
  8
0
 62
     1
100
AcDbLine
 10
22.16041488445475
 20
94.89243295888522
 30
0.0
 11
22.16041488445475
 21
94.64243295888522
 31
0.0
  0
LINE
  5
499
330
1F
100
AcDbEntity
  8
0
 62
     1
100
AcDbLine
 10
21.91041488445475
 20
94.89243295888522
 30
0.0
 11
22.16041488445475
 21
94.89243295888522
 31
0.0
  0
LINE
  5
49A
330
1F
100
AcDbEntity
  8
0
 62
     1
100
AcDbLine
 10
22.1254148844549
 20
94.64243295888522
 30
0.0
 11
23.71041488445584
 21
94.64243295888522
 31
0.0
  0
LINE
  5
49B
330
1F
100
AcDbEntity
  8
0
 62
     1
100
AcDbLine
 10
22.1254148844549
 20
95.24225699246548
 30
0.0
 11
22.1254148844549
 21
82.64243295888523
 31
0.0
  0
LINE
  5
49C
330
1F
100
AcDbEntity
  8
0
 62
     1
100
AcDbLine
 10
22.94541488445643
 20
95.52035394656455
 30
0.0
 11
22.94541488445552
 21
82.64243295888523
 31
0.0
  0
LINE
  5
49D
330
1F
100
AcDbEntity
  8
A2 Hatch
  6
DASHED2
 48
0.15
100
AcDbLine
 10
22.28541488445657
 20
95.29651981277798
 30
0.0
 11
22.28541488445566
 21
82.64243295888523
 31
0.0
  0
LINE
  5
49E
330
1F
100
AcDbEntity
  8
A2 Hatch
  6
DASHED2
 48
0.15
100
AcDbLine
 10
22.78541488445566
 20
95.46609112625251
 30
0.0
 11
22.78541488445566
 21
82.64243295888523
 31
0.0
  0
LINE
  5
49F
330
1F
100
AcDbEntity
  8
A2 Hatch
  6
DASHED2
 48
0.15
100
AcDbLine
 10
16.47541488445526
 20
93.38128562358665
 30
0.0
 11
16.47541488445526
 21
82.64243295888523
 31
0.0
  0
LINE
  5
4A0
330
1F
100
AcDbEntity
  8
A2 Hatch
  6
DASHED2
 48
0.15
100
AcDbLine
 10
17.29541488445497
 20
93.63789742992215
 30
0.0
 11
17.29541488445497
 21
82.64243295888523
 31
0.0
  0
LINE
  5
4A1
330
1F
100
AcDbEntity
  8
0
 62
     1
100
AcDbLine
 10
16.63541488445511
 20
93.43135621994438
 30
0.0
 11
16.63541488445511
 21
82.64243295888523
 31
0.0
  0
LINE
  5
4A2
330
1F
100
AcDbEntity
  8
0
 62
     1
100
AcDbLine
 10
17.13541488445421
 20
93.58782683356398
 30
0.0
 11
17.13541488445511
 21
82.64243295888523
 31
0.0
  0
LINE
  5
4A3
330
1F
100
AcDbEntity
  8
0
 62
     1
100
AcDbLine
 10
21.71041488445494
 20
94.64243295888522
 30
0.0
 11
21.91041488445475
 21
94.64243295888522
 31
0.0
  0
LINE
  5
4A4
330
1F
100
AcDbEntity
  8
0
 62
     1
100
AcDbLine
 10
21.71041488445585
 20
82.64243295888523
 30
0.0
 11
23.71041488445584
 21
82.64243295888523
 31
0.0
  0
LINE
  5
4A5
330
1F
100
AcDbEntity
  8
DETAILS
 62
     6
370
    20
100
AcDbLine
 10
21.71041488445494
 20
86.62243295888524
 30
0.0
 11
17.71041488445493
 21
86.62243295888524
 31
0.0
  0
LINE
  5
4A6
330
1F
100
AcDbEntity
  8
DETAILS
 62
     6
370
    20
100
AcDbLine
 10
21.71041488445494
 20
91.16243295888521
 30
0.0
 11
17.71041488445493
 21
91.16243295888521
 31
0.0
  0
LINE
  5
4A7
330
1F
100
AcDbEntity
  8
DETAILS
 62
     6
370
    20
100
AcDbLine
 10
21.71041488445494
 20
86.14243295888476
 30
0.0
 11
17.71041488445493
 21
86.14243295888522
 31
0.0
  0
LINE
  5
4A8
330
1F
100
AcDbEntity
  8
DETAILS
 62
     6
370
    20
100
AcDbLine
 10
21.71041488445494
 20
86.23243295888491
 30
0.0
 11
17.71041488445493
 21
86.23243295888537
 31
0.0
  0
LINE
  5
4A9
330
1F
100
AcDbEntity
  8
DETAILS
 62
     6
370
    20
100
AcDbLine
 10
21.71041488445494
 20
86.53243295888509
 30
0.0
 11
17.71041488445493
 21
86.53243295888509
 31
0.0
  0
LINE
  5
4AA
330
1F
100
AcDbEntity
  8
DETAILS
 62
     6
370
    20
100
AcDbLine
 10
21.71041488445494
 20
91.25243295888443
 30
0.0
 11
17.71041488445493
 21
91.25243295888536
 31
0.0
  0
LINE
  5
4AB
330
1F
100
AcDbEntity
  8
DETAILS
 62
     6
370
    20
100
AcDbLine
 10
21.71041488445494
 20
91.55243295888462
 30
0.0
 11
17.71041488445493
 21
91.55243295888508
 31
0.0
  0
LINE
  5
4AC
330
1F
100
AcDbEntity
  8
DETAILS
 62
     6
370
    20
100
AcDbLine
 10
17.90041488445271
 20
86.62243295888524
 30
0.0
 11
18.25041488445217
 21
86.62243295888524
 31
0.0
  0
LINE
  5
4AD
330
1F
100
AcDbEntity
  8
DETAILS
 62
     6
370
    20
100
AcDbLine
 10
21.15041488445362
 20
86.62243295888524
 30
0.0
 11
21.41254691880963
 21
86.88456499323805
 31
0.0
  0
LINE
  5
4AE
330
1F
100
AcDbEntity
  8
DETAILS
 62
     6
370
    20
100
AcDbLine
 10
18.25041488445217
 20
86.62243295888524
 30
0.0
 11
17.98828285009617
 21
86.88456499324397
 31
0.0
  0
LINE
  5
4AF
330
1F
100
AcDbEntity
  8
DETAILS
 62
     6
370
    20
100
AcDbLine
 10
21.16041488445475
 20
91.16243295888521
 30
0.0
 11
21.41254691880963
 21
90.91030092452852
 31
0.0
  0
LINE
  5
4B0
330
1F
100
AcDbEntity
  8
DETAILS
 62
     6
370
    20
100
AcDbLine
 10
18.2604148844533
 20
91.16243295888521
 30
0.0
 11
17.98828285009799
 21
90.89030092453308
 31
0.0
  0
LINE
  5
4B1
330
1F
100
AcDbEntity
  8
DETAILS
 62
     6
370
    20
100
AcDbLine
 10
21.50041488445399
 20
87.09669702759478
 30
0.0
 11
21.50041488445308
 21
90.6981688901736
 31
0.0
  0
LINE
  5
4B2
330
1F
100
AcDbEntity
  8
DETAILS
 62
     6
370
    20
100
AcDbLine
 10
17.90041488445271
 20
87.09669702759887
 30
0.0
 11
17.90041488445271
 21
90.6781688901759
 31
0.0
  0
ARC
  5
4B3
330
1F
100
AcDbEntity
  8
DETAILS
 62
     6
370
    20
100
AcDbCircle
 10
21.20041488445381
 20
87.09669702759478
 30
0.0
 40
0.3
100
AcDbArc
 50
314.9999999997974
 51
0.0
  0
ARC
  5
4B4
330
1F
100
AcDbEntity
  8
DETAILS
 62
     6
370
    20
100
AcDbCircle
 10
18.20041488445381
 20
87.09669702759843
 30
0.0
 40
0.3
100
AcDbArc
 50
180.0
 51
224.9999999996867
  0
ARC
  5
4B5
330
1F
100
AcDbEntity
  8
DETAILS
 62
     6
370
    20
100
AcDbCircle
 10
21.20041488445381
 20
90.69816889017316
 30
0.0
 40
0.3
100
AcDbArc
 50
0.0000000000260551
 51
44.99999999970515
  0
ARC
  5
4B6
330
1F
100
AcDbEntity
  8
DETAILS
 62
     6
370
    20
100
AcDbCircle
 10
18.20041488445381
 20
90.67816889017544
 30
0.0
 40
0.3
100
AcDbArc
 50
134.9999999997052
 51
180.0
  0
LINE
  5
4B7
330
1F
100
AcDbEntity
  8
DETAILS
 62
     6
370
    20
100
AcDbLine
 10
17.71041488445493
 20
91.64243295888523
 30
0.0
 11
18.2604148844533
 21
91.64243295888523
 31
0.0
  0
LINE
  5
4B8
330
1F
100
AcDbEntity
  8
DETAILS
 62
     6
370
    20
100
AcDbLine
 10
18.5104148844533
 20
91.6924329588854
 30
0.0
 11
18.5104148844533
 21
92.2967496949694
 31
0.0
  0
LINE
  5
4B9
330
1F
100
AcDbEntity
  8
DETAILS
 62
     6
370
    20
100
AcDbLine
 10
18.61041488445366
 20
91.6924329588854
 30
0.0
 11
18.61041488445366
 21
92.21031975109358
 31
0.0
  0
ARC
  5
4BA
330
1F
100
AcDbEntity
  8
DETAILS
 62
     6
370
    20
100
AcDbCircle
 10
18.6721725432329
 20
92.21455848644323
 30
0.0
 40
0.0619029506189981
100
AcDbArc
 50
134.9903235096027
 51
183.9263367617324
  0
LINE
  5
4BB
330
1F
100
AcDbEntity
  8
DETAILS
 62
     6
370
    20
100
AcDbLine
 10
20.96041488445402
 20
91.64243295888477
 30
0.0
 11
21.16041488445475
 21
91.64243295888477
 31
0.0
  0
LINE
  5
4BC
330
1F
100
AcDbEntity
  8
DETAILS
 62
     6
370
    20
100
AcDbLine
 10
20.91041488445475
 20
91.69243295888495
 30
0.0
 11
20.91041488445475
 21
92.2967496949694
 31
0.0
  0
LINE
  5
4BD
330
1F
100
AcDbEntity
  8
DETAILS
 62
     6
370
    20
100
AcDbLine
 10
20.81041488445439
 20
91.69243295888495
 30
0.0
 11
20.81041488445439
 21
92.21031975109312
 31
0.0
  0
ARC
  5
4BE
330
1F
100
AcDbEntity
  8
DETAILS
 62
     6
370
    20
100
AcDbCircle
 10
20.698159052455
 20
92.20718469874904
 30
0.0
 40
0.1122996009395304
100
AcDbArc
 50
1.599726146933217
 51
27.09751498394525
  0
LINE
  5
4BF
330
1F
100
AcDbEntity
  8
DETAILS
 62
     6
370
    20
100
AcDbLine
 10
19.2604148844533
 20
91.69243295888495
 30
0.0
 11
19.2604148844533
 21
92.21031975109221
 31
0.0
  0
LINE
  5
4C0
330
1F
100
AcDbEntity
  8
DETAILS
 62
     6
370
    20
100
AcDbLine
 10
19.36041488445366
 20
91.69243295888495
 30
0.0
 11
19.36041488445366
 21
92.21031975109358
 31
0.0
  0
ARC
  5
4C1
330
1F
100
AcDbEntity
  8
DETAILS
 62
     6
370
    20
100
AcDbCircle
 10
19.31041488445257
 20
92.32817444466068
 30
0.0
 40
0.0935752503092939
100
AcDbArc
 50
311.7278668394931
 51
228.2721331609136
  0
ARC
  5
4C2
330
1F
100
AcDbEntity
  8
DETAILS
 62
     6
370
    20
100
AcDbCircle
 10
19.16041488445293
 20
92.21031975109221
 30
0.0
 40
0.1
100
AcDbArc
 50
0.0
 51
28.69723935241921
  0
ARC
  5
4C3
330
1F
100
AcDbEntity
  8
DETAILS
 62
     6
370
    20
100
AcDbCircle
 10
19.46041488445311
 20
92.21031975109358
 30
0.0
 40
0.1
100
AcDbArc
 50
151.3027606481171
 51
180.0
  0
LINE
  5
4C4
330
1F
100
AcDbEntity
  8
DETAILS
 62
     6
370
    20
100
AcDbLine
 10
20.0604148844553
 20
91.69243295888495
 30
0.0
 11
20.06041488445439
 21
92.21031975109221
 31
0.0
  0
LINE
  5
4C5
330
1F
100
AcDbEntity
  8
DETAILS
 62
     6
370
    20
100
AcDbLine
 10
20.16041488445475
 20
91.69243295888495
 30
0.0
 11
20.16041488445475
 21
92.21031975109312
 31
0.0
  0
ARC
  5
4C6
330
1F
100
AcDbEntity
  8
DETAILS
 62
     6
370
    20
100
AcDbCircle
 10
20.11041488445457
 20
92.32817444466022
 30
0.0
 40
0.0935752503091666
100
AcDbArc
 50
311.7278668395667
 51
228.2721331606193
  0
ARC
  5
4C7
330
1F
100
AcDbEntity
  8
DETAILS
 62
     6
370
    20
100
AcDbCircle
 10
19.96041488445493
 20
92.21031975109221
 30
0.0
 40
0.1
100
AcDbArc
 50
0.0
 51
28.69723935241921
  0
ARC
  5
4C8
330
1F
100
AcDbEntity
  8
DETAILS
 62
     6
370
    20
100
AcDbCircle
 10
20.26041488445512
 20
92.21031975109312
 30
0.0
 40
0.1
100
AcDbArc
 50
151.3027606481171
 51
180.0
  0
LINE
  5
4C9
330
1F
100
AcDbEntity
  8
DETAILS
 62
     6
370
    20
100
AcDbLine
 10
20.86041488445457
 20
92.42174969496941
 30
0.0
 11
21.71041488445494
 21
92.42174969496941
 31
0.0
  0
ARC
  5
4CA
330
1F
100
AcDbEntity
  8
DETAILS
 62
     6
370
    20
100
AcDbCircle
 10
18.57290188545298
 20
92.33071051838019
 30
0.0
 40
0.091207026586975
100
AcDbArc
 50
307.4863303690938
 51
93.47656839120459
  0
ARC
  5
4CB
330
1F
100
AcDbEntity
  8
DETAILS
 62
     6
370
    20
100
AcDbCircle
 10
20.86041488445457
 20
92.32817444466022
 30
0.0
 40
0.0935752503091878
100
AcDbArc
 50
90.0
 51
228.2720386612377
  0
LINE
  5
4CC
330
1F
100
AcDbEntity
  8
DETAILS
 62
     6
370
    20
100
AcDbLine
 10
18.5784327104196
 20
92.42174969496941
 30
0.0
 11
17.71041488445402
 21
92.42174969496941
 31
0.0
  0
LINE
  5
4CD
330
1F
100
AcDbEntity
  8
DETAILS
 62
     6
370
    20
100
AcDbLine
 10
18.5104148844533
 20
92.2967496949694
 30
0.0
 11
17.71041488445402
 21
92.2967496949694
 31
0.0
  0
LINE
  5
4CE
330
1F
100
AcDbEntity
  8
DETAILS
 62
     6
370
    20
100
AcDbLine
 10
20.91041488445475
 20
92.2967496949694
 30
0.0
 11
21.71041488445494
 21
92.2967496949694
 31
0.0
  0
LINE
  5
4CF
330
1F
100
AcDbEntity
  8
DETAILS
 62
     6
370
    20
100
AcDbLine
 10
20.76041488445512
 20
91.64243295888477
 30
0.0
 11
20.21041488445494
 21
91.64243295888523
 31
0.0
  0
LINE
  5
4D0
330
1F
100
AcDbEntity
  8
DETAILS
 62
     6
370
    20
100
AcDbLine
 10
20.01041488445512
 20
91.64243295888523
 30
0.0
 11
19.41041488445293
 21
91.64243295888523
 31
0.0
  0
LINE
  5
4D1
330
1F
100
AcDbEntity
  8
DETAILS
 62
     6
370
    20
100
AcDbLine
 10
19.21041488445311
 20
91.64243295888523
 30
0.0
 11
18.66041488445293
 21
91.64243295888523
 31
0.0
  0
LINE
  5
4D2
330
1F
100
AcDbEntity
  8
DETAILS
 62
     6
370
    20
100
AcDbLine
 10
18.4604148844522
 20
91.64243295888523
 30
0.0
 11
17.71041488445493
 21
91.64243295888523
 31
0.0
  0
ARC
  5
4D3
330
1F
100
AcDbEntity
  8
DETAILS
 62
     6
370
    20
100
AcDbCircle
 10
18.4604148844522
 20
91.6924329588854
 30
0.0
 40
0.05
100
AcDbArc
 50
270.0
 51
0.0
  0
ARC
  5
4D4
330
1F
100
AcDbEntity
  8
DETAILS
 62
     6
370
    20
100
AcDbCircle
 10
18.66041488445293
 20
91.6924329588854
 30
0.0
 40
0.05
100
AcDbArc
 50
180.0
 51
270.0
  0
ARC
  5
4D5
330
1F
100
AcDbEntity
  8
DETAILS
 62
     6
370
    20
100
AcDbCircle
 10
19.21041488445311
 20
91.69243295888495
 30
0.0
 40
0.05
100
AcDbArc
 50
270.0
 51
0.0
  0
ARC
  5
4D6
330
1F
100
AcDbEntity
  8
DETAILS
 62
     6
370
    20
100
AcDbCircle
 10
19.41041488445293
 20
91.69243295888495
 30
0.0
 40
0.05
100
AcDbArc
 50
180.0
 51
270.0
  0
ARC
  5
4D7
330
1F
100
AcDbEntity
  8
DETAILS
 62
     6
370
    20
100
AcDbCircle
 10
20.01041488445512
 20
91.69243295888495
 30
0.0
 40
0.05
100
AcDbArc
 50
270.0
 51
0.0
  0
ARC
  5
4D8
330
1F
100
AcDbEntity
  8
DETAILS
 62
     6
370
    20
100
AcDbCircle
 10
20.21041488445494
 20
91.69243295888495
 30
0.0
 40
0.05
100
AcDbArc
 50
180.0
 51
270.0
  0
ARC
  5
4D9
330
1F
100
AcDbEntity
  8
DETAILS
 62
     6
370
    20
100
AcDbCircle
 10
20.76041488445512
 20
91.69243295888495
 30
0.0
 40
0.05
100
AcDbArc
 50
270.0
 51
0.0
  0
ARC
  5
4DA
330
1F
100
AcDbEntity
  8
DETAILS
 62
     6
370
    20
100
AcDbCircle
 10
20.96041488445402
 20
91.69243295888495
 30
0.0
 40
0.05
100
AcDbArc
 50
179.9999999999479
 51
270.0
  0
LINE
  5
4DB
330
1F
100
AcDbEntity
  8
DETAILS
 62
     6
370
    20
100
AcDbLine
 10
17.71041488445493
 20
91.64243295888523
 30
0.0
 11
21.71041488445494
 21
91.64243295888523
 31
0.0
  0
LINE
  5
4DC
330
1F
100
AcDbEntity
  8
DETAILS
 62
     6
370
    20
100
AcDbLine
 10
18.4604148844522
 20
91.64243295888523
 30
0.0
 11
18.66041488445293
 21
91.64243295888523
 31
0.0
  0
LINE
  5
4DD
330
1F
100
AcDbEntity
  8
DETAILS
 62
     6
370
    20
100
AcDbLine
 10
19.21041488445311
 20
91.64243295888523
 30
0.0
 11
19.41041488445293
 21
91.64243295888523
 31
0.0
  0
LINE
  5
4DE
330
1F
100
AcDbEntity
  8
DETAILS
 62
     6
370
    20
100
AcDbLine
 10
20.01041488445512
 20
91.64243295888523
 30
0.0
 11
20.21041488445494
 21
91.64243295888523
 31
0.0
  0
LINE
  5
4DF
330
1F
100
AcDbEntity
  8
DETAILS
 62
     6
370
    20
100
AcDbLine
 10
20.76041488445512
 20
91.64243295888523
 30
0.0
 11
20.96041488445402
 21
91.64243295888523
 31
0.0
  0
LINE
  5
4E0
330
1F
100
AcDbEntity
  8
DETAILS
 62
     6
370
    20
100
AcDbLine
 10
18.5104148844533
 20
86.62243295888524
 30
0.0
 11
18.61041488445366
 21
86.62243295888524
 31
0.0
  0
LINE
  5
4E1
330
1F
100
AcDbEntity
  8
DETAILS
 62
     6
370
    20
100
AcDbLine
 10
18.5800264990215
 20
85.9085106361825
 30
0.0
 11
18.61041488445366
 21
86.14243295888522
 31
0.0
  0
LINE
  5
4E2
330
1F
100
AcDbEntity
  8
DETAILS
 62
     6
370
    20
100
AcDbLine
 10
18.54080327199367
 20
85.90851063618297
 30
0.0
 11
18.5104148844533
 21
86.14243295888522
 31
0.0
  0
ARC
  5
4E3
330
1F
100
AcDbEntity
  8
DETAILS
 62
     6
370
    20
100
AcDbCircle
 10
18.56041488550758
 20
85.91243295888521
 30
0.0
 40
0.02
100
AcDbArc
 50
191.3099324739691
 51
348.6900675259439
  0
LINE
  5
4E4
330
1F
100
AcDbEntity
  8
DETAILS
 62
     6
370
    20
100
AcDbLine
 10
19.3300264979683
 20
85.9085106361825
 30
0.0
 11
19.36041488340046
 21
86.14243295888522
 31
0.0
  0
LINE
  5
4E5
330
1F
100
AcDbEntity
  8
DETAILS
 62
     6
370
    20
100
AcDbLine
 10
19.29080327094047
 20
85.90851063618297
 30
0.0
 11
19.2604148834001
 21
86.14243295888522
 31
0.0
  0
ARC
  5
4E6
330
1F
100
AcDbEntity
  8
DETAILS
 62
     6
370
    20
100
AcDbCircle
 10
19.31041488445439
 20
85.91243295888521
 30
0.0
 40
0.02
100
AcDbArc
 50
191.3099324739691
 51
348.6900675259439
  0
LINE
  5
4E7
330
1F
100
AcDbEntity
  8
DETAILS
 62
     6
370
    20
100
AcDbLine
 10
20.13002649796939
 20
85.9085106361825
 30
0.0
 11
20.16041488340156
 21
86.14243295888522
 31
0.0
  0
LINE
  5
4E8
330
1F
100
AcDbEntity
  8
DETAILS
 62
     6
370
    20
100
AcDbLine
 10
20.09080327094157
 20
85.90851063618297
 30
0.0
 11
20.0604148834012
 21
86.14243295888522
 31
0.0
  0
ARC
  5
4E9
330
1F
100
AcDbEntity
  8
DETAILS
 62
     6
370
    20
100
AcDbCircle
 10
20.11041488445548
 20
85.91243295888521
 30
0.0
 40
0.02
100
AcDbArc
 50
191.3099324739691
 51
348.6900675259439
  0
LINE
  5
4EA
330
1F
100
AcDbEntity
  8
DETAILS
 62
     6
370
    20
100
AcDbLine
 10
20.8800264979694
 20
85.9085106361825
 30
0.0
 11
20.91041488340156
 21
86.14243295888522
 31
0.0
  0
LINE
  5
4EB
330
1F
100
AcDbEntity
  8
DETAILS
 62
     6
370
    20
100
AcDbLine
 10
20.84080327094156
 20
85.90851063618297
 30
0.0
 11
20.81041488340119
 21
86.14243295888522
 31
0.0
  0
ARC
  5
4EC
330
1F
100
AcDbEntity
  8
DETAILS
 62
     6
370
    20
100
AcDbCircle
 10
20.86041488445548
 20
85.91243295888521
 30
0.0
 40
0.02
100
AcDbArc
 50
191.3099324739691
 51
348.6900675259439
  0
LINE
  5
4ED
330
1F
100
AcDbEntity
  8
DETAILS
 62
     6
370
    20
100
AcDbLine
 10
18.25041488445217
 20
86.14243295888522
 30
0.0
 11
17.71041488445493
 21
85.62191749496909
 31
0.0
  0
LINE
  5
4EE
330
1F
100
AcDbEntity
  8
DETAILS
 62
     6
370
    20
100
AcDbLine
 10
21.15041488445454
 20
86.14243295888476
 30
0.0
 11
21.71041488445494
 21
85.60814724459836
 31
0.0
  0
LINE
  5
4EF
330
1F
100
AcDbEntity
  8
DETAILS
 62
     6
370
    20
100
AcDbLine
 10
21.16041488445475
 20
91.64243295888523
 30
0.0
 11
21.71041488445494
 21
92.172689369141
 31
0.0
  0
LINE
  5
4F0
330
1F
100
AcDbEntity
  8
DETAILS
 62
     6
370
    20
100
AcDbLine
 10
18.2604148844533
 20
91.64243295888523
 30
0.0
 11
17.71041488445584
 21
92.1726893691401
 31
0.0
  0
LINE
  5
4F1
330
1F
100
AcDbEntity
  8
0
  6
HIDDEN
 62
     1
 48
0.02
100
AcDbLine
 10
16.0604148844553
 20
83.14243295888521
 30
0.0
 11
16.6854148844553
 21
83.14243295888521
 31
0.0
  0
LINE
  5
4F2
330
1F
100
AcDbEntity
  8
0
  6
HIDDEN
 62
     1
 48
0.02
100
AcDbLine
 10
17.08541488445493
 20
83.14243295888521
 30
0.0
 11
17.08541488445402
 21
82.64243295888523
 31
0.0
  0
LINE
  5
4F3
330
1F
100
AcDbEntity
  8
0
  6
HIDDEN
 62
     1
 48
0.02
100
AcDbLine
 10
16.6854148844553
 20
83.14243295888521
 30
0.0
 11
16.68541488445621
 21
82.64243295888523
 31
0.0
  0
LINE
  5
4F4
330
1F
100
AcDbEntity
  8
0
  6
HIDDEN
 62
     1
 48
0.02
100
AcDbLine
 10
17.08541488445402
 20
83.14243295888521
 30
0.0
 11
17.71041488445402
 21
83.14243295888521
 31
0.0
  0
LINE
  5
4F5
330
1F
100
AcDbEntity
  8
0
  6
HIDDEN
 62
     1
 48
0.02
100
AcDbLine
 10
23.36041488445639
 20
83.14243295888521
 30
0.0
 11
23.36041488445639
 21
82.64243295888523
 31
0.0
  0
LINE
  5
4F6
330
1F
100
AcDbEntity
  8
0
  6
HIDDEN
 62
     1
 48
0.02
100
AcDbLine
 10
22.33541488445585
 20
83.14243295888521
 30
0.0
 11
22.33541488445585
 21
82.64243295888523
 31
0.0
  0
LINE
  5
4F7
330
1F
100
AcDbEntity
  8
0
  6
HIDDEN
 62
     1
 48
0.02
100
AcDbLine
 10
22.73541488445639
 20
83.14243295888521
 30
0.0
 11
22.73541488445639
 21
82.64243295888523
 31
0.0
  0
LINE
  5
4F8
330
1F
100
AcDbEntity
  8
0
  6
HIDDEN
 62
     1
 48
0.02
100
AcDbLine
 10
21.71041488445585
 20
83.14243295888521
 30
0.0
 11
22.33541488445585
 21
83.14243295888521
 31
0.0
  0
LINE
  5
4F9
330
1F
100
AcDbEntity
  8
0
  6
HIDDEN
 62
     1
 48
0.02
100
AcDbLine
 10
22.73541488445639
 20
83.14243295888521
 30
0.0
 11
23.36041488445639
 21
83.14243295888521
 31
0.0
  0
LINE
  5
4FA
330
1F
100
AcDbEntity
  8
0
  6
HIDDEN
 62
     1
 48
0.02
100
AcDbLine
 10
22.16041488445657
 20
82.89243295888523
 30
0.0
 11
22.16041488445657
 21
82.64243295888523
 31
0.0
  0
LINE
  5
4FB
330
1F
100
AcDbEntity
  8
0
  6
HIDDEN
 62
     1
 48
0.02
100
AcDbLine
 10
21.91041488445657
 20
82.89243295888523
 30
0.0
 11
22.16041488445657
 21
82.89243295888523
 31
0.0
  0
LINE
  5
4FC
330
1F
100
AcDbEntity
  8
0
 62
     1
100
AcDbLine
 10
15.71041488445584
 20
82.64243295888523
 30
0.0
 11
15.71041488445584
 21
70.64243295888522
 31
0.0
  0
LINE
  5
4FD
330
1F
100
AcDbEntity
  8
0
 62
     1
100
AcDbLine
 10
23.71041488445584
 20
82.64243295888523
 30
0.0
 11
23.71041488445584
 21
70.64243295888522
 31
0.0
  0
LINE
  5
4FE
330
1F
100
AcDbEntity
  8
0
 62
     1
100
AcDbLine
 10
15.71041488445584
 20
82.64243295888523
 30
0.0
 11
17.26041488445511
 21
82.64243295888523
 31
0.0
  0
LINE
  5
4FF
330
1F
100
AcDbEntity
  8
0
 62
     1
100
AcDbLine
 10
15.71041488445584
 20
70.64243295888522
 30
0.0
 11
17.71041488445493
 21
70.64243295888522
 31
0.0
  0
LINE
  5
500
330
1F
100
AcDbEntity
  8
0
 62
     1
100
AcDbLine
 10
17.71041488445493
 20
83.14243295888521
 30
0.0
 11
17.71041488445584
 21
70.64243295888522
 31
0.0
  0
LINE
  5
501
330
1F
100
AcDbEntity
  8
0
 62
     1
100
AcDbLine
 10
21.71041488445403
 20
83.14243295888521
 30
0.0
 11
21.71041488445585
 21
70.64243295888522
 31
0.0
  0
LINE
  5
502
330
1F
100
AcDbEntity
  8
0
 62
     1
100
AcDbLine
 10
16.0604148844553
 20
83.14243295888521
 30
0.0
 11
16.6854148844553
 21
83.14243295888521
 31
0.0
  0
LINE
  5
503
330
1F
100
AcDbEntity
  8
0
 62
     1
100
AcDbLine
 10
16.0604148844553
 20
83.14243295888521
 30
0.0
 11
16.0604148844553
 21
70.64243295888522
 31
0.0
  0
LINE
  5
504
330
1F
100
AcDbEntity
  8
0
 62
     1
100
AcDbLine
 10
23.36041488445548
 20
83.14243295888521
 30
0.0
 11
23.36041488445548
 21
82.64243295888523
 31
0.0
  0
LINE
  5
505
330
1F
100
AcDbEntity
  8
0
 62
     1
100
AcDbLine
 10
17.08541488445493
 20
83.14243295888521
 30
0.0
 11
17.08541488445402
 21
82.64243295888523
 31
0.0
  0
LINE
  5
506
330
1F
100
AcDbEntity
  8
0
 62
     1
100
AcDbLine
 10
16.6854148844553
 20
83.14243295888521
 30
0.0
 11
16.68541488445621
 21
82.64243295888523
 31
0.0
  0
LINE
  5
507
330
1F
100
AcDbEntity
  8
0
 62
     1
100
AcDbLine
 10
22.33541488445403
 20
83.14243295888521
 30
0.0
 11
22.33541488445403
 21
82.64243295888523
 31
0.0
  0
LINE
  5
508
330
1F
100
AcDbEntity
  8
0
 62
     1
100
AcDbLine
 10
22.73541488445548
 20
83.14243295888521
 30
0.0
 11
22.73541488445548
 21
82.64243295888523
 31
0.0
  0
LINE
  5
509
330
1F
100
AcDbEntity
  8
0
 62
     1
100
AcDbLine
 10
21.71041488445494
 20
83.14243295888521
 30
0.0
 11
22.33541488445494
 21
83.14243295888521
 31
0.0
  0
LINE
  5
50A
330
1F
100
AcDbEntity
  8
0
 62
     1
100
AcDbLine
 10
22.73541488445548
 20
83.14243295888521
 30
0.0
 11
23.36041488445548
 21
83.14243295888521
 31
0.0
  0
LINE
  5
50B
330
1F
100
AcDbEntity
  8
0
 62
     1
100
AcDbLine
 10
17.08541488445402
 20
83.14243295888521
 30
0.0
 11
17.71041488445402
 21
83.14243295888521
 31
0.0
  0
LINE
  5
50C
330
1F
100
AcDbEntity
  8
0
 62
     1
100
AcDbLine
 10
17.51041488445511
 20
82.89243295888523
 30
0.0
 11
17.51041488445511
 21
70.64243295888522
 31
0.0
  0
LINE
  5
50D
330
1F
100
AcDbEntity
  8
0
 62
     1
100
AcDbLine
 10
21.91041488445475
 20
82.89243295888523
 30
0.0
 11
21.91041488445475
 21
70.64243295888522
 31
0.0
  0
LINE
  5
50E
330
1F
100
AcDbEntity
  8
0
 62
     1
100
AcDbLine
 10
17.26041488445511
 20
82.89243295888523
 30
0.0
 11
17.26041488445511
 21
82.64243295888523
 31
0.0
  0
LINE
  5
50F
330
1F
100
AcDbEntity
  8
0
 62
     1
100
AcDbLine
 10
22.16041488445475
 20
82.89243295888523
 30
0.0
 11
22.16041488445475
 21
82.64243295888523
 31
0.0
  0
LINE
  5
510
330
1F
100
AcDbEntity
  8
0
 62
     1
100
AcDbLine
 10
17.26041488445511
 20
82.89243295888523
 30
0.0
 11
17.51041488445511
 21
82.89243295888523
 31
0.0
  0
LINE
  5
511
330
1F
100
AcDbEntity
  8
0
 62
     1
100
AcDbLine
 10
21.91041488445475
 20
82.89243295888523
 30
0.0
 11
22.16041488445475
 21
82.89243295888523
 31
0.0
  0
LINE
  5
512
330
1F
100
AcDbEntity
  8
0
 62
     1
100
AcDbLine
 10
22.1254148844549
 20
82.64243295888523
 30
0.0
 11
23.71041488445584
 21
82.64243295888523
 31
0.0
  0
LINE
  5
513
330
1F
100
AcDbEntity
  8
0
 62
     1
100
AcDbLine
 10
17.51041488445511
 20
82.64243295888523
 30
0.0
 11
17.71041488445402
 21
82.64243295888523
 31
0.0
  0
LINE
  5
514
330
1F
100
AcDbEntity
  8
0
 62
     1
100
AcDbLine
 10
22.1254148844549
 20
82.64243295888523
 30
0.0
 11
22.1254148844549
 21
70.64243295888522
 31
0.0
  0
LINE
  5
515
330
1F
100
AcDbEntity
  8
0
 62
     1
100
AcDbLine
 10
22.94541488445552
 20
82.64243295888523
 30
0.0
 11
22.94541488445552
 21
70.64243295888522
 31
0.0
  0
LINE
  5
516
330
1F
100
AcDbEntity
  8
A2 Hatch
  6
DASHED2
 48
0.15
100
AcDbLine
 10
22.28541488445566
 20
82.64243295888523
 30
0.0
 11
22.28541488445566
 21
70.64243295888522
 31
0.0
  0
LINE
  5
517
330
1F
100
AcDbEntity
  8
A2 Hatch
  6
DASHED2
 48
0.15
100
AcDbLine
 10
22.78541488445566
 20
82.64243295888523
 30
0.0
 11
22.78541488445566
 21
70.64243295888522
 31
0.0
  0
LINE
  5
518
330
1F
100
AcDbEntity
  8
0
 48
0.15
100
AcDbLine
 10
16.6854148844553
 20
82.64243295888523
 30
0.0
 11
17.08541488445493
 21
82.64243295888523
 31
0.0
  0
LINE
  5
519
330
1F
100
AcDbEntity
  8
A2 Hatch
  6
DASHED2
 48
0.15
100
AcDbLine
 10
16.47541488445526
 20
83.14243295888521
 30
0.0
 11
16.47541488445526
 21
70.64243295888522
 31
0.0
  0
LINE
  5
51A
330
1F
100
AcDbEntity
  8
A2 Hatch
  6
DASHED2
 48
0.15
100
AcDbLine
 10
17.29541488445497
 20
83.14243295888521
 30
0.0
 11
17.29541488445497
 21
70.64243295888522
 31
0.0
  0
LINE
  5
51B
330
1F
100
AcDbEntity
  8
0
 62
     1
100
AcDbLine
 10
16.63541488445511
 20
83.14243295888521
 30
0.0
 11
16.63541488445511
 21
70.64243295888522
 31
0.0
  0
LINE
  5
51C
330
1F
100
AcDbEntity
  8
0
 62
     1
100
AcDbLine
 10
17.13541488445511
 20
83.14243295888521
 30
0.0
 11
17.13541488445511
 21
70.64243295888522
 31
0.0
  0
LINE
  5
51D
330
1F
100
AcDbEntity
  8
0
 62
     1
100
AcDbLine
 10
17.13541488445511
 20
82.64243295888523
 30
0.0
 11
16.63541488445511
 21
82.64243295888523
 31
0.0
  0
LINE
  5
51E
330
1F
100
AcDbEntity
  8
0
 62
     1
100
AcDbLine
 10
21.71041488445494
 20
82.64243295888523
 30
0.0
 11
21.91041488445475
 21
82.64243295888523
 31
0.0
  0
LINE
  5
51F
330
1F
100
AcDbEntity
  8
0
 62
     1
100
AcDbLine
 10
21.71041488445585
 20
70.64243295888522
 30
0.0
 11
23.71041488445584
 21
70.64243295888522
 31
0.0
  0
LINE
  5
520
330
1F
100
AcDbEntity
  8
DETAILS
 62
     6
370
    20
100
AcDbLine
 10
21.71041488445494
 20
74.62243295888524
 30
0.0
 11
17.71041488445493
 21
74.62243295888524
 31
0.0
  0
LINE
  5
521
330
1F
100
AcDbEntity
  8
DETAILS
 62
     6
370
    20
100
AcDbLine
 10
21.71041488445494
 20
79.1624329588852
 30
0.0
 11
17.71041488445493
 21
79.1624329588852
 31
0.0
  0
LINE
  5
522
330
1F
100
AcDbEntity
  8
DETAILS
 62
     6
370
    20
100
AcDbLine
 10
21.71041488445494
 20
74.14243295888477
 30
0.0
 11
17.71041488445493
 21
74.14243295888522
 31
0.0
  0
LINE
  5
523
330
1F
100
AcDbEntity
  8
DETAILS
 62
     6
370
    20
100
AcDbLine
 10
21.71041488445494
 20
74.23243295888491
 30
0.0
 11
17.71041488445493
 21
74.23243295888537
 31
0.0
  0
LINE
  5
524
330
1F
100
AcDbEntity
  8
DETAILS
 62
     6
370
    20
100
AcDbLine
 10
21.71041488445494
 20
74.53243295888509
 30
0.0
 11
17.71041488445493
 21
74.53243295888509
 31
0.0
  0
LINE
  5
525
330
1F
100
AcDbEntity
  8
DETAILS
 62
     6
370
    20
100
AcDbLine
 10
21.71041488445494
 20
79.25243295888444
 30
0.0
 11
17.71041488445493
 21
79.25243295888535
 31
0.0
  0
LINE
  5
526
330
1F
100
AcDbEntity
  8
DETAILS
 62
     6
370
    20
100
AcDbLine
 10
21.71041488445494
 20
79.55243295888462
 30
0.0
 11
17.71041488445493
 21
79.55243295888507
 31
0.0
  0
LINE
  5
527
330
1F
100
AcDbEntity
  8
DETAILS
 62
     6
370
    20
100
AcDbLine
 10
17.90041488445271
 20
74.62243295888524
 30
0.0
 11
18.25041488445217
 21
74.62243295888524
 31
0.0
  0
LINE
  5
528
330
1F
100
AcDbEntity
  8
DETAILS
 62
     6
370
    20
100
AcDbLine
 10
21.15041488445362
 20
74.62243295888524
 30
0.0
 11
21.41254691880963
 21
74.88456499323806
 31
0.0
  0
LINE
  5
529
330
1F
100
AcDbEntity
  8
DETAILS
 62
     6
370
    20
100
AcDbLine
 10
18.25041488445217
 20
74.62243295888524
 30
0.0
 11
17.98828285009617
 21
74.88456499324397
 31
0.0
  0
LINE
  5
52A
330
1F
100
AcDbEntity
  8
DETAILS
 62
     6
370
    20
100
AcDbLine
 10
21.16041488445475
 20
79.1624329588852
 30
0.0
 11
21.41254691880963
 21
78.91030092452851
 31
0.0
  0
LINE
  5
52B
330
1F
100
AcDbEntity
  8
DETAILS
 62
     6
370
    20
100
AcDbLine
 10
18.2604148844533
 20
79.1624329588852
 30
0.0
 11
17.98828285009799
 21
78.89030092453308
 31
0.0
  0
LINE
  5
52C
330
1F
100
AcDbEntity
  8
DETAILS
 62
     6
370
    20
100
AcDbLine
 10
21.50041488445399
 20
75.09669702759478
 30
0.0
 11
21.50041488445308
 21
78.69816889017361
 31
0.0
  0
LINE
  5
52D
330
1F
100
AcDbEntity
  8
DETAILS
 62
     6
370
    20
100
AcDbLine
 10
17.90041488445271
 20
75.09669702759888
 30
0.0
 11
17.90041488445271
 21
78.67816889017589
 31
0.0
  0
ARC
  5
52E
330
1F
100
AcDbEntity
  8
DETAILS
 62
     6
370
    20
100
AcDbCircle
 10
21.20041488445381
 20
75.09669702759478
 30
0.0
 40
0.3
100
AcDbArc
 50
314.9999999997974
 51
0.0
  0
ARC
  5
52F
330
1F
100
AcDbEntity
  8
DETAILS
 62
     6
370
    20
100
AcDbCircle
 10
18.20041488445381
 20
75.09669702759842
 30
0.0
 40
0.3
100
AcDbArc
 50
180.0
 51
224.9999999996867
  0
ARC
  5
530
330
1F
100
AcDbEntity
  8
DETAILS
 62
     6
370
    20
100
AcDbCircle
 10
21.20041488445381
 20
78.69816889017315
 30
0.0
 40
0.3
100
AcDbArc
 50
0.0000000000260551
 51
44.99999999970515
  0
ARC
  5
531
330
1F
100
AcDbEntity
  8
DETAILS
 62
     6
370
    20
100
AcDbCircle
 10
18.20041488445381
 20
78.67816889017544
 30
0.0
 40
0.3
100
AcDbArc
 50
134.9999999997052
 51
180.0
  0
LINE
  5
532
330
1F
100
AcDbEntity
  8
DETAILS
 62
     6
370
    20
100
AcDbLine
 10
17.71041488445493
 20
79.64243295888522
 30
0.0
 11
18.2604148844533
 21
79.64243295888522
 31
0.0
  0
LINE
  5
533
330
1F
100
AcDbEntity
  8
DETAILS
 62
     6
370
    20
100
AcDbLine
 10
18.5104148844533
 20
79.6924329588854
 30
0.0
 11
18.5104148844533
 21
80.29674969496941
 31
0.0
  0
LINE
  5
534
330
1F
100
AcDbEntity
  8
DETAILS
 62
     6
370
    20
100
AcDbLine
 10
18.61041488445366
 20
79.6924329588854
 30
0.0
 11
18.61041488445366
 21
80.21031975109357
 31
0.0
  0
ARC
  5
535
330
1F
100
AcDbEntity
  8
DETAILS
 62
     6
370
    20
100
AcDbCircle
 10
18.6721725432329
 20
80.21455848644322
 30
0.0
 40
0.0619029506189981
100
AcDbArc
 50
134.9903235096027
 51
183.9263367617324
  0
LINE
  5
536
330
1F
100
AcDbEntity
  8
DETAILS
 62
     6
370
    20
100
AcDbLine
 10
20.96041488445402
 20
79.64243295888477
 30
0.0
 11
21.16041488445475
 21
79.64243295888477
 31
0.0
  0
LINE
  5
537
330
1F
100
AcDbEntity
  8
DETAILS
 62
     6
370
    20
100
AcDbLine
 10
20.91041488445475
 20
79.69243295888495
 30
0.0
 11
20.91041488445475
 21
80.29674969496941
 31
0.0
  0
LINE
  5
538
330
1F
100
AcDbEntity
  8
DETAILS
 62
     6
370
    20
100
AcDbLine
 10
20.81041488445439
 20
79.69243295888495
 30
0.0
 11
20.81041488445439
 21
80.21031975109313
 31
0.0
  0
ARC
  5
539
330
1F
100
AcDbEntity
  8
DETAILS
 62
     6
370
    20
100
AcDbCircle
 10
20.698159052455
 20
80.20718469874905
 30
0.0
 40
0.1122996009395304
100
AcDbArc
 50
1.599726146933217
 51
27.09751498394525
  0
LINE
  5
53A
330
1F
100
AcDbEntity
  8
DETAILS
 62
     6
370
    20
100
AcDbLine
 10
19.2604148844533
 20
79.69243295888495
 30
0.0
 11
19.2604148844533
 21
80.21031975109222
 31
0.0
  0
LINE
  5
53B
330
1F
100
AcDbEntity
  8
DETAILS
 62
     6
370
    20
100
AcDbLine
 10
19.36041488445366
 20
79.69243295888495
 30
0.0
 11
19.36041488445366
 21
80.21031975109357
 31
0.0
  0
ARC
  5
53C
330
1F
100
AcDbEntity
  8
DETAILS
 62
     6
370
    20
100
AcDbCircle
 10
19.31041488445257
 20
80.32817444466067
 30
0.0
 40
0.0935752503092939
100
AcDbArc
 50
311.7278668394931
 51
228.2721331609136
  0
ARC
  5
53D
330
1F
100
AcDbEntity
  8
DETAILS
 62
     6
370
    20
100
AcDbCircle
 10
19.16041488445293
 20
80.21031975109222
 30
0.0
 40
0.1
100
AcDbArc
 50
0.0
 51
28.69723935241921
  0
ARC
  5
53E
330
1F
100
AcDbEntity
  8
DETAILS
 62
     6
370
    20
100
AcDbCircle
 10
19.46041488445311
 20
80.21031975109357
 30
0.0
 40
0.1
100
AcDbArc
 50
151.3027606481171
 51
180.0
  0
LINE
  5
53F
330
1F
100
AcDbEntity
  8
DETAILS
 62
     6
370
    20
100
AcDbLine
 10
20.0604148844553
 20
79.69243295888495
 30
0.0
 11
20.06041488445439
 21
80.21031975109222
 31
0.0
  0
LINE
  5
540
330
1F
100
AcDbEntity
  8
DETAILS
 62
     6
370
    20
100
AcDbLine
 10
20.16041488445475
 20
79.69243295888495
 30
0.0
 11
20.16041488445475
 21
80.21031975109313
 31
0.0
  0
ARC
  5
541
330
1F
100
AcDbEntity
  8
DETAILS
 62
     6
370
    20
100
AcDbCircle
 10
20.11041488445457
 20
80.32817444466022
 30
0.0
 40
0.0935752503091666
100
AcDbArc
 50
311.7278668395667
 51
228.2721331606193
  0
ARC
  5
542
330
1F
100
AcDbEntity
  8
DETAILS
 62
     6
370
    20
100
AcDbCircle
 10
19.96041488445493
 20
80.21031975109222
 30
0.0
 40
0.1
100
AcDbArc
 50
0.0
 51
28.69723935241921
  0
ARC
  5
543
330
1F
100
AcDbEntity
  8
DETAILS
 62
     6
370
    20
100
AcDbCircle
 10
20.26041488445512
 20
80.21031975109313
 30
0.0
 40
0.1
100
AcDbArc
 50
151.3027606481171
 51
180.0
  0
LINE
  5
544
330
1F
100
AcDbEntity
  8
DETAILS
 62
     6
370
    20
100
AcDbLine
 10
20.86041488445457
 20
80.4217496949694
 30
0.0
 11
21.71041488445494
 21
80.4217496949694
 31
0.0
  0
ARC
  5
545
330
1F
100
AcDbEntity
  8
DETAILS
 62
     6
370
    20
100
AcDbCircle
 10
18.57290188545298
 20
80.33071051838019
 30
0.0
 40
0.091207026586975
100
AcDbArc
 50
307.4863303690938
 51
93.47656839120459
  0
ARC
  5
546
330
1F
100
AcDbEntity
  8
DETAILS
 62
     6
370
    20
100
AcDbCircle
 10
20.86041488445457
 20
80.32817444466022
 30
0.0
 40
0.0935752503091878
100
AcDbArc
 50
90.0
 51
228.2720386612377
  0
LINE
  5
547
330
1F
100
AcDbEntity
  8
DETAILS
 62
     6
370
    20
100
AcDbLine
 10
18.5784327104196
 20
80.4217496949694
 30
0.0
 11
17.71041488445402
 21
80.4217496949694
 31
0.0
  0
LINE
  5
548
330
1F
100
AcDbEntity
  8
DETAILS
 62
     6
370
    20
100
AcDbLine
 10
18.5104148844533
 20
80.29674969496941
 30
0.0
 11
17.71041488445402
 21
80.29674969496941
 31
0.0
  0
LINE
  5
549
330
1F
100
AcDbEntity
  8
DETAILS
 62
     6
370
    20
100
AcDbLine
 10
20.91041488445475
 20
80.29674969496941
 30
0.0
 11
21.71041488445494
 21
80.29674969496941
 31
0.0
  0
LINE
  5
54A
330
1F
100
AcDbEntity
  8
DETAILS
 62
     6
370
    20
100
AcDbLine
 10
20.76041488445512
 20
79.64243295888477
 30
0.0
 11
20.21041488445494
 21
79.64243295888522
 31
0.0
  0
LINE
  5
54B
330
1F
100
AcDbEntity
  8
DETAILS
 62
     6
370
    20
100
AcDbLine
 10
20.01041488445512
 20
79.64243295888522
 30
0.0
 11
19.41041488445293
 21
79.64243295888522
 31
0.0
  0
LINE
  5
54C
330
1F
100
AcDbEntity
  8
DETAILS
 62
     6
370
    20
100
AcDbLine
 10
19.21041488445311
 20
79.64243295888522
 30
0.0
 11
18.66041488445293
 21
79.64243295888522
 31
0.0
  0
LINE
  5
54D
330
1F
100
AcDbEntity
  8
DETAILS
 62
     6
370
    20
100
AcDbLine
 10
18.4604148844522
 20
79.64243295888522
 30
0.0
 11
17.71041488445493
 21
79.64243295888522
 31
0.0
  0
ARC
  5
54E
330
1F
100
AcDbEntity
  8
DETAILS
 62
     6
370
    20
100
AcDbCircle
 10
18.4604148844522
 20
79.6924329588854
 30
0.0
 40
0.05
100
AcDbArc
 50
270.0
 51
0.0
  0
ARC
  5
54F
330
1F
100
AcDbEntity
  8
DETAILS
 62
     6
370
    20
100
AcDbCircle
 10
18.66041488445293
 20
79.6924329588854
 30
0.0
 40
0.05
100
AcDbArc
 50
180.0
 51
270.0
  0
ARC
  5
550
330
1F
100
AcDbEntity
  8
DETAILS
 62
     6
370
    20
100
AcDbCircle
 10
19.21041488445311
 20
79.69243295888495
 30
0.0
 40
0.05
100
AcDbArc
 50
270.0
 51
0.0
  0
ARC
  5
551
330
1F
100
AcDbEntity
  8
DETAILS
 62
     6
370
    20
100
AcDbCircle
 10
19.41041488445293
 20
79.69243295888495
 30
0.0
 40
0.05
100
AcDbArc
 50
180.0
 51
270.0
  0
ARC
  5
552
330
1F
100
AcDbEntity
  8
DETAILS
 62
     6
370
    20
100
AcDbCircle
 10
20.01041488445512
 20
79.69243295888495
 30
0.0
 40
0.05
100
AcDbArc
 50
270.0
 51
0.0
  0
ARC
  5
553
330
1F
100
AcDbEntity
  8
DETAILS
 62
     6
370
    20
100
AcDbCircle
 10
20.21041488445494
 20
79.69243295888495
 30
0.0
 40
0.05
100
AcDbArc
 50
180.0
 51
270.0
  0
ARC
  5
554
330
1F
100
AcDbEntity
  8
DETAILS
 62
     6
370
    20
100
AcDbCircle
 10
20.76041488445512
 20
79.69243295888495
 30
0.0
 40
0.05
100
AcDbArc
 50
270.0
 51
0.0
  0
ARC
  5
555
330
1F
100
AcDbEntity
  8
DETAILS
 62
     6
370
    20
100
AcDbCircle
 10
20.96041488445402
 20
79.69243295888495
 30
0.0
 40
0.05
100
AcDbArc
 50
179.9999999999479
 51
270.0
  0
LINE
  5
556
330
1F
100
AcDbEntity
  8
DETAILS
 62
     6
370
    20
100
AcDbLine
 10
17.71041488445493
 20
79.64243295888522
 30
0.0
 11
21.71041488445494
 21
79.64243295888522
 31
0.0
  0
LINE
  5
557
330
1F
100
AcDbEntity
  8
DETAILS
 62
     6
370
    20
100
AcDbLine
 10
18.4604148844522
 20
79.64243295888522
 30
0.0
 11
18.66041488445293
 21
79.64243295888522
 31
0.0
  0
LINE
  5
558
330
1F
100
AcDbEntity
  8
DETAILS
 62
     6
370
    20
100
AcDbLine
 10
19.21041488445311
 20
79.64243295888522
 30
0.0
 11
19.41041488445293
 21
79.64243295888522
 31
0.0
  0
LINE
  5
559
330
1F
100
AcDbEntity
  8
DETAILS
 62
     6
370
    20
100
AcDbLine
 10
20.01041488445512
 20
79.64243295888522
 30
0.0
 11
20.21041488445494
 21
79.64243295888522
 31
0.0
  0
LINE
  5
55A
330
1F
100
AcDbEntity
  8
DETAILS
 62
     6
370
    20
100
AcDbLine
 10
20.76041488445512
 20
79.64243295888522
 30
0.0
 11
20.96041488445402
 21
79.64243295888522
 31
0.0
  0
LINE
  5
55B
330
1F
100
AcDbEntity
  8
DETAILS
 62
     6
370
    20
100
AcDbLine
 10
18.5104148844533
 20
74.62243295888524
 30
0.0
 11
18.61041488445366
 21
74.62243295888524
 31
0.0
  0
LINE
  5
55C
330
1F
100
AcDbEntity
  8
DETAILS
 62
     6
370
    20
100
AcDbLine
 10
18.5800264990215
 20
73.90851063618251
 30
0.0
 11
18.61041488445366
 21
74.14243295888522
 31
0.0
  0
LINE
  5
55D
330
1F
100
AcDbEntity
  8
DETAILS
 62
     6
370
    20
100
AcDbLine
 10
18.54080327199367
 20
73.90851063618296
 30
0.0
 11
18.5104148844533
 21
74.14243295888522
 31
0.0
  0
ARC
  5
55E
330
1F
100
AcDbEntity
  8
DETAILS
 62
     6
370
    20
100
AcDbCircle
 10
18.56041488550758
 20
73.91243295888521
 30
0.0
 40
0.02
100
AcDbArc
 50
191.3099324739691
 51
348.6900675259439
  0
LINE
  5
55F
330
1F
100
AcDbEntity
  8
DETAILS
 62
     6
370
    20
100
AcDbLine
 10
19.3300264979683
 20
73.90851063618251
 30
0.0
 11
19.36041488340046
 21
74.14243295888522
 31
0.0
  0
LINE
  5
560
330
1F
100
AcDbEntity
  8
DETAILS
 62
     6
370
    20
100
AcDbLine
 10
19.29080327094047
 20
73.90851063618296
 30
0.0
 11
19.2604148834001
 21
74.14243295888522
 31
0.0
  0
ARC
  5
561
330
1F
100
AcDbEntity
  8
DETAILS
 62
     6
370
    20
100
AcDbCircle
 10
19.31041488445439
 20
73.91243295888521
 30
0.0
 40
0.02
100
AcDbArc
 50
191.3099324739691
 51
348.6900675259439
  0
LINE
  5
562
330
1F
100
AcDbEntity
  8
DETAILS
 62
     6
370
    20
100
AcDbLine
 10
20.13002649796939
 20
73.90851063618251
 30
0.0
 11
20.16041488340156
 21
74.14243295888522
 31
0.0
  0
LINE
  5
563
330
1F
100
AcDbEntity
  8
DETAILS
 62
     6
370
    20
100
AcDbLine
 10
20.09080327094157
 20
73.90851063618296
 30
0.0
 11
20.0604148834012
 21
74.14243295888522
 31
0.0
  0
ARC
  5
564
330
1F
100
AcDbEntity
  8
DETAILS
 62
     6
370
    20
100
AcDbCircle
 10
20.11041488445548
 20
73.91243295888521
 30
0.0
 40
0.02
100
AcDbArc
 50
191.3099324739691
 51
348.6900675259439
  0
LINE
  5
565
330
1F
100
AcDbEntity
  8
DETAILS
 62
     6
370
    20
100
AcDbLine
 10
20.8800264979694
 20
73.90851063618251
 30
0.0
 11
20.91041488340156
 21
74.14243295888522
 31
0.0
  0
LINE
  5
566
330
1F
100
AcDbEntity
  8
DETAILS
 62
     6
370
    20
100
AcDbLine
 10
20.84080327094156
 20
73.90851063618296
 30
0.0
 11
20.81041488340119
 21
74.14243295888522
 31
0.0
  0
ARC
  5
567
330
1F
100
AcDbEntity
  8
DETAILS
 62
     6
370
    20
100
AcDbCircle
 10
20.86041488445548
 20
73.91243295888521
 30
0.0
 40
0.02
100
AcDbArc
 50
191.3099324739691
 51
348.6900675259439
  0
LINE
  5
568
330
1F
100
AcDbEntity
  8
DETAILS
 62
     6
370
    20
100
AcDbLine
 10
18.25041488445217
 20
74.14243295888522
 30
0.0
 11
17.71041488445493
 21
73.6219174949691
 31
0.0
  0
LINE
  5
569
330
1F
100
AcDbEntity
  8
DETAILS
 62
     6
370
    20
100
AcDbLine
 10
21.15041488445454
 20
74.14243295888477
 30
0.0
 11
21.71041488445494
 21
73.60814724459837
 31
0.0
  0
LINE
  5
56A
330
1F
100
AcDbEntity
  8
DETAILS
 62
     6
370
    20
100
AcDbLine
 10
21.16041488445475
 20
79.64243295888522
 30
0.0
 11
21.71041488445494
 21
80.17268936914101
 31
0.0
  0
LINE
  5
56B
330
1F
100
AcDbEntity
  8
DETAILS
 62
     6
370
    20
100
AcDbLine
 10
18.2604148844533
 20
79.64243295888522
 30
0.0
 11
17.71041488445584
 21
80.1726893691401
 31
0.0
  0
LINE
  5
56C
330
1F
100
AcDbEntity
  8
0
  6
HIDDEN
 62
     1
 48
0.02
100
AcDbLine
 10
16.0604148844553
 20
71.14243295888522
 30
0.0
 11
16.6854148844553
 21
71.14243295888522
 31
0.0
  0
LINE
  5
56D
330
1F
100
AcDbEntity
  8
0
  6
HIDDEN
 62
     1
 48
0.02
100
AcDbLine
 10
17.08541488445493
 20
71.14243295888522
 30
0.0
 11
17.08541488445402
 21
70.64243295888522
 31
0.0
  0
LINE
  5
56E
330
1F
100
AcDbEntity
  8
0
  6
HIDDEN
 62
     1
 48
0.02
100
AcDbLine
 10
16.6854148844553
 20
71.14243295888522
 30
0.0
 11
16.68541488445621
 21
70.64243295888522
 31
0.0
  0
LINE
  5
56F
330
1F
100
AcDbEntity
  8
0
  6
HIDDEN
 62
     1
 48
0.02
100
AcDbLine
 10
17.08541488445402
 20
71.14243295888522
 30
0.0
 11
17.71041488445402
 21
71.14243295888522
 31
0.0
  0
LINE
  5
570
330
1F
100
AcDbEntity
  8
0
  6
HIDDEN
 62
     1
 48
0.02
100
AcDbLine
 10
23.36041488445639
 20
71.14243295888522
 30
0.0
 11
23.36041488445639
 21
70.64243295888522
 31
0.0
  0
LINE
  5
571
330
1F
100
AcDbEntity
  8
0
  6
HIDDEN
 62
     1
 48
0.02
100
AcDbLine
 10
22.33541488445585
 20
71.14243295888522
 30
0.0
 11
22.33541488445585
 21
70.64243295888522
 31
0.0
  0
LINE
  5
572
330
1F
100
AcDbEntity
  8
0
  6
HIDDEN
 62
     1
 48
0.02
100
AcDbLine
 10
22.73541488445639
 20
71.14243295888522
 30
0.0
 11
22.73541488445639
 21
70.64243295888522
 31
0.0
  0
LINE
  5
573
330
1F
100
AcDbEntity
  8
0
  6
HIDDEN
 62
     1
 48
0.02
100
AcDbLine
 10
21.71041488445585
 20
71.14243295888522
 30
0.0
 11
22.33541488445585
 21
71.14243295888522
 31
0.0
  0
LINE
  5
574
330
1F
100
AcDbEntity
  8
0
  6
HIDDEN
 62
     1
 48
0.02
100
AcDbLine
 10
22.73541488445639
 20
71.14243295888522
 30
0.0
 11
23.36041488445639
 21
71.14243295888522
 31
0.0
  0
LINE
  5
575
330
1F
100
AcDbEntity
  8
0
  6
HIDDEN
 62
     1
 48
0.02
100
AcDbLine
 10
22.16041488445657
 20
70.89243295888522
 30
0.0
 11
22.16041488445657
 21
70.64243295888522
 31
0.0
  0
LINE
  5
576
330
1F
100
AcDbEntity
  8
0
  6
HIDDEN
 62
     1
 48
0.02
100
AcDbLine
 10
21.91041488445657
 20
70.89243295888522
 30
0.0
 11
22.16041488445657
 21
70.89243295888522
 31
0.0
  0
LINE
  5
577
330
1F
100
AcDbEntity
  8
0
 48
0.15
100
AcDbLine
 10
17.71041488445584
 20
70.64243295888522
 30
0.0
 11
21.71041488445585
 21
70.64243295888522
 31
0.0
  0
LINE
  5
578
330
1F
100
AcDbEntity
  8
0
 48
0.15
100
AcDbLine
 10
17.71041488445584
 20
72.14243295888522
 30
0.0
 11
21.71041488445585
 21
72.14243295888522
 31
0.0
  0
LINE
  5
579
330
1F
100
AcDbEntity
  8
A2 Hatch
 48
0.15
100
AcDbLine
 10
21.71041488445585
 20
72.14243295888522
 30
0.0
 11
17.71041488445584
 21
70.64243295888522
 31
0.0
  0
LINE
  5
57A
330
1F
100
AcDbEntity
  8
A2 Hatch
 48
0.15
100
AcDbLine
 10
17.71041488445584
 20
72.14243295888522
 30
0.0
 11
21.71041488445585
 21
70.64243295888522
 31
0.0
  0
LINE
  5
57B
330
1F
100
AcDbEntity
  8
A5 heavy
 48
0.15
100
AcDbLine
 10
20.94900391060432
 20
72.81869607181246
 30
0.0
 11
20.44900391060432
 21
72.81869607181246
 31
0.0
  0
LINE
  5
57C
330
1F
100
AcDbEntity
  8
A5 heavy
 48
0.15
100
AcDbLine
 10
20.69900391060432
 20
72.81869607181246
 30
0.0
 11
20.69900391060432
 21
71.62133090845268
 31
0.0
  0
LINE
  5
57D
330
1F
100
AcDbEntity
  8
A5 heavy
 48
0.15
100
AcDbLine
 10
18.47182585830737
 20
72.81869607181246
 30
0.0
 11
18.97182585830737
 21
72.81869607181246
 31
0.0
  0
LINE
  5
57E
330
1F
100
AcDbEntity
  8
A5 heavy
 48
0.15
100
AcDbLine
 10
18.72182585830737
 20
72.81869607181246
 30
0.0
 11
18.72182585830737
 21
71.62133090845268
 31
0.0
  0
LINE
  5
57F
330
1F
100
AcDbEntity
  8
A5 heavy
 48
0.15
100
AcDbLine
 10
23.71041488445584
 20
71.1491555698311
 30
0.0
 11
23.71041488445584
 21
71.6491555698311
 31
0.0
  0
LINE
  5
580
330
1F
100
AcDbEntity
  8
A5 heavy
 48
0.15
100
AcDbLine
 10
23.71041488445584
 20
71.39915556983109
 30
0.0
 11
20.94684573011577
 21
71.39915556983109
 31
0.0
  0
LINE
  5
581
330
1F
100
AcDbEntity
  8
A5 heavy
 48
0.15
100
AcDbLine
 10
15.71041488445584
 20
71.1491555698311
 30
0.0
 11
15.71041488445584
 21
71.6491555698311
 31
0.0
  0
LINE
  5
582
330
1F
100
AcDbEntity
  8
A5 heavy
 48
0.15
100
AcDbLine
 10
15.71041488445584
 20
71.39915556983109
 30
0.0
 11
18.47398403879592
 21
71.39915556983109
 31
0.0
  0
LINE
  5
583
330
1F
100
AcDbEntity
  8
0
 48
0.15
100
AcDbLine
 10
24.21041488445676
 20
95.94936936965481
 30
0.0
 11
24.21041488445585
 21
70.14243295888568
 31
0.0
  0
LINE
  5
584
330
1F
100
AcDbEntity
  8
0
 48
0.15
100
AcDbLine
 10
15.21041488445584
 20
92.98541497112987
 30
0.0
 11
15.21041488445584
 21
70.14243295888523
 31
0.0
  0
LINE
  5
585
330
1F
100
AcDbEntity
  8
DIM
100
AcDbLine
 10
25.59482148351467
 20
96.41888066042506
 30
0.0
 11
20.62466100769265
 21
94.73328738029644
 31
0.0
  0
LINE
  5
586
330
1F
100
AcDbEntity
  8
DIM
100
AcDbLine
 10
21.32669327029393
 20
92.66326666683912
 30
0.0
 11
20.62466100769356
 21
94.73328738029644
 31
0.0
  0
LINE
  5
587
330
1F
100
AcDbEntity
  8
DIM
100
AcDbLine
 10
17.87954771200961
 20
96.1104122251239
 30
0.0
 11
18.58157997460998
 21
94.04039151166703
 31
0.0
  0
LINE
  5
588
330
1F
100
AcDbEntity
  8
DIM
100
AcDbLine
 10
18.58157997460998
 20
94.04039151166703
 30
0.0
 11
12.51422830098303
 21
92.14166703283158
 31
0.0
  0
LINE
  5
589
330
1F
100
AcDbEntity
  8
DIM
100
AcDbLine
 10
21.32669327029393
 20
92.66326666683912
 30
0.0
 11
17.87954771200961
 21
96.1104122251239
 31
0.0
  0
LINE
  5
58A
330
1F
100
AcDbEntity
  8
0
 48
0.15
100
AcDbLine
 10
15.21041488445584
 20
70.14243295888523
 30
0.0
 11
17.73679047395794
 21
70.14243295888295
 31
0.0
  0
LINE
  5
58B
330
1F
100
AcDbEntity
  8
0
 48
0.15
100
AcDbLine
 10
18.77446794877173
 20
70.64243295888522
 30
0.0
 11
18.52446794877173
 21
70.64243295888522
 31
0.0
  0
LINE
  5
58C
330
1F
100
AcDbEntity
  8
0
 48
0.15
100
AcDbLine
 10
17.73679047395703
 20
70.64243295888522
 30
0.0
 11
17.73679047395703
 21
69.14243295888522
 31
0.0
  0
LINE
  5
58D
330
1F
100
AcDbEntity
  8
0
 48
0.15
100
AcDbLine
 10
17.73679047395703
 20
69.14243295888522
 30
0.0
 11
17.23679047395703
 21
69.14243295888522
 31
0.0
  0
LINE
  5
58E
330
1F
100
AcDbEntity
  8
0
 48
0.15
100
AcDbLine
 10
17.23679047395703
 20
69.14243295888522
 30
0.0
 11
17.23679047395703
 21
68.39243295888522
 31
0.0
  0
LINE
  5
58F
330
1F
100
AcDbEntity
  8
0
 48
0.15
100
AcDbLine
 10
17.23679047395703
 20
68.39243295888522
 30
0.0
 11
17.36179047395703
 21
68.39243295888522
 31
0.0
  0
LINE
  5
590
330
1F
100
AcDbEntity
  8
0
 48
0.15
100
AcDbLine
 10
17.36179047395703
 20
68.39243295888522
 30
0.0
 11
17.36179047395703
 21
67.22565285565801
 31
0.0
  0
LINE
  5
591
330
1F
100
AcDbEntity
  8
0
 48
0.15
100
AcDbLine
 10
17.36179047395703
 20
67.22565285565801
 30
0.0
 11
17.23679047395703
 21
67.22565285565801
 31
0.0
  0
LINE
  5
592
330
1F
100
AcDbEntity
  8
0
 48
0.15
100
AcDbLine
 10
17.23679047395703
 20
67.22565285565801
 30
0.0
 11
17.23679047395703
 21
66.97565285565801
 31
0.0
  0
LINE
  5
593
330
1F
100
AcDbEntity
  8
0
 48
0.15
100
AcDbLine
 10
17.23679047395703
 20
66.97565285565801
 30
0.0
 11
17.67151924753156
 21
66.54092408208303
 31
0.0
  0
LINE
  5
594
330
1F
100
AcDbEntity
  8
0
 48
0.15
100
AcDbLine
 10
17.67151924753156
 20
66.54092408208303
 30
0.0
 11
18.22744642794836
 21
66.54092408208303
 31
0.0
  0
LINE
  5
595
330
1F
100
AcDbEntity
  8
0
 48
0.15
100
AcDbLine
 10
20.1062480211061
 20
66.97565285565801
 30
0.0
 11
19.67151924753156
 21
66.54092408208303
 31
0.0
  0
LINE
  5
596
330
1F
100
AcDbEntity
  8
0
 48
0.15
100
AcDbLine
 10
20.1062480211061
 20
66.97565285565801
 30
0.0
 11
20.1062480211061
 21
69.52621406288049
 31
0.0
  0
LINE
  5
597
330
1F
100
AcDbEntity
  8
0
 48
0.15
100
AcDbLine
 10
20.1062480211061
 20
69.52621406288049
 30
0.0
 11
20.89905349372415
 21
69.52621406288049
 31
0.0
  0
LINE
  5
598
330
1F
100
AcDbEntity
  8
0
 48
0.15
100
AcDbLine
 10
20.89905349372415
 20
69.52621406288049
 30
0.0
 11
20.89905349372506
 21
70.64243295888522
 31
0.0
  0
LINE
  5
599
330
1F
100
AcDbEntity
  8
0
 48
0.15
100
AcDbLine
 10
18.22744642794927
 20
67.40142847377533
 30
0.0
 11
18.22744642794927
 21
58.27432039507434
 31
0.0
  0
LINE
  5
59A
330
1F
100
AcDbEntity
  8
0
 48
0.15
100
AcDbLine
 10
18.35244642794927
 20
67.40142847377533
 30
0.0
 11
18.35244642794927
 21
58.27432039507434
 31
0.0
  0
LINE
  5
59B
330
1F
100
AcDbEntity
  8
0
 48
0.15
100
AcDbLine
 10
18.35244642794927
 20
67.40142847377533
 30
0.0
 11
18.22744642794927
 21
67.40142847377533
 31
0.0
  0
LINE
  5
59C
330
1F
100
AcDbEntity
  8
0
 48
0.15
100
AcDbLine
 10
18.957379385591
 20
67.40142847377533
 30
0.0
 11
18.957379385591
 21
58.27432039507434
 31
0.0
  0
LINE
  5
59D
330
1F
100
AcDbEntity
  8
0
 48
0.15
100
AcDbLine
 10
19.082379385591
 20
67.40142847377533
 30
0.0
 11
19.082379385591
 21
58.27432039507434
 31
0.0
  0
LINE
  5
59E
330
1F
100
AcDbEntity
  8
0
 48
0.15
100
AcDbLine
 10
19.082379385591
 20
67.40142847377533
 30
0.0
 11
18.957379385591
 21
67.40142847377533
 31
0.0
  0
LINE
  5
59F
330
1F
100
AcDbEntity
  8
0
 48
0.15
100
AcDbLine
 10
18.35244642795018
 20
66.54092408208303
 30
0.0
 11
18.957379385591
 21
66.54092408208303
 31
0.0
  0
LINE
  5
5A0
330
1F
100
AcDbEntity
  8
0
 48
0.15
100
AcDbLine
 10
19.082379385591
 20
66.54092408208303
 30
0.0
 11
19.67151924753156
 21
66.54092408208303
 31
0.0
  0
LINE
  5
5A1
330
1F
100
AcDbEntity
  8
0
 48
0.15
100
AcDbLine
 10
19.31766532898686
 20
67.23990620871004
 30
0.0
 11
19.082379385591
 21
67.23990620871004
 31
0.0
  0
LINE
  5
5A2
330
1F
100
AcDbEntity
  8
0
 48
0.15
100
AcDbLine
 10
17.98000058483225
 20
67.23990620871004
 30
0.0
 11
17.98000058483225
 21
67.72200060861027
 31
0.0
  0
LINE
  5
5A3
330
1F
100
AcDbEntity
  8
0
 48
0.15
100
AcDbLine
 10
17.98000058483225
 20
67.72200060861027
 30
0.0
 11
18.12618085368953
 21
67.72200060861027
 31
0.0
  0
LINE
  5
5A4
330
1F
100
AcDbEntity
  8
0
 48
0.15
100
AcDbLine
 10
19.31766532898686
 20
67.23990620871004
 30
0.0
 11
19.31766532898686
 21
67.72200060861027
 31
0.0
  0
LINE
  5
5A5
330
1F
100
AcDbEntity
  8
0
 48
0.15
100
AcDbLine
 10
19.31766532898686
 20
67.72200060861027
 30
0.0
 11
19.17148506012958
 21
67.72200060861027
 31
0.0
  0
ARC
  5
5A6
330
1F
100
AcDbEntity
  8
0
 48
0.15
100
AcDbCircle
 10
18.64883295690956
 20
67.19934850539025
 30
0.0
 40
0.7391416927765827
100
AcDbArc
 50
44.99999999999992
 51
135.0000000000001
  0
LINE
  5
5A7
330
1F
100
AcDbEntity
  8
0
 48
0.15
100
AcDbLine
 10
18.22744642794836
 20
67.23990620871004
 30
0.0
 11
17.98000058483225
 21
67.23990620871004
 31
0.0
  0
LINE
  5
5A8
330
1F
100
AcDbEntity
  8
0
 48
0.15
100
AcDbLine
 10
18.957379385591
 20
67.23990620871004
 30
0.0
 11
18.35244642795018
 21
67.23990620871004
 31
0.0
  0
MTEXT
  5
5A9
330
1F
100
AcDbEntity
  8
DIM
 62
     3
100
AcDbMText
 10
33.14508835636056
 20
64.80562385962898
 30
0.0
 40
1.0
 41
22.68954545454545
 71
     1
 72
     5
  1
SUB BUCK TO BE FASTENED TO CONCRETE (CONNECTION PER CODE)
  7
RomanC
 73
     1
 44
1.0
1001
ACAD
1000
MTEXTBEGIN
1070
    73
1070
     1
1070
    44
1040
1.0
1070
    74
1070
     0
1000
MTEXTEND
  0
MTEXT
  5
5AA
330
1F
100
AcDbEntity
  8
DIM
 62
     3
100
AcDbMText
 10
33.14508835636056
 20
53.82399248479472
 30
0.0
 40
1.0
 41
22.68954545454545
 71
     1
 72
     5
  1
WINDOW BY OTHERS
  7
RomanC
 73
     1
 44
1.0
1001
ACAD
1000
MTEXTBEGIN
1070
    73
1070
     1
1070
    44
1040
1.0
1070
    74
1070
     0
1000
MTEXTEND
  0
MTEXT
  5
5AB
330
1F
100
AcDbEntity
  8
DIM
 62
     3
100
AcDbMText
 10
33.14508835636056
 20
75.89463431082899
 30
0.0
 40
1.0
 41
22.68954545454545
 71
     1
 72
     5
  1
WIND-LOCK TYPE FASTENER OR EQUIVALENT
  7
RomanC
 73
     1
 44
1.0
1001
ACAD
1000
MTEXTBEGIN
1070
    73
1070
     1
1070
    44
1040
1.0
1070
    74
1070
     0
1000
MTEXTEND
  0
MTEXT
  5
5AC
330
1F
100
AcDbEntity
  8
DIM
 62
     3
100
AcDbMText
 10
33.14508835636056
 20
81.57263754107029
 30
0.0
 40
1.0
 41
22.68954545454545
 71
     1
 72
     5
  1
INTERIOR GYPSUM WALLBOARD FASTEN TO TIES
  7
RomanC
 73
     1
 44
1.0
1001
ACAD
1000
MTEXTBEGIN
1070
    73
1070
     1
1070
    44
1040
1.0
1070
    74
1070
     0
1000
MTEXTEND
  0
MTEXT
  5
5AD
330
1F
100
AcDbEntity
  8
DIM
 62
     3
100
AcDbMText
 10
33.14508835636056
 20
86.86569562871577
 30
0.0
 40
1.0
 41
22.68954545454545
 71
     1
 72
     5
  1
REINFORCEMENT PER ENGINEER
  7
RomanC
 73
     1
 44
1.0
1001
ACAD
1000
MTEXTBEGIN
1070
    73
1070
     1
1070
    44
1040
1.0
1070
    74
1070
     0
1000
MTEXTEND
  0
LWPOLYLINE
  5
5AE
330
1F
100
AcDbEntity
  8
0
 48
0.15
100
AcDbPolyline
 90
        2
 70
     1
 43
0.25
 10
20.36475807542078
 20
79.96809205763961
 42
1.0
 10
20.61475807542078
 20
79.96809205763961
 42
1.0
  0
LWPOLYLINE
  5
5AF
330
1F
100
AcDbEntity
  8
0
 48
0.15
100
AcDbPolyline
 90
        2
 70
     1
 43
0.25
 10
18.8098058149138
 20
79.96809205763961
 42
1.0
 10
19.0598058149138
 20
79.96809205763961
 42
1.0
  0
LWPOLYLINE
  5
5B0
330
1F
100
AcDbEntity
  8
0
 48
0.15
100
AcDbPolyline
 90
        2
 70
     1
 43
0.25
 10
20.36475807542078
 20
73.79086912063971
 42
1.0
 10
20.61475807542078
 20
73.79086912063971
 42
1.0
  0
LWPOLYLINE
  5
5B1
330
1F
100
AcDbEntity
  8
0
 48
0.15
100
AcDbPolyline
 90
        2
 70
     1
 43
0.25
 10
18.8098058149138
 20
73.79086912063971
 42
1.0
 10
19.0598058149138
 20
73.79086912063971
 42
1.0
  0
LEADER
  5
5B2
330
1F
100
AcDbEntity
  8
DIM
 48
0.15
100
AcDbLeader
  3
ARCTEXT 1-1
 76
     3
 10
19.71041488445584
 20
71.39243295888523
 30
0.0
 10
26.79709451407993
 20
64.30575332926068
 30
0.0
 10
32.18666972090645
 20
64.30575332926068
 30
0.0
1001
ACAD
1000
DSTYLE
1002
{
1070
    40
1040
1.0
1070
    41
1040
0.5
1070
    77
1070
     0
1002
}
  0
LEADER
  5
5B3
330
1F
100
AcDbEntity
  8
DIM
 48
0.15
100
AcDbLeader
  3
ARCTEXT 1-1
 76
     3
 10
23.71041488445584
 20
71.39915556983109
 30
0.0
 10
27.73421313414596
 20
75.42295381952076
 30
0.0
 10
32.45588120657553
 20
75.42295381952076
 30
0.0
1001
ACAD
1000
DSTYLE
1002
{
1070
    40
1040
1.0
1070
    41
1040
0.5
1070
    77
1070
     0
1002
}
  0
LEADER
  5
5B4
330
1F
100
AcDbEntity
  8
DIM
 48
0.15
100
AcDbLeader
  3
ARCTEXT 1-1
 76
     2
 10
24.21041488445585
 20
81.00164402084587
 30
0.0
 10
32.38920086942594
 20
81.00164402084587
 30
0.0
1001
ACAD
1000
DSTYLE
1002
{
1070
    40
1040
1.0
1070
    41
1040
0.5
1070
    77
1070
     0
1002
}
  0
LEADER
  5
5B5
330
1F
100
AcDbEntity
  8
DIM
 48
0.15
100
AcDbLeader
  3
ARCTEXT 1-1
 76
     3
 10
18.9348058149138
 20
79.84309205763961
 30
0.0
 10
25.49903600550929
 20
86.40732224823509
 30
0.0
 10
32.18731531199805
 20
86.40732224823509
 30
0.0
1001
ACAD
1000
DSTYLE
1002
{
1070
    40
1040
1.0
1070
    41
1040
0.5
1070
    77
1070
     0
1002
}
  0
LINE
  5
5B6
330
1F
100
AcDbEntity
  8
0
 48
0.15
100
AcDbLine
 10
24.21041488445585
 20
70.14243295888568
 30
0.0
 11
20.89905349372415
 21
70.14243295888523
 31
0.0
  0
MTEXT
  5
5B7
330
1F
100
AcDbEntity
  8
DIM
 62
     3
100
AcDbMText
 10
33.14508835636056
 20
58.39025708595713
 30
0.0
 40
1.0
 41
22.68954545454545
 71
     1
 72
     5
  1
WINDOW ATTACHMENT PER MANUFACTURER
  7
RomanC
 73
     1
 44
1.0
1001
ACAD
1000
MTEXTBEGIN
1070
    73
1070
     1
1070
    44
1040
1.0
1070
    74
1070
     0
1000
MTEXTEND
  0
LEADER
  5
5B8
330
1F
100
AcDbEntity
  8
DIM
 48
0.15
100
AcDbLeader
  3
ARCTEXT 1-1
 76
     3
 10
20.50265075741513
 20
69.63988870408306
 30
0.0
 10
28.23494230538776
 20
57.78095277992938
 30
0.0
 10
32.12099655029883
 20
57.78095277992938
 30
0.0
1001
ACAD
1000
DSTYLE
1002
{
1070
    40
1040
1.0
1070
    41
1040
0.5
1070
    77
1070
     0
1002
}
  0
LEADER
  5
5B9
330
1F
100
AcDbEntity
  8
DIM
 48
0.15
100
AcDbLeader
  3
ARCTEXT 1-1
 76
     3
 10
19.082379385591
 20
62.83787443442483
 30
0.0
 10
28.17243067148078
 20
53.53968104154032
 30
0.0
 10
32.29765527464619
 20
53.53968104154032
 30
0.0
1001
ACAD
1000
DSTYLE
1002
{
1070
    40
1040
1.0
1070
    41
1040
0.5
1070
    77
1070
     0
1002
}
  0
LINE
  5
5BA
330
1F
100
AcDbEntity
  8
A5 heavy
 48
0.15
100
AcDbLine
 10
20.25265075741513
 20
69.52621406288049
 30
0.0
 11
20.75265075741512
 21
69.52621406288049
 31
0.0
  0
LINE
  5
5BB
330
1F
100
AcDbEntity
  8
A5 heavy
 48
0.15
100
AcDbLine
 10
20.50265075741513
 20
69.52621406288049
 30
0.0
 11
20.50265075741513
 21
71.70873422379767
 31
0.0
  0
ENDSEC
  0
SECTION
  2
OBJECTS
  0
DICTIONARY
  5
C
330
0
100
AcDbDictionary
281
     1
  3
ACAD_COLOR
350
73
  3
ACAD_GROUP
350
D
  3
ACAD_LAYOUT
350
1A
  3
ACAD_MATERIAL
350
72
  3
ACAD_MLINESTYLE
350
17
  3
ACAD_PLOTSETTINGS
350
19
  3
ACAD_PLOTSTYLENAME
350
E
  3
ACDBHEADERROUNDTRIPXREC
350
5C7
  3
AcDbVariableDictionary
350
66
  0
DICTIONARY
  5
A4
330
2
100
AcDbDictionary
280
     1
281
     1
  3
ACAD_LAYERSTATES
360
A5
  0
DICTIONARY
  5
73
102
{ACAD_REACTORS
330
C
102
}
330
C
100
AcDbDictionary
281
     1
  0
DICTIONARY
  5
D
102
{ACAD_REACTORS
330
C
102
}
330
C
100
AcDbDictionary
281
     1
  0
DICTIONARY
  5
1A
102
{ACAD_REACTORS
330
C
102
}
330
C
100
AcDbDictionary
281
     1
  3
Layout1
350
59
  3
Layout2
350
5E
  3
Model
350
22
  0
DICTIONARY
  5
72
102
{ACAD_REACTORS
330
C
102
}
330
C
100
AcDbDictionary
281
     1
  0
DICTIONARY
  5
17
102
{ACAD_REACTORS
330
C
102
}
330
C
100
AcDbDictionary
281
     1
  3
Standard
350
18
  0
DICTIONARY
  5
19
102
{ACAD_REACTORS
330
C
102
}
330
C
100
AcDbDictionary
281
     1
  0
ACDBDICTIONARYWDFLT
  5
E
102
{ACAD_REACTORS
330
C
102
}
330
C
100
AcDbDictionary
281
     1
  3
Normal
350
F
100
AcDbDictionaryWithDefault
340
F
  0
DICTIONARY
  5
5C7
102
{ACAD_REACTORS
330
C
102
}
330
C
100
AcDbDictionary
281
     1
  3
COLORDICT
350
5C9
  3
MATERIALDICT
350
5C8
  0
DICTIONARY
  5
66
102
{ACAD_REACTORS
330
C
102
}
330
C
100
AcDbDictionary
281
     1
  3
DIMASSOC
350
67
  3
HIDETEXT
350
6B
  3
PROJECTNAME
350
32B
  0
DICTIONARY
  5
A5
102
{ACAD_REACTORS
330
A4
102
}
330
A4
100
AcDbDictionary
281
     1
  0
LAYOUT
  5
59
102
{ACAD_XDICTIONARY
360
5CC
102
}
102
{ACAD_REACTORS
330
1A
102
}
330
1A
100
AcDbPlotSettings
  1

  2
None
  4

  6

 40
0.0
 41
0.0
 42
0.0
 43
0.0
 44
0.0
 45
0.0
 46
0.0
 47
0.0
 48
0.0
 49
0.0
140
0.0
141
0.0
142
1.0
143
1.0
 70
   688
 72
     0
 73
     0
 74
     5
  7

 75
    16
147
1.0
148
0.0
149
0.0
100
AcDbLayout
  1
Layout1
 70
     1
 71
     1
 10
0.0
 20
0.0
 11
12.0
 21
9.0
 12
0.0
 22
0.0
 32
0.0
 14
0.0
 24
0.0
 34
0.0
 15
0.0
 25
0.0
 35
0.0
146
0.0
 13
0.0
 23
0.0
 33
0.0
 16
1.0
 26
0.0
 36
0.0
 17
0.0
 27
1.0
 37
0.0
 76
     0
330
58
  0
LAYOUT
  5
5E
102
{ACAD_XDICTIONARY
360
5CE
102
}
102
{ACAD_REACTORS
330
1A
102
}
330
1A
100
AcDbPlotSettings
  1

  2
None
  4

  6

 40
0.0
 41
0.0
 42
0.0
 43
0.0
 44
0.0
 45
0.0
 46
0.0
 47
0.0
 48
0.0
 49
0.0
140
0.0
141
0.0
142
1.0
143
1.0
 70
   688
 72
     0
 73
     0
 74
     5
  7

 75
    16
147
1.0
148
0.0
149
0.0
100
AcDbLayout
  1
Layout2
 70
     1
 71
     2
 10
0.0
 20
0.0
 11
12.0
 21
9.0
 12
0.0
 22
0.0
 32
0.0
 14
0.0
 24
0.0
 34
0.0
 15
0.0
 25
0.0
 35
0.0
146
0.0
 13
0.0
 23
0.0
 33
0.0
 16
1.0
 26
0.0
 36
0.0
 17
0.0
 27
1.0
 37
0.0
 76
     0
330
5D
  0
LAYOUT
  5
22
102
{ACAD_XDICTIONARY
360
5CA
102
}
102
{ACAD_REACTORS
330
1A
102
}
330
1A
100
AcDbPlotSettings
  1

  2
none_device
  4
ANSI_A_(8.50_x_11.00_Inches)
  6

 40
6.349999904632568
 41
19.04999923706055
 42
6.350006103515625
 43
19.04998779296875
 44
215.8999938964844
 45
279.3999938964844
 46
0.0
 47
0.0
 48
0.0
 49
0.0
140
0.0
141
0.0
142
1.0
143
2.584895464708373
 70
 11952
 72
     0
 73
     1
 74
     0
  7

 75
     0
147
0.3868628397755418
148
0.0
149
0.0
100
AcDbLayout
  1
Model
 70
     1
 71
     0
 10
0.0
 20
0.0
 11
12.0
 21
9.0
 12
0.0
 22
0.0
 32
0.0
 14
0.0
 24
0.0
 34
0.0
 15
0.0
 25
0.0
 35
0.0
146
0.0
 13
0.0
 23
0.0
 33
0.0
 16
1.0
 26
0.0
 36
0.0
 17
0.0
 27
1.0
 37
0.0
 76
     0
330
1F
  0
MLINESTYLE
  5
18
102
{ACAD_REACTORS
330
17
102
}
330
17
100
AcDbMlineStyle
  2
STANDARD
 70
     0
  3

 62
   256
 51
90.0
 52
90.0
 71
     2
 49
0.5
 62
   256
  6
BYLAYER
 49
-0.5
 62
   256
  6
BYLAYER
  0
ACDBPLACEHOLDER
  5
F
102
{ACAD_REACTORS
330
E
102
}
330
E
  0
XRECORD
  5
5C9
102
{ACAD_REACTORS
330
5C7
102
}
330
5C7
100
AcDbXrecord
280
     1
340
73
  0
XRECORD
  5
5C8
102
{ACAD_REACTORS
330
5C7
102
}
330
5C7
100
AcDbXrecord
280
     1
340
72
  0
DICTIONARYVAR
  5
67
102
{ACAD_REACTORS
330
66
102
}
330
66
100
DictionaryVariables
280
     0
  1
2
  0
DICTIONARYVAR
  5
6B
102
{ACAD_REACTORS
330
66
102
}
330
66
100
DictionaryVariables
280
     0
  1
1
  0
DICTIONARYVAR
  5
32B
102
{ACAD_REACTORS
330
66
102
}
330
66
100
DictionaryVariables
280
     0
  1

  0
DICTIONARY
  5
5CC
330
59
100
AcDbDictionary
280
     1
281
     1
  3
ACAD_XREC_ROUNDTRIP
360
5CD
  0
DICTIONARY
  5
5CE
330
5E
100
AcDbDictionary
280
     1
281
     1
  3
ACAD_XREC_ROUNDTRIP
360
5CF
  0
DICTIONARY
  5
5CA
330
22
100
AcDbDictionary
280
     1
281
     1
  3
ACAD_XREC_ROUNDTRIP
360
5CB
  0
XRECORD
  5
5CD
102
{ACAD_REACTORS
330
5CC
102
}
330
5CC
100
AcDbXrecord
280
     1
102
SHADEPLOT
 70
     0
102
SHADEPLOTRESLEVEL
 70
     2
102
SHADEPLOTCUSTOMDPI
 70
   300
  0
XRECORD
  5
5CF
102
{ACAD_REACTORS
330
5CE
102
}
330
5CE
100
AcDbXrecord
280
     1
102
SHADEPLOT
 70
     0
102
SHADEPLOTRESLEVEL
 70
     2
102
SHADEPLOTCUSTOMDPI
 70
   300
  0
XRECORD
  5
5CB
102
{ACAD_REACTORS
330
5CA
102
}
330
5CA
100
AcDbXrecord
280
     1
102
SHADEPLOT
 70
     0
102
SHADEPLOTRESLEVEL
 70
     2
102
SHADEPLOTCUSTOMDPI
 70
   300
  0
ENDSEC
  0
EOF
