  0
SECTION
  2
HEADER
  9
$ACADVER
  1
AC1015
  9
$ACADMAINTVER
 70
    20
  9
$DWGCODEPAGE
  3
ANSI_1252
  9
$INSBASE
 10
0.0
 20
0.0
 30
0.0
  9
$EXTMIN
 10
-149.8301932592469
 20
260.2562789114778
 30
-0.0000000349181948
  9
$EXTMAX
 10
-69.98743146720523
 20
345.4269674696487
 30
0.0000000814935746
  9
$LIMMIN
 10
0.0
 20
0.0
  9
$LIMMAX
 10
12.0
 20
9.0
  9
$ORTHOMODE
 70
     0
  9
$REGENMODE
 70
     1
  9
$FILLMODE
 70
     1
  9
$QTEXTMODE
 70
     0
  9
$MIRRTEXT
 70
     0
  9
$LTSCALE
 40
1.0
  9
$ATTMODE
 70
     1
  9
$TEXTSIZE
 40
0.2
  9
$TRACEWID
 40
0.05
  9
$TEXTSTYLE
  7
Standard
  9
$CLAYER
  8
0
  9
$CELTYPE
  6
ByLayer
  9
$CECOLOR
 62
   256
  9
$CELTSCALE
 40
1.0
  9
$DISPSILH
 70
     0
  9
$DIMSCALE
 40
1.0
  9
$DIMASZ
 40
0.18
  9
$DIMEXO
 40
0.0625
  9
$DIMDLI
 40
0.38
  9
$DIMRND
 40
0.0
  9
$DIMDLE
 40
0.0
  9
$DIMEXE
 40
0.18
  9
$DIMTP
 40
0.0
  9
$DIMTM
 40
0.0
  9
$DIMTXT
 40
0.18
  9
$DIMCEN
 40
0.09
  9
$DIMTSZ
 40
0.0
  9
$DIMTOL
 70
     0
  9
$DIMLIM
 70
     0
  9
$DIMTIH
 70
     1
  9
$DIMTOH
 70
     1
  9
$DIMSE1
 70
     0
  9
$DIMSE2
 70
     0
  9
$DIMTAD
 70
     0
  9
$DIMZIN
 70
     0
  9
$DIMBLK
  1

  9
$DIMASO
 70
     1
  9
$DIMSHO
 70
     1
  9
$DIMPOST
  1

  9
$DIMAPOST
  1

  9
$DIMALT
 70
     0
  9
$DIMALTD
 70
     2
  9
$DIMALTF
 40
25.4
  9
$DIMLFAC
 40
1.0
  9
$DIMTOFL
 70
     0
  9
$DIMTVP
 40
0.0
  9
$DIMTIX
 70
     0
  9
$DIMSOXD
 70
     0
  9
$DIMSAH
 70
     0
  9
$DIMBLK1
  1

  9
$DIMBLK2
  1

  9
$DIMSTYLE
  2
Standard
  9
$DIMCLRD
 70
     0
  9
$DIMCLRE
 70
     0
  9
$DIMCLRT
 70
     0
  9
$DIMTFAC
 40
1.0
  9
$DIMGAP
 40
0.09
  9
$DIMJUST
 70
     0
  9
$DIMSD1
 70
     0
  9
$DIMSD2
 70
     0
  9
$DIMTOLJ
 70
     1
  9
$DIMTZIN
 70
     0
  9
$DIMALTZ
 70
     0
  9
$DIMALTTZ
 70
     0
  9
$DIMUPT
 70
     0
  9
$DIMDEC
 70
     4
  9
$DIMTDEC
 70
     4
  9
$DIMALTU
 70
     2
  9
$DIMALTTD
 70
     2
  9
$DIMTXSTY
  7
Standard
  9
$DIMAUNIT
 70
     0
  9
$DIMADEC
 70
     0
  9
$DIMALTRND
 40
0.0
  9
$DIMAZIN
 70
     0
  9
$DIMDSEP
 70
    46
  9
$DIMATFIT
 70
     3
  9
$DIMFRAC
 70
     0
  9
$DIMLDRBLK
  1

  9
$DIMLUNIT
 70
     2
  9
$DIMLWD
 70
    -2
  9
$DIMLWE
 70
    -2
  9
$DIMTMOVE
 70
     0
  9
$LUNITS
 70
     2
  9
$LUPREC
 70
     4
  9
$SKETCHINC
 40
0.1
  9
$FILLETRAD
 40
0.0
  9
$AUNITS
 70
     0
  9
$AUPREC
 70
     0
  9
$MENU
  1
.
  9
$ELEVATION
 40
0.0
  9
$PELEVATION
 40
0.0
  9
$THICKNESS
 40
0.0
  9
$LIMCHECK
 70
     0
  9
$CHAMFERA
 40
0.0
  9
$CHAMFERB
 40
0.0
  9
$CHAMFERC
 40
0.0
  9
$CHAMFERD
 40
0.0
  9
$SKPOLY
 70
     0
  9
$TDCREATE
 40
2454861.564484954
  9
$TDUCREATE
 40
2454861.856151620
  9
$TDUPDATE
 40
2454861.580351887
  9
$TDUUPDATE
 40
2454861.872018553
  9
$TDINDWG
 40
0.0158715741
  9
$TDUSRTIMER
 40
0.0158694792
  9
$USRTIMER
 70
     1
  9
$ANGBASE
 50
0.0
  9
$ANGDIR
 70
     0
  9
$PDMODE
 70
     0
  9
$PDSIZE
 40
0.0
  9
$PLINEWID
 40
0.0
  9
$SPLFRAME
 70
     0
  9
$SPLINETYPE
 70
     6
  9
$SPLINESEGS
 70
     8
  9
$HANDSEED
  5
A9B3
  9
$SURFTAB1
 70
     6
  9
$SURFTAB2
 70
     6
  9
$SURFTYPE
 70
     6
  9
$SURFU
 70
     6
  9
$SURFV
 70
     6
  9
$UCSBASE
  2

  9
$UCSNAME
  2

  9
$UCSORG
 10
0.0
 20
0.0
 30
0.0
  9
$UCSXDIR
 10
1.0
 20
0.0
 30
0.0
  9
$UCSYDIR
 10
0.0
 20
1.0
 30
0.0
  9
$UCSORTHOREF
  2

  9
$UCSORTHOVIEW
 70
     0
  9
$UCSORGTOP
 10
0.0
 20
0.0
 30
0.0
  9
$UCSORGBOTTOM
 10
0.0
 20
0.0
 30
0.0
  9
$UCSORGLEFT
 10
0.0
 20
0.0
 30
0.0
  9
$UCSORGRIGHT
 10
0.0
 20
0.0
 30
0.0
  9
$UCSORGFRONT
 10
0.0
 20
0.0
 30
0.0
  9
$UCSORGBACK
 10
0.0
 20
0.0
 30
0.0
  9
$PUCSBASE
  2

  9
$PUCSNAME
  2

  9
$PUCSORG
 10
0.0
 20
0.0
 30
0.0
  9
$PUCSXDIR
 10
1.0
 20
0.0
 30
0.0
  9
$PUCSYDIR
 10
0.0
 20
1.0
 30
0.0
  9
$PUCSORTHOREF
  2

  9
$PUCSORTHOVIEW
 70
     0
  9
$PUCSORGTOP
 10
0.0
 20
0.0
 30
0.0
  9
$PUCSORGBOTTOM
 10
0.0
 20
0.0
 30
0.0
  9
$PUCSORGLEFT
 10
0.0
 20
0.0
 30
0.0
  9
$PUCSORGRIGHT
 10
0.0
 20
0.0
 30
0.0
  9
$PUCSORGFRONT
 10
0.0
 20
0.0
 30
0.0
  9
$PUCSORGBACK
 10
0.0
 20
0.0
 30
0.0
  9
$USERI1
 70
     0
  9
$USERI2
 70
     0
  9
$USERI3
 70
     0
  9
$USERI4
 70
     0
  9
$USERI5
 70
     0
  9
$USERR1
 40
0.0
  9
$USERR2
 40
0.0
  9
$USERR3
 40
0.0
  9
$USERR4
 40
0.0
  9
$USERR5
 40
0.0
  9
$WORLDVIEW
 70
     1
  9
$SHADEDGE
 70
     3
  9
$SHADEDIF
 70
    70
  9
$TILEMODE
 70
     1
  9
$MAXACTVP
 70
    64
  9
$PINSBASE
 10
0.0
 20
0.0
 30
0.0
  9
$PLIMCHECK
 70
     0
  9
$PEXTMIN
 10
0.0
 20
0.0
 30
0.0
  9
$PEXTMAX
 10
0.0
 20
0.0
 30
0.0
  9
$PLIMMIN
 10
0.0
 20
0.0
  9
$PLIMMAX
 10
12.0
 20
9.0
  9
$UNITMODE
 70
     0
  9
$VISRETAIN
 70
     1
  9
$PLINEGEN
 70
     0
  9
$PSLTSCALE
 70
     1
  9
$TREEDEPTH
 70
  3020
  9
$CMLSTYLE
  2
Standard
  9
$CMLJUST
 70
     0
  9
$CMLSCALE
 40
1.0
  9
$PROXYGRAPHICS
 70
     1
  9
$MEASUREMENT
 70
     0
  9
$CELWEIGHT
370
    -1
  9
$ENDCAPS
280
     0
  9
$JOINSTYLE
280
     0
  9
$LWDISPLAY
290
     0
  9
$INSUNITS
 70
     1
  9
$HYPERLINKBASE
  1

  9
$STYLESHEET
  1

  9
$XEDIT
290
     1
  9
$CEPSNTYPE
380
     0
  9
$PSTYLEMODE
290
     1
  9
$FINGERPRINTGUID
  2
{FDEAD576-A652-11D2-9A35-0060089B3A3F}
  9
$VERSIONGUID
  2
{B2F90E8A-3AF3-451C-8B06-71D3EE88F029}
  9
$EXTNAMES
290
     1
  9
$PSVPSCALE
 40
0.0
  9
$OLESTARTUP
290
     0
  0
ENDSEC
  0
SECTION
  2
CLASSES
  0
CLASS
  1
ACDBDICTIONARYWDFLT
  2
AcDbDictionaryWithDefault
  3
ObjectDBX Classes
 90
        0
280
     0
281
     0
  0
CLASS
  1
ACDBPLACEHOLDER
  2
AcDbPlaceHolder
  3
ObjectDBX Classes
 90
        0
280
     0
281
     0
  0
CLASS
  1
LAYOUT
  2
AcDbLayout
  3
ObjectDBX Classes
 90
        0
280
     0
281
     0
  0
CLASS
  1
DICTIONARYVAR
  2
AcDbDictionaryVar
  3
ObjectDBX Classes
 90
        0
280
     0
281
     0
  0
CLASS
  1
SORTENTSTABLE
  2
AcDbSortentsTable
  3
ObjectDBX Classes
 90
        0
280
     0
281
     0
  0
ENDSEC
  0
SECTION
  2
TABLES
  0
TABLE
  2
VPORT
  5
8
330
0
100
AcDbSymbolTable
 70
    44
  0
VPORT
  5
A9A9
330
8
100
AcDbSymbolTableRecord
100
AcDbViewportTableRecord
  2
*Active
 70
     0
 10
0.0
 20
0.0
 11
1.0
 21
1.0
 12
-109.908812363226
 22
302.8416231905633
 13
0.0
 23
0.0
 14
0.5
 24
0.5
 15
0.5
 25
0.5
 16
0.0
 26
0.0
 36
1.0
 17
0.0
 27
0.0
 37
0.0
 40
85.78563937808553
 41
1.48433734939759
 42
50.0
 43
0.0
 44
0.0
 50
0.0
 51
0.0
 71
     0
 72
  1000
 73
     1
 74
     3
 75
     0
 76
     0
 77
     0
 78
     0
281
     0
 65
     1
110
0.0
120
0.0
130
0.0
111
1.0
121
0.0
131
0.0
112
0.0
122
1.0
132
0.0
 79
     0
146
0.0
  0
ENDTAB
  0
TABLE
  2
LTYPE
  5
5
330
0
100
AcDbSymbolTable
 70
     6
  0
LTYPE
  5
14
330
5
100
AcDbSymbolTableRecord
100
AcDbLinetypeTableRecord
  2
ByBlock
 70
     0
  3

 72
    65
 73
     0
 40
0.0
  0
LTYPE
  5
15
330
5
100
AcDbSymbolTableRecord
100
AcDbLinetypeTableRecord
  2
ByLayer
 70
     0
  3

 72
    65
 73
     0
 40
0.0
  0
LTYPE
  5
16
330
5
100
AcDbSymbolTableRecord
100
AcDbLinetypeTableRecord
  2
Continuous
 70
     0
  3
Solid line
 72
    65
 73
     0
 40
0.0
  0
LTYPE
  5
96
330
5
100
AcDbSymbolTableRecord
100
AcDbLinetypeTableRecord
  2
HIDDEN2
 70
     0
  3
Hidden (.5x) _ _ _ _ _ _ _ _ _ _ _ _ _ _ _ _ _
 72
    65
 73
     2
 40
0.1875
 49
0.125
 74
     0
 49
-0.0625
 74
     0
  0
LTYPE
  5
97
330
5
100
AcDbSymbolTableRecord
100
AcDbLinetypeTableRecord
  2
DASHED
 70
     0
  3
Dashed __ __ __ __ __ __ __ __ __ __ __ __ __ _
 72
    65
 73
     2
 40
0.75
 49
0.5
 74
     0
 49
-0.25
 74
     0
  0
LTYPE
  5
98
330
5
100
AcDbSymbolTableRecord
100
AcDbLinetypeTableRecord
  2
CENTER
 70
     0
  3
Center ____ _ ____ _ ____ _ ____ _ ____ _ ____
 72
    65
 73
     4
 40
2.0
 49
1.25
 74
     0
 49
-0.25
 74
     0
 49
0.25
 74
     0
 49
-0.25
 74
     0
  0
LTYPE
  5
99
330
5
100
AcDbSymbolTableRecord
100
AcDbLinetypeTableRecord
  2
DASHED2
 70
     0
  3
_ _ _ _ _ _ _ _ _ _ _ _ _ _ _ _ _ _ _ _ _ _ _ _
 72
    65
 73
     2
 40
0.375
 49
0.25
 74
     0
 49
-0.125
 74
     0
  0
LTYPE
  5
9A
330
5
100
AcDbSymbolTableRecord
100
AcDbLinetypeTableRecord
  2
HIDDEN
 70
     0
  3
Hidden __ __ __ __ __ __ __ __ __ __ __ __ __ _
 72
    65
 73
     2
 40
0.375
 49
0.25
 74
     0
 49
-0.125
 74
     0
  0
ENDTAB
  0
TABLE
  2
LAYER
  5
2
102
{ACAD_XDICTIONARY
360
A9
102
}
330
0
100
AcDbSymbolTable
 70
    10
  0
LAYER
  5
10
330
2
100
AcDbSymbolTableRecord
100
AcDbLayerTableRecord
  2
0
 70
     0
 62
     7
  6
Continuous
370
    -3
390
F
  0
LAYER
  5
9B
330
2
100
AcDbSymbolTableRecord
100
AcDbLayerTableRecord
  2
DIM
 70
     0
 62
     3
  6
Continuous
370
    13
390
F
  0
LAYER
  5
9C
330
2
100
AcDbSymbolTableRecord
100
AcDbLayerTableRecord
  2
Defpoints
 70
     0
 62
   252
  6
Continuous
290
     0
370
    -3
390
F
  0
LAYER
  5
9D
330
2
100
AcDbSymbolTableRecord
100
AcDbLayerTableRecord
  2
A2 Hatch
 70
     0
 62
     8
  6
Continuous
370
     9
390
F
  0
LAYER
  5
9E
330
2
100
AcDbSymbolTableRecord
100
AcDbLayerTableRecord
  2
DETAILS
 70
     0
 62
     7
  6
Continuous
370
    13
390
F
  0
LAYER
  5
9F
330
2
100
AcDbSymbolTableRecord
100
AcDbLayerTableRecord
  2
A4 medium
 70
     0
 62
     7
  6
Continuous
370
    35
390
F
  0
LAYER
  5
A0
330
2
100
AcDbSymbolTableRecord
100
AcDbLayerTableRecord
  2
REBAR
 70
     0
 62
     2
  6
CENTER
370
    30
390
F
  0
LAYER
  5
28AC
330
2
100
AcDbSymbolTableRecord
100
AcDbLayerTableRecord
  2
A5 heavy
 70
     0
 62
     5
  6
Continuous
370
    53
390
F
  0
LAYER
  5
2FC3
330
2
100
AcDbSymbolTableRecord
100
AcDbLayerTableRecord
  2
GRADE
 70
     0
 62
     5
  6
Continuous
370
   100
390
F
  0
LAYER
  5
51AE
330
2
100
AcDbSymbolTableRecord
100
AcDbLayerTableRecord
  2
HANGERS
 70
     0
 62
   253
  6
Continuous
370
    -3
390
F
  0
ENDTAB
  0
TABLE
  2
STYLE
  5
3
330
0
100
AcDbSymbolTable
 70
     5
  0
STYLE
  5
11
330
3
100
AcDbSymbolTableRecord
100
AcDbTextStyleTableRecord
  2
Standard
 70
     0
 40
0.0
 41
1.0
 50
0.0
 71
     0
 42
0.2
  3
txt
  4

  0
STYLE
  5
A1
330
3
100
AcDbSymbolTableRecord
100
AcDbTextStyleTableRecord
  2
ARCHITXT
 70
     0
 40
0.0
 41
1.25
 50
0.0
 71
     0
 42
1.0
  3
ARCHITXT.shx
  4

  0
STYLE
  5
A2
330
3
100
AcDbSymbolTableRecord
100
AcDbTextStyleTableRecord
  2
ARCTEXT
 70
     0
 40
0.0
 41
0.85
 50
0.0
 71
     0
 42
5.096770384644268
  3
arctext.shx
  4

  0
STYLE
  5
A3
330
3
100
AcDbSymbolTableRecord
100
AcDbTextStyleTableRecord
  2
ROMAND
 70
     0
 40
0.0
 41
0.85
 50
0.0
 71
     0
 42
6.0
  3
romand.shx
  4

  0
STYLE
  5
A4
330
3
100
AcDbSymbolTableRecord
100
AcDbTextStyleTableRecord
  2
RomanC
 70
     0
 40
5.0
 41
0.85
 50
0.0
 71
     0
 42
10.0
  3
romanc.shx
  4

  0
ENDTAB
  0
TABLE
  2
VIEW
  5
6
330
0
100
AcDbSymbolTable
 70
     0
  0
ENDTAB
  0
TABLE
  2
UCS
  5
7
330
0
100
AcDbSymbolTable
 70
     0
  0
ENDTAB
  0
TABLE
  2
APPID
  5
9
330
0
100
AcDbSymbolTable
 70
     1
  0
APPID
  5
12
330
9
100
AcDbSymbolTableRecord
100
AcDbRegAppTableRecord
  2
ACAD
 70
     0
  0
ENDTAB
  0
TABLE
  2
DIMSTYLE
  5
A
330
0
100
AcDbSymbolTable
 70
     5
100
AcDbDimStyleTable
 71
     0
  0
DIMSTYLE
105
27
330
A
100
AcDbSymbolTableRecord
100
AcDbDimStyleTableRecord
  2
Standard
 70
     0
340
11
  0
DIMSTYLE
105
A5
330
A
100
AcDbSymbolTableRecord
100
AcDbDimStyleTableRecord
  2
Copy of ROMANS
 70
     0
 41
0.75
 42
0.125
 43
0.125
 44
0.125
 73
     0
 74
     0
 77
     1
 78
     3
140
1.0
141
6.0
147
0.25
172
     1
175
     1
176
     2
177
     2
178
     2
271
     3
272
     3
273
     4
275
     1
277
     4
279
     2
284
     3
285
     3
286
     3
340
A1
  0
DIMSTYLE
105
A6
330
A
100
AcDbSymbolTableRecord
100
AcDbDimStyleTableRecord
  2
ARCTEXT
 70
     0
 40
0.0
 41
2.0
 42
1.0
 43
0.375
 44
0.1875
 73
     0
 74
     0
140
4.0
141
2.0
147
2.0
176
     2
177
     2
178
     2
277
     4
340
A2
341
8D
342
89
  0
DIMSTYLE
105
A7
102
{ACAD_REACTORS
330
1B1
330
1B7
330
1B6
330
199
330
1F8
330
1E9
330
1E8
330
19D
330
19C
330
481
102
}
330
A
100
AcDbSymbolTableRecord
100
AcDbDimStyleTableRecord
  2
ARCTEXT1-4
 70
     0
 41
2.0
 42
2.0
 43
2.0
 44
2.0
 73
     0
 74
     0
 77
     1
 78
     3
140
4.0
141
2.0
147
2.0
172
     1
175
     1
275
     1
277
     4
279
     2
340
A2
341
8D
342
89
  0
DIMSTYLE
105
A8
330
A
100
AcDbSymbolTableRecord
100
AcDbDimStyleTableRecord
  2
ARCTEXT 1-1
 70
     0
 40
0.0
 41
1.0
 42
1.0
 43
0.375
 44
0.1875
 73
     0
 74
     0
 77
     1
 78
     3
140
1.0
141
1.0
147
0.5
176
   256
177
   256
178
   256
277
     4
279
     2
340
A2
341
8D
342
89
  0
ENDTAB
  0
TABLE
  2
BLOCK_RECORD
  5
1
330
0
100
AcDbSymbolTable
 70
    26
  0
BLOCK_RECORD
  5
1F
330
1
100
AcDbSymbolTableRecord
100
AcDbBlockTableRecord
  2
*Model_Space
340
22
  0
BLOCK_RECORD
  5
58
330
1
100
AcDbSymbolTableRecord
100
AcDbBlockTableRecord
  2
*Paper_Space
340
59
  0
BLOCK_RECORD
  5
5D
330
1
100
AcDbSymbolTableRecord
100
AcDbBlockTableRecord
  2
*Paper_Space0
340
5E
  0
BLOCK_RECORD
  5
89
330
1
100
AcDbSymbolTableRecord
100
AcDbBlockTableRecord
  2
_ArchTick
340
0
  0
BLOCK_RECORD
  5
8D
330
1
100
AcDbSymbolTableRecord
100
AcDbBlockTableRecord
  2
arrow
340
0
310
2800000020000000200000000100080000000000000400000000000000000000000000000000000000000000000080000080000000808000800000008000800080800000C0C0C000C0DCC000F0CAA6000020400000206000002080000020A0000020C0000020E00000400000004020000040400000406000004080000040A0
310
000040C0000040E00000600000006020000060400000606000006080000060A0000060C0000060E00000800000008020000080400000806000008080000080A0000080C0000080E00000A0000000A0200000A0400000A0600000A0800000A0A00000A0C00000A0E00000C0000000C0200000C0400000C0600000C0800000C0
310
A00000C0C00000C0E00000E0000000E0200000E0400000E0600000E0800000E0A00000E0C00000E0E00040000000400020004000400040006000400080004000A0004000C0004000E00040200000402020004020400040206000402080004020A0004020C0004020E000404000004040200040404000404060004040800040
310
40A0004040C0004040E00040600000406020004060400040606000406080004060A0004060C0004060E00040800000408020004080400040806000408080004080A0004080C0004080E00040A0000040A0200040A0400040A0600040A0800040A0A00040A0C00040A0E00040C0000040C0200040C0400040C0600040C08000
310
40C0A00040C0C00040C0E00040E0000040E0200040E0400040E0600040E0800040E0A00040E0C00040E0E00080000000800020008000400080006000800080008000A0008000C0008000E00080200000802020008020400080206000802080008020A0008020C0008020E00080400000804020008040400080406000804080
310
008040A0008040C0008040E00080600000806020008060400080606000806080008060A0008060C0008060E00080800000808020008080400080806000808080008080A0008080C0008080E00080A0000080A0200080A0400080A0600080A0800080A0A00080A0C00080A0E00080C0000080C0200080C0400080C0600080C0
310
800080C0A00080C0C00080C0E00080E0000080E0200080E0400080E0600080E0800080E0A00080E0C00080E0E000C0000000C0002000C0004000C0006000C0008000C000A000C000C000C000E000C0200000C0202000C0204000C0206000C0208000C020A000C020C000C020E000C0400000C0402000C0404000C0406000C0
310
408000C040A000C040C000C040E000C0600000C0602000C0604000C0606000C0608000C060A000C060C000C060E000C0800000C0802000C0804000C0806000C0808000C080A000C080C000C080E000C0A00000C0A02000C0A04000C0A06000C0A08000C0A0A000C0A0C000C0A0E000C0C00000C0C02000C0C04000C0C06000
310
C0C08000C0C0A000F0FBFF00A4A0A000808080000000FF0000FF000000FFFF00FF000000FF00FF00FFFF0000FFFFFF0000000000000000000000000000000000000000000000000000000000000000000000000000000000000000000000000000000000000000000000000000000000000000000000000000000000000000
310
0000000000000000000000000000000000000000000000000000000000000000000000000000000000000000000000000000000000000000000000000000000000000000000000000000000000000000000000000000000000000000000000000000000000000000000000000000000000000000000000FA00000000000000
310
000000000000000000000000000000000000000000000000FA00000000000000000000000000000000000000000000000000000000000000FA0000000000000000000000000000000000000000000000000000FAFA000000FA00000000000000000000000000000000000000000000000000000000FAFA00FA000000000000
310
000000000000000000000000000000000000000000000000FAF7F7000000000000000000000000000000000000000000000000000000000000F7F7F7F7F7F70000000000000000000000000000000000000000000000000000F7F7F7F7F7F7F7F7F7F700000000000000000000000000000000000000000000F7F7F7F7F7F7
310
F7F7F7F7F7F7F7F7000000000000000000000000000000000000F7F7F7F7F7F7F7F7F7F7F7F7F7F7F7F7F7F70000000000FAFA00000000000000F7F7F7F7F7F7F7F7F7F7F7F7F7F7F7F7F7F7F7F7F7FAFAFAFA00000000000000F7F7F7F7F7F7F7F7F7F7F7F7F7F7F7F7F7F70000000000000000000000000000F7F7F7F7F7
310
F7F7F7F7F7F7F7F700000000000000000000000000000000000000F7F7F7F7F7F7F7F70000000000000000000000000000000000000000000000FAF7F7F70000000000000000000000000000000000000000000000000000FAFA00FA0000000000000000000000000000000000000000000000000000FAFA000000FA000000
310
00000000000000000000000000000000000000000000000000000000FA00000000000000000000000000000000000000000000000000000000000000FA00000000000000000000000000000000000000000000000000000000000000FA00000000000000000000000000000000000000000000000000000000000000000000
310
00000000000000000000000000000000000000000000000000000000000000000000000000000000000000000000000000000000000000000000000000000000000000000000000000000000000000000000000000000000000000000000000000000000000000000000000000000000000000000000000000000000000000
310
0000000000000000000000000000000000000000000000000000000000000000000000000000000000000000000000000000000000000000
1001
ACAD
1000
DesignCenter Data
1002
{
1070
     1
1070
     1
1002
}
  0
ENDTAB
  0
ENDSEC
  0
SECTION
  2
BLOCKS
  0
BLOCK
  5
20
330
1F
100
AcDbEntity
  8
0
100
AcDbBlockBegin
  2
*Model_Space
 70
     0
 10
0.0
 20
0.0
 30
0.0
  3
*Model_Space
  1

  0
ENDBLK
  5
21
330
1F
100
AcDbEntity
  8
0
100
AcDbBlockEnd
  0
BLOCK
  5
5A
330
58
100
AcDbEntity
 67
     1
  8
0
100
AcDbBlockBegin
  2
*Paper_Space
 70
     0
 10
0.0
 20
0.0
 30
0.0
  3
*Paper_Space
  1

  0
ENDBLK
  5
5B
330
58
100
AcDbEntity
 67
     1
  8
0
100
AcDbBlockEnd
  0
BLOCK
  5
5F
330
5D
100
AcDbEntity
  8
0
100
AcDbBlockBegin
  2
*Paper_Space0
 70
     0
 10
0.0
 20
0.0
 30
0.0
  3
*Paper_Space0
  1

  0
ENDBLK
  5
60
330
5D
100
AcDbEntity
  8
0
100
AcDbBlockEnd
  0
BLOCK
  5
8A
330
89
100
AcDbEntity
  8
0
100
AcDbBlockBegin
  2
_ArchTick
 70
     0
 10
0.0
 20
0.0
 30
0.0
  3
_ArchTick
  1

  0
LWPOLYLINE
  5
8B
330
89
100
AcDbEntity
  8
0
  6
ByBlock
 62
     0
100
AcDbPolyline
 90
        2
 70
     0
 43
0.15
 10
-0.5
 20
-0.5
 10
0.5
 20
0.5
  0
ENDBLK
  5
8C
330
89
100
AcDbEntity
  8
0
100
AcDbBlockEnd
  0
BLOCK
  5
8E
330
8D
100
AcDbEntity
  8
0
100
AcDbBlockBegin
  2
arrow
 70
     0
 10
0.0
 20
0.0
 30
0.0
  3
arrow
  1

  0
HATCH
  5
8F
330
8D
100
AcDbEntity
  8
DIM
 62
   253
100
AcDbHatch
 10
0.0
 20
0.0
 30
0.0
210
0.0
220
0.0
230
1.0
  2
SOLID
 70
     1
 71
     0
 91
        1
 92
        7
 72
     0
 73
     1
 93
        3
 10
-2.0
 20
0.5
 10
-2.0
 20
-0.5
 10
0.0
 20
0.0
 97
        0
 75
     0
 76
     1
 47
0.0337394080685346
 98
        1
 10
-1.103351122172171
 20
0.05064816270351
  0
LWPOLYLINE
  5
90
330
8D
100
AcDbEntity
  8
DIM
370
    15
100
AcDbPolyline
 90
        4
 70
     0
 43
0.0
 10
0.0
 20
0.0
 10
-2.0
 20
-0.5
 10
-2.0
 20
0.5
 10
0.0
 20
0.0
  0
LWPOLYLINE
  5
91
330
8D
100
AcDbEntity
  8
DIM
370
     9
100
AcDbPolyline
 90
        2
 70
     0
 43
0.0
 10
0.3742552490839444
 20
0.0935638122700766
 10
0.0
 20
0.0
  0
LWPOLYLINE
  5
92
330
8D
100
AcDbEntity
  8
DIM
370
     9
100
AcDbPolyline
 90
        3
 70
     0
 43
0.0
 10
-2.0
 20
-0.9831764405007561
 10
-2.0
 20
-0.5
 10
-2.46875
 20
-0.6171875
  0
LWPOLYLINE
  5
93
330
8D
100
AcDbEntity
  8
DIM
370
     9
100
AcDbPolyline
 90
        3
 70
     0
 43
0.0
 10
-2.0
 20
0.9831764405007561
 10
-2.0
 20
0.5
 10
-2.46875
 20
0.6171875
  0
LWPOLYLINE
  5
94
330
8D
100
AcDbEntity
  8
DIM
370
     9
100
AcDbPolyline
 90
        2
 70
     0
 43
0.0
 10
0.3742552490839444
 20
-0.0935638122700766
 10
0.0
 20
0.0
  0
ENDBLK
  5
95
330
8D
100
AcDbEntity
  8
0
100
AcDbBlockEnd
  0
ENDSEC
  0
SECTION
  2
ENTITIES
  0
LINE
  5
A6EE
330
1F
100
AcDbEntity
  8
0
 62
     1
100
AcDbLine
 10
-119.1587774573342
 20
308.5519093699515
 30
0.0
 11
-116.5337774573342
 21
308.5519093699515
 31
0.0
  0
LINE
  5
A6EF
330
1F
100
AcDbEntity
  8
0
  6
HIDDEN
 62
     1
 48
0.02
100
AcDbLine
 10
-118.8087774573338
 20
309.0519093699515
 30
0.0
 11
-118.1837774573338
 21
309.0519093699515
 31
0.0
  0
LINE
  5
A6F0
330
1F
100
AcDbEntity
  8
0
  6
HIDDEN
 62
     1
 48
0.02
100
AcDbLine
 10
-117.1587774573342
 20
309.0519093699515
 30
0.0
 11
-117.158777457336
 21
308.5519093699515
 31
0.0
  0
LINE
  5
A6F1
330
1F
100
AcDbEntity
  8
0
  6
HIDDEN
 62
     1
 48
0.02
100
AcDbLine
 10
-118.1837774573338
 20
309.0519093699515
 30
0.0
 11
-118.1837774573338
 21
308.5519093699515
 31
0.0
  0
LINE
  5
A6F2
330
1F
100
AcDbEntity
  8
0
  6
HIDDEN
 62
     1
 48
0.02
100
AcDbLine
 10
-117.158777457336
 20
309.0519093699515
 30
0.0
 11
-116.533777457336
 21
309.0519093699515
 31
0.0
  0
LINE
  5
A6F3
330
1F
100
AcDbEntity
  8
0
 62
     1
100
AcDbLine
 10
-119.1587774573342
 20
308.5519093699515
 30
0.0
 11
-119.1587774573342
 21
296.5519093699515
 31
0.0
  0
LINE
  5
A6F4
330
1F
100
AcDbEntity
  8
0
 62
     1
100
AcDbLine
 10
-119.1587774573342
 20
308.5519093699515
 30
0.0
 11
-116.9837774573349
 21
308.5519093699515
 31
0.0
  0
LINE
  5
A6F5
330
1F
100
AcDbEntity
  8
0
 62
     1
100
AcDbLine
 10
-119.1587774573342
 20
296.5519093699515
 30
0.0
 11
-116.5337774573342
 21
296.5519093699515
 31
0.0
  0
LINE
  5
A6F6
330
1F
100
AcDbEntity
  8
0
 62
     1
100
AcDbLine
 10
-116.5337774573342
 20
309.0519093699515
 30
0.0
 11
-116.5337774573342
 21
296.5519093699515
 31
0.0
  0
LINE
  5
A6F7
330
1F
100
AcDbEntity
  8
0
 62
     1
100
AcDbLine
 10
-118.8087774573338
 20
309.0519093699515
 30
0.0
 11
-118.1837774573338
 21
309.0519093699515
 31
0.0
  0
LINE
  5
A6F8
330
1F
100
AcDbEntity
  8
0
 62
     1
100
AcDbLine
 10
-118.8087774573338
 20
309.0519093699515
 30
0.0
 11
-118.8087774573338
 21
296.5519093699515
 31
0.0
  0
LINE
  5
A6F9
330
1F
100
AcDbEntity
  8
0
 62
     1
100
AcDbLine
 10
-117.1587774573342
 20
309.0519093699515
 30
0.0
 11
-117.158777457336
 21
308.5519093699515
 31
0.0
  0
LINE
  5
A6FA
330
1F
100
AcDbEntity
  8
0
 62
     1
100
AcDbLine
 10
-118.1837774573338
 20
309.0519093699515
 30
0.0
 11
-118.1837774573338
 21
308.5519093699515
 31
0.0
  0
LINE
  5
A6FB
330
1F
100
AcDbEntity
  8
0
 62
     1
100
AcDbLine
 10
-117.158777457336
 20
309.0519093699515
 30
0.0
 11
-116.533777457336
 21
309.0519093699515
 31
0.0
  0
LINE
  5
A6FC
330
1F
100
AcDbEntity
  8
0
 62
     1
100
AcDbLine
 10
-116.7337774573349
 20
308.8019093699515
 30
0.0
 11
-116.7337774573349
 21
296.5519093699515
 31
0.0
  0
LINE
  5
A6FD
330
1F
100
AcDbEntity
  8
0
 62
     1
100
AcDbLine
 10
-116.9837774573349
 20
308.8019093699515
 30
0.0
 11
-116.9837774573349
 21
308.5519093699515
 31
0.0
  0
LINE
  5
A6FE
330
1F
100
AcDbEntity
  8
0
 62
     1
100
AcDbLine
 10
-116.9837774573349
 20
308.8019093699515
 30
0.0
 11
-116.7337774573349
 21
308.8019093699515
 31
0.0
  0
LINE
  5
A6FF
330
1F
100
AcDbEntity
  8
0
 62
     1
100
AcDbLine
 10
-116.7337774573349
 20
308.5519093699515
 30
0.0
 11
-116.533777457336
 21
308.5519093699515
 31
0.0
  0
LINE
  5
A700
330
1F
100
AcDbEntity
  8
0
 48
0.15
100
AcDbLine
 10
-118.1837774573338
 20
308.5519093699515
 30
0.0
 11
-117.1587774573342
 21
308.5519093699515
 31
0.0
  0
LINE
  5
A701
330
1F
100
AcDbEntity
  8
A2 Hatch
  6
DASHED2
 48
0.15
100
AcDbLine
 10
-118.3937774573348
 20
309.0519093699515
 30
0.0
 11
-118.3937774573348
 21
296.5519093699515
 31
0.0
  0
LINE
  5
A702
330
1F
100
AcDbEntity
  8
A2 Hatch
  6
DASHED2
 48
0.15
100
AcDbLine
 10
-116.9487774573351
 20
309.0519093699515
 30
0.0
 11
-116.9487774573351
 21
296.5519093699515
 31
0.0
  0
LINE
  5
A703
330
1F
100
AcDbEntity
  8
0
 62
     1
100
AcDbLine
 10
-118.2337774573349
 20
309.0519093699515
 30
0.0
 11
-118.2337774573349
 21
296.5519093699515
 31
0.0
  0
LINE
  5
A704
330
1F
100
AcDbEntity
  8
0
 62
     1
100
AcDbLine
 10
-117.1087774573349
 20
309.0519093699515
 30
0.0
 11
-117.1087774573349
 21
296.5519093699515
 31
0.0
  0
LINE
  5
A705
330
1F
100
AcDbEntity
  8
0
 62
     1
100
AcDbLine
 10
-117.1087774573349
 20
308.5519093699515
 30
0.0
 11
-118.2337774573349
 21
308.5519093699515
 31
0.0
  0
LINE
  5
A706
330
1F
100
AcDbEntity
  8
0
  6
HIDDEN
 62
     1
 48
0.02
100
AcDbLine
 10
-118.8087774573338
 20
297.0519093699515
 30
0.0
 11
-118.1837774573338
 21
297.0519093699515
 31
0.0
  0
LINE
  5
A707
330
1F
100
AcDbEntity
  8
0
  6
HIDDEN
 62
     1
 48
0.02
100
AcDbLine
 10
-117.1587774573342
 20
297.0519093699515
 30
0.0
 11
-117.158777457336
 21
296.5519093699515
 31
0.0
  0
LINE
  5
A708
330
1F
100
AcDbEntity
  8
0
  6
HIDDEN
 62
     1
 48
0.02
100
AcDbLine
 10
-118.1837774573338
 20
297.0519093699515
 30
0.0
 11
-118.1837774573338
 21
296.5519093699515
 31
0.0
  0
LINE
  5
A709
330
1F
100
AcDbEntity
  8
0
  6
HIDDEN
 62
     1
 48
0.02
100
AcDbLine
 10
-117.158777457336
 20
297.0519093699515
 30
0.0
 11
-116.533777457336
 21
297.0519093699515
 31
0.0
  0
LINE
  5
A70A
330
1F
100
AcDbEntity
  8
0
 62
     1
100
AcDbLine
 10
-105.9087774573342
 20
298.5519093699515
 30
0.0
 11
-105.9087774573342
 21
296.5519093699515
 31
0.0
  0
LINE
  5
A70B
330
1F
100
AcDbEntity
  8
0
 62
     1
100
AcDbLine
 10
-108.5337774573342
 20
298.5519093699515
 30
0.0
 11
-108.5337774573342
 21
296.5519093699515
 31
0.0
  0
LINE
  5
A70C
330
1F
100
AcDbEntity
  8
0
 62
     1
100
AcDbLine
 10
-108.3337774573335
 20
298.5519093699515
 30
0.0
 11
-108.3337774573335
 21
296.5519093699515
 31
0.0
  0
LINE
  5
A70D
330
1F
100
AcDbEntity
  8
0
 62
     1
100
AcDbLine
 10
-108.1187774573342
 20
298.5519093699515
 30
0.0
 11
-108.1187774573333
 21
296.5519093699515
 31
0.0
  0
LINE
  5
A70E
330
1F
100
AcDbEntity
  8
0
 62
     1
100
AcDbLine
 10
-106.6737774573336
 20
298.5519093699515
 30
0.0
 11
-106.6737774573336
 21
296.5519093699515
 31
0.0
  0
LINE
  5
A70F
330
1F
100
AcDbEntity
  8
A2 Hatch
  6
DASHED2
 48
0.15
100
AcDbLine
 10
-107.9587774573335
 20
298.5519093699515
 30
0.0
 11
-107.9587774573335
 21
296.5519093699515
 31
0.0
  0
LINE
  5
A710
330
1F
100
AcDbEntity
  8
A2 Hatch
  6
DASHED2
 48
0.15
100
AcDbLine
 10
-106.8337774573344
 20
298.5519093699515
 30
0.0
 11
-106.8337774573335
 21
296.5519093699515
 31
0.0
  0
LINE
  5
A711
330
1F
100
AcDbEntity
  8
0
 62
     1
100
AcDbLine
 10
-108.5337774573342
 20
296.5519093699515
 30
0.0
 11
-105.9087774573342
 21
296.5519093699515
 31
0.0
  0
LINE
  5
A712
330
1F
100
AcDbEntity
  8
0
  6
HIDDEN
 62
     1
 48
0.02
100
AcDbLine
 10
-106.2587774573327
 20
297.0519093699515
 30
0.0
 11
-106.2587774573327
 21
296.5519093699515
 31
0.0
  0
LINE
  5
A713
330
1F
100
AcDbEntity
  8
0
  6
HIDDEN
 62
     1
 48
0.02
100
AcDbLine
 10
-107.9087774573324
 20
297.0519093699515
 30
0.0
 11
-107.9087774573324
 21
296.5519093699515
 31
0.0
  0
LINE
  5
A714
330
1F
100
AcDbEntity
  8
0
  6
HIDDEN
 62
     1
 48
0.02
100
AcDbLine
 10
-106.8837774573327
 20
297.0519093699515
 30
0.0
 11
-106.8837774573327
 21
296.5519093699515
 31
0.0
  0
LINE
  5
A715
330
1F
100
AcDbEntity
  8
0
  6
HIDDEN
 62
     1
 48
0.02
100
AcDbLine
 10
-108.5337774573324
 20
297.0519093699515
 30
0.0
 11
-107.9087774573324
 21
297.0519093699515
 31
0.0
  0
LINE
  5
A716
330
1F
100
AcDbEntity
  8
0
  6
HIDDEN
 62
     1
 48
0.02
100
AcDbLine
 10
-106.8837774573327
 20
297.0519093699515
 30
0.0
 11
-106.2587774573327
 21
297.0519093699515
 31
0.0
  0
LINE
  5
A717
330
1F
100
AcDbEntity
  8
0
 62
     1
100
AcDbLine
 10
-119.1587774573342
 20
296.5519093699515
 30
0.0
 11
-119.1587774573342
 21
284.3399452281084
 31
0.0
  0
LINE
  5
A718
330
1F
100
AcDbEntity
  8
0
 62
     1
100
AcDbLine
 10
-119.1587774573342
 20
296.5519093699515
 30
0.0
 11
-116.9837774573349
 21
296.5519093699515
 31
0.0
  0
LINE
  5
A719
330
1F
100
AcDbEntity
  8
0
 62
     1
100
AcDbLine
 10
-116.5337774573342
 20
297.0519093699515
 30
0.0
 11
-116.5337774573342
 21
285.2301946238496
 31
0.0
  0
LINE
  5
A71A
330
1F
100
AcDbEntity
  8
0
 62
     1
100
AcDbLine
 10
-118.8087774573338
 20
297.0519093699515
 30
0.0
 11
-118.1837774573338
 21
297.0519093699515
 31
0.0
  0
LINE
  5
A71B
330
1F
100
AcDbEntity
  8
0
 62
     1
100
AcDbLine
 10
-118.8087774573338
 20
297.0519093699515
 30
0.0
 11
-118.8087774573338
 21
284.4586451475408
 31
0.0
  0
LINE
  5
A71C
330
1F
100
AcDbEntity
  8
0
 62
     1
100
AcDbLine
 10
-117.1587774573342
 20
297.0519093699515
 30
0.0
 11
-117.158777457336
 21
296.5519093699515
 31
0.0
  0
LINE
  5
A71D
330
1F
100
AcDbEntity
  8
0
 62
     1
100
AcDbLine
 10
-118.1837774573338
 20
297.0519093699515
 30
0.0
 11
-118.1837774573338
 21
296.5519093699515
 31
0.0
  0
LINE
  5
A71E
330
1F
100
AcDbEntity
  8
0
 62
     1
100
AcDbLine
 10
-117.158777457336
 20
297.0519093699515
 30
0.0
 11
-116.533777457336
 21
297.0519093699515
 31
0.0
  0
LINE
  5
A71F
330
1F
100
AcDbEntity
  8
0
 62
     1
100
AcDbLine
 10
-116.7337774573349
 20
296.8019093699515
 30
0.0
 11
-116.7337774573349
 21
285.1623660984594
 31
0.0
  0
LINE
  5
A720
330
1F
100
AcDbEntity
  8
0
 62
     1
100
AcDbLine
 10
-116.9837774573349
 20
296.8019093699515
 30
0.0
 11
-116.9837774573349
 21
296.5519093699515
 31
0.0
  0
LINE
  5
A721
330
1F
100
AcDbEntity
  8
0
 62
     1
100
AcDbLine
 10
-116.9837774573349
 20
296.8019093699515
 30
0.0
 11
-116.7337774573349
 21
296.8019093699515
 31
0.0
  0
LINE
  5
A722
330
1F
100
AcDbEntity
  8
0
 62
     1
100
AcDbLine
 10
-116.7337774573349
 20
296.5519093699515
 30
0.0
 11
-116.533777457336
 21
296.5519093699515
 31
0.0
  0
LINE
  5
A723
330
1F
100
AcDbEntity
  8
0
 48
0.15
100
AcDbLine
 10
-118.1837774573338
 20
296.5519093699515
 30
0.0
 11
-117.1587774573342
 21
296.5519093699515
 31
0.0
  0
LINE
  5
A724
330
1F
100
AcDbEntity
  8
A2 Hatch
  6
DASHED2
 48
0.15
100
AcDbLine
 10
-118.3937774573348
 20
297.0519093699515
 30
0.0
 11
-118.3937774573348
 21
284.5993893377242
 31
0.0
  0
LINE
  5
A725
330
1F
100
AcDbEntity
  8
A2 Hatch
  6
DASHED2
 48
0.15
100
AcDbLine
 10
-116.9487774573351
 20
297.0519093699515
 30
0.0
 11
-116.9487774573351
 21
285.0894504336654
 31
0.0
  0
LINE
  5
A726
330
1F
100
AcDbEntity
  8
0
 62
     1
100
AcDbLine
 10
-118.2337774573349
 20
297.0519093699515
 30
0.0
 11
-118.2337774573349
 21
284.6536521580362
 31
0.0
  0
LINE
  5
A727
330
1F
100
AcDbEntity
  8
0
 62
     1
100
AcDbLine
 10
-117.1087774573349
 20
297.0519093699515
 30
0.0
 11
-117.1087774573349
 21
285.0351876133538
 31
0.0
  0
LINE
  5
A728
330
1F
100
AcDbEntity
  8
0
 62
     1
100
AcDbLine
 10
-117.1087774573349
 20
296.5519093699515
 30
0.0
 11
-118.2337774573349
 21
296.5519093699515
 31
0.0
  0
LINE
  5
A729
330
1F
100
AcDbEntity
  8
0
  6
HIDDEN
 62
     1
 48
0.02
100
AcDbLine
 10
-118.8087774573338
 20
285.0519093699515
 30
0.0
 11
-118.1837774573338
 21
285.0519093699515
 31
0.0
  0
LINE
  5
A72A
330
1F
100
AcDbEntity
  8
0
  6
HIDDEN
 62
     1
 48
0.02
100
AcDbLine
 10
-117.1587774573342
 20
285.0519093699515
 30
0.0
 11
-117.1587774573342
 21
285.0182304820066
 31
0.0
  0
LINE
  5
A72B
330
1F
100
AcDbEntity
  8
0
  6
HIDDEN
 62
     1
 48
0.02
100
AcDbLine
 10
-118.1837774573338
 20
285.0519093699515
 30
0.0
 11
-118.1837774573338
 21
284.8825734312269
 31
0.0
  0
LINE
  5
A72C
330
1F
100
AcDbEntity
  8
0
  6
HIDDEN
 62
     1
 48
0.02
100
AcDbLine
 10
-117.158777457336
 20
285.0519093699515
 30
0.0
 11
-117.0594714861324
 21
285.0519093699515
 31
0.0
  0
LINE
  5
A72D
330
1F
100
AcDbEntity
  8
0
 62
     1
100
AcDbLine
 10
-105.9087774573342
 20
296.5519093699515
 30
0.0
 11
-105.9087774573342
 21
288.65344920266
 31
0.0
  0
LINE
  5
A72E
330
1F
100
AcDbEntity
  8
0
 62
     1
100
AcDbLine
 10
-108.5337774573342
 20
297.0519093699515
 30
0.0
 11
-108.5337774573342
 21
287.8399255419919
 31
0.0
  0
LINE
  5
A72F
330
1F
100
AcDbEntity
  8
0
 62
     1
100
AcDbLine
 10
-106.2587774573346
 20
297.0519093699515
 30
0.0
 11
-106.2587774573346
 21
296.5519093699515
 31
0.0
  0
LINE
  5
A730
330
1F
100
AcDbEntity
  8
0
 62
     1
100
AcDbLine
 10
-107.9087774573342
 20
297.0519093699515
 30
0.0
 11
-107.9087774573342
 21
296.5519093699515
 31
0.0
  0
LINE
  5
A731
330
1F
100
AcDbEntity
  8
0
 62
     1
100
AcDbLine
 10
-106.8837774573346
 20
297.0519093699515
 30
0.0
 11
-106.8837774573346
 21
296.5519093699515
 31
0.0
  0
LINE
  5
A732
330
1F
100
AcDbEntity
  8
0
 62
     1
100
AcDbLine
 10
-108.5337774573342
 20
297.0519093699515
 30
0.0
 11
-107.9087774573342
 21
297.0519093699515
 31
0.0
  0
LINE
  5
A733
330
1F
100
AcDbEntity
  8
0
 62
     1
100
AcDbLine
 10
-106.8837774573346
 20
297.0519093699515
 30
0.0
 11
-106.2587774573346
 21
297.0519093699515
 31
0.0
  0
LINE
  5
A734
330
1F
100
AcDbEntity
  8
0
 62
     1
100
AcDbLine
 10
-108.3337774573335
 20
296.8019093699515
 30
0.0
 11
-108.3337774573335
 21
287.9019082970905
 31
0.0
  0
LINE
  5
A735
330
1F
100
AcDbEntity
  8
0
 62
     1
100
AcDbLine
 10
-108.0837774573335
 20
296.8019093699515
 30
0.0
 11
-108.0837774573335
 21
296.5519093699515
 31
0.0
  0
LINE
  5
A736
330
1F
100
AcDbEntity
  8
0
 62
     1
100
AcDbLine
 10
-108.3337774573335
 20
296.8019093699515
 30
0.0
 11
-108.0837774573335
 21
296.8019093699515
 31
0.0
  0
LINE
  5
A737
330
1F
100
AcDbEntity
  8
0
 62
     1
100
AcDbLine
 10
-108.1187774573333
 20
296.5519093699515
 30
0.0
 11
-105.9087774573342
 21
296.5519093699515
 31
0.0
  0
LINE
  5
A738
330
1F
100
AcDbEntity
  8
0
 62
     1
100
AcDbLine
 10
-108.1187774573333
 20
296.5519093699515
 30
0.0
 11
-108.1187774573333
 21
287.9685397588216
 31
0.0
  0
LINE
  5
A739
330
1F
100
AcDbEntity
  8
0
 62
     1
100
AcDbLine
 10
-106.6737774573336
 20
296.5519093699515
 30
0.0
 11
-106.6737774573336
 21
288.4163651644082
 31
0.0
  0
LINE
  5
A73A
330
1F
100
AcDbEntity
  8
A2 Hatch
  6
DASHED2
 48
0.15
100
AcDbLine
 10
-107.9587774573335
 20
296.5519093699515
 30
0.0
 11
-107.9587774573335
 21
288.0181259629004
 31
0.0
  0
LINE
  5
A73B
330
1F
100
AcDbEntity
  8
A2 Hatch
  6
DASHED2
 48
0.15
100
AcDbLine
 10
-106.8337774573335
 20
296.5519093699515
 30
0.0
 11
-106.8337774573335
 21
288.3667789603293
 31
0.0
  0
LINE
  5
A73C
330
1F
100
AcDbEntity
  8
0
 62
     1
100
AcDbLine
 10
-108.5337774573342
 20
296.5519093699515
 30
0.0
 11
-108.3337774573335
 21
296.5519093699515
 31
0.0
  0
LWPOLYLINE
  5
A73D
330
1F
100
AcDbEntity
  8
DETAILS
 62
     6
370
    20
100
AcDbPolyline
 90
        2
 70
     1
 43
0.0
 10
-112.1855306949671
 20
287.7019093699516
 10
-112.2036999935932
 20
287.7019093699516
  0
LWPOLYLINE
  5
A73E
330
1F
100
AcDbEntity
  8
DETAILS
 62
     6
370
    20
100
AcDbPolyline
 90
        6
 70
     0
 43
0.0
 10
-108.7913399552369
 20
287.7601033758416
 10
-108.9038566274663
 20
287.8726200480702
 42
0.1989123673782988
 10
-108.9745673055856
 20
287.9019093699514
 10
-112.5337774573342
 20
287.9019093699514
 42
-0.2793220653060733
 10
-112.2480202293624
 20
287.7287638152727
 42
0.279322065306064
 10
-112.2036999935932
 20
287.7019093699511
  0
LWPOLYLINE
  5
A73F
330
1F
100
AcDbEntity
  8
DETAILS
 62
     6
370
    20
100
AcDbPolyline
 90
        2
 70
     1
 43
0.0
 10
-112.0855306949667
 20
287.7019093699516
 10
-110.6855306949671
 20
287.7019093699516
  0
LWPOLYLINE
  5
A740
330
1F
100
AcDbEntity
  8
DETAILS
 62
     6
370
    20
100
AcDbPolyline
 90
        4
 70
     0
 43
0.0
 10
-112.0855306949685
 20
287.9019093699514
 10
-112.0855306949667
 20
287.0719093699515
 42
0.4142135623730951
 10
-111.8855306949678
 20
286.8719093699512
 10
-111.6929977509587
 20
286.8719093699512
  0
LWPOLYLINE
  5
A741
330
1F
100
AcDbEntity
  8
DETAILS
 62
     6
370
    20
100
AcDbPolyline
 90
        3
 70
     0
 43
0.0
 10
-112.1855306949671
 20
287.9019093699514
 10
-112.1855306949671
 20
287.0719093699515
 42
0.3424145700451509
 10
-111.9600980815427
 20
286.781324262178
 42
0.3424145700451509
  0
LWPOLYLINE
  5
A742
330
1F
100
AcDbEntity
  8
DETAILS
 62
     6
370
    20
100
AcDbPolyline
 90
        2
 70
     1
 43
0.0
 10
-110.5826648916697
 20
287.7019093699516
 10
-110.5644955930435
 20
287.7019093699516
  0
LWPOLYLINE
  5
A743
330
1F
100
AcDbEntity
  8
DETAILS
 62
     6
370
    20
100
AcDbPolyline
 90
        6
 70
     0
 43
0.0
 10
-110.5644955930435
 20
287.7019093699511
 42
0.279322065306064
 10
-110.5201753563157
 20
287.7287638147715
 42
-0.6059183769079624
 10
-109.9486609013326
 20
287.7287638152727
 42
0.2793220653054726
 10
-109.9043406655652
 20
287.7019093699516
 10
-109.8111713669365
 20
287.7019093699516
 10
-109.9043406655652
 20
287.7019093699516
  0
LWPOLYLINE
  5
A744
330
1F
100
AcDbEntity
  8
DETAILS
 62
     6
370
    20
100
AcDbPolyline
 90
        5
 70
     0
 43
0.0
 10
-109.3831459493482
 20
287.9019093699514
 10
-109.2831459493479
 20
287.9019093699514
 10
-109.0331459493479
 20
287.9019093699514
 10
-109.6292224470705
 20
287.9019093699514
 10
-109.7338432401572
 20
287.4680086243976
  0
LWPOLYLINE
  5
A745
330
1F
100
AcDbEntity
  8
DETAILS
 62
     6
370
    20
100
AcDbPolyline
 90
        2
 70
     0
 43
0.0
 10
-109.7629479913573
 20
287.9019093699514
 10
-109.8783684982278
 20
287.4232182560147
  0
LWPOLYLINE
  5
A746
330
1F
100
AcDbEntity
  8
DETAILS
 62
     6
370
    20
100
AcDbPolyline
 90
        6
 70
     0
 43
0.0
 10
-115.5359435132119
 20
288.0019093699513
 10
-115.6844089653183
 20
288.0019093699513
 10
-115.7821365721935
 20
287.9798197974516
 42
0.7807764064044151
 10
-115.7821365721935
 20
287.9739989424508
 10
-115.6844089653183
 20
287.9519093699511
 10
-115.5189863818638
 20
287.9519093699511
  0
LWPOLYLINE
  5
A747
330
1F
100
AcDbEntity
  8
DETAILS
 62
     6
370
    20
100
AcDbPolyline
 90
        4
 70
     0
 43
0.0
 10
-116.5337774573342
 20
288.7512778619627
 10
-116.1636982872002
 20
288.3811986918324
 42
0.1989123673781765
 10
-116.0929876090828
 20
288.3519093699512
 10
-115.6546434326434
 20
288.3519093699512
  0
LWPOLYLINE
  5
A748
330
1F
100
AcDbEntity
  8
DETAILS
 62
     6
370
    20
100
AcDbPolyline
 90
        4
 70
     0
 43
0.0
 10
-116.5337774573342
 20
288.9512778619616
 10
-116.2808555747248
 20
288.6983559793559
 42
0.1989123673777967
 10
-115.9273021841342
 20
288.5519093699515
 10
-115.7224719580342
 20
288.5519093699515
  0
LWPOLYLINE
  5
A749
330
1F
100
AcDbEntity
  8
DETAILS
 62
     6
370
    20
100
AcDbPolyline
 90
        2
 70
     0
 43
0.0
 10
-108.9791147832426
 20
287.7019093699516
 10
-109.6774458226497
 20
287.7019093699516
  0
LWPOLYLINE
  5
A74A
330
1F
100
AcDbEntity
  8
DETAILS
 62
     6
370
    20
100
AcDbPolyline
 90
        4
 70
     0
 43
0.0
 10
-108.5337774573342
 20
288.5012778619632
 10
-108.8020799321691
 20
288.2329753871301
 42
0.4142135623745727
 10
-108.8020799321709
 20
288.0208433527734
 10
-108.6004876986405
 20
287.8192511192444
  0
LWPOLYLINE
  5
A74B
330
1F
100
AcDbEntity
  8
DETAILS
 62
     6
370
    20
100
AcDbPolyline
 90
        4
 70
     0
 43
0.0
 10
-115.6037720386018
 20
288.2019093699516
 10
-116.0344089653187
 20
288.2019093699516
 10
-116.0344089653187
 20
288.051909369951
 10
-115.5529006445592
 20
288.051909369951
  0
LWPOLYLINE
  5
A74C
330
1F
100
AcDbEntity
  8
DETAILS
 62
     6
370
    20
100
AcDbPolyline
 90
        2
 70
     1
 43
0.0
 10
-112.1855306949671
 20
293.9019093699514
 10
-112.2036999935932
 20
293.9019093699514
  0
LWPOLYLINE
  5
A74D
330
1F
100
AcDbEntity
  8
DETAILS
 62
     6
370
    20
100
AcDbPolyline
 90
        6
 70
     0
 43
0.0
 10
-112.2036999935932
 20
293.9019093699514
 42
0.279322065306064
 10
-112.2480202303228
 20
293.8750549251314
 42
-0.2793220653060733
 10
-112.5337774573342
 20
293.7019093699516
 10
-108.9745673055856
 20
293.7019093699516
 42
0.1989123673782991
 10
-108.9038566274663
 20
293.7311986918323
 10
-108.533777457336
 20
294.1012778619608
  0
LWPOLYLINE
  5
A74E
330
1F
100
AcDbEntity
  8
DETAILS
 62
     6
370
    20
100
AcDbPolyline
 90
        2
 70
     1
 43
0.0
 10
-112.0855306949667
 20
293.9019093699514
 10
-110.6855306949671
 20
293.9019093699514
  0
LWPOLYLINE
  5
A74F
330
1F
100
AcDbEntity
  8
DETAILS
 62
     6
370
    20
100
AcDbPolyline
 90
        6
 70
     0
 43
0.0
 10
-110.6373073193878
 20
293.7019093699516
 10
-110.8487378607912
 20
294.5787892600939
 42
0.3464949689054692
 10
-111.0431659346392
 20
294.7319093699513
 10
-111.8855306949678
 20
294.7319093699513
 42
0.4142135623730951
 10
-112.0855306949685
 20
294.5319093699515
 10
-112.0855306949685
 20
293.7019093699516
  0
LWPOLYLINE
  5
A750
330
1F
100
AcDbEntity
  8
DETAILS
 62
     6
370
    20
100
AcDbPolyline
 90
        6
 70
     0
 43
0.0
 10
-110.5344415160904
 20
293.7019093699516
 10
-110.7515238238681
 20
294.602229205165
 42
0.3464949689054692
 10
-111.0431659346392
 20
294.8319093699517
 10
-111.8855306949678
 20
294.8319093699517
 42
0.4142135623730951
 10
-112.1855306949671
 20
294.5319093699515
 10
-112.1855306949671
 20
293.7019093699516
  0
LWPOLYLINE
  5
A751
330
1F
100
AcDbEntity
  8
DETAILS
 62
     6
370
    20
100
AcDbPolyline
 90
        2
 70
     1
 43
0.0
 10
-110.5826648916697
 20
293.9019093699514
 10
-110.5644955930435
 20
293.9019093699514
  0
LWPOLYLINE
  5
A752
330
1F
100
AcDbEntity
  8
DETAILS
 62
     6
370
    20
100
AcDbPolyline
 90
        6
 70
     0
 43
0.0
 10
-109.9043406655652
 20
293.9019093699514
 10
-109.8111713669365
 20
293.9019093699514
 10
-109.9043406655652
 20
293.9019093699514
 42
0.2793220653054726
 10
-109.948660902293
 20
293.8750549251314
 42
-0.6059183769079625
 10
-110.5201753572743
 20
293.8750549246303
 42
0.279322065306064
 10
-110.5644955930435
 20
293.9019093699514
  0
LWPOLYLINE
  5
A753
330
1F
100
AcDbEntity
  8
DETAILS
 62
     6
370
    20
100
AcDbPolyline
 90
        7
 70
     0
 43
0.0
 10
-108.5337774573342
 20
294.7019093699516
 10
-109.6544775901217
 20
294.7019093699516
 42
0.4853378929632635
 10
-109.819741452891
 20
294.4920614633308
 10
-109.6292224470705
 20
293.7019093699516
 10
-109.0331459493479
 20
293.7019093699516
 10
-109.2831459493497
 20
293.7019093699516
 10
-109.3831459493482
 20
293.7019093699516
  0
LWPOLYLINE
  5
A754
330
1F
100
AcDbEntity
  8
DETAILS
 62
     6
370
    20
100
AcDbPolyline
 90
        4
 70
     0
 43
0.0
 10
-108.5337774573342
 20
294.8319093699512
 10
-109.6544775901217
 20
294.8319093699517
 42
0.4853378929632635
 10
-109.9461197008929
 20
294.461589534738
 10
-109.7629479913573
 20
293.7019093699516
  0
LWPOLYLINE
  5
A755
330
1F
100
AcDbEntity
  8
DETAILS
 62
     6
370
    20
100
AcDbPolyline
 90
       10
 70
     1
 43
0.0
 10
-112.5337774573342
 20
293.6519093699514
 10
-115.6844089653183
 20
293.6519093699514
 10
-115.7821365721935
 20
293.6298197974517
 42
0.7807764064044151
 10
-115.7821365721935
 20
293.6239989424509
 10
-115.6844089653183
 20
293.6019093699512
 10
-112.5337774573342
 20
293.6019093699517
 10
-109.3831459493482
 20
293.6019093699512
 10
-109.285418342473
 20
293.6239989424509
 42
0.7807764064044151
 10
-109.285418342473
 20
293.6298197974517
 10
-109.3831459493482
 20
293.6519093699514
  0
LWPOLYLINE
  5
A756
330
1F
100
AcDbEntity
  8
DETAILS
 62
     6
370
    20
100
AcDbPolyline
 90
        7
 70
     0
 43
0.0
 10
-108.533777457336
 20
292.8525408779425
 10
-108.9038566274663
 20
293.2226200480706
 42
0.1989123673781766
 10
-108.9745673055856
 20
293.2519093699513
 10
-112.5337774573342
 20
293.2519093699513
 10
-116.0929876090828
 20
293.2519093699513
 42
0.1989123673781765
 10
-116.1636982872002
 20
293.2226200480706
 10
-116.5337774573342
 20
292.8525408779398
  0
LWPOLYLINE
  5
A757
330
1F
100
AcDbEntity
  8
DETAILS
 62
     6
370
    20
100
AcDbPolyline
 90
        7
 70
     0
 43
0.0
 10
-108.5337774573342
 20
292.6525408779441
 10
-108.7866993399418
 20
292.9054627605471
 42
0.1989123673777966
 10
-109.1402527305324
 20
293.0519093699515
 10
-112.5337774573342
 20
293.0519093699515
 10
-115.9273021841342
 20
293.0519093699515
 42
0.1989123673777966
 10
-116.2808555747248
 20
292.9054627605471
 10
-116.5337774573342
 20
292.6525408779404
  0
LWPOLYLINE
  5
A758
330
1F
100
AcDbEntity
  8
DETAILS
 62
     6
370
    20
100
AcDbPolyline
 90
        4
 70
     0
 43
0.0
 10
-109.6774458226497
 20
293.9019093699514
 10
-109.1402527305342
 20
293.9019093699514
 42
0.1989123673788307
 10
-108.7866993399418
 20
294.0483559793571
 10
-108.533777457336
 20
294.3012778619624
  0
LWPOLYLINE
  5
A759
330
1F
100
AcDbEntity
  8
DETAILS
 62
     6
370
    20
100
AcDbPolyline
 90
        4
 70
     0
 43
0.0
 10
-108.533777457336
 20
293.851277861964
 10
-108.8020799321709
 20
293.5829753871291
 42
0.4142135623745727
 10
-108.8020799321691
 20
293.3708433527728
 10
-108.5337774573342
 20
293.1025408779403
  0
LWPOLYLINE
  5
A75A
330
1F
100
AcDbEntity
  8
DETAILS
 62
     6
370
    20
100
AcDbPolyline
 90
        6
 70
     1
 43
0.0
 10
-112.5337774573342
 20
293.5519093699515
 10
-109.0331459493479
 20
293.5519093699515
 10
-109.0331459493479
 20
293.4019093699514
 10
-112.5337774573342
 20
293.4019093699514
 10
-116.0344089653187
 20
293.4019093699514
 10
-116.0344089653187
 20
293.5519093699515
  0
LWPOLYLINE
  5
A75B
330
1F
100
AcDbEntity
  8
DETAILS
 62
     6
370
    20
100
AcDbPolyline
 90
        2
 70
     1
 43
0.0
 10
-112.8820242196995
 20
287.7019093699516
 10
-112.8638549210752
 20
287.7019093699516
  0
LWPOLYLINE
  5
A75C
330
1F
100
AcDbEntity
  8
DETAILS
 62
     6
370
    20
100
AcDbPolyline
 90
        4
 70
     0
 43
0.0
 10
-112.8638549210752
 20
287.7019093699511
 42
0.2793220653059341
 10
-112.8195346843456
 20
287.7287638147715
 42
-0.2793220653060734
 10
-112.5337774573342
 20
287.9019093699514
 10
-115.0541500598935
 20
287.9019093699514
  0
LWPOLYLINE
  5
A75D
330
1F
100
AcDbEntity
  8
DETAILS
 62
     6
370
    20
100
AcDbPolyline
 90
        2
 70
     1
 43
0.0
 10
-112.9820242196999
 20
287.7019093699516
 10
-114.3820242197013
 20
287.7019093699516
  0
LWPOLYLINE
  5
A75E
330
1F
100
AcDbEntity
  8
DETAILS
 62
     6
370
    20
100
AcDbPolyline
 90
        2
 70
     0
 43
0.0
 10
-114.4302475952806
 20
287.9019093699514
 10
-114.2320175780339
 20
287.0797768880913
  0
LWPOLYLINE
  5
A75F
330
1F
100
AcDbEntity
  8
DETAILS
 62
     6
370
    20
100
AcDbPolyline
 90
        2
 70
     0
 43
0.0
 10
-114.533113398578
 20
287.9019093699514
 10
-114.3675665187108
 20
287.2153258287687
  0
LWPOLYLINE
  5
A760
330
1F
100
AcDbEntity
  8
DETAILS
 62
     6
370
    20
100
AcDbPolyline
 90
        2
 70
     1
 43
0.0
 10
-114.4848900229969
 20
287.7019093699516
 10
-114.5030593216231
 20
287.7019093699516
  0
LWPOLYLINE
  5
A761
330
1F
100
AcDbEntity
  8
DETAILS
 62
     6
370
    20
100
AcDbPolyline
 90
        3
 70
     0
 43
0.0
 10
-115.0047044555246
 20
287.8524637655825
 42
-0.4378182616721314
 10
-114.5473795573922
 20
287.7287638152727
 42
0.279322065306064
 10
-114.5030593216231
 20
287.7019093699511
  0
LWPOLYLINE
  5
A762
330
1F
100
AcDbEntity
  8
DETAILS
 62
     6
370
    20
100
AcDbPolyline
 90
        4
 70
     0
 43
0.0
 10
-116.5337774573342
 20
286.9019093699514
 10
-115.4130773245467
 20
286.9019093699514
 42
0.4853378929632635
 10
-115.2478134617756
 20
287.1117572765722
 10
-115.2816555783235
 20
287.2521129283329
  0
LWPOLYLINE
  5
A763
330
1F
100
AcDbEntity
  8
DETAILS
 62
     6
370
    20
100
AcDbPolyline
 90
        3
 70
     0
 43
0.0
 10
-116.5337774573342
 20
286.7719093699513
 10
-115.4130773245467
 20
286.7719093699513
 42
0.2500863068706348
 10
-115.1638880874677
 20
286.9048622983689
 42
0.2500863068706348
  0
LWPOLYLINE
  5
A764
330
1F
100
AcDbEntity
  8
DETAILS
 62
     6
370
    20
100
AcDbPolyline
 90
        4
 70
     0
 43
0.0
 10
-115.4342007251268
 20
287.7019093699516
 10
-115.9273021841324
 20
287.7019093699516
 42
0.1989123673788306
 10
-116.2808555747248
 20
287.5554627605458
 10
-116.5337774573342
 20
287.3025408779374
  0
LWPOLYLINE
  5
A765
330
1F
100
AcDbEntity
  8
DETAILS
 62
     6
370
    20
100
AcDbPolyline
 90
        4
 70
     0
 43
0.0
 10
-116.5337774573342
 20
287.7525408779367
 10
-116.2654749824975
 20
288.0208433527734
 42
0.4142135623745727
 10
-116.2654749824975
 20
288.2329753871301
 10
-116.5337774573342
 20
288.5012778619654
  0
LWPOLYLINE
  5
A766
330
1F
100
AcDbEntity
  8
DETAILS
 62
     6
370
    20
100
AcDbPolyline
 90
        2
 70
     1
 43
0.0
 10
-112.8820242196995
 20
293.9019093699514
 10
-112.8638549210752
 20
293.9019093699514
  0
LWPOLYLINE
  5
A767
330
1F
100
AcDbEntity
  8
DETAILS
 62
     6
370
    20
100
AcDbPolyline
 90
        6
 70
     0
 43
0.0
 10
-116.5337774573342
 20
294.1012778619635
 10
-116.1636982872002
 20
293.7311986918323
 42
0.1989123673782989
 10
-116.0929876090828
 20
293.7019093699516
 10
-112.5337774573342
 20
293.7019093699511
 42
-0.2793220653060733
 10
-112.819534685306
 20
293.8750549246303
 42
0.279322065306064
 10
-112.8638549210752
 20
293.9019093699514
  0
LWPOLYLINE
  5
A768
330
1F
100
AcDbEntity
  8
DETAILS
 62
     6
370
    20
100
AcDbPolyline
 90
        2
 70
     1
 43
0.0
 10
-112.9820242196999
 20
293.9019093699514
 10
-114.3820242197013
 20
293.9019093699514
  0
LWPOLYLINE
  5
A769
330
1F
100
AcDbEntity
  8
DETAILS
 62
     6
370
    20
100
AcDbPolyline
 90
        6
 70
     0
 43
0.0
 10
-112.9820242196999
 20
293.7019093699516
 10
-112.9820242196999
 20
294.5319093699515
 42
0.4142135623730951
 10
-113.1820242197006
 20
294.7319093699513
 10
-114.0243889800274
 20
294.7319093699513
 42
0.3464949689054692
 10
-114.2188170538754
 20
294.5787892600939
 10
-114.4302475952806
 20
293.7019093699516
  0
LWPOLYLINE
  5
A76A
330
1F
100
AcDbEntity
  8
DETAILS
 62
     6
370
    20
100
AcDbPolyline
 90
        6
 70
     0
 43
0.0
 10
-112.8820242196995
 20
293.7019093699516
 10
-112.8820242196995
 20
294.5319093699515
 42
0.4142135623730951
 10
-113.1820242197006
 20
294.8319093699517
 10
-114.0243889800274
 20
294.8319093699517
 42
0.3464949689054692
 10
-114.3160310908003
 20
294.602229205165
 10
-114.533113398578
 20
293.7019093699516
  0
LWPOLYLINE
  5
A76B
330
1F
100
AcDbEntity
  8
DETAILS
 62
     6
370
    20
100
AcDbPolyline
 90
        2
 70
     1
 43
0.0
 10
-114.4848900229969
 20
293.9019093699514
 10
-114.5030593216231
 20
293.9019093699514
  0
LWPOLYLINE
  5
A76C
330
1F
100
AcDbEntity
  8
DETAILS
 62
     6
370
    20
100
AcDbPolyline
 90
        6
 70
     0
 43
0.0
 10
-114.5030593216231
 20
293.9019093699514
 42
0.279322065306064
 10
-114.5473795583527
 20
293.8750549251314
 42
-0.6059183769079624
 10
-115.118894013334
 20
293.8750549246303
 42
0.2793220653054726
 10
-115.1632142491032
 20
293.9019093699514
 10
-115.2563835477301
 20
293.9019093699514
 10
-115.1632142491032
 20
293.9019093699514
  0
LWPOLYLINE
  5
A76D
330
1F
100
AcDbEntity
  8
DETAILS
 62
     6
370
    20
100
AcDbPolyline
 90
        7
 70
     0
 43
0.0
 10
-115.6844089653183
 20
293.7019093699516
 10
-115.7844089653187
 20
293.7019093699516
 10
-116.0344089653187
 20
293.7019093699516
 10
-115.4383324675979
 20
293.7019093699516
 10
-115.2478134617756
 20
294.4920614633304
 42
0.4853378929632635
 10
-115.4130773245467
 20
294.7019093699516
 10
-116.533777457336
 20
294.7019093699516
  0
LWPOLYLINE
  5
A76E
330
1F
100
AcDbEntity
  8
DETAILS
 62
     6
370
    20
100
AcDbPolyline
 90
        4
 70
     0
 43
0.0
 10
-115.3046069233111
 20
293.7019093699516
 10
-115.1214352137737
 20
294.461589534738
 42
0.4853378929632635
 10
-115.4130773245467
 20
294.8319093699517
 10
-116.533777457336
 20
294.8319093699512
  0
LWPOLYLINE
  5
A76F
330
1F
100
AcDbEntity
  8
DETAILS
 62
     6
370
    20
100
AcDbPolyline
 90
        4
 70
     0
 43
0.0
 10
-116.5337774573342
 20
294.3012778619656
 10
-116.2808555747248
 20
294.0483559793571
 42
0.1989123673788307
 10
-115.9273021841324
 20
293.9019093699514
 10
-115.3901090920169
 20
293.9019093699514
  0
LWPOLYLINE
  5
A770
330
1F
100
AcDbEntity
  8
DETAILS
 62
     6
370
    20
100
AcDbPolyline
 90
        4
 70
     0
 43
0.0
 10
-116.5337774573342
 20
293.1025408779371
 10
-116.2654749824975
 20
293.3708433527728
 42
0.4142135623745727
 10
-116.2654749824975
 20
293.5829753871291
 10
-116.533777457336
 20
293.8512778619667
  0
LINE
  5
A771
330
1F
100
AcDbEntity
  8
0
 62
     1
100
AcDbLine
 10
-118.8087774573338
 20
285.0519093699515
 30
0.0
 11
-118.1837774573338
 21
285.0519093699515
 31
0.0
  0
LINE
  5
A772
330
1F
100
AcDbEntity
  8
0
 62
     1
100
AcDbLine
 10
-117.1587774573342
 20
285.0519093699515
 30
0.0
 11
-117.1587774573342
 21
285.0182304820066
 31
0.0
  0
LINE
  5
A773
330
1F
100
AcDbEntity
  8
0
 62
     1
100
AcDbLine
 10
-118.1837774573338
 20
285.0519093699515
 30
0.0
 11
-118.1837774573338
 21
284.6706092893839
 31
0.0
  0
LINE
  5
A774
330
1F
100
AcDbEntity
  8
0
 62
     1
100
AcDbLine
 10
-117.158777457336
 20
285.0519093699515
 30
0.0
 11
-117.0594714861324
 21
285.0519093699515
 31
0.0
  0
LINE
  5
A775
330
1F
100
AcDbEntity
  8
0
 62
     1
100
AcDbLine
 10
-119.1587774573342
 20
320.5519213404484
 30
0.0
 11
-116.5337774573342
 21
320.5519213404484
 31
0.0
  0
LINE
  5
A776
330
1F
100
AcDbEntity
  8
0
 62
     1
100
AcDbLine
 10
-116.5337774573342
 20
321.0519213404483
 30
0.0
 11
-116.5337774573342
 21
320.5519213404484
 31
0.0
  0
LINE
  5
A777
330
1F
100
AcDbEntity
  8
0
  6
HIDDEN
 62
     1
 48
0.02
100
AcDbLine
 10
-118.8087774573338
 20
321.0519213404483
 30
0.0
 11
-118.1837774573338
 21
321.0519213404483
 31
0.0
  0
LINE
  5
A778
330
1F
100
AcDbEntity
  8
0
  6
HIDDEN
 62
     1
 48
0.02
100
AcDbLine
 10
-118.8087774573338
 20
321.0519213404483
 30
0.0
 11
-118.8087774573338
 21
320.5519213404484
 31
0.0
  0
LINE
  5
A779
330
1F
100
AcDbEntity
  8
0
  6
HIDDEN
 62
     1
 48
0.02
100
AcDbLine
 10
-117.1587774573342
 20
321.0519213404483
 30
0.0
 11
-117.158777457336
 21
320.5519213404484
 31
0.0
  0
LINE
  5
A77A
330
1F
100
AcDbEntity
  8
0
  6
HIDDEN
 62
     1
 48
0.02
100
AcDbLine
 10
-118.1837774573338
 20
321.0519213404483
 30
0.0
 11
-118.1837774573338
 21
320.5519213404484
 31
0.0
  0
LINE
  5
A77B
330
1F
100
AcDbEntity
  8
0
  6
HIDDEN
 62
     1
 48
0.02
100
AcDbLine
 10
-117.158777457336
 20
321.0519213404483
 30
0.0
 11
-116.533777457336
 21
321.0519213404483
 31
0.0
  0
LINE
  5
A77C
330
1F
100
AcDbEntity
  8
A5 heavy
 48
0.15
100
AcDbLine
 10
-116.5337774573342
 20
320.5519213404484
 30
0.0
 11
-77.85532008168747
 21
320.5519213404484
 31
0.0
  0
LINE
  5
A77D
330
1F
100
AcDbEntity
  8
A4 medium
 48
0.15
100
AcDbLine
 10
-116.5337774573342
 20
301.0519093699515
 30
0.0
 11
-77.85532008168747
 21
301.0519093699515
 31
0.0
  0
LINE
  5
A77E
330
1F
100
AcDbEntity
  8
DIM
100
AcDbLine
 10
-74.95043835357108
 20
312.1379320925773
 30
0.0
 11
-80.78257027026456
 21
309.2680475467666
 31
0.0
  0
LINE
  5
A77F
330
1F
100
AcDbEntity
  8
DIM
100
AcDbLine
 10
-80.78257027026456
 20
309.2680475467666
 30
0.0
 11
-77.86813755910379
 21
309.2647379810166
 31
0.0
  0
LINE
  5
A780
330
1F
100
AcDbEntity
  8
DIM
100
AcDbLine
 10
-77.86813755910379
 20
309.2647379810166
 30
0.0
 11
-77.87746386682164
 21
301.0519093699515
 31
0.0
  0
LINE
  5
A781
330
1F
100
AcDbEntity
  8
DIM
100
AcDbLine
 10
-77.85532008168747
 20
320.5519213404484
 30
0.0
 11
-77.86487106473185
 21
312.1412416583273
 31
0.0
  0
LINE
  5
A782
330
1F
100
AcDbEntity
  8
DIM
100
AcDbLine
 10
-74.95043835357108
 20
312.1379320925773
 30
0.0
 11
-77.86487106473185
 21
312.1412416583273
 31
0.0
  0
CIRCLE
  5
A783
330
1F
100
AcDbEntity
  8
A2 Hatch
 48
0.15
100
AcDbCircle
 10
-112.5337774573342
 20
294.2440775418924
 30
0.0
 40
0.8157720410317779
  0
HATCH
  5
A784
330
1F
100
AcDbEntity
  8
A2 Hatch
 48
0.15
100
AcDbHatch
 10
0.0
 20
0.0
 30
0.0
210
0.0
220
0.0
230
1.0
  2
SOLID
 70
     1
 71
     0
 91
        1
 92
        1
 93
        1
 72
     2
 10
-112.5337774573342
 20
294.2440775418924
 40
0.2243383222039483
 50
0.0
 51
360.0
 73
     1
 97
        0
 75
     0
 76
     1
 98
        1
 10
-3353.155187667534
 20
645.6881955327316
  0
MTEXT
  5
A785
330
1F
100
AcDbEntity
  8
DIM
100
AcDbMText
 10
-110.3251297614576
 20
277.6930510251956
 30
0.0
 40
3.0
 41
69.01878031233448
 71
     2
 72
     5
  1
{\Fromanc.shx|c0;\L8" TO 6" WALL; STEEL BEAM PERPENDICULAR TO WALL }\P\P        
  7
ARCTEXT
 73
     1
 44
1.0
1001
ACAD
1000
MTEXTBEGIN
1070
    73
1070
     1
1070
    44
1040
1.0
1070
    74
1070
     0
1000
MTEXTEND
  0
LINE
  5
A786
330
1F
100
AcDbEntity
  8
0
 62
     1
100
AcDbLine
 10
-119.1587774573342
 20
320.5519213404484
 30
0.0
 11
-116.5337774573342
 21
320.5519213404484
 31
0.0
  0
LINE
  5
A787
330
1F
100
AcDbEntity
  8
0
  6
HIDDEN
 62
     1
 48
0.02
100
AcDbLine
 10
-118.8087774573338
 20
321.0519213404483
 30
0.0
 11
-118.1837774573338
 21
321.0519213404483
 31
0.0
  0
LINE
  5
A788
330
1F
100
AcDbEntity
  8
0
  6
HIDDEN
 62
     1
 48
0.02
100
AcDbLine
 10
-117.1587774573342
 20
321.0519213404483
 30
0.0
 11
-117.158777457336
 21
320.5519213404484
 31
0.0
  0
LINE
  5
A789
330
1F
100
AcDbEntity
  8
0
  6
HIDDEN
 62
     1
 48
0.02
100
AcDbLine
 10
-118.1837774573338
 20
321.0519213404483
 30
0.0
 11
-118.1837774573338
 21
320.5519213404484
 31
0.0
  0
LINE
  5
A78A
330
1F
100
AcDbEntity
  8
0
  6
HIDDEN
 62
     1
 48
0.02
100
AcDbLine
 10
-117.158777457336
 20
321.0519213404483
 30
0.0
 11
-116.533777457336
 21
321.0519213404483
 31
0.0
  0
LINE
  5
A78B
330
1F
100
AcDbEntity
  8
0
 62
     1
100
AcDbLine
 10
-119.1587774573342
 20
320.5519213404484
 30
0.0
 11
-116.9837774573349
 21
320.5519213404484
 31
0.0
  0
LINE
  5
A78C
330
1F
100
AcDbEntity
  8
0
 62
     1
100
AcDbLine
 10
-118.8087774573338
 20
321.0519213404483
 30
0.0
 11
-118.1837774573338
 21
321.0519213404483
 31
0.0
  0
LINE
  5
A78D
330
1F
100
AcDbEntity
  8
0
 62
     1
100
AcDbLine
 10
-117.1587774573342
 20
321.0519213404483
 30
0.0
 11
-117.158777457336
 21
320.5519213404484
 31
0.0
  0
LINE
  5
A78E
330
1F
100
AcDbEntity
  8
0
 62
     1
100
AcDbLine
 10
-118.1837774573338
 20
321.0519213404483
 30
0.0
 11
-118.1837774573338
 21
320.5519213404484
 31
0.0
  0
LINE
  5
A78F
330
1F
100
AcDbEntity
  8
0
 62
     1
100
AcDbLine
 10
-117.158777457336
 20
321.0519213404483
 30
0.0
 11
-116.533777457336
 21
321.0519213404483
 31
0.0
  0
LINE
  5
A790
330
1F
100
AcDbEntity
  8
0
 62
     1
100
AcDbLine
 10
-116.9837774573349
 20
320.8019213404484
 30
0.0
 11
-116.9837774573349
 21
320.5519213404484
 31
0.0
  0
LINE
  5
A791
330
1F
100
AcDbEntity
  8
0
 62
     1
100
AcDbLine
 10
-116.9837774573349
 20
320.8019213404484
 30
0.0
 11
-116.7337774573349
 21
320.8019213404484
 31
0.0
  0
LINE
  5
A792
330
1F
100
AcDbEntity
  8
0
 62
     1
100
AcDbLine
 10
-116.7337774573349
 20
320.5519213404484
 30
0.0
 11
-116.533777457336
 21
320.5519213404484
 31
0.0
  0
LINE
  5
A793
330
1F
100
AcDbEntity
  8
0
 48
0.15
100
AcDbLine
 10
-118.1837774573338
 20
320.5519213404484
 30
0.0
 11
-117.1587774573342
 21
320.5519213404484
 31
0.0
  0
LINE
  5
A794
330
1F
100
AcDbEntity
  8
0
 62
     1
100
AcDbLine
 10
-117.1087774573349
 20
320.5519213404484
 30
0.0
 11
-118.2337774573349
 21
320.5519213404484
 31
0.0
  0
LINE
  5
A795
330
1F
100
AcDbEntity
  8
0
 62
     1
100
AcDbLine
 10
-119.1587774573342
 20
320.5519213404484
 30
0.0
 11
-119.1587774573342
 21
308.5519213404483
 31
0.0
  0
LINE
  5
A796
330
1F
100
AcDbEntity
  8
0
 62
     1
100
AcDbLine
 10
-119.1587774573342
 20
320.5519213404484
 30
0.0
 11
-116.9837774573349
 21
320.5519213404484
 31
0.0
  0
LINE
  5
A797
330
1F
100
AcDbEntity
  8
0
 62
     1
100
AcDbLine
 10
-119.1587774573342
 20
308.5519213404483
 30
0.0
 11
-116.5337774573342
 21
308.5519213404483
 31
0.0
  0
LINE
  5
A798
330
1F
100
AcDbEntity
  8
0
 62
     1
100
AcDbLine
 10
-116.5337774573342
 20
321.0519213404483
 30
0.0
 11
-116.5337774573342
 21
308.5519213404483
 31
0.0
  0
LINE
  5
A799
330
1F
100
AcDbEntity
  8
0
 62
     1
100
AcDbLine
 10
-118.8087774573338
 20
321.0519213404483
 30
0.0
 11
-118.1837774573338
 21
321.0519213404483
 31
0.0
  0
LINE
  5
A79A
330
1F
100
AcDbEntity
  8
0
 62
     1
100
AcDbLine
 10
-118.8087774573338
 20
321.0519213404483
 30
0.0
 11
-118.8087774573338
 21
308.5519213404483
 31
0.0
  0
LINE
  5
A79B
330
1F
100
AcDbEntity
  8
0
 62
     1
100
AcDbLine
 10
-117.1587774573342
 20
321.0519213404483
 30
0.0
 11
-117.158777457336
 21
320.5519213404484
 31
0.0
  0
LINE
  5
A79C
330
1F
100
AcDbEntity
  8
0
 62
     1
100
AcDbLine
 10
-118.1837774573338
 20
321.0519213404483
 30
0.0
 11
-118.1837774573338
 21
320.5519213404484
 31
0.0
  0
LINE
  5
A79D
330
1F
100
AcDbEntity
  8
0
 62
     1
100
AcDbLine
 10
-117.158777457336
 20
321.0519213404483
 30
0.0
 11
-116.533777457336
 21
321.0519213404483
 31
0.0
  0
LINE
  5
A79E
330
1F
100
AcDbEntity
  8
0
 62
     1
100
AcDbLine
 10
-116.7337774573349
 20
320.8019213404484
 30
0.0
 11
-116.7337774573349
 21
308.5519213404483
 31
0.0
  0
LINE
  5
A79F
330
1F
100
AcDbEntity
  8
0
 62
     1
100
AcDbLine
 10
-116.9837774573349
 20
320.8019213404484
 30
0.0
 11
-116.9837774573349
 21
320.5519213404484
 31
0.0
  0
LINE
  5
A7A0
330
1F
100
AcDbEntity
  8
0
 62
     1
100
AcDbLine
 10
-116.9837774573349
 20
320.8019213404484
 30
0.0
 11
-116.7337774573349
 21
320.8019213404484
 31
0.0
  0
LINE
  5
A7A1
330
1F
100
AcDbEntity
  8
0
 62
     1
100
AcDbLine
 10
-116.7337774573349
 20
320.5519213404484
 30
0.0
 11
-116.533777457336
 21
320.5519213404484
 31
0.0
  0
LINE
  5
A7A2
330
1F
100
AcDbEntity
  8
0
 48
0.15
100
AcDbLine
 10
-118.1837774573338
 20
320.5519213404484
 30
0.0
 11
-117.1587774573342
 21
320.5519213404484
 31
0.0
  0
LINE
  5
A7A3
330
1F
100
AcDbEntity
  8
A2 Hatch
  6
DASHED2
 48
0.15
100
AcDbLine
 10
-118.3937774573348
 20
321.0519213404483
 30
0.0
 11
-118.3937774573348
 21
308.5519213404483
 31
0.0
  0
LINE
  5
A7A4
330
1F
100
AcDbEntity
  8
A2 Hatch
  6
DASHED2
 48
0.15
100
AcDbLine
 10
-116.9487774573351
 20
321.0519213404483
 30
0.0
 11
-116.9487774573351
 21
308.5519213404483
 31
0.0
  0
LINE
  5
A7A5
330
1F
100
AcDbEntity
  8
0
 62
     1
100
AcDbLine
 10
-118.2337774573349
 20
321.0519213404483
 30
0.0
 11
-118.2337774573349
 21
308.5519213404483
 31
0.0
  0
LINE
  5
A7A6
330
1F
100
AcDbEntity
  8
0
 62
     1
100
AcDbLine
 10
-117.1087774573349
 20
321.0519213404483
 30
0.0
 11
-117.1087774573349
 21
308.5519213404483
 31
0.0
  0
LINE
  5
A7A7
330
1F
100
AcDbEntity
  8
0
 62
     1
100
AcDbLine
 10
-117.1087774573349
 20
320.5519213404484
 30
0.0
 11
-118.2337774573349
 21
320.5519213404484
 31
0.0
  0
LINE
  5
A7A8
330
1F
100
AcDbEntity
  8
0
  6
HIDDEN
 62
     1
 48
0.02
100
AcDbLine
 10
-118.8087774573338
 20
309.0519213404484
 30
0.0
 11
-118.1837774573338
 21
309.0519213404484
 31
0.0
  0
LINE
  5
A7A9
330
1F
100
AcDbEntity
  8
0
  6
HIDDEN
 62
     1
 48
0.02
100
AcDbLine
 10
-117.1587774573342
 20
309.0519213404484
 30
0.0
 11
-117.158777457336
 21
308.5519213404483
 31
0.0
  0
LINE
  5
A7AA
330
1F
100
AcDbEntity
  8
0
  6
HIDDEN
 62
     1
 48
0.02
100
AcDbLine
 10
-118.1837774573338
 20
309.0519213404484
 30
0.0
 11
-118.1837774573338
 21
308.5519213404483
 31
0.0
  0
LINE
  5
A7AB
330
1F
100
AcDbEntity
  8
0
  6
HIDDEN
 62
     1
 48
0.02
100
AcDbLine
 10
-117.158777457336
 20
309.0519213404484
 30
0.0
 11
-116.533777457336
 21
309.0519213404484
 31
0.0
  0
LINE
  5
A7AC
330
1F
100
AcDbEntity
  8
0
 62
     1
100
AcDbLine
 10
-119.1587774573342
 20
308.5519213404483
 30
0.0
 11
-116.9837774573349
 21
308.5519213404483
 31
0.0
  0
LINE
  5
A7AD
330
1F
100
AcDbEntity
  8
0
 62
     1
100
AcDbLine
 10
-118.8087774573338
 20
309.0519213404484
 30
0.0
 11
-118.1837774573338
 21
309.0519213404484
 31
0.0
  0
LINE
  5
A7AE
330
1F
100
AcDbEntity
  8
0
 62
     1
100
AcDbLine
 10
-117.1587774573342
 20
309.0519213404484
 30
0.0
 11
-117.158777457336
 21
308.5519213404483
 31
0.0
  0
LINE
  5
A7AF
330
1F
100
AcDbEntity
  8
0
 62
     1
100
AcDbLine
 10
-118.1837774573338
 20
309.0519213404484
 30
0.0
 11
-118.1837774573338
 21
308.5519213404483
 31
0.0
  0
LINE
  5
A7B0
330
1F
100
AcDbEntity
  8
0
 62
     1
100
AcDbLine
 10
-117.158777457336
 20
309.0519213404484
 30
0.0
 11
-116.533777457336
 21
309.0519213404484
 31
0.0
  0
LINE
  5
A7B1
330
1F
100
AcDbEntity
  8
0
 62
     1
100
AcDbLine
 10
-116.9837774573349
 20
308.8019213404483
 30
0.0
 11
-116.9837774573349
 21
308.5519213404483
 31
0.0
  0
LINE
  5
A7B2
330
1F
100
AcDbEntity
  8
0
 62
     1
100
AcDbLine
 10
-116.9837774573349
 20
308.8019213404483
 30
0.0
 11
-116.7337774573349
 21
308.8019213404483
 31
0.0
  0
LINE
  5
A7B3
330
1F
100
AcDbEntity
  8
0
 62
     1
100
AcDbLine
 10
-116.7337774573349
 20
308.5519213404483
 30
0.0
 11
-116.533777457336
 21
308.5519213404483
 31
0.0
  0
LINE
  5
A7B4
330
1F
100
AcDbEntity
  8
0
 48
0.15
100
AcDbLine
 10
-118.1837774573338
 20
308.5519213404483
 30
0.0
 11
-117.1587774573342
 21
308.5519213404483
 31
0.0
  0
LINE
  5
A7B5
330
1F
100
AcDbEntity
  8
0
 62
     1
100
AcDbLine
 10
-117.1087774573349
 20
308.5519213404483
 30
0.0
 11
-118.2337774573349
 21
308.5519213404483
 31
0.0
  0
LINE
  5
A7B6
330
1F
100
AcDbEntity
  8
0
 62
     1
100
AcDbLine
 10
-119.1587774573342
 20
320.5519213404484
 30
0.0
 11
-116.5337774573342
 21
320.5519213404484
 31
0.0
  0
LINE
  5
A7B7
330
1F
100
AcDbEntity
  8
0
 62
     1
100
AcDbLine
 10
-116.5337774573342
 20
321.0519213404483
 30
0.0
 11
-116.5337774573342
 21
320.5519213404484
 31
0.0
  0
LINE
  5
A7B8
330
1F
100
AcDbEntity
  8
0
  6
HIDDEN
 62
     1
 48
0.02
100
AcDbLine
 10
-118.8087774573338
 20
321.0519213404483
 30
0.0
 11
-118.1837774573338
 21
321.0519213404483
 31
0.0
  0
LINE
  5
A7B9
330
1F
100
AcDbEntity
  8
0
  6
HIDDEN
 62
     1
 48
0.02
100
AcDbLine
 10
-118.8087774573338
 20
321.0519213404483
 30
0.0
 11
-118.8087774573338
 21
320.5519213404484
 31
0.0
  0
LINE
  5
A7BA
330
1F
100
AcDbEntity
  8
0
  6
HIDDEN
 62
     1
 48
0.02
100
AcDbLine
 10
-117.1587774573342
 20
321.0519213404483
 30
0.0
 11
-117.158777457336
 21
320.5519213404484
 31
0.0
  0
LINE
  5
A7BB
330
1F
100
AcDbEntity
  8
0
  6
HIDDEN
 62
     1
 48
0.02
100
AcDbLine
 10
-118.1837774573338
 20
321.0519213404483
 30
0.0
 11
-118.1837774573338
 21
320.5519213404484
 31
0.0
  0
LINE
  5
A7BC
330
1F
100
AcDbEntity
  8
0
  6
HIDDEN
 62
     1
 48
0.02
100
AcDbLine
 10
-117.158777457336
 20
321.0519213404483
 30
0.0
 11
-116.533777457336
 21
321.0519213404483
 31
0.0
  0
LINE
  5
A7BD
330
1F
100
AcDbEntity
  8
A4 medium
 48
0.15
100
AcDbLine
 10
-80.7073447937052
 20
320.0519193911966
 30
0.0
 11
-79.7073447937052
 21
319.0519193911966
 31
0.0
  0
LINE
  5
A7BE
330
1F
100
AcDbEntity
  8
A4 medium
 48
0.15
100
AcDbLine
 10
-79.7073447937052
 20
320.0519193911966
 30
0.0
 11
-80.7073447937052
 21
319.0519193911966
 31
0.0
  0
LINE
  5
A7BF
330
1F
100
AcDbEntity
  8
A4 medium
 48
0.15
100
AcDbLine
 10
-80.20734479370521
 20
319.5519193911966
 30
0.0
 11
-86.2073447937052
 21
319.5519193911966
 31
0.0
  0
LINE
  5
A7C0
330
1F
100
AcDbEntity
  8
A4 medium
 48
0.15
100
AcDbLine
 10
-86.2073447937052
 20
319.5519193911966
 30
0.0
 11
-92.2073447937052
 21
319.5519193911966
 31
0.0
  0
LINE
  5
A7C1
330
1F
100
AcDbEntity
  8
A4 medium
 48
0.15
100
AcDbLine
 10
-92.20734479370339
 20
319.5519193911966
 30
0.0
 11
-98.20734479370338
 21
319.5519193911966
 31
0.0
  0
LINE
  5
A7C2
330
1F
100
AcDbEntity
  8
A4 medium
 48
0.15
100
AcDbLine
 10
-98.70734479370339
 20
320.0519193911966
 30
0.0
 11
-97.70734479370339
 21
319.0519193911966
 31
0.0
  0
LINE
  5
A7C3
330
1F
100
AcDbEntity
  8
A4 medium
 48
0.15
100
AcDbLine
 10
-97.70734479370339
 20
320.0519193911966
 30
0.0
 11
-98.70734479370339
 21
319.0519193911966
 31
0.0
  0
LINE
  5
A7C4
330
1F
100
AcDbEntity
  8
A4 medium
 48
0.15
100
AcDbLine
 10
-104.7073447937034
 20
320.0519193911966
 30
0.0
 11
-103.7073447937034
 21
319.0519193911966
 31
0.0
  0
LINE
  5
A7C5
330
1F
100
AcDbEntity
  8
A4 medium
 48
0.15
100
AcDbLine
 10
-103.7073447937034
 20
320.0519193911966
 30
0.0
 11
-104.7073447937034
 21
319.0519193911966
 31
0.0
  0
LINE
  5
A7C6
330
1F
100
AcDbEntity
  8
A4 medium
 48
0.15
100
AcDbLine
 10
-92.74248676335417
 20
320.0866572780189
 30
0.0
 11
-91.74248676335418
 21
319.0866572780189
 31
0.0
  0
LINE
  5
A7C7
330
1F
100
AcDbEntity
  8
A4 medium
 48
0.15
100
AcDbLine
 10
-91.74248676335418
 20
320.0866572780189
 30
0.0
 11
-92.74248676335417
 21
319.0866572780189
 31
0.0
  0
LINE
  5
A7C8
330
1F
100
AcDbEntity
  8
A4 medium
 48
0.15
100
AcDbLine
 10
-78.34881393957011
 20
319.5519193911966
 30
0.0
 11
-80.20734479370702
 21
319.5519193911966
 31
0.0
  0
LINE
  5
A7C9
330
1F
100
AcDbEntity
  8
REBAR
 48
0.15
100
AcDbLine
 10
-109.6997476516441
 20
319.5519193911966
 30
0.0
 11
-98.37331498801331
 21
319.5519193911966
 31
0.0
  0
LINE
  5
A7CA
330
1F
100
AcDbEntity
  8
REBAR
 48
0.15
100
AcDbLine
 10
-112.6997476516423
 20
342.952057670707
 30
0.0
 11
-112.6997476516441
 21
322.5519193911966
 31
0.0
  0
ARC
  5
A7CB
330
1F
100
AcDbEntity
  8
REBAR
 48
0.15
100
AcDbCircle
 10
-109.6997476516441
 20
322.5519193911966
 30
0.0
 40
3.0
100
AcDbArc
 50
180.0
 51
270.0
  0
LEADER
  5
A7CC
330
1F
100
AcDbEntity
  8
DIM
100
AcDbLeader
  3
ARCTEXT1-4
 76
     3
 10
-111.8210679952041
 20
320.430599047637
 30
0.0
 10
-99.53409898241961
 20
343.4196896427004
 30
0.0
 10
-92.43662396452936
 20
343.4196896427004
 30
0.0
1001
ACAD
1000
DSTYLE
1002
{
1070
    41
1040
0.5
1070
    77
1070
     0
1002
}
  0
MTEXT
  5
A7CD
330
1F
100
AcDbEntity
  8
DIM
 62
     3
100
AcDbMText
 10
-91.5351573181976
 20
343.8769021651994
 30
0.0
 40
1.0
 41
22.68954545454545
 71
     1
 72
     5
  1
BENT REINF IN VERT CORES 
  7
RomanC
 73
     1
 44
1.0
1001
ACAD
1000
MTEXTBEGIN
1070
    73
1070
     1
1070
    44
1040
1.0
1070
    74
1070
     0
1000
MTEXTEND
  0
MTEXT
  5
A7CE
330
1F
100
AcDbEntity
  8
DIM
 62
     3
100
AcDbMText
 10
-91.48171095682272
 20
337.7671566956571
 30
0.0
 40
1.0
 41
22.68954545454545
 71
     1
 72
     5
  1
CONC. SLAB OVER METAL DECK
  7
RomanC
 73
     1
 44
1.0
1001
ACAD
1000
MTEXTBEGIN
1070
    73
1070
     1
1070
    44
1040
1.0
1070
    74
1070
     0
1000
MTEXTEND
  0
LEADER
  5
A7CF
330
1F
100
AcDbEntity
  8
DIM
100
AcDbLeader
  3
ARCTEXT1-4
 76
     3
 10
-99.52658437846885
 20
320.5519213404484
 30
0.0
 10
-99.53409898241961
 20
337.2185091194708
 30
0.0
 10
-92.43662396453117
 20
337.2185091194708
 30
0.0
1001
ACAD
1000
DSTYLE
1002
{
1070
    41
1040
0.5
1070
    77
1070
     0
1002
}
  0
LINE
  5
A7D0
330
1F
100
AcDbEntity
  8
0
 62
     1
100
AcDbLine
 10
-119.1587774573342
 20
320.5519213404484
 30
0.0
 11
-116.533777457336
 21
320.5519213404484
 31
0.0
  0
LINE
  5
A7D1
330
1F
100
AcDbEntity
  8
0
  6
HIDDEN
 62
     1
 48
0.02
100
AcDbLine
 10
-118.8087774573357
 20
321.0519213404483
 30
0.0
 11
-118.1837774573357
 21
321.0519213404483
 31
0.0
  0
LINE
  5
A7D2
330
1F
100
AcDbEntity
  8
0
  6
HIDDEN
 62
     1
 48
0.02
100
AcDbLine
 10
-117.158777457336
 20
321.0519213404483
 30
0.0
 11
-117.158777457336
 21
320.5519213404484
 31
0.0
  0
LINE
  5
A7D3
330
1F
100
AcDbEntity
  8
0
  6
HIDDEN
 62
     1
 48
0.02
100
AcDbLine
 10
-118.1837774573357
 20
321.0519213404483
 30
0.0
 11
-118.1837774573338
 21
320.5519213404484
 31
0.0
  0
LINE
  5
A7D4
330
1F
100
AcDbEntity
  8
0
  6
HIDDEN
 62
     1
 48
0.02
100
AcDbLine
 10
-117.158777457336
 20
321.0519213404483
 30
0.0
 11
-116.533777457336
 21
321.0519213404483
 31
0.0
  0
LINE
  5
A7D5
330
1F
100
AcDbEntity
  8
0
 62
     1
100
AcDbLine
 10
-119.1587774573342
 20
320.5519213404484
 30
0.0
 11
-116.9837774573349
 21
320.5519213404484
 31
0.0
  0
LINE
  5
A7D6
330
1F
100
AcDbEntity
  8
0
 62
     1
100
AcDbLine
 10
-118.8087774573357
 20
321.0519213404483
 30
0.0
 11
-118.1837774573357
 21
321.0519213404483
 31
0.0
  0
LINE
  5
A7D7
330
1F
100
AcDbEntity
  8
0
 62
     1
100
AcDbLine
 10
-117.158777457336
 20
321.0519213404483
 30
0.0
 11
-117.158777457336
 21
320.5519213404484
 31
0.0
  0
LINE
  5
A7D8
330
1F
100
AcDbEntity
  8
0
 62
     1
100
AcDbLine
 10
-118.1837774573357
 20
321.0519213404483
 30
0.0
 11
-118.1837774573338
 21
320.5519213404484
 31
0.0
  0
LINE
  5
A7D9
330
1F
100
AcDbEntity
  8
0
 62
     1
100
AcDbLine
 10
-117.158777457336
 20
321.0519213404483
 30
0.0
 11
-116.533777457336
 21
321.0519213404483
 31
0.0
  0
LINE
  5
A7DA
330
1F
100
AcDbEntity
  8
0
 62
     1
100
AcDbLine
 10
-116.9837774573349
 20
320.8019213404484
 30
0.0
 11
-116.9837774573349
 21
320.5519213404484
 31
0.0
  0
LINE
  5
A7DB
330
1F
100
AcDbEntity
  8
0
 62
     1
100
AcDbLine
 10
-116.9837774573349
 20
320.8019213404484
 30
0.0
 11
-116.7337774573349
 21
320.8019213404484
 31
0.0
  0
LINE
  5
A7DC
330
1F
100
AcDbEntity
  8
0
 62
     1
100
AcDbLine
 10
-116.7337774573349
 20
320.5519213404484
 30
0.0
 11
-116.533777457336
 21
320.5519213404484
 31
0.0
  0
LINE
  5
A7DD
330
1F
100
AcDbEntity
  8
0
 48
0.15
100
AcDbLine
 10
-118.1837774573357
 20
320.5519213404484
 30
0.0
 11
-117.158777457336
 21
320.5519213404484
 31
0.0
  0
LINE
  5
A7DE
330
1F
100
AcDbEntity
  8
0
 62
     1
100
AcDbLine
 10
-117.1087774573349
 20
320.5519213404484
 30
0.0
 11
-118.2337774573349
 21
320.5519213404484
 31
0.0
  0
LEADER
  5
A7DF
330
1F
100
AcDbEntity
  8
DIM
100
AcDbLeader
  3
ARCTEXT1-4
 76
     3
 10
-119.158777457336
 20
330.5991400500863
 30
0.0
 10
-127.7862441894137
 20
330.5999792905206
 30
0.0
 10
-130.0382881899538
 20
330.5999792905206
 30
0.0
211
-1.0
221
0.0
231
0.0
1001
ACAD
1000
DSTYLE
1002
{
1070
    41
1040
0.5
1070
    77
1070
     0
1002
}
  0
MTEXT
  5
A7E0
330
1F
100
AcDbEntity
  8
DIM
 62
     3
100
AcDbMText
 10
-141.8714155592749
 20
331.0721680292083
 30
0.0
 40
1.0
 41
22.68954545454545
 71
     1
 72
     5
  1
GREENBLOCK ICF 
  7
RomanC
 73
     1
 44
1.0
1001
ACAD
1000
MTEXTBEGIN
1070
    73
1070
     1
1070
    44
1040
1.0
1070
    74
1070
     0
1000
MTEXTEND
  0
MTEXT
  5
A7E1
330
1F
100
AcDbEntity
  8
DIM
 62
     3
100
AcDbMText
 10
-149.8298387817974
 20
297.725863394947
 30
0.0
 40
1.0
 41
22.68954545454545
 71
     1
 72
     5
  1
CONT VERT REINF (BEYOND) 
  7
RomanC
 73
     1
 44
1.0
1001
ACAD
1000
MTEXTBEGIN
1070
    73
1070
     1
1070
    44
1040
1.0
1070
    74
1070
     0
1000
MTEXTEND
  0
MTEXT
  5
A7E2
330
1F
100
AcDbEntity
  8
DIM
 62
     3
100
AcDbMText
 10
-139.4838747216724
 20
292.4282137582533
 30
0.0
 40
1.0
 41
22.68954545454545
 71
     1
 72
     5
  1
HORIZ REINF 
  7
RomanC
 73
     1
 44
1.0
1001
ACAD
1000
MTEXTBEGIN
1070
    73
1070
     1
1070
    44
1040
1.0
1070
    74
1070
     0
1000
MTEXTEND
  0
LEADER
  5
A7E3
330
1F
100
AcDbEntity
  8
DIM
100
AcDbLeader
  3
ARCTEXT1-4
 76
     3
 10
-113.3495494983669
 20
294.2440775418924
 30
0.0
 10
-129.332336932404
 20
291.8807572760749
 30
0.0
 10
-130.2171177003662
 20
291.8807572760749
 30
0.0
211
-1.0
221
0.0
231
0.0
1001
ACAD
1000
DSTYLE
1002
{
1070
    41
1040
0.5
1070
    77
1070
     0
1002
}
  0
LEADER
  5
A7E4
330
1F
100
AcDbEntity
  8
DIM
100
AcDbLeader
  3
ARCTEXT1-4
 76
     3
 10
-112.5337774573342
 20
296.9603351131374
 30
0.0
 10
-126.0264995123777
 20
296.9607547333546
 30
0.0
 10
-130.0298138172299
 20
296.9607547333546
 30
0.0
211
-1.0
221
0.0
231
0.0
1001
ACAD
1000
DSTYLE
1002
{
1070
    41
1040
0.5
1070
    77
1070
     0
1002
}
  0
LINE
  5
A7E5
330
1F
100
AcDbEntity
  8
A4 medium
 48
0.15
100
AcDbLine
 10
-116.5337774573342
 20
314.5519213404484
 30
0.0
 11
-77.85532008168747
 21
314.5519213404484
 31
0.0
  0
LINE
  5
A7E6
330
1F
100
AcDbEntity
  8
A4 medium
 48
0.15
100
AcDbLine
 10
-116.5337774573342
 20
315.5519213404484
 30
0.0
 11
-77.85532008168747
 21
315.5519213404484
 31
0.0
  0
LINE
  5
A7E7
330
1F
100
AcDbEntity
  8
A4 medium
 48
0.15
100
AcDbLine
 10
-105.8837774573327
 20
318.0519213404484
 30
0.0
 11
-101.8837774573346
 21
318.0519213404484
 31
0.0
  0
LINE
  5
A7E8
330
1F
100
AcDbEntity
  8
A4 medium
 48
0.15
100
AcDbLine
 10
-86.74248676335599
 20
320.0866572780189
 30
0.0
 11
-85.74248676335599
 21
319.0866572780189
 31
0.0
  0
LINE
  5
A7E9
330
1F
100
AcDbEntity
  8
A4 medium
 48
0.15
100
AcDbLine
 10
-85.74248676335599
 20
320.0866572780189
 30
0.0
 11
-86.74248676335599
 21
319.0866572780189
 31
0.0
  0
LINE
  5
A7EA
330
1F
100
AcDbEntity
  8
A4 medium
 48
0.15
100
AcDbLine
 10
-105.8837774573337
 20
318.0519213404484
 30
0.0
 11
-106.5337774573342
 21
315.5519213404484
 31
0.0
  0
LINE
  5
A7EB
330
1F
100
AcDbEntity
  8
A4 medium
 48
0.15
100
AcDbLine
 10
-101.8837774573327
 20
318.0519213404484
 30
0.0
 11
-101.2337774573331
 21
315.5519213404484
 31
0.0
  0
LINE
  5
A7EC
330
1F
100
AcDbEntity
  8
0
 48
0.15
100
AcDbLine
 10
-101.2337774573331
 20
315.5519213404484
 30
0.0
 11
-99.23377745733313
 21
315.5519213404484
 31
0.0
  0
LINE
  5
A7ED
330
1F
100
AcDbEntity
  8
A4 medium
 48
0.15
100
AcDbLine
 10
-98.58377745733259
 20
318.0519213404484
 30
0.0
 11
-94.58377745733349
 21
318.0519213404484
 31
0.0
  0
LINE
  5
A7EE
330
1F
100
AcDbEntity
  8
A4 medium
 48
0.15
100
AcDbLine
 10
-98.58377745733349
 20
318.0519213404484
 30
0.0
 11
-99.23377745733313
 21
315.5519213404484
 31
0.0
  0
LINE
  5
A7EF
330
1F
100
AcDbEntity
  8
A4 medium
 48
0.15
100
AcDbLine
 10
-94.58377745733258
 20
318.0519213404484
 30
0.0
 11
-93.93377745733204
 21
315.5519213404484
 31
0.0
  0
LINE
  5
A7F0
330
1F
100
AcDbEntity
  8
A4 medium
 48
0.15
100
AcDbLine
 10
-91.2837774573324
 20
318.0519213404484
 30
0.0
 11
-87.2837774573324
 21
318.0519213404484
 31
0.0
  0
LINE
  5
A7F1
330
1F
100
AcDbEntity
  8
A4 medium
 48
0.15
100
AcDbLine
 10
-91.2837774573324
 20
318.0519213404484
 30
0.0
 11
-91.93377745733204
 21
315.5519213404484
 31
0.0
  0
LINE
  5
A7F2
330
1F
100
AcDbEntity
  8
A4 medium
 48
0.15
100
AcDbLine
 10
-87.2837774573324
 20
318.0519213404484
 30
0.0
 11
-86.63377745733185
 21
315.5519213404484
 31
0.0
  0
LINE
  5
A7F3
330
1F
100
AcDbEntity
  8
A4 medium
 48
0.15
100
AcDbLine
 10
-83.98377745733132
 20
318.0519213404484
 30
0.0
 11
-79.98377745733222
 21
318.0519213404484
 31
0.0
  0
LINE
  5
A7F4
330
1F
100
AcDbEntity
  8
A4 medium
 48
0.15
100
AcDbLine
 10
-83.98377745733132
 20
318.0519213404484
 30
0.0
 11
-84.63377745733186
 21
315.5519213404484
 31
0.0
  0
LINE
  5
A7F5
330
1F
100
AcDbEntity
  8
A4 medium
 48
0.15
100
AcDbLine
 10
-79.98377745733131
 20
318.0519213404484
 30
0.0
 11
-79.33377745733167
 21
315.5519213404484
 31
0.0
  0
LINE
  5
A7F6
330
1F
100
AcDbEntity
  8
REBAR
 48
0.15
100
AcDbLine
 10
-112.5337774573342
 20
298.5519093699515
 30
0.0
 11
-112.5337774573342
 21
285.3815367673921
 31
0.0
  0
LINE
  5
A7F7
330
1F
100
AcDbEntity
  8
0
 48
0.15
100
AcDbLine
 10
-108.5337774573342
 20
298.5519093699515
 30
0.0
 11
-108.5337774573342
 21
301.0519093699515
 31
0.0
  0
LINE
  5
A7F8
330
1F
100
AcDbEntity
  8
0
 48
0.15
100
AcDbLine
 10
-108.5337774573351
 20
298.5519093699515
 30
0.0
 11
-116.5337774573342
 21
298.551909369951
 31
0.0
  0
LINE
  5
A7F9
330
1F
100
AcDbEntity
  8
A4 medium
 48
0.15
100
AcDbLine
 10
-116.5337774573342
 20
302.0519093699515
 30
0.0
 11
-77.85532008168747
 21
302.0519093699515
 31
0.0
  0
LINE
  5
A7FA
330
1F
100
AcDbEntity
  8
A4 medium
 48
0.15
100
AcDbLine
 10
-108.5337774573342
 20
301.0519093699515
 30
0.0
 11
-108.5337774573342
 21
299.4019093699514
 31
0.0
  0
LINE
  5
A7FB
330
1F
100
AcDbEntity
  8
A4 medium
 48
0.15
100
AcDbLine
 10
-108.5337774573342
 20
299.4019093699514
 30
0.0
 11
-116.5337774573342
 21
299.4019093699514
 31
0.0
  0
LEADER
  5
A7FC
330
1F
100
AcDbEntity
  8
DIM
100
AcDbLeader
  3
ARCTEXT1-4
 76
     3
 10
-102.9882328930568
 20
301.0519093699515
 30
0.0
 10
-99.93490441344938
 20
293.6919983853988
 30
0.0
 10
-91.46479268487082
 20
293.6976863997612
 30
0.0
1001
ACAD
1000
DSTYLE
1002
{
1070
    41
1040
0.5
1070
    77
1070
     0
1002
}
  0
MTEXT
  5
A7FD
330
1F
100
AcDbEntity
  8
DIM
 62
     3
100
AcDbMText
 10
-91.02666750864926
 20
294.3978755491518
 30
0.0
 40
1.0
 41
22.68954545454545
 71
     1
 72
     5
  1
STEEL BEAM
  7
RomanC
 73
     1
 44
1.0
1001
ACAD
1000
MTEXTBEGIN
1070
    73
1070
     1
1070
    44
1040
1.0
1070
    74
1070
     0
1000
MTEXTEND
  0
LEADER
  5
A7FE
330
1F
100
AcDbEntity
  8
DIM
100
AcDbLeader
  3
ARCTEXT1-4
 76
     3
 10
-111.3125693352237
 20
300.7390568520838
 30
0.0
 10
-109.6294788364864
 20
305.9760901192937
 30
0.0
 10
-104.5413587661239
 20
305.9760901192937
 30
0.0
1001
ACAD
1000
DSTYLE
1002
{
1070
    41
1040
0.5
1070
    77
1070
     0
1002
}
  0
MTEXT
  5
A7FF
330
1F
100
AcDbEntity
  8
DIM
 62
     3
100
AcDbMText
 10
-103.8826294971674
 20
306.0961496930147
 30
0.0
 40
1.0
 41
22.68954545454545
 71
     1
 72
     5
  1
BEARING PL
  7
RomanC
 73
     1
 44
1.0
1001
ACAD
1000
MTEXTBEGIN
1070
    73
1070
     1
1070
    44
1040
1.0
1070
    74
1070
     0
1000
MTEXTEND
  0
LEADER
  5
A800
330
1F
100
AcDbEntity
  8
DIM
100
AcDbLeader
  3
ARCTEXT1-4
 76
     3
 10
-114.6567841753091
 20
302.0519093699515
 30
0.0
 10
-107.8868528382315
 20
312.3757834755003
 30
0.0
 10
-96.79474176448065
 20
312.3757834755003
 30
0.0
1001
ACAD
1000
DSTYLE
1002
{
1070
    41
1040
0.5
1070
    77
1070
     0
1002
}
  0
LINE
  5
A801
330
1F
100
AcDbEntity
  8
DIM
100
AcDbLine
 10
-103.8815554893514
 20
312.3757834755003
 30
0.0
 11
-103.8815554893514
 21
309.8757834755003
 31
0.0
  0
LINE
  5
A802
330
1F
100
AcDbEntity
  8
DIM
100
AcDbLine
 10
-103.8815554893514
 20
309.8757834755003
 30
0.0
 11
-101.3815554893514
 21
312.3757834755003
 31
0.0
  0
LINE
  5
A803
330
1F
100
AcDbEntity
  8
0
 48
0.15
100
AcDbLine
 10
-112.5337774573342
 20
298.551909369951
 30
0.0
 11
-113.5337774573342
 21
298.551909369951
 31
0.0
  0
LINE
  5
A804
330
1F
100
AcDbEntity
  8
A2 Hatch
 48
0.15
370
    30
100
AcDbLine
 10
-113.5337774573342
 20
298.551909369951
 30
0.0
 11
-113.5337774573342
 21
295.3940326779017
 31
0.0
  0
LINE
  5
A805
330
1F
100
AcDbEntity
  8
A2 Hatch
 48
0.15
370
    30
100
AcDbLine
 10
-114.0337774573342
 20
298.551909369951
 30
0.0
 11
-114.0337774573342
 21
295.3940326779017
 31
0.0
  0
LINE
  5
A806
330
1F
100
AcDbEntity
  8
A2 Hatch
 48
0.15
370
    30
100
AcDbLine
 10
-113.2837774573342
 20
295.3940326779017
 30
0.0
 11
-114.2837774573342
 21
295.3940326779017
 31
0.0
  0
LINE
  5
A807
330
1F
100
AcDbEntity
  8
A2 Hatch
 48
0.15
370
    30
100
AcDbLine
 10
-114.2837774573342
 20
295.3940326779017
 30
0.0
 11
-114.2837774573342
 21
295.1440326779017
 31
0.0
  0
LINE
  5
A808
330
1F
100
AcDbEntity
  8
A2 Hatch
 48
0.15
370
    30
100
AcDbLine
 10
-113.2837774573342
 20
295.3940326779017
 30
0.0
 11
-113.2837774573342
 21
295.1440326779017
 31
0.0
  0
LINE
  5
A809
330
1F
100
AcDbEntity
  8
A2 Hatch
 48
0.15
370
    30
100
AcDbLine
 10
-113.2837774573342
 20
295.1440326779017
 30
0.0
 11
-114.2837774573342
 21
295.1440326779017
 31
0.0
  0
LINE
  5
A80A
330
1F
100
AcDbEntity
  8
0
 62
     1
100
AcDbLine
 10
-108.5337774573342
 20
298.5519093699515
 30
0.0
 11
-105.9087774573342
 21
298.5519093699515
 31
0.0
  0
LINE
  5
A80B
330
1F
100
AcDbEntity
  8
0
 62
     1
100
AcDbLine
 10
-119.1587774573342
 20
320.5519213404484
 30
0.0
 11
-116.5337774573351
 21
320.5519213404484
 31
0.0
  0
LINE
  5
A80C
330
1F
100
AcDbEntity
  8
0
 62
     1
100
AcDbLine
 10
-116.5337774573351
 20
321.0519213404483
 30
0.0
 11
-116.5337774573351
 21
320.5519213404484
 31
0.0
  0
LINE
  5
A80D
330
1F
100
AcDbEntity
  8
0
  6
HIDDEN
 62
     1
 48
0.02
100
AcDbLine
 10
-118.8087774573348
 20
321.0519213404483
 30
0.0
 11
-118.1837774573347
 21
321.0519213404483
 31
0.0
  0
LINE
  5
A80E
330
1F
100
AcDbEntity
  8
0
  6
HIDDEN
 62
     1
 48
0.02
100
AcDbLine
 10
-118.8087774573348
 20
321.0519213404483
 30
0.0
 11
-118.8087774573348
 21
320.5519213404484
 31
0.0
  0
LINE
  5
A80F
330
1F
100
AcDbEntity
  8
0
  6
HIDDEN
 62
     1
 48
0.02
100
AcDbLine
 10
-117.1587774573351
 20
321.0519213404483
 30
0.0
 11
-117.158777457336
 21
320.5519213404484
 31
0.0
  0
LINE
  5
A810
330
1F
100
AcDbEntity
  8
0
  6
HIDDEN
 62
     1
 48
0.02
100
AcDbLine
 10
-118.1837774573347
 20
321.0519213404483
 30
0.0
 11
-118.1837774573338
 21
320.5519213404484
 31
0.0
  0
LINE
  5
A811
330
1F
100
AcDbEntity
  8
0
  6
HIDDEN
 62
     1
 48
0.02
100
AcDbLine
 10
-117.158777457336
 20
321.0519213404483
 30
0.0
 11
-116.533777457336
 21
321.0519213404483
 31
0.0
  0
LINE
  5
A812
330
1F
100
AcDbEntity
  8
0
 62
     1
100
AcDbLine
 10
-119.1587774573342
 20
320.5519213404484
 30
0.0
 11
-116.9837774573349
 21
320.5519213404484
 31
0.0
  0
LINE
  5
A813
330
1F
100
AcDbEntity
  8
0
 62
     1
100
AcDbLine
 10
-118.8087774573348
 20
321.0519213404483
 30
0.0
 11
-118.1837774573347
 21
321.0519213404483
 31
0.0
  0
LINE
  5
A814
330
1F
100
AcDbEntity
  8
0
 62
     1
100
AcDbLine
 10
-117.1587774573351
 20
321.0519213404483
 30
0.0
 11
-117.158777457336
 21
320.5519213404484
 31
0.0
  0
LINE
  5
A815
330
1F
100
AcDbEntity
  8
0
 62
     1
100
AcDbLine
 10
-118.1837774573347
 20
321.0519213404483
 30
0.0
 11
-118.1837774573338
 21
320.5519213404484
 31
0.0
  0
LINE
  5
A816
330
1F
100
AcDbEntity
  8
0
 62
     1
100
AcDbLine
 10
-117.158777457336
 20
321.0519213404483
 30
0.0
 11
-116.533777457336
 21
321.0519213404483
 31
0.0
  0
LINE
  5
A817
330
1F
100
AcDbEntity
  8
0
 62
     1
100
AcDbLine
 10
-116.9837774573349
 20
320.8019213404484
 30
0.0
 11
-116.9837774573349
 21
320.5519213404484
 31
0.0
  0
LINE
  5
A818
330
1F
100
AcDbEntity
  8
0
 62
     1
100
AcDbLine
 10
-116.9837774573349
 20
320.8019213404484
 30
0.0
 11
-116.7337774573349
 21
320.8019213404484
 31
0.0
  0
LINE
  5
A819
330
1F
100
AcDbEntity
  8
0
 62
     1
100
AcDbLine
 10
-116.7337774573349
 20
320.5519213404484
 30
0.0
 11
-116.533777457336
 21
320.5519213404484
 31
0.0
  0
LINE
  5
A81A
330
1F
100
AcDbEntity
  8
0
 48
0.15
100
AcDbLine
 10
-118.1837774573347
 20
320.5519213404484
 30
0.0
 11
-117.1587774573351
 21
320.5519213404484
 31
0.0
  0
LINE
  5
A81B
330
1F
100
AcDbEntity
  8
0
 62
     1
100
AcDbLine
 10
-117.1087774573349
 20
320.5519213404484
 30
0.0
 11
-118.2337774573349
 21
320.5519213404484
 31
0.0
  0
LINE
  5
A81C
330
1F
100
AcDbEntity
  8
REBAR
 48
0.15
100
AcDbLine
 10
-113.535926101085
 20
344.5519213404488
 30
0.0
 11
-113.535926101085
 21
315.5519213404484
 31
0.0
  0
LINE
  5
A81D
330
1F
100
AcDbEntity
  8
0
 48
0.15
100
AcDbLine
 10
-113.5337774573342
 20
298.551909369951
 30
0.0
 11
-114.0337774573342
 21
298.551909369951
 31
0.0
  0
HATCH
  5
A81E
330
1F
100
AcDbEntity
  8
A2 Hatch
 48
0.15
100
AcDbHatch
 10
0.0
 20
0.0
 30
0.0
210
0.0
220
0.0
230
1.0
  2
AR-CONC
 70
     0
 71
     0
 91
        1
 92
        1
 93
        8
 72
     1
 10
-110.4359261010829
 20
320.8019213404484
 11
-116.5075081744532
 21
320.8232192365528
 72
     1
 10
-116.507508174455
 20
320.8232192365524
 11
-116.4316288135866
 21
342.454828524402
 72
     1
 10
-116.4316288135866
 20
342.4548285244029
 11
-114.4452092597036
 21
343.1285080701293
 72
     1
 10
-114.4452092597036
 20
343.1285080701293
 11
-115.3812522765044
 21
345.8885356880716
 72
     1
 10
-115.3812522765044
 20
345.8885356880716
 11
-110.785058198792
 21
341.2923416103587
 72
     1
 10
-110.785058198792
 20
341.2923416103587
 11
-111.7211012155928
 21
344.0523692283016
 72
     1
 10
-111.7211012155928
 20
344.0523692283016
 11
-110.4359261010847
 21
344.4882268927251
 72
     1
 10
-110.4359261010847
 20
344.4882268927255
 11
-110.4359261010829
 21
320.8019213404484
 97
        0
 75
     0
 76
     1
 52
0.0
 41
0.8
 77
     0
 78
    13
 53
50.0
 43
-3419.608714591115
 44
861.0305319802543
 45
5.738081460806028
 46
-0.502017079860761
 79
     2
 49
0.6000000000000001
 49
-6.6
 53
355.0
 43
-3419.608714591115
 44
861.0305319802543
 45
-1.110010668904
 46
6.017537069600095
 79
     2
 49
0.48
 49
-5.28
 53
100.4514
 43
-3419.130541151115
 44
860.9886972602543
 45
4.628075053712172
 46
5.515516336487628
 79
     2
 49
0.5099215199999995
 49
-5.609136895999994
 53
46.1842
 43
-3419.608714591115
 44
862.6305319802543
 45
8.537928389005156
 46
-1.324152114632144
 79
     2
 49
0.9
 49
-9.9
 53
96.63559999999998
 43
-3418.897220631115
 44
862.5201855242544
 45
7.477301644389626
 46
7.792942967203534
 79
     2
 49
0.7648823039999993
 49
-8.413703999999988
 53
351.1842000000001
 43
-3419.608714591115
 44
862.6305319802543
 45
7.477295561069017
 46
7.792948807402597
 79
     2
 49
0.7200000000000001
 49
-7.92
 53
21.0
 43
-3418.808714591115
 44
862.2305319802544
 45
4.775256416947693
 46
-3.22095112532271
 79
     2
 49
0.6000000000000001
 49
-6.6
 53
326.0
 43
-3418.808714591115
 44
862.2305319802544
 45
1.946522655372653
 46
5.801200360374824
 79
     2
 49
0.48
 49
-5.28
 53
71.45140000000001
 43
-3418.410776727115
 44
861.9621191322544
 45
6.721781028651919
 46
2.580243973679619
 79
     2
 49
0.5099215200000002
 49
-5.609136895999999
 53
37.5
 43
-3419.608714591115
 44
861.0305319802543
 45
0.0972788425383254
 46
2.663150830650492
 79
     6
 49
0.0
 49
-5.216
 49
0.0
 49
-5.36
 49
0.0
 49
-5.3
 53
7.499999999999999
 43
-3419.608714591115
 44
861.0305319802543
 45
2.104556299537188
 46
3.155293695058881
 79
     6
 49
0.0
 49
-3.056
 49
0.0
 49
-5.096
 49
0.0
 49
-2.02
 53
327.5
 43
-3421.392714591115
 44
861.0305319802543
 45
4.270579489379272
 46
-0.1804389738750384
 79
     6
 49
0.0
 49
-2.0
 49
0.0
 49
-6.24
 49
0.0
 49
-8.279999999999999
 53
317.5
 43
-3422.192714591115
 44
861.0305319802543
 45
4.665489354739089
 46
0.8008398586585411
 79
     6
 49
0.0
 49
-2.6
 49
0.0
 49
-4.144
 49
0.0
 49
-5.879999999999999
 98
        1
 10
-6058.776477249823
 20
883.5117470613196
  0
LINE
  5
A81F
330
1F
100
AcDbEntity
  8
0
 62
     1
100
AcDbLine
 10
-119.1587774573342
 20
332.5519213404484
 30
0.0
 11
-119.1587774573342
 21
320.5519213404484
 31
0.0
  0
LINE
  5
A820
330
1F
100
AcDbEntity
  8
0
 62
     1
100
AcDbLine
 10
-119.1587774573342
 20
332.5519213404484
 30
0.0
 11
-116.983777457334
 21
332.5519213404484
 31
0.0
  0
LINE
  5
A821
330
1F
100
AcDbEntity
  8
0
 62
     1
100
AcDbLine
 10
-119.1587774573342
 20
320.5519213404484
 30
0.0
 11
-116.5337774573351
 21
320.5519213404484
 31
0.0
  0
LINE
  5
A822
330
1F
100
AcDbEntity
  8
0
 62
     1
100
AcDbLine
 10
-116.5337774573351
 20
333.0519213404484
 30
0.0
 11
-116.5337774573342
 21
320.5519213404484
 31
0.0
  0
LINE
  5
A823
330
1F
100
AcDbEntity
  8
0
 62
     1
100
AcDbLine
 10
-118.8087774573348
 20
333.0519213404484
 30
0.0
 11
-118.1837774573347
 21
333.0519213404484
 31
0.0
  0
LINE
  5
A824
330
1F
100
AcDbEntity
  8
0
 62
     1
100
AcDbLine
 10
-118.8087774573348
 20
333.0519213404484
 30
0.0
 11
-118.8087774573348
 21
320.5519213404484
 31
0.0
  0
LINE
  5
A825
330
1F
100
AcDbEntity
  8
0
 62
     1
100
AcDbLine
 10
-117.1587774573351
 20
333.0519213404484
 30
0.0
 11
-117.1587774573351
 21
332.5519213404484
 31
0.0
  0
LINE
  5
A826
330
1F
100
AcDbEntity
  8
0
 62
     1
100
AcDbLine
 10
-118.1837774573347
 20
333.0519213404484
 30
0.0
 11
-118.1837774573338
 21
332.5519213404484
 31
0.0
  0
LINE
  5
A827
330
1F
100
AcDbEntity
  8
0
 62
     1
100
AcDbLine
 10
-117.1587774573351
 20
333.0519213404484
 30
0.0
 11
-116.6337774573355
 21
333.0519213404484
 31
0.0
  0
LINE
  5
A828
330
1F
100
AcDbEntity
  8
0
 62
     1
100
AcDbLine
 10
-116.733777457334
 20
332.8019213404484
 30
0.0
 11
-116.733777457334
 21
320.5519213404484
 31
0.0
  0
LINE
  5
A829
330
1F
100
AcDbEntity
  8
0
 62
     1
100
AcDbLine
 10
-116.983777457334
 20
332.8019213404484
 30
0.0
 11
-116.983777457334
 21
332.5519213404484
 31
0.0
  0
LINE
  5
A82A
330
1F
100
AcDbEntity
  8
0
 62
     1
100
AcDbLine
 10
-116.983777457334
 20
332.8019213404484
 30
0.0
 11
-116.733777457334
 21
332.8019213404484
 31
0.0
  0
LINE
  5
A82B
330
1F
100
AcDbEntity
  8
0
 62
     1
100
AcDbLine
 10
-116.733777457334
 20
332.5519213404484
 30
0.0
 11
-116.6337774573355
 21
332.5519213404484
 31
0.0
  0
LINE
  5
A82C
330
1F
100
AcDbEntity
  8
0
 48
0.15
100
AcDbLine
 10
-118.1837774573347
 20
332.5519213404484
 30
0.0
 11
-117.1587774573351
 21
332.5519213404484
 31
0.0
  0
LINE
  5
A82D
330
1F
100
AcDbEntity
  8
A2 Hatch
  6
DASHED2
 48
0.15
100
AcDbLine
 10
-118.3937774573348
 20
333.0519213404484
 30
0.0
 11
-118.3937774573339
 21
320.5519213404484
 31
0.0
  0
LINE
  5
A82E
330
1F
100
AcDbEntity
  8
A2 Hatch
  6
DASHED2
 48
0.15
100
AcDbLine
 10
-116.9487774573342
 20
333.0519213404484
 30
0.0
 11
-116.9487774573342
 21
320.5519213404484
 31
0.0
  0
LINE
  5
A82F
330
1F
100
AcDbEntity
  8
0
 62
     1
100
AcDbLine
 10
-118.233777457334
 20
333.0519213404484
 30
0.0
 11
-118.233777457334
 21
320.5519213404484
 31
0.0
  0
LINE
  5
A830
330
1F
100
AcDbEntity
  8
0
 62
     1
100
AcDbLine
 10
-117.108777457334
 20
333.0519213404484
 30
0.0
 11
-117.108777457334
 21
320.5519213404484
 31
0.0
  0
LINE
  5
A831
330
1F
100
AcDbEntity
  8
0
 62
     1
100
AcDbLine
 10
-117.108777457334
 20
332.5519213404484
 30
0.0
 11
-118.233777457334
 21
332.5519213404484
 31
0.0
  0
LINE
  5
A832
330
1F
100
AcDbEntity
  8
0
 62
     1
100
AcDbLine
 10
-116.5337774573351
 20
321.0519213404483
 30
0.0
 11
-116.5337774573351
 21
320.5519213404484
 31
0.0
  0
LINE
  5
A833
330
1F
100
AcDbEntity
  8
0
  6
HIDDEN
 62
     1
 48
0.02
100
AcDbLine
 10
-118.8087774573348
 20
321.0519213404483
 30
0.0
 11
-118.1837774573347
 21
321.0519213404483
 31
0.0
  0
LINE
  5
A834
330
1F
100
AcDbEntity
  8
0
  6
HIDDEN
 62
     1
 48
0.02
100
AcDbLine
 10
-118.8087774573348
 20
321.0519213404483
 30
0.0
 11
-118.8087774573348
 21
320.5519213404484
 31
0.0
  0
LINE
  5
A835
330
1F
100
AcDbEntity
  8
0
  6
HIDDEN
 62
     1
 48
0.02
100
AcDbLine
 10
-117.1587774573351
 20
321.0519213404483
 30
0.0
 11
-117.1587774573351
 21
320.5519213404484
 31
0.0
  0
LINE
  5
A836
330
1F
100
AcDbEntity
  8
0
  6
HIDDEN
 62
     1
 48
0.02
100
AcDbLine
 10
-118.1837774573347
 20
321.0519213404483
 30
0.0
 11
-118.1837774573338
 21
320.5519213404484
 31
0.0
  0
LINE
  5
A837
330
1F
100
AcDbEntity
  8
0
  6
HIDDEN
 62
     1
 48
0.02
100
AcDbLine
 10
-117.1587774573351
 20
321.0519213404483
 30
0.0
 11
-116.5337774573351
 21
321.0519213404483
 31
0.0
  0
ARC
  5
A838
330
1F
100
AcDbEntity
  8
DETAILS
 62
     6
370
    20
100
AcDbCircle
 10
-116.5337774573351
 20
324.7151995623009
 30
0.0
 40
0.0999999999999136
100
AcDbArc
 50
179.9999999996873
 51
209.744881296592
  0
LINE
  5
A839
330
1F
100
AcDbEntity
  8
DETAILS
 62
     6
370
    20
100
AcDbLine
 10
-116.6337774573355
 20
326.8019213404484
 30
0.0
 11
-110.233777457334
 21
326.8019213404484
 31
0.0
  0
LINE
  5
A83A
330
1F
100
AcDbEntity
  8
0
 62
     1
100
AcDbLine
 10
-107.7087774573344
 20
332.5519213404484
 30
0.0
 11
-107.7087774573344
 21
320.5519213404484
 31
0.0
  0
LINE
  5
A83B
330
1F
100
AcDbEntity
  8
0
 62
     1
100
AcDbLine
 10
-110.3337774573353
 20
333.0519213404484
 30
0.0
 11
-110.3337774573344
 21
320.5519213404484
 31
0.0
  0
LINE
  5
A83C
330
1F
100
AcDbEntity
  8
0
 62
     1
100
AcDbLine
 10
-108.0587774573347
 20
333.0519213404484
 30
0.0
 11
-108.0587774573347
 21
332.5519213404484
 31
0.0
  0
LINE
  5
A83D
330
1F
100
AcDbEntity
  8
0
 62
     1
100
AcDbLine
 10
-109.7087774573353
 20
333.0519213404484
 30
0.0
 11
-109.7087774573353
 21
332.5519213404484
 31
0.0
  0
LINE
  5
A83E
330
1F
100
AcDbEntity
  8
0
 62
     1
100
AcDbLine
 10
-108.6837774573347
 20
333.0519213404484
 30
0.0
 11
-108.6837774573347
 21
332.5519213404484
 31
0.0
  0
LINE
  5
A83F
330
1F
100
AcDbEntity
  8
0
 62
     1
100
AcDbLine
 10
-110.3337774573344
 20
333.0519213404484
 30
0.0
 11
-109.7087774573344
 21
333.0519213404484
 31
0.0
  0
LINE
  5
A840
330
1F
100
AcDbEntity
  8
0
 62
     1
100
AcDbLine
 10
-108.6837774573347
 20
333.0519213404484
 30
0.0
 11
-108.0587774573347
 21
333.0519213404484
 31
0.0
  0
LINE
  5
A841
330
1F
100
AcDbEntity
  8
0
 62
     1
100
AcDbLine
 10
-110.1337774573346
 20
332.8019213404484
 30
0.0
 11
-110.1337774573346
 21
320.5519213404484
 31
0.0
  0
LINE
  5
A842
330
1F
100
AcDbEntity
  8
0
 62
     1
100
AcDbLine
 10
-109.8837774573346
 20
332.8019213404484
 30
0.0
 11
-109.8837774573346
 21
332.5519213404484
 31
0.0
  0
LINE
  5
A843
330
1F
100
AcDbEntity
  8
0
 62
     1
100
AcDbLine
 10
-110.1337774573346
 20
332.8019213404484
 30
0.0
 11
-109.8837774573346
 21
332.8019213404484
 31
0.0
  0
LINE
  5
A844
330
1F
100
AcDbEntity
  8
0
 62
     1
100
AcDbLine
 10
-109.9187774573344
 20
332.5519213404484
 30
0.0
 11
-107.7087774573344
 21
332.5519213404484
 31
0.0
  0
LINE
  5
A845
330
1F
100
AcDbEntity
  8
0
 62
     1
100
AcDbLine
 10
-109.9187774573344
 20
332.5519213404484
 30
0.0
 11
-109.9187774573344
 21
320.5519213404484
 31
0.0
  0
LINE
  5
A846
330
1F
100
AcDbEntity
  8
0
 62
     1
100
AcDbLine
 10
-108.4737774573338
 20
332.5519213404484
 30
0.0
 11
-108.4737774573338
 21
320.5519213404484
 31
0.0
  0
LINE
  5
A847
330
1F
100
AcDbEntity
  8
A2 Hatch
  6
DASHED2
 48
0.15
100
AcDbLine
 10
-109.7587774573337
 20
332.5519213404484
 30
0.0
 11
-109.7587774573337
 21
320.5519213404484
 31
0.0
  0
LINE
  5
A848
330
1F
100
AcDbEntity
  8
A2 Hatch
  6
DASHED2
 48
0.15
100
AcDbLine
 10
-108.6337774573337
 20
332.5519213404484
 30
0.0
 11
-108.6337774573337
 21
320.5519213404484
 31
0.0
  0
LINE
  5
A849
330
1F
100
AcDbEntity
  8
0
 62
     1
100
AcDbLine
 10
-110.233777457334
 20
332.5519213404484
 30
0.0
 11
-110.1337774573346
 21
332.5519213404484
 31
0.0
  0
LINE
  5
A84A
330
1F
100
AcDbEntity
  8
0
 62
     1
100
AcDbLine
 10
-110.3337774573344
 20
320.5519213404484
 30
0.0
 11
-107.7087774573344
 21
320.5519213404484
 31
0.0
  0
LINE
  5
A84B
330
1F
100
AcDbEntity
  8
0
 62
     1
100
AcDbLine
 10
-110.3337774573335
 20
321.0519213404488
 30
0.0
 11
-110.3337774573326
 21
320.5519213404484
 31
0.0
  0
LINE
  5
A84C
330
1F
100
AcDbEntity
  8
0
  6
HIDDEN
 62
     1
 48
0.02
100
AcDbLine
 10
-108.0587774573329
 20
321.0519213404483
 30
0.0
 11
-108.0587774573329
 21
320.5519213404484
 31
0.0
  0
LINE
  5
A84D
330
1F
100
AcDbEntity
  8
0
  6
HIDDEN
 62
     1
 48
0.02
100
AcDbLine
 10
-109.7087774573335
 20
321.0519213404488
 30
0.0
 11
-109.7087774573335
 21
320.5519213404488
 31
0.0
  0
LINE
  5
A84E
330
1F
100
AcDbEntity
  8
0
  6
HIDDEN
 62
     1
 48
0.02
100
AcDbLine
 10
-108.6837774573329
 20
321.0519213404483
 30
0.0
 11
-108.6837774573329
 21
320.5519213404484
 31
0.0
  0
LINE
  5
A84F
330
1F
100
AcDbEntity
  8
0
  6
HIDDEN
 62
     1
 48
0.02
100
AcDbLine
 10
-110.3337774573326
 20
321.0519213404483
 30
0.0
 11
-109.7087774573326
 21
321.0519213404488
 31
0.0
  0
LINE
  5
A850
330
1F
100
AcDbEntity
  8
0
  6
HIDDEN
 62
     1
 48
0.02
100
AcDbLine
 10
-108.6837774573329
 20
321.0519213404483
 30
0.0
 11
-108.0587774573329
 21
321.0519213404483
 31
0.0
  0
LINE
  5
A851
330
1F
100
AcDbEntity
  8
0
  6
HIDDEN
 62
     1
 48
0.02
100
AcDbLine
 10
-110.1337774573327
 20
320.8019213404484
 30
0.0
 11
-110.1337774573318
 21
320.5519213404484
 31
0.0
  0
LINE
  5
A852
330
1F
100
AcDbEntity
  8
0
  6
HIDDEN
 62
     1
 48
0.02
100
AcDbLine
 10
-109.8837774573327
 20
320.8019213404484
 30
0.0
 11
-109.8837774573327
 21
320.5519213404484
 31
0.0
  0
LINE
  5
A853
330
1F
100
AcDbEntity
  8
0
  6
HIDDEN
 62
     1
 48
0.02
100
AcDbLine
 10
-110.1337774573327
 20
320.8019213404484
 30
0.0
 11
-109.8837774573327
 21
320.8019213404484
 31
0.0
  0
LINE
  5
A854
330
1F
100
AcDbEntity
  8
DETAILS
 62
     6
370
    20
100
AcDbLine
 10
-116.6337774573346
 20
332.1769213404484
 30
0.0
 11
-116.6337774573355
 21
321.4791750490742
 31
0.0
  0
LINE
  5
A855
330
1F
100
AcDbEntity
  8
DETAILS
 62
     6
370
    20
100
AcDbLine
 10
-115.9587774573326
 20
327.4219213404482
 30
0.0
 11
-115.4393953334262
 21
327.4219213404482
 31
0.0
  0
ARC
  5
A856
330
1F
100
AcDbEntity
  8
DETAILS
 62
     6
370
    20
100
AcDbCircle
 10
-115.4393953334262
 20
327.5719213404483
 30
0.0
 40
0.1500000000000909
100
AcDbArc
 50
270.0000000001563
 51
43.83086067193338
  0
LINE
  5
A857
330
1F
100
AcDbEntity
  8
DETAILS
 62
     6
370
    20
100
AcDbLine
 10
-115.3311872352721
 20
327.6758011146768
 30
0.0
 11
-115.8505693591784
 21
328.2168241604129
 31
0.0
  0
ARC
  5
A858
330
1F
100
AcDbEntity
  8
DETAILS
 62
     6
370
    20
100
AcDbCircle
 10
-115.9587774573326
 20
328.1129443861843
 30
0.0
 40
0.1499999999999651
100
AcDbArc
 50
43.83086067209803
 51
179.9999999999739
  0
LINE
  5
A859
330
1F
100
AcDbEntity
  8
DETAILS
 62
     6
370
    20
100
AcDbLine
 10
-116.1087774573322
 20
328.1129443861843
 30
0.0
 11
-116.1087774573331
 21
327.5719213404483
 31
0.0
  0
ARC
  5
A85A
330
1F
100
AcDbEntity
  8
DETAILS
 62
     6
370
    20
100
AcDbCircle
 10
-115.9587774573335
 20
327.5719213404483
 30
0.0
 40
0.1499999999996362
100
AcDbArc
 50
179.9999999999479
 51
270.0000000001563
  0
LINE
  5
A85B
330
1F
100
AcDbEntity
  8
DETAILS
 62
     6
370
    20
100
AcDbLine
 10
-116.1087774573331
 20
326.0519213404484
 30
0.0
 11
-116.1087774573322
 21
325.5108982947124
 31
0.0
  0
ARC
  5
A85C
330
1F
100
AcDbEntity
  8
DETAILS
 62
     6
370
    20
100
AcDbCircle
 10
-115.9587774573326
 20
325.5108982947124
 30
0.0
 40
0.1500000000000909
100
AcDbArc
 50
180.000000000026
 51
316.169139327902
  0
LINE
  5
A85D
330
1F
100
AcDbEntity
  8
DETAILS
 62
     6
370
    20
100
AcDbLine
 10
-115.8505693591784
 20
325.4070185204839
 30
0.0
 11
-115.3311872352721
 21
325.9480415662203
 31
0.0
  0
ARC
  5
A85E
330
1F
100
AcDbEntity
  8
DETAILS
 62
     6
370
    20
100
AcDbCircle
 10
-115.4393953334262
 20
326.0519213404484
 30
0.0
 40
0.1500000000001751
100
AcDbArc
 50
316.1691393280666
 51
89.99999999984366
  0
LINE
  5
A85F
330
1F
100
AcDbEntity
  8
DETAILS
 62
     6
370
    20
100
AcDbLine
 10
-115.4393953334262
 20
326.2019213404485
 30
0.0
 11
-115.9587774573326
 21
326.2019213404485
 31
0.0
  0
ARC
  5
A860
330
1F
100
AcDbEntity
  8
DETAILS
 62
     6
370
    20
100
AcDbCircle
 10
-115.9587774573335
 20
326.0519213404488
 30
0.0
 40
0.1499999999998636
100
AcDbArc
 50
89.99999999984366
 51
180.0000000000521
  0
LINE
  5
A861
330
1F
100
AcDbEntity
  8
DETAILS
 62
     6
370
    20
100
AcDbLine
 10
-115.9587774573326
 20
327.4719213404484
 30
0.0
 11
-115.4393953334262
 21
327.4719213404484
 31
0.0
  0
ARC
  5
A862
330
1F
100
AcDbEntity
  8
DETAILS
 62
     6
370
    20
100
AcDbCircle
 10
-115.4393953334262
 20
327.5719213404483
 30
0.0
 40
0.1000000000000227
100
AcDbArc
 50
270.0
 51
43.83086067200706
  0
LINE
  5
A863
330
1F
100
AcDbEntity
  8
DETAILS
 62
     6
370
    20
100
AcDbLine
 10
-115.3672566013235
 20
327.6411745232674
 30
0.0
 11
-115.8866387252298
 21
328.1821975690033
 31
0.0
  0
ARC
  5
A864
330
1F
100
AcDbEntity
  8
DETAILS
 62
     6
370
    20
100
AcDbCircle
 10
-115.9587774573326
 20
328.1129443861843
 30
0.0
 40
0.1000000000001123
100
AcDbArc
 50
43.83086067206119
 51
180.0
  0
LINE
  5
A865
330
1F
100
AcDbEntity
  8
DETAILS
 62
     6
370
    20
100
AcDbLine
 10
-116.0587774573329
 20
328.1129443861843
 30
0.0
 11
-116.0587774573329
 21
327.5719213404483
 31
0.0
  0
ARC
  5
A866
330
1F
100
AcDbEntity
  8
DETAILS
 62
     6
370
    20
100
AcDbCircle
 10
-115.9587774573326
 20
327.5719213404483
 30
0.0
 40
0.1000000000003638
100
AcDbArc
 50
180.0000000001302
 51
269.9999999997394
  0
LINE
  5
A867
330
1F
100
AcDbEntity
  8
DETAILS
 62
     6
370
    20
100
AcDbLine
 10
-116.0587774573329
 20
326.0519213404484
 30
0.0
 11
-116.0587774573329
 21
325.5108982947124
 31
0.0
  0
ARC
  5
A868
330
1F
100
AcDbEntity
  8
DETAILS
 62
     6
370
    20
100
AcDbCircle
 10
-115.9587774573326
 20
325.5108982947124
 30
0.0
 40
0.0999999999999091
100
AcDbArc
 50
179.9999999999739
 51
316.169139327993
  0
LINE
  5
A869
330
1F
100
AcDbEntity
  8
DETAILS
 62
     6
370
    20
100
AcDbLine
 10
-115.8866387252298
 20
325.4416451118934
 30
0.0
 11
-115.3672566013235
 21
325.9826681576293
 31
0.0
  0
ARC
  5
A86A
330
1F
100
AcDbEntity
  8
DETAILS
 62
     6
370
    20
100
AcDbCircle
 10
-115.4393953334262
 20
326.0519213404484
 30
0.0
 40
0.1000000000000336
100
AcDbArc
 50
316.169139327993
 51
90.0
  0
LINE
  5
A86B
330
1F
100
AcDbEntity
  8
DETAILS
 62
     6
370
    20
100
AcDbLine
 10
-115.4393953334262
 20
326.1519213404483
 30
0.0
 11
-115.9587774573326
 21
326.1519213404483
 31
0.0
  0
ARC
  5
A86C
330
1F
100
AcDbEntity
  8
DETAILS
 62
     6
370
    20
100
AcDbCircle
 10
-115.9587774573326
 20
326.0519213404484
 30
0.0
 40
0.1000000000001364
100
AcDbArc
 50
90.00000000026055
 51
179.9999999998697
  0
LINE
  5
A86D
330
1F
100
AcDbEntity
  8
DETAILS
 62
     6
370
    20
100
AcDbLine
 10
-110.2337774573349
 20
332.1769213404484
 30
0.0
 11
-110.233777457334
 21
321.4791750490742
 31
0.0
  0
LINE
  5
A86E
330
1F
100
AcDbEntity
  8
DETAILS
 62
     6
370
    20
100
AcDbLine
 10
-110.7587774573364
 20
327.5719213404483
 30
0.0
 11
-110.7587774573373
 21
328.1129443861843
 31
0.0
  0
ARC
  5
A86F
330
1F
100
AcDbEntity
  8
DETAILS
 62
     6
370
    20
100
AcDbCircle
 10
-110.9087774573369
 20
328.1129443861843
 30
0.0
 40
0.1500000000000909
100
AcDbArc
 50
0.0000000000260551
 51
136.169139327902
  0
LINE
  5
A870
330
1F
100
AcDbEntity
  8
DETAILS
 62
     6
370
    20
100
AcDbLine
 10
-111.0169855554911
 20
328.2168241604129
 30
0.0
 11
-111.5363676793974
 21
327.6758011146768
 31
0.0
  0
ARC
  5
A871
330
1F
100
AcDbEntity
  8
DETAILS
 62
     6
370
    20
100
AcDbCircle
 10
-111.4281595812433
 20
327.5719213404483
 30
0.0
 40
0.1500000000001751
100
AcDbArc
 50
136.1691393280666
 51
269.9999999998437
  0
LINE
  5
A872
330
1F
100
AcDbEntity
  8
DETAILS
 62
     6
370
    20
100
AcDbLine
 10
-111.4281595812433
 20
327.4219213404482
 30
0.0
 11
-110.9087774573369
 21
327.4219213404482
 31
0.0
  0
ARC
  5
A873
330
1F
100
AcDbEntity
  8
DETAILS
 62
     6
370
    20
100
AcDbCircle
 10
-110.908777457336
 20
327.5719213404483
 30
0.0
 40
0.1499999999998067
100
AcDbArc
 50
269.9999999998437
 51
0.0000000000781653
  0
LINE
  5
A874
330
1F
100
AcDbEntity
  8
DETAILS
 62
     6
370
    20
100
AcDbLine
 10
-110.9087774573369
 20
326.2019213404485
 30
0.0
 11
-111.4281595812433
 21
326.2019213404485
 31
0.0
  0
ARC
  5
A875
330
1F
100
AcDbEntity
  8
DETAILS
 62
     6
370
    20
100
AcDbCircle
 10
-111.4281595812433
 20
326.0519213404484
 30
0.0
 40
0.1500000000001478
100
AcDbArc
 50
90.00000000015633
 51
223.8308606719334
  0
LINE
  5
A876
330
1F
100
AcDbEntity
  8
DETAILS
 62
     6
370
    20
100
AcDbLine
 10
-111.5363676793974
 20
325.9480415662203
 30
0.0
 11
-111.0169855554911
 21
325.4070185204839
 31
0.0
  0
ARC
  5
A877
330
1F
100
AcDbEntity
  8
DETAILS
 62
     6
370
    20
100
AcDbCircle
 10
-110.9087774573369
 20
325.5108982947124
 30
0.0
 40
0.1499999999999651
100
AcDbArc
 50
223.830860672098
 51
359.999999999974
  0
LINE
  5
A878
330
1F
100
AcDbEntity
  8
DETAILS
 62
     6
370
    20
100
AcDbLine
 10
-110.7587774573373
 20
325.5108982947124
 30
0.0
 11
-110.7587774573364
 21
326.0519213404484
 31
0.0
  0
ARC
  5
A879
330
1F
100
AcDbEntity
  8
DETAILS
 62
     6
370
    20
100
AcDbCircle
 10
-110.908777457336
 20
326.0519213404488
 30
0.0
 40
0.1499999999996362
100
AcDbArc
 50
359.9999999999218
 51
90.00000000015633
  0
ARC
  5
A87A
330
1F
100
AcDbEntity
  8
DETAILS
 62
     6
370
    20
100
AcDbCircle
 10
-114.9588683596
 20
325.2969213404483
 30
0.0
 40
0.010000000000022
100
AcDbArc
 50
97.40989078445327
 51
262.5901092155467
  0
LINE
  5
A87B
330
1F
100
AcDbEntity
  8
DETAILS
 62
     6
370
    20
100
AcDbLine
 10
-114.9601580274363
 20
325.2870048513079
 30
0.0
 11
-114.804047937832
 21
325.2719213404482
 31
0.0
  0
LINE
  5
A87C
330
1F
100
AcDbEntity
  8
DETAILS
 62
     6
370
    20
100
AcDbLine
 10
-114.804047937832
 20
325.2719213404482
 30
0.0
 11
-113.4337774573348
 21
325.2719213404482
 31
0.0
  0
LINE
  5
A87D
330
1F
100
AcDbEntity
  8
DETAILS
 62
     6
370
    20
100
AcDbLine
 10
-113.4337774573348
 20
325.2719213404482
 30
0.0
 11
-112.0635069768374
 21
325.2719213404482
 31
0.0
  0
LINE
  5
A87E
330
1F
100
AcDbEntity
  8
DETAILS
 62
     6
370
    20
100
AcDbLine
 10
-112.0635069768374
 20
325.2719213404482
 30
0.0
 11
-111.9073968872332
 21
325.2870048513079
 31
0.0
  0
ARC
  5
A87F
330
1F
100
AcDbEntity
  8
DETAILS
 62
     6
370
    20
100
AcDbCircle
 10
-111.9086865550695
 20
325.2969213404483
 30
0.0
 40
0.0099999999999656
100
AcDbArc
 50
277.4098907844532
 51
82.59010921554674
  0
LINE
  5
A880
330
1F
100
AcDbEntity
  8
DETAILS
 62
     6
370
    20
100
AcDbLine
 10
-111.9073968872332
 20
325.3068378295886
 30
0.0
 11
-112.0635069768365
 21
325.3219213404483
 31
0.0
  0
LINE
  5
A881
330
1F
100
AcDbEntity
  8
DETAILS
 62
     6
370
    20
100
AcDbLine
 10
-112.0635069768365
 20
325.3219213404483
 30
0.0
 11
-113.4337774573348
 21
325.3219213404483
 31
0.0
  0
LINE
  5
A882
330
1F
100
AcDbEntity
  8
DETAILS
 62
     6
370
    20
100
AcDbLine
 10
-113.4337774573348
 20
325.3219213404483
 30
0.0
 11
-114.804047937833
 21
325.3219213404483
 31
0.0
  0
LINE
  5
A883
330
1F
100
AcDbEntity
  8
DETAILS
 62
     6
370
    20
100
AcDbLine
 10
-114.804047937833
 20
325.3219213404483
 30
0.0
 11
-114.9601580274363
 21
325.3068378295886
 31
0.0
  0
ARC
  5
A884
330
1F
100
AcDbEntity
  8
DETAILS
 62
     6
370
    20
100
AcDbCircle
 10
-111.5513992449457
 20
329.0319213404484
 30
0.0
 40
0.1000000000001364
100
AcDbArc
 50
270.0000000002606
 51
316.1691393281415
  0
LINE
  5
A885
330
1F
100
AcDbEntity
  8
DETAILS
 62
     6
370
    20
100
AcDbLine
 10
-111.4792605128429
 20
328.9626681576294
 30
0.0
 11
-110.361638725232
 21
330.1528991863894
 31
0.0
  0
ARC
  5
A886
330
1F
100
AcDbEntity
  8
DETAILS
 62
     6
370
    20
100
AcDbCircle
 10
-110.4337774573348
 20
330.2221523692089
 30
0.0
 40
0.0999999999994431
100
AcDbArc
 50
316.1691393272028
 51
359.9999999992444
  0
ARC
  5
A887
330
1F
100
AcDbEntity
  8
DETAILS
 62
     6
370
    20
100
AcDbCircle
 10
-116.4337843370228
 20
330.2221523692076
 30
0.0
 40
0.0999999999999091
100
AcDbArc
 50
179.9999999998697
 51
223.8308606719887
  0
LINE
  5
A888
330
1F
100
AcDbEntity
  8
DETAILS
 62
     6
370
    20
100
AcDbLine
 10
-116.5059230691265
 20
330.1528991863885
 30
0.0
 11
-115.3882944018266
 21
328.9626681576294
 31
0.0
  0
ARC
  5
A889
330
1F
100
AcDbEntity
  8
DETAILS
 62
     6
370
    20
100
AcDbCircle
 10
-115.3161556697238
 20
329.0319213404484
 30
0.0
 40
0.1000000000001911
100
AcDbArc
 50
223.8308606721337
 51
270.0
  0
LINE
  5
A88A
330
1F
100
AcDbEntity
  8
DETAILS
 62
     6
370
    20
100
AcDbLine
 10
-115.3161556697238
 20
328.9319213404485
 30
0.0
 11
-115.3087774573338
 21
328.9319213404485
 31
0.0
  0
LINE
  5
A88B
330
1F
100
AcDbEntity
  8
DETAILS
 62
     6
370
    20
100
AcDbLine
 10
-115.3087774573338
 20
328.9319213404485
 30
0.0
 11
-115.3087774573329
 21
328.8819213404483
 31
0.0
  0
LINE
  5
A88C
330
1F
100
AcDbEntity
  8
DETAILS
 62
     6
370
    20
100
AcDbLine
 10
-115.3087774573329
 20
328.8819213404483
 30
0.0
 11
-115.2087774573326
 21
328.8819213404488
 31
0.0
  0
ARC
  5
A88D
330
1F
100
AcDbEntity
  8
DETAILS
 62
     6
370
    20
100
AcDbCircle
 10
-115.2087774573326
 20
328.8319213404486
 30
0.0
 40
0.0500000000001819
100
AcDbArc
 50
359.9999999998697
 51
90.0
  0
LINE
  5
A88E
330
1F
100
AcDbEntity
  8
DETAILS
 62
     6
370
    20
100
AcDbLine
 10
-115.1587774573333
 20
328.8319213404481
 30
0.0
 11
-115.1587774573333
 21
328.7769213404483
 31
0.0
  0
ARC
  5
A88F
330
1F
100
AcDbEntity
  8
DETAILS
 62
     6
370
    20
100
AcDbCircle
 10
-114.733777457334
 20
328.7769213404483
 30
0.0
 40
0.4250000000001819
100
AcDbArc
 50
179.9999999999739
 51
359.999999999974
  0
LINE
  5
A890
330
1F
100
AcDbEntity
  8
DETAILS
 62
     6
370
    20
100
AcDbLine
 10
-114.3087774573329
 20
328.7769213404483
 30
0.0
 11
-114.3087774573338
 21
328.8319213404486
 31
0.0
  0
ARC
  5
A891
330
1F
100
AcDbEntity
  8
DETAILS
 62
     6
370
    20
100
AcDbCircle
 10
-114.2587774573337
 20
328.8319213404481
 30
0.0
 40
0.0500000000001819
100
AcDbArc
 50
90.0
 51
179.9999999996613
  0
LINE
  5
A892
330
1F
100
AcDbEntity
  8
DETAILS
 62
     6
370
    20
100
AcDbLine
 10
-114.2587774573337
 20
328.8819213404483
 30
0.0
 11
-113.9087774573342
 21
328.8819213404488
 31
0.0
  0
ARC
  5
A893
330
1F
100
AcDbEntity
  8
DETAILS
 62
     6
370
    20
100
AcDbCircle
 10
-113.9087774573342
 20
328.8319213404486
 30
0.0
 40
0.0500000000001819
100
AcDbArc
 50
359.9999999998697
 51
90.0
  0
LINE
  5
A894
330
1F
100
AcDbEntity
  8
DETAILS
 62
     6
370
    20
100
AcDbLine
 10
-113.858777457334
 20
328.8319213404481
 30
0.0
 11
-113.858777457334
 21
328.7769213404455
 31
0.0
  0
ARC
  5
A895
330
1F
100
AcDbEntity
  8
DETAILS
 62
     6
370
    20
100
AcDbCircle
 10
-113.4337774573348
 20
328.7769213404455
 30
0.0
 40
0.4250000000001819
100
AcDbArc
 50
180.0
 51
270.0
  0
ARC
  5
A896
330
1F
100
AcDbEntity
  8
DETAILS
 62
     6
370
    20
100
AcDbCircle
 10
-113.4337774573348
 20
328.7769213404451
 30
0.0
 40
0.4249999999997272
100
AcDbArc
 50
270.0000000000521
 51
0.0000000000521102
  0
LINE
  5
A897
330
1F
100
AcDbEntity
  8
DETAILS
 62
     6
370
    20
100
AcDbLine
 10
-113.0087774573355
 20
328.7769213404455
 30
0.0
 11
-113.0087774573355
 21
328.8319213404481
 31
0.0
  0
ARC
  5
A898
330
1F
100
AcDbEntity
  8
DETAILS
 62
     6
370
    20
100
AcDbCircle
 10
-112.9587774573353
 20
328.8319213404481
 30
0.0
 40
0.0500000000001819
100
AcDbArc
 50
90.0
 51
180.0
  0
LINE
  5
A899
330
1F
100
AcDbEntity
  8
DETAILS
 62
     6
370
    20
100
AcDbLine
 10
-112.9587774573353
 20
328.8819213404483
 30
0.0
 11
-112.6087774573358
 21
328.8819213404488
 31
0.0
  0
ARC
  5
A89A
330
1F
100
AcDbEntity
  8
DETAILS
 62
     6
370
    20
100
AcDbCircle
 10
-112.6087774573358
 20
328.8319213404486
 30
0.0
 40
0.0500000000001819
100
AcDbArc
 50
0.000000000260551
 51
90.0
  0
LINE
  5
A89B
330
1F
100
AcDbEntity
  8
DETAILS
 62
     6
370
    20
100
AcDbLine
 10
-112.5587774573357
 20
328.8319213404486
 30
0.0
 11
-112.5587774573348
 21
328.7769213404483
 31
0.0
  0
ARC
  5
A89C
330
1F
100
AcDbEntity
  8
DETAILS
 62
     6
370
    20
100
AcDbCircle
 10
-112.1337774573355
 20
328.7769213404483
 30
0.0
 40
0.4249999999997272
100
AcDbArc
 50
180.000000000026
 51
0.0000000000260551
  0
LINE
  5
A89D
330
1F
100
AcDbEntity
  8
DETAILS
 62
     6
370
    20
100
AcDbLine
 10
-111.7087774573362
 20
328.7769213404483
 30
0.0
 11
-111.7087774573362
 21
328.8319213404481
 31
0.0
  0
ARC
  5
A89E
330
1F
100
AcDbEntity
  8
DETAILS
 62
     6
370
    20
100
AcDbCircle
 10
-111.6587774573369
 20
328.8319213404481
 30
0.0
 40
0.0500000000001819
100
AcDbArc
 50
90.0
 51
180.0
  0
LINE
  5
A89F
330
1F
100
AcDbEntity
  8
DETAILS
 62
     6
370
    20
100
AcDbLine
 10
-111.6587774573369
 20
328.8819213404483
 30
0.0
 11
-111.5587774573357
 21
328.8819213404483
 31
0.0
  0
LINE
  5
A8A0
330
1F
100
AcDbEntity
  8
DETAILS
 62
     6
370
    20
100
AcDbLine
 10
-111.5587774573357
 20
328.8819213404483
 30
0.0
 11
-111.5587774573357
 21
328.9319213404485
 31
0.0
  0
LINE
  5
A8A1
330
1F
100
AcDbEntity
  8
DETAILS
 62
     6
370
    20
100
AcDbLine
 10
-111.5587774573357
 20
328.9319213404485
 30
0.0
 11
-111.5513992449457
 21
328.9319213404485
 31
0.0
  0
LINE
  5
A8A2
330
1F
100
AcDbEntity
  8
DETAILS
 62
     6
370
    20
100
AcDbLine
 10
-111.5513992449457
 20
328.9319213404485
 30
0.0
 11
-111.7087774573362
 21
328.9319213404485
 31
0.0
  0
ARC
  5
A8A3
330
1F
100
AcDbEntity
  8
DETAILS
 62
     6
370
    20
100
AcDbCircle
 10
-111.7087774573362
 20
328.8819213404483
 30
0.0
 40
0.0500000000001819
100
AcDbArc
 50
90.0
 51
179.9999999998697
  0
LINE
  5
A8A4
330
1F
100
AcDbEntity
  8
DETAILS
 62
     6
370
    20
100
AcDbLine
 10
-111.7587774573364
 20
328.8819213404483
 30
0.0
 11
-111.7587774573355
 21
328.7769213404483
 31
0.0
  0
ARC
  5
A8A5
330
1F
100
AcDbEntity
  8
DETAILS
 62
     6
370
    20
100
AcDbCircle
 10
-112.1337774573355
 20
328.7769213404483
 30
0.0
 40
0.375
100
AcDbArc
 50
180.0
 51
0.0
  0
LINE
  5
A8A6
330
1F
100
AcDbEntity
  8
DETAILS
 62
     6
370
    20
100
AcDbLine
 10
-112.5087774573355
 20
328.7769213404483
 30
0.0
 11
-112.5087774573355
 21
328.8819213404483
 31
0.0
  0
ARC
  5
A8A7
330
1F
100
AcDbEntity
  8
DETAILS
 62
     6
370
    20
100
AcDbCircle
 10
-112.5587774573366
 20
328.8819213404483
 30
0.0
 40
0.0500000000001819
100
AcDbArc
 50
0.0000000001302755
 51
90.0
  0
LINE
  5
A8A8
330
1F
100
AcDbEntity
  8
DETAILS
 62
     6
370
    20
100
AcDbLine
 10
-112.5587774573366
 20
328.9319213404485
 30
0.0
 11
-113.0087774573355
 21
328.9319213404485
 31
0.0
  0
ARC
  5
A8A9
330
1F
100
AcDbEntity
  8
DETAILS
 62
     6
370
    20
100
AcDbCircle
 10
-113.0087774573355
 20
328.8819213404483
 30
0.0
 40
0.0500000000001251
100
AcDbArc
 50
90.0
 51
179.9999999998697
  0
LINE
  5
A8AA
330
1F
100
AcDbEntity
  8
DETAILS
 62
     6
370
    20
100
AcDbLine
 10
-113.0587774573366
 20
328.8819213404483
 30
0.0
 11
-113.0587774573347
 21
328.7769213404455
 31
0.0
  0
ARC
  5
A8AB
330
1F
100
AcDbEntity
  8
DETAILS
 62
     6
370
    20
100
AcDbCircle
 10
-113.4337774573348
 20
328.7769213404451
 30
0.0
 40
0.3749999999995452
100
AcDbArc
 50
270.0000000000521
 51
0.0000000000521102
  0
ARC
  5
A8AC
330
1F
100
AcDbEntity
  8
DETAILS
 62
     6
370
    20
100
AcDbCircle
 10
-113.4337774573338
 20
328.7769213404455
 30
0.0
 40
0.3749999999998295
100
AcDbArc
 50
180.0
 51
269.9999999999479
  0
LINE
  5
A8AD
330
1F
100
AcDbEntity
  8
DETAILS
 62
     6
370
    20
100
AcDbLine
 10
-113.8087774573338
 20
328.7769213404455
 30
0.0
 11
-113.8087774573329
 21
328.8819213404483
 31
0.0
  0
ARC
  5
A8AE
330
1F
100
AcDbEntity
  8
DETAILS
 62
     6
370
    20
100
AcDbCircle
 10
-113.858777457334
 20
328.8819213404483
 30
0.0
 40
0.0500000000001819
100
AcDbArc
 50
0.0000000001302755
 51
90.0
  0
LINE
  5
A8AF
330
1F
100
AcDbEntity
  8
DETAILS
 62
     6
370
    20
100
AcDbLine
 10
-113.858777457334
 20
328.9319213404485
 30
0.0
 11
-114.3087774573329
 21
328.9319213404485
 31
0.0
  0
ARC
  5
A8B0
330
1F
100
AcDbEntity
  8
DETAILS
 62
     6
370
    20
100
AcDbCircle
 10
-114.3087774573329
 20
328.8819213404483
 30
0.0
 40
0.0500000000001819
100
AcDbArc
 50
90.0
 51
179.9999999998697
  0
LINE
  5
A8B1
330
1F
100
AcDbEntity
  8
DETAILS
 62
     6
370
    20
100
AcDbLine
 10
-114.358777457334
 20
328.8819213404483
 30
0.0
 11
-114.358777457334
 21
328.7769213404483
 31
0.0
  0
ARC
  5
A8B2
330
1F
100
AcDbEntity
  8
DETAILS
 62
     6
370
    20
100
AcDbCircle
 10
-114.7337774573331
 20
328.7769213404483
 30
0.0
 40
0.3749999999995452
100
AcDbArc
 50
179.9999999999739
 51
0.0
  0
LINE
  5
A8B3
330
1F
100
AcDbEntity
  8
DETAILS
 62
     6
370
    20
100
AcDbLine
 10
-115.1087774573331
 20
328.7769213404483
 30
0.0
 11
-115.1087774573331
 21
328.8819213404483
 31
0.0
  0
ARC
  5
A8B4
330
1F
100
AcDbEntity
  8
DETAILS
 62
     6
370
    20
100
AcDbCircle
 10
-115.1587774573333
 20
328.8819213404483
 30
0.0
 40
0.0500000000001819
100
AcDbArc
 50
0.0000000001302755
 51
90.0
  0
LINE
  5
A8B5
330
1F
100
AcDbEntity
  8
DETAILS
 62
     6
370
    20
100
AcDbLine
 10
-115.1587774573333
 20
328.9319213404485
 30
0.0
 11
-115.3161556697238
 21
328.9319213404485
 31
0.0
  0
LINE
  5
A8B6
330
1F
100
AcDbEntity
  8
DETAILS
 62
     6
370
    20
100
AcDbLine
 10
-110.3337774573344
 20
323.4604999842119
 30
0.0
 11
-110.3337774573344
 21
321.4523801298298
 31
0.0
  0
ARC
  5
A8B7
330
1F
100
AcDbEntity
  8
DETAILS
 62
     6
370
    20
100
AcDbCircle
 10
-110.2837774573351
 20
321.4523801298303
 30
0.0
 40
0.0499999999997272
100
AcDbArc
 50
180.0000000004429
 51
210.0000000006396
  0
LINE
  5
A8B8
330
1F
100
AcDbEntity
  8
DETAILS
 62
     6
370
    20
100
AcDbLine
 10
-110.3270787275238
 20
321.4273801298297
 30
0.0
 11
-110.2679923132752
 21
321.3250394583149
 31
0.0
  0
LINE
  5
A8B9
330
1F
100
AcDbEntity
  8
DETAILS
 62
     6
370
    20
100
AcDbLine
 10
-110.2679923132752
 20
321.3250394583149
 30
0.0
 11
-110.1813897728968
 21
321.375039458315
 31
0.0
  0
LINE
  5
A8BA
330
1F
100
AcDbEntity
  8
DETAILS
 62
     6
370
    20
100
AcDbLine
 10
-110.1813897728968
 20
321.375039458315
 30
0.0
 11
-110.2270787275235
 21
321.4541750490746
 31
0.0
  0
ARC
  5
A8BB
330
1F
100
AcDbEntity
  8
DETAILS
 62
     6
370
    20
100
AcDbCircle
 10
-110.1837774573347
 20
321.4791750490746
 30
0.0
 40
0.0499999999997213
100
AcDbArc
 50
180.0000000003126
 51
210.0000000005455
  0
LINE
  5
A8BC
330
1F
100
AcDbEntity
  8
DETAILS
 62
     6
370
    20
100
AcDbLine
 10
-110.233777457334
 20
321.4791750490742
 30
0.0
 11
-110.233777457334
 21
321.5157775894524
 31
0.0
  0
LINE
  5
A8BD
330
1F
100
AcDbEntity
  8
DETAILS
 62
     6
370
    20
100
AcDbLine
 10
-116.6337774573355
 20
321.5157775894524
 30
0.0
 11
-116.6337774573355
 21
321.4791750490742
 31
0.0
  0
ARC
  5
A8BE
330
1F
100
AcDbEntity
  8
DETAILS
 62
     6
370
    20
100
AcDbCircle
 10
-116.6837774573348
 20
321.4791750490746
 30
0.0
 40
0.0499999999997272
100
AcDbArc
 50
329.9999999994545
 51
359.9999999996613
  0
LINE
  5
A8BF
330
1F
100
AcDbEntity
  8
DETAILS
 62
     6
370
    20
100
AcDbLine
 10
-116.640476187146
 20
321.4541750490746
 30
0.0
 11
-116.6861651417736
 21
321.3750394583146
 31
0.0
  0
LINE
  5
A8C0
330
1F
100
AcDbEntity
  8
DETAILS
 62
     6
370
    20
100
AcDbLine
 10
-116.6861651417736
 20
321.3750394583146
 30
0.0
 11
-116.5995626013943
 21
321.3250394583149
 31
0.0
  0
LINE
  5
A8C1
330
1F
100
AcDbEntity
  8
DETAILS
 62
     6
370
    20
100
AcDbLine
 10
-116.5995626013943
 20
321.3250394583149
 30
0.0
 11
-116.5404761871456
 21
321.4273801298297
 31
0.0
  0
ARC
  5
A8C2
330
1F
100
AcDbEntity
  8
DETAILS
 62
     6
370
    20
100
AcDbCircle
 10
-116.5837774573344
 20
321.4523801298303
 30
0.0
 40
0.0499999999997782
100
AcDbArc
 50
329.9999999993604
 51
359.999999999531
  0
LINE
  5
A8C3
330
1F
100
AcDbEntity
  8
DETAILS
 62
     6
370
    20
100
AcDbLine
 10
-116.5337774573351
 20
321.4523801298298
 30
0.0
 11
-116.5337774573351
 21
323.4604999842119
 31
0.0
  0
LINE
  5
A8C4
330
1F
100
AcDbEntity
  8
DETAILS
 62
     6
370
    20
100
AcDbLine
 10
-116.6337774573355
 20
332.1380650914445
 30
0.0
 11
-116.6337774573355
 21
332.1746676318218
 31
0.0
  0
ARC
  5
A8C5
330
1F
100
AcDbEntity
  8
DETAILS
 62
     6
370
    20
100
AcDbCircle
 10
-116.6837774573357
 20
332.1746676318218
 30
0.0
 40
0.0500000000001819
100
AcDbArc
 50
0.0000000004429368
 51
30.00000000045138
  0
LINE
  5
A8C6
330
1F
100
AcDbEntity
  8
DETAILS
 62
     6
370
    20
100
AcDbLine
 10
-116.640476187146
 20
332.1996676318224
 30
0.0
 11
-116.6861651417736
 21
332.2788032225814
 31
0.0
  0
LINE
  5
A8C7
330
1F
100
AcDbEntity
  8
DETAILS
 62
     6
370
    20
100
AcDbLine
 10
-116.6861651417736
 20
332.2788032225814
 30
0.0
 11
-116.5995626013943
 21
332.3288032225812
 31
0.0
  0
LINE
  5
A8C8
330
1F
100
AcDbEntity
  8
DETAILS
 62
     6
370
    20
100
AcDbLine
 10
-116.5995626013943
 20
332.3288032225812
 30
0.0
 11
-116.5404761871466
 21
332.2264625510667
 31
0.0
  0
ARC
  5
A8C9
330
1F
100
AcDbEntity
  8
DETAILS
 62
     6
370
    20
100
AcDbCircle
 10
-116.5837774573353
 20
332.2014625510667
 30
0.0
 40
0.0499999999997213
100
AcDbArc
 50
0.0000000003387164
 51
30.0000000005455
  0
LINE
  5
A8CA
330
1F
100
AcDbEntity
  8
DETAILS
 62
     6
370
    20
100
AcDbLine
 10
-116.5337774573351
 20
332.2014625510667
 30
0.0
 11
-116.5337774573351
 21
330.2221523692076
 31
0.0
  0
LINE
  5
A8CB
330
1F
100
AcDbEntity
  8
DETAILS
 62
     6
370
    20
100
AcDbLine
 10
-116.5337774573351
 20
330.2221523692076
 30
0.0
 11
-116.5337774573351
 21
323.4604999842119
 31
0.0
  0
ARC
  5
A8CC
330
1F
100
AcDbEntity
  8
DETAILS
 62
     6
370
    20
100
AcDbCircle
 10
-116.4337774573347
 20
323.4604999842124
 30
0.0
 40
0.0999999999999091
100
AcDbArc
 50
135.0000000001474
 51
180.0000000001302
  0
LINE
  5
A8CD
330
1F
100
AcDbEntity
  8
DETAILS
 62
     6
370
    20
100
AcDbLine
 10
-116.5044881354539
 20
323.5312106623307
 30
0.0
 11
-114.8527114401556
 21
325.2079873576264
 31
0.0
  0
ARC
  5
A8CE
330
1F
100
AcDbEntity
  8
DETAILS
 62
     6
370
    20
100
AcDbCircle
 10
-114.7466454229776
 20
325.1019213404485
 30
0.0
 40
0.1499999999998163
100
AcDbArc
 50
90.0
 51
135.0000000000184
  0
LINE
  5
A8CF
330
1F
100
AcDbEntity
  8
DETAILS
 62
     6
370
    20
100
AcDbLine
 10
-114.7466454229776
 20
325.2519213404486
 30
0.0
 11
-113.4337774573348
 21
325.2519213404486
 31
0.0
  0
LINE
  5
A8D0
330
1F
100
AcDbEntity
  8
DETAILS
 62
     6
370
    20
100
AcDbLine
 10
-113.4337774573348
 20
325.2519213404486
 30
0.0
 11
-112.1209094916918
 21
325.2519213404486
 31
0.0
  0
ARC
  5
A8D1
330
1F
100
AcDbEntity
  8
DETAILS
 62
     6
370
    20
100
AcDbCircle
 10
-112.1209094916918
 20
325.1019213404485
 30
0.0
 40
0.1499999999998067
100
AcDbArc
 50
44.99999999998157
 51
90.0
  0
LINE
  5
A8D2
330
1F
100
AcDbEntity
  8
DETAILS
 62
     6
370
    20
100
AcDbLine
 10
-112.0148434745139
 20
325.2079873576264
 30
0.0
 11
-110.3630667792155
 21
323.5312106623307
 31
0.0
  0
ARC
  5
A8D3
330
1F
100
AcDbEntity
  8
DETAILS
 62
     6
370
    20
100
AcDbCircle
 10
-110.4337774573338
 20
323.4604999842119
 30
0.0
 40
0.0999999999999044
100
AcDbArc
 50
359.9999999998958
 51
44.99999999985261
  0
LINE
  5
A8D4
330
1F
100
AcDbEntity
  8
DETAILS
 62
     6
370
    20
100
AcDbLine
 10
-110.3337774573344
 20
323.4604999842119
 30
0.0
 11
-110.3337774573344
 21
330.2221523692076
 31
0.0
  0
LINE
  5
A8D5
330
1F
100
AcDbEntity
  8
DETAILS
 62
     6
370
    20
100
AcDbLine
 10
-110.3337774573344
 20
330.2221523692076
 30
0.0
 11
-110.3337774573344
 21
332.2014625510667
 31
0.0
  0
ARC
  5
A8D6
330
1F
100
AcDbEntity
  8
DETAILS
 62
     6
370
    20
100
AcDbCircle
 10
-110.2837774573333
 20
332.2014625510667
 30
0.0
 40
0.0500000000001819
100
AcDbArc
 50
149.9999999997332
 51
179.9999999997394
  0
LINE
  5
A8D7
330
1F
100
AcDbEntity
  8
DETAILS
 62
     6
370
    20
100
AcDbLine
 10
-110.327078727523
 20
332.2264625510667
 30
0.0
 11
-110.2679923132752
 21
332.3288032225812
 31
0.0
  0
LINE
  5
A8D8
330
1F
100
AcDbEntity
  8
DETAILS
 62
     6
370
    20
100
AcDbLine
 10
-110.2679923132752
 20
332.3288032225812
 30
0.0
 11
-110.1813897728959
 21
332.2788032225814
 31
0.0
  0
LINE
  5
A8D9
330
1F
100
AcDbEntity
  8
DETAILS
 62
     6
370
    20
100
AcDbLine
 10
-110.1813897728959
 20
332.2788032225814
 30
0.0
 11
-110.2270787275235
 21
332.1996676318224
 31
0.0
  0
ARC
  5
A8DA
330
1F
100
AcDbEntity
  8
DETAILS
 62
     6
370
    20
100
AcDbCircle
 10
-110.1837774573338
 20
332.1746676318218
 30
0.0
 40
0.0500000000002004
100
AcDbArc
 50
149.9999999995486
 51
179.999999999531
  0
LINE
  5
A8DB
330
1F
100
AcDbEntity
  8
DETAILS
 62
     6
370
    20
100
AcDbLine
 10
-110.233777457334
 20
332.1746676318218
 30
0.0
 11
-110.233777457334
 21
332.1380650914445
 31
0.0
  0
LINE
  5
A8DC
330
1F
100
AcDbEntity
  8
DETAILS
 62
     6
370
    20
100
AcDbLine
 10
-110.8087774573366
 20
327.5719213404483
 30
0.0
 11
-110.8087774573366
 21
328.1129443861843
 31
0.0
  0
ARC
  5
A8DD
330
1F
100
AcDbEntity
  8
DETAILS
 62
     6
370
    20
100
AcDbCircle
 10
-110.9087774573369
 20
328.1129443861843
 30
0.0
 40
0.0999999999999091
100
AcDbArc
 50
0.0
 51
136.1691393279388
  0
LINE
  5
A8DE
330
1F
100
AcDbEntity
  8
DETAILS
 62
     6
370
    20
100
AcDbLine
 10
-110.9809161894397
 20
328.1821975690033
 30
0.0
 11
-111.500298313346
 21
327.6411745232674
 31
0.0
  0
ARC
  5
A8DF
330
1F
100
AcDbEntity
  8
DETAILS
 62
     6
370
    20
100
AcDbCircle
 10
-111.4281595812433
 20
327.5719213404483
 30
0.0
 40
0.1000000000000336
100
AcDbArc
 50
136.1691393279929
 51
270.0
  0
LINE
  5
A8E0
330
1F
100
AcDbEntity
  8
DETAILS
 62
     6
370
    20
100
AcDbLine
 10
-111.4281595812433
 20
327.4719213404484
 30
0.0
 11
-110.9087774573369
 21
327.4719213404484
 31
0.0
  0
ARC
  5
A8E1
330
1F
100
AcDbEntity
  8
DETAILS
 62
     6
370
    20
100
AcDbCircle
 10
-110.9087774573369
 20
327.5719213404483
 30
0.0
 40
0.1000000000001364
100
AcDbArc
 50
270.0000000002606
 51
359.9999999998958
  0
LINE
  5
A8E2
330
1F
100
AcDbEntity
  8
DETAILS
 62
     6
370
    20
100
AcDbLine
 10
-110.9087774573369
 20
326.1519213404483
 30
0.0
 11
-111.4281595812433
 21
326.1519213404483
 31
0.0
  0
ARC
  5
A8E3
330
1F
100
AcDbEntity
  8
DETAILS
 62
     6
370
    20
100
AcDbCircle
 10
-111.4281595812433
 20
326.0519213404484
 30
0.0
 40
0.1000000000000227
100
AcDbArc
 50
90.0
 51
223.8308606720071
  0
LINE
  5
A8E4
330
1F
100
AcDbEntity
  8
DETAILS
 62
     6
370
    20
100
AcDbLine
 10
-111.500298313346
 20
325.9826681576293
 30
0.0
 11
-110.9809161894397
 21
325.4416451118934
 31
0.0
  0
ARC
  5
A8E5
330
1F
100
AcDbEntity
  8
DETAILS
 62
     6
370
    20
100
AcDbCircle
 10
-110.9087774573369
 20
325.5108982947124
 30
0.0
 40
0.1000000000000336
100
AcDbArc
 50
223.8308606720071
 51
0.0000000000260551
  0
LINE
  5
A8E6
330
1F
100
AcDbEntity
  8
DETAILS
 62
     6
370
    20
100
AcDbLine
 10
-110.8087774573366
 20
325.5108982947124
 30
0.0
 11
-110.8087774573366
 21
326.0519213404484
 31
0.0
  0
ARC
  5
A8E7
330
1F
100
AcDbEntity
  8
DETAILS
 62
     6
370
    20
100
AcDbCircle
 10
-110.9087774573369
 20
326.0519213404484
 30
0.0
 40
0.1000000000003638
100
AcDbArc
 50
0.0000000001042204
 51
89.99999999973944
  0
LINE
  5
A8E8
330
1F
100
AcDbEntity
  8
0
 62
     1
100
AcDbLine
 10
-119.1587774573342
 20
340.8783757709695
 30
0.0
 11
-119.1587774573342
 21
332.5519213404484
 31
0.0
  0
LINE
  5
A8E9
330
1F
100
AcDbEntity
  8
0
 62
     1
100
AcDbLine
 10
-119.1587774573342
 20
332.5519213404484
 30
0.0
 11
-116.5337774573351
 21
332.5519213404484
 31
0.0
  0
LINE
  5
A8EA
330
1F
100
AcDbEntity
  8
0
 62
     1
100
AcDbLine
 10
-116.5337774573351
 20
341.6543098752292
 30
0.0
 11
-116.5337774573342
 21
332.5519213404484
 31
0.0
  0
LINE
  5
A8EB
330
1F
100
AcDbEntity
  8
0
 62
     1
100
AcDbLine
 10
-118.8087774573348
 20
340.9879052005032
 30
0.0
 11
-118.8087774573348
 21
332.5519213404484
 31
0.0
  0
LINE
  5
A8EC
330
1F
100
AcDbEntity
  8
0
 62
     1
100
AcDbLine
 10
-116.733777457334
 20
341.6372582470241
 30
0.0
 11
-116.733777457334
 21
332.5519213404484
 31
0.0
  0
LINE
  5
A8ED
330
1F
100
AcDbEntity
  8
A2 Hatch
  6
DASHED2
 48
0.15
100
AcDbLine
 10
-118.3937774573348
 20
341.1177758098071
 30
0.0
 11
-118.3937774573339
 21
332.5519213404484
 31
0.0
  0
LINE
  5
A8EE
330
1F
100
AcDbEntity
  8
A2 Hatch
  6
DASHED2
 48
0.15
100
AcDbLine
 10
-116.9487774573342
 20
341.5699758831676
 30
0.0
 11
-116.9487774573342
 21
332.5519213404484
 31
0.0
  0
LINE
  5
A8EF
330
1F
100
AcDbEntity
  8
0
 62
     1
100
AcDbLine
 10
-118.233777457334
 20
341.1678464061658
 30
0.0
 11
-118.233777457334
 21
332.5519213404484
 31
0.0
  0
LINE
  5
A8F0
330
1F
100
AcDbEntity
  8
0
 62
     1
100
AcDbLine
 10
-117.108777457334
 20
341.5199052868094
 30
0.0
 11
-117.108777457334
 21
332.5519213404484
 31
0.0
  0
LINE
  5
A8F1
330
1F
100
AcDbEntity
  8
0
 62
     1
100
AcDbLine
 10
-116.5337774573351
 20
333.0519213404484
 30
0.0
 11
-116.5337774573351
 21
332.5519213404484
 31
0.0
  0
LINE
  5
A8F2
330
1F
100
AcDbEntity
  8
0
  6
HIDDEN
 62
     1
 48
0.02
100
AcDbLine
 10
-118.8087774573348
 20
333.0519213404484
 30
0.0
 11
-118.1837774573347
 21
333.0519213404484
 31
0.0
  0
LINE
  5
A8F3
330
1F
100
AcDbEntity
  8
0
  6
HIDDEN
 62
     1
 48
0.02
100
AcDbLine
 10
-118.8087774573348
 20
333.0519213404484
 30
0.0
 11
-118.8087774573348
 21
332.5519213404484
 31
0.0
  0
LINE
  5
A8F4
330
1F
100
AcDbEntity
  8
0
  6
HIDDEN
 62
     1
 48
0.02
100
AcDbLine
 10
-117.1587774573351
 20
333.0519213404484
 30
0.0
 11
-117.1587774573351
 21
332.5519213404484
 31
0.0
  0
LINE
  5
A8F5
330
1F
100
AcDbEntity
  8
0
  6
HIDDEN
 62
     1
 48
0.02
100
AcDbLine
 10
-118.1837774573347
 20
333.0519213404484
 30
0.0
 11
-118.1837774573338
 21
332.5519213404484
 31
0.0
  0
LINE
  5
A8F6
330
1F
100
AcDbEntity
  8
0
  6
HIDDEN
 62
     1
 48
0.02
100
AcDbLine
 10
-117.1587774573351
 20
333.0519213404484
 30
0.0
 11
-116.6337774573355
 21
333.0519213404484
 31
0.0
  0
ARC
  5
A8F7
330
1F
100
AcDbEntity
  8
DETAILS
 62
     6
370
    20
100
AcDbCircle
 10
-116.5337774573351
 20
336.715199562301
 30
0.0
 40
0.0999999999999136
100
AcDbArc
 50
179.9999999996873
 51
209.744881296592
  0
LINE
  5
A8F8
330
1F
100
AcDbEntity
  8
DETAILS
 62
     6
370
    20
100
AcDbLine
 10
-116.6337774573355
 20
338.8019213404484
 30
0.0
 11
-110.233777457334
 21
338.8019213404484
 31
0.0
  0
LINE
  5
A8F9
330
1F
100
AcDbEntity
  8
0
 62
     1
100
AcDbLine
 10
-107.7087774573344
 20
344.6472435580546
 30
0.0
 11
-107.7087774573344
 21
332.5519213404484
 31
0.0
  0
LINE
  5
A8FA
330
1F
100
AcDbEntity
  8
0
 62
     1
100
AcDbLine
 10
-110.3337774573353
 20
343.7569941623126
 30
0.0
 11
-110.3337774573344
 21
332.5519213404484
 31
0.0
  0
LINE
  5
A8FB
330
1F
100
AcDbEntity
  8
0
 62
     1
100
AcDbLine
 10
-110.1337774573346
 20
343.8248226877028
 30
0.0
 11
-110.1337774573346
 21
332.5519213404484
 31
0.0
  0
LINE
  5
A8FC
330
1F
100
AcDbEntity
  8
0
 62
     1
100
AcDbLine
 10
-109.9187774573344
 20
343.8977383524973
 30
0.0
 11
-109.9187774573344
 21
332.5519213404484
 31
0.0
  0
LINE
  5
A8FD
330
1F
100
AcDbEntity
  8
0
 62
     1
100
AcDbLine
 10
-108.4737774573338
 20
344.3877994484389
 30
0.0
 11
-108.4737774573338
 21
332.5519213404484
 31
0.0
  0
LINE
  5
A8FE
330
1F
100
AcDbEntity
  8
A2 Hatch
  6
DASHED2
 48
0.15
100
AcDbLine
 10
-109.7587774573337
 20
343.9520011728093
 30
0.0
 11
-109.7587774573337
 21
332.5519213404484
 31
0.0
  0
LINE
  5
A8FF
330
1F
100
AcDbEntity
  8
A2 Hatch
  6
DASHED2
 48
0.15
100
AcDbLine
 10
-108.6337774573337
 20
344.3335366281269
 30
0.0
 11
-108.6337774573337
 21
332.5519213404484
 31
0.0
  0
LINE
  5
A900
330
1F
100
AcDbEntity
  8
0
 62
     1
100
AcDbLine
 10
-110.3337774573344
 20
332.5519213404484
 30
0.0
 11
-107.7087774573344
 21
332.5519213404484
 31
0.0
  0
LINE
  5
A901
330
1F
100
AcDbEntity
  8
0
 62
     1
100
AcDbLine
 10
-110.3337774573335
 20
333.0519213404488
 30
0.0
 11
-110.3337774573326
 21
332.5519213404484
 31
0.0
  0
LINE
  5
A902
330
1F
100
AcDbEntity
  8
0
  6
HIDDEN
 62
     1
 48
0.02
100
AcDbLine
 10
-108.0587774573329
 20
333.0519213404484
 30
0.0
 11
-108.0587774573329
 21
332.5519213404484
 31
0.0
  0
LINE
  5
A903
330
1F
100
AcDbEntity
  8
0
  6
HIDDEN
 62
     1
 48
0.02
100
AcDbLine
 10
-109.7087774573335
 20
333.0519213404488
 30
0.0
 11
-109.7087774573335
 21
332.5519213404488
 31
0.0
  0
LINE
  5
A904
330
1F
100
AcDbEntity
  8
0
  6
HIDDEN
 62
     1
 48
0.02
100
AcDbLine
 10
-108.6837774573329
 20
333.0519213404484
 30
0.0
 11
-108.6837774573329
 21
332.5519213404484
 31
0.0
  0
LINE
  5
A905
330
1F
100
AcDbEntity
  8
0
  6
HIDDEN
 62
     1
 48
0.02
100
AcDbLine
 10
-110.3337774573326
 20
333.0519213404484
 30
0.0
 11
-109.7087774573326
 21
333.0519213404488
 31
0.0
  0
LINE
  5
A906
330
1F
100
AcDbEntity
  8
0
  6
HIDDEN
 62
     1
 48
0.02
100
AcDbLine
 10
-108.6837774573329
 20
333.0519213404484
 30
0.0
 11
-108.0587774573329
 21
333.0519213404484
 31
0.0
  0
LINE
  5
A907
330
1F
100
AcDbEntity
  8
0
  6
HIDDEN
 62
     1
 48
0.02
100
AcDbLine
 10
-110.1337774573327
 20
332.8019213404484
 30
0.0
 11
-110.1337774573318
 21
332.5519213404484
 31
0.0
  0
LINE
  5
A908
330
1F
100
AcDbEntity
  8
0
  6
HIDDEN
 62
     1
 48
0.02
100
AcDbLine
 10
-109.8837774573327
 20
332.8019213404484
 30
0.0
 11
-109.8837774573327
 21
332.5519213404484
 31
0.0
  0
LINE
  5
A909
330
1F
100
AcDbEntity
  8
0
  6
HIDDEN
 62
     1
 48
0.02
100
AcDbLine
 10
-110.1337774573327
 20
332.8019213404484
 30
0.0
 11
-109.8837774573327
 21
332.8019213404484
 31
0.0
  0
LINE
  5
A90A
330
1F
100
AcDbEntity
  8
DETAILS
 62
     6
370
    20
100
AcDbLine
 10
-116.6337774573346
 20
341.699846492472
 30
0.0
 11
-116.6337774573355
 21
333.4791750490742
 31
0.0
  0
LINE
  5
A90B
330
1F
100
AcDbEntity
  8
DETAILS
 62
     6
370
    20
100
AcDbLine
 10
-115.9587774573326
 20
339.4219213404483
 30
0.0
 11
-115.4393953334262
 21
339.4219213404483
 31
0.0
  0
ARC
  5
A90C
330
1F
100
AcDbEntity
  8
DETAILS
 62
     6
370
    20
100
AcDbCircle
 10
-115.4393953334262
 20
339.5719213404484
 30
0.0
 40
0.1500000000000909
100
AcDbArc
 50
270.0000000001563
 51
43.83086067193338
  0
LINE
  5
A90D
330
1F
100
AcDbEntity
  8
DETAILS
 62
     6
370
    20
100
AcDbLine
 10
-115.3311872352721
 20
339.6758011146769
 30
0.0
 11
-115.8505693591784
 21
340.2168241604128
 31
0.0
  0
ARC
  5
A90E
330
1F
100
AcDbEntity
  8
DETAILS
 62
     6
370
    20
100
AcDbCircle
 10
-115.9587774573326
 20
340.1129443861843
 30
0.0
 40
0.1499999999999651
100
AcDbArc
 50
43.83086067209803
 51
179.9999999999739
  0
LINE
  5
A90F
330
1F
100
AcDbEntity
  8
DETAILS
 62
     6
370
    20
100
AcDbLine
 10
-116.1087774573322
 20
340.1129443861843
 30
0.0
 11
-116.1087774573331
 21
339.5719213404484
 31
0.0
  0
ARC
  5
A910
330
1F
100
AcDbEntity
  8
DETAILS
 62
     6
370
    20
100
AcDbCircle
 10
-115.9587774573335
 20
339.5719213404484
 30
0.0
 40
0.1499999999996362
100
AcDbArc
 50
179.9999999999479
 51
270.0000000001563
  0
LINE
  5
A911
330
1F
100
AcDbEntity
  8
DETAILS
 62
     6
370
    20
100
AcDbLine
 10
-116.1087774573331
 20
338.0519213404483
 30
0.0
 11
-116.1087774573322
 21
337.5108982947124
 31
0.0
  0
ARC
  5
A912
330
1F
100
AcDbEntity
  8
DETAILS
 62
     6
370
    20
100
AcDbCircle
 10
-115.9587774573326
 20
337.5108982947124
 30
0.0
 40
0.1500000000000909
100
AcDbArc
 50
180.000000000026
 51
316.169139327902
  0
LINE
  5
A913
330
1F
100
AcDbEntity
  8
DETAILS
 62
     6
370
    20
100
AcDbLine
 10
-115.8505693591784
 20
337.4070185204839
 30
0.0
 11
-115.3311872352721
 21
337.9480415662203
 31
0.0
  0
ARC
  5
A914
330
1F
100
AcDbEntity
  8
DETAILS
 62
     6
370
    20
100
AcDbCircle
 10
-115.4393953334262
 20
338.0519213404483
 30
0.0
 40
0.1500000000001751
100
AcDbArc
 50
316.1691393280666
 51
89.99999999984366
  0
LINE
  5
A915
330
1F
100
AcDbEntity
  8
DETAILS
 62
     6
370
    20
100
AcDbLine
 10
-115.4393953334262
 20
338.2019213404484
 30
0.0
 11
-115.9587774573326
 21
338.2019213404484
 31
0.0
  0
ARC
  5
A916
330
1F
100
AcDbEntity
  8
DETAILS
 62
     6
370
    20
100
AcDbCircle
 10
-115.9587774573335
 20
338.0519213404488
 30
0.0
 40
0.1499999999998636
100
AcDbArc
 50
89.99999999984366
 51
180.0000000000521
  0
LINE
  5
A917
330
1F
100
AcDbEntity
  8
DETAILS
 62
     6
370
    20
100
AcDbLine
 10
-115.9587774573326
 20
339.4719213404485
 30
0.0
 11
-115.4393953334262
 21
339.4719213404485
 31
0.0
  0
ARC
  5
A918
330
1F
100
AcDbEntity
  8
DETAILS
 62
     6
370
    20
100
AcDbCircle
 10
-115.4393953334262
 20
339.5719213404484
 30
0.0
 40
0.1000000000000227
100
AcDbArc
 50
270.0
 51
43.83086067200706
  0
LINE
  5
A919
330
1F
100
AcDbEntity
  8
DETAILS
 62
     6
370
    20
100
AcDbLine
 10
-115.3672566013235
 20
339.6411745232673
 30
0.0
 11
-115.8866387252298
 21
340.1821975690034
 31
0.0
  0
ARC
  5
A91A
330
1F
100
AcDbEntity
  8
DETAILS
 62
     6
370
    20
100
AcDbCircle
 10
-115.9587774573326
 20
340.1129443861843
 30
0.0
 40
0.1000000000001123
100
AcDbArc
 50
43.83086067206119
 51
180.0
  0
LINE
  5
A91B
330
1F
100
AcDbEntity
  8
DETAILS
 62
     6
370
    20
100
AcDbLine
 10
-116.0587774573329
 20
340.1129443861843
 30
0.0
 11
-116.0587774573329
 21
339.5719213404484
 31
0.0
  0
ARC
  5
A91C
330
1F
100
AcDbEntity
  8
DETAILS
 62
     6
370
    20
100
AcDbCircle
 10
-115.9587774573326
 20
339.5719213404484
 30
0.0
 40
0.1000000000003638
100
AcDbArc
 50
180.0000000001302
 51
269.9999999997394
  0
LINE
  5
A91D
330
1F
100
AcDbEntity
  8
DETAILS
 62
     6
370
    20
100
AcDbLine
 10
-116.0587774573329
 20
338.0519213404483
 30
0.0
 11
-116.0587774573329
 21
337.5108982947124
 31
0.0
  0
ARC
  5
A91E
330
1F
100
AcDbEntity
  8
DETAILS
 62
     6
370
    20
100
AcDbCircle
 10
-115.9587774573326
 20
337.5108982947124
 30
0.0
 40
0.0999999999999091
100
AcDbArc
 50
179.9999999999739
 51
316.169139327993
  0
LINE
  5
A91F
330
1F
100
AcDbEntity
  8
DETAILS
 62
     6
370
    20
100
AcDbLine
 10
-115.8866387252298
 20
337.4416451118934
 30
0.0
 11
-115.3672566013235
 21
337.9826681576294
 31
0.0
  0
ARC
  5
A920
330
1F
100
AcDbEntity
  8
DETAILS
 62
     6
370
    20
100
AcDbCircle
 10
-115.4393953334262
 20
338.0519213404483
 30
0.0
 40
0.1000000000000336
100
AcDbArc
 50
316.169139327993
 51
90.0
  0
LINE
  5
A921
330
1F
100
AcDbEntity
  8
DETAILS
 62
     6
370
    20
100
AcDbLine
 10
-115.4393953334262
 20
338.1519213404483
 30
0.0
 11
-115.9587774573326
 21
338.1519213404483
 31
0.0
  0
ARC
  5
A922
330
1F
100
AcDbEntity
  8
DETAILS
 62
     6
370
    20
100
AcDbCircle
 10
-115.9587774573326
 20
338.0519213404483
 30
0.0
 40
0.1000000000001364
100
AcDbArc
 50
90.00000000026055
 51
179.9999999998697
  0
LINE
  5
A923
330
1F
100
AcDbEntity
  8
DETAILS
 62
     6
370
    20
100
AcDbLine
 10
-110.2337774573349
 20
343.7569941623126
 30
0.0
 11
-110.233777457334
 21
333.4791750490742
 31
0.0
  0
LINE
  5
A924
330
1F
100
AcDbEntity
  8
DETAILS
 62
     6
370
    20
100
AcDbLine
 10
-110.7587774573364
 20
339.5719213404484
 30
0.0
 11
-110.7587774573373
 21
340.1129443861843
 31
0.0
  0
ARC
  5
A925
330
1F
100
AcDbEntity
  8
DETAILS
 62
     6
370
    20
100
AcDbCircle
 10
-110.9087774573369
 20
340.1129443861843
 30
0.0
 40
0.1500000000000909
100
AcDbArc
 50
0.0000000000260551
 51
136.169139327902
  0
LINE
  5
A926
330
1F
100
AcDbEntity
  8
DETAILS
 62
     6
370
    20
100
AcDbLine
 10
-111.0169855554911
 20
340.2168241604128
 30
0.0
 11
-111.5363676793974
 21
339.6758011146769
 31
0.0
  0
ARC
  5
A927
330
1F
100
AcDbEntity
  8
DETAILS
 62
     6
370
    20
100
AcDbCircle
 10
-111.4281595812433
 20
339.5719213404484
 30
0.0
 40
0.1500000000001751
100
AcDbArc
 50
136.1691393280666
 51
269.9999999998437
  0
LINE
  5
A928
330
1F
100
AcDbEntity
  8
DETAILS
 62
     6
370
    20
100
AcDbLine
 10
-111.4281595812433
 20
339.4219213404483
 30
0.0
 11
-110.9087774573369
 21
339.4219213404483
 31
0.0
  0
ARC
  5
A929
330
1F
100
AcDbEntity
  8
DETAILS
 62
     6
370
    20
100
AcDbCircle
 10
-110.908777457336
 20
339.5719213404484
 30
0.0
 40
0.1499999999998067
100
AcDbArc
 50
269.9999999998437
 51
0.0000000000781653
  0
LINE
  5
A92A
330
1F
100
AcDbEntity
  8
DETAILS
 62
     6
370
    20
100
AcDbLine
 10
-110.9087774573369
 20
338.2019213404484
 30
0.0
 11
-111.4281595812433
 21
338.2019213404484
 31
0.0
  0
ARC
  5
A92B
330
1F
100
AcDbEntity
  8
DETAILS
 62
     6
370
    20
100
AcDbCircle
 10
-111.4281595812433
 20
338.0519213404483
 30
0.0
 40
0.1500000000001478
100
AcDbArc
 50
90.00000000015633
 51
223.8308606719334
  0
LINE
  5
A92C
330
1F
100
AcDbEntity
  8
DETAILS
 62
     6
370
    20
100
AcDbLine
 10
-111.5363676793974
 20
337.9480415662203
 30
0.0
 11
-111.0169855554911
 21
337.4070185204839
 31
0.0
  0
ARC
  5
A92D
330
1F
100
AcDbEntity
  8
DETAILS
 62
     6
370
    20
100
AcDbCircle
 10
-110.9087774573369
 20
337.5108982947124
 30
0.0
 40
0.1499999999999651
100
AcDbArc
 50
223.830860672098
 51
359.999999999974
  0
LINE
  5
A92E
330
1F
100
AcDbEntity
  8
DETAILS
 62
     6
370
    20
100
AcDbLine
 10
-110.7587774573373
 20
337.5108982947124
 30
0.0
 11
-110.7587774573364
 21
338.0519213404483
 31
0.0
  0
ARC
  5
A92F
330
1F
100
AcDbEntity
  8
DETAILS
 62
     6
370
    20
100
AcDbCircle
 10
-110.908777457336
 20
338.0519213404488
 30
0.0
 40
0.1499999999996362
100
AcDbArc
 50
359.9999999999218
 51
90.00000000015633
  0
ARC
  5
A930
330
1F
100
AcDbEntity
  8
DETAILS
 62
     6
370
    20
100
AcDbCircle
 10
-114.9588683596
 20
337.2969213404482
 30
0.0
 40
0.010000000000022
100
AcDbArc
 50
97.40989078445327
 51
262.5901092155467
  0
LINE
  5
A931
330
1F
100
AcDbEntity
  8
DETAILS
 62
     6
370
    20
100
AcDbLine
 10
-114.9601580274363
 20
337.2870048513079
 30
0.0
 11
-114.804047937832
 21
337.2719213404482
 31
0.0
  0
LINE
  5
A932
330
1F
100
AcDbEntity
  8
DETAILS
 62
     6
370
    20
100
AcDbLine
 10
-114.804047937832
 20
337.2719213404482
 30
0.0
 11
-113.4337774573348
 21
337.2719213404482
 31
0.0
  0
LINE
  5
A933
330
1F
100
AcDbEntity
  8
DETAILS
 62
     6
370
    20
100
AcDbLine
 10
-113.4337774573348
 20
337.2719213404482
 30
0.0
 11
-112.0635069768374
 21
337.2719213404482
 31
0.0
  0
LINE
  5
A934
330
1F
100
AcDbEntity
  8
DETAILS
 62
     6
370
    20
100
AcDbLine
 10
-112.0635069768374
 20
337.2719213404482
 30
0.0
 11
-111.9073968872332
 21
337.2870048513079
 31
0.0
  0
ARC
  5
A935
330
1F
100
AcDbEntity
  8
DETAILS
 62
     6
370
    20
100
AcDbCircle
 10
-111.9086865550695
 20
337.2969213404482
 30
0.0
 40
0.0099999999999656
100
AcDbArc
 50
277.4098907844532
 51
82.59010921554674
  0
LINE
  5
A936
330
1F
100
AcDbEntity
  8
DETAILS
 62
     6
370
    20
100
AcDbLine
 10
-111.9073968872332
 20
337.3068378295886
 30
0.0
 11
-112.0635069768365
 21
337.3219213404484
 31
0.0
  0
LINE
  5
A937
330
1F
100
AcDbEntity
  8
DETAILS
 62
     6
370
    20
100
AcDbLine
 10
-112.0635069768365
 20
337.3219213404484
 30
0.0
 11
-113.4337774573348
 21
337.3219213404484
 31
0.0
  0
LINE
  5
A938
330
1F
100
AcDbEntity
  8
DETAILS
 62
     6
370
    20
100
AcDbLine
 10
-113.4337774573348
 20
337.3219213404484
 30
0.0
 11
-114.804047937833
 21
337.3219213404484
 31
0.0
  0
LINE
  5
A939
330
1F
100
AcDbEntity
  8
DETAILS
 62
     6
370
    20
100
AcDbLine
 10
-114.804047937833
 20
337.3219213404484
 30
0.0
 11
-114.9601580274363
 21
337.3068378295886
 31
0.0
  0
LINE
  5
A93A
330
1F
100
AcDbEntity
  8
DETAILS
 62
     6
370
    20
100
AcDbLine
 10
-111.3680547399314
 20
341.0927366792627
 30
0.0
 11
-110.361638725232
 21
342.1528991863894
 31
0.0
  0
ARC
  5
A93B
330
1F
100
AcDbEntity
  8
DETAILS
 62
     6
370
    20
100
AcDbCircle
 10
-110.4337774573348
 20
342.2221523692089
 30
0.0
 40
0.0999999999994431
100
AcDbArc
 50
316.1691393272028
 51
359.9999999992444
  0
LINE
  5
A93C
330
1F
100
AcDbEntity
  8
DETAILS
 62
     6
370
    20
100
AcDbLine
 10
-116.1273214733171
 20
341.8270433269287
 30
0.0
 11
-115.3882944018266
 21
340.9626681576294
 31
0.0
  0
ARC
  5
A93D
330
1F
100
AcDbEntity
  8
DETAILS
 62
     6
370
    20
100
AcDbCircle
 10
-115.3161556697238
 20
341.0319213404484
 30
0.0
 40
0.1000000000001911
100
AcDbArc
 50
223.8308606721337
 51
270.0
  0
LINE
  5
A93E
330
1F
100
AcDbEntity
  8
DETAILS
 62
     6
370
    20
100
AcDbLine
 10
-115.3161556697238
 20
340.9319213404485
 30
0.0
 11
-115.3087774573338
 21
340.9319213404485
 31
0.0
  0
LINE
  5
A93F
330
1F
100
AcDbEntity
  8
DETAILS
 62
     6
370
    20
100
AcDbLine
 10
-115.3087774573338
 20
340.9319213404485
 30
0.0
 11
-115.3087774573329
 21
340.8819213404483
 31
0.0
  0
LINE
  5
A940
330
1F
100
AcDbEntity
  8
DETAILS
 62
     6
370
    20
100
AcDbLine
 10
-115.3087774573329
 20
340.8819213404483
 30
0.0
 11
-115.2087774573326
 21
340.8819213404488
 31
0.0
  0
ARC
  5
A941
330
1F
100
AcDbEntity
  8
DETAILS
 62
     6
370
    20
100
AcDbCircle
 10
-115.2087774573326
 20
340.8319213404486
 30
0.0
 40
0.0500000000001819
100
AcDbArc
 50
359.9999999998697
 51
90.0
  0
LINE
  5
A942
330
1F
100
AcDbEntity
  8
DETAILS
 62
     6
370
    20
100
AcDbLine
 10
-115.1587774573333
 20
340.8319213404481
 30
0.0
 11
-115.1587774573333
 21
340.7769213404483
 31
0.0
  0
ARC
  5
A943
330
1F
100
AcDbEntity
  8
DETAILS
 62
     6
370
    20
100
AcDbCircle
 10
-114.733777457334
 20
340.7769213404483
 30
0.0
 40
0.4250000000001819
100
AcDbArc
 50
179.9999999999739
 51
359.999999999974
  0
LINE
  5
A944
330
1F
100
AcDbEntity
  8
DETAILS
 62
     6
370
    20
100
AcDbLine
 10
-114.3087774573329
 20
340.7769213404483
 30
0.0
 11
-114.3087774573338
 21
340.8319213404486
 31
0.0
  0
ARC
  5
A945
330
1F
100
AcDbEntity
  8
DETAILS
 62
     6
370
    20
100
AcDbCircle
 10
-114.2587774573337
 20
340.8319213404481
 30
0.0
 40
0.0500000000001819
100
AcDbArc
 50
90.0
 51
179.9999999996613
  0
LINE
  5
A946
330
1F
100
AcDbEntity
  8
DETAILS
 62
     6
370
    20
100
AcDbLine
 10
-114.2587774573337
 20
340.8819213404483
 30
0.0
 11
-113.9087774573342
 21
340.8819213404488
 31
0.0
  0
ARC
  5
A947
330
1F
100
AcDbEntity
  8
DETAILS
 62
     6
370
    20
100
AcDbCircle
 10
-113.9087774573342
 20
340.8319213404486
 30
0.0
 40
0.0500000000001819
100
AcDbArc
 50
359.9999999998697
 51
90.0
  0
LINE
  5
A948
330
1F
100
AcDbEntity
  8
DETAILS
 62
     6
370
    20
100
AcDbLine
 10
-113.858777457334
 20
340.8319213404481
 30
0.0
 11
-113.858777457334
 21
340.7769213404455
 31
0.0
  0
ARC
  5
A949
330
1F
100
AcDbEntity
  8
DETAILS
 62
     6
370
    20
100
AcDbCircle
 10
-113.4337774573348
 20
340.7769213404455
 30
0.0
 40
0.4250000000001819
100
AcDbArc
 50
180.0
 51
270.0
  0
ARC
  5
A94A
330
1F
100
AcDbEntity
  8
DETAILS
 62
     6
370
    20
100
AcDbCircle
 10
-113.4337774573348
 20
340.7769213404451
 30
0.0
 40
0.4249999999997272
100
AcDbArc
 50
270.0000000000521
 51
0.0000000000521102
  0
LINE
  5
A94B
330
1F
100
AcDbEntity
  8
DETAILS
 62
     6
370
    20
100
AcDbLine
 10
-113.0087774573355
 20
340.7769213404455
 30
0.0
 11
-113.0087774573355
 21
340.8319213404481
 31
0.0
  0
ARC
  5
A94C
330
1F
100
AcDbEntity
  8
DETAILS
 62
     6
370
    20
100
AcDbCircle
 10
-112.9587774573353
 20
340.8319213404481
 30
0.0
 40
0.0500000000001819
100
AcDbArc
 50
90.0
 51
180.0
  0
LINE
  5
A94D
330
1F
100
AcDbEntity
  8
DETAILS
 62
     6
370
    20
100
AcDbLine
 10
-112.9587774573353
 20
340.8819213404483
 30
0.0
 11
-112.6087774573358
 21
340.8819213404488
 31
0.0
  0
ARC
  5
A94E
330
1F
100
AcDbEntity
  8
DETAILS
 62
     6
370
    20
100
AcDbCircle
 10
-112.6087774573358
 20
340.8319213404486
 30
0.0
 40
0.0500000000001819
100
AcDbArc
 50
0.000000000260551
 51
90.0
  0
LINE
  5
A94F
330
1F
100
AcDbEntity
  8
DETAILS
 62
     6
370
    20
100
AcDbLine
 10
-112.5587774573357
 20
340.8319213404486
 30
0.0
 11
-112.5587774573348
 21
340.7769213404483
 31
0.0
  0
ARC
  5
A950
330
1F
100
AcDbEntity
  8
DETAILS
 62
     6
370
    20
100
AcDbCircle
 10
-112.1337774573355
 20
340.7769213404483
 30
0.0
 40
0.4249999999997272
100
AcDbArc
 50
180.000000000026
 51
0.0000000000260551
  0
LINE
  5
A951
330
1F
100
AcDbEntity
  8
DETAILS
 62
     6
370
    20
100
AcDbLine
 10
-111.7087774573362
 20
340.7769213404483
 30
0.0
 11
-111.7087774573362
 21
340.8319213404481
 31
0.0
  0
ARC
  5
A952
330
1F
100
AcDbEntity
  8
DETAILS
 62
     6
370
    20
100
AcDbCircle
 10
-111.6587774573369
 20
340.8319213404481
 30
0.0
 40
0.0500000000001819
100
AcDbArc
 50
90.0
 51
180.0
  0
LINE
  5
A953
330
1F
100
AcDbEntity
  8
DETAILS
 62
     6
370
    20
100
AcDbLine
 10
-111.6587774573369
 20
340.8819213404483
 30
0.0
 11
-111.6100467790108
 21
340.8819213404483
 31
0.0
  0
LINE
  5
A954
330
1F
100
AcDbEntity
  8
DETAILS
 62
     6
370
    20
100
AcDbLine
 10
-111.660046779011
 20
340.9319213404485
 30
0.0
 11
-111.7087774573362
 21
340.9319213404485
 31
0.0
  0
ARC
  5
A955
330
1F
100
AcDbEntity
  8
DETAILS
 62
     6
370
    20
100
AcDbCircle
 10
-111.7087774573362
 20
340.8819213404483
 30
0.0
 40
0.0500000000001819
100
AcDbArc
 50
90.0
 51
179.9999999998697
  0
LINE
  5
A956
330
1F
100
AcDbEntity
  8
DETAILS
 62
     6
370
    20
100
AcDbLine
 10
-111.7587774573364
 20
340.8819213404483
 30
0.0
 11
-111.7587774573355
 21
340.7769213404483
 31
0.0
  0
ARC
  5
A957
330
1F
100
AcDbEntity
  8
DETAILS
 62
     6
370
    20
100
AcDbCircle
 10
-112.1337774573355
 20
340.7769213404483
 30
0.0
 40
0.375
100
AcDbArc
 50
180.0
 51
0.0
  0
LINE
  5
A958
330
1F
100
AcDbEntity
  8
DETAILS
 62
     6
370
    20
100
AcDbLine
 10
-112.5087774573355
 20
340.7769213404483
 30
0.0
 11
-112.5087774573355
 21
340.8819213404483
 31
0.0
  0
ARC
  5
A959
330
1F
100
AcDbEntity
  8
DETAILS
 62
     6
370
    20
100
AcDbCircle
 10
-112.5587774573366
 20
340.8819213404483
 30
0.0
 40
0.0500000000001819
100
AcDbArc
 50
0.0000000001302755
 51
90.0
  0
LINE
  5
A95A
330
1F
100
AcDbEntity
  8
DETAILS
 62
     6
370
    20
100
AcDbLine
 10
-112.5587774573366
 20
340.9319213404485
 30
0.0
 11
-113.0087774573355
 21
340.9319213404485
 31
0.0
  0
ARC
  5
A95B
330
1F
100
AcDbEntity
  8
DETAILS
 62
     6
370
    20
100
AcDbCircle
 10
-113.0087774573355
 20
340.8819213404483
 30
0.0
 40
0.0500000000001251
100
AcDbArc
 50
90.0
 51
179.9999999998697
  0
LINE
  5
A95C
330
1F
100
AcDbEntity
  8
DETAILS
 62
     6
370
    20
100
AcDbLine
 10
-113.0587774573366
 20
340.8819213404483
 30
0.0
 11
-113.0587774573347
 21
340.7769213404455
 31
0.0
  0
ARC
  5
A95D
330
1F
100
AcDbEntity
  8
DETAILS
 62
     6
370
    20
100
AcDbCircle
 10
-113.4337774573348
 20
340.7769213404451
 30
0.0
 40
0.3749999999995452
100
AcDbArc
 50
270.0000000000521
 51
0.0000000000521102
  0
ARC
  5
A95E
330
1F
100
AcDbEntity
  8
DETAILS
 62
     6
370
    20
100
AcDbCircle
 10
-113.4337774573338
 20
340.7769213404455
 30
0.0
 40
0.3749999999998295
100
AcDbArc
 50
180.0
 51
269.9999999999479
  0
LINE
  5
A95F
330
1F
100
AcDbEntity
  8
DETAILS
 62
     6
370
    20
100
AcDbLine
 10
-113.8087774573338
 20
340.7769213404455
 30
0.0
 11
-113.8087774573329
 21
340.8819213404483
 31
0.0
  0
ARC
  5
A960
330
1F
100
AcDbEntity
  8
DETAILS
 62
     6
370
    20
100
AcDbCircle
 10
-113.858777457334
 20
340.8819213404483
 30
0.0
 40
0.0500000000001819
100
AcDbArc
 50
0.0000000001302755
 51
90.0
  0
LINE
  5
A961
330
1F
100
AcDbEntity
  8
DETAILS
 62
     6
370
    20
100
AcDbLine
 10
-113.858777457334
 20
340.9319213404485
 30
0.0
 11
-114.3087774573329
 21
340.9319213404485
 31
0.0
  0
ARC
  5
A962
330
1F
100
AcDbEntity
  8
DETAILS
 62
     6
370
    20
100
AcDbCircle
 10
-114.3087774573329
 20
340.8819213404483
 30
0.0
 40
0.0500000000001819
100
AcDbArc
 50
90.0
 51
179.9999999998697
  0
LINE
  5
A963
330
1F
100
AcDbEntity
  8
DETAILS
 62
     6
370
    20
100
AcDbLine
 10
-114.358777457334
 20
340.8819213404483
 30
0.0
 11
-114.358777457334
 21
340.7769213404483
 31
0.0
  0
ARC
  5
A964
330
1F
100
AcDbEntity
  8
DETAILS
 62
     6
370
    20
100
AcDbCircle
 10
-114.7337774573331
 20
340.7769213404483
 30
0.0
 40
0.3749999999995452
100
AcDbArc
 50
179.9999999999739
 51
0.0
  0
LINE
  5
A965
330
1F
100
AcDbEntity
  8
DETAILS
 62
     6
370
    20
100
AcDbLine
 10
-115.1087774573331
 20
340.7769213404483
 30
0.0
 11
-115.1087774573331
 21
340.8819213404483
 31
0.0
  0
ARC
  5
A966
330
1F
100
AcDbEntity
  8
DETAILS
 62
     6
370
    20
100
AcDbCircle
 10
-115.1587774573333
 20
340.8819213404483
 30
0.0
 40
0.0500000000001819
100
AcDbArc
 50
0.0000000001302755
 51
90.0
  0
LINE
  5
A967
330
1F
100
AcDbEntity
  8
DETAILS
 62
     6
370
    20
100
AcDbLine
 10
-115.1587774573333
 20
340.9319213404485
 30
0.0
 11
-115.3161556697238
 21
340.9319213404485
 31
0.0
  0
LINE
  5
A968
330
1F
100
AcDbEntity
  8
DETAILS
 62
     6
370
    20
100
AcDbLine
 10
-110.3337774573344
 20
335.4604999842119
 30
0.0
 11
-110.3337774573344
 21
333.4523801298298
 31
0.0
  0
ARC
  5
A969
330
1F
100
AcDbEntity
  8
DETAILS
 62
     6
370
    20
100
AcDbCircle
 10
-110.2837774573351
 20
333.4523801298303
 30
0.0
 40
0.0499999999997272
100
AcDbArc
 50
180.0000000004429
 51
210.0000000006396
  0
LINE
  5
A96A
330
1F
100
AcDbEntity
  8
DETAILS
 62
     6
370
    20
100
AcDbLine
 10
-110.3270787275238
 20
333.4273801298297
 30
0.0
 11
-110.2679923132752
 21
333.3250394583148
 31
0.0
  0
LINE
  5
A96B
330
1F
100
AcDbEntity
  8
DETAILS
 62
     6
370
    20
100
AcDbLine
 10
-110.2679923132752
 20
333.3250394583148
 30
0.0
 11
-110.1813897728968
 21
333.375039458315
 31
0.0
  0
LINE
  5
A96C
330
1F
100
AcDbEntity
  8
DETAILS
 62
     6
370
    20
100
AcDbLine
 10
-110.1813897728968
 20
333.375039458315
 30
0.0
 11
-110.2270787275235
 21
333.4541750490745
 31
0.0
  0
ARC
  5
A96D
330
1F
100
AcDbEntity
  8
DETAILS
 62
     6
370
    20
100
AcDbCircle
 10
-110.1837774573347
 20
333.4791750490746
 30
0.0
 40
0.0499999999997213
100
AcDbArc
 50
180.0000000003126
 51
210.0000000005455
  0
LINE
  5
A96E
330
1F
100
AcDbEntity
  8
DETAILS
 62
     6
370
    20
100
AcDbLine
 10
-110.233777457334
 20
333.4791750490742
 30
0.0
 11
-110.233777457334
 21
333.5157775894524
 31
0.0
  0
LINE
  5
A96F
330
1F
100
AcDbEntity
  8
DETAILS
 62
     6
370
    20
100
AcDbLine
 10
-116.6337774573355
 20
333.5157775894524
 30
0.0
 11
-116.6337774573355
 21
333.4791750490742
 31
0.0
  0
ARC
  5
A970
330
1F
100
AcDbEntity
  8
DETAILS
 62
     6
370
    20
100
AcDbCircle
 10
-116.6837774573348
 20
333.4791750490746
 30
0.0
 40
0.0499999999997272
100
AcDbArc
 50
329.9999999994545
 51
359.9999999996613
  0
LINE
  5
A971
330
1F
100
AcDbEntity
  8
DETAILS
 62
     6
370
    20
100
AcDbLine
 10
-116.640476187146
 20
333.4541750490745
 30
0.0
 11
-116.6861651417736
 21
333.3750394583146
 31
0.0
  0
LINE
  5
A972
330
1F
100
AcDbEntity
  8
DETAILS
 62
     6
370
    20
100
AcDbLine
 10
-116.6861651417736
 20
333.3750394583146
 30
0.0
 11
-116.5995626013943
 21
333.3250394583148
 31
0.0
  0
LINE
  5
A973
330
1F
100
AcDbEntity
  8
DETAILS
 62
     6
370
    20
100
AcDbLine
 10
-116.5995626013943
 20
333.3250394583148
 30
0.0
 11
-116.5404761871456
 21
333.4273801298297
 31
0.0
  0
ARC
  5
A974
330
1F
100
AcDbEntity
  8
DETAILS
 62
     6
370
    20
100
AcDbCircle
 10
-116.5837774573344
 20
333.4523801298303
 30
0.0
 40
0.0499999999997782
100
AcDbArc
 50
329.9999999993604
 51
359.999999999531
  0
LINE
  5
A975
330
1F
100
AcDbEntity
  8
DETAILS
 62
     6
370
    20
100
AcDbLine
 10
-116.5337774573351
 20
333.4523801298298
 30
0.0
 11
-116.5337774573351
 21
335.4604999842119
 31
0.0
  0
LINE
  5
A976
330
1F
100
AcDbEntity
  8
DETAILS
 62
     6
370
    20
100
AcDbLine
 10
-116.5337774573351
 20
341.7311406151954
 30
0.0
 11
-116.5337774573351
 21
335.4604999842119
 31
0.0
  0
ARC
  5
A977
330
1F
100
AcDbEntity
  8
DETAILS
 62
     6
370
    20
100
AcDbCircle
 10
-116.4337774573347
 20
335.4604999842124
 30
0.0
 40
0.0999999999999091
100
AcDbArc
 50
135.0000000001474
 51
180.0000000001302
  0
LINE
  5
A978
330
1F
100
AcDbEntity
  8
DETAILS
 62
     6
370
    20
100
AcDbLine
 10
-116.5044881354539
 20
335.5312106623307
 30
0.0
 11
-114.8527114401556
 21
337.2079873576264
 31
0.0
  0
ARC
  5
A979
330
1F
100
AcDbEntity
  8
DETAILS
 62
     6
370
    20
100
AcDbCircle
 10
-114.7466454229776
 20
337.1019213404486
 30
0.0
 40
0.1499999999998163
100
AcDbArc
 50
90.0
 51
135.0000000000184
  0
LINE
  5
A97A
330
1F
100
AcDbEntity
  8
DETAILS
 62
     6
370
    20
100
AcDbLine
 10
-114.7466454229776
 20
337.2519213404487
 30
0.0
 11
-113.4337774573348
 21
337.2519213404487
 31
0.0
  0
LINE
  5
A97B
330
1F
100
AcDbEntity
  8
DETAILS
 62
     6
370
    20
100
AcDbLine
 10
-113.4337774573348
 20
337.2519213404487
 30
0.0
 11
-112.1209094916918
 21
337.2519213404487
 31
0.0
  0
ARC
  5
A97C
330
1F
100
AcDbEntity
  8
DETAILS
 62
     6
370
    20
100
AcDbCircle
 10
-112.1209094916918
 20
337.1019213404486
 30
0.0
 40
0.1499999999998067
100
AcDbArc
 50
44.99999999998157
 51
90.0
  0
LINE
  5
A97D
330
1F
100
AcDbEntity
  8
DETAILS
 62
     6
370
    20
100
AcDbLine
 10
-112.0148434745139
 20
337.2079873576264
 30
0.0
 11
-110.3630667792155
 21
335.5312106623307
 31
0.0
  0
ARC
  5
A97E
330
1F
100
AcDbEntity
  8
DETAILS
 62
     6
370
    20
100
AcDbCircle
 10
-110.4337774573338
 20
335.4604999842119
 30
0.0
 40
0.0999999999999044
100
AcDbArc
 50
359.9999999998958
 51
44.99999999985261
  0
LINE
  5
A97F
330
1F
100
AcDbEntity
  8
DETAILS
 62
     6
370
    20
100
AcDbLine
 10
-110.3337774573344
 20
335.4604999842119
 30
0.0
 11
-110.3337774573344
 21
342.2221523692075
 31
0.0
  0
LINE
  5
A980
330
1F
100
AcDbEntity
  8
DETAILS
 62
     6
370
    20
100
AcDbLine
 10
-110.3337774573344
 20
342.2221523692075
 30
0.0
 11
-110.3337774573344
 21
343.7230798996181
 31
0.0
  0
LINE
  5
A981
330
1F
100
AcDbEntity
  8
DETAILS
 62
     6
370
    20
100
AcDbLine
 10
-110.8087774573366
 20
339.5719213404484
 30
0.0
 11
-110.8087774573366
 21
340.1129443861843
 31
0.0
  0
ARC
  5
A982
330
1F
100
AcDbEntity
  8
DETAILS
 62
     6
370
    20
100
AcDbCircle
 10
-110.9087774573369
 20
340.1129443861843
 30
0.0
 40
0.0999999999999091
100
AcDbArc
 50
0.0
 51
136.1691393279388
  0
LINE
  5
A983
330
1F
100
AcDbEntity
  8
DETAILS
 62
     6
370
    20
100
AcDbLine
 10
-110.9809161894397
 20
340.1821975690034
 30
0.0
 11
-111.500298313346
 21
339.6411745232673
 31
0.0
  0
ARC
  5
A984
330
1F
100
AcDbEntity
  8
DETAILS
 62
     6
370
    20
100
AcDbCircle
 10
-111.4281595812433
 20
339.5719213404484
 30
0.0
 40
0.1000000000000336
100
AcDbArc
 50
136.1691393279929
 51
270.0
  0
LINE
  5
A985
330
1F
100
AcDbEntity
  8
DETAILS
 62
     6
370
    20
100
AcDbLine
 10
-111.4281595812433
 20
339.4719213404485
 30
0.0
 11
-110.9087774573369
 21
339.4719213404485
 31
0.0
  0
ARC
  5
A986
330
1F
100
AcDbEntity
  8
DETAILS
 62
     6
370
    20
100
AcDbCircle
 10
-110.9087774573369
 20
339.5719213404484
 30
0.0
 40
0.1000000000001364
100
AcDbArc
 50
270.0000000002606
 51
359.9999999998958
  0
LINE
  5
A987
330
1F
100
AcDbEntity
  8
DETAILS
 62
     6
370
    20
100
AcDbLine
 10
-110.9087774573369
 20
338.1519213404483
 30
0.0
 11
-111.4281595812433
 21
338.1519213404483
 31
0.0
  0
ARC
  5
A988
330
1F
100
AcDbEntity
  8
DETAILS
 62
     6
370
    20
100
AcDbCircle
 10
-111.4281595812433
 20
338.0519213404483
 30
0.0
 40
0.1000000000000227
100
AcDbArc
 50
90.0
 51
223.8308606720071
  0
LINE
  5
A989
330
1F
100
AcDbEntity
  8
DETAILS
 62
     6
370
    20
100
AcDbLine
 10
-111.500298313346
 20
337.9826681576294
 30
0.0
 11
-110.9809161894397
 21
337.4416451118934
 31
0.0
  0
ARC
  5
A98A
330
1F
100
AcDbEntity
  8
DETAILS
 62
     6
370
    20
100
AcDbCircle
 10
-110.9087774573369
 20
337.5108982947124
 30
0.0
 40
0.1000000000000336
100
AcDbArc
 50
223.8308606720071
 51
0.0000000000260551
  0
LINE
  5
A98B
330
1F
100
AcDbEntity
  8
DETAILS
 62
     6
370
    20
100
AcDbLine
 10
-110.8087774573366
 20
337.5108982947124
 30
0.0
 11
-110.8087774573366
 21
338.0519213404483
 31
0.0
  0
ARC
  5
A98C
330
1F
100
AcDbEntity
  8
DETAILS
 62
     6
370
    20
100
AcDbCircle
 10
-110.9087774573369
 20
338.0519213404483
 30
0.0
 40
0.1000000000003638
100
AcDbArc
 50
0.0000000001042204
 51
89.99999999973944
  0
LWPOLYLINE
  5
A98D
330
1F
100
AcDbEntity
  8
DIM
100
AcDbPolyline
 90
        6
 70
     0
 43
0.0
 10
-105.4448428008488
 20
345.4150403046962
 10
-112.0717234352775
 20
343.1675825978579
 10
-111.1356804184776
 20
340.4075549799151
 10
-115.73187449619
 20
345.003749057628
 10
-114.7958314793883
 20
342.2437214396852
 10
-122.8856337108915
 20
339.7120888012384
  0
LWPOLYLINE
  5
A98E
330
1F
100
AcDbEntity
  8
DIM
100
AcDbPolyline
 90
        6
 70
     0
 43
0.0
 10
-104.8198428008488
 20
288.9909250533161
 10
-112.0717234352775
 20
286.7434673464783
 10
-111.1356804184776
 20
283.9834397285356
 10
-115.73187449619
 20
288.579633806248
 10
-114.7958314793883
 20
285.8196061883056
 10
-122.2606337108915
 20
283.2879735498588
  0
LWPOLYLINE
  5
A98F
330
1F
100
AcDbEntity
  8
DETAILS
 62
     6
370
    20
100
AcDbPolyline
 90
        4
 70
     0
 43
0.0
 10
-114.0241500598937
 20
286.8719093699512
 10
-113.1820242197006
 20
286.8719093699512
 42
0.4142135623730951
 10
-112.9820242196999
 20
287.0719093699515
 10
-112.9820242196999
 20
287.9019093699514
  0
LWPOLYLINE
  5
A990
330
1F
100
AcDbEntity
  8
DETAILS
 62
     6
370
    20
100
AcDbPolyline
 90
        4
 70
     0
 43
0.0
 10
-113.9241500598934
 20
286.7719093699513
 10
-113.1820242197006
 20
286.7719093699513
 42
0.4142135623730951
 10
-112.8820242196995
 20
287.0719093699515
 10
-112.8820242196995
 20
287.9019093699514
  0
LWPOLYLINE
  5
A991
330
1F
100
AcDbEntity
  8
DETAILS
 62
     6
370
    20
100
AcDbPolyline
 90
        6
 70
     0
 43
0.0
 10
-115.2041500598931
 20
288.051909369951
 10
-112.5337774573342
 20
288.0519093699515
 10
-109.0331459493479
 20
288.0519093699515
 10
-109.0331459493479
 20
288.2019093699516
 10
-112.5337774573342
 20
288.2019093699516
 10
-115.3541500598937
 20
288.2019093699516
  0
LWPOLYLINE
  5
A992
330
1F
100
AcDbEntity
  8
DETAILS
 62
     6
370
    20
100
AcDbPolyline
 90
        8
 70
     0
 43
0.0
 10
-115.1041500598937
 20
287.9519093699511
 10
-112.5337774573324
 20
287.9519093699511
 10
-109.3831459493482
 20
287.9519093699511
 10
-109.285418342473
 20
287.9739989424508
 42
0.7807764064044151
 10
-109.285418342473
 20
287.9798197974516
 10
-109.3831459493482
 20
288.0019093699513
 10
-112.5337774573342
 20
288.0019093699513
 10
-115.154150059893
 20
288.0019093699513
  0
LWPOLYLINE
  5
A993
330
1F
100
AcDbEntity
  8
DETAILS
 62
     6
370
    20
100
AcDbPolyline
 90
        4
 70
     0
 43
0.0
 10
-115.5020292505166
 20
287.9019093699514
 10
-116.0344089653187
 20
287.9019093699514
 10
-115.7844089653187
 20
287.9019093699514
 10
-115.6844089653183
 20
287.9019093699514
  0
LWPOLYLINE
  5
A994
330
1F
100
AcDbEntity
  8
DETAILS
 62
     6
370
    20
100
AcDbPolyline
 90
        4
 70
     0
 43
0.0
 10
-115.5020292505166
 20
287.9019093699514
 10
-116.0929876090828
 20
287.9019093699514
 42
0.1989123673782987
 10
-116.1636982872002
 20
287.8726200480702
 10
-116.5337774573342
 20
287.5025408779395
  0
LWPOLYLINE
  5
A995
330
1F
100
AcDbEntity
  8
DETAILS
 62
     6
370
    20
100
AcDbPolyline
 90
        2
 70
     0
 43
0.0
 10
-110.7017332140792
 20
287.2080894289899
 10
-110.5344415160904
 20
287.9019093699514
  0
LWPOLYLINE
  5
A996
330
1F
100
AcDbEntity
  8
DETAILS
 62
     6
370
    20
100
AcDbPolyline
 90
        2
 70
     0
 43
0.0
 10
-110.8137597658703
 20
287.1700964499275
 10
-110.6373073193878
 20
287.9019093699514
  0
LWPOLYLINE
  5
A997
330
1F
100
AcDbEntity
  8
DETAILS
 62
     6
370
    20
100
AcDbPolyline
 90
        5
 70
     0
 43
0.0
 10
-115.5041500598933
 20
288.3519093699512
 10
-112.5337774573342
 20
288.3519093699512
 10
-108.9745673055856
 20
288.3519093699512
 42
0.1989123673781768
 10
-108.9038566274663
 20
288.3811986918324
 10
-108.5337774573342
 20
288.7512778619604
  0
LWPOLYLINE
  5
A998
330
1F
100
AcDbEntity
  8
DETAILS
 62
     6
370
    20
100
AcDbPolyline
 90
        5
 70
     0
 43
0.0
 10
-115.704150059894
 20
288.5519093699515
 10
-112.5337774573324
 20
288.5519093699515
 10
-109.1402527305324
 20
288.5519093699515
 42
0.1989123673777968
 10
-108.7866993399418
 20
288.6983559793559
 10
-108.5337774573342
 20
288.9512778619589
  0
MTEXT
  5
A999
330
1F
100
AcDbEntity
  8
DIM
 62
     3
100
AcDbMText
 10
-89.93799723824002
 20
288.4161453857889
 30
0.0
 40
1.0
 41
15.714990365186
 71
     1
 72
     5
  1
REINFORCEMENT AND WELD PER ENGINEER
  7
RomanC
 73
     1
 44
1.0
1001
ACAD
1000
MTEXTBEGIN
1070
    73
1070
     1
1070
    44
1040
1.0
1070
    74
1070
     0
1000
MTEXTEND
  0
LWPOLYLINE
  5
A99A
330
1F
100
AcDbEntity
  8
A4 medium
 48
0.15
100
AcDbPolyline
 90
        4
 70
     1
 43
0.0
 10
-90.53613417622973
 20
289.1017738595548
 10
-74.39202852140141
 20
289.1017738595548
 10
-74.39202852140141
 20
284.6004412112236
 10
-90.53613417622973
 20
284.6004412112236
  0
MTEXT
  5
A99B
330
1F
100
AcDbEntity
  8
Defpoints
100
AcDbMText
 10
-109.4383929463917
 20
263.8762728633775
 30
0.0
 40
3.0
 41
90.07999999999999
 71
     2
 72
     5
  1
{\L21}\P            
  7
RomanC
 73
     1
 44
1.0
1001
ACAD
1000
MTEXTBEGIN
1070
    73
1070
     1
1070
    44
1040
1.0
1070
    74
1070
     0
1000
MTEXTEND
  0
LINE
  5
A99C
330
1F
100
AcDbEntity
  8
REBAR
 48
0.15
100
AcDbLine
 10
-112.6997476516432
 20
315.5519213404484
 30
0.0
 11
-112.6997476516441
 21
316.5519193911966
 31
0.0
  0
ARC
  5
A99D
330
1F
100
AcDbEntity
  8
REBAR
 48
0.15
100
AcDbCircle
 10
-109.6997476516441
 20
316.5519193911966
 30
0.0
 40
3.0
100
AcDbArc
 50
90.0
 51
180.0
  0
MTEXT
  5
A99E
330
1F
100
AcDbEntity
  8
DIM
 62
     3
100
AcDbMText
 10
-96.27431037017567
 20
313.0033079335264
 30
0.0
 40
1.0
 41
22.68954545454545
 71
     1
 72
     5
  1
WELD PER ENGINEER
  7
RomanC
 73
     1
 44
1.0
1001
ACAD
1000
MTEXTBEGIN
1070
    73
1070
     1
1070
    44
1040
1.0
1070
    74
1070
     0
1000
MTEXTEND
  0
ENDSEC
  0
SECTION
  2
OBJECTS
  0
DICTIONARY
  5
C
330
0
100
AcDbDictionary
281
     1
  3
ACAD_COLOR
350
73
  3
ACAD_GROUP
350
D
  3
ACAD_LAYOUT
350
1A
  3
ACAD_MATERIAL
350
72
  3
ACAD_MLINESTYLE
350
17
  3
ACAD_PLOTSETTINGS
350
19
  3
ACAD_PLOTSTYLENAME
350
E
  3
ACDBHEADERROUNDTRIPXREC
350
A9AA
  3
AcDbVariableDictionary
350
66
  0
DICTIONARY
  5
A9
330
2
100
AcDbDictionary
280
     1
281
     1
  3
ACAD_LAYERSTATES
360
AA
  0
DICTIONARY
  5
73
102
{ACAD_REACTORS
330
C
102
}
330
C
100
AcDbDictionary
281
     1
  0
DICTIONARY
  5
D
102
{ACAD_REACTORS
330
C
102
}
330
C
100
AcDbDictionary
281
     1
  0
DICTIONARY
  5
1A
102
{ACAD_REACTORS
330
C
102
}
330
C
100
AcDbDictionary
281
     1
  3
Layout1
350
59
  3
Layout2
350
5E
  3
Model
350
22
  0
DICTIONARY
  5
72
102
{ACAD_REACTORS
330
C
102
}
330
C
100
AcDbDictionary
281
     1
  0
DICTIONARY
  5
17
102
{ACAD_REACTORS
330
C
102
}
330
C
100
AcDbDictionary
281
     1
  3
Standard
350
18
  0
DICTIONARY
  5
19
102
{ACAD_REACTORS
330
C
102
}
330
C
100
AcDbDictionary
281
     1
  0
ACDBDICTIONARYWDFLT
  5
E
102
{ACAD_REACTORS
330
C
102
}
330
C
100
AcDbDictionary
281
     1
  3
Normal
350
F
100
AcDbDictionaryWithDefault
340
F
  0
DICTIONARY
  5
A9AA
102
{ACAD_REACTORS
330
C
102
}
330
C
100
AcDbDictionary
281
     1
  3
COLORDICT
350
A9AC
  3
MATERIALDICT
350
A9AB
  0
DICTIONARY
  5
66
102
{ACAD_REACTORS
330
C
102
}
330
C
100
AcDbDictionary
281
     1
  3
DIMASSOC
350
67
  3
HIDETEXT
350
6B
  3
PROJECTNAME
350
1065
  0
DICTIONARY
  5
AA
102
{ACAD_REACTORS
330
A9
102
}
330
A9
100
AcDbDictionary
281
     1
  0
LAYOUT
  5
59
102
{ACAD_XDICTIONARY
360
A9AF
102
}
102
{ACAD_REACTORS
330
1A
102
}
330
1A
100
AcDbPlotSettings
  1

  2
None
  4

  6

 40
0.0
 41
0.0
 42
0.0
 43
0.0
 44
0.0
 45
0.0
 46
0.0
 47
0.0
 48
0.0
 49
0.0
140
0.0
141
0.0
142
1.0
143
1.0
 70
   688
 72
     0
 73
     0
 74
     5
  7

 75
    16
147
1.0
148
0.0
149
0.0
100
AcDbLayout
  1
Layout1
 70
     1
 71
     1
 10
0.0
 20
0.0
 11
12.0
 21
9.0
 12
0.0
 22
0.0
 32
0.0
 14
0.0
 24
0.0
 34
0.0
 15
0.0
 25
0.0
 35
0.0
146
0.0
 13
0.0
 23
0.0
 33
0.0
 16
1.0
 26
0.0
 36
0.0
 17
0.0
 27
1.0
 37
0.0
 76
     0
330
58
  0
LAYOUT
  5
5E
102
{ACAD_XDICTIONARY
360
A9B1
102
}
102
{ACAD_REACTORS
330
1A
102
}
330
1A
100
AcDbPlotSettings
  1

  2
None
  4

  6

 40
0.0
 41
0.0
 42
0.0
 43
0.0
 44
0.0
 45
0.0
 46
0.0
 47
0.0
 48
0.0
 49
0.0
140
0.0
141
0.0
142
1.0
143
1.0
 70
   688
 72
     0
 73
     0
 74
     5
  7

 75
    16
147
1.0
148
0.0
149
0.0
100
AcDbLayout
  1
Layout2
 70
     1
 71
     2
 10
0.0
 20
0.0
 11
12.0
 21
9.0
 12
0.0
 22
0.0
 32
0.0
 14
0.0
 24
0.0
 34
0.0
 15
0.0
 25
0.0
 35
0.0
146
0.0
 13
0.0
 23
0.0
 33
0.0
 16
1.0
 26
0.0
 36
0.0
 17
0.0
 27
1.0
 37
0.0
 76
     0
330
5D
  0
LAYOUT
  5
22
102
{ACAD_XDICTIONARY
360
A9AD
102
}
102
{ACAD_REACTORS
330
1A
102
}
330
1A
100
AcDbPlotSettings
  1

  2
none_device
  4
ANSI_A_(8.50_x_11.00_Inches)
  6

 40
6.349999904632568
 41
19.04999923706055
 42
6.350006103515625
 43
19.04998779296875
 44
215.8999938964844
 45
279.3999938964844
 46
0.0
 47
0.0
 48
0.0
 49
0.0
140
0.0
141
0.0
142
1.0
143
2.584895464708373
 70
 11952
 72
     0
 73
     1
 74
     0
  7

 75
     0
147
0.3868628397755418
148
0.0
149
0.0
100
AcDbLayout
  1
Model
 70
     1
 71
     0
 10
0.0
 20
0.0
 11
12.0
 21
9.0
 12
0.0
 22
0.0
 32
0.0
 14
0.0
 24
0.0
 34
0.0
 15
0.0
 25
0.0
 35
0.0
146
0.0
 13
0.0
 23
0.0
 33
0.0
 16
1.0
 26
0.0
 36
0.0
 17
0.0
 27
1.0
 37
0.0
 76
     0
330
1F
  0
MLINESTYLE
  5
18
102
{ACAD_REACTORS
330
17
102
}
330
17
100
AcDbMlineStyle
  2
STANDARD
 70
     0
  3

 62
   256
 51
90.0
 52
90.0
 71
     2
 49
0.5
 62
   256
  6
BYLAYER
 49
-0.5
 62
   256
  6
BYLAYER
  0
ACDBPLACEHOLDER
  5
F
102
{ACAD_REACTORS
330
E
102
}
330
E
  0
XRECORD
  5
A9AC
102
{ACAD_REACTORS
330
A9AA
102
}
330
A9AA
100
AcDbXrecord
280
     1
340
73
  0
XRECORD
  5
A9AB
102
{ACAD_REACTORS
330
A9AA
102
}
330
A9AA
100
AcDbXrecord
280
     1
340
72
  0
DICTIONARYVAR
  5
67
102
{ACAD_REACTORS
330
66
102
}
330
66
100
DictionaryVariables
280
     0
  1
2
  0
DICTIONARYVAR
  5
6B
102
{ACAD_REACTORS
330
66
102
}
330
66
100
DictionaryVariables
280
     0
  1
1
  0
DICTIONARYVAR
  5
1065
102
{ACAD_REACTORS
330
66
102
}
330
66
100
DictionaryVariables
280
     0
  1

  0
DICTIONARY
  5
A9AF
330
59
100
AcDbDictionary
280
     1
281
     1
  3
ACAD_XREC_ROUNDTRIP
360
A9B0
  0
DICTIONARY
  5
A9B1
330
5E
100
AcDbDictionary
280
     1
281
     1
  3
ACAD_XREC_ROUNDTRIP
360
A9B2
  0
DICTIONARY
  5
A9AD
330
22
100
AcDbDictionary
280
     1
281
     1
  3
ACAD_XREC_ROUNDTRIP
360
A9AE
  0
XRECORD
  5
A9B0
102
{ACAD_REACTORS
330
A9AF
102
}
330
A9AF
100
AcDbXrecord
280
     1
102
SHADEPLOT
 70
     0
102
SHADEPLOTRESLEVEL
 70
     2
102
SHADEPLOTCUSTOMDPI
 70
   300
  0
XRECORD
  5
A9B2
102
{ACAD_REACTORS
330
A9B1
102
}
330
A9B1
100
AcDbXrecord
280
     1
102
SHADEPLOT
 70
     0
102
SHADEPLOTRESLEVEL
 70
     2
102
SHADEPLOTCUSTOMDPI
 70
   300
  0
XRECORD
  5
A9AE
102
{ACAD_REACTORS
330
A9AD
102
}
330
A9AD
100
AcDbXrecord
280
     1
102
SHADEPLOT
 70
     0
102
SHADEPLOTRESLEVEL
 70
     2
102
SHADEPLOTCUSTOMDPI
 70
   300
  0
ENDSEC
  0
EOF
