  0
SECTION
  2
HEADER
  9
$ACADVER
  1
AC1015
  9
$ACADMAINTVER
 70
    20
  9
$DWGCODEPAGE
  3
ANSI_1252
  9
$INSBASE
 10
0.0
 20
0.0
 30
0.0
  9
$EXTMIN
 10
12.40544964034699
 20
6.73905121981892
 30
0.0
  9
$EXTMAX
 10
78.94871988033471
 20
77.0887561994937
 30
0.0
  9
$LIMMIN
 10
0.0
 20
0.0
  9
$LIMMAX
 10
12.0
 20
9.0
  9
$ORTHOMODE
 70
     0
  9
$REGENMODE
 70
     1
  9
$FILLMODE
 70
     1
  9
$QTEXTMODE
 70
     0
  9
$MIRRTEXT
 70
     0
  9
$LTSCALE
 40
1.0
  9
$ATTMODE
 70
     1
  9
$TEXTSIZE
 40
0.2
  9
$TRACEWID
 40
0.05
  9
$TEXTSTYLE
  7
Standard
  9
$CLAYER
  8
0
  9
$CELTYPE
  6
ByLayer
  9
$CECOLOR
 62
   256
  9
$CELTSCALE
 40
1.0
  9
$DISPSILH
 70
     0
  9
$DIMSCALE
 40
1.0
  9
$DIMASZ
 40
0.18
  9
$DIMEXO
 40
0.0625
  9
$DIMDLI
 40
0.38
  9
$DIMRND
 40
0.0
  9
$DIMDLE
 40
0.0
  9
$DIMEXE
 40
0.18
  9
$DIMTP
 40
0.0
  9
$DIMTM
 40
0.0
  9
$DIMTXT
 40
0.18
  9
$DIMCEN
 40
0.09
  9
$DIMTSZ
 40
0.0
  9
$DIMTOL
 70
     0
  9
$DIMLIM
 70
     0
  9
$DIMTIH
 70
     1
  9
$DIMTOH
 70
     1
  9
$DIMSE1
 70
     0
  9
$DIMSE2
 70
     0
  9
$DIMTAD
 70
     0
  9
$DIMZIN
 70
     0
  9
$DIMBLK
  1

  9
$DIMASO
 70
     1
  9
$DIMSHO
 70
     1
  9
$DIMPOST
  1

  9
$DIMAPOST
  1

  9
$DIMALT
 70
     0
  9
$DIMALTD
 70
     2
  9
$DIMALTF
 40
25.4
  9
$DIMLFAC
 40
1.0
  9
$DIMTOFL
 70
     0
  9
$DIMTVP
 40
0.0
  9
$DIMTIX
 70
     0
  9
$DIMSOXD
 70
     0
  9
$DIMSAH
 70
     0
  9
$DIMBLK1
  1

  9
$DIMBLK2
  1

  9
$DIMSTYLE
  2
Standard
  9
$DIMCLRD
 70
     0
  9
$DIMCLRE
 70
     0
  9
$DIMCLRT
 70
     0
  9
$DIMTFAC
 40
1.0
  9
$DIMGAP
 40
0.09
  9
$DIMJUST
 70
     0
  9
$DIMSD1
 70
     0
  9
$DIMSD2
 70
     0
  9
$DIMTOLJ
 70
     1
  9
$DIMTZIN
 70
     0
  9
$DIMALTZ
 70
     0
  9
$DIMALTTZ
 70
     0
  9
$DIMUPT
 70
     0
  9
$DIMDEC
 70
     4
  9
$DIMTDEC
 70
     4
  9
$DIMALTU
 70
     2
  9
$DIMALTTD
 70
     2
  9
$DIMTXSTY
  7
Standard
  9
$DIMAUNIT
 70
     0
  9
$DIMADEC
 70
     0
  9
$DIMALTRND
 40
0.0
  9
$DIMAZIN
 70
     0
  9
$DIMDSEP
 70
    46
  9
$DIMATFIT
 70
     3
  9
$DIMFRAC
 70
     0
  9
$DIMLDRBLK
  1

  9
$DIMLUNIT
 70
     2
  9
$DIMLWD
 70
    -2
  9
$DIMLWE
 70
    -2
  9
$DIMTMOVE
 70
     0
  9
$LUNITS
 70
     2
  9
$LUPREC
 70
     4
  9
$SKETCHINC
 40
0.1
  9
$FILLETRAD
 40
0.0
  9
$AUNITS
 70
     0
  9
$AUPREC
 70
     0
  9
$MENU
  1
.
  9
$ELEVATION
 40
0.0
  9
$PELEVATION
 40
0.0
  9
$THICKNESS
 40
0.0
  9
$LIMCHECK
 70
     0
  9
$CHAMFERA
 40
0.0
  9
$CHAMFERB
 40
0.0
  9
$CHAMFERC
 40
0.0
  9
$CHAMFERD
 40
0.0
  9
$SKPOLY
 70
     0
  9
$TDCREATE
 40
2454938.341299120
  9
$TDUCREATE
 40
2454938.591299121
  9
$TDUPDATE
 40
2454938.342137373
  9
$TDUUPDATE
 40
2454938.592137373
  9
$TDINDWG
 40
0.0008385995
  9
$TDUSRTIMER
 40
0.0008385995
  9
$USRTIMER
 70
     1
  9
$ANGBASE
 50
0.0
  9
$ANGDIR
 70
     0
  9
$PDMODE
 70
     0
  9
$PDSIZE
 40
0.0
  9
$PLINEWID
 40
0.0
  9
$SPLFRAME
 70
     0
  9
$SPLINETYPE
 70
     6
  9
$SPLINESEGS
 70
     8
  9
$HANDSEED
  5
336
  9
$SURFTAB1
 70
     6
  9
$SURFTAB2
 70
     6
  9
$SURFTYPE
 70
     6
  9
$SURFU
 70
     6
  9
$SURFV
 70
     6
  9
$UCSBASE
  2

  9
$UCSNAME
  2

  9
$UCSORG
 10
0.0
 20
0.0
 30
0.0
  9
$UCSXDIR
 10
1.0
 20
0.0
 30
0.0
  9
$UCSYDIR
 10
0.0
 20
1.0
 30
0.0
  9
$UCSORTHOREF
  2

  9
$UCSORTHOVIEW
 70
     0
  9
$UCSORGTOP
 10
0.0
 20
0.0
 30
0.0
  9
$UCSORGBOTTOM
 10
0.0
 20
0.0
 30
0.0
  9
$UCSORGLEFT
 10
0.0
 20
0.0
 30
0.0
  9
$UCSORGRIGHT
 10
0.0
 20
0.0
 30
0.0
  9
$UCSORGFRONT
 10
0.0
 20
0.0
 30
0.0
  9
$UCSORGBACK
 10
0.0
 20
0.0
 30
0.0
  9
$PUCSBASE
  2

  9
$PUCSNAME
  2

  9
$PUCSORG
 10
0.0
 20
0.0
 30
0.0
  9
$PUCSXDIR
 10
1.0
 20
0.0
 30
0.0
  9
$PUCSYDIR
 10
0.0
 20
1.0
 30
0.0
  9
$PUCSORTHOREF
  2

  9
$PUCSORTHOVIEW
 70
     0
  9
$PUCSORGTOP
 10
0.0
 20
0.0
 30
0.0
  9
$PUCSORGBOTTOM
 10
0.0
 20
0.0
 30
0.0
  9
$PUCSORGLEFT
 10
0.0
 20
0.0
 30
0.0
  9
$PUCSORGRIGHT
 10
0.0
 20
0.0
 30
0.0
  9
$PUCSORGFRONT
 10
0.0
 20
0.0
 30
0.0
  9
$PUCSORGBACK
 10
0.0
 20
0.0
 30
0.0
  9
$USERI1
 70
     0
  9
$USERI2
 70
     0
  9
$USERI3
 70
     0
  9
$USERI4
 70
     0
  9
$USERI5
 70
     0
  9
$USERR1
 40
0.0
  9
$USERR2
 40
0.0
  9
$USERR3
 40
0.0
  9
$USERR4
 40
0.0
  9
$USERR5
 40
0.0
  9
$WORLDVIEW
 70
     1
  9
$SHADEDGE
 70
     3
  9
$SHADEDIF
 70
    70
  9
$TILEMODE
 70
     1
  9
$MAXACTVP
 70
    64
  9
$PINSBASE
 10
0.0
 20
0.0
 30
0.0
  9
$PLIMCHECK
 70
     0
  9
$PEXTMIN
 10
0.0
 20
0.0
 30
0.0
  9
$PEXTMAX
 10
0.0
 20
0.0
 30
0.0
  9
$PLIMMIN
 10
0.0
 20
0.0
  9
$PLIMMAX
 10
12.0
 20
9.0
  9
$UNITMODE
 70
     0
  9
$VISRETAIN
 70
     1
  9
$PLINEGEN
 70
     0
  9
$PSLTSCALE
 70
     1
  9
$TREEDEPTH
 70
  3020
  9
$CMLSTYLE
  2
Standard
  9
$CMLJUST
 70
     0
  9
$CMLSCALE
 40
1.0
  9
$PROXYGRAPHICS
 70
     1
  9
$MEASUREMENT
 70
     0
  9
$CELWEIGHT
370
    -1
  9
$ENDCAPS
280
     0
  9
$JOINSTYLE
280
     0
  9
$LWDISPLAY
290
     0
  9
$INSUNITS
 70
     1
  9
$HYPERLINKBASE
  1

  9
$STYLESHEET
  1

  9
$XEDIT
290
     1
  9
$CEPSNTYPE
380
     0
  9
$PSTYLEMODE
290
     1
  9
$FINGERPRINTGUID
  2
{FDEAD576-A652-11D2-9A35-0060089B3A3F}
  9
$VERSIONGUID
  2
{3A1EC780-8CD7-472F-86AF-605758843794}
  9
$EXTNAMES
290
     1
  9
$PSVPSCALE
 40
0.0
  9
$OLESTARTUP
290
     0
  0
ENDSEC
  0
SECTION
  2
CLASSES
  0
CLASS
  1
ACDBDICTIONARYWDFLT
  2
AcDbDictionaryWithDefault
  3
ObjectDBX Classes
 90
        0
280
     0
281
     0
  0
CLASS
  1
ACDBPLACEHOLDER
  2
AcDbPlaceHolder
  3
ObjectDBX Classes
 90
        0
280
     0
281
     0
  0
CLASS
  1
LAYOUT
  2
AcDbLayout
  3
ObjectDBX Classes
 90
        0
280
     0
281
     0
  0
CLASS
  1
DICTIONARYVAR
  2
AcDbDictionaryVar
  3
ObjectDBX Classes
 90
        0
280
     0
281
     0
  0
CLASS
  1
SORTENTSTABLE
  2
AcDbSortentsTable
  3
ObjectDBX Classes
 90
        0
280
     0
281
     0
  0
ENDSEC
  0
SECTION
  2
TABLES
  0
TABLE
  2
VPORT
  5
8
330
0
100
AcDbSymbolTable
 70
     2
  0
VPORT
  5
32C
330
8
100
AcDbSymbolTableRecord
100
AcDbViewportTableRecord
  2
*Active
 70
     0
 10
0.0
 20
0.0
 11
1.0
 21
1.0
 12
45.67708476034086
 22
41.9139037096563
 13
0.0
 23
0.0
 14
0.5
 24
0.5
 15
0.5
 25
0.5
 16
0.0
 26
0.0
 36
1.0
 17
0.0
 27
0.0
 37
0.0
 40
70.85764508783128
 41
1.48433734939759
 42
50.0
 43
0.0
 44
0.0
 50
0.0
 51
0.0
 71
     0
 72
  1000
 73
     1
 74
     3
 75
     0
 76
     0
 77
     0
 78
     0
281
     0
 65
     1
110
0.0
120
0.0
130
0.0
111
1.0
121
0.0
131
0.0
112
0.0
122
1.0
132
0.0
 79
     0
146
0.0
  0
ENDTAB
  0
TABLE
  2
LTYPE
  5
5
330
0
100
AcDbSymbolTable
 70
     3
  0
LTYPE
  5
14
330
5
100
AcDbSymbolTableRecord
100
AcDbLinetypeTableRecord
  2
ByBlock
 70
     0
  3

 72
    65
 73
     0
 40
0.0
  0
LTYPE
  5
15
330
5
100
AcDbSymbolTableRecord
100
AcDbLinetypeTableRecord
  2
ByLayer
 70
     0
  3

 72
    65
 73
     0
 40
0.0
  0
LTYPE
  5
16
330
5
100
AcDbSymbolTableRecord
100
AcDbLinetypeTableRecord
  2
Continuous
 70
     0
  3
Solid line
 72
    65
 73
     0
 40
0.0
  0
LTYPE
  5
96
330
5
100
AcDbSymbolTableRecord
100
AcDbLinetypeTableRecord
  2
DASHED2
 70
     0
  3
_ _ _ _ _ _ _ _ _ _ _ _ _ _ _ _ _ _ _ _ _ _ _ _
 72
    65
 73
     2
 40
0.375
 49
0.25
 74
     0
 49
-0.125
 74
     0
  0
LTYPE
  5
97
330
5
100
AcDbSymbolTableRecord
100
AcDbLinetypeTableRecord
  2
HIDDEN
 70
     0
  3
Hidden __ __ __ __ __ __ __ __ __ __ __ __ __ _
 72
    65
 73
     2
 40
0.375
 49
0.25
 74
     0
 49
-0.125
 74
     0
  0
ENDTAB
  0
TABLE
  2
LAYER
  5
2
102
{ACAD_XDICTIONARY
360
A4
102
}
330
0
100
AcDbSymbolTable
 70
     6
  0
LAYER
  5
10
330
2
100
AcDbSymbolTableRecord
100
AcDbLayerTableRecord
  2
0
 70
     0
 62
     7
  6
Continuous
370
    -3
390
F
  0
LAYER
  5
98
330
2
100
AcDbSymbolTableRecord
100
AcDbLayerTableRecord
  2
DIM
 70
     0
 62
     3
  6
Continuous
370
    13
390
F
  0
LAYER
  5
99
330
2
100
AcDbSymbolTableRecord
100
AcDbLayerTableRecord
  2
Defpoints
 70
     0
 62
   252
  6
Continuous
290
     0
370
    -3
390
F
  0
LAYER
  5
9A
330
2
100
AcDbSymbolTableRecord
100
AcDbLayerTableRecord
  2
A2 Hatch
 70
     0
 62
     8
  6
Continuous
370
     9
390
F
  0
LAYER
  5
9B
330
2
100
AcDbSymbolTableRecord
100
AcDbLayerTableRecord
  2
A5 heavy
 70
     0
 62
     5
  6
Continuous
370
    53
390
F
  0
LAYER
  5
9C
330
2
100
AcDbSymbolTableRecord
100
AcDbLayerTableRecord
  2
DETAILS
 70
     0
 62
     7
  6
Continuous
370
    13
390
F
  0
ENDTAB
  0
TABLE
  2
STYLE
  5
3
330
0
100
AcDbSymbolTable
 70
     4
  0
STYLE
  5
11
330
3
100
AcDbSymbolTableRecord
100
AcDbTextStyleTableRecord
  2
Standard
 70
     0
 40
0.0
 41
1.0
 50
0.0
 71
     0
 42
0.2
  3
txt
  4

  0
STYLE
  5
9D
330
3
100
AcDbSymbolTableRecord
100
AcDbTextStyleTableRecord
  2
ARCHITXT
 70
     0
 40
0.0
 41
1.25
 50
0.0
 71
     0
 42
1.0
  3
ARCHITXT.shx
  4

  0
STYLE
  5
9E
330
3
100
AcDbSymbolTableRecord
100
AcDbTextStyleTableRecord
  2
ARCTEXT
 70
     0
 40
0.0
 41
0.85
 50
0.0
 71
     0
 42
5.096770384644268
  3
arctext.shx
  4

  0
STYLE
  5
9F
330
3
100
AcDbSymbolTableRecord
100
AcDbTextStyleTableRecord
  2
RomanC
 70
     0
 40
5.0
 41
0.85
 50
0.0
 71
     0
 42
10.0
  3
romanc.shx
  4

  0
ENDTAB
  0
TABLE
  2
VIEW
  5
6
330
0
100
AcDbSymbolTable
 70
     0
  0
ENDTAB
  0
TABLE
  2
UCS
  5
7
330
0
100
AcDbSymbolTable
 70
     0
  0
ENDTAB
  0
TABLE
  2
APPID
  5
9
330
0
100
AcDbSymbolTable
 70
     1
  0
APPID
  5
12
330
9
100
AcDbSymbolTableRecord
100
AcDbRegAppTableRecord
  2
ACAD
 70
     0
  0
ENDTAB
  0
TABLE
  2
DIMSTYLE
  5
A
330
0
100
AcDbSymbolTable
 70
     5
100
AcDbDimStyleTable
 71
     0
  0
DIMSTYLE
105
27
330
A
100
AcDbSymbolTableRecord
100
AcDbDimStyleTableRecord
  2
Standard
 70
     0
340
11
  0
DIMSTYLE
105
A0
330
A
100
AcDbSymbolTableRecord
100
AcDbDimStyleTableRecord
  2
Copy of ROMANS
 70
     0
 41
0.75
 42
0.125
 43
0.125
 44
0.125
 73
     0
 74
     0
 77
     1
 78
     3
140
1.0
141
6.0
147
0.25
172
     1
175
     1
176
     2
177
     2
178
     2
271
     3
272
     3
273
     4
275
     1
277
     4
279
     2
284
     3
285
     3
286
     3
340
9D
  0
DIMSTYLE
105
A1
330
A
100
AcDbSymbolTableRecord
100
AcDbDimStyleTableRecord
  2
ARCTEXT
 70
     0
 40
0.0
 41
2.0
 42
1.0
 43
0.375
 44
0.1875
 73
     0
 74
     0
140
4.0
141
2.0
147
2.0
176
     2
177
     2
178
     2
277
     4
340
9E
341
8D
342
89
  0
DIMSTYLE
105
A2
330
A
100
AcDbSymbolTableRecord
100
AcDbDimStyleTableRecord
  2
ARCTEXT1-4
 70
     0
 41
2.0
 42
2.0
 43
2.0
 44
2.0
 73
     0
 74
     0
 77
     1
 78
     3
140
4.0
141
2.0
147
2.0
172
     1
175
     1
275
     1
277
     4
279
     2
340
9E
341
8D
342
89
  0
DIMSTYLE
105
A3
102
{ACAD_REACTORS
330
1E4
330
1E3
330
1E2
330
1E1
330
1E0
330
1DF
102
}
330
A
100
AcDbSymbolTableRecord
100
AcDbDimStyleTableRecord
  2
ARCTEXT 1-1
 70
     0
 40
0.0
 41
1.0
 42
1.0
 43
0.375
 44
0.1875
 73
     0
 74
     0
 77
     1
 78
     3
140
1.0
141
1.0
147
0.5
176
   256
177
   256
178
   256
277
     4
279
     2
340
9E
341
8D
342
89
  0
ENDTAB
  0
TABLE
  2
BLOCK_RECORD
  5
1
330
0
100
AcDbSymbolTable
 70
     4
  0
BLOCK_RECORD
  5
1F
330
1
100
AcDbSymbolTableRecord
100
AcDbBlockTableRecord
  2
*Model_Space
340
22
  0
BLOCK_RECORD
  5
58
330
1
100
AcDbSymbolTableRecord
100
AcDbBlockTableRecord
  2
*Paper_Space
340
59
  0
BLOCK_RECORD
  5
5D
330
1
100
AcDbSymbolTableRecord
100
AcDbBlockTableRecord
  2
*Paper_Space0
340
5E
  0
BLOCK_RECORD
  5
89
330
1
100
AcDbSymbolTableRecord
100
AcDbBlockTableRecord
  2
_ArchTick
340
0
  0
BLOCK_RECORD
  5
8D
330
1
100
AcDbSymbolTableRecord
100
AcDbBlockTableRecord
  2
arrow
340
0
310
2800000020000000200000000100080000000000000400000000000000000000000000000000000000000000000080000080000000808000800000008000800080800000C0C0C000C0DCC000F0CAA6000020400000206000002080000020A0000020C0000020E00000400000004020000040400000406000004080000040A0
310
000040C0000040E00000600000006020000060400000606000006080000060A0000060C0000060E00000800000008020000080400000806000008080000080A0000080C0000080E00000A0000000A0200000A0400000A0600000A0800000A0A00000A0C00000A0E00000C0000000C0200000C0400000C0600000C0800000C0
310
A00000C0C00000C0E00000E0000000E0200000E0400000E0600000E0800000E0A00000E0C00000E0E00040000000400020004000400040006000400080004000A0004000C0004000E00040200000402020004020400040206000402080004020A0004020C0004020E000404000004040200040404000404060004040800040
310
40A0004040C0004040E00040600000406020004060400040606000406080004060A0004060C0004060E00040800000408020004080400040806000408080004080A0004080C0004080E00040A0000040A0200040A0400040A0600040A0800040A0A00040A0C00040A0E00040C0000040C0200040C0400040C0600040C08000
310
40C0A00040C0C00040C0E00040E0000040E0200040E0400040E0600040E0800040E0A00040E0C00040E0E00080000000800020008000400080006000800080008000A0008000C0008000E00080200000802020008020400080206000802080008020A0008020C0008020E00080400000804020008040400080406000804080
310
008040A0008040C0008040E00080600000806020008060400080606000806080008060A0008060C0008060E00080800000808020008080400080806000808080008080A0008080C0008080E00080A0000080A0200080A0400080A0600080A0800080A0A00080A0C00080A0E00080C0000080C0200080C0400080C0600080C0
310
800080C0A00080C0C00080C0E00080E0000080E0200080E0400080E0600080E0800080E0A00080E0C00080E0E000C0000000C0002000C0004000C0006000C0008000C000A000C000C000C000E000C0200000C0202000C0204000C0206000C0208000C020A000C020C000C020E000C0400000C0402000C0404000C0406000C0
310
408000C040A000C040C000C040E000C0600000C0602000C0604000C0606000C0608000C060A000C060C000C060E000C0800000C0802000C0804000C0806000C0808000C080A000C080C000C080E000C0A00000C0A02000C0A04000C0A06000C0A08000C0A0A000C0A0C000C0A0E000C0C00000C0C02000C0C04000C0C06000
310
C0C08000C0C0A000F0FBFF00A4A0A000808080000000FF0000FF000000FFFF00FF000000FF00FF00FFFF0000FFFFFF0000000000000000000000000000000000000000000000000000000000000000000000000000000000000000000000000000000000000000000000000000000000000000000000000000000000000000
310
0000000000000000000000000000000000000000000000000000000000000000000000000000000000000000000000000000000000000000000000000000000000000000000000000000000000000000000000000000000000000000000000000000000000000000000000000000000000000000000000FA00000000000000
310
000000000000000000000000000000000000000000000000FA00000000000000000000000000000000000000000000000000000000000000FA0000000000000000000000000000000000000000000000000000FAFA000000FA00000000000000000000000000000000000000000000000000000000FAFA00FA000000000000
310
000000000000000000000000000000000000000000000000FAF7F7000000000000000000000000000000000000000000000000000000000000F7F7F7F7F7F70000000000000000000000000000000000000000000000000000F7F7F7F7F7F7F7F7F7F700000000000000000000000000000000000000000000F7F7F7F7F7F7
310
F7F7F7F7F7F7F7F7000000000000000000000000000000000000F7F7F7F7F7F7F7F7F7F7F7F7F7F7F7F7F7F70000000000FAFA00000000000000F7F7F7F7F7F7F7F7F7F7F7F7F7F7F7F7F7F7F7F7F7FAFAFAFA00000000000000F7F7F7F7F7F7F7F7F7F7F7F7F7F7F7F7F7F70000000000000000000000000000F7F7F7F7F7
310
F7F7F7F7F7F7F7F700000000000000000000000000000000000000F7F7F7F7F7F7F7F70000000000000000000000000000000000000000000000FAF7F7F70000000000000000000000000000000000000000000000000000FAFA00FA0000000000000000000000000000000000000000000000000000FAFA000000FA000000
310
00000000000000000000000000000000000000000000000000000000FA00000000000000000000000000000000000000000000000000000000000000FA00000000000000000000000000000000000000000000000000000000000000FA00000000000000000000000000000000000000000000000000000000000000000000
310
00000000000000000000000000000000000000000000000000000000000000000000000000000000000000000000000000000000000000000000000000000000000000000000000000000000000000000000000000000000000000000000000000000000000000000000000000000000000000000000000000000000000000
310
0000000000000000000000000000000000000000000000000000000000000000000000000000000000000000000000000000000000000000
1001
ACAD
1000
DesignCenter Data
1002
{
1070
     1
1070
     1
1002
}
  0
ENDTAB
  0
ENDSEC
  0
SECTION
  2
BLOCKS
  0
BLOCK
  5
20
330
1F
100
AcDbEntity
  8
0
100
AcDbBlockBegin
  2
*Model_Space
 70
     0
 10
0.0
 20
0.0
 30
0.0
  3
*Model_Space
  1

  0
ENDBLK
  5
21
330
1F
100
AcDbEntity
  8
0
100
AcDbBlockEnd
  0
BLOCK
  5
5A
330
58
100
AcDbEntity
 67
     1
  8
0
100
AcDbBlockBegin
  2
*Paper_Space
 70
     0
 10
0.0
 20
0.0
 30
0.0
  3
*Paper_Space
  1

  0
ENDBLK
  5
5B
330
58
100
AcDbEntity
 67
     1
  8
0
100
AcDbBlockEnd
  0
BLOCK
  5
5F
330
5D
100
AcDbEntity
  8
0
100
AcDbBlockBegin
  2
*Paper_Space0
 70
     0
 10
0.0
 20
0.0
 30
0.0
  3
*Paper_Space0
  1

  0
ENDBLK
  5
60
330
5D
100
AcDbEntity
  8
0
100
AcDbBlockEnd
  0
BLOCK
  5
8A
330
89
100
AcDbEntity
  8
0
100
AcDbBlockBegin
  2
_ArchTick
 70
     0
 10
0.0
 20
0.0
 30
0.0
  3
_ArchTick
  1

  0
LWPOLYLINE
  5
8B
330
89
100
AcDbEntity
  8
0
  6
ByBlock
 62
     0
100
AcDbPolyline
 90
        2
 70
     0
 43
0.15
 10
-0.5
 20
-0.5
 10
0.5
 20
0.5
  0
ENDBLK
  5
8C
330
89
100
AcDbEntity
  8
0
100
AcDbBlockEnd
  0
BLOCK
  5
8E
330
8D
100
AcDbEntity
  8
0
100
AcDbBlockBegin
  2
arrow
 70
     0
 10
0.0
 20
0.0
 30
0.0
  3
arrow
  1

  0
HATCH
  5
8F
330
8D
100
AcDbEntity
  8
DIM
 62
   253
100
AcDbHatch
 10
0.0
 20
0.0
 30
0.0
210
0.0
220
0.0
230
1.0
  2
SOLID
 70
     1
 71
     0
 91
        1
 92
        7
 72
     0
 73
     1
 93
        3
 10
-2.0
 20
0.5
 10
-2.0
 20
-0.5
 10
0.0
 20
0.0
 97
        0
 75
     0
 76
     1
 47
0.0337394080685346
 98
        1
 10
-1.103351122172171
 20
0.05064816270351
  0
LWPOLYLINE
  5
90
330
8D
100
AcDbEntity
  8
DIM
370
    15
100
AcDbPolyline
 90
        4
 70
     0
 43
0.0
 10
0.0
 20
0.0
 10
-2.0
 20
-0.5
 10
-2.0
 20
0.5
 10
0.0
 20
0.0
  0
LWPOLYLINE
  5
91
330
8D
100
AcDbEntity
  8
DIM
370
     9
100
AcDbPolyline
 90
        2
 70
     0
 43
0.0
 10
0.3742552490839444
 20
0.0935638122700766
 10
0.0
 20
0.0
  0
LWPOLYLINE
  5
92
330
8D
100
AcDbEntity
  8
DIM
370
     9
100
AcDbPolyline
 90
        3
 70
     0
 43
0.0
 10
-2.0
 20
-0.9831764405007561
 10
-2.0
 20
-0.5
 10
-2.46875
 20
-0.6171875
  0
LWPOLYLINE
  5
93
330
8D
100
AcDbEntity
  8
DIM
370
     9
100
AcDbPolyline
 90
        3
 70
     0
 43
0.0
 10
-2.0
 20
0.9831764405007561
 10
-2.0
 20
0.5
 10
-2.46875
 20
0.6171875
  0
LWPOLYLINE
  5
94
330
8D
100
AcDbEntity
  8
DIM
370
     9
100
AcDbPolyline
 90
        2
 70
     0
 43
0.0
 10
0.3742552490839444
 20
-0.0935638122700766
 10
0.0
 20
0.0
  0
ENDBLK
  5
95
330
8D
100
AcDbEntity
  8
0
100
AcDbBlockEnd
  0
ENDSEC
  0
SECTION
  2
ENTITIES
  0
MTEXT
  5
1ED
330
1F
100
AcDbEntity
  8
Defpoints
100
AcDbMText
 10
15.01616392606128
 20
10.33905121981892
 30
0.0
 40
3.0
 41
90.07999999999999
 71
     2
 72
     5
  1
{\L111\P}\P            
  7
RomanC
 73
     1
 44
1.0
1001
ACAD
1000
MTEXTBEGIN
1070
    73
1070
     1
1070
    44
1040
1.0
1070
    74
1070
     0
1000
MTEXTEND
  0
MTEXT
  5
1EE
330
1F
100
AcDbEntity
  8
DIM
100
AcDbMText
 10
52.11300559462042
 20
20.01789592822392
 30
0.0
 40
3.0
 41
71.41649521821006
 71
     2
 72
     5
  1
{\L2-4-2 WALL W/RECESSED WINDOW DETAIL}\P               
  7
RomanC
 73
     1
 44
1.0
1001
ACAD
1000
MTEXTBEGIN
1070
    73
1070
     1
1070
    44
1040
1.0
1070
    74
1070
     0
1000
MTEXTEND
  0
LINE
  5
1EF
330
1F
100
AcDbEntity
  8
0
 62
     1
100
AcDbLine
 10
43.19156653704967
 20
75.31230849795386
 30
0.0
 11
45.19156653704967
 21
75.31230849795386
 31
0.0
  0
LINE
  5
1F0
330
1F
100
AcDbEntity
  8
0
  6
HIDDEN
 62
     1
 48
0.02
100
AcDbLine
 10
44.84156653705021
 20
75.81230849795386
 30
0.0
 11
44.84156653705021
 21
75.31230849795386
 31
0.0
  0
LINE
  5
1F1
330
1F
100
AcDbEntity
  8
0
  6
HIDDEN
 62
     1
 48
0.02
100
AcDbLine
 10
43.81656653704967
 20
75.81230849795386
 30
0.0
 11
43.81656653704967
 21
75.31230849795386
 31
0.0
  0
LINE
  5
1F2
330
1F
100
AcDbEntity
  8
0
  6
HIDDEN
 62
     1
 48
0.02
100
AcDbLine
 10
44.21656653705021
 20
75.81230849795386
 30
0.0
 11
44.21656653705021
 21
75.31230849795386
 31
0.0
  0
LINE
  5
1F3
330
1F
100
AcDbEntity
  8
0
  6
HIDDEN
 62
     1
 48
0.02
100
AcDbLine
 10
43.31222419949234
 20
75.81230849795386
 30
0.0
 11
43.81656653704967
 21
75.81230849795386
 31
0.0
  0
LINE
  5
1F4
330
1F
100
AcDbEntity
  8
0
  6
HIDDEN
 62
     1
 48
0.02
100
AcDbLine
 10
44.21656653705021
 20
75.81230849795386
 30
0.0
 11
44.84156653705021
 21
75.81230849795386
 31
0.0
  0
LINE
  5
1F5
330
1F
100
AcDbEntity
  8
0
  6
HIDDEN
 62
     1
 48
0.02
100
AcDbLine
 10
43.64156653705039
 20
75.56230849795387
 30
0.0
 11
43.64156653705039
 21
75.31230849795386
 31
0.0
  0
LINE
  5
1F6
330
1F
100
AcDbEntity
  8
0
  6
HIDDEN
 62
     1
 48
0.02
100
AcDbLine
 10
43.39156653705039
 20
75.56230849795387
 30
0.0
 11
43.64156653705039
 21
75.56230849795387
 31
0.0
  0
LINE
  5
1F7
330
1F
100
AcDbEntity
  8
0
 62
     1
100
AcDbLine
 10
37.19156653704967
 20
73.81176112381812
 30
0.0
 11
37.19156653704967
 21
63.31230849795387
 31
0.0
  0
LINE
  5
1F8
330
1F
100
AcDbEntity
  8
0
 62
     1
100
AcDbLine
 10
45.19156653705057
 20
76.44967359524938
 30
0.0
 11
45.19156653704967
 21
63.31230849795387
 31
0.0
  0
LINE
  5
1F9
330
1F
100
AcDbEntity
  8
0
 62
     1
100
AcDbLine
 10
37.19156653704967
 20
63.31230849795387
 30
0.0
 11
39.19156653704876
 21
63.31230849795387
 31
0.0
  0
LINE
  5
1FA
330
1F
100
AcDbEntity
  8
0
 62
     1
100
AcDbLine
 10
39.19156653704603
 20
74.43764357829562
 30
0.0
 11
39.19156653704967
 21
63.31230849795387
 31
0.0
  0
LINE
  5
1FB
330
1F
100
AcDbEntity
  8
0
 62
     1
100
AcDbLine
 10
43.19156653704602
 20
75.77138834135033
 30
0.0
 11
43.19156653704967
 21
63.31230849795387
 31
0.0
  0
LINE
  5
1FC
330
1F
100
AcDbEntity
  8
0
 62
     1
100
AcDbLine
 10
37.54156653704912
 20
73.92129055335093
 30
0.0
 11
37.54156653704912
 21
63.31230849795387
 31
0.0
  0
LINE
  5
1FD
330
1F
100
AcDbEntity
  8
0
 62
     1
100
AcDbLine
 10
44.8415665370493
 20
75.81230849795386
 30
0.0
 11
44.8415665370493
 21
75.31230849795386
 31
0.0
  0
LINE
  5
1FE
330
1F
100
AcDbEntity
  8
0
 62
     1
100
AcDbLine
 10
43.81656653704784
 20
75.81230849795386
 30
0.0
 11
43.81656653704784
 21
75.31230849795386
 31
0.0
  0
LINE
  5
1FF
330
1F
100
AcDbEntity
  8
0
 62
     1
100
AcDbLine
 10
44.2165665370493
 20
75.81230849795386
 30
0.0
 11
44.2165665370493
 21
75.31230849795386
 31
0.0
  0
LINE
  5
200
330
1F
100
AcDbEntity
  8
0
 62
     1
100
AcDbLine
 10
43.31222419949234
 20
75.81230849795386
 30
0.0
 11
43.81656653704875
 21
75.81230849795386
 31
0.0
  0
LINE
  5
201
330
1F
100
AcDbEntity
  8
0
 62
     1
100
AcDbLine
 10
44.2165665370493
 20
75.81230849795386
 30
0.0
 11
44.8415665370493
 21
75.81230849795386
 31
0.0
  0
LINE
  5
202
330
1F
100
AcDbEntity
  8
0
 62
     1
100
AcDbLine
 10
38.99156653704803
 20
74.37505533284732
 30
0.0
 11
38.99156653704894
 21
63.31230849795387
 31
0.0
  0
LINE
  5
203
330
1F
100
AcDbEntity
  8
0
 62
     1
100
AcDbLine
 10
43.39156653704857
 20
75.83921686674014
 30
0.0
 11
43.39156653704857
 21
63.31230849795387
 31
0.0
  0
LINE
  5
204
330
1F
100
AcDbEntity
  8
0
 62
     1
100
AcDbLine
 10
43.64156653704857
 20
75.56230849795387
 30
0.0
 11
43.64156653704857
 21
75.31230849795386
 31
0.0
  0
LINE
  5
205
330
1F
100
AcDbEntity
  8
0
 62
     1
100
AcDbLine
 10
43.39156653704857
 20
75.56230849795387
 30
0.0
 11
43.64156653704857
 21
75.56230849795387
 31
0.0
  0
LINE
  5
206
330
1F
100
AcDbEntity
  8
0
 62
     1
100
AcDbLine
 10
43.60656653704872
 20
75.31230849795386
 30
0.0
 11
45.19156653704967
 21
75.31230849795386
 31
0.0
  0
LINE
  5
207
330
1F
100
AcDbEntity
  8
0
 62
     1
100
AcDbLine
 10
43.60656653704872
 20
75.91213253153412
 30
0.0
 11
43.60656653704872
 21
63.31230849795387
 31
0.0
  0
LINE
  5
208
330
1F
100
AcDbEntity
  8
0
 62
     1
100
AcDbLine
 10
44.42656653705024
 20
76.19022948563318
 30
0.0
 11
44.42656653704934
 21
63.31230849795387
 31
0.0
  0
LINE
  5
209
330
1F
100
AcDbEntity
  8
A2 Hatch
  6
DASHED2
 48
0.15
100
AcDbLine
 10
43.76656653705039
 20
75.96639535184661
 30
0.0
 11
43.76656653704948
 21
63.31230849795387
 31
0.0
  0
LINE
  5
20A
330
1F
100
AcDbEntity
  8
A2 Hatch
  6
DASHED2
 48
0.15
100
AcDbLine
 10
44.26656653704948
 20
76.13596666532115
 30
0.0
 11
44.26656653704948
 21
63.31230849795387
 31
0.0
  0
LINE
  5
20B
330
1F
100
AcDbEntity
  8
A2 Hatch
  6
DASHED2
 48
0.15
100
AcDbLine
 10
37.95656653704909
 20
74.05116116265529
 30
0.0
 11
37.95656653704909
 21
63.31230849795387
 31
0.0
  0
LINE
  5
20C
330
1F
100
AcDbEntity
  8
A2 Hatch
  6
DASHED2
 48
0.15
100
AcDbLine
 10
38.7765665370488
 20
74.3077729689908
 30
0.0
 11
38.7765665370488
 21
63.31230849795387
 31
0.0
  0
LINE
  5
20D
330
1F
100
AcDbEntity
  8
0
 62
     1
100
AcDbLine
 10
38.11656653704894
 20
74.10123175901301
 30
0.0
 11
38.11656653704894
 21
63.31230849795387
 31
0.0
  0
LINE
  5
20E
330
1F
100
AcDbEntity
  8
0
 62
     1
100
AcDbLine
 10
38.61656653704803
 20
74.25770237263262
 30
0.0
 11
38.61656653704894
 21
63.31230849795387
 31
0.0
  0
LINE
  5
20F
330
1F
100
AcDbEntity
  8
0
 62
     1
100
AcDbLine
 10
43.19156653704875
 20
75.31230849795386
 30
0.0
 11
43.39156653704857
 21
75.31230849795386
 31
0.0
  0
LINE
  5
210
330
1F
100
AcDbEntity
  8
0
 62
     1
100
AcDbLine
 10
43.19156653704967
 20
63.31230849795387
 30
0.0
 11
45.19156653704967
 21
63.31230849795387
 31
0.0
  0
LINE
  5
211
330
1F
100
AcDbEntity
  8
DETAILS
 62
     6
370
    20
100
AcDbLine
 10
43.19156653704875
 20
67.29230849795388
 30
0.0
 11
39.19156653704876
 21
67.29230849795388
 31
0.0
  0
LINE
  5
212
330
1F
100
AcDbEntity
  8
DETAILS
 62
     6
370
    20
100
AcDbLine
 10
43.19156653704875
 20
71.83230849795385
 30
0.0
 11
39.19156653704876
 21
71.83230849795385
 31
0.0
  0
LINE
  5
213
330
1F
100
AcDbEntity
  8
DETAILS
 62
     6
370
    20
100
AcDbLine
 10
43.19156653704875
 20
66.8123084979534
 30
0.0
 11
39.19156653704876
 21
66.81230849795387
 31
0.0
  0
LINE
  5
214
330
1F
100
AcDbEntity
  8
DETAILS
 62
     6
370
    20
100
AcDbLine
 10
43.19156653704875
 20
66.90230849795355
 30
0.0
 11
39.19156653704876
 21
66.90230849795401
 31
0.0
  0
LINE
  5
215
330
1F
100
AcDbEntity
  8
DETAILS
 62
     6
370
    20
100
AcDbLine
 10
43.19156653704875
 20
67.20230849795374
 30
0.0
 11
39.19156653704876
 21
67.20230849795374
 31
0.0
  0
LINE
  5
216
330
1F
100
AcDbEntity
  8
DETAILS
 62
     6
370
    20
100
AcDbLine
 10
43.19156653704875
 20
71.92230849795308
 30
0.0
 11
39.19156653704876
 21
71.92230849795399
 31
0.0
  0
LINE
  5
217
330
1F
100
AcDbEntity
  8
DETAILS
 62
     6
370
    20
100
AcDbLine
 10
43.19156653704875
 20
72.22230849795327
 30
0.0
 11
39.19156653704876
 21
72.22230849795372
 31
0.0
  0
LINE
  5
218
330
1F
100
AcDbEntity
  8
DETAILS
 62
     6
370
    20
100
AcDbLine
 10
39.38156653704654
 20
67.29230849795388
 30
0.0
 11
39.73156653704599
 21
67.29230849795388
 31
0.0
  0
LINE
  5
219
330
1F
100
AcDbEntity
  8
DETAILS
 62
     6
370
    20
100
AcDbLine
 10
42.63156653704744
 20
67.29230849795388
 30
0.0
 11
42.89369857140345
 21
67.5544405323067
 31
0.0
  0
LINE
  5
21A
330
1F
100
AcDbEntity
  8
DETAILS
 62
     6
370
    20
100
AcDbLine
 10
39.73156653704599
 20
67.29230849795388
 30
0.0
 11
39.46943450268999
 21
67.55444053231261
 31
0.0
  0
LINE
  5
21B
330
1F
100
AcDbEntity
  8
DETAILS
 62
     6
370
    20
100
AcDbLine
 10
42.64156653704858
 20
71.83230849795385
 30
0.0
 11
42.89369857140345
 21
71.58017646359716
 31
0.0
  0
LINE
  5
21C
330
1F
100
AcDbEntity
  8
DETAILS
 62
     6
370
    20
100
AcDbLine
 10
39.74156653704712
 20
71.83230849795385
 30
0.0
 11
39.46943450269181
 21
71.56017646360172
 31
0.0
  0
LINE
  5
21D
330
1F
100
AcDbEntity
  8
DETAILS
 62
     6
370
    20
100
AcDbLine
 10
42.98156653704781
 20
67.76657256666343
 30
0.0
 11
42.9815665370469
 21
71.36804442924225
 31
0.0
  0
LINE
  5
21E
330
1F
100
AcDbEntity
  8
DETAILS
 62
     6
370
    20
100
AcDbLine
 10
39.38156653704654
 20
67.76657256666752
 30
0.0
 11
39.38156653704654
 21
71.34804442924454
 31
0.0
  0
ARC
  5
21F
330
1F
100
AcDbEntity
  8
DETAILS
 62
     6
370
    20
100
AcDbCircle
 10
42.68156653704763
 20
67.76657256666343
 30
0.0
 40
0.3
100
AcDbArc
 50
314.9999999997973
 51
0.0
  0
ARC
  5
220
330
1F
100
AcDbEntity
  8
DETAILS
 62
     6
370
    20
100
AcDbCircle
 10
39.68156653704763
 20
67.76657256666706
 30
0.0
 40
0.3
100
AcDbArc
 50
180.0
 51
224.9999999996868
  0
ARC
  5
221
330
1F
100
AcDbEntity
  8
DETAILS
 62
     6
370
    20
100
AcDbCircle
 10
42.68156653704763
 20
71.36804442924179
 30
0.0
 40
0.3
100
AcDbArc
 50
0.0000000000260551
 51
44.99999999970522
  0
ARC
  5
222
330
1F
100
AcDbEntity
  8
DETAILS
 62
     6
370
    20
100
AcDbCircle
 10
39.68156653704763
 20
71.34804442924409
 30
0.0
 40
0.3
100
AcDbArc
 50
134.9999999997052
 51
180.0
  0
LINE
  5
223
330
1F
100
AcDbEntity
  8
DETAILS
 62
     6
370
    20
100
AcDbLine
 10
39.19156653704876
 20
72.31230849795386
 30
0.0
 11
39.74156653704712
 21
72.31230849795386
 31
0.0
  0
LINE
  5
224
330
1F
100
AcDbEntity
  8
DETAILS
 62
     6
370
    20
100
AcDbLine
 10
39.99156653704712
 20
72.36230849795404
 30
0.0
 11
39.99156653704712
 21
72.96662523403805
 31
0.0
  0
LINE
  5
225
330
1F
100
AcDbEntity
  8
DETAILS
 62
     6
370
    20
100
AcDbLine
 10
40.09156653704748
 20
72.36230849795404
 30
0.0
 11
40.09156653704748
 21
72.88019529016222
 31
0.0
  0
ARC
  5
226
330
1F
100
AcDbEntity
  8
DETAILS
 62
     6
370
    20
100
AcDbCircle
 10
40.15332419582672
 20
72.88443402551187
 30
0.0
 40
0.0619029506189981
100
AcDbArc
 50
134.9903235096027
 51
183.9263367617325
  0
LINE
  5
227
330
1F
100
AcDbEntity
  8
DETAILS
 62
     6
370
    20
100
AcDbLine
 10
42.44156653704784
 20
72.31230849795341
 30
0.0
 11
42.64156653704858
 21
72.31230849795341
 31
0.0
  0
LINE
  5
228
330
1F
100
AcDbEntity
  8
DETAILS
 62
     6
370
    20
100
AcDbLine
 10
42.39156653704857
 20
72.36230849795359
 30
0.0
 11
42.39156653704857
 21
72.96662523403805
 31
0.0
  0
LINE
  5
229
330
1F
100
AcDbEntity
  8
DETAILS
 62
     6
370
    20
100
AcDbLine
 10
42.29156653704821
 20
72.36230849795359
 30
0.0
 11
42.29156653704821
 21
72.88019529016176
 31
0.0
  0
ARC
  5
22A
330
1F
100
AcDbEntity
  8
DETAILS
 62
     6
370
    20
100
AcDbCircle
 10
42.17931070504882
 20
72.87706023781769
 30
0.0
 40
0.1122996009395304
100
AcDbArc
 50
1.599726146933115
 51
27.09751498394533
  0
LINE
  5
22B
330
1F
100
AcDbEntity
  8
DETAILS
 62
     6
370
    20
100
AcDbLine
 10
40.74156653704712
 20
72.36230849795359
 30
0.0
 11
40.74156653704712
 21
72.88019529016086
 31
0.0
  0
LINE
  5
22C
330
1F
100
AcDbEntity
  8
DETAILS
 62
     6
370
    20
100
AcDbLine
 10
40.84156653704748
 20
72.36230849795359
 30
0.0
 11
40.84156653704748
 21
72.88019529016222
 31
0.0
  0
ARC
  5
22D
330
1F
100
AcDbEntity
  8
DETAILS
 62
     6
370
    20
100
AcDbCircle
 10
40.79156653704639
 20
72.99804998372931
 30
0.0
 40
0.0935752503092939
100
AcDbArc
 50
311.7278668394931
 51
228.2721331609136
  0
ARC
  5
22E
330
1F
100
AcDbEntity
  8
DETAILS
 62
     6
370
    20
100
AcDbCircle
 10
40.64156653704675
 20
72.88019529016086
 30
0.0
 40
0.1
100
AcDbArc
 50
0.0
 51
28.6972393524193
  0
ARC
  5
22F
330
1F
100
AcDbEntity
  8
DETAILS
 62
     6
370
    20
100
AcDbCircle
 10
40.94156653704693
 20
72.88019529016222
 30
0.0
 40
0.1
100
AcDbArc
 50
151.3027606481172
 51
180.0
  0
LINE
  5
230
330
1F
100
AcDbEntity
  8
DETAILS
 62
     6
370
    20
100
AcDbLine
 10
41.54156653704911
 20
72.36230849795359
 30
0.0
 11
41.54156653704821
 21
72.88019529016086
 31
0.0
  0
LINE
  5
231
330
1F
100
AcDbEntity
  8
DETAILS
 62
     6
370
    20
100
AcDbLine
 10
41.64156653704857
 20
72.36230849795359
 30
0.0
 11
41.64156653704857
 21
72.88019529016176
 31
0.0
  0
ARC
  5
232
330
1F
100
AcDbEntity
  8
DETAILS
 62
     6
370
    20
100
AcDbCircle
 10
41.59156653704839
 20
72.99804998372886
 30
0.0
 40
0.0935752503091666
100
AcDbArc
 50
311.7278668395667
 51
228.2721331606193
  0
ARC
  5
233
330
1F
100
AcDbEntity
  8
DETAILS
 62
     6
370
    20
100
AcDbCircle
 10
41.44156653704875
 20
72.88019529016086
 30
0.0
 40
0.1
100
AcDbArc
 50
0.0
 51
28.6972393524193
  0
ARC
  5
234
330
1F
100
AcDbEntity
  8
DETAILS
 62
     6
370
    20
100
AcDbCircle
 10
41.74156653704893
 20
72.88019529016176
 30
0.0
 40
0.1
100
AcDbArc
 50
151.3027606481172
 51
180.0
  0
LINE
  5
235
330
1F
100
AcDbEntity
  8
DETAILS
 62
     6
370
    20
100
AcDbLine
 10
42.34156653704839
 20
73.09162523403805
 30
0.0
 11
43.19156653704875
 21
73.09162523403805
 31
0.0
  0
ARC
  5
236
330
1F
100
AcDbEntity
  8
DETAILS
 62
     6
370
    20
100
AcDbCircle
 10
40.0540535380468
 20
73.00058605744883
 30
0.0
 40
0.091207026586975
100
AcDbArc
 50
307.4863303690937
 51
93.47656839120459
  0
ARC
  5
237
330
1F
100
AcDbEntity
  8
DETAILS
 62
     6
370
    20
100
AcDbCircle
 10
42.34156653704839
 20
72.99804998372886
 30
0.0
 40
0.0935752503091878
100
AcDbArc
 50
90.0
 51
228.2720386612377
  0
LINE
  5
238
330
1F
100
AcDbEntity
  8
DETAILS
 62
     6
370
    20
100
AcDbLine
 10
40.05958436301343
 20
73.09162523403805
 30
0.0
 11
39.19156653704785
 21
73.09162523403805
 31
0.0
  0
LINE
  5
239
330
1F
100
AcDbEntity
  8
DETAILS
 62
     6
370
    20
100
AcDbLine
 10
39.99156653704712
 20
72.96662523403805
 30
0.0
 11
39.19156653704785
 21
72.96662523403805
 31
0.0
  0
LINE
  5
23A
330
1F
100
AcDbEntity
  8
DETAILS
 62
     6
370
    20
100
AcDbLine
 10
42.39156653704857
 20
72.96662523403805
 30
0.0
 11
43.19156653704875
 21
72.96662523403805
 31
0.0
  0
LINE
  5
23B
330
1F
100
AcDbEntity
  8
DETAILS
 62
     6
370
    20
100
AcDbLine
 10
42.24156653704894
 20
72.31230849795341
 30
0.0
 11
41.69156653704876
 21
72.31230849795386
 31
0.0
  0
LINE
  5
23C
330
1F
100
AcDbEntity
  8
DETAILS
 62
     6
370
    20
100
AcDbLine
 10
41.49156653704894
 20
72.31230849795386
 30
0.0
 11
40.89156653704676
 21
72.31230849795386
 31
0.0
  0
LINE
  5
23D
330
1F
100
AcDbEntity
  8
DETAILS
 62
     6
370
    20
100
AcDbLine
 10
40.69156653704694
 20
72.31230849795386
 30
0.0
 11
40.14156653704676
 21
72.31230849795386
 31
0.0
  0
LINE
  5
23E
330
1F
100
AcDbEntity
  8
DETAILS
 62
     6
370
    20
100
AcDbLine
 10
39.94156653704603
 20
72.31230849795386
 30
0.0
 11
39.19156653704876
 21
72.31230849795386
 31
0.0
  0
ARC
  5
23F
330
1F
100
AcDbEntity
  8
DETAILS
 62
     6
370
    20
100
AcDbCircle
 10
39.94156653704603
 20
72.36230849795404
 30
0.0
 40
0.05
100
AcDbArc
 50
270.0
 51
0.0
  0
ARC
  5
240
330
1F
100
AcDbEntity
  8
DETAILS
 62
     6
370
    20
100
AcDbCircle
 10
40.14156653704676
 20
72.36230849795404
 30
0.0
 40
0.05
100
AcDbArc
 50
180.0
 51
270.0
  0
ARC
  5
241
330
1F
100
AcDbEntity
  8
DETAILS
 62
     6
370
    20
100
AcDbCircle
 10
40.69156653704694
 20
72.36230849795359
 30
0.0
 40
0.05
100
AcDbArc
 50
270.0
 51
0.0
  0
ARC
  5
242
330
1F
100
AcDbEntity
  8
DETAILS
 62
     6
370
    20
100
AcDbCircle
 10
40.89156653704676
 20
72.36230849795359
 30
0.0
 40
0.05
100
AcDbArc
 50
180.0
 51
270.0
  0
ARC
  5
243
330
1F
100
AcDbEntity
  8
DETAILS
 62
     6
370
    20
100
AcDbCircle
 10
41.49156653704894
 20
72.36230849795359
 30
0.0
 40
0.05
100
AcDbArc
 50
270.0
 51
0.0
  0
ARC
  5
244
330
1F
100
AcDbEntity
  8
DETAILS
 62
     6
370
    20
100
AcDbCircle
 10
41.69156653704876
 20
72.36230849795359
 30
0.0
 40
0.05
100
AcDbArc
 50
180.0
 51
270.0
  0
ARC
  5
245
330
1F
100
AcDbEntity
  8
DETAILS
 62
     6
370
    20
100
AcDbCircle
 10
42.24156653704894
 20
72.36230849795359
 30
0.0
 40
0.05
100
AcDbArc
 50
270.0
 51
0.0
  0
ARC
  5
246
330
1F
100
AcDbEntity
  8
DETAILS
 62
     6
370
    20
100
AcDbCircle
 10
42.44156653704784
 20
72.36230849795359
 30
0.0
 40
0.05
100
AcDbArc
 50
179.9999999999479
 51
270.0
  0
LINE
  5
247
330
1F
100
AcDbEntity
  8
DETAILS
 62
     6
370
    20
100
AcDbLine
 10
39.19156653704876
 20
72.31230849795386
 30
0.0
 11
43.19156653704875
 21
72.31230849795386
 31
0.0
  0
LINE
  5
248
330
1F
100
AcDbEntity
  8
DETAILS
 62
     6
370
    20
100
AcDbLine
 10
39.94156653704603
 20
72.31230849795386
 30
0.0
 11
40.14156653704676
 21
72.31230849795386
 31
0.0
  0
LINE
  5
249
330
1F
100
AcDbEntity
  8
DETAILS
 62
     6
370
    20
100
AcDbLine
 10
40.69156653704694
 20
72.31230849795386
 30
0.0
 11
40.89156653704676
 21
72.31230849795386
 31
0.0
  0
LINE
  5
24A
330
1F
100
AcDbEntity
  8
DETAILS
 62
     6
370
    20
100
AcDbLine
 10
41.49156653704894
 20
72.31230849795386
 30
0.0
 11
41.69156653704876
 21
72.31230849795386
 31
0.0
  0
LINE
  5
24B
330
1F
100
AcDbEntity
  8
DETAILS
 62
     6
370
    20
100
AcDbLine
 10
42.24156653704894
 20
72.31230849795386
 30
0.0
 11
42.44156653704784
 21
72.31230849795386
 31
0.0
  0
LINE
  5
24C
330
1F
100
AcDbEntity
  8
DETAILS
 62
     6
370
    20
100
AcDbLine
 10
39.99156653704712
 20
67.29230849795388
 30
0.0
 11
40.09156653704748
 21
67.29230849795388
 31
0.0
  0
LINE
  5
24D
330
1F
100
AcDbEntity
  8
DETAILS
 62
     6
370
    20
100
AcDbLine
 10
40.06117815161532
 20
66.57838617525115
 30
0.0
 11
40.09156653704748
 21
66.81230849795387
 31
0.0
  0
LINE
  5
24E
330
1F
100
AcDbEntity
  8
DETAILS
 62
     6
370
    20
100
AcDbLine
 10
40.02195492458748
 20
66.57838617525161
 30
0.0
 11
39.99156653704712
 21
66.81230849795387
 31
0.0
  0
ARC
  5
24F
330
1F
100
AcDbEntity
  8
DETAILS
 62
     6
370
    20
100
AcDbCircle
 10
40.04156653810141
 20
66.58230849795384
 30
0.0
 40
0.02
100
AcDbArc
 50
191.3099324739691
 51
348.690067525944
  0
LINE
  5
250
330
1F
100
AcDbEntity
  8
DETAILS
 62
     6
370
    20
100
AcDbLine
 10
40.81117815056212
 20
66.57838617525115
 30
0.0
 11
40.84156653599428
 21
66.81230849795387
 31
0.0
  0
LINE
  5
251
330
1F
100
AcDbEntity
  8
DETAILS
 62
     6
370
    20
100
AcDbLine
 10
40.77195492353429
 20
66.57838617525161
 30
0.0
 11
40.74156653599392
 21
66.81230849795387
 31
0.0
  0
ARC
  5
252
330
1F
100
AcDbEntity
  8
DETAILS
 62
     6
370
    20
100
AcDbCircle
 10
40.79156653704821
 20
66.58230849795384
 30
0.0
 40
0.02
100
AcDbArc
 50
191.3099324739691
 51
348.690067525944
  0
LINE
  5
253
330
1F
100
AcDbEntity
  8
DETAILS
 62
     6
370
    20
100
AcDbLine
 10
41.61117815056321
 20
66.57838617525115
 30
0.0
 11
41.64156653599538
 21
66.81230849795387
 31
0.0
  0
LINE
  5
254
330
1F
100
AcDbEntity
  8
DETAILS
 62
     6
370
    20
100
AcDbLine
 10
41.57195492353539
 20
66.57838617525161
 30
0.0
 11
41.54156653599502
 21
66.81230849795387
 31
0.0
  0
ARC
  5
255
330
1F
100
AcDbEntity
  8
DETAILS
 62
     6
370
    20
100
AcDbCircle
 10
41.5915665370493
 20
66.58230849795384
 30
0.0
 40
0.02
100
AcDbArc
 50
191.3099324739691
 51
348.690067525944
  0
LINE
  5
256
330
1F
100
AcDbEntity
  8
DETAILS
 62
     6
370
    20
100
AcDbLine
 10
42.36117815056322
 20
66.57838617525115
 30
0.0
 11
42.39156653599538
 21
66.81230849795387
 31
0.0
  0
LINE
  5
257
330
1F
100
AcDbEntity
  8
DETAILS
 62
     6
370
    20
100
AcDbLine
 10
42.32195492353539
 20
66.57838617525161
 30
0.0
 11
42.29156653599502
 21
66.81230849795387
 31
0.0
  0
ARC
  5
258
330
1F
100
AcDbEntity
  8
DETAILS
 62
     6
370
    20
100
AcDbCircle
 10
42.3415665370493
 20
66.58230849795384
 30
0.0
 40
0.02
100
AcDbArc
 50
191.3099324739691
 51
348.690067525944
  0
LINE
  5
259
330
1F
100
AcDbEntity
  8
DETAILS
 62
     6
370
    20
100
AcDbLine
 10
39.73156653704599
 20
66.81230849795387
 30
0.0
 11
39.19156653704876
 21
66.29179303403773
 31
0.0
  0
LINE
  5
25A
330
1F
100
AcDbEntity
  8
DETAILS
 62
     6
370
    20
100
AcDbLine
 10
42.63156653704835
 20
66.8123084979534
 30
0.0
 11
43.19156653704875
 21
66.27802278366701
 31
0.0
  0
LINE
  5
25B
330
1F
100
AcDbEntity
  8
DETAILS
 62
     6
370
    20
100
AcDbLine
 10
42.64156653704858
 20
72.31230849795386
 30
0.0
 11
43.19156653704875
 21
72.84256490820965
 31
0.0
  0
LINE
  5
25C
330
1F
100
AcDbEntity
  8
DETAILS
 62
     6
370
    20
100
AcDbLine
 10
39.74156653704712
 20
72.31230849795386
 30
0.0
 11
39.19156653704967
 21
72.84256490820874
 31
0.0
  0
LINE
  5
25D
330
1F
100
AcDbEntity
  8
0
  6
HIDDEN
 62
     1
 48
0.02
100
AcDbLine
 10
37.54156653704912
 20
63.81230849795387
 30
0.0
 11
38.16656653704912
 21
63.81230849795387
 31
0.0
  0
LINE
  5
25E
330
1F
100
AcDbEntity
  8
0
  6
HIDDEN
 62
     1
 48
0.02
100
AcDbLine
 10
38.56656653704876
 20
63.81230849795387
 30
0.0
 11
38.56656653704785
 21
63.31230849795387
 31
0.0
  0
LINE
  5
25F
330
1F
100
AcDbEntity
  8
0
  6
HIDDEN
 62
     1
 48
0.02
100
AcDbLine
 10
38.16656653704912
 20
63.81230849795387
 30
0.0
 11
38.16656653705003
 21
63.31230849795387
 31
0.0
  0
LINE
  5
260
330
1F
100
AcDbEntity
  8
0
  6
HIDDEN
 62
     1
 48
0.02
100
AcDbLine
 10
38.56656653704785
 20
63.81230849795387
 30
0.0
 11
39.19156653704785
 21
63.81230849795387
 31
0.0
  0
LINE
  5
261
330
1F
100
AcDbEntity
  8
0
  6
HIDDEN
 62
     1
 48
0.02
100
AcDbLine
 10
44.84156653705021
 20
63.81230849795387
 30
0.0
 11
44.84156653705021
 21
63.31230849795387
 31
0.0
  0
LINE
  5
262
330
1F
100
AcDbEntity
  8
0
  6
HIDDEN
 62
     1
 48
0.02
100
AcDbLine
 10
43.81656653704967
 20
63.81230849795387
 30
0.0
 11
43.81656653704967
 21
63.31230849795387
 31
0.0
  0
LINE
  5
263
330
1F
100
AcDbEntity
  8
0
  6
HIDDEN
 62
     1
 48
0.02
100
AcDbLine
 10
44.21656653705021
 20
63.81230849795387
 30
0.0
 11
44.21656653705021
 21
63.31230849795387
 31
0.0
  0
LINE
  5
264
330
1F
100
AcDbEntity
  8
0
  6
HIDDEN
 62
     1
 48
0.02
100
AcDbLine
 10
43.19156653704967
 20
63.81230849795387
 30
0.0
 11
43.81656653704967
 21
63.81230849795387
 31
0.0
  0
LINE
  5
265
330
1F
100
AcDbEntity
  8
0
  6
HIDDEN
 62
     1
 48
0.02
100
AcDbLine
 10
44.21656653705021
 20
63.81230849795387
 30
0.0
 11
44.84156653705021
 21
63.81230849795387
 31
0.0
  0
LINE
  5
266
330
1F
100
AcDbEntity
  8
0
  6
HIDDEN
 62
     1
 48
0.02
100
AcDbLine
 10
43.64156653705039
 20
63.56230849795387
 30
0.0
 11
43.64156653705039
 21
63.31230849795387
 31
0.0
  0
LINE
  5
267
330
1F
100
AcDbEntity
  8
0
  6
HIDDEN
 62
     1
 48
0.02
100
AcDbLine
 10
43.39156653705039
 20
63.56230849795387
 30
0.0
 11
43.64156653705039
 21
63.56230849795387
 31
0.0
  0
LINE
  5
268
330
1F
100
AcDbEntity
  8
0
 62
     1
100
AcDbLine
 10
37.19156653704967
 20
63.31230849795387
 30
0.0
 11
37.19156653704967
 21
51.31230849795387
 31
0.0
  0
LINE
  5
269
330
1F
100
AcDbEntity
  8
0
 62
     1
100
AcDbLine
 10
45.19156653704967
 20
63.31230849795387
 30
0.0
 11
45.19156653704967
 21
51.31230849795387
 31
0.0
  0
LINE
  5
26A
330
1F
100
AcDbEntity
  8
0
 62
     1
100
AcDbLine
 10
37.19156653704967
 20
63.31230849795387
 30
0.0
 11
38.74156653704894
 21
63.31230849795387
 31
0.0
  0
LINE
  5
26B
330
1F
100
AcDbEntity
  8
0
 62
     1
100
AcDbLine
 10
37.19156653704967
 20
51.31230849795387
 30
0.0
 11
39.19156653704876
 21
51.31230849795387
 31
0.0
  0
LINE
  5
26C
330
1F
100
AcDbEntity
  8
0
 62
     1
100
AcDbLine
 10
39.19156653704876
 20
63.81230849795387
 30
0.0
 11
39.19156653704967
 21
51.31230849795387
 31
0.0
  0
LINE
  5
26D
330
1F
100
AcDbEntity
  8
0
 62
     1
100
AcDbLine
 10
43.19156653704784
 20
63.81230849795387
 30
0.0
 11
43.19156653704967
 21
51.31230849795387
 31
0.0
  0
LINE
  5
26E
330
1F
100
AcDbEntity
  8
0
 62
     1
100
AcDbLine
 10
37.54156653704912
 20
63.81230849795387
 30
0.0
 11
38.16656653704912
 21
63.81230849795387
 31
0.0
  0
LINE
  5
26F
330
1F
100
AcDbEntity
  8
0
 62
     1
100
AcDbLine
 10
37.54156653704912
 20
63.81230849795387
 30
0.0
 11
37.54156653704912
 21
51.31230849795387
 31
0.0
  0
LINE
  5
270
330
1F
100
AcDbEntity
  8
0
 62
     1
100
AcDbLine
 10
44.8415665370493
 20
63.81230849795387
 30
0.0
 11
44.8415665370493
 21
63.31230849795387
 31
0.0
  0
LINE
  5
271
330
1F
100
AcDbEntity
  8
0
 62
     1
100
AcDbLine
 10
38.56656653704876
 20
63.81230849795387
 30
0.0
 11
38.56656653704785
 21
63.31230849795387
 31
0.0
  0
LINE
  5
272
330
1F
100
AcDbEntity
  8
0
 62
     1
100
AcDbLine
 10
38.16656653704912
 20
63.81230849795387
 30
0.0
 11
38.16656653705003
 21
63.31230849795387
 31
0.0
  0
LINE
  5
273
330
1F
100
AcDbEntity
  8
0
 62
     1
100
AcDbLine
 10
43.81656653704784
 20
63.81230849795387
 30
0.0
 11
43.81656653704784
 21
63.31230849795387
 31
0.0
  0
LINE
  5
274
330
1F
100
AcDbEntity
  8
0
 62
     1
100
AcDbLine
 10
44.2165665370493
 20
63.81230849795387
 30
0.0
 11
44.2165665370493
 21
63.31230849795387
 31
0.0
  0
LINE
  5
275
330
1F
100
AcDbEntity
  8
0
 62
     1
100
AcDbLine
 10
43.19156653704875
 20
63.81230849795387
 30
0.0
 11
43.81656653704875
 21
63.81230849795387
 31
0.0
  0
LINE
  5
276
330
1F
100
AcDbEntity
  8
0
 62
     1
100
AcDbLine
 10
44.2165665370493
 20
63.81230849795387
 30
0.0
 11
44.8415665370493
 21
63.81230849795387
 31
0.0
  0
LINE
  5
277
330
1F
100
AcDbEntity
  8
0
 62
     1
100
AcDbLine
 10
38.56656653704785
 20
63.81230849795387
 30
0.0
 11
39.19156653704785
 21
63.81230849795387
 31
0.0
  0
LINE
  5
278
330
1F
100
AcDbEntity
  8
0
 62
     1
100
AcDbLine
 10
38.99156653704894
 20
63.56230849795387
 30
0.0
 11
38.99156653704894
 21
51.31230849795387
 31
0.0
  0
LINE
  5
279
330
1F
100
AcDbEntity
  8
0
 62
     1
100
AcDbLine
 10
43.39156653704857
 20
63.56230849795387
 30
0.0
 11
43.39156653704857
 21
51.31230849795387
 31
0.0
  0
LINE
  5
27A
330
1F
100
AcDbEntity
  8
0
 62
     1
100
AcDbLine
 10
38.74156653704894
 20
63.56230849795387
 30
0.0
 11
38.74156653704894
 21
63.31230849795387
 31
0.0
  0
LINE
  5
27B
330
1F
100
AcDbEntity
  8
0
 62
     1
100
AcDbLine
 10
43.64156653704857
 20
63.56230849795387
 30
0.0
 11
43.64156653704857
 21
63.31230849795387
 31
0.0
  0
LINE
  5
27C
330
1F
100
AcDbEntity
  8
0
 62
     1
100
AcDbLine
 10
38.74156653704894
 20
63.56230849795387
 30
0.0
 11
38.99156653704894
 21
63.56230849795387
 31
0.0
  0
LINE
  5
27D
330
1F
100
AcDbEntity
  8
0
 62
     1
100
AcDbLine
 10
43.39156653704857
 20
63.56230849795387
 30
0.0
 11
43.64156653704857
 21
63.56230849795387
 31
0.0
  0
LINE
  5
27E
330
1F
100
AcDbEntity
  8
0
 62
     1
100
AcDbLine
 10
43.60656653704872
 20
63.31230849795387
 30
0.0
 11
45.19156653704967
 21
63.31230849795387
 31
0.0
  0
LINE
  5
27F
330
1F
100
AcDbEntity
  8
0
 62
     1
100
AcDbLine
 10
38.99156653704894
 20
63.31230849795387
 30
0.0
 11
39.19156653704785
 21
63.31230849795387
 31
0.0
  0
LINE
  5
280
330
1F
100
AcDbEntity
  8
0
 62
     1
100
AcDbLine
 10
43.60656653704872
 20
63.31230849795387
 30
0.0
 11
43.60656653704872
 21
51.31230849795387
 31
0.0
  0
LINE
  5
281
330
1F
100
AcDbEntity
  8
0
 62
     1
100
AcDbLine
 10
44.42656653704934
 20
63.31230849795387
 30
0.0
 11
44.42656653704934
 21
51.31230849795387
 31
0.0
  0
LINE
  5
282
330
1F
100
AcDbEntity
  8
A2 Hatch
  6
DASHED2
 48
0.15
100
AcDbLine
 10
43.76656653704948
 20
63.31230849795387
 30
0.0
 11
43.76656653704948
 21
51.31230849795387
 31
0.0
  0
LINE
  5
283
330
1F
100
AcDbEntity
  8
A2 Hatch
  6
DASHED2
 48
0.15
100
AcDbLine
 10
44.26656653704948
 20
63.31230849795387
 30
0.0
 11
44.26656653704948
 21
51.31230849795387
 31
0.0
  0
LINE
  5
284
330
1F
100
AcDbEntity
  8
0
 48
0.15
100
AcDbLine
 10
38.16656653704912
 20
63.31230849795387
 30
0.0
 11
38.56656653704876
 21
63.31230849795387
 31
0.0
  0
LINE
  5
285
330
1F
100
AcDbEntity
  8
A2 Hatch
  6
DASHED2
 48
0.15
100
AcDbLine
 10
37.95656653704909
 20
63.81230849795387
 30
0.0
 11
37.95656653704909
 21
51.31230849795387
 31
0.0
  0
LINE
  5
286
330
1F
100
AcDbEntity
  8
A2 Hatch
  6
DASHED2
 48
0.15
100
AcDbLine
 10
38.7765665370488
 20
63.81230849795387
 30
0.0
 11
38.7765665370488
 21
51.31230849795387
 31
0.0
  0
LINE
  5
287
330
1F
100
AcDbEntity
  8
0
 62
     1
100
AcDbLine
 10
38.11656653704894
 20
63.81230849795387
 30
0.0
 11
38.11656653704894
 21
51.31230849795387
 31
0.0
  0
LINE
  5
288
330
1F
100
AcDbEntity
  8
0
 62
     1
100
AcDbLine
 10
38.61656653704894
 20
63.81230849795387
 30
0.0
 11
38.61656653704894
 21
51.31230849795387
 31
0.0
  0
LINE
  5
289
330
1F
100
AcDbEntity
  8
0
 62
     1
100
AcDbLine
 10
38.61656653704894
 20
63.31230849795387
 30
0.0
 11
38.11656653704894
 21
63.31230849795387
 31
0.0
  0
LINE
  5
28A
330
1F
100
AcDbEntity
  8
0
 62
     1
100
AcDbLine
 10
43.19156653704875
 20
63.31230849795387
 30
0.0
 11
43.39156653704857
 21
63.31230849795387
 31
0.0
  0
LINE
  5
28B
330
1F
100
AcDbEntity
  8
0
 62
     1
100
AcDbLine
 10
43.19156653704967
 20
51.31230849795387
 30
0.0
 11
45.19156653704967
 21
51.31230849795387
 31
0.0
  0
LINE
  5
28C
330
1F
100
AcDbEntity
  8
DETAILS
 62
     6
370
    20
100
AcDbLine
 10
43.19156653704875
 20
55.29230849795389
 30
0.0
 11
39.19156653704876
 21
55.29230849795389
 31
0.0
  0
LINE
  5
28D
330
1F
100
AcDbEntity
  8
DETAILS
 62
     6
370
    20
100
AcDbLine
 10
43.19156653704875
 20
59.83230849795385
 30
0.0
 11
39.19156653704876
 21
59.83230849795385
 31
0.0
  0
LINE
  5
28E
330
1F
100
AcDbEntity
  8
DETAILS
 62
     6
370
    20
100
AcDbLine
 10
43.19156653704875
 20
54.81230849795341
 30
0.0
 11
39.19156653704876
 21
54.81230849795387
 31
0.0
  0
LINE
  5
28F
330
1F
100
AcDbEntity
  8
DETAILS
 62
     6
370
    20
100
AcDbLine
 10
43.19156653704875
 20
54.90230849795356
 30
0.0
 11
39.19156653704876
 21
54.90230849795402
 31
0.0
  0
LINE
  5
290
330
1F
100
AcDbEntity
  8
DETAILS
 62
     6
370
    20
100
AcDbLine
 10
43.19156653704875
 20
55.20230849795375
 30
0.0
 11
39.19156653704876
 21
55.20230849795375
 31
0.0
  0
LINE
  5
291
330
1F
100
AcDbEntity
  8
DETAILS
 62
     6
370
    20
100
AcDbLine
 10
43.19156653704875
 20
59.92230849795308
 30
0.0
 11
39.19156653704876
 21
59.922308497954
 31
0.0
  0
LINE
  5
292
330
1F
100
AcDbEntity
  8
DETAILS
 62
     6
370
    20
100
AcDbLine
 10
43.19156653704875
 20
60.22230849795327
 30
0.0
 11
39.19156653704876
 21
60.22230849795373
 31
0.0
  0
LINE
  5
293
330
1F
100
AcDbEntity
  8
DETAILS
 62
     6
370
    20
100
AcDbLine
 10
39.38156653704654
 20
55.29230849795389
 30
0.0
 11
39.73156653704599
 21
55.29230849795389
 31
0.0
  0
LINE
  5
294
330
1F
100
AcDbEntity
  8
DETAILS
 62
     6
370
    20
100
AcDbLine
 10
42.63156653704744
 20
55.29230849795389
 30
0.0
 11
42.89369857140345
 21
55.55444053230671
 31
0.0
  0
LINE
  5
295
330
1F
100
AcDbEntity
  8
DETAILS
 62
     6
370
    20
100
AcDbLine
 10
39.73156653704599
 20
55.29230849795389
 30
0.0
 11
39.46943450268999
 21
55.55444053231262
 31
0.0
  0
LINE
  5
296
330
1F
100
AcDbEntity
  8
DETAILS
 62
     6
370
    20
100
AcDbLine
 10
42.64156653704858
 20
59.83230849795385
 30
0.0
 11
42.89369857140345
 21
59.58017646359716
 31
0.0
  0
LINE
  5
297
330
1F
100
AcDbEntity
  8
DETAILS
 62
     6
370
    20
100
AcDbLine
 10
39.74156653704712
 20
59.83230849795385
 30
0.0
 11
39.46943450269181
 21
59.56017646360173
 31
0.0
  0
LINE
  5
298
330
1F
100
AcDbEntity
  8
DETAILS
 62
     6
370
    20
100
AcDbLine
 10
42.98156653704781
 20
55.76657256666344
 30
0.0
 11
42.9815665370469
 21
59.36804442924225
 31
0.0
  0
LINE
  5
299
330
1F
100
AcDbEntity
  8
DETAILS
 62
     6
370
    20
100
AcDbLine
 10
39.38156653704654
 20
55.76657256666752
 30
0.0
 11
39.38156653704654
 21
59.34804442924455
 31
0.0
  0
ARC
  5
29A
330
1F
100
AcDbEntity
  8
DETAILS
 62
     6
370
    20
100
AcDbCircle
 10
42.68156653704763
 20
55.76657256666344
 30
0.0
 40
0.3
100
AcDbArc
 50
314.9999999997973
 51
0.0
  0
ARC
  5
29B
330
1F
100
AcDbEntity
  8
DETAILS
 62
     6
370
    20
100
AcDbCircle
 10
39.68156653704763
 20
55.76657256666707
 30
0.0
 40
0.3
100
AcDbArc
 50
180.0
 51
224.9999999996868
  0
ARC
  5
29C
330
1F
100
AcDbEntity
  8
DETAILS
 62
     6
370
    20
100
AcDbCircle
 10
42.68156653704763
 20
59.3680444292418
 30
0.0
 40
0.3
100
AcDbArc
 50
0.0000000000260551
 51
44.99999999970522
  0
ARC
  5
29D
330
1F
100
AcDbEntity
  8
DETAILS
 62
     6
370
    20
100
AcDbCircle
 10
39.68156653704763
 20
59.34804442924409
 30
0.0
 40
0.3
100
AcDbArc
 50
134.9999999997052
 51
180.0
  0
LINE
  5
29E
330
1F
100
AcDbEntity
  8
DETAILS
 62
     6
370
    20
100
AcDbLine
 10
39.19156653704876
 20
60.31230849795387
 30
0.0
 11
39.74156653704712
 21
60.31230849795387
 31
0.0
  0
LINE
  5
29F
330
1F
100
AcDbEntity
  8
DETAILS
 62
     6
370
    20
100
AcDbLine
 10
39.99156653704712
 20
60.36230849795405
 30
0.0
 11
39.99156653704712
 21
60.96662523403805
 31
0.0
  0
LINE
  5
2A0
330
1F
100
AcDbEntity
  8
DETAILS
 62
     6
370
    20
100
AcDbLine
 10
40.09156653704748
 20
60.36230849795405
 30
0.0
 11
40.09156653704748
 21
60.88019529016222
 31
0.0
  0
ARC
  5
2A1
330
1F
100
AcDbEntity
  8
DETAILS
 62
     6
370
    20
100
AcDbCircle
 10
40.15332419582672
 20
60.88443402551187
 30
0.0
 40
0.0619029506189981
100
AcDbArc
 50
134.9903235096027
 51
183.9263367617325
  0
LINE
  5
2A2
330
1F
100
AcDbEntity
  8
DETAILS
 62
     6
370
    20
100
AcDbLine
 10
42.44156653704784
 20
60.31230849795342
 30
0.0
 11
42.64156653704858
 21
60.31230849795342
 31
0.0
  0
LINE
  5
2A3
330
1F
100
AcDbEntity
  8
DETAILS
 62
     6
370
    20
100
AcDbLine
 10
42.39156653704857
 20
60.3623084979536
 30
0.0
 11
42.39156653704857
 21
60.96662523403805
 31
0.0
  0
LINE
  5
2A4
330
1F
100
AcDbEntity
  8
DETAILS
 62
     6
370
    20
100
AcDbLine
 10
42.29156653704821
 20
60.3623084979536
 30
0.0
 11
42.29156653704821
 21
60.88019529016177
 31
0.0
  0
ARC
  5
2A5
330
1F
100
AcDbEntity
  8
DETAILS
 62
     6
370
    20
100
AcDbCircle
 10
42.17931070504882
 20
60.8770602378177
 30
0.0
 40
0.1122996009395304
100
AcDbArc
 50
1.599726146933115
 51
27.09751498394533
  0
LINE
  5
2A6
330
1F
100
AcDbEntity
  8
DETAILS
 62
     6
370
    20
100
AcDbLine
 10
40.74156653704712
 20
60.3623084979536
 30
0.0
 11
40.74156653704712
 21
60.88019529016087
 31
0.0
  0
LINE
  5
2A7
330
1F
100
AcDbEntity
  8
DETAILS
 62
     6
370
    20
100
AcDbLine
 10
40.84156653704748
 20
60.3623084979536
 30
0.0
 11
40.84156653704748
 21
60.88019529016222
 31
0.0
  0
ARC
  5
2A8
330
1F
100
AcDbEntity
  8
DETAILS
 62
     6
370
    20
100
AcDbCircle
 10
40.79156653704639
 20
60.99804998372932
 30
0.0
 40
0.0935752503092939
100
AcDbArc
 50
311.7278668394931
 51
228.2721331609136
  0
ARC
  5
2A9
330
1F
100
AcDbEntity
  8
DETAILS
 62
     6
370
    20
100
AcDbCircle
 10
40.64156653704675
 20
60.88019529016087
 30
0.0
 40
0.1
100
AcDbArc
 50
0.0
 51
28.6972393524193
  0
ARC
  5
2AA
330
1F
100
AcDbEntity
  8
DETAILS
 62
     6
370
    20
100
AcDbCircle
 10
40.94156653704693
 20
60.88019529016222
 30
0.0
 40
0.1
100
AcDbArc
 50
151.3027606481172
 51
180.0
  0
LINE
  5
2AB
330
1F
100
AcDbEntity
  8
DETAILS
 62
     6
370
    20
100
AcDbLine
 10
41.54156653704911
 20
60.3623084979536
 30
0.0
 11
41.54156653704821
 21
60.88019529016087
 31
0.0
  0
LINE
  5
2AC
330
1F
100
AcDbEntity
  8
DETAILS
 62
     6
370
    20
100
AcDbLine
 10
41.64156653704857
 20
60.3623084979536
 30
0.0
 11
41.64156653704857
 21
60.88019529016177
 31
0.0
  0
ARC
  5
2AD
330
1F
100
AcDbEntity
  8
DETAILS
 62
     6
370
    20
100
AcDbCircle
 10
41.59156653704839
 20
60.99804998372887
 30
0.0
 40
0.0935752503091666
100
AcDbArc
 50
311.7278668395667
 51
228.2721331606193
  0
ARC
  5
2AE
330
1F
100
AcDbEntity
  8
DETAILS
 62
     6
370
    20
100
AcDbCircle
 10
41.44156653704875
 20
60.88019529016087
 30
0.0
 40
0.1
100
AcDbArc
 50
0.0
 51
28.6972393524193
  0
ARC
  5
2AF
330
1F
100
AcDbEntity
  8
DETAILS
 62
     6
370
    20
100
AcDbCircle
 10
41.74156653704893
 20
60.88019529016177
 30
0.0
 40
0.1
100
AcDbArc
 50
151.3027606481172
 51
180.0
  0
LINE
  5
2B0
330
1F
100
AcDbEntity
  8
DETAILS
 62
     6
370
    20
100
AcDbLine
 10
42.34156653704839
 20
61.09162523403806
 30
0.0
 11
43.19156653704875
 21
61.09162523403806
 31
0.0
  0
ARC
  5
2B1
330
1F
100
AcDbEntity
  8
DETAILS
 62
     6
370
    20
100
AcDbCircle
 10
40.0540535380468
 20
61.00058605744884
 30
0.0
 40
0.091207026586975
100
AcDbArc
 50
307.4863303690937
 51
93.47656839120459
  0
ARC
  5
2B2
330
1F
100
AcDbEntity
  8
DETAILS
 62
     6
370
    20
100
AcDbCircle
 10
42.34156653704839
 20
60.99804998372887
 30
0.0
 40
0.0935752503091878
100
AcDbArc
 50
90.0
 51
228.2720386612377
  0
LINE
  5
2B3
330
1F
100
AcDbEntity
  8
DETAILS
 62
     6
370
    20
100
AcDbLine
 10
40.05958436301343
 20
61.09162523403806
 30
0.0
 11
39.19156653704785
 21
61.09162523403806
 31
0.0
  0
LINE
  5
2B4
330
1F
100
AcDbEntity
  8
DETAILS
 62
     6
370
    20
100
AcDbLine
 10
39.99156653704712
 20
60.96662523403805
 30
0.0
 11
39.19156653704785
 21
60.96662523403805
 31
0.0
  0
LINE
  5
2B5
330
1F
100
AcDbEntity
  8
DETAILS
 62
     6
370
    20
100
AcDbLine
 10
42.39156653704857
 20
60.96662523403805
 30
0.0
 11
43.19156653704875
 21
60.96662523403805
 31
0.0
  0
LINE
  5
2B6
330
1F
100
AcDbEntity
  8
DETAILS
 62
     6
370
    20
100
AcDbLine
 10
42.24156653704894
 20
60.31230849795342
 30
0.0
 11
41.69156653704876
 21
60.31230849795387
 31
0.0
  0
LINE
  5
2B7
330
1F
100
AcDbEntity
  8
DETAILS
 62
     6
370
    20
100
AcDbLine
 10
41.49156653704894
 20
60.31230849795387
 30
0.0
 11
40.89156653704676
 21
60.31230849795387
 31
0.0
  0
LINE
  5
2B8
330
1F
100
AcDbEntity
  8
DETAILS
 62
     6
370
    20
100
AcDbLine
 10
40.69156653704694
 20
60.31230849795387
 30
0.0
 11
40.14156653704676
 21
60.31230849795387
 31
0.0
  0
LINE
  5
2B9
330
1F
100
AcDbEntity
  8
DETAILS
 62
     6
370
    20
100
AcDbLine
 10
39.94156653704603
 20
60.31230849795387
 30
0.0
 11
39.19156653704876
 21
60.31230849795387
 31
0.0
  0
ARC
  5
2BA
330
1F
100
AcDbEntity
  8
DETAILS
 62
     6
370
    20
100
AcDbCircle
 10
39.94156653704603
 20
60.36230849795405
 30
0.0
 40
0.05
100
AcDbArc
 50
270.0
 51
0.0
  0
ARC
  5
2BB
330
1F
100
AcDbEntity
  8
DETAILS
 62
     6
370
    20
100
AcDbCircle
 10
40.14156653704676
 20
60.36230849795405
 30
0.0
 40
0.05
100
AcDbArc
 50
180.0
 51
270.0
  0
ARC
  5
2BC
330
1F
100
AcDbEntity
  8
DETAILS
 62
     6
370
    20
100
AcDbCircle
 10
40.69156653704694
 20
60.3623084979536
 30
0.0
 40
0.05
100
AcDbArc
 50
270.0
 51
0.0
  0
ARC
  5
2BD
330
1F
100
AcDbEntity
  8
DETAILS
 62
     6
370
    20
100
AcDbCircle
 10
40.89156653704676
 20
60.3623084979536
 30
0.0
 40
0.05
100
AcDbArc
 50
180.0
 51
270.0
  0
ARC
  5
2BE
330
1F
100
AcDbEntity
  8
DETAILS
 62
     6
370
    20
100
AcDbCircle
 10
41.49156653704894
 20
60.3623084979536
 30
0.0
 40
0.05
100
AcDbArc
 50
270.0
 51
0.0
  0
ARC
  5
2BF
330
1F
100
AcDbEntity
  8
DETAILS
 62
     6
370
    20
100
AcDbCircle
 10
41.69156653704876
 20
60.3623084979536
 30
0.0
 40
0.05
100
AcDbArc
 50
180.0
 51
270.0
  0
ARC
  5
2C0
330
1F
100
AcDbEntity
  8
DETAILS
 62
     6
370
    20
100
AcDbCircle
 10
42.24156653704894
 20
60.3623084979536
 30
0.0
 40
0.05
100
AcDbArc
 50
270.0
 51
0.0
  0
ARC
  5
2C1
330
1F
100
AcDbEntity
  8
DETAILS
 62
     6
370
    20
100
AcDbCircle
 10
42.44156653704784
 20
60.3623084979536
 30
0.0
 40
0.05
100
AcDbArc
 50
179.9999999999479
 51
270.0
  0
LINE
  5
2C2
330
1F
100
AcDbEntity
  8
DETAILS
 62
     6
370
    20
100
AcDbLine
 10
39.19156653704876
 20
60.31230849795387
 30
0.0
 11
43.19156653704875
 21
60.31230849795387
 31
0.0
  0
LINE
  5
2C3
330
1F
100
AcDbEntity
  8
DETAILS
 62
     6
370
    20
100
AcDbLine
 10
39.94156653704603
 20
60.31230849795387
 30
0.0
 11
40.14156653704676
 21
60.31230849795387
 31
0.0
  0
LINE
  5
2C4
330
1F
100
AcDbEntity
  8
DETAILS
 62
     6
370
    20
100
AcDbLine
 10
40.69156653704694
 20
60.31230849795387
 30
0.0
 11
40.89156653704676
 21
60.31230849795387
 31
0.0
  0
LINE
  5
2C5
330
1F
100
AcDbEntity
  8
DETAILS
 62
     6
370
    20
100
AcDbLine
 10
41.49156653704894
 20
60.31230849795387
 30
0.0
 11
41.69156653704876
 21
60.31230849795387
 31
0.0
  0
LINE
  5
2C6
330
1F
100
AcDbEntity
  8
DETAILS
 62
     6
370
    20
100
AcDbLine
 10
42.24156653704894
 20
60.31230849795387
 30
0.0
 11
42.44156653704784
 21
60.31230849795387
 31
0.0
  0
LINE
  5
2C7
330
1F
100
AcDbEntity
  8
DETAILS
 62
     6
370
    20
100
AcDbLine
 10
39.99156653704712
 20
55.29230849795389
 30
0.0
 11
40.09156653704748
 21
55.29230849795389
 31
0.0
  0
LINE
  5
2C8
330
1F
100
AcDbEntity
  8
DETAILS
 62
     6
370
    20
100
AcDbLine
 10
40.06117815161532
 20
54.57838617525116
 30
0.0
 11
40.09156653704748
 21
54.81230849795387
 31
0.0
  0
LINE
  5
2C9
330
1F
100
AcDbEntity
  8
DETAILS
 62
     6
370
    20
100
AcDbLine
 10
40.02195492458748
 20
54.57838617525162
 30
0.0
 11
39.99156653704712
 21
54.81230849795387
 31
0.0
  0
ARC
  5
2CA
330
1F
100
AcDbEntity
  8
DETAILS
 62
     6
370
    20
100
AcDbCircle
 10
40.04156653810141
 20
54.58230849795385
 30
0.0
 40
0.02
100
AcDbArc
 50
191.3099324739691
 51
348.690067525944
  0
LINE
  5
2CB
330
1F
100
AcDbEntity
  8
DETAILS
 62
     6
370
    20
100
AcDbLine
 10
40.81117815056212
 20
54.57838617525116
 30
0.0
 11
40.84156653599428
 21
54.81230849795387
 31
0.0
  0
LINE
  5
2CC
330
1F
100
AcDbEntity
  8
DETAILS
 62
     6
370
    20
100
AcDbLine
 10
40.77195492353429
 20
54.57838617525162
 30
0.0
 11
40.74156653599392
 21
54.81230849795387
 31
0.0
  0
ARC
  5
2CD
330
1F
100
AcDbEntity
  8
DETAILS
 62
     6
370
    20
100
AcDbCircle
 10
40.79156653704821
 20
54.58230849795385
 30
0.0
 40
0.02
100
AcDbArc
 50
191.3099324739691
 51
348.690067525944
  0
LINE
  5
2CE
330
1F
100
AcDbEntity
  8
DETAILS
 62
     6
370
    20
100
AcDbLine
 10
41.61117815056321
 20
54.57838617525116
 30
0.0
 11
41.64156653599538
 21
54.81230849795387
 31
0.0
  0
LINE
  5
2CF
330
1F
100
AcDbEntity
  8
DETAILS
 62
     6
370
    20
100
AcDbLine
 10
41.57195492353539
 20
54.57838617525162
 30
0.0
 11
41.54156653599502
 21
54.81230849795387
 31
0.0
  0
ARC
  5
2D0
330
1F
100
AcDbEntity
  8
DETAILS
 62
     6
370
    20
100
AcDbCircle
 10
41.5915665370493
 20
54.58230849795385
 30
0.0
 40
0.02
100
AcDbArc
 50
191.3099324739691
 51
348.690067525944
  0
LINE
  5
2D1
330
1F
100
AcDbEntity
  8
DETAILS
 62
     6
370
    20
100
AcDbLine
 10
42.36117815056322
 20
54.57838617525116
 30
0.0
 11
42.39156653599538
 21
54.81230849795387
 31
0.0
  0
LINE
  5
2D2
330
1F
100
AcDbEntity
  8
DETAILS
 62
     6
370
    20
100
AcDbLine
 10
42.32195492353539
 20
54.57838617525162
 30
0.0
 11
42.29156653599502
 21
54.81230849795387
 31
0.0
  0
ARC
  5
2D3
330
1F
100
AcDbEntity
  8
DETAILS
 62
     6
370
    20
100
AcDbCircle
 10
42.3415665370493
 20
54.58230849795385
 30
0.0
 40
0.02
100
AcDbArc
 50
191.3099324739691
 51
348.690067525944
  0
LINE
  5
2D4
330
1F
100
AcDbEntity
  8
DETAILS
 62
     6
370
    20
100
AcDbLine
 10
39.73156653704599
 20
54.81230849795387
 30
0.0
 11
39.19156653704876
 21
54.29179303403774
 31
0.0
  0
LINE
  5
2D5
330
1F
100
AcDbEntity
  8
DETAILS
 62
     6
370
    20
100
AcDbLine
 10
42.63156653704835
 20
54.81230849795341
 30
0.0
 11
43.19156653704875
 21
54.27802278366701
 31
0.0
  0
LINE
  5
2D6
330
1F
100
AcDbEntity
  8
DETAILS
 62
     6
370
    20
100
AcDbLine
 10
42.64156653704858
 20
60.31230849795387
 30
0.0
 11
43.19156653704875
 21
60.84256490820965
 31
0.0
  0
LINE
  5
2D7
330
1F
100
AcDbEntity
  8
DETAILS
 62
     6
370
    20
100
AcDbLine
 10
39.74156653704712
 20
60.31230849795387
 30
0.0
 11
39.19156653704967
 21
60.84256490820875
 31
0.0
  0
LINE
  5
2D8
330
1F
100
AcDbEntity
  8
0
  6
HIDDEN
 62
     1
 48
0.02
100
AcDbLine
 10
37.54156653704912
 20
51.81230849795387
 30
0.0
 11
38.16656653704912
 21
51.81230849795387
 31
0.0
  0
LINE
  5
2D9
330
1F
100
AcDbEntity
  8
0
  6
HIDDEN
 62
     1
 48
0.02
100
AcDbLine
 10
38.56656653704876
 20
51.81230849795387
 30
0.0
 11
38.56656653704785
 21
51.31230849795387
 31
0.0
  0
LINE
  5
2DA
330
1F
100
AcDbEntity
  8
0
  6
HIDDEN
 62
     1
 48
0.02
100
AcDbLine
 10
38.16656653704912
 20
51.81230849795387
 30
0.0
 11
38.16656653705003
 21
51.31230849795387
 31
0.0
  0
LINE
  5
2DB
330
1F
100
AcDbEntity
  8
0
  6
HIDDEN
 62
     1
 48
0.02
100
AcDbLine
 10
38.56656653704785
 20
51.81230849795387
 30
0.0
 11
39.19156653704785
 21
51.81230849795387
 31
0.0
  0
LINE
  5
2DC
330
1F
100
AcDbEntity
  8
0
  6
HIDDEN
 62
     1
 48
0.02
100
AcDbLine
 10
44.84156653705021
 20
51.81230849795387
 30
0.0
 11
44.84156653705021
 21
51.31230849795387
 31
0.0
  0
LINE
  5
2DD
330
1F
100
AcDbEntity
  8
0
  6
HIDDEN
 62
     1
 48
0.02
100
AcDbLine
 10
43.81656653704967
 20
51.81230849795387
 30
0.0
 11
43.81656653704967
 21
51.31230849795387
 31
0.0
  0
LINE
  5
2DE
330
1F
100
AcDbEntity
  8
0
  6
HIDDEN
 62
     1
 48
0.02
100
AcDbLine
 10
44.21656653705021
 20
51.81230849795387
 30
0.0
 11
44.21656653705021
 21
51.31230849795387
 31
0.0
  0
LINE
  5
2DF
330
1F
100
AcDbEntity
  8
0
  6
HIDDEN
 62
     1
 48
0.02
100
AcDbLine
 10
43.19156653704967
 20
51.81230849795387
 30
0.0
 11
43.81656653704967
 21
51.81230849795387
 31
0.0
  0
LINE
  5
2E0
330
1F
100
AcDbEntity
  8
0
  6
HIDDEN
 62
     1
 48
0.02
100
AcDbLine
 10
44.21656653705021
 20
51.81230849795387
 30
0.0
 11
44.84156653705021
 21
51.81230849795387
 31
0.0
  0
LINE
  5
2E1
330
1F
100
AcDbEntity
  8
0
  6
HIDDEN
 62
     1
 48
0.02
100
AcDbLine
 10
43.64156653705039
 20
51.56230849795387
 30
0.0
 11
43.64156653705039
 21
51.31230849795387
 31
0.0
  0
LINE
  5
2E2
330
1F
100
AcDbEntity
  8
0
  6
HIDDEN
 62
     1
 48
0.02
100
AcDbLine
 10
43.39156653705039
 20
51.56230849795387
 30
0.0
 11
43.64156653705039
 21
51.56230849795387
 31
0.0
  0
LINE
  5
2E3
330
1F
100
AcDbEntity
  8
0
 48
0.15
100
AcDbLine
 10
39.19156653704967
 20
51.31230849795387
 30
0.0
 11
43.19156653704967
 21
51.31230849795387
 31
0.0
  0
LINE
  5
2E4
330
1F
100
AcDbEntity
  8
0
 48
0.15
100
AcDbLine
 10
39.19156653704967
 20
52.81230849795387
 30
0.0
 11
43.19156653704967
 21
52.81230849795387
 31
0.0
  0
LINE
  5
2E5
330
1F
100
AcDbEntity
  8
A2 Hatch
 48
0.15
100
AcDbLine
 10
43.19156653704967
 20
52.81230849795387
 30
0.0
 11
39.19156653704967
 21
51.31230849795387
 31
0.0
  0
LINE
  5
2E6
330
1F
100
AcDbEntity
  8
A2 Hatch
 48
0.15
100
AcDbLine
 10
39.19156653704967
 20
52.81230849795387
 30
0.0
 11
43.19156653704967
 21
51.31230849795387
 31
0.0
  0
LWPOLYLINE
  5
2E7
330
1F
100
AcDbEntity
  8
0
 48
0.15
100
AcDbPolyline
 90
        4
 70
     1
 43
0.0
 10
39.69156653704967
 20
51.31230849795387
 10
39.69156653704967
 20
49.81230849795387
 10
45.19156653704967
 20
49.81230849795387
 10
45.19156653704967
 20
51.31230849795387
  0
LINE
  5
2E8
330
1F
100
AcDbEntity
  8
A2 Hatch
 48
0.15
100
AcDbLine
 10
45.19156653704967
 20
51.31230849795387
 30
0.0
 11
39.69156653704967
 21
49.81230849795387
 31
0.0
  0
LINE
  5
2E9
330
1F
100
AcDbEntity
  8
A2 Hatch
 48
0.15
100
AcDbLine
 10
45.19156653704967
 20
49.81230849795387
 30
0.0
 11
39.69156653704967
 21
51.31230849795387
 31
0.0
  0
LINE
  5
2EA
330
1F
100
AcDbEntity
  8
A5 heavy
 48
0.15
100
AcDbLine
 10
42.43015556319813
 20
53.48857161088112
 30
0.0
 11
41.93015556319814
 21
53.48857161088112
 31
0.0
  0
LINE
  5
2EB
330
1F
100
AcDbEntity
  8
A5 heavy
 48
0.15
100
AcDbLine
 10
42.18015556319814
 20
53.48857161088112
 30
0.0
 11
42.18015556319814
 21
52.29120644752132
 31
0.0
  0
LINE
  5
2EC
330
1F
100
AcDbEntity
  8
A5 heavy
 48
0.15
100
AcDbLine
 10
39.95297751090119
 20
53.48857161088112
 30
0.0
 11
40.45297751090119
 21
53.48857161088112
 31
0.0
  0
LINE
  5
2ED
330
1F
100
AcDbEntity
  8
A5 heavy
 48
0.15
100
AcDbLine
 10
40.20297751090119
 20
53.48857161088112
 30
0.0
 11
40.20297751090119
 21
52.29120644752132
 31
0.0
  0
LINE
  5
2EE
330
1F
100
AcDbEntity
  8
A5 heavy
 48
0.15
100
AcDbLine
 10
45.19156653704967
 20
51.81903110889974
 30
0.0
 11
45.19156653704967
 21
52.31903110889974
 31
0.0
  0
LINE
  5
2EF
330
1F
100
AcDbEntity
  8
A5 heavy
 48
0.15
100
AcDbLine
 10
45.19156653704967
 20
52.06903110889975
 30
0.0
 11
42.42799738270959
 21
52.06903110889975
 31
0.0
  0
LINE
  5
2F0
330
1F
100
AcDbEntity
  8
A5 heavy
 48
0.15
100
AcDbLine
 10
37.19156653704967
 20
51.81903110889974
 30
0.0
 11
37.19156653704967
 21
52.31903110889974
 31
0.0
  0
LINE
  5
2F1
330
1F
100
AcDbEntity
  8
A5 heavy
 48
0.15
100
AcDbLine
 10
37.19156653704967
 20
52.06903110889975
 30
0.0
 11
39.95513569138974
 21
52.06903110889975
 31
0.0
  0
LINE
  5
2F2
330
1F
100
AcDbEntity
  8
0
 48
0.15
100
AcDbLine
 10
45.69156653705057
 20
76.61924490872346
 30
0.0
 11
45.69156653704967
 21
49.31230849795387
 31
0.0
  0
LINE
  5
2F3
330
1F
100
AcDbEntity
  8
0
 48
0.15
100
AcDbLine
 10
36.69156653704967
 20
73.65529051019851
 30
0.0
 11
36.69156653704967
 21
50.81230849795387
 31
0.0
  0
LINE
  5
2F4
330
1F
100
AcDbEntity
  8
DIM
100
AcDbLine
 10
47.07597313610849
 20
77.0887561994937
 30
0.0
 11
42.10581266028647
 21
75.40316291936509
 31
0.0
  0
LINE
  5
2F5
330
1F
100
AcDbEntity
  8
DIM
100
AcDbLine
 10
42.80784492288775
 20
73.33314220590776
 30
0.0
 11
42.10581266028738
 21
75.40316291936509
 31
0.0
  0
LINE
  5
2F6
330
1F
100
AcDbEntity
  8
DIM
100
AcDbLine
 10
39.36069936460344
 20
76.78028776419253
 30
0.0
 11
40.0627316272038
 21
74.71026705073566
 31
0.0
  0
LINE
  5
2F7
330
1F
100
AcDbEntity
  8
DIM
100
AcDbLine
 10
40.0627316272038
 20
74.71026705073566
 30
0.0
 11
33.99537995357686
 21
72.81154257190022
 31
0.0
  0
LINE
  5
2F8
330
1F
100
AcDbEntity
  8
DIM
100
AcDbLine
 10
42.80784492288775
 20
73.33314220590776
 30
0.0
 11
39.36069936460344
 21
76.78028776419253
 31
0.0
  0
LINE
  5
2F9
330
1F
100
AcDbEntity
  8
0
 48
0.15
100
AcDbLine
 10
36.69156653704967
 20
50.81230849795387
 30
0.0
 11
39.44156653704967
 21
50.81230849795023
 31
0.0
  0
LINE
  5
2FA
330
1F
100
AcDbEntity
  8
0
 48
0.15
100
AcDbLine
 10
39.69156653704967
 20
51.04271487137252
 30
0.0
 11
39.44156653704967
 21
51.04271487137252
 31
0.0
  0
LINE
  5
2FB
330
1F
100
AcDbEntity
  8
0
 48
0.15
100
AcDbLine
 10
39.44156653704967
 20
51.04271487137252
 30
0.0
 11
39.44156653704967
 21
49.81230849795387
 31
0.0
  0
LINE
  5
2FC
330
1F
100
AcDbEntity
  8
0
 48
0.15
100
AcDbLine
 10
39.44156653704967
 20
49.81230849795387
 30
0.0
 11
38.94156653704967
 21
49.81230849795387
 31
0.0
  0
LINE
  5
2FD
330
1F
100
AcDbEntity
  8
0
 48
0.15
100
AcDbLine
 10
38.94156653704967
 20
49.81230849795387
 30
0.0
 11
38.94156653704967
 21
49.06230849795387
 31
0.0
  0
LINE
  5
2FE
330
1F
100
AcDbEntity
  8
0
 48
0.15
100
AcDbLine
 10
38.94156653704967
 20
49.06230849795387
 30
0.0
 11
39.06656653704967
 21
49.06230849795387
 31
0.0
  0
LINE
  5
2FF
330
1F
100
AcDbEntity
  8
0
 48
0.15
100
AcDbLine
 10
39.06656653704967
 20
49.06230849795387
 30
0.0
 11
39.06656653704967
 21
47.06230849795387
 31
0.0
  0
LINE
  5
300
330
1F
100
AcDbEntity
  8
0
 48
0.15
100
AcDbLine
 10
39.06656653704967
 20
47.06230849795387
 30
0.0
 11
38.94156653704967
 21
47.06230849795387
 31
0.0
  0
LINE
  5
301
330
1F
100
AcDbEntity
  8
0
 48
0.15
100
AcDbLine
 10
38.94156653704967
 20
47.06230849795387
 30
0.0
 11
38.94156653704967
 21
46.81230849795387
 31
0.0
  0
LINE
  5
302
330
1F
100
AcDbEntity
  8
0
 48
0.15
100
AcDbLine
 10
38.94156653704967
 20
46.81230849795387
 30
0.0
 11
39.3762953106242
 21
46.37757972437888
 31
0.0
  0
LINE
  5
303
330
1F
100
AcDbEntity
  8
0
 48
0.15
100
AcDbLine
 10
39.3762953106242
 20
46.37757972437888
 30
0.0
 11
39.932222491041
 21
46.37757972437888
 31
0.0
  0
LINE
  5
304
330
1F
100
AcDbEntity
  8
0
 48
0.15
100
AcDbLine
 10
41.81102408419874
 20
46.81230849795387
 30
0.0
 11
41.3762953106242
 21
46.37757972437888
 31
0.0
  0
LINE
  5
305
330
1F
100
AcDbEntity
  8
0
 48
0.15
100
AcDbLine
 10
41.81102408419874
 20
46.81230849795387
 30
0.0
 11
41.81102408419874
 21
48.26197332335236
 31
0.0
  0
LINE
  5
306
330
1F
100
AcDbEntity
  8
0
 48
0.15
100
AcDbLine
 10
41.81102408419874
 20
48.26197332335236
 30
0.0
 11
42.31102408419873
 21
48.26197332335236
 31
0.0
  0
LINE
  5
307
330
1F
100
AcDbEntity
  8
0
 48
0.15
100
AcDbLine
 10
42.31102408419873
 20
48.26197332335236
 30
0.0
 11
42.31102408419873
 21
49.81230849795387
 31
0.0
  0
LINE
  5
308
330
1F
100
AcDbEntity
  8
0
 48
0.15
100
AcDbLine
 10
39.93222249104191
 20
47.23808411607119
 30
0.0
 11
39.93222249104191
 21
38.1109760373702
 31
0.0
  0
LINE
  5
309
330
1F
100
AcDbEntity
  8
0
 48
0.15
100
AcDbLine
 10
40.05722249104191
 20
47.23808411607119
 30
0.0
 11
40.05722249104191
 21
38.1109760373702
 31
0.0
  0
LINE
  5
30A
330
1F
100
AcDbEntity
  8
0
 48
0.15
100
AcDbLine
 10
40.05722249104191
 20
47.23808411607119
 30
0.0
 11
39.93222249104191
 21
47.23808411607119
 31
0.0
  0
LINE
  5
30B
330
1F
100
AcDbEntity
  8
0
 48
0.15
100
AcDbLine
 10
40.66215544868363
 20
47.23808411607119
 30
0.0
 11
40.66215544868363
 21
38.1109760373702
 31
0.0
  0
LINE
  5
30C
330
1F
100
AcDbEntity
  8
0
 48
0.15
100
AcDbLine
 10
40.78715544868363
 20
47.23808411607119
 30
0.0
 11
40.78715544868363
 21
38.1109760373702
 31
0.0
  0
LINE
  5
30D
330
1F
100
AcDbEntity
  8
0
 48
0.15
100
AcDbLine
 10
40.78715544868363
 20
47.23808411607119
 30
0.0
 11
40.66215544868363
 21
47.23808411607119
 31
0.0
  0
LINE
  5
30E
330
1F
100
AcDbEntity
  8
0
 48
0.15
100
AcDbLine
 10
40.05722249104282
 20
46.37757972437888
 30
0.0
 11
40.66215544868363
 21
46.37757972437888
 31
0.0
  0
LINE
  5
30F
330
1F
100
AcDbEntity
  8
0
 48
0.15
100
AcDbLine
 10
40.78715544868363
 20
46.37757972437888
 30
0.0
 11
41.3762953106242
 21
46.37757972437888
 31
0.0
  0
LINE
  5
310
330
1F
100
AcDbEntity
  8
0
 48
0.15
100
AcDbLine
 10
41.02244139207949
 20
47.0765618510059
 30
0.0
 11
40.78715544868363
 21
47.0765618510059
 31
0.0
  0
LINE
  5
311
330
1F
100
AcDbEntity
  8
0
 48
0.15
100
AcDbLine
 10
39.68477664792489
 20
47.0765618510059
 30
0.0
 11
39.68477664792489
 21
47.55865625090613
 31
0.0
  0
LINE
  5
312
330
1F
100
AcDbEntity
  8
0
 48
0.15
100
AcDbLine
 10
39.68477664792489
 20
47.55865625090613
 30
0.0
 11
39.83095691678217
 21
47.55865625090613
 31
0.0
  0
LINE
  5
313
330
1F
100
AcDbEntity
  8
0
 48
0.15
100
AcDbLine
 10
41.02244139207949
 20
47.0765618510059
 30
0.0
 11
41.02244139207949
 21
47.55865625090613
 31
0.0
  0
LINE
  5
314
330
1F
100
AcDbEntity
  8
0
 48
0.15
100
AcDbLine
 10
41.02244139207949
 20
47.55865625090613
 30
0.0
 11
40.87626112322221
 21
47.55865625090613
 31
0.0
  0
ARC
  5
315
330
1F
100
AcDbEntity
  8
0
 48
0.15
100
AcDbCircle
 10
40.3536090200022
 20
47.03600414768611
 30
0.0
 40
0.7391416927765827
100
AcDbArc
 50
45.0
 51
135.0
  0
LINE
  5
316
330
1F
100
AcDbEntity
  8
0
 48
0.15
100
AcDbLine
 10
39.932222491041
 20
47.0765618510059
 30
0.0
 11
39.68477664792489
 21
47.0765618510059
 31
0.0
  0
LINE
  5
317
330
1F
100
AcDbEntity
  8
0
 48
0.15
100
AcDbLine
 10
40.66215544868363
 20
47.0765618510059
 30
0.0
 11
40.05722249104282
 21
47.0765618510059
 31
0.0
  0
LINE
  5
318
330
1F
100
AcDbEntity
  8
0
 48
0.15
100
AcDbLine
 10
45.69156653704967
 20
49.31230849795387
 30
0.0
 11
42.31102408419782
 21
49.31230849795433
 31
0.0
  0
LINE
  5
319
330
1F
100
AcDbEntity
  8
A5 heavy
 48
0.15
100
AcDbLine
 10
39.44156653704967
 20
50.17751168466297
 30
0.0
 11
39.44156653704967
 21
50.67751168466297
 31
0.0
  0
LINE
  5
31A
330
1F
100
AcDbEntity
  8
A5 heavy
 48
0.15
100
AcDbLine
 10
39.44156653704967
 20
50.42751168466296
 30
0.0
 11
40.60300916746463
 21
50.42751168466296
 31
0.0
  0
MTEXT
  5
31B
330
1F
100
AcDbEntity
  8
DIM
 62
     3
100
AcDbMText
 10
54.62624000895438
 20
45.47549939869763
 30
0.0
 40
1.0
 41
22.68954545454545
 71
     1
 72
     5
  1
SUB BUCK TO BE FASTENED TO CONCRETE (CONNECTION PER CODE)
  7
RomanC
 73
     1
 44
1.0
1001
ACAD
1000
MTEXTBEGIN
1070
    73
1070
     1
1070
    44
1040
1.0
1070
    74
1070
     0
1000
MTEXTEND
  0
MTEXT
  5
31C
330
1F
100
AcDbEntity
  8
DIM
 62
     3
100
AcDbMText
 10
54.62624000895438
 20
37.67212083368262
 30
0.0
 40
1.0
 41
22.68954545454545
 71
     1
 72
     5
  1
WINDOW BY OTHERS
  7
RomanC
 73
     1
 44
1.0
1001
ACAD
1000
MTEXTBEGIN
1070
    73
1070
     1
1070
    44
1040
1.0
1070
    74
1070
     0
1000
MTEXTEND
  0
MTEXT
  5
31D
330
1F
100
AcDbEntity
  8
DIM
 62
     3
100
AcDbMText
 10
54.62624000895438
 20
50.81464837843718
 30
0.0
 40
1.0
 41
22.68954545454545
 71
     1
 72
     5
  1
1x OR 2x BLOCKING FOR RECESSED WINDOW ATTACHMENT
  7
RomanC
 73
     1
 44
1.0
1001
ACAD
1000
MTEXTBEGIN
1070
    73
1070
     1
1070
    44
1040
1.0
1070
    74
1070
     0
1000
MTEXTEND
  0
MTEXT
  5
31E
330
1F
100
AcDbEntity
  8
DIM
 62
     3
100
AcDbMText
 10
54.62624000895438
 20
56.56450984989763
 30
0.0
 40
1.0
 41
22.68954545454545
 71
     1
 72
     5
  1
WIND-LOCK TYPE FASTENER OR EQUIVALENT
  7
RomanC
 73
     1
 44
1.0
1001
ACAD
1000
MTEXTBEGIN
1070
    73
1070
     1
1070
    44
1040
1.0
1070
    74
1070
     0
1000
MTEXTEND
  0
MTEXT
  5
31F
330
1F
100
AcDbEntity
  8
DIM
 62
     3
100
AcDbMText
 10
54.62624000895438
 20
62.24251308013894
 30
0.0
 40
1.0
 41
22.68954545454545
 71
     1
 72
     5
  1
INTERIOR GYPSUM WALLBOARD FASTEN TO TIES
  7
RomanC
 73
     1
 44
1.0
1001
ACAD
1000
MTEXTBEGIN
1070
    73
1070
     1
1070
    44
1040
1.0
1070
    74
1070
     0
1000
MTEXTEND
  0
MTEXT
  5
320
330
1F
100
AcDbEntity
  8
DIM
 62
     3
100
AcDbMText
 10
54.62624000895438
 20
67.53557116778441
 30
0.0
 40
1.0
 41
22.68954545454545
 71
     1
 72
     5
  1
REINFORCEMENT PER ENGINEER
  7
RomanC
 73
     1
 44
1.0
1001
ACAD
1000
MTEXTBEGIN
1070
    73
1070
     1
1070
    44
1040
1.0
1070
    74
1070
     0
1000
MTEXTEND
  0
LWPOLYLINE
  5
321
330
1F
100
AcDbEntity
  8
0
 48
0.15
100
AcDbPolyline
 90
        2
 70
     1
 43
0.25
 10
41.8459097280146
 20
60.63796759670825
 42
1.0
 10
42.0959097280146
 20
60.63796759670825
 42
1.0
  0
LWPOLYLINE
  5
322
330
1F
100
AcDbEntity
  8
0
 48
0.15
100
AcDbPolyline
 90
        2
 70
     1
 43
0.25
 10
40.29095746750762
 20
60.63796759670825
 42
1.0
 10
40.54095746750762
 20
60.63796759670825
 42
1.0
  0
LWPOLYLINE
  5
323
330
1F
100
AcDbEntity
  8
0
 48
0.15
100
AcDbPolyline
 90
        2
 70
     1
 43
0.25
 10
41.8459097280146
 20
54.46074465970836
 42
1.0
 10
42.0959097280146
 20
54.46074465970836
 42
1.0
  0
LWPOLYLINE
  5
324
330
1F
100
AcDbEntity
  8
0
 48
0.15
100
AcDbPolyline
 90
        2
 70
     1
 43
0.25
 10
40.29095746750762
 20
54.46074465970836
 42
1.0
 10
40.54095746750762
 20
54.46074465970836
 42
1.0
  0
LEADER
  5
325
330
1F
100
AcDbEntity
  8
DIM
 48
0.15
100
AcDbLeader
  3
ARCTEXT 1-1
 76
     3
 10
40.78591406249405
 20
42.67453007672069
 30
0.0
 10
46.30405803491512
 20
37.15638610429964
 30
0.0
 10
53.66782137350027
 20
37.15638610429964
 30
0.0
1001
ACAD
1000
DSTYLE
1002
{
1070
    40
1040
1.0
1070
    41
1040
0.5
1070
    77
1070
     0
1002
}
  0
LEADER
  5
326
330
1F
100
AcDbEntity
  8
DIM
 48
0.15
100
AcDbLeader
  3
ARCTEXT 1-1
 76
     3
 10
41.19156653704966
 20
52.06230849795387
 30
0.0
 10
48.27824616667375
 20
44.97562886832933
 30
0.0
 10
53.66782137350027
 20
44.97562886832933
 30
0.0
1001
ACAD
1000
DSTYLE
1002
{
1070
    40
1040
1.0
1070
    41
1040
0.5
1070
    77
1070
     0
1002
}
  0
LEADER
  5
327
330
1F
100
AcDbEntity
  8
DIM
 48
0.15
100
AcDbLeader
  3
ARCTEXT 1-1
 76
     2
 10
45.19156653704967
 20
50.56230849795387
 30
0.0
 10
53.73510118809726
 20
50.56230849795387
 30
0.0
1001
ACAD
1000
DSTYLE
1002
{
1070
    40
1040
1.0
1070
    41
1040
0.5
1070
    77
1070
     0
1002
}
  0
LEADER
  5
328
330
1F
100
AcDbEntity
  8
DIM
 48
0.15
100
AcDbLeader
  3
ARCTEXT 1-1
 76
     3
 10
45.19156653704967
 20
52.06903110889975
 30
0.0
 10
49.21536478673978
 20
56.0928293585894
 30
0.0
 10
53.93703285916934
 20
56.0928293585894
 30
0.0
1001
ACAD
1000
DSTYLE
1002
{
1070
    40
1040
1.0
1070
    41
1040
0.5
1070
    77
1070
     0
1002
}
  0
LEADER
  5
329
330
1F
100
AcDbEntity
  8
DIM
 48
0.15
100
AcDbLeader
  3
ARCTEXT 1-1
 76
     2
 10
45.69156653704967
 20
61.67151955991452
 30
0.0
 10
53.87035252201975
 20
61.67151955991452
 30
0.0
1001
ACAD
1000
DSTYLE
1002
{
1070
    40
1040
1.0
1070
    41
1040
0.5
1070
    77
1070
     0
1002
}
  0
LEADER
  5
32A
330
1F
100
AcDbEntity
  8
DIM
 48
0.15
100
AcDbLeader
  3
ARCTEXT 1-1
 76
     3
 10
40.41595746750762
 20
60.51296759670826
 30
0.0
 10
46.9801876581031
 20
67.07719778730373
 30
0.0
 10
53.66846696459187
 20
67.07719778730373
 30
0.0
1001
ACAD
1000
DSTYLE
1002
{
1070
    40
1040
1.0
1070
    41
1040
0.5
1070
    77
1070
     0
1002
}
  0
ENDSEC
  0
SECTION
  2
OBJECTS
  0
DICTIONARY
  5
C
330
0
100
AcDbDictionary
281
     1
  3
ACAD_COLOR
350
73
  3
ACAD_GROUP
350
D
  3
ACAD_LAYOUT
350
1A
  3
ACAD_MATERIAL
350
72
  3
ACAD_MLINESTYLE
350
17
  3
ACAD_PLOTSETTINGS
350
19
  3
ACAD_PLOTSTYLENAME
350
E
  3
ACDBHEADERROUNDTRIPXREC
350
32D
  3
AcDbVariableDictionary
350
66
  0
DICTIONARY
  5
A4
330
2
100
AcDbDictionary
280
     1
281
     1
  3
ACAD_LAYERSTATES
360
A5
  0
DICTIONARY
  5
73
102
{ACAD_REACTORS
330
C
102
}
330
C
100
AcDbDictionary
281
     1
  0
DICTIONARY
  5
D
102
{ACAD_REACTORS
330
C
102
}
330
C
100
AcDbDictionary
281
     1
  0
DICTIONARY
  5
1A
102
{ACAD_REACTORS
330
C
102
}
330
C
100
AcDbDictionary
281
     1
  3
Layout1
350
59
  3
Layout2
350
5E
  3
Model
350
22
  0
DICTIONARY
  5
72
102
{ACAD_REACTORS
330
C
102
}
330
C
100
AcDbDictionary
281
     1
  0
DICTIONARY
  5
17
102
{ACAD_REACTORS
330
C
102
}
330
C
100
AcDbDictionary
281
     1
  3
Standard
350
18
  0
DICTIONARY
  5
19
102
{ACAD_REACTORS
330
C
102
}
330
C
100
AcDbDictionary
281
     1
  0
ACDBDICTIONARYWDFLT
  5
E
102
{ACAD_REACTORS
330
C
102
}
330
C
100
AcDbDictionary
281
     1
  3
Normal
350
F
100
AcDbDictionaryWithDefault
340
F
  0
DICTIONARY
  5
32D
102
{ACAD_REACTORS
330
C
102
}
330
C
100
AcDbDictionary
281
     1
  3
COLORDICT
350
32F
  3
MATERIALDICT
350
32E
  0
DICTIONARY
  5
66
102
{ACAD_REACTORS
330
C
102
}
330
C
100
AcDbDictionary
281
     1
  3
DIMASSOC
350
67
  3
HIDETEXT
350
6B
  3
PROJECTNAME
350
32B
  0
DICTIONARY
  5
A5
102
{ACAD_REACTORS
330
A4
102
}
330
A4
100
AcDbDictionary
281
     1
  0
LAYOUT
  5
59
102
{ACAD_XDICTIONARY
360
332
102
}
102
{ACAD_REACTORS
330
1A
102
}
330
1A
100
AcDbPlotSettings
  1

  2
None
  4

  6

 40
0.0
 41
0.0
 42
0.0
 43
0.0
 44
0.0
 45
0.0
 46
0.0
 47
0.0
 48
0.0
 49
0.0
140
0.0
141
0.0
142
1.0
143
1.0
 70
   688
 72
     0
 73
     0
 74
     5
  7

 75
    16
147
1.0
148
0.0
149
0.0
100
AcDbLayout
  1
Layout1
 70
     1
 71
     1
 10
0.0
 20
0.0
 11
12.0
 21
9.0
 12
0.0
 22
0.0
 32
0.0
 14
0.0
 24
0.0
 34
0.0
 15
0.0
 25
0.0
 35
0.0
146
0.0
 13
0.0
 23
0.0
 33
0.0
 16
1.0
 26
0.0
 36
0.0
 17
0.0
 27
1.0
 37
0.0
 76
     0
330
58
  0
LAYOUT
  5
5E
102
{ACAD_XDICTIONARY
360
334
102
}
102
{ACAD_REACTORS
330
1A
102
}
330
1A
100
AcDbPlotSettings
  1

  2
None
  4

  6

 40
0.0
 41
0.0
 42
0.0
 43
0.0
 44
0.0
 45
0.0
 46
0.0
 47
0.0
 48
0.0
 49
0.0
140
0.0
141
0.0
142
1.0
143
1.0
 70
   688
 72
     0
 73
     0
 74
     5
  7

 75
    16
147
1.0
148
0.0
149
0.0
100
AcDbLayout
  1
Layout2
 70
     1
 71
     2
 10
0.0
 20
0.0
 11
12.0
 21
9.0
 12
0.0
 22
0.0
 32
0.0
 14
0.0
 24
0.0
 34
0.0
 15
0.0
 25
0.0
 35
0.0
146
0.0
 13
0.0
 23
0.0
 33
0.0
 16
1.0
 26
0.0
 36
0.0
 17
0.0
 27
1.0
 37
0.0
 76
     0
330
5D
  0
LAYOUT
  5
22
102
{ACAD_XDICTIONARY
360
330
102
}
102
{ACAD_REACTORS
330
1A
102
}
330
1A
100
AcDbPlotSettings
  1

  2
none_device
  4
ANSI_A_(8.50_x_11.00_Inches)
  6

 40
6.349999904632568
 41
19.04999923706055
 42
6.350006103515625
 43
19.04998779296875
 44
215.8999938964844
 45
279.3999938964844
 46
0.0
 47
0.0
 48
0.0
 49
0.0
140
0.0
141
0.0
142
1.0
143
2.584895464708373
 70
 11952
 72
     0
 73
     1
 74
     0
  7

 75
     0
147
0.3868628397755418
148
0.0
149
0.0
100
AcDbLayout
  1
Model
 70
     1
 71
     0
 10
0.0
 20
0.0
 11
12.0
 21
9.0
 12
0.0
 22
0.0
 32
0.0
 14
0.0
 24
0.0
 34
0.0
 15
0.0
 25
0.0
 35
0.0
146
0.0
 13
0.0
 23
0.0
 33
0.0
 16
1.0
 26
0.0
 36
0.0
 17
0.0
 27
1.0
 37
0.0
 76
     0
330
1F
  0
MLINESTYLE
  5
18
102
{ACAD_REACTORS
330
17
102
}
330
17
100
AcDbMlineStyle
  2
STANDARD
 70
     0
  3

 62
   256
 51
90.0
 52
90.0
 71
     2
 49
0.5
 62
   256
  6
BYLAYER
 49
-0.5
 62
   256
  6
BYLAYER
  0
ACDBPLACEHOLDER
  5
F
102
{ACAD_REACTORS
330
E
102
}
330
E
  0
XRECORD
  5
32F
102
{ACAD_REACTORS
330
32D
102
}
330
32D
100
AcDbXrecord
280
     1
340
73
  0
XRECORD
  5
32E
102
{ACAD_REACTORS
330
32D
102
}
330
32D
100
AcDbXrecord
280
     1
340
72
  0
DICTIONARYVAR
  5
67
102
{ACAD_REACTORS
330
66
102
}
330
66
100
DictionaryVariables
280
     0
  1
2
  0
DICTIONARYVAR
  5
6B
102
{ACAD_REACTORS
330
66
102
}
330
66
100
DictionaryVariables
280
     0
  1
1
  0
DICTIONARYVAR
  5
32B
102
{ACAD_REACTORS
330
66
102
}
330
66
100
DictionaryVariables
280
     0
  1

  0
DICTIONARY
  5
332
330
59
100
AcDbDictionary
280
     1
281
     1
  3
ACAD_XREC_ROUNDTRIP
360
333
  0
DICTIONARY
  5
334
330
5E
100
AcDbDictionary
280
     1
281
     1
  3
ACAD_XREC_ROUNDTRIP
360
335
  0
DICTIONARY
  5
330
330
22
100
AcDbDictionary
280
     1
281
     1
  3
ACAD_XREC_ROUNDTRIP
360
331
  0
XRECORD
  5
333
102
{ACAD_REACTORS
330
332
102
}
330
332
100
AcDbXrecord
280
     1
102
SHADEPLOT
 70
     0
102
SHADEPLOTRESLEVEL
 70
     2
102
SHADEPLOTCUSTOMDPI
 70
   300
  0
XRECORD
  5
335
102
{ACAD_REACTORS
330
334
102
}
330
334
100
AcDbXrecord
280
     1
102
SHADEPLOT
 70
     0
102
SHADEPLOTRESLEVEL
 70
     2
102
SHADEPLOTCUSTOMDPI
 70
   300
  0
XRECORD
  5
331
102
{ACAD_REACTORS
330
330
102
}
330
330
100
AcDbXrecord
280
     1
102
SHADEPLOT
 70
     0
102
SHADEPLOTRESLEVEL
 70
     2
102
SHADEPLOTCUSTOMDPI
 70
   300
  0
ENDSEC
  0
EOF
