  0
SECTION
  2
HEADER
  9
$ACADVER
  1
AC1015
  9
$ACADMAINTVER
 70
    20
  9
$DWGCODEPAGE
  3
ANSI_1252
  9
$INSBASE
 10
0.0
 20
0.0
 30
0.0
  9
$EXTMIN
 10
-59.53123362543698
 20
23.47387916127079
 30
-0.0015258207003583
  9
$EXTMAX
 10
8.108579691739436
 20
95.11824656523925
 30
0.0000000349246037
  9
$LIMMIN
 10
0.0
 20
0.0
  9
$LIMMAX
 10
12.0
 20
9.0
  9
$ORTHOMODE
 70
     0
  9
$REGENMODE
 70
     1
  9
$FILLMODE
 70
     1
  9
$QTEXTMODE
 70
     0
  9
$MIRRTEXT
 70
     0
  9
$LTSCALE
 40
1.0
  9
$ATTMODE
 70
     1
  9
$TEXTSIZE
 40
0.2
  9
$TRACEWID
 40
0.05
  9
$TEXTSTYLE
  7
Standard
  9
$CLAYER
  8
0
  9
$CELTYPE
  6
ByLayer
  9
$CECOLOR
 62
   256
  9
$CELTSCALE
 40
1.0
  9
$DISPSILH
 70
     0
  9
$DIMSCALE
 40
1.0
  9
$DIMASZ
 40
0.18
  9
$DIMEXO
 40
0.0625
  9
$DIMDLI
 40
0.38
  9
$DIMRND
 40
0.0
  9
$DIMDLE
 40
0.0
  9
$DIMEXE
 40
0.18
  9
$DIMTP
 40
0.0
  9
$DIMTM
 40
0.0
  9
$DIMTXT
 40
0.18
  9
$DIMCEN
 40
0.09
  9
$DIMTSZ
 40
0.0
  9
$DIMTOL
 70
     0
  9
$DIMLIM
 70
     0
  9
$DIMTIH
 70
     1
  9
$DIMTOH
 70
     1
  9
$DIMSE1
 70
     0
  9
$DIMSE2
 70
     0
  9
$DIMTAD
 70
     0
  9
$DIMZIN
 70
     0
  9
$DIMBLK
  1

  9
$DIMASO
 70
     1
  9
$DIMSHO
 70
     1
  9
$DIMPOST
  1

  9
$DIMAPOST
  1

  9
$DIMALT
 70
     0
  9
$DIMALTD
 70
     2
  9
$DIMALTF
 40
25.4
  9
$DIMLFAC
 40
1.0
  9
$DIMTOFL
 70
     0
  9
$DIMTVP
 40
0.0
  9
$DIMTIX
 70
     0
  9
$DIMSOXD
 70
     0
  9
$DIMSAH
 70
     0
  9
$DIMBLK1
  1

  9
$DIMBLK2
  1

  9
$DIMSTYLE
  2
Standard
  9
$DIMCLRD
 70
     0
  9
$DIMCLRE
 70
     0
  9
$DIMCLRT
 70
     0
  9
$DIMTFAC
 40
1.0
  9
$DIMGAP
 40
0.09
  9
$DIMJUST
 70
     0
  9
$DIMSD1
 70
     0
  9
$DIMSD2
 70
     0
  9
$DIMTOLJ
 70
     1
  9
$DIMTZIN
 70
     0
  9
$DIMALTZ
 70
     0
  9
$DIMALTTZ
 70
     0
  9
$DIMUPT
 70
     0
  9
$DIMDEC
 70
     4
  9
$DIMTDEC
 70
     4
  9
$DIMALTU
 70
     2
  9
$DIMALTTD
 70
     2
  9
$DIMTXSTY
  7
Standard
  9
$DIMAUNIT
 70
     0
  9
$DIMADEC
 70
     0
  9
$DIMALTRND
 40
0.0
  9
$DIMAZIN
 70
     0
  9
$DIMDSEP
 70
    46
  9
$DIMATFIT
 70
     3
  9
$DIMFRAC
 70
     0
  9
$DIMLDRBLK
  1

  9
$DIMLUNIT
 70
     2
  9
$DIMLWD
 70
    -2
  9
$DIMLWE
 70
    -2
  9
$DIMTMOVE
 70
     0
  9
$LUNITS
 70
     2
  9
$LUPREC
 70
     4
  9
$SKETCHINC
 40
0.1
  9
$FILLETRAD
 40
0.0
  9
$AUNITS
 70
     0
  9
$AUPREC
 70
     0
  9
$MENU
  1
.
  9
$ELEVATION
 40
0.0
  9
$PELEVATION
 40
0.0
  9
$THICKNESS
 40
0.0
  9
$LIMCHECK
 70
     0
  9
$CHAMFERA
 40
0.0
  9
$CHAMFERB
 40
0.0
  9
$CHAMFERC
 40
0.0
  9
$CHAMFERD
 40
0.0
  9
$SKPOLY
 70
     0
  9
$TDCREATE
 40
2454938.360508912
  9
$TDUCREATE
 40
2454938.610508913
  9
$TDUPDATE
 40
2454938.364756134
  9
$TDUUPDATE
 40
2454938.614756134
  9
$TDINDWG
 40
0.0042479167
  9
$TDUSRTIMER
 40
0.0042479167
  9
$USRTIMER
 70
     1
  9
$ANGBASE
 50
0.0
  9
$ANGDIR
 70
     0
  9
$PDMODE
 70
     0
  9
$PDSIZE
 40
0.0
  9
$PLINEWID
 40
0.0
  9
$SPLFRAME
 70
     0
  9
$SPLINETYPE
 70
     6
  9
$SPLINESEGS
 70
     8
  9
$HANDSEED
  5
2652
  9
$SURFTAB1
 70
     6
  9
$SURFTAB2
 70
     6
  9
$SURFTYPE
 70
     6
  9
$SURFU
 70
     6
  9
$SURFV
 70
     6
  9
$UCSBASE
  2

  9
$UCSNAME
  2

  9
$UCSORG
 10
0.0
 20
0.0
 30
0.0
  9
$UCSXDIR
 10
1.0
 20
0.0
 30
0.0
  9
$UCSYDIR
 10
0.0
 20
1.0
 30
0.0
  9
$UCSORTHOREF
  2

  9
$UCSORTHOVIEW
 70
     0
  9
$UCSORGTOP
 10
0.0
 20
0.0
 30
0.0
  9
$UCSORGBOTTOM
 10
0.0
 20
0.0
 30
0.0
  9
$UCSORGLEFT
 10
0.0
 20
0.0
 30
0.0
  9
$UCSORGRIGHT
 10
0.0
 20
0.0
 30
0.0
  9
$UCSORGFRONT
 10
0.0
 20
0.0
 30
0.0
  9
$UCSORGBACK
 10
0.0
 20
0.0
 30
0.0
  9
$PUCSBASE
  2

  9
$PUCSNAME
  2

  9
$PUCSORG
 10
0.0
 20
0.0
 30
0.0
  9
$PUCSXDIR
 10
1.0
 20
0.0
 30
0.0
  9
$PUCSYDIR
 10
0.0
 20
1.0
 30
0.0
  9
$PUCSORTHOREF
  2

  9
$PUCSORTHOVIEW
 70
     0
  9
$PUCSORGTOP
 10
0.0
 20
0.0
 30
0.0
  9
$PUCSORGBOTTOM
 10
0.0
 20
0.0
 30
0.0
  9
$PUCSORGLEFT
 10
0.0
 20
0.0
 30
0.0
  9
$PUCSORGRIGHT
 10
0.0
 20
0.0
 30
0.0
  9
$PUCSORGFRONT
 10
0.0
 20
0.0
 30
0.0
  9
$PUCSORGBACK
 10
0.0
 20
0.0
 30
0.0
  9
$USERI1
 70
     0
  9
$USERI2
 70
     0
  9
$USERI3
 70
     0
  9
$USERI4
 70
     0
  9
$USERI5
 70
     0
  9
$USERR1
 40
0.0
  9
$USERR2
 40
0.0
  9
$USERR3
 40
0.0
  9
$USERR4
 40
0.0
  9
$USERR5
 40
0.0
  9
$WORLDVIEW
 70
     1
  9
$SHADEDGE
 70
     3
  9
$SHADEDIF
 70
    70
  9
$TILEMODE
 70
     1
  9
$MAXACTVP
 70
    64
  9
$PINSBASE
 10
0.0
 20
0.0
 30
0.0
  9
$PLIMCHECK
 70
     0
  9
$PEXTMIN
 10
0.0
 20
0.0
 30
0.0
  9
$PEXTMAX
 10
0.0
 20
0.0
 30
0.0
  9
$PLIMMIN
 10
0.0
 20
0.0
  9
$PLIMMAX
 10
12.0
 20
9.0
  9
$UNITMODE
 70
     0
  9
$VISRETAIN
 70
     1
  9
$PLINEGEN
 70
     0
  9
$PSLTSCALE
 70
     1
  9
$TREEDEPTH
 70
  3020
  9
$CMLSTYLE
  2
Standard
  9
$CMLJUST
 70
     0
  9
$CMLSCALE
 40
1.0
  9
$PROXYGRAPHICS
 70
     1
  9
$MEASUREMENT
 70
     0
  9
$CELWEIGHT
370
    -1
  9
$ENDCAPS
280
     0
  9
$JOINSTYLE
280
     0
  9
$LWDISPLAY
290
     0
  9
$INSUNITS
 70
     1
  9
$HYPERLINKBASE
  1

  9
$STYLESHEET
  1

  9
$XEDIT
290
     1
  9
$CEPSNTYPE
380
     0
  9
$PSTYLEMODE
290
     1
  9
$FINGERPRINTGUID
  2
{FDEAD576-A652-11D2-9A35-0060089B3A3F}
  9
$VERSIONGUID
  2
{9E5AF9C0-1B00-46D3-A354-C2FFBB10DF6E}
  9
$EXTNAMES
290
     1
  9
$PSVPSCALE
 40
0.0
  9
$OLESTARTUP
290
     0
  0
ENDSEC
  0
SECTION
  2
CLASSES
  0
CLASS
  1
ACDBDICTIONARYWDFLT
  2
AcDbDictionaryWithDefault
  3
ObjectDBX Classes
 90
        0
280
     0
281
     0
  0
CLASS
  1
ACDBPLACEHOLDER
  2
AcDbPlaceHolder
  3
ObjectDBX Classes
 90
        0
280
     0
281
     0
  0
CLASS
  1
LAYOUT
  2
AcDbLayout
  3
ObjectDBX Classes
 90
        0
280
     0
281
     0
  0
CLASS
  1
DICTIONARYVAR
  2
AcDbDictionaryVar
  3
ObjectDBX Classes
 90
        0
280
     0
281
     0
  0
CLASS
  1
SORTENTSTABLE
  2
AcDbSortentsTable
  3
ObjectDBX Classes
 90
        0
280
     0
281
     0
  0
ENDSEC
  0
SECTION
  2
TABLES
  0
TABLE
  2
VPORT
  5
8
330
0
100
AcDbSymbolTable
 70
    16
  0
VPORT
  5
2648
330
8
100
AcDbSymbolTableRecord
100
AcDbViewportTableRecord
  2
*Active
 70
     0
 10
0.0
 20
0.0
 11
1.0
 21
1.0
 12
-25.71132696684877
 22
59.29606286325501
 13
0.0
 23
0.0
 14
0.5
 24
0.5
 15
0.5
 25
0.5
 16
0.0
 26
0.0
 36
1.0
 17
0.0
 27
0.0
 37
0.0
 40
72.16165525526065
 41
1.48433734939759
 42
50.0
 43
0.0
 44
0.0
 50
0.0
 51
0.0
 71
     0
 72
  1000
 73
     1
 74
     3
 75
     0
 76
     0
 77
     0
 78
     0
281
     0
 65
     1
110
0.0
120
0.0
130
0.0
111
1.0
121
0.0
131
0.0
112
0.0
122
1.0
132
0.0
 79
     0
146
0.0
  0
ENDTAB
  0
TABLE
  2
LTYPE
  5
5
330
0
100
AcDbSymbolTable
 70
     4
  0
LTYPE
  5
14
330
5
100
AcDbSymbolTableRecord
100
AcDbLinetypeTableRecord
  2
ByBlock
 70
     0
  3

 72
    65
 73
     0
 40
0.0
  0
LTYPE
  5
15
330
5
100
AcDbSymbolTableRecord
100
AcDbLinetypeTableRecord
  2
ByLayer
 70
     0
  3

 72
    65
 73
     0
 40
0.0
  0
LTYPE
  5
16
330
5
100
AcDbSymbolTableRecord
100
AcDbLinetypeTableRecord
  2
Continuous
 70
     0
  3
Solid line
 72
    65
 73
     0
 40
0.0
  0
LTYPE
  5
96
330
5
100
AcDbSymbolTableRecord
100
AcDbLinetypeTableRecord
  2
DASHED2
 70
     0
  3
_ _ _ _ _ _ _ _ _ _ _ _ _ _ _ _ _ _ _ _ _ _ _ _
 72
    65
 73
     2
 40
0.375
 49
0.25
 74
     0
 49
-0.125
 74
     0
  0
LTYPE
  5
97
330
5
100
AcDbSymbolTableRecord
100
AcDbLinetypeTableRecord
  2
HIDDEN
 70
     0
  3
Hidden __ __ __ __ __ __ __ __ __ __ __ __ __ _
 72
    65
 73
     2
 40
0.375
 49
0.25
 74
     0
 49
-0.125
 74
     0
  0
LTYPE
  5
865
330
5
100
AcDbSymbolTableRecord
100
AcDbLinetypeTableRecord
  2
CENTER
 70
     0
  3
Center ____ _ ____ _ ____ _ ____ _ ____ _ ____
 72
    65
 73
     4
 40
2.0
 49
1.25
 74
     0
 49
-0.25
 74
     0
 49
0.25
 74
     0
 49
-0.25
 74
     0
  0
ENDTAB
  0
TABLE
  2
LAYER
  5
2
102
{ACAD_XDICTIONARY
360
A4
102
}
330
0
100
AcDbSymbolTable
 70
     9
  0
LAYER
  5
10
330
2
100
AcDbSymbolTableRecord
100
AcDbLayerTableRecord
  2
0
 70
     0
 62
     7
  6
Continuous
370
    -3
390
F
  0
LAYER
  5
98
330
2
100
AcDbSymbolTableRecord
100
AcDbLayerTableRecord
  2
DIM
 70
     0
 62
     3
  6
Continuous
370
    13
390
F
  0
LAYER
  5
99
330
2
100
AcDbSymbolTableRecord
100
AcDbLayerTableRecord
  2
Defpoints
 70
     0
 62
   252
  6
Continuous
290
     0
370
    -3
390
F
  0
LAYER
  5
9A
330
2
100
AcDbSymbolTableRecord
100
AcDbLayerTableRecord
  2
A2 Hatch
 70
     0
 62
     8
  6
Continuous
370
     9
390
F
  0
LAYER
  5
9B
330
2
100
AcDbSymbolTableRecord
100
AcDbLayerTableRecord
  2
A5 heavy
 70
     0
 62
     5
  6
Continuous
370
    53
390
F
  0
LAYER
  5
9C
330
2
100
AcDbSymbolTableRecord
100
AcDbLayerTableRecord
  2
DETAILS
 70
     0
 62
     7
  6
Continuous
370
    13
390
F
  0
LAYER
  5
866
330
2
100
AcDbSymbolTableRecord
100
AcDbLayerTableRecord
  2
A1 fine
 70
     0
 62
   251
  6
Continuous
370
     5
390
F
  0
LAYER
  5
867
330
2
100
AcDbSymbolTableRecord
100
AcDbLayerTableRecord
  2
A4 medium
 70
     0
 62
     7
  6
Continuous
370
    35
390
F
  0
LAYER
  5
868
330
2
100
AcDbSymbolTableRecord
100
AcDbLayerTableRecord
  2
REBAR
 70
     0
 62
     2
  6
CENTER
370
    30
390
F
  0
ENDTAB
  0
TABLE
  2
STYLE
  5
3
330
0
100
AcDbSymbolTable
 70
     4
  0
STYLE
  5
11
330
3
100
AcDbSymbolTableRecord
100
AcDbTextStyleTableRecord
  2
Standard
 70
     0
 40
0.0
 41
1.0
 50
0.0
 71
     0
 42
0.2
  3
txt
  4

  0
STYLE
  5
9D
330
3
100
AcDbSymbolTableRecord
100
AcDbTextStyleTableRecord
  2
ARCHITXT
 70
     0
 40
0.0
 41
1.25
 50
0.0
 71
     0
 42
1.0
  3
ARCHITXT.shx
  4

  0
STYLE
  5
9E
330
3
100
AcDbSymbolTableRecord
100
AcDbTextStyleTableRecord
  2
ARCTEXT
 70
     0
 40
0.0
 41
0.85
 50
0.0
 71
     0
 42
5.096770384644268
  3
arctext.shx
  4

  0
STYLE
  5
9F
330
3
100
AcDbSymbolTableRecord
100
AcDbTextStyleTableRecord
  2
RomanC
 70
     0
 40
5.0
 41
0.85
 50
0.0
 71
     0
 42
10.0
  3
romanc.shx
  4

  0
ENDTAB
  0
TABLE
  2
VIEW
  5
6
330
0
100
AcDbSymbolTable
 70
     0
  0
ENDTAB
  0
TABLE
  2
UCS
  5
7
330
0
100
AcDbSymbolTable
 70
     0
  0
ENDTAB
  0
TABLE
  2
APPID
  5
9
330
0
100
AcDbSymbolTable
 70
     1
  0
APPID
  5
12
330
9
100
AcDbSymbolTableRecord
100
AcDbRegAppTableRecord
  2
ACAD
 70
     0
  0
ENDTAB
  0
TABLE
  2
DIMSTYLE
  5
A
330
0
100
AcDbSymbolTable
 70
     5
100
AcDbDimStyleTable
 71
     0
  0
DIMSTYLE
105
27
330
A
100
AcDbSymbolTableRecord
100
AcDbDimStyleTableRecord
  2
Standard
 70
     0
340
11
  0
DIMSTYLE
105
A0
330
A
100
AcDbSymbolTableRecord
100
AcDbDimStyleTableRecord
  2
Copy of ROMANS
 70
     0
 41
0.75
 42
0.125
 43
0.125
 44
0.125
 73
     0
 74
     0
 77
     1
 78
     3
140
1.0
141
6.0
147
0.25
172
     1
175
     1
176
     2
177
     2
178
     2
271
     3
272
     3
273
     4
275
     1
277
     4
279
     2
284
     3
285
     3
286
     3
340
9D
  0
DIMSTYLE
105
A1
330
A
100
AcDbSymbolTableRecord
100
AcDbDimStyleTableRecord
  2
ARCTEXT
 70
     0
 40
0.0
 41
2.0
 42
1.0
 43
0.375
 44
0.1875
 73
     0
 74
     0
140
4.0
141
2.0
147
2.0
176
     2
177
     2
178
     2
277
     4
340
9E
341
8D
342
89
  0
DIMSTYLE
105
A2
330
A
100
AcDbSymbolTableRecord
100
AcDbDimStyleTableRecord
  2
ARCTEXT1-4
 70
     0
 41
2.0
 42
2.0
 43
2.0
 44
2.0
 73
     0
 74
     0
 77
     1
 78
     3
140
4.0
141
2.0
147
2.0
172
     1
175
     1
275
     1
277
     4
279
     2
340
9E
341
8D
342
89
  0
DIMSTYLE
105
A3
330
A
100
AcDbSymbolTableRecord
100
AcDbDimStyleTableRecord
  2
ARCTEXT 1-1
 70
     0
 40
0.0
 41
1.0
 42
1.0
 43
0.375
 44
0.1875
 73
     0
 74
     0
 77
     1
 78
     3
140
1.0
141
1.0
147
0.5
176
   256
177
   256
178
   256
277
     4
279
     2
340
9E
341
8D
342
89
  0
ENDTAB
  0
TABLE
  2
BLOCK_RECORD
  5
1
330
0
100
AcDbSymbolTable
 70
    13
  0
BLOCK_RECORD
  5
1F
330
1
100
AcDbSymbolTableRecord
100
AcDbBlockTableRecord
  2
*Model_Space
340
22
  0
BLOCK_RECORD
  5
58
330
1
100
AcDbSymbolTableRecord
100
AcDbBlockTableRecord
  2
*Paper_Space
340
59
  0
BLOCK_RECORD
  5
5D
330
1
100
AcDbSymbolTableRecord
100
AcDbBlockTableRecord
  2
*Paper_Space0
340
5E
  0
BLOCK_RECORD
  5
89
330
1
100
AcDbSymbolTableRecord
100
AcDbBlockTableRecord
  2
_ArchTick
340
0
102
{BLKREFS
331
85E
331
85F
331
1060
331
1061
102
}
  0
BLOCK_RECORD
  5
8D
330
1
100
AcDbSymbolTableRecord
100
AcDbBlockTableRecord
  2
arrow
340
0
310
2800000020000000200000000100080000000000000400000000000000000000000000000000000000000000000080000080000000808000800000008000800080800000C0C0C000C0DCC000F0CAA6000020400000206000002080000020A0000020C0000020E00000400000004020000040400000406000004080000040A0
310
000040C0000040E00000600000006020000060400000606000006080000060A0000060C0000060E00000800000008020000080400000806000008080000080A0000080C0000080E00000A0000000A0200000A0400000A0600000A0800000A0A00000A0C00000A0E00000C0000000C0200000C0400000C0600000C0800000C0
310
A00000C0C00000C0E00000E0000000E0200000E0400000E0600000E0800000E0A00000E0C00000E0E00040000000400020004000400040006000400080004000A0004000C0004000E00040200000402020004020400040206000402080004020A0004020C0004020E000404000004040200040404000404060004040800040
310
40A0004040C0004040E00040600000406020004060400040606000406080004060A0004060C0004060E00040800000408020004080400040806000408080004080A0004080C0004080E00040A0000040A0200040A0400040A0600040A0800040A0A00040A0C00040A0E00040C0000040C0200040C0400040C0600040C08000
310
40C0A00040C0C00040C0E00040E0000040E0200040E0400040E0600040E0800040E0A00040E0C00040E0E00080000000800020008000400080006000800080008000A0008000C0008000E00080200000802020008020400080206000802080008020A0008020C0008020E00080400000804020008040400080406000804080
310
008040A0008040C0008040E00080600000806020008060400080606000806080008060A0008060C0008060E00080800000808020008080400080806000808080008080A0008080C0008080E00080A0000080A0200080A0400080A0600080A0800080A0A00080A0C00080A0E00080C0000080C0200080C0400080C0600080C0
310
800080C0A00080C0C00080C0E00080E0000080E0200080E0400080E0600080E0800080E0A00080E0C00080E0E000C0000000C0002000C0004000C0006000C0008000C000A000C000C000C000E000C0200000C0202000C0204000C0206000C0208000C020A000C020C000C020E000C0400000C0402000C0404000C0406000C0
310
408000C040A000C040C000C040E000C0600000C0602000C0604000C0606000C0608000C060A000C060C000C060E000C0800000C0802000C0804000C0806000C0808000C080A000C080C000C080E000C0A00000C0A02000C0A04000C0A06000C0A08000C0A0A000C0A0C000C0A0E000C0C00000C0C02000C0C04000C0C06000
310
C0C08000C0C0A000F0FBFF00A4A0A000808080000000FF0000FF000000FFFF00FF000000FF00FF00FFFF0000FFFFFF0000000000000000000000000000000000000000000000000000000000000000000000000000000000000000000000000000000000000000000000000000000000000000000000000000000000000000
310
0000000000000000000000000000000000000000000000000000000000000000000000000000000000000000000000000000000000000000000000000000000000000000000000000000000000000000000000000000000000000000000000000000000000000000000000000000000000000000000000FA00000000000000
310
000000000000000000000000000000000000000000000000FA00000000000000000000000000000000000000000000000000000000000000FA0000000000000000000000000000000000000000000000000000FAFA000000FA00000000000000000000000000000000000000000000000000000000FAFA00FA000000000000
310
000000000000000000000000000000000000000000000000FAF7F7000000000000000000000000000000000000000000000000000000000000F7F7F7F7F7F70000000000000000000000000000000000000000000000000000F7F7F7F7F7F7F7F7F7F700000000000000000000000000000000000000000000F7F7F7F7F7F7
310
F7F7F7F7F7F7F7F7000000000000000000000000000000000000F7F7F7F7F7F7F7F7F7F7F7F7F7F7F7F7F7F70000000000FAFA00000000000000F7F7F7F7F7F7F7F7F7F7F7F7F7F7F7F7F7F7F7F7F7FAFAFAFA00000000000000F7F7F7F7F7F7F7F7F7F7F7F7F7F7F7F7F7F70000000000000000000000000000F7F7F7F7F7
310
F7F7F7F7F7F7F7F700000000000000000000000000000000000000F7F7F7F7F7F7F7F70000000000000000000000000000000000000000000000FAF7F7F70000000000000000000000000000000000000000000000000000FAFA00FA0000000000000000000000000000000000000000000000000000FAFA000000FA000000
310
00000000000000000000000000000000000000000000000000000000FA00000000000000000000000000000000000000000000000000000000000000FA00000000000000000000000000000000000000000000000000000000000000FA00000000000000000000000000000000000000000000000000000000000000000000
310
00000000000000000000000000000000000000000000000000000000000000000000000000000000000000000000000000000000000000000000000000000000000000000000000000000000000000000000000000000000000000000000000000000000000000000000000000000000000000000000000000000000000000
310
0000000000000000000000000000000000000000000000000000000000000000000000000000000000000000000000000000000000000000
1001
ACAD
1000
DesignCenter Data
1002
{
1070
     1
1070
     1
1002
}
  0
BLOCK_RECORD
  5
859
330
1
100
AcDbSymbolTableRecord
100
AcDbBlockTableRecord
  2
*D6
340
0
  0
BLOCK_RECORD
  5
1051
330
1
100
AcDbSymbolTableRecord
100
AcDbBlockTableRecord
  2
*D8
340
0
  0
ENDTAB
  0
ENDSEC
  0
SECTION
  2
BLOCKS
  0
BLOCK
  5
20
330
1F
100
AcDbEntity
  8
0
100
AcDbBlockBegin
  2
*Model_Space
 70
     0
 10
0.0
 20
0.0
 30
0.0
  3
*Model_Space
  1

  0
ENDBLK
  5
21
330
1F
100
AcDbEntity
  8
0
100
AcDbBlockEnd
  0
BLOCK
  5
5A
330
58
100
AcDbEntity
 67
     1
  8
0
100
AcDbBlockBegin
  2
*Paper_Space
 70
     0
 10
0.0
 20
0.0
 30
0.0
  3
*Paper_Space
  1

  0
ENDBLK
  5
5B
330
58
100
AcDbEntity
 67
     1
  8
0
100
AcDbBlockEnd
  0
BLOCK
  5
5F
330
5D
100
AcDbEntity
  8
0
100
AcDbBlockBegin
  2
*Paper_Space0
 70
     0
 10
0.0
 20
0.0
 30
0.0
  3
*Paper_Space0
  1

  0
ENDBLK
  5
60
330
5D
100
AcDbEntity
  8
0
100
AcDbBlockEnd
  0
BLOCK
  5
8A
330
89
100
AcDbEntity
  8
0
100
AcDbBlockBegin
  2
_ArchTick
 70
     0
 10
0.0
 20
0.0
 30
0.0
  3
_ArchTick
  1

  0
LWPOLYLINE
  5
8B
330
89
100
AcDbEntity
  8
0
  6
ByBlock
 62
     0
100
AcDbPolyline
 90
        2
 70
     0
 43
0.15
 10
-0.5
 20
-0.5
 10
0.5
 20
0.5
  0
ENDBLK
  5
8C
330
89
100
AcDbEntity
  8
0
100
AcDbBlockEnd
  0
BLOCK
  5
8E
330
8D
100
AcDbEntity
  8
0
100
AcDbBlockBegin
  2
arrow
 70
     0
 10
0.0
 20
0.0
 30
0.0
  3
arrow
  1

  0
HATCH
  5
8F
330
8D
100
AcDbEntity
  8
DIM
 62
   253
100
AcDbHatch
 10
0.0
 20
0.0
 30
0.0
210
0.0
220
0.0
230
1.0
  2
SOLID
 70
     1
 71
     0
 91
        1
 92
        7
 72
     0
 73
     1
 93
        3
 10
-2.0
 20
0.5
 10
-2.0
 20
-0.5
 10
0.0
 20
0.0
 97
        0
 75
     0
 76
     1
 47
0.0337394080685346
 98
        1
 10
-1.103351122172171
 20
0.05064816270351
  0
LWPOLYLINE
  5
90
330
8D
100
AcDbEntity
  8
DIM
370
    15
100
AcDbPolyline
 90
        4
 70
     0
 43
0.0
 10
0.0
 20
0.0
 10
-2.0
 20
-0.5
 10
-2.0
 20
0.5
 10
0.0
 20
0.0
  0
LWPOLYLINE
  5
91
330
8D
100
AcDbEntity
  8
DIM
370
     9
100
AcDbPolyline
 90
        2
 70
     0
 43
0.0
 10
0.3742552490839444
 20
0.0935638122700766
 10
0.0
 20
0.0
  0
LWPOLYLINE
  5
92
330
8D
100
AcDbEntity
  8
DIM
370
     9
100
AcDbPolyline
 90
        3
 70
     0
 43
0.0
 10
-2.0
 20
-0.9831764405007561
 10
-2.0
 20
-0.5
 10
-2.46875
 20
-0.6171875
  0
LWPOLYLINE
  5
93
330
8D
100
AcDbEntity
  8
DIM
370
     9
100
AcDbPolyline
 90
        3
 70
     0
 43
0.0
 10
-2.0
 20
0.9831764405007561
 10
-2.0
 20
0.5
 10
-2.46875
 20
0.6171875
  0
LWPOLYLINE
  5
94
330
8D
100
AcDbEntity
  8
DIM
370
     9
100
AcDbPolyline
 90
        2
 70
     0
 43
0.0
 10
0.3742552490839444
 20
-0.0935638122700766
 10
0.0
 20
0.0
  0
ENDBLK
  5
95
330
8D
100
AcDbEntity
  8
0
100
AcDbBlockEnd
  0
BLOCK
  5
85A
330
859
100
AcDbEntity
  8
0
 48
0.15
100
AcDbBlockBegin
  2
*D6
 70
     1
 10
0.0
 20
0.0
 30
0.0
  3
*D6
  1

  0
LINE
  5
85B
330
859
100
AcDbEntity
  8
DIM
 48
0.15
370
    -2
100
AcDbLine
 10
7258.804787169045
 20
-3362.37866615228
 30
0.0
 11
7244.452332516266
 21
-3362.37866615228
 31
0.0
  0
LINE
  5
85C
330
859
100
AcDbEntity
  8
DIM
 48
0.15
370
    -2
100
AcDbLine
 10
7259.321078680835
 20
-3366.510840404795
 30
0.0
 11
7244.452332516266
 21
-3366.510840404795
 31
0.0
  0
LINE
  5
85D
330
859
100
AcDbEntity
  8
DIM
 48
0.15
370
    -2
100
AcDbLine
 10
7244.639832516266
 20
-3362.37866615228
 30
0.0
 11
7244.639832516266
 21
-3366.510840404795
 31
0.0
  0
INSERT
  5
85E
330
859
100
AcDbEntity
  8
DIM
 48
0.15
370
    -2
100
AcDbBlockReference
  2
_ArchTick
 10
7244.639832516266
 20
-3362.37866615228
 30
0.0
 50
90.0
  0
INSERT
  5
85F
330
859
100
AcDbEntity
  8
DIM
 48
0.15
370
    -2
100
AcDbBlockReference
  2
_ArchTick
 10
7244.639832516266
 20
-3366.510840404795
 30
0.0
 50
270.0
  0
MTEXT
  5
860
330
859
100
AcDbEntity
  8
DIM
 48
0.15
100
AcDbMText
 10
7243.639832516267
 20
-3364.444753278536
 30
0.0
 40
1.0
 41
0.0
 71
     5
 72
     1
  1
\A1;.
  7
ARCTEXT
 11
0.0000000000000001
 21
1.0
 31
0.0
 73
     1
 44
1.0
1001
ACAD
1000
MTEXTBEGIN
1070
    73
1070
     1
1070
    44
1040
1.0
1070
    74
1070
     0
1000
MTEXTEND
  0
POINT
  5
861
330
859
100
AcDbEntity
  8
Defpoints
 62
     0
 48
0.15
100
AcDbPoint
 10
7259.804787169044
 20
-3362.37866615228
 30
0.0
  0
POINT
  5
862
330
859
100
AcDbEntity
  8
Defpoints
 62
     0
 48
0.15
100
AcDbPoint
 10
7260.321078680835
 20
-3366.510840404795
 30
0.0
  0
POINT
  5
863
330
859
100
AcDbEntity
  8
Defpoints
 62
     0
 48
0.15
100
AcDbPoint
 10
7244.639832516266
 20
-3366.510840404795
 30
0.0
  0
ENDBLK
  5
864
330
859
100
AcDbEntity
  8
0
 48
0.15
100
AcDbBlockEnd
  0
BLOCK
  5
105B
330
1051
100
AcDbEntity
  8
0
100
AcDbBlockBegin
  2
*D8
 70
     1
 10
0.0
 20
0.0
 30
0.0
  3
*D8
  1

  0
LINE
  5
105D
330
1051
100
AcDbEntity
  8
DIM
370
    -2
100
AcDbLine
 10
-6.349451024049841
 20
70.30828673096635
 30
0.0
 11
-20.70190567682769
 21
70.30828673096635
 31
0.0
  0
LINE
  5
105E
330
1051
100
AcDbEntity
  8
DIM
370
    -2
100
AcDbLine
 10
-5.833159512259072
 20
66.17611247845076
 30
0.0
 11
-20.70190567682769
 21
66.17611247845076
 31
0.0
  0
LINE
  5
105F
330
1051
100
AcDbEntity
  8
DIM
370
    -2
100
AcDbLine
 10
-20.51440567682769
 20
70.30828673096635
 30
0.0
 11
-20.51440567682769
 21
66.17611247845076
 31
0.0
  0
INSERT
  5
1060
330
1051
100
AcDbEntity
  8
DIM
370
    -2
100
AcDbBlockReference
  2
_ArchTick
 10
-20.51440567682769
 20
70.30828673096635
 30
0.0
 50
90.0
  0
INSERT
  5
1061
330
1051
100
AcDbEntity
  8
DIM
370
    -2
100
AcDbBlockReference
  2
_ArchTick
 10
-20.51440567682769
 20
66.17611247845076
 30
0.0
 50
270.0
  0
MTEXT
  5
1062
330
1051
100
AcDbEntity
  8
DIM
100
AcDbMText
 10
-21.51440567682771
 20
68.24219960470855
 30
0.0
 40
1.0
 41
0.0
 71
     5
 72
     1
  1
\A1;.
  7
ARCTEXT
 11
0.0000000000000001
 21
1.0
 31
0.0
 73
     1
 44
1.0
1001
ACAD
1000
MTEXTBEGIN
1070
    73
1070
     1
1070
    44
1040
1.0
1070
    74
1070
     0
1000
MTEXTEND
  0
POINT
  5
1063
330
1051
100
AcDbEntity
  8
Defpoints
 62
     0
100
AcDbPoint
 10
-5.349451024049841
 20
70.30828673096635
 30
0.0
  0
POINT
  5
1064
330
1051
100
AcDbEntity
  8
Defpoints
 62
     0
100
AcDbPoint
 10
-4.833159512259072
 20
66.17611247845076
 30
0.0
  0
POINT
  5
1065
330
1051
100
AcDbEntity
  8
Defpoints
 62
     0
100
AcDbPoint
 10
-20.51440567682769
 20
66.17611247845076
 30
0.0
  0
ENDBLK
  5
105C
330
1051
100
AcDbEntity
  8
0
100
AcDbBlockEnd
  0
ENDSEC
  0
SECTION
  2
ENTITIES
  0
MTEXT
  5
239A
330
1F
100
AcDbEntity
  8
Defpoints
100
AcDbMText
 10
-56.4339331465635
 20
27.07705848215752
 30
0.0
 40
3.0
 41
90.07999999999999
 71
     2
 72
     5
  1
{\L120\P}\P            
  7
RomanC
 73
     1
 44
1.0
1001
ACAD
1000
MTEXTBEGIN
1070
    73
1070
     1
1070
    44
1040
1.0
1070
    74
1070
     0
1000
MTEXTEND
  0
MTEXT
  5
239B
330
1F
100
AcDbEntity
  8
DIM
100
AcDbMText
 10
-19.33709147800437
 20
36.75590319056252
 30
0.0
 40
3.0
 41
71.41649521821006
 71
     2
 72
     5
  1
{\L6" WALL W/ RECESSED ON V-BUCK}\P               
  7
RomanC
 73
     1
 44
1.0
1001
ACAD
1000
MTEXTBEGIN
1070
    73
1070
     1
1070
    44
1040
1.0
1070
    74
1070
     0
1000
MTEXTEND
  0
LINE
  5
239C
330
1F
100
AcDbEntity
  8
0
 62
     1
100
AcDbLine
 10
-37.70853053557494
 20
68.05032773078981
 30
0.0
 11
-32.25853053557603
 21
68.05031576029247
 31
0.0
  0
LINE
  5
239D
330
1F
100
AcDbEntity
  8
0
 62
     1
100
AcDbLine
 10
-28.25853053557512
 20
68.05031576029247
 30
0.0
 11
-26.25853053557512
 21
68.05031576029247
 31
0.0
  0
LINE
  5
239E
330
1F
100
AcDbEntity
  8
A5 heavy
 48
0.15
100
AcDbLine
 10
-32.25853053557512
 20
68.05031576029247
 30
0.0
 11
-28.25853053557512
 21
68.05031576029247
 31
0.0
  0
LWPOLYLINE
  5
239F
330
1F
100
AcDbEntity
  8
0
 48
0.15
100
AcDbPolyline
 90
        4
 70
     1
 43
0.0
 10
-33.75853053557512
 20
66.55031576029248
 10
-33.75853053557512
 20
65.05031576029248
 10
-26.13353053557603
 20
65.05031576029248
 10
-26.13353053557603
 20
66.55031576029248
  0
LINE
  5
23A0
330
1F
100
AcDbEntity
  8
A2 Hatch
 48
0.15
100
AcDbLine
 10
-26.13353053557603
 20
66.55031576029248
 30
0.0
 11
-33.75853053557512
 21
65.05031576029248
 31
0.0
  0
LINE
  5
23A1
330
1F
100
AcDbEntity
  8
A2 Hatch
 48
0.15
100
AcDbLine
 10
-26.13353053557603
 20
65.05031576029248
 30
0.0
 11
-33.75853053557512
 21
66.55031576029248
 31
0.0
  0
LINE
  5
23A2
330
1F
100
AcDbEntity
  8
0
 48
0.15
100
AcDbLine
 10
-25.75853053557421
 20
94.00315000069666
 30
0.0
 11
-25.75853053557512
 21
64.55031576029248
 31
0.0
  0
LINE
  5
23A3
330
1F
100
AcDbEntity
  8
DIM
100
AcDbLine
 10
-22.44287046825229
 20
95.11774739724339
 30
0.0
 11
-31.29747414976373
 21
92.14117018170369
 31
0.0
  0
LINE
  5
23A4
330
1F
100
AcDbEntity
  8
DIM
100
AcDbLine
 10
-30.59544188716245
 20
90.07114946824637
 30
0.0
 11
-31.29747414976282
 21
92.14117018170369
 31
0.0
  0
LINE
  5
23A5
330
1F
100
AcDbEntity
  8
DIM
100
AcDbLine
 10
-34.04258744544677
 20
93.51829502653115
 30
0.0
 11
-33.3405551828464
 21
91.44827431307428
 31
0.0
  0
LINE
  5
23A6
330
1F
100
AcDbEntity
  8
DIM
100
AcDbLine
 10
-33.3405551828464
 20
91.44827431307428
 30
0.0
 11
-41.11557832535072
 21
88.95075427930484
 31
0.0
  0
LINE
  5
23A7
330
1F
100
AcDbEntity
  8
DIM
100
AcDbLine
 10
-30.59544188716245
 20
90.07114946824637
 30
0.0
 11
-34.04258744544677
 21
93.51829502653115
 31
0.0
  0
LINE
  5
23A8
330
1F
100
AcDbEntity
  8
0
 48
0.15
100
AcDbLine
 10
-33.75853053557512
 20
66.28072213371112
 30
0.0
 11
-33.75853053557512
 21
65.05031576029248
 31
0.0
  0
LINE
  5
23A9
330
1F
100
AcDbEntity
  8
0
 48
0.15
100
AcDbLine
 10
-34.25853053557603
 20
66.05031576029384
 30
0.0
 11
-34.25853053557512
 21
64.30031576029247
 31
0.0
  0
LINE
  5
23AA
330
1F
100
AcDbEntity
  8
0
 48
0.15
100
AcDbLine
 10
-34.25853053557512
 20
64.30031576029247
 30
0.0
 11
-34.13353053557512
 21
64.30031576029247
 31
0.0
  0
LINE
  5
23AB
330
1F
100
AcDbEntity
  8
0
 48
0.15
100
AcDbLine
 10
-34.13353053557512
 20
64.30031576029247
 30
0.0
 11
-34.13353053557512
 21
62.30031576029247
 31
0.0
  0
LINE
  5
23AC
330
1F
100
AcDbEntity
  8
0
 48
0.15
100
AcDbLine
 10
-34.13353053557512
 20
62.30031576029247
 30
0.0
 11
-34.25853053557512
 21
62.30031576029247
 31
0.0
  0
LINE
  5
23AD
330
1F
100
AcDbEntity
  8
0
 48
0.15
100
AcDbLine
 10
-34.25853053557512
 20
62.30031576029247
 30
0.0
 11
-34.25853053557512
 21
62.05031576029248
 31
0.0
  0
LINE
  5
23AE
330
1F
100
AcDbEntity
  8
0
 48
0.15
100
AcDbLine
 10
-34.25853053557512
 20
62.05031576029248
 30
0.0
 11
-33.82380176200058
 21
61.61558698671749
 31
0.0
  0
LINE
  5
23AF
330
1F
100
AcDbEntity
  8
0
 48
0.15
100
AcDbLine
 10
-33.82380176200058
 20
61.61558698671749
 30
0.0
 11
-33.26787458158378
 21
61.61558698671749
 31
0.0
  0
LINE
  5
23B0
330
1F
100
AcDbEntity
  8
0
 48
0.15
100
AcDbLine
 10
-31.38907298842605
 20
62.05031576029248
 30
0.0
 11
-31.82380176200059
 21
61.61558698671749
 31
0.0
  0
LINE
  5
23B1
330
1F
100
AcDbEntity
  8
0
 48
0.15
100
AcDbLine
 10
-31.38907298842605
 20
62.05031576029248
 30
0.0
 11
-31.38907298842605
 21
63.49998058569096
 31
0.0
  0
LINE
  5
23B2
330
1F
100
AcDbEntity
  8
0
 48
0.15
100
AcDbLine
 10
-31.38907298842605
 20
63.49998058569096
 30
0.0
 11
-30.88907298842605
 21
63.49998058569096
 31
0.0
  0
LINE
  5
23B3
330
1F
100
AcDbEntity
  8
0
 48
0.15
100
AcDbLine
 10
-30.88907298842605
 20
63.49998058569096
 30
0.0
 11
-30.88907298842605
 21
65.05031576029248
 31
0.0
  0
LINE
  5
23B4
330
1F
100
AcDbEntity
  8
0
 48
0.15
100
AcDbLine
 10
-33.26787458158288
 20
62.47609137840979
 30
0.0
 11
-33.26787458158288
 21
53.3489832997088
 31
0.0
  0
LINE
  5
23B5
330
1F
100
AcDbEntity
  8
0
 48
0.15
100
AcDbLine
 10
-33.14287458158287
 20
62.47609137840979
 30
0.0
 11
-33.14287458158287
 21
53.3489832997088
 31
0.0
  0
LINE
  5
23B6
330
1F
100
AcDbEntity
  8
0
 48
0.15
100
AcDbLine
 10
-33.14287458158287
 20
62.47609137840979
 30
0.0
 11
-33.26787458158288
 21
62.47609137840979
 31
0.0
  0
LINE
  5
23B7
330
1F
100
AcDbEntity
  8
0
 48
0.15
100
AcDbLine
 10
-32.53794162394115
 20
62.47609137840979
 30
0.0
 11
-32.53794162394115
 21
53.3489832997088
 31
0.0
  0
LINE
  5
23B8
330
1F
100
AcDbEntity
  8
0
 48
0.15
100
AcDbLine
 10
-32.41294162394115
 20
62.47609137840979
 30
0.0
 11
-32.41294162394115
 21
53.3489832997088
 31
0.0
  0
LINE
  5
23B9
330
1F
100
AcDbEntity
  8
0
 48
0.15
100
AcDbLine
 10
-32.41294162394115
 20
62.47609137840979
 30
0.0
 11
-32.53794162394115
 21
62.47609137840979
 31
0.0
  0
LINE
  5
23BA
330
1F
100
AcDbEntity
  8
0
 48
0.15
100
AcDbLine
 10
-33.14287458158196
 20
61.61558698671749
 30
0.0
 11
-32.53794162394115
 21
61.61558698671749
 31
0.0
  0
LINE
  5
23BB
330
1F
100
AcDbEntity
  8
0
 48
0.15
100
AcDbLine
 10
-32.41294162394115
 20
61.61558698671749
 30
0.0
 11
-31.82380176200059
 21
61.61558698671749
 31
0.0
  0
LINE
  5
23BC
330
1F
100
AcDbEntity
  8
0
 48
0.15
100
AcDbLine
 10
-32.17765568054529
 20
62.31456911334451
 30
0.0
 11
-32.41294162394115
 21
62.31456911334451
 31
0.0
  0
LINE
  5
23BD
330
1F
100
AcDbEntity
  8
0
 48
0.15
100
AcDbLine
 10
-33.51532042469989
 20
62.31456911334451
 30
0.0
 11
-33.51532042469989
 21
62.79666351324474
 31
0.0
  0
LINE
  5
23BE
330
1F
100
AcDbEntity
  8
0
 48
0.15
100
AcDbLine
 10
-33.51532042469989
 20
62.79666351324474
 30
0.0
 11
-33.36914015584262
 21
62.79666351324474
 31
0.0
  0
LINE
  5
23BF
330
1F
100
AcDbEntity
  8
0
 48
0.15
100
AcDbLine
 10
-32.17765568054529
 20
62.31456911334451
 30
0.0
 11
-32.17765568054529
 21
62.79666351324474
 31
0.0
  0
LINE
  5
23C0
330
1F
100
AcDbEntity
  8
0
 48
0.15
100
AcDbLine
 10
-32.17765568054529
 20
62.79666351324474
 30
0.0
 11
-32.32383594940257
 21
62.79666351324474
 31
0.0
  0
ARC
  5
23C1
330
1F
100
AcDbEntity
  8
0
 48
0.15
100
AcDbCircle
 10
-32.84648805262259
 20
62.27401141002471
 30
0.0
 40
0.7391416927765827
100
AcDbArc
 50
45.0
 51
135.0
  0
LINE
  5
23C2
330
1F
100
AcDbEntity
  8
0
 48
0.15
100
AcDbLine
 10
-33.26787458158378
 20
62.31456911334451
 30
0.0
 11
-33.51532042469989
 21
62.31456911334451
 31
0.0
  0
LINE
  5
23C3
330
1F
100
AcDbEntity
  8
0
 48
0.15
100
AcDbLine
 10
-32.53794162394115
 20
62.31456911334451
 30
0.0
 11
-33.14287458158196
 21
62.31456911334451
 31
0.0
  0
LINE
  5
23C4
330
1F
100
AcDbEntity
  8
0
 48
0.15
100
AcDbLine
 10
-25.75853053557512
 20
64.55031576029248
 30
0.0
 11
-28.88907298842605
 21
64.55031576029248
 31
0.0
  0
LINE
  5
23C5
330
1F
100
AcDbEntity
  8
A5 heavy
 48
0.15
100
AcDbLine
 10
-34.25853053557694
 20
65.41551894700202
 30
0.0
 11
-34.25853053557694
 21
65.91551894700202
 31
0.0
  0
LINE
  5
23C6
330
1F
100
AcDbEntity
  8
A5 heavy
 48
0.15
100
AcDbLine
 10
-34.25853053557694
 20
65.66551894700203
 30
0.0
 11
-32.59708790516015
 21
65.66551894700157
 31
0.0
  0
MTEXT
  5
23C7
330
1F
100
AcDbEntity
  8
DIM
 62
     3
100
AcDbMText
 10
-16.8238570636704
 20
52.91012809602122
 30
0.0
 40
1.0
 41
22.68954545454545
 71
     1
 72
     5
  1
WINDOW BY OTHERS
  7
RomanC
 73
     1
 44
1.0
1001
ACAD
1000
MTEXTBEGIN
1070
    73
1070
     1
1070
    44
1040
1.0
1070
    74
1070
     0
1000
MTEXTEND
  0
MTEXT
  5
23C8
330
1F
100
AcDbEntity
  8
DIM
 62
     3
100
AcDbMText
 10
-16.8238570636704
 20
67.55265564077578
 30
0.0
 40
1.0
 41
22.68954545454545
 71
     1
 72
     5
  1
V-BUCK FORM
  7
RomanC
 73
     1
 44
1.0
1001
ACAD
1000
MTEXTBEGIN
1070
    73
1070
     1
1070
    44
1040
1.0
1070
    74
1070
     0
1000
MTEXTEND
  0
MTEXT
  5
23C9
330
1F
100
AcDbEntity
  8
DIM
 62
     3
100
AcDbMText
 10
-16.8238570636704
 20
78.98052034247754
 30
0.0
 40
1.0
 41
22.68954545454545
 71
     1
 72
     5
  1
INTERIOR GYPSUM WALLBOARD FASTEN TO TIES
  7
RomanC
 73
     1
 44
1.0
1001
ACAD
1000
MTEXTBEGIN
1070
    73
1070
     1
1070
    44
1040
1.0
1070
    74
1070
     0
1000
MTEXTEND
  0
MTEXT
  5
23CA
330
1F
100
AcDbEntity
  8
DIM
 62
     3
100
AcDbMText
 10
-16.8238570636704
 20
83.28879389703885
 30
0.0
 40
1.0
 41
22.68954545454545
 71
     1
 72
     5
  1
REINFORCEMENT PER ENGINEER
  7
RomanC
 73
     1
 44
1.0
1001
ACAD
1000
MTEXTBEGIN
1070
    73
1070
     1
1070
    44
1040
1.0
1070
    74
1070
     0
1000
MTEXTEND
  0
LEADER
  5
23CB
330
1F
100
AcDbEntity
  8
DIM
 48
0.15
100
AcDbLeader
  3
ARCTEXT 1-1
 76
     3
 10
-32.95360439816795
 20
60.48578435054785
 30
0.0
 10
-24.86221341425608
 20
52.39439336663824
 30
0.0
 10
-17.78227569912451
 20
52.39439336663824
 30
0.0
1001
ACAD
1000
DSTYLE
1002
{
1070
    40
1040
1.0
1070
    41
1040
0.5
1070
    77
1070
     0
1002
}
  0
LEADER
  5
23CC
330
1F
100
AcDbEntity
  8
DIM
 48
0.15
100
AcDbLeader
  3
ARCTEXT 1-1
 76
     2
 10
-26.25853053557512
 20
67.30031576029247
 30
0.0
 10
-17.71499588452752
 20
67.30031576029247
 30
0.0
1001
ACAD
1000
DSTYLE
1002
{
1070
    40
1040
1.0
1070
    41
1040
0.5
1070
    77
1070
     0
1002
}
  0
LEADER
  5
23CD
330
1F
100
AcDbEntity
  8
DIM
 48
0.15
100
AcDbLeader
  3
ARCTEXT 1-1
 76
     2
 10
-25.75853053557512
 20
78.40952682225313
 30
0.0
 10
-17.57974455060503
 20
78.40952682225313
 30
0.0
1001
ACAD
1000
DSTYLE
1002
{
1070
    40
1040
1.0
1070
    41
1040
0.5
1070
    77
1070
     0
1002
}
  0
LEADER
  5
23CE
330
1F
100
AcDbEntity
  8
DIM
 48
0.15
100
AcDbLeader
  3
ARCTEXT 1-1
 76
     3
 10
-31.03413960511716
 20
76.2661903259627
 30
0.0
 10
-24.46990941452168
 20
82.83042051655817
 30
0.0
 10
-17.78163010803291
 20
82.83042051655817
 30
0.0
1001
ACAD
1000
DSTYLE
1002
{
1070
    40
1040
1.0
1070
    41
1040
0.5
1070
    77
1070
     0
1002
}
  0
LINE
  5
23CF
330
1F
100
AcDbEntity
  8
A5 heavy
 48
0.15
100
AcDbLine
 10
-37.83353053557494
 20
69.0503277307898
 30
0.0
 11
-37.83353053557494
 21
66.55032773079025
 31
0.0
  0
LINE
  5
23D0
330
1F
100
AcDbEntity
  8
A5 heavy
 48
0.15
100
AcDbLine
 10
-37.83353053557494
 20
66.55032773079025
 30
0.0
 11
-26.13353053557603
 21
66.55031576029293
 31
0.0
  0
LINE
  5
23D1
330
1F
100
AcDbEntity
  8
A5 heavy
 48
0.15
100
AcDbLine
 10
-26.13353053557512
 20
69.05031576029248
 30
0.0
 11
-26.13353053557603
 21
66.55031576029293
 31
0.0
  0
LINE
  5
23D2
330
1F
100
AcDbEntity
  8
A5 heavy
 48
0.15
100
AcDbLine
 10
-26.25853053557512
 20
69.05031576029248
 30
0.0
 11
-26.13353053557512
 21
69.05031576029248
 31
0.0
  0
LINE
  5
23D3
330
1F
100
AcDbEntity
  8
A5 heavy
 48
0.15
100
AcDbLine
 10
-37.70853053557494
 20
69.0503277307898
 30
0.0
 11
-37.83353053557494
 21
69.0503277307898
 31
0.0
  0
LINE
  5
23D4
330
1F
100
AcDbEntity
  8
A2 Hatch
 48
0.15
100
AcDbLine
 10
-36.35549652431473
 20
68.05031576029293
 30
0.0
 11
-36.35549652431473
 21
66.55031576029293
 31
0.0
  0
LINE
  5
23D5
330
1F
100
AcDbEntity
  8
A2 Hatch
 48
0.15
100
AcDbLine
 10
-27.44465546297397
 20
68.05031576029247
 30
0.0
 11
-27.44465546297397
 21
66.55031576029293
 31
0.0
  0
LINE
  5
23D6
330
1F
100
AcDbEntity
  8
A2 Hatch
 48
0.15
100
AcDbLine
 10
-32.30827440776011
 20
68.05031576029202
 30
0.0
 11
-32.30827440776011
 21
66.55031576029293
 31
0.0
  0
LINE
  5
23D7
330
1F
100
AcDbEntity
  8
A2 Hatch
 48
0.15
100
AcDbLine
 10
-31.2530253475361
 20
68.05031576029202
 30
0.0
 11
-31.2530253475361
 21
66.55031576029293
 31
0.0
  0
LINE
  5
23D8
330
1F
100
AcDbEntity
  8
0
 48
0.15
100
AcDbLine
 10
-38.20853053557584
 20
66.05032773079071
 30
0.0
 11
-33.75853053557512
 21
66.05031576029339
 31
0.0
  0
LINE
  5
23D9
330
1F
100
AcDbEntity
  8
A5 heavy
 48
0.15
100
AcDbLine
 10
-31.74989207345061
 20
68.05031576029247
 30
0.0
 11
-31.74989207345061
 21
69.11152859539786
 31
0.0
  0
LINE
  5
23DA
330
1F
100
AcDbEntity
  8
A5 heavy
 48
0.15
100
AcDbLine
 10
-31.74989207345061
 20
69.11152859539786
 30
0.0
 11
-32.23920182782422
 21
69.11152859539786
 31
0.0
  0
LWPOLYLINE
  5
23DB
330
1F
100
AcDbEntity
  8
A5 heavy
 48
0.15
100
AcDbPolyline
 90
        3
 70
     0
 43
0.0
 10
-26.25853053557512
 20
69.05031576029248
 10
-26.25853053557512
 20
68.05031576029247
 10
-28.25853053557512
 20
68.05031576029202
  0
LWPOLYLINE
  5
23DC
330
1F
100
AcDbEntity
  8
A5 heavy
 48
0.15
100
AcDbPolyline
 90
        3
 70
     0
 43
0.0
 10
-32.25853053557512
 20
68.05031576029157
 10
-37.70853053557585
 20
68.05032773078934
 10
-37.70853053557494
 20
69.0503277307898
  0
LINE
  5
23DD
330
1F
100
AcDbEntity
  8
A5 heavy
 48
0.15
100
AcDbLine
 10
-31.65008382740598
 20
65.05031576029248
 30
0.0
 11
-32.15008382740598
 21
65.05031576029248
 31
0.0
  0
LINE
  5
23DE
330
1F
100
AcDbEntity
  8
A5 heavy
 48
0.15
100
AcDbLine
 10
-31.90008382740598
 20
65.05031576029248
 30
0.0
 11
-31.90008382740598
 21
67.38634106045125
 31
0.0
  0
LINE
  5
23DF
330
1F
100
AcDbEntity
  8
A5 heavy
 48
0.15
100
AcDbLine
 10
-27.86916114734595
 20
65.05031576029248
 30
0.0
 11
-28.36916114734595
 21
65.05031576029248
 31
0.0
  0
LINE
  5
23E0
330
1F
100
AcDbEntity
  8
A5 heavy
 48
0.15
100
AcDbLine
 10
-28.11916114734595
 20
65.05031576029248
 30
0.0
 11
-28.11916114734595
 21
67.38634106045125
 31
0.0
  0
MTEXT
  5
23E1
330
1F
100
AcDbEntity
  8
DIM
 62
     3
100
AcDbMText
 10
-16.65500943595089
 20
60.28717048873383
 30
0.0
 40
1.0
 41
22.68954545454545
 71
     1
 72
     5
  1
WINDOW ATTACHMENT PER MANUFACTURER
  7
RomanC
 73
     1
 44
1.0
1001
ACAD
1000
MTEXTBEGIN
1070
    73
1070
     1
1070
    44
1040
1.0
1070
    74
1070
     0
1000
MTEXTEND
  0
LEADER
  5
23E2
330
1F
100
AcDbEntity
  8
DIM
 48
0.15
100
AcDbLeader
  3
ARCTEXT 1-1
 76
     3
 10
-30.62981137616953
 20
65.56245167916038
 30
0.0
 10
-22.89751982819689
 20
59.67786618270608
 30
0.0
 10
-17.67910124201262
 20
59.67786618270608
 30
0.0
1001
ACAD
1000
DSTYLE
1002
{
1070
    40
1040
1.0
1070
    41
1040
0.5
1070
    77
1070
     0
1002
}
  0
LINE
  5
23E3
330
1F
100
AcDbEntity
  8
0
 62
     1
100
AcDbLine
 10
-37.70853053557494
 20
68.0503037897947
 30
0.0
 11
-35.08353053557494
 21
68.0503037897947
 31
0.0
  0
LINE
  5
23E4
330
1F
100
AcDbEntity
  8
0
 62
     1
100
AcDbLine
 10
-37.70853053557494
 20
68.0503037897947
 30
0.0
 11
-35.53353053557476
 21
68.0503037897947
 31
0.0
  0
LINE
  5
23E5
330
1F
100
AcDbEntity
  8
0
 62
     1
100
AcDbLine
 10
-35.28353053557566
 20
68.0503037897947
 30
0.0
 11
-35.08353053557585
 21
68.0503037897947
 31
0.0
  0
LINE
  5
23E6
330
1F
100
AcDbEntity
  8
0
 48
0.15
100
AcDbLine
 10
-36.73353053557458
 20
68.0503037897947
 30
0.0
 11
-35.70853053557494
 21
68.0503037897947
 31
0.0
  0
LINE
  5
23E7
330
1F
100
AcDbEntity
  8
0
 62
     1
100
AcDbLine
 10
-35.65853053557475
 20
68.0503037897947
 30
0.0
 11
-36.78353053557567
 21
68.0503037897947
 31
0.0
  0
LINE
  5
23E8
330
1F
100
AcDbEntity
  8
0
 62
     1
100
AcDbLine
 10
-37.70853053557494
 20
68.05031576029247
 30
0.0
 11
-35.53353053557476
 21
68.05031576029247
 31
0.0
  0
LINE
  5
23E9
330
1F
100
AcDbEntity
  8
0
 62
     1
100
AcDbLine
 10
-37.35853053557458
 20
68.55031576029247
 30
0.0
 11
-36.73353053557458
 21
68.55031576029247
 31
0.0
  0
LINE
  5
23EA
330
1F
100
AcDbEntity
  8
0
 62
     1
100
AcDbLine
 10
-35.70853053557494
 20
68.55031576029247
 30
0.0
 11
-35.70853053557585
 21
68.05031576029247
 31
0.0
  0
LINE
  5
23EB
330
1F
100
AcDbEntity
  8
0
 62
     1
100
AcDbLine
 10
-36.73353053557458
 20
68.55031576029247
 30
0.0
 11
-36.73353053557458
 21
68.05031576029247
 31
0.0
  0
LINE
  5
23EC
330
1F
100
AcDbEntity
  8
0
 62
     1
100
AcDbLine
 10
-35.70853053557585
 20
68.55031576029247
 30
0.0
 11
-35.08353053557585
 21
68.55031576029247
 31
0.0
  0
LINE
  5
23ED
330
1F
100
AcDbEntity
  8
0
 62
     1
100
AcDbLine
 10
-35.53353053557567
 20
68.30031576029248
 30
0.0
 11
-35.53353053557567
 21
68.05031576029247
 31
0.0
  0
LINE
  5
23EE
330
1F
100
AcDbEntity
  8
0
 62
     1
100
AcDbLine
 10
-35.53353053557567
 20
68.30031576029248
 30
0.0
 11
-35.28353053557566
 21
68.30031576029248
 31
0.0
  0
LINE
  5
23EF
330
1F
100
AcDbEntity
  8
0
 62
     1
100
AcDbLine
 10
-35.28353053557566
 20
68.05031576029247
 30
0.0
 11
-35.08353053557585
 21
68.05031576029247
 31
0.0
  0
LINE
  5
23F0
330
1F
100
AcDbEntity
  8
0
 48
0.15
100
AcDbLine
 10
-36.73353053557458
 20
68.05031576029247
 30
0.0
 11
-35.70853053557494
 21
68.05031576029247
 31
0.0
  0
LINE
  5
23F1
330
1F
100
AcDbEntity
  8
0
 62
     1
100
AcDbLine
 10
-35.65853053557475
 20
68.05031576029247
 30
0.0
 11
-36.78353053557567
 21
68.05031576029247
 31
0.0
  0
LINE
  5
23F2
330
1F
100
AcDbEntity
  8
0
 62
     1
100
AcDbLine
 10
-26.60853053557457
 20
68.55031576029247
 30
0.0
 11
-26.60853053557457
 21
68.05031576029247
 31
0.0
  0
LINE
  5
23F3
330
1F
100
AcDbEntity
  8
0
 62
     1
100
AcDbLine
 10
-28.25853053557603
 20
68.55031576029247
 30
0.0
 11
-28.25853053557603
 21
68.05031576029247
 31
0.0
  0
LINE
  5
23F4
330
1F
100
AcDbEntity
  8
0
 62
     1
100
AcDbLine
 10
-27.23353053557457
 20
68.55031576029247
 30
0.0
 11
-27.23353053557457
 21
68.05031576029247
 31
0.0
  0
LINE
  5
23F5
330
1F
100
AcDbEntity
  8
0
 62
     1
100
AcDbLine
 10
-28.88353053557603
 20
68.55031576029247
 30
0.0
 11
-28.25853053557603
 21
68.55031576029247
 31
0.0
  0
LINE
  5
23F6
330
1F
100
AcDbEntity
  8
0
 62
     1
100
AcDbLine
 10
-27.23353053557457
 20
68.55031576029247
 30
0.0
 11
-26.60853053557457
 21
68.55031576029247
 31
0.0
  0
LINE
  5
23F7
330
1F
100
AcDbEntity
  8
0
 62
     1
100
AcDbLine
 10
-28.4335305355753
 20
68.30031576029248
 30
0.0
 11
-28.4335305355753
 21
68.05031576029247
 31
0.0
  0
LINE
  5
23F8
330
1F
100
AcDbEntity
  8
0
 62
     1
100
AcDbLine
 10
-28.6835305355753
 20
68.30031576029248
 30
0.0
 11
-28.4335305355753
 21
68.30031576029248
 31
0.0
  0
LINE
  5
23F9
330
1F
100
AcDbEntity
  8
0
 62
     1
100
AcDbLine
 10
-28.46853053557516
 20
68.05031576029247
 30
0.0
 11
-26.25853053557512
 21
68.05031576029247
 31
0.0
  0
LINE
  5
23FA
330
1F
100
AcDbEntity
  8
0
 62
     1
100
AcDbLine
 10
-28.88353053557603
 20
68.05031576029247
 30
0.0
 11
-28.6835305355753
 21
68.05031576029247
 31
0.0
  0
LINE
  5
23FB
330
1F
100
AcDbEntity
  8
0
 62
     1
100
AcDbLine
 10
-37.70853053557494
 20
68.05031576029247
 30
0.0
 11
-35.08353053557494
 21
68.05031576029247
 31
0.0
  0
LINE
  5
23FC
330
1F
100
AcDbEntity
  8
0
 62
     1
100
AcDbLine
 10
-35.08353053557494
 20
68.55031576029247
 30
0.0
 11
-35.08353053557494
 21
68.05031576029247
 31
0.0
  0
LINE
  5
23FD
330
1F
100
AcDbEntity
  8
0
  6
HIDDEN
 62
     1
 48
0.02
100
AcDbLine
 10
-37.35853053557458
 20
68.55031576029247
 30
0.0
 11
-36.73353053557458
 21
68.55031576029247
 31
0.0
  0
LINE
  5
23FE
330
1F
100
AcDbEntity
  8
0
  6
HIDDEN
 62
     1
 48
0.02
100
AcDbLine
 10
-37.35853053557458
 20
68.55031576029247
 30
0.0
 11
-37.35853053557458
 21
68.05031576029247
 31
0.0
  0
LINE
  5
23FF
330
1F
100
AcDbEntity
  8
0
  6
HIDDEN
 62
     1
 48
0.02
100
AcDbLine
 10
-35.70853053557494
 20
68.55031576029247
 30
0.0
 11
-35.70853053557585
 21
68.05031576029247
 31
0.0
  0
LINE
  5
2400
330
1F
100
AcDbEntity
  8
0
  6
HIDDEN
 62
     1
 48
0.02
100
AcDbLine
 10
-36.73353053557458
 20
68.55031576029247
 30
0.0
 11
-36.73353053557458
 21
68.05031576029247
 31
0.0
  0
LINE
  5
2401
330
1F
100
AcDbEntity
  8
0
  6
HIDDEN
 62
     1
 48
0.02
100
AcDbLine
 10
-35.70853053557585
 20
68.55031576029247
 30
0.0
 11
-35.08353053557585
 21
68.55031576029247
 31
0.0
  0
LINE
  5
2402
330
1F
100
AcDbEntity
  8
0
 62
     1
100
AcDbLine
 10
-28.88353053557421
 20
68.05031576029247
 30
0.0
 11
-26.25853053557512
 21
68.05031576029247
 31
0.0
  0
LINE
  5
2403
330
1F
100
AcDbEntity
  8
0
 62
     1
100
AcDbLine
 10
-28.88353053557421
 20
68.55031576029247
 30
0.0
 11
-28.88353053557421
 21
68.05031576029247
 31
0.0
  0
LINE
  5
2404
330
1F
100
AcDbEntity
  8
0
  6
HIDDEN
 62
     1
 48
0.02
100
AcDbLine
 10
-26.60853053557275
 20
68.55031576029247
 30
0.0
 11
-26.60853053557275
 21
68.05031576029247
 31
0.0
  0
LINE
  5
2405
330
1F
100
AcDbEntity
  8
0
  6
HIDDEN
 62
     1
 48
0.02
100
AcDbLine
 10
-28.25853053557421
 20
68.55031576029247
 30
0.0
 11
-28.25853053557421
 21
68.05031576029247
 31
0.0
  0
LINE
  5
2406
330
1F
100
AcDbEntity
  8
0
  6
HIDDEN
 62
     1
 48
0.02
100
AcDbLine
 10
-27.23353053557275
 20
68.55031576029247
 30
0.0
 11
-27.23353053557275
 21
68.05031576029247
 31
0.0
  0
LINE
  5
2407
330
1F
100
AcDbEntity
  8
0
  6
HIDDEN
 62
     1
 48
0.02
100
AcDbLine
 10
-28.88353053557421
 20
68.55031576029247
 30
0.0
 11
-28.25853053557421
 21
68.55031576029247
 31
0.0
  0
LINE
  5
2408
330
1F
100
AcDbEntity
  8
0
  6
HIDDEN
 62
     1
 48
0.02
100
AcDbLine
 10
-27.23353053557275
 20
68.55031576029247
 30
0.0
 11
-26.60853053557275
 21
68.55031576029247
 31
0.0
  0
LINE
  5
2409
330
1F
100
AcDbEntity
  8
0
  6
HIDDEN
 62
     1
 48
0.02
100
AcDbLine
 10
-28.68353053557348
 20
68.30031576029248
 30
0.0
 11
-28.68353053557348
 21
68.05031576029247
 31
0.0
  0
LINE
  5
240A
330
1F
100
AcDbEntity
  8
0
  6
HIDDEN
 62
     1
 48
0.02
100
AcDbLine
 10
-28.43353053557348
 20
68.30031576029248
 30
0.0
 11
-28.43353053557348
 21
68.05031576029247
 31
0.0
  0
LINE
  5
240B
330
1F
100
AcDbEntity
  8
0
  6
HIDDEN
 62
     1
 48
0.02
100
AcDbLine
 10
-28.68353053557348
 20
68.30031576029248
 30
0.0
 11
-28.43353053557348
 21
68.30031576029248
 31
0.0
  0
LINE
  5
240C
330
1F
100
AcDbEntity
  8
0
 62
     1
100
AcDbLine
 10
-37.70853053557494
 20
80.05030378979469
 30
0.0
 11
-35.08353053557494
 21
80.05030378979469
 31
0.0
  0
LINE
  5
240D
330
1F
100
AcDbEntity
  8
0
 62
     1
100
AcDbLine
 10
-37.70853053557494
 20
80.05030378979469
 30
0.0
 11
-35.53353053557476
 21
80.05030378979469
 31
0.0
  0
LINE
  5
240E
330
1F
100
AcDbEntity
  8
0
 62
     1
100
AcDbLine
 10
-35.28353053557566
 20
80.05030378979469
 30
0.0
 11
-35.08353053557585
 21
80.05030378979469
 31
0.0
  0
LINE
  5
240F
330
1F
100
AcDbEntity
  8
0
 48
0.15
100
AcDbLine
 10
-36.73353053557458
 20
80.05030378979469
 30
0.0
 11
-35.70853053557494
 21
80.05030378979469
 31
0.0
  0
LINE
  5
2410
330
1F
100
AcDbEntity
  8
0
 62
     1
100
AcDbLine
 10
-35.65853053557475
 20
80.05030378979469
 30
0.0
 11
-36.78353053557567
 21
80.05030378979469
 31
0.0
  0
LINE
  5
2411
330
1F
100
AcDbEntity
  8
0
 62
     1
100
AcDbLine
 10
-37.70853053557494
 20
80.05031576029248
 30
0.0
 11
-37.70853053557494
 21
68.05031576029247
 31
0.0
  0
LINE
  5
2412
330
1F
100
AcDbEntity
  8
0
 62
     1
100
AcDbLine
 10
-37.70853053557494
 20
80.05031576029248
 30
0.0
 11
-35.53353053557476
 21
80.05031576029248
 31
0.0
  0
LINE
  5
2413
330
1F
100
AcDbEntity
  8
0
 62
     1
100
AcDbLine
 10
-35.08353053557494
 20
80.55031576029248
 30
0.0
 11
-35.08353053557494
 21
68.05031576029247
 31
0.0
  0
LINE
  5
2414
330
1F
100
AcDbEntity
  8
0
 62
     1
100
AcDbLine
 10
-37.35853053557458
 20
80.55031576029248
 30
0.0
 11
-36.73353053557458
 21
80.55031576029248
 31
0.0
  0
LINE
  5
2415
330
1F
100
AcDbEntity
  8
0
 62
     1
100
AcDbLine
 10
-37.35853053557458
 20
80.55031576029248
 30
0.0
 11
-37.35853053557458
 21
68.05031576029247
 31
0.0
  0
LINE
  5
2416
330
1F
100
AcDbEntity
  8
0
 62
     1
100
AcDbLine
 10
-35.70853053557494
 20
80.55031576029248
 30
0.0
 11
-35.70853053557585
 21
80.05031576029248
 31
0.0
  0
LINE
  5
2417
330
1F
100
AcDbEntity
  8
0
 62
     1
100
AcDbLine
 10
-36.73353053557458
 20
80.55031576029248
 30
0.0
 11
-36.73353053557458
 21
80.05031576029248
 31
0.0
  0
LINE
  5
2418
330
1F
100
AcDbEntity
  8
0
 62
     1
100
AcDbLine
 10
-35.70853053557585
 20
80.55031576029248
 30
0.0
 11
-35.08353053557585
 21
80.55031576029248
 31
0.0
  0
LINE
  5
2419
330
1F
100
AcDbEntity
  8
0
 62
     1
100
AcDbLine
 10
-35.28353053557566
 20
80.30031576029248
 30
0.0
 11
-35.28353053557566
 21
68.05031576029247
 31
0.0
  0
LINE
  5
241A
330
1F
100
AcDbEntity
  8
0
 62
     1
100
AcDbLine
 10
-35.53353053557567
 20
80.30031576029248
 30
0.0
 11
-35.53353053557567
 21
80.05031576029248
 31
0.0
  0
LINE
  5
241B
330
1F
100
AcDbEntity
  8
0
 62
     1
100
AcDbLine
 10
-35.53353053557567
 20
80.30031576029248
 30
0.0
 11
-35.28353053557566
 21
80.30031576029248
 31
0.0
  0
LINE
  5
241C
330
1F
100
AcDbEntity
  8
0
 62
     1
100
AcDbLine
 10
-35.28353053557566
 20
80.05031576029248
 30
0.0
 11
-35.08353053557585
 21
80.05031576029248
 31
0.0
  0
LINE
  5
241D
330
1F
100
AcDbEntity
  8
0
 48
0.15
100
AcDbLine
 10
-36.73353053557458
 20
80.05031576029248
 30
0.0
 11
-35.70853053557494
 21
80.05031576029248
 31
0.0
  0
LINE
  5
241E
330
1F
100
AcDbEntity
  8
A2 Hatch
  6
DASHED2
 48
0.15
100
AcDbLine
 10
-36.94353053557552
 20
80.55031576029248
 30
0.0
 11
-36.94353053557552
 21
68.05031576029247
 31
0.0
  0
LINE
  5
241F
330
1F
100
AcDbEntity
  8
A2 Hatch
  6
DASHED2
 48
0.15
100
AcDbLine
 10
-35.49853053557581
 20
80.55031576029248
 30
0.0
 11
-35.4985305355749
 21
68.05031576029247
 31
0.0
  0
LINE
  5
2420
330
1F
100
AcDbEntity
  8
0
 62
     1
100
AcDbLine
 10
-36.78353053557476
 20
80.55031576029248
 30
0.0
 11
-36.78353053557476
 21
68.05031576029247
 31
0.0
  0
LINE
  5
2421
330
1F
100
AcDbEntity
  8
0
 62
     1
100
AcDbLine
 10
-35.65853053557475
 20
80.55031576029248
 30
0.0
 11
-35.65853053557475
 21
68.05031576029247
 31
0.0
  0
LINE
  5
2422
330
1F
100
AcDbEntity
  8
0
 62
     1
100
AcDbLine
 10
-35.65853053557475
 20
80.05031576029248
 30
0.0
 11
-36.78353053557567
 21
80.05031576029248
 31
0.0
  0
ARC
  5
2423
330
1F
100
AcDbEntity
  8
DETAILS
 62
     6
370
    20
100
AcDbCircle
 10
-35.08353053557403
 20
72.2135939821446
 30
0.0
 40
0.0999999999999136
100
AcDbArc
 50
179.9999999996873
 51
209.7448812965932
  0
LINE
  5
2424
330
1F
100
AcDbEntity
  8
DETAILS
 62
     6
370
    20
100
AcDbLine
 10
-35.1835305355753
 20
74.30031576029247
 30
0.0
 11
-28.78353053557658
 21
74.30031576029247
 31
0.0
  0
LINE
  5
2425
330
1F
100
AcDbEntity
  8
0
 62
     1
100
AcDbLine
 10
-26.25853053557512
 20
80.05031576029248
 30
0.0
 11
-26.25853053557512
 21
68.05031576029247
 31
0.0
  0
LINE
  5
2426
330
1F
100
AcDbEntity
  8
0
 62
     1
100
AcDbLine
 10
-28.88353053557603
 20
80.55031576029248
 30
0.0
 11
-28.88353053557512
 21
68.05031576029247
 31
0.0
  0
LINE
  5
2427
330
1F
100
AcDbEntity
  8
0
 62
     1
100
AcDbLine
 10
-26.60853053557457
 20
80.55031576029248
 30
0.0
 11
-26.60853053557457
 21
80.05031576029248
 31
0.0
  0
LINE
  5
2428
330
1F
100
AcDbEntity
  8
0
 62
     1
100
AcDbLine
 10
-28.25853053557603
 20
80.55031576029248
 30
0.0
 11
-28.25853053557603
 21
80.05031576029248
 31
0.0
  0
LINE
  5
2429
330
1F
100
AcDbEntity
  8
0
 62
     1
100
AcDbLine
 10
-27.23353053557457
 20
80.55031576029248
 30
0.0
 11
-27.23353053557457
 21
80.05031576029248
 31
0.0
  0
LINE
  5
242A
330
1F
100
AcDbEntity
  8
0
 62
     1
100
AcDbLine
 10
-28.88353053557603
 20
80.55031576029248
 30
0.0
 11
-28.25853053557603
 21
80.55031576029248
 31
0.0
  0
LINE
  5
242B
330
1F
100
AcDbEntity
  8
0
 62
     1
100
AcDbLine
 10
-27.23353053557457
 20
80.55031576029248
 30
0.0
 11
-26.60853053557457
 21
80.55031576029248
 31
0.0
  0
LINE
  5
242C
330
1F
100
AcDbEntity
  8
0
 62
     1
100
AcDbLine
 10
-28.6835305355753
 20
80.30031576029248
 30
0.0
 11
-28.6835305355753
 21
68.05031576029247
 31
0.0
  0
LINE
  5
242D
330
1F
100
AcDbEntity
  8
0
 62
     1
100
AcDbLine
 10
-28.4335305355753
 20
80.30031576029248
 30
0.0
 11
-28.4335305355753
 21
80.05031576029248
 31
0.0
  0
LINE
  5
242E
330
1F
100
AcDbEntity
  8
0
 62
     1
100
AcDbLine
 10
-28.6835305355753
 20
80.30031576029248
 30
0.0
 11
-28.4335305355753
 21
80.30031576029248
 31
0.0
  0
LINE
  5
242F
330
1F
100
AcDbEntity
  8
0
 62
     1
100
AcDbLine
 10
-28.46853053557516
 20
80.05031576029248
 30
0.0
 11
-26.25853053557512
 21
80.05031576029248
 31
0.0
  0
LINE
  5
2430
330
1F
100
AcDbEntity
  8
0
 62
     1
100
AcDbLine
 10
-28.46853053557516
 20
80.05031576029248
 30
0.0
 11
-28.46853053557516
 21
68.05031576029247
 31
0.0
  0
LINE
  5
2431
330
1F
100
AcDbEntity
  8
0
 62
     1
100
AcDbLine
 10
-27.02353053557545
 20
80.05031576029248
 30
0.0
 11
-27.02353053557545
 21
68.05031576029247
 31
0.0
  0
LINE
  5
2432
330
1F
100
AcDbEntity
  8
A2 Hatch
  6
DASHED2
 48
0.15
100
AcDbLine
 10
-28.3085305355753
 20
80.05031576029248
 30
0.0
 11
-28.3085305355753
 21
68.05031576029247
 31
0.0
  0
LINE
  5
2433
330
1F
100
AcDbEntity
  8
A2 Hatch
  6
DASHED2
 48
0.15
100
AcDbLine
 10
-27.1835305355753
 20
80.05031576029248
 30
0.0
 11
-27.1835305355753
 21
68.05031576029247
 31
0.0
  0
LINE
  5
2434
330
1F
100
AcDbEntity
  8
0
 62
     1
100
AcDbLine
 10
-28.88353053557603
 20
80.05031576029248
 30
0.0
 11
-28.6835305355753
 21
80.05031576029248
 31
0.0
  0
LINE
  5
2435
330
1F
100
AcDbEntity
  8
DETAILS
 62
     6
370
    20
100
AcDbLine
 10
-35.18353053557439
 20
79.67531576029248
 30
0.0
 11
-35.1835305355753
 21
68.97756946891829
 31
0.0
  0
LINE
  5
2436
330
1F
100
AcDbEntity
  8
DETAILS
 62
     6
370
    20
100
AcDbLine
 10
-34.50853053557421
 20
74.92031576029237
 30
0.0
 11
-33.98914841166698
 21
74.92031576029237
 31
0.0
  0
ARC
  5
2437
330
1F
100
AcDbEntity
  8
DETAILS
 62
     6
370
    20
100
AcDbCircle
 10
-33.98914841166789
 20
75.07031576029246
 30
0.0
 40
0.1500000000000909
100
AcDbArc
 50
270.0000000001563
 51
43.83086067193248
  0
LINE
  5
2438
330
1F
100
AcDbEntity
  8
DETAILS
 62
     6
370
    20
100
AcDbLine
 10
-33.88094031351193
 20
75.17419553452052
 30
0.0
 11
-34.40032243741825
 21
75.71521858025696
 31
0.0
  0
ARC
  5
2439
330
1F
100
AcDbEntity
  8
DETAILS
 62
     6
370
    20
100
AcDbCircle
 10
-34.5085305355733
 20
75.61133880602844
 30
0.0
 40
0.1499999999999651
100
AcDbArc
 50
43.83086067209848
 51
179.9999999999739
  0
LINE
  5
243A
330
1F
100
AcDbEntity
  8
DETAILS
 62
     6
370
    20
100
AcDbLine
 10
-34.65853053557385
 20
75.61133880602844
 30
0.0
 11
-34.65853053557385
 21
75.070315760292
 31
0.0
  0
ARC
  5
243B
330
1F
100
AcDbEntity
  8
DETAILS
 62
     6
370
    20
100
AcDbCircle
 10
-34.50853053557421
 20
75.070315760292
 30
0.0
 40
0.1499999999996362
100
AcDbArc
 50
179.9999999999479
 51
270.0000000001563
  0
LINE
  5
243C
330
1F
100
AcDbEntity
  8
DETAILS
 62
     6
370
    20
100
AcDbLine
 10
-34.65853053557385
 20
73.55031576029247
 30
0.0
 11
-34.65853053557385
 21
73.00929271455604
 31
0.0
  0
ARC
  5
243D
330
1F
100
AcDbEntity
  8
DETAILS
 62
     6
370
    20
100
AcDbCircle
 10
-34.5085305355733
 20
73.00929271455604
 30
0.0
 40
0.1500000000000909
100
AcDbArc
 50
180.000000000026
 51
316.1691393279015
  0
LINE
  5
243E
330
1F
100
AcDbEntity
  8
DETAILS
 62
     6
370
    20
100
AcDbLine
 10
-34.40032243741825
 20
72.90541294032798
 30
0.0
 11
-33.88094031351193
 21
73.44643598606396
 31
0.0
  0
ARC
  5
243F
330
1F
100
AcDbEntity
  8
DETAILS
 62
     6
370
    20
100
AcDbCircle
 10
-33.98914841166789
 20
73.55031576029247
 30
0.0
 40
0.1500000000001751
100
AcDbArc
 50
316.1691393280675
 51
89.99999999984366
  0
LINE
  5
2440
330
1F
100
AcDbEntity
  8
DETAILS
 62
     6
370
    20
100
AcDbLine
 10
-33.98914841166698
 20
73.70031576029211
 30
0.0
 11
-34.50853053557421
 21
73.70031576029211
 31
0.0
  0
ARC
  5
2441
330
1F
100
AcDbEntity
  8
DETAILS
 62
     6
370
    20
100
AcDbCircle
 10
-34.50853053557421
 20
73.55031576029247
 30
0.0
 40
0.1499999999998636
100
AcDbArc
 50
89.99999999984366
 51
180.0000000000521
  0
LINE
  5
2442
330
1F
100
AcDbEntity
  8
DETAILS
 62
     6
370
    20
100
AcDbLine
 10
-34.50853053557421
 20
74.97031576029255
 30
0.0
 11
-33.98914841166698
 21
74.97031576029255
 31
0.0
  0
ARC
  5
2443
330
1F
100
AcDbEntity
  8
DETAILS
 62
     6
370
    20
100
AcDbCircle
 10
-33.98914841166698
 20
75.070315760292
 30
0.0
 40
0.1000000000000227
100
AcDbArc
 50
270.0
 51
43.83086067200606
  0
LINE
  5
2444
330
1F
100
AcDbEntity
  8
DETAILS
 62
     6
370
    20
100
AcDbLine
 10
-33.91700967956331
 20
75.13956894311101
 30
0.0
 11
-34.43639180346963
 21
75.68059198884745
 31
0.0
  0
ARC
  5
2445
330
1F
100
AcDbEntity
  8
DETAILS
 62
     6
370
    20
100
AcDbCircle
 10
-34.5085305355733
 20
75.61133880602844
 30
0.0
 40
0.1000000000001123
100
AcDbArc
 50
43.8308606720609
 51
180.0
  0
LINE
  5
2446
330
1F
100
AcDbEntity
  8
DETAILS
 62
     6
370
    20
100
AcDbLine
 10
-34.60853053557276
 20
75.61133880602844
 30
0.0
 11
-34.60853053557367
 21
75.070315760292
 31
0.0
  0
ARC
  5
2447
330
1F
100
AcDbEntity
  8
DETAILS
 62
     6
370
    20
100
AcDbCircle
 10
-34.5085305355733
 20
75.07031576029246
 30
0.0
 40
0.1000000000003638
100
AcDbArc
 50
180.0000000001302
 51
269.9999999997394
  0
LINE
  5
2448
330
1F
100
AcDbEntity
  8
DETAILS
 62
     6
370
    20
100
AcDbLine
 10
-34.60853053557367
 20
73.55031576029247
 30
0.0
 11
-34.60853053557276
 21
73.00929271455604
 31
0.0
  0
ARC
  5
2449
330
1F
100
AcDbEntity
  8
DETAILS
 62
     6
370
    20
100
AcDbCircle
 10
-34.5085305355733
 20
73.00929271455604
 30
0.0
 40
0.0999999999999091
100
AcDbArc
 50
179.9999999999739
 51
316.1691393279939
  0
LINE
  5
244A
330
1F
100
AcDbEntity
  8
DETAILS
 62
     6
370
    20
100
AcDbLine
 10
-34.43639180346963
 20
72.94003953173748
 30
0.0
 11
-33.91700967956331
 21
73.48106257747346
 31
0.0
  0
ARC
  5
244B
330
1F
100
AcDbEntity
  8
DETAILS
 62
     6
370
    20
100
AcDbCircle
 10
-33.98914841166698
 20
73.55031576029247
 30
0.0
 40
0.1000000000000336
100
AcDbArc
 50
316.1691393279939
 51
90.0
  0
LINE
  5
244C
330
1F
100
AcDbEntity
  8
DETAILS
 62
     6
370
    20
100
AcDbLine
 10
-33.98914841166698
 20
73.65031576029238
 30
0.0
 11
-34.50853053557421
 21
73.65031576029238
 31
0.0
  0
ARC
  5
244D
330
1F
100
AcDbEntity
  8
DETAILS
 62
     6
370
    20
100
AcDbCircle
 10
-34.5085305355733
 20
73.55031576029202
 30
0.0
 40
0.1000000000001364
100
AcDbArc
 50
90.00000000026055
 51
179.9999999998697
  0
LINE
  5
244E
330
1F
100
AcDbEntity
  8
DETAILS
 62
     6
370
    20
100
AcDbLine
 10
-28.78353053557658
 20
79.67531576029248
 30
0.0
 11
-28.78353053557566
 21
68.97756946891829
 31
0.0
  0
LINE
  5
244F
330
1F
100
AcDbEntity
  8
DETAILS
 62
     6
370
    20
100
AcDbLine
 10
-29.30853053557712
 20
75.070315760292
 30
0.0
 11
-29.30853053557712
 21
75.61133880602844
 31
0.0
  0
ARC
  5
2450
330
1F
100
AcDbEntity
  8
DETAILS
 62
     6
370
    20
100
AcDbCircle
 10
-29.45853053557767
 20
75.61133880602844
 30
0.0
 40
0.1500000000000909
100
AcDbArc
 50
0.0000000000260551
 51
136.1691393279015
  0
LINE
  5
2451
330
1F
100
AcDbEntity
  8
DETAILS
 62
     6
370
    20
100
AcDbLine
 10
-29.56673863373271
 20
75.71521858025696
 30
0.0
 11
-30.08612075763904
 21
75.17419553452052
 31
0.0
  0
ARC
  5
2452
330
1F
100
AcDbEntity
  8
DETAILS
 62
     6
370
    20
100
AcDbCircle
 10
-29.97791265948308
 20
75.07031576029246
 30
0.0
 40
0.1500000000001751
100
AcDbArc
 50
136.1691393280675
 51
269.9999999998437
  0
LINE
  5
2453
330
1F
100
AcDbEntity
  8
DETAILS
 62
     6
370
    20
100
AcDbLine
 10
-29.97791265948399
 20
74.92031576029237
 30
0.0
 11
-29.45853053557676
 21
74.92031576029237
 31
0.0
  0
ARC
  5
2454
330
1F
100
AcDbEntity
  8
DETAILS
 62
     6
370
    20
100
AcDbCircle
 10
-29.45853053557676
 20
75.070315760292
 30
0.0
 40
0.1499999999998067
100
AcDbArc
 50
269.9999999998437
 51
0.0000000000781653
  0
LINE
  5
2455
330
1F
100
AcDbEntity
  8
DETAILS
 62
     6
370
    20
100
AcDbLine
 10
-29.45853053557676
 20
73.70031576029211
 30
0.0
 11
-29.97791265948399
 21
73.70031576029211
 31
0.0
  0
ARC
  5
2456
330
1F
100
AcDbEntity
  8
DETAILS
 62
     6
370
    20
100
AcDbCircle
 10
-29.97791265948308
 20
73.55031576029247
 30
0.0
 40
0.1500000000001478
100
AcDbArc
 50
90.00000000015633
 51
223.8308606719325
  0
LINE
  5
2457
330
1F
100
AcDbEntity
  8
DETAILS
 62
     6
370
    20
100
AcDbLine
 10
-30.08612075763904
 20
73.44643598606396
 30
0.0
 11
-29.56673863373271
 21
72.90541294032798
 31
0.0
  0
ARC
  5
2458
330
1F
100
AcDbEntity
  8
DETAILS
 62
     6
370
    20
100
AcDbCircle
 10
-29.45853053557767
 20
73.00929271455604
 30
0.0
 40
0.1499999999999651
100
AcDbArc
 50
223.8308606720985
 51
359.999999999974
  0
LINE
  5
2459
330
1F
100
AcDbEntity
  8
DETAILS
 62
     6
370
    20
100
AcDbLine
 10
-29.30853053557712
 20
73.00929271455604
 30
0.0
 11
-29.30853053557712
 21
73.55031576029247
 31
0.0
  0
ARC
  5
245A
330
1F
100
AcDbEntity
  8
DETAILS
 62
     6
370
    20
100
AcDbCircle
 10
-29.45853053557676
 20
73.55031576029247
 30
0.0
 40
0.1499999999996362
100
AcDbArc
 50
359.9999999999218
 51
90.00000000015633
  0
ARC
  5
245B
330
1F
100
AcDbEntity
  8
DETAILS
 62
     6
370
    20
100
AcDbCircle
 10
-33.5086214378398
 20
72.79531576029237
 30
0.0
 40
0.010000000000022
100
AcDbArc
 50
97.40989078445366
 51
262.5901092155463
  0
LINE
  5
245C
330
1F
100
AcDbEntity
  8
DETAILS
 62
     6
370
    20
100
AcDbLine
 10
-33.50991110567611
 20
72.78539927115159
 30
0.0
 11
-33.3538010160728
 21
72.77031576029227
 31
0.0
  0
LINE
  5
245D
330
1F
100
AcDbEntity
  8
DETAILS
 62
     6
370
    20
100
AcDbLine
 10
-33.3538010160728
 20
72.77031576029227
 30
0.0
 11
-31.98353053557549
 21
72.77031576029227
 31
0.0
  0
LINE
  5
245E
330
1F
100
AcDbEntity
  8
DETAILS
 62
     6
370
    20
100
AcDbLine
 10
-31.98353053557549
 20
72.77031576029227
 30
0.0
 11
-30.61326005507817
 21
72.77031576029227
 31
0.0
  0
LINE
  5
245F
330
1F
100
AcDbEntity
  8
DETAILS
 62
     6
370
    20
100
AcDbLine
 10
-30.61326005507817
 20
72.77031576029227
 30
0.0
 11
-30.45714996547486
 21
72.78539927115159
 31
0.0
  0
ARC
  5
2460
330
1F
100
AcDbEntity
  8
DETAILS
 62
     6
370
    20
100
AcDbCircle
 10
-30.45843963331118
 20
72.79531576029237
 30
0.0
 40
0.0099999999999656
100
AcDbArc
 50
277.4098907844536
 51
82.59010921554635
  0
LINE
  5
2461
330
1F
100
AcDbEntity
  8
DETAILS
 62
     6
370
    20
100
AcDbLine
 10
-30.45714996547486
 20
72.80523224943269
 30
0.0
 11
-30.61326005507726
 21
72.82031576029246
 31
0.0
  0
LINE
  5
2462
330
1F
100
AcDbEntity
  8
DETAILS
 62
     6
370
    20
100
AcDbLine
 10
-30.61326005507726
 20
72.82031576029246
 30
0.0
 11
-31.98353053557549
 21
72.82031576029246
 31
0.0
  0
LINE
  5
2463
330
1F
100
AcDbEntity
  8
DETAILS
 62
     6
370
    20
100
AcDbLine
 10
-31.98353053557549
 20
72.82031576029246
 30
0.0
 11
-33.3538010160728
 21
72.82031576029201
 31
0.0
  0
LINE
  5
2464
330
1F
100
AcDbEntity
  8
DETAILS
 62
     6
370
    20
100
AcDbLine
 10
-33.3538010160728
 20
72.82031576029201
 30
0.0
 11
-33.50991110567611
 21
72.80523224943269
 31
0.0
  0
ARC
  5
2465
330
1F
100
AcDbEntity
  8
DETAILS
 62
     6
370
    20
100
AcDbCircle
 10
-30.10115232318731
 20
76.53031576029249
 30
0.0
 40
0.1000000000001364
100
AcDbArc
 50
270.0000000002606
 51
316.1691393281413
  0
LINE
  5
2466
330
1F
100
AcDbEntity
  8
DETAILS
 62
     6
370
    20
100
AcDbLine
 10
-30.02901359108273
 20
76.46106257747348
 30
0.0
 11
-28.91139180347455
 21
77.65129360623356
 31
0.0
  0
ARC
  5
2467
330
1F
100
AcDbEntity
  8
DETAILS
 62
     6
370
    20
100
AcDbCircle
 10
-28.98353053557548
 20
77.72054678905258
 30
0.0
 40
0.0999999999994431
100
AcDbArc
 50
316.1691393272021
 51
359.9999999992444
  0
ARC
  5
2468
330
1F
100
AcDbEntity
  8
DETAILS
 62
     6
370
    20
100
AcDbCircle
 10
-34.98353741526262
 20
77.72054678905121
 30
0.0
 40
0.0999999999999091
100
AcDbArc
 50
179.9999999998697
 51
223.8308606719873
  0
LINE
  5
2469
330
1F
100
AcDbEntity
  8
DETAILS
 62
     6
370
    20
100
AcDbLine
 10
-35.05567614736538
 20
77.65129360623266
 30
0.0
 11
-33.93804748006824
 21
76.46106257747348
 31
0.0
  0
ARC
  5
246A
330
1F
100
AcDbEntity
  8
DETAILS
 62
     6
370
    20
100
AcDbCircle
 10
-33.86590874796457
 20
76.53031576029249
 30
0.0
 40
0.1000000000001911
100
AcDbArc
 50
223.8308606721347
 51
270.0
  0
LINE
  5
246B
330
1F
100
AcDbEntity
  8
DETAILS
 62
     6
370
    20
100
AcDbLine
 10
-33.86590874796457
 20
76.43031576029258
 30
0.0
 11
-33.85853053557458
 21
76.43031576029258
 31
0.0
  0
LINE
  5
246C
330
1F
100
AcDbEntity
  8
DETAILS
 62
     6
370
    20
100
AcDbLine
 10
-33.85853053557458
 20
76.43031576029258
 30
0.0
 11
-33.85853053557458
 21
76.3803157602924
 31
0.0
  0
LINE
  5
246D
330
1F
100
AcDbEntity
  8
DETAILS
 62
     6
370
    20
100
AcDbLine
 10
-33.85853053557458
 20
76.3803157602924
 30
0.0
 11
-33.75853053557421
 21
76.3803157602924
 31
0.0
  0
ARC
  5
246E
330
1F
100
AcDbEntity
  8
DETAILS
 62
     6
370
    20
100
AcDbCircle
 10
-33.75853053557421
 20
76.33031576029222
 30
0.0
 40
0.0500000000001819
100
AcDbArc
 50
359.9999999998697
 51
90.0
  0
LINE
  5
246F
330
1F
100
AcDbEntity
  8
DETAILS
 62
     6
370
    20
100
AcDbLine
 10
-33.70853053557312
 20
76.33031576029222
 30
0.0
 11
-33.70853053557494
 21
76.27531576029238
 31
0.0
  0
ARC
  5
2470
330
1F
100
AcDbEntity
  8
DETAILS
 62
     6
370
    20
100
AcDbCircle
 10
-33.28353053557385
 20
76.27531576029193
 30
0.0
 40
0.4250000000001819
100
AcDbArc
 50
179.9999999999739
 51
359.999999999974
  0
LINE
  5
2471
330
1F
100
AcDbEntity
  8
DETAILS
 62
     6
370
    20
100
AcDbLine
 10
-32.85853053557457
 20
76.27531576029193
 30
0.0
 11
-32.85853053557457
 21
76.33031576029222
 31
0.0
  0
ARC
  5
2472
330
1F
100
AcDbEntity
  8
DETAILS
 62
     6
370
    20
100
AcDbCircle
 10
-32.80853053557439
 20
76.33031576029222
 30
0.0
 40
0.0500000000001819
100
AcDbArc
 50
90.0
 51
179.9999999996613
  0
LINE
  5
2473
330
1F
100
AcDbEntity
  8
DETAILS
 62
     6
370
    20
100
AcDbLine
 10
-32.80853053557439
 20
76.3803157602924
 30
0.0
 11
-32.45853053557494
 21
76.3803157602924
 31
0.0
  0
ARC
  5
2474
330
1F
100
AcDbEntity
  8
DETAILS
 62
     6
370
    20
100
AcDbCircle
 10
-32.45853053557494
 20
76.33031576029222
 30
0.0
 40
0.0500000000001819
100
AcDbArc
 50
359.9999999998697
 51
90.0
  0
LINE
  5
2475
330
1F
100
AcDbEntity
  8
DETAILS
 62
     6
370
    20
100
AcDbLine
 10
-32.40853053557476
 20
76.33031576029222
 30
0.0
 11
-32.40853053557567
 21
76.2753157602892
 31
0.0
  0
ARC
  5
2476
330
1F
100
AcDbEntity
  8
DETAILS
 62
     6
370
    20
100
AcDbCircle
 10
-31.98353053557458
 20
76.2753157602892
 30
0.0
 40
0.4250000000001819
100
AcDbArc
 50
180.0
 51
270.0
  0
ARC
  5
2477
330
1F
100
AcDbEntity
  8
DETAILS
 62
     6
370
    20
100
AcDbCircle
 10
-31.98353053557549
 20
76.2753157602892
 30
0.0
 40
0.4249999999997272
100
AcDbArc
 50
270.0000000000521
 51
0.0000000000521102
  0
LINE
  5
2478
330
1F
100
AcDbEntity
  8
DETAILS
 62
     6
370
    20
100
AcDbLine
 10
-31.5585305355753
 20
76.2753157602892
 30
0.0
 11
-31.55853053557621
 21
76.33031576029222
 31
0.0
  0
ARC
  5
2479
330
1F
100
AcDbEntity
  8
DETAILS
 62
     6
370
    20
100
AcDbCircle
 10
-31.50853053557603
 20
76.33031576029222
 30
0.0
 40
0.0500000000001819
100
AcDbArc
 50
90.0
 51
180.0
  0
LINE
  5
247A
330
1F
100
AcDbEntity
  8
DETAILS
 62
     6
370
    20
100
AcDbLine
 10
-31.50853053557603
 20
76.3803157602924
 30
0.0
 11
-31.15853053557657
 21
76.3803157602924
 31
0.0
  0
ARC
  5
247B
330
1F
100
AcDbEntity
  8
DETAILS
 62
     6
370
    20
100
AcDbCircle
 10
-31.15853053557657
 20
76.33031576029222
 30
0.0
 40
0.0500000000001819
100
AcDbArc
 50
0.000000000260551
 51
90.0
  0
LINE
  5
247C
330
1F
100
AcDbEntity
  8
DETAILS
 62
     6
370
    20
100
AcDbLine
 10
-31.10853053557639
 20
76.33031576029222
 30
0.0
 11
-31.10853053557639
 21
76.27531576029193
 31
0.0
  0
ARC
  5
247D
330
1F
100
AcDbEntity
  8
DETAILS
 62
     6
370
    20
100
AcDbCircle
 10
-30.68353053557621
 20
76.27531576029193
 30
0.0
 40
0.4249999999997272
100
AcDbArc
 50
180.000000000026
 51
0.0000000000260551
  0
LINE
  5
247E
330
1F
100
AcDbEntity
  8
DETAILS
 62
     6
370
    20
100
AcDbLine
 10
-30.25853053557603
 20
76.27531576029238
 30
0.0
 11
-30.25853053557785
 21
76.33031576029222
 31
0.0
  0
ARC
  5
247F
330
1F
100
AcDbEntity
  8
DETAILS
 62
     6
370
    20
100
AcDbCircle
 10
-30.20853053557676
 20
76.33031576029222
 30
0.0
 40
0.0500000000001819
100
AcDbArc
 50
90.0
 51
180.0
  0
LINE
  5
2480
330
1F
100
AcDbEntity
  8
DETAILS
 62
     6
370
    20
100
AcDbLine
 10
-30.20853053557676
 20
76.3803157602924
 30
0.0
 11
-30.10853053557639
 21
76.3803157602924
 31
0.0
  0
LINE
  5
2481
330
1F
100
AcDbEntity
  8
DETAILS
 62
     6
370
    20
100
AcDbLine
 10
-30.10853053557639
 20
76.3803157602924
 30
0.0
 11
-30.10853053557639
 21
76.43031576029258
 31
0.0
  0
LINE
  5
2482
330
1F
100
AcDbEntity
  8
DETAILS
 62
     6
370
    20
100
AcDbLine
 10
-30.10853053557639
 20
76.43031576029258
 30
0.0
 11
-30.1011523231864
 21
76.43031576029258
 31
0.0
  0
LINE
  5
2483
330
1F
100
AcDbEntity
  8
DETAILS
 62
     6
370
    20
100
AcDbLine
 10
-30.1011523231864
 20
76.43031576029258
 30
0.0
 11
-30.25853053557694
 21
76.43031576029258
 31
0.0
  0
ARC
  5
2484
330
1F
100
AcDbEntity
  8
DETAILS
 62
     6
370
    20
100
AcDbCircle
 10
-30.25853053557694
 20
76.3803157602924
 30
0.0
 40
0.0500000000001819
100
AcDbArc
 50
90.0
 51
179.9999999998697
  0
LINE
  5
2485
330
1F
100
AcDbEntity
  8
DETAILS
 62
     6
370
    20
100
AcDbLine
 10
-30.30853053557712
 20
76.3803157602924
 30
0.0
 11
-30.30853053557712
 21
76.27531576029238
 31
0.0
  0
ARC
  5
2486
330
1F
100
AcDbEntity
  8
DETAILS
 62
     6
370
    20
100
AcDbCircle
 10
-30.68353053557712
 20
76.27531576029193
 30
0.0
 40
0.375
100
AcDbArc
 50
180.0
 51
0.0
  0
LINE
  5
2487
330
1F
100
AcDbEntity
  8
DETAILS
 62
     6
370
    20
100
AcDbLine
 10
-31.05853053557712
 20
76.27531576029193
 30
0.0
 11
-31.05853053557712
 21
76.3803157602924
 31
0.0
  0
ARC
  5
2488
330
1F
100
AcDbEntity
  8
DETAILS
 62
     6
370
    20
100
AcDbCircle
 10
-31.10853053557639
 20
76.3803157602924
 30
0.0
 40
0.0500000000001819
100
AcDbArc
 50
0.0000000001302755
 51
90.0
  0
LINE
  5
2489
330
1F
100
AcDbEntity
  8
DETAILS
 62
     6
370
    20
100
AcDbLine
 10
-31.10853053557639
 20
76.43031576029258
 30
0.0
 11
-31.55853053557712
 21
76.43031576029258
 31
0.0
  0
ARC
  5
248A
330
1F
100
AcDbEntity
  8
DETAILS
 62
     6
370
    20
100
AcDbCircle
 10
-31.55853053557712
 20
76.3803157602924
 30
0.0
 40
0.0500000000001251
100
AcDbArc
 50
90.0
 51
179.9999999998697
  0
LINE
  5
248B
330
1F
100
AcDbEntity
  8
DETAILS
 62
     6
370
    20
100
AcDbLine
 10
-31.6085305355764
 20
76.3803157602924
 30
0.0
 11
-31.6085305355764
 21
76.2753157602892
 31
0.0
  0
ARC
  5
248C
330
1F
100
AcDbEntity
  8
DETAILS
 62
     6
370
    20
100
AcDbCircle
 10
-31.98353053557549
 20
76.2753157602892
 30
0.0
 40
0.3749999999995452
100
AcDbArc
 50
270.0000000000521
 51
0.0000000000521102
  0
ARC
  5
248D
330
1F
100
AcDbEntity
  8
DETAILS
 62
     6
370
    20
100
AcDbCircle
 10
-31.98353053557458
 20
76.2753157602892
 30
0.0
 40
0.3749999999998295
100
AcDbArc
 50
180.0
 51
269.9999999999479
  0
LINE
  5
248E
330
1F
100
AcDbEntity
  8
DETAILS
 62
     6
370
    20
100
AcDbLine
 10
-32.35853053557458
 20
76.2753157602892
 30
0.0
 11
-32.35853053557458
 21
76.3803157602924
 31
0.0
  0
ARC
  5
248F
330
1F
100
AcDbEntity
  8
DETAILS
 62
     6
370
    20
100
AcDbCircle
 10
-32.40853053557385
 20
76.3803157602924
 30
0.0
 40
0.0500000000001819
100
AcDbArc
 50
0.0000000001302755
 51
90.0
  0
LINE
  5
2490
330
1F
100
AcDbEntity
  8
DETAILS
 62
     6
370
    20
100
AcDbLine
 10
-32.40853053557385
 20
76.43031576029258
 30
0.0
 11
-32.85853053557457
 21
76.43031576029258
 31
0.0
  0
ARC
  5
2491
330
1F
100
AcDbEntity
  8
DETAILS
 62
     6
370
    20
100
AcDbCircle
 10
-32.85853053557457
 20
76.3803157602924
 30
0.0
 40
0.0500000000001819
100
AcDbArc
 50
90.0
 51
179.9999999998697
  0
LINE
  5
2492
330
1F
100
AcDbEntity
  8
DETAILS
 62
     6
370
    20
100
AcDbLine
 10
-32.90853053557384
 20
76.3803157602924
 30
0.0
 11
-32.90853053557384
 21
76.27531576029193
 31
0.0
  0
ARC
  5
2493
330
1F
100
AcDbEntity
  8
DETAILS
 62
     6
370
    20
100
AcDbCircle
 10
-33.28353053557385
 20
76.27531576029193
 30
0.0
 40
0.3749999999995452
100
AcDbArc
 50
179.9999999999739
 51
0.0
  0
LINE
  5
2494
330
1F
100
AcDbEntity
  8
DETAILS
 62
     6
370
    20
100
AcDbLine
 10
-33.65853053557385
 20
76.27531576029238
 30
0.0
 11
-33.65853053557385
 21
76.3803157602924
 31
0.0
  0
ARC
  5
2495
330
1F
100
AcDbEntity
  8
DETAILS
 62
     6
370
    20
100
AcDbCircle
 10
-33.70853053557403
 20
76.3803157602924
 30
0.0
 40
0.0500000000001819
100
AcDbArc
 50
0.0000000001302755
 51
90.0
  0
LINE
  5
2496
330
1F
100
AcDbEntity
  8
DETAILS
 62
     6
370
    20
100
AcDbLine
 10
-33.70853053557403
 20
76.43031576029258
 30
0.0
 11
-33.86590874796457
 21
76.43031576029258
 31
0.0
  0
LINE
  5
2497
330
1F
100
AcDbEntity
  8
DETAILS
 62
     6
370
    20
100
AcDbLine
 10
-28.88353053557512
 20
70.9588944040556
 30
0.0
 11
-28.88353053557603
 21
68.95077454967392
 31
0.0
  0
LINE
  5
2498
330
1F
100
AcDbEntity
  8
DETAILS
 62
     6
370
    20
100
AcDbLine
 10
-35.08353053557494
 20
68.95077454967392
 30
0.0
 11
-35.08353053557585
 21
70.9588944040556
 31
0.0
  0
LINE
  5
2499
330
1F
100
AcDbEntity
  8
DETAILS
 62
     6
370
    20
100
AcDbLine
 10
-35.1835305355753
 20
79.63645951128817
 30
0.0
 11
-35.1835305355753
 21
79.67306205166593
 31
0.0
  0
ARC
  5
249A
330
1F
100
AcDbEntity
  8
DETAILS
 62
     6
370
    20
100
AcDbCircle
 10
-35.23353053557548
 20
79.67306205166548
 30
0.0
 40
0.0500000000001819
100
AcDbArc
 50
0.0000000004429368
 51
30.00000000045302
  0
LINE
  5
249B
330
1F
100
AcDbEntity
  8
DETAILS
 62
     6
370
    20
100
AcDbLine
 10
-35.19022926538673
 20
79.69806205166602
 30
0.0
 11
-35.23591822001254
 21
79.77719764242554
 31
0.0
  0
LINE
  5
249C
330
1F
100
AcDbEntity
  8
DETAILS
 62
     6
370
    20
100
AcDbLine
 10
-35.23591822001254
 20
79.77719764242554
 30
0.0
 11
-35.14931567963504
 21
79.82719764242526
 31
0.0
  0
LINE
  5
249D
330
1F
100
AcDbEntity
  8
DETAILS
 62
     6
370
    20
100
AcDbLine
 10
-35.14931567963504
 20
79.82719764242526
 30
0.0
 11
-35.09022926538637
 21
79.72485697091039
 31
0.0
  0
ARC
  5
249E
330
1F
100
AcDbEntity
  8
DETAILS
 62
     6
370
    20
100
AcDbCircle
 10
-35.13353053557512
 20
79.6998569709103
 30
0.0
 40
0.0499999999997213
100
AcDbArc
 50
0.0000000003387164
 51
30.00000000054676
  0
LINE
  5
249F
330
1F
100
AcDbEntity
  8
DETAILS
 62
     6
370
    20
100
AcDbLine
 10
-35.08353053557585
 20
79.6998569709103
 30
0.0
 11
-35.08353053557403
 21
77.72054678905167
 31
0.0
  0
LINE
  5
24A0
330
1F
100
AcDbEntity
  8
DETAILS
 62
     6
370
    20
100
AcDbLine
 10
-35.08353053557403
 20
77.72054678905167
 30
0.0
 11
-35.08353053557494
 21
70.95889440405605
 31
0.0
  0
ARC
  5
24A1
330
1F
100
AcDbEntity
  8
DETAILS
 62
     6
370
    20
100
AcDbCircle
 10
-34.98353053557548
 20
70.95889440405605
 30
0.0
 40
0.0999999999999091
100
AcDbArc
 50
135.0000000001474
 51
180.0000000001302
  0
LINE
  5
24A2
330
1F
100
AcDbEntity
  8
DETAILS
 62
     6
370
    20
100
AcDbLine
 10
-35.05424121369379
 20
71.02960508217435
 30
0.0
 11
-33.4024645183963
 21
72.70638177747011
 31
0.0
  0
ARC
  5
24A3
330
1F
100
AcDbEntity
  8
DETAILS
 62
     6
370
    20
100
AcDbCircle
 10
-33.29639850121839
 20
72.60031576029266
 30
0.0
 40
0.1499999999998163
100
AcDbArc
 50
90.0
 51
135.0000000000184
  0
LINE
  5
24A4
330
1F
100
AcDbEntity
  8
DETAILS
 62
     6
370
    20
100
AcDbLine
 10
-33.29639850121839
 20
72.75031576029229
 30
0.0
 11
-31.98353053557549
 21
72.75031576029229
 31
0.0
  0
LINE
  5
24A5
330
1F
100
AcDbEntity
  8
DETAILS
 62
     6
370
    20
100
AcDbLine
 10
-31.98353053557549
 20
72.75031576029229
 30
0.0
 11
-30.67066256993257
 21
72.75031576029229
 31
0.0
  0
ARC
  5
24A6
330
1F
100
AcDbEntity
  8
DETAILS
 62
     6
370
    20
100
AcDbCircle
 10
-30.67066256993257
 20
72.60031576029266
 30
0.0
 40
0.1499999999998067
100
AcDbArc
 50
44.99999999998157
 51
90.0
  0
LINE
  5
24A7
330
1F
100
AcDbEntity
  8
DETAILS
 62
     6
370
    20
100
AcDbLine
 10
-30.56459655275467
 20
72.70638177747011
 30
0.0
 11
-28.91281985745627
 21
71.02960508217435
 31
0.0
  0
ARC
  5
24A8
330
1F
100
AcDbEntity
  8
DETAILS
 62
     6
370
    20
100
AcDbCircle
 10
-28.98353053557548
 20
70.95889440405605
 30
0.0
 40
0.0999999999999044
100
AcDbArc
 50
359.9999999998958
 51
44.99999999985261
  0
LINE
  5
24A9
330
1F
100
AcDbEntity
  8
DETAILS
 62
     6
370
    20
100
AcDbLine
 10
-28.88353053557512
 20
70.95889440405605
 30
0.0
 11
-28.88353053557694
 21
77.72054678905167
 31
0.0
  0
LINE
  5
24AA
330
1F
100
AcDbEntity
  8
DETAILS
 62
     6
370
    20
100
AcDbLine
 10
-28.88353053557694
 20
77.72054678905167
 30
0.0
 11
-28.88353053557512
 21
79.6998569709103
 31
0.0
  0
ARC
  5
24AB
330
1F
100
AcDbEntity
  8
DETAILS
 62
     6
370
    20
100
AcDbCircle
 10
-28.83353053557584
 20
79.6998569709103
 30
0.0
 40
0.0500000000001819
100
AcDbArc
 50
149.9999999997345
 51
179.9999999997394
  0
LINE
  5
24AC
330
1F
100
AcDbEntity
  8
DETAILS
 62
     6
370
    20
100
AcDbLine
 10
-28.87683180576459
 20
79.72485697091085
 30
0.0
 11
-28.81774539151593
 21
79.82719764242526
 31
0.0
  0
LINE
  5
24AD
330
1F
100
AcDbEntity
  8
DETAILS
 62
     6
370
    20
100
AcDbLine
 10
-28.81774539151593
 20
79.82719764242526
 30
0.0
 11
-28.73114285113843
 21
79.77719764242554
 31
0.0
  0
LINE
  5
24AE
330
1F
100
AcDbEntity
  8
DETAILS
 62
     6
370
    20
100
AcDbLine
 10
-28.73114285113843
 20
79.77719764242554
 30
0.0
 11
-28.77683180576423
 21
79.69806205166602
 31
0.0
  0
ARC
  5
24AF
330
1F
100
AcDbEntity
  8
DETAILS
 62
     6
370
    20
100
AcDbCircle
 10
-28.73353053557548
 20
79.67306205166548
 30
0.0
 40
0.0500000000002004
100
AcDbArc
 50
149.999999999547
 51
179.999999999531
  0
LINE
  5
24B0
330
1F
100
AcDbEntity
  8
DETAILS
 62
     6
370
    20
100
AcDbLine
 10
-28.78353053557566
 20
79.67306205166593
 30
0.0
 11
-28.78353053557566
 21
79.63645951128817
 31
0.0
  0
LINE
  5
24B1
330
1F
100
AcDbEntity
  8
DETAILS
 62
     6
370
    20
100
AcDbLine
 10
-29.3585305355773
 20
75.070315760292
 30
0.0
 11
-29.35853053557821
 21
75.61133880602844
 31
0.0
  0
ARC
  5
24B2
330
1F
100
AcDbEntity
  8
DETAILS
 62
     6
370
    20
100
AcDbCircle
 10
-29.45853053557767
 20
75.61133880602844
 30
0.0
 40
0.0999999999999091
100
AcDbArc
 50
0.0
 51
136.1691393279388
  0
LINE
  5
24B3
330
1F
100
AcDbEntity
  8
DETAILS
 62
     6
370
    20
100
AcDbLine
 10
-29.53066926768133
 20
75.68059198884745
 30
0.0
 11
-30.05005139158766
 21
75.13956894311101
 31
0.0
  0
ARC
  5
24B4
330
1F
100
AcDbEntity
  8
DETAILS
 62
     6
370
    20
100
AcDbCircle
 10
-29.97791265948399
 20
75.07031576029246
 30
0.0
 40
0.1000000000000336
100
AcDbArc
 50
136.1691393279939
 51
270.0
  0
LINE
  5
24B5
330
1F
100
AcDbEntity
  8
DETAILS
 62
     6
370
    20
100
AcDbLine
 10
-29.97791265948399
 20
74.97031576029255
 30
0.0
 11
-29.45853053557676
 21
74.97031576029255
 31
0.0
  0
ARC
  5
24B6
330
1F
100
AcDbEntity
  8
DETAILS
 62
     6
370
    20
100
AcDbCircle
 10
-29.45853053557767
 20
75.07031576029246
 30
0.0
 40
0.1000000000001364
100
AcDbArc
 50
270.0000000002606
 51
359.9999999998958
  0
LINE
  5
24B7
330
1F
100
AcDbEntity
  8
DETAILS
 62
     6
370
    20
100
AcDbLine
 10
-29.45853053557676
 20
73.65031576029238
 30
0.0
 11
-29.97791265948399
 21
73.65031576029238
 31
0.0
  0
ARC
  5
24B8
330
1F
100
AcDbEntity
  8
DETAILS
 62
     6
370
    20
100
AcDbCircle
 10
-29.97791265948399
 20
73.55031576029247
 30
0.0
 40
0.1000000000000227
100
AcDbArc
 50
90.0
 51
223.830860672006
  0
LINE
  5
24B9
330
1F
100
AcDbEntity
  8
DETAILS
 62
     6
370
    20
100
AcDbLine
 10
-30.05005139158766
 20
73.48106257747346
 30
0.0
 11
-29.53066926768133
 21
72.94003953173748
 31
0.0
  0
ARC
  5
24BA
330
1F
100
AcDbEntity
  8
DETAILS
 62
     6
370
    20
100
AcDbCircle
 10
-29.45853053557767
 20
73.00929271455604
 30
0.0
 40
0.1000000000000336
100
AcDbArc
 50
223.830860672006
 51
0.0000000000260551
  0
LINE
  5
24BB
330
1F
100
AcDbEntity
  8
DETAILS
 62
     6
370
    20
100
AcDbLine
 10
-29.35853053557821
 20
73.00929271455604
 30
0.0
 11
-29.3585305355773
 21
73.55031576029247
 31
0.0
  0
ARC
  5
24BC
330
1F
100
AcDbEntity
  8
DETAILS
 62
     6
370
    20
100
AcDbCircle
 10
-29.45853053557767
 20
73.55031576029202
 30
0.0
 40
0.1000000000003638
100
AcDbArc
 50
0.0000000001042204
 51
89.99999999973944
  0
LINE
  5
24BD
330
1F
100
AcDbEntity
  8
0
 62
     1
100
AcDbLine
 10
-37.70853053557494
 20
80.05031576029248
 30
0.0
 11
-35.08353053557494
 21
80.05031576029248
 31
0.0
  0
LINE
  5
24BE
330
1F
100
AcDbEntity
  8
0
 62
     1
100
AcDbLine
 10
-35.08353053557494
 20
80.55031576029248
 30
0.0
 11
-35.08353053557494
 21
80.05031576029248
 31
0.0
  0
LINE
  5
24BF
330
1F
100
AcDbEntity
  8
0
  6
HIDDEN
 62
     1
 48
0.02
100
AcDbLine
 10
-37.35853053557458
 20
80.55031576029248
 30
0.0
 11
-36.73353053557458
 21
80.55031576029248
 31
0.0
  0
LINE
  5
24C0
330
1F
100
AcDbEntity
  8
0
  6
HIDDEN
 62
     1
 48
0.02
100
AcDbLine
 10
-37.35853053557458
 20
80.55031576029248
 30
0.0
 11
-37.35853053557458
 21
80.05031576029248
 31
0.0
  0
LINE
  5
24C1
330
1F
100
AcDbEntity
  8
0
  6
HIDDEN
 62
     1
 48
0.02
100
AcDbLine
 10
-35.70853053557494
 20
80.55031576029248
 30
0.0
 11
-35.70853053557585
 21
80.05031576029248
 31
0.0
  0
LINE
  5
24C2
330
1F
100
AcDbEntity
  8
0
  6
HIDDEN
 62
     1
 48
0.02
100
AcDbLine
 10
-36.73353053557458
 20
80.55031576029248
 30
0.0
 11
-36.73353053557458
 21
80.05031576029248
 31
0.0
  0
LINE
  5
24C3
330
1F
100
AcDbEntity
  8
0
  6
HIDDEN
 62
     1
 48
0.02
100
AcDbLine
 10
-35.70853053557585
 20
80.55031576029248
 30
0.0
 11
-35.08353053557585
 21
80.55031576029248
 31
0.0
  0
LINE
  5
24C4
330
1F
100
AcDbEntity
  8
0
 62
     1
100
AcDbLine
 10
-28.88353053557421
 20
80.05031576029248
 30
0.0
 11
-26.25853053557512
 21
80.05031576029248
 31
0.0
  0
LINE
  5
24C5
330
1F
100
AcDbEntity
  8
0
 62
     1
100
AcDbLine
 10
-28.88353053557421
 20
80.55031576029248
 30
0.0
 11
-28.88353053557421
 21
80.05031576029248
 31
0.0
  0
LINE
  5
24C6
330
1F
100
AcDbEntity
  8
0
  6
HIDDEN
 62
     1
 48
0.02
100
AcDbLine
 10
-26.60853053557275
 20
80.55031576029248
 30
0.0
 11
-26.60853053557275
 21
80.05031576029248
 31
0.0
  0
LINE
  5
24C7
330
1F
100
AcDbEntity
  8
0
  6
HIDDEN
 62
     1
 48
0.02
100
AcDbLine
 10
-28.25853053557421
 20
80.55031576029248
 30
0.0
 11
-28.25853053557421
 21
80.05031576029248
 31
0.0
  0
LINE
  5
24C8
330
1F
100
AcDbEntity
  8
0
  6
HIDDEN
 62
     1
 48
0.02
100
AcDbLine
 10
-27.23353053557275
 20
80.55031576029248
 30
0.0
 11
-27.23353053557275
 21
80.05031576029248
 31
0.0
  0
LINE
  5
24C9
330
1F
100
AcDbEntity
  8
0
  6
HIDDEN
 62
     1
 48
0.02
100
AcDbLine
 10
-28.88353053557421
 20
80.55031576029248
 30
0.0
 11
-28.25853053557421
 21
80.55031576029248
 31
0.0
  0
LINE
  5
24CA
330
1F
100
AcDbEntity
  8
0
  6
HIDDEN
 62
     1
 48
0.02
100
AcDbLine
 10
-27.23353053557275
 20
80.55031576029248
 30
0.0
 11
-26.60853053557275
 21
80.55031576029248
 31
0.0
  0
LINE
  5
24CB
330
1F
100
AcDbEntity
  8
0
  6
HIDDEN
 62
     1
 48
0.02
100
AcDbLine
 10
-28.68353053557348
 20
80.30031576029248
 30
0.0
 11
-28.68353053557348
 21
80.05031576029248
 31
0.0
  0
LINE
  5
24CC
330
1F
100
AcDbEntity
  8
0
  6
HIDDEN
 62
     1
 48
0.02
100
AcDbLine
 10
-28.43353053557348
 20
80.30031576029248
 30
0.0
 11
-28.43353053557348
 21
80.05031576029248
 31
0.0
  0
LINE
  5
24CD
330
1F
100
AcDbEntity
  8
0
  6
HIDDEN
 62
     1
 48
0.02
100
AcDbLine
 10
-28.68353053557348
 20
80.30031576029248
 30
0.0
 11
-28.43353053557348
 21
80.30031576029248
 31
0.0
  0
LINE
  5
24CE
330
1F
100
AcDbEntity
  8
0
 62
     1
100
AcDbLine
 10
-37.70853053557494
 20
68.05031576029247
 30
0.0
 11
-35.08353053557494
 21
68.05031576029247
 31
0.0
  0
LINE
  5
24CF
330
1F
100
AcDbEntity
  8
0
 62
     1
100
AcDbLine
 10
-37.70853053557494
 20
68.05031576029247
 30
0.0
 11
-35.53353053557476
 21
68.05031576029247
 31
0.0
  0
LINE
  5
24D0
330
1F
100
AcDbEntity
  8
0
 62
     1
100
AcDbLine
 10
-35.28353053557566
 20
68.05031576029247
 30
0.0
 11
-35.08353053557585
 21
68.05031576029247
 31
0.0
  0
LINE
  5
24D1
330
1F
100
AcDbEntity
  8
0
 48
0.15
100
AcDbLine
 10
-36.73353053557458
 20
68.05031576029247
 30
0.0
 11
-35.70853053557494
 21
68.05031576029247
 31
0.0
  0
LINE
  5
24D2
330
1F
100
AcDbEntity
  8
0
 62
     1
100
AcDbLine
 10
-35.65853053557475
 20
68.05031576029247
 30
0.0
 11
-36.78353053557567
 21
68.05031576029247
 31
0.0
  0
LINE
  5
24D3
330
1F
100
AcDbEntity
  8
0
 62
     1
100
AcDbLine
 10
-37.70853053557494
 20
68.05032773078981
 30
0.0
 11
-35.53353053557476
 21
68.05032773078981
 31
0.0
  0
LINE
  5
24D4
330
1F
100
AcDbEntity
  8
0
 62
     1
100
AcDbLine
 10
-37.35853053557458
 20
68.5503277307898
 30
0.0
 11
-36.73353053557458
 21
68.5503277307898
 31
0.0
  0
LINE
  5
24D5
330
1F
100
AcDbEntity
  8
0
 62
     1
100
AcDbLine
 10
-35.70853053557494
 20
68.5503277307898
 30
0.0
 11
-35.70853053557585
 21
68.05032773078981
 31
0.0
  0
LINE
  5
24D6
330
1F
100
AcDbEntity
  8
0
 62
     1
100
AcDbLine
 10
-36.73353053557458
 20
68.5503277307898
 30
0.0
 11
-36.73353053557458
 21
68.05032773078981
 31
0.0
  0
LINE
  5
24D7
330
1F
100
AcDbEntity
  8
0
 62
     1
100
AcDbLine
 10
-35.70853053557585
 20
68.5503277307898
 30
0.0
 11
-35.08353053557585
 21
68.5503277307898
 31
0.0
  0
LINE
  5
24D8
330
1F
100
AcDbEntity
  8
0
 62
     1
100
AcDbLine
 10
-35.53353053557567
 20
68.3003277307898
 30
0.0
 11
-35.53353053557567
 21
68.05032773078981
 31
0.0
  0
LINE
  5
24D9
330
1F
100
AcDbEntity
  8
0
 62
     1
100
AcDbLine
 10
-35.53353053557567
 20
68.3003277307898
 30
0.0
 11
-35.28353053557566
 21
68.3003277307898
 31
0.0
  0
LINE
  5
24DA
330
1F
100
AcDbEntity
  8
0
 62
     1
100
AcDbLine
 10
-35.28353053557566
 20
68.05032773078981
 30
0.0
 11
-35.08353053557585
 21
68.05032773078981
 31
0.0
  0
LINE
  5
24DB
330
1F
100
AcDbEntity
  8
0
 48
0.15
100
AcDbLine
 10
-36.73353053557458
 20
68.05032773078981
 30
0.0
 11
-35.70853053557494
 21
68.05032773078981
 31
0.0
  0
LINE
  5
24DC
330
1F
100
AcDbEntity
  8
0
 62
     1
100
AcDbLine
 10
-35.65853053557475
 20
68.05032773078981
 30
0.0
 11
-36.78353053557567
 21
68.05032773078981
 31
0.0
  0
LINE
  5
24DD
330
1F
100
AcDbEntity
  8
0
 62
     1
100
AcDbLine
 10
-26.60853053557457
 20
68.5503277307898
 30
0.0
 11
-26.60853053557457
 21
68.05032773078981
 31
0.0
  0
LINE
  5
24DE
330
1F
100
AcDbEntity
  8
0
 62
     1
100
AcDbLine
 10
-28.25853053557603
 20
68.5503277307898
 30
0.0
 11
-28.25853053557603
 21
68.05032773078981
 31
0.0
  0
LINE
  5
24DF
330
1F
100
AcDbEntity
  8
0
 62
     1
100
AcDbLine
 10
-27.23353053557457
 20
68.5503277307898
 30
0.0
 11
-27.23353053557457
 21
68.05032773078981
 31
0.0
  0
LINE
  5
24E0
330
1F
100
AcDbEntity
  8
0
 62
     1
100
AcDbLine
 10
-28.88353053557603
 20
68.5503277307898
 30
0.0
 11
-28.25853053557603
 21
68.5503277307898
 31
0.0
  0
LINE
  5
24E1
330
1F
100
AcDbEntity
  8
0
 62
     1
100
AcDbLine
 10
-27.23353053557457
 20
68.5503277307898
 30
0.0
 11
-26.60853053557457
 21
68.5503277307898
 31
0.0
  0
LINE
  5
24E2
330
1F
100
AcDbEntity
  8
0
 62
     1
100
AcDbLine
 10
-28.4335305355753
 20
68.3003277307898
 30
0.0
 11
-28.4335305355753
 21
68.05032773078981
 31
0.0
  0
LINE
  5
24E3
330
1F
100
AcDbEntity
  8
0
 62
     1
100
AcDbLine
 10
-28.6835305355753
 20
68.3003277307898
 30
0.0
 11
-28.4335305355753
 21
68.3003277307898
 31
0.0
  0
LINE
  5
24E4
330
1F
100
AcDbEntity
  8
0
 62
     1
100
AcDbLine
 10
-28.46853053557516
 20
68.05032773078981
 30
0.0
 11
-26.25853053557512
 21
68.05032773078981
 31
0.0
  0
LINE
  5
24E5
330
1F
100
AcDbEntity
  8
0
 62
     1
100
AcDbLine
 10
-28.88353053557603
 20
68.05032773078981
 30
0.0
 11
-28.6835305355753
 21
68.05032773078981
 31
0.0
  0
LINE
  5
24E6
330
1F
100
AcDbEntity
  8
0
 62
     1
100
AcDbLine
 10
-37.70853053557494
 20
68.05032773078981
 30
0.0
 11
-35.08353053557494
 21
68.05032773078981
 31
0.0
  0
LINE
  5
24E7
330
1F
100
AcDbEntity
  8
0
 62
     1
100
AcDbLine
 10
-35.08353053557494
 20
68.5503277307898
 30
0.0
 11
-35.08353053557494
 21
68.05032773078981
 31
0.0
  0
LINE
  5
24E8
330
1F
100
AcDbEntity
  8
0
  6
HIDDEN
 62
     1
 48
0.02
100
AcDbLine
 10
-37.35853053557458
 20
68.5503277307898
 30
0.0
 11
-36.73353053557458
 21
68.5503277307898
 31
0.0
  0
LINE
  5
24E9
330
1F
100
AcDbEntity
  8
0
  6
HIDDEN
 62
     1
 48
0.02
100
AcDbLine
 10
-37.35853053557458
 20
68.5503277307898
 30
0.0
 11
-37.35853053557458
 21
68.05032773078981
 31
0.0
  0
LINE
  5
24EA
330
1F
100
AcDbEntity
  8
0
  6
HIDDEN
 62
     1
 48
0.02
100
AcDbLine
 10
-35.70853053557494
 20
68.5503277307898
 30
0.0
 11
-35.70853053557585
 21
68.05032773078981
 31
0.0
  0
LINE
  5
24EB
330
1F
100
AcDbEntity
  8
0
  6
HIDDEN
 62
     1
 48
0.02
100
AcDbLine
 10
-36.73353053557458
 20
68.5503277307898
 30
0.0
 11
-36.73353053557458
 21
68.05032773078981
 31
0.0
  0
LINE
  5
24EC
330
1F
100
AcDbEntity
  8
0
  6
HIDDEN
 62
     1
 48
0.02
100
AcDbLine
 10
-35.70853053557585
 20
68.5503277307898
 30
0.0
 11
-35.08353053557585
 21
68.5503277307898
 31
0.0
  0
LINE
  5
24ED
330
1F
100
AcDbEntity
  8
0
 62
     1
100
AcDbLine
 10
-28.88353053557421
 20
68.05032773078981
 30
0.0
 11
-26.25853053557512
 21
68.05032773078981
 31
0.0
  0
LINE
  5
24EE
330
1F
100
AcDbEntity
  8
0
 62
     1
100
AcDbLine
 10
-28.88353053557421
 20
68.5503277307898
 30
0.0
 11
-28.88353053557421
 21
68.05032773078981
 31
0.0
  0
LINE
  5
24EF
330
1F
100
AcDbEntity
  8
0
  6
HIDDEN
 62
     1
 48
0.02
100
AcDbLine
 10
-26.60853053557275
 20
68.5503277307898
 30
0.0
 11
-26.60853053557275
 21
68.05032773078981
 31
0.0
  0
LINE
  5
24F0
330
1F
100
AcDbEntity
  8
0
  6
HIDDEN
 62
     1
 48
0.02
100
AcDbLine
 10
-28.25853053557421
 20
68.5503277307898
 30
0.0
 11
-28.25853053557421
 21
68.05032773078981
 31
0.0
  0
LINE
  5
24F1
330
1F
100
AcDbEntity
  8
0
  6
HIDDEN
 62
     1
 48
0.02
100
AcDbLine
 10
-27.23353053557275
 20
68.5503277307898
 30
0.0
 11
-27.23353053557275
 21
68.05032773078981
 31
0.0
  0
LINE
  5
24F2
330
1F
100
AcDbEntity
  8
0
  6
HIDDEN
 62
     1
 48
0.02
100
AcDbLine
 10
-28.88353053557421
 20
68.5503277307898
 30
0.0
 11
-28.25853053557421
 21
68.5503277307898
 31
0.0
  0
LINE
  5
24F3
330
1F
100
AcDbEntity
  8
0
  6
HIDDEN
 62
     1
 48
0.02
100
AcDbLine
 10
-27.23353053557275
 20
68.5503277307898
 30
0.0
 11
-26.60853053557275
 21
68.5503277307898
 31
0.0
  0
LINE
  5
24F4
330
1F
100
AcDbEntity
  8
0
  6
HIDDEN
 62
     1
 48
0.02
100
AcDbLine
 10
-28.68353053557348
 20
68.3003277307898
 30
0.0
 11
-28.68353053557348
 21
68.05032773078981
 31
0.0
  0
LINE
  5
24F5
330
1F
100
AcDbEntity
  8
0
  6
HIDDEN
 62
     1
 48
0.02
100
AcDbLine
 10
-28.43353053557348
 20
68.3003277307898
 30
0.0
 11
-28.43353053557348
 21
68.05032773078981
 31
0.0
  0
LINE
  5
24F6
330
1F
100
AcDbEntity
  8
0
  6
HIDDEN
 62
     1
 48
0.02
100
AcDbLine
 10
-28.68353053557348
 20
68.3003277307898
 30
0.0
 11
-28.43353053557348
 21
68.3003277307898
 31
0.0
  0
ARC
  5
24F7
330
1F
100
AcDbEntity
  8
DETAILS
 62
     6
370
    20
100
AcDbCircle
 10
-28.83353053557767
 20
68.9507865201717
 30
0.0
 40
0.0499999999997272
100
AcDbArc
 50
180.0000000004429
 51
210.0000000006405
  0
LINE
  5
24F8
330
1F
100
AcDbEntity
  8
DETAILS
 62
     6
370
    20
100
AcDbLine
 10
-28.87683180576642
 20
68.92578652017161
 30
0.0
 11
-28.81774539151866
 21
68.82344584865674
 31
0.0
  0
LINE
  5
24F9
330
1F
100
AcDbEntity
  8
DETAILS
 62
     6
370
    20
100
AcDbLine
 10
-28.81774539151866
 20
68.82344584865674
 30
0.0
 11
-28.73114285114025
 21
68.87344584865693
 31
0.0
  0
LINE
  5
24FA
330
1F
100
AcDbEntity
  8
DETAILS
 62
     6
370
    20
100
AcDbLine
 10
-28.73114285114025
 20
68.87344584865693
 30
0.0
 11
-28.77683180576696
 21
68.95258143941553
 31
0.0
  0
ARC
  5
24FB
330
1F
100
AcDbEntity
  8
DETAILS
 62
     6
370
    20
100
AcDbCircle
 10
-28.73353053557821
 20
68.97758143941607
 30
0.0
 40
0.0499999999997213
100
AcDbArc
 50
180.0000000003126
 51
210.0000000005468
  0
LINE
  5
24FC
330
1F
100
AcDbEntity
  8
DETAILS
 62
     6
370
    20
100
AcDbLine
 10
-28.7835305355784
 20
68.97758143941607
 30
0.0
 11
-28.78353053557749
 21
69.0141839797943
 31
0.0
  0
LINE
  5
24FD
330
1F
100
AcDbEntity
  8
DETAILS
 62
     6
370
    20
100
AcDbLine
 10
-35.1835305355753
 20
69.01418397979338
 30
0.0
 11
-35.1835305355753
 21
68.97758143941607
 31
0.0
  0
ARC
  5
24FE
330
1F
100
AcDbEntity
  8
DETAILS
 62
     6
370
    20
100
AcDbCircle
 10
-35.23353053557548
 20
68.97758143941607
 30
0.0
 40
0.0499999999997272
100
AcDbArc
 50
329.9999999994532
 51
359.9999999996613
  0
LINE
  5
24FF
330
1F
100
AcDbEntity
  8
DETAILS
 62
     6
370
    20
100
AcDbLine
 10
-35.19022926538673
 20
68.95258143941553
 30
0.0
 11
-35.23591822001345
 21
68.87344584865601
 31
0.0
  0
LINE
  5
2500
330
1F
100
AcDbEntity
  8
DETAILS
 62
     6
370
    20
100
AcDbLine
 10
-35.23591822001345
 20
68.87344584865601
 30
0.0
 11
-35.14931567963504
 21
68.82344584865674
 31
0.0
  0
LINE
  5
2501
330
1F
100
AcDbEntity
  8
DETAILS
 62
     6
370
    20
100
AcDbLine
 10
-35.14931567963504
 20
68.82344584865674
 30
0.0
 11
-35.09022926538728
 21
68.92578652017161
 31
0.0
  0
ARC
  5
2502
330
1F
100
AcDbEntity
  8
DETAILS
 62
     6
370
    20
100
AcDbCircle
 10
-35.13353053557603
 20
68.9507865201717
 30
0.0
 40
0.0499999999997782
100
AcDbArc
 50
329.9999999993595
 51
359.999999999531
  0
LINE
  5
2503
330
1F
100
AcDbEntity
  8
0
 62
     1
100
AcDbLine
 10
-37.70853053557494
 20
80.05031576029248
 30
0.0
 11
-35.08353053557494
 21
80.05031576029248
 31
0.0
  0
LINE
  5
2504
330
1F
100
AcDbEntity
  8
0
 62
     1
100
AcDbLine
 10
-37.70853053557494
 20
80.05031576029248
 30
0.0
 11
-35.53353053557476
 21
80.05031576029248
 31
0.0
  0
LINE
  5
2505
330
1F
100
AcDbEntity
  8
0
 62
     1
100
AcDbLine
 10
-35.28353053557566
 20
80.05031576029248
 30
0.0
 11
-35.08353053557585
 21
80.05031576029248
 31
0.0
  0
LINE
  5
2506
330
1F
100
AcDbEntity
  8
0
 48
0.15
100
AcDbLine
 10
-36.73353053557458
 20
80.05031576029248
 30
0.0
 11
-35.70853053557494
 21
80.05031576029248
 31
0.0
  0
LINE
  5
2507
330
1F
100
AcDbEntity
  8
0
 62
     1
100
AcDbLine
 10
-35.65853053557475
 20
80.05031576029248
 30
0.0
 11
-36.78353053557567
 21
80.05031576029248
 31
0.0
  0
LINE
  5
2508
330
1F
100
AcDbEntity
  8
0
 62
     1
100
AcDbLine
 10
-37.70853053557494
 20
80.0503277307898
 30
0.0
 11
-35.53353053557476
 21
80.0503277307898
 31
0.0
  0
LINE
  5
2509
330
1F
100
AcDbEntity
  8
0
 62
     1
100
AcDbLine
 10
-37.35853053557458
 20
80.55032773078981
 30
0.0
 11
-36.73353053557458
 21
80.55032773078981
 31
0.0
  0
LINE
  5
250A
330
1F
100
AcDbEntity
  8
0
 62
     1
100
AcDbLine
 10
-35.70853053557494
 20
80.55032773078981
 30
0.0
 11
-35.70853053557585
 21
80.0503277307898
 31
0.0
  0
LINE
  5
250B
330
1F
100
AcDbEntity
  8
0
 62
     1
100
AcDbLine
 10
-36.73353053557458
 20
80.55032773078981
 30
0.0
 11
-36.73353053557458
 21
80.0503277307898
 31
0.0
  0
LINE
  5
250C
330
1F
100
AcDbEntity
  8
0
 62
     1
100
AcDbLine
 10
-35.70853053557585
 20
80.55032773078981
 30
0.0
 11
-35.08353053557585
 21
80.55032773078981
 31
0.0
  0
LINE
  5
250D
330
1F
100
AcDbEntity
  8
0
 62
     1
100
AcDbLine
 10
-35.53353053557567
 20
80.3003277307898
 30
0.0
 11
-35.53353053557567
 21
80.0503277307898
 31
0.0
  0
LINE
  5
250E
330
1F
100
AcDbEntity
  8
0
 62
     1
100
AcDbLine
 10
-35.53353053557567
 20
80.3003277307898
 30
0.0
 11
-35.28353053557566
 21
80.3003277307898
 31
0.0
  0
LINE
  5
250F
330
1F
100
AcDbEntity
  8
0
 62
     1
100
AcDbLine
 10
-35.28353053557566
 20
80.0503277307898
 30
0.0
 11
-35.08353053557585
 21
80.0503277307898
 31
0.0
  0
LINE
  5
2510
330
1F
100
AcDbEntity
  8
0
 48
0.15
100
AcDbLine
 10
-36.73353053557458
 20
80.0503277307898
 30
0.0
 11
-35.70853053557494
 21
80.0503277307898
 31
0.0
  0
LINE
  5
2511
330
1F
100
AcDbEntity
  8
0
 62
     1
100
AcDbLine
 10
-35.65853053557475
 20
80.0503277307898
 30
0.0
 11
-36.78353053557567
 21
80.0503277307898
 31
0.0
  0
LINE
  5
2512
330
1F
100
AcDbEntity
  8
0
 62
     1
100
AcDbLine
 10
-26.60853053557457
 20
80.55032773078981
 30
0.0
 11
-26.60853053557457
 21
80.0503277307898
 31
0.0
  0
LINE
  5
2513
330
1F
100
AcDbEntity
  8
0
 62
     1
100
AcDbLine
 10
-28.25853053557603
 20
80.55032773078981
 30
0.0
 11
-28.25853053557603
 21
80.0503277307898
 31
0.0
  0
LINE
  5
2514
330
1F
100
AcDbEntity
  8
0
 62
     1
100
AcDbLine
 10
-27.23353053557457
 20
80.55032773078981
 30
0.0
 11
-27.23353053557457
 21
80.0503277307898
 31
0.0
  0
LINE
  5
2515
330
1F
100
AcDbEntity
  8
0
 62
     1
100
AcDbLine
 10
-28.88353053557603
 20
80.55032773078981
 30
0.0
 11
-28.25853053557603
 21
80.55032773078981
 31
0.0
  0
LINE
  5
2516
330
1F
100
AcDbEntity
  8
0
 62
     1
100
AcDbLine
 10
-27.23353053557457
 20
80.55032773078981
 30
0.0
 11
-26.60853053557457
 21
80.55032773078981
 31
0.0
  0
LINE
  5
2517
330
1F
100
AcDbEntity
  8
0
 62
     1
100
AcDbLine
 10
-28.4335305355753
 20
80.3003277307898
 30
0.0
 11
-28.4335305355753
 21
80.0503277307898
 31
0.0
  0
LINE
  5
2518
330
1F
100
AcDbEntity
  8
0
 62
     1
100
AcDbLine
 10
-28.6835305355753
 20
80.3003277307898
 30
0.0
 11
-28.4335305355753
 21
80.3003277307898
 31
0.0
  0
LINE
  5
2519
330
1F
100
AcDbEntity
  8
0
 62
     1
100
AcDbLine
 10
-28.46853053557516
 20
80.0503277307898
 30
0.0
 11
-26.25853053557512
 21
80.0503277307898
 31
0.0
  0
LINE
  5
251A
330
1F
100
AcDbEntity
  8
0
 62
     1
100
AcDbLine
 10
-28.88353053557603
 20
80.0503277307898
 30
0.0
 11
-28.6835305355753
 21
80.0503277307898
 31
0.0
  0
LINE
  5
251B
330
1F
100
AcDbEntity
  8
0
 62
     1
100
AcDbLine
 10
-37.70853053557494
 20
80.0503277307898
 30
0.0
 11
-35.08353053557494
 21
80.0503277307898
 31
0.0
  0
LINE
  5
251C
330
1F
100
AcDbEntity
  8
0
 62
     1
100
AcDbLine
 10
-35.08353053557494
 20
80.55032773078981
 30
0.0
 11
-35.08353053557494
 21
80.0503277307898
 31
0.0
  0
LINE
  5
251D
330
1F
100
AcDbEntity
  8
0
  6
HIDDEN
 62
     1
 48
0.02
100
AcDbLine
 10
-37.35853053557458
 20
80.55032773078981
 30
0.0
 11
-36.73353053557458
 21
80.55032773078981
 31
0.0
  0
LINE
  5
251E
330
1F
100
AcDbEntity
  8
0
  6
HIDDEN
 62
     1
 48
0.02
100
AcDbLine
 10
-37.35853053557458
 20
80.55032773078981
 30
0.0
 11
-37.35853053557458
 21
80.0503277307898
 31
0.0
  0
LINE
  5
251F
330
1F
100
AcDbEntity
  8
0
  6
HIDDEN
 62
     1
 48
0.02
100
AcDbLine
 10
-35.70853053557494
 20
80.55032773078981
 30
0.0
 11
-35.70853053557585
 21
80.0503277307898
 31
0.0
  0
LINE
  5
2520
330
1F
100
AcDbEntity
  8
0
  6
HIDDEN
 62
     1
 48
0.02
100
AcDbLine
 10
-36.73353053557458
 20
80.55032773078981
 30
0.0
 11
-36.73353053557458
 21
80.0503277307898
 31
0.0
  0
LINE
  5
2521
330
1F
100
AcDbEntity
  8
0
  6
HIDDEN
 62
     1
 48
0.02
100
AcDbLine
 10
-35.70853053557585
 20
80.55032773078981
 30
0.0
 11
-35.08353053557585
 21
80.55032773078981
 31
0.0
  0
LINE
  5
2522
330
1F
100
AcDbEntity
  8
0
 62
     1
100
AcDbLine
 10
-28.88353053557421
 20
80.0503277307898
 30
0.0
 11
-26.25853053557512
 21
80.0503277307898
 31
0.0
  0
LINE
  5
2523
330
1F
100
AcDbEntity
  8
0
 62
     1
100
AcDbLine
 10
-28.88353053557421
 20
80.55032773078981
 30
0.0
 11
-28.88353053557421
 21
80.0503277307898
 31
0.0
  0
LINE
  5
2524
330
1F
100
AcDbEntity
  8
0
  6
HIDDEN
 62
     1
 48
0.02
100
AcDbLine
 10
-26.60853053557275
 20
80.55032773078981
 30
0.0
 11
-26.60853053557275
 21
80.0503277307898
 31
0.0
  0
LINE
  5
2525
330
1F
100
AcDbEntity
  8
0
  6
HIDDEN
 62
     1
 48
0.02
100
AcDbLine
 10
-28.25853053557421
 20
80.55032773078981
 30
0.0
 11
-28.25853053557421
 21
80.0503277307898
 31
0.0
  0
LINE
  5
2526
330
1F
100
AcDbEntity
  8
0
  6
HIDDEN
 62
     1
 48
0.02
100
AcDbLine
 10
-27.23353053557275
 20
80.55032773078981
 30
0.0
 11
-27.23353053557275
 21
80.0503277307898
 31
0.0
  0
LINE
  5
2527
330
1F
100
AcDbEntity
  8
0
  6
HIDDEN
 62
     1
 48
0.02
100
AcDbLine
 10
-28.88353053557421
 20
80.55032773078981
 30
0.0
 11
-28.25853053557421
 21
80.55032773078981
 31
0.0
  0
LINE
  5
2528
330
1F
100
AcDbEntity
  8
0
  6
HIDDEN
 62
     1
 48
0.02
100
AcDbLine
 10
-27.23353053557275
 20
80.55032773078981
 30
0.0
 11
-26.60853053557275
 21
80.55032773078981
 31
0.0
  0
LINE
  5
2529
330
1F
100
AcDbEntity
  8
0
  6
HIDDEN
 62
     1
 48
0.02
100
AcDbLine
 10
-28.68353053557348
 20
80.3003277307898
 30
0.0
 11
-28.68353053557348
 21
80.0503277307898
 31
0.0
  0
LINE
  5
252A
330
1F
100
AcDbEntity
  8
0
  6
HIDDEN
 62
     1
 48
0.02
100
AcDbLine
 10
-28.43353053557348
 20
80.3003277307898
 30
0.0
 11
-28.43353053557348
 21
80.0503277307898
 31
0.0
  0
LINE
  5
252B
330
1F
100
AcDbEntity
  8
0
  6
HIDDEN
 62
     1
 48
0.02
100
AcDbLine
 10
-28.68353053557348
 20
80.3003277307898
 30
0.0
 11
-28.43353053557348
 21
80.3003277307898
 31
0.0
  0
LINE
  5
252C
330
1F
100
AcDbEntity
  8
0
 48
0.15
100
AcDbLine
 10
-38.20853053556857
 20
89.88456630288826
 30
0.0
 11
-38.20853053557584
 21
66.05032773079071
 31
0.0
  0
LINE
  5
252D
330
1F
100
AcDbEntity
  8
0
 62
     1
100
AcDbLine
 10
-37.70853053557494
 20
80.0503277307898
 30
0.0
 11
-35.08353053557494
 21
80.0503277307898
 31
0.0
  0
LINE
  5
252E
330
1F
100
AcDbEntity
  8
0
 62
     1
100
AcDbLine
 10
-37.70853053557494
 20
80.0503277307898
 30
0.0
 11
-35.53353053557476
 21
80.0503277307898
 31
0.0
  0
LINE
  5
252F
330
1F
100
AcDbEntity
  8
0
 62
     1
100
AcDbLine
 10
-35.28353053557566
 20
80.0503277307898
 30
0.0
 11
-35.08353053557585
 21
80.0503277307898
 31
0.0
  0
LINE
  5
2530
330
1F
100
AcDbEntity
  8
0
 48
0.15
100
AcDbLine
 10
-36.73353053557458
 20
80.0503277307898
 30
0.0
 11
-35.70853053557494
 21
80.0503277307898
 31
0.0
  0
LINE
  5
2531
330
1F
100
AcDbEntity
  8
0
 62
     1
100
AcDbLine
 10
-35.65853053557475
 20
80.0503277307898
 30
0.0
 11
-36.78353053557567
 21
80.0503277307898
 31
0.0
  0
LINE
  5
2532
330
1F
100
AcDbEntity
  8
0
 62
     1
100
AcDbLine
 10
-37.70853053557494
 20
80.05033970128758
 30
0.0
 11
-35.53353053557476
 21
80.05033970128758
 31
0.0
  0
LINE
  5
2533
330
1F
100
AcDbEntity
  8
0
 62
     1
100
AcDbLine
 10
-37.35853053557458
 20
80.55033970128759
 30
0.0
 11
-36.73353053557458
 21
80.55033970128759
 31
0.0
  0
LINE
  5
2534
330
1F
100
AcDbEntity
  8
0
 62
     1
100
AcDbLine
 10
-35.70853053557494
 20
80.55033970128759
 30
0.0
 11
-35.70853053557585
 21
80.05033970128758
 31
0.0
  0
LINE
  5
2535
330
1F
100
AcDbEntity
  8
0
 62
     1
100
AcDbLine
 10
-36.73353053557458
 20
80.55033970128759
 30
0.0
 11
-36.73353053557458
 21
80.05033970128758
 31
0.0
  0
LINE
  5
2536
330
1F
100
AcDbEntity
  8
0
 62
     1
100
AcDbLine
 10
-35.70853053557585
 20
80.55033970128759
 30
0.0
 11
-35.08353053557585
 21
80.55033970128759
 31
0.0
  0
LINE
  5
2537
330
1F
100
AcDbEntity
  8
0
 62
     1
100
AcDbLine
 10
-35.53353053557567
 20
80.30033970128759
 30
0.0
 11
-35.53353053557567
 21
80.05033970128758
 31
0.0
  0
LINE
  5
2538
330
1F
100
AcDbEntity
  8
0
 62
     1
100
AcDbLine
 10
-35.53353053557567
 20
80.30033970128759
 30
0.0
 11
-35.28353053557566
 21
80.30033970128759
 31
0.0
  0
LINE
  5
2539
330
1F
100
AcDbEntity
  8
0
 62
     1
100
AcDbLine
 10
-35.28353053557566
 20
80.05033970128758
 30
0.0
 11
-35.08353053557585
 21
80.05033970128758
 31
0.0
  0
LINE
  5
253A
330
1F
100
AcDbEntity
  8
0
 48
0.15
100
AcDbLine
 10
-36.73353053557458
 20
80.05033970128758
 30
0.0
 11
-35.70853053557494
 21
80.05033970128758
 31
0.0
  0
LINE
  5
253B
330
1F
100
AcDbEntity
  8
0
 62
     1
100
AcDbLine
 10
-35.65853053557475
 20
80.05033970128758
 30
0.0
 11
-36.78353053557567
 21
80.05033970128758
 31
0.0
  0
LINE
  5
253C
330
1F
100
AcDbEntity
  8
0
 62
     1
100
AcDbLine
 10
-26.60853053557457
 20
80.55033970128759
 30
0.0
 11
-26.60853053557457
 21
80.05033970128758
 31
0.0
  0
LINE
  5
253D
330
1F
100
AcDbEntity
  8
0
 62
     1
100
AcDbLine
 10
-28.25853053557603
 20
80.55033970128759
 30
0.0
 11
-28.25853053557603
 21
80.05033970128758
 31
0.0
  0
LINE
  5
253E
330
1F
100
AcDbEntity
  8
0
 62
     1
100
AcDbLine
 10
-27.23353053557457
 20
80.55033970128759
 30
0.0
 11
-27.23353053557457
 21
80.05033970128758
 31
0.0
  0
LINE
  5
253F
330
1F
100
AcDbEntity
  8
0
 62
     1
100
AcDbLine
 10
-28.88353053557603
 20
80.55033970128759
 30
0.0
 11
-28.25853053557603
 21
80.55033970128759
 31
0.0
  0
LINE
  5
2540
330
1F
100
AcDbEntity
  8
0
 62
     1
100
AcDbLine
 10
-27.23353053557457
 20
80.55033970128759
 30
0.0
 11
-26.60853053557457
 21
80.55033970128759
 31
0.0
  0
LINE
  5
2541
330
1F
100
AcDbEntity
  8
0
 62
     1
100
AcDbLine
 10
-28.4335305355753
 20
80.30033970128759
 30
0.0
 11
-28.4335305355753
 21
80.05033970128758
 31
0.0
  0
LINE
  5
2542
330
1F
100
AcDbEntity
  8
0
 62
     1
100
AcDbLine
 10
-28.6835305355753
 20
80.30033970128759
 30
0.0
 11
-28.4335305355753
 21
80.30033970128759
 31
0.0
  0
LINE
  5
2543
330
1F
100
AcDbEntity
  8
0
 62
     1
100
AcDbLine
 10
-28.46853053557516
 20
80.05033970128758
 30
0.0
 11
-26.25853053557512
 21
80.05033970128758
 31
0.0
  0
LINE
  5
2544
330
1F
100
AcDbEntity
  8
0
 62
     1
100
AcDbLine
 10
-28.88353053557603
 20
80.05033970128758
 30
0.0
 11
-28.6835305355753
 21
80.05033970128758
 31
0.0
  0
LINE
  5
2545
330
1F
100
AcDbEntity
  8
0
 62
     1
100
AcDbLine
 10
-37.70853053557494
 20
80.05033970128758
 30
0.0
 11
-35.08353053557494
 21
80.05033970128758
 31
0.0
  0
LINE
  5
2546
330
1F
100
AcDbEntity
  8
0
 62
     1
100
AcDbLine
 10
-35.08353053557494
 20
80.55033970128759
 30
0.0
 11
-35.08353053557494
 21
80.05033970128758
 31
0.0
  0
LINE
  5
2547
330
1F
100
AcDbEntity
  8
0
  6
HIDDEN
 62
     1
 48
0.02
100
AcDbLine
 10
-37.35853053557458
 20
80.55033970128759
 30
0.0
 11
-36.73353053557458
 21
80.55033970128759
 31
0.0
  0
LINE
  5
2548
330
1F
100
AcDbEntity
  8
0
  6
HIDDEN
 62
     1
 48
0.02
100
AcDbLine
 10
-37.35853053557458
 20
80.55033970128759
 30
0.0
 11
-37.35853053557458
 21
80.05033970128758
 31
0.0
  0
LINE
  5
2549
330
1F
100
AcDbEntity
  8
0
  6
HIDDEN
 62
     1
 48
0.02
100
AcDbLine
 10
-35.70853053557494
 20
80.55033970128759
 30
0.0
 11
-35.70853053557585
 21
80.05033970128758
 31
0.0
  0
LINE
  5
254A
330
1F
100
AcDbEntity
  8
0
  6
HIDDEN
 62
     1
 48
0.02
100
AcDbLine
 10
-36.73353053557458
 20
80.55033970128759
 30
0.0
 11
-36.73353053557458
 21
80.05033970128758
 31
0.0
  0
LINE
  5
254B
330
1F
100
AcDbEntity
  8
0
  6
HIDDEN
 62
     1
 48
0.02
100
AcDbLine
 10
-35.70853053557585
 20
80.55033970128759
 30
0.0
 11
-35.08353053557585
 21
80.55033970128759
 31
0.0
  0
LINE
  5
254C
330
1F
100
AcDbEntity
  8
0
 62
     1
100
AcDbLine
 10
-28.88353053557421
 20
80.05033970128758
 30
0.0
 11
-26.25853053557512
 21
80.05033970128758
 31
0.0
  0
LINE
  5
254D
330
1F
100
AcDbEntity
  8
0
 62
     1
100
AcDbLine
 10
-28.88353053557421
 20
80.55033970128759
 30
0.0
 11
-28.88353053557421
 21
80.05033970128758
 31
0.0
  0
LINE
  5
254E
330
1F
100
AcDbEntity
  8
0
  6
HIDDEN
 62
     1
 48
0.02
100
AcDbLine
 10
-26.60853053557275
 20
80.55033970128759
 30
0.0
 11
-26.60853053557275
 21
80.05033970128758
 31
0.0
  0
LINE
  5
254F
330
1F
100
AcDbEntity
  8
0
  6
HIDDEN
 62
     1
 48
0.02
100
AcDbLine
 10
-28.25853053557421
 20
80.55033970128759
 30
0.0
 11
-28.25853053557421
 21
80.05033970128758
 31
0.0
  0
LINE
  5
2550
330
1F
100
AcDbEntity
  8
0
  6
HIDDEN
 62
     1
 48
0.02
100
AcDbLine
 10
-27.23353053557275
 20
80.55033970128759
 30
0.0
 11
-27.23353053557275
 21
80.05033970128758
 31
0.0
  0
LINE
  5
2551
330
1F
100
AcDbEntity
  8
0
  6
HIDDEN
 62
     1
 48
0.02
100
AcDbLine
 10
-28.88353053557421
 20
80.55033970128759
 30
0.0
 11
-28.25853053557421
 21
80.55033970128759
 31
0.0
  0
LINE
  5
2552
330
1F
100
AcDbEntity
  8
0
  6
HIDDEN
 62
     1
 48
0.02
100
AcDbLine
 10
-27.23353053557275
 20
80.55033970128759
 30
0.0
 11
-26.60853053557275
 21
80.55033970128759
 31
0.0
  0
LINE
  5
2553
330
1F
100
AcDbEntity
  8
0
  6
HIDDEN
 62
     1
 48
0.02
100
AcDbLine
 10
-28.68353053557348
 20
80.30033970128759
 30
0.0
 11
-28.68353053557348
 21
80.05033970128758
 31
0.0
  0
LINE
  5
2554
330
1F
100
AcDbEntity
  8
0
  6
HIDDEN
 62
     1
 48
0.02
100
AcDbLine
 10
-28.43353053557348
 20
80.30033970128759
 30
0.0
 11
-28.43353053557348
 21
80.05033970128758
 31
0.0
  0
LINE
  5
2555
330
1F
100
AcDbEntity
  8
0
  6
HIDDEN
 62
     1
 48
0.02
100
AcDbLine
 10
-28.68353053557348
 20
80.30033970128759
 30
0.0
 11
-28.43353053557348
 21
80.30033970128759
 31
0.0
  0
LINE
  5
2556
330
1F
100
AcDbEntity
  8
0
 62
     1
100
AcDbLine
 10
-37.70853053557403
 20
90.04517804564144
 30
0.0
 11
-37.70853053557494
 21
80.05033970128758
 31
0.0
  0
LINE
  5
2557
330
1F
100
AcDbEntity
  8
0
 62
     1
100
AcDbLine
 10
-35.08353053557494
 20
90.88838969510922
 30
0.0
 11
-35.08353053557494
 21
80.05033970128758
 31
0.0
  0
LINE
  5
2558
330
1F
100
AcDbEntity
  8
0
 62
     1
100
AcDbLine
 10
-37.35853053557276
 20
90.15760626557081
 30
0.0
 11
-37.35853053557458
 21
80.05033970128758
 31
0.0
  0
LINE
  5
2559
330
1F
100
AcDbEntity
  8
0
 62
     1
100
AcDbLine
 10
-35.28353053557566
 20
90.82414499800732
 30
0.0
 11
-35.28353053557566
 21
80.05033970128758
 31
0.0
  0
LINE
  5
255A
330
1F
100
AcDbEntity
  8
A2 Hatch
  6
DASHED2
 48
0.15
100
AcDbLine
 10
-36.94353053557461
 20
90.29091401205775
 30
0.0
 11
-36.94353053557552
 21
80.05033970128758
 31
0.0
  0
LINE
  5
255B
330
1F
100
AcDbEntity
  8
A2 Hatch
  6
DASHED2
 48
0.15
100
AcDbLine
 10
-35.49853053557672
 20
90.75508194862228
 30
0.0
 11
-35.4985305355749
 21
80.05033970128758
 31
0.0
  0
LINE
  5
255C
330
1F
100
AcDbEntity
  8
0
 62
     1
100
AcDbLine
 10
-36.78353053557385
 20
90.34230976973956
 30
0.0
 11
-36.78353053557476
 21
80.05033970128758
 31
0.0
  0
LINE
  5
255D
330
1F
100
AcDbEntity
  8
0
 62
     1
100
AcDbLine
 10
-35.65853053557566
 20
90.70368619094049
 30
0.0
 11
-35.65853053557475
 21
80.05033970128758
 31
0.0
  0
ARC
  5
255E
330
1F
100
AcDbEntity
  8
DETAILS
 62
     6
370
    20
100
AcDbCircle
 10
-35.08353053557403
 20
84.21361792313971
 30
0.0
 40
0.0999999999999136
100
AcDbArc
 50
179.9999999996873
 51
209.7448812965932
  0
LINE
  5
255F
330
1F
100
AcDbEntity
  8
DETAILS
 62
     6
370
    20
100
AcDbLine
 10
-35.1835305355753
 20
86.30033970128758
 30
0.0
 11
-28.78353053557658
 21
86.30033970128758
 31
0.0
  0
LINE
  5
2560
330
1F
100
AcDbEntity
  8
0
 62
     1
100
AcDbLine
 10
-26.25853053557421
 20
93.83506923036472
 30
0.0
 11
-26.25853053557512
 21
80.05033970128758
 31
0.0
  0
LINE
  5
2561
330
1F
100
AcDbEntity
  8
0
 62
     1
100
AcDbLine
 10
-28.88353053557603
 20
92.95264518612336
 30
0.0
 11
-28.88353053557512
 21
80.05033970128758
 31
0.0
  0
LINE
  5
2562
330
1F
100
AcDbEntity
  8
0
 62
     1
100
AcDbLine
 10
-26.60853053557457
 20
92.55033970128758
 30
0.0
 11
-26.60853053557457
 21
92.05033970128758
 31
0.0
  0
LINE
  5
2563
330
1F
100
AcDbEntity
  8
0
 62
     1
100
AcDbLine
 10
-28.25853053557603
 20
92.55033970128758
 30
0.0
 11
-28.25853053557603
 21
92.05033970128758
 31
0.0
  0
LINE
  5
2564
330
1F
100
AcDbEntity
  8
0
 62
     1
100
AcDbLine
 10
-27.23353053557457
 20
92.55033970128758
 30
0.0
 11
-27.23353053557457
 21
92.05033970128758
 31
0.0
  0
LINE
  5
2565
330
1F
100
AcDbEntity
  8
0
 62
     1
100
AcDbLine
 10
-28.88353053557603
 20
92.55033970128758
 30
0.0
 11
-28.25853053557603
 21
92.55033970128758
 31
0.0
  0
LINE
  5
2566
330
1F
100
AcDbEntity
  8
0
 62
     1
100
AcDbLine
 10
-27.23353053557457
 20
92.55033970128758
 30
0.0
 11
-26.60853053557457
 21
92.55033970128758
 31
0.0
  0
LINE
  5
2567
330
1F
100
AcDbEntity
  8
0
 62
     1
100
AcDbLine
 10
-28.6835305355753
 20
93.0198774942564
 30
0.0
 11
-28.6835305355753
 21
80.05033970128758
 31
0.0
  0
LINE
  5
2568
330
1F
100
AcDbEntity
  8
0
 62
     1
100
AcDbLine
 10
-28.4335305355753
 20
92.30033970128758
 30
0.0
 11
-28.4335305355753
 21
92.05033970128758
 31
0.0
  0
LINE
  5
2569
330
1F
100
AcDbEntity
  8
0
 62
     1
100
AcDbLine
 10
-28.6835305355753
 20
92.30033970128758
 30
0.0
 11
-28.4335305355753
 21
92.30033970128758
 31
0.0
  0
LINE
  5
256A
330
1F
100
AcDbEntity
  8
0
 62
     1
100
AcDbLine
 10
-28.46853053557516
 20
92.05033970128758
 30
0.0
 11
-26.25853053557512
 21
92.05033970128758
 31
0.0
  0
LINE
  5
256B
330
1F
100
AcDbEntity
  8
0
 62
     1
100
AcDbLine
 10
-28.46853053557516
 20
93.09215222549843
 30
0.0
 11
-28.46853053557516
 21
80.05033970128758
 31
0.0
  0
LINE
  5
256C
330
1F
100
AcDbEntity
  8
0
 62
     1
100
AcDbLine
 10
-27.02353053557454
 20
93.57790565175717
 30
0.0
 11
-27.02353053557545
 21
80.05033970128758
 31
0.0
  0
LINE
  5
256D
330
1F
100
AcDbEntity
  8
A2 Hatch
  6
DASHED2
 48
0.15
100
AcDbLine
 10
-28.30853053557439
 20
93.14593807200479
 30
0.0
 11
-28.3085305355753
 21
80.05033970128758
 31
0.0
  0
LINE
  5
256E
330
1F
100
AcDbEntity
  8
A2 Hatch
  6
DASHED2
 48
0.15
100
AcDbLine
 10
-27.1835305355753
 20
93.52411980525081
 30
0.0
 11
-27.1835305355753
 21
80.05033970128758
 31
0.0
  0
LINE
  5
256F
330
1F
100
AcDbEntity
  8
0
 62
     1
100
AcDbLine
 10
-28.88353053557603
 20
92.05033970128758
 30
0.0
 11
-28.6835305355753
 21
92.05033970128758
 31
0.0
  0
LINE
  5
2570
330
1F
100
AcDbEntity
  8
DETAILS
 62
     6
370
    20
100
AcDbLine
 10
-35.18353053557348
 20
90.85626734655804
 30
0.0
 11
-35.1835305355753
 21
80.97759340991339
 31
0.0
  0
LINE
  5
2571
330
1F
100
AcDbEntity
  8
DETAILS
 62
     6
370
    20
100
AcDbLine
 10
-34.50853053557421
 20
86.92033970128747
 30
0.0
 11
-33.98914841166698
 21
86.92033970128747
 31
0.0
  0
ARC
  5
2572
330
1F
100
AcDbEntity
  8
DETAILS
 62
     6
370
    20
100
AcDbCircle
 10
-33.98914841166789
 20
87.07033970128756
 30
0.0
 40
0.1500000000000909
100
AcDbArc
 50
270.0000000001563
 51
43.83086067193248
  0
LINE
  5
2573
330
1F
100
AcDbEntity
  8
DETAILS
 62
     6
370
    20
100
AcDbLine
 10
-33.88094031351193
 20
87.17421947551562
 30
0.0
 11
-34.40032243741825
 21
87.71524252125207
 31
0.0
  0
ARC
  5
2574
330
1F
100
AcDbEntity
  8
DETAILS
 62
     6
370
    20
100
AcDbCircle
 10
-34.5085305355733
 20
87.61136274702355
 30
0.0
 40
0.1499999999999651
100
AcDbArc
 50
43.83086067209848
 51
179.9999999999739
  0
LINE
  5
2575
330
1F
100
AcDbEntity
  8
DETAILS
 62
     6
370
    20
100
AcDbLine
 10
-34.65853053557385
 20
87.61136274702355
 30
0.0
 11
-34.65853053557385
 21
87.0703397012871
 31
0.0
  0
ARC
  5
2576
330
1F
100
AcDbEntity
  8
DETAILS
 62
     6
370
    20
100
AcDbCircle
 10
-34.50853053557421
 20
87.0703397012871
 30
0.0
 40
0.1499999999996362
100
AcDbArc
 50
179.9999999999479
 51
270.0000000001563
  0
LINE
  5
2577
330
1F
100
AcDbEntity
  8
DETAILS
 62
     6
370
    20
100
AcDbLine
 10
-34.65853053557385
 20
85.55033970128759
 30
0.0
 11
-34.65853053557385
 21
85.00931665555114
 31
0.0
  0
ARC
  5
2578
330
1F
100
AcDbEntity
  8
DETAILS
 62
     6
370
    20
100
AcDbCircle
 10
-34.5085305355733
 20
85.00931665555114
 30
0.0
 40
0.1500000000000909
100
AcDbArc
 50
180.000000000026
 51
316.1691393279015
  0
LINE
  5
2579
330
1F
100
AcDbEntity
  8
DETAILS
 62
     6
370
    20
100
AcDbLine
 10
-34.40032243741825
 20
84.90543688132309
 30
0.0
 11
-33.88094031351193
 21
85.44645992705907
 31
0.0
  0
ARC
  5
257A
330
1F
100
AcDbEntity
  8
DETAILS
 62
     6
370
    20
100
AcDbCircle
 10
-33.98914841166789
 20
85.55033970128759
 30
0.0
 40
0.1500000000001751
100
AcDbArc
 50
316.1691393280675
 51
89.99999999984366
  0
LINE
  5
257B
330
1F
100
AcDbEntity
  8
DETAILS
 62
     6
370
    20
100
AcDbLine
 10
-33.98914841166698
 20
85.70033970128722
 30
0.0
 11
-34.50853053557421
 21
85.70033970128722
 31
0.0
  0
ARC
  5
257C
330
1F
100
AcDbEntity
  8
DETAILS
 62
     6
370
    20
100
AcDbCircle
 10
-34.50853053557421
 20
85.55033970128759
 30
0.0
 40
0.1499999999998636
100
AcDbArc
 50
89.99999999984366
 51
180.0000000000521
  0
LINE
  5
257D
330
1F
100
AcDbEntity
  8
DETAILS
 62
     6
370
    20
100
AcDbLine
 10
-34.50853053557421
 20
86.97033970128766
 30
0.0
 11
-33.98914841166698
 21
86.97033970128766
 31
0.0
  0
ARC
  5
257E
330
1F
100
AcDbEntity
  8
DETAILS
 62
     6
370
    20
100
AcDbCircle
 10
-33.98914841166698
 20
87.0703397012871
 30
0.0
 40
0.1000000000000227
100
AcDbArc
 50
270.0
 51
43.83086067200606
  0
LINE
  5
257F
330
1F
100
AcDbEntity
  8
DETAILS
 62
     6
370
    20
100
AcDbLine
 10
-33.91700967956331
 20
87.13959288410611
 30
0.0
 11
-34.43639180346963
 21
87.68061592984256
 31
0.0
  0
ARC
  5
2580
330
1F
100
AcDbEntity
  8
DETAILS
 62
     6
370
    20
100
AcDbCircle
 10
-34.5085305355733
 20
87.61136274702355
 30
0.0
 40
0.1000000000001123
100
AcDbArc
 50
43.8308606720609
 51
180.0
  0
LINE
  5
2581
330
1F
100
AcDbEntity
  8
DETAILS
 62
     6
370
    20
100
AcDbLine
 10
-34.60853053557276
 20
87.61136274702355
 30
0.0
 11
-34.60853053557367
 21
87.0703397012871
 31
0.0
  0
ARC
  5
2582
330
1F
100
AcDbEntity
  8
DETAILS
 62
     6
370
    20
100
AcDbCircle
 10
-34.5085305355733
 20
87.07033970128756
 30
0.0
 40
0.1000000000003638
100
AcDbArc
 50
180.0000000001302
 51
269.9999999997394
  0
LINE
  5
2583
330
1F
100
AcDbEntity
  8
DETAILS
 62
     6
370
    20
100
AcDbLine
 10
-34.60853053557367
 20
85.55033970128759
 30
0.0
 11
-34.60853053557276
 21
85.00931665555114
 31
0.0
  0
ARC
  5
2584
330
1F
100
AcDbEntity
  8
DETAILS
 62
     6
370
    20
100
AcDbCircle
 10
-34.5085305355733
 20
85.00931665555114
 30
0.0
 40
0.0999999999999091
100
AcDbArc
 50
179.9999999999739
 51
316.1691393279939
  0
LINE
  5
2585
330
1F
100
AcDbEntity
  8
DETAILS
 62
     6
370
    20
100
AcDbLine
 10
-34.43639180346963
 20
84.94006347273259
 30
0.0
 11
-33.91700967956331
 21
85.48108651846858
 31
0.0
  0
ARC
  5
2586
330
1F
100
AcDbEntity
  8
DETAILS
 62
     6
370
    20
100
AcDbCircle
 10
-33.98914841166698
 20
85.55033970128759
 30
0.0
 40
0.1000000000000336
100
AcDbArc
 50
316.1691393279939
 51
90.0
  0
LINE
  5
2587
330
1F
100
AcDbEntity
  8
DETAILS
 62
     6
370
    20
100
AcDbLine
 10
-33.98914841166698
 20
85.6503397012875
 30
0.0
 11
-34.50853053557421
 21
85.6503397012875
 31
0.0
  0
ARC
  5
2588
330
1F
100
AcDbEntity
  8
DETAILS
 62
     6
370
    20
100
AcDbCircle
 10
-34.5085305355733
 20
85.55033970128713
 30
0.0
 40
0.1000000000001364
100
AcDbArc
 50
90.00000000026055
 51
179.9999999998697
  0
LINE
  5
2589
330
1F
100
AcDbEntity
  8
DETAILS
 62
     6
370
    20
100
AcDbLine
 10
-28.78353053557658
 20
91.67533970128758
 30
0.0
 11
-28.78353053557566
 21
80.97759340991339
 31
0.0
  0
LINE
  5
258A
330
1F
100
AcDbEntity
  8
DETAILS
 62
     6
370
    20
100
AcDbLine
 10
-29.30853053557712
 20
87.0703397012871
 30
0.0
 11
-29.30853053557712
 21
87.61136274702355
 31
0.0
  0
ARC
  5
258B
330
1F
100
AcDbEntity
  8
DETAILS
 62
     6
370
    20
100
AcDbCircle
 10
-29.45853053557767
 20
87.61136274702355
 30
0.0
 40
0.1500000000000909
100
AcDbArc
 50
0.0000000000260551
 51
136.1691393279015
  0
LINE
  5
258C
330
1F
100
AcDbEntity
  8
DETAILS
 62
     6
370
    20
100
AcDbLine
 10
-29.56673863373271
 20
87.71524252125207
 30
0.0
 11
-30.08612075763904
 21
87.17421947551562
 31
0.0
  0
ARC
  5
258D
330
1F
100
AcDbEntity
  8
DETAILS
 62
     6
370
    20
100
AcDbCircle
 10
-29.97791265948308
 20
87.07033970128756
 30
0.0
 40
0.1500000000001751
100
AcDbArc
 50
136.1691393280675
 51
269.9999999998437
  0
LINE
  5
258E
330
1F
100
AcDbEntity
  8
DETAILS
 62
     6
370
    20
100
AcDbLine
 10
-29.97791265948399
 20
86.92033970128747
 30
0.0
 11
-29.45853053557676
 21
86.92033970128747
 31
0.0
  0
ARC
  5
258F
330
1F
100
AcDbEntity
  8
DETAILS
 62
     6
370
    20
100
AcDbCircle
 10
-29.45853053557676
 20
87.0703397012871
 30
0.0
 40
0.1499999999998067
100
AcDbArc
 50
269.9999999998437
 51
0.0000000000781653
  0
LINE
  5
2590
330
1F
100
AcDbEntity
  8
DETAILS
 62
     6
370
    20
100
AcDbLine
 10
-29.45853053557676
 20
85.70033970128722
 30
0.0
 11
-29.97791265948399
 21
85.70033970128722
 31
0.0
  0
ARC
  5
2591
330
1F
100
AcDbEntity
  8
DETAILS
 62
     6
370
    20
100
AcDbCircle
 10
-29.97791265948308
 20
85.55033970128759
 30
0.0
 40
0.1500000000001478
100
AcDbArc
 50
90.00000000015633
 51
223.8308606719325
  0
LINE
  5
2592
330
1F
100
AcDbEntity
  8
DETAILS
 62
     6
370
    20
100
AcDbLine
 10
-30.08612075763904
 20
85.44645992705907
 30
0.0
 11
-29.56673863373271
 21
84.90543688132309
 31
0.0
  0
ARC
  5
2593
330
1F
100
AcDbEntity
  8
DETAILS
 62
     6
370
    20
100
AcDbCircle
 10
-29.45853053557767
 20
85.00931665555114
 30
0.0
 40
0.1499999999999651
100
AcDbArc
 50
223.8308606720985
 51
359.999999999974
  0
LINE
  5
2594
330
1F
100
AcDbEntity
  8
DETAILS
 62
     6
370
    20
100
AcDbLine
 10
-29.30853053557712
 20
85.00931665555114
 30
0.0
 11
-29.30853053557712
 21
85.55033970128759
 31
0.0
  0
ARC
  5
2595
330
1F
100
AcDbEntity
  8
DETAILS
 62
     6
370
    20
100
AcDbCircle
 10
-29.45853053557676
 20
85.55033970128759
 30
0.0
 40
0.1499999999996362
100
AcDbArc
 50
359.9999999999218
 51
90.00000000015633
  0
ARC
  5
2596
330
1F
100
AcDbEntity
  8
DETAILS
 62
     6
370
    20
100
AcDbCircle
 10
-33.5086214378398
 20
84.79533970128747
 30
0.0
 40
0.010000000000022
100
AcDbArc
 50
97.40989078445366
 51
262.5901092155463
  0
LINE
  5
2597
330
1F
100
AcDbEntity
  8
DETAILS
 62
     6
370
    20
100
AcDbLine
 10
-33.50991110567611
 20
84.78542321214669
 30
0.0
 11
-33.3538010160728
 21
84.77033970128738
 31
0.0
  0
LINE
  5
2598
330
1F
100
AcDbEntity
  8
DETAILS
 62
     6
370
    20
100
AcDbLine
 10
-33.3538010160728
 20
84.77033970128738
 30
0.0
 11
-31.98353053557549
 21
84.77033970128738
 31
0.0
  0
LINE
  5
2599
330
1F
100
AcDbEntity
  8
DETAILS
 62
     6
370
    20
100
AcDbLine
 10
-31.98353053557549
 20
84.77033970128738
 30
0.0
 11
-30.61326005507817
 21
84.77033970128738
 31
0.0
  0
LINE
  5
259A
330
1F
100
AcDbEntity
  8
DETAILS
 62
     6
370
    20
100
AcDbLine
 10
-30.61326005507817
 20
84.77033970128738
 30
0.0
 11
-30.45714996547486
 21
84.78542321214669
 31
0.0
  0
ARC
  5
259B
330
1F
100
AcDbEntity
  8
DETAILS
 62
     6
370
    20
100
AcDbCircle
 10
-30.45843963331118
 20
84.79533970128747
 30
0.0
 40
0.0099999999999656
100
AcDbArc
 50
277.4098907844536
 51
82.59010921554635
  0
LINE
  5
259C
330
1F
100
AcDbEntity
  8
DETAILS
 62
     6
370
    20
100
AcDbLine
 10
-30.45714996547486
 20
84.80525619042779
 30
0.0
 11
-30.61326005507726
 21
84.82033970128757
 31
0.0
  0
LINE
  5
259D
330
1F
100
AcDbEntity
  8
DETAILS
 62
     6
370
    20
100
AcDbLine
 10
-30.61326005507726
 20
84.82033970128757
 30
0.0
 11
-31.98353053557549
 21
84.82033970128757
 31
0.0
  0
LINE
  5
259E
330
1F
100
AcDbEntity
  8
DETAILS
 62
     6
370
    20
100
AcDbLine
 10
-31.98353053557549
 20
84.82033970128757
 30
0.0
 11
-33.3538010160728
 21
84.82033970128711
 31
0.0
  0
LINE
  5
259F
330
1F
100
AcDbEntity
  8
DETAILS
 62
     6
370
    20
100
AcDbLine
 10
-33.3538010160728
 20
84.82033970128711
 30
0.0
 11
-33.50991110567611
 21
84.80525619042779
 31
0.0
  0
ARC
  5
25A0
330
1F
100
AcDbEntity
  8
DETAILS
 62
     6
370
    20
100
AcDbCircle
 10
-30.10115232318731
 20
88.53033970128761
 30
0.0
 40
0.1000000000001364
100
AcDbArc
 50
270.0000000002606
 51
316.1691393281413
  0
LINE
  5
25A1
330
1F
100
AcDbEntity
  8
DETAILS
 62
     6
370
    20
100
AcDbLine
 10
-30.02901359108273
 20
88.4610865184686
 30
0.0
 11
-28.91139180347455
 21
89.65131754722866
 31
0.0
  0
ARC
  5
25A2
330
1F
100
AcDbEntity
  8
DETAILS
 62
     6
370
    20
100
AcDbCircle
 10
-28.98353053557548
 20
89.72057073004767
 30
0.0
 40
0.0999999999994431
100
AcDbArc
 50
316.1691393272021
 51
359.9999999992444
  0
ARC
  5
25A3
330
1F
100
AcDbEntity
  8
DETAILS
 62
     6
370
    20
100
AcDbCircle
 10
-34.98353741526262
 20
89.72057073004632
 30
0.0
 40
0.0999999999999091
100
AcDbArc
 50
179.9999999998697
 51
223.8308606719873
  0
LINE
  5
25A4
330
1F
100
AcDbEntity
  8
DETAILS
 62
     6
370
    20
100
AcDbLine
 10
-35.05567614736538
 20
89.65131754722776
 30
0.0
 11
-33.93804748006824
 21
88.4610865184686
 31
0.0
  0
ARC
  5
25A5
330
1F
100
AcDbEntity
  8
DETAILS
 62
     6
370
    20
100
AcDbCircle
 10
-33.86590874796457
 20
88.53033970128761
 30
0.0
 40
0.1000000000001911
100
AcDbArc
 50
223.8308606721347
 51
270.0
  0
LINE
  5
25A6
330
1F
100
AcDbEntity
  8
DETAILS
 62
     6
370
    20
100
AcDbLine
 10
-33.86590874796457
 20
88.4303397012877
 30
0.0
 11
-33.85853053557458
 21
88.4303397012877
 31
0.0
  0
LINE
  5
25A7
330
1F
100
AcDbEntity
  8
DETAILS
 62
     6
370
    20
100
AcDbLine
 10
-33.85853053557458
 20
88.4303397012877
 30
0.0
 11
-33.85853053557458
 21
88.38033970128751
 31
0.0
  0
LINE
  5
25A8
330
1F
100
AcDbEntity
  8
DETAILS
 62
     6
370
    20
100
AcDbLine
 10
-33.85853053557458
 20
88.38033970128751
 30
0.0
 11
-33.75853053557421
 21
88.38033970128751
 31
0.0
  0
ARC
  5
25A9
330
1F
100
AcDbEntity
  8
DETAILS
 62
     6
370
    20
100
AcDbCircle
 10
-33.75853053557421
 20
88.33033970128733
 30
0.0
 40
0.0500000000001819
100
AcDbArc
 50
359.9999999998697
 51
90.0
  0
LINE
  5
25AA
330
1F
100
AcDbEntity
  8
DETAILS
 62
     6
370
    20
100
AcDbLine
 10
-33.70853053557312
 20
88.33033970128733
 30
0.0
 11
-33.70853053557494
 21
88.27533970128749
 31
0.0
  0
ARC
  5
25AB
330
1F
100
AcDbEntity
  8
DETAILS
 62
     6
370
    20
100
AcDbCircle
 10
-33.28353053557385
 20
88.27533970128703
 30
0.0
 40
0.4250000000001819
100
AcDbArc
 50
179.9999999999739
 51
359.999999999974
  0
LINE
  5
25AC
330
1F
100
AcDbEntity
  8
DETAILS
 62
     6
370
    20
100
AcDbLine
 10
-32.85853053557457
 20
88.27533970128703
 30
0.0
 11
-32.85853053557457
 21
88.33033970128733
 31
0.0
  0
ARC
  5
25AD
330
1F
100
AcDbEntity
  8
DETAILS
 62
     6
370
    20
100
AcDbCircle
 10
-32.80853053557439
 20
88.33033970128733
 30
0.0
 40
0.0500000000001819
100
AcDbArc
 50
90.0
 51
179.9999999996613
  0
LINE
  5
25AE
330
1F
100
AcDbEntity
  8
DETAILS
 62
     6
370
    20
100
AcDbLine
 10
-32.80853053557439
 20
88.38033970128751
 30
0.0
 11
-32.45853053557494
 21
88.38033970128751
 31
0.0
  0
ARC
  5
25AF
330
1F
100
AcDbEntity
  8
DETAILS
 62
     6
370
    20
100
AcDbCircle
 10
-32.45853053557494
 20
88.33033970128733
 30
0.0
 40
0.0500000000001819
100
AcDbArc
 50
359.9999999998697
 51
90.0
  0
LINE
  5
25B0
330
1F
100
AcDbEntity
  8
DETAILS
 62
     6
370
    20
100
AcDbLine
 10
-32.40853053557476
 20
88.33033970128733
 30
0.0
 11
-32.40853053557567
 21
88.27533970128431
 31
0.0
  0
ARC
  5
25B1
330
1F
100
AcDbEntity
  8
DETAILS
 62
     6
370
    20
100
AcDbCircle
 10
-31.98353053557458
 20
88.27533970128431
 30
0.0
 40
0.4250000000001819
100
AcDbArc
 50
180.0
 51
270.0
  0
ARC
  5
25B2
330
1F
100
AcDbEntity
  8
DETAILS
 62
     6
370
    20
100
AcDbCircle
 10
-31.98353053557549
 20
88.27533970128431
 30
0.0
 40
0.4249999999997272
100
AcDbArc
 50
270.0000000000521
 51
0.0000000000521102
  0
LINE
  5
25B3
330
1F
100
AcDbEntity
  8
DETAILS
 62
     6
370
    20
100
AcDbLine
 10
-31.5585305355753
 20
88.27533970128431
 30
0.0
 11
-31.55853053557621
 21
88.33033970128733
 31
0.0
  0
ARC
  5
25B4
330
1F
100
AcDbEntity
  8
DETAILS
 62
     6
370
    20
100
AcDbCircle
 10
-31.50853053557603
 20
88.33033970128733
 30
0.0
 40
0.0500000000001819
100
AcDbArc
 50
90.0
 51
180.0
  0
LINE
  5
25B5
330
1F
100
AcDbEntity
  8
DETAILS
 62
     6
370
    20
100
AcDbLine
 10
-31.50853053557603
 20
88.38033970128751
 30
0.0
 11
-31.15853053557657
 21
88.38033970128751
 31
0.0
  0
ARC
  5
25B6
330
1F
100
AcDbEntity
  8
DETAILS
 62
     6
370
    20
100
AcDbCircle
 10
-31.15853053557657
 20
88.33033970128733
 30
0.0
 40
0.0500000000001819
100
AcDbArc
 50
0.000000000260551
 51
90.0
  0
LINE
  5
25B7
330
1F
100
AcDbEntity
  8
DETAILS
 62
     6
370
    20
100
AcDbLine
 10
-31.10853053557639
 20
88.33033970128733
 30
0.0
 11
-31.10853053557639
 21
88.27533970128703
 31
0.0
  0
ARC
  5
25B8
330
1F
100
AcDbEntity
  8
DETAILS
 62
     6
370
    20
100
AcDbCircle
 10
-30.68353053557621
 20
88.27533970128703
 30
0.0
 40
0.4249999999997272
100
AcDbArc
 50
180.000000000026
 51
0.0000000000260551
  0
LINE
  5
25B9
330
1F
100
AcDbEntity
  8
DETAILS
 62
     6
370
    20
100
AcDbLine
 10
-30.25853053557603
 20
88.27533970128749
 30
0.0
 11
-30.25853053557785
 21
88.33033970128733
 31
0.0
  0
ARC
  5
25BA
330
1F
100
AcDbEntity
  8
DETAILS
 62
     6
370
    20
100
AcDbCircle
 10
-30.20853053557676
 20
88.33033970128733
 30
0.0
 40
0.0500000000001819
100
AcDbArc
 50
90.0
 51
180.0
  0
LINE
  5
25BB
330
1F
100
AcDbEntity
  8
DETAILS
 62
     6
370
    20
100
AcDbLine
 10
-30.20853053557676
 20
88.38033970128751
 30
0.0
 11
-30.10853053557639
 21
88.38033970128751
 31
0.0
  0
LINE
  5
25BC
330
1F
100
AcDbEntity
  8
DETAILS
 62
     6
370
    20
100
AcDbLine
 10
-30.10853053557639
 20
88.38033970128751
 30
0.0
 11
-30.10853053557639
 21
88.4303397012877
 31
0.0
  0
LINE
  5
25BD
330
1F
100
AcDbEntity
  8
DETAILS
 62
     6
370
    20
100
AcDbLine
 10
-30.10853053557639
 20
88.4303397012877
 30
0.0
 11
-30.1011523231864
 21
88.4303397012877
 31
0.0
  0
LINE
  5
25BE
330
1F
100
AcDbEntity
  8
DETAILS
 62
     6
370
    20
100
AcDbLine
 10
-30.1011523231864
 20
88.4303397012877
 30
0.0
 11
-30.25853053557694
 21
88.4303397012877
 31
0.0
  0
ARC
  5
25BF
330
1F
100
AcDbEntity
  8
DETAILS
 62
     6
370
    20
100
AcDbCircle
 10
-30.25853053557694
 20
88.38033970128751
 30
0.0
 40
0.0500000000001819
100
AcDbArc
 50
90.0
 51
179.9999999998697
  0
LINE
  5
25C0
330
1F
100
AcDbEntity
  8
DETAILS
 62
     6
370
    20
100
AcDbLine
 10
-30.30853053557712
 20
88.38033970128751
 30
0.0
 11
-30.30853053557712
 21
88.27533970128749
 31
0.0
  0
ARC
  5
25C1
330
1F
100
AcDbEntity
  8
DETAILS
 62
     6
370
    20
100
AcDbCircle
 10
-30.68353053557712
 20
88.27533970128703
 30
0.0
 40
0.375
100
AcDbArc
 50
180.0
 51
0.0
  0
LINE
  5
25C2
330
1F
100
AcDbEntity
  8
DETAILS
 62
     6
370
    20
100
AcDbLine
 10
-31.05853053557712
 20
88.27533970128703
 30
0.0
 11
-31.05853053557712
 21
88.38033970128751
 31
0.0
  0
ARC
  5
25C3
330
1F
100
AcDbEntity
  8
DETAILS
 62
     6
370
    20
100
AcDbCircle
 10
-31.10853053557639
 20
88.38033970128751
 30
0.0
 40
0.0500000000001819
100
AcDbArc
 50
0.0000000001302755
 51
90.0
  0
LINE
  5
25C4
330
1F
100
AcDbEntity
  8
DETAILS
 62
     6
370
    20
100
AcDbLine
 10
-31.10853053557639
 20
88.4303397012877
 30
0.0
 11
-31.55853053557712
 21
88.4303397012877
 31
0.0
  0
ARC
  5
25C5
330
1F
100
AcDbEntity
  8
DETAILS
 62
     6
370
    20
100
AcDbCircle
 10
-31.55853053557712
 20
88.38033970128751
 30
0.0
 40
0.0500000000001251
100
AcDbArc
 50
90.0
 51
179.9999999998697
  0
LINE
  5
25C6
330
1F
100
AcDbEntity
  8
DETAILS
 62
     6
370
    20
100
AcDbLine
 10
-31.6085305355764
 20
88.38033970128751
 30
0.0
 11
-31.6085305355764
 21
88.27533970128431
 31
0.0
  0
ARC
  5
25C7
330
1F
100
AcDbEntity
  8
DETAILS
 62
     6
370
    20
100
AcDbCircle
 10
-31.98353053557549
 20
88.27533970128431
 30
0.0
 40
0.3749999999995452
100
AcDbArc
 50
270.0000000000521
 51
0.0000000000521102
  0
ARC
  5
25C8
330
1F
100
AcDbEntity
  8
DETAILS
 62
     6
370
    20
100
AcDbCircle
 10
-31.98353053557458
 20
88.27533970128431
 30
0.0
 40
0.3749999999998295
100
AcDbArc
 50
180.0
 51
269.9999999999479
  0
LINE
  5
25C9
330
1F
100
AcDbEntity
  8
DETAILS
 62
     6
370
    20
100
AcDbLine
 10
-32.35853053557458
 20
88.27533970128431
 30
0.0
 11
-32.35853053557458
 21
88.38033970128751
 31
0.0
  0
ARC
  5
25CA
330
1F
100
AcDbEntity
  8
DETAILS
 62
     6
370
    20
100
AcDbCircle
 10
-32.40853053557385
 20
88.38033970128751
 30
0.0
 40
0.0500000000001819
100
AcDbArc
 50
0.0000000001302755
 51
90.0
  0
LINE
  5
25CB
330
1F
100
AcDbEntity
  8
DETAILS
 62
     6
370
    20
100
AcDbLine
 10
-32.40853053557385
 20
88.4303397012877
 30
0.0
 11
-32.85853053557457
 21
88.4303397012877
 31
0.0
  0
ARC
  5
25CC
330
1F
100
AcDbEntity
  8
DETAILS
 62
     6
370
    20
100
AcDbCircle
 10
-32.85853053557457
 20
88.38033970128751
 30
0.0
 40
0.0500000000001819
100
AcDbArc
 50
90.0
 51
179.9999999998697
  0
LINE
  5
25CD
330
1F
100
AcDbEntity
  8
DETAILS
 62
     6
370
    20
100
AcDbLine
 10
-32.90853053557384
 20
88.38033970128751
 30
0.0
 11
-32.90853053557384
 21
88.27533970128703
 31
0.0
  0
ARC
  5
25CE
330
1F
100
AcDbEntity
  8
DETAILS
 62
     6
370
    20
100
AcDbCircle
 10
-33.28353053557385
 20
88.27533970128703
 30
0.0
 40
0.3749999999995452
100
AcDbArc
 50
179.9999999999739
 51
0.0
  0
LINE
  5
25CF
330
1F
100
AcDbEntity
  8
DETAILS
 62
     6
370
    20
100
AcDbLine
 10
-33.65853053557385
 20
88.27533970128749
 30
0.0
 11
-33.65853053557385
 21
88.38033970128751
 31
0.0
  0
ARC
  5
25D0
330
1F
100
AcDbEntity
  8
DETAILS
 62
     6
370
    20
100
AcDbCircle
 10
-33.70853053557403
 20
88.38033970128751
 30
0.0
 40
0.0500000000001819
100
AcDbArc
 50
0.0000000001302755
 51
90.0
  0
LINE
  5
25D1
330
1F
100
AcDbEntity
  8
DETAILS
 62
     6
370
    20
100
AcDbLine
 10
-33.70853053557403
 20
88.4303397012877
 30
0.0
 11
-33.86590874796457
 21
88.4303397012877
 31
0.0
  0
LINE
  5
25D2
330
1F
100
AcDbEntity
  8
DETAILS
 62
     6
370
    20
100
AcDbLine
 10
-28.88353053557512
 20
82.9589183450507
 30
0.0
 11
-28.88353053557603
 21
80.95079849066904
 31
0.0
  0
LINE
  5
25D3
330
1F
100
AcDbEntity
  8
DETAILS
 62
     6
370
    20
100
AcDbLine
 10
-35.08353053557494
 20
80.95079849066904
 30
0.0
 11
-35.08353053557585
 21
82.9589183450507
 31
0.0
  0
LINE
  5
25D4
330
1F
100
AcDbEntity
  8
DETAILS
 62
     6
370
    20
100
AcDbLine
 10
-35.08353053557494
 20
90.88838969510968
 30
0.0
 11
-35.08353053557403
 21
89.72057073004677
 31
0.0
  0
LINE
  5
25D5
330
1F
100
AcDbEntity
  8
DETAILS
 62
     6
370
    20
100
AcDbLine
 10
-35.08353053557403
 20
89.72057073004677
 30
0.0
 11
-35.08353053557494
 21
82.95891834505116
 31
0.0
  0
ARC
  5
25D6
330
1F
100
AcDbEntity
  8
DETAILS
 62
     6
370
    20
100
AcDbCircle
 10
-34.98353053557548
 20
82.95891834505116
 30
0.0
 40
0.0999999999999091
100
AcDbArc
 50
135.0000000001474
 51
180.0000000001302
  0
LINE
  5
25D7
330
1F
100
AcDbEntity
  8
DETAILS
 62
     6
370
    20
100
AcDbLine
 10
-35.05424121369379
 20
83.02962902316947
 30
0.0
 11
-33.4024645183963
 21
84.70640571846521
 31
0.0
  0
ARC
  5
25D8
330
1F
100
AcDbEntity
  8
DETAILS
 62
     6
370
    20
100
AcDbCircle
 10
-33.29639850121839
 20
84.60033970128776
 30
0.0
 40
0.1499999999998163
100
AcDbArc
 50
90.0
 51
135.0000000000184
  0
LINE
  5
25D9
330
1F
100
AcDbEntity
  8
DETAILS
 62
     6
370
    20
100
AcDbLine
 10
-33.29639850121839
 20
84.75033970128739
 30
0.0
 11
-31.98353053557549
 21
84.75033970128739
 31
0.0
  0
LINE
  5
25DA
330
1F
100
AcDbEntity
  8
DETAILS
 62
     6
370
    20
100
AcDbLine
 10
-31.98353053557549
 20
84.75033970128739
 30
0.0
 11
-30.67066256993257
 21
84.75033970128739
 31
0.0
  0
ARC
  5
25DB
330
1F
100
AcDbEntity
  8
DETAILS
 62
     6
370
    20
100
AcDbCircle
 10
-30.67066256993257
 20
84.60033970128776
 30
0.0
 40
0.1499999999998067
100
AcDbArc
 50
44.99999999998157
 51
90.0
  0
LINE
  5
25DC
330
1F
100
AcDbEntity
  8
DETAILS
 62
     6
370
    20
100
AcDbLine
 10
-30.56459655275467
 20
84.70640571846521
 30
0.0
 11
-28.91281985745627
 21
83.02962902316947
 31
0.0
  0
ARC
  5
25DD
330
1F
100
AcDbEntity
  8
DETAILS
 62
     6
370
    20
100
AcDbCircle
 10
-28.98353053557548
 20
82.95891834505116
 30
0.0
 40
0.0999999999999044
100
AcDbArc
 50
359.9999999998958
 51
44.99999999985261
  0
LINE
  5
25DE
330
1F
100
AcDbEntity
  8
DETAILS
 62
     6
370
    20
100
AcDbLine
 10
-28.88353053557512
 20
82.95891834505116
 30
0.0
 11
-28.88353053557694
 21
89.72057073004677
 31
0.0
  0
LINE
  5
25DF
330
1F
100
AcDbEntity
  8
DETAILS
 62
     6
370
    20
100
AcDbLine
 10
-28.88353053557694
 20
89.72057073004677
 30
0.0
 11
-28.88353053557512
 21
91.69988091190541
 31
0.0
  0
ARC
  5
25E0
330
1F
100
AcDbEntity
  8
DETAILS
 62
     6
370
    20
100
AcDbCircle
 10
-28.83353053557584
 20
91.69988091190541
 30
0.0
 40
0.0500000000001819
100
AcDbArc
 50
149.9999999997345
 51
179.9999999997394
  0
LINE
  5
25E1
330
1F
100
AcDbEntity
  8
DETAILS
 62
     6
370
    20
100
AcDbLine
 10
-28.87683180576459
 20
91.72488091190595
 30
0.0
 11
-28.81774539151593
 21
91.82722158342036
 31
0.0
  0
LINE
  5
25E2
330
1F
100
AcDbEntity
  8
DETAILS
 62
     6
370
    20
100
AcDbLine
 10
-28.81774539151593
 20
91.82722158342036
 30
0.0
 11
-28.73114285113843
 21
91.77722158342064
 31
0.0
  0
LINE
  5
25E3
330
1F
100
AcDbEntity
  8
DETAILS
 62
     6
370
    20
100
AcDbLine
 10
-28.73114285113843
 20
91.77722158342064
 30
0.0
 11
-28.77683180576423
 21
91.69808599266113
 31
0.0
  0
ARC
  5
25E4
330
1F
100
AcDbEntity
  8
DETAILS
 62
     6
370
    20
100
AcDbCircle
 10
-28.73353053557548
 20
91.67308599266059
 30
0.0
 40
0.0500000000002004
100
AcDbArc
 50
149.999999999547
 51
179.999999999531
  0
LINE
  5
25E5
330
1F
100
AcDbEntity
  8
DETAILS
 62
     6
370
    20
100
AcDbLine
 10
-28.78353053557566
 20
91.67308599266105
 30
0.0
 11
-28.78353053557566
 21
91.63648345228327
 31
0.0
  0
LINE
  5
25E6
330
1F
100
AcDbEntity
  8
DETAILS
 62
     6
370
    20
100
AcDbLine
 10
-29.3585305355773
 20
87.0703397012871
 30
0.0
 11
-29.35853053557821
 21
87.61136274702355
 31
0.0
  0
ARC
  5
25E7
330
1F
100
AcDbEntity
  8
DETAILS
 62
     6
370
    20
100
AcDbCircle
 10
-29.45853053557767
 20
87.61136274702355
 30
0.0
 40
0.0999999999999091
100
AcDbArc
 50
0.0
 51
136.1691393279388
  0
LINE
  5
25E8
330
1F
100
AcDbEntity
  8
DETAILS
 62
     6
370
    20
100
AcDbLine
 10
-29.53066926768133
 20
87.68061592984256
 30
0.0
 11
-30.05005139158766
 21
87.13959288410611
 31
0.0
  0
ARC
  5
25E9
330
1F
100
AcDbEntity
  8
DETAILS
 62
     6
370
    20
100
AcDbCircle
 10
-29.97791265948399
 20
87.07033970128756
 30
0.0
 40
0.1000000000000336
100
AcDbArc
 50
136.1691393279939
 51
270.0
  0
LINE
  5
25EA
330
1F
100
AcDbEntity
  8
DETAILS
 62
     6
370
    20
100
AcDbLine
 10
-29.97791265948399
 20
86.97033970128766
 30
0.0
 11
-29.45853053557676
 21
86.97033970128766
 31
0.0
  0
ARC
  5
25EB
330
1F
100
AcDbEntity
  8
DETAILS
 62
     6
370
    20
100
AcDbCircle
 10
-29.45853053557767
 20
87.07033970128756
 30
0.0
 40
0.1000000000001364
100
AcDbArc
 50
270.0000000002606
 51
359.9999999998958
  0
LINE
  5
25EC
330
1F
100
AcDbEntity
  8
DETAILS
 62
     6
370
    20
100
AcDbLine
 10
-29.45853053557676
 20
85.6503397012875
 30
0.0
 11
-29.97791265948399
 21
85.6503397012875
 31
0.0
  0
ARC
  5
25ED
330
1F
100
AcDbEntity
  8
DETAILS
 62
     6
370
    20
100
AcDbCircle
 10
-29.97791265948399
 20
85.55033970128759
 30
0.0
 40
0.1000000000000227
100
AcDbArc
 50
90.0
 51
223.830860672006
  0
LINE
  5
25EE
330
1F
100
AcDbEntity
  8
DETAILS
 62
     6
370
    20
100
AcDbLine
 10
-30.05005139158766
 20
85.48108651846858
 30
0.0
 11
-29.53066926768133
 21
84.94006347273259
 31
0.0
  0
ARC
  5
25EF
330
1F
100
AcDbEntity
  8
DETAILS
 62
     6
370
    20
100
AcDbCircle
 10
-29.45853053557767
 20
85.00931665555114
 30
0.0
 40
0.1000000000000336
100
AcDbArc
 50
223.830860672006
 51
0.0000000000260551
  0
LINE
  5
25F0
330
1F
100
AcDbEntity
  8
DETAILS
 62
     6
370
    20
100
AcDbLine
 10
-29.35853053557821
 20
85.00931665555114
 30
0.0
 11
-29.3585305355773
 21
85.55033970128759
 31
0.0
  0
ARC
  5
25F1
330
1F
100
AcDbEntity
  8
DETAILS
 62
     6
370
    20
100
AcDbCircle
 10
-29.45853053557767
 20
85.55033970128713
 30
0.0
 40
0.1000000000003638
100
AcDbArc
 50
0.0000000001042204
 51
89.99999999973944
  0
LINE
  5
25F2
330
1F
100
AcDbEntity
  8
0
 62
     1
100
AcDbLine
 10
-28.88353053557421
 20
92.05033970128758
 30
0.0
 11
-26.25853053557512
 21
92.05033970128758
 31
0.0
  0
LINE
  5
25F3
330
1F
100
AcDbEntity
  8
0
 62
     1
100
AcDbLine
 10
-28.88353053557421
 20
92.55033970128758
 30
0.0
 11
-28.88353053557421
 21
92.05033970128758
 31
0.0
  0
LINE
  5
25F4
330
1F
100
AcDbEntity
  8
0
  6
HIDDEN
 62
     1
 48
0.02
100
AcDbLine
 10
-26.60853053557275
 20
92.55033970128758
 30
0.0
 11
-26.60853053557275
 21
92.05033970128758
 31
0.0
  0
LINE
  5
25F5
330
1F
100
AcDbEntity
  8
0
  6
HIDDEN
 62
     1
 48
0.02
100
AcDbLine
 10
-28.25853053557421
 20
92.55033970128758
 30
0.0
 11
-28.25853053557421
 21
92.05033970128758
 31
0.0
  0
LINE
  5
25F6
330
1F
100
AcDbEntity
  8
0
  6
HIDDEN
 62
     1
 48
0.02
100
AcDbLine
 10
-27.23353053557275
 20
92.55033970128758
 30
0.0
 11
-27.23353053557275
 21
92.05033970128758
 31
0.0
  0
LINE
  5
25F7
330
1F
100
AcDbEntity
  8
0
  6
HIDDEN
 62
     1
 48
0.02
100
AcDbLine
 10
-28.88353053557421
 20
92.55033970128758
 30
0.0
 11
-28.25853053557421
 21
92.55033970128758
 31
0.0
  0
LINE
  5
25F8
330
1F
100
AcDbEntity
  8
0
  6
HIDDEN
 62
     1
 48
0.02
100
AcDbLine
 10
-27.23353053557275
 20
92.55033970128758
 30
0.0
 11
-26.60853053557275
 21
92.55033970128758
 31
0.0
  0
LINE
  5
25F9
330
1F
100
AcDbEntity
  8
0
  6
HIDDEN
 62
     1
 48
0.02
100
AcDbLine
 10
-28.68353053557348
 20
92.30033970128758
 30
0.0
 11
-28.68353053557348
 21
92.05033970128758
 31
0.0
  0
LINE
  5
25FA
330
1F
100
AcDbEntity
  8
0
  6
HIDDEN
 62
     1
 48
0.02
100
AcDbLine
 10
-28.43353053557348
 20
92.30033970128758
 30
0.0
 11
-28.43353053557348
 21
92.05033970128758
 31
0.0
  0
LINE
  5
25FB
330
1F
100
AcDbEntity
  8
0
  6
HIDDEN
 62
     1
 48
0.02
100
AcDbLine
 10
-28.68353053557348
 20
92.30033970128758
 30
0.0
 11
-28.43353053557348
 21
92.30033970128758
 31
0.0
  0
LINE
  5
25FC
330
1F
100
AcDbEntity
  8
0
 62
     1
100
AcDbLine
 10
-37.70853053557494
 20
80.05033970128758
 30
0.0
 11
-35.08353053557494
 21
80.05033970128758
 31
0.0
  0
LINE
  5
25FD
330
1F
100
AcDbEntity
  8
0
 62
     1
100
AcDbLine
 10
-37.70853053557494
 20
80.05033970128758
 30
0.0
 11
-35.53353053557476
 21
80.05033970128758
 31
0.0
  0
LINE
  5
25FE
330
1F
100
AcDbEntity
  8
0
 62
     1
100
AcDbLine
 10
-35.28353053557566
 20
80.05033970128758
 30
0.0
 11
-35.08353053557585
 21
80.05033970128758
 31
0.0
  0
LINE
  5
25FF
330
1F
100
AcDbEntity
  8
0
 48
0.15
100
AcDbLine
 10
-36.73353053557458
 20
80.05033970128758
 30
0.0
 11
-35.70853053557494
 21
80.05033970128758
 31
0.0
  0
LINE
  5
2600
330
1F
100
AcDbEntity
  8
0
 62
     1
100
AcDbLine
 10
-35.65853053557475
 20
80.05033970128758
 30
0.0
 11
-36.78353053557567
 21
80.05033970128758
 31
0.0
  0
LINE
  5
2601
330
1F
100
AcDbEntity
  8
0
 62
     1
100
AcDbLine
 10
-37.70853053557494
 20
80.0503516717849
 30
0.0
 11
-35.53353053557476
 21
80.0503516717849
 31
0.0
  0
LINE
  5
2602
330
1F
100
AcDbEntity
  8
0
 62
     1
100
AcDbLine
 10
-37.35853053557458
 20
80.55035167178491
 30
0.0
 11
-36.73353053557458
 21
80.55035167178491
 31
0.0
  0
LINE
  5
2603
330
1F
100
AcDbEntity
  8
0
 62
     1
100
AcDbLine
 10
-35.70853053557494
 20
80.55035167178491
 30
0.0
 11
-35.70853053557585
 21
80.0503516717849
 31
0.0
  0
LINE
  5
2604
330
1F
100
AcDbEntity
  8
0
 62
     1
100
AcDbLine
 10
-36.73353053557458
 20
80.55035167178491
 30
0.0
 11
-36.73353053557458
 21
80.0503516717849
 31
0.0
  0
LINE
  5
2605
330
1F
100
AcDbEntity
  8
0
 62
     1
100
AcDbLine
 10
-35.70853053557585
 20
80.55035167178491
 30
0.0
 11
-35.08353053557585
 21
80.55035167178491
 31
0.0
  0
LINE
  5
2606
330
1F
100
AcDbEntity
  8
0
 62
     1
100
AcDbLine
 10
-35.53353053557567
 20
80.30035167178491
 30
0.0
 11
-35.53353053557567
 21
80.0503516717849
 31
0.0
  0
LINE
  5
2607
330
1F
100
AcDbEntity
  8
0
 62
     1
100
AcDbLine
 10
-35.53353053557567
 20
80.30035167178491
 30
0.0
 11
-35.28353053557566
 21
80.30035167178491
 31
0.0
  0
LINE
  5
2608
330
1F
100
AcDbEntity
  8
0
 62
     1
100
AcDbLine
 10
-35.28353053557566
 20
80.0503516717849
 30
0.0
 11
-35.08353053557585
 21
80.0503516717849
 31
0.0
  0
LINE
  5
2609
330
1F
100
AcDbEntity
  8
0
 48
0.15
100
AcDbLine
 10
-36.73353053557458
 20
80.0503516717849
 30
0.0
 11
-35.70853053557494
 21
80.0503516717849
 31
0.0
  0
LINE
  5
260A
330
1F
100
AcDbEntity
  8
0
 62
     1
100
AcDbLine
 10
-35.65853053557475
 20
80.0503516717849
 30
0.0
 11
-36.78353053557567
 21
80.0503516717849
 31
0.0
  0
LINE
  5
260B
330
1F
100
AcDbEntity
  8
0
 62
     1
100
AcDbLine
 10
-26.60853053557457
 20
80.55035167178491
 30
0.0
 11
-26.60853053557457
 21
80.0503516717849
 31
0.0
  0
LINE
  5
260C
330
1F
100
AcDbEntity
  8
0
 62
     1
100
AcDbLine
 10
-28.25853053557603
 20
80.55035167178491
 30
0.0
 11
-28.25853053557603
 21
80.0503516717849
 31
0.0
  0
LINE
  5
260D
330
1F
100
AcDbEntity
  8
0
 62
     1
100
AcDbLine
 10
-27.23353053557457
 20
80.55035167178491
 30
0.0
 11
-27.23353053557457
 21
80.0503516717849
 31
0.0
  0
LINE
  5
260E
330
1F
100
AcDbEntity
  8
0
 62
     1
100
AcDbLine
 10
-28.88353053557603
 20
80.55035167178491
 30
0.0
 11
-28.25853053557603
 21
80.55035167178491
 31
0.0
  0
LINE
  5
260F
330
1F
100
AcDbEntity
  8
0
 62
     1
100
AcDbLine
 10
-27.23353053557457
 20
80.55035167178491
 30
0.0
 11
-26.60853053557457
 21
80.55035167178491
 31
0.0
  0
LINE
  5
2610
330
1F
100
AcDbEntity
  8
0
 62
     1
100
AcDbLine
 10
-28.4335305355753
 20
80.30035167178491
 30
0.0
 11
-28.4335305355753
 21
80.0503516717849
 31
0.0
  0
LINE
  5
2611
330
1F
100
AcDbEntity
  8
0
 62
     1
100
AcDbLine
 10
-28.6835305355753
 20
80.30035167178491
 30
0.0
 11
-28.4335305355753
 21
80.30035167178491
 31
0.0
  0
LINE
  5
2612
330
1F
100
AcDbEntity
  8
0
 62
     1
100
AcDbLine
 10
-28.46853053557516
 20
80.0503516717849
 30
0.0
 11
-26.25853053557512
 21
80.0503516717849
 31
0.0
  0
LINE
  5
2613
330
1F
100
AcDbEntity
  8
0
 62
     1
100
AcDbLine
 10
-28.88353053557603
 20
80.0503516717849
 30
0.0
 11
-28.6835305355753
 21
80.0503516717849
 31
0.0
  0
LINE
  5
2614
330
1F
100
AcDbEntity
  8
0
 62
     1
100
AcDbLine
 10
-37.70853053557494
 20
80.0503516717849
 30
0.0
 11
-35.08353053557494
 21
80.0503516717849
 31
0.0
  0
LINE
  5
2615
330
1F
100
AcDbEntity
  8
0
 62
     1
100
AcDbLine
 10
-35.08353053557494
 20
80.55035167178491
 30
0.0
 11
-35.08353053557494
 21
80.0503516717849
 31
0.0
  0
LINE
  5
2616
330
1F
100
AcDbEntity
  8
0
  6
HIDDEN
 62
     1
 48
0.02
100
AcDbLine
 10
-37.35853053557458
 20
80.55035167178491
 30
0.0
 11
-36.73353053557458
 21
80.55035167178491
 31
0.0
  0
LINE
  5
2617
330
1F
100
AcDbEntity
  8
0
  6
HIDDEN
 62
     1
 48
0.02
100
AcDbLine
 10
-37.35853053557458
 20
80.55035167178491
 30
0.0
 11
-37.35853053557458
 21
80.0503516717849
 31
0.0
  0
LINE
  5
2618
330
1F
100
AcDbEntity
  8
0
  6
HIDDEN
 62
     1
 48
0.02
100
AcDbLine
 10
-35.70853053557494
 20
80.55035167178491
 30
0.0
 11
-35.70853053557585
 21
80.0503516717849
 31
0.0
  0
LINE
  5
2619
330
1F
100
AcDbEntity
  8
0
  6
HIDDEN
 62
     1
 48
0.02
100
AcDbLine
 10
-36.73353053557458
 20
80.55035167178491
 30
0.0
 11
-36.73353053557458
 21
80.0503516717849
 31
0.0
  0
LINE
  5
261A
330
1F
100
AcDbEntity
  8
0
  6
HIDDEN
 62
     1
 48
0.02
100
AcDbLine
 10
-35.70853053557585
 20
80.55035167178491
 30
0.0
 11
-35.08353053557585
 21
80.55035167178491
 31
0.0
  0
LINE
  5
261B
330
1F
100
AcDbEntity
  8
0
 62
     1
100
AcDbLine
 10
-28.88353053557421
 20
80.0503516717849
 30
0.0
 11
-26.25853053557512
 21
80.0503516717849
 31
0.0
  0
LINE
  5
261C
330
1F
100
AcDbEntity
  8
0
 62
     1
100
AcDbLine
 10
-28.88353053557421
 20
80.55035167178491
 30
0.0
 11
-28.88353053557421
 21
80.0503516717849
 31
0.0
  0
LINE
  5
261D
330
1F
100
AcDbEntity
  8
0
  6
HIDDEN
 62
     1
 48
0.02
100
AcDbLine
 10
-26.60853053557275
 20
80.55035167178491
 30
0.0
 11
-26.60853053557275
 21
80.0503516717849
 31
0.0
  0
LINE
  5
261E
330
1F
100
AcDbEntity
  8
0
  6
HIDDEN
 62
     1
 48
0.02
100
AcDbLine
 10
-28.25853053557421
 20
80.55035167178491
 30
0.0
 11
-28.25853053557421
 21
80.0503516717849
 31
0.0
  0
LINE
  5
261F
330
1F
100
AcDbEntity
  8
0
  6
HIDDEN
 62
     1
 48
0.02
100
AcDbLine
 10
-27.23353053557275
 20
80.55035167178491
 30
0.0
 11
-27.23353053557275
 21
80.0503516717849
 31
0.0
  0
LINE
  5
2620
330
1F
100
AcDbEntity
  8
0
  6
HIDDEN
 62
     1
 48
0.02
100
AcDbLine
 10
-28.88353053557421
 20
80.55035167178491
 30
0.0
 11
-28.25853053557421
 21
80.55035167178491
 31
0.0
  0
LINE
  5
2621
330
1F
100
AcDbEntity
  8
0
  6
HIDDEN
 62
     1
 48
0.02
100
AcDbLine
 10
-27.23353053557275
 20
80.55035167178491
 30
0.0
 11
-26.60853053557275
 21
80.55035167178491
 31
0.0
  0
LINE
  5
2622
330
1F
100
AcDbEntity
  8
0
  6
HIDDEN
 62
     1
 48
0.02
100
AcDbLine
 10
-28.68353053557348
 20
80.30035167178491
 30
0.0
 11
-28.68353053557348
 21
80.0503516717849
 31
0.0
  0
LINE
  5
2623
330
1F
100
AcDbEntity
  8
0
  6
HIDDEN
 62
     1
 48
0.02
100
AcDbLine
 10
-28.43353053557348
 20
80.30035167178491
 30
0.0
 11
-28.43353053557348
 21
80.0503516717849
 31
0.0
  0
LINE
  5
2624
330
1F
100
AcDbEntity
  8
0
  6
HIDDEN
 62
     1
 48
0.02
100
AcDbLine
 10
-28.68353053557348
 20
80.30035167178491
 30
0.0
 11
-28.43353053557348
 21
80.30035167178491
 31
0.0
  0
ARC
  5
2625
330
1F
100
AcDbEntity
  8
DETAILS
 62
     6
370
    20
100
AcDbCircle
 10
-28.83353053557767
 20
80.9508104611668
 30
0.0
 40
0.0499999999997272
100
AcDbArc
 50
180.0000000004429
 51
210.0000000006405
  0
LINE
  5
2626
330
1F
100
AcDbEntity
  8
DETAILS
 62
     6
370
    20
100
AcDbLine
 10
-28.87683180576642
 20
80.92581046116672
 30
0.0
 11
-28.81774539151866
 21
80.82346978965185
 31
0.0
  0
LINE
  5
2627
330
1F
100
AcDbEntity
  8
DETAILS
 62
     6
370
    20
100
AcDbLine
 10
-28.81774539151866
 20
80.82346978965185
 30
0.0
 11
-28.73114285114025
 21
80.87346978965204
 31
0.0
  0
LINE
  5
2628
330
1F
100
AcDbEntity
  8
DETAILS
 62
     6
370
    20
100
AcDbLine
 10
-28.73114285114025
 20
80.87346978965204
 30
0.0
 11
-28.77683180576696
 21
80.95260538041063
 31
0.0
  0
ARC
  5
2629
330
1F
100
AcDbEntity
  8
DETAILS
 62
     6
370
    20
100
AcDbCircle
 10
-28.73353053557821
 20
80.97760538041118
 30
0.0
 40
0.0499999999997213
100
AcDbArc
 50
180.0000000003126
 51
210.0000000005468
  0
LINE
  5
262A
330
1F
100
AcDbEntity
  8
DETAILS
 62
     6
370
    20
100
AcDbLine
 10
-28.7835305355784
 20
80.97760538041118
 30
0.0
 11
-28.78353053557749
 21
81.0142079207894
 31
0.0
  0
LINE
  5
262B
330
1F
100
AcDbEntity
  8
DETAILS
 62
     6
370
    20
100
AcDbLine
 10
-35.1835305355753
 20
81.01420792078849
 30
0.0
 11
-35.1835305355753
 21
80.97760538041118
 31
0.0
  0
ARC
  5
262C
330
1F
100
AcDbEntity
  8
DETAILS
 62
     6
370
    20
100
AcDbCircle
 10
-35.23353053557548
 20
80.97760538041118
 30
0.0
 40
0.0499999999997272
100
AcDbArc
 50
329.9999999994532
 51
359.9999999996613
  0
LINE
  5
262D
330
1F
100
AcDbEntity
  8
DETAILS
 62
     6
370
    20
100
AcDbLine
 10
-35.19022926538673
 20
80.95260538041063
 30
0.0
 11
-35.23591822001345
 21
80.87346978965113
 31
0.0
  0
LINE
  5
262E
330
1F
100
AcDbEntity
  8
DETAILS
 62
     6
370
    20
100
AcDbLine
 10
-35.23591822001345
 20
80.87346978965113
 30
0.0
 11
-35.14931567963504
 21
80.82346978965185
 31
0.0
  0
LINE
  5
262F
330
1F
100
AcDbEntity
  8
DETAILS
 62
     6
370
    20
100
AcDbLine
 10
-35.14931567963504
 20
80.82346978965185
 30
0.0
 11
-35.09022926538728
 21
80.92581046116672
 31
0.0
  0
ARC
  5
2630
330
1F
100
AcDbEntity
  8
DETAILS
 62
     6
370
    20
100
AcDbCircle
 10
-35.13353053557603
 20
80.9508104611668
 30
0.0
 40
0.0499999999997782
100
AcDbArc
 50
329.9999999993595
 51
359.999999999531
  0
LINE
  5
2631
330
1F
100
AcDbEntity
  8
0
 62
     1
100
AcDbLine
 10
-26.60853053557457
 20
92.5503516717849
 30
0.0
 11
-26.60853053557457
 21
92.05035167178492
 31
0.0
  0
LINE
  5
2632
330
1F
100
AcDbEntity
  8
0
 62
     1
100
AcDbLine
 10
-28.25853053557603
 20
92.5503516717849
 30
0.0
 11
-28.25853053557603
 21
92.05035167178492
 31
0.0
  0
LINE
  5
2633
330
1F
100
AcDbEntity
  8
0
 62
     1
100
AcDbLine
 10
-27.23353053557457
 20
92.5503516717849
 30
0.0
 11
-27.23353053557457
 21
92.05035167178492
 31
0.0
  0
LINE
  5
2634
330
1F
100
AcDbEntity
  8
0
 62
     1
100
AcDbLine
 10
-28.88353053557603
 20
92.5503516717849
 30
0.0
 11
-28.25853053557603
 21
92.5503516717849
 31
0.0
  0
LINE
  5
2635
330
1F
100
AcDbEntity
  8
0
 62
     1
100
AcDbLine
 10
-27.23353053557457
 20
92.5503516717849
 30
0.0
 11
-26.60853053557457
 21
92.5503516717849
 31
0.0
  0
LINE
  5
2636
330
1F
100
AcDbEntity
  8
0
 62
     1
100
AcDbLine
 10
-28.4335305355753
 20
92.3003516717849
 30
0.0
 11
-28.4335305355753
 21
92.05035167178492
 31
0.0
  0
LINE
  5
2637
330
1F
100
AcDbEntity
  8
0
 62
     1
100
AcDbLine
 10
-28.6835305355753
 20
92.3003516717849
 30
0.0
 11
-28.4335305355753
 21
92.3003516717849
 31
0.0
  0
LINE
  5
2638
330
1F
100
AcDbEntity
  8
0
 62
     1
100
AcDbLine
 10
-28.46853053557516
 20
92.05035167178492
 30
0.0
 11
-26.25853053557512
 21
92.05035167178492
 31
0.0
  0
LINE
  5
2639
330
1F
100
AcDbEntity
  8
0
 62
     1
100
AcDbLine
 10
-28.88353053557603
 20
92.05035167178492
 30
0.0
 11
-28.6835305355753
 21
92.05035167178492
 31
0.0
  0
LINE
  5
263A
330
1F
100
AcDbEntity
  8
0
 62
     1
100
AcDbLine
 10
-28.88353053557421
 20
92.05035167178492
 30
0.0
 11
-26.25853053557512
 21
92.05035167178492
 31
0.0
  0
LINE
  5
263B
330
1F
100
AcDbEntity
  8
0
 62
     1
100
AcDbLine
 10
-28.88353053557421
 20
92.5503516717849
 30
0.0
 11
-28.88353053557421
 21
92.05035167178492
 31
0.0
  0
LINE
  5
263C
330
1F
100
AcDbEntity
  8
0
  6
HIDDEN
 62
     1
 48
0.02
100
AcDbLine
 10
-26.60853053557275
 20
92.5503516717849
 30
0.0
 11
-26.60853053557275
 21
92.05035167178492
 31
0.0
  0
LINE
  5
263D
330
1F
100
AcDbEntity
  8
0
  6
HIDDEN
 62
     1
 48
0.02
100
AcDbLine
 10
-28.25853053557421
 20
92.5503516717849
 30
0.0
 11
-28.25853053557421
 21
92.05035167178492
 31
0.0
  0
LINE
  5
263E
330
1F
100
AcDbEntity
  8
0
  6
HIDDEN
 62
     1
 48
0.02
100
AcDbLine
 10
-27.23353053557275
 20
92.5503516717849
 30
0.0
 11
-27.23353053557275
 21
92.05035167178492
 31
0.0
  0
LINE
  5
263F
330
1F
100
AcDbEntity
  8
0
  6
HIDDEN
 62
     1
 48
0.02
100
AcDbLine
 10
-28.88353053557421
 20
92.5503516717849
 30
0.0
 11
-28.25853053557421
 21
92.5503516717849
 31
0.0
  0
LINE
  5
2640
330
1F
100
AcDbEntity
  8
0
  6
HIDDEN
 62
     1
 48
0.02
100
AcDbLine
 10
-27.23353053557275
 20
92.5503516717849
 30
0.0
 11
-26.60853053557275
 21
92.5503516717849
 31
0.0
  0
LINE
  5
2641
330
1F
100
AcDbEntity
  8
0
  6
HIDDEN
 62
     1
 48
0.02
100
AcDbLine
 10
-28.68353053557348
 20
92.3003516717849
 30
0.0
 11
-28.68353053557348
 21
92.05035167178492
 31
0.0
  0
LINE
  5
2642
330
1F
100
AcDbEntity
  8
0
  6
HIDDEN
 62
     1
 48
0.02
100
AcDbLine
 10
-28.43353053557348
 20
92.3003516717849
 30
0.0
 11
-28.43353053557348
 21
92.05035167178492
 31
0.0
  0
LINE
  5
2643
330
1F
100
AcDbEntity
  8
0
  6
HIDDEN
 62
     1
 48
0.02
100
AcDbLine
 10
-28.68353053557348
 20
92.3003516717849
 30
0.0
 11
-28.43353053557348
 21
92.3003516717849
 31
0.0
  0
LWPOLYLINE
  5
2644
330
1F
100
AcDbEntity
  8
0
 48
0.15
100
AcDbPolyline
 90
        2
 70
     1
 43
0.25
 10
-33.40853053557385
 20
76.27531576029193
 42
1.0
 10
-33.15853053557385
 20
76.27531576029193
 42
1.0
  0
LWPOLYLINE
  5
2645
330
1F
100
AcDbEntity
  8
0
 48
0.15
100
AcDbPolyline
 90
        2
 70
     1
 43
0.25
 10
-30.80853053557712
 20
76.27531576029193
 42
1.0
 10
-30.55853053557712
 20
76.27531576029193
 42
1.0
  0
LWPOLYLINE
  5
2646
330
1F
100
AcDbEntity
  8
0
 48
0.15
100
AcDbPolyline
 90
        2
 70
     1
 43
0.25
 10
-33.40853053557385
 20
72.20953062951
 42
1.0
 10
-33.15853053557385
 20
72.20953062951
 42
1.0
  0
LWPOLYLINE
  5
2647
330
1F
100
AcDbEntity
  8
0
 48
0.15
100
AcDbPolyline
 90
        2
 70
     1
 43
0.25
 10
-30.80853053557712
 20
72.20953062951
 42
1.0
 10
-30.55853053557712
 20
72.20953062951
 42
1.0
  0
ENDSEC
  0
SECTION
  2
OBJECTS
  0
DICTIONARY
  5
C
330
0
100
AcDbDictionary
281
     1
  3
ACAD_COLOR
350
73
  3
ACAD_GROUP
350
D
  3
ACAD_LAYOUT
350
1A
  3
ACAD_MATERIAL
350
72
  3
ACAD_MLINESTYLE
350
17
  3
ACAD_PLOTSETTINGS
350
19
  3
ACAD_PLOTSTYLENAME
350
E
  3
ACDBHEADERROUNDTRIPXREC
350
2649
  3
AcDbVariableDictionary
350
66
  0
DICTIONARY
  5
A4
330
2
100
AcDbDictionary
280
     1
281
     1
  3
ACAD_LAYERSTATES
360
A5
  0
DICTIONARY
  5
73
102
{ACAD_REACTORS
330
C
102
}
330
C
100
AcDbDictionary
281
     1
  0
DICTIONARY
  5
D
102
{ACAD_REACTORS
330
C
102
}
330
C
100
AcDbDictionary
281
     1
  0
DICTIONARY
  5
1A
102
{ACAD_REACTORS
330
C
102
}
330
C
100
AcDbDictionary
281
     1
  3
Layout1
350
59
  3
Layout2
350
5E
  3
Model
350
22
  0
DICTIONARY
  5
72
102
{ACAD_REACTORS
330
C
102
}
330
C
100
AcDbDictionary
281
     1
  0
DICTIONARY
  5
17
102
{ACAD_REACTORS
330
C
102
}
330
C
100
AcDbDictionary
281
     1
  3
Standard
350
18
  0
DICTIONARY
  5
19
102
{ACAD_REACTORS
330
C
102
}
330
C
100
AcDbDictionary
281
     1
  0
ACDBDICTIONARYWDFLT
  5
E
102
{ACAD_REACTORS
330
C
102
}
330
C
100
AcDbDictionary
281
     1
  3
Normal
350
F
100
AcDbDictionaryWithDefault
340
F
  0
DICTIONARY
  5
2649
102
{ACAD_REACTORS
330
C
102
}
330
C
100
AcDbDictionary
281
     1
  3
COLORDICT
350
264B
  3
MATERIALDICT
350
264A
  0
DICTIONARY
  5
66
102
{ACAD_REACTORS
330
C
102
}
330
C
100
AcDbDictionary
281
     1
  3
DIMASSOC
350
67
  3
HIDETEXT
350
6B
  3
PROJECTNAME
350
33A
  0
DICTIONARY
  5
A5
102
{ACAD_REACTORS
330
A4
102
}
330
A4
100
AcDbDictionary
281
     1
  0
LAYOUT
  5
59
102
{ACAD_XDICTIONARY
360
264E
102
}
102
{ACAD_REACTORS
330
1A
102
}
330
1A
100
AcDbPlotSettings
  1

  2
None
  4

  6

 40
0.0
 41
0.0
 42
0.0
 43
0.0
 44
0.0
 45
0.0
 46
0.0
 47
0.0
 48
0.0
 49
0.0
140
0.0
141
0.0
142
1.0
143
1.0
 70
   688
 72
     0
 73
     0
 74
     5
  7

 75
    16
147
1.0
148
0.0
149
0.0
100
AcDbLayout
  1
Layout1
 70
     1
 71
     1
 10
0.0
 20
0.0
 11
12.0
 21
9.0
 12
0.0
 22
0.0
 32
0.0
 14
0.0
 24
0.0
 34
0.0
 15
0.0
 25
0.0
 35
0.0
146
0.0
 13
0.0
 23
0.0
 33
0.0
 16
1.0
 26
0.0
 36
0.0
 17
0.0
 27
1.0
 37
0.0
 76
     0
330
58
  0
LAYOUT
  5
5E
102
{ACAD_XDICTIONARY
360
2650
102
}
102
{ACAD_REACTORS
330
1A
102
}
330
1A
100
AcDbPlotSettings
  1

  2
None
  4

  6

 40
0.0
 41
0.0
 42
0.0
 43
0.0
 44
0.0
 45
0.0
 46
0.0
 47
0.0
 48
0.0
 49
0.0
140
0.0
141
0.0
142
1.0
143
1.0
 70
   688
 72
     0
 73
     0
 74
     5
  7

 75
    16
147
1.0
148
0.0
149
0.0
100
AcDbLayout
  1
Layout2
 70
     1
 71
     2
 10
0.0
 20
0.0
 11
12.0
 21
9.0
 12
0.0
 22
0.0
 32
0.0
 14
0.0
 24
0.0
 34
0.0
 15
0.0
 25
0.0
 35
0.0
146
0.0
 13
0.0
 23
0.0
 33
0.0
 16
1.0
 26
0.0
 36
0.0
 17
0.0
 27
1.0
 37
0.0
 76
     0
330
5D
  0
LAYOUT
  5
22
102
{ACAD_XDICTIONARY
360
264C
102
}
102
{ACAD_REACTORS
330
1A
102
}
330
1A
100
AcDbPlotSettings
  1

  2
none_device
  4
ANSI_A_(8.50_x_11.00_Inches)
  6

 40
6.349999904632568
 41
19.04999923706055
 42
6.350006103515625
 43
19.04998779296875
 44
215.8999938964844
 45
279.3999938964844
 46
0.0
 47
0.0
 48
0.0
 49
0.0
140
0.0
141
0.0
142
1.0
143
2.584895464708373
 70
 11952
 72
     0
 73
     1
 74
     0
  7

 75
     0
147
0.3868628397755418
148
0.0
149
0.0
100
AcDbLayout
  1
Model
 70
     1
 71
     0
 10
0.0
 20
0.0
 11
12.0
 21
9.0
 12
0.0
 22
0.0
 32
0.0
 14
0.0
 24
0.0
 34
0.0
 15
0.0
 25
0.0
 35
0.0
146
0.0
 13
0.0
 23
0.0
 33
0.0
 16
1.0
 26
0.0
 36
0.0
 17
0.0
 27
1.0
 37
0.0
 76
     0
330
1F
  0
MLINESTYLE
  5
18
102
{ACAD_REACTORS
330
17
102
}
330
17
100
AcDbMlineStyle
  2
STANDARD
 70
     0
  3

 62
   256
 51
90.0
 52
90.0
 71
     2
 49
0.5
 62
   256
  6
BYLAYER
 49
-0.5
 62
   256
  6
BYLAYER
  0
ACDBPLACEHOLDER
  5
F
102
{ACAD_REACTORS
330
E
102
}
330
E
  0
XRECORD
  5
264B
102
{ACAD_REACTORS
330
2649
102
}
330
2649
100
AcDbXrecord
280
     1
340
73
  0
XRECORD
  5
264A
102
{ACAD_REACTORS
330
2649
102
}
330
2649
100
AcDbXrecord
280
     1
340
72
  0
DICTIONARYVAR
  5
67
102
{ACAD_REACTORS
330
66
102
}
330
66
100
DictionaryVariables
280
     0
  1
2
  0
DICTIONARYVAR
  5
6B
102
{ACAD_REACTORS
330
66
102
}
330
66
100
DictionaryVariables
280
     0
  1
1
  0
DICTIONARYVAR
  5
33A
102
{ACAD_REACTORS
330
66
102
}
330
66
100
DictionaryVariables
280
     0
  1

  0
DICTIONARY
  5
264E
330
59
100
AcDbDictionary
280
     1
281
     1
  3
ACAD_XREC_ROUNDTRIP
360
264F
  0
DICTIONARY
  5
2650
330
5E
100
AcDbDictionary
280
     1
281
     1
  3
ACAD_XREC_ROUNDTRIP
360
2651
  0
DICTIONARY
  5
264C
330
22
100
AcDbDictionary
280
     1
281
     1
  3
ACAD_XREC_ROUNDTRIP
360
264D
  0
XRECORD
  5
264F
102
{ACAD_REACTORS
330
264E
102
}
330
264E
100
AcDbXrecord
280
     1
102
SHADEPLOT
 70
     0
102
SHADEPLOTRESLEVEL
 70
     2
102
SHADEPLOTCUSTOMDPI
 70
   300
  0
XRECORD
  5
2651
102
{ACAD_REACTORS
330
2650
102
}
330
2650
100
AcDbXrecord
280
     1
102
SHADEPLOT
 70
     0
102
SHADEPLOTRESLEVEL
 70
     2
102
SHADEPLOTCUSTOMDPI
 70
   300
  0
XRECORD
  5
264D
102
{ACAD_REACTORS
330
264C
102
}
330
264C
100
AcDbXrecord
280
     1
102
SHADEPLOT
 70
     0
102
SHADEPLOTRESLEVEL
 70
     2
102
SHADEPLOTCUSTOMDPI
 70
   300
  0
ENDSEC
  0
EOF
