  0
SECTION
  2
HEADER
  9
$ACADVER
  1
AC1015
  9
$ACADMAINTVER
 70
    20
  9
$DWGCODEPAGE
  3
ANSI_1252
  9
$INSBASE
 10
0.0
 20
0.0
 30
0.0
  9
$EXTMIN
 10
-215.1546277456447
 20
253.5860340655662
 30
-0.0000000349181948
  9
$EXTMAX
 10
-121.6858609752072
 20
326.9587270525311
 30
0.0000000814935746
  9
$LIMMIN
 10
0.0
 20
0.0
  9
$LIMMAX
 10
12.0
 20
9.0
  9
$ORTHOMODE
 70
     0
  9
$REGENMODE
 70
     1
  9
$FILLMODE
 70
     1
  9
$QTEXTMODE
 70
     0
  9
$MIRRTEXT
 70
     0
  9
$LTSCALE
 40
1.0
  9
$ATTMODE
 70
     1
  9
$TEXTSIZE
 40
0.2
  9
$TRACEWID
 40
0.05
  9
$TEXTSTYLE
  7
Standard
  9
$CLAYER
  8
0
  9
$CELTYPE
  6
ByLayer
  9
$CECOLOR
 62
   256
  9
$CELTSCALE
 40
1.0
  9
$DISPSILH
 70
     0
  9
$DIMSCALE
 40
1.0
  9
$DIMASZ
 40
0.18
  9
$DIMEXO
 40
0.0625
  9
$DIMDLI
 40
0.38
  9
$DIMRND
 40
0.0
  9
$DIMDLE
 40
0.0
  9
$DIMEXE
 40
0.18
  9
$DIMTP
 40
0.0
  9
$DIMTM
 40
0.0
  9
$DIMTXT
 40
0.18
  9
$DIMCEN
 40
0.09
  9
$DIMTSZ
 40
0.0
  9
$DIMTOL
 70
     0
  9
$DIMLIM
 70
     0
  9
$DIMTIH
 70
     1
  9
$DIMTOH
 70
     1
  9
$DIMSE1
 70
     0
  9
$DIMSE2
 70
     0
  9
$DIMTAD
 70
     0
  9
$DIMZIN
 70
     0
  9
$DIMBLK
  1

  9
$DIMASO
 70
     1
  9
$DIMSHO
 70
     1
  9
$DIMPOST
  1

  9
$DIMAPOST
  1

  9
$DIMALT
 70
     0
  9
$DIMALTD
 70
     2
  9
$DIMALTF
 40
25.4
  9
$DIMLFAC
 40
1.0
  9
$DIMTOFL
 70
     0
  9
$DIMTVP
 40
0.0
  9
$DIMTIX
 70
     0
  9
$DIMSOXD
 70
     0
  9
$DIMSAH
 70
     0
  9
$DIMBLK1
  1

  9
$DIMBLK2
  1

  9
$DIMSTYLE
  2
Standard
  9
$DIMCLRD
 70
     0
  9
$DIMCLRE
 70
     0
  9
$DIMCLRT
 70
     0
  9
$DIMTFAC
 40
1.0
  9
$DIMGAP
 40
0.09
  9
$DIMJUST
 70
     0
  9
$DIMSD1
 70
     0
  9
$DIMSD2
 70
     0
  9
$DIMTOLJ
 70
     1
  9
$DIMTZIN
 70
     0
  9
$DIMALTZ
 70
     0
  9
$DIMALTTZ
 70
     0
  9
$DIMUPT
 70
     0
  9
$DIMDEC
 70
     4
  9
$DIMTDEC
 70
     4
  9
$DIMALTU
 70
     2
  9
$DIMALTTD
 70
     2
  9
$DIMTXSTY
  7
Standard
  9
$DIMAUNIT
 70
     0
  9
$DIMADEC
 70
     0
  9
$DIMALTRND
 40
0.0
  9
$DIMAZIN
 70
     0
  9
$DIMDSEP
 70
    46
  9
$DIMATFIT
 70
     3
  9
$DIMFRAC
 70
     0
  9
$DIMLDRBLK
  1

  9
$DIMLUNIT
 70
     2
  9
$DIMLWD
 70
    -2
  9
$DIMLWE
 70
    -2
  9
$DIMTMOVE
 70
     0
  9
$LUNITS
 70
     2
  9
$LUPREC
 70
     4
  9
$SKETCHINC
 40
0.1
  9
$FILLETRAD
 40
0.0
  9
$AUNITS
 70
     0
  9
$AUPREC
 70
     0
  9
$MENU
  1
.
  9
$ELEVATION
 40
0.0
  9
$PELEVATION
 40
0.0
  9
$THICKNESS
 40
0.0
  9
$LIMCHECK
 70
     0
  9
$CHAMFERA
 40
0.0
  9
$CHAMFERB
 40
0.0
  9
$CHAMFERC
 40
0.0
  9
$CHAMFERD
 40
0.0
  9
$SKPOLY
 70
     0
  9
$TDCREATE
 40
2454861.564484954
  9
$TDUCREATE
 40
2454861.856151620
  9
$TDUPDATE
 40
2454861.584743820
  9
$TDUUPDATE
 40
2454861.876410486
  9
$TDINDWG
 40
0.0202639815
  9
$TDUSRTIMER
 40
0.0202618866
  9
$USRTIMER
 70
     1
  9
$ANGBASE
 50
0.0
  9
$ANGDIR
 70
     0
  9
$PDMODE
 70
     0
  9
$PDSIZE
 40
0.0
  9
$PLINEWID
 40
0.0
  9
$SPLFRAME
 70
     0
  9
$SPLINETYPE
 70
     6
  9
$SPLINESEGS
 70
     8
  9
$HANDSEED
  5
D15B
  9
$SURFTAB1
 70
     6
  9
$SURFTAB2
 70
     6
  9
$SURFTYPE
 70
     6
  9
$SURFU
 70
     6
  9
$SURFV
 70
     6
  9
$UCSBASE
  2

  9
$UCSNAME
  2

  9
$UCSORG
 10
0.0
 20
0.0
 30
0.0
  9
$UCSXDIR
 10
1.0
 20
0.0
 30
0.0
  9
$UCSYDIR
 10
0.0
 20
1.0
 30
0.0
  9
$UCSORTHOREF
  2

  9
$UCSORTHOVIEW
 70
     0
  9
$UCSORGTOP
 10
0.0
 20
0.0
 30
0.0
  9
$UCSORGBOTTOM
 10
0.0
 20
0.0
 30
0.0
  9
$UCSORGLEFT
 10
0.0
 20
0.0
 30
0.0
  9
$UCSORGRIGHT
 10
0.0
 20
0.0
 30
0.0
  9
$UCSORGFRONT
 10
0.0
 20
0.0
 30
0.0
  9
$UCSORGBACK
 10
0.0
 20
0.0
 30
0.0
  9
$PUCSBASE
  2

  9
$PUCSNAME
  2

  9
$PUCSORG
 10
0.0
 20
0.0
 30
0.0
  9
$PUCSXDIR
 10
1.0
 20
0.0
 30
0.0
  9
$PUCSYDIR
 10
0.0
 20
1.0
 30
0.0
  9
$PUCSORTHOREF
  2

  9
$PUCSORTHOVIEW
 70
     0
  9
$PUCSORGTOP
 10
0.0
 20
0.0
 30
0.0
  9
$PUCSORGBOTTOM
 10
0.0
 20
0.0
 30
0.0
  9
$PUCSORGLEFT
 10
0.0
 20
0.0
 30
0.0
  9
$PUCSORGRIGHT
 10
0.0
 20
0.0
 30
0.0
  9
$PUCSORGFRONT
 10
0.0
 20
0.0
 30
0.0
  9
$PUCSORGBACK
 10
0.0
 20
0.0
 30
0.0
  9
$USERI1
 70
     0
  9
$USERI2
 70
     0
  9
$USERI3
 70
     0
  9
$USERI4
 70
     0
  9
$USERI5
 70
     0
  9
$USERR1
 40
0.0
  9
$USERR2
 40
0.0
  9
$USERR3
 40
0.0
  9
$USERR4
 40
0.0
  9
$USERR5
 40
0.0
  9
$WORLDVIEW
 70
     1
  9
$SHADEDGE
 70
     3
  9
$SHADEDIF
 70
    70
  9
$TILEMODE
 70
     1
  9
$MAXACTVP
 70
    64
  9
$PINSBASE
 10
0.0
 20
0.0
 30
0.0
  9
$PLIMCHECK
 70
     0
  9
$PEXTMIN
 10
0.0
 20
0.0
 30
0.0
  9
$PEXTMAX
 10
0.0
 20
0.0
 30
0.0
  9
$PLIMMIN
 10
0.0
 20
0.0
  9
$PLIMMAX
 10
12.0
 20
9.0
  9
$UNITMODE
 70
     0
  9
$VISRETAIN
 70
     1
  9
$PLINEGEN
 70
     0
  9
$PSLTSCALE
 70
     1
  9
$TREEDEPTH
 70
  3020
  9
$CMLSTYLE
  2
Standard
  9
$CMLJUST
 70
     0
  9
$CMLSCALE
 40
1.0
  9
$PROXYGRAPHICS
 70
     1
  9
$MEASUREMENT
 70
     0
  9
$CELWEIGHT
370
    -1
  9
$ENDCAPS
280
     0
  9
$JOINSTYLE
280
     0
  9
$LWDISPLAY
290
     0
  9
$INSUNITS
 70
     1
  9
$HYPERLINKBASE
  1

  9
$STYLESHEET
  1

  9
$XEDIT
290
     1
  9
$CEPSNTYPE
380
     0
  9
$PSTYLEMODE
290
     1
  9
$FINGERPRINTGUID
  2
{FDEAD576-A652-11D2-9A35-0060089B3A3F}
  9
$VERSIONGUID
  2
{7851AA26-D2A5-46DD-BB18-5E83B903E7B3}
  9
$EXTNAMES
290
     1
  9
$PSVPSCALE
 40
0.0
  9
$OLESTARTUP
290
     0
  0
ENDSEC
  0
SECTION
  2
CLASSES
  0
CLASS
  1
ACDBDICTIONARYWDFLT
  2
AcDbDictionaryWithDefault
  3
ObjectDBX Classes
 90
        0
280
     0
281
     0
  0
CLASS
  1
ACDBPLACEHOLDER
  2
AcDbPlaceHolder
  3
ObjectDBX Classes
 90
        0
280
     0
281
     0
  0
CLASS
  1
LAYOUT
  2
AcDbLayout
  3
ObjectDBX Classes
 90
        0
280
     0
281
     0
  0
CLASS
  1
DICTIONARYVAR
  2
AcDbDictionaryVar
  3
ObjectDBX Classes
 90
        0
280
     0
281
     0
  0
CLASS
  1
SORTENTSTABLE
  2
AcDbSortentsTable
  3
ObjectDBX Classes
 90
        0
280
     0
281
     0
  0
ENDSEC
  0
SECTION
  2
TABLES
  0
TABLE
  2
VPORT
  5
8
330
0
100
AcDbSymbolTable
 70
    56
  0
VPORT
  5
D14D
330
8
100
AcDbSymbolTableRecord
100
AcDbViewportTableRecord
  2
*Active
 70
     0
 10
0.0
 20
0.0
 11
1.0
 21
1.0
 12
-168.4202443604259
 22
290.2723805590487
 13
0.0
 23
0.0
 14
0.5
 24
0.5
 15
0.5
 25
0.5
 16
0.0
 26
0.0
 36
1.0
 17
0.0
 27
0.0
 37
0.0
 40
73.90245972333289
 41
1.48433734939759
 42
50.0
 43
0.0
 44
0.0
 50
0.0
 51
0.0
 71
     0
 72
  1000
 73
     1
 74
     3
 75
     0
 76
     0
 77
     0
 78
     0
281
     0
 65
     1
110
0.0
120
0.0
130
0.0
111
1.0
121
0.0
131
0.0
112
0.0
122
1.0
132
0.0
 79
     0
146
0.0
  0
ENDTAB
  0
TABLE
  2
LTYPE
  5
5
330
0
100
AcDbSymbolTable
 70
     6
  0
LTYPE
  5
14
330
5
100
AcDbSymbolTableRecord
100
AcDbLinetypeTableRecord
  2
ByBlock
 70
     0
  3

 72
    65
 73
     0
 40
0.0
  0
LTYPE
  5
15
330
5
100
AcDbSymbolTableRecord
100
AcDbLinetypeTableRecord
  2
ByLayer
 70
     0
  3

 72
    65
 73
     0
 40
0.0
  0
LTYPE
  5
16
330
5
100
AcDbSymbolTableRecord
100
AcDbLinetypeTableRecord
  2
Continuous
 70
     0
  3
Solid line
 72
    65
 73
     0
 40
0.0
  0
LTYPE
  5
96
330
5
100
AcDbSymbolTableRecord
100
AcDbLinetypeTableRecord
  2
HIDDEN2
 70
     0
  3
Hidden (.5x) _ _ _ _ _ _ _ _ _ _ _ _ _ _ _ _ _
 72
    65
 73
     2
 40
0.1875
 49
0.125
 74
     0
 49
-0.0625
 74
     0
  0
LTYPE
  5
97
330
5
100
AcDbSymbolTableRecord
100
AcDbLinetypeTableRecord
  2
DASHED
 70
     0
  3
Dashed __ __ __ __ __ __ __ __ __ __ __ __ __ _
 72
    65
 73
     2
 40
0.75
 49
0.5
 74
     0
 49
-0.25
 74
     0
  0
LTYPE
  5
98
330
5
100
AcDbSymbolTableRecord
100
AcDbLinetypeTableRecord
  2
CENTER
 70
     0
  3
Center ____ _ ____ _ ____ _ ____ _ ____ _ ____
 72
    65
 73
     4
 40
2.0
 49
1.25
 74
     0
 49
-0.25
 74
     0
 49
0.25
 74
     0
 49
-0.25
 74
     0
  0
LTYPE
  5
99
330
5
100
AcDbSymbolTableRecord
100
AcDbLinetypeTableRecord
  2
DASHED2
 70
     0
  3
_ _ _ _ _ _ _ _ _ _ _ _ _ _ _ _ _ _ _ _ _ _ _ _
 72
    65
 73
     2
 40
0.375
 49
0.25
 74
     0
 49
-0.125
 74
     0
  0
LTYPE
  5
9A
330
5
100
AcDbSymbolTableRecord
100
AcDbLinetypeTableRecord
  2
HIDDEN
 70
     0
  3
Hidden __ __ __ __ __ __ __ __ __ __ __ __ __ _
 72
    65
 73
     2
 40
0.375
 49
0.25
 74
     0
 49
-0.125
 74
     0
  0
ENDTAB
  0
TABLE
  2
LAYER
  5
2
102
{ACAD_XDICTIONARY
360
A9
102
}
330
0
100
AcDbSymbolTable
 70
    10
  0
LAYER
  5
10
330
2
100
AcDbSymbolTableRecord
100
AcDbLayerTableRecord
  2
0
 70
     0
 62
     7
  6
Continuous
370
    -3
390
F
  0
LAYER
  5
9B
330
2
100
AcDbSymbolTableRecord
100
AcDbLayerTableRecord
  2
DIM
 70
     0
 62
     3
  6
Continuous
370
    13
390
F
  0
LAYER
  5
9C
330
2
100
AcDbSymbolTableRecord
100
AcDbLayerTableRecord
  2
Defpoints
 70
     0
 62
   252
  6
Continuous
290
     0
370
    -3
390
F
  0
LAYER
  5
9D
330
2
100
AcDbSymbolTableRecord
100
AcDbLayerTableRecord
  2
A2 Hatch
 70
     0
 62
     8
  6
Continuous
370
     9
390
F
  0
LAYER
  5
9E
330
2
100
AcDbSymbolTableRecord
100
AcDbLayerTableRecord
  2
DETAILS
 70
     0
 62
     7
  6
Continuous
370
    13
390
F
  0
LAYER
  5
9F
330
2
100
AcDbSymbolTableRecord
100
AcDbLayerTableRecord
  2
A4 medium
 70
     0
 62
     7
  6
Continuous
370
    35
390
F
  0
LAYER
  5
A0
330
2
100
AcDbSymbolTableRecord
100
AcDbLayerTableRecord
  2
REBAR
 70
     0
 62
     2
  6
CENTER
370
    30
390
F
  0
LAYER
  5
28AC
330
2
100
AcDbSymbolTableRecord
100
AcDbLayerTableRecord
  2
A5 heavy
 70
     0
 62
     5
  6
Continuous
370
    53
390
F
  0
LAYER
  5
2FC3
330
2
100
AcDbSymbolTableRecord
100
AcDbLayerTableRecord
  2
GRADE
 70
     0
 62
     5
  6
Continuous
370
   100
390
F
  0
LAYER
  5
51AE
330
2
100
AcDbSymbolTableRecord
100
AcDbLayerTableRecord
  2
HANGERS
 70
     0
 62
   253
  6
Continuous
370
    -3
390
F
  0
ENDTAB
  0
TABLE
  2
STYLE
  5
3
330
0
100
AcDbSymbolTable
 70
     5
  0
STYLE
  5
11
330
3
100
AcDbSymbolTableRecord
100
AcDbTextStyleTableRecord
  2
Standard
 70
     0
 40
0.0
 41
1.0
 50
0.0
 71
     0
 42
0.2
  3
txt
  4

  0
STYLE
  5
A1
330
3
100
AcDbSymbolTableRecord
100
AcDbTextStyleTableRecord
  2
ARCHITXT
 70
     0
 40
0.0
 41
1.25
 50
0.0
 71
     0
 42
1.0
  3
ARCHITXT.shx
  4

  0
STYLE
  5
A2
330
3
100
AcDbSymbolTableRecord
100
AcDbTextStyleTableRecord
  2
ARCTEXT
 70
     0
 40
0.0
 41
0.85
 50
0.0
 71
     0
 42
5.096770384644268
  3
arctext.shx
  4

  0
STYLE
  5
A3
330
3
100
AcDbSymbolTableRecord
100
AcDbTextStyleTableRecord
  2
ROMAND
 70
     0
 40
0.0
 41
0.85
 50
0.0
 71
     0
 42
6.0
  3
romand.shx
  4

  0
STYLE
  5
A4
330
3
100
AcDbSymbolTableRecord
100
AcDbTextStyleTableRecord
  2
RomanC
 70
     0
 40
5.0
 41
0.85
 50
0.0
 71
     0
 42
10.0
  3
romanc.shx
  4

  0
ENDTAB
  0
TABLE
  2
VIEW
  5
6
330
0
100
AcDbSymbolTable
 70
     0
  0
ENDTAB
  0
TABLE
  2
UCS
  5
7
330
0
100
AcDbSymbolTable
 70
     0
  0
ENDTAB
  0
TABLE
  2
APPID
  5
9
330
0
100
AcDbSymbolTable
 70
     1
  0
APPID
  5
12
330
9
100
AcDbSymbolTableRecord
100
AcDbRegAppTableRecord
  2
ACAD
 70
     0
  0
ENDTAB
  0
TABLE
  2
DIMSTYLE
  5
A
330
0
100
AcDbSymbolTable
 70
     5
100
AcDbDimStyleTable
 71
     0
  0
DIMSTYLE
105
27
330
A
100
AcDbSymbolTableRecord
100
AcDbDimStyleTableRecord
  2
Standard
 70
     0
340
11
  0
DIMSTYLE
105
A5
330
A
100
AcDbSymbolTableRecord
100
AcDbDimStyleTableRecord
  2
Copy of ROMANS
 70
     0
 41
0.75
 42
0.125
 43
0.125
 44
0.125
 73
     0
 74
     0
 77
     1
 78
     3
140
1.0
141
6.0
147
0.25
172
     1
175
     1
176
     2
177
     2
178
     2
271
     3
272
     3
273
     4
275
     1
277
     4
279
     2
284
     3
285
     3
286
     3
340
A1
  0
DIMSTYLE
105
A6
330
A
100
AcDbSymbolTableRecord
100
AcDbDimStyleTableRecord
  2
ARCTEXT
 70
     0
 40
0.0
 41
2.0
 42
1.0
 43
0.375
 44
0.1875
 73
     0
 74
     0
140
4.0
141
2.0
147
2.0
176
     2
177
     2
178
     2
277
     4
340
A2
341
8D
342
89
  0
DIMSTYLE
105
A7
102
{ACAD_REACTORS
330
1B1
330
1B7
330
1B6
330
199
330
1F8
330
1E9
330
1E8
330
19D
330
19C
330
481
102
}
330
A
100
AcDbSymbolTableRecord
100
AcDbDimStyleTableRecord
  2
ARCTEXT1-4
 70
     0
 41
2.0
 42
2.0
 43
2.0
 44
2.0
 73
     0
 74
     0
 77
     1
 78
     3
140
4.0
141
2.0
147
2.0
172
     1
175
     1
275
     1
277
     4
279
     2
340
A2
341
8D
342
89
  0
DIMSTYLE
105
A8
330
A
100
AcDbSymbolTableRecord
100
AcDbDimStyleTableRecord
  2
ARCTEXT 1-1
 70
     0
 40
0.0
 41
1.0
 42
1.0
 43
0.375
 44
0.1875
 73
     0
 74
     0
 77
     1
 78
     3
140
1.0
141
1.0
147
0.5
176
   256
177
   256
178
   256
277
     4
279
     2
340
A2
341
8D
342
89
  0
ENDTAB
  0
TABLE
  2
BLOCK_RECORD
  5
1
330
0
100
AcDbSymbolTable
 70
    32
  0
BLOCK_RECORD
  5
1F
330
1
100
AcDbSymbolTableRecord
100
AcDbBlockTableRecord
  2
*Model_Space
340
22
  0
BLOCK_RECORD
  5
58
330
1
100
AcDbSymbolTableRecord
100
AcDbBlockTableRecord
  2
*Paper_Space
340
59
  0
BLOCK_RECORD
  5
5D
330
1
100
AcDbSymbolTableRecord
100
AcDbBlockTableRecord
  2
*Paper_Space0
340
5E
  0
BLOCK_RECORD
  5
89
330
1
100
AcDbSymbolTableRecord
100
AcDbBlockTableRecord
  2
_ArchTick
340
0
  0
BLOCK_RECORD
  5
8D
330
1
100
AcDbSymbolTableRecord
100
AcDbBlockTableRecord
  2
arrow
340
0
310
2800000020000000200000000100080000000000000400000000000000000000000000000000000000000000000080000080000000808000800000008000800080800000C0C0C000C0DCC000F0CAA6000020400000206000002080000020A0000020C0000020E00000400000004020000040400000406000004080000040A0
310
000040C0000040E00000600000006020000060400000606000006080000060A0000060C0000060E00000800000008020000080400000806000008080000080A0000080C0000080E00000A0000000A0200000A0400000A0600000A0800000A0A00000A0C00000A0E00000C0000000C0200000C0400000C0600000C0800000C0
310
A00000C0C00000C0E00000E0000000E0200000E0400000E0600000E0800000E0A00000E0C00000E0E00040000000400020004000400040006000400080004000A0004000C0004000E00040200000402020004020400040206000402080004020A0004020C0004020E000404000004040200040404000404060004040800040
310
40A0004040C0004040E00040600000406020004060400040606000406080004060A0004060C0004060E00040800000408020004080400040806000408080004080A0004080C0004080E00040A0000040A0200040A0400040A0600040A0800040A0A00040A0C00040A0E00040C0000040C0200040C0400040C0600040C08000
310
40C0A00040C0C00040C0E00040E0000040E0200040E0400040E0600040E0800040E0A00040E0C00040E0E00080000000800020008000400080006000800080008000A0008000C0008000E00080200000802020008020400080206000802080008020A0008020C0008020E00080400000804020008040400080406000804080
310
008040A0008040C0008040E00080600000806020008060400080606000806080008060A0008060C0008060E00080800000808020008080400080806000808080008080A0008080C0008080E00080A0000080A0200080A0400080A0600080A0800080A0A00080A0C00080A0E00080C0000080C0200080C0400080C0600080C0
310
800080C0A00080C0C00080C0E00080E0000080E0200080E0400080E0600080E0800080E0A00080E0C00080E0E000C0000000C0002000C0004000C0006000C0008000C000A000C000C000C000E000C0200000C0202000C0204000C0206000C0208000C020A000C020C000C020E000C0400000C0402000C0404000C0406000C0
310
408000C040A000C040C000C040E000C0600000C0602000C0604000C0606000C0608000C060A000C060C000C060E000C0800000C0802000C0804000C0806000C0808000C080A000C080C000C080E000C0A00000C0A02000C0A04000C0A06000C0A08000C0A0A000C0A0C000C0A0E000C0C00000C0C02000C0C04000C0C06000
310
C0C08000C0C0A000F0FBFF00A4A0A000808080000000FF0000FF000000FFFF00FF000000FF00FF00FFFF0000FFFFFF0000000000000000000000000000000000000000000000000000000000000000000000000000000000000000000000000000000000000000000000000000000000000000000000000000000000000000
310
0000000000000000000000000000000000000000000000000000000000000000000000000000000000000000000000000000000000000000000000000000000000000000000000000000000000000000000000000000000000000000000000000000000000000000000000000000000000000000000000FA00000000000000
310
000000000000000000000000000000000000000000000000FA00000000000000000000000000000000000000000000000000000000000000FA0000000000000000000000000000000000000000000000000000FAFA000000FA00000000000000000000000000000000000000000000000000000000FAFA00FA000000000000
310
000000000000000000000000000000000000000000000000FAF7F7000000000000000000000000000000000000000000000000000000000000F7F7F7F7F7F70000000000000000000000000000000000000000000000000000F7F7F7F7F7F7F7F7F7F700000000000000000000000000000000000000000000F7F7F7F7F7F7
310
F7F7F7F7F7F7F7F7000000000000000000000000000000000000F7F7F7F7F7F7F7F7F7F7F7F7F7F7F7F7F7F70000000000FAFA00000000000000F7F7F7F7F7F7F7F7F7F7F7F7F7F7F7F7F7F7F7F7F7FAFAFAFA00000000000000F7F7F7F7F7F7F7F7F7F7F7F7F7F7F7F7F7F70000000000000000000000000000F7F7F7F7F7
310
F7F7F7F7F7F7F7F700000000000000000000000000000000000000F7F7F7F7F7F7F7F70000000000000000000000000000000000000000000000FAF7F7F70000000000000000000000000000000000000000000000000000FAFA00FA0000000000000000000000000000000000000000000000000000FAFA000000FA000000
310
00000000000000000000000000000000000000000000000000000000FA00000000000000000000000000000000000000000000000000000000000000FA00000000000000000000000000000000000000000000000000000000000000FA00000000000000000000000000000000000000000000000000000000000000000000
310
00000000000000000000000000000000000000000000000000000000000000000000000000000000000000000000000000000000000000000000000000000000000000000000000000000000000000000000000000000000000000000000000000000000000000000000000000000000000000000000000000000000000000
310
0000000000000000000000000000000000000000000000000000000000000000000000000000000000000000000000000000000000000000
1001
ACAD
1000
DesignCenter Data
1002
{
1070
     1
1070
     1
1002
}
  0
ENDTAB
  0
ENDSEC
  0
SECTION
  2
BLOCKS
  0
BLOCK
  5
20
330
1F
100
AcDbEntity
  8
0
100
AcDbBlockBegin
  2
*Model_Space
 70
     0
 10
0.0
 20
0.0
 30
0.0
  3
*Model_Space
  1

  0
ENDBLK
  5
21
330
1F
100
AcDbEntity
  8
0
100
AcDbBlockEnd
  0
BLOCK
  5
5A
330
58
100
AcDbEntity
 67
     1
  8
0
100
AcDbBlockBegin
  2
*Paper_Space
 70
     0
 10
0.0
 20
0.0
 30
0.0
  3
*Paper_Space
  1

  0
ENDBLK
  5
5B
330
58
100
AcDbEntity
 67
     1
  8
0
100
AcDbBlockEnd
  0
BLOCK
  5
5F
330
5D
100
AcDbEntity
  8
0
100
AcDbBlockBegin
  2
*Paper_Space0
 70
     0
 10
0.0
 20
0.0
 30
0.0
  3
*Paper_Space0
  1

  0
ENDBLK
  5
60
330
5D
100
AcDbEntity
  8
0
100
AcDbBlockEnd
  0
BLOCK
  5
8A
330
89
100
AcDbEntity
  8
0
100
AcDbBlockBegin
  2
_ArchTick
 70
     0
 10
0.0
 20
0.0
 30
0.0
  3
_ArchTick
  1

  0
LWPOLYLINE
  5
8B
330
89
100
AcDbEntity
  8
0
  6
ByBlock
 62
     0
100
AcDbPolyline
 90
        2
 70
     0
 43
0.15
 10
-0.5
 20
-0.5
 10
0.5
 20
0.5
  0
ENDBLK
  5
8C
330
89
100
AcDbEntity
  8
0
100
AcDbBlockEnd
  0
BLOCK
  5
8E
330
8D
100
AcDbEntity
  8
0
100
AcDbBlockBegin
  2
arrow
 70
     0
 10
0.0
 20
0.0
 30
0.0
  3
arrow
  1

  0
HATCH
  5
8F
330
8D
100
AcDbEntity
  8
DIM
 62
   253
100
AcDbHatch
 10
0.0
 20
0.0
 30
0.0
210
0.0
220
0.0
230
1.0
  2
SOLID
 70
     1
 71
     0
 91
        1
 92
        7
 72
     0
 73
     1
 93
        3
 10
-2.0
 20
0.5
 10
-2.0
 20
-0.5
 10
0.0
 20
0.0
 97
        0
 75
     0
 76
     1
 47
0.0337394080685346
 98
        1
 10
-1.103351122172171
 20
0.05064816270351
  0
LWPOLYLINE
  5
90
330
8D
100
AcDbEntity
  8
DIM
370
    15
100
AcDbPolyline
 90
        4
 70
     0
 43
0.0
 10
0.0
 20
0.0
 10
-2.0
 20
-0.5
 10
-2.0
 20
0.5
 10
0.0
 20
0.0
  0
LWPOLYLINE
  5
91
330
8D
100
AcDbEntity
  8
DIM
370
     9
100
AcDbPolyline
 90
        2
 70
     0
 43
0.0
 10
0.3742552490839444
 20
0.0935638122700766
 10
0.0
 20
0.0
  0
LWPOLYLINE
  5
92
330
8D
100
AcDbEntity
  8
DIM
370
     9
100
AcDbPolyline
 90
        3
 70
     0
 43
0.0
 10
-2.0
 20
-0.9831764405007561
 10
-2.0
 20
-0.5
 10
-2.46875
 20
-0.6171875
  0
LWPOLYLINE
  5
93
330
8D
100
AcDbEntity
  8
DIM
370
     9
100
AcDbPolyline
 90
        3
 70
     0
 43
0.0
 10
-2.0
 20
0.9831764405007561
 10
-2.0
 20
0.5
 10
-2.46875
 20
0.6171875
  0
LWPOLYLINE
  5
94
330
8D
100
AcDbEntity
  8
DIM
370
     9
100
AcDbPolyline
 90
        2
 70
     0
 43
0.0
 10
0.3742552490839444
 20
-0.0935638122700766
 10
0.0
 20
0.0
  0
ENDBLK
  5
95
330
8D
100
AcDbEntity
  8
0
100
AcDbBlockEnd
  0
ENDSEC
  0
SECTION
  2
ENTITIES
  0
LINE
  5
CF84
330
1F
100
AcDbEntity
  8
REBAR
 48
0.15
100
AcDbLine
 10
-166.2107310616075
 20
315.8302972964727
 30
0.0
 11
-205.7423810993232
 21
315.8302972964727
 31
0.0
  0
LINE
  5
CF85
330
1F
100
AcDbEntity
  8
REBAR
 48
0.15
100
AcDbLine
 10
-170.6338912211913
 20
316.4944821776278
 30
0.0
 11
-188.5386992458488
 21
316.4944821776278
 31
0.0
  0
LINE
  5
CF86
330
1F
100
AcDbEntity
  8
REBAR
 48
0.15
100
AcDbLine
 10
-167.6338912211931
 20
293.0943438981172
 30
0.0
 11
-167.6338912211913
 21
313.4944821776276
 31
0.0
  0
ARC
  5
CF87
330
1F
100
AcDbEntity
  8
REBAR
 48
0.15
100
AcDbCircle
 10
-170.6338912211913
 20
313.4944821776278
 30
0.0
 40
3.0
100
AcDbArc
 50
0.0
 51
90.0
  0
LINE
  5
CF88
330
1F
100
AcDbEntity
  8
REBAR
 48
0.15
100
AcDbLine
 10
-166.0146740294049
 20
314.0689724078352
 30
0.0
 11
-148.0562644836636
 21
314.0689724078352
 31
0.0
  0
LINE
  5
CF89
330
1F
100
AcDbEntity
  8
REBAR
 48
0.15
100
AcDbLine
 10
-169.0146740294049
 20
293.0943438981172
 30
0.0
 11
-169.0146740294049
 21
311.0689724078349
 31
0.0
  0
ARC
  5
CF8A
330
1F
100
AcDbEntity
  8
REBAR
 48
0.15
100
AcDbCircle
 10
-166.0146740294049
 20
311.0689724078352
 30
0.0
 40
3.0
100
AcDbArc
 50
90.0
 51
180.0
  0
LINE
  5
CF8B
330
1F
100
AcDbEntity
  8
REBAR
 48
0.15
100
AcDbLine
 10
-168.2919157511887
 20
282.4287589140487
 30
0.0
 11
-168.2919157511887
 21
310.8673132028516
 31
0.0
  0
LINE
  5
CF8C
330
1F
100
AcDbEntity
  8
0
 62
     1
100
AcDbLine
 10
-173.2897671074415
 20
310.8673132028461
 30
0.0
 11
-173.2897671074415
 21
304.8673072175977
 31
0.0
  0
LINE
  5
CF8D
330
1F
100
AcDbEntity
  8
0
 62
     1
100
AcDbLine
 10
-163.2940643949396
 20
310.8673132028461
 30
0.0
 11
-163.2940643949396
 21
304.8673072175977
 31
0.0
  0
LINE
  5
CF8E
330
1F
100
AcDbEntity
  8
0
 62
     1
100
AcDbLine
 10
-173.2897671074415
 20
304.8673072175977
 30
0.0
 11
-171.2897671074415
 21
304.8673072175977
 31
0.0
  0
LINE
  5
CF8F
330
1F
100
AcDbEntity
  8
0
 62
     1
100
AcDbLine
 10
-171.2897671074415
 20
310.8673132028461
 30
0.0
 11
-171.2897671074415
 21
304.8673072175977
 31
0.0
  0
LINE
  5
CF90
330
1F
100
AcDbEntity
  8
0
 62
     1
100
AcDbLine
 10
-165.2940643949396
 20
310.8673132028461
 30
0.0
 11
-165.2940643949396
 21
304.8673072175977
 31
0.0
  0
LINE
  5
CF91
330
1F
100
AcDbEntity
  8
0
 62
     1
100
AcDbLine
 10
-172.9397671074412
 20
310.8673132028461
 30
0.0
 11
-172.9397671074412
 21
304.8673072175977
 31
0.0
  0
LINE
  5
CF92
330
1F
100
AcDbEntity
  8
0
 62
     1
100
AcDbLine
 10
-171.4897671074423
 20
310.8673132028461
 30
0.0
 11
-171.4897671074423
 21
304.8673072175977
 31
0.0
  0
LINE
  5
CF93
330
1F
100
AcDbEntity
  8
0
 62
     1
100
AcDbLine
 10
-165.0940643949389
 20
310.8673132028461
 30
0.0
 11
-165.0940643949407
 21
304.8673072175977
 31
0.0
  0
LINE
  5
CF94
330
1F
100
AcDbEntity
  8
0
 62
     1
100
AcDbLine
 10
-171.4897671074423
 20
316.8673072175977
 30
0.0
 11
-171.2897671074415
 21
316.8673072175977
 31
0.0
  0
LINE
  5
CF95
330
1F
100
AcDbEntity
  8
0
 62
     1
100
AcDbLine
 10
-164.8790643949387
 20
310.8673132028461
 30
0.0
 11
-164.8790643949405
 21
304.8673072175977
 31
0.0
  0
LINE
  5
CF96
330
1F
100
AcDbEntity
  8
0
 62
     1
100
AcDbLine
 10
-164.059064394939
 20
310.8673132028461
 30
0.0
 11
-164.059064394939
 21
304.8673072175977
 31
0.0
  0
LINE
  5
CF97
330
1F
100
AcDbEntity
  8
A2 Hatch
  6
DASHED2
 48
0.15
100
AcDbLine
 10
-164.7190643949388
 20
310.8673132028461
 30
0.0
 11
-164.7190643949388
 21
304.8673072175977
 31
0.0
  0
LINE
  5
CF98
330
1F
100
AcDbEntity
  8
A2 Hatch
  6
DASHED2
 48
0.15
100
AcDbLine
 10
-164.2190643949389
 20
310.8673132028461
 30
0.0
 11
-164.2190643949389
 21
304.8673072175977
 31
0.0
  0
LINE
  5
CF99
330
1F
100
AcDbEntity
  8
0
 48
0.15
100
AcDbLine
 10
-172.3147671074412
 20
316.8673072175977
 30
0.0
 11
-171.9147671074415
 21
316.8673072175977
 31
0.0
  0
LINE
  5
CF9A
330
1F
100
AcDbEntity
  8
A2 Hatch
  6
DASHED2
 48
0.15
100
AcDbLine
 10
-172.5247671074421
 20
310.8673132028461
 30
0.0
 11
-172.5247671074421
 21
304.8673072175977
 31
0.0
  0
LINE
  5
CF9B
330
1F
100
AcDbEntity
  8
A2 Hatch
  6
DASHED2
 48
0.15
100
AcDbLine
 10
-171.7047671074406
 20
310.8673132028461
 30
0.0
 11
-171.7047671074424
 21
304.8673072175977
 31
0.0
  0
LINE
  5
CF9C
330
1F
100
AcDbEntity
  8
0
 62
     1
100
AcDbLine
 10
-172.3647671074423
 20
310.8673132028461
 30
0.0
 11
-172.3647671074423
 21
304.8673072175977
 31
0.0
  0
LINE
  5
CF9D
330
1F
100
AcDbEntity
  8
0
 62
     1
100
AcDbLine
 10
-171.8647671074422
 20
310.8673132028461
 30
0.0
 11
-171.8647671074422
 21
304.8673072175977
 31
0.0
  0
LINE
  5
CF9E
330
1F
100
AcDbEntity
  8
0
 62
     1
100
AcDbLine
 10
-171.8647671074422
 20
316.8673072175977
 30
0.0
 11
-172.3647671074423
 21
316.8673072175977
 31
0.0
  0
LINE
  5
CF9F
330
1F
100
AcDbEntity
  8
0
 62
     1
100
AcDbLine
 10
-165.2940643949396
 20
304.8673072175977
 30
0.0
 11
-163.2940643949396
 21
304.8673072175977
 31
0.0
  0
LINE
  5
CFA0
330
1F
100
AcDbEntity
  8
0
 62
     1
100
AcDbLine
 10
-171.2897671074415
 20
305.3673072175977
 30
0.0
 11
-171.2897671074415
 21
304.8673072175977
 31
0.0
  0
LINE
  5
CFA1
330
1F
100
AcDbEntity
  8
0
  6
HIDDEN
 62
     1
 48
0.02
100
AcDbLine
 10
-172.9397671074412
 20
305.3673072175977
 30
0.0
 11
-172.3147671074412
 21
305.3673072175977
 31
0.0
  0
LINE
  5
CFA2
330
1F
100
AcDbEntity
  8
0
  6
HIDDEN
 62
     1
 48
0.02
100
AcDbLine
 10
-172.9397671074412
 20
305.3673072175977
 30
0.0
 11
-172.9397671074412
 21
304.8673072175977
 31
0.0
  0
LINE
  5
CFA3
330
1F
100
AcDbEntity
  8
0
  6
HIDDEN
 62
     1
 48
0.02
100
AcDbLine
 10
-171.9147671074415
 20
305.3673072175977
 30
0.0
 11
-171.9147671074415
 21
304.8673072175976
 31
0.0
  0
LINE
  5
CFA4
330
1F
100
AcDbEntity
  8
0
  6
HIDDEN
 62
     1
 48
0.02
100
AcDbLine
 10
-172.3147671074412
 20
305.3673072175977
 30
0.0
 11
-172.3147671074412
 21
304.8673072175977
 31
0.0
  0
LINE
  5
CFA5
330
1F
100
AcDbEntity
  8
0
  6
HIDDEN
 62
     1
 48
0.02
100
AcDbLine
 10
-171.9147671074415
 20
305.3673072175977
 30
0.0
 11
-171.2897671074415
 21
305.3673072175977
 31
0.0
  0
LINE
  5
CFA6
330
1F
100
AcDbEntity
  8
0
 62
     1
100
AcDbLine
 10
-165.2940643949396
 20
305.3673072175977
 30
0.0
 11
-165.2940643949396
 21
304.8673072175977
 31
0.0
  0
LINE
  5
CFA7
330
1F
100
AcDbEntity
  8
0
  6
HIDDEN
 62
     1
 48
0.02
100
AcDbLine
 10
-163.6440643949381
 20
305.3673072175977
 30
0.0
 11
-163.6440643949381
 21
304.8673072175977
 31
0.0
  0
LINE
  5
CFA8
330
1F
100
AcDbEntity
  8
0
  6
HIDDEN
 62
     1
 48
0.02
100
AcDbLine
 10
-164.6690643949396
 20
305.367307217598
 30
0.0
 11
-164.6690643949396
 21
304.8673072175977
 31
0.0
  0
LINE
  5
CFA9
330
1F
100
AcDbEntity
  8
0
  6
HIDDEN
 62
     1
 48
0.02
100
AcDbLine
 10
-164.2690643949381
 20
305.3673072175977
 30
0.0
 11
-164.2690643949381
 21
304.8673072175977
 31
0.0
  0
LINE
  5
CFAA
330
1F
100
AcDbEntity
  8
0
  6
HIDDEN
 62
     1
 48
0.02
100
AcDbLine
 10
-165.2940643949396
 20
305.3673072175977
 30
0.0
 11
-164.6690643949396
 21
305.3673072175977
 31
0.0
  0
LINE
  5
CFAB
330
1F
100
AcDbEntity
  8
0
  6
HIDDEN
 62
     1
 48
0.02
100
AcDbLine
 10
-164.2690643949381
 20
305.3673072175977
 30
0.0
 11
-163.6440643949381
 21
305.3673072175977
 31
0.0
  0
LINE
  5
CFAC
330
1F
100
AcDbEntity
  8
0
  6
HIDDEN
 62
     1
 48
0.02
100
AcDbLine
 10
-165.0940643949389
 20
305.1173072175977
 30
0.0
 11
-165.0940643949389
 21
304.8673072175977
 31
0.0
  0
LINE
  5
CFAD
330
1F
100
AcDbEntity
  8
0
  6
HIDDEN
 62
     1
 48
0.02
100
AcDbLine
 10
-164.8440643949389
 20
305.1173072175977
 30
0.0
 11
-164.8440643949389
 21
304.8673072175977
 31
0.0
  0
LINE
  5
CFAE
330
1F
100
AcDbEntity
  8
0
  6
HIDDEN
 62
     1
 48
0.02
100
AcDbLine
 10
-165.0940643949389
 20
305.1173072175977
 30
0.0
 11
-164.8440643949389
 21
305.1173072175977
 31
0.0
  0
LWPOLYLINE
  5
CFAF
330
1F
100
AcDbEntity
  8
DETAILS
 62
     6
370
    20
100
AcDbPolyline
 90
        2
 70
     1
 43
0.0
 10
-168.0307306794157
 20
308.7923072175977
 10
-168.0443576533862
 20
308.7923072175977
  0
LWPOLYLINE
  5
CFB0
330
1F
100
AcDbEntity
  8
DETAILS
 62
     6
370
    20
100
AcDbPolyline
 90
        6
 70
     0
 43
0.0
 10
-165.2919157511924
 20
308.6427808485903
 10
-165.569475128791
 20
308.9203402261869
 42
0.1989123673782988
 10
-165.6225081373804
 20
308.9423072175975
 10
-168.2919157511905
 20
308.9423072175978
 42
-0.2793220653060733
 10
-168.0775978302126
 20
308.8124480515886
 42
0.279322065306064
 10
-168.0443576533862
 20
308.7923072175976
  0
LWPOLYLINE
  5
CFB1
330
1F
100
AcDbEntity
  8
DETAILS
 62
     6
370
    20
100
AcDbPolyline
 90
        2
 70
     1
 43
0.0
 10
-167.9557306794149
 20
308.7923072175977
 10
-166.9057306794156
 20
308.7923072175977
  0
LWPOLYLINE
  5
CFB2
330
1F
100
AcDbEntity
  8
DETAILS
 62
     6
370
    20
100
AcDbPolyline
 90
        6
 70
     0
 43
0.0
 10
-167.9557306794167
 20
308.9423072175975
 10
-167.9557306794149
 20
308.3198072175976
 42
0.4142135623730951
 10
-167.8057306794153
 20
308.1698072175976
 10
-167.1739571091702
 20
308.1698072175976
 42
0.3464949689054693
 10
-167.0281360537838
 20
308.2846472999908
 10
-166.8695631477303
 20
308.9423072175977
  0
LWPOLYLINE
  5
CFB3
330
1F
100
AcDbEntity
  8
DETAILS
 62
     6
370
    20
100
AcDbPolyline
 90
        6
 70
     0
 43
0.0
 10
-168.0307306794157
 20
308.9423072175975
 10
-168.0307306794157
 20
308.3198072175976
 42
0.4142135623730951
 10
-167.8057306794153
 20
308.0948072175976
 10
-167.1739571091702
 20
308.0948072175976
 42
0.3464949689054693
 10
-166.9552255260923
 20
308.2670673411874
 10
-166.7924137952568
 20
308.9423072175975
  0
LWPOLYLINE
  5
CFB4
330
1F
100
AcDbEntity
  8
DETAILS
 62
     6
370
    20
100
AcDbPolyline
 90
        2
 70
     1
 43
0.0
 10
-166.8285813269422
 20
308.7923072175977
 10
-166.8149543529734
 20
308.7923072175977
  0
LWPOLYLINE
  5
CFB5
330
1F
100
AcDbEntity
  8
DETAILS
 62
     6
370
    20
100
AcDbPolyline
 90
        6
 70
     0
 43
0.0
 10
-166.8149543529734
 20
308.7923072175976
 42
0.279322065306064
 10
-166.7817141754267
 20
308.8124480512127
 42
-0.6059183769079624
 10
-166.3530783341912
 20
308.8124480515886
 42
0.2793220653054726
 10
-166.3198381573629
 20
308.7923072175977
 10
-166.2499611833927
 20
308.7923072175977
 10
-166.3198381573629
 20
308.7923072175977
  0
LWPOLYLINE
  5
CFB6
330
1F
100
AcDbEntity
  8
DETAILS
 62
     6
370
    20
100
AcDbPolyline
 90
        7
 70
     0
 43
0.0
 10
-165.928942120202
 20
308.9423072175975
 10
-165.8539421202031
 20
308.9423072175975
 10
-165.6664421202031
 20
308.9423072175975
 10
-166.1134994934937
 20
308.9423072175975
 10
-166.25638874786
 20
308.3496931475634
 42
0.4853378929632635
 10
-166.1324408507816
 20
308.1923072175976
 10
-165.2919157511924
 20
308.1923072175976
  0
LWPOLYLINE
  5
CFB7
330
1F
100
AcDbEntity
  8
DETAILS
 62
     6
370
    20
100
AcDbPolyline
 90
        4
 70
     0
 43
0.0
 10
-166.2137936517092
 20
308.9423072175975
 10
-166.3511724338595
 20
308.3725470940077
 42
0.4853378929632635
 10
-166.1324408507816
 20
308.0948072175976
 10
-165.2919157511924
 20
308.0948072175976
  0
LWPOLYLINE
  5
CFB8
330
1F
100
AcDbEntity
  8
DETAILS
 62
     6
370
    20
100
AcDbPolyline
 90
       10
 70
     1
 43
0.0
 10
-168.2919157511905
 20
308.9798072175976
 10
-165.928942120202
 20
308.9798072175976
 10
-165.8556464150451
 20
308.9963743969722
 42
0.7807764064044151
 10
-165.8556464150451
 20
309.0007400382228
 10
-165.928942120202
 20
309.0173072175976
 10
-168.2919157511905
 20
309.0173072175976
 10
-170.6548893821809
 20
309.0173072175976
 10
-170.728185087336
 20
309.0007400382228
 42
0.7807764064044151
 10
-170.728185087336
 20
308.9963743969722
 10
-170.6548893821791
 20
308.9798072175976
  0
LWPOLYLINE
  5
CFB9
330
1F
100
AcDbEntity
  8
DETAILS
 62
     6
370
    20
100
AcDbPolyline
 90
        7
 70
     0
 43
0.0
 10
-171.2919157511924
 20
309.5793335866062
 10
-171.0143563735901
 20
309.3017742090084
 42
0.1989123673781765
 10
-170.9613233650025
 20
309.2798072175976
 10
-168.2919157511905
 20
309.2798072175976
 10
-165.6225081373804
 20
309.2798072175976
 42
0.1989123673781768
 10
-165.569475128791
 20
309.3017742090084
 10
-165.2919157511924
 20
309.5793335866046
  0
LWPOLYLINE
  5
CFBA
330
1F
100
AcDbEntity
  8
DETAILS
 62
     6
370
    20
100
AcDbPolyline
 90
        7
 70
     0
 43
0.0
 10
-171.2919157511924
 20
309.7293335866055
 10
-171.1022243392353
 20
309.5396421746509
 42
0.1989123673777967
 10
-170.8370592962919
 20
309.4298072175977
 10
-168.2919157511905
 20
309.4298072175975
 10
-165.7467722060892
 20
309.4298072175977
 42
0.1989123673777968
 10
-165.4816071631476
 20
309.5396421746509
 10
-165.2919157511924
 20
309.7293335866034
  0
LWPOLYLINE
  5
CFBB
330
1F
100
AcDbEntity
  8
DETAILS
 62
     6
370
    20
100
AcDbPolyline
 90
        4
 70
     0
 43
0.0
 10
-165.2919157511924
 20
308.4927808485888
 10
-165.4816071631476
 20
308.6824722605434
 42
0.1989123673788307
 10
-165.746772206091
 20
308.7923072175977
 10
-166.149667025179
 20
308.7923072175977
  0
LWPOLYLINE
  5
CFBC
330
1F
100
AcDbEntity
  8
DETAILS
 62
     6
370
    20
100
AcDbPolyline
 90
        4
 70
     0
 43
0.0
 10
-165.2919157511924
 20
309.3918335866066
 10
-165.493142607319
 20
309.1906067304816
 42
0.4142135623745727
 10
-165.493142607319
 20
309.0315077047141
 10
-165.2919157511924
 20
308.8302808485882
  0
LWPOLYLINE
  5
CFBD
330
1F
100
AcDbEntity
  8
DETAILS
 62
     6
370
    20
100
AcDbPolyline
 90
        6
 70
     1
 43
0.0
 10
-168.2919157511905
 20
309.0548072175976
 10
-165.6664421202031
 20
309.0548072175975
 10
-165.6664421202031
 20
309.1673072175977
 10
-168.2919157511905
 20
309.1673072175977
 10
-170.9173893821798
 20
309.1673072175977
 10
-170.9173893821798
 20
309.0548072175975
  0
LWPOLYLINE
  5
CFBE
330
1F
100
AcDbEntity
  8
DETAILS
 62
     6
370
    20
100
AcDbPolyline
 90
        2
 70
     1
 43
0.0
 10
-168.5531008229654
 20
308.7923072175977
 10
-168.5394738489967
 20
308.7923072175977
  0
LWPOLYLINE
  5
CFBF
330
1F
100
AcDbEntity
  8
DETAILS
 62
     6
370
    20
100
AcDbPolyline
 90
        6
 70
     0
 43
0.0
 10
-168.5394738489967
 20
308.7923072175976
 42
0.279322065306064
 10
-168.50623367145
 20
308.8124480512127
 42
-0.2793220653060734
 10
-168.2919157511905
 20
308.9423072175975
 10
-170.9613233650025
 20
308.9423072175975
 42
0.1989123673782987
 10
-171.0143563735901
 20
308.9203402261869
 10
-171.2919157511924
 20
308.6427808485887
  0
LWPOLYLINE
  5
CFC0
330
1F
100
AcDbEntity
  8
DETAILS
 62
     6
370
    20
100
AcDbPolyline
 90
        2
 70
     1
 43
0.0
 10
-168.6281008229662
 20
308.7923072175977
 10
-169.6781008229654
 20
308.7923072175977
  0
LWPOLYLINE
  5
CFC1
330
1F
100
AcDbEntity
  8
DETAILS
 62
     6
370
    20
100
AcDbPolyline
 90
        6
 70
     0
 43
0.0
 10
-169.7142683546508
 20
308.9423072175977
 10
-169.5556954485973
 20
308.2846472999908
 42
0.3464949689054692
 10
-169.4098743932109
 20
308.1698072175975
 10
-168.7781008229658
 20
308.1698072175976
 42
0.4142135623730951
 10
-168.6281008229662
 20
308.3198072175976
 10
-168.6281008229662
 20
308.9423072175975
  0
LWPOLYLINE
  5
CFC2
330
1F
100
AcDbEntity
  8
DETAILS
 62
     6
370
    20
100
AcDbPolyline
 90
        6
 70
     0
 43
0.0
 10
-169.7914177071243
 20
308.9423072175975
 10
-169.6286059762906
 20
308.2670673411874
 42
0.3464949689054692
 10
-169.4098743932109
 20
308.0948072175976
 10
-168.7781008229658
 20
308.0948072175976
 42
0.4142135623730951
 10
-168.5531008229654
 20
308.3198072175976
 10
-168.5531008229654
 20
308.9423072175975
  0
LWPOLYLINE
  5
CFC3
330
1F
100
AcDbEntity
  8
DETAILS
 62
     6
370
    20
100
AcDbPolyline
 90
        2
 70
     1
 43
0.0
 10
-169.7552501754389
 20
308.7923072175977
 10
-169.7688771494076
 20
308.7923072175977
  0
LWPOLYLINE
  5
CFC4
330
1F
100
AcDbEntity
  8
DETAILS
 62
     6
370
    20
100
AcDbPolyline
 90
        6
 70
     0
 43
0.0
 10
-170.2639933450182
 20
308.7923072175977
 10
-170.3338703189883
 20
308.7923072175977
 10
-170.2639933450182
 20
308.7923072175977
 42
0.2793220653054726
 10
-170.2307531674714
 20
308.8124480512127
 42
-0.6059183769079624
 10
-169.8021173262341
 20
308.8124480515886
 42
0.279322065306064
 10
-169.7688771494076
 20
308.7923072175976
  0
LWPOLYLINE
  5
CFC5
330
1F
100
AcDbEntity
  8
DETAILS
 62
     6
370
    20
100
AcDbPolyline
 90
        7
 70
     0
 43
0.0
 10
-171.2919157511924
 20
308.1923072175976
 10
-170.4513906515994
 20
308.1923072175976
 42
0.4853378929632635
 10
-170.3274427545229
 20
308.3496931475632
 10
-170.4703320088893
 20
308.9423072175975
 10
-170.9173893821798
 20
308.9423072175975
 10
-170.7298893821798
 20
308.9423072175975
 10
-170.6548893821791
 20
308.9423072175975
  0
LWPOLYLINE
  5
CFC6
330
1F
100
AcDbEntity
  8
DETAILS
 62
     6
370
    20
100
AcDbPolyline
 90
        4
 70
     0
 43
0.0
 10
-171.2919157511924
 20
308.0948072175976
 10
-170.4513906515994
 20
308.0948072175976
 42
0.4853378929632635
 10
-170.2326590685215
 20
308.3725470940077
 10
-170.3700378506737
 20
308.9423072175975
  0
LWPOLYLINE
  5
CFC7
330
1F
100
AcDbEntity
  8
DETAILS
 62
     6
370
    20
100
AcDbPolyline
 90
        4
 70
     0
 43
0.0
 10
-170.4341644772039
 20
308.7923072175977
 10
-170.8370592962901
 20
308.7923072175977
 42
0.1989123673788306
 10
-171.1022243392353
 20
308.6824722605434
 10
-171.2919157511924
 20
308.4927808485872
  0
LWPOLYLINE
  5
CFC8
330
1F
100
AcDbEntity
  8
DETAILS
 62
     6
370
    20
100
AcDbPolyline
 90
        4
 70
     0
 43
0.0
 10
-171.2919157511924
 20
308.8302808485865
 10
-171.0906888950639
 20
309.0315077047141
 42
0.4142135623745727
 10
-171.0906888950639
 20
309.1906067304816
 10
-171.2919157511924
 20
309.3918335866081
  0
LINE
  5
CFC9
330
1F
100
AcDbEntity
  8
0
 62
     1
100
AcDbLine
 10
-173.2897671074415
 20
304.8673072175977
 30
0.0
 11
-173.2897671074415
 21
292.8673072175977
 31
0.0
  0
LINE
  5
CFCA
330
1F
100
AcDbEntity
  8
0
 62
     1
100
AcDbLine
 10
-163.2940643949396
 20
304.8673072175977
 30
0.0
 11
-163.2940643949396
 21
292.8673072175977
 31
0.0
  0
LINE
  5
CFCB
330
1F
100
AcDbEntity
  8
0
 62
     1
100
AcDbLine
 10
-173.2897671074415
 20
304.8673072175977
 30
0.0
 11
-171.7397671074422
 21
304.8673072175977
 31
0.0
  0
LINE
  5
CFCC
330
1F
100
AcDbEntity
  8
0
 62
     1
100
AcDbLine
 10
-173.2897671074415
 20
292.8673072175977
 30
0.0
 11
-171.2897671074415
 21
292.8673072175977
 31
0.0
  0
LINE
  5
CFCD
330
1F
100
AcDbEntity
  8
0
 62
     1
100
AcDbLine
 10
-171.2897671074415
 20
305.3673072175977
 30
0.0
 11
-171.2897671074415
 21
292.8673072175977
 31
0.0
  0
LINE
  5
CFCE
330
1F
100
AcDbEntity
  8
0
 62
     1
100
AcDbLine
 10
-165.2940643949414
 20
305.3673072175977
 30
0.0
 11
-165.2940643949396
 21
292.8673072175977
 31
0.0
  0
LINE
  5
CFCF
330
1F
100
AcDbEntity
  8
0
 62
     1
100
AcDbLine
 10
-172.9397671074412
 20
305.3673072175977
 30
0.0
 11
-172.3147671074412
 21
305.3673072175977
 31
0.0
  0
LINE
  5
CFD0
330
1F
100
AcDbEntity
  8
0
 62
     1
100
AcDbLine
 10
-172.9397671074412
 20
305.3673072175977
 30
0.0
 11
-172.9397671074412
 21
292.8673072175977
 31
0.0
  0
LINE
  5
CFD1
330
1F
100
AcDbEntity
  8
0
 62
     1
100
AcDbLine
 10
-163.6440643949399
 20
305.3673072175977
 30
0.0
 11
-163.6440643949399
 21
304.8673072175977
 31
0.0
  0
LINE
  5
CFD2
330
1F
100
AcDbEntity
  8
0
 62
     1
100
AcDbLine
 10
-171.9147671074415
 20
305.3673072175977
 30
0.0
 11
-171.9147671074415
 21
304.8673072175976
 31
0.0
  0
LINE
  5
CFD3
330
1F
100
AcDbEntity
  8
0
 62
     1
100
AcDbLine
 10
-172.3147671074412
 20
305.3673072175977
 30
0.0
 11
-172.3147671074412
 21
304.8673072175977
 31
0.0
  0
LINE
  5
CFD4
330
1F
100
AcDbEntity
  8
0
 62
     1
100
AcDbLine
 10
-164.6690643949414
 20
305.3673072175977
 30
0.0
 11
-164.6690643949414
 21
304.8673072175977
 31
0.0
  0
LINE
  5
CFD5
330
1F
100
AcDbEntity
  8
0
 62
     1
100
AcDbLine
 10
-164.2690643949399
 20
305.3673072175977
 30
0.0
 11
-164.2690643949399
 21
304.8673072175977
 31
0.0
  0
LINE
  5
CFD6
330
1F
100
AcDbEntity
  8
0
 62
     1
100
AcDbLine
 10
-165.2940643949396
 20
305.3673072175977
 30
0.0
 11
-164.6690643949396
 21
305.3673072175977
 31
0.0
  0
LINE
  5
CFD7
330
1F
100
AcDbEntity
  8
0
 62
     1
100
AcDbLine
 10
-164.2690643949399
 20
305.3673072175977
 30
0.0
 11
-163.6440643949399
 21
305.3673072175977
 31
0.0
  0
LINE
  5
CFD8
330
1F
100
AcDbEntity
  8
0
 62
     1
100
AcDbLine
 10
-171.9147671074415
 20
305.3673072175977
 30
0.0
 11
-171.2897671074415
 21
305.3673072175977
 31
0.0
  0
LINE
  5
CFD9
330
1F
100
AcDbEntity
  8
0
 62
     1
100
AcDbLine
 10
-171.4897671074423
 20
305.1173072175977
 30
0.0
 11
-171.4897671074423
 21
292.8673072175977
 31
0.0
  0
LINE
  5
CFDA
330
1F
100
AcDbEntity
  8
0
 62
     1
100
AcDbLine
 10
-165.0940643949407
 20
305.1173072175977
 30
0.0
 11
-165.0940643949407
 21
292.8673072175977
 31
0.0
  0
LINE
  5
CFDB
330
1F
100
AcDbEntity
  8
0
 62
     1
100
AcDbLine
 10
-171.7397671074422
 20
305.1173072175977
 30
0.0
 11
-171.7397671074422
 21
304.8673072175977
 31
0.0
  0
LINE
  5
CFDC
330
1F
100
AcDbEntity
  8
0
 62
     1
100
AcDbLine
 10
-164.8440643949407
 20
305.1173072175977
 30
0.0
 11
-164.8440643949407
 21
304.8673072175977
 31
0.0
  0
LINE
  5
CFDD
330
1F
100
AcDbEntity
  8
0
 62
     1
100
AcDbLine
 10
-171.7397671074422
 20
305.1173072175977
 30
0.0
 11
-171.4897671074423
 21
305.1173072175977
 31
0.0
  0
LINE
  5
CFDE
330
1F
100
AcDbEntity
  8
0
 62
     1
100
AcDbLine
 10
-165.0940643949407
 20
305.1173072175977
 30
0.0
 11
-164.8440643949407
 21
305.1173072175977
 31
0.0
  0
LINE
  5
CFDF
330
1F
100
AcDbEntity
  8
0
 62
     1
100
AcDbLine
 10
-164.8790643949405
 20
304.8673072175977
 30
0.0
 11
-163.2940643949396
 21
304.8673072175977
 31
0.0
  0
LINE
  5
CFE0
330
1F
100
AcDbEntity
  8
0
 62
     1
100
AcDbLine
 10
-171.4897671074423
 20
304.8673072175977
 30
0.0
 11
-171.2897671074415
 21
304.8673072175977
 31
0.0
  0
LINE
  5
CFE1
330
1F
100
AcDbEntity
  8
0
 62
     1
100
AcDbLine
 10
-164.8790643949405
 20
304.8673072175977
 30
0.0
 11
-164.8790643949405
 21
292.8673072175977
 31
0.0
  0
LINE
  5
CFE2
330
1F
100
AcDbEntity
  8
0
 62
     1
100
AcDbLine
 10
-164.059064394939
 20
304.8673072175977
 30
0.0
 11
-164.059064394939
 21
292.8673072175977
 31
0.0
  0
LINE
  5
CFE3
330
1F
100
AcDbEntity
  8
A2 Hatch
  6
DASHED2
 48
0.15
100
AcDbLine
 10
-164.7190643949388
 20
304.8673072175977
 30
0.0
 11
-164.7190643949388
 21
292.8673072175977
 31
0.0
  0
LINE
  5
CFE4
330
1F
100
AcDbEntity
  8
A2 Hatch
  6
DASHED2
 48
0.15
100
AcDbLine
 10
-164.2190643949389
 20
304.8673072175977
 30
0.0
 11
-164.2190643949389
 21
292.8673072175977
 31
0.0
  0
LINE
  5
CFE5
330
1F
100
AcDbEntity
  8
0
 48
0.15
100
AcDbLine
 10
-172.3147671074412
 20
304.8673072175977
 30
0.0
 11
-171.9147671074415
 21
304.8673072175977
 31
0.0
  0
LINE
  5
CFE6
330
1F
100
AcDbEntity
  8
A2 Hatch
  6
DASHED2
 48
0.15
100
AcDbLine
 10
-172.5247671074421
 20
305.3673072175977
 30
0.0
 11
-172.5247671074421
 21
292.8673072175977
 31
0.0
  0
LINE
  5
CFE7
330
1F
100
AcDbEntity
  8
A2 Hatch
  6
DASHED2
 48
0.15
100
AcDbLine
 10
-171.7047671074424
 20
305.3673072175977
 30
0.0
 11
-171.7047671074424
 21
292.8673072175977
 31
0.0
  0
LINE
  5
CFE8
330
1F
100
AcDbEntity
  8
0
 62
     1
100
AcDbLine
 10
-172.3647671074423
 20
305.3673072175977
 30
0.0
 11
-172.3647671074423
 21
292.8673072175977
 31
0.0
  0
LINE
  5
CFE9
330
1F
100
AcDbEntity
  8
0
 62
     1
100
AcDbLine
 10
-171.8647671074422
 20
305.3673072175977
 30
0.0
 11
-171.8647671074422
 21
292.8673072175977
 31
0.0
  0
LINE
  5
CFEA
330
1F
100
AcDbEntity
  8
0
 62
     1
100
AcDbLine
 10
-171.8647671074422
 20
304.8673072175977
 30
0.0
 11
-172.3647671074423
 21
304.8673072175977
 31
0.0
  0
LINE
  5
CFEB
330
1F
100
AcDbEntity
  8
0
 62
     1
100
AcDbLine
 10
-165.2940643949396
 20
304.8673072175977
 30
0.0
 11
-165.0940643949407
 21
304.8673072175977
 31
0.0
  0
LINE
  5
CFEC
330
1F
100
AcDbEntity
  8
0
 62
     1
100
AcDbLine
 10
-165.2940643949396
 20
292.8673072175977
 30
0.0
 11
-163.2940643949396
 21
292.8673072175977
 31
0.0
  0
LINE
  5
CFED
330
1F
100
AcDbEntity
  8
0
 62
     1
100
AcDbLine
 10
-171.2897671074415
 20
293.3673072175977
 30
0.0
 11
-171.2897671074415
 21
292.8673072175977
 31
0.0
  0
LINE
  5
CFEE
330
1F
100
AcDbEntity
  8
0
  6
HIDDEN
 62
     1
 48
0.02
100
AcDbLine
 10
-172.9397671074412
 20
293.3673072175977
 30
0.0
 11
-172.3147671074412
 21
293.3673072175977
 31
0.0
  0
LINE
  5
CFEF
330
1F
100
AcDbEntity
  8
0
  6
HIDDEN
 62
     1
 48
0.02
100
AcDbLine
 10
-172.9397671074412
 20
293.3673072175977
 30
0.0
 11
-172.9397671074412
 21
292.8673072175977
 31
0.0
  0
LINE
  5
CFF0
330
1F
100
AcDbEntity
  8
0
  6
HIDDEN
 62
     1
 48
0.02
100
AcDbLine
 10
-171.9147671074415
 20
293.3673072175977
 30
0.0
 11
-171.9147671074415
 21
292.8673072175976
 31
0.0
  0
LINE
  5
CFF1
330
1F
100
AcDbEntity
  8
0
  6
HIDDEN
 62
     1
 48
0.02
100
AcDbLine
 10
-172.3147671074412
 20
293.3673072175977
 30
0.0
 11
-172.3147671074412
 21
292.8673072175977
 31
0.0
  0
LINE
  5
CFF2
330
1F
100
AcDbEntity
  8
0
  6
HIDDEN
 62
     1
 48
0.02
100
AcDbLine
 10
-171.9147671074415
 20
293.3673072175977
 30
0.0
 11
-171.2897671074415
 21
293.3673072175977
 31
0.0
  0
LINE
  5
CFF3
330
1F
100
AcDbEntity
  8
0
 62
     1
100
AcDbLine
 10
-165.2940643949396
 20
293.3673072175977
 30
0.0
 11
-165.2940643949396
 21
292.8673072175977
 31
0.0
  0
LINE
  5
CFF4
330
1F
100
AcDbEntity
  8
0
  6
HIDDEN
 62
     1
 48
0.02
100
AcDbLine
 10
-163.6440643949381
 20
293.3673072175977
 30
0.0
 11
-163.6440643949381
 21
292.8673072175977
 31
0.0
  0
LINE
  5
CFF5
330
1F
100
AcDbEntity
  8
0
  6
HIDDEN
 62
     1
 48
0.02
100
AcDbLine
 10
-164.6690643949396
 20
293.3673072175979
 30
0.0
 11
-164.6690643949396
 21
292.8673072175977
 31
0.0
  0
LINE
  5
CFF6
330
1F
100
AcDbEntity
  8
0
  6
HIDDEN
 62
     1
 48
0.02
100
AcDbLine
 10
-164.2690643949381
 20
293.3673072175977
 30
0.0
 11
-164.2690643949381
 21
292.8673072175977
 31
0.0
  0
LINE
  5
CFF7
330
1F
100
AcDbEntity
  8
0
  6
HIDDEN
 62
     1
 48
0.02
100
AcDbLine
 10
-165.2940643949396
 20
293.3673072175977
 30
0.0
 11
-164.6690643949396
 21
293.3673072175977
 31
0.0
  0
LINE
  5
CFF8
330
1F
100
AcDbEntity
  8
0
  6
HIDDEN
 62
     1
 48
0.02
100
AcDbLine
 10
-164.2690643949381
 20
293.3673072175977
 30
0.0
 11
-163.6440643949381
 21
293.3673072175977
 31
0.0
  0
LINE
  5
CFF9
330
1F
100
AcDbEntity
  8
0
  6
HIDDEN
 62
     1
 48
0.02
100
AcDbLine
 10
-165.0940643949389
 20
293.1173072175977
 30
0.0
 11
-165.0940643949389
 21
292.8673072175977
 31
0.0
  0
LINE
  5
CFFA
330
1F
100
AcDbEntity
  8
0
  6
HIDDEN
 62
     1
 48
0.02
100
AcDbLine
 10
-164.8440643949389
 20
293.1173072175977
 30
0.0
 11
-164.8440643949389
 21
292.8673072175977
 31
0.0
  0
LINE
  5
CFFB
330
1F
100
AcDbEntity
  8
0
  6
HIDDEN
 62
     1
 48
0.02
100
AcDbLine
 10
-165.0940643949389
 20
293.1173072175977
 30
0.0
 11
-164.8440643949389
 21
293.1173072175977
 31
0.0
  0
LWPOLYLINE
  5
CFFC
330
1F
100
AcDbEntity
  8
DETAILS
 62
     6
370
    20
100
AcDbPolyline
 90
        2
 70
     1
 43
0.0
 10
-168.0307306794157
 20
296.7923072175977
 10
-168.0443576533862
 20
296.7923072175977
  0
LWPOLYLINE
  5
CFFD
330
1F
100
AcDbEntity
  8
DETAILS
 62
     6
370
    20
100
AcDbPolyline
 90
        6
 70
     0
 43
0.0
 10
-165.2919157511924
 20
296.6427808485903
 10
-165.569475128791
 20
296.9203402261869
 42
0.1989123673782988
 10
-165.6225081373804
 20
296.9423072175975
 10
-168.2919157511905
 20
296.9423072175978
 42
-0.2793220653060733
 10
-168.0775978302126
 20
296.8124480515886
 42
0.279322065306064
 10
-168.0443576533862
 20
296.7923072175976
  0
LWPOLYLINE
  5
CFFE
330
1F
100
AcDbEntity
  8
DETAILS
 62
     6
370
    20
100
AcDbPolyline
 90
        2
 70
     1
 43
0.0
 10
-167.9557306794149
 20
296.7923072175977
 10
-166.9057306794156
 20
296.7923072175977
  0
LWPOLYLINE
  5
CFFF
330
1F
100
AcDbEntity
  8
DETAILS
 62
     6
370
    20
100
AcDbPolyline
 90
        6
 70
     0
 43
0.0
 10
-167.9557306794167
 20
296.9423072175975
 10
-167.9557306794149
 20
296.3198072175976
 42
0.4142135623730951
 10
-167.8057306794153
 20
296.1698072175977
 10
-167.1739571091702
 20
296.1698072175977
 42
0.3464949689054693
 10
-167.0281360537838
 20
296.2846472999908
 10
-166.8695631477303
 20
296.9423072175977
  0
LWPOLYLINE
  5
D000
330
1F
100
AcDbEntity
  8
DETAILS
 62
     6
370
    20
100
AcDbPolyline
 90
        6
 70
     0
 43
0.0
 10
-168.0307306794157
 20
296.9423072175975
 10
-168.0307306794157
 20
296.3198072175976
 42
0.4142135623730951
 10
-167.8057306794153
 20
296.0948072175976
 10
-167.1739571091702
 20
296.0948072175976
 42
0.3464949689054693
 10
-166.9552255260923
 20
296.2670673411874
 10
-166.7924137952568
 20
296.9423072175975
  0
LWPOLYLINE
  5
D001
330
1F
100
AcDbEntity
  8
DETAILS
 62
     6
370
    20
100
AcDbPolyline
 90
        2
 70
     1
 43
0.0
 10
-166.8285813269422
 20
296.7923072175977
 10
-166.8149543529734
 20
296.7923072175977
  0
LWPOLYLINE
  5
D002
330
1F
100
AcDbEntity
  8
DETAILS
 62
     6
370
    20
100
AcDbPolyline
 90
        6
 70
     0
 43
0.0
 10
-166.8149543529734
 20
296.7923072175976
 42
0.279322065306064
 10
-166.7817141754267
 20
296.8124480512127
 42
-0.6059183769079624
 10
-166.3530783341912
 20
296.8124480515886
 42
0.2793220653054726
 10
-166.3198381573629
 20
296.7923072175977
 10
-166.2499611833927
 20
296.7923072175977
 10
-166.3198381573629
 20
296.7923072175977
  0
LWPOLYLINE
  5
D003
330
1F
100
AcDbEntity
  8
DETAILS
 62
     6
370
    20
100
AcDbPolyline
 90
        7
 70
     0
 43
0.0
 10
-165.928942120202
 20
296.9423072175975
 10
-165.8539421202031
 20
296.9423072175975
 10
-165.6664421202031
 20
296.9423072175975
 10
-166.1134994934937
 20
296.9423072175975
 10
-166.25638874786
 20
296.3496931475633
 42
0.4853378929632635
 10
-166.1324408507816
 20
296.1923072175975
 10
-165.2919157511924
 20
296.1923072175975
  0
LWPOLYLINE
  5
D004
330
1F
100
AcDbEntity
  8
DETAILS
 62
     6
370
    20
100
AcDbPolyline
 90
        4
 70
     0
 43
0.0
 10
-166.2137936517092
 20
296.9423072175975
 10
-166.3511724338595
 20
296.3725470940077
 42
0.4853378929632635
 10
-166.1324408507816
 20
296.0948072175976
 10
-165.2919157511924
 20
296.0948072175976
  0
LWPOLYLINE
  5
D005
330
1F
100
AcDbEntity
  8
DETAILS
 62
     6
370
    20
100
AcDbPolyline
 90
       10
 70
     1
 43
0.0
 10
-168.2919157511905
 20
296.9798072175976
 10
-165.928942120202
 20
296.9798072175976
 10
-165.8556464150451
 20
296.9963743969722
 42
0.7807764064044151
 10
-165.8556464150451
 20
297.0007400382229
 10
-165.928942120202
 20
297.0173072175976
 10
-168.2919157511905
 20
297.0173072175976
 10
-170.6548893821809
 20
297.0173072175976
 10
-170.728185087336
 20
297.0007400382229
 42
0.7807764064044151
 10
-170.728185087336
 20
296.9963743969722
 10
-170.6548893821791
 20
296.9798072175976
  0
LWPOLYLINE
  5
D006
330
1F
100
AcDbEntity
  8
DETAILS
 62
     6
370
    20
100
AcDbPolyline
 90
        7
 70
     0
 43
0.0
 10
-171.2919157511924
 20
297.5793335866061
 10
-171.0143563735901
 20
297.3017742090084
 42
0.1989123673781765
 10
-170.9613233650025
 20
297.2798072175976
 10
-168.2919157511905
 20
297.2798072175976
 10
-165.6225081373804
 20
297.2798072175976
 42
0.1989123673781768
 10
-165.569475128791
 20
297.3017742090084
 10
-165.2919157511924
 20
297.5793335866045
  0
LWPOLYLINE
  5
D007
330
1F
100
AcDbEntity
  8
DETAILS
 62
     6
370
    20
100
AcDbPolyline
 90
        7
 70
     0
 43
0.0
 10
-171.2919157511924
 20
297.7293335866054
 10
-171.1022243392353
 20
297.5396421746509
 42
0.1989123673777967
 10
-170.8370592962919
 20
297.4298072175977
 10
-168.2919157511905
 20
297.4298072175975
 10
-165.7467722060892
 20
297.4298072175977
 42
0.1989123673777968
 10
-165.4816071631476
 20
297.5396421746509
 10
-165.2919157511924
 20
297.7293335866034
  0
LWPOLYLINE
  5
D008
330
1F
100
AcDbEntity
  8
DETAILS
 62
     6
370
    20
100
AcDbPolyline
 90
        4
 70
     0
 43
0.0
 10
-165.2919157511924
 20
296.4927808485888
 10
-165.4816071631476
 20
296.6824722605434
 42
0.1989123673788307
 10
-165.746772206091
 20
296.7923072175977
 10
-166.149667025179
 20
296.7923072175977
  0
LWPOLYLINE
  5
D009
330
1F
100
AcDbEntity
  8
DETAILS
 62
     6
370
    20
100
AcDbPolyline
 90
        4
 70
     0
 43
0.0
 10
-165.2919157511924
 20
297.3918335866066
 10
-165.493142607319
 20
297.1906067304816
 42
0.4142135623745727
 10
-165.493142607319
 20
297.0315077047142
 10
-165.2919157511924
 20
296.8302808485883
  0
LWPOLYLINE
  5
D00A
330
1F
100
AcDbEntity
  8
DETAILS
 62
     6
370
    20
100
AcDbPolyline
 90
        6
 70
     1
 43
0.0
 10
-168.2919157511905
 20
297.0548072175976
 10
-165.6664421202031
 20
297.0548072175975
 10
-165.6664421202031
 20
297.1673072175977
 10
-168.2919157511905
 20
297.1673072175977
 10
-170.9173893821798
 20
297.1673072175977
 10
-170.9173893821798
 20
297.0548072175975
  0
LWPOLYLINE
  5
D00B
330
1F
100
AcDbEntity
  8
DETAILS
 62
     6
370
    20
100
AcDbPolyline
 90
        2
 70
     1
 43
0.0
 10
-168.0307306794157
 20
301.4423072175977
 10
-168.0443576533862
 20
301.4423072175977
  0
LWPOLYLINE
  5
D00C
330
1F
100
AcDbEntity
  8
DETAILS
 62
     6
370
    20
100
AcDbPolyline
 90
        6
 70
     0
 43
0.0
 10
-168.0443576533862
 20
301.4423072175978
 42
0.279322065306064
 10
-168.0775978309311
 20
301.4221663839827
 42
-0.2793220653060733
 10
-168.2919157511905
 20
301.2923072175977
 10
-165.6225081373804
 20
301.2923072175977
 42
0.1989123673782991
 10
-165.569475128791
 20
301.3142742090084
 10
-165.2919157511924
 20
301.5918335866046
  0
LWPOLYLINE
  5
D00D
330
1F
100
AcDbEntity
  8
DETAILS
 62
     6
370
    20
100
AcDbPolyline
 90
        2
 70
     1
 43
0.0
 10
-167.9557306794149
 20
301.4423072175977
 10
-166.9057306794156
 20
301.4423072175977
  0
LWPOLYLINE
  5
D00E
330
1F
100
AcDbEntity
  8
DETAILS
 62
     6
370
    20
100
AcDbPolyline
 90
        6
 70
     0
 43
0.0
 10
-166.8695631477303
 20
301.2923072175977
 10
-167.0281360537838
 20
301.9499671352046
 42
0.3464949689054692
 10
-167.1739571091702
 20
302.0648072175977
 10
-167.8057306794153
 20
302.0648072175977
 42
0.4142135623730951
 10
-167.9557306794167
 20
301.9148072175976
 10
-167.9557306794167
 20
301.2923072175977
  0
LWPOLYLINE
  5
D00F
330
1F
100
AcDbEntity
  8
DETAILS
 62
     6
370
    20
100
AcDbPolyline
 90
        6
 70
     0
 43
0.0
 10
-166.7924137952568
 20
301.2923072175977
 10
-166.9552255260923
 20
301.967547094008
 42
0.3464949689054692
 10
-167.1739571091702
 20
302.1398072175978
 10
-167.8057306794153
 20
302.1398072175978
 42
0.4142135623730951
 10
-168.0307306794157
 20
301.9148072175976
 10
-168.0307306794157
 20
301.2923072175977
  0
LWPOLYLINE
  5
D010
330
1F
100
AcDbEntity
  8
DETAILS
 62
     6
370
    20
100
AcDbPolyline
 90
        2
 70
     1
 43
0.0
 10
-166.8285813269422
 20
301.4423072175977
 10
-166.8149543529734
 20
301.4423072175977
  0
LWPOLYLINE
  5
D011
330
1F
100
AcDbEntity
  8
DETAILS
 62
     6
370
    20
100
AcDbPolyline
 90
        6
 70
     0
 43
0.0
 10
-166.3198381573629
 20
301.4423072175977
 10
-166.2499611833946
 20
301.4423072175977
 10
-166.3198381573629
 20
301.4423072175977
 42
0.2793220653054726
 10
-166.3530783349115
 20
301.4221663839826
 42
-0.6059183769079625
 10
-166.781714176147
 20
301.4221663836067
 42
0.279322065306064
 10
-166.8149543529734
 20
301.4423072175978
  0
LWPOLYLINE
  5
D012
330
1F
100
AcDbEntity
  8
DETAILS
 62
     6
370
    20
100
AcDbPolyline
 90
        7
 70
     0
 43
0.0
 10
-165.2919157511924
 20
302.0423072175977
 10
-166.1324408507816
 20
302.0423072175977
 42
0.4853378929632635
 10
-166.25638874786
 20
301.8849212876321
 10
-166.1134994934937
 20
301.2923072175977
 10
-165.6664421202031
 20
301.2923072175977
 10
-165.8539421202031
 20
301.2923072175977
 10
-165.928942120202
 20
301.2923072175977
  0
LWPOLYLINE
  5
D013
330
1F
100
AcDbEntity
  8
DETAILS
 62
     6
370
    20
100
AcDbPolyline
 90
        4
 70
     0
 43
0.0
 10
-165.2919157511924
 20
302.1398072175977
 10
-166.1324408507816
 20
302.1398072175978
 42
0.4853378929632635
 10
-166.3511724338595
 20
301.8620673411876
 10
-166.2137936517092
 20
301.2923072175977
  0
LWPOLYLINE
  5
D014
330
1F
100
AcDbEntity
  8
DETAILS
 62
     6
370
    20
100
AcDbPolyline
 90
       10
 70
     1
 43
0.0
 10
-168.2919157511924
 20
301.2548072175978
 10
-170.6548893821791
 20
301.2548072175978
 10
-170.728185087336
 20
301.238240038223
 42
0.7807764064044151
 10
-170.728185087336
 20
301.2338743969724
 10
-170.6548893821809
 20
301.2173072175976
 10
-168.2919157511905
 20
301.2173072175976
 10
-165.928942120202
 20
301.2173072175976
 10
-165.8556464150451
 20
301.2338743969724
 42
0.7807764064044151
 10
-165.8556464150451
 20
301.238240038223
 10
-165.928942120202
 20
301.2548072175978
  0
LWPOLYLINE
  5
D015
330
1F
100
AcDbEntity
  8
DETAILS
 62
     6
370
    20
100
AcDbPolyline
 90
        7
 70
     0
 43
0.0
 10
-165.2919157511924
 20
300.6552808485909
 10
-165.569475128791
 20
300.932840226187
 42
0.1989123673781766
 10
-165.6225081373804
 20
300.9548072175976
 10
-168.2919157511905
 20
300.9548072175976
 10
-170.9613233650025
 20
300.9548072175976
 42
0.1989123673781765
 10
-171.0143563735901
 20
300.932840226187
 10
-171.2919157511924
 20
300.655280848589
  0
LWPOLYLINE
  5
D016
330
1F
100
AcDbEntity
  8
DETAILS
 62
     6
370
    20
100
AcDbPolyline
 90
        7
 70
     0
 43
0.0
 10
-165.2919157511924
 20
300.5052808485922
 10
-165.4816071631476
 20
300.6949722605444
 42
0.1989123673777966
 10
-165.7467722060892
 20
300.8048072175976
 10
-168.2919157511924
 20
300.8048072175977
 10
-170.8370592962919
 20
300.8048072175976
 42
0.1989123673777966
 10
-171.1022243392353
 20
300.6949722605444
 10
-171.2919157511924
 20
300.5052808485896
  0
LWPOLYLINE
  5
D017
330
1F
100
AcDbEntity
  8
DETAILS
 62
     6
370
    20
100
AcDbPolyline
 90
        4
 70
     0
 43
0.0
 10
-166.149667025179
 20
301.4423072175977
 10
-165.746772206091
 20
301.4423072175977
 42
0.1989123673788307
 10
-165.4816071631476
 20
301.5521421746519
 10
-165.2919157511924
 20
301.741833586606
  0
LWPOLYLINE
  5
D018
330
1F
100
AcDbEntity
  8
DETAILS
 62
     6
370
    20
100
AcDbPolyline
 90
        4
 70
     0
 43
0.0
 10
-165.2919157511924
 20
301.4043335866072
 10
-165.493142607319
 20
301.2031067304811
 42
0.4142135623745727
 10
-165.493142607319
 20
301.0440077047138
 10
-165.2919157511924
 20
300.8427808485892
  0
LWPOLYLINE
  5
D019
330
1F
100
AcDbEntity
  8
DETAILS
 62
     6
370
    20
100
AcDbPolyline
 90
        6
 70
     1
 43
0.0
 10
-168.2919157511905
 20
301.1798072175977
 10
-165.6664421202031
 20
301.1798072175977
 10
-165.6664421202031
 20
301.0673072175976
 10
-168.2919157511905
 20
301.0673072175976
 10
-170.9173893821798
 20
301.0673072175976
 10
-170.9173893821798
 20
301.1798072175977
  0
LWPOLYLINE
  5
D01A
330
1F
100
AcDbEntity
  8
DETAILS
 62
     6
370
    20
100
AcDbPolyline
 90
        2
 70
     1
 43
0.0
 10
-168.5531008229654
 20
296.7923072175977
 10
-168.5394738489967
 20
296.7923072175977
  0
LWPOLYLINE
  5
D01B
330
1F
100
AcDbEntity
  8
DETAILS
 62
     6
370
    20
100
AcDbPolyline
 90
        6
 70
     0
 43
0.0
 10
-168.5394738489967
 20
296.7923072175976
 42
0.279322065306064
 10
-168.50623367145
 20
296.8124480512127
 42
-0.2793220653060734
 10
-168.2919157511905
 20
296.9423072175975
 10
-170.9613233650025
 20
296.9423072175975
 42
0.1989123673782987
 10
-171.0143563735901
 20
296.9203402261869
 10
-171.2919157511924
 20
296.6427808485887
  0
LWPOLYLINE
  5
D01C
330
1F
100
AcDbEntity
  8
DETAILS
 62
     6
370
    20
100
AcDbPolyline
 90
        2
 70
     1
 43
0.0
 10
-168.6281008229662
 20
296.7923072175977
 10
-169.6781008229654
 20
296.7923072175977
  0
LWPOLYLINE
  5
D01D
330
1F
100
AcDbEntity
  8
DETAILS
 62
     6
370
    20
100
AcDbPolyline
 90
        6
 70
     0
 43
0.0
 10
-169.7142683546508
 20
296.9423072175977
 10
-169.5556954485973
 20
296.2846472999908
 42
0.3464949689054692
 10
-169.4098743932109
 20
296.1698072175975
 10
-168.7781008229658
 20
296.1698072175977
 42
0.4142135623730951
 10
-168.6281008229662
 20
296.3198072175976
 10
-168.6281008229662
 20
296.9423072175975
  0
LWPOLYLINE
  5
D01E
330
1F
100
AcDbEntity
  8
DETAILS
 62
     6
370
    20
100
AcDbPolyline
 90
        6
 70
     0
 43
0.0
 10
-169.7914177071243
 20
296.9423072175975
 10
-169.6286059762906
 20
296.2670673411874
 42
0.3464949689054692
 10
-169.4098743932109
 20
296.0948072175976
 10
-168.7781008229658
 20
296.0948072175976
 42
0.4142135623730951
 10
-168.5531008229654
 20
296.3198072175976
 10
-168.5531008229654
 20
296.9423072175975
  0
LWPOLYLINE
  5
D01F
330
1F
100
AcDbEntity
  8
DETAILS
 62
     6
370
    20
100
AcDbPolyline
 90
        2
 70
     1
 43
0.0
 10
-169.7552501754389
 20
296.7923072175977
 10
-169.7688771494076
 20
296.7923072175977
  0
LWPOLYLINE
  5
D020
330
1F
100
AcDbEntity
  8
DETAILS
 62
     6
370
    20
100
AcDbPolyline
 90
        6
 70
     0
 43
0.0
 10
-170.2639933450182
 20
296.7923072175977
 10
-170.3338703189883
 20
296.7923072175977
 10
-170.2639933450182
 20
296.7923072175977
 42
0.2793220653054726
 10
-170.2307531674714
 20
296.8124480512127
 42
-0.6059183769079624
 10
-169.8021173262341
 20
296.8124480515886
 42
0.279322065306064
 10
-169.7688771494076
 20
296.7923072175976
  0
LWPOLYLINE
  5
D021
330
1F
100
AcDbEntity
  8
DETAILS
 62
     6
370
    20
100
AcDbPolyline
 90
        7
 70
     0
 43
0.0
 10
-171.2919157511924
 20
296.1923072175975
 10
-170.4513906515994
 20
296.1923072175975
 42
0.4853378929632635
 10
-170.3274427545229
 20
296.3496931475632
 10
-170.4703320088893
 20
296.9423072175975
 10
-170.9173893821798
 20
296.9423072175975
 10
-170.7298893821798
 20
296.9423072175975
 10
-170.6548893821791
 20
296.9423072175975
  0
LWPOLYLINE
  5
D022
330
1F
100
AcDbEntity
  8
DETAILS
 62
     6
370
    20
100
AcDbPolyline
 90
        4
 70
     0
 43
0.0
 10
-171.2919157511924
 20
296.0948072175976
 10
-170.4513906515994
 20
296.0948072175976
 42
0.4853378929632635
 10
-170.2326590685215
 20
296.3725470940077
 10
-170.3700378506737
 20
296.9423072175975
  0
LWPOLYLINE
  5
D023
330
1F
100
AcDbEntity
  8
DETAILS
 62
     6
370
    20
100
AcDbPolyline
 90
        4
 70
     0
 43
0.0
 10
-170.4341644772039
 20
296.7923072175977
 10
-170.8370592962901
 20
296.7923072175977
 42
0.1989123673788306
 10
-171.1022243392353
 20
296.6824722605434
 10
-171.2919157511924
 20
296.4927808485872
  0
LWPOLYLINE
  5
D024
330
1F
100
AcDbEntity
  8
DETAILS
 62
     6
370
    20
100
AcDbPolyline
 90
        4
 70
     0
 43
0.0
 10
-171.2919157511924
 20
296.8302808485865
 10
-171.0906888950639
 20
297.0315077047142
 42
0.4142135623745727
 10
-171.0906888950639
 20
297.1906067304816
 10
-171.2919157511924
 20
297.3918335866081
  0
LWPOLYLINE
  5
D025
330
1F
100
AcDbEntity
  8
DETAILS
 62
     6
370
    20
100
AcDbPolyline
 90
        2
 70
     1
 43
0.0
 10
-168.5531008229654
 20
301.4423072175977
 10
-168.5394738489967
 20
301.4423072175977
  0
LWPOLYLINE
  5
D026
330
1F
100
AcDbEntity
  8
DETAILS
 62
     6
370
    20
100
AcDbPolyline
 90
        6
 70
     0
 43
0.0
 10
-171.2919157511924
 20
301.5918335866067
 10
-171.0143563735901
 20
301.3142742090084
 42
0.1989123673782989
 10
-170.9613233650025
 20
301.2923072175977
 10
-168.2919157511905
 20
301.2923072175975
 42
-0.2793220653060733
 10
-168.5062336721703
 20
301.4221663836067
 42
0.279322065306064
 10
-168.5394738489967
 20
301.4423072175978
  0
LWPOLYLINE
  5
D027
330
1F
100
AcDbEntity
  8
DETAILS
 62
     6
370
    20
100
AcDbPolyline
 90
        2
 70
     1
 43
0.0
 10
-168.6281008229662
 20
301.4423072175977
 10
-169.6781008229654
 20
301.4423072175977
  0
LWPOLYLINE
  5
D028
330
1F
100
AcDbEntity
  8
DETAILS
 62
     6
370
    20
100
AcDbPolyline
 90
        6
 70
     0
 43
0.0
 10
-168.6281008229662
 20
301.2923072175977
 10
-168.6281008229662
 20
301.9148072175976
 42
0.4142135623730951
 10
-168.7781008229658
 20
302.0648072175977
 10
-169.4098743932109
 20
302.0648072175977
 42
0.3464949689054692
 10
-169.5556954485973
 20
301.9499671352046
 10
-169.7142683546508
 20
301.2923072175977
  0
LWPOLYLINE
  5
D029
330
1F
100
AcDbEntity
  8
DETAILS
 62
     6
370
    20
100
AcDbPolyline
 90
        6
 70
     0
 43
0.0
 10
-168.5531008229654
 20
301.2923072175977
 10
-168.5531008229654
 20
301.9148072175976
 42
0.4142135623730951
 10
-168.7781008229658
 20
302.1398072175978
 10
-169.4098743932109
 20
302.1398072175978
 42
0.3464949689054692
 10
-169.6286059762906
 20
301.967547094008
 10
-169.7914177071243
 20
301.2923072175977
  0
LWPOLYLINE
  5
D02A
330
1F
100
AcDbEntity
  8
DETAILS
 62
     6
370
    20
100
AcDbPolyline
 90
        2
 70
     1
 43
0.0
 10
-169.7552501754389
 20
301.4423072175977
 10
-169.7688771494076
 20
301.4423072175977
  0
LWPOLYLINE
  5
D02B
330
1F
100
AcDbEntity
  8
DETAILS
 62
     6
370
    20
100
AcDbPolyline
 90
        6
 70
     0
 43
0.0
 10
-169.7688771494076
 20
301.4423072175978
 42
0.279322065306064
 10
-169.8021173269544
 20
301.4221663839827
 42
-0.6059183769079624
 10
-170.2307531681917
 20
301.4221663836067
 42
0.2793220653054726
 10
-170.2639933450182
 20
301.4423072175977
 10
-170.3338703189883
 20
301.4423072175977
 10
-170.2639933450182
 20
301.4423072175977
  0
LWPOLYLINE
  5
D02C
330
1F
100
AcDbEntity
  8
DETAILS
 62
     6
370
    20
100
AcDbPolyline
 90
        7
 70
     0
 43
0.0
 10
-170.6548893821791
 20
301.2923072175977
 10
-170.7298893821798
 20
301.2923072175977
 10
-170.9173893821798
 20
301.2923072175977
 10
-170.4703320088893
 20
301.2923072175977
 10
-170.3274427545211
 20
301.8849212876319
 42
0.4853378929632635
 10
-170.4513906515994
 20
302.0423072175977
 10
-171.2919157511924
 20
302.0423072175977
  0
LWPOLYLINE
  5
D02D
330
1F
100
AcDbEntity
  8
DETAILS
 62
     6
370
    20
100
AcDbPolyline
 90
        4
 70
     0
 43
0.0
 10
-170.3700378506737
 20
301.2923072175977
 10
-170.2326590685215
 20
301.8620673411876
 42
0.4853378929632635
 10
-170.4513906515994
 20
302.1398072175978
 10
-171.2919157511924
 20
302.1398072175977
  0
LWPOLYLINE
  5
D02E
330
1F
100
AcDbEntity
  8
DETAILS
 62
     6
370
    20
100
AcDbPolyline
 90
        4
 70
     0
 43
0.0
 10
-171.2919157511924
 20
301.7418335866083
 10
-171.1022243392353
 20
301.5521421746519
 42
0.1989123673788307
 10
-170.8370592962901
 20
301.4423072175977
 10
-170.4341644772039
 20
301.4423072175977
  0
LWPOLYLINE
  5
D02F
330
1F
100
AcDbEntity
  8
DETAILS
 62
     6
370
    20
100
AcDbPolyline
 90
        4
 70
     0
 43
0.0
 10
-171.2919157511924
 20
300.842780848587
 10
-171.0906888950639
 20
301.0440077047138
 42
0.4142135623745727
 10
-171.0906888950639
 20
301.2031067304811
 10
-171.2919157511924
 20
301.404333586609
  0
LINE
  5
D030
330
1F
100
AcDbEntity
  8
0
 62
     1
100
AcDbLine
 10
-173.2897671074415
 20
292.8673072175977
 30
0.0
 11
-173.2897671074415
 21
280.3969903309051
 31
0.0
  0
LINE
  5
D031
330
1F
100
AcDbEntity
  8
0
 62
     1
100
AcDbLine
 10
-163.2940643949396
 20
292.8673072175977
 30
0.0
 11
-163.2940643949396
 21
283.7869592070249
 31
0.0
  0
LINE
  5
D032
330
1F
100
AcDbEntity
  8
0
 62
     1
100
AcDbLine
 10
-173.2897671074415
 20
292.8673072175977
 30
0.0
 11
-171.7397671074422
 21
292.8673072175977
 31
0.0
  0
LINE
  5
D033
330
1F
100
AcDbEntity
  8
0
 62
     1
100
AcDbLine
 10
-173.2897671074415
 20
280.8673072175977
 30
0.0
 11
-171.9029851186251
 21
280.8673072175977
 31
0.0
  0
LINE
  5
D034
330
1F
100
AcDbEntity
  8
0
 62
     1
100
AcDbLine
 10
-171.2897671074415
 20
293.3673072175977
 30
0.0
 11
-171.2897671074415
 21
281.0752755848032
 31
0.0
  0
LINE
  5
D035
330
1F
100
AcDbEntity
  8
0
 62
     1
100
AcDbLine
 10
-165.2940643949414
 20
293.3673072175977
 30
0.0
 11
-165.2940643949396
 21
283.1086739531265
 31
0.0
  0
LINE
  5
D036
330
1F
100
AcDbEntity
  8
0
 62
     1
100
AcDbLine
 10
-172.9397671074412
 20
293.3673072175977
 30
0.0
 11
-172.3147671074412
 21
293.3673072175977
 31
0.0
  0
LINE
  5
D037
330
1F
100
AcDbEntity
  8
0
 62
     1
100
AcDbLine
 10
-172.9397671074412
 20
293.3673072175977
 30
0.0
 11
-172.9397671074412
 21
280.5156902503374
 31
0.0
  0
LINE
  5
D038
330
1F
100
AcDbEntity
  8
0
 62
     1
100
AcDbLine
 10
-163.6440643949399
 20
293.3673072175977
 30
0.0
 11
-163.6440643949399
 21
292.8673072175977
 31
0.0
  0
LINE
  5
D039
330
1F
100
AcDbEntity
  8
0
 62
     1
100
AcDbLine
 10
-171.9147671074415
 20
293.3673072175977
 30
0.0
 11
-171.9147671074415
 21
292.8673072175976
 31
0.0
  0
LINE
  5
D03A
330
1F
100
AcDbEntity
  8
0
 62
     1
100
AcDbLine
 10
-172.3147671074412
 20
293.3673072175977
 30
0.0
 11
-172.3147671074412
 21
292.8673072175977
 31
0.0
  0
LINE
  5
D03B
330
1F
100
AcDbEntity
  8
0
 62
     1
100
AcDbLine
 10
-164.6690643949414
 20
293.3673072175977
 30
0.0
 11
-164.6690643949414
 21
292.8673072175977
 31
0.0
  0
LINE
  5
D03C
330
1F
100
AcDbEntity
  8
0
 62
     1
100
AcDbLine
 10
-164.2690643949399
 20
293.3673072175977
 30
0.0
 11
-164.2690643949399
 21
292.8673072175977
 31
0.0
  0
LINE
  5
D03D
330
1F
100
AcDbEntity
  8
0
 62
     1
100
AcDbLine
 10
-165.2940643949396
 20
293.3673072175977
 30
0.0
 11
-164.6690643949396
 21
293.3673072175977
 31
0.0
  0
LINE
  5
D03E
330
1F
100
AcDbEntity
  8
0
 62
     1
100
AcDbLine
 10
-164.2690643949399
 20
293.3673072175977
 30
0.0
 11
-163.6440643949399
 21
293.3673072175977
 31
0.0
  0
LINE
  5
D03F
330
1F
100
AcDbEntity
  8
0
 62
     1
100
AcDbLine
 10
-171.9147671074415
 20
293.3673072175977
 30
0.0
 11
-171.2897671074415
 21
293.3673072175977
 31
0.0
  0
LINE
  5
D040
330
1F
100
AcDbEntity
  8
0
 62
     1
100
AcDbLine
 10
-171.4897671074423
 20
293.1173072175977
 30
0.0
 11
-171.4897671074423
 21
281.0074470594131
 31
0.0
  0
LINE
  5
D041
330
1F
100
AcDbEntity
  8
0
 62
     1
100
AcDbLine
 10
-165.0940643949407
 20
293.1173072175977
 30
0.0
 11
-165.0940643949407
 21
283.1765024785161
 31
0.0
  0
LINE
  5
D042
330
1F
100
AcDbEntity
  8
0
 62
     1
100
AcDbLine
 10
-171.7397671074422
 20
293.1173072175977
 30
0.0
 11
-171.7397671074422
 21
292.8673072175977
 31
0.0
  0
LINE
  5
D043
330
1F
100
AcDbEntity
  8
0
 62
     1
100
AcDbLine
 10
-164.8440643949407
 20
293.1173072175977
 30
0.0
 11
-164.8440643949407
 21
292.8673072175977
 31
0.0
  0
LINE
  5
D044
330
1F
100
AcDbEntity
  8
0
 62
     1
100
AcDbLine
 10
-171.7397671074422
 20
293.1173072175977
 30
0.0
 11
-171.4897671074423
 21
293.1173072175977
 31
0.0
  0
LINE
  5
D045
330
1F
100
AcDbEntity
  8
0
 62
     1
100
AcDbLine
 10
-165.0940643949407
 20
293.1173072175977
 30
0.0
 11
-164.8440643949407
 21
293.1173072175977
 31
0.0
  0
LINE
  5
D046
330
1F
100
AcDbEntity
  8
0
 62
     1
100
AcDbLine
 10
-164.8790643949405
 20
292.8673072175977
 30
0.0
 11
-163.2940643949396
 21
292.8673072175977
 31
0.0
  0
LINE
  5
D047
330
1F
100
AcDbEntity
  8
0
 62
     1
100
AcDbLine
 10
-171.4897671074423
 20
292.8673072175977
 30
0.0
 11
-171.2897671074415
 21
292.8673072175977
 31
0.0
  0
LINE
  5
D048
330
1F
100
AcDbEntity
  8
0
 62
     1
100
AcDbLine
 10
-164.8790643949405
 20
292.8673072175977
 30
0.0
 11
-164.8790643949405
 21
283.2494181433102
 31
0.0
  0
LINE
  5
D049
330
1F
100
AcDbEntity
  8
0
 62
     1
100
AcDbLine
 10
-164.059064394939
 20
292.8673072175977
 30
0.0
 11
-164.059064394939
 21
283.527515097409
 31
0.0
  0
LINE
  5
D04A
330
1F
100
AcDbEntity
  8
A2 Hatch
  6
DASHED2
 48
0.15
100
AcDbLine
 10
-164.7190643949388
 20
292.8673072175977
 30
0.0
 11
-164.7190643949388
 21
283.3036809636227
 31
0.0
  0
LINE
  5
D04B
330
1F
100
AcDbEntity
  8
A2 Hatch
  6
DASHED2
 48
0.15
100
AcDbLine
 10
-164.2190643949389
 20
292.8673072175977
 30
0.0
 11
-164.2190643949389
 21
283.4732522770972
 31
0.0
  0
LINE
  5
D04C
330
1F
100
AcDbEntity
  8
0
 48
0.15
100
AcDbLine
 10
-172.3147671074412
 20
292.8673072175977
 30
0.0
 11
-171.9147671074415
 21
292.8673072175977
 31
0.0
  0
LINE
  5
D04D
330
1F
100
AcDbEntity
  8
A2 Hatch
  6
DASHED2
 48
0.15
100
AcDbLine
 10
-172.5247671074421
 20
293.3673072175977
 30
0.0
 11
-172.5247671074421
 21
280.656434440521
 31
0.0
  0
LINE
  5
D04E
330
1F
100
AcDbEntity
  8
A2 Hatch
  6
DASHED2
 48
0.15
100
AcDbLine
 10
-171.7047671074424
 20
293.3673072175977
 30
0.0
 11
-171.7047671074424
 21
280.9345313946192
 31
0.0
  0
LINE
  5
D04F
330
1F
100
AcDbEntity
  8
0
 62
     1
100
AcDbLine
 10
-172.3647671074423
 20
293.3673072175977
 30
0.0
 11
-172.3647671074423
 21
280.7106972608328
 31
0.0
  0
LINE
  5
D050
330
1F
100
AcDbEntity
  8
0
 62
     1
100
AcDbLine
 10
-171.8647671074422
 20
293.3673072175977
 30
0.0
 11
-171.8647671074422
 21
280.8802685743074
 31
0.0
  0
LINE
  5
D051
330
1F
100
AcDbEntity
  8
0
 62
     1
100
AcDbLine
 10
-171.8647671074422
 20
292.8673072175977
 30
0.0
 11
-172.3647671074423
 21
292.8673072175977
 31
0.0
  0
LINE
  5
D052
330
1F
100
AcDbEntity
  8
0
 62
     1
100
AcDbLine
 10
-165.2940643949396
 20
292.8673072175977
 30
0.0
 11
-165.0940643949407
 21
292.8673072175977
 31
0.0
  0
LINE
  5
D053
330
1F
100
AcDbEntity
  8
0
 62
     1
100
AcDbLine
 10
-171.2897671074415
 20
281.3673072175977
 30
0.0
 11
-171.2897671074415
 21
281.0752755848032
 31
0.0
  0
LINE
  5
D054
330
1F
100
AcDbEntity
  8
0
  6
HIDDEN
 62
     1
 48
0.02
100
AcDbLine
 10
-172.9397671074412
 20
281.3673072175977
 30
0.0
 11
-172.3147671074412
 21
281.3673072175977
 31
0.0
  0
LINE
  5
D055
330
1F
100
AcDbEntity
  8
0
  6
HIDDEN
 62
     1
 48
0.02
100
AcDbLine
 10
-172.9397671074412
 20
281.3673072175977
 30
0.0
 11
-172.9397671074412
 21
280.8673072175977
 31
0.0
  0
LINE
  5
D056
330
1F
100
AcDbEntity
  8
0
  6
HIDDEN
 62
     1
 48
0.02
100
AcDbLine
 10
-171.9147671074415
 20
281.3673072175977
 30
0.0
 11
-171.9147671074415
 21
280.8673072175975
 31
0.0
  0
LINE
  5
D057
330
1F
100
AcDbEntity
  8
0
  6
HIDDEN
 62
     1
 48
0.02
100
AcDbLine
 10
-172.3147671074412
 20
281.3673072175977
 30
0.0
 11
-172.3147671074412
 21
280.8673072175977
 31
0.0
  0
LINE
  5
D058
330
1F
100
AcDbEntity
  8
0
  6
HIDDEN
 62
     1
 48
0.02
100
AcDbLine
 10
-171.9147671074415
 20
281.3673072175977
 30
0.0
 11
-171.2897671074415
 21
281.3673072175977
 31
0.0
  0
LWPOLYLINE
  5
D059
330
1F
100
AcDbEntity
  8
DETAILS
 62
     6
370
    20
100
AcDbPolyline
 90
        2
 70
     1
 43
0.0
 10
-168.0307306794157
 20
284.7923072175977
 10
-168.0443576533862
 20
284.7923072175977
  0
LWPOLYLINE
  5
D05A
330
1F
100
AcDbEntity
  8
DETAILS
 62
     6
370
    20
100
AcDbPolyline
 90
        6
 70
     0
 43
0.0
 10
-165.2919157511924
 20
284.6427808485903
 10
-165.569475128791
 20
284.9203402261869
 42
0.1989123673782988
 10
-165.6225081373804
 20
284.9423072175976
 10
-168.2919157511905
 20
284.9423072175978
 42
-0.2793220653060733
 10
-168.0775978302126
 20
284.8124480515886
 42
0.279322065306064
 10
-168.0443576533862
 20
284.7923072175976
  0
LWPOLYLINE
  5
D05B
330
1F
100
AcDbEntity
  8
DETAILS
 62
     6
370
    20
100
AcDbPolyline
 90
        2
 70
     1
 43
0.0
 10
-167.9557306794149
 20
284.7923072175977
 10
-166.9057306794156
 20
284.7923072175977
  0
LWPOLYLINE
  5
D05C
330
1F
100
AcDbEntity
  8
DETAILS
 62
     6
370
    20
100
AcDbPolyline
 90
        6
 70
     0
 43
0.0
 10
-167.9557306794167
 20
284.9423072175976
 10
-167.9557306794149
 20
284.3198072175976
 42
0.4142135623730951
 10
-167.8057306794153
 20
284.1698072175976
 10
-167.1739571091702
 20
284.1698072175976
 42
0.3464949689054693
 10
-167.0281360537838
 20
284.2846472999907
 10
-166.8695631477303
 20
284.9423072175977
  0
LWPOLYLINE
  5
D05D
330
1F
100
AcDbEntity
  8
DETAILS
 62
     6
370
    20
100
AcDbPolyline
 90
        6
 70
     0
 43
0.0
 10
-168.0307306794157
 20
284.9423072175976
 10
-168.0307306794157
 20
284.3198072175976
 42
0.4142135623730951
 10
-167.8057306794153
 20
284.0948072175976
 10
-167.1739571091702
 20
284.0948072175976
 42
0.3464949689054693
 10
-166.9552255260923
 20
284.2670673411874
 10
-166.7924137952568
 20
284.9423072175976
  0
LWPOLYLINE
  5
D05E
330
1F
100
AcDbEntity
  8
DETAILS
 62
     6
370
    20
100
AcDbPolyline
 90
        2
 70
     1
 43
0.0
 10
-166.8285813269422
 20
284.7923072175977
 10
-166.8149543529734
 20
284.7923072175977
  0
LWPOLYLINE
  5
D05F
330
1F
100
AcDbEntity
  8
DETAILS
 62
     6
370
    20
100
AcDbPolyline
 90
        6
 70
     0
 43
0.0
 10
-166.8149543529734
 20
284.7923072175976
 42
0.279322065306064
 10
-166.7817141754267
 20
284.8124480512126
 42
-0.6059183769079624
 10
-166.3530783341912
 20
284.8124480515886
 42
0.2793220653054726
 10
-166.3198381573629
 20
284.7923072175977
 10
-166.2499611833927
 20
284.7923072175977
 10
-166.3198381573629
 20
284.7923072175977
  0
LWPOLYLINE
  5
D060
330
1F
100
AcDbEntity
  8
DETAILS
 62
     6
370
    20
100
AcDbPolyline
 90
        7
 70
     0
 43
0.0
 10
-165.928942120202
 20
284.9423072175976
 10
-165.8539421202031
 20
284.9423072175976
 10
-165.6664421202031
 20
284.9423072175976
 10
-166.1134994934937
 20
284.9423072175976
 10
-166.25638874786
 20
284.3496931475634
 42
0.4853378929632635
 10
-166.1324408507816
 20
284.1923072175975
 10
-165.2919157511924
 20
284.1923072175975
  0
LWPOLYLINE
  5
D061
330
1F
100
AcDbEntity
  8
DETAILS
 62
     6
370
    20
100
AcDbPolyline
 90
        4
 70
     0
 43
0.0
 10
-166.2137936517092
 20
284.9423072175976
 10
-166.3511724338595
 20
284.3725470940077
 42
0.4853378929632635
 10
-166.1324408507816
 20
284.0948072175976
 10
-165.2919157511924
 20
284.0948072175976
  0
LWPOLYLINE
  5
D062
330
1F
100
AcDbEntity
  8
DETAILS
 62
     6
370
    20
100
AcDbPolyline
 90
       10
 70
     1
 43
0.0
 10
-168.2919157511905
 20
284.9798072175976
 10
-165.928942120202
 20
284.9798072175976
 10
-165.8556464150451
 20
284.9963743969722
 42
0.7807764064044151
 10
-165.8556464150451
 20
285.0007400382228
 10
-165.928942120202
 20
285.0173072175976
 10
-168.2919157511905
 20
285.0173072175976
 10
-170.6548893821809
 20
285.0173072175976
 10
-170.728185087336
 20
285.0007400382228
 42
0.7807764064044151
 10
-170.728185087336
 20
284.9963743969722
 10
-170.6548893821791
 20
284.9798072175976
  0
LWPOLYLINE
  5
D063
330
1F
100
AcDbEntity
  8
DETAILS
 62
     6
370
    20
100
AcDbPolyline
 90
        7
 70
     0
 43
0.0
 10
-171.2919157511924
 20
285.5793335866061
 10
-171.0143563735901
 20
285.3017742090084
 42
0.1989123673781765
 10
-170.9613233650025
 20
285.2798072175976
 10
-168.2919157511905
 20
285.2798072175976
 10
-165.6225081373804
 20
285.2798072175976
 42
0.1989123673781768
 10
-165.569475128791
 20
285.3017742090084
 10
-165.2919157511924
 20
285.5793335866045
  0
LWPOLYLINE
  5
D064
330
1F
100
AcDbEntity
  8
DETAILS
 62
     6
370
    20
100
AcDbPolyline
 90
        7
 70
     0
 43
0.0
 10
-171.2919157511924
 20
285.7293335866054
 10
-171.1022243392353
 20
285.5396421746509
 42
0.1989123673777967
 10
-170.8370592962919
 20
285.4298072175977
 10
-168.2919157511905
 20
285.4298072175975
 10
-165.7467722060892
 20
285.4298072175977
 42
0.1989123673777968
 10
-165.4816071631476
 20
285.5396421746509
 10
-165.2919157511924
 20
285.7293335866034
  0
LWPOLYLINE
  5
D065
330
1F
100
AcDbEntity
  8
DETAILS
 62
     6
370
    20
100
AcDbPolyline
 90
        4
 70
     0
 43
0.0
 10
-165.2919157511924
 20
284.4927808485888
 10
-165.4816071631476
 20
284.6824722605433
 42
0.1989123673788307
 10
-165.746772206091
 20
284.7923072175977
 10
-166.149667025179
 20
284.7923072175977
  0
LWPOLYLINE
  5
D066
330
1F
100
AcDbEntity
  8
DETAILS
 62
     6
370
    20
100
AcDbPolyline
 90
        4
 70
     0
 43
0.0
 10
-165.2919157511924
 20
285.3918335866066
 10
-165.493142607319
 20
285.1906067304816
 42
0.4142135623745727
 10
-165.493142607319
 20
285.0315077047142
 10
-165.2919157511924
 20
284.8302808485883
  0
LWPOLYLINE
  5
D067
330
1F
100
AcDbEntity
  8
DETAILS
 62
     6
370
    20
100
AcDbPolyline
 90
        6
 70
     1
 43
0.0
 10
-168.2919157511905
 20
285.0548072175976
 10
-165.6664421202031
 20
285.0548072175975
 10
-165.6664421202031
 20
285.1673072175977
 10
-168.2919157511905
 20
285.1673072175977
 10
-170.9173893821798
 20
285.1673072175977
 10
-170.9173893821798
 20
285.0548072175975
  0
LWPOLYLINE
  5
D068
330
1F
100
AcDbEntity
  8
DETAILS
 62
     6
370
    20
100
AcDbPolyline
 90
        2
 70
     1
 43
0.0
 10
-168.0307306794157
 20
289.4423072175976
 10
-168.0443576533862
 20
289.4423072175976
  0
LWPOLYLINE
  5
D069
330
1F
100
AcDbEntity
  8
DETAILS
 62
     6
370
    20
100
AcDbPolyline
 90
        6
 70
     0
 43
0.0
 10
-168.0443576533862
 20
289.4423072175978
 42
0.279322065306064
 10
-168.0775978309311
 20
289.4221663839827
 42
-0.2793220653060733
 10
-168.2919157511905
 20
289.2923072175977
 10
-165.6225081373804
 20
289.2923072175977
 42
0.1989123673782991
 10
-165.569475128791
 20
289.3142742090084
 10
-165.2919157511924
 20
289.5918335866046
  0
LWPOLYLINE
  5
D06A
330
1F
100
AcDbEntity
  8
DETAILS
 62
     6
370
    20
100
AcDbPolyline
 90
        2
 70
     1
 43
0.0
 10
-167.9557306794149
 20
289.4423072175976
 10
-166.9057306794156
 20
289.4423072175976
  0
LWPOLYLINE
  5
D06B
330
1F
100
AcDbEntity
  8
DETAILS
 62
     6
370
    20
100
AcDbPolyline
 90
        6
 70
     0
 43
0.0
 10
-166.8695631477303
 20
289.2923072175977
 10
-167.0281360537838
 20
289.9499671352046
 42
0.3464949689054692
 10
-167.1739571091702
 20
290.0648072175977
 10
-167.8057306794153
 20
290.0648072175977
 42
0.4142135623730951
 10
-167.9557306794167
 20
289.9148072175976
 10
-167.9557306794167
 20
289.2923072175977
  0
LWPOLYLINE
  5
D06C
330
1F
100
AcDbEntity
  8
DETAILS
 62
     6
370
    20
100
AcDbPolyline
 90
        6
 70
     0
 43
0.0
 10
-166.7924137952568
 20
289.2923072175977
 10
-166.9552255260923
 20
289.967547094008
 42
0.3464949689054692
 10
-167.1739571091702
 20
290.1398072175977
 10
-167.8057306794153
 20
290.1398072175977
 42
0.4142135623730951
 10
-168.0307306794157
 20
289.9148072175976
 10
-168.0307306794157
 20
289.2923072175977
  0
LWPOLYLINE
  5
D06D
330
1F
100
AcDbEntity
  8
DETAILS
 62
     6
370
    20
100
AcDbPolyline
 90
        2
 70
     1
 43
0.0
 10
-166.8285813269422
 20
289.4423072175976
 10
-166.8149543529734
 20
289.4423072175976
  0
LWPOLYLINE
  5
D06E
330
1F
100
AcDbEntity
  8
DETAILS
 62
     6
370
    20
100
AcDbPolyline
 90
        6
 70
     0
 43
0.0
 10
-166.3198381573629
 20
289.4423072175976
 10
-166.2499611833946
 20
289.4423072175976
 10
-166.3198381573629
 20
289.4423072175976
 42
0.2793220653054726
 10
-166.3530783349115
 20
289.4221663839826
 42
-0.6059183769079625
 10
-166.781714176147
 20
289.4221663836067
 42
0.279322065306064
 10
-166.8149543529734
 20
289.4423072175978
  0
LWPOLYLINE
  5
D06F
330
1F
100
AcDbEntity
  8
DETAILS
 62
     6
370
    20
100
AcDbPolyline
 90
        7
 70
     0
 43
0.0
 10
-165.2919157511924
 20
290.0423072175977
 10
-166.1324408507816
 20
290.0423072175977
 42
0.4853378929632635
 10
-166.25638874786
 20
289.8849212876321
 10
-166.1134994934937
 20
289.2923072175977
 10
-165.6664421202031
 20
289.2923072175977
 10
-165.8539421202031
 20
289.2923072175977
 10
-165.928942120202
 20
289.2923072175977
  0
LWPOLYLINE
  5
D070
330
1F
100
AcDbEntity
  8
DETAILS
 62
     6
370
    20
100
AcDbPolyline
 90
        4
 70
     0
 43
0.0
 10
-165.2919157511924
 20
290.1398072175977
 10
-166.1324408507816
 20
290.1398072175977
 42
0.4853378929632635
 10
-166.3511724338595
 20
289.8620673411876
 10
-166.2137936517092
 20
289.2923072175977
  0
LWPOLYLINE
  5
D071
330
1F
100
AcDbEntity
  8
DETAILS
 62
     6
370
    20
100
AcDbPolyline
 90
       10
 70
     1
 43
0.0
 10
-168.2919157511924
 20
289.2548072175978
 10
-170.6548893821791
 20
289.2548072175978
 10
-170.728185087336
 20
289.238240038223
 42
0.7807764064044151
 10
-170.728185087336
 20
289.2338743969724
 10
-170.6548893821809
 20
289.2173072175976
 10
-168.2919157511905
 20
289.2173072175976
 10
-165.928942120202
 20
289.2173072175976
 10
-165.8556464150451
 20
289.2338743969724
 42
0.7807764064044151
 10
-165.8556464150451
 20
289.238240038223
 10
-165.928942120202
 20
289.2548072175978
  0
LWPOLYLINE
  5
D072
330
1F
100
AcDbEntity
  8
DETAILS
 62
     6
370
    20
100
AcDbPolyline
 90
        7
 70
     0
 43
0.0
 10
-165.2919157511924
 20
288.6552808485909
 10
-165.569475128791
 20
288.9328402261869
 42
0.1989123673781766
 10
-165.6225081373804
 20
288.9548072175976
 10
-168.2919157511905
 20
288.9548072175976
 10
-170.9613233650025
 20
288.9548072175976
 42
0.1989123673781765
 10
-171.0143563735901
 20
288.9328402261869
 10
-171.2919157511924
 20
288.655280848589
  0
LWPOLYLINE
  5
D073
330
1F
100
AcDbEntity
  8
DETAILS
 62
     6
370
    20
100
AcDbPolyline
 90
        7
 70
     0
 43
0.0
 10
-165.2919157511924
 20
288.5052808485922
 10
-165.4816071631476
 20
288.6949722605444
 42
0.1989123673777966
 10
-165.7467722060892
 20
288.8048072175976
 10
-168.2919157511924
 20
288.8048072175977
 10
-170.8370592962919
 20
288.8048072175976
 42
0.1989123673777966
 10
-171.1022243392353
 20
288.6949722605444
 10
-171.2919157511924
 20
288.5052808485895
  0
LWPOLYLINE
  5
D074
330
1F
100
AcDbEntity
  8
DETAILS
 62
     6
370
    20
100
AcDbPolyline
 90
        4
 70
     0
 43
0.0
 10
-166.149667025179
 20
289.4423072175976
 10
-165.746772206091
 20
289.4423072175976
 42
0.1989123673788307
 10
-165.4816071631476
 20
289.5521421746519
 10
-165.2919157511924
 20
289.741833586606
  0
LWPOLYLINE
  5
D075
330
1F
100
AcDbEntity
  8
DETAILS
 62
     6
370
    20
100
AcDbPolyline
 90
        4
 70
     0
 43
0.0
 10
-165.2919157511924
 20
289.4043335866072
 10
-165.493142607319
 20
289.2031067304811
 42
0.4142135623745727
 10
-165.493142607319
 20
289.0440077047137
 10
-165.2919157511924
 20
288.8427808485892
  0
LWPOLYLINE
  5
D076
330
1F
100
AcDbEntity
  8
DETAILS
 62
     6
370
    20
100
AcDbPolyline
 90
        6
 70
     1
 43
0.0
 10
-168.2919157511905
 20
289.1798072175977
 10
-165.6664421202031
 20
289.1798072175977
 10
-165.6664421202031
 20
289.0673072175977
 10
-168.2919157511905
 20
289.0673072175975
 10
-170.9173893821798
 20
289.0673072175977
 10
-170.9173893821798
 20
289.1798072175977
  0
LWPOLYLINE
  5
D077
330
1F
100
AcDbEntity
  8
DETAILS
 62
     6
370
    20
100
AcDbPolyline
 90
        2
 70
     1
 43
0.0
 10
-168.5531008229654
 20
284.7923072175977
 10
-168.5394738489967
 20
284.7923072175977
  0
LWPOLYLINE
  5
D078
330
1F
100
AcDbEntity
  8
DETAILS
 62
     6
370
    20
100
AcDbPolyline
 90
        6
 70
     0
 43
0.0
 10
-168.5394738489967
 20
284.7923072175976
 42
0.279322065306064
 10
-168.50623367145
 20
284.8124480512126
 42
-0.2793220653060734
 10
-168.2919157511905
 20
284.9423072175976
 10
-170.9613233650025
 20
284.9423072175976
 42
0.1989123673782987
 10
-171.0143563735901
 20
284.9203402261869
 10
-171.2919157511924
 20
284.6427808485887
  0
LWPOLYLINE
  5
D079
330
1F
100
AcDbEntity
  8
DETAILS
 62
     6
370
    20
100
AcDbPolyline
 90
        2
 70
     1
 43
0.0
 10
-168.6281008229662
 20
284.7923072175977
 10
-169.6781008229654
 20
284.7923072175977
  0
LWPOLYLINE
  5
D07A
330
1F
100
AcDbEntity
  8
DETAILS
 62
     6
370
    20
100
AcDbPolyline
 90
        6
 70
     0
 43
0.0
 10
-169.7142683546508
 20
284.9423072175977
 10
-169.5556954485973
 20
284.2846472999907
 42
0.3464949689054692
 10
-169.4098743932109
 20
284.1698072175975
 10
-168.7781008229658
 20
284.1698072175976
 42
0.4142135623730951
 10
-168.6281008229662
 20
284.3198072175976
 10
-168.6281008229662
 20
284.9423072175976
  0
LWPOLYLINE
  5
D07B
330
1F
100
AcDbEntity
  8
DETAILS
 62
     6
370
    20
100
AcDbPolyline
 90
        6
 70
     0
 43
0.0
 10
-169.7914177071243
 20
284.9423072175976
 10
-169.6286059762906
 20
284.2670673411874
 42
0.3464949689054692
 10
-169.4098743932109
 20
284.0948072175976
 10
-168.7781008229658
 20
284.0948072175976
 42
0.4142135623730951
 10
-168.5531008229654
 20
284.3198072175976
 10
-168.5531008229654
 20
284.9423072175976
  0
LWPOLYLINE
  5
D07C
330
1F
100
AcDbEntity
  8
DETAILS
 62
     6
370
    20
100
AcDbPolyline
 90
        2
 70
     1
 43
0.0
 10
-169.7552501754389
 20
284.7923072175977
 10
-169.7688771494076
 20
284.7923072175977
  0
LWPOLYLINE
  5
D07D
330
1F
100
AcDbEntity
  8
DETAILS
 62
     6
370
    20
100
AcDbPolyline
 90
        6
 70
     0
 43
0.0
 10
-170.2639933450182
 20
284.7923072175977
 10
-170.3338703189883
 20
284.7923072175977
 10
-170.2639933450182
 20
284.7923072175977
 42
0.2793220653054726
 10
-170.2307531674714
 20
284.8124480512126
 42
-0.6059183769079624
 10
-169.8021173262341
 20
284.8124480515886
 42
0.279322065306064
 10
-169.7688771494076
 20
284.7923072175976
  0
LWPOLYLINE
  5
D07E
330
1F
100
AcDbEntity
  8
DETAILS
 62
     6
370
    20
100
AcDbPolyline
 90
        7
 70
     0
 43
0.0
 10
-171.2919157511924
 20
284.1923072175975
 10
-170.4513906515994
 20
284.1923072175975
 42
0.4853378929632635
 10
-170.3274427545229
 20
284.3496931475633
 10
-170.4703320088893
 20
284.9423072175976
 10
-170.9173893821798
 20
284.9423072175976
 10
-170.7298893821798
 20
284.9423072175976
 10
-170.6548893821791
 20
284.9423072175976
  0
LWPOLYLINE
  5
D07F
330
1F
100
AcDbEntity
  8
DETAILS
 62
     6
370
    20
100
AcDbPolyline
 90
        4
 70
     0
 43
0.0
 10
-171.2919157511924
 20
284.0948072175976
 10
-170.4513906515994
 20
284.0948072175976
 42
0.4853378929632635
 10
-170.2326590685215
 20
284.3725470940077
 10
-170.3700378506737
 20
284.9423072175976
  0
LWPOLYLINE
  5
D080
330
1F
100
AcDbEntity
  8
DETAILS
 62
     6
370
    20
100
AcDbPolyline
 90
        4
 70
     0
 43
0.0
 10
-170.4341644772039
 20
284.7923072175977
 10
-170.8370592962901
 20
284.7923072175977
 42
0.1989123673788306
 10
-171.1022243392353
 20
284.6824722605433
 10
-171.2919157511924
 20
284.4927808485873
  0
LWPOLYLINE
  5
D081
330
1F
100
AcDbEntity
  8
DETAILS
 62
     6
370
    20
100
AcDbPolyline
 90
        4
 70
     0
 43
0.0
 10
-171.2919157511924
 20
284.8302808485865
 10
-171.0906888950639
 20
285.0315077047142
 42
0.4142135623745727
 10
-171.0906888950639
 20
285.1906067304816
 10
-171.2919157511924
 20
285.3918335866081
  0
LWPOLYLINE
  5
D082
330
1F
100
AcDbEntity
  8
DETAILS
 62
     6
370
    20
100
AcDbPolyline
 90
        2
 70
     1
 43
0.0
 10
-168.5531008229654
 20
289.4423072175976
 10
-168.5394738489967
 20
289.4423072175976
  0
LWPOLYLINE
  5
D083
330
1F
100
AcDbEntity
  8
DETAILS
 62
     6
370
    20
100
AcDbPolyline
 90
        6
 70
     0
 43
0.0
 10
-171.2919157511924
 20
289.5918335866067
 10
-171.0143563735901
 20
289.3142742090084
 42
0.1989123673782989
 10
-170.9613233650025
 20
289.2923072175977
 10
-168.2919157511905
 20
289.2923072175975
 42
-0.2793220653060733
 10
-168.5062336721703
 20
289.4221663836067
 42
0.279322065306064
 10
-168.5394738489967
 20
289.4423072175978
  0
LWPOLYLINE
  5
D084
330
1F
100
AcDbEntity
  8
DETAILS
 62
     6
370
    20
100
AcDbPolyline
 90
        2
 70
     1
 43
0.0
 10
-168.6281008229662
 20
289.4423072175976
 10
-169.6781008229654
 20
289.4423072175976
  0
LWPOLYLINE
  5
D085
330
1F
100
AcDbEntity
  8
DETAILS
 62
     6
370
    20
100
AcDbPolyline
 90
        6
 70
     0
 43
0.0
 10
-168.6281008229662
 20
289.2923072175977
 10
-168.6281008229662
 20
289.9148072175976
 42
0.4142135623730951
 10
-168.7781008229658
 20
290.0648072175977
 10
-169.4098743932109
 20
290.0648072175977
 42
0.3464949689054692
 10
-169.5556954485973
 20
289.9499671352046
 10
-169.7142683546508
 20
289.2923072175977
  0
LWPOLYLINE
  5
D086
330
1F
100
AcDbEntity
  8
DETAILS
 62
     6
370
    20
100
AcDbPolyline
 90
        6
 70
     0
 43
0.0
 10
-168.5531008229654
 20
289.2923072175977
 10
-168.5531008229654
 20
289.9148072175976
 42
0.4142135623730951
 10
-168.7781008229658
 20
290.1398072175977
 10
-169.4098743932109
 20
290.1398072175977
 42
0.3464949689054692
 10
-169.6286059762906
 20
289.967547094008
 10
-169.7914177071243
 20
289.2923072175977
  0
LWPOLYLINE
  5
D087
330
1F
100
AcDbEntity
  8
DETAILS
 62
     6
370
    20
100
AcDbPolyline
 90
        2
 70
     1
 43
0.0
 10
-169.7552501754389
 20
289.4423072175976
 10
-169.7688771494076
 20
289.4423072175976
  0
LWPOLYLINE
  5
D088
330
1F
100
AcDbEntity
  8
DETAILS
 62
     6
370
    20
100
AcDbPolyline
 90
        6
 70
     0
 43
0.0
 10
-169.7688771494076
 20
289.4423072175978
 42
0.279322065306064
 10
-169.8021173269544
 20
289.4221663839827
 42
-0.6059183769079624
 10
-170.2307531681917
 20
289.4221663836067
 42
0.2793220653054726
 10
-170.2639933450182
 20
289.4423072175976
 10
-170.3338703189883
 20
289.4423072175976
 10
-170.2639933450182
 20
289.4423072175976
  0
LWPOLYLINE
  5
D089
330
1F
100
AcDbEntity
  8
DETAILS
 62
     6
370
    20
100
AcDbPolyline
 90
        7
 70
     0
 43
0.0
 10
-170.6548893821791
 20
289.2923072175977
 10
-170.7298893821798
 20
289.2923072175977
 10
-170.9173893821798
 20
289.2923072175977
 10
-170.4703320088893
 20
289.2923072175977
 10
-170.3274427545211
 20
289.8849212876319
 42
0.4853378929632635
 10
-170.4513906515994
 20
290.0423072175977
 10
-171.2919157511924
 20
290.0423072175977
  0
LWPOLYLINE
  5
D08A
330
1F
100
AcDbEntity
  8
DETAILS
 62
     6
370
    20
100
AcDbPolyline
 90
        4
 70
     0
 43
0.0
 10
-170.3700378506737
 20
289.2923072175977
 10
-170.2326590685215
 20
289.8620673411876
 42
0.4853378929632635
 10
-170.4513906515994
 20
290.1398072175977
 10
-171.2919157511924
 20
290.1398072175977
  0
LWPOLYLINE
  5
D08B
330
1F
100
AcDbEntity
  8
DETAILS
 62
     6
370
    20
100
AcDbPolyline
 90
        4
 70
     0
 43
0.0
 10
-171.2919157511924
 20
289.7418335866083
 10
-171.1022243392353
 20
289.5521421746519
 42
0.1989123673788307
 10
-170.8370592962901
 20
289.4423072175976
 10
-170.4341644772039
 20
289.4423072175976
  0
LWPOLYLINE
  5
D08C
330
1F
100
AcDbEntity
  8
DETAILS
 62
     6
370
    20
100
AcDbPolyline
 90
        4
 70
     0
 43
0.0
 10
-171.2919157511924
 20
288.842780848587
 10
-171.0906888950639
 20
289.0440077047137
 42
0.4142135623745727
 10
-171.0906888950639
 20
289.2031067304811
 10
-171.2919157511924
 20
289.404333586609
  0
LINE
  5
D08D
330
1F
100
AcDbEntity
  8
0
 62
     1
100
AcDbLine
 10
-173.2897671074415
 20
280.8673072175977
 30
0.0
 11
-171.9029851186251
 21
280.8673072175977
 31
0.0
  0
LINE
  5
D08E
330
1F
100
AcDbEntity
  8
0
 62
     1
100
AcDbLine
 10
-172.9397671074412
 20
281.3673072175977
 30
0.0
 11
-172.3147671074412
 21
281.3673072175977
 31
0.0
  0
LINE
  5
D08F
330
1F
100
AcDbEntity
  8
0
 62
     1
100
AcDbLine
 10
-171.9147671074415
 20
281.3673072175977
 30
0.0
 11
-171.9147671074415
 21
280.8673072175975
 31
0.0
  0
LINE
  5
D090
330
1F
100
AcDbEntity
  8
0
 62
     1
100
AcDbLine
 10
-172.3147671074412
 20
281.3673072175977
 30
0.0
 11
-172.3147671074412
 21
280.8673072175977
 31
0.0
  0
LINE
  5
D091
330
1F
100
AcDbEntity
  8
0
 62
     1
100
AcDbLine
 10
-171.9147671074415
 20
281.3673072175977
 30
0.0
 11
-171.2897671074415
 21
281.3673072175977
 31
0.0
  0
LINE
  5
D092
330
1F
100
AcDbEntity
  8
0
 62
     1
100
AcDbLine
 10
-171.7397671074422
 20
281.1173072175977
 30
0.0
 11
-171.7397671074422
 21
280.9226614026759
 31
0.0
  0
LINE
  5
D093
330
1F
100
AcDbEntity
  8
0
 62
     1
100
AcDbLine
 10
-171.7397671074422
 20
281.1173072175977
 30
0.0
 11
-171.4897671074423
 21
281.1173072175977
 31
0.0
  0
LINE
  5
D094
330
1F
100
AcDbEntity
  8
0
 48
0.15
100
AcDbLine
 10
-172.3147671074412
 20
280.8673072175977
 30
0.0
 11
-171.9147671074415
 21
280.8673072175977
 31
0.0
  0
LINE
  5
D095
330
1F
100
AcDbEntity
  8
0
 62
     1
100
AcDbLine
 10
-171.9029851186251
 20
280.8673072175977
 30
0.0
 11
-172.3647671074423
 21
280.8673072175977
 31
0.0
  0
LINE
  5
D096
330
1F
100
AcDbEntity
  8
GRADE
 48
0.15
100
AcDbLine
 10
-209.2897671074397
 20
318.8673132028463
 30
0.0
 11
-127.387000131469
 21
318.8673132028461
 31
0.0
  0
LINE
  5
D097
330
1F
100
AcDbEntity
  8
DIM
100
AcDbLine
 10
-125.9680937202256
 20
315.1568371173415
 30
0.0
 11
-132.4680937202256
 21
315.1568371173415
 31
0.0
  0
LINE
  5
D098
330
1F
100
AcDbEntity
  8
DIM
100
AcDbLine
 10
-132.4680937202256
 20
315.1568371173415
 30
0.0
 11
-129.8545771106537
 21
313.8670852370943
 31
0.0
  0
LINE
  5
D099
330
1F
100
AcDbEntity
  8
DIM
100
AcDbLine
 10
-129.8545771106537
 20
313.8670852370943
 30
0.0
 11
-133.2489307557907
 21
306.9888633355102
 31
0.0
  0
LINE
  5
D09A
330
1F
100
AcDbEntity
  8
DIM
100
AcDbLine
 10
-124.8595515247898
 20
323.9888633355189
 30
0.0
 11
-128.5816103297975
 21
316.4465889975885
 31
0.0
  0
LINE
  5
D09B
330
1F
100
AcDbEntity
  8
DIM
100
AcDbLine
 10
-125.9680937202256
 20
315.1568371173415
 30
0.0
 11
-128.5816103297975
 21
316.4465889975886
 31
0.0
  0
LINE
  5
D09C
330
1F
100
AcDbEntity
  8
DIM
100
AcDbLine
 10
-207.8708606961964
 20
315.1568371173417
 30
0.0
 11
-214.3708606961963
 21
315.1568371173417
 31
0.0
  0
LINE
  5
D09D
330
1F
100
AcDbEntity
  8
DIM
100
AcDbLine
 10
-214.3708606961963
 20
315.1568371173417
 30
0.0
 11
-211.7573440866244
 21
313.8670852370946
 31
0.0
  0
LINE
  5
D09E
330
1F
100
AcDbEntity
  8
DIM
100
AcDbLine
 10
-211.7573440866244
 20
313.8670852370946
 30
0.0
 11
-215.1516977317615
 21
306.9888633355105
 31
0.0
  0
LINE
  5
D09F
330
1F
100
AcDbEntity
  8
DIM
100
AcDbLine
 10
-206.7623185007605
 20
323.9888633355191
 30
0.0
 11
-210.4843773057682
 21
316.4465889975887
 31
0.0
  0
LINE
  5
D0A0
330
1F
100
AcDbEntity
  8
DIM
100
AcDbLine
 10
-207.8708606961964
 20
315.1568371173417
 30
0.0
 11
-210.4843773057682
 21
316.4465889975888
 31
0.0
  0
LINE
  5
D0A1
330
1F
100
AcDbEntity
  8
A2 Hatch
 48
0.15
100
AcDbLine
 10
-171.2897671074415
 20
312.8673132028461
 30
0.0
 11
-212.1673910798263
 21
312.8673132028461
 31
0.0
  0
LINE
  5
D0A2
330
1F
100
AcDbEntity
  8
A2 Hatch
 48
0.15
100
AcDbLine
 10
-165.2897671773671
 20
312.8673132028464
 30
0.0
 11
-131.6743901357831
 21
312.8673132028464
 31
0.0
  0
LINE
  5
D0A3
330
1F
100
AcDbEntity
  8
A2 Hatch
 48
0.15
100
AcDbLine
 10
-213.2377102749678
 20
310.8673132028464
 30
0.0
 11
-171.3731004407736
 21
310.8673069304308
 31
0.0
  0
LINE
  5
D0A4
330
1F
100
AcDbEntity
  8
A2 Hatch
 48
0.15
100
AcDbLine
 10
-163.2897671074415
 20
310.8673132028461
 30
0.0
 11
-130.6769348194129
 21
310.8673132028459
 31
0.0
  0
HATCH
  5
D0A5
330
1F
100
AcDbEntity
  8
A2 Hatch
 48
0.15
100
AcDbHatch
 10
0.0
 20
0.0
 30
0.0
210
0.0
220
0.0
230
1.0
  2
ANSI37
 70
     0
 71
     0
 91
        1
 92
       33
 93
        4
 72
     1
 10
-213.1543768717083
 20
310.8673132028464
 11
-171.2897670375141
 21
310.8673069304308
 72
     1
 10
-171.2897670375141
 20
310.8673132028461
 11
-171.2897671074415
 21
312.8673132028461
 72
     1
 10
-171.2897671074415
 20
312.8673132028461
 11
-212.1673910798263
 21
312.8673132028461
 72
     1
 10
-212.1673910798263
 20
312.8673132028461
 11
-213.1543768717083
 21
310.8673132028464
 97
        0
 75
     0
 76
     1
 52
0.0
 41
8.0
 77
     0
 78
     2
 53
45.0
 43
-3934.122750312802
 44
1010.795320630546
 45
-0.7071067811865475
 46
0.7071067811865476
 79
     0
 53
135.0
 43
-3934.122750312802
 44
1010.795320630546
 45
-0.7071067811865476
 46
-0.7071067811865475
 79
     0
 98
        1
 10
-3934.122750312802
 20
1010.795320630546
  0
HATCH
  5
D0A6
330
1F
100
AcDbEntity
  8
A2 Hatch
 48
0.15
100
AcDbHatch
 10
0.0
 20
0.0
 30
0.0
210
0.0
220
0.0
230
1.0
  2
ANSI37
 70
     0
 71
     0
 91
        1
 92
        1
 93
        4
 72
     1
 10
-165.2897671074415
 20
310.8673132028464
 11
-165.2897671773671
 21
312.8673132028464
 72
     1
 10
-165.2897671773671
 20
312.8673132028464
 11
-131.6743901357813
 21
312.8673132028465
 72
     1
 10
-131.6743901357831
 20
312.8673132028464
 11
-132.6613759276652
 21
310.8673132028461
 72
     1
 10
-132.6613759276652
 20
310.8673132028461
 11
-165.2897671074415
 21
310.8673132028463
 97
        0
 75
     0
 76
     1
 52
0.0
 41
8.0
 77
     0
 78
     2
 53
45.0
 43
-3935.532516344729
 44
1010.795320630546
 45
-0.7071067811865475
 46
0.7071067811865476
 79
     0
 53
135.0
 43
-3935.532516344729
 44
1010.795320630546
 45
-0.7071067811865476
 46
-0.7071067811865475
 79
     0
 98
        1
 10
-3935.532516344729
 20
1010.795320630546
  0
LINE
  5
D0A7
330
1F
100
AcDbEntity
  8
A2 Hatch
  6
DASHED
 48
0.15
100
AcDbLine
 10
-210.2767528993236
 20
316.8673132028463
 30
0.0
 11
-171.2897670375141
 21
316.8673132028461
 31
0.0
  0
LINE
  5
D0A8
330
1F
100
AcDbEntity
  8
A2 Hatch
  6
DASHED
 48
0.15
100
AcDbLine
 10
-165.2897671074415
 20
316.8673072175979
 30
0.0
 11
-128.7134326902096
 21
316.8673072175976
 31
0.0
  0
LINE
  5
D0A9
330
1F
100
AcDbEntity
  8
A4 medium
 48
0.15
100
AcDbLine
 10
-163.2396340212644
 20
317.8673112535942
 30
0.0
 11
-176.3731004407718
 21
317.8673132028462
 31
0.0
  0
LINE
  5
D0AA
330
1F
100
AcDbEntity
  8
0
 48
0.15
100
AcDbLine
 10
-176.3731004407718
 20
317.8673132028462
 30
0.0
 11
-176.3731004407718
 21
317.8673132028462
 31
0.0
  0
LINE
  5
D0AB
330
1F
100
AcDbEntity
  8
A4 medium
 48
0.15
100
AcDbLine
 10
-176.8731004407718
 20
318.3673132028462
 30
0.0
 11
-175.8731004407718
 21
317.3673132028462
 31
0.0
  0
LINE
  5
D0AC
330
1F
100
AcDbEntity
  8
A4 medium
 48
0.15
100
AcDbLine
 10
-175.8731004407718
 20
318.3673132028462
 30
0.0
 11
-176.8731004407718
 21
317.3673132028462
 31
0.0
  0
LINE
  5
D0AD
330
1F
100
AcDbEntity
  8
A4 medium
 48
0.15
100
AcDbLine
 10
-176.3731004407718
 20
317.8673132028462
 30
0.0
 11
-182.3731004407718
 21
317.8673132028462
 31
0.0
  0
LINE
  5
D0AE
330
1F
100
AcDbEntity
  8
0
 48
0.15
100
AcDbLine
 10
-182.3731004407718
 20
317.8673132028462
 30
0.0
 11
-182.3731004407718
 21
317.8673132028462
 31
0.0
  0
LINE
  5
D0AF
330
1F
100
AcDbEntity
  8
A4 medium
 48
0.15
100
AcDbLine
 10
-182.8731004407718
 20
318.3673132028462
 30
0.0
 11
-181.8731004407718
 21
317.3673132028462
 31
0.0
  0
LINE
  5
D0B0
330
1F
100
AcDbEntity
  8
A4 medium
 48
0.15
100
AcDbLine
 10
-181.8731004407718
 20
318.3673132028462
 30
0.0
 11
-182.8731004407718
 21
317.3673132028462
 31
0.0
  0
LINE
  5
D0B1
330
1F
100
AcDbEntity
  8
A4 medium
 48
0.15
100
AcDbLine
 10
-182.3731004407718
 20
317.8673132028462
 30
0.0
 11
-188.3731004407718
 21
317.8673132028462
 31
0.0
  0
LINE
  5
D0B2
330
1F
100
AcDbEntity
  8
0
 48
0.15
100
AcDbLine
 10
-188.3731004407718
 20
317.8673132028462
 30
0.0
 11
-188.3731004407718
 21
317.8673132028462
 31
0.0
  0
LINE
  5
D0B3
330
1F
100
AcDbEntity
  8
A4 medium
 48
0.15
100
AcDbLine
 10
-188.8731004407718
 20
318.3673132028462
 30
0.0
 11
-187.8731004407718
 21
317.3673132028462
 31
0.0
  0
LINE
  5
D0B4
330
1F
100
AcDbEntity
  8
A4 medium
 48
0.15
100
AcDbLine
 10
-187.8731004407718
 20
318.3673132028462
 30
0.0
 11
-188.8731004407718
 21
317.3673132028462
 31
0.0
  0
LINE
  5
D0B5
330
1F
100
AcDbEntity
  8
A4 medium
 48
0.15
100
AcDbLine
 10
-188.3731004407718
 20
317.8673132028462
 30
0.0
 11
-194.3731004407718
 21
317.8673132028462
 31
0.0
  0
LINE
  5
D0B6
330
1F
100
AcDbEntity
  8
0
 48
0.15
100
AcDbLine
 10
-194.3731004407718
 20
317.8673132028462
 30
0.0
 11
-194.3731004407718
 21
317.8673132028462
 31
0.0
  0
LINE
  5
D0B7
330
1F
100
AcDbEntity
  8
A4 medium
 48
0.15
100
AcDbLine
 10
-194.8731004407718
 20
318.3673132028462
 30
0.0
 11
-193.8731004407718
 21
317.3673132028462
 31
0.0
  0
LINE
  5
D0B8
330
1F
100
AcDbEntity
  8
A4 medium
 48
0.15
100
AcDbLine
 10
-193.8731004407718
 20
318.3673132028462
 30
0.0
 11
-194.8731004407718
 21
317.3673132028462
 31
0.0
  0
LINE
  5
D0B9
330
1F
100
AcDbEntity
  8
A4 medium
 48
0.15
100
AcDbLine
 10
-194.37310044077
 20
317.8673132028462
 30
0.0
 11
-200.37310044077
 21
317.8673132028462
 31
0.0
  0
LINE
  5
D0BA
330
1F
100
AcDbEntity
  8
0
 48
0.15
100
AcDbLine
 10
-200.37310044077
 20
317.8673132028462
 30
0.0
 11
-200.37310044077
 21
317.8673132028462
 31
0.0
  0
LINE
  5
D0BB
330
1F
100
AcDbEntity
  8
A4 medium
 48
0.15
100
AcDbLine
 10
-200.87310044077
 20
318.3673132028462
 30
0.0
 11
-199.87310044077
 21
317.3673132028462
 31
0.0
  0
LINE
  5
D0BC
330
1F
100
AcDbEntity
  8
A4 medium
 48
0.15
100
AcDbLine
 10
-199.87310044077
 20
318.3673132028462
 30
0.0
 11
-200.87310044077
 21
317.3673132028462
 31
0.0
  0
LINE
  5
D0BD
330
1F
100
AcDbEntity
  8
A4 medium
 48
0.15
100
AcDbLine
 10
-200.37310044077
 20
317.8673132028462
 30
0.0
 11
-206.37310044077
 21
317.8673132028462
 31
0.0
  0
LINE
  5
D0BE
330
1F
100
AcDbEntity
  8
0
 48
0.15
100
AcDbLine
 10
-206.37310044077
 20
317.8673132028462
 30
0.0
 11
-206.37310044077
 21
317.8673132028462
 31
0.0
  0
LINE
  5
D0BF
330
1F
100
AcDbEntity
  8
A4 medium
 48
0.15
100
AcDbLine
 10
-206.87310044077
 20
318.3673132028462
 30
0.0
 11
-205.87310044077
 21
317.3673132028462
 31
0.0
  0
LINE
  5
D0C0
330
1F
100
AcDbEntity
  8
A4 medium
 48
0.15
100
AcDbLine
 10
-205.87310044077
 20
318.3673132028462
 30
0.0
 11
-206.87310044077
 21
317.3673132028462
 31
0.0
  0
LINE
  5
D0C1
330
1F
100
AcDbEntity
  8
A4 medium
 48
0.15
100
AcDbLine
 10
-206.37310044077
 20
317.8673132028462
 30
0.0
 11
-209.7832600033807
 21
317.8673132028462
 31
0.0
  0
LINE
  5
D0C2
330
1F
100
AcDbEntity
  8
A4 medium
 48
0.15
100
AcDbLine
 10
-127.8804939893534
 20
317.8673112535943
 30
0.0
 11
-128.9633344438125
 21
317.8673112535942
 31
0.0
  0
LINE
  5
D0C3
330
1F
100
AcDbEntity
  8
A4 medium
 48
0.15
100
AcDbLine
 10
-128.9633344438125
 20
317.8673112535942
 30
0.0
 11
-128.9633344438125
 21
317.8673112535942
 31
0.0
  0
LINE
  5
D0C4
330
1F
100
AcDbEntity
  8
A4 medium
 48
0.15
100
AcDbLine
 10
-129.4633344438125
 20
318.3673112535942
 30
0.0
 11
-128.4633344438125
 21
317.3673112535941
 31
0.0
  0
LINE
  5
D0C5
330
1F
100
AcDbEntity
  8
A4 medium
 48
0.15
100
AcDbLine
 10
-128.4633344438125
 20
318.3673112535942
 30
0.0
 11
-129.4633344438125
 21
317.3673112535941
 31
0.0
  0
LINE
  5
D0C6
330
1F
100
AcDbEntity
  8
A4 medium
 48
0.15
100
AcDbLine
 10
-128.9633344438125
 20
317.8673112535942
 30
0.0
 11
-134.9633344438125
 21
317.8673112535942
 31
0.0
  0
LINE
  5
D0C7
330
1F
100
AcDbEntity
  8
A4 medium
 48
0.15
100
AcDbLine
 10
-134.9633344438125
 20
317.8673112535942
 30
0.0
 11
-134.9633344438125
 21
317.8673112535942
 31
0.0
  0
LINE
  5
D0C8
330
1F
100
AcDbEntity
  8
A4 medium
 48
0.15
100
AcDbLine
 10
-135.4633344438125
 20
318.3673112535942
 30
0.0
 11
-134.4633344438125
 21
317.3673112535941
 31
0.0
  0
LINE
  5
D0C9
330
1F
100
AcDbEntity
  8
A4 medium
 48
0.15
100
AcDbLine
 10
-134.4633344438125
 20
318.3673112535942
 30
0.0
 11
-135.4633344438125
 21
317.3673112535941
 31
0.0
  0
LINE
  5
D0CA
330
1F
100
AcDbEntity
  8
A4 medium
 48
0.15
100
AcDbLine
 10
-134.9633344438125
 20
317.8673112535942
 30
0.0
 11
-140.9633344438125
 21
317.8673112535942
 31
0.0
  0
LINE
  5
D0CB
330
1F
100
AcDbEntity
  8
A4 medium
 48
0.15
100
AcDbLine
 10
-140.9633344438125
 20
317.8673112535942
 30
0.0
 11
-140.9633344438125
 21
317.8673112535942
 31
0.0
  0
LINE
  5
D0CC
330
1F
100
AcDbEntity
  8
A4 medium
 48
0.15
100
AcDbLine
 10
-141.4633344438125
 20
318.3673112535942
 30
0.0
 11
-140.4633344438125
 21
317.3673112535941
 31
0.0
  0
LINE
  5
D0CD
330
1F
100
AcDbEntity
  8
A4 medium
 48
0.15
100
AcDbLine
 10
-140.4633344438125
 20
318.3673112535942
 30
0.0
 11
-141.4633344438125
 21
317.3673112535941
 31
0.0
  0
LINE
  5
D0CE
330
1F
100
AcDbEntity
  8
A4 medium
 48
0.15
100
AcDbLine
 10
-140.9633344438125
 20
317.8673112535942
 30
0.0
 11
-146.9633344438125
 21
317.8673112535942
 31
0.0
  0
LINE
  5
D0CF
330
1F
100
AcDbEntity
  8
A4 medium
 48
0.15
100
AcDbLine
 10
-146.9633344438107
 20
317.8673112535942
 30
0.0
 11
-152.9633344438107
 21
317.8673112535942
 31
0.0
  0
LINE
  5
D0D0
330
1F
100
AcDbEntity
  8
A4 medium
 48
0.15
100
AcDbLine
 10
-152.9633344438107
 20
317.8673112535942
 30
0.0
 11
-152.9633344438107
 21
317.8673112535942
 31
0.0
  0
LINE
  5
D0D1
330
1F
100
AcDbEntity
  8
A4 medium
 48
0.15
100
AcDbLine
 10
-153.4633344438107
 20
318.3673112535942
 30
0.0
 11
-152.4633344438107
 21
317.3673112535941
 31
0.0
  0
LINE
  5
D0D2
330
1F
100
AcDbEntity
  8
A4 medium
 48
0.15
100
AcDbLine
 10
-152.4633344438107
 20
318.3673112535942
 30
0.0
 11
-153.4633344438107
 21
317.3673112535941
 31
0.0
  0
LINE
  5
D0D3
330
1F
100
AcDbEntity
  8
A4 medium
 48
0.15
100
AcDbLine
 10
-152.9633344438107
 20
317.8673112535942
 30
0.0
 11
-158.9633344438107
 21
317.8673112535942
 31
0.0
  0
LINE
  5
D0D4
330
1F
100
AcDbEntity
  8
A4 medium
 48
0.15
100
AcDbLine
 10
-158.9633344438107
 20
317.8673112535942
 30
0.0
 11
-158.9633344438107
 21
317.8673112535942
 31
0.0
  0
LINE
  5
D0D5
330
1F
100
AcDbEntity
  8
A4 medium
 48
0.15
100
AcDbLine
 10
-159.4633344438107
 20
318.3673112535942
 30
0.0
 11
-158.4633344438107
 21
317.3673112535941
 31
0.0
  0
LINE
  5
D0D6
330
1F
100
AcDbEntity
  8
A4 medium
 48
0.15
100
AcDbLine
 10
-158.4633344438107
 20
318.3673112535942
 30
0.0
 11
-159.4633344438107
 21
317.3673112535941
 31
0.0
  0
LINE
  5
D0D7
330
1F
100
AcDbEntity
  8
A4 medium
 48
0.15
100
AcDbLine
 10
-158.9633344438107
 20
317.8673112535942
 30
0.0
 11
-163.2396340212644
 21
317.8673112535942
 31
0.0
  0
HATCH
  5
D0D8
330
1F
100
AcDbEntity
  8
A2 Hatch
 48
0.15
100
AcDbHatch
 10
0.0
 20
0.0
 30
0.0
210
0.0
220
0.0
230
1.0
  2
AR-CONC
 70
     0
 71
     0
 91
        1
 92
        1
 93
        8
 72
     1
 10
-170.3731004407718
 20
318.8673132028462
 11
-209.2897671074397
 21
318.8673132028462
 72
     1
 10
-209.2897671074397
 20
318.8673132028463
 11
-210.4843773057664
 21
316.4465889975888
 72
     1
 10
-210.4843773057682
 20
316.4465889975888
 11
-207.8708606961964
 21
315.1568371173417
 72
     1
 10
-207.8708606961964
 20
315.1568371173417
 11
-214.3708606961963
 21
315.1568371173417
 72
     1
 10
-214.3708606961963
 20
315.1568371173417
 11
-211.7573440866244
 21
313.8670852370946
 72
     1
 10
-211.7573440866244
 20
313.8670852370947
 11
-212.2507244830858
 21
312.8673132028461
 72
     1
 10
-212.2507244830858
 20
312.8673132028461
 11
-170.3731004407736
 21
312.8673132713164
 72
     1
 10
-170.3731004407736
 20
312.8673132713164
 11
-170.3731004407736
 21
318.8673132028462
 97
        0
 75
     0
 76
     1
 52
180.0
 41
0.8
 77
     0
 78
    13
 53
230.0
 43
-9017.07453250315
 44
1305.385318406214
 45
-5.738081460806028
 46
0.5020170798607616
 79
     2
 49
0.6000000000000001
 49
-6.6
 53
175.0
 43
-9017.07453250315
 44
1305.385318406214
 45
1.110010668903999
 46
-6.017537069600095
 79
     2
 49
0.48
 49
-5.28
 53
280.451445
 43
-9017.552705943147
 44
1305.427153126214
 45
-4.628070721834347
 46
-5.515519971367573
 79
     2
 49
0.5099215199999999
 49
-5.609136895999998
 53
226.1842
 43
-9017.07453250315
 44
1303.785318406214
 45
-8.537928389005156
 46
1.324152114632145
 79
     2
 49
0.9
 49
-9.9
 53
276.635645
 43
-9017.786026463149
 44
1303.895664862214
 45
-7.477295523824225
 46
-7.79294883986011
 79
     2
 49
0.764882304
 49
-8.413704
 53
171.1841999999999
 43
-9017.07453250315
 44
1303.785318406214
 45
-7.477295561069018
 46
-7.792948807402596
 79
     2
 49
0.7200000000000001
 49
-7.92
 53
201.0
 43
-9017.874532503148
 44
1304.185318406214
 45
-4.775256416947693
 46
3.220951125322711
 79
     2
 49
0.6000000000000001
 49
-6.6
 53
146.0
 43
-9017.874532503148
 44
1304.185318406214
 45
-1.946522655372654
 46
-5.801200360374824
 79
     2
 49
0.48
 49
-5.28
 53
251.451445
 43
-9018.272470367149
 44
1304.453731254214
 45
-6.721779002130969
 46
-2.580249252953294
 79
     2
 49
0.5099215199999999
 49
-5.609136895999998
 53
217.5
 43
-9017.07453250315
 44
1305.385318406214
 45
-0.0972788425383257
 46
-2.663150830650492
 79
     6
 49
0.0
 49
-5.216
 49
0.0
 49
-5.36
 49
0.0
 49
-5.3
 53
187.5
 43
-9017.07453250315
 44
1305.385318406214
 45
-2.104556299537189
 46
-3.155293695058881
 79
     6
 49
0.0
 49
-3.056
 49
0.0
 49
-5.096
 49
0.0
 49
-2.02
 53
147.4999999999999
 43
-9015.290532503149
 44
1305.385318406214
 45
-4.270579489379272
 46
0.1804389738750389
 79
     6
 49
0.0
 49
-2.0
 49
0.0
 49
-6.24
 49
0.0
 49
-8.279999999999999
 53
137.5
 43
-9014.490532503147
 44
1305.385318406214
 45
-4.665489354739089
 46
-0.8008398586585405
 79
     6
 49
0.0
 49
-2.6
 49
0.0
 49
-4.144
 49
0.0
 49
-5.879999999999999
 98
        1
 10
-3934.206083716062
 20
1010.795320630546
  0
HATCH
  5
D0D9
330
1F
100
AcDbEntity
  8
A2 Hatch
 48
0.15
100
AcDbHatch
 10
0.0
 20
0.0
 30
0.0
210
0.0
220
0.0
230
1.0
  2
AR-CONC
 70
     0
 71
     0
 91
        1
 92
        1
 93
        8
 72
     1
 10
-164.9633344787735
 20
318.8673132028462
 11
-127.387000131469
 21
318.8673132028462
 72
     1
 10
-127.387000131469
 20
318.8673132028461
 11
-128.5816103297957
 21
316.4465889975886
 72
     1
 10
-128.5816103297975
 20
316.4465889975886
 11
-125.9680937202256
 21
315.1568371173415
 72
     1
 10
-125.9680937202256
 20
315.1568371173415
 11
-132.4680937202256
 21
315.1568371173415
 72
     1
 10
-132.4680937202256
 20
315.1568371173415
 11
-129.8545771106537
 21
313.8670852370943
 72
     1
 10
-129.8545771106537
 20
313.8670852370943
 11
-130.3479575071169
 21
312.8673132028463
 72
     1
 10
-130.3479575071151
 20
312.8673132028463
 11
-164.9633342689913
 21
312.8673134604609
 72
     1
 10
-164.9633342689913
 20
312.8673134604609
 11
-164.9633344787735
 21
318.8673132028462
 97
        0
 75
     0
 76
     1
 52
180.0
 41
0.8
 77
     0
 78
    13
 53
230.0
 43
-9017.07453250315
 44
1305.385318406214
 45
-5.738081460806028
 46
0.5020170798607616
 79
     2
 49
0.6000000000000001
 49
-6.6
 53
175.0
 43
-9017.07453250315
 44
1305.385318406214
 45
1.110010668903999
 46
-6.017537069600095
 79
     2
 49
0.48
 49
-5.28
 53
280.451445
 43
-9017.552705943147
 44
1305.427153126214
 45
-4.628070721834347
 46
-5.515519971367573
 79
     2
 49
0.5099215199999999
 49
-5.609136895999998
 53
226.1842
 43
-9017.07453250315
 44
1303.785318406214
 45
-8.537928389005156
 46
1.324152114632145
 79
     2
 49
0.9
 49
-9.9
 53
276.635645
 43
-9017.786026463149
 44
1303.895664862214
 45
-7.477295523824225
 46
-7.79294883986011
 79
     2
 49
0.764882304
 49
-8.413704
 53
171.1841999999999
 43
-9017.07453250315
 44
1303.785318406214
 45
-7.477295561069018
 46
-7.792948807402596
 79
     2
 49
0.7200000000000001
 49
-7.92
 53
201.0
 43
-9017.874532503148
 44
1304.185318406214
 45
-4.775256416947693
 46
3.220951125322711
 79
     2
 49
0.6000000000000001
 49
-6.6
 53
146.0
 43
-9017.874532503148
 44
1304.185318406214
 45
-1.946522655372654
 46
-5.801200360374824
 79
     2
 49
0.48
 49
-5.28
 53
251.451445
 43
-9018.272470367149
 44
1304.453731254214
 45
-6.721779002130969
 46
-2.580249252953294
 79
     2
 49
0.5099215199999999
 49
-5.609136895999998
 53
217.5
 43
-9017.07453250315
 44
1305.385318406214
 45
-0.0972788425383257
 46
-2.663150830650492
 79
     6
 49
0.0
 49
-5.216
 49
0.0
 49
-5.36
 49
0.0
 49
-5.3
 53
187.5
 43
-9017.07453250315
 44
1305.385318406214
 45
-2.104556299537189
 46
-3.155293695058881
 79
     6
 49
0.0
 49
-3.056
 49
0.0
 49
-5.096
 49
0.0
 49
-2.02
 53
147.4999999999999
 43
-9015.290532503149
 44
1305.385318406214
 45
-4.270579489379272
 46
0.1804389738750389
 79
     6
 49
0.0
 49
-2.0
 49
0.0
 49
-6.24
 49
0.0
 49
-8.279999999999999
 53
137.5
 43
-9014.490532503147
 44
1305.385318406214
 45
-4.665489354739089
 46
-0.8008398586585405
 79
     6
 49
0.0
 49
-2.6
 49
0.0
 49
-4.144
 49
0.0
 49
-5.879999999999999
 98
        1
 10
-3934.206083716062
 20
1010.795320630546
  0
LINE
  5
D0DA
330
1F
100
AcDbEntity
  8
A2 Hatch
  6
DASHED
 48
0.15
100
AcDbLine
 10
-171.2897671074415
 20
316.8673072175977
 30
0.0
 11
-171.2897671074415
 21
312.8673132028461
 31
0.0
  0
LINE
  5
D0DB
330
1F
100
AcDbEntity
  8
A2 Hatch
  6
DASHED
 48
0.15
100
AcDbLine
 10
-165.2897671074415
 20
316.8673072175979
 30
0.0
 11
-165.2897671074415
 21
312.8673132028464
 31
0.0
  0
LINE
  5
D0DC
330
1F
100
AcDbEntity
  8
A2 Hatch
 48
0.15
100
AcDbLine
 10
-165.2897671074415
 20
312.8673132028464
 30
0.0
 11
-165.2940643949396
 21
310.8673132028461
 31
0.0
  0
LINE
  5
D0DD
330
1F
100
AcDbEntity
  8
A2 Hatch
 48
0.15
100
AcDbLine
 10
-171.2897671074415
 20
312.8673132028461
 30
0.0
 11
-171.2897671074415
 21
310.8673132028461
 31
0.0
  0
CIRCLE
  5
D0DE
330
1F
100
AcDbEntity
  8
A2 Hatch
 48
0.15
100
AcDbCircle
 10
-168.2919157511924
 20
301.7936471072742
 30
0.0
 40
0.8157720410317779
  0
HATCH
  5
D0DF
330
1F
100
AcDbEntity
  8
A2 Hatch
 48
0.15
100
AcDbHatch
 10
0.0
 20
0.0
 30
0.0
210
0.0
220
0.0
230
1.0
  2
SOLID
 70
     1
 71
     0
 91
        1
 92
        1
 93
        1
 72
     2
 10
-168.2919157511924
 20
301.7936471072742
 40
0.2243383222039483
 50
0.0
 51
360.0
 73
     1
 97
        0
 75
     0
 76
     1
 98
        1
 10
-3408.913325961391
 20
653.237765098113
  0
LINE
  5
D0E0
330
1F
100
AcDbEntity
  8
REBAR
 48
0.15
100
AcDbLine
 10
-130.8371531155617
 20
314.7331572889898
 30
0.0
 11
-170.3688031532774
 21
314.7331572889898
 31
0.0
  0
MTEXT
  5
D0E1
330
1F
100
AcDbEntity
  8
DIM
 62
     3
100
AcDbMText
 10
-150.9888872032397
 20
300.7113750134713
 30
0.0
 40
1.0
 41
22.68954545454545
 71
     1
 72
     5
  1
ICF FORM DECK PANEL
  7
RomanC
 73
     1
 44
1.0
1001
ACAD
1000
MTEXTBEGIN
1070
    73
1070
     1
1070
    44
1040
1.0
1070
    74
1070
     0
1000
MTEXTEND
  0
LEADER
  5
D0E2
330
1F
100
AcDbEntity
  8
DIM
100
AcDbLeader
  3
ARCTEXT1-4
 76
     3
 10
-153.8177446120908
 20
310.8673132028459
 30
0.0
 10
-153.8212833970146
 20
300.1170479420953
 30
0.0
 10
-151.6104962315812
 20
300.1170479420953
 30
0.0
1001
ACAD
1000
DSTYLE
1002
{
1070
    41
1040
0.5
1070
    77
1070
     0
1002
}
  0
MTEXT
  5
D0E3
330
1F
100
AcDbEntity
  8
DIM
 62
     3
100
AcDbMText
 10
-139.3798303708199
 20
326.9500981803894
 30
0.0
 40
1.0
 41
22.68954545454545
 71
     1
 72
     5
  1
CONCRETE FLOOR SYSTEM
  7
RomanC
 73
     1
 44
1.0
1001
ACAD
1000
MTEXTBEGIN
1070
    73
1070
     1
1070
    44
1040
1.0
1070
    74
1070
     0
1000
MTEXTEND
  0
LEADER
  5
D0E4
330
1F
100
AcDbEntity
  8
DIM
100
AcDbLeader
  3
ARCTEXT1-4
 76
     3
 10
-147.0913998131009
 20
318.8673132028459
 30
0.0
 10
-147.0989144170516
 20
326.3181382481707
 30
0.0
 10
-140.0014393991614
 20
326.3181382481707
 30
0.0
1001
ACAD
1000
DSTYLE
1002
{
1070
    41
1040
0.5
1070
    77
1070
     0
1002
}
  0
MTEXT
  5
D0E5
330
1F
100
AcDbEntity
  8
DIM
 62
     3
100
AcDbMText
 10
-211.6825950397042
 20
296.411545164241
 30
0.0
 40
1.0
 41
22.68954545454545
 71
     1
 72
     5
  1
BENT REINF IN VERT CORES
  7
RomanC
 73
     1
 44
1.0
1001
ACAD
1000
MTEXTBEGIN
1070
    73
1070
     1
1070
    44
1040
1.0
1070
    74
1070
     0
1000
MTEXTEND
  0
LEADER
  5
D0E6
330
1F
100
AcDbEntity
  8
DIM
100
AcDbLeader
  3
ARCTEXT1-4
 76
     3
 10
-169.0615422091459
 20
311.597188700822
 30
0.0
 10
-186.6180016035168
 20
295.9205082408414
 30
0.0
 10
-191.3559289692848
 20
295.9205082408414
 30
0.0
211
-1.0
221
0.0
231
0.0
1001
ACAD
1000
DSTYLE
1002
{
1070
    41
1040
0.5
1070
    77
1070
     0
1002
}
  0
LEADER
  5
D0E7
330
1F
100
AcDbEntity
  8
DIM
100
AcDbLeader
  3
ARCTEXT1-4
 76
     3
 10
-173.2897671074415
 20
286.8673072175977
 30
0.0
 10
-186.7625165733179
 20
286.868146458032
 30
0.0
 10
-191.9640515786004
 20
286.868146458032
 30
0.0
211
-1.0
221
0.0
231
0.0
1001
ACAD
1000
DSTYLE
1002
{
1070
    41
1040
0.5
1070
    77
1070
     0
1002
}
  0
MTEXT
  5
D0E8
330
1F
100
AcDbEntity
  8
DIM
 62
     3
100
AcDbMText
 10
-203.6318477002851
 20
287.3711041298991
 30
0.0
 40
1.0
 41
22.68954545454545
 71
     1
 72
     5
  1
GREENBLOCK ICF 
  7
RomanC
 73
     1
 44
1.0
1001
ACAD
1000
MTEXTBEGIN
1070
    73
1070
     1
1070
    44
1040
1.0
1070
    74
1070
     0
1000
MTEXTEND
  0
MTEXT
  5
D0E9
330
1F
100
AcDbEntity
  8
DIM
 62
     3
100
AcDbMText
 10
-150.8399257896772
 20
293.4143115608029
 30
0.0
 40
1.0
 41
22.68954545454545
 71
     1
 72
     5
  1
HORIZ REINF 
  7
RomanC
 73
     1
 44
1.0
1001
ACAD
1000
MTEXTBEGIN
1070
    73
1070
     1
1070
    44
1040
1.0
1070
    74
1070
     0
1000
MTEXTEND
  0
LEADER
  5
D0EA
330
1F
100
AcDbEntity
  8
DIM
100
AcDbLeader
  3
ARCTEXT1-4
 76
     3
 10
-167.4761437101597
 20
301.7936471072742
 30
0.0
 10
-154.6675328634364
 20
292.7898648289845
 30
0.0
 10
-151.241600278935
 20
292.7898648289845
 30
0.0
1001
ACAD
1000
DSTYLE
1002
{
1070
    41
1040
0.5
1070
    77
1070
     0
1002
}
  0
MTEXT
  5
D0EB
330
1F
100
AcDbEntity
  8
DIM
 62
     3
100
AcDbMText
 10
-150.8123677127669
 20
287.2695642262377
 30
0.0
 40
1.0
 41
22.68954545454545
 71
     1
 72
     5
  1
VERT REINF 
  7
RomanC
 73
     1
 44
1.0
1001
ACAD
1000
MTEXTBEGIN
1070
    73
1070
     1
1070
    44
1040
1.0
1070
    74
1070
     0
1000
MTEXTEND
  0
LEADER
  5
D0EC
330
1F
100
AcDbEntity
  8
DIM
100
AcDbLeader
  3
ARCTEXT1-4
 76
     3
 10
-168.2919157511887
 20
286.8427217185052
 30
0.0
 10
-154.8555527453363
 20
286.8432751417529
 30
0.0
 10
-151.1224645567063
 20
286.8432751417529
 30
0.0
1001
ACAD
1000
DSTYLE
1002
{
1070
    41
1040
0.5
1070
    77
1070
     0
1002
}
  0
MTEXT
  5
D0ED
330
1F
100
AcDbEntity
  8
DIM
100
AcDbMText
 10
-170.6001783634119
 20
272.5218874655627
 30
0.0
 40
3.0
 41
79.4401490513465
 71
     2
 72
     5
  1
{\L8" INTERIOR LOAD BEARING WALL; ICF FORM DECK PERPENDICULAR TO WALL}
  7
RomanC
 73
     1
 44
1.0
1001
ACAD
1000
MTEXTBEGIN
1070
    73
1070
     1
1070
    44
1040
1.0
1070
    74
1070
     0
1000
MTEXTEND
  0
HATCH
  5
D0EE
330
1F
100
AcDbEntity
  8
A2 Hatch
 48
0.15
100
AcDbHatch
 10
0.0
 20
0.0
 30
0.0
210
0.0
220
0.0
230
1.0
  2
AR-CONC
 70
     0
 71
     0
 91
        1
 92
        1
 93
        8
 72
     1
 10
-171.3513286632833
 20
319.1124430970855
 11
-165.279746589912
 21
319.0911452009812
 72
     1
 10
-165.279746589912
 20
319.0911452009812
 11
-165.3556259507813
 21
297.4595359131315
 72
     1
 10
-165.3556259507795
 20
297.4595359131312
 11
-167.3420455046625
 21
296.7858563674047
 72
     1
 10
-167.3420455046625
 20
296.7858563674047
 11
-166.4060024878627
 21
294.0258287494622
 72
     1
 10
-166.4060024878627
 20
294.0258287494622
 11
-171.0021965655751
 21
298.622022827175
 72
     1
 10
-171.0021965655751
 20
298.622022827175
 11
-170.0661535487734
 21
295.8619952092321
 72
     1
 10
-170.0661535487734
 20
295.8619952092321
 11
-171.3513286632815
 21
295.4261375448083
 72
     1
 10
-171.3513286632815
 20
295.4261375448083
 11
-171.3513286632833
 21
319.1124430970855
 97
        0
 75
     0
 76
     1
 52
180.0
 41
0.8
 77
     0
 78
    13
 53
230.0
 43
5776.989222485457
 44
-243.5973826237864
 45
-5.738081460806028
 46
0.5020170798607616
 79
     2
 49
0.6000000000000001
 49
-6.6
 53
175.0
 43
5776.989222485457
 44
-243.5973826237864
 45
1.110010668903999
 46
-6.017537069600095
 79
     2
 49
0.48
 49
-5.28
 53
280.4514449999999
 43
5776.511049045456
 44
-243.5555479037862
 45
-4.628070721834347
 46
-5.515519971367573
 79
     2
 49
0.5099215199999999
 49
-5.609136895999998
 53
226.1842
 43
5776.989222485457
 44
-245.1973826237864
 45
-8.537928389005156
 46
1.324152114632145
 79
     2
 49
0.9
 49
-9.9
 53
276.6356449999999
 43
5776.277728525457
 44
-245.0870361677862
 45
-7.477295523824225
 46
-7.79294883986011
 79
     2
 49
0.7648823039999993
 49
-8.413703999999988
 53
171.1842
 43
5776.989222485457
 44
-245.1973826237864
 45
-7.477295561069018
 46
-7.792948807402596
 79
     2
 49
0.7200000000000001
 49
-7.92
 53
201.0
 43
5776.189222485458
 44
-244.7973826237863
 45
-4.775256416947693
 46
3.220951125322711
 79
     2
 49
0.6
 49
-6.599999999999999
 53
146.0
 43
5776.189222485458
 44
-244.7973826237863
 45
-1.946522655372654
 46
-5.801200360374824
 79
     2
 49
0.4799999999999999
 49
-5.279999999999999
 53
251.451445
 43
5775.791284621456
 44
-244.5289697757862
 45
-6.721779002130969
 46
-2.580249252953294
 79
     2
 49
0.5099215199999994
 49
-5.609136895999993
 53
217.5
 43
5776.989222485457
 44
-243.5973826237864
 45
-0.0972788425383257
 46
-2.663150830650492
 79
     6
 49
0.0
 49
-5.216
 49
0.0
 49
-5.36
 49
0.0
 49
-5.3
 53
187.5
 43
5776.989222485457
 44
-243.5973826237864
 45
-2.104556299537189
 46
-3.155293695058881
 79
     6
 49
0.0
 49
-3.055999999999999
 49
0.0
 49
-5.095999999999999
 49
0.0
 49
-2.019999999999999
 53
147.4999999999999
 43
5778.773222485456
 44
-243.5973826237864
 45
-4.270579489379272
 46
0.1804389738750389
 79
     6
 49
0.0
 49
-2.0
 49
0.0
 49
-6.24
 49
0.0
 49
-8.279999999999999
 53
137.5
 43
5779.573222485457
 44
-243.5973826237864
 45
-4.665489354739089
 46
-0.8008398586585405
 79
     6
 49
0.0
 49
-2.6
 49
0.0
 49
-4.144
 49
0.0
 49
-5.879999999999999
 98
        1
 10
5776.989222485457
 20
-243.5973826237864
  0
LINE
  5
D0EF
330
1F
100
AcDbEntity
  8
REBAR
 48
0.15
100
AcDbLine
 10
-164.6338912211931
 20
316.4944821776278
 30
0.0
 11
-146.7290831965356
 21
316.4944821776278
 31
0.0
  0
ARC
  5
D0F0
330
1F
100
AcDbEntity
  8
REBAR
 48
0.15
100
AcDbCircle
 10
-164.6338912211931
 20
313.4944821776278
 30
0.0
 40
3.0
100
AcDbArc
 50
90.0
 51
180.0
  0
LINE
  5
D0F1
330
1F
100
AcDbEntity
  8
REBAR
 48
0.15
100
AcDbLine
 10
-172.0146740294049
 20
314.0689724078352
 30
0.0
 11
-189.9730835751461
 21
314.0689724078352
 31
0.0
  0
ARC
  5
D0F2
330
1F
100
AcDbEntity
  8
REBAR
 48
0.15
100
AcDbCircle
 10
-172.0146740294049
 20
311.0689724078352
 30
0.0
 40
3.0
100
AcDbArc
 50
0.0
 51
90.0
  0
MTEXT
  5
D0F3
330
1F
100
AcDbEntity
  8
DIM
 62
     3
100
AcDbMText
 10
-150.8508010636624
 20
283.3457817141216
 30
0.0
 40
1.0
 41
16.07546435255318
 71
     1
 72
     5
  1
REINFORCEMENT PER ENGINEER
  7
RomanC
 73
     1
 44
1.0
1001
ACAD
1000
MTEXTBEGIN
1070
    73
1070
     1
1070
    44
1040
1.0
1070
    74
1070
     0
1000
MTEXTEND
  0
LWPOLYLINE
  5
D0F4
330
1F
100
AcDbEntity
  8
A4 medium
 48
0.15
100
AcDbPolyline
 90
        4
 70
     1
 43
0.0
 10
-151.4489380016521
 20
284.0314101878876
 10
-135.4727406324518
 20
284.0314101878876
 10
-135.4727406324518
 20
279.8042660652363
 10
-151.4489380016521
 20
279.8042660652363
  0
MTEXT
  5
D0F5
330
1F
100
AcDbEntity
  8
Defpoints
100
AcDbMText
 10
-170.4606319392651
 20
257.2055481136859
 30
0.0
 40
3.0
 41
90.07999999999999
 71
     2
 72
     5
  1
{\L27}\P            
  7
RomanC
 73
     1
 44
1.0
1001
ACAD
1000
MTEXTBEGIN
1070
    73
1070
     1
1070
    44
1040
1.0
1070
    74
1070
     0
1000
MTEXTEND
  0
LWPOLYLINE
  5
D0F6
330
1F
100
AcDbEntity
  8
DIM
100
AcDbPolyline
 90
        6
 70
     0
 43
0.0
 10
-156.8452574522971
 20
285.9740245342404
 10
-167.0869855716764
 20
282.5006179553355
 10
-166.4317554599156
 20
280.5685986227754
 10
-169.6490913143143
 20
283.7859344771743
 10
-168.9938612025535
 20
281.8539151446148
 10
-179.2355893219346
 20
278.38050856571
  0
LINE
  5
D0F7
330
1F
100
AcDbEntity
  8
A2 Hatch
 48
0.15
100
AcDbLine
 10
-169.3471341131217
 20
288.5720980167926
 30
0.0
 11
-169.7328066789332
 21
288.1124713509212
 31
0.0
  0
LINE
  5
D0F8
330
1F
100
AcDbEntity
  8
A2 Hatch
 48
0.15
100
AcDbLine
 10
-165.8290739944396
 20
300.1051550775677
 30
0.0
 11
-166.2147465602511
 21
299.6455284116963
 31
0.0
  0
LINE
  5
D0F9
330
1F
100
AcDbEntity
  8
A2 Hatch
 48
0.15
100
AcDbLine
 10
-170.4571447841817
 20
294.5896350871111
 30
0.0
 11
-170.8428173499933
 21
294.1300084212397
 31
0.0
  0
LINE
  5
D0FA
330
1F
100
AcDbEntity
  8
A2 Hatch
 48
0.15
100
AcDbLine
 10
-169.3471338911158
 20
288.5721005531425
 30
0.0
 11
-169.8253073461992
 21
288.6139353096613
 31
0.0
  0
LINE
  5
D0FB
330
1F
100
AcDbEntity
  8
A2 Hatch
 48
0.15
100
AcDbLine
 10
-170.4571445600186
 20
294.5896376227425
 30
0.0
 11
-170.935318015102
 21
294.6314723792614
 31
0.0
  0
LINE
  5
D0FC
330
1F
100
AcDbEntity
  8
A2 Hatch
 48
0.15
100
AcDbLine
 10
-165.8290737679135
 20
300.1051576141161
 30
0.0
 11
-166.3072472229969
 21
300.146992370635
 31
0.0
  0
LINE
  5
D0FD
330
1F
100
AcDbEntity
  8
A2 Hatch
 48
0.15
100
AcDbLine
 10
-166.3073127974794
 20
300.1469917442384
 30
0.0
 11
-166.214811908826
 21
299.6455303377896
 31
0.0
  0
LINE
  5
D0FE
330
1F
100
AcDbEntity
  8
A2 Hatch
 48
0.15
100
AcDbLine
 10
-170.9353835193151
 20
294.6314717728713
 30
0.0
 11
-170.8428826306617
 21
294.1300103664225
 31
0.0
  0
LINE
  5
D0FF
330
1F
100
AcDbEntity
  8
A2 Hatch
 48
0.15
100
AcDbLine
 10
-169.8253728235531
 20
288.6139347224067
 30
0.0
 11
-169.7328719348998
 21
288.112473315958
 31
0.0
  0
LINE
  5
D100
330
1F
100
AcDbEntity
  8
A2 Hatch
 48
0.15
100
AcDbLine
 10
-165.9421908280865
 20
284.9275036355747
 30
0.0
 11
-166.5023390839842
 21
284.7124828658475
 31
0.0
  0
LINE
  5
D101
330
1F
100
AcDbEntity
  8
A2 Hatch
 48
0.15
100
AcDbLine
 10
-170.7174472450342
 20
288.148454760897
 30
0.0
 11
-171.277595500932
 21
287.9334339911699
 31
0.0
  0
LINE
  5
D102
330
1F
100
AcDbEntity
  8
A2 Hatch
 48
0.15
100
AcDbLine
 10
-168.7709245912038
 20
293.949655122946
 30
0.0
 11
-169.3310728471015
 21
293.7346343532188
 31
0.0
  0
LINE
  5
D103
330
1F
100
AcDbEntity
  8
A2 Hatch
 48
0.15
100
AcDbLine
 10
-166.8244019373696
 20
299.7508554849952
 30
0.0
 11
-167.3845501932674
 21
299.535834715268
 31
0.0
  0
LINE
  5
D104
330
1F
100
AcDbEntity
  8
A2 Hatch
 48
0.15
100
AcDbLine
 10
-165.9421882340275
 20
284.9275045604392
 30
0.0
 11
-166.3401262688539
 21
285.1959171541052
 31
0.0
  0
LINE
  5
D105
330
1F
100
AcDbEntity
  8
A2 Hatch
 48
0.15
100
AcDbLine
 10
-170.7174446519448
 20
288.1484556844307
 30
0.0
 11
-171.1153826867712
 21
288.4168682780967
 31
0.0
  0
LINE
  5
D106
330
1F
100
AcDbEntity
  8
A2 Hatch
 48
0.15
100
AcDbLine
 10
-168.7709219965718
 20
293.9496560448051
 30
0.0
 11
-169.1688600313982
 21
294.2180686384711
 31
0.0
  0
LINE
  5
D107
330
1F
100
AcDbEntity
  8
A2 Hatch
 48
0.15
100
AcDbLine
 10
-166.8243993411988
 20
299.7508564051807
 30
0.0
 11
-167.2223373760252
 21
300.0192689988466
 31
0.0
  0
LINE
  5
D108
330
1F
100
AcDbEntity
  8
A2 Hatch
 48
0.15
100
AcDbLine
 10
-166.3402091780508
 20
285.1959466703213
 30
0.0
 11
-166.5024193919353
 21
284.7125133211711
 31
0.0
  0
LINE
  5
D109
330
1F
100
AcDbEntity
  8
A2 Hatch
 48
0.15
100
AcDbLine
 10
-167.2224203123669
 20
300.0192984873464
 30
0.0
 11
-167.3846305262514
 21
299.5358651381962
 31
0.0
  0
LINE
  5
D10A
330
1F
100
AcDbEntity
  8
A2 Hatch
 48
0.15
100
AcDbLine
 10
-169.1689429349708
 20
294.2180981306867
 30
0.0
 11
-169.3311531488553
 21
293.7346647815365
 31
0.0
  0
LINE
  5
D10B
330
1F
100
AcDbEntity
  8
A2 Hatch
 48
0.15
100
AcDbLine
 10
-171.1154655575747
 20
288.416897774027
 30
0.0
 11
-171.2776757714591
 21
287.9334644248768
 31
0.0
  0
LINE
  5
D10C
330
1F
100
AcDbEntity
  8
A2 Hatch
 48
0.15
100
AcDbLine
 10
-166.4905195672099
 20
284.5657319832501
 30
0.0
 11
-166.4905195672099
 21
284.5657319832501
 31
0.0
  0
LINE
  5
D10D
330
1F
100
AcDbEntity
  8
A2 Hatch
 48
0.15
100
AcDbLine
 10
-170.6286505901689
 20
281.3904323695406
 30
0.0
 11
-170.6286505901689
 21
281.3904323695406
 31
0.0
  0
LINE
  5
D10E
330
1F
100
AcDbEntity
  8
A2 Hatch
 48
0.15
100
AcDbLine
 10
-166.3932407246693
 20
287.2288828139012
 30
0.0
 11
-166.3932407246693
 21
287.2288828139012
 31
0.0
  0
LINE
  5
D10F
330
1F
100
AcDbEntity
  8
A2 Hatch
 48
0.15
100
AcDbLine
 10
-170.5313717476283
 20
284.0535832001917
 30
0.0
 11
-170.5313717476283
 21
284.0535832001917
 31
0.0
  0
LINE
  5
D110
330
1F
100
AcDbEntity
  8
A2 Hatch
 48
0.15
100
AcDbLine
 10
-166.2959618821323
 20
289.8920336445508
 30
0.0
 11
-166.2959618821323
 21
289.8920336445508
 31
0.0
  0
LINE
  5
D111
330
1F
100
AcDbEntity
  8
A2 Hatch
 48
0.15
100
AcDbLine
 10
-170.4340929050913
 20
286.7167340308413
 30
0.0
 11
-170.4340929050913
 21
286.7167340308413
 31
0.0
  0
LINE
  5
D112
330
1F
100
AcDbEntity
  8
A2 Hatch
 48
0.15
100
AcDbLine
 10
-166.1986830395935
 20
292.5551844752016
 30
0.0
 11
-166.1986830395935
 21
292.5551844752016
 31
0.0
  0
LINE
  5
D113
330
1F
100
AcDbEntity
  8
A2 Hatch
 48
0.15
100
AcDbLine
 10
-170.3368140625525
 20
289.3798848614921
 30
0.0
 11
-170.3368140625525
 21
289.3798848614921
 31
0.0
  0
LINE
  5
D114
330
1F
100
AcDbEntity
  8
A2 Hatch
 48
0.15
100
AcDbLine
 10
-166.1014041970547
 20
295.218335305853
 30
0.0
 11
-166.1014041970547
 21
295.218335305853
 31
0.0
  0
LINE
  5
D115
330
1F
100
AcDbEntity
  8
A2 Hatch
 48
0.15
100
AcDbLine
 10
-170.2395352200137
 20
292.0430356921435
 30
0.0
 11
-170.2395352200137
 21
292.0430356921435
 31
0.0
  0
LINE
  5
D116
330
1F
100
AcDbEntity
  8
A2 Hatch
 48
0.15
100
AcDbLine
 10
-166.0041253545178
 20
297.8814861365025
 30
0.0
 11
-166.0041253545178
 21
297.8814861365025
 31
0.0
  0
LINE
  5
D117
330
1F
100
AcDbEntity
  8
A2 Hatch
 48
0.15
100
AcDbLine
 10
-170.1422563774768
 20
294.706186522793
 30
0.0
 11
-170.1422563774768
 21
294.706186522793
 31
0.0
  0
LINE
  5
D118
330
1F
100
AcDbEntity
  8
A2 Hatch
 48
0.15
100
AcDbLine
 10
-165.906846511979
 20
300.5446369671533
 30
0.0
 11
-165.906846511979
 21
300.5446369671533
 31
0.0
  0
LINE
  5
D119
330
1F
100
AcDbEntity
  8
A2 Hatch
 48
0.15
100
AcDbLine
 10
-170.0449775349379
 20
297.3693373534438
 30
0.0
 11
-170.0449775349379
 21
297.3693373534438
 31
0.0
  0
LINE
  5
D11A
330
1F
100
AcDbEntity
  8
A2 Hatch
 48
0.15
100
AcDbLine
 10
-169.947698692401
 20
300.0324881840945
 30
0.0
 11
-169.947698692401
 21
300.0324881840945
 31
0.0
  0
LINE
  5
D11B
330
1F
100
AcDbEntity
  8
A2 Hatch
 48
0.15
100
AcDbLine
 10
-166.4982949608375
 20
283.1358477135513
 30
0.0
 11
-166.4982949608375
 21
283.1358477135513
 31
0.0
  0
LINE
  5
D11C
330
1F
100
AcDbEntity
  8
A2 Hatch
 48
0.15
100
AcDbLine
 10
-168.5010135808124
 20
282.8721848052668
 30
0.0
 11
-168.5010135808124
 21
282.8721848052668
 31
0.0
  0
LINE
  5
D11D
330
1F
100
AcDbEntity
  8
A2 Hatch
 48
0.15
100
AcDbLine
 10
-166.3964572812756
 20
286.0274785003256
 30
0.0
 11
-166.3964572812756
 21
286.0274785003256
 31
0.0
  0
LINE
  5
D11E
330
1F
100
AcDbEntity
  8
A2 Hatch
 48
0.15
100
AcDbLine
 10
-169.4263127776348
 20
285.6285904569012
 30
0.0
 11
-169.4263127776348
 21
285.6285904569012
 31
0.0
  0
LINE
  5
D11F
330
1F
100
AcDbEntity
  8
A2 Hatch
 48
0.15
100
AcDbLine
 10
-167.3217564780943
 20
288.7838841519602
 30
0.0
 11
-167.3217564780943
 21
288.7838841519602
 31
0.0
  0
LINE
  5
D120
330
1F
100
AcDbEntity
  8
A2 Hatch
 48
0.15
100
AcDbLine
 10
-170.2696031921196
 20
291.2740163714659
 30
0.0
 11
-170.2696031921196
 21
291.2740163714659
 31
0.0
  0
LINE
  5
D121
330
1F
100
AcDbEntity
  8
A2 Hatch
 48
0.15
100
AcDbLine
 10
-168.1650468925827
 20
294.4293100665248
 30
0.0
 11
-168.1650468925827
 21
294.4293100665248
 31
0.0
  0
LINE
  5
D122
330
1F
100
AcDbEntity
  8
A2 Hatch
 48
0.15
100
AcDbLine
 10
-170.1677655125577
 20
294.1656471582403
 30
0.0
 11
-170.1677655125577
 21
294.1656471582403
 31
0.0
  0
LINE
  5
D123
330
1F
100
AcDbEntity
  8
A2 Hatch
 48
0.15
100
AcDbLine
 10
-166.0604905930477
 20
297.5846037615834
 30
0.0
 11
-166.0604905930477
 21
297.5846037615834
 31
0.0
  0
LINE
  5
D124
330
1F
100
AcDbEntity
  8
A2 Hatch
 48
0.15
100
AcDbLine
 10
-168.0632092130226
 20
297.3209408532989
 30
0.0
 11
-168.0632092130226
 21
297.3209408532989
 31
0.0
  0
LINE
  5
D125
330
1F
100
AcDbEntity
  8
A2 Hatch
 48
0.15
100
AcDbLine
 10
-171.0930647093819
 20
296.9220528098745
 30
0.0
 11
-171.0930647093819
 21
296.9220528098745
 31
0.0
  0
LINE
  5
D126
330
1F
100
AcDbEntity
  8
A2 Hatch
 48
0.15
100
AcDbLine
 10
-165.9586529134822
 20
300.4762345483578
 30
0.0
 11
-165.9586529134822
 21
300.4762345483578
 31
0.0
  0
LINE
  5
D127
330
1F
100
AcDbEntity
  8
A2 Hatch
 48
0.15
100
AcDbLine
 10
-168.9885084098414
 20
300.0773465049333
 30
0.0
 11
-168.9885084098414
 21
300.0773465049333
 31
0.0
  0
LINE
  5
D128
330
1F
100
AcDbEntity
  8
A2 Hatch
 48
0.15
100
AcDbLine
 10
-168.8871188843577
 20
285.1849195438846
 30
0.0
 11
-168.8871188843577
 21
285.1849195438846
 31
0.0
  0
LINE
  5
D129
330
1F
100
AcDbEntity
  8
A2 Hatch
 48
0.15
100
AcDbLine
 10
-170.5739017759833
 20
286.2595187605782
 30
0.0
 11
-170.5739017759833
 21
286.2595187605782
 31
0.0
  0
LINE
  5
D12A
330
1F
100
AcDbEntity
  8
A2 Hatch
 48
0.15
100
AcDbLine
 10
-166.3033222866042
 20
286.0790797867035
 30
0.0
 11
-166.3033222866042
 21
286.0790797867035
 31
0.0
  0
LINE
  5
D12B
330
1F
100
AcDbEntity
  8
A2 Hatch
 48
0.15
100
AcDbLine
 10
-167.2955054190979
 20
289.251390368913
 30
0.0
 11
-167.2955054190979
 21
289.251390368913
 31
0.0
  0
LINE
  5
D12C
330
1F
100
AcDbEntity
  8
A2 Hatch
 48
0.15
100
AcDbLine
 10
-170.0082071010483
 20
293.5197921521496
 30
0.0
 11
-170.0082071010483
 21
293.5197921521496
 31
0.0
  0
LINE
  5
D12D
330
1F
100
AcDbEntity
  8
A2 Hatch
 48
0.15
100
AcDbLine
 10
-165.7376276116693
 20
293.3393531782745
 30
0.0
 11
-165.7376276116693
 21
293.3393531782745
 31
0.0
  0
LINE
  5
D12E
330
1F
100
AcDbEntity
  8
A2 Hatch
 48
0.15
100
AcDbLine
 10
-167.4244105032949
 20
294.4139523949681
 30
0.0
 11
-167.4244105032949
 21
294.4139523949681
 31
0.0
  0
LINE
  5
D12F
330
1F
100
AcDbEntity
  8
A2 Hatch
 48
0.15
100
AcDbLine
 10
-168.4165936357885
 20
297.5862629771772
 30
0.0
 11
-168.4165936357885
 21
297.5862629771772
 31
0.0
  0
LINE
  5
D130
330
1F
100
AcDbEntity
  8
A2 Hatch
 48
0.15
100
AcDbLine
 10
-171.1292953177408
 20
301.8546647604142
 30
0.0
 11
-171.1292953177408
 21
301.8546647604142
 31
0.0
  0
LINE
  5
D131
330
1F
100
AcDbEntity
  8
A2 Hatch
 48
0.15
100
AcDbLine
 10
-166.8587158283617
 20
301.67422578654
 30
0.0
 11
-166.8587158283617
 21
301.67422578654
 31
0.0
  0
LINE
  5
D132
330
1F
100
AcDbEntity
  8
A2 Hatch
 48
0.15
100
AcDbLine
 10
-169.9782185694757
 20
281.8655752189151
 30
0.0
 11
-169.9782185694757
 21
281.8655752189151
 31
0.0
  0
LINE
  5
D133
330
1F
100
AcDbEntity
  8
A2 Hatch
 48
0.15
100
AcDbLine
 10
-167.2296502904437
 20
284.4229496173749
 30
0.0
 11
-167.2296502904437
 21
284.4229496173749
 31
0.0
  0
LINE
  5
D134
330
1F
100
AcDbEntity
  8
A2 Hatch
 48
0.15
100
AcDbLine
 10
-170.2849275741855
 20
287.2225954377342
 30
0.0
 11
-170.2849275741855
 21
287.2225954377342
 31
0.0
  0
LINE
  5
D135
330
1F
100
AcDbEntity
  8
A2 Hatch
 48
0.15
100
AcDbLine
 10
-165.6194382194453
 20
288.0234352963922
 30
0.0
 11
-165.6194382194453
 21
288.0234352963922
 31
0.0
  0
LINE
  5
D136
330
1F
100
AcDbEntity
  8
A2 Hatch
 48
0.15
100
AcDbLine
 10
-169.9546289598884
 20
291.9959057171723
 30
0.0
 11
-169.9546289598884
 21
291.9959057171723
 31
0.0
  0
LINE
  5
D137
330
1F
100
AcDbEntity
  8
A2 Hatch
 48
0.15
100
AcDbLine
 10
-165.28913960515
 20
292.7967455758314
 30
0.0
 11
-165.28913960515
 21
292.7967455758314
 31
0.0
  0
LINE
  5
D138
330
1F
100
AcDbEntity
  8
A2 Hatch
 48
0.15
100
AcDbLine
 10
-167.2060606808563
 20
294.5532801156321
 30
0.0
 11
-167.2060606808563
 21
294.5532801156321
 31
0.0
  0
LINE
  5
D139
330
1F
100
AcDbEntity
  8
A2 Hatch
 48
0.15
100
AcDbLine
 10
-170.2613379645981
 20
297.3529259359914
 30
0.0
 11
-170.2613379645981
 21
297.3529259359914
 31
0.0
  0
LINE
  5
D13A
330
1F
100
AcDbEntity
  8
A2 Hatch
 48
0.15
100
AcDbLine
 10
-165.5958486098579
 20
298.1537657946502
 30
0.0
 11
-165.5958486098579
 21
298.1537657946502
 31
0.0
  0
LINE
  5
D13B
330
1F
100
AcDbEntity
  8
A2 Hatch
 48
0.15
100
AcDbLine
 10
-169.931039350301
 20
302.1262362154303
 30
0.0
 11
-169.931039350301
 21
302.1262362154303
 31
0.0
  0
LINE
  5
D13C
330
1F
100
AcDbEntity
  8
A4 medium
 48
0.15
100
AcDbLine
 10
-167.5718026385284
 20
317.8673112535942
 30
0.0
 11
-167.5718026385284
 21
317.8673112535942
 31
0.0
  0
LINE
  5
D13D
330
1F
100
AcDbEntity
  8
A4 medium
 48
0.15
100
AcDbLine
 10
-168.0718026385284
 20
318.3673112535942
 30
0.0
 11
-167.0718026385284
 21
317.3673112535941
 31
0.0
  0
LINE
  5
D13E
330
1F
100
AcDbEntity
  8
A4 medium
 48
0.15
100
AcDbLine
 10
-167.0718026385284
 20
318.3673112535942
 30
0.0
 11
-168.0718026385284
 21
317.3673112535941
 31
0.0
  0
ENDSEC
  0
SECTION
  2
OBJECTS
  0
DICTIONARY
  5
C
330
0
100
AcDbDictionary
281
     1
  3
ACAD_COLOR
350
73
  3
ACAD_GROUP
350
D
  3
ACAD_LAYOUT
350
1A
  3
ACAD_MATERIAL
350
72
  3
ACAD_MLINESTYLE
350
17
  3
ACAD_PLOTSETTINGS
350
19
  3
ACAD_PLOTSTYLENAME
350
E
  3
ACDBHEADERROUNDTRIPXREC
350
D14E
  3
AcDbVariableDictionary
350
66
  0
DICTIONARY
  5
A9
330
2
100
AcDbDictionary
280
     1
281
     1
  3
ACAD_LAYERSTATES
360
AA
  0
DICTIONARY
  5
73
102
{ACAD_REACTORS
330
C
102
}
330
C
100
AcDbDictionary
281
     1
  0
DICTIONARY
  5
D
102
{ACAD_REACTORS
330
C
102
}
330
C
100
AcDbDictionary
281
     1
  0
DICTIONARY
  5
1A
102
{ACAD_REACTORS
330
C
102
}
330
C
100
AcDbDictionary
281
     1
  3
Layout1
350
59
  3
Layout2
350
5E
  3
Model
350
22
  0
DICTIONARY
  5
72
102
{ACAD_REACTORS
330
C
102
}
330
C
100
AcDbDictionary
281
     1
  0
DICTIONARY
  5
17
102
{ACAD_REACTORS
330
C
102
}
330
C
100
AcDbDictionary
281
     1
  3
Standard
350
18
  0
DICTIONARY
  5
19
102
{ACAD_REACTORS
330
C
102
}
330
C
100
AcDbDictionary
281
     1
  0
ACDBDICTIONARYWDFLT
  5
E
102
{ACAD_REACTORS
330
C
102
}
330
C
100
AcDbDictionary
281
     1
  3
Normal
350
F
100
AcDbDictionaryWithDefault
340
F
  0
DICTIONARY
  5
D14E
102
{ACAD_REACTORS
330
C
102
}
330
C
100
AcDbDictionary
281
     1
  3
COLORDICT
350
D150
  3
MATERIALDICT
350
D14F
  0
DICTIONARY
  5
66
102
{ACAD_REACTORS
330
C
102
}
330
C
100
AcDbDictionary
281
     1
  3
DIMASSOC
350
67
  3
HIDETEXT
350
6B
  3
PROJECTNAME
350
1065
  0
DICTIONARY
  5
AA
102
{ACAD_REACTORS
330
A9
102
}
330
A9
100
AcDbDictionary
281
     1
  0
LAYOUT
  5
59
102
{ACAD_XDICTIONARY
360
D153
102
}
102
{ACAD_REACTORS
330
1A
102
}
330
1A
100
AcDbPlotSettings
  1

  2
None
  4

  6

 40
0.0
 41
0.0
 42
0.0
 43
0.0
 44
0.0
 45
0.0
 46
0.0
 47
0.0
 48
0.0
 49
0.0
140
0.0
141
0.0
142
1.0
143
1.0
 70
   688
 72
     0
 73
     0
 74
     5
  7

 75
    16
147
1.0
148
0.0
149
0.0
100
AcDbLayout
  1
Layout1
 70
     1
 71
     1
 10
0.0
 20
0.0
 11
12.0
 21
9.0
 12
0.0
 22
0.0
 32
0.0
 14
0.0
 24
0.0
 34
0.0
 15
0.0
 25
0.0
 35
0.0
146
0.0
 13
0.0
 23
0.0
 33
0.0
 16
1.0
 26
0.0
 36
0.0
 17
0.0
 27
1.0
 37
0.0
 76
     0
330
58
  0
LAYOUT
  5
5E
102
{ACAD_XDICTIONARY
360
D155
102
}
102
{ACAD_REACTORS
330
1A
102
}
330
1A
100
AcDbPlotSettings
  1

  2
None
  4

  6

 40
0.0
 41
0.0
 42
0.0
 43
0.0
 44
0.0
 45
0.0
 46
0.0
 47
0.0
 48
0.0
 49
0.0
140
0.0
141
0.0
142
1.0
143
1.0
 70
   688
 72
     0
 73
     0
 74
     5
  7

 75
    16
147
1.0
148
0.0
149
0.0
100
AcDbLayout
  1
Layout2
 70
     1
 71
     2
 10
0.0
 20
0.0
 11
12.0
 21
9.0
 12
0.0
 22
0.0
 32
0.0
 14
0.0
 24
0.0
 34
0.0
 15
0.0
 25
0.0
 35
0.0
146
0.0
 13
0.0
 23
0.0
 33
0.0
 16
1.0
 26
0.0
 36
0.0
 17
0.0
 27
1.0
 37
0.0
 76
     0
330
5D
  0
LAYOUT
  5
22
102
{ACAD_XDICTIONARY
360
D151
102
}
102
{ACAD_REACTORS
330
1A
102
}
330
1A
100
AcDbPlotSettings
  1

  2
none_device
  4
ANSI_A_(8.50_x_11.00_Inches)
  6

 40
6.349999904632568
 41
19.04999923706055
 42
6.350006103515625
 43
19.04998779296875
 44
215.8999938964844
 45
279.3999938964844
 46
0.0
 47
0.0
 48
0.0
 49
0.0
140
0.0
141
0.0
142
1.0
143
2.584895464708373
 70
 11952
 72
     0
 73
     1
 74
     0
  7

 75
     0
147
0.3868628397755418
148
0.0
149
0.0
100
AcDbLayout
  1
Model
 70
     1
 71
     0
 10
0.0
 20
0.0
 11
12.0
 21
9.0
 12
0.0
 22
0.0
 32
0.0
 14
0.0
 24
0.0
 34
0.0
 15
0.0
 25
0.0
 35
0.0
146
0.0
 13
0.0
 23
0.0
 33
0.0
 16
1.0
 26
0.0
 36
0.0
 17
0.0
 27
1.0
 37
0.0
 76
     0
330
1F
  0
MLINESTYLE
  5
18
102
{ACAD_REACTORS
330
17
102
}
330
17
100
AcDbMlineStyle
  2
STANDARD
 70
     0
  3

 62
   256
 51
90.0
 52
90.0
 71
     2
 49
0.5
 62
   256
  6
BYLAYER
 49
-0.5
 62
   256
  6
BYLAYER
  0
ACDBPLACEHOLDER
  5
F
102
{ACAD_REACTORS
330
E
102
}
330
E
  0
XRECORD
  5
D150
102
{ACAD_REACTORS
330
D14E
102
}
330
D14E
100
AcDbXrecord
280
     1
340
73
  0
XRECORD
  5
D14F
102
{ACAD_REACTORS
330
D14E
102
}
330
D14E
100
AcDbXrecord
280
     1
340
72
  0
DICTIONARYVAR
  5
67
102
{ACAD_REACTORS
330
66
102
}
330
66
100
DictionaryVariables
280
     0
  1
2
  0
DICTIONARYVAR
  5
6B
102
{ACAD_REACTORS
330
66
102
}
330
66
100
DictionaryVariables
280
     0
  1
1
  0
DICTIONARYVAR
  5
1065
102
{ACAD_REACTORS
330
66
102
}
330
66
100
DictionaryVariables
280
     0
  1

  0
DICTIONARY
  5
D153
330
59
100
AcDbDictionary
280
     1
281
     1
  3
ACAD_XREC_ROUNDTRIP
360
D154
  0
DICTIONARY
  5
D155
330
5E
100
AcDbDictionary
280
     1
281
     1
  3
ACAD_XREC_ROUNDTRIP
360
D156
  0
DICTIONARY
  5
D151
330
22
100
AcDbDictionary
280
     1
281
     1
  3
ACAD_XREC_ROUNDTRIP
360
D152
  0
XRECORD
  5
D154
102
{ACAD_REACTORS
330
D153
102
}
330
D153
100
AcDbXrecord
280
     1
102
SHADEPLOT
 70
     0
102
SHADEPLOTRESLEVEL
 70
     2
102
SHADEPLOTCUSTOMDPI
 70
   300
  0
XRECORD
  5
D156
102
{ACAD_REACTORS
330
D155
102
}
330
D155
100
AcDbXrecord
280
     1
102
SHADEPLOT
 70
     0
102
SHADEPLOTRESLEVEL
 70
     2
102
SHADEPLOTCUSTOMDPI
 70
   300
  0
XRECORD
  5
D152
102
{ACAD_REACTORS
330
D151
102
}
330
D151
100
AcDbXrecord
280
     1
102
SHADEPLOT
 70
     0
102
SHADEPLOTRESLEVEL
 70
     2
102
SHADEPLOTCUSTOMDPI
 70
   300
  0
ENDSEC
  0
EOF
