  0
SECTION
  2
HEADER
  9
$ACADVER
  1
AC1015
  9
$ACADMAINTVER
 70
    20
  9
$DWGCODEPAGE
  3
ANSI_1252
  9
$INSBASE
 10
0.0
 20
0.0
 30
0.0
  9
$EXTMIN
 10
-256.9571208947055
 20
296.6924913822696
 30
-0.0000000349181948
  9
$EXTMAX
 10
-154.6696358580142
 20
375.3388467005333
 30
0.0000000814935746
  9
$LIMMIN
 10
0.0
 20
0.0
  9
$LIMMAX
 10
12.0
 20
9.0
  9
$ORTHOMODE
 70
     0
  9
$REGENMODE
 70
     1
  9
$FILLMODE
 70
     1
  9
$QTEXTMODE
 70
     0
  9
$MIRRTEXT
 70
     0
  9
$LTSCALE
 40
1.0
  9
$ATTMODE
 70
     1
  9
$TEXTSIZE
 40
0.2
  9
$TRACEWID
 40
0.05
  9
$TEXTSTYLE
  7
Standard
  9
$CLAYER
  8
0
  9
$CELTYPE
  6
ByLayer
  9
$CECOLOR
 62
   256
  9
$CELTSCALE
 40
1.0
  9
$DISPSILH
 70
     0
  9
$DIMSCALE
 40
1.0
  9
$DIMASZ
 40
0.18
  9
$DIMEXO
 40
0.0625
  9
$DIMDLI
 40
0.38
  9
$DIMRND
 40
0.0
  9
$DIMDLE
 40
0.0
  9
$DIMEXE
 40
0.18
  9
$DIMTP
 40
0.0
  9
$DIMTM
 40
0.0
  9
$DIMTXT
 40
0.18
  9
$DIMCEN
 40
0.09
  9
$DIMTSZ
 40
0.0
  9
$DIMTOL
 70
     0
  9
$DIMLIM
 70
     0
  9
$DIMTIH
 70
     1
  9
$DIMTOH
 70
     1
  9
$DIMSE1
 70
     0
  9
$DIMSE2
 70
     0
  9
$DIMTAD
 70
     0
  9
$DIMZIN
 70
     0
  9
$DIMBLK
  1

  9
$DIMASO
 70
     1
  9
$DIMSHO
 70
     1
  9
$DIMPOST
  1

  9
$DIMAPOST
  1

  9
$DIMALT
 70
     0
  9
$DIMALTD
 70
     2
  9
$DIMALTF
 40
25.4
  9
$DIMLFAC
 40
1.0
  9
$DIMTOFL
 70
     0
  9
$DIMTVP
 40
0.0
  9
$DIMTIX
 70
     0
  9
$DIMSOXD
 70
     0
  9
$DIMSAH
 70
     0
  9
$DIMBLK1
  1

  9
$DIMBLK2
  1

  9
$DIMSTYLE
  2
Standard
  9
$DIMCLRD
 70
     0
  9
$DIMCLRE
 70
     0
  9
$DIMCLRT
 70
     0
  9
$DIMTFAC
 40
1.0
  9
$DIMGAP
 40
0.09
  9
$DIMJUST
 70
     0
  9
$DIMSD1
 70
     0
  9
$DIMSD2
 70
     0
  9
$DIMTOLJ
 70
     1
  9
$DIMTZIN
 70
     0
  9
$DIMALTZ
 70
     0
  9
$DIMALTTZ
 70
     0
  9
$DIMUPT
 70
     0
  9
$DIMDEC
 70
     4
  9
$DIMTDEC
 70
     4
  9
$DIMALTU
 70
     2
  9
$DIMALTTD
 70
     2
  9
$DIMTXSTY
  7
Standard
  9
$DIMAUNIT
 70
     0
  9
$DIMADEC
 70
     0
  9
$DIMALTRND
 40
0.0
  9
$DIMAZIN
 70
     0
  9
$DIMDSEP
 70
    46
  9
$DIMATFIT
 70
     3
  9
$DIMFRAC
 70
     0
  9
$DIMLDRBLK
  1

  9
$DIMLUNIT
 70
     2
  9
$DIMLWD
 70
    -2
  9
$DIMLWE
 70
    -2
  9
$DIMTMOVE
 70
     0
  9
$LUNITS
 70
     2
  9
$LUPREC
 70
     4
  9
$SKETCHINC
 40
0.1
  9
$FILLETRAD
 40
0.0
  9
$AUNITS
 70
     0
  9
$AUPREC
 70
     0
  9
$MENU
  1
.
  9
$ELEVATION
 40
0.0
  9
$PELEVATION
 40
0.0
  9
$THICKNESS
 40
0.0
  9
$LIMCHECK
 70
     0
  9
$CHAMFERA
 40
0.0
  9
$CHAMFERB
 40
0.0
  9
$CHAMFERC
 40
0.0
  9
$CHAMFERD
 40
0.0
  9
$SKPOLY
 70
     0
  9
$TDCREATE
 40
2454861.564484954
  9
$TDUCREATE
 40
2454861.856151620
  9
$TDUPDATE
 40
2454861.587193808
  9
$TDUUPDATE
 40
2454861.878860475
  9
$TDINDWG
 40
0.0227141898
  9
$TDUSRTIMER
 40
0.0227120949
  9
$USRTIMER
 70
     1
  9
$ANGBASE
 50
0.0
  9
$ANGDIR
 70
     0
  9
$PDMODE
 70
     0
  9
$PDSIZE
 40
0.0
  9
$PLINEWID
 40
0.0
  9
$SPLFRAME
 70
     0
  9
$SPLINETYPE
 70
     6
  9
$SPLINESEGS
 70
     8
  9
$HANDSEED
  5
DECB
  9
$SURFTAB1
 70
     6
  9
$SURFTAB2
 70
     6
  9
$SURFTYPE
 70
     6
  9
$SURFU
 70
     6
  9
$SURFV
 70
     6
  9
$UCSBASE
  2

  9
$UCSNAME
  2

  9
$UCSORG
 10
0.0
 20
0.0
 30
0.0
  9
$UCSXDIR
 10
1.0
 20
0.0
 30
0.0
  9
$UCSYDIR
 10
0.0
 20
1.0
 30
0.0
  9
$UCSORTHOREF
  2

  9
$UCSORTHOVIEW
 70
     0
  9
$UCSORGTOP
 10
0.0
 20
0.0
 30
0.0
  9
$UCSORGBOTTOM
 10
0.0
 20
0.0
 30
0.0
  9
$UCSORGLEFT
 10
0.0
 20
0.0
 30
0.0
  9
$UCSORGRIGHT
 10
0.0
 20
0.0
 30
0.0
  9
$UCSORGFRONT
 10
0.0
 20
0.0
 30
0.0
  9
$UCSORGBACK
 10
0.0
 20
0.0
 30
0.0
  9
$PUCSBASE
  2

  9
$PUCSNAME
  2

  9
$PUCSORG
 10
0.0
 20
0.0
 30
0.0
  9
$PUCSXDIR
 10
1.0
 20
0.0
 30
0.0
  9
$PUCSYDIR
 10
0.0
 20
1.0
 30
0.0
  9
$PUCSORTHOREF
  2

  9
$PUCSORTHOVIEW
 70
     0
  9
$PUCSORGTOP
 10
0.0
 20
0.0
 30
0.0
  9
$PUCSORGBOTTOM
 10
0.0
 20
0.0
 30
0.0
  9
$PUCSORGLEFT
 10
0.0
 20
0.0
 30
0.0
  9
$PUCSORGRIGHT
 10
0.0
 20
0.0
 30
0.0
  9
$PUCSORGFRONT
 10
0.0
 20
0.0
 30
0.0
  9
$PUCSORGBACK
 10
0.0
 20
0.0
 30
0.0
  9
$USERI1
 70
     0
  9
$USERI2
 70
     0
  9
$USERI3
 70
     0
  9
$USERI4
 70
     0
  9
$USERI5
 70
     0
  9
$USERR1
 40
0.0
  9
$USERR2
 40
0.0
  9
$USERR3
 40
0.0
  9
$USERR4
 40
0.0
  9
$USERR5
 40
0.0
  9
$WORLDVIEW
 70
     1
  9
$SHADEDGE
 70
     3
  9
$SHADEDIF
 70
    70
  9
$TILEMODE
 70
     1
  9
$MAXACTVP
 70
    64
  9
$PINSBASE
 10
0.0
 20
0.0
 30
0.0
  9
$PLIMCHECK
 70
     0
  9
$PEXTMIN
 10
0.0
 20
0.0
 30
0.0
  9
$PEXTMAX
 10
0.0
 20
0.0
 30
0.0
  9
$PLIMMIN
 10
0.0
 20
0.0
  9
$PLIMMAX
 10
12.0
 20
9.0
  9
$UNITMODE
 70
     0
  9
$VISRETAIN
 70
     1
  9
$PLINEGEN
 70
     0
  9
$PSLTSCALE
 70
     1
  9
$TREEDEPTH
 70
  3020
  9
$CMLSTYLE
  2
Standard
  9
$CMLJUST
 70
     0
  9
$CMLSCALE
 40
1.0
  9
$PROXYGRAPHICS
 70
     1
  9
$MEASUREMENT
 70
     0
  9
$CELWEIGHT
370
    -1
  9
$ENDCAPS
280
     0
  9
$JOINSTYLE
280
     0
  9
$LWDISPLAY
290
     0
  9
$INSUNITS
 70
     1
  9
$HYPERLINKBASE
  1

  9
$STYLESHEET
  1

  9
$XEDIT
290
     1
  9
$CEPSNTYPE
380
     0
  9
$PSTYLEMODE
290
     1
  9
$FINGERPRINTGUID
  2
{FDEAD576-A652-11D2-9A35-0060089B3A3F}
  9
$VERSIONGUID
  2
{3B0376AF-AE7E-4FE3-80D5-7EA97C7008C6}
  9
$EXTNAMES
290
     1
  9
$PSVPSCALE
 40
0.0
  9
$OLESTARTUP
290
     0
  0
ENDSEC
  0
SECTION
  2
CLASSES
  0
CLASS
  1
ACDBDICTIONARYWDFLT
  2
AcDbDictionaryWithDefault
  3
ObjectDBX Classes
 90
        0
280
     0
281
     0
  0
CLASS
  1
ACDBPLACEHOLDER
  2
AcDbPlaceHolder
  3
ObjectDBX Classes
 90
        0
280
     0
281
     0
  0
CLASS
  1
LAYOUT
  2
AcDbLayout
  3
ObjectDBX Classes
 90
        0
280
     0
281
     0
  0
CLASS
  1
DICTIONARYVAR
  2
AcDbDictionaryVar
  3
ObjectDBX Classes
 90
        0
280
     0
281
     0
  0
CLASS
  1
SORTENTSTABLE
  2
AcDbSortentsTable
  3
ObjectDBX Classes
 90
        0
280
     0
281
     0
  0
ENDSEC
  0
SECTION
  2
TABLES
  0
TABLE
  2
VPORT
  5
8
330
0
100
AcDbSymbolTable
 70
    64
  0
VPORT
  5
DEBD
330
8
100
AcDbSymbolTableRecord
100
AcDbViewportTableRecord
  2
*Active
 70
     0
 10
0.0
 20
0.0
 11
1.0
 21
1.0
 12
-205.8133783763599
 22
336.0156690414015
 13
0.0
 23
0.0
 14
0.5
 24
0.5
 15
0.5
 25
0.5
 16
0.0
 26
0.0
 36
1.0
 17
0.0
 27
0.0
 37
0.0
 40
79.2141990389731
 41
1.48433734939759
 42
50.0
 43
0.0
 44
0.0
 50
0.0
 51
0.0
 71
     0
 72
  1000
 73
     1
 74
     3
 75
     0
 76
     0
 77
     0
 78
     0
281
     0
 65
     1
110
0.0
120
0.0
130
0.0
111
1.0
121
0.0
131
0.0
112
0.0
122
1.0
132
0.0
 79
     0
146
0.0
  0
ENDTAB
  0
TABLE
  2
LTYPE
  5
5
330
0
100
AcDbSymbolTable
 70
     6
  0
LTYPE
  5
14
330
5
100
AcDbSymbolTableRecord
100
AcDbLinetypeTableRecord
  2
ByBlock
 70
     0
  3

 72
    65
 73
     0
 40
0.0
  0
LTYPE
  5
15
330
5
100
AcDbSymbolTableRecord
100
AcDbLinetypeTableRecord
  2
ByLayer
 70
     0
  3

 72
    65
 73
     0
 40
0.0
  0
LTYPE
  5
16
330
5
100
AcDbSymbolTableRecord
100
AcDbLinetypeTableRecord
  2
Continuous
 70
     0
  3
Solid line
 72
    65
 73
     0
 40
0.0
  0
LTYPE
  5
96
330
5
100
AcDbSymbolTableRecord
100
AcDbLinetypeTableRecord
  2
HIDDEN2
 70
     0
  3
Hidden (.5x) _ _ _ _ _ _ _ _ _ _ _ _ _ _ _ _ _
 72
    65
 73
     2
 40
0.1875
 49
0.125
 74
     0
 49
-0.0625
 74
     0
  0
LTYPE
  5
97
330
5
100
AcDbSymbolTableRecord
100
AcDbLinetypeTableRecord
  2
DASHED
 70
     0
  3
Dashed __ __ __ __ __ __ __ __ __ __ __ __ __ _
 72
    65
 73
     2
 40
0.75
 49
0.5
 74
     0
 49
-0.25
 74
     0
  0
LTYPE
  5
98
330
5
100
AcDbSymbolTableRecord
100
AcDbLinetypeTableRecord
  2
CENTER
 70
     0
  3
Center ____ _ ____ _ ____ _ ____ _ ____ _ ____
 72
    65
 73
     4
 40
2.0
 49
1.25
 74
     0
 49
-0.25
 74
     0
 49
0.25
 74
     0
 49
-0.25
 74
     0
  0
LTYPE
  5
99
330
5
100
AcDbSymbolTableRecord
100
AcDbLinetypeTableRecord
  2
DASHED2
 70
     0
  3
_ _ _ _ _ _ _ _ _ _ _ _ _ _ _ _ _ _ _ _ _ _ _ _
 72
    65
 73
     2
 40
0.375
 49
0.25
 74
     0
 49
-0.125
 74
     0
  0
LTYPE
  5
9A
330
5
100
AcDbSymbolTableRecord
100
AcDbLinetypeTableRecord
  2
HIDDEN
 70
     0
  3
Hidden __ __ __ __ __ __ __ __ __ __ __ __ __ _
 72
    65
 73
     2
 40
0.375
 49
0.25
 74
     0
 49
-0.125
 74
     0
  0
ENDTAB
  0
TABLE
  2
LAYER
  5
2
102
{ACAD_XDICTIONARY
360
A9
102
}
330
0
100
AcDbSymbolTable
 70
    10
  0
LAYER
  5
10
330
2
100
AcDbSymbolTableRecord
100
AcDbLayerTableRecord
  2
0
 70
     0
 62
     7
  6
Continuous
370
    -3
390
F
  0
LAYER
  5
9B
330
2
100
AcDbSymbolTableRecord
100
AcDbLayerTableRecord
  2
DIM
 70
     0
 62
     3
  6
Continuous
370
    13
390
F
  0
LAYER
  5
9C
330
2
100
AcDbSymbolTableRecord
100
AcDbLayerTableRecord
  2
Defpoints
 70
     0
 62
   252
  6
Continuous
290
     0
370
    -3
390
F
  0
LAYER
  5
9D
330
2
100
AcDbSymbolTableRecord
100
AcDbLayerTableRecord
  2
A2 Hatch
 70
     0
 62
     8
  6
Continuous
370
     9
390
F
  0
LAYER
  5
9E
330
2
100
AcDbSymbolTableRecord
100
AcDbLayerTableRecord
  2
DETAILS
 70
     0
 62
     7
  6
Continuous
370
    13
390
F
  0
LAYER
  5
9F
330
2
100
AcDbSymbolTableRecord
100
AcDbLayerTableRecord
  2
A4 medium
 70
     0
 62
     7
  6
Continuous
370
    35
390
F
  0
LAYER
  5
A0
330
2
100
AcDbSymbolTableRecord
100
AcDbLayerTableRecord
  2
REBAR
 70
     0
 62
     2
  6
CENTER
370
    30
390
F
  0
LAYER
  5
28AC
330
2
100
AcDbSymbolTableRecord
100
AcDbLayerTableRecord
  2
A5 heavy
 70
     0
 62
     5
  6
Continuous
370
    53
390
F
  0
LAYER
  5
2FC3
330
2
100
AcDbSymbolTableRecord
100
AcDbLayerTableRecord
  2
GRADE
 70
     0
 62
     5
  6
Continuous
370
   100
390
F
  0
LAYER
  5
51AE
330
2
100
AcDbSymbolTableRecord
100
AcDbLayerTableRecord
  2
HANGERS
 70
     0
 62
   253
  6
Continuous
370
    -3
390
F
  0
ENDTAB
  0
TABLE
  2
STYLE
  5
3
330
0
100
AcDbSymbolTable
 70
     5
  0
STYLE
  5
11
330
3
100
AcDbSymbolTableRecord
100
AcDbTextStyleTableRecord
  2
Standard
 70
     0
 40
0.0
 41
1.0
 50
0.0
 71
     0
 42
0.2
  3
txt
  4

  0
STYLE
  5
A1
330
3
100
AcDbSymbolTableRecord
100
AcDbTextStyleTableRecord
  2
ARCHITXT
 70
     0
 40
0.0
 41
1.25
 50
0.0
 71
     0
 42
1.0
  3
ARCHITXT.shx
  4

  0
STYLE
  5
A2
330
3
100
AcDbSymbolTableRecord
100
AcDbTextStyleTableRecord
  2
ARCTEXT
 70
     0
 40
0.0
 41
0.85
 50
0.0
 71
     0
 42
5.096770384644268
  3
arctext.shx
  4

  0
STYLE
  5
A3
330
3
100
AcDbSymbolTableRecord
100
AcDbTextStyleTableRecord
  2
ROMAND
 70
     0
 40
0.0
 41
0.85
 50
0.0
 71
     0
 42
6.0
  3
romand.shx
  4

  0
STYLE
  5
A4
330
3
100
AcDbSymbolTableRecord
100
AcDbTextStyleTableRecord
  2
RomanC
 70
     0
 40
5.0
 41
0.85
 50
0.0
 71
     0
 42
10.0
  3
romanc.shx
  4

  0
ENDTAB
  0
TABLE
  2
VIEW
  5
6
330
0
100
AcDbSymbolTable
 70
     0
  0
ENDTAB
  0
TABLE
  2
UCS
  5
7
330
0
100
AcDbSymbolTable
 70
     0
  0
ENDTAB
  0
TABLE
  2
APPID
  5
9
330
0
100
AcDbSymbolTable
 70
     1
  0
APPID
  5
12
330
9
100
AcDbSymbolTableRecord
100
AcDbRegAppTableRecord
  2
ACAD
 70
     0
  0
ENDTAB
  0
TABLE
  2
DIMSTYLE
  5
A
330
0
100
AcDbSymbolTable
 70
     5
100
AcDbDimStyleTable
 71
     0
  0
DIMSTYLE
105
27
330
A
100
AcDbSymbolTableRecord
100
AcDbDimStyleTableRecord
  2
Standard
 70
     0
340
11
  0
DIMSTYLE
105
A5
330
A
100
AcDbSymbolTableRecord
100
AcDbDimStyleTableRecord
  2
Copy of ROMANS
 70
     0
 41
0.75
 42
0.125
 43
0.125
 44
0.125
 73
     0
 74
     0
 77
     1
 78
     3
140
1.0
141
6.0
147
0.25
172
     1
175
     1
176
     2
177
     2
178
     2
271
     3
272
     3
273
     4
275
     1
277
     4
279
     2
284
     3
285
     3
286
     3
340
A1
  0
DIMSTYLE
105
A6
330
A
100
AcDbSymbolTableRecord
100
AcDbDimStyleTableRecord
  2
ARCTEXT
 70
     0
 40
0.0
 41
2.0
 42
1.0
 43
0.375
 44
0.1875
 73
     0
 74
     0
140
4.0
141
2.0
147
2.0
176
     2
177
     2
178
     2
277
     4
340
A2
341
8D
342
89
  0
DIMSTYLE
105
A7
102
{ACAD_REACTORS
330
1B1
330
1B7
330
1B6
330
199
330
1F8
330
1E9
330
1E8
330
19D
330
19C
330
481
102
}
330
A
100
AcDbSymbolTableRecord
100
AcDbDimStyleTableRecord
  2
ARCTEXT1-4
 70
     0
 41
2.0
 42
2.0
 43
2.0
 44
2.0
 73
     0
 74
     0
 77
     1
 78
     3
140
4.0
141
2.0
147
2.0
172
     1
175
     1
275
     1
277
     4
279
     2
340
A2
341
8D
342
89
  0
DIMSTYLE
105
A8
330
A
100
AcDbSymbolTableRecord
100
AcDbDimStyleTableRecord
  2
ARCTEXT 1-1
 70
     0
 40
0.0
 41
1.0
 42
1.0
 43
0.375
 44
0.1875
 73
     0
 74
     0
 77
     1
 78
     3
140
1.0
141
1.0
147
0.5
176
   256
177
   256
178
   256
277
     4
279
     2
340
A2
341
8D
342
89
  0
ENDTAB
  0
TABLE
  2
BLOCK_RECORD
  5
1
330
0
100
AcDbSymbolTable
 70
    36
  0
BLOCK_RECORD
  5
1F
330
1
100
AcDbSymbolTableRecord
100
AcDbBlockTableRecord
  2
*Model_Space
340
22
  0
BLOCK_RECORD
  5
58
330
1
100
AcDbSymbolTableRecord
100
AcDbBlockTableRecord
  2
*Paper_Space
340
59
  0
BLOCK_RECORD
  5
5D
330
1
100
AcDbSymbolTableRecord
100
AcDbBlockTableRecord
  2
*Paper_Space0
340
5E
  0
BLOCK_RECORD
  5
89
330
1
100
AcDbSymbolTableRecord
100
AcDbBlockTableRecord
  2
_ArchTick
340
0
  0
BLOCK_RECORD
  5
8D
330
1
100
AcDbSymbolTableRecord
100
AcDbBlockTableRecord
  2
arrow
340
0
310
2800000020000000200000000100080000000000000400000000000000000000000000000000000000000000000080000080000000808000800000008000800080800000C0C0C000C0DCC000F0CAA6000020400000206000002080000020A0000020C0000020E00000400000004020000040400000406000004080000040A0
310
000040C0000040E00000600000006020000060400000606000006080000060A0000060C0000060E00000800000008020000080400000806000008080000080A0000080C0000080E00000A0000000A0200000A0400000A0600000A0800000A0A00000A0C00000A0E00000C0000000C0200000C0400000C0600000C0800000C0
310
A00000C0C00000C0E00000E0000000E0200000E0400000E0600000E0800000E0A00000E0C00000E0E00040000000400020004000400040006000400080004000A0004000C0004000E00040200000402020004020400040206000402080004020A0004020C0004020E000404000004040200040404000404060004040800040
310
40A0004040C0004040E00040600000406020004060400040606000406080004060A0004060C0004060E00040800000408020004080400040806000408080004080A0004080C0004080E00040A0000040A0200040A0400040A0600040A0800040A0A00040A0C00040A0E00040C0000040C0200040C0400040C0600040C08000
310
40C0A00040C0C00040C0E00040E0000040E0200040E0400040E0600040E0800040E0A00040E0C00040E0E00080000000800020008000400080006000800080008000A0008000C0008000E00080200000802020008020400080206000802080008020A0008020C0008020E00080400000804020008040400080406000804080
310
008040A0008040C0008040E00080600000806020008060400080606000806080008060A0008060C0008060E00080800000808020008080400080806000808080008080A0008080C0008080E00080A0000080A0200080A0400080A0600080A0800080A0A00080A0C00080A0E00080C0000080C0200080C0400080C0600080C0
310
800080C0A00080C0C00080C0E00080E0000080E0200080E0400080E0600080E0800080E0A00080E0C00080E0E000C0000000C0002000C0004000C0006000C0008000C000A000C000C000C000E000C0200000C0202000C0204000C0206000C0208000C020A000C020C000C020E000C0400000C0402000C0404000C0406000C0
310
408000C040A000C040C000C040E000C0600000C0602000C0604000C0606000C0608000C060A000C060C000C060E000C0800000C0802000C0804000C0806000C0808000C080A000C080C000C080E000C0A00000C0A02000C0A04000C0A06000C0A08000C0A0A000C0A0C000C0A0E000C0C00000C0C02000C0C04000C0C06000
310
C0C08000C0C0A000F0FBFF00A4A0A000808080000000FF0000FF000000FFFF00FF000000FF00FF00FFFF0000FFFFFF0000000000000000000000000000000000000000000000000000000000000000000000000000000000000000000000000000000000000000000000000000000000000000000000000000000000000000
310
0000000000000000000000000000000000000000000000000000000000000000000000000000000000000000000000000000000000000000000000000000000000000000000000000000000000000000000000000000000000000000000000000000000000000000000000000000000000000000000000FA00000000000000
310
000000000000000000000000000000000000000000000000FA00000000000000000000000000000000000000000000000000000000000000FA0000000000000000000000000000000000000000000000000000FAFA000000FA00000000000000000000000000000000000000000000000000000000FAFA00FA000000000000
310
000000000000000000000000000000000000000000000000FAF7F7000000000000000000000000000000000000000000000000000000000000F7F7F7F7F7F70000000000000000000000000000000000000000000000000000F7F7F7F7F7F7F7F7F7F700000000000000000000000000000000000000000000F7F7F7F7F7F7
310
F7F7F7F7F7F7F7F7000000000000000000000000000000000000F7F7F7F7F7F7F7F7F7F7F7F7F7F7F7F7F7F70000000000FAFA00000000000000F7F7F7F7F7F7F7F7F7F7F7F7F7F7F7F7F7F7F7F7F7FAFAFAFA00000000000000F7F7F7F7F7F7F7F7F7F7F7F7F7F7F7F7F7F70000000000000000000000000000F7F7F7F7F7
310
F7F7F7F7F7F7F7F700000000000000000000000000000000000000F7F7F7F7F7F7F7F70000000000000000000000000000000000000000000000FAF7F7F70000000000000000000000000000000000000000000000000000FAFA00FA0000000000000000000000000000000000000000000000000000FAFA000000FA000000
310
00000000000000000000000000000000000000000000000000000000FA00000000000000000000000000000000000000000000000000000000000000FA00000000000000000000000000000000000000000000000000000000000000FA00000000000000000000000000000000000000000000000000000000000000000000
310
00000000000000000000000000000000000000000000000000000000000000000000000000000000000000000000000000000000000000000000000000000000000000000000000000000000000000000000000000000000000000000000000000000000000000000000000000000000000000000000000000000000000000
310
0000000000000000000000000000000000000000000000000000000000000000000000000000000000000000000000000000000000000000
1001
ACAD
1000
DesignCenter Data
1002
{
1070
     1
1070
     1
1002
}
  0
ENDTAB
  0
ENDSEC
  0
SECTION
  2
BLOCKS
  0
BLOCK
  5
20
330
1F
100
AcDbEntity
  8
0
100
AcDbBlockBegin
  2
*Model_Space
 70
     0
 10
0.0
 20
0.0
 30
0.0
  3
*Model_Space
  1

  0
ENDBLK
  5
21
330
1F
100
AcDbEntity
  8
0
100
AcDbBlockEnd
  0
BLOCK
  5
5A
330
58
100
AcDbEntity
 67
     1
  8
0
100
AcDbBlockBegin
  2
*Paper_Space
 70
     0
 10
0.0
 20
0.0
 30
0.0
  3
*Paper_Space
  1

  0
ENDBLK
  5
5B
330
58
100
AcDbEntity
 67
     1
  8
0
100
AcDbBlockEnd
  0
BLOCK
  5
5F
330
5D
100
AcDbEntity
  8
0
100
AcDbBlockBegin
  2
*Paper_Space0
 70
     0
 10
0.0
 20
0.0
 30
0.0
  3
*Paper_Space0
  1

  0
ENDBLK
  5
60
330
5D
100
AcDbEntity
  8
0
100
AcDbBlockEnd
  0
BLOCK
  5
8A
330
89
100
AcDbEntity
  8
0
100
AcDbBlockBegin
  2
_ArchTick
 70
     0
 10
0.0
 20
0.0
 30
0.0
  3
_ArchTick
  1

  0
LWPOLYLINE
  5
8B
330
89
100
AcDbEntity
  8
0
  6
ByBlock
 62
     0
100
AcDbPolyline
 90
        2
 70
     0
 43
0.15
 10
-0.5
 20
-0.5
 10
0.5
 20
0.5
  0
ENDBLK
  5
8C
330
89
100
AcDbEntity
  8
0
100
AcDbBlockEnd
  0
BLOCK
  5
8E
330
8D
100
AcDbEntity
  8
0
100
AcDbBlockBegin
  2
arrow
 70
     0
 10
0.0
 20
0.0
 30
0.0
  3
arrow
  1

  0
HATCH
  5
8F
330
8D
100
AcDbEntity
  8
DIM
 62
   253
100
AcDbHatch
 10
0.0
 20
0.0
 30
0.0
210
0.0
220
0.0
230
1.0
  2
SOLID
 70
     1
 71
     0
 91
        1
 92
        7
 72
     0
 73
     1
 93
        3
 10
-2.0
 20
0.5
 10
-2.0
 20
-0.5
 10
0.0
 20
0.0
 97
        0
 75
     0
 76
     1
 47
0.0337394080685346
 98
        1
 10
-1.103351122172171
 20
0.05064816270351
  0
LWPOLYLINE
  5
90
330
8D
100
AcDbEntity
  8
DIM
370
    15
100
AcDbPolyline
 90
        4
 70
     0
 43
0.0
 10
0.0
 20
0.0
 10
-2.0
 20
-0.5
 10
-2.0
 20
0.5
 10
0.0
 20
0.0
  0
LWPOLYLINE
  5
91
330
8D
100
AcDbEntity
  8
DIM
370
     9
100
AcDbPolyline
 90
        2
 70
     0
 43
0.0
 10
0.3742552490839444
 20
0.0935638122700766
 10
0.0
 20
0.0
  0
LWPOLYLINE
  5
92
330
8D
100
AcDbEntity
  8
DIM
370
     9
100
AcDbPolyline
 90
        3
 70
     0
 43
0.0
 10
-2.0
 20
-0.9831764405007561
 10
-2.0
 20
-0.5
 10
-2.46875
 20
-0.6171875
  0
LWPOLYLINE
  5
93
330
8D
100
AcDbEntity
  8
DIM
370
     9
100
AcDbPolyline
 90
        3
 70
     0
 43
0.0
 10
-2.0
 20
0.9831764405007561
 10
-2.0
 20
0.5
 10
-2.46875
 20
0.6171875
  0
LWPOLYLINE
  5
94
330
8D
100
AcDbEntity
  8
DIM
370
     9
100
AcDbPolyline
 90
        2
 70
     0
 43
0.0
 10
0.3742552490839444
 20
-0.0935638122700766
 10
0.0
 20
0.0
  0
ENDBLK
  5
95
330
8D
100
AcDbEntity
  8
0
100
AcDbBlockEnd
  0
ENDSEC
  0
SECTION
  2
ENTITIES
  0
CIRCLE
  5
DD23
330
1F
100
AcDbEntity
  8
A2 Hatch
 48
0.15
100
AcDbCircle
 10
-209.4976652575235
 20
350.3136914782679
 30
0.0
 40
0.8157720410317779
  0
HATCH
  5
DD24
330
1F
100
AcDbEntity
  8
A2 Hatch
 48
0.15
100
AcDbHatch
 10
0.0
 20
0.0
 30
0.0
210
0.0
220
0.0
230
1.0
  2
SOLID
 70
     1
 71
     0
 91
        1
 92
        1
 93
        1
 72
     2
 10
-209.4976652575235
 20
350.3136914782679
 40
0.2243383222039483
 50
0.0
 51
360.0
 73
     1
 97
        0
 75
     0
 76
     1
 98
        1
 10
-3450.119075467724
 20
701.7578094691068
  0
LINE
  5
DD25
330
1F
100
AcDbEntity
  8
0
 48
0.15
100
AcDbLine
 10
-210.5826720066209
 20
359.1909835126126
 30
0.0
 11
-210.1969994408094
 21
359.650610178484
 31
0.0
  0
LINE
  5
DD26
330
1F
100
AcDbEntity
  8
0
 48
0.15
100
AcDbLine
 10
-209.472661335559
 20
353.1734464422949
 30
0.0
 11
-209.0869887697475
 21
353.6330731081662
 31
0.0
  0
LINE
  5
DD27
330
1F
100
AcDbEntity
  8
0
 48
0.15
100
AcDbLine
 10
-210.5826719099271
 20
359.1909844384332
 30
0.0
 11
-210.1044984548437
 21
359.1491496819143
 31
0.0
  0
LINE
  5
DD28
330
1F
100
AcDbEntity
  8
0
 48
0.15
100
AcDbLine
 10
-208.9945120001169
 20
353.1316123309815
 30
0.0
 11
-209.0870128887684
 21
353.6330737374302
 31
0.0
  0
LINE
  5
DD29
330
1F
100
AcDbEntity
  8
0
 48
0.15
100
AcDbLine
 10
-210.1045226958788
 20
359.1491493814461
 30
0.0
 11
-210.1970235845322
 21
359.6506107878948
 31
0.0
  0
LINE
  5
DD2A
330
1F
100
AcDbEntity
  8
0
 48
0.15
100
AcDbLine
 10
-208.6659989335233
 20
358.9657057326966
 30
0.0
 11
-208.0428909700743
 21
359.6151181331675
 31
0.0
  0
LINE
  5
DD2B
330
1F
100
AcDbEntity
  8
0
 48
0.15
100
AcDbLine
 10
-207.9545605569449
 20
358.85585818489
 30
0.0
 11
-208.0429466293892
 21
359.6156165946298
 31
0.0
  0
LINE
  5
DD2C
330
1F
100
AcDbEntity
  8
0
 48
0.15
100
AcDbLine
 10
-208.66599877054
 20
358.9657066464816
 30
0.0
 11
-207.9545047380845
 21
358.8553606371311
 31
0.0
  0
LINE
  5
DD2D
330
1F
100
AcDbEntity
  8
0
 48
0.15
100
AcDbLine
 10
-211.4701614125108
 20
357.1678414613055
 30
0.0
 11
-211.0999110625792
 21
357.3099672546037
 31
0.0
  0
LINE
  5
DD2E
330
1F
100
AcDbEntity
  8
0
 48
0.15
100
AcDbLine
 10
-213.1757855841763
 20
351.459113362655
 30
0.0
 11
-213.0464337164115
 21
351.5087668925551
 31
0.0
  0
LINE
  5
DD2F
330
1F
100
AcDbEntity
  8
0
 48
0.15
100
AcDbLine
 10
-211.3986250915216
 20
356.9186078425535
 30
0.0
 11
-211.2621203286555
 21
356.8265342174103
 31
0.0
  0
LINE
  5
DD30
330
1F
100
AcDbEntity
  8
0
 48
0.15
100
AcDbLine
 10
-213.1757855841781
 20
351.1233600458627
 30
0.0
 11
-213.0464633873955
 21
351.5087775927134
 31
0.0
  0
LINE
  5
DD31
330
1F
100
AcDbEntity
  8
0
 48
0.15
100
AcDbLine
 10
-211.2621509786761
 20
356.8265446002229
 30
0.0
 11
-211.0999407647898
 21
357.309977949373
 31
0.0
  0
LINE
  5
DD32
330
1F
100
AcDbEntity
  8
0
 48
0.15
100
AcDbLine
 10
-209.7029234908289
 20
360.0416116019699
 30
0.0
 11
-209.7029234908289
 21
360.0416116019699
 31
0.0
  0
LINE
  5
DD33
330
1F
100
AcDbEntity
  8
0
 48
0.15
100
AcDbLine
 10
-209.8002023333677
 20
357.3784607713195
 30
0.0
 11
-209.8002023333677
 21
357.3784607713195
 31
0.0
  0
LINE
  5
DD34
330
1F
100
AcDbEntity
  8
0
 48
0.15
100
AcDbLine
 10
-209.8974811759065
 20
354.7153099406685
 30
0.0
 11
-209.8974811759065
 21
354.7153099406685
 31
0.0
  0
LINE
  5
DD35
330
1F
100
AcDbEntity
  8
0
 48
0.15
100
AcDbLine
 10
-209.9947600184453
 20
352.0521591100185
 30
0.0
 11
-209.9947600184453
 21
352.0521591100185
 31
0.0
  0
LINE
  5
DD36
330
1F
100
AcDbEntity
  8
0
 48
0.15
100
AcDbLine
 10
-205.7899873149011
 20
355.2785946837649
 30
0.0
 11
-205.7899873149011
 21
355.2785946837649
 31
0.0
  0
LINE
  5
DD37
330
1F
100
AcDbEntity
  8
0
 48
0.15
100
AcDbLine
 10
-210.0920388609822
 20
349.3890082793681
 30
0.0
 11
-210.0920388609822
 21
349.3890082793681
 31
0.0
  0
LINE
  5
DD38
330
1F
100
AcDbEntity
  8
0
 48
0.15
100
AcDbLine
 10
-205.887266157438
 20
352.6154438531142
 30
0.0
 11
-205.887266157438
 21
352.6154438531142
 31
0.0
  0
LINE
  5
DD39
330
1F
100
AcDbEntity
  8
0
 48
0.15
100
AcDbLine
 10
-211.5495257469058
 20
359.3445268869232
 30
0.0
 11
-211.5495257469058
 21
359.3445268869232
 31
0.0
  0
LINE
  5
DD3A
330
1F
100
AcDbEntity
  8
0
 48
0.15
100
AcDbLine
 10
-208.5196702505484
 20
359.7434149303477
 30
0.0
 11
-208.5196702505484
 21
359.7434149303477
 31
0.0
  0
LINE
  5
DD3B
330
1F
100
AcDbEntity
  8
0
 48
0.15
100
AcDbLine
 10
-210.6242265500835
 20
356.5881212352891
 30
0.0
 11
-210.6242265500835
 21
356.5881212352891
 31
0.0
  0
LINE
  5
DD3C
330
1F
100
AcDbEntity
  8
0
 48
0.15
100
AcDbLine
 10
-212.7287828496221
 20
353.43282754023
 30
0.0
 11
-212.7287828496221
 21
353.43282754023
 31
0.0
  0
LINE
  5
DD3D
330
1F
100
AcDbEntity
  8
0
 48
0.15
100
AcDbLine
 10
-207.67637983606
 20
354.0979890157833
 30
0.0
 11
-207.67637983606
 21
354.0979890157833
 31
0.0
  0
LINE
  5
DD3E
330
1F
100
AcDbEntity
  8
0
 48
0.15
100
AcDbLine
 10
-209.7809361355969
 20
350.9426953207245
 30
0.0
 11
-209.7809361355969
 21
350.9426953207245
 31
0.0
  0
LINE
  5
DD3F
330
1F
100
AcDbEntity
  8
0
 48
0.15
100
AcDbLine
 10
-207.7782175156237
 20
351.2063582290089
 30
0.0
 11
-207.7782175156237
 21
351.2063582290089
 31
0.0
  0
LINE
  5
DD40
330
1F
100
AcDbEntity
  8
0
 48
0.15
100
AcDbLine
 10
-211.8854924351356
 20
347.7874016256656
 30
0.0
 11
-211.8854924351356
 21
347.7874016256656
 31
0.0
  0
LINE
  5
DD41
330
1F
100
AcDbEntity
  8
0
 48
0.15
100
AcDbLine
 10
-206.8529183188013
 20
348.4499525773748
 30
0.0
 11
-206.8529183188013
 21
348.4499525773748
 31
0.0
  0
LINE
  5
DD42
330
1F
100
AcDbEntity
  8
0
 48
0.15
100
AcDbLine
 10
-211.0620309178769
 20
342.1393651872571
 30
0.0
 11
-211.0620309178769
 21
342.1393651872571
 31
0.0
  0
LINE
  5
DD43
330
1F
100
AcDbEntity
  8
0
 48
0.15
100
AcDbLine
 10
-207.5762692983146
 20
358.147368919872
 30
0.0
 11
-207.5762692983146
 21
358.147368919872
 31
0.0
  0
LINE
  5
DD44
330
1F
100
AcDbEntity
  8
0
 48
0.15
100
AcDbLine
 10
-211.8468487876937
 20
358.3278078937472
 30
0.0
 11
-211.8468487876937
 21
358.3278078937472
 31
0.0
  0
LINE
  5
DD45
330
1F
100
AcDbEntity
  8
0
 48
0.15
100
AcDbLine
 10
-209.1341471057415
 20
354.0594061105101
 30
0.0
 11
-209.1341471057415
 21
354.0594061105101
 31
0.0
  0
LINE
  5
DD46
330
1F
100
AcDbEntity
  8
0
 48
0.15
100
AcDbLine
 10
-207.4473642141159
 20
352.9848068938166
 30
0.0
 11
-207.4473642141159
 21
352.9848068938166
 31
0.0
  0
LINE
  5
DD47
330
1F
100
AcDbEntity
  8
0
 48
0.15
100
AcDbLine
 10
-211.7179437034949
 20
353.1652458676916
 30
0.0
 11
-211.7179437034949
 21
353.1652458676916
 31
0.0
  0
LINE
  5
DD48
330
1F
100
AcDbEntity
  8
0
 48
0.15
100
AcDbLine
 10
-206.4551810816222
 20
349.8124963116075
 30
0.0
 11
-206.4551810816222
 21
349.8124963116075
 31
0.0
  0
LINE
  5
DD49
330
1F
100
AcDbEntity
  8
0
 48
0.15
100
AcDbLine
 10
-210.7257605710013
 20
349.9929352854825
 30
0.0
 11
-210.7257605710013
 21
349.9929352854825
 31
0.0
  0
LINE
  5
DD4A
330
1F
100
AcDbEntity
  8
0
 48
0.15
100
AcDbLine
 10
-208.0130588890508
 20
345.7245335022461
 30
0.0
 11
-208.0130588890508
 21
345.7245335022461
 31
0.0
  0
LINE
  5
DD4B
330
1F
100
AcDbEntity
  8
0
 48
0.15
100
AcDbLine
 10
-211.1625501617393
 20
337.570099867857
 30
0.0
 11
-211.1625501617393
 21
337.570099867857
 31
0.0
  0
LINE
  5
DD4C
330
1F
100
AcDbEntity
  8
0
 48
0.15
100
AcDbLine
 10
-207.1516159398882
 20
360.6556640959114
 30
0.0
 11
-207.1516159398882
 21
360.6556640959114
 31
0.0
  0
LINE
  5
DD4D
330
1F
100
AcDbEntity
  8
0
 48
0.15
100
AcDbLine
 10
-211.8171052946284
 20
359.8548242372531
 30
0.0
 11
-211.8171052946284
 21
359.8548242372531
 31
0.0
  0
LINE
  5
DD4E
330
1F
100
AcDbEntity
  8
0
 48
0.15
100
AcDbLine
 10
-207.4819145541835
 20
355.882353816473
 30
0.0
 11
-207.4819145541835
 21
355.882353816473
 31
0.0
  0
LINE
  5
DD4F
330
1F
100
AcDbEntity
  8
0
 48
0.15
100
AcDbLine
 10
-212.1474039089237
 20
355.0815139578145
 30
0.0
 11
-212.1474039089237
 21
355.0815139578145
 31
0.0
  0
LINE
  5
DD50
330
1F
100
AcDbEntity
  8
0
 48
0.15
100
AcDbLine
 10
-210.2304828332174
 20
353.3249794180138
 30
0.0
 11
-210.2304828332174
 21
353.3249794180138
 31
0.0
  0
LINE
  5
DD51
330
1F
100
AcDbEntity
  8
0
 48
0.15
100
AcDbLine
 10
-207.1752055494755
 20
350.5253335976545
 30
0.0
 11
-207.1752055494755
 21
350.5253335976545
 31
0.0
  0
LINE
  5
DD52
330
1F
100
AcDbEntity
  8
0
 48
0.15
100
AcDbLine
 10
-211.8406949042157
 20
349.7244937389958
 30
0.0
 11
-211.8406949042157
 21
349.7244937389958
 31
0.0
  0
LINE
  5
DD53
330
1F
100
AcDbEntity
  8
0
 48
0.15
100
AcDbLine
 10
-211.8642845138031
 20
339.5941632407387
 30
0.0
 11
-211.8642845138031
 21
339.5941632407387
 31
0.0
  0
LINE
  5
DD54
330
1F
100
AcDbEntity
  8
0
 62
     1
100
AcDbLine
 10
-213.1757855841872
 20
361.4497652134935
 30
0.0
 11
-215.0924522508533
 21
361.4497652134935
 31
0.0
  0
LINE
  5
DD55
330
1F
100
AcDbEntity
  8
0
 62
     1
100
AcDbLine
 10
-205.7660196221871
 20
361.4497652134935
 30
0.0
 11
-203.8493529555192
 21
361.4497652134935
 31
0.0
  0
LINE
  5
DD56
330
1F
100
AcDbEntity
  8
0
  6
HIDDEN
 62
   253
100
AcDbLine
 10
-213.1757855841872
 20
361.4497652134935
 30
0.0
 11
-213.4674522508533
 21
361.4497652134938
 31
0.0
  0
LINE
  5
DD57
330
1F
100
AcDbEntity
  8
0
  6
HIDDEN
 62
   253
100
AcDbLine
 10
-214.8007855841854
 20
361.4497652134935
 30
0.0
 11
-215.0924522508533
 21
361.4497652134935
 31
0.0
  0
LINE
  5
DD58
330
1F
100
AcDbEntity
  8
0
  6
HIDDEN
 62
   253
100
AcDbLine
 10
-213.9674522508533
 20
361.4497652134938
 30
0.0
 11
-214.3007855841872
 21
361.4497652134935
 31
0.0
  0
LINE
  5
DD59
330
1F
100
AcDbEntity
  8
0
  6
HIDDEN
 62
   253
100
AcDbLine
 10
-203.8493529555192
 20
361.4497652134935
 30
0.0
 11
-204.1410196221871
 21
361.4497652134938
 31
0.0
  0
LINE
  5
DD5A
330
1F
100
AcDbEntity
  8
0
  6
HIDDEN
 62
   253
100
AcDbLine
 10
-205.4743529555192
 20
361.4497652134935
 30
0.0
 11
-205.7660196221871
 21
361.4497652134935
 31
0.0
  0
LINE
  5
DD5B
330
1F
100
AcDbEntity
  8
0
  6
HIDDEN
 62
   253
100
AcDbLine
 10
-204.6410196221871
 20
361.4497652134938
 30
0.0
 11
-204.9743529555192
 21
361.4497652134935
 31
0.0
  0
LINE
  5
DD5C
330
1F
100
AcDbEntity
  8
0
 62
     1
100
AcDbLine
 10
-213.1757855841872
 20
361.4497652134935
 30
0.0
 11
-213.4674522508533
 21
361.4497652134938
 31
0.0
  0
LINE
  5
DD5D
330
1F
100
AcDbEntity
  8
0
 62
     1
100
AcDbLine
 10
-214.8007855841854
 20
361.4497652134935
 30
0.0
 11
-215.0924522508533
 21
361.4497652134935
 31
0.0
  0
LINE
  5
DD5E
330
1F
100
AcDbEntity
  8
0
 62
     1
100
AcDbLine
 10
-213.9674522508533
 20
361.4497652134938
 30
0.0
 11
-214.3007855841872
 21
361.4497652134935
 31
0.0
  0
LINE
  5
DD5F
330
1F
100
AcDbEntity
  8
0
 62
     1
100
AcDbLine
 10
-203.8493529555192
 20
361.4497652134935
 30
0.0
 11
-204.1410196221871
 21
361.4497652134938
 31
0.0
  0
LINE
  5
DD60
330
1F
100
AcDbEntity
  8
0
 62
     1
100
AcDbLine
 10
-205.4743529555192
 20
361.4497652134935
 30
0.0
 11
-205.7660196221871
 21
361.4497652134935
 31
0.0
  0
LINE
  5
DD61
330
1F
100
AcDbEntity
  8
0
 62
     1
100
AcDbLine
 10
-204.6410196221871
 20
361.4497652134938
 30
0.0
 11
-204.9743529555192
 21
361.4497652134935
 31
0.0
  0
LINE
  5
DD62
330
1F
100
AcDbEntity
  8
0
 48
0.15
100
AcDbLine
 10
-208.8313255553615
 20
360.0727949975049
 30
0.0
 11
-208.2711772994637
 21
360.2878157672322
 31
0.0
  0
LINE
  5
DD63
330
1F
100
AcDbEntity
  8
0
 48
0.15
100
AcDbLine
 10
-210.0920388609822
 20
361.3890082793681
 30
0.0
 11
-210.0920388609822
 21
361.3890082793681
 31
0.0
  0
LINE
  5
DD64
330
1F
100
AcDbEntity
  8
0
 48
0.15
100
AcDbLine
 10
-209.8827738151606
 20
360.0510645339503
 30
0.0
 11
-209.8827738151606
 21
360.0510645339503
 31
0.0
  0
LINE
  5
DD65
330
1F
100
AcDbEntity
  8
0
 48
0.15
100
AcDbLine
 10
-206.8529183188013
 20
360.4499525773747
 30
0.0
 11
-206.8529183188013
 21
360.4499525773747
 31
0.0
  0
MTEXT
  5
DD66
330
1F
100
AcDbEntity
  8
DIM
100
AcDbMText
 10
-207.6706591557188
 20
313.0223374842277
 30
0.0
 40
3.0
 41
90.07999999999999
 71
     2
 72
     5
  1
{\L8" INTERIOR LOAD BEARING WALL W/ CONCRETE SLAB OVER\P}\P            
  7
RomanC
 73
     1
 44
1.0
1001
ACAD
1000
MTEXTBEGIN
1070
    73
1070
     1
1070
    44
1040
1.0
1070
    74
1070
     0
1000
MTEXTEND
  0
LINE
  5
DD67
330
1F
100
AcDbEntity
  8
GRADE
 48
0.15
100
AcDbLine
 10
-251.0924522508533
 20
361.4497652134938
 30
0.0
 11
-169.1896852748825
 21
361.4497652134935
 31
0.0
  0
LINE
  5
DD68
330
1F
100
AcDbEntity
  8
GRADE
 48
0.15
100
AcDbLine
 10
-255.0403954183814
 20
353.449765213494
 30
0.0
 11
-173.1376284424107
 21
353.4497652134935
 31
0.0
  0
LINE
  5
DD69
330
1F
100
AcDbEntity
  8
DIM
100
AcDbLine
 10
-167.7707788636373
 20
357.739289127989
 30
0.0
 11
-174.2707788636373
 21
357.739289127989
 31
0.0
  0
LINE
  5
DD6A
330
1F
100
AcDbEntity
  8
DIM
100
AcDbLine
 10
-174.2707788636373
 20
357.739289127989
 30
0.0
 11
-171.6572622540654
 21
356.4495372477418
 31
0.0
  0
LINE
  5
DD6B
330
1F
100
AcDbEntity
  8
DIM
100
AcDbLine
 10
-171.6572622540654
 20
356.4495372477418
 30
0.0
 11
-175.0516158992025
 21
349.5713153461577
 31
0.0
  0
LINE
  5
DD6C
330
1F
100
AcDbEntity
  8
REBAR
 48
0.15
100
AcDbLine
 10
-251.5859451467943
 20
360.4497652134936
 30
0.0
 11
-169.6831781708235
 21
360.4497652134936
 31
0.0
  0
LINE
  5
DD6D
330
1F
100
AcDbEntity
  8
REBAR
 48
0.15
100
AcDbLine
 10
-213.1757855841872
 20
354.4497652134938
 30
0.0
 11
-172.6441355464696
 21
354.4497652134938
 31
0.0
  0
LINE
  5
DD6E
330
1F
100
AcDbEntity
  8
REBAR
 48
0.15
100
AcDbLine
 10
-207.4404051010617
 20
355.9497652134936
 30
0.0
 11
-189.5355970764042
 21
355.9497652134936
 31
0.0
  0
LINE
  5
DD6F
330
1F
100
AcDbEntity
  8
REBAR
 48
0.15
100
AcDbLine
 10
-210.4404051010599
 20
334.9497652134936
 30
0.0
 11
-210.4404051010618
 21
352.9497652134935
 31
0.0
  0
ARC
  5
DD70
330
1F
100
AcDbEntity
  8
REBAR
 48
0.15
100
AcDbCircle
 10
-207.4404051010617
 20
352.9497652134935
 30
0.0
 40
3.0
100
AcDbArc
 50
90.0
 51
180.0
  0
HATCH
  5
DD71
330
1F
100
AcDbEntity
  8
0
 48
0.15
100
AcDbHatch
 10
0.0
 20
0.0
 30
0.0
210
0.0
220
0.0
230
1.0
  2
AR-CONC
 70
     0
 71
     0
 91
        1
 92
        1
 93
        8
 72
     1
 10
-206.7660196221871
 20
353.4497652134938
 11
-173.1376284424107
 21
353.4497652134935
 72
     1
 10
-173.1376284424107
 20
353.4497652134935
 11
-171.6572622540673
 21
356.449537247742
 72
     1
 10
-171.6572622540654
 20
356.4495372477418
 11
-174.2707788636373
 21
357.739289127989
 72
     1
 10
-174.2707788636373
 20
357.739289127989
 11
-167.7707788636373
 21
357.739289127989
 72
     1
 10
-167.7707788636373
 20
357.739289127989
 11
-170.3842954732092
 21
359.029041008236
 72
     1
 10
-170.3842954732092
 20
359.0290410082362
 11
-169.1896852748825
 21
361.4497652134935
 72
     1
 10
-169.1896852748825
 20
361.4497652134935
 11
-206.7660196221871
 21
361.4497652134935
 72
     1
 10
-206.7660196221871
 20
361.4497652134938
 11
-206.7660196221871
 21
353.4497652134938
 97
        0
 75
     0
 76
     1
 52
0.0
 41
0.8
 77
     0
 78
    13
 53
50.0
 43
-3396.192024810863
 44
1053.377772641193
 45
5.738081460806028
 46
-0.502017079860761
 79
     2
 49
0.6000000000000001
 49
-6.6
 53
355.0
 43
-3396.192024810863
 44
1053.377772641193
 45
-1.110010668904
 46
6.017537069600095
 79
     2
 49
0.48
 49
-5.28
 53
100.451445
 43
-3395.713851370862
 44
1053.335937921193
 45
4.628070721834346
 46
5.515519971367574
 79
     2
 49
0.5099215199999991
 49
-5.609136895999991
 53
46.1842
 43
-3396.192024810863
 44
1054.977772641193
 45
8.537928389005156
 46
-1.324152114632144
 79
     2
 49
0.9
 49
-9.9
 53
96.63564499999996
 43
-3395.480530850863
 44
1054.867426185193
 45
7.477295523824224
 46
7.792948839860111
 79
     2
 49
0.7648823039999994
 49
-8.41370399999999
 53
351.1842000000001
 43
-3396.192024810863
 44
1054.977772641193
 45
7.477295561069017
 46
7.792948807402597
 79
     2
 49
0.7200000000000001
 49
-7.92
 53
21.0
 43
-3395.392024810862
 44
1054.577772641193
 45
4.775256416947693
 46
-3.22095112532271
 79
     2
 49
0.6000000000000001
 49
-6.6
 53
326.0
 43
-3395.392024810862
 44
1054.577772641193
 45
1.946522655372653
 46
5.801200360374824
 79
     2
 49
0.48
 49
-5.28
 53
71.45144499999999
 43
-3394.994086946862
 44
1054.309359793193
 45
6.721779002130969
 46
2.580249252953295
 79
     2
 49
0.5099215200000002
 49
-5.609136895999999
 53
37.5
 43
-3396.192024810863
 44
1053.377772641193
 45
0.0972788425383254
 46
2.663150830650492
 79
     6
 49
0.0
 49
-5.216
 49
0.0
 49
-5.36
 49
0.0
 49
-5.3
 53
7.499999999999999
 43
-3396.192024810863
 44
1053.377772641193
 45
2.104556299537188
 46
3.155293695058881
 79
     6
 49
0.0
 49
-3.056
 49
0.0
 49
-5.096
 49
0.0
 49
-2.02
 53
327.5
 43
-3397.976024810863
 44
1053.377772641193
 45
4.270579489379272
 46
-0.1804389738750384
 79
     6
 49
0.0
 49
-2.0
 49
0.0
 49
-6.24
 49
0.0
 49
-8.279999999999999
 53
317.5
 43
-3398.776024810863
 44
1053.377772641193
 45
4.665489354739089
 46
0.8008398586585411
 79
     6
 49
0.0
 49
-2.6
 49
0.0
 49
-4.144
 49
0.0
 49
-5.879999999999999
 98
        1
 10
-3396.192024810863
 20
1053.377772641193
  0
LINE
  5
DD72
330
1F
100
AcDbEntity
  8
REBAR
 48
0.15
100
AcDbLine
 10
-211.6640846091879
 20
358.9497652134935
 30
0.0
 11
-229.6224941549292
 21
358.9497652134935
 31
0.0
  0
LINE
  5
DD73
330
1F
100
AcDbEntity
  8
REBAR
 48
0.15
100
AcDbLine
 10
-208.664084609188
 20
337.9751367037757
 30
0.0
 11
-208.664084609188
 21
355.9497652134936
 31
0.0
  0
ARC
  5
DD74
330
1F
100
AcDbEntity
  8
REBAR
 48
0.15
100
AcDbCircle
 10
-211.6640846091879
 20
355.9497652134936
 30
0.0
 40
3.0
100
AcDbArc
 50
0.0
 51
90.0
  0
HATCH
  5
DD75
330
1F
100
AcDbEntity
  8
0
 48
0.15
100
AcDbHatch
 10
0.0
 20
0.0
 30
0.0
210
0.0
220
0.0
230
1.0
  2
AR-CONC
 70
     0
 71
     0
 91
        1
 92
        1
 93
        8
 72
     1
 10
-212.1757855841854
 20
361.4497652134938
 11
-245.8041767639618
 21
361.449765213494
 72
     1
 10
-245.8041767639618
 20
361.4497652134938
 11
-247.2845429523052
 21
358.4499931792453
 72
     1
 10
-247.284542952307
 20
358.4499931792455
 11
-244.6710263427351
 21
357.1602412989983
 72
     1
 10
-244.6710263427351
 20
357.1602412989983
 11
-251.1710263427351
 21
357.1602412989983
 72
     1
 10
-251.1710263427351
 20
357.1602412989983
 11
-248.5575097331632
 21
355.8704894187511
 72
     1
 10
-248.5575097331632
 20
355.8704894187513
 11
-249.7521199314899
 21
353.449765213494
 72
     1
 10
-249.7521199314899
 20
353.4497652134938
 11
-212.1757855841854
 21
353.4497652134935
 72
     1
 10
-212.1757855841854
 20
353.4497652134938
 11
-212.1757855841854
 21
361.4497652134938
 97
        0
 75
     0
 76
     1
 52
180.0
 41
0.8
 77
     0
 78
    13
 53
230.0
 43
2977.250219604491
 44
-338.4782422142063
 45
-5.738081460806028
 46
0.5020170798607616
 79
     2
 49
0.6000000000000001
 49
-6.6
 53
175.0
 43
2977.250219604491
 44
-338.4782422142063
 45
1.110010668903999
 46
-6.017537069600095
 79
     2
 49
0.48
 49
-5.28
 53
280.4514449999999
 43
2976.772046164493
 44
-338.4364074942066
 45
-4.628070721834347
 46
-5.515519971367573
 79
     2
 49
0.5099215199999998
 49
-5.609136895999997
 53
226.1842
 43
2977.250219604491
 44
-340.0782422142062
 45
-8.537928389005156
 46
1.324152114632145
 79
     2
 49
0.9
 49
-9.9
 53
276.6356449999999
 43
2976.538725644491
 44
-339.9678957582066
 45
-7.477295523824225
 46
-7.79294883986011
 79
     2
 49
0.764882303999999
 49
-8.413703999999983
 53
171.1842
 43
2977.250219604491
 44
-340.0782422142062
 45
-7.477295561069018
 46
-7.792948807402596
 79
     2
 49
0.7200000000000001
 49
-7.92
 53
201.0
 43
2976.450219604492
 44
-339.6782422142066
 45
-4.775256416947693
 46
3.220951125322711
 79
     2
 49
0.6
 49
-6.599999999999999
 53
146.0
 43
2976.450219604492
 44
-339.6782422142066
 45
-1.946522655372654
 46
-5.801200360374824
 79
     2
 49
0.4799999999999999
 49
-5.279999999999999
 53
251.451445
 43
2976.052281740492
 44
-339.4098293662066
 45
-6.721779002130969
 46
-2.580249252953294
 79
     2
 49
0.5099215199999991
 49
-5.609136895999991
 53
217.5
 43
2977.250219604491
 44
-338.4782422142063
 45
-0.0972788425383257
 46
-2.663150830650492
 79
     6
 49
0.0
 49
-5.216
 49
0.0
 49
-5.36
 49
0.0
 49
-5.3
 53
187.5
 43
2977.250219604491
 44
-338.4782422142063
 45
-2.104556299537189
 46
-3.155293695058881
 79
     6
 49
0.0
 49
-3.055999999999999
 49
0.0
 49
-5.095999999999999
 49
0.0
 49
-2.019999999999999
 53
147.4999999999999
 43
2979.034219604491
 44
-338.4782422142063
 45
-4.270579489379272
 46
0.1804389738750389
 79
     6
 49
0.0
 49
-2.0
 49
0.0
 49
-6.24
 49
0.0
 49
-8.279999999999999
 53
137.5
 43
2979.834219604489
 44
-338.4782422142063
 45
-4.665489354739089
 46
-0.8008398586585405
 79
     6
 49
0.0
 49
-2.6
 49
0.0
 49
-4.144
 49
0.0
 49
-5.879999999999999
 98
        1
 10
2977.250219604491
 20
-338.4782422142063
  0
LINE
  5
DD76
330
1F
100
AcDbEntity
  8
REBAR
 48
0.15
100
AcDbLine
 10
-254.0534096264994
 20
355.4497652134938
 30
0.0
 11
-205.7660196221871
 21
355.4497652134938
 31
0.0
  0
MTEXT
  5
DD77
330
1F
100
AcDbEntity
  8
DIM
 62
     3
100
AcDbMText
 10
-174.006230047343
 20
369.254170540831
 30
0.0
 40
1.0
 41
22.68954545454545
 71
     1
 72
     5
  1
CONCRETE FLOOR SLAB
  7
RomanC
 73
     1
 44
1.0
1001
ACAD
1000
MTEXTBEGIN
1070
    73
1070
     1
1070
    44
1040
1.0
1070
    74
1070
     0
1000
MTEXTEND
  0
LEADER
  5
DD78
330
1F
100
AcDbEntity
  8
DIM
100
AcDbLeader
  3
ARCTEXT1-4
 76
     3
 10
-181.7177994896221
 20
361.4497652134935
 30
0.0
 10
-181.7253140935747
 20
368.7058327970049
 30
0.0
 10
-174.6278390756845
 20
368.7058327970049
 30
0.0
1001
ACAD
1000
DSTYLE
1002
{
1070
    41
1040
0.5
1070
    77
1070
     0
1002
}
  0
LEADER
  5
DD79
330
1F
100
AcDbEntity
  8
DIM
100
AcDbLeader
  3
ARCTEXT1-4
 76
     3
 10
-214.4955166137745
 20
338.0382838312328
 30
0.0
 10
-228.6282756599278
 20
338.0390029386268
 30
0.0
 10
-229.0683717039203
 20
338.0390029386268
 30
0.0
211
-1.0
221
0.0
231
0.0
1001
ACAD
1000
DSTYLE
1002
{
1070
    41
1040
0.5
1070
    77
1070
     0
1002
}
  0
MTEXT
  5
DD7A
330
1F
100
AcDbEntity
  8
DIM
 62
     3
100
AcDbMText
 10
-237.4978193226882
 20
348.6760141784733
 30
0.0
 40
1.0
 41
22.68954545454545
 71
     1
 72
     5
  1
HORIZ REINF 
  7
RomanC
 73
     1
 44
1.0
1001
ACAD
1000
MTEXTBEGIN
1070
    73
1070
     1
1070
    44
1040
1.0
1070
    74
1070
     0
1000
MTEXTEND
  0
LEADER
  5
DD7B
330
1F
100
AcDbEntity
  8
DIM
100
AcDbLeader
  3
ARCTEXT1-4
 76
     3
 10
-210.3134372985562
 20
350.3136914782679
 30
0.0
 10
-225.6618057907028
 20
348.1972729176992
 30
0.0
 10
-228.6072367771078
 20
348.1972729176992
 30
0.0
211
-1.0
221
0.0
231
0.0
1001
ACAD
1000
DSTYLE
1002
{
1070
    41
1040
0.5
1070
    77
1070
     0
1002
}
  0
MTEXT
  5
DD7C
330
1F
100
AcDbEntity
  8
DIM
 62
     3
100
AcDbMText
 10
-174.2263362871883
 20
375.3328708660527
 30
0.0
 40
1.0
 41
22.68954545454545
 71
     1
 72
     5
  1
BENT REINF IN VERT CORES
  7
RomanC
 73
     1
 44
1.0
1001
ACAD
1000
MTEXTBEGIN
1070
    73
1070
     1
1070
    44
1040
1.0
1070
    74
1070
     0
1000
MTEXTEND
  0
LEADER
  5
DD7D
330
1F
100
AcDbEntity
  8
DIM
100
AcDbLeader
  3
ARCTEXT1-4
 76
     3
 10
-200.835692809603
 20
355.9497652134936
 30
0.0
 10
-181.9454203334201
 20
374.7727780461397
 30
0.0
 10
-174.8479453155298
 20
374.7727780461397
 30
0.0
1001
ACAD
1000
DSTYLE
1002
{
1070
    41
1040
0.5
1070
    77
1070
     0
1002
}
  0
LEADER
  5
DD7E
330
1F
100
AcDbEntity
  8
DIM
100
AcDbLeader
  3
ARCTEXT1-4
 76
     3
 10
-212.0543890282199
 20
359.3586861636812
 30
0.0
 10
-187.702675957192
 20
374.7727780461397
 30
0.0
 10
-174.8479453155298
 20
374.7727780461397
 30
0.0
1001
ACAD
1000
DSTYLE
1002
{
1070
    41
1040
0.5
1070
    77
1070
     0
1002
}
  0
LINE
  5
DD7F
330
1F
100
AcDbEntity
  8
DIM
100
AcDbLine
 10
-249.6735458396081
 20
357.7392891279893
 30
0.0
 11
-256.1735458396081
 21
357.7392891279893
 31
0.0
  0
LINE
  5
DD80
330
1F
100
AcDbEntity
  8
DIM
100
AcDbLine
 10
-256.1735458396081
 20
357.7392891279893
 30
0.0
 11
-253.5600292300362
 21
356.449537247742
 31
0.0
  0
LINE
  5
DD81
330
1F
100
AcDbEntity
  8
DIM
100
AcDbLine
 10
-253.5600292300362
 20
356.449537247742
 30
0.0
 11
-256.9543828751732
 21
349.571315346158
 31
0.0
  0
LINE
  5
DD82
330
1F
100
AcDbEntity
  8
DIM
100
AcDbLine
 10
-248.5650036441723
 20
366.5713153461666
 30
0.0
 11
-252.28706244918
 21
359.0290410082362
 31
0.0
  0
LINE
  5
DD83
330
1F
100
AcDbEntity
  8
DIM
100
AcDbLine
 10
-249.6735458396081
 20
357.7392891279893
 30
0.0
 11
-252.28706244918
 21
359.0290410082364
 31
0.0
  0
LINE
  5
DD84
330
1F
100
AcDbEntity
  8
DIM
100
AcDbLine
 10
-166.6622366682015
 20
366.5713153461664
 30
0.0
 11
-170.3842954732092
 21
359.029041008236
 31
0.0
  0
LINE
  5
DD85
330
1F
100
AcDbEntity
  8
DIM
100
AcDbLine
 10
-167.7707788636373
 20
357.739289127989
 30
0.0
 11
-170.3842954732092
 21
359.0290410082362
 31
0.0
  0
MTEXT
  5
DD86
330
1F
100
AcDbEntity
  8
DIM
 62
     3
100
AcDbMText
 10
-240.8956432841835
 20
338.5431020827562
 30
0.0
 40
1.0
 41
22.68954545454545
 71
     1
 72
     5
  1
GREENBLOCK ICF 
  7
RomanC
 73
     1
 44
1.0
1001
ACAD
1000
MTEXTBEGIN
1070
    73
1070
     1
1070
    44
1040
1.0
1070
    74
1070
     0
1000
MTEXTEND
  0
LINE
  5
DD87
330
1F
100
AcDbEntity
  8
0
 62
     1
100
AcDbLine
 10
-214.4955166137745
 20
353.449765213494
 30
0.0
 11
-214.4955166137745
 21
341.449765213494
 31
0.0
  0
LINE
  5
DD88
330
1F
100
AcDbEntity
  8
0
 62
     1
100
AcDbLine
 10
-204.4998139012725
 20
353.449765213494
 30
0.0
 11
-204.4998139012725
 21
341.449765213494
 31
0.0
  0
LINE
  5
DD89
330
1F
100
AcDbEntity
  8
0
 62
     1
100
AcDbLine
 10
-214.4955166137745
 20
353.449765213494
 30
0.0
 11
-212.6955166137752
 21
353.4497652134938
 31
0.0
  0
LINE
  5
DD8A
330
1F
100
AcDbEntity
  8
0
 62
     1
100
AcDbLine
 10
-214.4955166137745
 20
341.449765213494
 30
0.0
 11
-212.4955166137745
 21
341.449765213494
 31
0.0
  0
LINE
  5
DD8B
330
1F
100
AcDbEntity
  8
0
 62
     1
100
AcDbLine
 10
-212.4955166137763
 20
353.449765213494
 30
0.0
 11
-212.4955166137745
 21
341.449765213494
 31
0.0
  0
LINE
  5
DD8C
330
1F
100
AcDbEntity
  8
0
 62
     1
100
AcDbLine
 10
-206.4998139012744
 20
353.449765213494
 30
0.0
 11
-206.4998139012725
 21
341.449765213494
 31
0.0
  0
LINE
  5
DD8D
330
1F
100
AcDbEntity
  8
0
 62
     1
100
AcDbLine
 10
-214.1455166137741
 20
353.449765213494
 30
0.0
 11
-214.1455166137741
 21
341.449765213494
 31
0.0
  0
LINE
  5
DD8E
330
1F
100
AcDbEntity
  8
0
 62
     1
100
AcDbLine
 10
-212.6955166137752
 20
353.449765213494
 30
0.0
 11
-212.6955166137752
 21
341.449765213494
 31
0.0
  0
LINE
  5
DD8F
330
1F
100
AcDbEntity
  8
0
 62
     1
100
AcDbLine
 10
-206.2998139012736
 20
353.449765213494
 30
0.0
 11
-206.2998139012736
 21
341.449765213494
 31
0.0
  0
LINE
  5
DD90
330
1F
100
AcDbEntity
  8
0
 62
     1
100
AcDbLine
 10
-206.2998139012736
 20
353.4497652134938
 30
0.0
 11
-204.4998139012725
 21
353.449765213494
 31
0.0
  0
LINE
  5
DD91
330
1F
100
AcDbEntity
  8
0
 62
     1
100
AcDbLine
 10
-212.6955166137752
 20
353.449765213494
 30
0.0
 11
-212.4955166137763
 21
353.449765213494
 31
0.0
  0
LINE
  5
DD92
330
1F
100
AcDbEntity
  8
0
 62
     1
100
AcDbLine
 10
-206.0848139012735
 20
353.449765213494
 30
0.0
 11
-206.0848139012735
 21
341.449765213494
 31
0.0
  0
LINE
  5
DD93
330
1F
100
AcDbEntity
  8
0
 62
     1
100
AcDbLine
 10
-205.2648139012738
 20
353.449765213494
 30
0.0
 11
-205.2648139012738
 21
341.449765213494
 31
0.0
  0
LINE
  5
DD94
330
1F
100
AcDbEntity
  8
A2 Hatch
  6
DASHED2
 48
0.15
100
AcDbLine
 10
-205.9248139012737
 20
353.449765213494
 30
0.0
 11
-205.9248139012737
 21
341.449765213494
 31
0.0
  0
LINE
  5
DD95
330
1F
100
AcDbEntity
  8
A2 Hatch
  6
DASHED2
 48
0.15
100
AcDbLine
 10
-205.4248139012736
 20
353.449765213494
 30
0.0
 11
-205.4248139012736
 21
341.449765213494
 31
0.0
  0
LINE
  5
DD96
330
1F
100
AcDbEntity
  8
0
 48
0.15
100
AcDbLine
 10
-213.5205166137741
 20
353.449765213494
 30
0.0
 11
-213.1205166137745
 21
353.449765213494
 31
0.0
  0
LINE
  5
DD97
330
1F
100
AcDbEntity
  8
A2 Hatch
  6
DASHED2
 48
0.15
100
AcDbLine
 10
-213.7305166137751
 20
353.449765213494
 30
0.0
 11
-213.7305166137751
 21
341.449765213494
 31
0.0
  0
LINE
  5
DD98
330
1F
100
AcDbEntity
  8
A2 Hatch
  6
DASHED2
 48
0.15
100
AcDbLine
 10
-212.9105166137754
 20
353.449765213494
 30
0.0
 11
-212.9105166137736
 21
341.449765213494
 31
0.0
  0
LINE
  5
DD99
330
1F
100
AcDbEntity
  8
0
 62
     1
100
AcDbLine
 10
-213.5705166137752
 20
353.449765213494
 30
0.0
 11
-213.5705166137734
 21
341.449765213494
 31
0.0
  0
LINE
  5
DD9A
330
1F
100
AcDbEntity
  8
0
 62
     1
100
AcDbLine
 10
-213.0705166137752
 20
353.449765213494
 30
0.0
 11
-213.0705166137734
 21
341.449765213494
 31
0.0
  0
LINE
  5
DD9B
330
1F
100
AcDbEntity
  8
0
 62
     1
100
AcDbLine
 10
-213.0705166137734
 20
353.449765213494
 30
0.0
 11
-213.5705166137752
 21
353.449765213494
 31
0.0
  0
LINE
  5
DD9C
330
1F
100
AcDbEntity
  8
0
 62
     1
100
AcDbLine
 10
-206.4998139012744
 20
353.449765213494
 30
0.0
 11
-206.2998139012736
 21
353.449765213494
 31
0.0
  0
LINE
  5
DD9D
330
1F
100
AcDbEntity
  8
0
 62
     1
100
AcDbLine
 10
-206.4998139012725
 20
341.449765213494
 30
0.0
 11
-204.4998139012725
 21
341.449765213494
 31
0.0
  0
LINE
  5
DD9E
330
1F
100
AcDbEntity
  8
0
 62
     1
100
AcDbLine
 10
-212.4955166137745
 20
341.949765213494
 30
0.0
 11
-212.4955166137745
 21
341.449765213494
 31
0.0
  0
LINE
  5
DD9F
330
1F
100
AcDbEntity
  8
0
  6
HIDDEN
 62
     1
 48
0.02
100
AcDbLine
 10
-214.1455166137741
 20
341.949765213494
 30
0.0
 11
-213.5205166137741
 21
341.949765213494
 31
0.0
  0
LINE
  5
DDA0
330
1F
100
AcDbEntity
  8
0
  6
HIDDEN
 62
     1
 48
0.02
100
AcDbLine
 10
-214.1455166137741
 20
341.949765213494
 30
0.0
 11
-214.1455166137741
 21
341.449765213494
 31
0.0
  0
LINE
  5
DDA1
330
1F
100
AcDbEntity
  8
0
  6
HIDDEN
 62
     1
 48
0.02
100
AcDbLine
 10
-213.1205166137745
 20
341.949765213494
 30
0.0
 11
-213.1205166137763
 21
341.449765213494
 31
0.0
  0
LINE
  5
DDA2
330
1F
100
AcDbEntity
  8
0
  6
HIDDEN
 62
     1
 48
0.02
100
AcDbLine
 10
-213.5205166137741
 20
341.949765213494
 30
0.0
 11
-213.5205166137741
 21
341.449765213494
 31
0.0
  0
LINE
  5
DDA3
330
1F
100
AcDbEntity
  8
0
  6
HIDDEN
 62
     1
 48
0.02
100
AcDbLine
 10
-213.1205166137763
 20
341.949765213494
 30
0.0
 11
-212.4955166137763
 21
341.949765213494
 31
0.0
  0
LINE
  5
DDA4
330
1F
100
AcDbEntity
  8
0
 62
     1
100
AcDbLine
 10
-206.4998139012725
 20
341.949765213494
 30
0.0
 11
-206.4998139012707
 21
341.449765213494
 31
0.0
  0
LINE
  5
DDA5
330
1F
100
AcDbEntity
  8
0
  6
HIDDEN
 62
     1
 48
0.02
100
AcDbLine
 10
-204.8498139012711
 20
341.949765213494
 30
0.0
 11
-204.8498139012711
 21
341.449765213494
 31
0.0
  0
LINE
  5
DDA6
330
1F
100
AcDbEntity
  8
0
  6
HIDDEN
 62
     1
 48
0.02
100
AcDbLine
 10
-205.8748139012725
 20
341.949765213494
 30
0.0
 11
-205.8748139012725
 21
341.449765213494
 31
0.0
  0
LINE
  5
DDA7
330
1F
100
AcDbEntity
  8
0
  6
HIDDEN
 62
     1
 48
0.02
100
AcDbLine
 10
-205.4748139012711
 20
341.949765213494
 30
0.0
 11
-205.4748139012711
 21
341.449765213494
 31
0.0
  0
LINE
  5
DDA8
330
1F
100
AcDbEntity
  8
0
  6
HIDDEN
 62
     1
 48
0.02
100
AcDbLine
 10
-206.4998139012707
 20
341.949765213494
 30
0.0
 11
-205.8748139012707
 21
341.949765213494
 31
0.0
  0
LINE
  5
DDA9
330
1F
100
AcDbEntity
  8
0
  6
HIDDEN
 62
     1
 48
0.02
100
AcDbLine
 10
-205.4748139012711
 20
341.949765213494
 30
0.0
 11
-204.8498139012711
 21
341.949765213494
 31
0.0
  0
LINE
  5
DDAA
330
1F
100
AcDbEntity
  8
0
  6
HIDDEN
 62
     1
 48
0.02
100
AcDbLine
 10
-206.2998139012718
 20
341.699765213494
 30
0.0
 11
-206.29981390127
 21
341.449765213494
 31
0.0
  0
LINE
  5
DDAB
330
1F
100
AcDbEntity
  8
0
  6
HIDDEN
 62
     1
 48
0.02
100
AcDbLine
 10
-206.0498139012718
 20
341.699765213494
 30
0.0
 11
-206.0498139012718
 21
341.449765213494
 31
0.0
  0
LINE
  5
DDAC
330
1F
100
AcDbEntity
  8
0
  6
HIDDEN
 62
     1
 48
0.02
100
AcDbLine
 10
-206.2998139012718
 20
341.699765213494
 30
0.0
 11
-206.0498139012718
 21
341.699765213494
 31
0.0
  0
LWPOLYLINE
  5
DDAD
330
1F
100
AcDbEntity
  8
DETAILS
 62
     6
370
    20
100
AcDbPolyline
 90
        2
 70
     1
 43
0.0
 10
-209.2364801857486
 20
345.3747652134937
 10
-209.2501071597173
 20
345.3747652134937
  0
LWPOLYLINE
  5
DDAE
330
1F
100
AcDbEntity
  8
DETAILS
 62
     6
370
    20
100
AcDbPolyline
 90
        6
 70
     0
 43
0.0
 10
-206.4976652575235
 20
345.2252388444866
 10
-206.775224635124
 20
345.502798222083
 42
0.1989123673782988
 10
-206.8282576437116
 20
345.5247652134938
 10
-209.4976652575235
 20
345.5247652134938
 42
-0.2793220653060733
 10
-209.2833473365456
 20
345.394906047485
 42
0.279322065306064
 10
-209.2501071597173
 20
345.3747652134937
  0
LWPOLYLINE
  5
DDAF
330
1F
100
AcDbEntity
  8
DETAILS
 62
     6
370
    20
100
AcDbPolyline
 90
        2
 70
     1
 43
0.0
 10
-209.1614801857497
 20
345.3747652134937
 10
-208.1114801857486
 20
345.3747652134937
  0
LWPOLYLINE
  5
DDB0
330
1F
100
AcDbEntity
  8
DETAILS
 62
     6
370
    20
100
AcDbPolyline
 90
        6
 70
     0
 43
0.0
 10
-209.1614801857497
 20
345.5247652134938
 10
-209.1614801857497
 20
344.9022652134939
 42
0.4142135623730951
 10
-209.0114801857483
 20
344.7522652134938
 10
-208.3797066155032
 20
344.7522652134938
 42
0.3464949689054693
 10
-208.2338855601185
 20
344.8671052958869
 10
-208.0753126540651
 20
345.5247652134938
  0
LWPOLYLINE
  5
DDB1
330
1F
100
AcDbEntity
  8
DETAILS
 62
     6
370
    20
100
AcDbPolyline
 90
        6
 70
     0
 43
0.0
 10
-209.2364801857505
 20
345.5247652134938
 10
-209.2364801857486
 20
344.9022652134939
 42
0.4142135623730951
 10
-209.0114801857483
 20
344.6772652134939
 10
-208.3797066155032
 20
344.6772652134939
 42
0.3464949689054693
 10
-208.1609750324235
 20
344.8495253370837
 10
-207.9981633015916
 20
345.5247652134938
  0
LWPOLYLINE
  5
DDB2
330
1F
100
AcDbEntity
  8
DETAILS
 62
     6
370
    20
100
AcDbPolyline
 90
        2
 70
     1
 43
0.0
 10
-208.034330833277
 20
345.3747652134937
 10
-208.0207038593064
 20
345.3747652134937
  0
LWPOLYLINE
  5
DDB3
330
1F
100
AcDbEntity
  8
DETAILS
 62
     6
370
    20
100
AcDbPolyline
 90
        6
 70
     0
 43
0.0
 10
-208.0207038593064
 20
345.3747652134937
 42
0.279322065306064
 10
-207.9874636817597
 20
345.3949060471089
 42
-0.6059183769079624
 10
-207.5588278405223
 20
345.394906047485
 42
0.2793220653054726
 10
-207.5255876636977
 20
345.3747652134937
 10
-207.4557106897257
 20
345.3747652134937
 10
-207.5255876636977
 20
345.3747652134937
  0
LWPOLYLINE
  5
DDB4
330
1F
100
AcDbEntity
  8
DETAILS
 62
     6
370
    20
100
AcDbPolyline
 90
        7
 70
     0
 43
0.0
 10
-207.1346916265349
 20
345.5247652134938
 10
-207.0596916265342
 20
345.5247652134938
 10
-206.8721916265342
 20
345.5247652134938
 10
-207.3192489998248
 20
345.5247652134938
 10
-207.462138254193
 20
344.9321511434594
 42
0.4853378929632635
 10
-207.3381903571146
 20
344.7747652134938
 10
-206.4976652575235
 20
344.7747652134938
  0
LWPOLYLINE
  5
DDB5
330
1F
100
AcDbEntity
  8
DETAILS
 62
     6
370
    20
100
AcDbPolyline
 90
        4
 70
     0
 43
0.0
 10
-207.4195431580404
 20
345.5247652134938
 10
-207.5569219401943
 20
344.9550050899041
 42
0.4853378929632635
 10
-207.3381903571146
 20
344.6772652134939
 10
-206.4976652575235
 20
344.6772652134939
  0
LWPOLYLINE
  5
DDB6
330
1F
100
AcDbEntity
  8
DETAILS
 62
     6
370
    20
100
AcDbPolyline
 90
       10
 70
     1
 43
0.0
 10
-209.4976652575235
 20
345.5622652134938
 10
-207.1346916265349
 20
345.5622652134938
 10
-207.0613959213799
 20
345.5788323928685
 42
0.7807764064044151
 10
-207.0613959213799
 20
345.5831980341191
 10
-207.1346916265349
 20
345.5997652134936
 10
-209.4976652575235
 20
345.5997652134936
 10
-211.8606388885121
 20
345.5997652134936
 10
-211.933934593669
 20
345.5831980341191
 42
0.7807764064044151
 10
-211.933934593669
 20
345.5788323928685
 10
-211.8606388885121
 20
345.5622652134938
  0
LWPOLYLINE
  5
DDB7
330
1F
100
AcDbEntity
  8
DETAILS
 62
     6
370
    20
100
AcDbPolyline
 90
        7
 70
     0
 43
0.0
 10
-212.4976652575235
 20
346.1617915825025
 10
-212.2201058799249
 20
345.8842322049048
 42
0.1989123673781765
 10
-212.1670728713354
 20
345.8622652134939
 10
-209.4976652575235
 20
345.8622652134939
 10
-206.8282576437116
 20
345.8622652134939
 42
0.1989123673781768
 10
-206.775224635124
 20
345.8842322049048
 10
-206.4976652575235
 20
346.1617915825007
  0
LWPOLYLINE
  5
DDB8
330
1F
100
AcDbEntity
  8
DETAILS
 62
     6
370
    20
100
AcDbPolyline
 90
        7
 70
     0
 43
0.0
 10
-212.4976652575235
 20
346.3117915825017
 10
-212.3079738455665
 20
346.122100170547
 42
0.1989123673777967
 10
-212.0428088026249
 20
346.012265213494
 10
-209.4976652575235
 20
346.0122652134938
 10
-206.9525217124239
 20
346.012265213494
 42
0.1989123673777968
 10
-206.6873566694805
 20
346.122100170547
 10
-206.4976652575235
 20
346.3117915824997
  0
LWPOLYLINE
  5
DDB9
330
1F
100
AcDbEntity
  8
DETAILS
 62
     6
370
    20
100
AcDbPolyline
 90
        4
 70
     0
 43
0.0
 10
-206.4976652575235
 20
345.0752388444851
 10
-206.6873566694805
 20
345.2649302564396
 42
0.1989123673788307
 10
-206.9525217124239
 20
345.3747652134937
 10
-207.3554165315102
 20
345.3747652134937
  0
LWPOLYLINE
  5
DDBA
330
1F
100
AcDbEntity
  8
DETAILS
 62
     6
370
    20
100
AcDbPolyline
 90
        4
 70
     0
 43
0.0
 10
-206.4976652575235
 20
345.974291582503
 10
-206.6988921136501
 20
345.7730647263777
 42
0.4142135623745727
 10
-206.6988921136501
 20
345.6139657006104
 10
-206.4976652575235
 20
345.4127388444843
  0
LWPOLYLINE
  5
DDBB
330
1F
100
AcDbEntity
  8
DETAILS
 62
     6
370
    20
100
AcDbPolyline
 90
        6
 70
     1
 43
0.0
 10
-209.4976652575235
 20
345.637265213494
 10
-206.8721916265342
 20
345.6372652134938
 10
-206.8721916265342
 20
345.7497652134937
 10
-209.4976652575235
 20
345.7497652134937
 10
-212.1231388885128
 20
345.7497652134937
 10
-212.1231388885128
 20
345.6372652134938
  0
LWPOLYLINE
  5
DDBC
330
1F
100
AcDbEntity
  8
DETAILS
 62
     6
370
    20
100
AcDbPolyline
 90
        2
 70
     1
 43
0.0
 10
-209.2364801857486
 20
350.0247652134938
 10
-209.2501071597173
 20
350.0247652134938
  0
LWPOLYLINE
  5
DDBD
330
1F
100
AcDbEntity
  8
DETAILS
 62
     6
370
    20
100
AcDbPolyline
 90
        6
 70
     0
 43
0.0
 10
-209.2501071597173
 20
350.0247652134938
 42
0.279322065306064
 10
-209.2833473372659
 20
350.0046243798791
 42
-0.2793220653060733
 10
-209.4976652575235
 20
349.8747652134937
 10
-206.8282576437116
 20
349.8747652134937
 42
0.1989123673782991
 10
-206.775224635124
 20
349.8967322049046
 10
-206.4976652575253
 20
350.174291582501
  0
LWPOLYLINE
  5
DDBE
330
1F
100
AcDbEntity
  8
DETAILS
 62
     6
370
    20
100
AcDbPolyline
 90
        2
 70
     1
 43
0.0
 10
-209.1614801857497
 20
350.0247652134938
 10
-208.1114801857486
 20
350.0247652134938
  0
LWPOLYLINE
  5
DDBF
330
1F
100
AcDbEntity
  8
DETAILS
 62
     6
370
    20
100
AcDbPolyline
 90
        6
 70
     0
 43
0.0
 10
-208.0753126540651
 20
349.8747652134937
 10
-208.2338855601185
 20
350.5324251311006
 42
0.3464949689054692
 10
-208.3797066155032
 20
350.6472652134938
 10
-209.0114801857483
 20
350.6472652134938
 42
0.4142135623730951
 10
-209.1614801857497
 20
350.4972652134939
 10
-209.1614801857497
 20
349.874765213494
  0
LWPOLYLINE
  5
DDC0
330
1F
100
AcDbEntity
  8
DETAILS
 62
     6
370
    20
100
AcDbPolyline
 90
        6
 70
     0
 43
0.0
 10
-207.9981633015916
 20
349.8747652134937
 10
-208.1609750324235
 20
350.5500050899044
 42
0.3464949689054692
 10
-208.3797066155032
 20
350.722265213494
 10
-209.0114801857483
 20
350.722265213494
 42
0.4142135623730951
 10
-209.2364801857486
 20
350.4972652134939
 10
-209.2364801857505
 20
349.874765213494
  0
LWPOLYLINE
  5
DDC1
330
1F
100
AcDbEntity
  8
DETAILS
 62
     6
370
    20
100
AcDbPolyline
 90
        2
 70
     1
 43
0.0
 10
-208.034330833277
 20
350.0247652134938
 10
-208.0207038593064
 20
350.0247652134938
  0
LWPOLYLINE
  5
DDC2
330
1F
100
AcDbEntity
  8
DETAILS
 62
     6
370
    20
100
AcDbPolyline
 90
        6
 70
     0
 43
0.0
 10
-207.5255876636977
 20
350.0247652134938
 10
-207.4557106897257
 20
350.0247652134938
 10
-207.5255876636977
 20
350.0247652134938
 42
0.2793220653054726
 10
-207.5588278412427
 20
350.0046243798788
 42
-0.6059183769079625
 10
-207.98746368248
 20
350.004624379503
 42
0.279322065306064
 10
-208.0207038593064
 20
350.0247652134938
  0
LWPOLYLINE
  5
DDC3
330
1F
100
AcDbEntity
  8
DETAILS
 62
     6
370
    20
100
AcDbPolyline
 90
        7
 70
     0
 43
0.0
 10
-206.4976652575235
 20
350.6247652134937
 10
-207.3381903571146
 20
350.6247652134937
 42
0.4853378929632635
 10
-207.4621382541911
 20
350.4673792835281
 10
-207.3192489998248
 20
349.8747652134937
 10
-206.8721916265342
 20
349.8747652134937
 10
-207.0596916265342
 20
349.8747652134937
 10
-207.1346916265349
 20
349.8747652134937
  0
LWPOLYLINE
  5
DDC4
330
1F
100
AcDbEntity
  8
DETAILS
 62
     6
370
    20
100
AcDbPolyline
 90
        4
 70
     0
 43
0.0
 10
-206.4976652575235
 20
350.722265213494
 10
-207.3381903571146
 20
350.722265213494
 42
0.4853378929632635
 10
-207.5569219401943
 20
350.4445253370839
 10
-207.4195431580404
 20
349.8747652134937
  0
LWPOLYLINE
  5
DDC5
330
1F
100
AcDbEntity
  8
DETAILS
 62
     6
370
    20
100
AcDbPolyline
 90
       10
 70
     1
 43
0.0
 10
-209.4976652575235
 20
349.8372652134938
 10
-211.8606388885121
 20
349.8372652134938
 10
-211.933934593669
 20
349.8206980341191
 42
0.7807764064044151
 10
-211.933934593669
 20
349.8163323928687
 10
-211.8606388885121
 20
349.7997652134939
 10
-209.4976652575235
 20
349.7997652134939
 10
-207.1346916265349
 20
349.7997652134939
 10
-207.0613959213799
 20
349.8163323928687
 42
0.7807764064044151
 10
-207.0613959213799
 20
349.8206980341191
 10
-207.1346916265349
 20
349.8372652134938
  0
LWPOLYLINE
  5
DDC6
330
1F
100
AcDbEntity
  8
DETAILS
 62
     6
370
    20
100
AcDbPolyline
 90
        7
 70
     0
 43
0.0
 10
-206.4976652575253
 20
349.2377388444873
 10
-206.775224635124
 20
349.5152982220832
 42
0.1989123673781766
 10
-206.8282576437116
 20
349.5372652134936
 10
-209.4976652575235
 20
349.5372652134939
 10
-212.1670728713354
 20
349.5372652134936
 42
0.1989123673781765
 10
-212.2201058799249
 20
349.5152982220832
 10
-212.4976652575235
 20
349.237738844485
  0
LWPOLYLINE
  5
DDC7
330
1F
100
AcDbEntity
  8
DETAILS
 62
     6
370
    20
100
AcDbPolyline
 90
        7
 70
     0
 43
0.0
 10
-206.4976652575235
 20
349.0877388444886
 10
-206.6873566694805
 20
349.2774302564406
 42
0.1989123673777966
 10
-206.9525217124239
 20
349.387265213494
 10
-209.4976652575235
 20
349.387265213494
 10
-212.0428088026249
 20
349.387265213494
 42
0.1989123673777966
 10
-212.3079738455665
 20
349.2774302564406
 10
-212.4976652575235
 20
349.0877388444858
  0
LWPOLYLINE
  5
DDC8
330
1F
100
AcDbEntity
  8
DETAILS
 62
     6
370
    20
100
AcDbPolyline
 90
        4
 70
     0
 43
0.0
 10
-207.3554165315102
 20
350.0247652134938
 10
-206.9525217124239
 20
350.0247652134938
 42
0.1989123673788307
 10
-206.6873566694805
 20
350.1346001705481
 10
-206.4976652575253
 20
350.3242915825024
  0
LWPOLYLINE
  5
DDC9
330
1F
100
AcDbEntity
  8
DETAILS
 62
     6
370
    20
100
AcDbPolyline
 90
        4
 70
     0
 43
0.0
 10
-206.4976652575253
 20
349.9867915825033
 10
-206.6988921136501
 20
349.7855647263771
 42
0.4142135623745727
 10
-206.6988921136501
 20
349.6264657006098
 10
-206.4976652575235
 20
349.4252388444855
  0
LWPOLYLINE
  5
DDCA
330
1F
100
AcDbEntity
  8
DETAILS
 62
     6
370
    20
100
AcDbPolyline
 90
        6
 70
     1
 43
0.0
 10
-209.4976652575235
 20
349.762265213494
 10
-206.8721916265342
 20
349.762265213494
 10
-206.8721916265342
 20
349.6497652134938
 10
-209.4976652575235
 20
349.6497652134938
 10
-212.1231388885128
 20
349.6497652134938
 10
-212.1231388885128
 20
349.762265213494
  0
LWPOLYLINE
  5
DDCB
330
1F
100
AcDbEntity
  8
DETAILS
 62
     6
370
    20
100
AcDbPolyline
 90
        2
 70
     1
 43
0.0
 10
-209.7588503292984
 20
345.3747652134937
 10
-209.7452233553297
 20
345.3747652134937
  0
LWPOLYLINE
  5
DDCC
330
1F
100
AcDbEntity
  8
DETAILS
 62
     6
370
    20
100
AcDbPolyline
 90
        6
 70
     0
 43
0.0
 10
-209.7452233553297
 20
345.3747652134937
 42
0.279322065306064
 10
-209.7119831777829
 20
345.3949060471089
 42
-0.2793220653060734
 10
-209.4976652575235
 20
345.5247652134938
 10
-212.1670728713354
 20
345.5247652134938
 42
0.1989123673782987
 10
-212.2201058799249
 20
345.502798222083
 10
-212.4976652575235
 20
345.2252388444847
  0
LWPOLYLINE
  5
DDCD
330
1F
100
AcDbEntity
  8
DETAILS
 62
     6
370
    20
100
AcDbPolyline
 90
        2
 70
     1
 43
0.0
 10
-209.8338503292991
 20
345.3747652134937
 10
-210.8838503292984
 20
345.3747652134937
  0
LWPOLYLINE
  5
DDCE
330
1F
100
AcDbEntity
  8
DETAILS
 62
     6
370
    20
100
AcDbPolyline
 90
        6
 70
     0
 43
0.0
 10
-210.9200178609837
 20
345.5247652134938
 10
-210.7614449549303
 20
344.8671052958869
 42
0.3464949689054692
 10
-210.6156238995438
 20
344.7522652134938
 10
-209.9838503292988
 20
344.7522652134938
 42
0.4142135623730951
 10
-209.8338503292973
 20
344.9022652134939
 10
-209.8338503292973
 20
345.5247652134938
  0
LWPOLYLINE
  5
DDCF
330
1F
100
AcDbEntity
  8
DETAILS
 62
     6
370
    20
100
AcDbPolyline
 90
        6
 70
     0
 43
0.0
 10
-210.9971672134573
 20
345.5247652134938
 10
-210.8343554826236
 20
344.8495253370837
 42
0.3464949689054692
 10
-210.6156238995438
 20
344.6772652134939
 10
-209.9838503292988
 20
344.6772652134939
 42
0.4142135623730951
 10
-209.7588503292984
 20
344.9022652134939
 10
-209.7588503292984
 20
345.5247652134938
  0
LWPOLYLINE
  5
DDD0
330
1F
100
AcDbEntity
  8
DETAILS
 62
     6
370
    20
100
AcDbPolyline
 90
        2
 70
     1
 43
0.0
 10
-210.9609996817719
 20
345.3747652134937
 10
-210.9746266557406
 20
345.3747652134937
  0
LWPOLYLINE
  5
DDD1
330
1F
100
AcDbEntity
  8
DETAILS
 62
     6
370
    20
100
AcDbPolyline
 90
        6
 70
     0
 43
0.0
 10
-211.4697428513511
 20
345.3747652134937
 10
-211.5396198253213
 20
345.3747652134937
 10
-211.4697428513511
 20
345.3747652134937
 42
0.2793220653054726
 10
-211.4365026738044
 20
345.3949060471089
 42
-0.6059183769079624
 10
-211.0078668325689
 20
345.394906047485
 42
0.279322065306064
 10
-210.9746266557406
 20
345.3747652134937
  0
LWPOLYLINE
  5
DDD2
330
1F
100
AcDbEntity
  8
DETAILS
 62
     6
370
    20
100
AcDbPolyline
 90
        7
 70
     0
 43
0.0
 10
-212.4976652575235
 20
344.7747652134938
 10
-211.6571401579324
 20
344.7747652134938
 42
0.4853378929632635
 10
-211.5331922608559
 20
344.9321511434594
 10
-211.6760815152222
 20
345.5247652134938
 10
-212.1231388885128
 20
345.5247652134938
 10
-211.9356388885128
 20
345.5247652134938
 10
-211.8606388885121
 20
345.5247652134938
  0
LWPOLYLINE
  5
DDD3
330
1F
100
AcDbEntity
  8
DETAILS
 62
     6
370
    20
100
AcDbPolyline
 90
        4
 70
     0
 43
0.0
 10
-212.4976652575235
 20
344.6772652134939
 10
-211.6571401579324
 20
344.6772652134939
 42
0.4853378929632635
 10
-211.4384085748545
 20
344.9550050899041
 10
-211.5757873570067
 20
345.5247652134938
  0
LWPOLYLINE
  5
DDD4
330
1F
100
AcDbEntity
  8
DETAILS
 62
     6
370
    20
100
AcDbPolyline
 90
        4
 70
     0
 43
0.0
 10
-211.6399139835368
 20
345.3747652134937
 10
-212.0428088026231
 20
345.3747652134937
 42
0.1989123673788306
 10
-212.3079738455665
 20
345.2649302564396
 10
-212.4976652575235
 20
345.0752388444835
  0
LWPOLYLINE
  5
DDD5
330
1F
100
AcDbEntity
  8
DETAILS
 62
     6
370
    20
100
AcDbPolyline
 90
        4
 70
     0
 43
0.0
 10
-212.4976652575235
 20
345.4127388444829
 10
-212.2964384013969
 20
345.6139657006104
 42
0.4142135623745727
 10
-212.2964384013969
 20
345.7730647263777
 10
-212.4976652575235
 20
345.9742915825044
  0
LWPOLYLINE
  5
DDD6
330
1F
100
AcDbEntity
  8
DETAILS
 62
     6
370
    20
100
AcDbPolyline
 90
        2
 70
     1
 43
0.0
 10
-209.7588503292984
 20
350.0247652134938
 10
-209.7452233553297
 20
350.0247652134938
  0
LWPOLYLINE
  5
DDD7
330
1F
100
AcDbEntity
  8
DETAILS
 62
     6
370
    20
100
AcDbPolyline
 90
        6
 70
     0
 43
0.0
 10
-212.4976652575235
 20
350.1742915825028
 10
-212.2201058799249
 20
349.8967322049046
 42
0.1989123673782989
 10
-212.1670728713354
 20
349.8747652134937
 10
-209.4976652575235
 20
349.8747652134937
 42
-0.2793220653060733
 10
-209.7119831785014
 20
350.004624379503
 42
0.279322065306064
 10
-209.7452233553297
 20
350.0247652134938
  0
LWPOLYLINE
  5
DDD8
330
1F
100
AcDbEntity
  8
DETAILS
 62
     6
370
    20
100
AcDbPolyline
 90
        2
 70
     1
 43
0.0
 10
-209.8338503292991
 20
350.0247652134938
 10
-210.8838503292984
 20
350.0247652134938
  0
LWPOLYLINE
  5
DDD9
330
1F
100
AcDbEntity
  8
DETAILS
 62
     6
370
    20
100
AcDbPolyline
 90
        6
 70
     0
 43
0.0
 10
-209.8338503292973
 20
349.874765213494
 10
-209.8338503292991
 20
350.4972652134939
 42
0.4142135623730951
 10
-209.9838503292988
 20
350.6472652134938
 10
-210.6156238995438
 20
350.6472652134938
 42
0.3464949689054692
 10
-210.7614449549303
 20
350.5324251311006
 10
-210.9200178609837
 20
349.8747652134937
  0
LWPOLYLINE
  5
DDDA
330
1F
100
AcDbEntity
  8
DETAILS
 62
     6
370
    20
100
AcDbPolyline
 90
        6
 70
     0
 43
0.0
 10
-209.7588503292984
 20
349.874765213494
 10
-209.7588503292984
 20
350.4972652134939
 42
0.4142135623730951
 10
-209.9838503292988
 20
350.722265213494
 10
-210.6156238995438
 20
350.722265213494
 42
0.3464949689054692
 10
-210.8343554826236
 20
350.5500050899044
 10
-210.9971672134573
 20
349.8747652134937
  0
LWPOLYLINE
  5
DDDB
330
1F
100
AcDbEntity
  8
DETAILS
 62
     6
370
    20
100
AcDbPolyline
 90
        2
 70
     1
 43
0.0
 10
-210.9609996817719
 20
350.0247652134938
 10
-210.9746266557406
 20
350.0247652134938
  0
LWPOLYLINE
  5
DDDC
330
1F
100
AcDbEntity
  8
DETAILS
 62
     6
370
    20
100
AcDbPolyline
 90
        6
 70
     0
 43
0.0
 10
-210.9746266557406
 20
350.0247652134938
 42
0.279322065306064
 10
-211.0078668332874
 20
350.0046243798791
 42
-0.6059183769079624
 10
-211.4365026745247
 20
350.004624379503
 42
0.2793220653054726
 10
-211.4697428513511
 20
350.0247652134938
 10
-211.5396198253213
 20
350.0247652134938
 10
-211.4697428513511
 20
350.0247652134938
  0
LWPOLYLINE
  5
DDDD
330
1F
100
AcDbEntity
  8
DETAILS
 62
     6
370
    20
100
AcDbPolyline
 90
        7
 70
     0
 43
0.0
 10
-211.8606388885121
 20
349.8747652134937
 10
-211.9356388885128
 20
349.8747652134937
 10
-212.1231388885128
 20
349.8747652134937
 10
-211.6760815152222
 20
349.8747652134937
 10
-211.5331922608559
 20
350.4673792835281
 42
0.4853378929632635
 10
-211.6571401579324
 20
350.6247652134937
 10
-212.4976652575254
 20
350.6247652134937
  0
LWPOLYLINE
  5
DDDE
330
1F
100
AcDbEntity
  8
DETAILS
 62
     6
370
    20
100
AcDbPolyline
 90
        4
 70
     0
 43
0.0
 10
-211.5757873570067
 20
349.8747652134937
 10
-211.4384085748545
 20
350.4445253370839
 42
0.4853378929632635
 10
-211.6571401579324
 20
350.722265213494
 10
-212.4976652575254
 20
350.722265213494
  0
LWPOLYLINE
  5
DDDF
330
1F
100
AcDbEntity
  8
DETAILS
 62
     6
370
    20
100
AcDbPolyline
 90
        4
 70
     0
 43
0.0
 10
-212.4976652575235
 20
350.3242915825047
 10
-212.3079738455665
 20
350.1346001705481
 42
0.1989123673788307
 10
-212.0428088026231
 20
350.0247652134938
 10
-211.6399139835368
 20
350.0247652134938
  0
LWPOLYLINE
  5
DDE0
330
1F
100
AcDbEntity
  8
DETAILS
 62
     6
370
    20
100
AcDbPolyline
 90
        4
 70
     0
 43
0.0
 10
-212.4976652575235
 20
349.4252388444832
 10
-212.2964384013969
 20
349.6264657006098
 42
0.4142135623745727
 10
-212.2964384013969
 20
349.7855647263771
 10
-212.4976652575254
 20
349.9867915825053
  0
LINE
  5
DDE1
330
1F
100
AcDbEntity
  8
0
 62
     1
100
AcDbLine
 10
-214.4955166137745
 20
341.449765213494
 30
0.0
 11
-214.4955166137745
 21
329.449765213494
 31
0.0
  0
LINE
  5
DDE2
330
1F
100
AcDbEntity
  8
0
 62
     1
100
AcDbLine
 10
-204.4998139012725
 20
341.449765213494
 30
0.0
 11
-204.4998139012725
 21
329.449765213494
 31
0.0
  0
LINE
  5
DDE3
330
1F
100
AcDbEntity
  8
0
 62
     1
100
AcDbLine
 10
-214.4955166137745
 20
341.449765213494
 30
0.0
 11
-212.9455166137734
 21
341.449765213494
 31
0.0
  0
LINE
  5
DDE4
330
1F
100
AcDbEntity
  8
0
 62
     1
100
AcDbLine
 10
-214.4955166137745
 20
329.449765213494
 30
0.0
 11
-212.4955166137745
 21
329.449765213494
 31
0.0
  0
LINE
  5
DDE5
330
1F
100
AcDbEntity
  8
0
 62
     1
100
AcDbLine
 10
-212.4955166137745
 20
341.949765213494
 30
0.0
 11
-212.4955166137745
 21
329.449765213494
 31
0.0
  0
LINE
  5
DDE6
330
1F
100
AcDbEntity
  8
0
 62
     1
100
AcDbLine
 10
-206.4998139012744
 20
341.949765213494
 30
0.0
 11
-206.4998139012725
 21
329.449765213494
 31
0.0
  0
LINE
  5
DDE7
330
1F
100
AcDbEntity
  8
0
 62
     1
100
AcDbLine
 10
-214.1455166137741
 20
341.949765213494
 30
0.0
 11
-213.5205166137741
 21
341.949765213494
 31
0.0
  0
LINE
  5
DDE8
330
1F
100
AcDbEntity
  8
0
 62
     1
100
AcDbLine
 10
-214.1455166137741
 20
341.949765213494
 30
0.0
 11
-214.1455166137741
 21
329.449765213494
 31
0.0
  0
LINE
  5
DDE9
330
1F
100
AcDbEntity
  8
0
 62
     1
100
AcDbLine
 10
-204.8498139012729
 20
341.949765213494
 30
0.0
 11
-204.8498139012729
 21
341.449765213494
 31
0.0
  0
LINE
  5
DDEA
330
1F
100
AcDbEntity
  8
0
 62
     1
100
AcDbLine
 10
-213.1205166137745
 20
341.949765213494
 30
0.0
 11
-213.1205166137763
 21
341.449765213494
 31
0.0
  0
LINE
  5
DDEB
330
1F
100
AcDbEntity
  8
0
 62
     1
100
AcDbLine
 10
-213.5205166137741
 20
341.949765213494
 30
0.0
 11
-213.5205166137741
 21
341.449765213494
 31
0.0
  0
LINE
  5
DDEC
330
1F
100
AcDbEntity
  8
0
 62
     1
100
AcDbLine
 10
-205.8748139012744
 20
341.949765213494
 30
0.0
 11
-205.8748139012744
 21
341.449765213494
 31
0.0
  0
LINE
  5
DDED
330
1F
100
AcDbEntity
  8
0
 62
     1
100
AcDbLine
 10
-205.4748139012729
 20
341.949765213494
 30
0.0
 11
-205.4748139012729
 21
341.449765213494
 31
0.0
  0
LINE
  5
DDEE
330
1F
100
AcDbEntity
  8
0
 62
     1
100
AcDbLine
 10
-206.4998139012744
 20
341.949765213494
 30
0.0
 11
-205.8748139012744
 21
341.949765213494
 31
0.0
  0
LINE
  5
DDEF
330
1F
100
AcDbEntity
  8
0
 62
     1
100
AcDbLine
 10
-205.4748139012729
 20
341.949765213494
 30
0.0
 11
-204.8498139012729
 21
341.949765213494
 31
0.0
  0
LINE
  5
DDF0
330
1F
100
AcDbEntity
  8
0
 62
     1
100
AcDbLine
 10
-213.1205166137763
 20
341.949765213494
 30
0.0
 11
-212.4955166137763
 21
341.949765213494
 31
0.0
  0
LINE
  5
DDF1
330
1F
100
AcDbEntity
  8
0
 62
     1
100
AcDbLine
 10
-212.6955166137752
 20
341.699765213494
 30
0.0
 11
-212.6955166137752
 21
329.449765213494
 31
0.0
  0
LINE
  5
DDF2
330
1F
100
AcDbEntity
  8
0
 62
     1
100
AcDbLine
 10
-206.2998139012736
 20
341.699765213494
 30
0.0
 11
-206.2998139012736
 21
329.449765213494
 31
0.0
  0
LINE
  5
DDF3
330
1F
100
AcDbEntity
  8
0
 62
     1
100
AcDbLine
 10
-212.9455166137752
 20
341.699765213494
 30
0.0
 11
-212.9455166137752
 21
341.449765213494
 31
0.0
  0
LINE
  5
DDF4
330
1F
100
AcDbEntity
  8
0
 62
     1
100
AcDbLine
 10
-206.0498139012736
 20
341.699765213494
 30
0.0
 11
-206.0498139012736
 21
341.449765213494
 31
0.0
  0
LINE
  5
DDF5
330
1F
100
AcDbEntity
  8
0
 62
     1
100
AcDbLine
 10
-212.9455166137752
 20
341.699765213494
 30
0.0
 11
-212.6955166137752
 21
341.699765213494
 31
0.0
  0
LINE
  5
DDF6
330
1F
100
AcDbEntity
  8
0
 62
     1
100
AcDbLine
 10
-206.2998139012736
 20
341.699765213494
 30
0.0
 11
-206.0498139012736
 21
341.699765213494
 31
0.0
  0
LINE
  5
DDF7
330
1F
100
AcDbEntity
  8
0
 62
     1
100
AcDbLine
 10
-206.0848139012735
 20
341.449765213494
 30
0.0
 11
-204.4998139012725
 21
341.449765213494
 31
0.0
  0
LINE
  5
DDF8
330
1F
100
AcDbEntity
  8
0
 62
     1
100
AcDbLine
 10
-212.6955166137752
 20
341.449765213494
 30
0.0
 11
-212.4955166137763
 21
341.449765213494
 31
0.0
  0
LINE
  5
DDF9
330
1F
100
AcDbEntity
  8
0
 62
     1
100
AcDbLine
 10
-206.0848139012735
 20
341.449765213494
 30
0.0
 11
-206.0848139012735
 21
329.449765213494
 31
0.0
  0
LINE
  5
DDFA
330
1F
100
AcDbEntity
  8
0
 62
     1
100
AcDbLine
 10
-205.2648139012738
 20
341.449765213494
 30
0.0
 11
-205.2648139012738
 21
329.449765213494
 31
0.0
  0
LINE
  5
DDFB
330
1F
100
AcDbEntity
  8
A2 Hatch
  6
DASHED2
 48
0.15
100
AcDbLine
 10
-205.9248139012737
 20
341.449765213494
 30
0.0
 11
-205.9248139012737
 21
329.449765213494
 31
0.0
  0
LINE
  5
DDFC
330
1F
100
AcDbEntity
  8
A2 Hatch
  6
DASHED2
 48
0.15
100
AcDbLine
 10
-205.4248139012736
 20
341.449765213494
 30
0.0
 11
-205.4248139012736
 21
329.449765213494
 31
0.0
  0
LINE
  5
DDFD
330
1F
100
AcDbEntity
  8
0
 48
0.15
100
AcDbLine
 10
-213.5205166137741
 20
341.449765213494
 30
0.0
 11
-213.1205166137745
 21
341.449765213494
 31
0.0
  0
LINE
  5
DDFE
330
1F
100
AcDbEntity
  8
A2 Hatch
  6
DASHED2
 48
0.15
100
AcDbLine
 10
-213.7305166137751
 20
341.949765213494
 30
0.0
 11
-213.7305166137751
 21
329.449765213494
 31
0.0
  0
LINE
  5
DDFF
330
1F
100
AcDbEntity
  8
A2 Hatch
  6
DASHED2
 48
0.15
100
AcDbLine
 10
-212.9105166137754
 20
341.949765213494
 30
0.0
 11
-212.9105166137736
 21
329.449765213494
 31
0.0
  0
LINE
  5
DE00
330
1F
100
AcDbEntity
  8
0
 62
     1
100
AcDbLine
 10
-213.5705166137734
 20
341.949765213494
 30
0.0
 11
-213.5705166137734
 21
329.449765213494
 31
0.0
  0
LINE
  5
DE01
330
1F
100
AcDbEntity
  8
0
 62
     1
100
AcDbLine
 10
-213.0705166137734
 20
341.949765213494
 30
0.0
 11
-213.0705166137734
 21
329.449765213494
 31
0.0
  0
LINE
  5
DE02
330
1F
100
AcDbEntity
  8
0
 62
     1
100
AcDbLine
 10
-213.0705166137734
 20
341.449765213494
 30
0.0
 11
-213.5705166137752
 21
341.449765213494
 31
0.0
  0
LINE
  5
DE03
330
1F
100
AcDbEntity
  8
0
 62
     1
100
AcDbLine
 10
-206.4998139012744
 20
341.449765213494
 30
0.0
 11
-206.2998139012736
 21
341.449765213494
 31
0.0
  0
LINE
  5
DE04
330
1F
100
AcDbEntity
  8
0
 62
     1
100
AcDbLine
 10
-206.4998139012725
 20
329.449765213494
 30
0.0
 11
-204.4998139012725
 21
329.449765213494
 31
0.0
  0
LINE
  5
DE05
330
1F
100
AcDbEntity
  8
0
 62
     1
100
AcDbLine
 10
-212.4955166137745
 20
329.949765213494
 30
0.0
 11
-212.4955166137745
 21
329.449765213494
 31
0.0
  0
LINE
  5
DE06
330
1F
100
AcDbEntity
  8
0
  6
HIDDEN
 62
     1
 48
0.02
100
AcDbLine
 10
-214.1455166137741
 20
329.949765213494
 30
0.0
 11
-213.5205166137741
 21
329.949765213494
 31
0.0
  0
LINE
  5
DE07
330
1F
100
AcDbEntity
  8
0
  6
HIDDEN
 62
     1
 48
0.02
100
AcDbLine
 10
-214.1455166137741
 20
329.949765213494
 30
0.0
 11
-214.1455166137741
 21
329.449765213494
 31
0.0
  0
LINE
  5
DE08
330
1F
100
AcDbEntity
  8
0
  6
HIDDEN
 62
     1
 48
0.02
100
AcDbLine
 10
-213.1205166137745
 20
329.949765213494
 30
0.0
 11
-213.1205166137763
 21
329.449765213494
 31
0.0
  0
LINE
  5
DE09
330
1F
100
AcDbEntity
  8
0
  6
HIDDEN
 62
     1
 48
0.02
100
AcDbLine
 10
-213.5205166137741
 20
329.949765213494
 30
0.0
 11
-213.5205166137741
 21
329.449765213494
 31
0.0
  0
LINE
  5
DE0A
330
1F
100
AcDbEntity
  8
0
  6
HIDDEN
 62
     1
 48
0.02
100
AcDbLine
 10
-213.1205166137763
 20
329.949765213494
 30
0.0
 11
-212.4955166137763
 21
329.949765213494
 31
0.0
  0
LINE
  5
DE0B
330
1F
100
AcDbEntity
  8
0
 62
     1
100
AcDbLine
 10
-206.4998139012725
 20
329.949765213494
 30
0.0
 11
-206.4998139012707
 21
329.449765213494
 31
0.0
  0
LINE
  5
DE0C
330
1F
100
AcDbEntity
  8
0
  6
HIDDEN
 62
     1
 48
0.02
100
AcDbLine
 10
-204.8498139012711
 20
329.949765213494
 30
0.0
 11
-204.8498139012711
 21
329.449765213494
 31
0.0
  0
LINE
  5
DE0D
330
1F
100
AcDbEntity
  8
0
  6
HIDDEN
 62
     1
 48
0.02
100
AcDbLine
 10
-205.8748139012725
 20
329.949765213494
 30
0.0
 11
-205.8748139012725
 21
329.449765213494
 31
0.0
  0
LINE
  5
DE0E
330
1F
100
AcDbEntity
  8
0
  6
HIDDEN
 62
     1
 48
0.02
100
AcDbLine
 10
-205.4748139012711
 20
329.949765213494
 30
0.0
 11
-205.4748139012711
 21
329.449765213494
 31
0.0
  0
LINE
  5
DE0F
330
1F
100
AcDbEntity
  8
0
  6
HIDDEN
 62
     1
 48
0.02
100
AcDbLine
 10
-206.4998139012707
 20
329.949765213494
 30
0.0
 11
-205.8748139012707
 21
329.949765213494
 31
0.0
  0
LINE
  5
DE10
330
1F
100
AcDbEntity
  8
0
  6
HIDDEN
 62
     1
 48
0.02
100
AcDbLine
 10
-205.4748139012711
 20
329.949765213494
 30
0.0
 11
-204.8498139012711
 21
329.949765213494
 31
0.0
  0
LINE
  5
DE11
330
1F
100
AcDbEntity
  8
0
  6
HIDDEN
 62
     1
 48
0.02
100
AcDbLine
 10
-206.2998139012718
 20
329.699765213494
 30
0.0
 11
-206.29981390127
 21
329.449765213494
 31
0.0
  0
LINE
  5
DE12
330
1F
100
AcDbEntity
  8
0
  6
HIDDEN
 62
     1
 48
0.02
100
AcDbLine
 10
-206.0498139012718
 20
329.699765213494
 30
0.0
 11
-206.0498139012718
 21
329.449765213494
 31
0.0
  0
LINE
  5
DE13
330
1F
100
AcDbEntity
  8
0
  6
HIDDEN
 62
     1
 48
0.02
100
AcDbLine
 10
-206.2998139012718
 20
329.699765213494
 30
0.0
 11
-206.0498139012718
 21
329.699765213494
 31
0.0
  0
LWPOLYLINE
  5
DE14
330
1F
100
AcDbEntity
  8
DETAILS
 62
     6
370
    20
100
AcDbPolyline
 90
        2
 70
     1
 43
0.0
 10
-209.2364801857486
 20
333.3747652134937
 10
-209.2501071597173
 20
333.3747652134937
  0
LWPOLYLINE
  5
DE15
330
1F
100
AcDbEntity
  8
DETAILS
 62
     6
370
    20
100
AcDbPolyline
 90
        6
 70
     0
 43
0.0
 10
-206.4976652575235
 20
333.2252388444866
 10
-206.775224635124
 20
333.502798222083
 42
0.1989123673782988
 10
-206.8282576437116
 20
333.5247652134938
 10
-209.4976652575235
 20
333.5247652134938
 42
-0.2793220653060733
 10
-209.2833473365456
 20
333.394906047485
 42
0.279322065306064
 10
-209.2501071597173
 20
333.3747652134937
  0
LWPOLYLINE
  5
DE16
330
1F
100
AcDbEntity
  8
DETAILS
 62
     6
370
    20
100
AcDbPolyline
 90
        2
 70
     1
 43
0.0
 10
-209.1614801857497
 20
333.3747652134937
 10
-208.1114801857486
 20
333.3747652134937
  0
LWPOLYLINE
  5
DE17
330
1F
100
AcDbEntity
  8
DETAILS
 62
     6
370
    20
100
AcDbPolyline
 90
        6
 70
     0
 43
0.0
 10
-209.1614801857497
 20
333.5247652134938
 10
-209.1614801857497
 20
332.9022652134939
 42
0.4142135623730951
 10
-209.0114801857483
 20
332.7522652134938
 10
-208.3797066155032
 20
332.7522652134938
 42
0.3464949689054693
 10
-208.2338855601185
 20
332.8671052958869
 10
-208.0753126540651
 20
333.5247652134938
  0
LWPOLYLINE
  5
DE18
330
1F
100
AcDbEntity
  8
DETAILS
 62
     6
370
    20
100
AcDbPolyline
 90
        6
 70
     0
 43
0.0
 10
-209.2364801857505
 20
333.5247652134938
 10
-209.2364801857486
 20
332.9022652134939
 42
0.4142135623730951
 10
-209.0114801857483
 20
332.677265213494
 10
-208.3797066155032
 20
332.677265213494
 42
0.3464949689054693
 10
-208.1609750324235
 20
332.8495253370836
 10
-207.9981633015916
 20
333.5247652134938
  0
LWPOLYLINE
  5
DE19
330
1F
100
AcDbEntity
  8
DETAILS
 62
     6
370
    20
100
AcDbPolyline
 90
        2
 70
     1
 43
0.0
 10
-208.034330833277
 20
333.3747652134937
 10
-208.0207038593064
 20
333.3747652134937
  0
LWPOLYLINE
  5
DE1A
330
1F
100
AcDbEntity
  8
DETAILS
 62
     6
370
    20
100
AcDbPolyline
 90
        6
 70
     0
 43
0.0
 10
-208.0207038593064
 20
333.3747652134937
 42
0.279322065306064
 10
-207.9874636817597
 20
333.3949060471089
 42
-0.6059183769079624
 10
-207.5588278405223
 20
333.394906047485
 42
0.2793220653054726
 10
-207.5255876636977
 20
333.3747652134937
 10
-207.4557106897257
 20
333.3747652134937
 10
-207.5255876636977
 20
333.3747652134937
  0
LWPOLYLINE
  5
DE1B
330
1F
100
AcDbEntity
  8
DETAILS
 62
     6
370
    20
100
AcDbPolyline
 90
        7
 70
     0
 43
0.0
 10
-207.1346916265349
 20
333.5247652134938
 10
-207.0596916265342
 20
333.5247652134938
 10
-206.8721916265342
 20
333.5247652134938
 10
-207.3192489998248
 20
333.5247652134938
 10
-207.462138254193
 20
332.9321511434594
 42
0.4853378929632635
 10
-207.3381903571146
 20
332.7747652134938
 10
-206.4976652575235
 20
332.7747652134938
  0
LWPOLYLINE
  5
DE1C
330
1F
100
AcDbEntity
  8
DETAILS
 62
     6
370
    20
100
AcDbPolyline
 90
        4
 70
     0
 43
0.0
 10
-207.4195431580404
 20
333.5247652134938
 10
-207.5569219401943
 20
332.9550050899041
 42
0.4853378929632635
 10
-207.3381903571146
 20
332.677265213494
 10
-206.4976652575235
 20
332.677265213494
  0
LWPOLYLINE
  5
DE1D
330
1F
100
AcDbEntity
  8
DETAILS
 62
     6
370
    20
100
AcDbPolyline
 90
       10
 70
     1
 43
0.0
 10
-209.4976652575235
 20
333.5622652134937
 10
-207.1346916265349
 20
333.5622652134937
 10
-207.0613959213799
 20
333.5788323928685
 42
0.7807764064044151
 10
-207.0613959213799
 20
333.5831980341191
 10
-207.1346916265349
 20
333.5997652134937
 10
-209.4976652575235
 20
333.5997652134937
 10
-211.8606388885121
 20
333.5997652134937
 10
-211.933934593669
 20
333.5831980341191
 42
0.7807764064044151
 10
-211.933934593669
 20
333.5788323928685
 10
-211.8606388885121
 20
333.5622652134937
  0
LWPOLYLINE
  5
DE1E
330
1F
100
AcDbEntity
  8
DETAILS
 62
     6
370
    20
100
AcDbPolyline
 90
        7
 70
     0
 43
0.0
 10
-212.4976652575235
 20
334.1617915825025
 10
-212.2201058799249
 20
333.8842322049048
 42
0.1989123673781765
 10
-212.1670728713354
 20
333.8622652134939
 10
-209.4976652575235
 20
333.8622652134939
 10
-206.8282576437116
 20
333.8622652134939
 42
0.1989123673781768
 10
-206.775224635124
 20
333.8842322049048
 10
-206.4976652575235
 20
334.1617915825007
  0
LWPOLYLINE
  5
DE1F
330
1F
100
AcDbEntity
  8
DETAILS
 62
     6
370
    20
100
AcDbPolyline
 90
        7
 70
     0
 43
0.0
 10
-212.4976652575235
 20
334.3117915825017
 10
-212.3079738455665
 20
334.1221001705469
 42
0.1989123673777967
 10
-212.0428088026249
 20
334.012265213494
 10
-209.4976652575235
 20
334.0122652134938
 10
-206.9525217124239
 20
334.012265213494
 42
0.1989123673777968
 10
-206.6873566694805
 20
334.1221001705469
 10
-206.4976652575235
 20
334.3117915824997
  0
LWPOLYLINE
  5
DE20
330
1F
100
AcDbEntity
  8
DETAILS
 62
     6
370
    20
100
AcDbPolyline
 90
        4
 70
     0
 43
0.0
 10
-206.4976652575235
 20
333.0752388444851
 10
-206.6873566694805
 20
333.2649302564397
 42
0.1989123673788307
 10
-206.9525217124239
 20
333.3747652134937
 10
-207.3554165315102
 20
333.3747652134937
  0
LWPOLYLINE
  5
DE21
330
1F
100
AcDbEntity
  8
DETAILS
 62
     6
370
    20
100
AcDbPolyline
 90
        4
 70
     0
 43
0.0
 10
-206.4976652575235
 20
333.974291582503
 10
-206.6988921136501
 20
333.7730647263778
 42
0.4142135623745727
 10
-206.6988921136501
 20
333.6139657006104
 10
-206.4976652575235
 20
333.4127388444843
  0
LWPOLYLINE
  5
DE22
330
1F
100
AcDbEntity
  8
DETAILS
 62
     6
370
    20
100
AcDbPolyline
 90
        6
 70
     1
 43
0.0
 10
-209.4976652575235
 20
333.637265213494
 10
-206.8721916265342
 20
333.6372652134938
 10
-206.8721916265342
 20
333.7497652134937
 10
-209.4976652575235
 20
333.7497652134937
 10
-212.1231388885128
 20
333.7497652134937
 10
-212.1231388885128
 20
333.6372652134938
  0
LWPOLYLINE
  5
DE23
330
1F
100
AcDbEntity
  8
DETAILS
 62
     6
370
    20
100
AcDbPolyline
 90
        2
 70
     1
 43
0.0
 10
-209.2364801857486
 20
338.0247652134938
 10
-209.2501071597173
 20
338.0247652134938
  0
LWPOLYLINE
  5
DE24
330
1F
100
AcDbEntity
  8
DETAILS
 62
     6
370
    20
100
AcDbPolyline
 90
        6
 70
     0
 43
0.0
 10
-209.2501071597173
 20
338.0247652134938
 42
0.279322065306064
 10
-209.2833473372659
 20
338.0046243798791
 42
-0.2793220653060733
 10
-209.4976652575235
 20
337.8747652134937
 10
-206.8282576437116
 20
337.8747652134937
 42
0.1989123673782991
 10
-206.775224635124
 20
337.8967322049046
 10
-206.4976652575253
 20
338.174291582501
  0
LWPOLYLINE
  5
DE25
330
1F
100
AcDbEntity
  8
DETAILS
 62
     6
370
    20
100
AcDbPolyline
 90
        2
 70
     1
 43
0.0
 10
-209.1614801857497
 20
338.0247652134938
 10
-208.1114801857486
 20
338.0247652134938
  0
LWPOLYLINE
  5
DE26
330
1F
100
AcDbEntity
  8
DETAILS
 62
     6
370
    20
100
AcDbPolyline
 90
        6
 70
     0
 43
0.0
 10
-208.0753126540651
 20
337.8747652134937
 10
-208.2338855601185
 20
338.5324251311006
 42
0.3464949689054692
 10
-208.3797066155032
 20
338.6472652134937
 10
-209.0114801857483
 20
338.6472652134937
 42
0.4142135623730951
 10
-209.1614801857497
 20
338.4972652134939
 10
-209.1614801857497
 20
337.8747652134939
  0
LWPOLYLINE
  5
DE27
330
1F
100
AcDbEntity
  8
DETAILS
 62
     6
370
    20
100
AcDbPolyline
 90
        6
 70
     0
 43
0.0
 10
-207.9981633015916
 20
337.8747652134937
 10
-208.1609750324235
 20
338.5500050899044
 42
0.3464949689054692
 10
-208.3797066155032
 20
338.7222652134941
 10
-209.0114801857483
 20
338.7222652134941
 42
0.4142135623730951
 10
-209.2364801857486
 20
338.4972652134939
 10
-209.2364801857505
 20
337.8747652134939
  0
LWPOLYLINE
  5
DE28
330
1F
100
AcDbEntity
  8
DETAILS
 62
     6
370
    20
100
AcDbPolyline
 90
        2
 70
     1
 43
0.0
 10
-208.034330833277
 20
338.0247652134938
 10
-208.0207038593064
 20
338.0247652134938
  0
LWPOLYLINE
  5
DE29
330
1F
100
AcDbEntity
  8
DETAILS
 62
     6
370
    20
100
AcDbPolyline
 90
        6
 70
     0
 43
0.0
 10
-207.5255876636977
 20
338.0247652134938
 10
-207.4557106897257
 20
338.0247652134938
 10
-207.5255876636977
 20
338.0247652134938
 42
0.2793220653054726
 10
-207.5588278412427
 20
338.0046243798789
 42
-0.6059183769079625
 10
-207.98746368248
 20
338.004624379503
 42
0.279322065306064
 10
-208.0207038593064
 20
338.0247652134938
  0
LWPOLYLINE
  5
DE2A
330
1F
100
AcDbEntity
  8
DETAILS
 62
     6
370
    20
100
AcDbPolyline
 90
        7
 70
     0
 43
0.0
 10
-206.4976652575235
 20
338.6247652134937
 10
-207.3381903571146
 20
338.6247652134937
 42
0.4853378929632635
 10
-207.4621382541911
 20
338.4673792835282
 10
-207.3192489998248
 20
337.8747652134937
 10
-206.8721916265342
 20
337.8747652134937
 10
-207.0596916265342
 20
337.8747652134937
 10
-207.1346916265349
 20
337.8747652134937
  0
LWPOLYLINE
  5
DE2B
330
1F
100
AcDbEntity
  8
DETAILS
 62
     6
370
    20
100
AcDbPolyline
 90
        4
 70
     0
 43
0.0
 10
-206.4976652575235
 20
338.7222652134941
 10
-207.3381903571146
 20
338.7222652134941
 42
0.4853378929632635
 10
-207.5569219401943
 20
338.4445253370839
 10
-207.4195431580404
 20
337.8747652134937
  0
LWPOLYLINE
  5
DE2C
330
1F
100
AcDbEntity
  8
DETAILS
 62
     6
370
    20
100
AcDbPolyline
 90
       10
 70
     1
 43
0.0
 10
-209.4976652575235
 20
337.8372652134938
 10
-211.8606388885121
 20
337.8372652134938
 10
-211.933934593669
 20
337.820698034119
 42
0.7807764064044151
 10
-211.933934593669
 20
337.8163323928687
 10
-211.8606388885121
 20
337.7997652134939
 10
-209.4976652575235
 20
337.7997652134939
 10
-207.1346916265349
 20
337.7997652134939
 10
-207.0613959213799
 20
337.8163323928687
 42
0.7807764064044151
 10
-207.0613959213799
 20
337.820698034119
 10
-207.1346916265349
 20
337.8372652134938
  0
LWPOLYLINE
  5
DE2D
330
1F
100
AcDbEntity
  8
DETAILS
 62
     6
370
    20
100
AcDbPolyline
 90
        7
 70
     0
 43
0.0
 10
-206.4976652575253
 20
337.2377388444873
 10
-206.775224635124
 20
337.5152982220833
 42
0.1989123673781766
 10
-206.8282576437116
 20
337.5372652134936
 10
-209.4976652575235
 20
337.5372652134938
 10
-212.1670728713354
 20
337.5372652134936
 42
0.1989123673781765
 10
-212.2201058799249
 20
337.5152982220833
 10
-212.4976652575235
 20
337.237738844485
  0
LWPOLYLINE
  5
DE2E
330
1F
100
AcDbEntity
  8
DETAILS
 62
     6
370
    20
100
AcDbPolyline
 90
        7
 70
     0
 43
0.0
 10
-206.4976652575235
 20
337.0877388444886
 10
-206.6873566694805
 20
337.2774302564406
 42
0.1989123673777966
 10
-206.9525217124239
 20
337.387265213494
 10
-209.4976652575235
 20
337.387265213494
 10
-212.0428088026249
 20
337.387265213494
 42
0.1989123673777966
 10
-212.3079738455665
 20
337.2774302564406
 10
-212.4976652575235
 20
337.0877388444859
  0
LWPOLYLINE
  5
DE2F
330
1F
100
AcDbEntity
  8
DETAILS
 62
     6
370
    20
100
AcDbPolyline
 90
        4
 70
     0
 43
0.0
 10
-207.3554165315102
 20
338.0247652134938
 10
-206.9525217124239
 20
338.0247652134938
 42
0.1989123673788307
 10
-206.6873566694805
 20
338.1346001705481
 10
-206.4976652575253
 20
338.3242915825024
  0
LWPOLYLINE
  5
DE30
330
1F
100
AcDbEntity
  8
DETAILS
 62
     6
370
    20
100
AcDbPolyline
 90
        4
 70
     0
 43
0.0
 10
-206.4976652575253
 20
337.9867915825033
 10
-206.6988921136501
 20
337.7855647263771
 42
0.4142135623745727
 10
-206.6988921136501
 20
337.6264657006098
 10
-206.4976652575235
 20
337.4252388444855
  0
LWPOLYLINE
  5
DE31
330
1F
100
AcDbEntity
  8
DETAILS
 62
     6
370
    20
100
AcDbPolyline
 90
        6
 70
     1
 43
0.0
 10
-209.4976652575235
 20
337.762265213494
 10
-206.8721916265342
 20
337.762265213494
 10
-206.8721916265342
 20
337.6497652134938
 10
-209.4976652575235
 20
337.6497652134938
 10
-212.1231388885128
 20
337.6497652134938
 10
-212.1231388885128
 20
337.762265213494
  0
LWPOLYLINE
  5
DE32
330
1F
100
AcDbEntity
  8
DETAILS
 62
     6
370
    20
100
AcDbPolyline
 90
        2
 70
     1
 43
0.0
 10
-209.7588503292984
 20
333.3747652134937
 10
-209.7452233553297
 20
333.3747652134937
  0
LWPOLYLINE
  5
DE33
330
1F
100
AcDbEntity
  8
DETAILS
 62
     6
370
    20
100
AcDbPolyline
 90
        6
 70
     0
 43
0.0
 10
-209.7452233553297
 20
333.3747652134937
 42
0.279322065306064
 10
-209.7119831777829
 20
333.3949060471089
 42
-0.2793220653060734
 10
-209.4976652575235
 20
333.5247652134938
 10
-212.1670728713354
 20
333.5247652134938
 42
0.1989123673782987
 10
-212.2201058799249
 20
333.502798222083
 10
-212.4976652575235
 20
333.2252388444847
  0
LWPOLYLINE
  5
DE34
330
1F
100
AcDbEntity
  8
DETAILS
 62
     6
370
    20
100
AcDbPolyline
 90
        2
 70
     1
 43
0.0
 10
-209.8338503292991
 20
333.3747652134937
 10
-210.8838503292984
 20
333.3747652134937
  0
LWPOLYLINE
  5
DE35
330
1F
100
AcDbEntity
  8
DETAILS
 62
     6
370
    20
100
AcDbPolyline
 90
        6
 70
     0
 43
0.0
 10
-210.9200178609837
 20
333.5247652134938
 10
-210.7614449549303
 20
332.8671052958869
 42
0.3464949689054692
 10
-210.6156238995438
 20
332.7522652134938
 10
-209.9838503292988
 20
332.7522652134938
 42
0.4142135623730951
 10
-209.8338503292973
 20
332.9022652134939
 10
-209.8338503292973
 20
333.5247652134938
  0
LWPOLYLINE
  5
DE36
330
1F
100
AcDbEntity
  8
DETAILS
 62
     6
370
    20
100
AcDbPolyline
 90
        6
 70
     0
 43
0.0
 10
-210.9971672134573
 20
333.5247652134938
 10
-210.8343554826236
 20
332.8495253370836
 42
0.3464949689054692
 10
-210.6156238995438
 20
332.677265213494
 10
-209.9838503292988
 20
332.677265213494
 42
0.4142135623730951
 10
-209.7588503292984
 20
332.9022652134939
 10
-209.7588503292984
 20
333.5247652134938
  0
LWPOLYLINE
  5
DE37
330
1F
100
AcDbEntity
  8
DETAILS
 62
     6
370
    20
100
AcDbPolyline
 90
        2
 70
     1
 43
0.0
 10
-210.9609996817719
 20
333.3747652134937
 10
-210.9746266557406
 20
333.3747652134937
  0
LWPOLYLINE
  5
DE38
330
1F
100
AcDbEntity
  8
DETAILS
 62
     6
370
    20
100
AcDbPolyline
 90
        6
 70
     0
 43
0.0
 10
-211.4697428513511
 20
333.3747652134937
 10
-211.5396198253213
 20
333.3747652134937
 10
-211.4697428513511
 20
333.3747652134937
 42
0.2793220653054726
 10
-211.4365026738044
 20
333.3949060471089
 42
-0.6059183769079624
 10
-211.0078668325689
 20
333.394906047485
 42
0.279322065306064
 10
-210.9746266557406
 20
333.3747652134937
  0
LWPOLYLINE
  5
DE39
330
1F
100
AcDbEntity
  8
DETAILS
 62
     6
370
    20
100
AcDbPolyline
 90
        7
 70
     0
 43
0.0
 10
-212.4976652575235
 20
332.7747652134938
 10
-211.6571401579324
 20
332.7747652134938
 42
0.4853378929632635
 10
-211.5331922608559
 20
332.9321511434594
 10
-211.6760815152222
 20
333.5247652134938
 10
-212.1231388885128
 20
333.5247652134938
 10
-211.9356388885128
 20
333.5247652134938
 10
-211.8606388885121
 20
333.5247652134938
  0
LWPOLYLINE
  5
DE3A
330
1F
100
AcDbEntity
  8
DETAILS
 62
     6
370
    20
100
AcDbPolyline
 90
        4
 70
     0
 43
0.0
 10
-212.4976652575235
 20
332.677265213494
 10
-211.6571401579324
 20
332.677265213494
 42
0.4853378929632635
 10
-211.4384085748545
 20
332.9550050899041
 10
-211.5757873570067
 20
333.5247652134938
  0
LWPOLYLINE
  5
DE3B
330
1F
100
AcDbEntity
  8
DETAILS
 62
     6
370
    20
100
AcDbPolyline
 90
        4
 70
     0
 43
0.0
 10
-211.6399139835368
 20
333.3747652134937
 10
-212.0428088026231
 20
333.3747652134937
 42
0.1989123673788306
 10
-212.3079738455665
 20
333.2649302564397
 10
-212.4976652575235
 20
333.0752388444835
  0
LWPOLYLINE
  5
DE3C
330
1F
100
AcDbEntity
  8
DETAILS
 62
     6
370
    20
100
AcDbPolyline
 90
        4
 70
     0
 43
0.0
 10
-212.4976652575235
 20
333.4127388444829
 10
-212.2964384013969
 20
333.6139657006104
 42
0.4142135623745727
 10
-212.2964384013969
 20
333.7730647263778
 10
-212.4976652575235
 20
333.9742915825044
  0
LWPOLYLINE
  5
DE3D
330
1F
100
AcDbEntity
  8
DETAILS
 62
     6
370
    20
100
AcDbPolyline
 90
        2
 70
     1
 43
0.0
 10
-209.7588503292984
 20
338.0247652134938
 10
-209.7452233553297
 20
338.0247652134938
  0
LWPOLYLINE
  5
DE3E
330
1F
100
AcDbEntity
  8
DETAILS
 62
     6
370
    20
100
AcDbPolyline
 90
        6
 70
     0
 43
0.0
 10
-212.4976652575235
 20
338.1742915825028
 10
-212.2201058799249
 20
337.8967322049046
 42
0.1989123673782989
 10
-212.1670728713354
 20
337.8747652134937
 10
-209.4976652575235
 20
337.8747652134937
 42
-0.2793220653060733
 10
-209.7119831785014
 20
338.004624379503
 42
0.279322065306064
 10
-209.7452233553297
 20
338.0247652134938
  0
LWPOLYLINE
  5
DE3F
330
1F
100
AcDbEntity
  8
DETAILS
 62
     6
370
    20
100
AcDbPolyline
 90
        2
 70
     1
 43
0.0
 10
-209.8338503292991
 20
338.0247652134938
 10
-210.8838503292984
 20
338.0247652134938
  0
LWPOLYLINE
  5
DE40
330
1F
100
AcDbEntity
  8
DETAILS
 62
     6
370
    20
100
AcDbPolyline
 90
        6
 70
     0
 43
0.0
 10
-209.8338503292973
 20
337.8747652134939
 10
-209.8338503292991
 20
338.4972652134939
 42
0.4142135623730951
 10
-209.9838503292988
 20
338.6472652134937
 10
-210.6156238995438
 20
338.6472652134937
 42
0.3464949689054692
 10
-210.7614449549303
 20
338.5324251311006
 10
-210.9200178609837
 20
337.8747652134937
  0
LWPOLYLINE
  5
DE41
330
1F
100
AcDbEntity
  8
DETAILS
 62
     6
370
    20
100
AcDbPolyline
 90
        6
 70
     0
 43
0.0
 10
-209.7588503292984
 20
337.8747652134939
 10
-209.7588503292984
 20
338.4972652134939
 42
0.4142135623730951
 10
-209.9838503292988
 20
338.7222652134941
 10
-210.6156238995438
 20
338.7222652134941
 42
0.3464949689054692
 10
-210.8343554826236
 20
338.5500050899044
 10
-210.9971672134573
 20
337.8747652134937
  0
LWPOLYLINE
  5
DE42
330
1F
100
AcDbEntity
  8
DETAILS
 62
     6
370
    20
100
AcDbPolyline
 90
        2
 70
     1
 43
0.0
 10
-210.9609996817719
 20
338.0247652134938
 10
-210.9746266557406
 20
338.0247652134938
  0
LWPOLYLINE
  5
DE43
330
1F
100
AcDbEntity
  8
DETAILS
 62
     6
370
    20
100
AcDbPolyline
 90
        6
 70
     0
 43
0.0
 10
-210.9746266557406
 20
338.0247652134938
 42
0.279322065306064
 10
-211.0078668332874
 20
338.0046243798791
 42
-0.6059183769079624
 10
-211.4365026745247
 20
338.004624379503
 42
0.2793220653054726
 10
-211.4697428513511
 20
338.0247652134938
 10
-211.5396198253213
 20
338.0247652134938
 10
-211.4697428513511
 20
338.0247652134938
  0
LWPOLYLINE
  5
DE44
330
1F
100
AcDbEntity
  8
DETAILS
 62
     6
370
    20
100
AcDbPolyline
 90
        7
 70
     0
 43
0.0
 10
-211.8606388885121
 20
337.8747652134937
 10
-211.9356388885128
 20
337.8747652134937
 10
-212.1231388885128
 20
337.8747652134937
 10
-211.6760815152222
 20
337.8747652134937
 10
-211.5331922608559
 20
338.4673792835282
 42
0.4853378929632635
 10
-211.6571401579324
 20
338.6247652134937
 10
-212.4976652575254
 20
338.6247652134937
  0
LWPOLYLINE
  5
DE45
330
1F
100
AcDbEntity
  8
DETAILS
 62
     6
370
    20
100
AcDbPolyline
 90
        4
 70
     0
 43
0.0
 10
-211.5757873570067
 20
337.8747652134937
 10
-211.4384085748545
 20
338.4445253370839
 42
0.4853378929632635
 10
-211.6571401579324
 20
338.7222652134941
 10
-212.4976652575254
 20
338.7222652134941
  0
LWPOLYLINE
  5
DE46
330
1F
100
AcDbEntity
  8
DETAILS
 62
     6
370
    20
100
AcDbPolyline
 90
        4
 70
     0
 43
0.0
 10
-212.4976652575235
 20
338.3242915825047
 10
-212.3079738455665
 20
338.1346001705481
 42
0.1989123673788307
 10
-212.0428088026231
 20
338.0247652134938
 10
-211.6399139835368
 20
338.0247652134938
  0
LWPOLYLINE
  5
DE47
330
1F
100
AcDbEntity
  8
DETAILS
 62
     6
370
    20
100
AcDbPolyline
 90
        4
 70
     0
 43
0.0
 10
-212.4976652575235
 20
337.4252388444832
 10
-212.2964384013969
 20
337.6264657006098
 42
0.4142135623745727
 10
-212.2964384013969
 20
337.7855647263771
 10
-212.4976652575254
 20
337.9867915825053
  0
LINE
  5
DE48
330
1F
100
AcDbEntity
  8
0
 62
     1
100
AcDbLine
 10
-214.4955166137745
 20
329.449765213494
 30
0.0
 11
-214.4955166137745
 21
318.5125274453481
 31
0.0
  0
LINE
  5
DE49
330
1F
100
AcDbEntity
  8
0
 62
     1
100
AcDbLine
 10
-204.4998139012725
 20
329.449765213494
 30
0.0
 11
-204.4998139012725
 21
321.9024963214673
 31
0.0
  0
LINE
  5
DE4A
330
1F
100
AcDbEntity
  8
0
 62
     1
100
AcDbLine
 10
-214.4955166137745
 20
329.449765213494
 30
0.0
 11
-212.9455166137734
 21
329.449765213494
 31
0.0
  0
LINE
  5
DE4B
330
1F
100
AcDbEntity
  8
0
 62
     1
100
AcDbLine
 10
-212.4955166137745
 20
329.949765213494
 30
0.0
 11
-212.4955166137745
 21
319.190812699246
 31
0.0
  0
LINE
  5
DE4C
330
1F
100
AcDbEntity
  8
0
 62
     1
100
AcDbLine
 10
-206.4998139012744
 20
329.949765213494
 30
0.0
 11
-206.4998139012744
 21
321.2242110675691
 31
0.0
  0
LINE
  5
DE4D
330
1F
100
AcDbEntity
  8
0
 62
     1
100
AcDbLine
 10
-214.1455166137741
 20
329.949765213494
 30
0.0
 11
-213.5205166137741
 21
329.949765213494
 31
0.0
  0
LINE
  5
DE4E
330
1F
100
AcDbEntity
  8
0
 62
     1
100
AcDbLine
 10
-214.1455166137741
 20
329.949765213494
 30
0.0
 11
-214.1455166137741
 21
318.6312273647803
 31
0.0
  0
LINE
  5
DE4F
330
1F
100
AcDbEntity
  8
0
 62
     1
100
AcDbLine
 10
-204.8498139012729
 20
329.949765213494
 30
0.0
 11
-204.8498139012729
 21
329.449765213494
 31
0.0
  0
LINE
  5
DE50
330
1F
100
AcDbEntity
  8
0
 62
     1
100
AcDbLine
 10
-213.1205166137745
 20
329.949765213494
 30
0.0
 11
-213.1205166137763
 21
329.449765213494
 31
0.0
  0
LINE
  5
DE51
330
1F
100
AcDbEntity
  8
0
 62
     1
100
AcDbLine
 10
-213.5205166137741
 20
329.949765213494
 30
0.0
 11
-213.5205166137741
 21
329.449765213494
 31
0.0
  0
LINE
  5
DE52
330
1F
100
AcDbEntity
  8
0
 62
     1
100
AcDbLine
 10
-205.8748139012744
 20
329.949765213494
 30
0.0
 11
-205.8748139012744
 21
329.449765213494
 31
0.0
  0
LINE
  5
DE53
330
1F
100
AcDbEntity
  8
0
 62
     1
100
AcDbLine
 10
-205.4748139012729
 20
329.949765213494
 30
0.0
 11
-205.4748139012729
 21
329.449765213494
 31
0.0
  0
LINE
  5
DE54
330
1F
100
AcDbEntity
  8
0
 62
     1
100
AcDbLine
 10
-206.4998139012744
 20
329.949765213494
 30
0.0
 11
-205.8748139012744
 21
329.949765213494
 31
0.0
  0
LINE
  5
DE55
330
1F
100
AcDbEntity
  8
0
 62
     1
100
AcDbLine
 10
-205.4748139012729
 20
329.949765213494
 30
0.0
 11
-204.8498139012729
 21
329.949765213494
 31
0.0
  0
LINE
  5
DE56
330
1F
100
AcDbEntity
  8
0
 62
     1
100
AcDbLine
 10
-213.1205166137763
 20
329.949765213494
 30
0.0
 11
-212.4955166137763
 21
329.949765213494
 31
0.0
  0
LINE
  5
DE57
330
1F
100
AcDbEntity
  8
0
 62
     1
100
AcDbLine
 10
-212.6955166137752
 20
329.699765213494
 30
0.0
 11
-212.6955166137752
 21
319.1229841738562
 31
0.0
  0
LINE
  5
DE58
330
1F
100
AcDbEntity
  8
0
 62
     1
100
AcDbLine
 10
-206.2998139012736
 20
329.699765213494
 30
0.0
 11
-206.2998139012736
 21
321.292039592959
 31
0.0
  0
LINE
  5
DE59
330
1F
100
AcDbEntity
  8
0
 62
     1
100
AcDbLine
 10
-212.9455166137752
 20
329.699765213494
 30
0.0
 11
-212.9455166137752
 21
329.449765213494
 31
0.0
  0
LINE
  5
DE5A
330
1F
100
AcDbEntity
  8
0
 62
     1
100
AcDbLine
 10
-206.0498139012736
 20
329.699765213494
 30
0.0
 11
-206.0498139012736
 21
329.449765213494
 31
0.0
  0
LINE
  5
DE5B
330
1F
100
AcDbEntity
  8
0
 62
     1
100
AcDbLine
 10
-212.9455166137752
 20
329.699765213494
 30
0.0
 11
-212.6955166137752
 21
329.699765213494
 31
0.0
  0
LINE
  5
DE5C
330
1F
100
AcDbEntity
  8
0
 62
     1
100
AcDbLine
 10
-206.2998139012736
 20
329.699765213494
 30
0.0
 11
-206.0498139012736
 21
329.699765213494
 31
0.0
  0
LINE
  5
DE5D
330
1F
100
AcDbEntity
  8
0
 62
     1
100
AcDbLine
 10
-206.0848139012735
 20
329.449765213494
 30
0.0
 11
-204.4998139012725
 21
329.449765213494
 31
0.0
  0
LINE
  5
DE5E
330
1F
100
AcDbEntity
  8
0
 62
     1
100
AcDbLine
 10
-212.6955166137752
 20
329.449765213494
 30
0.0
 11
-212.4955166137763
 21
329.449765213494
 31
0.0
  0
LINE
  5
DE5F
330
1F
100
AcDbEntity
  8
0
 62
     1
100
AcDbLine
 10
-206.0848139012735
 20
329.449765213494
 30
0.0
 11
-206.0848139012735
 21
321.3649552577529
 31
0.0
  0
LINE
  5
DE60
330
1F
100
AcDbEntity
  8
0
 62
     1
100
AcDbLine
 10
-205.2648139012738
 20
329.449765213494
 30
0.0
 11
-205.2648139012738
 21
321.6430522118513
 31
0.0
  0
LINE
  5
DE61
330
1F
100
AcDbEntity
  8
A2 Hatch
  6
DASHED2
 48
0.15
100
AcDbLine
 10
-205.9248139012737
 20
329.449765213494
 30
0.0
 11
-205.9248139012737
 21
321.419218078065
 31
0.0
  0
LINE
  5
DE62
330
1F
100
AcDbEntity
  8
A2 Hatch
  6
DASHED2
 48
0.15
100
AcDbLine
 10
-205.4248139012736
 20
329.449765213494
 30
0.0
 11
-205.4248139012736
 21
321.5887893915395
 31
0.0
  0
LINE
  5
DE63
330
1F
100
AcDbEntity
  8
0
 48
0.15
100
AcDbLine
 10
-213.5205166137741
 20
329.449765213494
 30
0.0
 11
-213.1205166137745
 21
329.449765213494
 31
0.0
  0
LINE
  5
DE64
330
1F
100
AcDbEntity
  8
A2 Hatch
  6
DASHED2
 48
0.15
100
AcDbLine
 10
-213.7305166137751
 20
329.949765213494
 30
0.0
 11
-213.7305166137751
 21
318.7719715549641
 31
0.0
  0
LINE
  5
DE65
330
1F
100
AcDbEntity
  8
A2 Hatch
  6
DASHED2
 48
0.15
100
AcDbLine
 10
-212.9105166137754
 20
329.949765213494
 30
0.0
 11
-212.9105166137736
 21
319.0500685090622
 31
0.0
  0
LINE
  5
DE66
330
1F
100
AcDbEntity
  8
0
 62
     1
100
AcDbLine
 10
-213.5705166137734
 20
329.949765213494
 30
0.0
 11
-213.5705166137734
 21
318.8262343752761
 31
0.0
  0
LINE
  5
DE67
330
1F
100
AcDbEntity
  8
0
 62
     1
100
AcDbLine
 10
-213.0705166137734
 20
329.949765213494
 30
0.0
 11
-213.0705166137734
 21
318.9958056887506
 31
0.0
  0
LINE
  5
DE68
330
1F
100
AcDbEntity
  8
0
 62
     1
100
AcDbLine
 10
-213.0705166137734
 20
329.449765213494
 30
0.0
 11
-213.5705166137752
 21
329.449765213494
 31
0.0
  0
LINE
  5
DE69
330
1F
100
AcDbEntity
  8
0
 62
     1
100
AcDbLine
 10
-206.4998139012744
 20
329.449765213494
 30
0.0
 11
-206.2998139012736
 21
329.449765213494
 31
0.0
  0
LWPOLYLINE
  5
DE6A
330
1F
100
AcDbEntity
  8
DETAILS
 62
     6
370
    20
100
AcDbPolyline
 90
        2
 70
     1
 43
0.0
 10
-209.2364801857486
 20
321.3747652134937
 10
-209.2501071597173
 20
321.3747652134937
  0
LWPOLYLINE
  5
DE6B
330
1F
100
AcDbEntity
  8
DETAILS
 62
     6
370
    20
100
AcDbPolyline
 90
        6
 70
     0
 43
0.0
 10
-206.4976652575235
 20
321.2252388444866
 10
-206.775224635124
 20
321.502798222083
 42
0.1989123673782988
 10
-206.8282576437116
 20
321.5247652134938
 10
-209.4976652575235
 20
321.5247652134938
 42
-0.2793220653060733
 10
-209.2833473365456
 20
321.394906047485
 42
0.279322065306064
 10
-209.2501071597173
 20
321.3747652134937
  0
LWPOLYLINE
  5
DE6C
330
1F
100
AcDbEntity
  8
DETAILS
 62
     6
370
    20
100
AcDbPolyline
 90
        2
 70
     1
 43
0.0
 10
-209.1614801857497
 20
321.3747652134937
 10
-208.1114801857486
 20
321.3747652134937
  0
LWPOLYLINE
  5
DE6D
330
1F
100
AcDbEntity
  8
DETAILS
 62
     6
370
    20
100
AcDbPolyline
 90
        6
 70
     0
 43
0.0
 10
-209.1614801857497
 20
321.5247652134938
 10
-209.1614801857497
 20
320.9022652134939
 42
0.4142135623730951
 10
-209.0114801857483
 20
320.7522652134938
 10
-208.3797066155032
 20
320.7522652134938
 42
0.3464949689054693
 10
-208.2338855601185
 20
320.8671052958869
 10
-208.0753126540651
 20
321.5247652134938
  0
LWPOLYLINE
  5
DE6E
330
1F
100
AcDbEntity
  8
DETAILS
 62
     6
370
    20
100
AcDbPolyline
 90
        6
 70
     0
 43
0.0
 10
-209.2364801857505
 20
321.5247652134938
 10
-209.2364801857486
 20
320.9022652134939
 42
0.4142135623730951
 10
-209.0114801857483
 20
320.677265213494
 10
-208.3797066155032
 20
320.677265213494
 42
0.3464949689054693
 10
-208.1609750324235
 20
320.8495253370837
 10
-207.9981633015916
 20
321.5247652134938
  0
LWPOLYLINE
  5
DE6F
330
1F
100
AcDbEntity
  8
DETAILS
 62
     6
370
    20
100
AcDbPolyline
 90
        2
 70
     1
 43
0.0
 10
-208.034330833277
 20
321.3747652134937
 10
-208.0207038593064
 20
321.3747652134937
  0
LWPOLYLINE
  5
DE70
330
1F
100
AcDbEntity
  8
DETAILS
 62
     6
370
    20
100
AcDbPolyline
 90
        6
 70
     0
 43
0.0
 10
-208.0207038593064
 20
321.3747652134937
 42
0.279322065306064
 10
-207.9874636817597
 20
321.3949060471089
 42
-0.6059183769079624
 10
-207.5588278405223
 20
321.394906047485
 42
0.2793220653054726
 10
-207.5255876636977
 20
321.3747652134937
 10
-207.4557106897257
 20
321.3747652134937
 10
-207.5255876636977
 20
321.3747652134937
  0
LWPOLYLINE
  5
DE71
330
1F
100
AcDbEntity
  8
DETAILS
 62
     6
370
    20
100
AcDbPolyline
 90
        6
 70
     0
 43
0.0
 10
-207.1346916265349
 20
321.5247652134938
 10
-207.0596916265342
 20
321.5247652134938
 10
-206.8721916265342
 20
321.5247652134938
 10
-207.3192489998248
 20
321.5247652134938
 10
-207.462138254193
 20
320.9321511434594
 42
0.070214929131392
 10
-207.4655680830613
 20
320.8966826573708
 42
0.070214929131392
  0
LWPOLYLINE
  5
DE72
330
1F
100
AcDbEntity
  8
DETAILS
 62
     6
370
    20
100
AcDbPolyline
 90
        3
 70
     0
 43
0.0
 10
-207.4195431580404
 20
321.5247652134938
 10
-207.5569219401943
 20
320.9550050899041
 42
0.1014897671540238
 10
-207.5600236323346
 20
320.8646487542599
 42
0.1014897671540238
  0
LWPOLYLINE
  5
DE73
330
1F
100
AcDbEntity
  8
DETAILS
 62
     6
370
    20
100
AcDbPolyline
 90
        8
 70
     0
 43
0.0
 10
-210.1126233541393
 20
321.5622652134937
 10
-209.4976652575235
 20
321.5622652134937
 10
-207.1346916265349
 20
321.5622652134937
 10
-207.0613959213799
 20
321.5788323928685
 42
0.7807764064044151
 10
-207.0613959213799
 20
321.5831980341191
 10
-207.1346916265349
 20
321.5997652134936
 10
-209.4976652575235
 20
321.5997652134936
 10
-210.1501233541396
 20
321.5997652134936
  0
LWPOLYLINE
  5
DE74
330
1F
100
AcDbEntity
  8
DETAILS
 62
     6
370
    20
100
AcDbPolyline
 90
        4
 70
     0
 43
0.0
 10
-212.4976652575235
 20
322.1617915825025
 10
-212.2201058799249
 20
321.8842322049048
 42
0.1989123673781765
 10
-212.1670728713354
 20
321.8622652134939
 10
-210.9615972299045
 20
321.8622652134939
  0
LWPOLYLINE
  5
DE75
330
1F
100
AcDbEntity
  8
DETAILS
 62
     6
370
    20
100
AcDbPolyline
 90
        4
 70
     0
 43
0.0
 10
-212.4976652575235
 20
322.3117915825017
 10
-212.3079738455665
 20
322.1221001705469
 42
0.1989123673777967
 10
-212.0428088026249
 20
322.012265213494
 10
-211.0124686239462
 20
322.012265213494
  0
LWPOLYLINE
  5
DE76
330
1F
100
AcDbEntity
  8
DETAILS
 62
     6
370
    20
100
AcDbPolyline
 90
        4
 70
     0
 43
0.0
 10
-206.6094538876198
 20
321.1870274745805
 10
-206.6873566694805
 20
321.2649302564396
 42
0.1989123673788307
 10
-206.9525217124239
 20
321.3747652134937
 10
-207.3554165315102
 20
321.3747652134937
  0
LWPOLYLINE
  5
DE77
330
1F
100
AcDbEntity
  8
DETAILS
 62
     6
370
    20
100
AcDbPolyline
 90
        4
 70
     0
 43
0.0
 10
-206.4976652575235
 20
321.974291582503
 10
-206.6988921136501
 20
321.7730647263778
 42
0.4142135623745727
 10
-206.6988921136501
 20
321.6139657006104
 10
-206.4976652575235
 20
321.4127388444843
  0
LWPOLYLINE
  5
DE78
330
1F
100
AcDbEntity
  8
DETAILS
 62
     6
370
    20
100
AcDbPolyline
 90
        6
 70
     0
 43
0.0
 10
-210.18762335414
 20
321.637265213494
 10
-209.4976652575235
 20
321.637265213494
 10
-206.8721916265342
 20
321.6372652134938
 10
-206.8721916265342
 20
321.7497652134937
 10
-209.4976652575235
 20
321.7497652134937
 10
-210.3001233541393
 20
321.7497652134937
  0
LWPOLYLINE
  5
DE79
330
1F
100
AcDbEntity
  8
DETAILS
 62
     6
370
    20
100
AcDbPolyline
 90
        2
 70
     1
 43
0.0
 10
-209.2364801857486
 20
326.0247652134938
 10
-209.2501071597173
 20
326.0247652134938
  0
LWPOLYLINE
  5
DE7A
330
1F
100
AcDbEntity
  8
DETAILS
 62
     6
370
    20
100
AcDbPolyline
 90
        6
 70
     0
 43
0.0
 10
-209.2501071597173
 20
326.0247652134938
 42
0.279322065306064
 10
-209.2833473372659
 20
326.0046243798791
 42
-0.2793220653060733
 10
-209.4976652575235
 20
325.8747652134937
 10
-206.8282576437116
 20
325.8747652134937
 42
0.1989123673782991
 10
-206.775224635124
 20
325.8967322049046
 10
-206.4976652575253
 20
326.174291582501
  0
LWPOLYLINE
  5
DE7B
330
1F
100
AcDbEntity
  8
DETAILS
 62
     6
370
    20
100
AcDbPolyline
 90
        2
 70
     1
 43
0.0
 10
-209.1614801857497
 20
326.0247652134938
 10
-208.1114801857486
 20
326.0247652134938
  0
LWPOLYLINE
  5
DE7C
330
1F
100
AcDbEntity
  8
DETAILS
 62
     6
370
    20
100
AcDbPolyline
 90
        6
 70
     0
 43
0.0
 10
-208.0753126540651
 20
325.8747652134937
 10
-208.2338855601185
 20
326.5324251311006
 42
0.3464949689054692
 10
-208.3797066155032
 20
326.6472652134938
 10
-209.0114801857483
 20
326.6472652134938
 42
0.4142135623730951
 10
-209.1614801857497
 20
326.4972652134939
 10
-209.1614801857497
 20
325.8747652134939
  0
LWPOLYLINE
  5
DE7D
330
1F
100
AcDbEntity
  8
DETAILS
 62
     6
370
    20
100
AcDbPolyline
 90
        6
 70
     0
 43
0.0
 10
-207.9981633015916
 20
325.8747652134937
 10
-208.1609750324235
 20
326.5500050899043
 42
0.3464949689054692
 10
-208.3797066155032
 20
326.7222652134941
 10
-209.0114801857483
 20
326.7222652134941
 42
0.4142135623730951
 10
-209.2364801857486
 20
326.4972652134939
 10
-209.2364801857505
 20
325.8747652134939
  0
LWPOLYLINE
  5
DE7E
330
1F
100
AcDbEntity
  8
DETAILS
 62
     6
370
    20
100
AcDbPolyline
 90
        2
 70
     1
 43
0.0
 10
-208.034330833277
 20
326.0247652134938
 10
-208.0207038593064
 20
326.0247652134938
  0
LWPOLYLINE
  5
DE7F
330
1F
100
AcDbEntity
  8
DETAILS
 62
     6
370
    20
100
AcDbPolyline
 90
        6
 70
     0
 43
0.0
 10
-207.5255876636977
 20
326.0247652134938
 10
-207.4557106897257
 20
326.0247652134938
 10
-207.5255876636977
 20
326.0247652134938
 42
0.2793220653054726
 10
-207.5588278412427
 20
326.0046243798789
 42
-0.6059183769079625
 10
-207.98746368248
 20
326.004624379503
 42
0.279322065306064
 10
-208.0207038593064
 20
326.0247652134938
  0
LWPOLYLINE
  5
DE80
330
1F
100
AcDbEntity
  8
DETAILS
 62
     6
370
    20
100
AcDbPolyline
 90
        7
 70
     0
 43
0.0
 10
-206.4976652575235
 20
326.6247652134937
 10
-207.3381903571146
 20
326.6247652134937
 42
0.4853378929632635
 10
-207.4621382541911
 20
326.4673792835282
 10
-207.3192489998248
 20
325.8747652134937
 10
-206.8721916265342
 20
325.8747652134937
 10
-207.0596916265342
 20
325.8747652134937
 10
-207.1346916265349
 20
325.8747652134937
  0
LWPOLYLINE
  5
DE81
330
1F
100
AcDbEntity
  8
DETAILS
 62
     6
370
    20
100
AcDbPolyline
 90
        4
 70
     0
 43
0.0
 10
-206.4976652575235
 20
326.7222652134941
 10
-207.3381903571146
 20
326.7222652134941
 42
0.4853378929632635
 10
-207.5569219401943
 20
326.4445253370839
 10
-207.4195431580404
 20
325.8747652134937
  0
LWPOLYLINE
  5
DE82
330
1F
100
AcDbEntity
  8
DETAILS
 62
     6
370
    20
100
AcDbPolyline
 90
       10
 70
     1
 43
0.0
 10
-209.4976652575235
 20
325.8372652134938
 10
-211.8606388885121
 20
325.8372652134938
 10
-211.933934593669
 20
325.8206980341191
 42
0.7807764064044151
 10
-211.933934593669
 20
325.8163323928687
 10
-211.8606388885121
 20
325.7997652134939
 10
-209.4976652575235
 20
325.7997652134939
 10
-207.1346916265349
 20
325.7997652134939
 10
-207.0613959213799
 20
325.8163323928687
 42
0.7807764064044151
 10
-207.0613959213799
 20
325.8206980341191
 10
-207.1346916265349
 20
325.8372652134938
  0
LWPOLYLINE
  5
DE83
330
1F
100
AcDbEntity
  8
DETAILS
 62
     6
370
    20
100
AcDbPolyline
 90
        7
 70
     0
 43
0.0
 10
-206.4976652575253
 20
325.2377388444873
 10
-206.775224635124
 20
325.5152982220832
 42
0.1989123673781766
 10
-206.8282576437116
 20
325.5372652134937
 10
-209.4976652575235
 20
325.5372652134939
 10
-212.1670728713354
 20
325.5372652134937
 42
0.1989123673781765
 10
-212.2201058799249
 20
325.5152982220832
 10
-212.4976652575235
 20
325.237738844485
  0
LWPOLYLINE
  5
DE84
330
1F
100
AcDbEntity
  8
DETAILS
 62
     6
370
    20
100
AcDbPolyline
 90
        7
 70
     0
 43
0.0
 10
-206.4976652575235
 20
325.0877388444886
 10
-206.6873566694805
 20
325.2774302564406
 42
0.1989123673777966
 10
-206.9525217124239
 20
325.387265213494
 10
-209.4976652575235
 20
325.387265213494
 10
-212.0428088026249
 20
325.387265213494
 42
0.1989123673777966
 10
-212.3079738455665
 20
325.2774302564406
 10
-212.4976652575235
 20
325.0877388444858
  0
LWPOLYLINE
  5
DE85
330
1F
100
AcDbEntity
  8
DETAILS
 62
     6
370
    20
100
AcDbPolyline
 90
        4
 70
     0
 43
0.0
 10
-207.3554165315102
 20
326.0247652134938
 10
-206.9525217124239
 20
326.0247652134938
 42
0.1989123673788307
 10
-206.6873566694805
 20
326.1346001705482
 10
-206.4976652575253
 20
326.3242915825025
  0
LWPOLYLINE
  5
DE86
330
1F
100
AcDbEntity
  8
DETAILS
 62
     6
370
    20
100
AcDbPolyline
 90
        4
 70
     0
 43
0.0
 10
-206.4976652575253
 20
325.9867915825032
 10
-206.6988921136501
 20
325.7855647263771
 42
0.4142135623745727
 10
-206.6988921136501
 20
325.6264657006098
 10
-206.4976652575235
 20
325.4252388444855
  0
LWPOLYLINE
  5
DE87
330
1F
100
AcDbEntity
  8
DETAILS
 62
     6
370
    20
100
AcDbPolyline
 90
        6
 70
     1
 43
0.0
 10
-209.4976652575235
 20
325.762265213494
 10
-206.8721916265342
 20
325.762265213494
 10
-206.8721916265342
 20
325.6497652134938
 10
-209.4976652575235
 20
325.6497652134938
 10
-212.1231388885128
 20
325.6497652134938
 10
-212.1231388885128
 20
325.762265213494
  0
LWPOLYLINE
  5
DE88
330
1F
100
AcDbEntity
  8
DETAILS
 62
     6
370
    20
100
AcDbPolyline
 90
        2
 70
     1
 43
0.0
 10
-209.7588503292984
 20
321.3747652134937
 10
-209.7452233553297
 20
321.3747652134937
  0
LWPOLYLINE
  5
DE89
330
1F
100
AcDbEntity
  8
DETAILS
 62
     6
370
    20
100
AcDbPolyline
 90
        4
 70
     0
 43
0.0
 10
-209.7452233553297
 20
321.3747652134937
 42
0.2793220653061314
 10
-209.7119831777829
 20
321.3949060471089
 42
-0.2793220653060734
 10
-209.4976652575235
 20
321.5247652134938
 10
-210.0751233541407
 20
321.5247652134938
  0
LWPOLYLINE
  5
DE8A
330
1F
100
AcDbEntity
  8
DETAILS
 62
     6
370
    20
100
AcDbPolyline
 90
        4
 70
     0
 43
0.0
 10
-210.9200178609837
 20
321.5247652134938
 10
-210.7614449549303
 20
320.8671052958869
 42
0.3464949689054692
 10
-210.6156238995438
 20
320.7522652134938
 10
-210.5851489139907
 20
320.7522652134938
  0
LWPOLYLINE
  5
DE8B
330
1F
100
AcDbEntity
  8
DETAILS
 62
     6
370
    20
100
AcDbPolyline
 90
        4
 70
     0
 43
0.0
 10
-210.9971672134573
 20
321.5247652134938
 10
-210.8343554826236
 20
320.8495253370837
 42
0.3464949689054692
 10
-210.6156238995438
 20
320.677265213494
 10
-210.5597132169708
 20
320.677265213494
  0
LWPOLYLINE
  5
DE8C
330
1F
100
AcDbEntity
  8
DETAILS
 62
     6
370
    20
100
AcDbPolyline
 90
        2
 70
     1
 43
0.0
 10
-210.9609996817719
 20
321.3747652134937
 10
-210.9746266557406
 20
321.3747652134937
  0
LWPOLYLINE
  5
DE8D
330
1F
100
AcDbEntity
  8
DETAILS
 62
     6
370
    20
100
AcDbPolyline
 90
        6
 70
     0
 43
0.0
 10
-211.4697428513511
 20
321.3747652134937
 10
-211.5396198253213
 20
321.3747652134937
 10
-211.4697428513511
 20
321.3747652134937
 42
0.2793220653054726
 10
-211.4365026738044
 20
321.3949060471089
 42
-0.6059183769079624
 10
-211.0078668325689
 20
321.394906047485
 42
0.279322065306064
 10
-210.9746266557406
 20
321.3747652134937
  0
LWPOLYLINE
  5
DE8E
330
1F
100
AcDbEntity
  8
DETAILS
 62
     6
370
    20
100
AcDbPolyline
 90
        7
 70
     0
 43
0.0
 10
-212.4976652575235
 20
320.7747652134938
 10
-211.6571401579324
 20
320.7747652134938
 42
0.4853378929632635
 10
-211.5331922608559
 20
320.9321511434594
 10
-211.6760815152222
 20
321.5247652134938
 10
-212.1231388885128
 20
321.5247652134938
 10
-211.9356388885128
 20
321.5247652134938
 10
-211.8606388885121
 20
321.5247652134938
  0
LWPOLYLINE
  5
DE8F
330
1F
100
AcDbEntity
  8
DETAILS
 62
     6
370
    20
100
AcDbPolyline
 90
        4
 70
     0
 43
0.0
 10
-212.4976652575235
 20
320.677265213494
 10
-211.6571401579324
 20
320.677265213494
 42
0.4853378929632635
 10
-211.4384085748545
 20
320.9550050899041
 10
-211.5757873570067
 20
321.5247652134938
  0
LWPOLYLINE
  5
DE90
330
1F
100
AcDbEntity
  8
DETAILS
 62
     6
370
    20
100
AcDbPolyline
 90
        4
 70
     0
 43
0.0
 10
-211.6399139835368
 20
321.3747652134937
 10
-212.0428088026231
 20
321.3747652134937
 42
0.1989123673788306
 10
-212.3079738455665
 20
321.2649302564396
 10
-212.4976652575235
 20
321.0752388444835
  0
LWPOLYLINE
  5
DE91
330
1F
100
AcDbEntity
  8
DETAILS
 62
     6
370
    20
100
AcDbPolyline
 90
        4
 70
     0
 43
0.0
 10
-212.4976652575235
 20
321.412738844483
 10
-212.2964384013969
 20
321.6139657006104
 42
0.4142135623745727
 10
-212.2964384013969
 20
321.7730647263778
 10
-212.4976652575235
 20
321.9742915825043
  0
LWPOLYLINE
  5
DE92
330
1F
100
AcDbEntity
  8
DETAILS
 62
     6
370
    20
100
AcDbPolyline
 90
        2
 70
     1
 43
0.0
 10
-209.7588503292984
 20
326.0247652134938
 10
-209.7452233553297
 20
326.0247652134938
  0
LWPOLYLINE
  5
DE93
330
1F
100
AcDbEntity
  8
DETAILS
 62
     6
370
    20
100
AcDbPolyline
 90
        6
 70
     0
 43
0.0
 10
-212.4976652575235
 20
326.1742915825028
 10
-212.2201058799249
 20
325.8967322049046
 42
0.1989123673782989
 10
-212.1670728713354
 20
325.8747652134937
 10
-209.4976652575235
 20
325.8747652134937
 42
-0.2793220653060733
 10
-209.7119831785014
 20
326.004624379503
 42
0.279322065306064
 10
-209.7452233553297
 20
326.0247652134938
  0
LWPOLYLINE
  5
DE94
330
1F
100
AcDbEntity
  8
DETAILS
 62
     6
370
    20
100
AcDbPolyline
 90
        2
 70
     1
 43
0.0
 10
-209.8338503292991
 20
326.0247652134938
 10
-210.8838503292984
 20
326.0247652134938
  0
LWPOLYLINE
  5
DE95
330
1F
100
AcDbEntity
  8
DETAILS
 62
     6
370
    20
100
AcDbPolyline
 90
        6
 70
     0
 43
0.0
 10
-209.8338503292973
 20
325.8747652134939
 10
-209.8338503292991
 20
326.4972652134939
 42
0.4142135623730951
 10
-209.9838503292988
 20
326.6472652134938
 10
-210.6156238995438
 20
326.6472652134938
 42
0.3464949689054692
 10
-210.7614449549303
 20
326.5324251311006
 10
-210.9200178609837
 20
325.8747652134937
  0
LWPOLYLINE
  5
DE96
330
1F
100
AcDbEntity
  8
DETAILS
 62
     6
370
    20
100
AcDbPolyline
 90
        6
 70
     0
 43
0.0
 10
-209.7588503292984
 20
325.8747652134939
 10
-209.7588503292984
 20
326.4972652134939
 42
0.4142135623730951
 10
-209.9838503292988
 20
326.7222652134941
 10
-210.6156238995438
 20
326.7222652134941
 42
0.3464949689054692
 10
-210.8343554826236
 20
326.5500050899043
 10
-210.9971672134573
 20
325.8747652134937
  0
LWPOLYLINE
  5
DE97
330
1F
100
AcDbEntity
  8
DETAILS
 62
     6
370
    20
100
AcDbPolyline
 90
        2
 70
     1
 43
0.0
 10
-210.9609996817719
 20
326.0247652134938
 10
-210.9746266557406
 20
326.0247652134938
  0
LWPOLYLINE
  5
DE98
330
1F
100
AcDbEntity
  8
DETAILS
 62
     6
370
    20
100
AcDbPolyline
 90
        6
 70
     0
 43
0.0
 10
-210.9746266557406
 20
326.0247652134938
 42
0.279322065306064
 10
-211.0078668332874
 20
326.0046243798791
 42
-0.6059183769079624
 10
-211.4365026745247
 20
326.004624379503
 42
0.2793220653054726
 10
-211.4697428513511
 20
326.0247652134938
 10
-211.5396198253213
 20
326.0247652134938
 10
-211.4697428513511
 20
326.0247652134938
  0
LWPOLYLINE
  5
DE99
330
1F
100
AcDbEntity
  8
DETAILS
 62
     6
370
    20
100
AcDbPolyline
 90
        7
 70
     0
 43
0.0
 10
-211.8606388885121
 20
325.8747652134937
 10
-211.9356388885128
 20
325.8747652134937
 10
-212.1231388885128
 20
325.8747652134937
 10
-211.6760815152222
 20
325.8747652134937
 10
-211.5331922608559
 20
326.4673792835282
 42
0.4853378929632635
 10
-211.6571401579324
 20
326.6247652134937
 10
-212.4976652575254
 20
326.6247652134937
  0
LWPOLYLINE
  5
DE9A
330
1F
100
AcDbEntity
  8
DETAILS
 62
     6
370
    20
100
AcDbPolyline
 90
        4
 70
     0
 43
0.0
 10
-211.5757873570067
 20
325.8747652134937
 10
-211.4384085748545
 20
326.4445253370839
 42
0.4853378929632635
 10
-211.6571401579324
 20
326.7222652134941
 10
-212.4976652575254
 20
326.7222652134941
  0
LWPOLYLINE
  5
DE9B
330
1F
100
AcDbEntity
  8
DETAILS
 62
     6
370
    20
100
AcDbPolyline
 90
        4
 70
     0
 43
0.0
 10
-212.4976652575235
 20
326.3242915825047
 10
-212.3079738455665
 20
326.1346001705482
 42
0.1989123673788307
 10
-212.0428088026231
 20
326.0247652134938
 10
-211.6399139835368
 20
326.0247652134938
  0
LWPOLYLINE
  5
DE9C
330
1F
100
AcDbEntity
  8
DETAILS
 62
     6
370
    20
100
AcDbPolyline
 90
        4
 70
     0
 43
0.0
 10
-212.4976652575235
 20
325.4252388444832
 10
-212.2964384013969
 20
325.6264657006098
 42
0.4142135623745727
 10
-212.2964384013969
 20
325.7855647263771
 10
-212.4976652575254
 20
325.9867915825053
  0
LINE
  5
DE9D
330
1F
100
AcDbEntity
  8
REBAR
 48
0.15
100
AcDbLine
 10
-209.4976652575235
 20
353.4497652134938
 30
0.0
 11
-209.4976652575235
 21
320.9473071168785
 31
0.0
  0
LWPOLYLINE
  5
DE9E
330
1F
100
AcDbEntity
  8
DIM
100
AcDbPolyline
 90
        6
 70
     0
 43
0.0
 10
-200.9562911382193
 20
323.1042559399828
 10
-207.5831717726499
 20
320.8567982331447
 10
-206.6471287558481
 20
318.0967706152019
 10
-211.2433228335606
 20
322.6929646929146
 10
-210.3072798167588
 20
319.9329370749723
 10
-217.7720820482639
 20
317.4013044365252
  0
LWPOLYLINE
  5
DE9F
330
1F
100
AcDbEntity
  8
DETAILS
 62
     6
370
    20
100
AcDbPolyline
 90
        2
 70
     0
 43
0.0
 10
-209.7588503292984
 20
321.2084921886524
 10
-209.7588503292984
 20
321.5247652134938
  0
LWPOLYLINE
  5
DEA0
330
1F
100
AcDbEntity
  8
DETAILS
 62
     6
370
    20
100
AcDbPolyline
 90
        2
 70
     0
 43
0.0
 10
-209.8338503292973
 20
321.2834921886523
 10
-209.8338503292973
 20
321.5247652134938
  0
LWPOLYLINE
  5
DEA1
330
1F
100
AcDbEntity
  8
DETAILS
 62
     6
370
    20
100
AcDbPolyline
 90
        4
 70
     0
 43
0.0
 10
-210.8471365933103
 20
321.5247652134938
 10
-212.1670728713354
 20
321.5247652134938
 42
0.1989123673782987
 10
-212.2201058799249
 20
321.502798222083
 10
-212.4976652575235
 20
321.2252388444848
  0
LWPOLYLINE
  5
DEA2
330
1F
100
AcDbEntity
  8
DETAILS
 62
     6
370
    20
100
AcDbPolyline
 90
        6
 70
     0
 43
0.0
 10
-210.8725722903303
 20
321.5997652134936
 10
-211.8606388885121
 20
321.5997652134936
 10
-211.933934593669
 20
321.5831980341191
 42
0.7807764064044151
 10
-211.933934593669
 20
321.5788323928685
 10
-211.8606388885121
 20
321.5622652134937
 10
-210.8598544418194
 20
321.5622652134937
  0
LWPOLYLINE
  5
DEA3
330
1F
100
AcDbEntity
  8
DETAILS
 62
     6
370
    20
100
AcDbPolyline
 90
        4
 70
     0
 43
0.0
 10
-210.9234436843719
 20
321.7497652134937
 10
-212.1231388885128
 20
321.7497652134937
 10
-212.1231388885128
 20
321.6372652134938
 10
-210.8852901388411
 20
321.6372652134938
  0
LWPOLYLINE
  5
DEA4
330
1F
100
AcDbEntity
  8
DETAILS
 62
     6
370
    20
100
AcDbPolyline
 90
        5
 70
     0
 43
0.0
 10
-210.4126233541403
 20
321.8622652134939
 10
-209.4976652575235
 20
321.8622652134939
 10
-206.8282576437116
 20
321.8622652134939
 42
0.1989123673781768
 10
-206.775224635124
 20
321.8842322049048
 10
-206.4976652575235
 20
322.1617915825007
  0
LWPOLYLINE
  5
DEA5
330
1F
100
AcDbEntity
  8
DETAILS
 62
     6
370
    20
100
AcDbPolyline
 90
        5
 70
     0
 43
0.0
 10
-210.56262335414
 20
322.0122652134938
 10
-209.4976652575235
 20
322.0122652134938
 10
-206.9525217124239
 20
322.012265213494
 42
0.1989123673777968
 10
-206.6873566694805
 20
322.1221001705469
 10
-206.4976652575235
 20
322.3117915824996
  0
LINE
  5
DEA6
330
1F
100
AcDbEntity
  8
DETAILS
 62
     6
370
    20
100
AcDbLine
 10
-209.8338503292991
 20
321.3747652134937
 30
0.0
 11
-209.9251233541393
 21
321.3747652134937
 31
0.0
  0
LINE
  5
DEA7
330
1F
100
AcDbEntity
  8
DETAILS
 62
     6
370
    20
100
AcDbLine
 10
-210.8838503292984
 20
321.3747652134937
 30
0.0
 11
-210.7962651992668
 21
321.3747652134937
 31
0.0
  0
LINE
  5
DEA8
330
1F
100
AcDbEntity
  8
DETAILS
 62
     6
370
    20
100
AcDbLine
 10
-209.9251233541393
 20
321.3747652134937
 30
0.0
 11
-209.8338503292991
 21
321.3747652134937
 31
0.0
  0
LINE
  5
DEA9
330
1F
100
AcDbEntity
  8
DETAILS
 62
     6
370
    20
100
AcDbLine
 10
-210.7962651992668
 20
321.3747652134937
 30
0.0
 11
-210.8838503292984
 21
321.3747652134937
 31
0.0
  0
MTEXT
  5
DEAA
330
1F
100
AcDbEntity
  8
DIM
 62
     3
100
AcDbMText
 10
-173.9845777090534
 20
347.7601844469166
 30
0.0
 40
1.0
 41
16.07546435255318
 71
     1
 72
     5
  1
REINFORCEMENT PER ENGINEER
  7
RomanC
 73
     1
 44
1.0
1001
ACAD
1000
MTEXTBEGIN
1070
    73
1070
     1
1070
    44
1040
1.0
1070
    74
1070
     0
1000
MTEXTEND
  0
LWPOLYLINE
  5
DEAB
330
1F
100
AcDbEntity
  8
A4 medium
 48
0.15
100
AcDbPolyline
 90
        4
 70
     1
 43
0.0
 10
-174.582714647043
 20
348.4458129206826
 10
-158.6065172778428
 20
348.4458129206826
 10
-158.6065172778428
 20
344.2186687980314
 10
-174.582714647043
 20
344.2186687980314
  0
MTEXT
  5
DEAC
330
1F
100
AcDbEntity
  8
Defpoints
100
AcDbMText
 10
-207.6706591557188
 20
300.2998149782866
 30
0.0
 40
3.0
 41
90.07999999999999
 71
     2
 72
     5
  1
{\L31\P}\P            
  7
RomanC
 73
     1
 44
1.0
1001
ACAD
1000
MTEXTBEGIN
1070
    73
1070
     1
1070
    44
1040
1.0
1070
    74
1070
     0
1000
MTEXTEND
  0
MTEXT
  5
DEAD
330
1F
100
AcDbEntity
  8
DIM
 62
     3
100
AcDbMText
 10
-237.4978193226882
 20
330.7151964901976
 30
0.0
 40
1.0
 41
22.68954545454545
 71
     1
 72
     5
  1
VERT. REINF 
  7
RomanC
 73
     1
 44
1.0
1001
ACAD
1000
MTEXTBEGIN
1070
    73
1070
     1
1070
    44
1040
1.0
1070
    74
1070
     0
1000
MTEXTEND
  0
LEADER
  5
DEAE
330
1F
100
AcDbEntity
  8
DIM
100
AcDbLeader
  3
ARCTEXT1-4
 76
     2
 10
-209.4976652575235
 20
330.0618738382064
 30
0.0
 10
-228.640879943395
 20
330.0618738382064
 30
0.0
1001
ACAD
1000
DSTYLE
1002
{
1070
    41
1040
0.5
1070
    77
1070
     0
1002
}
  0
ENDSEC
  0
SECTION
  2
OBJECTS
  0
DICTIONARY
  5
C
330
0
100
AcDbDictionary
281
     1
  3
ACAD_COLOR
350
73
  3
ACAD_GROUP
350
D
  3
ACAD_LAYOUT
350
1A
  3
ACAD_MATERIAL
350
72
  3
ACAD_MLINESTYLE
350
17
  3
ACAD_PLOTSETTINGS
350
19
  3
ACAD_PLOTSTYLENAME
350
E
  3
ACDBHEADERROUNDTRIPXREC
350
DEBE
  3
AcDbVariableDictionary
350
66
  0
DICTIONARY
  5
A9
330
2
100
AcDbDictionary
280
     1
281
     1
  3
ACAD_LAYERSTATES
360
AA
  0
DICTIONARY
  5
73
102
{ACAD_REACTORS
330
C
102
}
330
C
100
AcDbDictionary
281
     1
  0
DICTIONARY
  5
D
102
{ACAD_REACTORS
330
C
102
}
330
C
100
AcDbDictionary
281
     1
  0
DICTIONARY
  5
1A
102
{ACAD_REACTORS
330
C
102
}
330
C
100
AcDbDictionary
281
     1
  3
Layout1
350
59
  3
Layout2
350
5E
  3
Model
350
22
  0
DICTIONARY
  5
72
102
{ACAD_REACTORS
330
C
102
}
330
C
100
AcDbDictionary
281
     1
  0
DICTIONARY
  5
17
102
{ACAD_REACTORS
330
C
102
}
330
C
100
AcDbDictionary
281
     1
  3
Standard
350
18
  0
DICTIONARY
  5
19
102
{ACAD_REACTORS
330
C
102
}
330
C
100
AcDbDictionary
281
     1
  0
ACDBDICTIONARYWDFLT
  5
E
102
{ACAD_REACTORS
330
C
102
}
330
C
100
AcDbDictionary
281
     1
  3
Normal
350
F
100
AcDbDictionaryWithDefault
340
F
  0
DICTIONARY
  5
DEBE
102
{ACAD_REACTORS
330
C
102
}
330
C
100
AcDbDictionary
281
     1
  3
COLORDICT
350
DEC0
  3
MATERIALDICT
350
DEBF
  0
DICTIONARY
  5
66
102
{ACAD_REACTORS
330
C
102
}
330
C
100
AcDbDictionary
281
     1
  3
DIMASSOC
350
67
  3
HIDETEXT
350
6B
  3
PROJECTNAME
350
1065
  0
DICTIONARY
  5
AA
102
{ACAD_REACTORS
330
A9
102
}
330
A9
100
AcDbDictionary
281
     1
  0
LAYOUT
  5
59
102
{ACAD_XDICTIONARY
360
DEC3
102
}
102
{ACAD_REACTORS
330
1A
102
}
330
1A
100
AcDbPlotSettings
  1

  2
None
  4

  6

 40
0.0
 41
0.0
 42
0.0
 43
0.0
 44
0.0
 45
0.0
 46
0.0
 47
0.0
 48
0.0
 49
0.0
140
0.0
141
0.0
142
1.0
143
1.0
 70
   688
 72
     0
 73
     0
 74
     5
  7

 75
    16
147
1.0
148
0.0
149
0.0
100
AcDbLayout
  1
Layout1
 70
     1
 71
     1
 10
0.0
 20
0.0
 11
12.0
 21
9.0
 12
0.0
 22
0.0
 32
0.0
 14
0.0
 24
0.0
 34
0.0
 15
0.0
 25
0.0
 35
0.0
146
0.0
 13
0.0
 23
0.0
 33
0.0
 16
1.0
 26
0.0
 36
0.0
 17
0.0
 27
1.0
 37
0.0
 76
     0
330
58
  0
LAYOUT
  5
5E
102
{ACAD_XDICTIONARY
360
DEC5
102
}
102
{ACAD_REACTORS
330
1A
102
}
330
1A
100
AcDbPlotSettings
  1

  2
None
  4

  6

 40
0.0
 41
0.0
 42
0.0
 43
0.0
 44
0.0
 45
0.0
 46
0.0
 47
0.0
 48
0.0
 49
0.0
140
0.0
141
0.0
142
1.0
143
1.0
 70
   688
 72
     0
 73
     0
 74
     5
  7

 75
    16
147
1.0
148
0.0
149
0.0
100
AcDbLayout
  1
Layout2
 70
     1
 71
     2
 10
0.0
 20
0.0
 11
12.0
 21
9.0
 12
0.0
 22
0.0
 32
0.0
 14
0.0
 24
0.0
 34
0.0
 15
0.0
 25
0.0
 35
0.0
146
0.0
 13
0.0
 23
0.0
 33
0.0
 16
1.0
 26
0.0
 36
0.0
 17
0.0
 27
1.0
 37
0.0
 76
     0
330
5D
  0
LAYOUT
  5
22
102
{ACAD_XDICTIONARY
360
DEC1
102
}
102
{ACAD_REACTORS
330
1A
102
}
330
1A
100
AcDbPlotSettings
  1

  2
none_device
  4
ANSI_A_(8.50_x_11.00_Inches)
  6

 40
6.349999904632568
 41
19.04999923706055
 42
6.350006103515625
 43
19.04998779296875
 44
215.8999938964844
 45
279.3999938964844
 46
0.0
 47
0.0
 48
0.0
 49
0.0
140
0.0
141
0.0
142
1.0
143
2.584895464708373
 70
 11952
 72
     0
 73
     1
 74
     0
  7

 75
     0
147
0.3868628397755418
148
0.0
149
0.0
100
AcDbLayout
  1
Model
 70
     1
 71
     0
 10
0.0
 20
0.0
 11
12.0
 21
9.0
 12
0.0
 22
0.0
 32
0.0
 14
0.0
 24
0.0
 34
0.0
 15
0.0
 25
0.0
 35
0.0
146
0.0
 13
0.0
 23
0.0
 33
0.0
 16
1.0
 26
0.0
 36
0.0
 17
0.0
 27
1.0
 37
0.0
 76
     0
330
1F
  0
MLINESTYLE
  5
18
102
{ACAD_REACTORS
330
17
102
}
330
17
100
AcDbMlineStyle
  2
STANDARD
 70
     0
  3

 62
   256
 51
90.0
 52
90.0
 71
     2
 49
0.5
 62
   256
  6
BYLAYER
 49
-0.5
 62
   256
  6
BYLAYER
  0
ACDBPLACEHOLDER
  5
F
102
{ACAD_REACTORS
330
E
102
}
330
E
  0
XRECORD
  5
DEC0
102
{ACAD_REACTORS
330
DEBE
102
}
330
DEBE
100
AcDbXrecord
280
     1
340
73
  0
XRECORD
  5
DEBF
102
{ACAD_REACTORS
330
DEBE
102
}
330
DEBE
100
AcDbXrecord
280
     1
340
72
  0
DICTIONARYVAR
  5
67
102
{ACAD_REACTORS
330
66
102
}
330
66
100
DictionaryVariables
280
     0
  1
2
  0
DICTIONARYVAR
  5
6B
102
{ACAD_REACTORS
330
66
102
}
330
66
100
DictionaryVariables
280
     0
  1
1
  0
DICTIONARYVAR
  5
1065
102
{ACAD_REACTORS
330
66
102
}
330
66
100
DictionaryVariables
280
     0
  1

  0
DICTIONARY
  5
DEC3
330
59
100
AcDbDictionary
280
     1
281
     1
  3
ACAD_XREC_ROUNDTRIP
360
DEC4
  0
DICTIONARY
  5
DEC5
330
5E
100
AcDbDictionary
280
     1
281
     1
  3
ACAD_XREC_ROUNDTRIP
360
DEC6
  0
DICTIONARY
  5
DEC1
330
22
100
AcDbDictionary
280
     1
281
     1
  3
ACAD_XREC_ROUNDTRIP
360
DEC2
  0
XRECORD
  5
DEC4
102
{ACAD_REACTORS
330
DEC3
102
}
330
DEC3
100
AcDbXrecord
280
     1
102
SHADEPLOT
 70
     0
102
SHADEPLOTRESLEVEL
 70
     2
102
SHADEPLOTCUSTOMDPI
 70
   300
  0
XRECORD
  5
DEC6
102
{ACAD_REACTORS
330
DEC5
102
}
330
DEC5
100
AcDbXrecord
280
     1
102
SHADEPLOT
 70
     0
102
SHADEPLOTRESLEVEL
 70
     2
102
SHADEPLOTCUSTOMDPI
 70
   300
  0
XRECORD
  5
DEC2
102
{ACAD_REACTORS
330
DEC1
102
}
330
DEC1
100
AcDbXrecord
280
     1
102
SHADEPLOT
 70
     0
102
SHADEPLOTRESLEVEL
 70
     2
102
SHADEPLOTCUSTOMDPI
 70
   300
  0
ENDSEC
  0
EOF
