  0
SECTION
  2
HEADER
  9
$ACADVER
  1
AC1015
  9
$ACADMAINTVER
 70
    20
  9
$DWGCODEPAGE
  3
ANSI_1252
  9
$INSBASE
 10
0.0
 20
0.0
 30
0.0
  9
$EXTMIN
 10
-239.6492809427964
 20
284.87365129592
 30
-0.0000000349181948
  9
$EXTMAX
 10
-156.5185922857611
 20
373.3377732467598
 30
0.0000000814935746
  9
$LIMMIN
 10
0.0
 20
0.0
  9
$LIMMAX
 10
12.0
 20
9.0
  9
$ORTHOMODE
 70
     0
  9
$REGENMODE
 70
     1
  9
$FILLMODE
 70
     1
  9
$QTEXTMODE
 70
     0
  9
$MIRRTEXT
 70
     0
  9
$LTSCALE
 40
1.0
  9
$ATTMODE
 70
     1
  9
$TEXTSIZE
 40
0.2
  9
$TRACEWID
 40
0.05
  9
$TEXTSTYLE
  7
Standard
  9
$CLAYER
  8
0
  9
$CELTYPE
  6
ByLayer
  9
$CECOLOR
 62
   256
  9
$CELTSCALE
 40
1.0
  9
$DISPSILH
 70
     0
  9
$DIMSCALE
 40
1.0
  9
$DIMASZ
 40
0.18
  9
$DIMEXO
 40
0.0625
  9
$DIMDLI
 40
0.38
  9
$DIMRND
 40
0.0
  9
$DIMDLE
 40
0.0
  9
$DIMEXE
 40
0.18
  9
$DIMTP
 40
0.0
  9
$DIMTM
 40
0.0
  9
$DIMTXT
 40
0.18
  9
$DIMCEN
 40
0.09
  9
$DIMTSZ
 40
0.0
  9
$DIMTOL
 70
     0
  9
$DIMLIM
 70
     0
  9
$DIMTIH
 70
     1
  9
$DIMTOH
 70
     1
  9
$DIMSE1
 70
     0
  9
$DIMSE2
 70
     0
  9
$DIMTAD
 70
     0
  9
$DIMZIN
 70
     0
  9
$DIMBLK
  1

  9
$DIMASO
 70
     1
  9
$DIMSHO
 70
     1
  9
$DIMPOST
  1

  9
$DIMAPOST
  1

  9
$DIMALT
 70
     0
  9
$DIMALTD
 70
     2
  9
$DIMALTF
 40
25.4
  9
$DIMLFAC
 40
1.0
  9
$DIMTOFL
 70
     0
  9
$DIMTVP
 40
0.0
  9
$DIMTIX
 70
     0
  9
$DIMSOXD
 70
     0
  9
$DIMSAH
 70
     0
  9
$DIMBLK1
  1

  9
$DIMBLK2
  1

  9
$DIMSTYLE
  2
Standard
  9
$DIMCLRD
 70
     0
  9
$DIMCLRE
 70
     0
  9
$DIMCLRT
 70
     0
  9
$DIMTFAC
 40
1.0
  9
$DIMGAP
 40
0.09
  9
$DIMJUST
 70
     0
  9
$DIMSD1
 70
     0
  9
$DIMSD2
 70
     0
  9
$DIMTOLJ
 70
     1
  9
$DIMTZIN
 70
     0
  9
$DIMALTZ
 70
     0
  9
$DIMALTTZ
 70
     0
  9
$DIMUPT
 70
     0
  9
$DIMDEC
 70
     4
  9
$DIMTDEC
 70
     4
  9
$DIMALTU
 70
     2
  9
$DIMALTTD
 70
     2
  9
$DIMTXSTY
  7
Standard
  9
$DIMAUNIT
 70
     0
  9
$DIMADEC
 70
     0
  9
$DIMALTRND
 40
0.0
  9
$DIMAZIN
 70
     0
  9
$DIMDSEP
 70
    46
  9
$DIMATFIT
 70
     3
  9
$DIMFRAC
 70
     0
  9
$DIMLDRBLK
  1

  9
$DIMLUNIT
 70
     2
  9
$DIMLWD
 70
    -2
  9
$DIMLWE
 70
    -2
  9
$DIMTMOVE
 70
     0
  9
$LUNITS
 70
     2
  9
$LUPREC
 70
     4
  9
$SKETCHINC
 40
0.1
  9
$FILLETRAD
 40
0.0
  9
$AUNITS
 70
     0
  9
$AUPREC
 70
     0
  9
$MENU
  1
.
  9
$ELEVATION
 40
0.0
  9
$PELEVATION
 40
0.0
  9
$THICKNESS
 40
0.0
  9
$LIMCHECK
 70
     0
  9
$CHAMFERA
 40
0.0
  9
$CHAMFERB
 40
0.0
  9
$CHAMFERC
 40
0.0
  9
$CHAMFERD
 40
0.0
  9
$SKPOLY
 70
     0
  9
$TDCREATE
 40
2454861.564484954
  9
$TDUCREATE
 40
2454861.856151620
  9
$TDUPDATE
 40
2454861.585937581
  9
$TDUUPDATE
 40
2454861.877604248
  9
$TDINDWG
 40
0.0214578472
  9
$TDUSRTIMER
 40
0.0214557523
  9
$USRTIMER
 70
     1
  9
$ANGBASE
 50
0.0
  9
$ANGDIR
 70
     0
  9
$PDMODE
 70
     0
  9
$PDSIZE
 40
0.0
  9
$PLINEWID
 40
0.0
  9
$SPLFRAME
 70
     0
  9
$SPLINETYPE
 70
     6
  9
$SPLINESEGS
 70
     8
  9
$HANDSEED
  5
D857
  9
$SURFTAB1
 70
     6
  9
$SURFTAB2
 70
     6
  9
$SURFTYPE
 70
     6
  9
$SURFU
 70
     6
  9
$SURFV
 70
     6
  9
$UCSBASE
  2

  9
$UCSNAME
  2

  9
$UCSORG
 10
0.0
 20
0.0
 30
0.0
  9
$UCSXDIR
 10
1.0
 20
0.0
 30
0.0
  9
$UCSYDIR
 10
0.0
 20
1.0
 30
0.0
  9
$UCSORTHOREF
  2

  9
$UCSORTHOVIEW
 70
     0
  9
$UCSORGTOP
 10
0.0
 20
0.0
 30
0.0
  9
$UCSORGBOTTOM
 10
0.0
 20
0.0
 30
0.0
  9
$UCSORGLEFT
 10
0.0
 20
0.0
 30
0.0
  9
$UCSORGRIGHT
 10
0.0
 20
0.0
 30
0.0
  9
$UCSORGFRONT
 10
0.0
 20
0.0
 30
0.0
  9
$UCSORGBACK
 10
0.0
 20
0.0
 30
0.0
  9
$PUCSBASE
  2

  9
$PUCSNAME
  2

  9
$PUCSORG
 10
0.0
 20
0.0
 30
0.0
  9
$PUCSXDIR
 10
1.0
 20
0.0
 30
0.0
  9
$PUCSYDIR
 10
0.0
 20
1.0
 30
0.0
  9
$PUCSORTHOREF
  2

  9
$PUCSORTHOVIEW
 70
     0
  9
$PUCSORGTOP
 10
0.0
 20
0.0
 30
0.0
  9
$PUCSORGBOTTOM
 10
0.0
 20
0.0
 30
0.0
  9
$PUCSORGLEFT
 10
0.0
 20
0.0
 30
0.0
  9
$PUCSORGRIGHT
 10
0.0
 20
0.0
 30
0.0
  9
$PUCSORGFRONT
 10
0.0
 20
0.0
 30
0.0
  9
$PUCSORGBACK
 10
0.0
 20
0.0
 30
0.0
  9
$USERI1
 70
     0
  9
$USERI2
 70
     0
  9
$USERI3
 70
     0
  9
$USERI4
 70
     0
  9
$USERI5
 70
     0
  9
$USERR1
 40
0.0
  9
$USERR2
 40
0.0
  9
$USERR3
 40
0.0
  9
$USERR4
 40
0.0
  9
$USERR5
 40
0.0
  9
$WORLDVIEW
 70
     1
  9
$SHADEDGE
 70
     3
  9
$SHADEDIF
 70
    70
  9
$TILEMODE
 70
     1
  9
$MAXACTVP
 70
    64
  9
$PINSBASE
 10
0.0
 20
0.0
 30
0.0
  9
$PLIMCHECK
 70
     0
  9
$PEXTMIN
 10
0.0
 20
0.0
 30
0.0
  9
$PEXTMAX
 10
0.0
 20
0.0
 30
0.0
  9
$PLIMMIN
 10
0.0
 20
0.0
  9
$PLIMMAX
 10
12.0
 20
9.0
  9
$UNITMODE
 70
     0
  9
$VISRETAIN
 70
     1
  9
$PLINEGEN
 70
     0
  9
$PSLTSCALE
 70
     1
  9
$TREEDEPTH
 70
  3020
  9
$CMLSTYLE
  2
Standard
  9
$CMLJUST
 70
     0
  9
$CMLSCALE
 40
1.0
  9
$PROXYGRAPHICS
 70
     1
  9
$MEASUREMENT
 70
     0
  9
$CELWEIGHT
370
    -1
  9
$ENDCAPS
280
     0
  9
$JOINSTYLE
280
     0
  9
$LWDISPLAY
290
     0
  9
$INSUNITS
 70
     1
  9
$HYPERLINKBASE
  1

  9
$STYLESHEET
  1

  9
$XEDIT
290
     1
  9
$CEPSNTYPE
380
     0
  9
$PSTYLEMODE
290
     1
  9
$FINGERPRINTGUID
  2
{FDEAD576-A652-11D2-9A35-0060089B3A3F}
  9
$VERSIONGUID
  2
{885ACD34-0C9F-4DC7-8DA5-EBCF31EE1C19}
  9
$EXTNAMES
290
     1
  9
$PSVPSCALE
 40
0.0
  9
$OLESTARTUP
290
     0
  0
ENDSEC
  0
SECTION
  2
CLASSES
  0
CLASS
  1
ACDBDICTIONARYWDFLT
  2
AcDbDictionaryWithDefault
  3
ObjectDBX Classes
 90
        0
280
     0
281
     0
  0
CLASS
  1
ACDBPLACEHOLDER
  2
AcDbPlaceHolder
  3
ObjectDBX Classes
 90
        0
280
     0
281
     0
  0
CLASS
  1
LAYOUT
  2
AcDbLayout
  3
ObjectDBX Classes
 90
        0
280
     0
281
     0
  0
CLASS
  1
DICTIONARYVAR
  2
AcDbDictionaryVar
  3
ObjectDBX Classes
 90
        0
280
     0
281
     0
  0
CLASS
  1
SORTENTSTABLE
  2
AcDbSortentsTable
  3
ObjectDBX Classes
 90
        0
280
     0
281
     0
  0
ENDSEC
  0
SECTION
  2
TABLES
  0
TABLE
  2
VPORT
  5
8
330
0
100
AcDbSymbolTable
 70
    60
  0
VPORT
  5
D849
330
8
100
AcDbSymbolTableRecord
100
AcDbViewportTableRecord
  2
*Active
 70
     0
 10
0.0
 20
0.0
 11
1.0
 21
1.0
 12
-198.0839366142787
 22
329.1057122713399
 13
0.0
 23
0.0
 14
0.5
 24
0.5
 15
0.5
 25
0.5
 16
0.0
 26
0.0
 36
1.0
 17
0.0
 27
0.0
 37
0.0
 40
89.10285207322862
 41
1.48433734939759
 42
50.0
 43
0.0
 44
0.0
 50
0.0
 51
0.0
 71
     0
 72
  1000
 73
     1
 74
     3
 75
     0
 76
     0
 77
     0
 78
     0
281
     0
 65
     1
110
0.0
120
0.0
130
0.0
111
1.0
121
0.0
131
0.0
112
0.0
122
1.0
132
0.0
 79
     0
146
0.0
  0
ENDTAB
  0
TABLE
  2
LTYPE
  5
5
330
0
100
AcDbSymbolTable
 70
     6
  0
LTYPE
  5
14
330
5
100
AcDbSymbolTableRecord
100
AcDbLinetypeTableRecord
  2
ByBlock
 70
     0
  3

 72
    65
 73
     0
 40
0.0
  0
LTYPE
  5
15
330
5
100
AcDbSymbolTableRecord
100
AcDbLinetypeTableRecord
  2
ByLayer
 70
     0
  3

 72
    65
 73
     0
 40
0.0
  0
LTYPE
  5
16
330
5
100
AcDbSymbolTableRecord
100
AcDbLinetypeTableRecord
  2
Continuous
 70
     0
  3
Solid line
 72
    65
 73
     0
 40
0.0
  0
LTYPE
  5
96
330
5
100
AcDbSymbolTableRecord
100
AcDbLinetypeTableRecord
  2
HIDDEN2
 70
     0
  3
Hidden (.5x) _ _ _ _ _ _ _ _ _ _ _ _ _ _ _ _ _
 72
    65
 73
     2
 40
0.1875
 49
0.125
 74
     0
 49
-0.0625
 74
     0
  0
LTYPE
  5
97
330
5
100
AcDbSymbolTableRecord
100
AcDbLinetypeTableRecord
  2
DASHED
 70
     0
  3
Dashed __ __ __ __ __ __ __ __ __ __ __ __ __ _
 72
    65
 73
     2
 40
0.75
 49
0.5
 74
     0
 49
-0.25
 74
     0
  0
LTYPE
  5
98
330
5
100
AcDbSymbolTableRecord
100
AcDbLinetypeTableRecord
  2
CENTER
 70
     0
  3
Center ____ _ ____ _ ____ _ ____ _ ____ _ ____
 72
    65
 73
     4
 40
2.0
 49
1.25
 74
     0
 49
-0.25
 74
     0
 49
0.25
 74
     0
 49
-0.25
 74
     0
  0
LTYPE
  5
99
330
5
100
AcDbSymbolTableRecord
100
AcDbLinetypeTableRecord
  2
DASHED2
 70
     0
  3
_ _ _ _ _ _ _ _ _ _ _ _ _ _ _ _ _ _ _ _ _ _ _ _
 72
    65
 73
     2
 40
0.375
 49
0.25
 74
     0
 49
-0.125
 74
     0
  0
LTYPE
  5
9A
330
5
100
AcDbSymbolTableRecord
100
AcDbLinetypeTableRecord
  2
HIDDEN
 70
     0
  3
Hidden __ __ __ __ __ __ __ __ __ __ __ __ __ _
 72
    65
 73
     2
 40
0.375
 49
0.25
 74
     0
 49
-0.125
 74
     0
  0
ENDTAB
  0
TABLE
  2
LAYER
  5
2
102
{ACAD_XDICTIONARY
360
A9
102
}
330
0
100
AcDbSymbolTable
 70
    10
  0
LAYER
  5
10
330
2
100
AcDbSymbolTableRecord
100
AcDbLayerTableRecord
  2
0
 70
     0
 62
     7
  6
Continuous
370
    -3
390
F
  0
LAYER
  5
9B
330
2
100
AcDbSymbolTableRecord
100
AcDbLayerTableRecord
  2
DIM
 70
     0
 62
     3
  6
Continuous
370
    13
390
F
  0
LAYER
  5
9C
330
2
100
AcDbSymbolTableRecord
100
AcDbLayerTableRecord
  2
Defpoints
 70
     0
 62
   252
  6
Continuous
290
     0
370
    -3
390
F
  0
LAYER
  5
9D
330
2
100
AcDbSymbolTableRecord
100
AcDbLayerTableRecord
  2
A2 Hatch
 70
     0
 62
     8
  6
Continuous
370
     9
390
F
  0
LAYER
  5
9E
330
2
100
AcDbSymbolTableRecord
100
AcDbLayerTableRecord
  2
DETAILS
 70
     0
 62
     7
  6
Continuous
370
    13
390
F
  0
LAYER
  5
9F
330
2
100
AcDbSymbolTableRecord
100
AcDbLayerTableRecord
  2
A4 medium
 70
     0
 62
     7
  6
Continuous
370
    35
390
F
  0
LAYER
  5
A0
330
2
100
AcDbSymbolTableRecord
100
AcDbLayerTableRecord
  2
REBAR
 70
     0
 62
     2
  6
CENTER
370
    30
390
F
  0
LAYER
  5
28AC
330
2
100
AcDbSymbolTableRecord
100
AcDbLayerTableRecord
  2
A5 heavy
 70
     0
 62
     5
  6
Continuous
370
    53
390
F
  0
LAYER
  5
2FC3
330
2
100
AcDbSymbolTableRecord
100
AcDbLayerTableRecord
  2
GRADE
 70
     0
 62
     5
  6
Continuous
370
   100
390
F
  0
LAYER
  5
51AE
330
2
100
AcDbSymbolTableRecord
100
AcDbLayerTableRecord
  2
HANGERS
 70
     0
 62
   253
  6
Continuous
370
    -3
390
F
  0
ENDTAB
  0
TABLE
  2
STYLE
  5
3
330
0
100
AcDbSymbolTable
 70
     5
  0
STYLE
  5
11
330
3
100
AcDbSymbolTableRecord
100
AcDbTextStyleTableRecord
  2
Standard
 70
     0
 40
0.0
 41
1.0
 50
0.0
 71
     0
 42
0.2
  3
txt
  4

  0
STYLE
  5
A1
330
3
100
AcDbSymbolTableRecord
100
AcDbTextStyleTableRecord
  2
ARCHITXT
 70
     0
 40
0.0
 41
1.25
 50
0.0
 71
     0
 42
1.0
  3
ARCHITXT.shx
  4

  0
STYLE
  5
A2
330
3
100
AcDbSymbolTableRecord
100
AcDbTextStyleTableRecord
  2
ARCTEXT
 70
     0
 40
0.0
 41
0.85
 50
0.0
 71
     0
 42
5.096770384644268
  3
arctext.shx
  4

  0
STYLE
  5
A3
330
3
100
AcDbSymbolTableRecord
100
AcDbTextStyleTableRecord
  2
ROMAND
 70
     0
 40
0.0
 41
0.85
 50
0.0
 71
     0
 42
6.0
  3
romand.shx
  4

  0
STYLE
  5
A4
330
3
100
AcDbSymbolTableRecord
100
AcDbTextStyleTableRecord
  2
RomanC
 70
     0
 40
5.0
 41
0.85
 50
0.0
 71
     0
 42
10.0
  3
romanc.shx
  4

  0
ENDTAB
  0
TABLE
  2
VIEW
  5
6
330
0
100
AcDbSymbolTable
 70
     0
  0
ENDTAB
  0
TABLE
  2
UCS
  5
7
330
0
100
AcDbSymbolTable
 70
     0
  0
ENDTAB
  0
TABLE
  2
APPID
  5
9
330
0
100
AcDbSymbolTable
 70
     1
  0
APPID
  5
12
330
9
100
AcDbSymbolTableRecord
100
AcDbRegAppTableRecord
  2
ACAD
 70
     0
  0
ENDTAB
  0
TABLE
  2
DIMSTYLE
  5
A
330
0
100
AcDbSymbolTable
 70
     5
100
AcDbDimStyleTable
 71
     0
  0
DIMSTYLE
105
27
330
A
100
AcDbSymbolTableRecord
100
AcDbDimStyleTableRecord
  2
Standard
 70
     0
340
11
  0
DIMSTYLE
105
A5
330
A
100
AcDbSymbolTableRecord
100
AcDbDimStyleTableRecord
  2
Copy of ROMANS
 70
     0
 41
0.75
 42
0.125
 43
0.125
 44
0.125
 73
     0
 74
     0
 77
     1
 78
     3
140
1.0
141
6.0
147
0.25
172
     1
175
     1
176
     2
177
     2
178
     2
271
     3
272
     3
273
     4
275
     1
277
     4
279
     2
284
     3
285
     3
286
     3
340
A1
  0
DIMSTYLE
105
A6
330
A
100
AcDbSymbolTableRecord
100
AcDbDimStyleTableRecord
  2
ARCTEXT
 70
     0
 40
0.0
 41
2.0
 42
1.0
 43
0.375
 44
0.1875
 73
     0
 74
     0
140
4.0
141
2.0
147
2.0
176
     2
177
     2
178
     2
277
     4
340
A2
341
8D
342
89
  0
DIMSTYLE
105
A7
102
{ACAD_REACTORS
330
1B1
330
1B7
330
1B6
330
199
330
1F8
330
1E9
330
1E8
330
19D
330
19C
330
481
102
}
330
A
100
AcDbSymbolTableRecord
100
AcDbDimStyleTableRecord
  2
ARCTEXT1-4
 70
     0
 41
2.0
 42
2.0
 43
2.0
 44
2.0
 73
     0
 74
     0
 77
     1
 78
     3
140
4.0
141
2.0
147
2.0
172
     1
175
     1
275
     1
277
     4
279
     2
340
A2
341
8D
342
89
  0
DIMSTYLE
105
A8
330
A
100
AcDbSymbolTableRecord
100
AcDbDimStyleTableRecord
  2
ARCTEXT 1-1
 70
     0
 40
0.0
 41
1.0
 42
1.0
 43
0.375
 44
0.1875
 73
     0
 74
     0
 77
     1
 78
     3
140
1.0
141
1.0
147
0.5
176
   256
177
   256
178
   256
277
     4
279
     2
340
A2
341
8D
342
89
  0
ENDTAB
  0
TABLE
  2
BLOCK_RECORD
  5
1
330
0
100
AcDbSymbolTable
 70
    34
  0
BLOCK_RECORD
  5
1F
330
1
100
AcDbSymbolTableRecord
100
AcDbBlockTableRecord
  2
*Model_Space
340
22
  0
BLOCK_RECORD
  5
58
330
1
100
AcDbSymbolTableRecord
100
AcDbBlockTableRecord
  2
*Paper_Space
340
59
  0
BLOCK_RECORD
  5
5D
330
1
100
AcDbSymbolTableRecord
100
AcDbBlockTableRecord
  2
*Paper_Space0
340
5E
  0
BLOCK_RECORD
  5
89
330
1
100
AcDbSymbolTableRecord
100
AcDbBlockTableRecord
  2
_ArchTick
340
0
  0
BLOCK_RECORD
  5
8D
330
1
100
AcDbSymbolTableRecord
100
AcDbBlockTableRecord
  2
arrow
340
0
310
2800000020000000200000000100080000000000000400000000000000000000000000000000000000000000000080000080000000808000800000008000800080800000C0C0C000C0DCC000F0CAA6000020400000206000002080000020A0000020C0000020E00000400000004020000040400000406000004080000040A0
310
000040C0000040E00000600000006020000060400000606000006080000060A0000060C0000060E00000800000008020000080400000806000008080000080A0000080C0000080E00000A0000000A0200000A0400000A0600000A0800000A0A00000A0C00000A0E00000C0000000C0200000C0400000C0600000C0800000C0
310
A00000C0C00000C0E00000E0000000E0200000E0400000E0600000E0800000E0A00000E0C00000E0E00040000000400020004000400040006000400080004000A0004000C0004000E00040200000402020004020400040206000402080004020A0004020C0004020E000404000004040200040404000404060004040800040
310
40A0004040C0004040E00040600000406020004060400040606000406080004060A0004060C0004060E00040800000408020004080400040806000408080004080A0004080C0004080E00040A0000040A0200040A0400040A0600040A0800040A0A00040A0C00040A0E00040C0000040C0200040C0400040C0600040C08000
310
40C0A00040C0C00040C0E00040E0000040E0200040E0400040E0600040E0800040E0A00040E0C00040E0E00080000000800020008000400080006000800080008000A0008000C0008000E00080200000802020008020400080206000802080008020A0008020C0008020E00080400000804020008040400080406000804080
310
008040A0008040C0008040E00080600000806020008060400080606000806080008060A0008060C0008060E00080800000808020008080400080806000808080008080A0008080C0008080E00080A0000080A0200080A0400080A0600080A0800080A0A00080A0C00080A0E00080C0000080C0200080C0400080C0600080C0
310
800080C0A00080C0C00080C0E00080E0000080E0200080E0400080E0600080E0800080E0A00080E0C00080E0E000C0000000C0002000C0004000C0006000C0008000C000A000C000C000C000E000C0200000C0202000C0204000C0206000C0208000C020A000C020C000C020E000C0400000C0402000C0404000C0406000C0
310
408000C040A000C040C000C040E000C0600000C0602000C0604000C0606000C0608000C060A000C060C000C060E000C0800000C0802000C0804000C0806000C0808000C080A000C080C000C080E000C0A00000C0A02000C0A04000C0A06000C0A08000C0A0A000C0A0C000C0A0E000C0C00000C0C02000C0C04000C0C06000
310
C0C08000C0C0A000F0FBFF00A4A0A000808080000000FF0000FF000000FFFF00FF000000FF00FF00FFFF0000FFFFFF0000000000000000000000000000000000000000000000000000000000000000000000000000000000000000000000000000000000000000000000000000000000000000000000000000000000000000
310
0000000000000000000000000000000000000000000000000000000000000000000000000000000000000000000000000000000000000000000000000000000000000000000000000000000000000000000000000000000000000000000000000000000000000000000000000000000000000000000000FA00000000000000
310
000000000000000000000000000000000000000000000000FA00000000000000000000000000000000000000000000000000000000000000FA0000000000000000000000000000000000000000000000000000FAFA000000FA00000000000000000000000000000000000000000000000000000000FAFA00FA000000000000
310
000000000000000000000000000000000000000000000000FAF7F7000000000000000000000000000000000000000000000000000000000000F7F7F7F7F7F70000000000000000000000000000000000000000000000000000F7F7F7F7F7F7F7F7F7F700000000000000000000000000000000000000000000F7F7F7F7F7F7
310
F7F7F7F7F7F7F7F7000000000000000000000000000000000000F7F7F7F7F7F7F7F7F7F7F7F7F7F7F7F7F7F70000000000FAFA00000000000000F7F7F7F7F7F7F7F7F7F7F7F7F7F7F7F7F7F7F7F7F7FAFAFAFA00000000000000F7F7F7F7F7F7F7F7F7F7F7F7F7F7F7F7F7F70000000000000000000000000000F7F7F7F7F7
310
F7F7F7F7F7F7F7F700000000000000000000000000000000000000F7F7F7F7F7F7F7F70000000000000000000000000000000000000000000000FAF7F7F70000000000000000000000000000000000000000000000000000FAFA00FA0000000000000000000000000000000000000000000000000000FAFA000000FA000000
310
00000000000000000000000000000000000000000000000000000000FA00000000000000000000000000000000000000000000000000000000000000FA00000000000000000000000000000000000000000000000000000000000000FA00000000000000000000000000000000000000000000000000000000000000000000
310
00000000000000000000000000000000000000000000000000000000000000000000000000000000000000000000000000000000000000000000000000000000000000000000000000000000000000000000000000000000000000000000000000000000000000000000000000000000000000000000000000000000000000
310
0000000000000000000000000000000000000000000000000000000000000000000000000000000000000000000000000000000000000000
1001
ACAD
1000
DesignCenter Data
1002
{
1070
     1
1070
     1
1002
}
  0
ENDTAB
  0
ENDSEC
  0
SECTION
  2
BLOCKS
  0
BLOCK
  5
20
330
1F
100
AcDbEntity
  8
0
100
AcDbBlockBegin
  2
*Model_Space
 70
     0
 10
0.0
 20
0.0
 30
0.0
  3
*Model_Space
  1

  0
ENDBLK
  5
21
330
1F
100
AcDbEntity
  8
0
100
AcDbBlockEnd
  0
BLOCK
  5
5A
330
58
100
AcDbEntity
 67
     1
  8
0
100
AcDbBlockBegin
  2
*Paper_Space
 70
     0
 10
0.0
 20
0.0
 30
0.0
  3
*Paper_Space
  1

  0
ENDBLK
  5
5B
330
58
100
AcDbEntity
 67
     1
  8
0
100
AcDbBlockEnd
  0
BLOCK
  5
5F
330
5D
100
AcDbEntity
  8
0
100
AcDbBlockBegin
  2
*Paper_Space0
 70
     0
 10
0.0
 20
0.0
 30
0.0
  3
*Paper_Space0
  1

  0
ENDBLK
  5
60
330
5D
100
AcDbEntity
  8
0
100
AcDbBlockEnd
  0
BLOCK
  5
8A
330
89
100
AcDbEntity
  8
0
100
AcDbBlockBegin
  2
_ArchTick
 70
     0
 10
0.0
 20
0.0
 30
0.0
  3
_ArchTick
  1

  0
LWPOLYLINE
  5
8B
330
89
100
AcDbEntity
  8
0
  6
ByBlock
 62
     0
100
AcDbPolyline
 90
        2
 70
     0
 43
0.15
 10
-0.5
 20
-0.5
 10
0.5
 20
0.5
  0
ENDBLK
  5
8C
330
89
100
AcDbEntity
  8
0
100
AcDbBlockEnd
  0
BLOCK
  5
8E
330
8D
100
AcDbEntity
  8
0
100
AcDbBlockBegin
  2
arrow
 70
     0
 10
0.0
 20
0.0
 30
0.0
  3
arrow
  1

  0
HATCH
  5
8F
330
8D
100
AcDbEntity
  8
DIM
 62
   253
100
AcDbHatch
 10
0.0
 20
0.0
 30
0.0
210
0.0
220
0.0
230
1.0
  2
SOLID
 70
     1
 71
     0
 91
        1
 92
        7
 72
     0
 73
     1
 93
        3
 10
-2.0
 20
0.5
 10
-2.0
 20
-0.5
 10
0.0
 20
0.0
 97
        0
 75
     0
 76
     1
 47
0.0337394080685346
 98
        1
 10
-1.103351122172171
 20
0.05064816270351
  0
LWPOLYLINE
  5
90
330
8D
100
AcDbEntity
  8
DIM
370
    15
100
AcDbPolyline
 90
        4
 70
     0
 43
0.0
 10
0.0
 20
0.0
 10
-2.0
 20
-0.5
 10
-2.0
 20
0.5
 10
0.0
 20
0.0
  0
LWPOLYLINE
  5
91
330
8D
100
AcDbEntity
  8
DIM
370
     9
100
AcDbPolyline
 90
        2
 70
     0
 43
0.0
 10
0.3742552490839444
 20
0.0935638122700766
 10
0.0
 20
0.0
  0
LWPOLYLINE
  5
92
330
8D
100
AcDbEntity
  8
DIM
370
     9
100
AcDbPolyline
 90
        3
 70
     0
 43
0.0
 10
-2.0
 20
-0.9831764405007561
 10
-2.0
 20
-0.5
 10
-2.46875
 20
-0.6171875
  0
LWPOLYLINE
  5
93
330
8D
100
AcDbEntity
  8
DIM
370
     9
100
AcDbPolyline
 90
        3
 70
     0
 43
0.0
 10
-2.0
 20
0.9831764405007561
 10
-2.0
 20
0.5
 10
-2.46875
 20
0.6171875
  0
LWPOLYLINE
  5
94
330
8D
100
AcDbEntity
  8
DIM
370
     9
100
AcDbPolyline
 90
        2
 70
     0
 43
0.0
 10
0.3742552490839444
 20
-0.0935638122700766
 10
0.0
 20
0.0
  0
ENDBLK
  5
95
330
8D
100
AcDbEntity
  8
0
100
AcDbBlockEnd
  0
ENDSEC
  0
SECTION
  2
ENTITIES
  0
HATCH
  5
D68E
330
1F
100
AcDbEntity
  8
A2 Hatch
 48
0.15
100
AcDbHatch
 10
0.0
 20
0.0
 30
0.0
210
0.0
220
0.0
230
1.0
  2
SOLID
 70
     1
 71
     0
 91
        1
 92
        1
 93
        4
 72
     1
 10
-200.4914167112374
 20
349.6991375610135
 11
-183.1644316778484
 21
349.6991375610135
 72
     1
 10
-183.1644316778484
 20
349.6991375610135
 11
-183.1644316778484
 21
350.1366375610135
 72
     1
 10
-183.1644316778484
 20
350.1366375610135
 11
-200.4914167112374
 21
350.1366375610135
 72
     1
 10
-200.4914167112374
 20
350.1366375610135
 11
-200.4914167112374
 21
349.6991375610135
 97
        0
 75
     0
 76
     1
 98
        1
 10
-3580.795095430787
 20
664.1537682221732
  0
HATCH
  5
D68F
330
1F
100
AcDbEntity
  8
A2 Hatch
 48
0.15
100
AcDbHatch
 10
0.0
 20
0.0
 30
0.0
210
0.0
220
0.0
230
1.0
  2
SOLID
 70
     1
 71
     0
 91
        1
 92
        1
 93
        1
 72
     2
 10
-201.1644316778484
 20
335.6216122516952
 40
0.2243383222039483
 50
0.0
 51
360.0
 73
     1
 97
        0
 75
     0
 76
     1
 98
        1
 10
-3441.785841888047
 20
687.0657302425343
  0
LINE
  5
D690
330
1F
100
AcDbEntity
  8
DETAILS
 62
     6
370
    20
100
AcDbLine
 10
-196.5279780178526
 20
341.6366377231204
 30
0.0
 11
-205.8008853378442
 21
341.6366373989067
 31
0.0
  0
LINE
  5
D691
330
1F
100
AcDbEntity
  8
0
 48
0.15
100
AcDbLine
 10
-233.8090692388969
 20
341.6366375610135
 30
0.0
 11
-201.3887700000514
 21
341.6366375610135
 31
0.0
  0
LINE
  5
D692
330
1F
100
AcDbEntity
  8
0
 48
0.15
100
AcDbLine
 10
-226.4066757997835
 20
356.6366375610135
 30
0.0
 11
-171.1644316778484
 21
356.6366375610135
 31
0.0
  0
CIRCLE
  5
D693
330
1F
100
AcDbEntity
  8
A2 Hatch
 48
0.15
100
AcDbCircle
 10
-201.1644316778484
 20
335.6216122516952
 30
0.0
 40
0.8157720410317779
  0
LINE
  5
D694
330
1F
100
AcDbEntity
  8
DIM
100
AcDbLine
 10
-170.8839126866742
 20
357.2050732841644
 30
0.0
 11
-174.3024312999032
 21
350.2778841769896
 31
0.0
  0
LINE
  5
D695
330
1F
100
AcDbEntity
  8
DIM
100
AcDbLine
 10
-171.6889146903313
 20
348.9881322967427
 30
0.0
 11
-178.1889146903313
 21
348.9881322967427
 31
0.0
  0
LINE
  5
D696
330
1F
100
AcDbEntity
  8
DIM
100
AcDbLine
 10
-171.6889146903313
 20
348.9881322967427
 30
0.0
 11
-174.3024312999032
 21
350.2778841769897
 31
0.0
  0
LINE
  5
D697
330
1F
100
AcDbEntity
  8
DIM
100
AcDbLine
 10
-178.1889146903313
 20
348.9881322967427
 30
0.0
 11
-175.5753980807595
 21
347.6983804164956
 31
0.0
  0
LINE
  5
D698
330
1F
100
AcDbEntity
  8
DIM
100
AcDbLine
 10
-175.5753980807595
 20
347.6983804164955
 30
0.0
 11
-179.7367631224324
 21
339.2659083872081
 31
0.0
  0
LINE
  5
D699
330
1F
100
AcDbEntity
  8
DIM
100
AcDbLine
 10
-222.7076381953803
 20
364.132262391339
 30
0.0
 11
-229.5446754218402
 21
350.2778841769896
 31
0.0
  0
LINE
  5
D69A
330
1F
100
AcDbEntity
  8
DIM
100
AcDbLine
 10
-226.9311588122683
 20
348.9881322967427
 30
0.0
 11
-233.4311588122683
 21
348.9881322967427
 31
0.0
  0
LINE
  5
D69B
330
1F
100
AcDbEntity
  8
DIM
100
AcDbLine
 10
-226.9311588122683
 20
348.9881322967427
 30
0.0
 11
-229.5446754218402
 21
350.2778841769897
 31
0.0
  0
LINE
  5
D69C
330
1F
100
AcDbEntity
  8
DIM
100
AcDbLine
 10
-233.4311588122683
 20
348.9881322967427
 30
0.0
 11
-230.8176422026964
 21
347.6983804164956
 31
0.0
  0
LINE
  5
D69D
330
1F
100
AcDbEntity
  8
DIM
100
AcDbLine
 10
-230.8176422026964
 20
347.6983804164955
 30
0.0
 11
-237.6546794291544
 21
333.8440022021463
 31
0.0
  0
LINE
  5
D69E
330
1F
100
AcDbEntity
  8
0
 48
0.15
100
AcDbLine
 10
-227.8871544876065
 20
353.6366375610135
 30
0.0
 11
-172.6449103656714
 21
353.6366375610133
 31
0.0
  0
LINE
  5
D69F
330
1F
100
AcDbEntity
  8
A2 Hatch
  6
DASHED
 48
0.2
100
AcDbLine
 10
-228.6273938315181
 20
352.1366375610135
 30
0.0
 11
-173.3851497095811
 21
352.1366375610135
 31
0.0
  0
LINE
  5
D6A0
330
1F
100
AcDbEntity
  8
A2 Hatch
  6
DASHED
 48
0.2
100
AcDbLine
 10
-233.0688298949854
 20
343.1366375610135
 30
0.0
 11
-177.8265857730503
 21
343.1366375610135
 31
0.0
  0
LINE
  5
D6A1
330
1F
100
AcDbEntity
  8
A2 Hatch
  6
DASHED
 48
0.2
100
AcDbLine
 10
-190.1644316778465
 20
345.1366375610135
 30
0.0
 11
-190.1644316778465
 21
350.1366375610134
 31
0.0
  0
LINE
  5
D6A2
330
1F
100
AcDbEntity
  8
A2 Hatch
  6
DASHED
 48
0.2
100
AcDbLine
 10
-212.1644316778484
 20
345.1366375610135
 30
0.0
 11
-212.1644316778466
 21
350.1366375610135
 31
0.0
  0
LINE
  5
D6A3
330
1F
100
AcDbEntity
  8
A2 Hatch
  6
DASHED
 48
0.2
100
AcDbLine
 10
-212.1644316778466
 20
350.1366375610135
 30
0.0
 11
-214.1644316778466
 21
352.1366375610135
 31
0.0
  0
LINE
  5
D6A4
330
1F
100
AcDbEntity
  8
A2 Hatch
  6
DASHED
 48
0.2
100
AcDbLine
 10
-212.1644316778484
 20
345.1366375610135
 30
0.0
 11
-214.1644316778466
 21
343.1366375610135
 31
0.0
  0
LINE
  5
D6A5
330
1F
100
AcDbEntity
  8
A2 Hatch
  6
DASHED
 48
0.2
100
AcDbLine
 10
-190.1644316778465
 20
345.1366375610135
 30
0.0
 11
-188.1644316778466
 21
343.1366375610135
 31
0.0
  0
LINE
  5
D6A6
330
1F
100
AcDbEntity
  8
A2 Hatch
  6
DASHED
 48
0.2
100
AcDbLine
 10
-190.1644316778484
 20
350.1366375610135
 30
0.0
 11
-188.1644316778466
 21
352.1366375610135
 31
0.0
  0
LINE
  5
D6A7
102
{ACAD_REACTORS
330
D6C2
102
}
330
1F
100
AcDbEntity
  8
0
 48
0.15
100
AcDbLine
 10
-200.9400933556436
 20
336.4059312812488
 30
0.0
 11
-200.9400933556436
 21
341.6366375610135
 31
0.0
  0
LINE
  5
D6A8
102
{ACAD_REACTORS
330
D6C2
102
}
330
1F
100
AcDbEntity
  8
0
 48
0.15
100
AcDbLine
 10
-201.3887700000514
 20
336.4059312812488
 30
0.0
 11
-201.3887700000514
 21
341.6366375610135
 31
0.0
  0
ARC
  5
D6A9
102
{ACAD_REACTORS
330
D6C2
102
}
330
1F
100
AcDbEntity
  8
0
 48
0.15
100
AcDbCircle
 10
-201.1644316778484
 20
336.4059312812489
 30
0.0
 40
0.2243383222039483
100
AcDbArc
 50
180.000000000026
 51
359.999999999974
  0
LINE
  5
D6AA
102
{ACAD_REACTORS
330
D6B3
102
}
330
1F
100
AcDbEntity
  8
0
 48
0.15
100
AcDbLine
 10
-219.1644316778484
 20
349.6991375610135
 30
0.0
 11
-201.8374466444593
 21
349.6991375610135
 31
0.0
  0
LINE
  5
D6AB
102
{ACAD_REACTORS
330
D6B3
102
}
330
1F
100
AcDbEntity
  8
0
 48
0.15
100
AcDbLine
 10
-219.1644316778484
 20
350.1366375610135
 30
0.0
 11
-201.8374466444593
 21
350.1366375610135
 31
0.0
  0
LINE
  5
D6AC
102
{ACAD_REACTORS
330
D6B3
102
}
330
1F
100
AcDbEntity
  8
0
 48
0.15
100
AcDbLine
 10
-219.1644316778484
 20
350.1366375610135
 30
0.0
 11
-219.1644316778484
 21
349.6991375610135
 31
0.0
  0
LINE
  5
D6AD
102
{ACAD_REACTORS
330
D6C2
102
}
330
1F
100
AcDbEntity
  8
0
 48
0.15
100
AcDbLine
 10
-200.4914167112356
 20
341.6366375610135
 30
0.0
 11
-200.4914167112374
 21
353.6366375610135
 31
0.0
  0
LINE
  5
D6AE
102
{ACAD_REACTORS
330
D6C2
102
}
330
1F
100
AcDbEntity
  8
0
 48
0.15
100
AcDbLine
 10
-200.9400933556454
 20
336.4059312812488
 30
0.0
 11
-200.9400933556436
 21
341.6366375610135
 31
0.0
  0
LINE
  5
D6AF
102
{ACAD_REACTORS
330
D6C2
102
}
330
1F
100
AcDbEntity
  8
0
 48
0.15
100
AcDbLine
 10
-201.3887700000514
 20
336.4059312812488
 30
0.0
 11
-201.3887700000514
 21
341.6366375610135
 31
0.0
  0
LINE
  5
D6B0
102
{ACAD_REACTORS
330
D6C2
102
}
330
1F
100
AcDbEntity
  8
0
 48
0.15
100
AcDbLine
 10
-201.8374466444593
 20
341.6366375610135
 30
0.0
 11
-201.8374466444593
 21
353.6366375610135
 31
0.0
  0
LINE
  5
D6B1
102
{ACAD_REACTORS
330
D6C2
102
}
330
1F
100
AcDbEntity
  8
0
 48
0.15
100
AcDbLine
 10
-201.3887700000514
 20
336.4059312812488
 30
0.0
 11
-201.3887700000514
 21
341.6366375610135
 31
0.0
  0
LINE
  5
D6B2
102
{ACAD_REACTORS
330
D6B3
102
}
330
1F
100
AcDbEntity
  8
0
 48
0.15
100
AcDbLine
 10
-201.8374466444593
 20
350.1366375610135
 30
0.0
 11
-201.8374466444593
 21
349.6991375610135
 31
0.0
  0
HATCH
  5
D6B3
330
1F
100
AcDbEntity
  8
A2 Hatch
 48
0.15
100
AcDbHatch
 10
0.0
 20
0.0
 30
0.0
210
0.0
220
0.0
230
1.0
  2
SOLID
 70
     1
 71
     1
 91
        1
 92
        1
 93
        4
 72
     1
 10
-219.1644316778484
 20
349.6991375610135
 11
-201.8374466444593
 21
349.6991375610135
 72
     1
 10
-201.8374466444593
 20
349.6991375610135
 11
-201.8374466444593
 21
350.1366375610135
 72
     1
 10
-201.8374466444593
 20
350.1366375610135
 11
-219.1644316778484
 21
350.1366375610135
 72
     1
 10
-219.1644316778484
 20
350.1366375610135
 11
-219.1644316778484
 21
349.6991375610135
 97
        4
330
D6AA
330
D6B2
330
D6AB
330
D6AC
 75
     0
 76
     1
 98
        1
 10
-3599.468110397398
 20
664.1537682221732
  0
LINE
  5
D6B4
102
{ACAD_REACTORS
330
D6C2
102
}
330
1F
100
AcDbEntity
  8
0
 48
0.15
100
AcDbLine
 10
-200.9400933556454
 20
353.6366375610135
 30
0.0
 11
-200.9400933556454
 21
356.6366375610135
 31
0.0
  0
LINE
  5
D6B5
102
{ACAD_REACTORS
330
D6C2
102
}
330
1F
100
AcDbEntity
  8
0
 48
0.15
100
AcDbLine
 10
-200.9400933556454
 20
353.6366375610135
 30
0.0
 11
-200.9400933556436
 21
356.6366375610135
 31
0.0
  0
LINE
  5
D6B6
102
{ACAD_REACTORS
330
D6C2
102
}
330
1F
100
AcDbEntity
  8
0
 48
0.15
100
AcDbLine
 10
-201.3887700000514
 20
353.6366375610135
 30
0.0
 11
-201.3887700000514
 21
356.6366375610135
 31
0.0
  0
LINE
  5
D6B7
102
{ACAD_REACTORS
330
D6C2
102
}
330
1F
100
AcDbEntity
  8
0
 48
0.15
100
AcDbLine
 10
-201.3887700000514
 20
353.6366375610135
 30
0.0
 11
-201.3887700000514
 21
356.6366375610135
 31
0.0
  0
LINE
  5
D6B8
102
{ACAD_REACTORS
330
D6C2
102
}
330
1F
100
AcDbEntity
  8
0
 48
0.15
100
AcDbLine
 10
-201.3887700000514
 20
353.6366375610135
 30
0.0
 11
-201.3887700000514
 21
356.6366375610135
 31
0.0
  0
LINE
  5
D6B9
102
{ACAD_REACTORS
330
D6C2
102
}
330
1F
100
AcDbEntity
  8
0
 48
0.15
100
AcDbLine
 10
-201.8374466444593
 20
341.6366375374825
 30
0.0
 11
-201.3887700000514
 21
341.6366375374824
 31
0.0
  0
LINE
  5
D6BA
330
1F
100
AcDbEntity
  8
0
 48
0.15
100
AcDbLine
 10
-200.9400933556436
 20
341.6366375688572
 30
0.0
 11
-200.4914167112356
 21
341.6366375845445
 31
0.0
  0
LINE
  5
D6BB
330
1F
100
AcDbEntity
  8
0
 48
0.15
100
AcDbLine
 10
-201.8374466444593
 20
353.6366375610135
 30
0.0
 11
-201.3887700000514
 21
353.6366375610135
 31
0.0
  0
LINE
  5
D6BC
330
1F
100
AcDbEntity
  8
0
 48
0.15
100
AcDbLine
 10
-200.4914167112374
 20
353.6366375610135
 30
0.0
 11
-200.9400933556454
 21
353.6366375610135
 31
0.0
  0
LINE
  5
D6BD
102
{ACAD_REACTORS
330
D6C2
102
}
330
1F
100
AcDbEntity
  8
0
 48
0.15
100
AcDbLine
 10
-201.3887700000514
 20
356.6366375610135
 30
0.0
 11
-200.9400933556436
 21
356.6366375610135
 31
0.0
  0
LINE
  5
D6BE
330
1F
100
AcDbEntity
  8
0
 48
0.15
100
AcDbLine
 10
-200.9400933556454
 20
341.6366375610135
 30
0.0
 11
-178.56682511696
 21
341.6366375610135
 31
0.0
  0
LINE
  5
D6BF
102
{ACAD_REACTORS
330
D6C2
102
}
330
1F
100
AcDbEntity
  8
0
 48
0.15
100
AcDbLine
 10
-200.9400933556436
 20
341.6366375610135
 30
0.0
 11
-200.4914167112356
 21
341.6366375610135
 31
0.0
  0
LINE
  5
D6C0
102
{ACAD_REACTORS
330
D6C2
102
}
330
1F
100
AcDbEntity
  8
0
 48
0.15
100
AcDbLine
 10
-200.9400933556454
 20
353.6366375610135
 30
0.0
 11
-200.4914167112374
 21
353.6366375610135
 31
0.0
  0
LINE
  5
D6C1
102
{ACAD_REACTORS
330
D6C2
102
}
330
1F
100
AcDbEntity
  8
0
 48
0.15
100
AcDbLine
 10
-201.8374466444593
 20
353.6366375610135
 30
0.0
 11
-201.3887700000514
 21
353.6366375610135
 31
0.0
  0
HATCH
  5
D6C2
330
1F
100
AcDbEntity
  8
A2 Hatch
 48
0.15
100
AcDbHatch
 10
0.0
 20
0.0
 30
0.0
210
0.0
220
0.0
230
1.0
  2
SOLID
 70
     1
 71
     1
 91
        4
 92
        1
 93
       12
 72
     1
 10
-201.3887700000514
 20
336.4059312812488
 11
-201.3887700000514
 21
341.6366375610135
 72
     1
 10
-201.3887700000514
 20
341.6366375374824
 11
-201.8374466444593
 21
341.6366375374825
 72
     1
 10
-201.8374466444593
 20
341.6366375610135
 11
-201.8374466444593
 21
353.6366375610135
 72
     1
 10
-201.8374466444593
 20
353.6366375610135
 11
-201.3887700000514
 21
353.6366375610135
 72
     1
 10
-201.3887700000514
 20
353.6366375610135
 11
-201.3887700000514
 21
356.6366375610135
 72
     1
 10
-201.3887700000514
 20
356.6366375610135
 11
-200.9400933556436
 21
356.6366375610135
 72
     1
 10
-200.9400933556436
 20
356.6366375610135
 11
-200.9400933556454
 21
353.6366375610135
 72
     1
 10
-200.9400933556454
 20
353.6366375610135
 11
-200.4914167112374
 21
353.6366375610135
 72
     1
 10
-200.4914167112374
 20
353.6366375610135
 11
-200.4914167112356
 21
341.6366375610135
 72
     1
 10
-200.4914167112356
 20
341.6366375610135
 11
-200.9400933556436
 21
341.6366375610135
 72
     1
 10
-200.9400933556436
 20
341.6366375610135
 11
-200.9400933556454
 21
336.4059312812488
 72
     2
 10
-201.1644316778484
 20
336.4059312812489
 40
0.2243383222039483
 50
0.0000000000290575
 51
179.999999999971
 73
     0
 97
       12
330
D6B1
330
D6B9
330
D6B0
330
D6C1
330
D6B8
330
D6BD
330
D6B5
330
D6C0
330
D6AD
330
D6BF
330
D6AE
330
D6A9
 92
       17
 93
        2
 72
     1
 10
-201.3887700000514
 20
336.4059312812488
 11
-201.3887700000514
 21
341.6366375610135
 72
     1
 10
-201.3887700000514
 20
341.6366375610135
 11
-201.3887700000514
 21
336.4059312812488
 97
        2
330
D6AF
330
D6A8
 92
       17
 93
        2
 72
     1
 10
-201.3887700000514
 20
353.6366375610135
 11
-201.3887700000514
 21
356.6366375610135
 72
     1
 10
-201.3887700000514
 20
356.6366375610135
 11
-201.3887700000514
 21
353.6366375610135
 97
        2
330
D6B7
330
D6B6
 92
       49
 93
        2
 72
     1
 10
-200.9400933556436
 20
336.4059312812488
 11
-200.9400933556436
 21
341.6366375610135
 72
     1
 10
-200.9400933556454
 20
353.6366375610135
 11
-200.9400933556454
 21
356.6366375610135
 97
        4
330
D6B7
330
D6B6
330
D6A7
330
D6B4
 75
     0
 76
     1
 98
        1
 10
-3599.468110397398
 20
664.1537682221732
  0
HATCH
  5
D6C3
330
1F
100
AcDbEntity
  8
A2 Hatch
 48
0.15
100
AcDbHatch
 10
0.0
 20
0.0
 30
0.0
210
0.0
220
0.0
230
1.0
  2
AR-CONC
 70
     0
 71
     0
 91
        1
 92
        1
 93
        4
 72
     1
 10
-227.8871544876065
 20
353.6366375610135
 11
-172.6449103656714
 21
353.6366375610133
 72
     1
 10
-172.6449103656696
 20
353.6366375610135
 11
-171.1644316778466
 21
356.6366375610135
 72
     1
 10
-171.1644316778484
 20
356.6366375610135
 11
-226.4066757997853
 21
356.6366375610135
 72
     1
 10
-226.4066757997835
 20
356.6366375610135
 11
-227.8871544876065
 21
353.6366375610135
 97
        0
 75
     0
 76
     1
 52
0.0
 41
0.8
 77
     0
 78
    13
 53
50.0
 43
-3354.854973596805
 44
1032.104231453065
 45
5.738081460806028
 46
-0.502017079860761
 79
     2
 49
0.6000000000000001
 49
-6.6
 53
355.0
 43
-3354.854973596805
 44
1032.104231453065
 45
-1.110010668904
 46
6.017537069600095
 79
     2
 49
0.48
 49
-5.28
 53
100.4514
 43
-3354.376800156805
 44
1032.062396733065
 45
4.628075053712172
 46
5.515516336487628
 79
     2
 49
0.5099215199999998
 49
-5.609136895999997
 53
46.1842
 43
-3354.854973596805
 44
1033.704231453065
 45
8.537928389005156
 46
-1.324152114632144
 79
     2
 49
0.9
 49
-9.9
 53
96.63559999999998
 43
-3354.143479636806
 44
1033.593884997065
 45
7.477301644389626
 46
7.792942967203534
 79
     2
 49
0.7648823039999996
 49
-8.413703999999993
 53
351.1842000000001
 43
-3354.854973596805
 44
1033.704231453065
 45
7.477295561069017
 46
7.792948807402597
 79
     2
 49
0.7200000000000001
 49
-7.92
 53
21.0
 43
-3354.054973596805
 44
1033.304231453065
 45
4.775256416947693
 46
-3.22095112532271
 79
     2
 49
0.6000000000000001
 49
-6.6
 53
326.0
 43
-3354.054973596805
 44
1033.304231453065
 45
1.946522655372653
 46
5.801200360374824
 79
     2
 49
0.48
 49
-5.28
 53
71.45140000000001
 43
-3353.657035732805
 44
1033.035818605065
 45
6.721781028651919
 46
2.580243973679619
 79
     2
 49
0.5099215200000002
 49
-5.609136895999999
 53
37.5
 43
-3354.854973596805
 44
1032.104231453065
 45
0.0972788425383254
 46
2.663150830650492
 79
     6
 49
0.0
 49
-5.216
 49
0.0
 49
-5.36
 49
0.0
 49
-5.3
 53
7.499999999999999
 43
-3354.854973596805
 44
1032.104231453065
 45
2.104556299537188
 46
3.155293695058881
 79
     6
 49
0.0
 49
-3.056
 49
0.0
 49
-5.096
 49
0.0
 49
-2.02
 53
327.5
 43
-3356.638973596805
 44
1032.104231453065
 45
4.270579489379272
 46
-0.1804389738750384
 79
     6
 49
0.0
 49
-2.0
 49
0.0
 49
-6.24
 49
0.0
 49
-8.279999999999999
 53
317.5
 43
-3357.438973596805
 44
1032.104231453065
 45
4.665489354739089
 46
0.8008398586585411
 79
     6
 49
0.0
 49
-2.6
 49
0.0
 49
-4.144
 49
0.0
 49
-5.879999999999999
 98
        1
 10
-3599.468110397398
 20
664.1537682221732
  0
HATCH
  5
D6C4
330
1F
100
AcDbEntity
  8
A2 Hatch
 48
0.15
100
AcDbHatch
 10
0.0
 20
0.0
 30
0.0
210
0.0
220
0.0
230
1.0
  2
AR-CONC
 70
     0
 71
     0
 91
        1
 92
        1
 93
        8
 72
     1
 10
-212.1644316778466
 20
350.1366375610135
 11
-214.1644316778466
 21
352.1366375610135
 72
     1
 10
-214.1644316778466
 20
352.1366375610135
 11
-188.1644316778466
 21
352.1366375610135
 72
     1
 10
-188.1644316778466
 20
352.1366375610135
 11
-190.1644316778465
 21
350.136637561014
 72
     1
 10
-190.1644316778465
 20
350.136637561014
 11
-190.1644316778465
 21
345.1366375610135
 72
     1
 10
-190.1644316778465
 20
345.1366375610135
 11
-188.1644316778466
 21
343.1366375610135
 72
     1
 10
-188.1644316778466
 20
343.1366375610135
 11
-214.1644316778466
 21
343.1366375610135
 72
     1
 10
-214.1644316778466
 20
343.1366375610135
 11
-212.1644316778466
 21
345.1366375610131
 72
     1
 10
-212.1644316778484
 20
345.1366375610131
 11
-212.1644316778466
 21
350.1366375610135
 97
        0
 75
     0
 76
     1
 52
0.0
 41
0.8
 77
     0
 78
    13
 53
50.0
 43
-3354.854973596805
 44
1032.104231453065
 45
5.738081460806028
 46
-0.502017079860761
 79
     2
 49
0.6000000000000001
 49
-6.6
 53
355.0
 43
-3354.854973596805
 44
1032.104231453065
 45
-1.110010668904
 46
6.017537069600095
 79
     2
 49
0.48
 49
-5.28
 53
100.4514
 43
-3354.376800156805
 44
1032.062396733065
 45
4.628075053712172
 46
5.515516336487628
 79
     2
 49
0.5099215199999998
 49
-5.609136895999997
 53
46.1842
 43
-3354.854973596805
 44
1033.704231453065
 45
8.537928389005156
 46
-1.324152114632144
 79
     2
 49
0.9
 49
-9.9
 53
96.63559999999998
 43
-3354.143479636806
 44
1033.593884997065
 45
7.477301644389626
 46
7.792942967203534
 79
     2
 49
0.7648823039999996
 49
-8.413703999999993
 53
351.1842000000001
 43
-3354.854973596805
 44
1033.704231453065
 45
7.477295561069017
 46
7.792948807402597
 79
     2
 49
0.7200000000000001
 49
-7.92
 53
21.0
 43
-3354.054973596805
 44
1033.304231453065
 45
4.775256416947693
 46
-3.22095112532271
 79
     2
 49
0.6000000000000001
 49
-6.6
 53
326.0
 43
-3354.054973596805
 44
1033.304231453065
 45
1.946522655372653
 46
5.801200360374824
 79
     2
 49
0.48
 49
-5.28
 53
71.45140000000001
 43
-3353.657035732805
 44
1033.035818605065
 45
6.721781028651919
 46
2.580243973679619
 79
     2
 49
0.5099215200000002
 49
-5.609136895999999
 53
37.5
 43
-3354.854973596805
 44
1032.104231453065
 45
0.0972788425383254
 46
2.663150830650492
 79
     6
 49
0.0
 49
-5.216
 49
0.0
 49
-5.36
 49
0.0
 49
-5.3
 53
7.499999999999999
 43
-3354.854973596805
 44
1032.104231453065
 45
2.104556299537188
 46
3.155293695058881
 79
     6
 49
0.0
 49
-3.056
 49
0.0
 49
-5.096
 49
0.0
 49
-2.02
 53
327.5
 43
-3356.638973596805
 44
1032.104231453065
 45
4.270579489379272
 46
-0.1804389738750384
 79
     6
 49
0.0
 49
-2.0
 49
0.0
 49
-6.24
 49
0.0
 49
-8.279999999999999
 53
317.5
 43
-3357.438973596805
 44
1032.104231453065
 45
4.665489354739089
 46
0.8008398586585411
 79
     6
 49
0.0
 49
-2.6
 49
0.0
 49
-4.144
 49
0.0
 49
-5.879999999999999
 98
        1
 10
-3672.800070669147
 20
714.8264954420749
  0
MTEXT
  5
D6C5
330
1F
100
AcDbEntity
  8
DIM
 62
     3
100
AcDbMText
 10
-172.0127496238883
 20
373.3332943048825
 30
0.0
 40
1.0
 41
16.07546435255318
 71
     1
 72
     5
  1
BENT BAR, LAP W/HORIZ REINF
  7
RomanC
 73
     1
 44
1.0
1001
ACAD
1000
MTEXTBEGIN
1070
    73
1070
     1
1070
    44
1040
1.0
1070
    74
1070
     0
1000
MTEXTEND
  0
MTEXT
  5
D6C6
330
1F
100
AcDbEntity
  8
DIM
 62
     3
100
AcDbMText
 10
-172.0127496238883
 20
368.5657570282791
 30
0.0
 40
1.0
 41
16.07546435255318
 71
     1
 72
     5
  1
GROUT END CORES SOLID
  7
RomanC
 73
     1
 44
1.0
1001
ACAD
1000
MTEXTBEGIN
1070
    73
1070
     1
1070
    44
1040
1.0
1070
    74
1070
     0
1000
MTEXTEND
  0
MTEXT
  5
D6C7
330
1F
100
AcDbEntity
  8
DIM
 62
     3
100
AcDbMText
 10
-172.0127496238883
 20
361.7894117889589
 30
0.0
 40
1.0
 41
16.07546435255318
 71
     1
 72
     5
  1
REINF IN GROUT KEY
  7
RomanC
 73
     1
 44
1.0
1001
ACAD
1000
MTEXTBEGIN
1070
    73
1070
     1
1070
    44
1040
1.0
1070
    74
1070
     0
1000
MTEXTEND
  0
MTEXT
  5
D6C8
330
1F
100
AcDbEntity
  8
DIM
 62
     3
100
AcDbMText
 10
-172.0127496238883
 20
327.2328626246115
 30
0.0
 40
1.0
 41
16.07546435255318
 71
     1
 72
     5
  1
PRECAST + TOPPING 
  7
RomanC
 73
     1
 44
1.0
1001
ACAD
1000
MTEXTBEGIN
1070
    73
1070
     1
1070
    44
1040
1.0
1070
    74
1070
     0
1000
MTEXTEND
  0
LEADER
  5
D6C9
330
1F
100
AcDbEntity
  8
DIM
100
AcDbLeader
  3
ARCTEXT1-4
 76
     3
 10
-200.9400933556454
 20
353.6366375610135
 30
0.0
 10
-179.7318336701201
 20
372.8539997413816
 30
0.0
 10
-172.6343586522298
 20
372.8539997413816
 30
0.0
1001
ACAD
1000
DSTYLE
1002
{
1070
    41
1040
0.5
1070
    77
1070
     0
1002
}
  0
LEADER
  5
D6CA
330
1F
100
AcDbEntity
  8
DIM
100
AcDbLeader
  3
ARCTEXT1-4
 76
     3
 10
-197.7193686788187
 20
348.8100451875401
 30
0.0
 10
-179.7318336701201
 20
368.1486579500759
 30
0.0
 10
-172.6343586522298
 20
368.1486579500759
 30
0.0
1001
ACAD
1000
DSTYLE
1002
{
1070
    41
1040
0.5
1070
    77
1070
     0
1002
}
  0
LEADER
  5
D6CB
330
1F
100
AcDbEntity
  8
DIM
100
AcDbLeader
  3
ARCTEXT1-4
 76
     3
 10
-191.9230784061356
 20
350.1621881976396
 30
0.0
 10
-179.7318336701201
 20
361.2479217401567
 30
0.0
 10
-172.6343586522298
 20
361.2479217401567
 30
0.0
1001
ACAD
1000
DSTYLE
1002
{
1070
    41
1040
0.5
1070
    77
1070
     0
1002
}
  0
LEADER
  5
D6CC
330
1F
100
AcDbEntity
  8
DIM
100
AcDbLeader
  3
ARCTEXT1-4
 76
     3
 10
-189.7534592363017
 20
341.6366375610135
 30
0.0
 10
-179.7318336701201
 20
326.9371377410933
 30
0.0
 10
-172.6343586522298
 20
326.9371377410933
 30
0.0
1001
ACAD
1000
DSTYLE
1002
{
1070
    41
1040
0.5
1070
    77
1070
     0
1002
}
  0
MTEXT
  5
D6CD
330
1F
100
AcDbEntity
  8
DIM
100
AcDbMText
 10
-200.7279027896393
 20
300.6562405994354
 30
0.0
 40
3.0
 41
90.07999999999999
 71
     2
 72
     5
  1
{\L8" INTERIOR BEARING WALL; PRECAST PERPENDICULAR TO WALL}\P             
  7
RomanC
 73
     1
 44
1.0
1001
ACAD
1000
MTEXTBEGIN
1070
    73
1070
     1
1070
    44
1040
1.0
1070
    74
1070
     0
1000
MTEXTEND
  0
LINE
  5
D6CE
330
1F
100
AcDbEntity
  8
0
 48
0.15
100
AcDbLine
 10
-206.7592186711763
 20
341.6366375610135
 30
0.0
 11
-195.516119375844
 21
341.6366375610135
 31
0.0
  0
LINE
  5
D6CF
330
1F
100
AcDbEntity
  8
0
 48
0.15
100
AcDbLine
 10
-195.1376690235093
 20
341.6366375610135
 30
0.0
 11
-207.1376690235093
 21
341.6366375610135
 31
0.0
  0
LINE
  5
D6D0
330
1F
100
AcDbEntity
  8
0
 48
0.15
100
AcDbLine
 10
-201.4087534373021
 20
337.1460334245201
 30
0.0
 11
-200.8486051814043
 21
337.3610541942474
 31
0.0
  0
LINE
  5
D6D1
330
1F
100
AcDbEntity
  8
0
 48
0.15
100
AcDbLine
 10
-201.4087524807683
 20
337.1460337490457
 30
0.0
 11
-201.0108144459418
 21
336.8776211553797
 31
0.0
  0
LINE
  5
D6D2
330
1F
100
AcDbEntity
  8
0
 48
0.15
100
AcDbLine
 10
-201.0108451287297
 20
336.8776315344768
 30
0.0
 11
-200.8486349148434
 21
337.3610648836271
 31
0.0
  0
LINE
  5
D6D3
330
1F
100
AcDbEntity
  8
0
 48
0.15
100
AcDbLine
 10
-201.3008614209494
 20
336.9546490102148
 30
0.0
 11
-201.3008614209494
 21
336.9546490102148
 31
0.0
  0
LINE
  5
D6D4
330
1F
100
AcDbEntity
  8
0
 48
0.15
100
AcDbLine
 10
-201.1401862200264
 20
336.7497071595765
 30
0.0
 11
-201.1401862200264
 21
336.7497071595765
 31
0.0
  0
LINE
  5
D6D5
330
1F
100
AcDbEntity
  8
0
 48
0.15
100
AcDbLine
 10
-201.9504520950914
 20
336.6441652963691
 30
0.0
 11
-201.9504520950914
 21
336.6441652963691
 31
0.0
  0
MTEXT
  5
D6D6
330
1F
100
AcDbEntity
  8
DIM
 62
     3
100
AcDbMText
 10
-228.8233612497452
 20
323.4357761710075
 30
0.0
 40
1.0
 41
16.07546435255318
 71
     1
 72
     5
  1
VERT REINF 
  7
RomanC
 73
     1
 44
1.0
1001
ACAD
1000
MTEXTBEGIN
1070
    73
1070
     1
1070
    44
1040
1.0
1070
    74
1070
     0
1000
MTEXTEND
  0
LEADER
  5
D6D7
330
1F
100
AcDbEntity
  8
DIM
100
AcDbLeader
  3
ARCTEXT1-4
 76
     3
 10
-201.1644323899973
 20
323.0049910089996
 30
0.0
 10
-219.6670435384286
 20
323.0058302494339
 30
0.0
 10
-220.529528100934
 20
323.0058302494339
 30
0.0
211
-1.0
221
0.0
231
0.0
1001
ACAD
1000
DSTYLE
1002
{
1070
    41
1040
0.5
1070
    77
1070
     0
1002
}
  0
MTEXT
  5
D6D8
330
1F
100
AcDbEntity
  8
DIM
 62
     3
100
AcDbMText
 10
-229.4026610178435
 20
332.4717242403882
 30
0.0
 40
1.0
 41
16.07546435255318
 71
     1
 72
     5
  1
HORIZ REINF 
  7
RomanC
 73
     1
 44
1.0
1001
ACAD
1000
MTEXTBEGIN
1070
    73
1070
     1
1070
    44
1040
1.0
1070
    74
1070
     0
1000
MTEXTEND
  0
LEADER
  5
D6D9
330
1F
100
AcDbEntity
  8
DIM
100
AcDbLeader
  3
ARCTEXT1-4
 76
     3
 10
-201.9570610140573
 20
335.3346385741427
 30
0.0
 10
-217.6016077718005
 20
331.9499023860147
 30
0.0
 10
-220.5001710087263
 20
331.9499023860147
 30
0.0
211
-1.0
221
0.0
231
0.0
1001
ACAD
1000
DSTYLE
1002
{
1070
    41
1040
0.5
1070
    77
1070
     0
1002
}
  0
LINE
  5
D6DA
330
1F
100
AcDbEntity
  8
0
 62
     1
100
AcDbLine
 10
-206.1622830340994
 20
314.6366375610136
 30
0.0
 11
-206.1622830340994
 21
307.0818182947363
 31
0.0
  0
LINE
  5
D6DB
330
1F
100
AcDbEntity
  8
0
 62
     1
100
AcDbLine
 10
-196.1665803215974
 20
314.6366375610136
 30
0.0
 11
-196.1665803215974
 21
310.4717871708558
 31
0.0
  0
LINE
  5
D6DC
330
1F
100
AcDbEntity
  8
0
 62
     1
100
AcDbLine
 10
-206.1622830340994
 20
314.6366375610136
 30
0.0
 11
-204.6122830340983
 21
314.6366375610136
 31
0.0
  0
LINE
  5
D6DD
330
1F
100
AcDbEntity
  8
0
 62
     1
100
AcDbLine
 10
-204.1622830340994
 20
315.1366375610136
 30
0.0
 11
-204.1622830340994
 21
307.7601035486343
 31
0.0
  0
LINE
  5
D6DE
330
1F
100
AcDbEntity
  8
0
 62
     1
100
AcDbLine
 10
-198.1665803215974
 20
315.1366375610136
 30
0.0
 11
-198.1665803215974
 21
309.7935019169574
 31
0.0
  0
LINE
  5
D6DF
330
1F
100
AcDbEntity
  8
0
 62
     1
100
AcDbLine
 10
-205.812283034099
 20
315.1366375610136
 30
0.0
 11
-205.187283034099
 21
315.1366375610136
 31
0.0
  0
LINE
  5
D6E0
330
1F
100
AcDbEntity
  8
0
 62
     1
100
AcDbLine
 10
-205.812283034099
 20
315.1366375610136
 30
0.0
 11
-205.812283034099
 21
307.2005182141683
 31
0.0
  0
LINE
  5
D6E1
330
1F
100
AcDbEntity
  8
0
 62
     1
100
AcDbLine
 10
-196.5165803215978
 20
315.1366375610136
 30
0.0
 11
-196.5165803215978
 21
314.6366375610136
 31
0.0
  0
LINE
  5
D6E2
330
1F
100
AcDbEntity
  8
0
 62
     1
100
AcDbLine
 10
-204.7872830340994
 20
315.1366375610136
 30
0.0
 11
-204.7872830340994
 21
314.6366375610136
 31
0.0
  0
LINE
  5
D6E3
330
1F
100
AcDbEntity
  8
0
 62
     1
100
AcDbLine
 10
-205.187283034099
 20
315.1366375610136
 30
0.0
 11
-205.187283034099
 21
314.6366375610136
 31
0.0
  0
LINE
  5
D6E4
330
1F
100
AcDbEntity
  8
0
 62
     1
100
AcDbLine
 10
-197.5415803215974
 20
315.1366375610136
 30
0.0
 11
-197.5415803215974
 21
314.6366375610136
 31
0.0
  0
LINE
  5
D6E5
330
1F
100
AcDbEntity
  8
0
 62
     1
100
AcDbLine
 10
-197.1415803215978
 20
315.1366375610136
 30
0.0
 11
-197.1415803215978
 21
314.6366375610136
 31
0.0
  0
LINE
  5
D6E6
330
1F
100
AcDbEntity
  8
0
 62
     1
100
AcDbLine
 10
-198.1665803215974
 20
315.1366375610136
 30
0.0
 11
-197.5415803215974
 21
315.1366375610136
 31
0.0
  0
LINE
  5
D6E7
330
1F
100
AcDbEntity
  8
0
 62
     1
100
AcDbLine
 10
-197.1415803215978
 20
315.1366375610136
 30
0.0
 11
-196.5165803215978
 21
315.1366375610136
 31
0.0
  0
LINE
  5
D6E8
330
1F
100
AcDbEntity
  8
0
 62
     1
100
AcDbLine
 10
-204.7872830340994
 20
315.1366375610136
 30
0.0
 11
-204.1622830340994
 21
315.1366375610136
 31
0.0
  0
LINE
  5
D6E9
330
1F
100
AcDbEntity
  8
0
 62
     1
100
AcDbLine
 10
-204.3622830341001
 20
314.8866375610136
 30
0.0
 11
-204.3622830341001
 21
307.6922750232445
 31
0.0
  0
LINE
  5
D6EA
330
1F
100
AcDbEntity
  8
0
 62
     1
100
AcDbLine
 10
-197.9665803215967
 20
314.8866375610136
 30
0.0
 11
-197.9665803215967
 21
309.8613304423474
 31
0.0
  0
LINE
  5
D6EB
330
1F
100
AcDbEntity
  8
0
 62
     1
100
AcDbLine
 10
-204.6122830341001
 20
314.8866375610136
 30
0.0
 11
-204.6122830341001
 21
314.6366375610136
 31
0.0
  0
LINE
  5
D6EC
330
1F
100
AcDbEntity
  8
0
 62
     1
100
AcDbLine
 10
-197.7165803215967
 20
314.8866375610136
 30
0.0
 11
-197.7165803215967
 21
314.6366375610136
 31
0.0
  0
LINE
  5
D6ED
330
1F
100
AcDbEntity
  8
0
 62
     1
100
AcDbLine
 10
-204.6122830341001
 20
314.8866375610136
 30
0.0
 11
-204.3622830341001
 21
314.8866375610136
 31
0.0
  0
LINE
  5
D6EE
330
1F
100
AcDbEntity
  8
0
 62
     1
100
AcDbLine
 10
-197.9665803215967
 20
314.8866375610136
 30
0.0
 11
-197.7165803215967
 21
314.8866375610136
 31
0.0
  0
LINE
  5
D6EF
330
1F
100
AcDbEntity
  8
0
 62
     1
100
AcDbLine
 10
-197.7515803215965
 20
314.6366375610136
 30
0.0
 11
-196.1665803215974
 21
314.6366375610136
 31
0.0
  0
LINE
  5
D6F0
330
1F
100
AcDbEntity
  8
0
 62
     1
100
AcDbLine
 10
-204.3622830341001
 20
314.6366375610136
 30
0.0
 11
-204.1622830340994
 21
314.6366375610136
 31
0.0
  0
LINE
  5
D6F1
330
1F
100
AcDbEntity
  8
0
 62
     1
100
AcDbLine
 10
-197.7515803215965
 20
314.6366375610136
 30
0.0
 11
-197.7515803215965
 21
309.9342461071414
 31
0.0
  0
LINE
  5
D6F2
330
1F
100
AcDbEntity
  8
0
 62
     1
100
AcDbLine
 10
-196.9315803215968
 20
314.6366375610136
 30
0.0
 11
-196.9315803215968
 21
310.2123430612396
 31
0.0
  0
LINE
  5
D6F3
330
1F
100
AcDbEntity
  8
A2 Hatch
  6
DASHED2
 48
0.15
100
AcDbLine
 10
-197.5915803215967
 20
314.6366375610136
 30
0.0
 11
-197.5915803215967
 21
309.9885089274534
 31
0.0
  0
LINE
  5
D6F4
330
1F
100
AcDbEntity
  8
A2 Hatch
  6
DASHED2
 48
0.15
100
AcDbLine
 10
-197.0915803215967
 20
314.6366375610136
 30
0.0
 11
-197.0915803215967
 21
310.158080240928
 31
0.0
  0
LINE
  5
D6F5
330
1F
100
AcDbEntity
  8
0
 48
0.15
100
AcDbLine
 10
-205.187283034099
 20
314.6366375610136
 30
0.0
 11
-204.7872830340994
 21
314.6366375610136
 31
0.0
  0
LINE
  5
D6F6
330
1F
100
AcDbEntity
  8
A2 Hatch
  6
DASHED2
 48
0.15
100
AcDbLine
 10
-205.3972830340999
 20
315.1366375610136
 30
0.0
 11
-205.3972830340999
 21
307.3412624043521
 31
0.0
  0
LINE
  5
D6F7
330
1F
100
AcDbEntity
  8
A2 Hatch
  6
DASHED2
 48
0.15
100
AcDbLine
 10
-204.5772830341002
 20
315.1366375610136
 30
0.0
 11
-204.5772830340984
 21
307.6193593584505
 31
0.0
  0
LINE
  5
D6F8
330
1F
100
AcDbEntity
  8
0
 62
     1
100
AcDbLine
 10
-205.2372830340983
 20
315.1366375610136
 30
0.0
 11
-205.2372830340983
 21
307.3955252246642
 31
0.0
  0
LINE
  5
D6F9
330
1F
100
AcDbEntity
  8
0
 62
     1
100
AcDbLine
 10
-204.7372830340983
 20
315.1366375610136
 30
0.0
 11
-204.7372830340983
 21
307.5650965381387
 31
0.0
  0
LINE
  5
D6FA
330
1F
100
AcDbEntity
  8
0
 62
     1
100
AcDbLine
 10
-204.7372830340983
 20
314.6366375610136
 30
0.0
 11
-205.2372830341001
 21
314.6366375610136
 31
0.0
  0
LINE
  5
D6FB
330
1F
100
AcDbEntity
  8
0
 62
     1
100
AcDbLine
 10
-198.1665803215974
 20
314.6366375610136
 30
0.0
 11
-197.9665803215967
 21
314.6366375610136
 31
0.0
  0
LWPOLYLINE
  5
D6FC
330
1F
100
AcDbEntity
  8
DETAILS
 62
     6
370
    20
100
AcDbPolyline
 90
        2
 70
     0
 43
0.0
 10
-198.6780282945738
 20
306.7116375610134
 10
-198.7782335181973
 20
306.7116375610134
  0
LWPOLYLINE
  5
D6FD
330
1F
100
AcDbEntity
  8
DETAILS
 62
     6
370
    20
100
AcDbPolyline
 90
        3
 70
     0
 43
0.0
 10
-198.8014580468598
 20
306.7116375610134
 10
-198.7264580468591
 20
306.7116375610134
 10
-198.6780282945738
 20
306.7116375610134
  0
LWPOLYLINE
  5
D6FE
330
1F
100
AcDbEntity
  8
DETAILS
 62
     6
370
    20
100
AcDbPolyline
 90
        6
 70
     0
 43
0.0
 10
-198.8157335181977
 20
306.7491375610136
 10
-198.8014580468598
 20
306.7491375610136
 10
-198.728162341703
 20
306.7657047403881
 42
0.7807764064044151
 10
-198.728162341703
 20
306.7700703816389
 10
-198.8014580468598
 20
306.7866375610135
 10
-198.8532335181981
 20
306.7866375610135
  0
LWPOLYLINE
  5
D6FF
330
1F
100
AcDbEntity
  8
DETAILS
 62
     6
370
    20
100
AcDbPolyline
 90
        2
 70
     0
 43
0.0
 10
-199.1157335181988
 20
307.0491375610135
 10
-198.792488931168
 20
307.0491375610135
  0
LWPOLYLINE
  5
D700
330
1F
100
AcDbEntity
  8
DETAILS
 62
     6
370
    20
100
AcDbPolyline
 90
        2
 70
     0
 43
0.0
 10
-199.2657335181984
 20
307.1991375610136
 10
-198.8433603252115
 20
307.1991375610136
  0
LWPOLYLINE
  5
D701
330
1F
100
AcDbEntity
  8
DETAILS
 62
     6
370
    20
100
AcDbPolyline
 90
        2
 70
     0
 43
0.0
 10
-198.7543353856372
 20
306.9366375610136
 10
-199.0032335181977
 20
306.9366375610136
  0
LWPOLYLINE
  5
D702
330
1F
100
AcDbEntity
  8
DETAILS
 62
     6
370
    20
100
AcDbPolyline
 90
        2
 70
     1
 43
0.0
 10
-200.9032466060735
 20
311.2116375610137
 10
-200.9168735800422
 20
311.2116375610137
  0
LWPOLYLINE
  5
D703
330
1F
100
AcDbEntity
  8
DETAILS
 62
     6
370
    20
100
AcDbPolyline
 90
        6
 70
     0
 43
0.0
 10
-200.9168735800422
 20
311.2116375610137
 42
0.279322065306064
 10
-200.950113757589
 20
311.1914967273987
 42
-0.2793220653060733
 10
-201.1644316778484
 20
311.0616375610136
 10
-198.4950240640364
 20
311.0616375610136
 42
0.1989123673782991
 10
-198.4419910554489
 20
311.0836045524245
 10
-198.1644316778502
 20
311.3611639300206
  0
LWPOLYLINE
  5
D704
330
1F
100
AcDbEntity
  8
DETAILS
 62
     6
370
    20
100
AcDbPolyline
 90
        2
 70
     1
 43
0.0
 10
-200.8282466060728
 20
311.2116375610137
 10
-199.7782466060735
 20
311.2116375610137
  0
LWPOLYLINE
  5
D705
330
1F
100
AcDbEntity
  8
DETAILS
 62
     6
370
    20
100
AcDbPolyline
 90
        6
 70
     0
 43
0.0
 10
-199.7420790743881
 20
311.0616375610136
 10
-199.9006519804416
 20
311.7192974786205
 42
0.3464949689054692
 10
-200.0464730358281
 20
311.8341375610136
 10
-200.6782466060732
 20
311.8341375610136
 42
0.4142135623730951
 10
-200.8282466060728
 20
311.6841375610138
 10
-200.8282466060728
 20
311.0616375610138
  0
LWPOLYLINE
  5
D706
330
1F
100
AcDbEntity
  8
DETAILS
 62
     6
370
    20
100
AcDbPolyline
 90
        6
 70
     0
 43
0.0
 10
-199.6649297219146
 20
311.0616375610136
 10
-199.8277414527484
 20
311.736877437424
 42
0.3464949689054692
 10
-200.0464730358281
 20
311.9091375610137
 10
-200.6782466060732
 20
311.9091375610137
 42
0.4142135623730951
 10
-200.9032466060735
 20
311.6841375610138
 10
-200.9032466060735
 20
311.0616375610138
  0
LWPOLYLINE
  5
D707
330
1F
100
AcDbEntity
  8
DETAILS
 62
     6
370
    20
100
AcDbPolyline
 90
        2
 70
     1
 43
0.0
 10
-199.7010972536
 20
311.2116375610137
 10
-199.6874702796313
 20
311.2116375610137
  0
LWPOLYLINE
  5
D708
330
1F
100
AcDbEntity
  8
DETAILS
 62
     6
370
    20
100
AcDbPolyline
 90
        6
 70
     0
 43
0.0
 10
-199.1923540840207
 20
311.2116375610137
 10
-199.1224771100506
 20
311.2116375610137
 10
-199.1923540840207
 20
311.2116375610137
 42
0.2793220653054726
 10
-199.2255942615675
 20
311.1914967273987
 42
-0.6059183769079625
 10
-199.6542301028048
 20
311.1914967270227
 42
0.279322065306064
 10
-199.6874702796313
 20
311.2116375610137
  0
LWPOLYLINE
  5
D709
330
1F
100
AcDbEntity
  8
DETAILS
 62
     6
370
    20
100
AcDbPolyline
 90
        7
 70
     0
 43
0.0
 10
-198.1644316778484
 20
311.8116375610136
 10
-199.0049567774395
 20
311.8116375610136
 42
0.4853378929632635
 10
-199.128904674516
 20
311.654251631048
 10
-198.9860154201497
 20
311.0616375610136
 10
-198.5389580468591
 20
311.0616375610136
 10
-198.7264580468591
 20
311.0616375610136
 10
-198.8014580468598
 20
311.0616375610136
  0
LWPOLYLINE
  5
D70A
330
1F
100
AcDbEntity
  8
DETAILS
 62
     6
370
    20
100
AcDbPolyline
 90
        4
 70
     0
 43
0.0
 10
-198.1644316778484
 20
311.9091375610137
 10
-199.0049567774395
 20
311.9091375610137
 42
0.4853378929632635
 10
-199.2236883605174
 20
311.6313976846035
 10
-199.0863095783652
 20
311.0616375610136
  0
LWPOLYLINE
  5
D70B
330
1F
100
AcDbEntity
  8
DETAILS
 62
     6
370
    20
100
AcDbPolyline
 90
       10
 70
     1
 43
0.0
 10
-201.1644316778484
 20
311.0241375610137
 10
-203.5274053088369
 20
311.0241375610137
 10
-203.6007010139938
 20
311.0075703816389
 42
0.7807764064044151
 10
-203.6007010139938
 20
311.0032047403883
 10
-203.5274053088369
 20
310.9866375610135
 10
-201.1644316778484
 20
310.9866375610135
 10
-198.8014580468598
 20
310.9866375610135
 10
-198.728162341703
 20
311.0032047403883
 42
0.7807764064044151
 10
-198.728162341703
 20
311.0075703816389
 10
-198.8014580468598
 20
311.0241375610137
  0
LWPOLYLINE
  5
D70C
330
1F
100
AcDbEntity
  8
DETAILS
 62
     6
370
    20
100
AcDbPolyline
 90
        7
 70
     0
 43
0.0
 10
-198.1644316778502
 20
310.4246111920069
 10
-198.4419910554489
 20
310.7021705696029
 42
0.1989123673781766
 10
-198.4950240640364
 20
310.7241375610135
 10
-201.1644316778484
 20
310.7241375610137
 10
-203.8338392916585
 20
310.7241375610135
 42
0.1989123673781765
 10
-203.8868723002479
 20
310.7021705696029
 10
-204.1644316778484
 20
310.4246111920049
  0
LWPOLYLINE
  5
D70D
330
1F
100
AcDbEntity
  8
DETAILS
 62
     6
370
    20
100
AcDbPolyline
 90
        7
 70
     0
 43
0.0
 10
-198.1644316778484
 20
310.2746111920082
 10
-198.3541230898036
 20
310.4643026039604
 42
0.1989123673777966
 10
-198.619288132747
 20
310.5741375610136
 10
-201.1644316778484
 20
310.5741375610136
 10
-203.7095752229498
 20
310.5741375610136
 42
0.1989123673777966
 10
-203.9747402658913
 20
310.4643026039604
 10
-204.1644316778484
 20
310.2746111920055
  0
LWPOLYLINE
  5
D70E
330
1F
100
AcDbEntity
  8
DETAILS
 62
     6
370
    20
100
AcDbPolyline
 90
        4
 70
     0
 43
0.0
 10
-199.022182951835
 20
311.2116375610137
 10
-198.6192881327488
 20
311.2116375610137
 42
0.1989123673788307
 10
-198.3541230898054
 20
311.3214725180678
 10
-198.1644316778502
 20
311.511163930022
  0
LWPOLYLINE
  5
D70F
330
1F
100
AcDbEntity
  8
DETAILS
 62
     6
370
    20
100
AcDbPolyline
 90
        4
 70
     0
 43
0.0
 10
-198.1644316778502
 20
311.1736639300231
 10
-198.365658533975
 20
310.972437073897
 42
0.4142135623745727
 10
-198.365658533975
 20
310.8133380481297
 10
-198.1644316778484
 20
310.6121111920051
  0
LWPOLYLINE
  5
D710
330
1F
100
AcDbEntity
  8
DETAILS
 62
     6
370
    20
100
AcDbPolyline
 90
        6
 70
     1
 43
0.0
 10
-201.1644316778484
 20
310.9491375610136
 10
-198.5389580468591
 20
310.9491375610136
 10
-198.5389580468591
 20
310.8366375610137
 10
-201.1644316778484
 20
310.8366375610135
 10
-203.7899053088377
 20
310.8366375610137
 10
-203.7899053088377
 20
310.9491375610136
  0
LWPOLYLINE
  5
D711
330
1F
100
AcDbEntity
  8
DETAILS
 62
     6
370
    20
100
AcDbPolyline
 90
        2
 70
     1
 43
0.0
 10
-201.4256167496233
 20
311.2116375610137
 10
-201.4119897756528
 20
311.2116375610137
  0
LWPOLYLINE
  5
D712
330
1F
100
AcDbEntity
  8
DETAILS
 62
     6
370
    20
100
AcDbPolyline
 90
        6
 70
     0
 43
0.0
 10
-204.1644316778484
 20
311.3611639300227
 10
-203.8868723002479
 20
311.0836045524245
 42
0.1989123673782989
 10
-203.8338392916585
 20
311.0616375610136
 10
-201.1644316778484
 20
311.0616375610133
 42
-0.2793220653060733
 10
-201.3787495988263
 20
311.1914967270227
 42
0.279322065306064
 10
-201.4119897756528
 20
311.2116375610137
  0
LWPOLYLINE
  5
D713
330
1F
100
AcDbEntity
  8
DETAILS
 62
     6
370
    20
100
AcDbPolyline
 90
        2
 70
     1
 43
0.0
 10
-201.500616749624
 20
311.2116375610137
 10
-202.5506167496233
 20
311.2116375610137
  0
LWPOLYLINE
  5
D714
330
1F
100
AcDbEntity
  8
DETAILS
 62
     6
370
    20
100
AcDbPolyline
 90
        6
 70
     0
 43
0.0
 10
-201.5006167496222
 20
311.0616375610138
 10
-201.500616749624
 20
311.6841375610138
 42
0.4142135623730951
 10
-201.6506167496237
 20
311.8341375610136
 10
-202.2823903198687
 20
311.8341375610136
 42
0.3464949689054692
 10
-202.4282113752552
 20
311.7192974786205
 10
-202.5867842813086
 20
311.0616375610136
  0
LWPOLYLINE
  5
D715
330
1F
100
AcDbEntity
  8
DETAILS
 62
     6
370
    20
100
AcDbPolyline
 90
        6
 70
     0
 43
0.0
 10
-201.4256167496233
 20
311.0616375610138
 10
-201.4256167496233
 20
311.6841375610138
 42
0.4142135623730951
 10
-201.6506167496237
 20
311.9091375610137
 10
-202.2823903198687
 20
311.9091375610137
 42
0.3464949689054692
 10
-202.5011219029466
 20
311.736877437424
 10
-202.6639336337821
 20
311.0616375610136
  0
LWPOLYLINE
  5
D716
330
1F
100
AcDbEntity
  8
DETAILS
 62
     6
370
    20
100
AcDbPolyline
 90
        2
 70
     1
 43
0.0
 10
-202.6277661020968
 20
311.2116375610137
 10
-202.6413930760655
 20
311.2116375610137
  0
LWPOLYLINE
  5
D717
330
1F
100
AcDbEntity
  8
DETAILS
 62
     6
370
    20
100
AcDbPolyline
 90
        6
 70
     0
 43
0.0
 10
-202.6413930760655
 20
311.2116375610137
 42
0.279322065306064
 10
-202.6746332536123
 20
311.1914967273987
 42
-0.6059183769079624
 10
-203.1032690948478
 20
311.1914967270227
 42
0.2793220653054726
 10
-203.1365092716761
 20
311.2116375610137
 10
-203.2063862456462
 20
311.2116375610137
 10
-203.1365092716761
 20
311.2116375610137
  0
LWPOLYLINE
  5
D718
330
1F
100
AcDbEntity
  8
DETAILS
 62
     6
370
    20
100
AcDbPolyline
 90
        7
 70
     0
 43
0.0
 10
-203.5274053088369
 20
311.0616375610136
 10
-203.6024053088377
 20
311.0616375610136
 10
-203.7899053088377
 20
311.0616375610136
 10
-203.3428479355453
 20
311.0616375610136
 10
-203.199958681179
 20
311.6542516310478
 42
0.4853378929632635
 10
-203.3239065782573
 20
311.8116375610136
 10
-204.1644316778502
 20
311.8116375610136
  0
LWPOLYLINE
  5
D719
330
1F
100
AcDbEntity
  8
DETAILS
 62
     6
370
    20
100
AcDbPolyline
 90
        4
 70
     0
 43
0.0
 10
-203.2425537773297
 20
311.0616375610136
 10
-203.1051749951794
 20
311.6313976846035
 42
0.4853378929632635
 10
-203.3239065782573
 20
311.9091375610137
 10
-204.1644316778502
 20
311.9091375610137
  0
LWPOLYLINE
  5
D71A
330
1F
100
AcDbEntity
  8
DETAILS
 62
     6
370
    20
100
AcDbPolyline
 90
        4
 70
     0
 43
0.0
 10
-204.1644316778484
 20
311.5111639300244
 10
-203.9747402658913
 20
311.3214725180678
 42
0.1989123673788307
 10
-203.7095752229479
 20
311.2116375610137
 10
-203.3066804038618
 20
311.2116375610137
  0
LWPOLYLINE
  5
D71B
330
1F
100
AcDbEntity
  8
DETAILS
 62
     6
370
    20
100
AcDbPolyline
 90
        4
 70
     0
 43
0.0
 10
-204.1644316778484
 20
310.612111192003
 10
-203.9632048217218
 20
310.8133380481297
 42
0.4142135623745727
 10
-203.96320482172
 20
310.972437073897
 10
-204.1644316778502
 20
311.1736639300251
  0
LINE
  5
D71C
330
1F
100
AcDbEntity
  8
0
 62
     1
100
AcDbLine
 10
-206.1622830340975
 20
341.6366375610135
 30
0.0
 11
-206.1622830340994
 21
338.6366375610136
 31
0.0
  0
LINE
  5
D71D
330
1F
100
AcDbEntity
  8
0
 62
     1
100
AcDbLine
 10
-196.1665803215974
 20
341.6366375610135
 30
0.0
 11
-196.1665803215974
 21
338.6366375610136
 31
0.0
  0
LINE
  5
D71E
330
1F
100
AcDbEntity
  8
0
 62
     1
100
AcDbLine
 10
-206.1622830340994
 20
338.6366375610136
 30
0.0
 11
-204.1622830340994
 21
338.6366375610136
 31
0.0
  0
LINE
  5
D71F
330
1F
100
AcDbEntity
  8
0
 62
     1
100
AcDbLine
 10
-204.1622830340994
 20
341.6366375610135
 30
0.0
 11
-204.1622830340994
 21
338.6366375610136
 31
0.0
  0
LINE
  5
D720
330
1F
100
AcDbEntity
  8
0
 62
     1
100
AcDbLine
 10
-198.1665803215974
 20
341.6366375610135
 30
0.0
 11
-198.1665803215974
 21
338.6366375610136
 31
0.0
  0
LINE
  5
D721
330
1F
100
AcDbEntity
  8
0
 62
     1
100
AcDbLine
 10
-205.812283034099
 20
341.6366375610135
 30
0.0
 11
-205.812283034099
 21
338.6366375610136
 31
0.0
  0
LINE
  5
D722
330
1F
100
AcDbEntity
  8
0
 62
     1
100
AcDbLine
 10
-204.3622830341001
 20
341.6366375610135
 30
0.0
 11
-204.3622830341001
 21
338.6366375610136
 31
0.0
  0
LINE
  5
D723
330
1F
100
AcDbEntity
  8
0
 62
     1
100
AcDbLine
 10
-197.9665803215967
 20
341.6366375610135
 30
0.0
 11
-197.9665803215967
 21
338.6366375610136
 31
0.0
  0
LINE
  5
D724
330
1F
100
AcDbEntity
  8
0
 62
     1
100
AcDbLine
 10
-197.7515803215965
 20
341.6366375610135
 30
0.0
 11
-197.7515803215965
 21
338.6366375610136
 31
0.0
  0
LINE
  5
D725
330
1F
100
AcDbEntity
  8
0
 62
     1
100
AcDbLine
 10
-196.9315803215968
 20
341.6366375610135
 30
0.0
 11
-196.9315803215968
 21
338.6366375610136
 31
0.0
  0
LINE
  5
D726
330
1F
100
AcDbEntity
  8
A2 Hatch
  6
DASHED2
 48
0.15
100
AcDbLine
 10
-197.5915803215967
 20
341.6366375610135
 30
0.0
 11
-197.5915803215967
 21
338.6366375610136
 31
0.0
  0
LINE
  5
D727
330
1F
100
AcDbEntity
  8
A2 Hatch
  6
DASHED2
 48
0.15
100
AcDbLine
 10
-197.0915803215967
 20
341.6366375610135
 30
0.0
 11
-197.0915803215967
 21
338.6366375610136
 31
0.0
  0
LINE
  5
D728
330
1F
100
AcDbEntity
  8
A2 Hatch
  6
DASHED2
 48
0.15
100
AcDbLine
 10
-205.3972830340999
 20
341.6366375610135
 30
0.0
 11
-205.3972830340999
 21
338.6366375610136
 31
0.0
  0
LINE
  5
D729
330
1F
100
AcDbEntity
  8
A2 Hatch
  6
DASHED2
 48
0.15
100
AcDbLine
 10
-204.5772830341002
 20
341.6366375610135
 30
0.0
 11
-204.5772830340984
 21
338.6366375610136
 31
0.0
  0
LINE
  5
D72A
330
1F
100
AcDbEntity
  8
0
 62
     1
100
AcDbLine
 10
-205.2372830340983
 20
341.6366375610135
 30
0.0
 11
-205.2372830340983
 21
338.6366375610136
 31
0.0
  0
LINE
  5
D72B
330
1F
100
AcDbEntity
  8
0
 62
     1
100
AcDbLine
 10
-204.7372830340983
 20
341.6366375610135
 30
0.0
 11
-204.7372830340983
 21
338.6366375610136
 31
0.0
  0
LINE
  5
D72C
330
1F
100
AcDbEntity
  8
0
 62
     1
100
AcDbLine
 10
-198.1665803215974
 20
338.6366375610136
 30
0.0
 11
-196.1665803215974
 21
338.6366375610136
 31
0.0
  0
LINE
  5
D72D
330
1F
100
AcDbEntity
  8
0
 62
     1
100
AcDbLine
 10
-204.1622830340994
 20
339.1366375610136
 30
0.0
 11
-204.1622830340994
 21
338.6366375610136
 31
0.0
  0
LINE
  5
D72E
330
1F
100
AcDbEntity
  8
0
  6
HIDDEN
 62
     1
 48
0.02
100
AcDbLine
 10
-205.812283034099
 20
339.1366375610136
 30
0.0
 11
-205.187283034099
 21
339.1366375610136
 31
0.0
  0
LINE
  5
D72F
330
1F
100
AcDbEntity
  8
0
  6
HIDDEN
 62
     1
 48
0.02
100
AcDbLine
 10
-205.812283034099
 20
339.1366375610136
 30
0.0
 11
-205.812283034099
 21
338.6366375610136
 31
0.0
  0
LINE
  5
D730
330
1F
100
AcDbEntity
  8
0
  6
HIDDEN
 62
     1
 48
0.02
100
AcDbLine
 10
-204.7872830340994
 20
339.1366375610136
 30
0.0
 11
-204.7872830340994
 21
338.6366375610136
 31
0.0
  0
LINE
  5
D731
330
1F
100
AcDbEntity
  8
0
  6
HIDDEN
 62
     1
 48
0.02
100
AcDbLine
 10
-205.187283034099
 20
339.1366375610136
 30
0.0
 11
-205.187283034099
 21
338.6366375610136
 31
0.0
  0
LINE
  5
D732
330
1F
100
AcDbEntity
  8
0
  6
HIDDEN
 62
     1
 48
0.02
100
AcDbLine
 10
-204.7872830340994
 20
339.1366375610136
 30
0.0
 11
-204.1622830340994
 21
339.1366375610136
 31
0.0
  0
LINE
  5
D733
330
1F
100
AcDbEntity
  8
0
 62
     1
100
AcDbLine
 10
-198.1665803215974
 20
339.1366375610137
 30
0.0
 11
-198.1665803215956
 21
338.6366375610136
 31
0.0
  0
LINE
  5
D734
330
1F
100
AcDbEntity
  8
0
  6
HIDDEN
 62
     1
 48
0.02
100
AcDbLine
 10
-196.516580321596
 20
339.1366375610137
 30
0.0
 11
-196.516580321596
 21
338.6366375610137
 31
0.0
  0
LINE
  5
D735
330
1F
100
AcDbEntity
  8
0
  6
HIDDEN
 62
     1
 48
0.02
100
AcDbLine
 10
-197.5415803215974
 20
339.1366375610139
 30
0.0
 11
-197.5415803215974
 21
338.6366375610137
 31
0.0
  0
LINE
  5
D736
330
1F
100
AcDbEntity
  8
0
  6
HIDDEN
 62
     1
 48
0.02
100
AcDbLine
 10
-197.1415803215959
 20
339.1366375610137
 30
0.0
 11
-197.1415803215959
 21
338.6366375610137
 31
0.0
  0
LINE
  5
D737
330
1F
100
AcDbEntity
  8
0
  6
HIDDEN
 62
     1
 48
0.02
100
AcDbLine
 10
-198.1665803215956
 20
339.1366375610137
 30
0.0
 11
-197.5415803215956
 21
339.1366375610137
 31
0.0
  0
LINE
  5
D738
330
1F
100
AcDbEntity
  8
0
  6
HIDDEN
 62
     1
 48
0.02
100
AcDbLine
 10
-197.1415803215959
 20
339.1366375610137
 30
0.0
 11
-196.516580321596
 21
339.1366375610137
 31
0.0
  0
LINE
  5
D739
330
1F
100
AcDbEntity
  8
0
  6
HIDDEN
 62
     1
 48
0.02
100
AcDbLine
 10
-197.9665803215967
 20
338.8866375610137
 30
0.0
 11
-197.9665803215949
 21
338.6366375610136
 31
0.0
  0
LINE
  5
D73A
330
1F
100
AcDbEntity
  8
0
  6
HIDDEN
 62
     1
 48
0.02
100
AcDbLine
 10
-197.7165803215967
 20
338.8866375610137
 30
0.0
 11
-197.7165803215967
 21
338.6366375610137
 31
0.0
  0
LINE
  5
D73B
330
1F
100
AcDbEntity
  8
0
  6
HIDDEN
 62
     1
 48
0.02
100
AcDbLine
 10
-197.9665803215967
 20
338.8866375610137
 30
0.0
 11
-197.7165803215967
 21
338.8866375610137
 31
0.0
  0
LINE
  5
D73C
330
1F
100
AcDbEntity
  8
0
 62
     1
100
AcDbLine
 10
-206.1622830340994
 20
338.6366375610136
 30
0.0
 11
-206.1622830340994
 21
326.6366375610136
 31
0.0
  0
LINE
  5
D73D
330
1F
100
AcDbEntity
  8
0
 62
     1
100
AcDbLine
 10
-196.1665803215974
 20
338.6366375610136
 30
0.0
 11
-196.1665803215974
 21
326.6366375610136
 31
0.0
  0
LINE
  5
D73E
330
1F
100
AcDbEntity
  8
0
 62
     1
100
AcDbLine
 10
-206.1622830340994
 20
338.6366375610136
 30
0.0
 11
-204.6122830340983
 21
338.6366375610136
 31
0.0
  0
LINE
  5
D73F
330
1F
100
AcDbEntity
  8
0
 62
     1
100
AcDbLine
 10
-206.1622830340994
 20
326.6366375610136
 30
0.0
 11
-204.1622830340994
 21
326.6366375610136
 31
0.0
  0
LINE
  5
D740
330
1F
100
AcDbEntity
  8
0
 62
     1
100
AcDbLine
 10
-204.1622830340994
 20
339.1366375610136
 30
0.0
 11
-204.1622830340994
 21
326.6366375610136
 31
0.0
  0
LINE
  5
D741
330
1F
100
AcDbEntity
  8
0
 62
     1
100
AcDbLine
 10
-198.1665803215974
 20
339.1366375610136
 30
0.0
 11
-198.1665803215974
 21
326.6366375610136
 31
0.0
  0
LINE
  5
D742
330
1F
100
AcDbEntity
  8
0
 62
     1
100
AcDbLine
 10
-205.812283034099
 20
339.1366375610136
 30
0.0
 11
-205.187283034099
 21
339.1366375610136
 31
0.0
  0
LINE
  5
D743
330
1F
100
AcDbEntity
  8
0
 62
     1
100
AcDbLine
 10
-205.812283034099
 20
339.1366375610136
 30
0.0
 11
-205.812283034099
 21
326.6366375610136
 31
0.0
  0
LINE
  5
D744
330
1F
100
AcDbEntity
  8
0
 62
     1
100
AcDbLine
 10
-196.5165803215978
 20
339.1366375610136
 30
0.0
 11
-196.5165803215978
 21
338.6366375610136
 31
0.0
  0
LINE
  5
D745
330
1F
100
AcDbEntity
  8
0
 62
     1
100
AcDbLine
 10
-204.7872830340994
 20
339.1366375610136
 30
0.0
 11
-204.7872830340994
 21
338.6366375610136
 31
0.0
  0
LINE
  5
D746
330
1F
100
AcDbEntity
  8
0
 62
     1
100
AcDbLine
 10
-205.187283034099
 20
339.1366375610136
 30
0.0
 11
-205.187283034099
 21
338.6366375610136
 31
0.0
  0
LINE
  5
D747
330
1F
100
AcDbEntity
  8
0
 62
     1
100
AcDbLine
 10
-197.5415803215974
 20
339.1366375610137
 30
0.0
 11
-197.5415803215974
 21
338.6366375610136
 31
0.0
  0
LINE
  5
D748
330
1F
100
AcDbEntity
  8
0
 62
     1
100
AcDbLine
 10
-197.1415803215978
 20
339.1366375610136
 30
0.0
 11
-197.1415803215978
 21
338.6366375610136
 31
0.0
  0
LINE
  5
D749
330
1F
100
AcDbEntity
  8
0
 62
     1
100
AcDbLine
 10
-198.1665803215974
 20
339.1366375610136
 30
0.0
 11
-197.5415803215974
 21
339.1366375610136
 31
0.0
  0
LINE
  5
D74A
330
1F
100
AcDbEntity
  8
0
 62
     1
100
AcDbLine
 10
-197.1415803215978
 20
339.1366375610136
 30
0.0
 11
-196.5165803215978
 21
339.1366375610136
 31
0.0
  0
LINE
  5
D74B
330
1F
100
AcDbEntity
  8
0
 62
     1
100
AcDbLine
 10
-204.7872830340994
 20
339.1366375610136
 30
0.0
 11
-204.1622830340994
 21
339.1366375610136
 31
0.0
  0
LINE
  5
D74C
330
1F
100
AcDbEntity
  8
0
 62
     1
100
AcDbLine
 10
-204.3622830341001
 20
338.8866375610136
 30
0.0
 11
-204.3622830341001
 21
326.6366375610136
 31
0.0
  0
LINE
  5
D74D
330
1F
100
AcDbEntity
  8
0
 62
     1
100
AcDbLine
 10
-197.9665803215967
 20
338.8866375610136
 30
0.0
 11
-197.9665803215967
 21
326.6366375610136
 31
0.0
  0
LINE
  5
D74E
330
1F
100
AcDbEntity
  8
0
 62
     1
100
AcDbLine
 10
-204.6122830341001
 20
338.8866375610136
 30
0.0
 11
-204.6122830341001
 21
338.6366375610136
 31
0.0
  0
LINE
  5
D74F
330
1F
100
AcDbEntity
  8
0
 62
     1
100
AcDbLine
 10
-197.7165803215967
 20
338.8866375610136
 30
0.0
 11
-197.7165803215967
 21
338.6366375610136
 31
0.0
  0
LINE
  5
D750
330
1F
100
AcDbEntity
  8
0
 62
     1
100
AcDbLine
 10
-204.6122830341001
 20
338.8866375610136
 30
0.0
 11
-204.3622830341001
 21
338.8866375610136
 31
0.0
  0
LINE
  5
D751
330
1F
100
AcDbEntity
  8
0
 62
     1
100
AcDbLine
 10
-197.9665803215967
 20
338.8866375610136
 30
0.0
 11
-197.7165803215967
 21
338.8866375610136
 31
0.0
  0
LINE
  5
D752
330
1F
100
AcDbEntity
  8
0
 62
     1
100
AcDbLine
 10
-197.7515803215965
 20
338.6366375610136
 30
0.0
 11
-196.1665803215974
 21
338.6366375610136
 31
0.0
  0
LINE
  5
D753
330
1F
100
AcDbEntity
  8
0
 62
     1
100
AcDbLine
 10
-204.3622830341001
 20
338.6366375610136
 30
0.0
 11
-204.1622830340994
 21
338.6366375610136
 31
0.0
  0
LINE
  5
D754
330
1F
100
AcDbEntity
  8
0
 62
     1
100
AcDbLine
 10
-197.7515803215965
 20
338.6366375610136
 30
0.0
 11
-197.7515803215965
 21
326.6366375610136
 31
0.0
  0
LINE
  5
D755
330
1F
100
AcDbEntity
  8
0
 62
     1
100
AcDbLine
 10
-196.9315803215968
 20
338.6366375610136
 30
0.0
 11
-196.9315803215968
 21
326.6366375610136
 31
0.0
  0
LINE
  5
D756
330
1F
100
AcDbEntity
  8
A2 Hatch
  6
DASHED2
 48
0.15
100
AcDbLine
 10
-197.5915803215967
 20
338.6366375610136
 30
0.0
 11
-197.5915803215967
 21
326.6366375610136
 31
0.0
  0
LINE
  5
D757
330
1F
100
AcDbEntity
  8
A2 Hatch
  6
DASHED2
 48
0.15
100
AcDbLine
 10
-197.0915803215967
 20
338.6366375610136
 30
0.0
 11
-197.0915803215967
 21
326.6366375610136
 31
0.0
  0
LINE
  5
D758
330
1F
100
AcDbEntity
  8
0
 48
0.15
100
AcDbLine
 10
-205.187283034099
 20
338.6366375610136
 30
0.0
 11
-204.7872830340994
 21
338.6366375610136
 31
0.0
  0
LINE
  5
D759
330
1F
100
AcDbEntity
  8
A2 Hatch
  6
DASHED2
 48
0.15
100
AcDbLine
 10
-205.3972830340999
 20
339.1366375610136
 30
0.0
 11
-205.3972830340999
 21
326.6366375610136
 31
0.0
  0
LINE
  5
D75A
330
1F
100
AcDbEntity
  8
A2 Hatch
  6
DASHED2
 48
0.15
100
AcDbLine
 10
-204.5772830341002
 20
339.1366375610136
 30
0.0
 11
-204.5772830340984
 21
326.6366375610136
 31
0.0
  0
LINE
  5
D75B
330
1F
100
AcDbEntity
  8
0
 62
     1
100
AcDbLine
 10
-205.2372830340983
 20
339.1366375610136
 30
0.0
 11
-205.2372830340983
 21
326.6366375610136
 31
0.0
  0
LINE
  5
D75C
330
1F
100
AcDbEntity
  8
0
 62
     1
100
AcDbLine
 10
-204.7372830340983
 20
339.1366375610136
 30
0.0
 11
-204.7372830340983
 21
326.6366375610136
 31
0.0
  0
LINE
  5
D75D
330
1F
100
AcDbEntity
  8
0
 62
     1
100
AcDbLine
 10
-204.7372830340983
 20
338.6366375610136
 30
0.0
 11
-205.2372830341001
 21
338.6366375610136
 31
0.0
  0
LINE
  5
D75E
330
1F
100
AcDbEntity
  8
0
 62
     1
100
AcDbLine
 10
-198.1665803215974
 20
338.6366375610136
 30
0.0
 11
-197.9665803215967
 21
338.6366375610136
 31
0.0
  0
LINE
  5
D75F
330
1F
100
AcDbEntity
  8
0
 62
     1
100
AcDbLine
 10
-198.1665803215974
 20
326.6366375610136
 30
0.0
 11
-196.1665803215974
 21
326.6366375610136
 31
0.0
  0
LINE
  5
D760
330
1F
100
AcDbEntity
  8
0
 62
     1
100
AcDbLine
 10
-204.1622830340994
 20
327.1366375610136
 30
0.0
 11
-204.1622830340994
 21
326.6366375610136
 31
0.0
  0
LINE
  5
D761
330
1F
100
AcDbEntity
  8
0
  6
HIDDEN
 62
     1
 48
0.02
100
AcDbLine
 10
-205.812283034099
 20
327.1366375610136
 30
0.0
 11
-205.187283034099
 21
327.1366375610136
 31
0.0
  0
LINE
  5
D762
330
1F
100
AcDbEntity
  8
0
  6
HIDDEN
 62
     1
 48
0.02
100
AcDbLine
 10
-205.812283034099
 20
327.1366375610136
 30
0.0
 11
-205.812283034099
 21
326.6366375610136
 31
0.0
  0
LINE
  5
D763
330
1F
100
AcDbEntity
  8
0
  6
HIDDEN
 62
     1
 48
0.02
100
AcDbLine
 10
-204.7872830340994
 20
327.1366375610136
 30
0.0
 11
-204.7872830340994
 21
326.6366375610135
 31
0.0
  0
LINE
  5
D764
330
1F
100
AcDbEntity
  8
0
  6
HIDDEN
 62
     1
 48
0.02
100
AcDbLine
 10
-205.187283034099
 20
327.1366375610136
 30
0.0
 11
-205.187283034099
 21
326.6366375610136
 31
0.0
  0
LINE
  5
D765
330
1F
100
AcDbEntity
  8
0
  6
HIDDEN
 62
     1
 48
0.02
100
AcDbLine
 10
-204.7872830340994
 20
327.1366375610136
 30
0.0
 11
-204.1622830340994
 21
327.1366375610136
 31
0.0
  0
LINE
  5
D766
330
1F
100
AcDbEntity
  8
0
 62
     1
100
AcDbLine
 10
-198.1665803215974
 20
327.1366375610138
 30
0.0
 11
-198.1665803215956
 21
326.6366375610136
 31
0.0
  0
LINE
  5
D767
330
1F
100
AcDbEntity
  8
0
  6
HIDDEN
 62
     1
 48
0.02
100
AcDbLine
 10
-196.516580321596
 20
327.1366375610138
 30
0.0
 11
-196.516580321596
 21
326.6366375610137
 31
0.0
  0
LINE
  5
D768
330
1F
100
AcDbEntity
  8
0
  6
HIDDEN
 62
     1
 48
0.02
100
AcDbLine
 10
-197.5415803215974
 20
327.1366375610138
 30
0.0
 11
-197.5415803215974
 21
326.6366375610137
 31
0.0
  0
LINE
  5
D769
330
1F
100
AcDbEntity
  8
0
  6
HIDDEN
 62
     1
 48
0.02
100
AcDbLine
 10
-197.1415803215959
 20
327.1366375610138
 30
0.0
 11
-197.1415803215959
 21
326.6366375610137
 31
0.0
  0
LINE
  5
D76A
330
1F
100
AcDbEntity
  8
0
  6
HIDDEN
 62
     1
 48
0.02
100
AcDbLine
 10
-198.1665803215956
 20
327.1366375610138
 30
0.0
 11
-197.5415803215956
 21
327.1366375610138
 31
0.0
  0
LINE
  5
D76B
330
1F
100
AcDbEntity
  8
0
  6
HIDDEN
 62
     1
 48
0.02
100
AcDbLine
 10
-197.1415803215959
 20
327.1366375610138
 30
0.0
 11
-196.516580321596
 21
327.1366375610138
 31
0.0
  0
LINE
  5
D76C
330
1F
100
AcDbEntity
  8
0
  6
HIDDEN
 62
     1
 48
0.02
100
AcDbLine
 10
-197.9665803215967
 20
326.8866375610138
 30
0.0
 11
-197.9665803215949
 21
326.6366375610136
 31
0.0
  0
LINE
  5
D76D
330
1F
100
AcDbEntity
  8
0
  6
HIDDEN
 62
     1
 48
0.02
100
AcDbLine
 10
-197.7165803215967
 20
326.8866375610138
 30
0.0
 11
-197.7165803215967
 21
326.6366375610137
 31
0.0
  0
LINE
  5
D76E
330
1F
100
AcDbEntity
  8
0
  6
HIDDEN
 62
     1
 48
0.02
100
AcDbLine
 10
-197.9665803215967
 20
326.8866375610138
 30
0.0
 11
-197.7165803215967
 21
326.8866375610138
 31
0.0
  0
LWPOLYLINE
  5
D76F
330
1F
100
AcDbEntity
  8
DETAILS
 62
     6
370
    20
100
AcDbPolyline
 90
        2
 70
     1
 43
0.0
 10
-200.9032466060735
 20
330.5616375610136
 10
-200.9168735800422
 20
330.5616375610136
  0
LWPOLYLINE
  5
D770
330
1F
100
AcDbEntity
  8
DETAILS
 62
     6
370
    20
100
AcDbPolyline
 90
        6
 70
     0
 43
0.0
 10
-198.1644316778484
 20
330.4121111920062
 10
-198.4419910554489
 20
330.6896705696028
 42
0.1989123673782988
 10
-198.4950240640364
 20
330.7116375610136
 10
-201.1644316778484
 20
330.7116375610137
 42
-0.2793220653060733
 10
-200.9501137568686
 20
330.5817783950046
 42
0.279322065306064
 10
-200.9168735800422
 20
330.5616375610136
  0
LWPOLYLINE
  5
D771
330
1F
100
AcDbEntity
  8
DETAILS
 62
     6
370
    20
100
AcDbPolyline
 90
        2
 70
     1
 43
0.0
 10
-200.8282466060728
 20
330.5616375610136
 10
-199.7782466060735
 20
330.5616375610136
  0
LWPOLYLINE
  5
D772
330
1F
100
AcDbEntity
  8
DETAILS
 62
     6
370
    20
100
AcDbPolyline
 90
        6
 70
     0
 43
0.0
 10
-200.8282466060728
 20
330.7116375610135
 10
-200.8282466060728
 20
330.0891375610136
 42
0.4142135623730951
 10
-200.6782466060732
 20
329.9391375610135
 10
-200.0464730358281
 20
329.9391375610135
 42
0.3464949689054693
 10
-199.9006519804416
 20
330.0539776434066
 10
-199.7420790743881
 20
330.7116375610137
  0
LWPOLYLINE
  5
D773
330
1F
100
AcDbEntity
  8
DETAILS
 62
     6
370
    20
100
AcDbPolyline
 90
        6
 70
     0
 43
0.0
 10
-200.9032466060735
 20
330.7116375610135
 10
-200.9032466060735
 20
330.0891375610136
 42
0.4142135623730951
 10
-200.6782466060732
 20
329.8641375610135
 10
-200.0464730358281
 20
329.8641375610135
 42
0.3464949689054693
 10
-199.8277414527484
 20
330.0363976846033
 10
-199.6649297219146
 20
330.7116375610136
  0
LWPOLYLINE
  5
D774
330
1F
100
AcDbEntity
  8
DETAILS
 62
     6
370
    20
100
AcDbPolyline
 90
        2
 70
     1
 43
0.0
 10
-199.7010972536
 20
330.5616375610136
 10
-199.6874702796313
 20
330.5616375610136
  0
LWPOLYLINE
  5
D775
330
1F
100
AcDbEntity
  8
DETAILS
 62
     6
370
    20
100
AcDbPolyline
 90
        6
 70
     0
 43
0.0
 10
-199.6874702796313
 20
330.5616375610136
 42
0.279322065306064
 10
-199.6542301020845
 20
330.5817783946285
 42
-0.6059183769079624
 10
-199.2255942608472
 20
330.5817783950046
 42
0.2793220653054726
 10
-199.1923540840207
 20
330.5616375610136
 10
-199.1224771100506
 20
330.5616375610136
 10
-199.1923540840207
 20
330.5616375610136
  0
LWPOLYLINE
  5
D776
330
1F
100
AcDbEntity
  8
DETAILS
 62
     6
370
    20
100
AcDbPolyline
 90
        7
 70
     0
 43
0.0
 10
-198.8014580468598
 20
330.7116375610136
 10
-198.7264580468591
 20
330.7116375610136
 10
-198.5389580468591
 20
330.7116375610136
 10
-198.9860154201497
 20
330.7116375610136
 10
-199.1289046745178
 20
330.1190234909794
 42
0.4853378929632635
 10
-199.0049567774395
 20
329.9616375610136
 10
-198.1644316778484
 20
329.9616375610136
  0
LWPOLYLINE
  5
D777
330
1F
100
AcDbEntity
  8
DETAILS
 62
     6
370
    20
100
AcDbPolyline
 90
        4
 70
     0
 43
0.0
 10
-199.0863095783652
 20
330.7116375610136
 10
-199.2236883605174
 20
330.1418774374236
 42
0.4853378929632635
 10
-199.0049567774395
 20
329.8641375610135
 10
-198.1644316778484
 20
329.8641375610135
  0
LWPOLYLINE
  5
D778
330
1F
100
AcDbEntity
  8
DETAILS
 62
     6
370
    20
100
AcDbPolyline
 90
       10
 70
     1
 43
0.0
 10
-201.1644316778484
 20
330.7491375610136
 10
-198.8014580468598
 20
330.7491375610136
 10
-198.728162341703
 20
330.7657047403882
 42
0.7807764064044151
 10
-198.728162341703
 20
330.7700703816388
 10
-198.8014580468598
 20
330.7866375610135
 10
-201.1644316778484
 20
330.7866375610135
 10
-203.5274053088369
 20
330.7866375610135
 10
-203.6007010139938
 20
330.7700703816388
 42
0.7807764064044151
 10
-203.6007010139938
 20
330.7657047403882
 10
-203.5274053088369
 20
330.7491375610136
  0
LWPOLYLINE
  5
D779
330
1F
100
AcDbEntity
  8
DETAILS
 62
     6
370
    20
100
AcDbPolyline
 90
        7
 70
     0
 43
0.0
 10
-204.1644316778484
 20
331.3486639300222
 10
-203.8868723002479
 20
331.0711045524244
 42
0.1989123673781765
 10
-203.8338392916585
 20
331.0491375610137
 10
-201.1644316778484
 20
331.0491375610135
 10
-198.4950240640364
 20
331.0491375610137
 42
0.1989123673781768
 10
-198.4419910554489
 20
331.0711045524244
 10
-198.1644316778484
 20
331.3486639300206
  0
LWPOLYLINE
  5
D77A
330
1F
100
AcDbEntity
  8
DETAILS
 62
     6
370
    20
100
AcDbPolyline
 90
        7
 70
     0
 43
0.0
 10
-204.1644316778484
 20
331.4986639300215
 10
-203.9747402658913
 20
331.3089725180668
 42
0.1989123673777967
 10
-203.7095752229498
 20
331.1991375610136
 10
-201.1644316778484
 20
331.1991375610135
 10
-198.619288132747
 20
331.1991375610136
 42
0.1989123673777968
 10
-198.3541230898036
 20
331.3089725180668
 10
-198.1644316778484
 20
331.4986639300194
  0
LWPOLYLINE
  5
D77B
330
1F
100
AcDbEntity
  8
DETAILS
 62
     6
370
    20
100
AcDbPolyline
 90
        4
 70
     0
 43
0.0
 10
-198.1644316778484
 20
330.2621111920049
 10
-198.3541230898054
 20
330.4518026039594
 42
0.1989123673788307
 10
-198.6192881327488
 20
330.5616375610136
 10
-199.022182951835
 20
330.5616375610136
  0
LWPOLYLINE
  5
D77C
330
1F
100
AcDbEntity
  8
DETAILS
 62
     6
370
    20
100
AcDbPolyline
 90
        4
 70
     0
 43
0.0
 10
-198.1644316778484
 20
331.1611639300226
 10
-198.365658533975
 20
330.9599370738976
 42
0.4142135623745727
 10
-198.365658533975
 20
330.8008380481302
 10
-198.1644316778484
 20
330.5996111920042
  0
LWPOLYLINE
  5
D77D
330
1F
100
AcDbEntity
  8
DETAILS
 62
     6
370
    20
100
AcDbPolyline
 90
        6
 70
     1
 43
0.0
 10
-201.1644316778484
 20
330.8241375610136
 10
-198.5389580468591
 20
330.8241375610135
 10
-198.5389580468591
 20
330.9366375610136
 10
-201.1644316778484
 20
330.9366375610136
 10
-203.7899053088377
 20
330.9366375610136
 10
-203.7899053088377
 20
330.8241375610135
  0
LWPOLYLINE
  5
D77E
330
1F
100
AcDbEntity
  8
DETAILS
 62
     6
370
    20
100
AcDbPolyline
 90
        2
 70
     1
 43
0.0
 10
-200.9032466060735
 20
335.2116375610137
 10
-200.9168735800422
 20
335.2116375610137
  0
LWPOLYLINE
  5
D77F
330
1F
100
AcDbEntity
  8
DETAILS
 62
     6
370
    20
100
AcDbPolyline
 90
        6
 70
     0
 43
0.0
 10
-200.9168735800422
 20
335.2116375610137
 42
0.279322065306064
 10
-200.950113757589
 20
335.1914967273987
 42
-0.2793220653060733
 10
-201.1644316778484
 20
335.0616375610136
 10
-198.4950240640364
 20
335.0616375610136
 42
0.1989123673782991
 10
-198.4419910554489
 20
335.0836045524244
 10
-198.1644316778502
 20
335.3611639300206
  0
LWPOLYLINE
  5
D780
330
1F
100
AcDbEntity
  8
DETAILS
 62
     6
370
    20
100
AcDbPolyline
 90
        2
 70
     1
 43
0.0
 10
-200.8282466060728
 20
335.2116375610137
 10
-199.7782466060735
 20
335.2116375610137
  0
LWPOLYLINE
  5
D781
330
1F
100
AcDbEntity
  8
DETAILS
 62
     6
370
    20
100
AcDbPolyline
 90
        6
 70
     0
 43
0.0
 10
-199.7420790743881
 20
335.0616375610136
 10
-199.9006519804416
 20
335.7192974786205
 42
0.3464949689054692
 10
-200.0464730358281
 20
335.8341375610136
 10
-200.6782466060732
 20
335.8341375610136
 42
0.4142135623730951
 10
-200.8282466060728
 20
335.6841375610136
 10
-200.8282466060728
 20
335.0616375610137
  0
LWPOLYLINE
  5
D782
330
1F
100
AcDbEntity
  8
DETAILS
 62
     6
370
    20
100
AcDbPolyline
 90
        6
 70
     0
 43
0.0
 10
-199.6649297219146
 20
335.0616375610136
 10
-199.8277414527484
 20
335.736877437424
 42
0.3464949689054692
 10
-200.0464730358281
 20
335.9091375610137
 10
-200.6782466060732
 20
335.9091375610137
 42
0.4142135623730951
 10
-200.9032466060735
 20
335.6841375610136
 10
-200.9032466060735
 20
335.0616375610137
  0
LWPOLYLINE
  5
D783
330
1F
100
AcDbEntity
  8
DETAILS
 62
     6
370
    20
100
AcDbPolyline
 90
        2
 70
     1
 43
0.0
 10
-199.7010972536
 20
335.2116375610137
 10
-199.6874702796313
 20
335.2116375610137
  0
LWPOLYLINE
  5
D784
330
1F
100
AcDbEntity
  8
DETAILS
 62
     6
370
    20
100
AcDbPolyline
 90
        6
 70
     0
 43
0.0
 10
-199.1923540840207
 20
335.2116375610137
 10
-199.1224771100506
 20
335.2116375610137
 10
-199.1923540840207
 20
335.2116375610137
 42
0.2793220653054726
 10
-199.2255942615675
 20
335.1914967273986
 42
-0.6059183769079625
 10
-199.6542301028048
 20
335.1914967270226
 42
0.279322065306064
 10
-199.6874702796313
 20
335.2116375610137
  0
LWPOLYLINE
  5
D785
330
1F
100
AcDbEntity
  8
DETAILS
 62
     6
370
    20
100
AcDbPolyline
 90
        7
 70
     0
 43
0.0
 10
-198.1644316778484
 20
335.8116375610136
 10
-199.0049567774395
 20
335.8116375610136
 42
0.4853378929632635
 10
-199.128904674516
 20
335.654251631048
 10
-198.9860154201497
 20
335.0616375610136
 10
-198.5389580468591
 20
335.0616375610136
 10
-198.7264580468591
 20
335.0616375610136
 10
-198.8014580468598
 20
335.0616375610136
  0
LWPOLYLINE
  5
D786
330
1F
100
AcDbEntity
  8
DETAILS
 62
     6
370
    20
100
AcDbPolyline
 90
        4
 70
     0
 43
0.0
 10
-198.1644316778484
 20
335.9091375610137
 10
-199.0049567774395
 20
335.9091375610137
 42
0.4853378929632635
 10
-199.2236883605174
 20
335.6313976846035
 10
-199.0863095783652
 20
335.0616375610136
  0
LWPOLYLINE
  5
D787
330
1F
100
AcDbEntity
  8
DETAILS
 62
     6
370
    20
100
AcDbPolyline
 90
       10
 70
     1
 43
0.0
 10
-201.1644316778484
 20
335.0241375610137
 10
-203.5274053088369
 20
335.0241375610137
 10
-203.6007010139938
 20
335.0075703816389
 42
0.7807764064044151
 10
-203.6007010139938
 20
335.0032047403883
 10
-203.5274053088369
 20
334.9866375610137
 10
-201.1644316778484
 20
334.9866375610137
 10
-198.8014580468598
 20
334.9866375610137
 10
-198.728162341703
 20
335.0032047403883
 42
0.7807764064044151
 10
-198.728162341703
 20
335.0075703816389
 10
-198.8014580468598
 20
335.0241375610137
  0
LWPOLYLINE
  5
D788
330
1F
100
AcDbEntity
  8
DETAILS
 62
     6
370
    20
100
AcDbPolyline
 90
        7
 70
     0
 43
0.0
 10
-198.1644316778502
 20
334.4246111920069
 10
-198.4419910554489
 20
334.7021705696028
 42
0.1989123673781766
 10
-198.4950240640364
 20
334.7241375610135
 10
-201.1644316778484
 20
334.7241375610136
 10
-203.8338392916585
 20
334.7241375610135
 42
0.1989123673781765
 10
-203.8868723002479
 20
334.7021705696028
 10
-204.1644316778484
 20
334.4246111920049
  0
LWPOLYLINE
  5
D789
330
1F
100
AcDbEntity
  8
DETAILS
 62
     6
370
    20
100
AcDbPolyline
 90
        7
 70
     0
 43
0.0
 10
-198.1644316778484
 20
334.2746111920082
 10
-198.3541230898036
 20
334.4643026039605
 42
0.1989123673777966
 10
-198.619288132747
 20
334.5741375610136
 10
-201.1644316778484
 20
334.5741375610136
 10
-203.7095752229498
 20
334.5741375610136
 42
0.1989123673777966
 10
-203.9747402658913
 20
334.4643026039605
 10
-204.1644316778484
 20
334.2746111920054
  0
LWPOLYLINE
  5
D78A
330
1F
100
AcDbEntity
  8
DETAILS
 62
     6
370
    20
100
AcDbPolyline
 90
        4
 70
     0
 43
0.0
 10
-199.022182951835
 20
335.2116375610137
 10
-198.6192881327488
 20
335.2116375610137
 42
0.1989123673788307
 10
-198.3541230898054
 20
335.3214725180678
 10
-198.1644316778502
 20
335.5111639300221
  0
LWPOLYLINE
  5
D78B
330
1F
100
AcDbEntity
  8
DETAILS
 62
     6
370
    20
100
AcDbPolyline
 90
        4
 70
     0
 43
0.0
 10
-198.1644316778502
 20
335.1736639300231
 10
-198.365658533975
 20
334.972437073897
 42
0.4142135623745727
 10
-198.365658533975
 20
334.8133380481296
 10
-198.1644316778484
 20
334.6121111920051
  0
LWPOLYLINE
  5
D78C
330
1F
100
AcDbEntity
  8
DETAILS
 62
     6
370
    20
100
AcDbPolyline
 90
        6
 70
     1
 43
0.0
 10
-201.1644316778484
 20
334.9491375610136
 10
-198.5389580468591
 20
334.9491375610136
 10
-198.5389580468591
 20
334.8366375610137
 10
-201.1644316778484
 20
334.8366375610136
 10
-203.7899053088377
 20
334.8366375610137
 10
-203.7899053088377
 20
334.9491375610136
  0
LWPOLYLINE
  5
D78D
330
1F
100
AcDbEntity
  8
DETAILS
 62
     6
370
    20
100
AcDbPolyline
 90
        2
 70
     1
 43
0.0
 10
-201.4256167496233
 20
330.5616375610136
 10
-201.4119897756528
 20
330.5616375610136
  0
LWPOLYLINE
  5
D78E
330
1F
100
AcDbEntity
  8
DETAILS
 62
     6
370
    20
100
AcDbPolyline
 90
        6
 70
     0
 43
0.0
 10
-201.4119897756528
 20
330.5616375610136
 42
0.279322065306064
 10
-201.3787495981078
 20
330.5817783946285
 42
-0.2793220653060734
 10
-201.1644316778484
 20
330.7116375610136
 10
-203.8338392916585
 20
330.7116375610136
 42
0.1989123673782987
 10
-203.8868723002479
 20
330.6896705696028
 10
-204.1644316778484
 20
330.4121111920046
  0
LWPOLYLINE
  5
D78F
330
1F
100
AcDbEntity
  8
DETAILS
 62
     6
370
    20
100
AcDbPolyline
 90
        2
 70
     1
 43
0.0
 10
-201.500616749624
 20
330.5616375610136
 10
-202.5506167496233
 20
330.5616375610136
  0
LWPOLYLINE
  5
D790
330
1F
100
AcDbEntity
  8
DETAILS
 62
     6
370
    20
100
AcDbPolyline
 90
        6
 70
     0
 43
0.0
 10
-202.5867842813086
 20
330.7116375610137
 10
-202.4282113752552
 20
330.0539776434066
 42
0.3464949689054692
 10
-202.2823903198687
 20
329.9391375610135
 10
-201.6506167496237
 20
329.9391375610135
 42
0.4142135623730951
 10
-201.5006167496222
 20
330.0891375610136
 10
-201.5006167496222
 20
330.7116375610135
  0
LWPOLYLINE
  5
D791
330
1F
100
AcDbEntity
  8
DETAILS
 62
     6
370
    20
100
AcDbPolyline
 90
        6
 70
     0
 43
0.0
 10
-202.6639336337821
 20
330.7116375610136
 10
-202.5011219029466
 20
330.0363976846033
 42
0.3464949689054692
 10
-202.2823903198687
 20
329.8641375610135
 10
-201.6506167496237
 20
329.8641375610135
 42
0.4142135623730951
 10
-201.4256167496233
 20
330.0891375610136
 10
-201.4256167496233
 20
330.7116375610135
  0
LWPOLYLINE
  5
D792
330
1F
100
AcDbEntity
  8
DETAILS
 62
     6
370
    20
100
AcDbPolyline
 90
        2
 70
     1
 43
0.0
 10
-202.6277661020968
 20
330.5616375610136
 10
-202.6413930760655
 20
330.5616375610136
  0
LWPOLYLINE
  5
D793
330
1F
100
AcDbEntity
  8
DETAILS
 62
     6
370
    20
100
AcDbPolyline
 90
        6
 70
     0
 43
0.0
 10
-203.1365092716761
 20
330.5616375610136
 10
-203.2063862456462
 20
330.5616375610136
 10
-203.1365092716761
 20
330.5616375610136
 42
0.2793220653054726
 10
-203.1032690941293
 20
330.5817783946285
 42
-0.6059183769079624
 10
-202.6746332528919
 20
330.5817783950046
 42
0.279322065306064
 10
-202.6413930760655
 20
330.5616375610136
  0
LWPOLYLINE
  5
D794
330
1F
100
AcDbEntity
  8
DETAILS
 62
     6
370
    20
100
AcDbPolyline
 90
        7
 70
     0
 43
0.0
 10
-204.1644316778484
 20
329.9616375610136
 10
-203.3239065782573
 20
329.9616375610136
 42
0.4853378929632635
 10
-203.199958681179
 20
330.1190234909792
 10
-203.3428479355453
 20
330.7116375610136
 10
-203.7899053088377
 20
330.7116375610136
 10
-203.6024053088359
 20
330.7116375610136
 10
-203.5274053088369
 20
330.7116375610136
  0
LWPOLYLINE
  5
D795
330
1F
100
AcDbEntity
  8
DETAILS
 62
     6
370
    20
100
AcDbPolyline
 90
        4
 70
     0
 43
0.0
 10
-204.1644316778484
 20
329.8641375610135
 10
-203.3239065782573
 20
329.8641375610135
 42
0.4853378929632635
 10
-203.1051749951794
 20
330.1418774374236
 10
-203.2425537773297
 20
330.7116375610136
  0
LWPOLYLINE
  5
D796
330
1F
100
AcDbEntity
  8
DETAILS
 62
     6
370
    20
100
AcDbPolyline
 90
        4
 70
     0
 43
0.0
 10
-203.3066804038618
 20
330.5616375610136
 10
-203.7095752229479
 20
330.5616375610136
 42
0.1989123673788306
 10
-203.9747402658913
 20
330.4518026039594
 10
-204.1644316778484
 20
330.2621111920033
  0
LWPOLYLINE
  5
D797
330
1F
100
AcDbEntity
  8
DETAILS
 62
     6
370
    20
100
AcDbPolyline
 90
        4
 70
     0
 43
0.0
 10
-204.1644316778484
 20
330.5996111920026
 10
-203.96320482172
 20
330.8008380481302
 42
0.4142135623745727
 10
-203.9632048217218
 20
330.9599370738976
 10
-204.1644316778484
 20
331.161163930024
  0
LWPOLYLINE
  5
D798
330
1F
100
AcDbEntity
  8
DETAILS
 62
     6
370
    20
100
AcDbPolyline
 90
        2
 70
     1
 43
0.0
 10
-201.4256167496233
 20
335.2116375610137
 10
-201.4119897756528
 20
335.2116375610137
  0
LWPOLYLINE
  5
D799
330
1F
100
AcDbEntity
  8
DETAILS
 62
     6
370
    20
100
AcDbPolyline
 90
        6
 70
     0
 43
0.0
 10
-204.1644316778484
 20
335.3611639300226
 10
-203.8868723002479
 20
335.0836045524244
 42
0.1989123673782989
 10
-203.8338392916585
 20
335.0616375610136
 10
-201.1644316778484
 20
335.0616375610135
 42
-0.2793220653060733
 10
-201.3787495988263
 20
335.1914967270226
 42
0.279322065306064
 10
-201.4119897756528
 20
335.2116375610137
  0
LWPOLYLINE
  5
D79A
330
1F
100
AcDbEntity
  8
DETAILS
 62
     6
370
    20
100
AcDbPolyline
 90
        2
 70
     1
 43
0.0
 10
-201.500616749624
 20
335.2116375610137
 10
-202.5506167496233
 20
335.2116375610137
  0
LWPOLYLINE
  5
D79B
330
1F
100
AcDbEntity
  8
DETAILS
 62
     6
370
    20
100
AcDbPolyline
 90
        6
 70
     0
 43
0.0
 10
-201.5006167496222
 20
335.0616375610137
 10
-201.500616749624
 20
335.6841375610136
 42
0.4142135623730951
 10
-201.6506167496237
 20
335.8341375610136
 10
-202.2823903198687
 20
335.8341375610136
 42
0.3464949689054692
 10
-202.4282113752552
 20
335.7192974786205
 10
-202.5867842813086
 20
335.0616375610136
  0
LWPOLYLINE
  5
D79C
330
1F
100
AcDbEntity
  8
DETAILS
 62
     6
370
    20
100
AcDbPolyline
 90
        6
 70
     0
 43
0.0
 10
-201.4256167496233
 20
335.0616375610137
 10
-201.4256167496233
 20
335.6841375610136
 42
0.4142135623730951
 10
-201.6506167496237
 20
335.9091375610137
 10
-202.2823903198687
 20
335.9091375610137
 42
0.3464949689054692
 10
-202.5011219029466
 20
335.736877437424
 10
-202.6639336337821
 20
335.0616375610136
  0
LWPOLYLINE
  5
D79D
330
1F
100
AcDbEntity
  8
DETAILS
 62
     6
370
    20
100
AcDbPolyline
 90
        2
 70
     1
 43
0.0
 10
-202.6277661020968
 20
335.2116375610137
 10
-202.6413930760655
 20
335.2116375610137
  0
LWPOLYLINE
  5
D79E
330
1F
100
AcDbEntity
  8
DETAILS
 62
     6
370
    20
100
AcDbPolyline
 90
        6
 70
     0
 43
0.0
 10
-202.6413930760655
 20
335.2116375610137
 42
0.279322065306064
 10
-202.6746332536123
 20
335.1914967273987
 42
-0.6059183769079624
 10
-203.1032690948478
 20
335.1914967270226
 42
0.2793220653054726
 10
-203.1365092716761
 20
335.2116375610137
 10
-203.2063862456462
 20
335.2116375610137
 10
-203.1365092716761
 20
335.2116375610137
  0
LWPOLYLINE
  5
D79F
330
1F
100
AcDbEntity
  8
DETAILS
 62
     6
370
    20
100
AcDbPolyline
 90
        7
 70
     0
 43
0.0
 10
-203.5274053088369
 20
335.0616375610136
 10
-203.6024053088377
 20
335.0616375610136
 10
-203.7899053088377
 20
335.0616375610136
 10
-203.3428479355453
 20
335.0616375610136
 10
-203.199958681179
 20
335.6542516310479
 42
0.4853378929632635
 10
-203.3239065782573
 20
335.8116375610136
 10
-204.1644316778502
 20
335.8116375610136
  0
LWPOLYLINE
  5
D7A0
330
1F
100
AcDbEntity
  8
DETAILS
 62
     6
370
    20
100
AcDbPolyline
 90
        4
 70
     0
 43
0.0
 10
-203.2425537773297
 20
335.0616375610136
 10
-203.1051749951794
 20
335.6313976846035
 42
0.4853378929632635
 10
-203.3239065782573
 20
335.9091375610137
 10
-204.1644316778502
 20
335.9091375610137
  0
LWPOLYLINE
  5
D7A1
330
1F
100
AcDbEntity
  8
DETAILS
 62
     6
370
    20
100
AcDbPolyline
 90
        4
 70
     0
 43
0.0
 10
-204.1644316778484
 20
335.5111639300243
 10
-203.9747402658913
 20
335.3214725180678
 42
0.1989123673788307
 10
-203.7095752229479
 20
335.2116375610137
 10
-203.3066804038618
 20
335.2116375610137
  0
LWPOLYLINE
  5
D7A2
330
1F
100
AcDbEntity
  8
DETAILS
 62
     6
370
    20
100
AcDbPolyline
 90
        4
 70
     0
 43
0.0
 10
-204.1644316778484
 20
334.6121111920031
 10
-203.9632048217218
 20
334.8133380481296
 42
0.4142135623745727
 10
-203.96320482172
 20
334.972437073897
 10
-204.1644316778502
 20
335.173663930025
  0
LINE
  5
D7A3
330
1F
100
AcDbEntity
  8
0
 62
     1
100
AcDbLine
 10
-206.1622830340994
 20
326.6366375610136
 30
0.0
 11
-204.6122830340983
 21
326.6366375610136
 31
0.0
  0
LINE
  5
D7A4
330
1F
100
AcDbEntity
  8
0
 62
     1
100
AcDbLine
 10
-205.812283034099
 20
327.1366375610136
 30
0.0
 11
-205.187283034099
 21
327.1366375610136
 31
0.0
  0
LINE
  5
D7A5
330
1F
100
AcDbEntity
  8
0
 62
     1
100
AcDbLine
 10
-196.5165803215978
 20
327.1366375610136
 30
0.0
 11
-196.5165803215978
 21
326.6366375610136
 31
0.0
  0
LINE
  5
D7A6
330
1F
100
AcDbEntity
  8
0
 62
     1
100
AcDbLine
 10
-204.7872830340994
 20
327.1366375610136
 30
0.0
 11
-204.7872830340994
 21
326.6366375610135
 31
0.0
  0
LINE
  5
D7A7
330
1F
100
AcDbEntity
  8
0
 62
     1
100
AcDbLine
 10
-205.187283034099
 20
327.1366375610136
 30
0.0
 11
-205.187283034099
 21
326.6366375610136
 31
0.0
  0
LINE
  5
D7A8
330
1F
100
AcDbEntity
  8
0
 62
     1
100
AcDbLine
 10
-197.5415803215974
 20
327.1366375610138
 30
0.0
 11
-197.5415803215974
 21
326.6366375610136
 31
0.0
  0
LINE
  5
D7A9
330
1F
100
AcDbEntity
  8
0
 62
     1
100
AcDbLine
 10
-197.1415803215978
 20
327.1366375610136
 30
0.0
 11
-197.1415803215978
 21
326.6366375610136
 31
0.0
  0
LINE
  5
D7AA
330
1F
100
AcDbEntity
  8
0
 62
     1
100
AcDbLine
 10
-198.1665803215974
 20
327.1366375610136
 30
0.0
 11
-197.5415803215974
 21
327.1366375610136
 31
0.0
  0
LINE
  5
D7AB
330
1F
100
AcDbEntity
  8
0
 62
     1
100
AcDbLine
 10
-197.1415803215978
 20
327.1366375610136
 30
0.0
 11
-196.5165803215978
 21
327.1366375610136
 31
0.0
  0
LINE
  5
D7AC
330
1F
100
AcDbEntity
  8
0
 62
     1
100
AcDbLine
 10
-204.7872830340994
 20
327.1366375610136
 30
0.0
 11
-204.1622830340994
 21
327.1366375610136
 31
0.0
  0
LINE
  5
D7AD
330
1F
100
AcDbEntity
  8
0
 62
     1
100
AcDbLine
 10
-204.6122830341001
 20
326.8866375610136
 30
0.0
 11
-204.6122830341001
 21
326.6366375610136
 31
0.0
  0
LINE
  5
D7AE
330
1F
100
AcDbEntity
  8
0
 62
     1
100
AcDbLine
 10
-197.7165803215967
 20
326.8866375610136
 30
0.0
 11
-197.7165803215967
 21
326.6366375610136
 31
0.0
  0
LINE
  5
D7AF
330
1F
100
AcDbEntity
  8
0
 62
     1
100
AcDbLine
 10
-204.6122830341001
 20
326.8866375610136
 30
0.0
 11
-204.3622830341001
 21
326.8866375610136
 31
0.0
  0
LINE
  5
D7B0
330
1F
100
AcDbEntity
  8
0
 62
     1
100
AcDbLine
 10
-197.9665803215967
 20
326.8866375610136
 30
0.0
 11
-197.7165803215967
 21
326.8866375610136
 31
0.0
  0
LINE
  5
D7B1
330
1F
100
AcDbEntity
  8
0
 62
     1
100
AcDbLine
 10
-197.7515803215965
 20
326.6366375610136
 30
0.0
 11
-196.1665803215974
 21
326.6366375610136
 31
0.0
  0
LINE
  5
D7B2
330
1F
100
AcDbEntity
  8
0
 62
     1
100
AcDbLine
 10
-204.3622830341001
 20
326.6366375610136
 30
0.0
 11
-204.1622830340994
 21
326.6366375610136
 31
0.0
  0
LINE
  5
D7B3
330
1F
100
AcDbEntity
  8
0
 48
0.15
100
AcDbLine
 10
-205.187283034099
 20
326.6366375610136
 30
0.0
 11
-204.7872830340994
 21
326.6366375610136
 31
0.0
  0
LINE
  5
D7B4
330
1F
100
AcDbEntity
  8
0
 62
     1
100
AcDbLine
 10
-204.7372830340983
 20
326.6366375610136
 30
0.0
 11
-205.2372830341001
 21
326.6366375610136
 31
0.0
  0
LINE
  5
D7B5
330
1F
100
AcDbEntity
  8
0
 62
     1
100
AcDbLine
 10
-198.1665803215974
 20
326.6366375610136
 30
0.0
 11
-197.9665803215967
 21
326.6366375610136
 31
0.0
  0
LINE
  5
D7B6
330
1F
100
AcDbEntity
  8
0
 62
     1
100
AcDbLine
 10
-206.1622830340994
 20
326.6366375610136
 30
0.0
 11
-206.1622830340994
 21
314.6366375610136
 31
0.0
  0
LINE
  5
D7B7
330
1F
100
AcDbEntity
  8
0
 62
     1
100
AcDbLine
 10
-196.1665803215974
 20
326.6366375610136
 30
0.0
 11
-196.1665803215974
 21
314.6366375610136
 31
0.0
  0
LINE
  5
D7B8
330
1F
100
AcDbEntity
  8
0
 62
     1
100
AcDbLine
 10
-206.1622830340994
 20
326.6366375610136
 30
0.0
 11
-204.6122830340983
 21
326.6366375610136
 31
0.0
  0
LINE
  5
D7B9
330
1F
100
AcDbEntity
  8
0
 62
     1
100
AcDbLine
 10
-206.1622830340994
 20
314.6366375610136
 30
0.0
 11
-204.1622830340994
 21
314.6366375610136
 31
0.0
  0
LINE
  5
D7BA
330
1F
100
AcDbEntity
  8
0
 62
     1
100
AcDbLine
 10
-204.1622830340994
 20
327.1366375610136
 30
0.0
 11
-204.1622830340994
 21
314.6366375610136
 31
0.0
  0
LINE
  5
D7BB
330
1F
100
AcDbEntity
  8
0
 62
     1
100
AcDbLine
 10
-198.1665803215974
 20
327.1366375610136
 30
0.0
 11
-198.1665803215974
 21
314.6366375610136
 31
0.0
  0
LINE
  5
D7BC
330
1F
100
AcDbEntity
  8
0
 62
     1
100
AcDbLine
 10
-205.812283034099
 20
327.1366375610136
 30
0.0
 11
-205.187283034099
 21
327.1366375610136
 31
0.0
  0
LINE
  5
D7BD
330
1F
100
AcDbEntity
  8
0
 62
     1
100
AcDbLine
 10
-205.812283034099
 20
327.1366375610136
 30
0.0
 11
-205.812283034099
 21
314.6366375610136
 31
0.0
  0
LINE
  5
D7BE
330
1F
100
AcDbEntity
  8
0
 62
     1
100
AcDbLine
 10
-196.5165803215978
 20
327.1366375610136
 30
0.0
 11
-196.5165803215978
 21
326.6366375610136
 31
0.0
  0
LINE
  5
D7BF
330
1F
100
AcDbEntity
  8
0
 62
     1
100
AcDbLine
 10
-204.7872830340994
 20
327.1366375610136
 30
0.0
 11
-204.7872830340994
 21
326.6366375610136
 31
0.0
  0
LINE
  5
D7C0
330
1F
100
AcDbEntity
  8
0
 62
     1
100
AcDbLine
 10
-205.187283034099
 20
327.1366375610136
 30
0.0
 11
-205.187283034099
 21
326.6366375610136
 31
0.0
  0
LINE
  5
D7C1
330
1F
100
AcDbEntity
  8
0
 62
     1
100
AcDbLine
 10
-197.5415803215974
 20
327.1366375610138
 30
0.0
 11
-197.5415803215974
 21
326.6366375610136
 31
0.0
  0
LINE
  5
D7C2
330
1F
100
AcDbEntity
  8
0
 62
     1
100
AcDbLine
 10
-197.1415803215978
 20
327.1366375610136
 30
0.0
 11
-197.1415803215978
 21
326.6366375610136
 31
0.0
  0
LINE
  5
D7C3
330
1F
100
AcDbEntity
  8
0
 62
     1
100
AcDbLine
 10
-198.1665803215974
 20
327.1366375610136
 30
0.0
 11
-197.5415803215974
 21
327.1366375610136
 31
0.0
  0
LINE
  5
D7C4
330
1F
100
AcDbEntity
  8
0
 62
     1
100
AcDbLine
 10
-197.1415803215978
 20
327.1366375610136
 30
0.0
 11
-196.5165803215978
 21
327.1366375610136
 31
0.0
  0
LINE
  5
D7C5
330
1F
100
AcDbEntity
  8
0
 62
     1
100
AcDbLine
 10
-204.7872830340994
 20
327.1366375610136
 30
0.0
 11
-204.1622830340994
 21
327.1366375610136
 31
0.0
  0
LINE
  5
D7C6
330
1F
100
AcDbEntity
  8
0
 62
     1
100
AcDbLine
 10
-204.3622830341001
 20
326.8866375610136
 30
0.0
 11
-204.3622830341001
 21
314.6366375610136
 31
0.0
  0
LINE
  5
D7C7
330
1F
100
AcDbEntity
  8
0
 62
     1
100
AcDbLine
 10
-197.9665803215967
 20
326.8866375610136
 30
0.0
 11
-197.9665803215967
 21
314.6366375610136
 31
0.0
  0
LINE
  5
D7C8
330
1F
100
AcDbEntity
  8
0
 62
     1
100
AcDbLine
 10
-204.6122830341001
 20
326.8866375610136
 30
0.0
 11
-204.6122830341001
 21
326.6366375610136
 31
0.0
  0
LINE
  5
D7C9
330
1F
100
AcDbEntity
  8
0
 62
     1
100
AcDbLine
 10
-197.7165803215967
 20
326.8866375610136
 30
0.0
 11
-197.7165803215967
 21
326.6366375610136
 31
0.0
  0
LINE
  5
D7CA
330
1F
100
AcDbEntity
  8
0
 62
     1
100
AcDbLine
 10
-204.6122830341001
 20
326.8866375610136
 30
0.0
 11
-204.3622830341001
 21
326.8866375610136
 31
0.0
  0
LINE
  5
D7CB
330
1F
100
AcDbEntity
  8
0
 62
     1
100
AcDbLine
 10
-197.9665803215967
 20
326.8866375610136
 30
0.0
 11
-197.7165803215967
 21
326.8866375610136
 31
0.0
  0
LINE
  5
D7CC
330
1F
100
AcDbEntity
  8
0
 62
     1
100
AcDbLine
 10
-197.7515803215965
 20
326.6366375610136
 30
0.0
 11
-196.1665803215974
 21
326.6366375610136
 31
0.0
  0
LINE
  5
D7CD
330
1F
100
AcDbEntity
  8
0
 62
     1
100
AcDbLine
 10
-204.3622830341001
 20
326.6366375610136
 30
0.0
 11
-204.1622830340994
 21
326.6366375610136
 31
0.0
  0
LINE
  5
D7CE
330
1F
100
AcDbEntity
  8
0
 62
     1
100
AcDbLine
 10
-197.7515803215965
 20
326.6366375610136
 30
0.0
 11
-197.7515803215965
 21
314.6366375610136
 31
0.0
  0
LINE
  5
D7CF
330
1F
100
AcDbEntity
  8
0
 62
     1
100
AcDbLine
 10
-196.9315803215968
 20
326.6366375610136
 30
0.0
 11
-196.9315803215968
 21
314.6366375610136
 31
0.0
  0
LINE
  5
D7D0
330
1F
100
AcDbEntity
  8
A2 Hatch
  6
DASHED2
 48
0.15
100
AcDbLine
 10
-197.5915803215967
 20
326.6366375610136
 30
0.0
 11
-197.5915803215967
 21
314.6366375610136
 31
0.0
  0
LINE
  5
D7D1
330
1F
100
AcDbEntity
  8
A2 Hatch
  6
DASHED2
 48
0.15
100
AcDbLine
 10
-197.0915803215967
 20
326.6366375610136
 30
0.0
 11
-197.0915803215967
 21
314.6366375610136
 31
0.0
  0
LINE
  5
D7D2
330
1F
100
AcDbEntity
  8
0
 48
0.15
100
AcDbLine
 10
-205.187283034099
 20
326.6366375610136
 30
0.0
 11
-204.7872830340994
 21
326.6366375610136
 31
0.0
  0
LINE
  5
D7D3
330
1F
100
AcDbEntity
  8
A2 Hatch
  6
DASHED2
 48
0.15
100
AcDbLine
 10
-205.3972830340999
 20
327.1366375610136
 30
0.0
 11
-205.3972830340999
 21
314.6366375610136
 31
0.0
  0
LINE
  5
D7D4
330
1F
100
AcDbEntity
  8
A2 Hatch
  6
DASHED2
 48
0.15
100
AcDbLine
 10
-204.5772830341002
 20
327.1366375610136
 30
0.0
 11
-204.5772830340984
 21
314.6366375610136
 31
0.0
  0
LINE
  5
D7D5
330
1F
100
AcDbEntity
  8
0
 62
     1
100
AcDbLine
 10
-205.2372830340983
 20
327.1366375610136
 30
0.0
 11
-205.2372830340983
 21
314.6366375610136
 31
0.0
  0
LINE
  5
D7D6
330
1F
100
AcDbEntity
  8
0
 62
     1
100
AcDbLine
 10
-204.7372830340983
 20
327.1366375610136
 30
0.0
 11
-204.7372830340983
 21
314.6366375610136
 31
0.0
  0
LINE
  5
D7D7
330
1F
100
AcDbEntity
  8
0
 62
     1
100
AcDbLine
 10
-204.7372830340983
 20
326.6366375610136
 30
0.0
 11
-205.2372830341001
 21
326.6366375610136
 31
0.0
  0
LINE
  5
D7D8
330
1F
100
AcDbEntity
  8
0
 62
     1
100
AcDbLine
 10
-198.1665803215974
 20
326.6366375610136
 30
0.0
 11
-197.9665803215967
 21
326.6366375610136
 31
0.0
  0
LINE
  5
D7D9
330
1F
100
AcDbEntity
  8
0
 62
     1
100
AcDbLine
 10
-198.1665803215974
 20
314.6366375610136
 30
0.0
 11
-196.1665803215974
 21
314.6366375610136
 31
0.0
  0
LINE
  5
D7DA
330
1F
100
AcDbEntity
  8
0
 62
     1
100
AcDbLine
 10
-204.1622830340994
 20
315.1366375610136
 30
0.0
 11
-204.1622830340994
 21
314.6366375610136
 31
0.0
  0
LINE
  5
D7DB
330
1F
100
AcDbEntity
  8
0
  6
HIDDEN
 62
     1
 48
0.02
100
AcDbLine
 10
-205.812283034099
 20
315.1366375610136
 30
0.0
 11
-205.187283034099
 21
315.1366375610136
 31
0.0
  0
LINE
  5
D7DC
330
1F
100
AcDbEntity
  8
0
  6
HIDDEN
 62
     1
 48
0.02
100
AcDbLine
 10
-205.812283034099
 20
315.1366375610136
 30
0.0
 11
-205.812283034099
 21
314.6366375610136
 31
0.0
  0
LINE
  5
D7DD
330
1F
100
AcDbEntity
  8
0
  6
HIDDEN
 62
     1
 48
0.02
100
AcDbLine
 10
-204.7872830340994
 20
315.1366375610136
 30
0.0
 11
-204.7872830340994
 21
314.6366375610136
 31
0.0
  0
LINE
  5
D7DE
330
1F
100
AcDbEntity
  8
0
  6
HIDDEN
 62
     1
 48
0.02
100
AcDbLine
 10
-205.187283034099
 20
315.1366375610136
 30
0.0
 11
-205.187283034099
 21
314.6366375610136
 31
0.0
  0
LINE
  5
D7DF
330
1F
100
AcDbEntity
  8
0
  6
HIDDEN
 62
     1
 48
0.02
100
AcDbLine
 10
-204.7872830340994
 20
315.1366375610136
 30
0.0
 11
-204.1622830340994
 21
315.1366375610136
 31
0.0
  0
LINE
  5
D7E0
330
1F
100
AcDbEntity
  8
0
 62
     1
100
AcDbLine
 10
-198.1665803215974
 20
315.1366375610136
 30
0.0
 11
-198.1665803215956
 21
314.6366375610136
 31
0.0
  0
LINE
  5
D7E1
330
1F
100
AcDbEntity
  8
0
  6
HIDDEN
 62
     1
 48
0.02
100
AcDbLine
 10
-196.516580321596
 20
315.1366375610136
 30
0.0
 11
-196.516580321596
 21
314.6366375610136
 31
0.0
  0
LINE
  5
D7E2
330
1F
100
AcDbEntity
  8
0
  6
HIDDEN
 62
     1
 48
0.02
100
AcDbLine
 10
-197.5415803215974
 20
315.1366375610138
 30
0.0
 11
-197.5415803215974
 21
314.6366375610136
 31
0.0
  0
LINE
  5
D7E3
330
1F
100
AcDbEntity
  8
0
  6
HIDDEN
 62
     1
 48
0.02
100
AcDbLine
 10
-197.1415803215959
 20
315.1366375610136
 30
0.0
 11
-197.1415803215959
 21
314.6366375610136
 31
0.0
  0
LINE
  5
D7E4
330
1F
100
AcDbEntity
  8
0
  6
HIDDEN
 62
     1
 48
0.02
100
AcDbLine
 10
-198.1665803215956
 20
315.1366375610136
 30
0.0
 11
-197.5415803215956
 21
315.1366375610136
 31
0.0
  0
LINE
  5
D7E5
330
1F
100
AcDbEntity
  8
0
  6
HIDDEN
 62
     1
 48
0.02
100
AcDbLine
 10
-197.1415803215959
 20
315.1366375610136
 30
0.0
 11
-196.516580321596
 21
315.1366375610136
 31
0.0
  0
LINE
  5
D7E6
330
1F
100
AcDbEntity
  8
0
  6
HIDDEN
 62
     1
 48
0.02
100
AcDbLine
 10
-197.9665803215967
 20
314.8866375610136
 30
0.0
 11
-197.9665803215949
 21
314.6366375610136
 31
0.0
  0
LINE
  5
D7E7
330
1F
100
AcDbEntity
  8
0
  6
HIDDEN
 62
     1
 48
0.02
100
AcDbLine
 10
-197.7165803215967
 20
314.8866375610136
 30
0.0
 11
-197.7165803215967
 21
314.6366375610136
 31
0.0
  0
LINE
  5
D7E8
330
1F
100
AcDbEntity
  8
0
  6
HIDDEN
 62
     1
 48
0.02
100
AcDbLine
 10
-197.9665803215967
 20
314.8866375610136
 30
0.0
 11
-197.7165803215967
 21
314.8866375610136
 31
0.0
  0
LWPOLYLINE
  5
D7E9
330
1F
100
AcDbEntity
  8
DETAILS
 62
     6
370
    20
100
AcDbPolyline
 90
        2
 70
     1
 43
0.0
 10
-200.9032466060735
 20
318.5616375610136
 10
-200.9168735800422
 20
318.5616375610136
  0
LWPOLYLINE
  5
D7EA
330
1F
100
AcDbEntity
  8
DETAILS
 62
     6
370
    20
100
AcDbPolyline
 90
        6
 70
     0
 43
0.0
 10
-198.1644316778484
 20
318.4121111920062
 10
-198.4419910554489
 20
318.6896705696028
 42
0.1989123673782988
 10
-198.4950240640364
 20
318.7116375610135
 10
-201.1644316778484
 20
318.7116375610137
 42
-0.2793220653060733
 10
-200.9501137568686
 20
318.5817783950046
 42
0.279322065306064
 10
-200.9168735800422
 20
318.5616375610136
  0
LWPOLYLINE
  5
D7EB
330
1F
100
AcDbEntity
  8
DETAILS
 62
     6
370
    20
100
AcDbPolyline
 90
        2
 70
     1
 43
0.0
 10
-200.8282466060728
 20
318.5616375610136
 10
-199.7782466060735
 20
318.5616375610136
  0
LWPOLYLINE
  5
D7EC
330
1F
100
AcDbEntity
  8
DETAILS
 62
     6
370
    20
100
AcDbPolyline
 90
        6
 70
     0
 43
0.0
 10
-200.8282466060728
 20
318.7116375610135
 10
-200.8282466060728
 20
318.0891375610135
 42
0.4142135623730951
 10
-200.6782466060732
 20
317.9391375610137
 10
-200.0464730358281
 20
317.9391375610137
 42
0.3464949689054693
 10
-199.9006519804416
 20
318.0539776434068
 10
-199.7420790743881
 20
318.7116375610137
  0
LWPOLYLINE
  5
D7ED
330
1F
100
AcDbEntity
  8
DETAILS
 62
     6
370
    20
100
AcDbPolyline
 90
        6
 70
     0
 43
0.0
 10
-200.9032466060735
 20
318.7116375610135
 10
-200.9032466060735
 20
318.0891375610135
 42
0.4142135623730951
 10
-200.6782466060732
 20
317.8641375610136
 10
-200.0464730358281
 20
317.8641375610136
 42
0.3464949689054693
 10
-199.8277414527484
 20
318.0363976846033
 10
-199.6649297219146
 20
318.7116375610135
  0
LWPOLYLINE
  5
D7EE
330
1F
100
AcDbEntity
  8
DETAILS
 62
     6
370
    20
100
AcDbPolyline
 90
        2
 70
     1
 43
0.0
 10
-199.7010972536
 20
318.5616375610136
 10
-199.6874702796313
 20
318.5616375610136
  0
LWPOLYLINE
  5
D7EF
330
1F
100
AcDbEntity
  8
DETAILS
 62
     6
370
    20
100
AcDbPolyline
 90
        6
 70
     0
 43
0.0
 10
-199.6874702796313
 20
318.5616375610136
 42
0.279322065306064
 10
-199.6542301020845
 20
318.5817783946285
 42
-0.6059183769079624
 10
-199.2255942608472
 20
318.5817783950046
 42
0.2793220653054726
 10
-199.1923540840207
 20
318.5616375610136
 10
-199.1224771100506
 20
318.5616375610136
 10
-199.1923540840207
 20
318.5616375610136
  0
LWPOLYLINE
  5
D7F0
330
1F
100
AcDbEntity
  8
DETAILS
 62
     6
370
    20
100
AcDbPolyline
 90
        7
 70
     0
 43
0.0
 10
-198.8014580468598
 20
318.7116375610135
 10
-198.7264580468591
 20
318.7116375610135
 10
-198.5389580468591
 20
318.7116375610135
 10
-198.9860154201497
 20
318.7116375610135
 10
-199.1289046745178
 20
318.1190234909792
 42
0.4853378929632635
 10
-199.0049567774395
 20
317.9616375610134
 10
-198.1644316778484
 20
317.9616375610134
  0
LWPOLYLINE
  5
D7F1
330
1F
100
AcDbEntity
  8
DETAILS
 62
     6
370
    20
100
AcDbPolyline
 90
        4
 70
     0
 43
0.0
 10
-199.0863095783652
 20
318.7116375610135
 10
-199.2236883605174
 20
318.1418774374237
 42
0.4853378929632635
 10
-199.0049567774395
 20
317.8641375610136
 10
-198.1644316778484
 20
317.8641375610136
  0
LWPOLYLINE
  5
D7F2
330
1F
100
AcDbEntity
  8
DETAILS
 62
     6
370
    20
100
AcDbPolyline
 90
       10
 70
     1
 43
0.0
 10
-201.1644316778484
 20
318.7491375610136
 10
-198.8014580468598
 20
318.7491375610136
 10
-198.728162341703
 20
318.7657047403881
 42
0.7807764064044151
 10
-198.728162341703
 20
318.770070381639
 10
-198.8014580468598
 20
318.7866375610135
 10
-201.1644316778484
 20
318.7866375610135
 10
-203.5274053088369
 20
318.7866375610135
 10
-203.6007010139938
 20
318.770070381639
 42
0.7807764064044151
 10
-203.6007010139938
 20
318.7657047403881
 10
-203.5274053088369
 20
318.7491375610136
  0
LWPOLYLINE
  5
D7F3
330
1F
100
AcDbEntity
  8
DETAILS
 62
     6
370
    20
100
AcDbPolyline
 90
        7
 70
     0
 43
0.0
 10
-204.1644316778484
 20
319.3486639300222
 10
-203.8868723002479
 20
319.0711045524244
 42
0.1989123673781765
 10
-203.8338392916585
 20
319.0491375610136
 10
-201.1644316778484
 20
319.0491375610136
 10
-198.4950240640364
 20
319.0491375610136
 42
0.1989123673781768
 10
-198.4419910554489
 20
319.0711045524244
 10
-198.1644316778484
 20
319.3486639300206
  0
LWPOLYLINE
  5
D7F4
330
1F
100
AcDbEntity
  8
DETAILS
 62
     6
370
    20
100
AcDbPolyline
 90
        7
 70
     0
 43
0.0
 10
-204.1644316778484
 20
319.4986639300213
 10
-203.9747402658913
 20
319.3089725180668
 42
0.1989123673777967
 10
-203.7095752229498
 20
319.1991375610137
 10
-201.1644316778484
 20
319.1991375610137
 10
-198.619288132747
 20
319.1991375610137
 42
0.1989123673777968
 10
-198.3541230898036
 20
319.3089725180668
 10
-198.1644316778484
 20
319.4986639300195
  0
LWPOLYLINE
  5
D7F5
330
1F
100
AcDbEntity
  8
DETAILS
 62
     6
370
    20
100
AcDbPolyline
 90
        4
 70
     0
 43
0.0
 10
-198.1644316778484
 20
318.2621111920048
 10
-198.3541230898054
 20
318.4518026039595
 42
0.1989123673788307
 10
-198.6192881327488
 20
318.5616375610136
 10
-199.022182951835
 20
318.5616375610136
  0
LWPOLYLINE
  5
D7F6
330
1F
100
AcDbEntity
  8
DETAILS
 62
     6
370
    20
100
AcDbPolyline
 90
        4
 70
     0
 43
0.0
 10
-198.1644316778484
 20
319.1611639300226
 10
-198.365658533975
 20
318.9599370738976
 42
0.4142135623745727
 10
-198.365658533975
 20
318.8008380481301
 10
-198.1644316778484
 20
318.5996111920041
  0
LWPOLYLINE
  5
D7F7
330
1F
100
AcDbEntity
  8
DETAILS
 62
     6
370
    20
100
AcDbPolyline
 90
        6
 70
     1
 43
0.0
 10
-201.1644316778484
 20
318.8241375610136
 10
-198.5389580468591
 20
318.8241375610136
 10
-198.5389580468591
 20
318.9366375610136
 10
-201.1644316778484
 20
318.9366375610136
 10
-203.7899053088377
 20
318.9366375610136
 10
-203.7899053088377
 20
318.8241375610136
  0
LWPOLYLINE
  5
D7F8
330
1F
100
AcDbEntity
  8
DETAILS
 62
     6
370
    20
100
AcDbPolyline
 90
        2
 70
     1
 43
0.0
 10
-200.9032466060735
 20
323.2116375610137
 10
-200.9168735800422
 20
323.2116375610137
  0
LWPOLYLINE
  5
D7F9
330
1F
100
AcDbEntity
  8
DETAILS
 62
     6
370
    20
100
AcDbPolyline
 90
        6
 70
     0
 43
0.0
 10
-200.9168735800422
 20
323.2116375610137
 42
0.279322065306064
 10
-200.950113757589
 20
323.1914967273987
 42
-0.2793220653060733
 10
-201.1644316778484
 20
323.0616375610136
 10
-198.4950240640364
 20
323.0616375610136
 42
0.1989123673782991
 10
-198.4419910554489
 20
323.0836045524244
 10
-198.1644316778502
 20
323.3611639300206
  0
LWPOLYLINE
  5
D7FA
330
1F
100
AcDbEntity
  8
DETAILS
 62
     6
370
    20
100
AcDbPolyline
 90
        2
 70
     1
 43
0.0
 10
-200.8282466060728
 20
323.2116375610137
 10
-199.7782466060735
 20
323.2116375610137
  0
LWPOLYLINE
  5
D7FB
330
1F
100
AcDbEntity
  8
DETAILS
 62
     6
370
    20
100
AcDbPolyline
 90
        6
 70
     0
 43
0.0
 10
-199.7420790743881
 20
323.0616375610136
 10
-199.9006519804416
 20
323.7192974786205
 42
0.3464949689054692
 10
-200.0464730358281
 20
323.8341375610136
 10
-200.6782466060732
 20
323.8341375610136
 42
0.4142135623730951
 10
-200.8282466060728
 20
323.6841375610138
 10
-200.8282466060728
 20
323.0616375610138
  0
LWPOLYLINE
  5
D7FC
330
1F
100
AcDbEntity
  8
DETAILS
 62
     6
370
    20
100
AcDbPolyline
 90
        6
 70
     0
 43
0.0
 10
-199.6649297219146
 20
323.0616375610136
 10
-199.8277414527484
 20
323.736877437424
 42
0.3464949689054692
 10
-200.0464730358281
 20
323.9091375610137
 10
-200.6782466060732
 20
323.9091375610137
 42
0.4142135623730951
 10
-200.9032466060735
 20
323.6841375610138
 10
-200.9032466060735
 20
323.0616375610138
  0
LWPOLYLINE
  5
D7FD
330
1F
100
AcDbEntity
  8
DETAILS
 62
     6
370
    20
100
AcDbPolyline
 90
        2
 70
     1
 43
0.0
 10
-199.7010972536
 20
323.2116375610137
 10
-199.6874702796313
 20
323.2116375610137
  0
LWPOLYLINE
  5
D7FE
330
1F
100
AcDbEntity
  8
DETAILS
 62
     6
370
    20
100
AcDbPolyline
 90
        6
 70
     0
 43
0.0
 10
-199.1923540840207
 20
323.2116375610137
 10
-199.1224771100506
 20
323.2116375610137
 10
-199.1923540840207
 20
323.2116375610137
 42
0.2793220653054726
 10
-199.2255942615675
 20
323.1914967273987
 42
-0.6059183769079625
 10
-199.6542301028048
 20
323.1914967270226
 42
0.279322065306064
 10
-199.6874702796313
 20
323.2116375610137
  0
LWPOLYLINE
  5
D7FF
330
1F
100
AcDbEntity
  8
DETAILS
 62
     6
370
    20
100
AcDbPolyline
 90
        7
 70
     0
 43
0.0
 10
-198.1644316778484
 20
323.8116375610136
 10
-199.0049567774395
 20
323.8116375610136
 42
0.4853378929632635
 10
-199.128904674516
 20
323.654251631048
 10
-198.9860154201497
 20
323.0616375610136
 10
-198.5389580468591
 20
323.0616375610136
 10
-198.7264580468591
 20
323.0616375610136
 10
-198.8014580468598
 20
323.0616375610136
  0
LWPOLYLINE
  5
D800
330
1F
100
AcDbEntity
  8
DETAILS
 62
     6
370
    20
100
AcDbPolyline
 90
        4
 70
     0
 43
0.0
 10
-198.1644316778484
 20
323.9091375610137
 10
-199.0049567774395
 20
323.9091375610137
 42
0.4853378929632635
 10
-199.2236883605174
 20
323.6313976846036
 10
-199.0863095783652
 20
323.0616375610136
  0
LWPOLYLINE
  5
D801
330
1F
100
AcDbEntity
  8
DETAILS
 62
     6
370
    20
100
AcDbPolyline
 90
       10
 70
     1
 43
0.0
 10
-201.1644316778484
 20
323.0241375610137
 10
-203.5274053088369
 20
323.0241375610137
 10
-203.6007010139938
 20
323.0075703816389
 42
0.7807764064044151
 10
-203.6007010139938
 20
323.0032047403883
 10
-203.5274053088369
 20
322.9866375610135
 10
-201.1644316778484
 20
322.9866375610135
 10
-198.8014580468598
 20
322.9866375610135
 10
-198.728162341703
 20
323.0032047403883
 42
0.7807764064044151
 10
-198.728162341703
 20
323.0075703816389
 10
-198.8014580468598
 20
323.0241375610137
  0
LWPOLYLINE
  5
D802
330
1F
100
AcDbEntity
  8
DETAILS
 62
     6
370
    20
100
AcDbPolyline
 90
        7
 70
     0
 43
0.0
 10
-198.1644316778502
 20
322.4246111920069
 10
-198.4419910554489
 20
322.7021705696028
 42
0.1989123673781766
 10
-198.4950240640364
 20
322.7241375610135
 10
-201.1644316778484
 20
322.7241375610137
 10
-203.8338392916585
 20
322.7241375610135
 42
0.1989123673781765
 10
-203.8868723002479
 20
322.7021705696028
 10
-204.1644316778484
 20
322.4246111920049
  0
LWPOLYLINE
  5
D803
330
1F
100
AcDbEntity
  8
DETAILS
 62
     6
370
    20
100
AcDbPolyline
 90
        7
 70
     0
 43
0.0
 10
-198.1644316778484
 20
322.2746111920082
 10
-198.3541230898036
 20
322.4643026039605
 42
0.1989123673777966
 10
-198.619288132747
 20
322.5741375610136
 10
-201.1644316778484
 20
322.5741375610136
 10
-203.7095752229498
 20
322.5741375610136
 42
0.1989123673777966
 10
-203.9747402658913
 20
322.4643026039605
 10
-204.1644316778484
 20
322.2746111920055
  0
LWPOLYLINE
  5
D804
330
1F
100
AcDbEntity
  8
DETAILS
 62
     6
370
    20
100
AcDbPolyline
 90
        4
 70
     0
 43
0.0
 10
-199.022182951835
 20
323.2116375610137
 10
-198.6192881327488
 20
323.2116375610137
 42
0.1989123673788307
 10
-198.3541230898054
 20
323.3214725180677
 10
-198.1644316778502
 20
323.5111639300221
  0
LWPOLYLINE
  5
D805
330
1F
100
AcDbEntity
  8
DETAILS
 62
     6
370
    20
100
AcDbPolyline
 90
        4
 70
     0
 43
0.0
 10
-198.1644316778502
 20
323.1736639300231
 10
-198.365658533975
 20
322.972437073897
 42
0.4142135623745727
 10
-198.365658533975
 20
322.8133380481296
 10
-198.1644316778484
 20
322.6121111920051
  0
LWPOLYLINE
  5
D806
330
1F
100
AcDbEntity
  8
DETAILS
 62
     6
370
    20
100
AcDbPolyline
 90
        6
 70
     1
 43
0.0
 10
-201.1644316778484
 20
322.9491375610136
 10
-198.5389580468591
 20
322.9491375610136
 10
-198.5389580468591
 20
322.8366375610137
 10
-201.1644316778484
 20
322.8366375610134
 10
-203.7899053088377
 20
322.8366375610137
 10
-203.7899053088377
 20
322.9491375610136
  0
LWPOLYLINE
  5
D807
330
1F
100
AcDbEntity
  8
DETAILS
 62
     6
370
    20
100
AcDbPolyline
 90
        2
 70
     1
 43
0.0
 10
-201.4256167496233
 20
318.5616375610136
 10
-201.4119897756528
 20
318.5616375610136
  0
LWPOLYLINE
  5
D808
330
1F
100
AcDbEntity
  8
DETAILS
 62
     6
370
    20
100
AcDbPolyline
 90
        6
 70
     0
 43
0.0
 10
-201.4119897756528
 20
318.5616375610136
 42
0.279322065306064
 10
-201.3787495981078
 20
318.5817783946285
 42
-0.2793220653060734
 10
-201.1644316778484
 20
318.7116375610135
 10
-203.8338392916585
 20
318.7116375610135
 42
0.1989123673782987
 10
-203.8868723002479
 20
318.6896705696028
 10
-204.1644316778484
 20
318.4121111920046
  0
LWPOLYLINE
  5
D809
330
1F
100
AcDbEntity
  8
DETAILS
 62
     6
370
    20
100
AcDbPolyline
 90
        2
 70
     1
 43
0.0
 10
-201.500616749624
 20
318.5616375610136
 10
-202.5506167496233
 20
318.5616375610136
  0
LWPOLYLINE
  5
D80A
330
1F
100
AcDbEntity
  8
DETAILS
 62
     6
370
    20
100
AcDbPolyline
 90
        6
 70
     0
 43
0.0
 10
-202.5867842813086
 20
318.7116375610137
 10
-202.4282113752552
 20
318.0539776434068
 42
0.3464949689054692
 10
-202.2823903198687
 20
317.9391375610134
 10
-201.6506167496237
 20
317.9391375610137
 42
0.4142135623730951
 10
-201.5006167496222
 20
318.0891375610135
 10
-201.5006167496222
 20
318.7116375610135
  0
LWPOLYLINE
  5
D80B
330
1F
100
AcDbEntity
  8
DETAILS
 62
     6
370
    20
100
AcDbPolyline
 90
        6
 70
     0
 43
0.0
 10
-202.6639336337821
 20
318.7116375610135
 10
-202.5011219029466
 20
318.0363976846033
 42
0.3464949689054692
 10
-202.2823903198687
 20
317.8641375610136
 10
-201.6506167496237
 20
317.8641375610136
 42
0.4142135623730951
 10
-201.4256167496233
 20
318.0891375610135
 10
-201.4256167496233
 20
318.7116375610135
  0
LWPOLYLINE
  5
D80C
330
1F
100
AcDbEntity
  8
DETAILS
 62
     6
370
    20
100
AcDbPolyline
 90
        2
 70
     1
 43
0.0
 10
-202.6277661020968
 20
318.5616375610136
 10
-202.6413930760655
 20
318.5616375610136
  0
LWPOLYLINE
  5
D80D
330
1F
100
AcDbEntity
  8
DETAILS
 62
     6
370
    20
100
AcDbPolyline
 90
        6
 70
     0
 43
0.0
 10
-203.1365092716761
 20
318.5616375610136
 10
-203.2063862456462
 20
318.5616375610136
 10
-203.1365092716761
 20
318.5616375610136
 42
0.2793220653054726
 10
-203.1032690941293
 20
318.5817783946285
 42
-0.6059183769079624
 10
-202.6746332528919
 20
318.5817783950046
 42
0.279322065306064
 10
-202.6413930760655
 20
318.5616375610136
  0
LWPOLYLINE
  5
D80E
330
1F
100
AcDbEntity
  8
DETAILS
 62
     6
370
    20
100
AcDbPolyline
 90
        7
 70
     0
 43
0.0
 10
-204.1644316778484
 20
317.9616375610134
 10
-203.3239065782573
 20
317.9616375610134
 42
0.4853378929632635
 10
-203.199958681179
 20
318.1190234909792
 10
-203.3428479355453
 20
318.7116375610135
 10
-203.7899053088377
 20
318.7116375610135
 10
-203.6024053088359
 20
318.7116375610135
 10
-203.5274053088369
 20
318.7116375610135
  0
LWPOLYLINE
  5
D80F
330
1F
100
AcDbEntity
  8
DETAILS
 62
     6
370
    20
100
AcDbPolyline
 90
        4
 70
     0
 43
0.0
 10
-204.1644316778484
 20
317.8641375610136
 10
-203.3239065782573
 20
317.8641375610136
 42
0.4853378929632635
 10
-203.1051749951794
 20
318.1418774374237
 10
-203.2425537773297
 20
318.7116375610135
  0
LWPOLYLINE
  5
D810
330
1F
100
AcDbEntity
  8
DETAILS
 62
     6
370
    20
100
AcDbPolyline
 90
        4
 70
     0
 43
0.0
 10
-203.3066804038618
 20
318.5616375610136
 10
-203.7095752229479
 20
318.5616375610136
 42
0.1989123673788306
 10
-203.9747402658913
 20
318.4518026039595
 10
-204.1644316778484
 20
318.2621111920034
  0
LWPOLYLINE
  5
D811
330
1F
100
AcDbEntity
  8
DETAILS
 62
     6
370
    20
100
AcDbPolyline
 90
        4
 70
     0
 43
0.0
 10
-204.1644316778484
 20
318.5996111920025
 10
-203.96320482172
 20
318.8008380481301
 42
0.4142135623745727
 10
-203.9632048217218
 20
318.9599370738976
 10
-204.1644316778484
 20
319.161163930024
  0
LWPOLYLINE
  5
D812
330
1F
100
AcDbEntity
  8
DETAILS
 62
     6
370
    20
100
AcDbPolyline
 90
        2
 70
     1
 43
0.0
 10
-201.4256167496233
 20
323.2116375610137
 10
-201.4119897756528
 20
323.2116375610137
  0
LWPOLYLINE
  5
D813
330
1F
100
AcDbEntity
  8
DETAILS
 62
     6
370
    20
100
AcDbPolyline
 90
        6
 70
     0
 43
0.0
 10
-204.1644316778484
 20
323.3611639300227
 10
-203.8868723002479
 20
323.0836045524244
 42
0.1989123673782989
 10
-203.8338392916585
 20
323.0616375610136
 10
-201.1644316778484
 20
323.0616375610134
 42
-0.2793220653060733
 10
-201.3787495988263
 20
323.1914967270226
 42
0.279322065306064
 10
-201.4119897756528
 20
323.2116375610137
  0
LWPOLYLINE
  5
D814
330
1F
100
AcDbEntity
  8
DETAILS
 62
     6
370
    20
100
AcDbPolyline
 90
        2
 70
     1
 43
0.0
 10
-201.500616749624
 20
323.2116375610137
 10
-202.5506167496233
 20
323.2116375610137
  0
LWPOLYLINE
  5
D815
330
1F
100
AcDbEntity
  8
DETAILS
 62
     6
370
    20
100
AcDbPolyline
 90
        6
 70
     0
 43
0.0
 10
-201.5006167496222
 20
323.0616375610138
 10
-201.500616749624
 20
323.6841375610138
 42
0.4142135623730951
 10
-201.6506167496237
 20
323.8341375610136
 10
-202.2823903198687
 20
323.8341375610136
 42
0.3464949689054692
 10
-202.4282113752552
 20
323.7192974786205
 10
-202.5867842813086
 20
323.0616375610136
  0
LWPOLYLINE
  5
D816
330
1F
100
AcDbEntity
  8
DETAILS
 62
     6
370
    20
100
AcDbPolyline
 90
        6
 70
     0
 43
0.0
 10
-201.4256167496233
 20
323.0616375610138
 10
-201.4256167496233
 20
323.6841375610138
 42
0.4142135623730951
 10
-201.6506167496237
 20
323.9091375610137
 10
-202.2823903198687
 20
323.9091375610137
 42
0.3464949689054692
 10
-202.5011219029466
 20
323.736877437424
 10
-202.6639336337821
 20
323.0616375610136
  0
LWPOLYLINE
  5
D817
330
1F
100
AcDbEntity
  8
DETAILS
 62
     6
370
    20
100
AcDbPolyline
 90
        2
 70
     1
 43
0.0
 10
-202.6277661020968
 20
323.2116375610137
 10
-202.6413930760655
 20
323.2116375610137
  0
LWPOLYLINE
  5
D818
330
1F
100
AcDbEntity
  8
DETAILS
 62
     6
370
    20
100
AcDbPolyline
 90
        6
 70
     0
 43
0.0
 10
-202.6413930760655
 20
323.2116375610137
 42
0.279322065306064
 10
-202.6746332536123
 20
323.1914967273987
 42
-0.6059183769079624
 10
-203.1032690948478
 20
323.1914967270226
 42
0.2793220653054726
 10
-203.1365092716761
 20
323.2116375610137
 10
-203.2063862456462
 20
323.2116375610137
 10
-203.1365092716761
 20
323.2116375610137
  0
LWPOLYLINE
  5
D819
330
1F
100
AcDbEntity
  8
DETAILS
 62
     6
370
    20
100
AcDbPolyline
 90
        7
 70
     0
 43
0.0
 10
-203.5274053088369
 20
323.0616375610136
 10
-203.6024053088377
 20
323.0616375610136
 10
-203.7899053088377
 20
323.0616375610136
 10
-203.3428479355453
 20
323.0616375610136
 10
-203.199958681179
 20
323.6542516310478
 42
0.4853378929632635
 10
-203.3239065782573
 20
323.8116375610136
 10
-204.1644316778502
 20
323.8116375610136
  0
LWPOLYLINE
  5
D81A
330
1F
100
AcDbEntity
  8
DETAILS
 62
     6
370
    20
100
AcDbPolyline
 90
        4
 70
     0
 43
0.0
 10
-203.2425537773297
 20
323.0616375610136
 10
-203.1051749951794
 20
323.6313976846036
 42
0.4853378929632635
 10
-203.3239065782573
 20
323.9091375610137
 10
-204.1644316778502
 20
323.9091375610137
  0
LWPOLYLINE
  5
D81B
330
1F
100
AcDbEntity
  8
DETAILS
 62
     6
370
    20
100
AcDbPolyline
 90
        4
 70
     0
 43
0.0
 10
-204.1644316778484
 20
323.5111639300243
 10
-203.9747402658913
 20
323.3214725180677
 42
0.1989123673788307
 10
-203.7095752229479
 20
323.2116375610137
 10
-203.3066804038618
 20
323.2116375610137
  0
LWPOLYLINE
  5
D81C
330
1F
100
AcDbEntity
  8
DETAILS
 62
     6
370
    20
100
AcDbPolyline
 90
        4
 70
     0
 43
0.0
 10
-204.1644316778484
 20
322.6121111920031
 10
-203.9632048217218
 20
322.8133380481296
 42
0.4142135623745727
 10
-203.96320482172
 20
322.972437073897
 10
-204.1644316778502
 20
323.1736639300252
  0
LINE
  5
D81D
330
1F
100
AcDbEntity
  8
0
 62
     1
100
AcDbLine
 10
-206.1622830340994
 20
314.6366375610136
 30
0.0
 11
-204.6122830340983
 21
314.6366375610136
 31
0.0
  0
LINE
  5
D81E
330
1F
100
AcDbEntity
  8
0
 62
     1
100
AcDbLine
 10
-205.812283034099
 20
315.1366375610136
 30
0.0
 11
-205.187283034099
 21
315.1366375610136
 31
0.0
  0
LINE
  5
D81F
330
1F
100
AcDbEntity
  8
0
 62
     1
100
AcDbLine
 10
-196.5165803215978
 20
315.1366375610136
 30
0.0
 11
-196.5165803215978
 21
314.6366375610136
 31
0.0
  0
LINE
  5
D820
330
1F
100
AcDbEntity
  8
0
 62
     1
100
AcDbLine
 10
-204.7872830340994
 20
315.1366375610136
 30
0.0
 11
-204.7872830340994
 21
314.6366375610136
 31
0.0
  0
LINE
  5
D821
330
1F
100
AcDbEntity
  8
0
 62
     1
100
AcDbLine
 10
-205.187283034099
 20
315.1366375610136
 30
0.0
 11
-205.187283034099
 21
314.6366375610136
 31
0.0
  0
LINE
  5
D822
330
1F
100
AcDbEntity
  8
0
 62
     1
100
AcDbLine
 10
-197.5415803215974
 20
315.1366375610136
 30
0.0
 11
-197.5415803215974
 21
314.6366375610136
 31
0.0
  0
LINE
  5
D823
330
1F
100
AcDbEntity
  8
0
 62
     1
100
AcDbLine
 10
-197.1415803215978
 20
315.1366375610136
 30
0.0
 11
-197.1415803215978
 21
314.6366375610136
 31
0.0
  0
LINE
  5
D824
330
1F
100
AcDbEntity
  8
0
 62
     1
100
AcDbLine
 10
-198.1665803215974
 20
315.1366375610136
 30
0.0
 11
-197.5415803215974
 21
315.1366375610136
 31
0.0
  0
LINE
  5
D825
330
1F
100
AcDbEntity
  8
0
 62
     1
100
AcDbLine
 10
-197.1415803215978
 20
315.1366375610136
 30
0.0
 11
-196.5165803215978
 21
315.1366375610136
 31
0.0
  0
LINE
  5
D826
330
1F
100
AcDbEntity
  8
0
 62
     1
100
AcDbLine
 10
-204.7872830340994
 20
315.1366375610136
 30
0.0
 11
-204.1622830340994
 21
315.1366375610136
 31
0.0
  0
LINE
  5
D827
330
1F
100
AcDbEntity
  8
0
 62
     1
100
AcDbLine
 10
-204.6122830341001
 20
314.8866375610136
 30
0.0
 11
-204.6122830341001
 21
314.6366375610136
 31
0.0
  0
LINE
  5
D828
330
1F
100
AcDbEntity
  8
0
 62
     1
100
AcDbLine
 10
-197.7165803215967
 20
314.8866375610136
 30
0.0
 11
-197.7165803215967
 21
314.6366375610136
 31
0.0
  0
LINE
  5
D829
330
1F
100
AcDbEntity
  8
0
 62
     1
100
AcDbLine
 10
-204.6122830341001
 20
314.8866375610136
 30
0.0
 11
-204.3622830341001
 21
314.8866375610136
 31
0.0
  0
LINE
  5
D82A
330
1F
100
AcDbEntity
  8
0
 62
     1
100
AcDbLine
 10
-197.9665803215967
 20
314.8866375610136
 30
0.0
 11
-197.7165803215967
 21
314.8866375610136
 31
0.0
  0
LINE
  5
D82B
330
1F
100
AcDbEntity
  8
0
 62
     1
100
AcDbLine
 10
-197.7515803215965
 20
314.6366375610136
 30
0.0
 11
-196.1665803215974
 21
314.6366375610136
 31
0.0
  0
LINE
  5
D82C
330
1F
100
AcDbEntity
  8
0
 62
     1
100
AcDbLine
 10
-204.3622830341001
 20
314.6366375610136
 30
0.0
 11
-204.1622830340994
 21
314.6366375610136
 31
0.0
  0
LINE
  5
D82D
330
1F
100
AcDbEntity
  8
0
 48
0.15
100
AcDbLine
 10
-205.187283034099
 20
314.6366375610136
 30
0.0
 11
-204.7872830340994
 21
314.6366375610136
 31
0.0
  0
LINE
  5
D82E
330
1F
100
AcDbEntity
  8
0
 62
     1
100
AcDbLine
 10
-204.7372830340983
 20
314.6366375610136
 30
0.0
 11
-205.2372830341001
 21
314.6366375610136
 31
0.0
  0
LINE
  5
D82F
330
1F
100
AcDbEntity
  8
0
 62
     1
100
AcDbLine
 10
-198.1665803215974
 20
314.6366375610136
 30
0.0
 11
-197.9665803215967
 21
314.6366375610136
 31
0.0
  0
LEADER
  5
D830
330
1F
100
AcDbEntity
  8
DIM
100
AcDbLeader
  3
ARCTEXT1-4
 76
     3
 10
-206.1622830340994
 20
328.0717210250319
 30
0.0
 10
-214.4635923167234
 20
328.0725602654662
 30
0.0
 10
-220.5475400796504
 20
328.0725602654662
 30
0.0
211
-1.0
221
0.0
231
0.0
1001
ACAD
1000
DSTYLE
1002
{
1070
    41
1040
0.5
1070
    77
1070
     0
1002
}
  0
MTEXT
  5
D831
330
1F
100
AcDbEntity
  8
DIM
 62
     3
100
AcDbMText
 10
-232.2111425904232
 20
328.5686575083939
 30
0.0
 40
1.0
 41
16.07546435255318
 71
     1
 72
     5
  1
GREENBLOCK ICF 
  7
RomanC
 73
     1
 44
1.0
1001
ACAD
1000
MTEXTBEGIN
1070
    73
1070
     1
1070
    44
1040
1.0
1070
    74
1070
     0
1000
MTEXTEND
  0
LINE
  5
D832
330
1F
100
AcDbEntity
  8
0
 48
0.15
100
AcDbLine
 10
-206.1622830340975
 20
341.6366375610135
 30
0.0
 11
-196.1665803215974
 21
341.6366375610135
 31
0.0
  0
LINE
  5
D833
330
1F
100
AcDbEntity
  8
REBAR
 48
0.15
100
AcDbLine
 10
-201.1644319037542
 20
309.0978359465702
 30
0.0
 11
-201.1644330414265
 21
341.6366375610133
 31
0.0
  0
LWPOLYLINE
  5
D834
330
1F
100
AcDbEntity
  8
DIM
100
AcDbPolyline
 90
        6
 70
     0
 43
0.0
 10
-184.9316072418778
 20
314.2820454548141
 10
-199.562647412421
 20
309.3200360563785
 10
-198.6266043956193
 20
306.5600084384354
 10
-203.2227984733318
 20
311.1562025161483
 10
-202.2867554565319
 20
308.396174898206
 10
-216.9177956270751
 20
303.4341654997706
  0
LWPOLYLINE
  5
D835
330
1F
100
AcDbEntity
  8
DETAILS
 62
     6
370
    20
100
AcDbPolyline
 90
        2
 70
     0
 43
0.0
 10
-198.8907335181984
 20
306.8241375610136
 10
-198.7161818401046
 20
306.8241375610136
  0
HATCH
  5
D836
330
1F
100
AcDbEntity
  8
A2 Hatch
 48
0.15
100
AcDbHatch
 10
0.0
 20
0.0
 30
0.0
210
0.0
220
0.0
230
1.0
  2
AR-CONC
 70
     0
 71
     0
 91
        1
 92
        1
 93
        8
 72
     1
 10
-204.494642754943
 20
337.2421716693744
 11
-198.4230606815718
 21
337.2208737732702
 72
     1
 10
-198.4230606815718
 20
337.2208737732702
 11
-198.498940042441
 21
315.5892644854204
 72
     1
 10
-198.4989400424393
 20
315.5892644854202
 11
-200.4853595963223
 21
314.9155849396938
 72
     1
 10
-200.4853595963223
 20
314.9155849396936
 11
-199.5493165795224
 21
312.155557321751
 72
     1
 10
-199.5493165795224
 20
312.155557321751
 11
-204.1455106572348
 21
316.7517513994639
 72
     1
 10
-204.1455106572348
 20
316.7517513994639
 11
-203.2094676404331
 21
313.9917237815211
 72
     1
 10
-203.2094676404331
 20
313.9917237815211
 11
-204.4946427549412
 21
313.5558661170973
 72
     1
 10
-204.4946427549412
 20
313.5558661170971
 11
-204.494642754943
 21
337.2421716693743
 97
        0
 75
     0
 76
     1
 52
0.0
 41
0.8
 77
     0
 78
    13
 53
50.0
 43
-3360.835019509207
 44
883.5345624919593
 45
5.738081460806028
 46
-0.502017079860761
 79
     2
 49
0.6000000000000001
 49
-6.6
 53
355.0
 43
-3360.835019509207
 44
883.5345624919593
 45
-1.110010668904
 46
6.017537069600095
 79
     2
 49
0.48
 49
-5.28
 53
100.4514
 43
-3360.356846069207
 44
883.4927277719593
 45
4.628075053712172
 46
5.515516336487628
 79
     2
 49
0.5099215199999994
 49
-5.609136895999993
 53
46.1842
 43
-3360.835019509207
 44
885.1345624919595
 45
8.537928389005156
 46
-1.324152114632144
 79
     2
 49
0.9
 49
-9.9
 53
96.63559999999998
 43
-3360.123525549207
 44
885.0242160359593
 45
7.477301644389626
 46
7.792942967203534
 79
     2
 49
0.7648823039999991
 49
-8.413703999999986
 53
351.1842000000001
 43
-3360.835019509207
 44
885.1345624919595
 45
7.477295561069017
 46
7.792948807402597
 79
     2
 49
0.7200000000000001
 49
-7.92
 53
21.0
 43
-3360.035019509207
 44
884.7345624919594
 45
4.775256416947693
 46
-3.22095112532271
 79
     2
 49
0.6000000000000001
 49
-6.6
 53
326.0
 43
-3360.035019509207
 44
884.7345624919594
 45
1.946522655372653
 46
5.801200360374824
 79
     2
 49
0.48
 49
-5.28
 53
71.45140000000001
 43
-3359.637081645207
 44
884.4661496439593
 45
6.721781028651919
 46
2.580243973679619
 79
     2
 49
0.5099215200000002
 49
-5.609136895999999
 53
37.5
 43
-3360.835019509207
 44
883.5345624919593
 45
0.0972788425383254
 46
2.663150830650492
 79
     6
 49
0.0
 49
-5.216
 49
0.0
 49
-5.36
 49
0.0
 49
-5.3
 53
7.499999999999999
 43
-3360.835019509207
 44
883.5345624919593
 45
2.104556299537188
 46
3.155293695058881
 79
     6
 49
0.0
 49
-3.056
 49
0.0
 49
-5.096
 49
0.0
 49
-2.02
 53
327.5
 43
-3362.619019509207
 44
883.5345624919593
 45
4.270579489379272
 46
-0.1804389738750384
 79
     6
 49
0.0
 49
-2.0
 49
0.0
 49
-6.24
 49
0.0
 49
-8.279999999999999
 53
317.5
 43
-3363.419019509206
 44
883.5345624919593
 45
4.665489354739089
 46
0.8008398586585411
 79
     6
 49
0.0
 49
-2.6
 49
0.0
 49
-4.144
 49
0.0
 49
-5.879999999999999
 98
        1
 10
5743.845908393797
 20
-225.4676540514975
  0
MTEXT
  5
D837
330
1F
100
AcDbEntity
  8
DIM
 62
     3
100
AcDbMText
 10
-171.9025863664474
 20
311.6527331901593
 30
0.0
 40
1.0
 41
16.07546435255318
 71
     1
 72
     5
  1
REINFORCEMENT PER ENGINEER
  7
RomanC
 73
     1
 44
1.0
1001
ACAD
1000
MTEXTBEGIN
1070
    73
1070
     1
1070
    44
1040
1.0
1070
    74
1070
     0
1000
MTEXTEND
  0
LWPOLYLINE
  5
D838
330
1F
100
AcDbEntity
  8
A4 medium
 48
0.15
100
AcDbPolyline
 90
        4
 70
     1
 43
0.0
 10
-172.5007233044371
 20
312.3383616639253
 10
-156.5245259352369
 20
312.3383616639253
 10
-156.5245259352369
 20
308.111217541274
 10
-172.5007233044371
 20
308.111217541274
  0
MTEXT
  5
D839
330
1F
100
AcDbEntity
  8
Defpoints
100
AcDbMText
 10
-200.6950956656283
 20
288.4840463502073
 30
0.0
 40
3.0
 41
90.07999999999999
 71
     2
 72
     5
  1
{\L29}\P            
  7
RomanC
 73
     1
 44
1.0
1001
ACAD
1000
MTEXTBEGIN
1070
    73
1070
     1
1070
    44
1040
1.0
1070
    74
1070
     0
1000
MTEXTEND
  0
LINE
  5
D83A
330
1F
100
AcDbEntity
  8
REBAR
 48
0.15
100
AcDbLine
 10
-171.8251455205636
 20
355.2977857798611
 30
0.0
 11
-227.0673896425006
 21
355.2977857798611
 31
0.0
  0
ENDSEC
  0
SECTION
  2
OBJECTS
  0
DICTIONARY
  5
C
330
0
100
AcDbDictionary
281
     1
  3
ACAD_COLOR
350
73
  3
ACAD_GROUP
350
D
  3
ACAD_LAYOUT
350
1A
  3
ACAD_MATERIAL
350
72
  3
ACAD_MLINESTYLE
350
17
  3
ACAD_PLOTSETTINGS
350
19
  3
ACAD_PLOTSTYLENAME
350
E
  3
ACDBHEADERROUNDTRIPXREC
350
D84A
  3
AcDbVariableDictionary
350
66
  0
DICTIONARY
  5
A9
330
2
100
AcDbDictionary
280
     1
281
     1
  3
ACAD_LAYERSTATES
360
AA
  0
DICTIONARY
  5
73
102
{ACAD_REACTORS
330
C
102
}
330
C
100
AcDbDictionary
281
     1
  0
DICTIONARY
  5
D
102
{ACAD_REACTORS
330
C
102
}
330
C
100
AcDbDictionary
281
     1
  0
DICTIONARY
  5
1A
102
{ACAD_REACTORS
330
C
102
}
330
C
100
AcDbDictionary
281
     1
  3
Layout1
350
59
  3
Layout2
350
5E
  3
Model
350
22
  0
DICTIONARY
  5
72
102
{ACAD_REACTORS
330
C
102
}
330
C
100
AcDbDictionary
281
     1
  0
DICTIONARY
  5
17
102
{ACAD_REACTORS
330
C
102
}
330
C
100
AcDbDictionary
281
     1
  3
Standard
350
18
  0
DICTIONARY
  5
19
102
{ACAD_REACTORS
330
C
102
}
330
C
100
AcDbDictionary
281
     1
  0
ACDBDICTIONARYWDFLT
  5
E
102
{ACAD_REACTORS
330
C
102
}
330
C
100
AcDbDictionary
281
     1
  3
Normal
350
F
100
AcDbDictionaryWithDefault
340
F
  0
DICTIONARY
  5
D84A
102
{ACAD_REACTORS
330
C
102
}
330
C
100
AcDbDictionary
281
     1
  3
COLORDICT
350
D84C
  3
MATERIALDICT
350
D84B
  0
DICTIONARY
  5
66
102
{ACAD_REACTORS
330
C
102
}
330
C
100
AcDbDictionary
281
     1
  3
DIMASSOC
350
67
  3
HIDETEXT
350
6B
  3
PROJECTNAME
350
1065
  0
DICTIONARY
  5
AA
102
{ACAD_REACTORS
330
A9
102
}
330
A9
100
AcDbDictionary
281
     1
  0
LAYOUT
  5
59
102
{ACAD_XDICTIONARY
360
D84F
102
}
102
{ACAD_REACTORS
330
1A
102
}
330
1A
100
AcDbPlotSettings
  1

  2
None
  4

  6

 40
0.0
 41
0.0
 42
0.0
 43
0.0
 44
0.0
 45
0.0
 46
0.0
 47
0.0
 48
0.0
 49
0.0
140
0.0
141
0.0
142
1.0
143
1.0
 70
   688
 72
     0
 73
     0
 74
     5
  7

 75
    16
147
1.0
148
0.0
149
0.0
100
AcDbLayout
  1
Layout1
 70
     1
 71
     1
 10
0.0
 20
0.0
 11
12.0
 21
9.0
 12
0.0
 22
0.0
 32
0.0
 14
0.0
 24
0.0
 34
0.0
 15
0.0
 25
0.0
 35
0.0
146
0.0
 13
0.0
 23
0.0
 33
0.0
 16
1.0
 26
0.0
 36
0.0
 17
0.0
 27
1.0
 37
0.0
 76
     0
330
58
  0
LAYOUT
  5
5E
102
{ACAD_XDICTIONARY
360
D851
102
}
102
{ACAD_REACTORS
330
1A
102
}
330
1A
100
AcDbPlotSettings
  1

  2
None
  4

  6

 40
0.0
 41
0.0
 42
0.0
 43
0.0
 44
0.0
 45
0.0
 46
0.0
 47
0.0
 48
0.0
 49
0.0
140
0.0
141
0.0
142
1.0
143
1.0
 70
   688
 72
     0
 73
     0
 74
     5
  7

 75
    16
147
1.0
148
0.0
149
0.0
100
AcDbLayout
  1
Layout2
 70
     1
 71
     2
 10
0.0
 20
0.0
 11
12.0
 21
9.0
 12
0.0
 22
0.0
 32
0.0
 14
0.0
 24
0.0
 34
0.0
 15
0.0
 25
0.0
 35
0.0
146
0.0
 13
0.0
 23
0.0
 33
0.0
 16
1.0
 26
0.0
 36
0.0
 17
0.0
 27
1.0
 37
0.0
 76
     0
330
5D
  0
LAYOUT
  5
22
102
{ACAD_XDICTIONARY
360
D84D
102
}
102
{ACAD_REACTORS
330
1A
102
}
330
1A
100
AcDbPlotSettings
  1

  2
none_device
  4
ANSI_A_(8.50_x_11.00_Inches)
  6

 40
6.349999904632568
 41
19.04999923706055
 42
6.350006103515625
 43
19.04998779296875
 44
215.8999938964844
 45
279.3999938964844
 46
0.0
 47
0.0
 48
0.0
 49
0.0
140
0.0
141
0.0
142
1.0
143
2.584895464708373
 70
 11952
 72
     0
 73
     1
 74
     0
  7

 75
     0
147
0.3868628397755418
148
0.0
149
0.0
100
AcDbLayout
  1
Model
 70
     1
 71
     0
 10
0.0
 20
0.0
 11
12.0
 21
9.0
 12
0.0
 22
0.0
 32
0.0
 14
0.0
 24
0.0
 34
0.0
 15
0.0
 25
0.0
 35
0.0
146
0.0
 13
0.0
 23
0.0
 33
0.0
 16
1.0
 26
0.0
 36
0.0
 17
0.0
 27
1.0
 37
0.0
 76
     0
330
1F
  0
MLINESTYLE
  5
18
102
{ACAD_REACTORS
330
17
102
}
330
17
100
AcDbMlineStyle
  2
STANDARD
 70
     0
  3

 62
   256
 51
90.0
 52
90.0
 71
     2
 49
0.5
 62
   256
  6
BYLAYER
 49
-0.5
 62
   256
  6
BYLAYER
  0
ACDBPLACEHOLDER
  5
F
102
{ACAD_REACTORS
330
E
102
}
330
E
  0
XRECORD
  5
D84C
102
{ACAD_REACTORS
330
D84A
102
}
330
D84A
100
AcDbXrecord
280
     1
340
73
  0
XRECORD
  5
D84B
102
{ACAD_REACTORS
330
D84A
102
}
330
D84A
100
AcDbXrecord
280
     1
340
72
  0
DICTIONARYVAR
  5
67
102
{ACAD_REACTORS
330
66
102
}
330
66
100
DictionaryVariables
280
     0
  1
2
  0
DICTIONARYVAR
  5
6B
102
{ACAD_REACTORS
330
66
102
}
330
66
100
DictionaryVariables
280
     0
  1
1
  0
DICTIONARYVAR
  5
1065
102
{ACAD_REACTORS
330
66
102
}
330
66
100
DictionaryVariables
280
     0
  1

  0
DICTIONARY
  5
D84F
330
59
100
AcDbDictionary
280
     1
281
     1
  3
ACAD_XREC_ROUNDTRIP
360
D850
  0
DICTIONARY
  5
D851
330
5E
100
AcDbDictionary
280
     1
281
     1
  3
ACAD_XREC_ROUNDTRIP
360
D852
  0
DICTIONARY
  5
D84D
330
22
100
AcDbDictionary
280
     1
281
     1
  3
ACAD_XREC_ROUNDTRIP
360
D84E
  0
XRECORD
  5
D850
102
{ACAD_REACTORS
330
D84F
102
}
330
D84F
100
AcDbXrecord
280
     1
102
SHADEPLOT
 70
     0
102
SHADEPLOTRESLEVEL
 70
     2
102
SHADEPLOTCUSTOMDPI
 70
   300
  0
XRECORD
  5
D852
102
{ACAD_REACTORS
330
D851
102
}
330
D851
100
AcDbXrecord
280
     1
102
SHADEPLOT
 70
     0
102
SHADEPLOTRESLEVEL
 70
     2
102
SHADEPLOTCUSTOMDPI
 70
   300
  0
XRECORD
  5
D84E
102
{ACAD_REACTORS
330
D84D
102
}
330
D84D
100
AcDbXrecord
280
     1
102
SHADEPLOT
 70
     0
102
SHADEPLOTRESLEVEL
 70
     2
102
SHADEPLOTCUSTOMDPI
 70
   300
  0
ENDSEC
  0
EOF
