  0
SECTION
  2
HEADER
  9
$ACADVER
  1
AC1015
  9
$ACADMAINTVER
 70
    20
  9
$DWGCODEPAGE
  3
ANSI_1252
  9
$INSBASE
 10
0.0
 20
0.0
 30
0.0
  9
$EXTMIN
 10
-74.29545033731972
 20
148.8787747556856
 30
-0.0015258207003583
  9
$EXTMAX
 10
3.225028041700824
 20
240.0756959912274
 30
0.0000000349246037
  9
$LIMMIN
 10
0.0
 20
0.0
  9
$LIMMAX
 10
12.0
 20
9.0
  9
$ORTHOMODE
 70
     0
  9
$REGENMODE
 70
     1
  9
$FILLMODE
 70
     1
  9
$QTEXTMODE
 70
     0
  9
$MIRRTEXT
 70
     0
  9
$LTSCALE
 40
1.0
  9
$ATTMODE
 70
     1
  9
$TEXTSIZE
 40
0.2
  9
$TRACEWID
 40
0.05
  9
$TEXTSTYLE
  7
Standard
  9
$CLAYER
  8
0
  9
$CELTYPE
  6
ByLayer
  9
$CECOLOR
 62
   256
  9
$CELTSCALE
 40
1.0
  9
$DISPSILH
 70
     0
  9
$DIMSCALE
 40
1.0
  9
$DIMASZ
 40
0.18
  9
$DIMEXO
 40
0.0625
  9
$DIMDLI
 40
0.38
  9
$DIMRND
 40
0.0
  9
$DIMDLE
 40
0.0
  9
$DIMEXE
 40
0.18
  9
$DIMTP
 40
0.0
  9
$DIMTM
 40
0.0
  9
$DIMTXT
 40
0.18
  9
$DIMCEN
 40
0.09
  9
$DIMTSZ
 40
0.0
  9
$DIMTOL
 70
     0
  9
$DIMLIM
 70
     0
  9
$DIMTIH
 70
     1
  9
$DIMTOH
 70
     1
  9
$DIMSE1
 70
     0
  9
$DIMSE2
 70
     0
  9
$DIMTAD
 70
     0
  9
$DIMZIN
 70
     0
  9
$DIMBLK
  1

  9
$DIMASO
 70
     1
  9
$DIMSHO
 70
     1
  9
$DIMPOST
  1

  9
$DIMAPOST
  1

  9
$DIMALT
 70
     0
  9
$DIMALTD
 70
     2
  9
$DIMALTF
 40
25.4
  9
$DIMLFAC
 40
1.0
  9
$DIMTOFL
 70
     0
  9
$DIMTVP
 40
0.0
  9
$DIMTIX
 70
     0
  9
$DIMSOXD
 70
     0
  9
$DIMSAH
 70
     0
  9
$DIMBLK1
  1

  9
$DIMBLK2
  1

  9
$DIMSTYLE
  2
Standard
  9
$DIMCLRD
 70
     0
  9
$DIMCLRE
 70
     0
  9
$DIMCLRT
 70
     0
  9
$DIMTFAC
 40
1.0
  9
$DIMGAP
 40
0.09
  9
$DIMJUST
 70
     0
  9
$DIMSD1
 70
     0
  9
$DIMSD2
 70
     0
  9
$DIMTOLJ
 70
     1
  9
$DIMTZIN
 70
     0
  9
$DIMALTZ
 70
     0
  9
$DIMALTTZ
 70
     0
  9
$DIMUPT
 70
     0
  9
$DIMDEC
 70
     4
  9
$DIMTDEC
 70
     4
  9
$DIMALTU
 70
     2
  9
$DIMALTTD
 70
     2
  9
$DIMTXSTY
  7
Standard
  9
$DIMAUNIT
 70
     0
  9
$DIMADEC
 70
     0
  9
$DIMALTRND
 40
0.0
  9
$DIMAZIN
 70
     0
  9
$DIMDSEP
 70
    46
  9
$DIMATFIT
 70
     3
  9
$DIMFRAC
 70
     0
  9
$DIMLDRBLK
  1

  9
$DIMLUNIT
 70
     2
  9
$DIMLWD
 70
    -2
  9
$DIMLWE
 70
    -2
  9
$DIMTMOVE
 70
     0
  9
$LUNITS
 70
     2
  9
$LUPREC
 70
     4
  9
$SKETCHINC
 40
0.1
  9
$FILLETRAD
 40
0.0
  9
$AUNITS
 70
     0
  9
$AUPREC
 70
     0
  9
$MENU
  1
.
  9
$ELEVATION
 40
0.0
  9
$PELEVATION
 40
0.0
  9
$THICKNESS
 40
0.0
  9
$LIMCHECK
 70
     0
  9
$CHAMFERA
 40
0.0
  9
$CHAMFERB
 40
0.0
  9
$CHAMFERC
 40
0.0
  9
$CHAMFERD
 40
0.0
  9
$SKPOLY
 70
     0
  9
$TDCREATE
 40
2454944.361013796
  9
$TDUCREATE
 40
2454944.611013797
  9
$TDUPDATE
 40
2454944.371096921
  9
$TDUUPDATE
 40
2454944.621096921
  9
$TDINDWG
 40
0.0100848611
  9
$TDUSRTIMER
 40
0.0100847454
  9
$USRTIMER
 70
     1
  9
$ANGBASE
 50
0.0
  9
$ANGDIR
 70
     0
  9
$PDMODE
 70
     0
  9
$PDSIZE
 40
0.0
  9
$PLINEWID
 40
0.0
  9
$SPLFRAME
 70
     0
  9
$SPLINETYPE
 70
     6
  9
$SPLINESEGS
 70
     8
  9
$HANDSEED
  5
8D51
  9
$SURFTAB1
 70
     6
  9
$SURFTAB2
 70
     6
  9
$SURFTYPE
 70
     6
  9
$SURFU
 70
     6
  9
$SURFV
 70
     6
  9
$UCSBASE
  2

  9
$UCSNAME
  2

  9
$UCSORG
 10
0.0
 20
0.0
 30
0.0
  9
$UCSXDIR
 10
1.0
 20
0.0
 30
0.0
  9
$UCSYDIR
 10
0.0
 20
1.0
 30
0.0
  9
$UCSORTHOREF
  2

  9
$UCSORTHOVIEW
 70
     0
  9
$UCSORGTOP
 10
0.0
 20
0.0
 30
0.0
  9
$UCSORGBOTTOM
 10
0.0
 20
0.0
 30
0.0
  9
$UCSORGLEFT
 10
0.0
 20
0.0
 30
0.0
  9
$UCSORGRIGHT
 10
0.0
 20
0.0
 30
0.0
  9
$UCSORGFRONT
 10
0.0
 20
0.0
 30
0.0
  9
$UCSORGBACK
 10
0.0
 20
0.0
 30
0.0
  9
$PUCSBASE
  2

  9
$PUCSNAME
  2

  9
$PUCSORG
 10
0.0
 20
0.0
 30
0.0
  9
$PUCSXDIR
 10
1.0
 20
0.0
 30
0.0
  9
$PUCSYDIR
 10
0.0
 20
1.0
 30
0.0
  9
$PUCSORTHOREF
  2

  9
$PUCSORTHOVIEW
 70
     0
  9
$PUCSORGTOP
 10
0.0
 20
0.0
 30
0.0
  9
$PUCSORGBOTTOM
 10
0.0
 20
0.0
 30
0.0
  9
$PUCSORGLEFT
 10
0.0
 20
0.0
 30
0.0
  9
$PUCSORGRIGHT
 10
0.0
 20
0.0
 30
0.0
  9
$PUCSORGFRONT
 10
0.0
 20
0.0
 30
0.0
  9
$PUCSORGBACK
 10
0.0
 20
0.0
 30
0.0
  9
$USERI1
 70
     0
  9
$USERI2
 70
     0
  9
$USERI3
 70
     0
  9
$USERI4
 70
     0
  9
$USERI5
 70
     0
  9
$USERR1
 40
0.0
  9
$USERR2
 40
0.0
  9
$USERR3
 40
0.0
  9
$USERR4
 40
0.0
  9
$USERR5
 40
0.0
  9
$WORLDVIEW
 70
     1
  9
$SHADEDGE
 70
     3
  9
$SHADEDIF
 70
    70
  9
$TILEMODE
 70
     1
  9
$MAXACTVP
 70
    64
  9
$PINSBASE
 10
0.0
 20
0.0
 30
0.0
  9
$PLIMCHECK
 70
     0
  9
$PEXTMIN
 10
0.0
 20
0.0
 30
0.0
  9
$PEXTMAX
 10
0.0
 20
0.0
 30
0.0
  9
$PLIMMIN
 10
0.0
 20
0.0
  9
$PLIMMAX
 10
12.0
 20
9.0
  9
$UNITMODE
 70
     0
  9
$VISRETAIN
 70
     1
  9
$PLINEGEN
 70
     0
  9
$PSLTSCALE
 70
     1
  9
$TREEDEPTH
 70
  3020
  9
$CMLSTYLE
  2
Standard
  9
$CMLJUST
 70
     0
  9
$CMLSCALE
 40
1.0
  9
$PROXYGRAPHICS
 70
     1
  9
$MEASUREMENT
 70
     0
  9
$CELWEIGHT
370
    -1
  9
$ENDCAPS
280
     0
  9
$JOINSTYLE
280
     0
  9
$LWDISPLAY
290
     0
  9
$INSUNITS
 70
     1
  9
$HYPERLINKBASE
  1

  9
$STYLESHEET
  1

  9
$XEDIT
290
     1
  9
$CEPSNTYPE
380
     0
  9
$PSTYLEMODE
290
     1
  9
$FINGERPRINTGUID
  2
{FDEAD576-A652-11D2-9A35-0060089B3A3F}
  9
$VERSIONGUID
  2
{8E48973D-A123-4BF7-859E-0C8BA477234E}
  9
$EXTNAMES
290
     1
  9
$PSVPSCALE
 40
0.0
  9
$OLESTARTUP
290
     0
  0
ENDSEC
  0
SECTION
  2
CLASSES
  0
CLASS
  1
ACDBDICTIONARYWDFLT
  2
AcDbDictionaryWithDefault
  3
ObjectDBX Classes
 90
        0
280
     0
281
     0
  0
CLASS
  1
ACDBPLACEHOLDER
  2
AcDbPlaceHolder
  3
ObjectDBX Classes
 90
        0
280
     0
281
     0
  0
CLASS
  1
LAYOUT
  2
AcDbLayout
  3
ObjectDBX Classes
 90
        0
280
     0
281
     0
  0
CLASS
  1
DICTIONARYVAR
  2
AcDbDictionaryVar
  3
ObjectDBX Classes
 90
        0
280
     0
281
     0
  0
CLASS
  1
SORTENTSTABLE
  2
AcDbSortentsTable
  3
ObjectDBX Classes
 90
        0
280
     0
281
     0
  0
ENDSEC
  0
SECTION
  2
TABLES
  0
TABLE
  2
VPORT
  5
8
330
0
100
AcDbSymbolTable
 70
    28
  0
VPORT
  5
8D47
330
8
100
AcDbSymbolTableRecord
100
AcDbViewportTableRecord
  2
*Active
 70
     0
 10
0.0
 20
0.0
 11
1.0
 21
1.0
 12
-35.53521114780945
 22
194.4772353734565
 13
0.0
 23
0.0
 14
0.5
 24
0.5
 15
0.5
 25
0.5
 16
0.0
 26
0.0
 36
1.0
 17
0.0
 27
0.0
 37
0.0
 40
91.8553827607082
 41
1.48433734939759
 42
50.0
 43
0.0
 44
0.0
 50
0.0
 51
0.0
 71
     0
 72
  1000
 73
     1
 74
     3
 75
     0
 76
     0
 77
     0
 78
     0
281
     0
 65
     1
110
0.0
120
0.0
130
0.0
111
1.0
121
0.0
131
0.0
112
0.0
122
1.0
132
0.0
 79
     0
146
0.0
  0
ENDTAB
  0
TABLE
  2
LTYPE
  5
5
330
0
100
AcDbSymbolTable
 70
     5
  0
LTYPE
  5
14
330
5
100
AcDbSymbolTableRecord
100
AcDbLinetypeTableRecord
  2
ByBlock
 70
     0
  3

 72
    65
 73
     0
 40
0.0
  0
LTYPE
  5
15
330
5
100
AcDbSymbolTableRecord
100
AcDbLinetypeTableRecord
  2
ByLayer
 70
     0
  3

 72
    65
 73
     0
 40
0.0
  0
LTYPE
  5
16
330
5
100
AcDbSymbolTableRecord
100
AcDbLinetypeTableRecord
  2
Continuous
 70
     0
  3
Solid line
 72
    65
 73
     0
 40
0.0
  0
LTYPE
  5
96
330
5
100
AcDbSymbolTableRecord
100
AcDbLinetypeTableRecord
  2
HIDDEN
 70
     0
  3
Hidden __ __ __ __ __ __ __ __ __ __ __ __ __ _
 72
    65
 73
     2
 40
0.375
 49
0.25
 74
     0
 49
-0.125
 74
     0
  0
LTYPE
  5
34B8
330
5
100
AcDbSymbolTableRecord
100
AcDbLinetypeTableRecord
  2
DASHED
 70
     0
  3
Dashed __ __ __ __ __ __ __ __ __ __ __ __ __ _
 72
    65
 73
     2
 40
0.75
 49
0.5
 74
     0
 49
-0.25
 74
     0
  0
LTYPE
  5
34B9
330
5
100
AcDbSymbolTableRecord
100
AcDbLinetypeTableRecord
  2
CENTER
 70
     0
  3
Center ____ _ ____ _ ____ _ ____ _ ____ _ ____
 72
    65
 73
     4
 40
2.0
 49
1.25
 74
     0
 49
-0.25
 74
     0
 49
0.25
 74
     0
 49
-0.25
 74
     0
  0
LTYPE
  5
34BA
330
5
100
AcDbSymbolTableRecord
100
AcDbLinetypeTableRecord
  2
DASHED2
 70
     0
  3
_ _ _ _ _ _ _ _ _ _ _ _ _ _ _ _ _ _ _ _ _ _ _ _
 72
    65
 73
     2
 40
0.375
 49
0.25
 74
     0
 49
-0.125
 74
     0
  0
ENDTAB
  0
TABLE
  2
LAYER
  5
2
102
{ACAD_XDICTIONARY
360
A2
102
}
330
0
100
AcDbSymbolTable
 70
    13
  0
LAYER
  5
10
330
2
100
AcDbSymbolTableRecord
100
AcDbLayerTableRecord
  2
0
 70
     0
 62
     7
  6
Continuous
370
    -3
390
F
  0
LAYER
  5
97
330
2
100
AcDbSymbolTableRecord
100
AcDbLayerTableRecord
  2
DIM
 70
     0
 62
     3
  6
Continuous
370
    13
390
F
  0
LAYER
  5
98
330
2
100
AcDbSymbolTableRecord
100
AcDbLayerTableRecord
  2
Defpoints
 70
     0
 62
   252
  6
Continuous
290
     0
370
    -3
390
F
  0
LAYER
  5
99
330
2
100
AcDbSymbolTableRecord
100
AcDbLayerTableRecord
  2
A1 fine
 70
     0
 62
   251
  6
Continuous
370
     5
390
F
  0
LAYER
  5
9A
330
2
100
AcDbSymbolTableRecord
100
AcDbLayerTableRecord
  2
WALL HATCH
 70
     0
 62
   253
  6
Continuous
370
    -3
390
F
  0
LAYER
  5
1B11
330
2
100
AcDbSymbolTableRecord
100
AcDbLayerTableRecord
  2
A4 medium
 70
     0
 62
     7
  6
Continuous
370
    35
390
F
  0
LAYER
  5
1B12
330
2
100
AcDbSymbolTableRecord
100
AcDbLayerTableRecord
  2
A fine
 70
     0
 62
   251
  6
Continuous
370
     5
390
F
  0
LAYER
  5
34BB
330
2
100
AcDbSymbolTableRecord
100
AcDbLayerTableRecord
  2
A2 Hatch
 70
     0
 62
     8
  6
Continuous
370
     9
390
F
  0
LAYER
  5
34BC
330
2
100
AcDbSymbolTableRecord
100
AcDbLayerTableRecord
  2
DETAILS
 70
     0
 62
     7
  6
Continuous
370
    13
390
F
  0
LAYER
  5
34BD
330
2
100
AcDbSymbolTableRecord
100
AcDbLayerTableRecord
  2
REBAR
 70
     0
 62
     2
  6
CENTER
370
    30
390
F
  0
LAYER
  5
4D24
330
2
100
AcDbSymbolTableRecord
100
AcDbLayerTableRecord
  2
A5 heavy
 70
     0
 62
     5
  6
Continuous
370
    53
390
F
  0
LAYER
  5
5773
330
2
100
AcDbSymbolTableRecord
100
AcDbLayerTableRecord
  2
GRADE
 70
     0
 62
     5
  6
Continuous
370
   100
390
F
  0
LAYER
  5
7AF8
330
2
100
AcDbSymbolTableRecord
100
AcDbLayerTableRecord
  2
HANGERS
 70
     0
 62
   253
  6
Continuous
370
    -3
390
F
  0
ENDTAB
  0
TABLE
  2
STYLE
  5
3
330
0
100
AcDbSymbolTable
 70
     5
  0
STYLE
  5
11
330
3
100
AcDbSymbolTableRecord
100
AcDbTextStyleTableRecord
  2
Standard
 70
     0
 40
0.0
 41
1.0
 50
0.0
 71
     0
 42
0.2
  3
txt
  4

  0
STYLE
  5
9B
330
3
100
AcDbSymbolTableRecord
100
AcDbTextStyleTableRecord
  2
ARCHITXT
 70
     0
 40
0.0
 41
1.25
 50
0.0
 71
     0
 42
1.0
  3
ARCHITXT.shx
  4

  0
STYLE
  5
9C
330
3
100
AcDbSymbolTableRecord
100
AcDbTextStyleTableRecord
  2
ARCTEXT
 70
     0
 40
0.0
 41
0.85
 50
0.0
 71
     0
 42
5.096770384644268
  3
arctext.shx
  4

  0
STYLE
  5
9D
330
3
100
AcDbSymbolTableRecord
100
AcDbTextStyleTableRecord
  2
RomanC
 70
     0
 40
5.0
 41
0.85
 50
0.0
 71
     0
 42
10.0
  3
romanc.shx
  4

  0
STYLE
  5
34BE
330
3
100
AcDbSymbolTableRecord
100
AcDbTextStyleTableRecord
  2
ROMAND
 70
     0
 40
0.0
 41
0.85
 50
0.0
 71
     0
 42
6.0
  3
romand.shx
  4

  0
ENDTAB
  0
TABLE
  2
VIEW
  5
6
330
0
100
AcDbSymbolTable
 70
     0
  0
ENDTAB
  0
TABLE
  2
UCS
  5
7
330
0
100
AcDbSymbolTable
 70
     0
  0
ENDTAB
  0
TABLE
  2
APPID
  5
9
330
0
100
AcDbSymbolTable
 70
     1
  0
APPID
  5
12
330
9
100
AcDbSymbolTableRecord
100
AcDbRegAppTableRecord
  2
ACAD
 70
     0
  0
ENDTAB
  0
TABLE
  2
DIMSTYLE
  5
A
330
0
100
AcDbSymbolTable
 70
     5
100
AcDbDimStyleTable
 71
     0
  0
DIMSTYLE
105
27
330
A
100
AcDbSymbolTableRecord
100
AcDbDimStyleTableRecord
  2
Standard
 70
     0
340
11
  0
DIMSTYLE
105
9E
330
A
100
AcDbSymbolTableRecord
100
AcDbDimStyleTableRecord
  2
Copy of ROMANS
 70
     0
 41
0.75
 42
0.125
 43
0.125
 44
0.125
 73
     0
 74
     0
 77
     1
 78
     3
140
1.0
141
6.0
147
0.25
172
     1
175
     1
176
     2
177
     2
178
     2
271
     3
272
     3
273
     4
275
     1
277
     4
279
     2
284
     3
285
     3
286
     3
340
9B
  0
DIMSTYLE
105
9F
330
A
100
AcDbSymbolTableRecord
100
AcDbDimStyleTableRecord
  2
ARCTEXT
 70
     0
 40
0.0
 41
2.0
 42
1.0
 43
0.375
 44
0.1875
 73
     0
 74
     0
140
4.0
141
2.0
147
2.0
176
     2
177
     2
178
     2
277
     4
340
9C
341
8D
342
89
  0
DIMSTYLE
105
A0
102
{ACAD_REACTORS
330
DC7
330
DCB
102
}
330
A
100
AcDbSymbolTableRecord
100
AcDbDimStyleTableRecord
  2
ARCTEXT1-4
 70
     0
 41
2.0
 42
2.0
 43
2.0
 44
2.0
 73
     0
 74
     0
 77
     1
 78
     3
140
4.0
141
2.0
147
2.0
172
     1
175
     1
275
     1
277
     4
279
     2
340
9C
341
8D
342
89
  0
DIMSTYLE
105
A1
330
A
100
AcDbSymbolTableRecord
100
AcDbDimStyleTableRecord
  2
ARCTEXT 1-1
 70
     0
 40
0.0
 41
1.0
 42
1.0
 43
0.375
 44
0.1875
 73
     0
 74
     0
 77
     1
 78
     3
140
1.0
141
1.0
147
0.5
176
   256
177
   256
178
   256
277
     4
279
     2
340
9C
341
8D
342
89
  0
ENDTAB
  0
TABLE
  2
BLOCK_RECORD
  5
1
330
0
100
AcDbSymbolTable
 70
    17
  0
BLOCK_RECORD
  5
1F
330
1
100
AcDbSymbolTableRecord
100
AcDbBlockTableRecord
  2
*Model_Space
340
22
  0
BLOCK_RECORD
  5
58
330
1
100
AcDbSymbolTableRecord
100
AcDbBlockTableRecord
  2
*Paper_Space
340
59
  0
BLOCK_RECORD
  5
5D
330
1
100
AcDbSymbolTableRecord
100
AcDbBlockTableRecord
  2
*Paper_Space0
340
5E
  0
BLOCK_RECORD
  5
89
330
1
100
AcDbSymbolTableRecord
100
AcDbBlockTableRecord
  2
_ArchTick
340
0
  0
BLOCK_RECORD
  5
8D
330
1
100
AcDbSymbolTableRecord
100
AcDbBlockTableRecord
  2
arrow
340
0
310
2800000020000000200000000100080000000000000400000000000000000000000000000000000000000000000080000080000000808000800000008000800080800000C0C0C000C0DCC000F0CAA6000020400000206000002080000020A0000020C0000020E00000400000004020000040400000406000004080000040A0
310
000040C0000040E00000600000006020000060400000606000006080000060A0000060C0000060E00000800000008020000080400000806000008080000080A0000080C0000080E00000A0000000A0200000A0400000A0600000A0800000A0A00000A0C00000A0E00000C0000000C0200000C0400000C0600000C0800000C0
310
A00000C0C00000C0E00000E0000000E0200000E0400000E0600000E0800000E0A00000E0C00000E0E00040000000400020004000400040006000400080004000A0004000C0004000E00040200000402020004020400040206000402080004020A0004020C0004020E000404000004040200040404000404060004040800040
310
40A0004040C0004040E00040600000406020004060400040606000406080004060A0004060C0004060E00040800000408020004080400040806000408080004080A0004080C0004080E00040A0000040A0200040A0400040A0600040A0800040A0A00040A0C00040A0E00040C0000040C0200040C0400040C0600040C08000
310
40C0A00040C0C00040C0E00040E0000040E0200040E0400040E0600040E0800040E0A00040E0C00040E0E00080000000800020008000400080006000800080008000A0008000C0008000E00080200000802020008020400080206000802080008020A0008020C0008020E00080400000804020008040400080406000804080
310
008040A0008040C0008040E00080600000806020008060400080606000806080008060A0008060C0008060E00080800000808020008080400080806000808080008080A0008080C0008080E00080A0000080A0200080A0400080A0600080A0800080A0A00080A0C00080A0E00080C0000080C0200080C0400080C0600080C0
310
800080C0A00080C0C00080C0E00080E0000080E0200080E0400080E0600080E0800080E0A00080E0C00080E0E000C0000000C0002000C0004000C0006000C0008000C000A000C000C000C000E000C0200000C0202000C0204000C0206000C0208000C020A000C020C000C020E000C0400000C0402000C0404000C0406000C0
310
408000C040A000C040C000C040E000C0600000C0602000C0604000C0606000C0608000C060A000C060C000C060E000C0800000C0802000C0804000C0806000C0808000C080A000C080C000C080E000C0A00000C0A02000C0A04000C0A06000C0A08000C0A0A000C0A0C000C0A0E000C0C00000C0C02000C0C04000C0C06000
310
C0C08000C0C0A000F0FBFF00A4A0A000808080000000FF0000FF000000FFFF00FF000000FF00FF00FFFF0000FFFFFF0000000000000000000000000000000000000000000000000000000000000000000000000000000000000000000000000000000000000000000000000000000000000000000000000000000000000000
310
0000000000000000000000000000000000000000000000000000000000000000000000000000000000000000000000000000000000000000000000000000000000000000000000000000000000000000000000000000000000000000000000000000000000000000000000000000000000000000000000FA00000000000000
310
000000000000000000000000000000000000000000000000FA00000000000000000000000000000000000000000000000000000000000000FA0000000000000000000000000000000000000000000000000000FAFA000000FA00000000000000000000000000000000000000000000000000000000FAFA00FA000000000000
310
000000000000000000000000000000000000000000000000FAF7F7000000000000000000000000000000000000000000000000000000000000F7F7F7F7F7F70000000000000000000000000000000000000000000000000000F7F7F7F7F7F7F7F7F7F700000000000000000000000000000000000000000000F7F7F7F7F7F7
310
F7F7F7F7F7F7F7F7000000000000000000000000000000000000F7F7F7F7F7F7F7F7F7F7F7F7F7F7F7F7F7F70000000000FAFA00000000000000F7F7F7F7F7F7F7F7F7F7F7F7F7F7F7F7F7F7F7F7F7FAFAFAFA00000000000000F7F7F7F7F7F7F7F7F7F7F7F7F7F7F7F7F7F70000000000000000000000000000F7F7F7F7F7
310
F7F7F7F7F7F7F7F700000000000000000000000000000000000000F7F7F7F7F7F7F7F70000000000000000000000000000000000000000000000FAF7F7F70000000000000000000000000000000000000000000000000000FAFA00FA0000000000000000000000000000000000000000000000000000FAFA000000FA000000
310
00000000000000000000000000000000000000000000000000000000FA00000000000000000000000000000000000000000000000000000000000000FA00000000000000000000000000000000000000000000000000000000000000FA00000000000000000000000000000000000000000000000000000000000000000000
310
00000000000000000000000000000000000000000000000000000000000000000000000000000000000000000000000000000000000000000000000000000000000000000000000000000000000000000000000000000000000000000000000000000000000000000000000000000000000000000000000000000000000000
310
0000000000000000000000000000000000000000000000000000000000000000000000000000000000000000000000000000000000000000
1001
ACAD
1000
DesignCenter Data
1002
{
1070
     1
1070
     1
1002
}
  0
ENDTAB
  0
ENDSEC
  0
SECTION
  2
BLOCKS
  0
BLOCK
  5
20
330
1F
100
AcDbEntity
  8
0
100
AcDbBlockBegin
  2
*Model_Space
 70
     0
 10
0.0
 20
0.0
 30
0.0
  3
*Model_Space
  1

  0
ENDBLK
  5
21
330
1F
100
AcDbEntity
  8
0
100
AcDbBlockEnd
  0
BLOCK
  5
5A
330
58
100
AcDbEntity
 67
     1
  8
0
100
AcDbBlockBegin
  2
*Paper_Space
 70
     0
 10
0.0
 20
0.0
 30
0.0
  3
*Paper_Space
  1

  0
ENDBLK
  5
5B
330
58
100
AcDbEntity
 67
     1
  8
0
100
AcDbBlockEnd
  0
BLOCK
  5
5F
330
5D
100
AcDbEntity
  8
0
100
AcDbBlockBegin
  2
*Paper_Space0
 70
     0
 10
0.0
 20
0.0
 30
0.0
  3
*Paper_Space0
  1

  0
ENDBLK
  5
60
330
5D
100
AcDbEntity
  8
0
100
AcDbBlockEnd
  0
BLOCK
  5
8A
330
89
100
AcDbEntity
  8
0
100
AcDbBlockBegin
  2
_ArchTick
 70
     0
 10
0.0
 20
0.0
 30
0.0
  3
_ArchTick
  1

  0
LWPOLYLINE
  5
8B
330
89
100
AcDbEntity
  8
0
  6
ByBlock
 62
     0
100
AcDbPolyline
 90
        2
 70
     0
 43
0.15
 10
-0.5
 20
-0.5
 10
0.5
 20
0.5
  0
ENDBLK
  5
8C
330
89
100
AcDbEntity
  8
0
100
AcDbBlockEnd
  0
BLOCK
  5
8E
330
8D
100
AcDbEntity
  8
0
100
AcDbBlockBegin
  2
arrow
 70
     0
 10
0.0
 20
0.0
 30
0.0
  3
arrow
  1

  0
HATCH
  5
8F
330
8D
100
AcDbEntity
  8
DIM
 62
   253
100
AcDbHatch
 10
0.0
 20
0.0
 30
0.0
210
0.0
220
0.0
230
1.0
  2
SOLID
 70
     1
 71
     0
 91
        1
 92
        7
 72
     0
 73
     1
 93
        3
 10
-2.0
 20
0.5
 10
-2.0
 20
-0.5
 10
0.0
 20
0.0
 97
        0
 75
     0
 76
     1
 47
0.0337394080685346
 98
        1
 10
-1.103351122172171
 20
0.05064816270351
  0
LWPOLYLINE
  5
90
330
8D
100
AcDbEntity
  8
DIM
370
    15
100
AcDbPolyline
 90
        4
 70
     0
 43
0.0
 10
0.0
 20
0.0
 10
-2.0
 20
-0.5
 10
-2.0
 20
0.5
 10
0.0
 20
0.0
  0
LWPOLYLINE
  5
91
330
8D
100
AcDbEntity
  8
DIM
370
     9
100
AcDbPolyline
 90
        2
 70
     0
 43
0.0
 10
0.3742552490839444
 20
0.0935638122700766
 10
0.0
 20
0.0
  0
LWPOLYLINE
  5
92
330
8D
100
AcDbEntity
  8
DIM
370
     9
100
AcDbPolyline
 90
        3
 70
     0
 43
0.0
 10
-2.0
 20
-0.9831764405007561
 10
-2.0
 20
-0.5
 10
-2.46875
 20
-0.6171875
  0
LWPOLYLINE
  5
93
330
8D
100
AcDbEntity
  8
DIM
370
     9
100
AcDbPolyline
 90
        3
 70
     0
 43
0.0
 10
-2.0
 20
0.9831764405007561
 10
-2.0
 20
0.5
 10
-2.46875
 20
0.6171875
  0
LWPOLYLINE
  5
94
330
8D
100
AcDbEntity
  8
DIM
370
     9
100
AcDbPolyline
 90
        2
 70
     0
 43
0.0
 10
0.3742552490839444
 20
-0.0935638122700766
 10
0.0
 20
0.0
  0
ENDBLK
  5
95
330
8D
100
AcDbEntity
  8
0
100
AcDbBlockEnd
  0
ENDSEC
  0
SECTION
  2
ENTITIES
  0
LINE
  5
8BA5
330
1F
100
AcDbEntity
  8
0
 48
0.15
100
AcDbLine
 10
-45.01646835593828
 20
198.9328061968587
 30
0.0
 11
-4.820936883141712
 21
198.9328061968587
 31
0.0
  0
LINE
  5
8BA6
330
1F
100
AcDbEntity
  8
0
 48
0.15
100
AcDbLine
 10
-41.01646835593919
 20
194.9328061968583
 30
0.0
 11
-3.464366375345434
 21
194.9328061968587
 31
0.0
  0
LWPOLYLINE
  5
8BA7
330
1F
100
AcDbEntity
  8
DIM
100
AcDbPolyline
 90
        6
 70
     0
 43
0.0
 10
-2.831900702369694
 20
193.0679103603613
 10
-3.955629555789073
 20
196.3813506775757
 10
-5.335643364760926
 20
195.9133291691757
 10
-3.037546325904713
 20
198.2114262080319
 10
-4.417560134874747
 20
197.7434046996311
 10
-5.683376454099288
 20
201.4758058153827
  0
MTEXT
  5
8BA8
330
1F
100
AcDbEntity
  8
DIM
 62
     3
100
AcDbMText
 10
-16.56999581226637
 20
213.6471736592945
 30
0.0
 40
1.0
 41
22.68954545454545
 71
     1
 72
     5
  1
VERT REINF., PER ENGINEER
  7
RomanC
 73
     1
 44
1.0
1001
ACAD
1000
MTEXTBEGIN
1070
    73
1070
     1
1070
    44
1040
1.0
1070
    74
1070
     0
1000
MTEXTEND
  0
LEADER
  5
8BA9
330
1F
100
AcDbEntity
  8
DIM
100
AcDbLeader
  3
ARCTEXT1-4
 76
     3
 10
-42.44922711374829
 20
213.1223413717232
 30
0.0
 10
-32.50308124611047
 20
213.1228947949709
 30
0.0
 10
-17.34775082479837
 20
213.1228947949709
 30
0.0
1001
ACAD
1000
DSTYLE
1002
{
1070
    41
1040
0.5
1070
    77
1070
     0
1070
   371
1070
    -1
1002
}
  0
LINE
  5
8BAA
330
1F
100
AcDbEntity
  8
REBAR
 48
0.15
100
AcDbLine
 10
-42.69703865813562
 20
196.9105756296778
 30
0.0
 11
-4.820936883141712
 21
196.9105756296773
 31
0.0
  0
MTEXT
  5
8BAB
330
1F
100
AcDbEntity
  8
DIM
 62
     3
100
AcDbMText
 10
-16.55417375876868
 20
185.3025570655647
 30
0.0
 40
1.0
 41
22.68954545454545
 71
     1
 72
     5
  1
FOUNDATION PER ENGINEER (VARIES PER LOCATION)
  7
RomanC
 73
     1
 44
1.0
1001
ACAD
1000
MTEXTBEGIN
1070
    73
1070
     1
1070
    44
1040
1.0
1070
    74
1070
     0
1000
MTEXTEND
  0
LEADER
  5
8BAC
330
1F
100
AcDbEntity
  8
DIM
100
AcDbLeader
  3
ARCTEXT1-4
 76
     3
 10
-39.92330295727015
 20
189.6637365477797
 30
0.0
 10
-35.07499101296025
 20
184.6945457624608
 30
0.0
 10
-17.11634850342352
 20
184.6945457624608
 30
0.0
1001
ACAD
1000
DSTYLE
1002
{
1070
   371
1070
    -1
1070
    41
1040
0.5
1070
   147
1040
2.0
1070
    77
1070
     0
1002
}
  0
MTEXT
  5
8BAD
330
1F
100
AcDbEntity
  8
DIM
 62
     3
100
AcDbMText
 10
-16.31633102496425
 20
208.204153725235
 30
0.0
 40
1.0
 41
22.68954545454545
 71
     1
 72
     5
  1
4" SLAB CONCRETE
  7
RomanC
 73
     1
 44
1.0
1001
ACAD
1000
MTEXTBEGIN
1070
    73
1070
     1
1070
    44
1040
1.0
1070
    74
1070
     0
1000
MTEXTEND
  0
LINE
  5
8BAE
330
1F
100
AcDbEntity
  8
REBAR
 48
0.15
100
AcDbLine
 10
-43.00275732671297
 20
199.6975530400225
 30
0.0
 11
-43.00275732671389
 21
236.4429166694115
 31
0.0
  0
LINE
  5
8BAF
330
1F
100
AcDbEntity
  8
GRADE
 48
0.15
100
AcDbLine
 10
-47.01646835593829
 20
194.9910339533964
 30
0.0
 11
-67.92611288359558
 21
193.5027076098742
 31
0.0
  0
HATCH
  5
8BB0
330
1F
100
AcDbEntity
  8
A2 Hatch
 48
0.15
100
AcDbHatch
 10
0.0
 20
0.0
 30
0.0
210
0.0
220
0.0
230
1.0
  2
EARTH
 70
     0
 71
     0
 91
        1
 92
        5
 93
        3
 72
     1
 10
-47.01646835593829
 20
194.9910339533964
 11
-67.9261128835974
 21
193.5027076098738
 72
     4
 94
        3
 73
     0
 74
     0
 95
        9
 96
        5
 40
0.0
 40
0.0
 40
0.0
 40
0.0
 40
15.18061002485209
 40
26.46419956494733
 40
26.46419956494733
 40
26.46419956494733
 40
26.46419956494733
 10
-67.92611288359558
 20
193.5027076098742
 10
-62.71967508258285
 20
192.3203204511444
 10
-53.64334621550233
 20
190.2590772151727
 10
-48.99737827072977
 20
182.359283540997
 10
-47.01646835593829
 20
178.9910339533964
 72
     1
 10
-47.01646835593646
 20
178.9910339533964
 11
-47.01646835593829
 21
194.9910339533964
 97
        0
 75
     0
 76
     1
 52
45.0
 41
15.0
 77
     0
 78
     6
 53
45.0
 43
-8640.024488681747
 44
3141.046133804743
 45
0.0000000000000004
 46
5.303300858899106
 79
     2
 49
3.75
 49
-3.75
 53
45.0
 43
-8641.018857592792
 44
3142.040502715786
 45
0.0000000000000004
 46
5.303300858899106
 79
     2
 49
3.75
 49
-3.75
 53
45.0
 43
-8642.013226503832
 44
3143.03487162683
 45
0.0000000000000004
 46
5.303300858899106
 79
     2
 49
3.75
 49
-3.75
 53
135.0
 43
-8642.013226503832
 44
3143.697784234192
 45
-5.303300858899105
 46
0.0000000000000004
 79
     2
 49
3.75
 49
-3.75
 53
135.0
 43
-8641.018857592792
 44
3144.692153145236
 45
-5.303300858899105
 46
0.0000000000000004
 79
     2
 49
3.75
 49
-3.75
 53
135.0
 43
-8640.024488681747
 44
3145.68652205628
 45
-5.303300858899105
 46
0.0000000000000004
 79
     2
 49
3.75
 49
-3.75
 47
0.0554597093757905
 98
        1
 10
-49.9045437197733
 20
190.458961960114
  0
LEADER
  5
8BB1
330
1F
100
AcDbEntity
  8
DIM
100
AcDbLeader
  3
ARCTEXT1-4
 76
     3
 10
-19.27289990962026
 20
198.9328061968587
 30
0.0
 10
-19.27289990962026
 20
207.463942031776
 30
0.0
 10
-16.69549314916594
 20
207.463942031776
 30
0.0
1001
ACAD
1000
DSTYLE
1002
{
1070
    41
1040
0.5
1070
    77
1070
     0
1070
   371
1070
    -1
1002
}
  0
MTEXT
  5
8BB2
330
1F
100
AcDbEntity
  8
DIM
 62
     3
100
AcDbMText
 10
-16.56999581226637
 20
233.1075056626257
 30
0.0
 40
1.0
 41
22.68954545454545
 71
     1
 72
     5
  1
HORIZONTAL REINF., PER ENGINEER
  7
RomanC
 73
     1
 44
1.0
1001
ACAD
1000
MTEXTBEGIN
1070
    73
1070
     1
1070
    44
1040
1.0
1070
    74
1070
     0
1000
MTEXTEND
  0
LEADER
  5
8BB3
330
1F
100
AcDbEntity
  8
DIM
100
AcDbLeader
  3
ARCTEXT1-4
 76
     3
 10
-42.93498750834124
 20
232.5826733750543
 30
0.0
 10
-32.50308124611047
 20
232.5832267983021
 30
0.0
 10
-17.34775082479837
 20
232.5832267983021
 30
0.0
1001
ACAD
1000
DSTYLE
1002
{
1070
    41
1040
0.5
1070
    77
1070
     0
1070
   371
1070
    -1
1002
}
  0
MTEXT
  5
8BB4
330
1F
100
AcDbEntity
  8
DIM
100
AcDbMText
 10
-41.98998581803107
 20
158.2382952358063
 30
0.0
 40
2.0
 41
90.07999999999999
 71
     2
 72
     5
  1
{\LCMU TO 2-4-2 WALL TYPICAL CROSS SECTION}
  7
RomanC
 73
     1
 44
1.0
1001
ACAD
1000
MTEXTBEGIN
1070
    73
1070
     1
1070
    44
1040
1.0
1070
    74
1070
     0
1000
MTEXTEND
  0
LINE
  5
8BB5
330
1F
100
AcDbEntity
  8
0
 62
     1
100
AcDbLine
 10
-47.01646835593829
 20
210.9328061968588
 30
0.0
 11
-47.01646835593829
 21
198.9328061968587
 31
0.0
  0
LINE
  5
8BB6
330
1F
100
AcDbEntity
  8
0
 62
     1
100
AcDbLine
 10
-39.01646835593829
 20
210.9328061968588
 30
0.0
 11
-39.01646835593829
 21
198.9328061968587
 31
0.0
  0
LINE
  5
8BB7
330
1F
100
AcDbEntity
  8
0
 62
     1
100
AcDbLine
 10
-47.01646835593829
 20
210.9328061968588
 30
0.0
 11
-45.46646835593901
 21
210.9328061968588
 31
0.0
  0
LINE
  5
8BB8
330
1F
100
AcDbEntity
  8
0
 62
     1
100
AcDbLine
 10
-45.01646835593828
 20
198.9328061968587
 30
0.0
 11
-43.0164683559401
 21
198.9328061968587
 31
0.0
  0
LINE
  5
8BB9
330
1F
100
AcDbEntity
  8
0
 62
     1
100
AcDbLine
 10
-45.0164683559401
 20
211.4328061968588
 30
0.0
 11
-45.01646835593828
 21
198.9328061968587
 31
0.0
  0
LINE
  5
8BBA
330
1F
100
AcDbEntity
  8
0
 62
     1
100
AcDbLine
 10
-41.0164683559401
 20
211.4328061968588
 30
0.0
 11
-41.01646835593828
 21
198.9328061968587
 31
0.0
  0
LINE
  5
8BBB
330
1F
100
AcDbEntity
  8
0
 62
     1
100
AcDbLine
 10
-46.66646835593792
 20
211.4328061968588
 30
0.0
 11
-46.04146835593792
 21
211.4328061968588
 31
0.0
  0
LINE
  5
8BBC
330
1F
100
AcDbEntity
  8
0
 62
     1
100
AcDbLine
 10
-46.66646835593792
 20
211.4328061968588
 30
0.0
 11
-46.66646835593792
 21
198.9328061968587
 31
0.0
  0
LINE
  5
8BBD
330
1F
100
AcDbEntity
  8
0
 62
     1
100
AcDbLine
 10
-39.36646835593865
 20
211.4328061968588
 30
0.0
 11
-39.36646835593865
 21
210.9328061968588
 31
0.0
  0
LINE
  5
8BBE
330
1F
100
AcDbEntity
  8
0
 62
     1
100
AcDbLine
 10
-45.6414683559401
 20
211.4328061968588
 30
0.0
 11
-45.6414683559401
 21
210.9328061968588
 31
0.0
  0
LINE
  5
8BBF
330
1F
100
AcDbEntity
  8
0
 62
     1
100
AcDbLine
 10
-46.04146835593792
 20
211.4328061968588
 30
0.0
 11
-46.04146835593792
 21
210.9328061968588
 31
0.0
  0
LINE
  5
8BC0
330
1F
100
AcDbEntity
  8
0
 62
     1
100
AcDbLine
 10
-40.3914683559401
 20
211.4328061968588
 30
0.0
 11
-40.3914683559401
 21
210.9328061968588
 31
0.0
  0
LINE
  5
8BC1
330
1F
100
AcDbEntity
  8
0
 62
     1
100
AcDbLine
 10
-39.99146835593865
 20
211.4328061968588
 30
0.0
 11
-39.99146835593865
 21
210.9328061968588
 31
0.0
  0
LINE
  5
8BC2
330
1F
100
AcDbEntity
  8
0
 62
     1
100
AcDbLine
 10
-41.0164683559401
 20
211.4328061968588
 30
0.0
 11
-40.3914683559401
 21
211.4328061968588
 31
0.0
  0
LINE
  5
8BC3
330
1F
100
AcDbEntity
  8
0
 62
     1
100
AcDbLine
 10
-39.99146835593865
 20
211.4328061968588
 30
0.0
 11
-39.36646835593865
 21
211.4328061968588
 31
0.0
  0
LINE
  5
8BC4
330
1F
100
AcDbEntity
  8
0
 62
     1
100
AcDbLine
 10
-45.6414683559401
 20
211.4328061968588
 30
0.0
 11
-45.0164683559401
 21
211.4328061968588
 31
0.0
  0
LINE
  5
8BC5
330
1F
100
AcDbEntity
  8
0
 62
     1
100
AcDbLine
 10
-45.21646835593901
 20
211.1828061968588
 30
0.0
 11
-45.21646835593901
 21
198.9328061968587
 31
0.0
  0
LINE
  5
8BC6
330
1F
100
AcDbEntity
  8
0
 62
     1
100
AcDbLine
 10
-40.81646835593938
 20
211.1828061968588
 30
0.0
 11
-40.81646835593938
 21
198.9328061968587
 31
0.0
  0
LINE
  5
8BC7
330
1F
100
AcDbEntity
  8
0
 62
     1
100
AcDbLine
 10
-45.46646835593901
 20
211.1828061968588
 30
0.0
 11
-45.46646835593901
 21
210.9328061968588
 31
0.0
  0
LINE
  5
8BC8
330
1F
100
AcDbEntity
  8
0
 62
     1
100
AcDbLine
 10
-40.56646835593937
 20
211.1828061968588
 30
0.0
 11
-40.56646835593937
 21
210.9328061968588
 31
0.0
  0
LINE
  5
8BC9
330
1F
100
AcDbEntity
  8
0
 62
     1
100
AcDbLine
 10
-45.46646835593901
 20
211.1828061968588
 30
0.0
 11
-45.21646835593901
 21
211.1828061968588
 31
0.0
  0
LINE
  5
8BCA
330
1F
100
AcDbEntity
  8
0
 62
     1
100
AcDbLine
 10
-40.81646835593938
 20
211.1828061968588
 30
0.0
 11
-40.56646835593937
 21
211.1828061968588
 31
0.0
  0
LINE
  5
8BCB
330
1F
100
AcDbEntity
  8
0
 62
     1
100
AcDbLine
 10
-40.60146835593923
 20
210.9328061968588
 30
0.0
 11
-39.01646835593829
 21
210.9328061968588
 31
0.0
  0
LINE
  5
8BCC
330
1F
100
AcDbEntity
  8
0
 62
     1
100
AcDbLine
 10
-45.21646835593901
 20
210.9328061968588
 30
0.0
 11
-45.0164683559401
 21
210.9328061968588
 31
0.0
  0
LINE
  5
8BCD
330
1F
100
AcDbEntity
  8
0
 62
     1
100
AcDbLine
 10
-40.60146835593923
 20
210.9328061968588
 30
0.0
 11
-40.60146835593923
 21
198.9328061968587
 31
0.0
  0
LINE
  5
8BCE
330
1F
100
AcDbEntity
  8
0
 62
     1
100
AcDbLine
 10
-39.78146835593952
 20
210.9328061968588
 30
0.0
 11
-39.78146835593952
 21
198.9328061968587
 31
0.0
  0
LINE
  5
8BCF
330
1F
100
AcDbEntity
  8
A2 Hatch
  6
DASHED2
 48
0.15
100
AcDbLine
 10
-40.44146835593937
 20
210.9328061968588
 30
0.0
 11
-40.44146835593937
 21
198.9328061968587
 31
0.0
  0
LINE
  5
8BD0
330
1F
100
AcDbEntity
  8
A2 Hatch
  6
DASHED2
 48
0.15
100
AcDbLine
 10
-39.94146835593938
 20
210.9328061968588
 30
0.0
 11
-39.94146835593938
 21
198.9328061968587
 31
0.0
  0
LINE
  5
8BD1
330
1F
100
AcDbEntity
  8
0
 48
0.15
100
AcDbLine
 10
-46.04146835593792
 20
210.9328061968588
 30
0.0
 11
-45.6414683559401
 21
210.9328061968588
 31
0.0
  0
LINE
  5
8BD2
330
1F
100
AcDbEntity
  8
A2 Hatch
  6
DASHED2
 48
0.15
100
AcDbLine
 10
-46.25146835593887
 20
211.4328061968588
 30
0.0
 11
-46.25146835593887
 21
198.9328061968587
 31
0.0
  0
LINE
  5
8BD3
330
1F
100
AcDbEntity
  8
A2 Hatch
  6
DASHED2
 48
0.15
100
AcDbLine
 10
-45.43146835593915
 20
211.4328061968588
 30
0.0
 11
-45.43146835593915
 21
198.9328061968587
 31
0.0
  0
LINE
  5
8BD4
330
1F
100
AcDbEntity
  8
0
 62
     1
100
AcDbLine
 10
-46.09146835593901
 20
211.4328061968588
 30
0.0
 11
-46.09146835593901
 21
198.9328061968587
 31
0.0
  0
LINE
  5
8BD5
330
1F
100
AcDbEntity
  8
0
 62
     1
100
AcDbLine
 10
-45.59146835593901
 20
211.4328061968588
 30
0.0
 11
-45.59146835593901
 21
198.9328061968587
 31
0.0
  0
LINE
  5
8BD6
330
1F
100
AcDbEntity
  8
0
 62
     1
100
AcDbLine
 10
-45.59146835593901
 20
210.9328061968588
 30
0.0
 11
-46.09146835593901
 21
210.9328061968588
 31
0.0
  0
LINE
  5
8BD7
330
1F
100
AcDbEntity
  8
0
 62
     1
100
AcDbLine
 10
-41.0164683559401
 20
210.9328061968588
 30
0.0
 11
-40.81646835593938
 21
210.9328061968588
 31
0.0
  0
LINE
  5
8BD8
330
1F
100
AcDbEntity
  8
DETAILS
 62
     6
370
    20
100
AcDbLine
 10
-41.0164683559401
 20
202.9128061968588
 30
0.0
 11
-45.0164683559401
 21
202.9128061968588
 31
0.0
  0
LINE
  5
8BD9
330
1F
100
AcDbEntity
  8
DETAILS
 62
     6
370
    20
100
AcDbLine
 10
-41.0164683559401
 20
207.4528061968587
 30
0.0
 11
-45.0164683559401
 21
207.4528061968587
 31
0.0
  0
LINE
  5
8BDA
330
1F
100
AcDbEntity
  8
DETAILS
 62
     6
370
    20
100
AcDbLine
 10
-41.0164683559401
 20
202.4328061968583
 30
0.0
 11
-45.0164683559401
 21
202.4328061968588
 31
0.0
  0
LINE
  5
8BDB
330
1F
100
AcDbEntity
  8
DETAILS
 62
     6
370
    20
100
AcDbLine
 10
-41.0164683559401
 20
202.5228061968585
 30
0.0
 11
-45.0164683559401
 21
202.5228061968589
 31
0.0
  0
LINE
  5
8BDC
330
1F
100
AcDbEntity
  8
DETAILS
 62
     6
370
    20
100
AcDbLine
 10
-41.0164683559401
 20
202.8228061968586
 30
0.0
 11
-45.0164683559401
 21
202.8228061968586
 31
0.0
  0
LINE
  5
8BDD
330
1F
100
AcDbEntity
  8
DETAILS
 62
     6
370
    20
100
AcDbLine
 10
-41.0164683559401
 20
207.542806196858
 30
0.0
 11
-45.0164683559401
 21
207.5428061968589
 31
0.0
  0
LINE
  5
8BDE
330
1F
100
AcDbEntity
  8
DETAILS
 62
     6
370
    20
100
AcDbLine
 10
-41.0164683559401
 20
207.8428061968581
 30
0.0
 11
-45.0164683559401
 21
207.8428061968586
 31
0.0
  0
LINE
  5
8BDF
330
1F
100
AcDbEntity
  8
DETAILS
 62
     6
370
    20
100
AcDbLine
 10
-44.82646835594141
 20
202.9128061968588
 30
0.0
 11
-44.47646835594286
 21
202.9128061968588
 31
0.0
  0
LINE
  5
8BE0
330
1F
100
AcDbEntity
  8
DETAILS
 62
     6
370
    20
100
AcDbLine
 10
-41.57646835594142
 20
202.9128061968588
 30
0.0
 11
-41.3143363215845
 21
203.1749382312116
 31
0.0
  0
LINE
  5
8BE1
330
1F
100
AcDbEntity
  8
DETAILS
 62
     6
370
    20
100
AcDbLine
 10
-44.47646835594286
 20
202.9128061968588
 30
0.0
 11
-44.73860039029796
 21
203.1749382312175
 31
0.0
  0
LINE
  5
8BE2
330
1F
100
AcDbEntity
  8
DETAILS
 62
     6
370
    20
100
AcDbLine
 10
-41.56646835593938
 20
207.4528061968587
 30
0.0
 11
-41.3143363215845
 21
207.200674162502
 31
0.0
  0
LINE
  5
8BE3
330
1F
100
AcDbEntity
  8
DETAILS
 62
     6
370
    20
100
AcDbLine
 10
-44.46646835594083
 20
207.4528061968587
 30
0.0
 11
-44.73860039029614
 21
207.1806741625066
 31
0.0
  0
LINE
  5
8BE4
330
1F
100
AcDbEntity
  8
DETAILS
 62
     6
370
    20
100
AcDbLine
 10
-41.22646835593923
 20
203.3870702655683
 30
0.0
 11
-41.22646835594105
 21
206.9885421281472
 31
0.0
  0
LINE
  5
8BE5
330
1F
100
AcDbEntity
  8
DETAILS
 62
     6
370
    20
100
AcDbLine
 10
-44.82646835594141
 20
203.3870702655724
 30
0.0
 11
-44.82646835594141
 21
206.9685421281494
 31
0.0
  0
ARC
  5
8BE6
330
1F
100
AcDbEntity
  8
DETAILS
 62
     6
370
    20
100
AcDbCircle
 10
-41.52646835594032
 20
203.3870702655683
 30
0.0
 40
0.3
100
AcDbArc
 50
314.9999999997973
 51
0.0
  0
ARC
  5
8BE7
330
1F
100
AcDbEntity
  8
DETAILS
 62
     6
370
    20
100
AcDbCircle
 10
-44.52646835594032
 20
203.387070265572
 30
0.0
 40
0.3
100
AcDbArc
 50
180.0
 51
224.9999999996868
  0
ARC
  5
8BE8
330
1F
100
AcDbEntity
  8
DETAILS
 62
     6
370
    20
100
AcDbCircle
 10
-41.52646835594032
 20
206.9885421281467
 30
0.0
 40
0.3
100
AcDbArc
 50
0.0000000000260551
 51
44.99999999970522
  0
ARC
  5
8BE9
330
1F
100
AcDbEntity
  8
DETAILS
 62
     6
370
    20
100
AcDbCircle
 10
-44.52646835594032
 20
206.968542128149
 30
0.0
 40
0.3
100
AcDbArc
 50
134.9999999997052
 51
180.0
  0
LINE
  5
8BEA
330
1F
100
AcDbEntity
  8
DETAILS
 62
     6
370
    20
100
AcDbLine
 10
-45.0164683559401
 20
207.9328061968588
 30
0.0
 11
-44.46646835594083
 21
207.9328061968588
 31
0.0
  0
LINE
  5
8BEB
330
1F
100
AcDbEntity
  8
DETAILS
 62
     6
370
    20
100
AcDbLine
 10
-44.21646835594083
 20
207.9828061968589
 30
0.0
 11
-44.21646835594083
 21
208.587122932943
 31
0.0
  0
LINE
  5
8BEC
330
1F
100
AcDbEntity
  8
DETAILS
 62
     6
370
    20
100
AcDbLine
 10
-44.11646835594047
 20
207.9828061968589
 30
0.0
 11
-44.11646835594047
 21
208.5006929890671
 31
0.0
  0
ARC
  5
8BED
330
1F
100
AcDbEntity
  8
DETAILS
 62
     6
370
    20
100
AcDbCircle
 10
-44.05471069716123
 20
208.5049317244167
 30
0.0
 40
0.0619029506189981
100
AcDbArc
 50
134.9903235096033
 51
183.9263367617324
  0
LINE
  5
8BEE
330
1F
100
AcDbEntity
  8
DETAILS
 62
     6
370
    20
100
AcDbLine
 10
-41.7664683559401
 20
207.9328061968583
 30
0.0
 11
-41.56646835593938
 21
207.9328061968583
 31
0.0
  0
LINE
  5
8BEF
330
1F
100
AcDbEntity
  8
DETAILS
 62
     6
370
    20
100
AcDbLine
 10
-41.81646835593937
 20
207.9828061968585
 30
0.0
 11
-41.81646835593937
 21
208.587122932943
 31
0.0
  0
LINE
  5
8BF0
330
1F
100
AcDbEntity
  8
DETAILS
 62
     6
370
    20
100
AcDbLine
 10
-41.91646835593973
 20
207.9828061968585
 30
0.0
 11
-41.91646835593973
 21
208.5006929890667
 31
0.0
  0
ARC
  5
8BF1
330
1F
100
AcDbEntity
  8
DETAILS
 62
     6
370
    20
100
AcDbCircle
 10
-42.02872418794004
 20
208.4975579367226
 30
0.0
 40
0.1122996009395304
100
AcDbArc
 50
1.599726146932392
 51
27.09751498394456
  0
LINE
  5
8BF2
330
1F
100
AcDbEntity
  8
DETAILS
 62
     6
370
    20
100
AcDbLine
 10
-43.46646835594083
 20
207.9828061968585
 30
0.0
 11
-43.46646835594083
 21
208.5006929890658
 31
0.0
  0
LINE
  5
8BF3
330
1F
100
AcDbEntity
  8
DETAILS
 62
     6
370
    20
100
AcDbLine
 10
-43.36646835594047
 20
207.9828061968585
 30
0.0
 11
-43.36646835594047
 21
208.5006929890671
 31
0.0
  0
ARC
  5
8BF4
330
1F
100
AcDbEntity
  8
DETAILS
 62
     6
370
    20
100
AcDbCircle
 10
-43.41646835594156
 20
208.6185476826342
 30
0.0
 40
0.0935752503092939
100
AcDbArc
 50
311.7278668394936
 51
228.2721331609141
  0
ARC
  5
8BF5
330
1F
100
AcDbEntity
  8
DETAILS
 62
     6
370
    20
100
AcDbCircle
 10
-43.56646835594119
 20
208.5006929890658
 30
0.0
 40
0.1
100
AcDbArc
 50
0.0
 51
28.69723935241942
  0
ARC
  5
8BF6
330
1F
100
AcDbEntity
  8
DETAILS
 62
     6
370
    20
100
AcDbCircle
 10
-43.26646835594011
 20
208.5006929890671
 30
0.0
 40
0.1
100
AcDbArc
 50
151.3027606481169
 51
180.0
  0
LINE
  5
8BF7
330
1F
100
AcDbEntity
  8
DETAILS
 62
     6
370
    20
100
AcDbLine
 10
-42.66646835593792
 20
207.9828061968585
 30
0.0
 11
-42.66646835593974
 21
208.5006929890658
 31
0.0
  0
LINE
  5
8BF8
330
1F
100
AcDbEntity
  8
DETAILS
 62
     6
370
    20
100
AcDbLine
 10
-42.56646835593937
 20
207.9828061968585
 30
0.0
 11
-42.56646835593937
 21
208.5006929890667
 31
0.0
  0
ARC
  5
8BF9
330
1F
100
AcDbEntity
  8
DETAILS
 62
     6
370
    20
100
AcDbCircle
 10
-42.61646835593865
 20
208.6185476826337
 30
0.0
 40
0.0935752503091666
100
AcDbArc
 50
311.7278668395668
 51
228.2721331606188
  0
ARC
  5
8BFA
330
1F
100
AcDbEntity
  8
DETAILS
 62
     6
370
    20
100
AcDbCircle
 10
-42.7664683559401
 20
208.5006929890658
 30
0.0
 40
0.1
100
AcDbArc
 50
0.0
 51
28.69723935241942
  0
ARC
  5
8BFB
330
1F
100
AcDbEntity
  8
DETAILS
 62
     6
370
    20
100
AcDbCircle
 10
-42.46646835593901
 20
208.5006929890667
 30
0.0
 40
0.1
100
AcDbArc
 50
151.3027606481169
 51
180.0
  0
LINE
  5
8BFC
330
1F
100
AcDbEntity
  8
DETAILS
 62
     6
370
    20
100
AcDbLine
 10
-41.86646835593864
 20
208.7121229329429
 30
0.0
 11
-41.0164683559401
 21
208.7121229329429
 31
0.0
  0
ARC
  5
8BFD
330
1F
100
AcDbEntity
  8
DETAILS
 62
     6
370
    20
100
AcDbCircle
 10
-44.15398135494115
 20
208.6210837563537
 30
0.0
 40
0.091207026586975
100
AcDbArc
 50
307.486330369094
 51
93.47656839120476
  0
ARC
  5
8BFE
330
1F
100
AcDbEntity
  8
DETAILS
 62
     6
370
    20
100
AcDbCircle
 10
-41.86646835593864
 20
208.6185476826337
 30
0.0
 40
0.0935752503091878
100
AcDbArc
 50
90.0
 51
228.2720386612375
  0
LINE
  5
8BFF
330
1F
100
AcDbEntity
  8
DETAILS
 62
     6
370
    20
100
AcDbLine
 10
-44.14845052997452
 20
208.7121229329429
 30
0.0
 11
-45.0164683559401
 21
208.7121229329429
 31
0.0
  0
LINE
  5
8C00
330
1F
100
AcDbEntity
  8
DETAILS
 62
     6
370
    20
100
AcDbLine
 10
-44.21646835594083
 20
208.587122932943
 30
0.0
 11
-45.0164683559401
 21
208.587122932943
 31
0.0
  0
LINE
  5
8C01
330
1F
100
AcDbEntity
  8
DETAILS
 62
     6
370
    20
100
AcDbLine
 10
-41.81646835593937
 20
208.587122932943
 30
0.0
 11
-41.0164683559401
 21
208.587122932943
 31
0.0
  0
LINE
  5
8C02
330
1F
100
AcDbEntity
  8
DETAILS
 62
     6
370
    20
100
AcDbLine
 10
-41.96646835593901
 20
207.9328061968583
 30
0.0
 11
-42.5164683559401
 21
207.9328061968588
 31
0.0
  0
LINE
  5
8C03
330
1F
100
AcDbEntity
  8
DETAILS
 62
     6
370
    20
100
AcDbLine
 10
-42.71646835593901
 20
207.9328061968588
 30
0.0
 11
-43.3164683559412
 21
207.9328061968588
 31
0.0
  0
LINE
  5
8C04
330
1F
100
AcDbEntity
  8
DETAILS
 62
     6
370
    20
100
AcDbLine
 10
-43.5164683559401
 20
207.9328061968588
 30
0.0
 11
-44.06646835594119
 21
207.9328061968588
 31
0.0
  0
LINE
  5
8C05
330
1F
100
AcDbEntity
  8
DETAILS
 62
     6
370
    20
100
AcDbLine
 10
-44.26646835594192
 20
207.9328061968588
 30
0.0
 11
-45.0164683559401
 21
207.9328061968588
 31
0.0
  0
ARC
  5
8C06
330
1F
100
AcDbEntity
  8
DETAILS
 62
     6
370
    20
100
AcDbCircle
 10
-44.26646835594192
 20
207.9828061968589
 30
0.0
 40
0.05
100
AcDbArc
 50
270.0
 51
0.0
  0
ARC
  5
8C07
330
1F
100
AcDbEntity
  8
DETAILS
 62
     6
370
    20
100
AcDbCircle
 10
-44.06646835594119
 20
207.9828061968589
 30
0.0
 40
0.05
100
AcDbArc
 50
180.0
 51
270.0
  0
ARC
  5
8C08
330
1F
100
AcDbEntity
  8
DETAILS
 62
     6
370
    20
100
AcDbCircle
 10
-43.5164683559401
 20
207.9828061968585
 30
0.0
 40
0.05
100
AcDbArc
 50
270.0
 51
0.0
  0
ARC
  5
8C09
330
1F
100
AcDbEntity
  8
DETAILS
 62
     6
370
    20
100
AcDbCircle
 10
-43.3164683559412
 20
207.9828061968585
 30
0.0
 40
0.05
100
AcDbArc
 50
180.0
 51
270.0
  0
ARC
  5
8C0A
330
1F
100
AcDbEntity
  8
DETAILS
 62
     6
370
    20
100
AcDbCircle
 10
-42.71646835593901
 20
207.9828061968585
 30
0.0
 40
0.05
100
AcDbArc
 50
270.0
 51
0.0
  0
ARC
  5
8C0B
330
1F
100
AcDbEntity
  8
DETAILS
 62
     6
370
    20
100
AcDbCircle
 10
-42.5164683559401
 20
207.9828061968585
 30
0.0
 40
0.05
100
AcDbArc
 50
180.0
 51
270.0
  0
ARC
  5
8C0C
330
1F
100
AcDbEntity
  8
DETAILS
 62
     6
370
    20
100
AcDbCircle
 10
-41.96646835593901
 20
207.9828061968585
 30
0.0
 40
0.05
100
AcDbArc
 50
270.0
 51
0.0
  0
ARC
  5
8C0D
330
1F
100
AcDbEntity
  8
DETAILS
 62
     6
370
    20
100
AcDbCircle
 10
-41.7664683559401
 20
207.9828061968585
 30
0.0
 40
0.05
100
AcDbArc
 50
179.9999999999479
 51
270.0
  0
LINE
  5
8C0E
330
1F
100
AcDbEntity
  8
DETAILS
 62
     6
370
    20
100
AcDbLine
 10
-45.0164683559401
 20
207.9328061968588
 30
0.0
 11
-41.0164683559401
 21
207.9328061968588
 31
0.0
  0
LINE
  5
8C0F
330
1F
100
AcDbEntity
  8
DETAILS
 62
     6
370
    20
100
AcDbLine
 10
-44.26646835594192
 20
207.9328061968588
 30
0.0
 11
-44.06646835594119
 21
207.9328061968588
 31
0.0
  0
LINE
  5
8C10
330
1F
100
AcDbEntity
  8
DETAILS
 62
     6
370
    20
100
AcDbLine
 10
-43.5164683559401
 20
207.9328061968588
 30
0.0
 11
-43.3164683559412
 21
207.9328061968588
 31
0.0
  0
LINE
  5
8C11
330
1F
100
AcDbEntity
  8
DETAILS
 62
     6
370
    20
100
AcDbLine
 10
-42.71646835593901
 20
207.9328061968588
 30
0.0
 11
-42.5164683559401
 21
207.9328061968588
 31
0.0
  0
LINE
  5
8C12
330
1F
100
AcDbEntity
  8
DETAILS
 62
     6
370
    20
100
AcDbLine
 10
-41.96646835593901
 20
207.9328061968588
 30
0.0
 11
-41.7664683559401
 21
207.9328061968588
 31
0.0
  0
LINE
  5
8C13
330
1F
100
AcDbEntity
  8
DETAILS
 62
     6
370
    20
100
AcDbLine
 10
-44.21646835594083
 20
202.9128061968588
 30
0.0
 11
-44.11646835594047
 21
202.9128061968588
 31
0.0
  0
LINE
  5
8C14
330
1F
100
AcDbEntity
  8
DETAILS
 62
     6
370
    20
100
AcDbLine
 10
-44.14685674137262
 20
202.198883874156
 30
0.0
 11
-44.11646835594047
 21
202.4328061968588
 31
0.0
  0
LINE
  5
8C15
330
1F
100
AcDbEntity
  8
DETAILS
 62
     6
370
    20
100
AcDbLine
 10
-44.18607996840046
 20
202.1988838741565
 30
0.0
 11
-44.21646835594083
 21
202.4328061968588
 31
0.0
  0
ARC
  5
8C16
330
1F
100
AcDbEntity
  8
DETAILS
 62
     6
370
    20
100
AcDbCircle
 10
-44.16646835488655
 20
202.2028061968587
 30
0.0
 40
0.02
100
AcDbArc
 50
191.3099324739694
 51
348.6900675259442
  0
LINE
  5
8C17
330
1F
100
AcDbEntity
  8
DETAILS
 62
     6
370
    20
100
AcDbLine
 10
-43.39685674242582
 20
202.198883874156
 30
0.0
 11
-43.36646835699366
 21
202.4328061968588
 31
0.0
  0
LINE
  5
8C18
330
1F
100
AcDbEntity
  8
DETAILS
 62
     6
370
    20
100
AcDbLine
 10
-43.43607996945365
 20
202.1988838741565
 30
0.0
 11
-43.46646835699402
 21
202.4328061968588
 31
0.0
  0
ARC
  5
8C19
330
1F
100
AcDbEntity
  8
DETAILS
 62
     6
370
    20
100
AcDbCircle
 10
-43.41646835593974
 20
202.2028061968587
 30
0.0
 40
0.02
100
AcDbArc
 50
191.3099324739694
 51
348.6900675259442
  0
LINE
  5
8C1A
330
1F
100
AcDbEntity
  8
DETAILS
 62
     6
370
    20
100
AcDbLine
 10
-42.59685674242473
 20
202.198883874156
 30
0.0
 11
-42.56646835699257
 21
202.4328061968588
 31
0.0
  0
LINE
  5
8C1B
330
1F
100
AcDbEntity
  8
DETAILS
 62
     6
370
    20
100
AcDbLine
 10
-42.63607996945256
 20
202.1988838741565
 30
0.0
 11
-42.66646835699293
 21
202.4328061968588
 31
0.0
  0
ARC
  5
8C1C
330
1F
100
AcDbEntity
  8
DETAILS
 62
     6
370
    20
100
AcDbCircle
 10
-42.61646835593865
 20
202.2028061968587
 30
0.0
 40
0.02
100
AcDbArc
 50
191.3099324739694
 51
348.6900675259442
  0
LINE
  5
8C1D
330
1F
100
AcDbEntity
  8
DETAILS
 62
     6
370
    20
100
AcDbLine
 10
-41.84685674242473
 20
202.198883874156
 30
0.0
 11
-41.81646835699257
 21
202.4328061968588
 31
0.0
  0
LINE
  5
8C1E
330
1F
100
AcDbEntity
  8
DETAILS
 62
     6
370
    20
100
AcDbLine
 10
-41.88607996945257
 20
202.1988838741565
 30
0.0
 11
-41.91646835699294
 21
202.4328061968588
 31
0.0
  0
ARC
  5
8C1F
330
1F
100
AcDbEntity
  8
DETAILS
 62
     6
370
    20
100
AcDbCircle
 10
-41.86646835593864
 20
202.2028061968587
 30
0.0
 40
0.02
100
AcDbArc
 50
191.3099324739694
 51
348.6900675259442
  0
LINE
  5
8C20
330
1F
100
AcDbEntity
  8
DETAILS
 62
     6
370
    20
100
AcDbLine
 10
-44.47646835594286
 20
202.4328061968588
 30
0.0
 11
-45.0164683559401
 21
201.9122907329427
 31
0.0
  0
LINE
  5
8C21
330
1F
100
AcDbEntity
  8
DETAILS
 62
     6
370
    20
100
AcDbLine
 10
-41.57646835593959
 20
202.4328061968583
 30
0.0
 11
-41.0164683559401
 21
201.8985204825719
 31
0.0
  0
LINE
  5
8C22
330
1F
100
AcDbEntity
  8
DETAILS
 62
     6
370
    20
100
AcDbLine
 10
-41.56646835593938
 20
207.9328061968588
 30
0.0
 11
-41.0164683559401
 21
208.4630626071145
 31
0.0
  0
LINE
  5
8C23
330
1F
100
AcDbEntity
  8
DETAILS
 62
     6
370
    20
100
AcDbLine
 10
-44.46646835594083
 20
207.9328061968588
 30
0.0
 11
-45.01646835593828
 21
208.4630626071136
 31
0.0
  0
LINE
  5
8C24
330
1F
100
AcDbEntity
  8
0
 62
     1
100
AcDbLine
 10
-47.01646835593829
 20
222.9328061968588
 30
0.0
 11
-47.01646835593829
 21
210.9328061968588
 31
0.0
  0
LINE
  5
8C25
330
1F
100
AcDbEntity
  8
0
 62
     1
100
AcDbLine
 10
-39.01646835593829
 20
222.9328061968588
 30
0.0
 11
-39.01646835593829
 21
210.9328061968588
 31
0.0
  0
LINE
  5
8C26
330
1F
100
AcDbEntity
  8
0
 62
     1
100
AcDbLine
 10
-47.01646835593829
 20
222.9328061968588
 30
0.0
 11
-45.46646835593901
 21
222.9328061968588
 31
0.0
  0
LINE
  5
8C27
330
1F
100
AcDbEntity
  8
0
 62
     1
100
AcDbLine
 10
-47.01646835593829
 20
210.9328061968588
 30
0.0
 11
-45.0164683559401
 21
210.9328061968588
 31
0.0
  0
LINE
  5
8C28
330
1F
100
AcDbEntity
  8
0
 62
     1
100
AcDbLine
 10
-45.0164683559401
 20
223.4328061968588
 30
0.0
 11
-45.01646835593828
 21
210.9328061968588
 31
0.0
  0
LINE
  5
8C29
330
1F
100
AcDbEntity
  8
0
 62
     1
100
AcDbLine
 10
-41.0164683559401
 20
223.4328061968588
 30
0.0
 11
-41.01646835593828
 21
210.9328061968588
 31
0.0
  0
LINE
  5
8C2A
330
1F
100
AcDbEntity
  8
0
 62
     1
100
AcDbLine
 10
-46.66646835593792
 20
223.4328061968588
 30
0.0
 11
-46.04146835593792
 21
223.4328061968588
 31
0.0
  0
LINE
  5
8C2B
330
1F
100
AcDbEntity
  8
0
 62
     1
100
AcDbLine
 10
-46.66646835593792
 20
223.4328061968588
 30
0.0
 11
-46.66646835593792
 21
210.9328061968588
 31
0.0
  0
LINE
  5
8C2C
330
1F
100
AcDbEntity
  8
0
 62
     1
100
AcDbLine
 10
-39.36646835593865
 20
223.4328061968588
 30
0.0
 11
-39.36646835593865
 21
222.9328061968588
 31
0.0
  0
LINE
  5
8C2D
330
1F
100
AcDbEntity
  8
0
 62
     1
100
AcDbLine
 10
-45.6414683559401
 20
223.4328061968588
 30
0.0
 11
-45.6414683559401
 21
222.9328061968588
 31
0.0
  0
LINE
  5
8C2E
330
1F
100
AcDbEntity
  8
0
 62
     1
100
AcDbLine
 10
-46.04146835593792
 20
223.4328061968588
 30
0.0
 11
-46.04146835593792
 21
222.9328061968588
 31
0.0
  0
LINE
  5
8C2F
330
1F
100
AcDbEntity
  8
0
 62
     1
100
AcDbLine
 10
-40.3914683559401
 20
223.4328061968588
 30
0.0
 11
-40.3914683559401
 21
222.9328061968588
 31
0.0
  0
LINE
  5
8C30
330
1F
100
AcDbEntity
  8
0
 62
     1
100
AcDbLine
 10
-39.99146835593865
 20
223.4328061968588
 30
0.0
 11
-39.99146835593865
 21
222.9328061968588
 31
0.0
  0
LINE
  5
8C31
330
1F
100
AcDbEntity
  8
0
 62
     1
100
AcDbLine
 10
-41.0164683559401
 20
223.4328061968588
 30
0.0
 11
-40.3914683559401
 21
223.4328061968588
 31
0.0
  0
LINE
  5
8C32
330
1F
100
AcDbEntity
  8
0
 62
     1
100
AcDbLine
 10
-39.99146835593865
 20
223.4328061968588
 30
0.0
 11
-39.36646835593865
 21
223.4328061968588
 31
0.0
  0
LINE
  5
8C33
330
1F
100
AcDbEntity
  8
0
 62
     1
100
AcDbLine
 10
-45.6414683559401
 20
223.4328061968588
 30
0.0
 11
-45.0164683559401
 21
223.4328061968588
 31
0.0
  0
LINE
  5
8C34
330
1F
100
AcDbEntity
  8
0
 62
     1
100
AcDbLine
 10
-45.21646835593901
 20
223.1828061968588
 30
0.0
 11
-45.21646835593901
 21
210.9328061968588
 31
0.0
  0
LINE
  5
8C35
330
1F
100
AcDbEntity
  8
0
 62
     1
100
AcDbLine
 10
-40.81646835593938
 20
223.1828061968588
 30
0.0
 11
-40.81646835593938
 21
210.9328061968588
 31
0.0
  0
LINE
  5
8C36
330
1F
100
AcDbEntity
  8
0
 62
     1
100
AcDbLine
 10
-45.46646835593901
 20
223.1828061968588
 30
0.0
 11
-45.46646835593901
 21
222.9328061968588
 31
0.0
  0
LINE
  5
8C37
330
1F
100
AcDbEntity
  8
0
 62
     1
100
AcDbLine
 10
-40.56646835593937
 20
223.1828061968588
 30
0.0
 11
-40.56646835593937
 21
222.9328061968588
 31
0.0
  0
LINE
  5
8C38
330
1F
100
AcDbEntity
  8
0
 62
     1
100
AcDbLine
 10
-45.46646835593901
 20
223.1828061968588
 30
0.0
 11
-45.21646835593901
 21
223.1828061968588
 31
0.0
  0
LINE
  5
8C39
330
1F
100
AcDbEntity
  8
0
 62
     1
100
AcDbLine
 10
-40.81646835593938
 20
223.1828061968588
 30
0.0
 11
-40.56646835593937
 21
223.1828061968588
 31
0.0
  0
LINE
  5
8C3A
330
1F
100
AcDbEntity
  8
0
 62
     1
100
AcDbLine
 10
-40.60146835593923
 20
222.9328061968588
 30
0.0
 11
-39.01646835593829
 21
222.9328061968588
 31
0.0
  0
LINE
  5
8C3B
330
1F
100
AcDbEntity
  8
0
 62
     1
100
AcDbLine
 10
-45.21646835593901
 20
222.9328061968588
 30
0.0
 11
-45.0164683559401
 21
222.9328061968588
 31
0.0
  0
LINE
  5
8C3C
330
1F
100
AcDbEntity
  8
0
 62
     1
100
AcDbLine
 10
-40.60146835593923
 20
222.9328061968588
 30
0.0
 11
-40.60146835593923
 21
210.9328061968588
 31
0.0
  0
LINE
  5
8C3D
330
1F
100
AcDbEntity
  8
0
 62
     1
100
AcDbLine
 10
-39.78146835593952
 20
222.9328061968588
 30
0.0
 11
-39.78146835593952
 21
210.9328061968588
 31
0.0
  0
LINE
  5
8C3E
330
1F
100
AcDbEntity
  8
A2 Hatch
  6
DASHED2
 48
0.15
100
AcDbLine
 10
-40.44146835593937
 20
222.9328061968588
 30
0.0
 11
-40.44146835593937
 21
210.9328061968588
 31
0.0
  0
LINE
  5
8C3F
330
1F
100
AcDbEntity
  8
A2 Hatch
  6
DASHED2
 48
0.15
100
AcDbLine
 10
-39.94146835593938
 20
222.9328061968588
 30
0.0
 11
-39.94146835593938
 21
210.9328061968588
 31
0.0
  0
LINE
  5
8C40
330
1F
100
AcDbEntity
  8
0
 48
0.15
100
AcDbLine
 10
-46.04146835593792
 20
222.9328061968588
 30
0.0
 11
-45.6414683559401
 21
222.9328061968588
 31
0.0
  0
LINE
  5
8C41
330
1F
100
AcDbEntity
  8
A2 Hatch
  6
DASHED2
 48
0.15
100
AcDbLine
 10
-46.25146835593887
 20
223.4328061968588
 30
0.0
 11
-46.25146835593887
 21
210.9328061968588
 31
0.0
  0
LINE
  5
8C42
330
1F
100
AcDbEntity
  8
A2 Hatch
  6
DASHED2
 48
0.15
100
AcDbLine
 10
-45.43146835593915
 20
223.4328061968588
 30
0.0
 11
-45.43146835593915
 21
210.9328061968588
 31
0.0
  0
LINE
  5
8C43
330
1F
100
AcDbEntity
  8
0
 62
     1
100
AcDbLine
 10
-46.09146835593901
 20
223.4328061968588
 30
0.0
 11
-46.09146835593901
 21
210.9328061968588
 31
0.0
  0
LINE
  5
8C44
330
1F
100
AcDbEntity
  8
0
 62
     1
100
AcDbLine
 10
-45.59146835593901
 20
223.4328061968588
 30
0.0
 11
-45.59146835593901
 21
210.9328061968588
 31
0.0
  0
LINE
  5
8C45
330
1F
100
AcDbEntity
  8
0
 62
     1
100
AcDbLine
 10
-45.59146835593901
 20
222.9328061968588
 30
0.0
 11
-46.09146835593901
 21
222.9328061968588
 31
0.0
  0
LINE
  5
8C46
330
1F
100
AcDbEntity
  8
0
 62
     1
100
AcDbLine
 10
-41.0164683559401
 20
222.9328061968588
 30
0.0
 11
-40.81646835593938
 21
222.9328061968588
 31
0.0
  0
LINE
  5
8C47
330
1F
100
AcDbEntity
  8
0
 62
     1
100
AcDbLine
 10
-41.01646835593828
 20
210.9328061968588
 30
0.0
 11
-39.01646835593829
 21
210.9328061968588
 31
0.0
  0
LINE
  5
8C48
330
1F
100
AcDbEntity
  8
DETAILS
 62
     6
370
    20
100
AcDbLine
 10
-41.0164683559401
 20
214.9128061968588
 30
0.0
 11
-45.0164683559401
 21
214.9128061968588
 31
0.0
  0
LINE
  5
8C49
330
1F
100
AcDbEntity
  8
DETAILS
 62
     6
370
    20
100
AcDbLine
 10
-41.0164683559401
 20
219.4528061968588
 30
0.0
 11
-45.0164683559401
 21
219.4528061968588
 31
0.0
  0
LINE
  5
8C4A
330
1F
100
AcDbEntity
  8
DETAILS
 62
     6
370
    20
100
AcDbLine
 10
-41.0164683559401
 20
214.4328061968583
 30
0.0
 11
-45.0164683559401
 21
214.4328061968588
 31
0.0
  0
LINE
  5
8C4B
330
1F
100
AcDbEntity
  8
DETAILS
 62
     6
370
    20
100
AcDbLine
 10
-41.0164683559401
 20
214.5228061968584
 30
0.0
 11
-45.0164683559401
 21
214.5228061968589
 31
0.0
  0
LINE
  5
8C4C
330
1F
100
AcDbEntity
  8
DETAILS
 62
     6
370
    20
100
AcDbLine
 10
-41.0164683559401
 20
214.8228061968586
 30
0.0
 11
-45.0164683559401
 21
214.8228061968586
 31
0.0
  0
LINE
  5
8C4D
330
1F
100
AcDbEntity
  8
DETAILS
 62
     6
370
    20
100
AcDbLine
 10
-41.0164683559401
 20
219.542806196858
 30
0.0
 11
-45.0164683559401
 21
219.5428061968589
 31
0.0
  0
LINE
  5
8C4E
330
1F
100
AcDbEntity
  8
DETAILS
 62
     6
370
    20
100
AcDbLine
 10
-41.0164683559401
 20
219.8428061968582
 30
0.0
 11
-45.0164683559401
 21
219.8428061968586
 31
0.0
  0
LINE
  5
8C4F
330
1F
100
AcDbEntity
  8
DETAILS
 62
     6
370
    20
100
AcDbLine
 10
-44.82646835594141
 20
214.9128061968588
 30
0.0
 11
-44.47646835594286
 21
214.9128061968588
 31
0.0
  0
LINE
  5
8C50
330
1F
100
AcDbEntity
  8
DETAILS
 62
     6
370
    20
100
AcDbLine
 10
-41.57646835594142
 20
214.9128061968588
 30
0.0
 11
-41.3143363215845
 21
215.1749382312116
 31
0.0
  0
LINE
  5
8C51
330
1F
100
AcDbEntity
  8
DETAILS
 62
     6
370
    20
100
AcDbLine
 10
-44.47646835594286
 20
214.9128061968588
 30
0.0
 11
-44.73860039029796
 21
215.1749382312175
 31
0.0
  0
LINE
  5
8C52
330
1F
100
AcDbEntity
  8
DETAILS
 62
     6
370
    20
100
AcDbLine
 10
-41.56646835593938
 20
219.4528061968588
 30
0.0
 11
-41.3143363215845
 21
219.2006741625021
 31
0.0
  0
LINE
  5
8C53
330
1F
100
AcDbEntity
  8
DETAILS
 62
     6
370
    20
100
AcDbLine
 10
-44.46646835594083
 20
219.4528061968588
 30
0.0
 11
-44.73860039029614
 21
219.1806741625066
 31
0.0
  0
LINE
  5
8C54
330
1F
100
AcDbEntity
  8
DETAILS
 62
     6
370
    20
100
AcDbLine
 10
-41.22646835593923
 20
215.3870702655683
 30
0.0
 11
-41.22646835594105
 21
218.9885421281471
 31
0.0
  0
LINE
  5
8C55
330
1F
100
AcDbEntity
  8
DETAILS
 62
     6
370
    20
100
AcDbLine
 10
-44.82646835594141
 20
215.3870702655724
 30
0.0
 11
-44.82646835594141
 21
218.9685421281494
 31
0.0
  0
ARC
  5
8C56
330
1F
100
AcDbEntity
  8
DETAILS
 62
     6
370
    20
100
AcDbCircle
 10
-41.52646835594032
 20
215.3870702655683
 30
0.0
 40
0.3
100
AcDbArc
 50
314.9999999997973
 51
0.0
  0
ARC
  5
8C57
330
1F
100
AcDbEntity
  8
DETAILS
 62
     6
370
    20
100
AcDbCircle
 10
-44.52646835594032
 20
215.387070265572
 30
0.0
 40
0.3
100
AcDbArc
 50
180.0
 51
224.9999999996868
  0
ARC
  5
8C58
330
1F
100
AcDbEntity
  8
DETAILS
 62
     6
370
    20
100
AcDbCircle
 10
-41.52646835594032
 20
218.9885421281467
 30
0.0
 40
0.3
100
AcDbArc
 50
0.0000000000260551
 51
44.99999999970522
  0
ARC
  5
8C59
330
1F
100
AcDbEntity
  8
DETAILS
 62
     6
370
    20
100
AcDbCircle
 10
-44.52646835594032
 20
218.968542128149
 30
0.0
 40
0.3
100
AcDbArc
 50
134.9999999997052
 51
180.0
  0
LINE
  5
8C5A
330
1F
100
AcDbEntity
  8
DETAILS
 62
     6
370
    20
100
AcDbLine
 10
-45.0164683559401
 20
219.9328061968587
 30
0.0
 11
-44.46646835594083
 21
219.9328061968587
 31
0.0
  0
LINE
  5
8C5B
330
1F
100
AcDbEntity
  8
DETAILS
 62
     6
370
    20
100
AcDbLine
 10
-44.21646835594083
 20
219.9828061968589
 30
0.0
 11
-44.21646835594083
 21
220.5871229329429
 31
0.0
  0
LINE
  5
8C5C
330
1F
100
AcDbEntity
  8
DETAILS
 62
     6
370
    20
100
AcDbLine
 10
-44.11646835594047
 20
219.9828061968589
 30
0.0
 11
-44.11646835594047
 21
220.5006929890671
 31
0.0
  0
ARC
  5
8C5D
330
1F
100
AcDbEntity
  8
DETAILS
 62
     6
370
    20
100
AcDbCircle
 10
-44.05471069716123
 20
220.5049317244168
 30
0.0
 40
0.0619029506189981
100
AcDbArc
 50
134.9903235096033
 51
183.9263367617324
  0
LINE
  5
8C5E
330
1F
100
AcDbEntity
  8
DETAILS
 62
     6
370
    20
100
AcDbLine
 10
-41.7664683559401
 20
219.9328061968583
 30
0.0
 11
-41.56646835593938
 21
219.9328061968583
 31
0.0
  0
LINE
  5
8C5F
330
1F
100
AcDbEntity
  8
DETAILS
 62
     6
370
    20
100
AcDbLine
 10
-41.81646835593937
 20
219.9828061968585
 30
0.0
 11
-41.81646835593937
 21
220.5871229329429
 31
0.0
  0
LINE
  5
8C60
330
1F
100
AcDbEntity
  8
DETAILS
 62
     6
370
    20
100
AcDbLine
 10
-41.91646835593973
 20
219.9828061968585
 30
0.0
 11
-41.91646835593973
 21
220.5006929890667
 31
0.0
  0
ARC
  5
8C61
330
1F
100
AcDbEntity
  8
DETAILS
 62
     6
370
    20
100
AcDbCircle
 10
-42.02872418794004
 20
220.4975579367226
 30
0.0
 40
0.1122996009395304
100
AcDbArc
 50
1.599726146932392
 51
27.09751498394456
  0
LINE
  5
8C62
330
1F
100
AcDbEntity
  8
DETAILS
 62
     6
370
    20
100
AcDbLine
 10
-43.46646835594083
 20
219.9828061968585
 30
0.0
 11
-43.46646835594083
 21
220.5006929890657
 31
0.0
  0
LINE
  5
8C63
330
1F
100
AcDbEntity
  8
DETAILS
 62
     6
370
    20
100
AcDbLine
 10
-43.36646835594047
 20
219.9828061968585
 30
0.0
 11
-43.36646835594047
 21
220.5006929890671
 31
0.0
  0
ARC
  5
8C64
330
1F
100
AcDbEntity
  8
DETAILS
 62
     6
370
    20
100
AcDbCircle
 10
-43.41646835594156
 20
220.6185476826342
 30
0.0
 40
0.0935752503092939
100
AcDbArc
 50
311.7278668394936
 51
228.2721331609141
  0
ARC
  5
8C65
330
1F
100
AcDbEntity
  8
DETAILS
 62
     6
370
    20
100
AcDbCircle
 10
-43.56646835594119
 20
220.5006929890657
 30
0.0
 40
0.1
100
AcDbArc
 50
0.0
 51
28.69723935241942
  0
ARC
  5
8C66
330
1F
100
AcDbEntity
  8
DETAILS
 62
     6
370
    20
100
AcDbCircle
 10
-43.26646835594011
 20
220.5006929890671
 30
0.0
 40
0.1
100
AcDbArc
 50
151.3027606481169
 51
180.0
  0
LINE
  5
8C67
330
1F
100
AcDbEntity
  8
DETAILS
 62
     6
370
    20
100
AcDbLine
 10
-42.66646835593792
 20
219.9828061968585
 30
0.0
 11
-42.66646835593974
 21
220.5006929890657
 31
0.0
  0
LINE
  5
8C68
330
1F
100
AcDbEntity
  8
DETAILS
 62
     6
370
    20
100
AcDbLine
 10
-42.56646835593937
 20
219.9828061968585
 30
0.0
 11
-42.56646835593937
 21
220.5006929890667
 31
0.0
  0
ARC
  5
8C69
330
1F
100
AcDbEntity
  8
DETAILS
 62
     6
370
    20
100
AcDbCircle
 10
-42.61646835593865
 20
220.6185476826338
 30
0.0
 40
0.0935752503091666
100
AcDbArc
 50
311.7278668395668
 51
228.2721331606188
  0
ARC
  5
8C6A
330
1F
100
AcDbEntity
  8
DETAILS
 62
     6
370
    20
100
AcDbCircle
 10
-42.7664683559401
 20
220.5006929890657
 30
0.0
 40
0.1
100
AcDbArc
 50
0.0
 51
28.69723935241942
  0
ARC
  5
8C6B
330
1F
100
AcDbEntity
  8
DETAILS
 62
     6
370
    20
100
AcDbCircle
 10
-42.46646835593901
 20
220.5006929890667
 30
0.0
 40
0.1
100
AcDbArc
 50
151.3027606481169
 51
180.0
  0
LINE
  5
8C6C
330
1F
100
AcDbEntity
  8
DETAILS
 62
     6
370
    20
100
AcDbLine
 10
-41.86646835593864
 20
220.712122932943
 30
0.0
 11
-41.0164683559401
 21
220.712122932943
 31
0.0
  0
ARC
  5
8C6D
330
1F
100
AcDbEntity
  8
DETAILS
 62
     6
370
    20
100
AcDbCircle
 10
-44.15398135494115
 20
220.6210837563537
 30
0.0
 40
0.091207026586975
100
AcDbArc
 50
307.486330369094
 51
93.47656839120476
  0
ARC
  5
8C6E
330
1F
100
AcDbEntity
  8
DETAILS
 62
     6
370
    20
100
AcDbCircle
 10
-41.86646835593864
 20
220.6185476826338
 30
0.0
 40
0.0935752503091878
100
AcDbArc
 50
90.0
 51
228.2720386612375
  0
LINE
  5
8C6F
330
1F
100
AcDbEntity
  8
DETAILS
 62
     6
370
    20
100
AcDbLine
 10
-44.14845052997452
 20
220.712122932943
 30
0.0
 11
-45.0164683559401
 21
220.712122932943
 31
0.0
  0
LINE
  5
8C70
330
1F
100
AcDbEntity
  8
DETAILS
 62
     6
370
    20
100
AcDbLine
 10
-44.21646835594083
 20
220.5871229329429
 30
0.0
 11
-45.0164683559401
 21
220.5871229329429
 31
0.0
  0
LINE
  5
8C71
330
1F
100
AcDbEntity
  8
DETAILS
 62
     6
370
    20
100
AcDbLine
 10
-41.81646835593937
 20
220.5871229329429
 30
0.0
 11
-41.0164683559401
 21
220.5871229329429
 31
0.0
  0
LINE
  5
8C72
330
1F
100
AcDbEntity
  8
DETAILS
 62
     6
370
    20
100
AcDbLine
 10
-41.96646835593901
 20
219.9328061968583
 30
0.0
 11
-42.5164683559401
 21
219.9328061968587
 31
0.0
  0
LINE
  5
8C73
330
1F
100
AcDbEntity
  8
DETAILS
 62
     6
370
    20
100
AcDbLine
 10
-42.71646835593901
 20
219.9328061968587
 30
0.0
 11
-43.3164683559412
 21
219.9328061968587
 31
0.0
  0
LINE
  5
8C74
330
1F
100
AcDbEntity
  8
DETAILS
 62
     6
370
    20
100
AcDbLine
 10
-43.5164683559401
 20
219.9328061968587
 30
0.0
 11
-44.06646835594119
 21
219.9328061968587
 31
0.0
  0
LINE
  5
8C75
330
1F
100
AcDbEntity
  8
DETAILS
 62
     6
370
    20
100
AcDbLine
 10
-44.26646835594192
 20
219.9328061968587
 30
0.0
 11
-45.0164683559401
 21
219.9328061968587
 31
0.0
  0
ARC
  5
8C76
330
1F
100
AcDbEntity
  8
DETAILS
 62
     6
370
    20
100
AcDbCircle
 10
-44.26646835594192
 20
219.9828061968589
 30
0.0
 40
0.05
100
AcDbArc
 50
270.0
 51
0.0
  0
ARC
  5
8C77
330
1F
100
AcDbEntity
  8
DETAILS
 62
     6
370
    20
100
AcDbCircle
 10
-44.06646835594119
 20
219.9828061968589
 30
0.0
 40
0.05
100
AcDbArc
 50
180.0
 51
270.0
  0
ARC
  5
8C78
330
1F
100
AcDbEntity
  8
DETAILS
 62
     6
370
    20
100
AcDbCircle
 10
-43.5164683559401
 20
219.9828061968585
 30
0.0
 40
0.05
100
AcDbArc
 50
270.0
 51
0.0
  0
ARC
  5
8C79
330
1F
100
AcDbEntity
  8
DETAILS
 62
     6
370
    20
100
AcDbCircle
 10
-43.3164683559412
 20
219.9828061968585
 30
0.0
 40
0.05
100
AcDbArc
 50
180.0
 51
270.0
  0
ARC
  5
8C7A
330
1F
100
AcDbEntity
  8
DETAILS
 62
     6
370
    20
100
AcDbCircle
 10
-42.71646835593901
 20
219.9828061968585
 30
0.0
 40
0.05
100
AcDbArc
 50
270.0
 51
0.0
  0
ARC
  5
8C7B
330
1F
100
AcDbEntity
  8
DETAILS
 62
     6
370
    20
100
AcDbCircle
 10
-42.5164683559401
 20
219.9828061968585
 30
0.0
 40
0.05
100
AcDbArc
 50
180.0
 51
270.0
  0
ARC
  5
8C7C
330
1F
100
AcDbEntity
  8
DETAILS
 62
     6
370
    20
100
AcDbCircle
 10
-41.96646835593901
 20
219.9828061968585
 30
0.0
 40
0.05
100
AcDbArc
 50
270.0
 51
0.0
  0
ARC
  5
8C7D
330
1F
100
AcDbEntity
  8
DETAILS
 62
     6
370
    20
100
AcDbCircle
 10
-41.7664683559401
 20
219.9828061968585
 30
0.0
 40
0.05
100
AcDbArc
 50
179.9999999999479
 51
270.0
  0
LINE
  5
8C7E
330
1F
100
AcDbEntity
  8
DETAILS
 62
     6
370
    20
100
AcDbLine
 10
-45.0164683559401
 20
219.9328061968587
 30
0.0
 11
-41.0164683559401
 21
219.9328061968587
 31
0.0
  0
LINE
  5
8C7F
330
1F
100
AcDbEntity
  8
DETAILS
 62
     6
370
    20
100
AcDbLine
 10
-44.26646835594192
 20
219.9328061968587
 30
0.0
 11
-44.06646835594119
 21
219.9328061968587
 31
0.0
  0
LINE
  5
8C80
330
1F
100
AcDbEntity
  8
DETAILS
 62
     6
370
    20
100
AcDbLine
 10
-43.5164683559401
 20
219.9328061968587
 30
0.0
 11
-43.3164683559412
 21
219.9328061968587
 31
0.0
  0
LINE
  5
8C81
330
1F
100
AcDbEntity
  8
DETAILS
 62
     6
370
    20
100
AcDbLine
 10
-42.71646835593901
 20
219.9328061968587
 30
0.0
 11
-42.5164683559401
 21
219.9328061968587
 31
0.0
  0
LINE
  5
8C82
330
1F
100
AcDbEntity
  8
DETAILS
 62
     6
370
    20
100
AcDbLine
 10
-41.96646835593901
 20
219.9328061968587
 30
0.0
 11
-41.7664683559401
 21
219.9328061968587
 31
0.0
  0
LINE
  5
8C83
330
1F
100
AcDbEntity
  8
DETAILS
 62
     6
370
    20
100
AcDbLine
 10
-44.21646835594083
 20
214.9128061968588
 30
0.0
 11
-44.11646835594047
 21
214.9128061968588
 31
0.0
  0
LINE
  5
8C84
330
1F
100
AcDbEntity
  8
DETAILS
 62
     6
370
    20
100
AcDbLine
 10
-44.14685674137262
 20
214.1988838741561
 30
0.0
 11
-44.11646835594047
 21
214.4328061968588
 31
0.0
  0
LINE
  5
8C85
330
1F
100
AcDbEntity
  8
DETAILS
 62
     6
370
    20
100
AcDbLine
 10
-44.18607996840046
 20
214.1988838741565
 30
0.0
 11
-44.21646835594083
 21
214.4328061968588
 31
0.0
  0
ARC
  5
8C86
330
1F
100
AcDbEntity
  8
DETAILS
 62
     6
370
    20
100
AcDbCircle
 10
-44.16646835488655
 20
214.2028061968587
 30
0.0
 40
0.02
100
AcDbArc
 50
191.3099324739694
 51
348.6900675259442
  0
LINE
  5
8C87
330
1F
100
AcDbEntity
  8
DETAILS
 62
     6
370
    20
100
AcDbLine
 10
-43.39685674242582
 20
214.1988838741561
 30
0.0
 11
-43.36646835699366
 21
214.4328061968588
 31
0.0
  0
LINE
  5
8C88
330
1F
100
AcDbEntity
  8
DETAILS
 62
     6
370
    20
100
AcDbLine
 10
-43.43607996945365
 20
214.1988838741565
 30
0.0
 11
-43.46646835699402
 21
214.4328061968588
 31
0.0
  0
ARC
  5
8C89
330
1F
100
AcDbEntity
  8
DETAILS
 62
     6
370
    20
100
AcDbCircle
 10
-43.41646835593974
 20
214.2028061968587
 30
0.0
 40
0.02
100
AcDbArc
 50
191.3099324739694
 51
348.6900675259442
  0
LINE
  5
8C8A
330
1F
100
AcDbEntity
  8
DETAILS
 62
     6
370
    20
100
AcDbLine
 10
-42.59685674242473
 20
214.1988838741561
 30
0.0
 11
-42.56646835699257
 21
214.4328061968588
 31
0.0
  0
LINE
  5
8C8B
330
1F
100
AcDbEntity
  8
DETAILS
 62
     6
370
    20
100
AcDbLine
 10
-42.63607996945256
 20
214.1988838741565
 30
0.0
 11
-42.66646835699293
 21
214.4328061968588
 31
0.0
  0
ARC
  5
8C8C
330
1F
100
AcDbEntity
  8
DETAILS
 62
     6
370
    20
100
AcDbCircle
 10
-42.61646835593865
 20
214.2028061968587
 30
0.0
 40
0.02
100
AcDbArc
 50
191.3099324739694
 51
348.6900675259442
  0
LINE
  5
8C8D
330
1F
100
AcDbEntity
  8
DETAILS
 62
     6
370
    20
100
AcDbLine
 10
-41.84685674242473
 20
214.1988838741561
 30
0.0
 11
-41.81646835699257
 21
214.4328061968588
 31
0.0
  0
LINE
  5
8C8E
330
1F
100
AcDbEntity
  8
DETAILS
 62
     6
370
    20
100
AcDbLine
 10
-41.88607996945257
 20
214.1988838741565
 30
0.0
 11
-41.91646835699294
 21
214.4328061968588
 31
0.0
  0
ARC
  5
8C8F
330
1F
100
AcDbEntity
  8
DETAILS
 62
     6
370
    20
100
AcDbCircle
 10
-41.86646835593864
 20
214.2028061968587
 30
0.0
 40
0.02
100
AcDbArc
 50
191.3099324739694
 51
348.6900675259442
  0
LINE
  5
8C90
330
1F
100
AcDbEntity
  8
DETAILS
 62
     6
370
    20
100
AcDbLine
 10
-44.47646835594286
 20
214.4328061968588
 30
0.0
 11
-45.0164683559401
 21
213.9122907329426
 31
0.0
  0
LINE
  5
8C91
330
1F
100
AcDbEntity
  8
DETAILS
 62
     6
370
    20
100
AcDbLine
 10
-41.57646835593959
 20
214.4328061968583
 30
0.0
 11
-41.0164683559401
 21
213.8985204825719
 31
0.0
  0
LINE
  5
8C92
330
1F
100
AcDbEntity
  8
DETAILS
 62
     6
370
    20
100
AcDbLine
 10
-41.56646835593938
 20
219.9328061968587
 30
0.0
 11
-41.0164683559401
 21
220.4630626071145
 31
0.0
  0
LINE
  5
8C93
330
1F
100
AcDbEntity
  8
DETAILS
 62
     6
370
    20
100
AcDbLine
 10
-44.46646835594083
 20
219.9328061968587
 30
0.0
 11
-45.01646835593828
 21
220.4630626071137
 31
0.0
  0
LINE
  5
8C94
330
1F
100
AcDbEntity
  8
0
  6
HIDDEN
 62
     1
 48
0.02
100
AcDbLine
 10
-46.66646835593792
 20
211.4328061968588
 30
0.0
 11
-46.04146835593792
 21
211.4328061968588
 31
0.0
  0
LINE
  5
8C95
330
1F
100
AcDbEntity
  8
0
  6
HIDDEN
 62
     1
 48
0.02
100
AcDbLine
 10
-45.6414683559401
 20
211.4328061968588
 30
0.0
 11
-45.6414683559401
 21
210.9328061968588
 31
0.0
  0
LINE
  5
8C96
330
1F
100
AcDbEntity
  8
0
  6
HIDDEN
 62
     1
 48
0.02
100
AcDbLine
 10
-46.04146835593792
 20
211.4328061968588
 30
0.0
 11
-46.04146835593792
 21
210.9328061968588
 31
0.0
  0
LINE
  5
8C97
330
1F
100
AcDbEntity
  8
0
  6
HIDDEN
 62
     1
 48
0.02
100
AcDbLine
 10
-45.6414683559401
 20
211.4328061968588
 30
0.0
 11
-45.0164683559401
 21
211.4328061968588
 31
0.0
  0
LINE
  5
8C98
330
1F
100
AcDbEntity
  8
0
  6
HIDDEN
 62
     1
 48
0.02
100
AcDbLine
 10
-39.36646835593865
 20
211.4328061968588
 30
0.0
 11
-39.36646835593865
 21
210.9328061968588
 31
0.0
  0
LINE
  5
8C99
330
1F
100
AcDbEntity
  8
0
  6
HIDDEN
 62
     1
 48
0.02
100
AcDbLine
 10
-40.39146835593828
 20
211.4328061968588
 30
0.0
 11
-40.39146835593828
 21
210.9328061968588
 31
0.0
  0
LINE
  5
8C9A
330
1F
100
AcDbEntity
  8
0
  6
HIDDEN
 62
     1
 48
0.02
100
AcDbLine
 10
-39.99146835593865
 20
211.4328061968588
 30
0.0
 11
-39.99146835593865
 21
210.9328061968588
 31
0.0
  0
LINE
  5
8C9B
330
1F
100
AcDbEntity
  8
0
  6
HIDDEN
 62
     1
 48
0.02
100
AcDbLine
 10
-41.01646835593828
 20
211.4328061968588
 30
0.0
 11
-40.39146835593828
 21
211.4328061968588
 31
0.0
  0
LINE
  5
8C9C
330
1F
100
AcDbEntity
  8
0
  6
HIDDEN
 62
     1
 48
0.02
100
AcDbLine
 10
-39.99146835593865
 20
211.4328061968588
 30
0.0
 11
-39.36646835593865
 21
211.4328061968588
 31
0.0
  0
LINE
  5
8C9D
330
1F
100
AcDbEntity
  8
0
  6
HIDDEN
 62
     1
 48
0.02
100
AcDbLine
 10
-40.56646835593755
 20
211.1828061968588
 30
0.0
 11
-40.56646835593755
 21
210.9328061968588
 31
0.0
  0
LINE
  5
8C9E
330
1F
100
AcDbEntity
  8
0
  6
HIDDEN
 62
     1
 48
0.02
100
AcDbLine
 10
-40.81646835593756
 20
211.1828061968588
 30
0.0
 11
-40.56646835593755
 21
211.1828061968588
 31
0.0
  0
LINE
  5
8C9F
330
1F
100
AcDbEntity
  8
0
 62
     1
100
AcDbLine
 10
-47.01646835593737
 20
236.1227358589587
 30
0.0
 11
-47.01646835593829
 21
222.9328061968588
 31
0.0
  0
LINE
  5
8CA0
330
1F
100
AcDbEntity
  8
0
 62
     1
100
AcDbLine
 10
-39.01646835593829
 20
238.6862042879918
 30
0.0
 11
-39.01646835593829
 21
222.9328061968588
 31
0.0
  0
LINE
  5
8CA1
330
1F
100
AcDbEntity
  8
0
 62
     1
100
AcDbLine
 10
-47.01646835593829
 20
234.9328061968588
 30
0.0
 11
-45.46646835593901
 21
234.9328061968588
 31
0.0
  0
LINE
  5
8CA2
330
1F
100
AcDbEntity
  8
0
 62
     1
100
AcDbLine
 10
-47.01646835593829
 20
222.9328061968588
 30
0.0
 11
-45.0164683559401
 21
222.9328061968588
 31
0.0
  0
LINE
  5
8CA3
330
1F
100
AcDbEntity
  8
0
 62
     1
100
AcDbLine
 10
-45.0164683559401
 20
236.8010211128564
 30
0.0
 11
-45.01646835593828
 21
222.9328061968588
 31
0.0
  0
LINE
  5
8CA4
330
1F
100
AcDbEntity
  8
0
 62
     1
100
AcDbLine
 10
-41.01646835594102
 20
238.0603218335138
 30
0.0
 11
-41.01646835593828
 21
222.9328061968588
 31
0.0
  0
LINE
  5
8CA5
330
1F
100
AcDbEntity
  8
0
 62
     1
100
AcDbLine
 10
-46.66646835593792
 20
235.4328061968588
 30
0.0
 11
-46.04146835593792
 21
235.4328061968588
 31
0.0
  0
LINE
  5
8CA6
330
1F
100
AcDbEntity
  8
0
 62
     1
100
AcDbLine
 10
-46.66646835593792
 20
236.2414357783916
 30
0.0
 11
-46.66646835593792
 21
222.9328061968588
 31
0.0
  0
LINE
  5
8CA7
330
1F
100
AcDbEntity
  8
0
 62
     1
100
AcDbLine
 10
-39.36646835593865
 20
235.4328061968588
 30
0.0
 11
-39.36646835593865
 21
234.9328061968588
 31
0.0
  0
LINE
  5
8CA8
330
1F
100
AcDbEntity
  8
0
 62
     1
100
AcDbLine
 10
-45.6414683559401
 20
235.4328061968588
 30
0.0
 11
-45.6414683559401
 21
234.9328061968588
 31
0.0
  0
LINE
  5
8CA9
330
1F
100
AcDbEntity
  8
0
 62
     1
100
AcDbLine
 10
-46.04146835593792
 20
235.4328061968588
 30
0.0
 11
-46.04146835593792
 21
234.9328061968588
 31
0.0
  0
LINE
  5
8CAA
330
1F
100
AcDbEntity
  8
0
 62
     1
100
AcDbLine
 10
-40.3914683559401
 20
235.4328061968588
 30
0.0
 11
-40.3914683559401
 21
234.9328061968588
 31
0.0
  0
LINE
  5
8CAB
330
1F
100
AcDbEntity
  8
0
 62
     1
100
AcDbLine
 10
-39.99146835593865
 20
235.4328061968588
 30
0.0
 11
-39.99146835593865
 21
234.9328061968588
 31
0.0
  0
LINE
  5
8CAC
330
1F
100
AcDbEntity
  8
0
 62
     1
100
AcDbLine
 10
-41.0164683559401
 20
235.4328061968588
 30
0.0
 11
-40.3914683559401
 21
235.4328061968588
 31
0.0
  0
LINE
  5
8CAD
330
1F
100
AcDbEntity
  8
0
 62
     1
100
AcDbLine
 10
-39.99146835593865
 20
235.4328061968588
 30
0.0
 11
-39.36646835593865
 21
235.4328061968588
 31
0.0
  0
LINE
  5
8CAE
330
1F
100
AcDbEntity
  8
0
 62
     1
100
AcDbLine
 10
-45.6414683559401
 20
235.4328061968588
 30
0.0
 11
-45.0164683559401
 21
235.4328061968588
 31
0.0
  0
LINE
  5
8CAF
330
1F
100
AcDbEntity
  8
0
 62
     1
100
AcDbLine
 10
-45.2164683559372
 20
236.7331925874666
 30
0.0
 11
-45.21646835593901
 21
222.9328061968588
 31
0.0
  0
LINE
  5
8CB0
330
1F
100
AcDbEntity
  8
0
 62
     1
100
AcDbLine
 10
-40.81646835593846
 20
238.1229100789626
 30
0.0
 11
-40.81646835593938
 21
222.9328061968588
 31
0.0
  0
LINE
  5
8CB1
330
1F
100
AcDbEntity
  8
0
 62
     1
100
AcDbLine
 10
-45.46646835593901
 20
235.1828061968588
 30
0.0
 11
-45.46646835593901
 21
234.9328061968588
 31
0.0
  0
LINE
  5
8CB2
330
1F
100
AcDbEntity
  8
0
 62
     1
100
AcDbLine
 10
-40.56646835593937
 20
235.1828061968588
 30
0.0
 11
-40.56646835593937
 21
234.9328061968588
 31
0.0
  0
LINE
  5
8CB3
330
1F
100
AcDbEntity
  8
0
 62
     1
100
AcDbLine
 10
-45.46646835593901
 20
235.1828061968588
 30
0.0
 11
-45.21646835593901
 21
235.1828061968588
 31
0.0
  0
LINE
  5
8CB4
330
1F
100
AcDbEntity
  8
0
 62
     1
100
AcDbLine
 10
-40.81646835593938
 20
235.1828061968588
 30
0.0
 11
-40.56646835593937
 21
235.1828061968588
 31
0.0
  0
LINE
  5
8CB5
330
1F
100
AcDbEntity
  8
0
 62
     1
100
AcDbLine
 10
-40.60146835593923
 20
234.9328061968588
 30
0.0
 11
-39.01646835593829
 21
234.9328061968588
 31
0.0
  0
LINE
  5
8CB6
330
1F
100
AcDbEntity
  8
0
 62
     1
100
AcDbLine
 10
-45.21646835593901
 20
234.9328061968588
 30
0.0
 11
-45.0164683559401
 21
234.9328061968588
 31
0.0
  0
LINE
  5
8CB7
330
1F
100
AcDbEntity
  8
0
 62
     1
100
AcDbLine
 10
-40.60146835593832
 20
238.1901924428182
 30
0.0
 11
-40.60146835593923
 21
222.9328061968588
 31
0.0
  0
LINE
  5
8CB8
330
1F
100
AcDbEntity
  8
0
 62
     1
100
AcDbLine
 10
-39.78146835593861
 20
238.4468042491541
 30
0.0
 11
-39.78146835593952
 21
222.9328061968588
 31
0.0
  0
LINE
  5
8CB9
330
1F
100
AcDbEntity
  8
A2 Hatch
  6
DASHED2
 48
0.15
100
AcDbLine
 10
-40.44146835593937
 20
238.2402630391759
 30
0.0
 11
-40.44146835593937
 21
222.9328061968588
 31
0.0
  0
LINE
  5
8CBA
330
1F
100
AcDbEntity
  8
A2 Hatch
  6
DASHED2
 48
0.15
100
AcDbLine
 10
-39.94146835593938
 20
238.396733652796
 30
0.0
 11
-39.94146835593938
 21
222.9328061968588
 31
0.0
  0
LINE
  5
8CBB
330
1F
100
AcDbEntity
  8
0
 48
0.15
100
AcDbLine
 10
-46.04146835593792
 20
234.9328061968588
 30
0.0
 11
-45.6414683559401
 21
234.9328061968588
 31
0.0
  0
LINE
  5
8CBC
330
1F
100
AcDbEntity
  8
A2 Hatch
  6
DASHED2
 48
0.15
100
AcDbLine
 10
-46.25146835593887
 20
236.3821799685749
 30
0.0
 11
-46.25146835593887
 21
222.9328061968588
 31
0.0
  0
LINE
  5
8CBD
330
1F
100
AcDbEntity
  8
A2 Hatch
  6
DASHED2
 48
0.15
100
AcDbLine
 10
-45.43146835593915
 20
236.6602769226727
 30
0.0
 11
-45.43146835593915
 21
222.9328061968588
 31
0.0
  0
LINE
  5
8CBE
330
1F
100
AcDbEntity
  8
0
 62
     1
100
AcDbLine
 10
-46.09146835593901
 20
236.4364427888865
 30
0.0
 11
-46.09146835593901
 21
222.9328061968588
 31
0.0
  0
LINE
  5
8CBF
330
1F
100
AcDbEntity
  8
0
 62
     1
100
AcDbLine
 10
-45.59146835593992
 20
236.6060141023611
 30
0.0
 11
-45.59146835593901
 21
222.9328061968588
 31
0.0
  0
LINE
  5
8CC0
330
1F
100
AcDbEntity
  8
0
 62
     1
100
AcDbLine
 10
-45.59146835593901
 20
234.9328061968588
 30
0.0
 11
-46.09146835593901
 21
234.9328061968588
 31
0.0
  0
LINE
  5
8CC1
330
1F
100
AcDbEntity
  8
0
 62
     1
100
AcDbLine
 10
-41.0164683559401
 20
234.9328061968588
 30
0.0
 11
-40.81646835593938
 21
234.9328061968588
 31
0.0
  0
LINE
  5
8CC2
330
1F
100
AcDbEntity
  8
0
 62
     1
100
AcDbLine
 10
-41.01646835593828
 20
222.9328061968588
 30
0.0
 11
-39.01646835593829
 21
222.9328061968588
 31
0.0
  0
LINE
  5
8CC3
330
1F
100
AcDbEntity
  8
DETAILS
 62
     6
370
    20
100
AcDbLine
 10
-41.0164683559401
 20
226.9128061968588
 30
0.0
 11
-45.0164683559401
 21
226.9128061968588
 31
0.0
  0
LINE
  5
8CC4
330
1F
100
AcDbEntity
  8
DETAILS
 62
     6
370
    20
100
AcDbLine
 10
-41.0164683559401
 20
231.4528061968587
 30
0.0
 11
-45.0164683559401
 21
231.4528061968587
 31
0.0
  0
LINE
  5
8CC5
330
1F
100
AcDbEntity
  8
DETAILS
 62
     6
370
    20
100
AcDbLine
 10
-41.0164683559401
 20
226.4328061968583
 30
0.0
 11
-45.0164683559401
 21
226.4328061968587
 31
0.0
  0
LINE
  5
8CC6
330
1F
100
AcDbEntity
  8
DETAILS
 62
     6
370
    20
100
AcDbLine
 10
-41.0164683559401
 20
226.5228061968584
 30
0.0
 11
-45.0164683559401
 21
226.5228061968589
 31
0.0
  0
LINE
  5
8CC7
330
1F
100
AcDbEntity
  8
DETAILS
 62
     6
370
    20
100
AcDbLine
 10
-41.0164683559401
 20
226.8228061968586
 30
0.0
 11
-45.0164683559401
 21
226.8228061968586
 31
0.0
  0
LINE
  5
8CC8
330
1F
100
AcDbEntity
  8
DETAILS
 62
     6
370
    20
100
AcDbLine
 10
-41.0164683559401
 20
231.542806196858
 30
0.0
 11
-45.0164683559401
 21
231.5428061968589
 31
0.0
  0
LINE
  5
8CC9
330
1F
100
AcDbEntity
  8
DETAILS
 62
     6
370
    20
100
AcDbLine
 10
-41.0164683559401
 20
231.8428061968582
 30
0.0
 11
-45.0164683559401
 21
231.8428061968586
 31
0.0
  0
LINE
  5
8CCA
330
1F
100
AcDbEntity
  8
DETAILS
 62
     6
370
    20
100
AcDbLine
 10
-44.82646835594141
 20
226.9128061968588
 30
0.0
 11
-44.47646835594286
 21
226.9128061968588
 31
0.0
  0
LINE
  5
8CCB
330
1F
100
AcDbEntity
  8
DETAILS
 62
     6
370
    20
100
AcDbLine
 10
-41.57646835594142
 20
226.9128061968588
 30
0.0
 11
-41.3143363215845
 21
227.1749382312116
 31
0.0
  0
LINE
  5
8CCC
330
1F
100
AcDbEntity
  8
DETAILS
 62
     6
370
    20
100
AcDbLine
 10
-44.47646835594286
 20
226.9128061968588
 30
0.0
 11
-44.73860039029796
 21
227.1749382312175
 31
0.0
  0
LINE
  5
8CCD
330
1F
100
AcDbEntity
  8
DETAILS
 62
     6
370
    20
100
AcDbLine
 10
-41.56646835593938
 20
231.4528061968587
 30
0.0
 11
-41.3143363215845
 21
231.2006741625021
 31
0.0
  0
LINE
  5
8CCE
330
1F
100
AcDbEntity
  8
DETAILS
 62
     6
370
    20
100
AcDbLine
 10
-44.46646835594083
 20
231.4528061968587
 30
0.0
 11
-44.73860039029614
 21
231.1806741625066
 31
0.0
  0
LINE
  5
8CCF
330
1F
100
AcDbEntity
  8
DETAILS
 62
     6
370
    20
100
AcDbLine
 10
-41.22646835593923
 20
227.3870702655683
 30
0.0
 11
-41.22646835594105
 21
230.9885421281471
 31
0.0
  0
LINE
  5
8CD0
330
1F
100
AcDbEntity
  8
DETAILS
 62
     6
370
    20
100
AcDbLine
 10
-44.82646835594141
 20
227.3870702655724
 30
0.0
 11
-44.82646835594141
 21
230.9685421281495
 31
0.0
  0
ARC
  5
8CD1
330
1F
100
AcDbEntity
  8
DETAILS
 62
     6
370
    20
100
AcDbCircle
 10
-41.52646835594032
 20
227.3870702655683
 30
0.0
 40
0.3
100
AcDbArc
 50
314.9999999997973
 51
0.0
  0
ARC
  5
8CD2
330
1F
100
AcDbEntity
  8
DETAILS
 62
     6
370
    20
100
AcDbCircle
 10
-44.52646835594032
 20
227.387070265572
 30
0.0
 40
0.3
100
AcDbArc
 50
180.0
 51
224.9999999996868
  0
ARC
  5
8CD3
330
1F
100
AcDbEntity
  8
DETAILS
 62
     6
370
    20
100
AcDbCircle
 10
-41.52646835594032
 20
230.9885421281467
 30
0.0
 40
0.3
100
AcDbArc
 50
0.0000000000260551
 51
44.99999999970522
  0
ARC
  5
8CD4
330
1F
100
AcDbEntity
  8
DETAILS
 62
     6
370
    20
100
AcDbCircle
 10
-44.52646835594032
 20
230.968542128149
 30
0.0
 40
0.3
100
AcDbArc
 50
134.9999999997052
 51
180.0
  0
LINE
  5
8CD5
330
1F
100
AcDbEntity
  8
DETAILS
 62
     6
370
    20
100
AcDbLine
 10
-45.0164683559401
 20
231.9328061968588
 30
0.0
 11
-44.46646835594083
 21
231.9328061968588
 31
0.0
  0
LINE
  5
8CD6
330
1F
100
AcDbEntity
  8
DETAILS
 62
     6
370
    20
100
AcDbLine
 10
-44.21646835594083
 20
231.982806196859
 30
0.0
 11
-44.21646835594083
 21
232.5871229329429
 31
0.0
  0
LINE
  5
8CD7
330
1F
100
AcDbEntity
  8
DETAILS
 62
     6
370
    20
100
AcDbLine
 10
-44.11646835594047
 20
231.982806196859
 30
0.0
 11
-44.11646835594047
 21
232.5006929890671
 31
0.0
  0
ARC
  5
8CD8
330
1F
100
AcDbEntity
  8
DETAILS
 62
     6
370
    20
100
AcDbCircle
 10
-44.05471069716123
 20
232.5049317244168
 30
0.0
 40
0.0619029506189981
100
AcDbArc
 50
134.9903235096033
 51
183.9263367617324
  0
LINE
  5
8CD9
330
1F
100
AcDbEntity
  8
DETAILS
 62
     6
370
    20
100
AcDbLine
 10
-41.7664683559401
 20
231.9328061968583
 30
0.0
 11
-41.56646835593938
 21
231.9328061968583
 31
0.0
  0
LINE
  5
8CDA
330
1F
100
AcDbEntity
  8
DETAILS
 62
     6
370
    20
100
AcDbLine
 10
-41.81646835593937
 20
231.9828061968585
 30
0.0
 11
-41.81646835593937
 21
232.5871229329429
 31
0.0
  0
LINE
  5
8CDB
330
1F
100
AcDbEntity
  8
DETAILS
 62
     6
370
    20
100
AcDbLine
 10
-41.91646835593973
 20
231.9828061968585
 30
0.0
 11
-41.91646835593973
 21
232.5006929890667
 31
0.0
  0
ARC
  5
8CDC
330
1F
100
AcDbEntity
  8
DETAILS
 62
     6
370
    20
100
AcDbCircle
 10
-42.02872418794004
 20
232.4975579367226
 30
0.0
 40
0.1122996009395304
100
AcDbArc
 50
1.599726146932392
 51
27.09751498394456
  0
LINE
  5
8CDD
330
1F
100
AcDbEntity
  8
DETAILS
 62
     6
370
    20
100
AcDbLine
 10
-43.46646835594083
 20
231.9828061968585
 30
0.0
 11
-43.46646835594083
 21
232.5006929890657
 31
0.0
  0
LINE
  5
8CDE
330
1F
100
AcDbEntity
  8
DETAILS
 62
     6
370
    20
100
AcDbLine
 10
-43.36646835594047
 20
231.9828061968585
 30
0.0
 11
-43.36646835594047
 21
232.5006929890671
 31
0.0
  0
ARC
  5
8CDF
330
1F
100
AcDbEntity
  8
DETAILS
 62
     6
370
    20
100
AcDbCircle
 10
-43.41646835594156
 20
232.6185476826342
 30
0.0
 40
0.0935752503092939
100
AcDbArc
 50
311.7278668394936
 51
228.2721331609141
  0
ARC
  5
8CE0
330
1F
100
AcDbEntity
  8
DETAILS
 62
     6
370
    20
100
AcDbCircle
 10
-43.56646835594119
 20
232.5006929890657
 30
0.0
 40
0.1
100
AcDbArc
 50
0.0
 51
28.69723935241942
  0
ARC
  5
8CE1
330
1F
100
AcDbEntity
  8
DETAILS
 62
     6
370
    20
100
AcDbCircle
 10
-43.26646835594011
 20
232.5006929890671
 30
0.0
 40
0.1
100
AcDbArc
 50
151.3027606481169
 51
180.0
  0
LINE
  5
8CE2
330
1F
100
AcDbEntity
  8
DETAILS
 62
     6
370
    20
100
AcDbLine
 10
-42.66646835593792
 20
231.9828061968585
 30
0.0
 11
-42.66646835593974
 21
232.5006929890657
 31
0.0
  0
LINE
  5
8CE3
330
1F
100
AcDbEntity
  8
DETAILS
 62
     6
370
    20
100
AcDbLine
 10
-42.56646835593937
 20
231.9828061968585
 30
0.0
 11
-42.56646835593937
 21
232.5006929890667
 31
0.0
  0
ARC
  5
8CE4
330
1F
100
AcDbEntity
  8
DETAILS
 62
     6
370
    20
100
AcDbCircle
 10
-42.61646835593865
 20
232.6185476826338
 30
0.0
 40
0.0935752503091666
100
AcDbArc
 50
311.7278668395668
 51
228.2721331606188
  0
ARC
  5
8CE5
330
1F
100
AcDbEntity
  8
DETAILS
 62
     6
370
    20
100
AcDbCircle
 10
-42.7664683559401
 20
232.5006929890657
 30
0.0
 40
0.1
100
AcDbArc
 50
0.0
 51
28.69723935241942
  0
ARC
  5
8CE6
330
1F
100
AcDbEntity
  8
DETAILS
 62
     6
370
    20
100
AcDbCircle
 10
-42.46646835593901
 20
232.5006929890667
 30
0.0
 40
0.1
100
AcDbArc
 50
151.3027606481169
 51
180.0
  0
LINE
  5
8CE7
330
1F
100
AcDbEntity
  8
DETAILS
 62
     6
370
    20
100
AcDbLine
 10
-41.86646835593864
 20
232.712122932943
 30
0.0
 11
-41.0164683559401
 21
232.712122932943
 31
0.0
  0
ARC
  5
8CE8
330
1F
100
AcDbEntity
  8
DETAILS
 62
     6
370
    20
100
AcDbCircle
 10
-44.15398135494115
 20
232.6210837563537
 30
0.0
 40
0.091207026586975
100
AcDbArc
 50
307.486330369094
 51
93.47656839120476
  0
ARC
  5
8CE9
330
1F
100
AcDbEntity
  8
DETAILS
 62
     6
370
    20
100
AcDbCircle
 10
-41.86646835593864
 20
232.6185476826338
 30
0.0
 40
0.0935752503091878
100
AcDbArc
 50
90.0
 51
228.2720386612375
  0
LINE
  5
8CEA
330
1F
100
AcDbEntity
  8
DETAILS
 62
     6
370
    20
100
AcDbLine
 10
-44.14845052997452
 20
232.712122932943
 30
0.0
 11
-45.0164683559401
 21
232.712122932943
 31
0.0
  0
LINE
  5
8CEB
330
1F
100
AcDbEntity
  8
DETAILS
 62
     6
370
    20
100
AcDbLine
 10
-44.21646835594083
 20
232.5871229329429
 30
0.0
 11
-45.0164683559401
 21
232.5871229329429
 31
0.0
  0
LINE
  5
8CEC
330
1F
100
AcDbEntity
  8
DETAILS
 62
     6
370
    20
100
AcDbLine
 10
-41.81646835593937
 20
232.5871229329429
 30
0.0
 11
-41.0164683559401
 21
232.5871229329429
 31
0.0
  0
LINE
  5
8CED
330
1F
100
AcDbEntity
  8
DETAILS
 62
     6
370
    20
100
AcDbLine
 10
-41.96646835593901
 20
231.9328061968583
 30
0.0
 11
-42.5164683559401
 21
231.9328061968588
 31
0.0
  0
LINE
  5
8CEE
330
1F
100
AcDbEntity
  8
DETAILS
 62
     6
370
    20
100
AcDbLine
 10
-42.71646835593901
 20
231.9328061968588
 30
0.0
 11
-43.3164683559412
 21
231.9328061968588
 31
0.0
  0
LINE
  5
8CEF
330
1F
100
AcDbEntity
  8
DETAILS
 62
     6
370
    20
100
AcDbLine
 10
-43.5164683559401
 20
231.9328061968588
 30
0.0
 11
-44.06646835594119
 21
231.9328061968588
 31
0.0
  0
LINE
  5
8CF0
330
1F
100
AcDbEntity
  8
DETAILS
 62
     6
370
    20
100
AcDbLine
 10
-44.26646835594192
 20
231.9328061968588
 30
0.0
 11
-45.0164683559401
 21
231.9328061968588
 31
0.0
  0
ARC
  5
8CF1
330
1F
100
AcDbEntity
  8
DETAILS
 62
     6
370
    20
100
AcDbCircle
 10
-44.26646835594192
 20
231.982806196859
 30
0.0
 40
0.05
100
AcDbArc
 50
270.0
 51
0.0
  0
ARC
  5
8CF2
330
1F
100
AcDbEntity
  8
DETAILS
 62
     6
370
    20
100
AcDbCircle
 10
-44.06646835594119
 20
231.982806196859
 30
0.0
 40
0.05
100
AcDbArc
 50
180.0
 51
270.0
  0
ARC
  5
8CF3
330
1F
100
AcDbEntity
  8
DETAILS
 62
     6
370
    20
100
AcDbCircle
 10
-43.5164683559401
 20
231.9828061968585
 30
0.0
 40
0.05
100
AcDbArc
 50
270.0
 51
0.0
  0
ARC
  5
8CF4
330
1F
100
AcDbEntity
  8
DETAILS
 62
     6
370
    20
100
AcDbCircle
 10
-43.3164683559412
 20
231.9828061968585
 30
0.0
 40
0.05
100
AcDbArc
 50
180.0
 51
270.0
  0
ARC
  5
8CF5
330
1F
100
AcDbEntity
  8
DETAILS
 62
     6
370
    20
100
AcDbCircle
 10
-42.71646835593901
 20
231.9828061968585
 30
0.0
 40
0.05
100
AcDbArc
 50
270.0
 51
0.0
  0
ARC
  5
8CF6
330
1F
100
AcDbEntity
  8
DETAILS
 62
     6
370
    20
100
AcDbCircle
 10
-42.5164683559401
 20
231.9828061968585
 30
0.0
 40
0.05
100
AcDbArc
 50
180.0
 51
270.0
  0
ARC
  5
8CF7
330
1F
100
AcDbEntity
  8
DETAILS
 62
     6
370
    20
100
AcDbCircle
 10
-41.96646835593901
 20
231.9828061968585
 30
0.0
 40
0.05
100
AcDbArc
 50
270.0
 51
0.0
  0
ARC
  5
8CF8
330
1F
100
AcDbEntity
  8
DETAILS
 62
     6
370
    20
100
AcDbCircle
 10
-41.7664683559401
 20
231.9828061968585
 30
0.0
 40
0.05
100
AcDbArc
 50
179.9999999999479
 51
270.0
  0
LINE
  5
8CF9
330
1F
100
AcDbEntity
  8
DETAILS
 62
     6
370
    20
100
AcDbLine
 10
-45.0164683559401
 20
231.9328061968588
 30
0.0
 11
-41.0164683559401
 21
231.9328061968588
 31
0.0
  0
LINE
  5
8CFA
330
1F
100
AcDbEntity
  8
DETAILS
 62
     6
370
    20
100
AcDbLine
 10
-44.26646835594192
 20
231.9328061968588
 30
0.0
 11
-44.06646835594119
 21
231.9328061968588
 31
0.0
  0
LINE
  5
8CFB
330
1F
100
AcDbEntity
  8
DETAILS
 62
     6
370
    20
100
AcDbLine
 10
-43.5164683559401
 20
231.9328061968588
 30
0.0
 11
-43.3164683559412
 21
231.9328061968588
 31
0.0
  0
LINE
  5
8CFC
330
1F
100
AcDbEntity
  8
DETAILS
 62
     6
370
    20
100
AcDbLine
 10
-42.71646835593901
 20
231.9328061968588
 30
0.0
 11
-42.5164683559401
 21
231.9328061968588
 31
0.0
  0
LINE
  5
8CFD
330
1F
100
AcDbEntity
  8
DETAILS
 62
     6
370
    20
100
AcDbLine
 10
-41.96646835593901
 20
231.9328061968588
 30
0.0
 11
-41.7664683559401
 21
231.9328061968588
 31
0.0
  0
LINE
  5
8CFE
330
1F
100
AcDbEntity
  8
DETAILS
 62
     6
370
    20
100
AcDbLine
 10
-44.21646835594083
 20
226.9128061968588
 30
0.0
 11
-44.11646835594047
 21
226.9128061968588
 31
0.0
  0
LINE
  5
8CFF
330
1F
100
AcDbEntity
  8
DETAILS
 62
     6
370
    20
100
AcDbLine
 10
-44.14685674137262
 20
226.1988838741561
 30
0.0
 11
-44.11646835594047
 21
226.4328061968587
 31
0.0
  0
LINE
  5
8D00
330
1F
100
AcDbEntity
  8
DETAILS
 62
     6
370
    20
100
AcDbLine
 10
-44.18607996840046
 20
226.1988838741565
 30
0.0
 11
-44.21646835594083
 21
226.4328061968587
 31
0.0
  0
ARC
  5
8D01
330
1F
100
AcDbEntity
  8
DETAILS
 62
     6
370
    20
100
AcDbCircle
 10
-44.16646835488655
 20
226.2028061968587
 30
0.0
 40
0.02
100
AcDbArc
 50
191.3099324739694
 51
348.6900675259442
  0
LINE
  5
8D02
330
1F
100
AcDbEntity
  8
DETAILS
 62
     6
370
    20
100
AcDbLine
 10
-43.39685674242582
 20
226.1988838741561
 30
0.0
 11
-43.36646835699366
 21
226.4328061968587
 31
0.0
  0
LINE
  5
8D03
330
1F
100
AcDbEntity
  8
DETAILS
 62
     6
370
    20
100
AcDbLine
 10
-43.43607996945365
 20
226.1988838741565
 30
0.0
 11
-43.46646835699402
 21
226.4328061968587
 31
0.0
  0
ARC
  5
8D04
330
1F
100
AcDbEntity
  8
DETAILS
 62
     6
370
    20
100
AcDbCircle
 10
-43.41646835593974
 20
226.2028061968587
 30
0.0
 40
0.02
100
AcDbArc
 50
191.3099324739694
 51
348.6900675259442
  0
LINE
  5
8D05
330
1F
100
AcDbEntity
  8
DETAILS
 62
     6
370
    20
100
AcDbLine
 10
-42.59685674242473
 20
226.1988838741561
 30
0.0
 11
-42.56646835699257
 21
226.4328061968587
 31
0.0
  0
LINE
  5
8D06
330
1F
100
AcDbEntity
  8
DETAILS
 62
     6
370
    20
100
AcDbLine
 10
-42.63607996945256
 20
226.1988838741565
 30
0.0
 11
-42.66646835699293
 21
226.4328061968587
 31
0.0
  0
ARC
  5
8D07
330
1F
100
AcDbEntity
  8
DETAILS
 62
     6
370
    20
100
AcDbCircle
 10
-42.61646835593865
 20
226.2028061968587
 30
0.0
 40
0.02
100
AcDbArc
 50
191.3099324739694
 51
348.6900675259442
  0
LINE
  5
8D08
330
1F
100
AcDbEntity
  8
DETAILS
 62
     6
370
    20
100
AcDbLine
 10
-41.84685674242473
 20
226.1988838741561
 30
0.0
 11
-41.81646835699257
 21
226.4328061968587
 31
0.0
  0
LINE
  5
8D09
330
1F
100
AcDbEntity
  8
DETAILS
 62
     6
370
    20
100
AcDbLine
 10
-41.88607996945257
 20
226.1988838741565
 30
0.0
 11
-41.91646835699294
 21
226.4328061968587
 31
0.0
  0
ARC
  5
8D0A
330
1F
100
AcDbEntity
  8
DETAILS
 62
     6
370
    20
100
AcDbCircle
 10
-41.86646835593864
 20
226.2028061968587
 30
0.0
 40
0.02
100
AcDbArc
 50
191.3099324739694
 51
348.6900675259442
  0
LINE
  5
8D0B
330
1F
100
AcDbEntity
  8
DETAILS
 62
     6
370
    20
100
AcDbLine
 10
-44.47646835594286
 20
226.4328061968587
 30
0.0
 11
-45.0164683559401
 21
225.9122907329426
 31
0.0
  0
LINE
  5
8D0C
330
1F
100
AcDbEntity
  8
DETAILS
 62
     6
370
    20
100
AcDbLine
 10
-41.57646835593959
 20
226.4328061968583
 30
0.0
 11
-41.0164683559401
 21
225.8985204825719
 31
0.0
  0
LINE
  5
8D0D
330
1F
100
AcDbEntity
  8
DETAILS
 62
     6
370
    20
100
AcDbLine
 10
-41.56646835593938
 20
231.9328061968588
 30
0.0
 11
-41.0164683559401
 21
232.4630626071146
 31
0.0
  0
LINE
  5
8D0E
330
1F
100
AcDbEntity
  8
DETAILS
 62
     6
370
    20
100
AcDbLine
 10
-44.46646835594083
 20
231.9328061968588
 30
0.0
 11
-45.01646835593828
 21
232.4630626071137
 31
0.0
  0
LINE
  5
8D0F
330
1F
100
AcDbEntity
  8
0
  6
HIDDEN
 62
     1
 48
0.02
100
AcDbLine
 10
-46.66646835593792
 20
223.4328061968588
 30
0.0
 11
-46.04146835593792
 21
223.4328061968588
 31
0.0
  0
LINE
  5
8D10
330
1F
100
AcDbEntity
  8
0
  6
HIDDEN
 62
     1
 48
0.02
100
AcDbLine
 10
-45.6414683559401
 20
223.4328061968588
 30
0.0
 11
-45.6414683559401
 21
222.9328061968588
 31
0.0
  0
LINE
  5
8D11
330
1F
100
AcDbEntity
  8
0
  6
HIDDEN
 62
     1
 48
0.02
100
AcDbLine
 10
-46.04146835593792
 20
223.4328061968588
 30
0.0
 11
-46.04146835593792
 21
222.9328061968588
 31
0.0
  0
LINE
  5
8D12
330
1F
100
AcDbEntity
  8
0
  6
HIDDEN
 62
     1
 48
0.02
100
AcDbLine
 10
-45.6414683559401
 20
223.4328061968588
 30
0.0
 11
-45.0164683559401
 21
223.4328061968588
 31
0.0
  0
LINE
  5
8D13
330
1F
100
AcDbEntity
  8
0
  6
HIDDEN
 62
     1
 48
0.02
100
AcDbLine
 10
-39.36646835593865
 20
223.4328061968588
 30
0.0
 11
-39.36646835593865
 21
222.9328061968588
 31
0.0
  0
LINE
  5
8D14
330
1F
100
AcDbEntity
  8
0
  6
HIDDEN
 62
     1
 48
0.02
100
AcDbLine
 10
-40.39146835593828
 20
223.4328061968588
 30
0.0
 11
-40.39146835593828
 21
222.9328061968588
 31
0.0
  0
LINE
  5
8D15
330
1F
100
AcDbEntity
  8
0
  6
HIDDEN
 62
     1
 48
0.02
100
AcDbLine
 10
-39.99146835593865
 20
223.4328061968588
 30
0.0
 11
-39.99146835593865
 21
222.9328061968588
 31
0.0
  0
LINE
  5
8D16
330
1F
100
AcDbEntity
  8
0
  6
HIDDEN
 62
     1
 48
0.02
100
AcDbLine
 10
-41.01646835593828
 20
223.4328061968588
 30
0.0
 11
-40.39146835593828
 21
223.4328061968588
 31
0.0
  0
LINE
  5
8D17
330
1F
100
AcDbEntity
  8
0
  6
HIDDEN
 62
     1
 48
0.02
100
AcDbLine
 10
-39.99146835593865
 20
223.4328061968588
 30
0.0
 11
-39.36646835593865
 21
223.4328061968588
 31
0.0
  0
LINE
  5
8D18
330
1F
100
AcDbEntity
  8
0
  6
HIDDEN
 62
     1
 48
0.02
100
AcDbLine
 10
-40.56646835593755
 20
223.1828061968588
 30
0.0
 11
-40.56646835593755
 21
222.9328061968588
 31
0.0
  0
LINE
  5
8D19
330
1F
100
AcDbEntity
  8
0
  6
HIDDEN
 62
     1
 48
0.02
100
AcDbLine
 10
-40.81646835593756
 20
223.1828061968588
 30
0.0
 11
-40.56646835593755
 21
223.1828061968588
 31
0.0
  0
LINE
  5
8D1A
330
1F
100
AcDbEntity
  8
0
 62
     1
100
AcDbLine
 10
-47.01646835593829
 20
234.9328061968588
 30
0.0
 11
-45.0164683559401
 21
234.9328061968588
 31
0.0
  0
LINE
  5
8D1B
330
1F
100
AcDbEntity
  8
0
 62
     1
100
AcDbLine
 10
-41.01646835593828
 20
234.9328061968588
 30
0.0
 11
-39.01646835593829
 21
234.9328061968588
 31
0.0
  0
LINE
  5
8D1C
330
1F
100
AcDbEntity
  8
0
  6
HIDDEN
 62
     1
 48
0.02
100
AcDbLine
 10
-46.66646835593792
 20
235.4328061968588
 30
0.0
 11
-46.04146835593792
 21
235.4328061968588
 31
0.0
  0
LINE
  5
8D1D
330
1F
100
AcDbEntity
  8
0
  6
HIDDEN
 62
     1
 48
0.02
100
AcDbLine
 10
-45.6414683559401
 20
235.4328061968588
 30
0.0
 11
-45.6414683559401
 21
234.9328061968588
 31
0.0
  0
LINE
  5
8D1E
330
1F
100
AcDbEntity
  8
0
  6
HIDDEN
 62
     1
 48
0.02
100
AcDbLine
 10
-46.04146835593792
 20
235.4328061968588
 30
0.0
 11
-46.04146835593792
 21
234.9328061968588
 31
0.0
  0
LINE
  5
8D1F
330
1F
100
AcDbEntity
  8
0
  6
HIDDEN
 62
     1
 48
0.02
100
AcDbLine
 10
-45.6414683559401
 20
235.4328061968588
 30
0.0
 11
-45.0164683559401
 21
235.4328061968588
 31
0.0
  0
LINE
  5
8D20
330
1F
100
AcDbEntity
  8
0
  6
HIDDEN
 62
     1
 48
0.02
100
AcDbLine
 10
-39.36646835593865
 20
235.4328061968588
 30
0.0
 11
-39.36646835593865
 21
234.9328061968588
 31
0.0
  0
LINE
  5
8D21
330
1F
100
AcDbEntity
  8
0
  6
HIDDEN
 62
     1
 48
0.02
100
AcDbLine
 10
-40.39146835593828
 20
235.4328061968588
 30
0.0
 11
-40.39146835593828
 21
234.9328061968588
 31
0.0
  0
LINE
  5
8D22
330
1F
100
AcDbEntity
  8
0
  6
HIDDEN
 62
     1
 48
0.02
100
AcDbLine
 10
-39.99146835593865
 20
235.4328061968588
 30
0.0
 11
-39.99146835593865
 21
234.9328061968588
 31
0.0
  0
LINE
  5
8D23
330
1F
100
AcDbEntity
  8
0
  6
HIDDEN
 62
     1
 48
0.02
100
AcDbLine
 10
-41.01646835593828
 20
235.4328061968588
 30
0.0
 11
-40.39146835593828
 21
235.4328061968588
 31
0.0
  0
LINE
  5
8D24
330
1F
100
AcDbEntity
  8
0
  6
HIDDEN
 62
     1
 48
0.02
100
AcDbLine
 10
-39.99146835593865
 20
235.4328061968588
 30
0.0
 11
-39.36646835593865
 21
235.4328061968588
 31
0.0
  0
LINE
  5
8D25
330
1F
100
AcDbEntity
  8
0
  6
HIDDEN
 62
     1
 48
0.02
100
AcDbLine
 10
-40.56646835593755
 20
235.1828061968588
 30
0.0
 11
-40.56646835593755
 21
234.9328061968588
 31
0.0
  0
LINE
  5
8D26
330
1F
100
AcDbEntity
  8
0
  6
HIDDEN
 62
     1
 48
0.02
100
AcDbLine
 10
-40.81646835593756
 20
235.1828061968588
 30
0.0
 11
-40.56646835593755
 21
235.1828061968588
 31
0.0
  0
CIRCLE
  5
8D27
330
1F
100
AcDbEntity
  8
A2 Hatch
 48
0.15
100
AcDbCircle
 10
-43.01149525594382
 20
208.2672445023706
 30
0.0
 40
0.8157720410317779
  0
CIRCLE
  5
8D28
102
{ACAD_REACTORS
330
8D29
102
}
330
1F
100
AcDbEntity
  8
REBAR
 48
0.15
100
AcDbCircle
 10
-43.01149525594382
 20
208.2672445023706
 30
0.0
 40
0.2243383222039483
  0
HATCH
  5
8D29
330
1F
100
AcDbEntity
  8
REBAR
 48
0.15
100
AcDbHatch
 10
0.0
 20
0.0
 30
0.0
210
0.0
220
0.0
230
1.0
  2
SOLID
 70
     1
 71
     1
 91
        1
 92
        1
 93
        1
 72
     2
 10
-43.01149525594382
 20
208.2672445023706
 40
0.2243383222039483
 50
0.0
 51
360.0
 73
     1
 97
        1
330
8D28
 75
     0
 76
     1
 98
        1
 10
-3283.632905466144
 20
559.7113624932096
  0
CIRCLE
  5
8D2A
330
1F
100
AcDbEntity
  8
A2 Hatch
 48
0.15
100
AcDbCircle
 10
-43.01149525594382
 20
232.2672445023706
 30
0.0
 40
0.8157720410317779
  0
CIRCLE
  5
8D2B
102
{ACAD_REACTORS
330
8D2C
102
}
330
1F
100
AcDbEntity
  8
REBAR
 48
0.15
100
AcDbCircle
 10
-43.01149525594382
 20
232.2672445023706
 30
0.0
 40
0.2243383222039483
  0
HATCH
  5
8D2C
330
1F
100
AcDbEntity
  8
REBAR
 48
0.15
100
AcDbHatch
 10
0.0
 20
0.0
 30
0.0
210
0.0
220
0.0
230
1.0
  2
SOLID
 70
     1
 71
     1
 91
        1
 92
        1
 93
        1
 72
     2
 10
-43.01149525594382
 20
232.2672445023706
 40
0.2243383222039483
 50
0.0
 51
360.0
 73
     1
 97
        1
330
8D2B
 75
     0
 76
     1
 98
        1
 10
-3283.632905466144
 20
583.7113624932096
  0
MTEXT
  5
8D2D
330
1F
100
AcDbEntity
  8
Defpoints
100
AcDbMText
 10
-42.45804669203653
 20
152.48534500258
 30
0.0
 40
3.0
 41
90.07999999999999
 71
     2
 72
     5
  1
{\L123\P}\P            
  7
RomanC
 73
     1
 44
1.0
1001
ACAD
1000
MTEXTBEGIN
1070
    73
1070
     1
1070
    44
1040
1.0
1070
    74
1070
     0
1000
MTEXTEND
  0
LWPOLYLINE
  5
8D2E
330
1F
100
AcDbEntity
  8
0
 48
0.15
100
AcDbPolyline
 90
        4
 70
     0
 43
0.0
 10
-47.01646835593829
 20
198.9328061968587
 10
-47.01646835593829
 20
186.9328061968587
 10
-39.01646835593829
 20
186.9328061968587
 10
-39.01646835593829
 20
194.9328061968583
  0
LINE
  5
8D2F
330
1F
100
AcDbEntity
  8
A2 Hatch
  6
HIDDEN
 48
0.15
100
AcDbLine
 10
-41.01646835593828
 20
186.9328061968587
 30
0.0
 11
-41.01646835593919
 21
194.9328061968592
 31
0.0
  0
LINE
  5
8D30
330
1F
100
AcDbEntity
  8
A2 Hatch
  6
HIDDEN
 48
0.15
100
AcDbLine
 10
-45.01646835593828
 20
186.9328061968587
 30
0.0
 11
-45.01646835593828
 21
198.9328061968587
 31
0.0
  0
LWPOLYLINE
  5
8D31
330
1F
100
AcDbEntity
  8
0
 48
0.15
100
AcDbPolyline
 90
        4
 70
     1
 43
0.0
 10
-47.01646835593829
 20
174.9328061968587
 10
-39.01646835593829
 20
174.9328061968587
 10
-39.01646835593829
 20
186.9328061968587
 10
-47.01646835593829
 20
186.9328061968587
  0
LINE
  5
8D32
330
1F
100
AcDbEntity
  8
A2 Hatch
  6
HIDDEN
 48
0.15
100
AcDbLine
 10
-41.01646835593828
 20
174.9328061968587
 30
0.0
 11
-41.01646835593828
 21
186.9328061968587
 31
0.0
  0
LINE
  5
8D33
330
1F
100
AcDbEntity
  8
A2 Hatch
  6
HIDDEN
 48
0.15
100
AcDbLine
 10
-45.01646835593828
 20
174.9328061968587
 30
0.0
 11
-45.01646835593828
 21
186.9328061968587
 31
0.0
  0
LINE
  5
8D34
330
1F
100
AcDbEntity
  8
0
 48
0.15
100
AcDbLine
 10
-35.01646835593829
 20
166.9328061968587
 30
0.0
 11
-51.01646835593829
 21
166.9328061968587
 31
0.0
  0
LINE
  5
8D35
330
1F
100
AcDbEntity
  8
0
 48
0.15
100
AcDbLine
 10
-35.01646835593829
 20
174.9328061968587
 30
0.0
 11
-51.01646835593829
 21
174.9328061968587
 31
0.0
  0
LINE
  5
8D36
330
1F
100
AcDbEntity
  8
0
 48
0.15
100
AcDbLine
 10
-51.01646835593829
 20
174.9328061968587
 30
0.0
 11
-51.01646835593829
 21
166.9328061968587
 31
0.0
  0
LINE
  5
8D37
330
1F
100
AcDbEntity
  8
0
 48
0.15
100
AcDbLine
 10
-35.01646835593829
 20
174.9328061968587
 30
0.0
 11
-35.01646835593829
 21
166.9328061968587
 31
0.0
  0
CIRCLE
  5
8D38
102
{ACAD_REACTORS
330
8D39
102
}
330
1F
100
AcDbEntity
  8
REBAR
 48
0.15
100
AcDbCircle
 10
-44.14617715467329
 20
187.1926542778749
 30
0.0
 40
0.2243383222039483
  0
HATCH
  5
8D39
330
1F
100
AcDbEntity
  8
REBAR
 48
0.15
100
AcDbHatch
 10
0.0
 20
0.0
 30
0.0
210
0.0
220
0.0
230
1.0
  2
SOLID
 70
     1
 71
     1
 91
        1
 92
        1
 93
        1
 72
     2
 10
-44.14617715467329
 20
187.1926542778749
 40
0.2243383222039483
 50
0.0
 51
360.0
 73
     1
 97
        1
330
8D38
 75
     0
 76
     1
 98
        1
 10
-3284.767587364874
 20
538.6367722687139
  0
CIRCLE
  5
8D3A
102
{ACAD_REACTORS
330
8D3B
102
}
330
1F
100
AcDbEntity
  8
REBAR
 48
0.15
100
AcDbCircle
 10
-41.69171855224931
 20
187.1926542778749
 30
0.0
 40
0.2243383222039483
  0
HATCH
  5
8D3B
330
1F
100
AcDbEntity
  8
REBAR
 48
0.15
100
AcDbHatch
 10
0.0
 20
0.0
 30
0.0
210
0.0
220
0.0
230
1.0
  2
SOLID
 70
     1
 71
     1
 91
        1
 92
        1
 93
        1
 72
     2
 10
-41.69171855224931
 20
187.1926542778749
 40
0.2243383222039483
 50
0.0
 51
360.0
 73
     1
 97
        1
330
8D3A
 75
     0
 76
     1
 98
        1
 10
-3282.31312876245
 20
538.6367722687139
  0
LINE
  5
8D3C
330
1F
100
AcDbEntity
  8
REBAR
 48
0.15
100
AcDbLine
 10
-43.47062466028956
 20
201.1786653960946
 30
0.0
 11
-43.47062466029046
 21
170.3413537461826
 31
0.0
  0
LINE
  5
8D3D
330
1F
100
AcDbEntity
  8
REBAR
 48
0.15
100
AcDbLine
 10
-43.47062466029046
 20
170.3413537461826
 30
0.0
 11
-40.43513890545227
 21
170.3413537461822
 31
0.0
  0
LINE
  5
8D3E
330
1F
100
AcDbEntity
  8
DIM
100
AcDbLine
 10
-35.37786864191139
 20
240.0698811399823
 30
0.0
 11
-42.00474927634104
 21
237.8224234331439
 31
0.0
  0
LINE
  5
8D3F
330
1F
100
AcDbEntity
  8
DIM
100
AcDbLine
 10
-41.06870625953933
 20
235.0623958152012
 30
0.0
 11
-42.00474927634013
 21
237.8224234331444
 31
0.0
  0
LINE
  5
8D40
330
1F
100
AcDbEntity
  8
DIM
100
AcDbLine
 10
-45.66490033725176
 20
239.658589892914
 30
0.0
 11
-44.72885732045097
 21
236.8985622749717
 31
0.0
  0
LINE
  5
8D41
330
1F
100
AcDbEntity
  8
DIM
100
AcDbLine
 10
-44.72885732045097
 20
236.8985622749717
 30
0.0
 11
-52.81865955195417
 21
234.3669296365244
 31
0.0
  0
LINE
  5
8D42
330
1F
100
AcDbEntity
  8
DIM
100
AcDbLine
 10
-41.06870625953933
 20
235.0623958152012
 30
0.0
 11
-45.66490033725176
 21
239.658589892914
 31
0.0
  0
LINE
  5
8D43
330
1F
100
AcDbEntity
  8
0
 48
0.15
100
AcDbLine
 10
-47.01646835593829
 20
198.9328061968587
 30
0.0
 11
-39.01646835593829
 21
198.9328061968587
 31
0.0
  0
LINE
  5
8D44
330
1F
100
AcDbEntity
  8
REBAR
 48
0.15
100
AcDbLine
 10
-42.69703865813471
 20
187.6712031623676
 30
0.0
 11
-42.69703865813562
 21
196.9105756296778
 31
0.0
  0
MTEXT
  5
8D45
330
1F
100
AcDbEntity
  8
DIM
 62
     3
100
AcDbMText
 10
-16.55417375876868
 20
190.5777186404832
 30
0.0
 40
1.0
 41
22.68954545454545
 71
     1
 72
     5
  1
REINFORCEMENT TURN DOWN PER ENGINEER
  7
RomanC
 73
     1
 44
1.0
1001
ACAD
1000
MTEXTBEGIN
1070
    73
1070
     1
1070
    44
1040
1.0
1070
    74
1070
     0
1000
MTEXTEND
  0
LEADER
  5
8D46
330
1F
100
AcDbEntity
  8
DIM
100
AcDbLeader
  3
ARCTEXT1-4
 76
     3
 10
-42.69703865813562
 20
195.4551201203869
 30
0.0
 10
-36.03615967033375
 20
190.1799585454675
 30
0.0
 10
-17.2880799976524
 20
190.1799585454675
 30
0.0
1001
ACAD
1000
DSTYLE
1002
{
1070
    41
1040
0.5
1070
    77
1070
     0
1070
   371
1070
    -1
1002
}
  0
ENDSEC
  0
SECTION
  2
OBJECTS
  0
DICTIONARY
  5
C
330
0
100
AcDbDictionary
281
     1
  3
ACAD_COLOR
350
73
  3
ACAD_GROUP
350
D
  3
ACAD_LAYOUT
350
1A
  3
ACAD_MATERIAL
350
72
  3
ACAD_MLINESTYLE
350
17
  3
ACAD_PLOTSETTINGS
350
19
  3
ACAD_PLOTSTYLENAME
350
E
  3
ACDBHEADERROUNDTRIPXREC
350
8D48
  3
AcDbVariableDictionary
350
66
  0
DICTIONARY
  5
A2
330
2
100
AcDbDictionary
280
     1
281
     1
  3
ACAD_LAYERSTATES
360
A3
  0
DICTIONARY
  5
73
102
{ACAD_REACTORS
330
C
102
}
330
C
100
AcDbDictionary
281
     1
  0
DICTIONARY
  5
D
102
{ACAD_REACTORS
330
C
102
}
330
C
100
AcDbDictionary
281
     1
  0
DICTIONARY
  5
1A
102
{ACAD_REACTORS
330
C
102
}
330
C
100
AcDbDictionary
281
     1
  3
Layout1
350
59
  3
Layout2
350
5E
  3
Model
350
22
  0
DICTIONARY
  5
72
102
{ACAD_REACTORS
330
C
102
}
330
C
100
AcDbDictionary
281
     1
  0
DICTIONARY
  5
17
102
{ACAD_REACTORS
330
C
102
}
330
C
100
AcDbDictionary
281
     1
  3
Standard
350
18
  0
DICTIONARY
  5
19
102
{ACAD_REACTORS
330
C
102
}
330
C
100
AcDbDictionary
281
     1
  0
ACDBDICTIONARYWDFLT
  5
E
102
{ACAD_REACTORS
330
C
102
}
330
C
100
AcDbDictionary
281
     1
  3
Normal
350
F
100
AcDbDictionaryWithDefault
340
F
  0
DICTIONARY
  5
8D48
102
{ACAD_REACTORS
330
C
102
}
330
C
100
AcDbDictionary
281
     1
  3
COLORDICT
350
8D4A
  3
MATERIALDICT
350
8D49
  0
DICTIONARY
  5
66
102
{ACAD_REACTORS
330
C
102
}
330
C
100
AcDbDictionary
281
     1
  3
DIMASSOC
350
67
  3
HIDETEXT
350
6B
  3
PROJECTNAME
350
27D3
  0
DICTIONARY
  5
A3
102
{ACAD_REACTORS
330
A2
102
}
330
A2
100
AcDbDictionary
281
     1
  0
LAYOUT
  5
59
102
{ACAD_XDICTIONARY
360
8D4D
102
}
102
{ACAD_REACTORS
330
1A
102
}
330
1A
100
AcDbPlotSettings
  1

  2
None
  4

  6

 40
0.0
 41
0.0
 42
0.0
 43
0.0
 44
0.0
 45
0.0
 46
0.0
 47
0.0
 48
0.0
 49
0.0
140
0.0
141
0.0
142
1.0
143
1.0
 70
   688
 72
     0
 73
     0
 74
     5
  7

 75
    16
147
1.0
148
0.0
149
0.0
100
AcDbLayout
  1
Layout1
 70
     1
 71
     1
 10
0.0
 20
0.0
 11
12.0
 21
9.0
 12
0.0
 22
0.0
 32
0.0
 14
0.0
 24
0.0
 34
0.0
 15
0.0
 25
0.0
 35
0.0
146
0.0
 13
0.0
 23
0.0
 33
0.0
 16
1.0
 26
0.0
 36
0.0
 17
0.0
 27
1.0
 37
0.0
 76
     0
330
58
  0
LAYOUT
  5
5E
102
{ACAD_XDICTIONARY
360
8D4F
102
}
102
{ACAD_REACTORS
330
1A
102
}
330
1A
100
AcDbPlotSettings
  1

  2
None
  4

  6

 40
0.0
 41
0.0
 42
0.0
 43
0.0
 44
0.0
 45
0.0
 46
0.0
 47
0.0
 48
0.0
 49
0.0
140
0.0
141
0.0
142
1.0
143
1.0
 70
   688
 72
     0
 73
     0
 74
     5
  7

 75
    16
147
1.0
148
0.0
149
0.0
100
AcDbLayout
  1
Layout2
 70
     1
 71
     2
 10
0.0
 20
0.0
 11
12.0
 21
9.0
 12
0.0
 22
0.0
 32
0.0
 14
0.0
 24
0.0
 34
0.0
 15
0.0
 25
0.0
 35
0.0
146
0.0
 13
0.0
 23
0.0
 33
0.0
 16
1.0
 26
0.0
 36
0.0
 17
0.0
 27
1.0
 37
0.0
 76
     0
330
5D
  0
LAYOUT
  5
22
102
{ACAD_XDICTIONARY
360
8D4B
102
}
102
{ACAD_REACTORS
330
1A
102
}
330
1A
100
AcDbPlotSettings
  1

  2
none_device
  4
ANSI_A_(8.50_x_11.00_Inches)
  6

 40
6.349999904632568
 41
19.04999923706055
 42
6.350006103515625
 43
19.04998779296875
 44
215.8999938964844
 45
279.3999938964844
 46
0.0
 47
0.0
 48
0.0
 49
0.0
140
0.0
141
0.0
142
1.0
143
2.584895464708373
 70
 11952
 72
     0
 73
     1
 74
     0
  7

 75
     0
147
0.3868628397755418
148
0.0
149
0.0
100
AcDbLayout
  1
Model
 70
     1
 71
     0
 10
0.0
 20
0.0
 11
12.0
 21
9.0
 12
0.0
 22
0.0
 32
0.0
 14
0.0
 24
0.0
 34
0.0
 15
0.0
 25
0.0
 35
0.0
146
0.0
 13
0.0
 23
0.0
 33
0.0
 16
1.0
 26
0.0
 36
0.0
 17
0.0
 27
1.0
 37
0.0
 76
     0
330
1F
  0
MLINESTYLE
  5
18
102
{ACAD_REACTORS
330
17
102
}
330
17
100
AcDbMlineStyle
  2
STANDARD
 70
     0
  3

 62
   256
 51
90.0
 52
90.0
 71
     2
 49
0.5
 62
   256
  6
BYLAYER
 49
-0.5
 62
   256
  6
BYLAYER
  0
ACDBPLACEHOLDER
  5
F
102
{ACAD_REACTORS
330
E
102
}
330
E
  0
XRECORD
  5
8D4A
102
{ACAD_REACTORS
330
8D48
102
}
330
8D48
100
AcDbXrecord
280
     1
340
73
  0
XRECORD
  5
8D49
102
{ACAD_REACTORS
330
8D48
102
}
330
8D48
100
AcDbXrecord
280
     1
340
72
  0
DICTIONARYVAR
  5
67
102
{ACAD_REACTORS
330
66
102
}
330
66
100
DictionaryVariables
280
     0
  1
2
  0
DICTIONARYVAR
  5
6B
102
{ACAD_REACTORS
330
66
102
}
330
66
100
DictionaryVariables
280
     0
  1
1
  0
DICTIONARYVAR
  5
27D3
102
{ACAD_REACTORS
330
66
102
}
330
66
100
DictionaryVariables
280
     0
  1

  0
DICTIONARY
  5
8D4D
330
59
100
AcDbDictionary
280
     1
281
     1
  3
ACAD_XREC_ROUNDTRIP
360
8D4E
  0
DICTIONARY
  5
8D4F
330
5E
100
AcDbDictionary
280
     1
281
     1
  3
ACAD_XREC_ROUNDTRIP
360
8D50
  0
DICTIONARY
  5
8D4B
330
22
100
AcDbDictionary
280
     1
281
     1
  3
ACAD_XREC_ROUNDTRIP
360
8D4C
  0
XRECORD
  5
8D4E
102
{ACAD_REACTORS
330
8D4D
102
}
330
8D4D
100
AcDbXrecord
280
     1
102
SHADEPLOT
 70
     0
102
SHADEPLOTRESLEVEL
 70
     2
102
SHADEPLOTCUSTOMDPI
 70
   300
  0
XRECORD
  5
8D50
102
{ACAD_REACTORS
330
8D4F
102
}
330
8D4F
100
AcDbXrecord
280
     1
102
SHADEPLOT
 70
     0
102
SHADEPLOTRESLEVEL
 70
     2
102
SHADEPLOTCUSTOMDPI
 70
   300
  0
XRECORD
  5
8D4C
102
{ACAD_REACTORS
330
8D4B
102
}
330
8D4B
100
AcDbXrecord
280
     1
102
SHADEPLOT
 70
     0
102
SHADEPLOTRESLEVEL
 70
     2
102
SHADEPLOTCUSTOMDPI
 70
   300
  0
ENDSEC
  0
EOF
