  0
SECTION
  2
HEADER
  9
$ACADVER
  1
AC1015
  9
$ACADMAINTVER
 70
    20
  9
$DWGCODEPAGE
  3
ANSI_1252
  9
$INSBASE
 10
0.0
 20
0.0
 30
0.0
  9
$EXTMIN
 10
-254.0791800202125
 20
289.0217098094713
 30
-0.0000000349181948
  9
$EXTMAX
 10
-166.5431517005455
 20
357.1832740105679
 30
0.0000000814935746
  9
$LIMMIN
 10
0.0
 20
0.0
  9
$LIMMAX
 10
12.0
 20
9.0
  9
$ORTHOMODE
 70
     0
  9
$REGENMODE
 70
     1
  9
$FILLMODE
 70
     1
  9
$QTEXTMODE
 70
     0
  9
$MIRRTEXT
 70
     0
  9
$LTSCALE
 40
1.0
  9
$ATTMODE
 70
     1
  9
$TEXTSIZE
 40
0.2
  9
$TRACEWID
 40
0.05
  9
$TEXTSTYLE
  7
Standard
  9
$CLAYER
  8
0
  9
$CELTYPE
  6
ByLayer
  9
$CECOLOR
 62
   256
  9
$CELTSCALE
 40
1.0
  9
$DISPSILH
 70
     0
  9
$DIMSCALE
 40
1.0
  9
$DIMASZ
 40
0.18
  9
$DIMEXO
 40
0.0625
  9
$DIMDLI
 40
0.38
  9
$DIMRND
 40
0.0
  9
$DIMDLE
 40
0.0
  9
$DIMEXE
 40
0.18
  9
$DIMTP
 40
0.0
  9
$DIMTM
 40
0.0
  9
$DIMTXT
 40
0.18
  9
$DIMCEN
 40
0.09
  9
$DIMTSZ
 40
0.0
  9
$DIMTOL
 70
     0
  9
$DIMLIM
 70
     0
  9
$DIMTIH
 70
     1
  9
$DIMTOH
 70
     1
  9
$DIMSE1
 70
     0
  9
$DIMSE2
 70
     0
  9
$DIMTAD
 70
     0
  9
$DIMZIN
 70
     0
  9
$DIMBLK
  1

  9
$DIMASO
 70
     1
  9
$DIMSHO
 70
     1
  9
$DIMPOST
  1

  9
$DIMAPOST
  1

  9
$DIMALT
 70
     0
  9
$DIMALTD
 70
     2
  9
$DIMALTF
 40
25.4
  9
$DIMLFAC
 40
1.0
  9
$DIMTOFL
 70
     0
  9
$DIMTVP
 40
0.0
  9
$DIMTIX
 70
     0
  9
$DIMSOXD
 70
     0
  9
$DIMSAH
 70
     0
  9
$DIMBLK1
  1

  9
$DIMBLK2
  1

  9
$DIMSTYLE
  2
Standard
  9
$DIMCLRD
 70
     0
  9
$DIMCLRE
 70
     0
  9
$DIMCLRT
 70
     0
  9
$DIMTFAC
 40
1.0
  9
$DIMGAP
 40
0.09
  9
$DIMJUST
 70
     0
  9
$DIMSD1
 70
     0
  9
$DIMSD2
 70
     0
  9
$DIMTOLJ
 70
     1
  9
$DIMTZIN
 70
     0
  9
$DIMALTZ
 70
     0
  9
$DIMALTTZ
 70
     0
  9
$DIMUPT
 70
     0
  9
$DIMDEC
 70
     4
  9
$DIMTDEC
 70
     4
  9
$DIMALTU
 70
     2
  9
$DIMALTTD
 70
     2
  9
$DIMTXSTY
  7
Standard
  9
$DIMAUNIT
 70
     0
  9
$DIMADEC
 70
     0
  9
$DIMALTRND
 40
0.0
  9
$DIMAZIN
 70
     0
  9
$DIMDSEP
 70
    46
  9
$DIMATFIT
 70
     3
  9
$DIMFRAC
 70
     0
  9
$DIMLDRBLK
  1

  9
$DIMLUNIT
 70
     2
  9
$DIMLWD
 70
    -2
  9
$DIMLWE
 70
    -2
  9
$DIMTMOVE
 70
     0
  9
$LUNITS
 70
     2
  9
$LUPREC
 70
     4
  9
$SKETCHINC
 40
0.1
  9
$FILLETRAD
 40
0.0
  9
$AUNITS
 70
     0
  9
$AUPREC
 70
     0
  9
$MENU
  1
.
  9
$ELEVATION
 40
0.0
  9
$PELEVATION
 40
0.0
  9
$THICKNESS
 40
0.0
  9
$LIMCHECK
 70
     0
  9
$CHAMFERA
 40
0.0
  9
$CHAMFERB
 40
0.0
  9
$CHAMFERC
 40
0.0
  9
$CHAMFERD
 40
0.0
  9
$SKPOLY
 70
     0
  9
$TDCREATE
 40
2454861.564484954
  9
$TDUCREATE
 40
2454861.856151620
  9
$TDUPDATE
 40
2454861.586578553
  9
$TDUUPDATE
 40
2454861.878245220
  9
$TDINDWG
 40
0.0220989468
  9
$TDUSRTIMER
 40
0.0220968519
  9
$USRTIMER
 70
     1
  9
$ANGBASE
 50
0.0
  9
$ANGDIR
 70
     0
  9
$PDMODE
 70
     0
  9
$PDSIZE
 40
0.0
  9
$PLINEWID
 40
0.0
  9
$SPLFRAME
 70
     0
  9
$SPLINETYPE
 70
     6
  9
$SPLINESEGS
 70
     8
  9
$HANDSEED
  5
DB91
  9
$SURFTAB1
 70
     6
  9
$SURFTAB2
 70
     6
  9
$SURFTYPE
 70
     6
  9
$SURFU
 70
     6
  9
$SURFV
 70
     6
  9
$UCSBASE
  2

  9
$UCSNAME
  2

  9
$UCSORG
 10
0.0
 20
0.0
 30
0.0
  9
$UCSXDIR
 10
1.0
 20
0.0
 30
0.0
  9
$UCSYDIR
 10
0.0
 20
1.0
 30
0.0
  9
$UCSORTHOREF
  2

  9
$UCSORTHOVIEW
 70
     0
  9
$UCSORGTOP
 10
0.0
 20
0.0
 30
0.0
  9
$UCSORGBOTTOM
 10
0.0
 20
0.0
 30
0.0
  9
$UCSORGLEFT
 10
0.0
 20
0.0
 30
0.0
  9
$UCSORGRIGHT
 10
0.0
 20
0.0
 30
0.0
  9
$UCSORGFRONT
 10
0.0
 20
0.0
 30
0.0
  9
$UCSORGBACK
 10
0.0
 20
0.0
 30
0.0
  9
$PUCSBASE
  2

  9
$PUCSNAME
  2

  9
$PUCSORG
 10
0.0
 20
0.0
 30
0.0
  9
$PUCSXDIR
 10
1.0
 20
0.0
 30
0.0
  9
$PUCSYDIR
 10
0.0
 20
1.0
 30
0.0
  9
$PUCSORTHOREF
  2

  9
$PUCSORTHOVIEW
 70
     0
  9
$PUCSORGTOP
 10
0.0
 20
0.0
 30
0.0
  9
$PUCSORGBOTTOM
 10
0.0
 20
0.0
 30
0.0
  9
$PUCSORGLEFT
 10
0.0
 20
0.0
 30
0.0
  9
$PUCSORGRIGHT
 10
0.0
 20
0.0
 30
0.0
  9
$PUCSORGFRONT
 10
0.0
 20
0.0
 30
0.0
  9
$PUCSORGBACK
 10
0.0
 20
0.0
 30
0.0
  9
$USERI1
 70
     0
  9
$USERI2
 70
     0
  9
$USERI3
 70
     0
  9
$USERI4
 70
     0
  9
$USERI5
 70
     0
  9
$USERR1
 40
0.0
  9
$USERR2
 40
0.0
  9
$USERR3
 40
0.0
  9
$USERR4
 40
0.0
  9
$USERR5
 40
0.0
  9
$WORLDVIEW
 70
     1
  9
$SHADEDGE
 70
     3
  9
$SHADEDIF
 70
    70
  9
$TILEMODE
 70
     1
  9
$MAXACTVP
 70
    64
  9
$PINSBASE
 10
0.0
 20
0.0
 30
0.0
  9
$PLIMCHECK
 70
     0
  9
$PEXTMIN
 10
0.0
 20
0.0
 30
0.0
  9
$PEXTMAX
 10
0.0
 20
0.0
 30
0.0
  9
$PLIMMIN
 10
0.0
 20
0.0
  9
$PLIMMAX
 10
12.0
 20
9.0
  9
$UNITMODE
 70
     0
  9
$VISRETAIN
 70
     1
  9
$PLINEGEN
 70
     0
  9
$PSLTSCALE
 70
     1
  9
$TREEDEPTH
 70
  3020
  9
$CMLSTYLE
  2
Standard
  9
$CMLJUST
 70
     0
  9
$CMLSCALE
 40
1.0
  9
$PROXYGRAPHICS
 70
     1
  9
$MEASUREMENT
 70
     0
  9
$CELWEIGHT
370
    -1
  9
$ENDCAPS
280
     0
  9
$JOINSTYLE
280
     0
  9
$LWDISPLAY
290
     0
  9
$INSUNITS
 70
     1
  9
$HYPERLINKBASE
  1

  9
$STYLESHEET
  1

  9
$XEDIT
290
     1
  9
$CEPSNTYPE
380
     0
  9
$PSTYLEMODE
290
     1
  9
$FINGERPRINTGUID
  2
{FDEAD576-A652-11D2-9A35-0060089B3A3F}
  9
$VERSIONGUID
  2
{A9AEFEA2-FB16-4588-B489-B1AA6BE2226A}
  9
$EXTNAMES
290
     1
  9
$PSVPSCALE
 40
0.0
  9
$OLESTARTUP
290
     0
  0
ENDSEC
  0
SECTION
  2
CLASSES
  0
CLASS
  1
ACDBDICTIONARYWDFLT
  2
AcDbDictionaryWithDefault
  3
ObjectDBX Classes
 90
        0
280
     0
281
     0
  0
CLASS
  1
ACDBPLACEHOLDER
  2
AcDbPlaceHolder
  3
ObjectDBX Classes
 90
        0
280
     0
281
     0
  0
CLASS
  1
LAYOUT
  2
AcDbLayout
  3
ObjectDBX Classes
 90
        0
280
     0
281
     0
  0
CLASS
  1
DICTIONARYVAR
  2
AcDbDictionaryVar
  3
ObjectDBX Classes
 90
        0
280
     0
281
     0
  0
CLASS
  1
SORTENTSTABLE
  2
AcDbSortentsTable
  3
ObjectDBX Classes
 90
        0
280
     0
281
     0
  0
ENDSEC
  0
SECTION
  2
TABLES
  0
TABLE
  2
VPORT
  5
8
330
0
100
AcDbSymbolTable
 70
    62
  0
VPORT
  5
DB83
330
8
100
AcDbSymbolTableRecord
100
AcDbViewportTableRecord
  2
*Active
 70
     0
 10
0.0
 20
0.0
 11
1.0
 21
1.0
 12
-210.311165860379
 22
323.1024919100196
 13
0.0
 23
0.0
 14
0.5
 24
0.5
 15
0.5
 25
0.5
 16
0.0
 26
0.0
 36
1.0
 17
0.0
 27
0.0
 37
0.0
 40
68.65370545886617
 41
1.48433734939759
 42
50.0
 43
0.0
 44
0.0
 50
0.0
 51
0.0
 71
     0
 72
  1000
 73
     1
 74
     3
 75
     0
 76
     0
 77
     0
 78
     0
281
     0
 65
     1
110
0.0
120
0.0
130
0.0
111
1.0
121
0.0
131
0.0
112
0.0
122
1.0
132
0.0
 79
     0
146
0.0
  0
ENDTAB
  0
TABLE
  2
LTYPE
  5
5
330
0
100
AcDbSymbolTable
 70
     6
  0
LTYPE
  5
14
330
5
100
AcDbSymbolTableRecord
100
AcDbLinetypeTableRecord
  2
ByBlock
 70
     0
  3

 72
    65
 73
     0
 40
0.0
  0
LTYPE
  5
15
330
5
100
AcDbSymbolTableRecord
100
AcDbLinetypeTableRecord
  2
ByLayer
 70
     0
  3

 72
    65
 73
     0
 40
0.0
  0
LTYPE
  5
16
330
5
100
AcDbSymbolTableRecord
100
AcDbLinetypeTableRecord
  2
Continuous
 70
     0
  3
Solid line
 72
    65
 73
     0
 40
0.0
  0
LTYPE
  5
96
330
5
100
AcDbSymbolTableRecord
100
AcDbLinetypeTableRecord
  2
HIDDEN2
 70
     0
  3
Hidden (.5x) _ _ _ _ _ _ _ _ _ _ _ _ _ _ _ _ _
 72
    65
 73
     2
 40
0.1875
 49
0.125
 74
     0
 49
-0.0625
 74
     0
  0
LTYPE
  5
97
330
5
100
AcDbSymbolTableRecord
100
AcDbLinetypeTableRecord
  2
DASHED
 70
     0
  3
Dashed __ __ __ __ __ __ __ __ __ __ __ __ __ _
 72
    65
 73
     2
 40
0.75
 49
0.5
 74
     0
 49
-0.25
 74
     0
  0
LTYPE
  5
98
330
5
100
AcDbSymbolTableRecord
100
AcDbLinetypeTableRecord
  2
CENTER
 70
     0
  3
Center ____ _ ____ _ ____ _ ____ _ ____ _ ____
 72
    65
 73
     4
 40
2.0
 49
1.25
 74
     0
 49
-0.25
 74
     0
 49
0.25
 74
     0
 49
-0.25
 74
     0
  0
LTYPE
  5
99
330
5
100
AcDbSymbolTableRecord
100
AcDbLinetypeTableRecord
  2
DASHED2
 70
     0
  3
_ _ _ _ _ _ _ _ _ _ _ _ _ _ _ _ _ _ _ _ _ _ _ _
 72
    65
 73
     2
 40
0.375
 49
0.25
 74
     0
 49
-0.125
 74
     0
  0
LTYPE
  5
9A
330
5
100
AcDbSymbolTableRecord
100
AcDbLinetypeTableRecord
  2
HIDDEN
 70
     0
  3
Hidden __ __ __ __ __ __ __ __ __ __ __ __ __ _
 72
    65
 73
     2
 40
0.375
 49
0.25
 74
     0
 49
-0.125
 74
     0
  0
ENDTAB
  0
TABLE
  2
LAYER
  5
2
102
{ACAD_XDICTIONARY
360
A9
102
}
330
0
100
AcDbSymbolTable
 70
    10
  0
LAYER
  5
10
330
2
100
AcDbSymbolTableRecord
100
AcDbLayerTableRecord
  2
0
 70
     0
 62
     7
  6
Continuous
370
    -3
390
F
  0
LAYER
  5
9B
330
2
100
AcDbSymbolTableRecord
100
AcDbLayerTableRecord
  2
DIM
 70
     0
 62
     3
  6
Continuous
370
    13
390
F
  0
LAYER
  5
9C
330
2
100
AcDbSymbolTableRecord
100
AcDbLayerTableRecord
  2
Defpoints
 70
     0
 62
   252
  6
Continuous
290
     0
370
    -3
390
F
  0
LAYER
  5
9D
330
2
100
AcDbSymbolTableRecord
100
AcDbLayerTableRecord
  2
A2 Hatch
 70
     0
 62
     8
  6
Continuous
370
     9
390
F
  0
LAYER
  5
9E
330
2
100
AcDbSymbolTableRecord
100
AcDbLayerTableRecord
  2
DETAILS
 70
     0
 62
     7
  6
Continuous
370
    13
390
F
  0
LAYER
  5
9F
330
2
100
AcDbSymbolTableRecord
100
AcDbLayerTableRecord
  2
A4 medium
 70
     0
 62
     7
  6
Continuous
370
    35
390
F
  0
LAYER
  5
A0
330
2
100
AcDbSymbolTableRecord
100
AcDbLayerTableRecord
  2
REBAR
 70
     0
 62
     2
  6
CENTER
370
    30
390
F
  0
LAYER
  5
28AC
330
2
100
AcDbSymbolTableRecord
100
AcDbLayerTableRecord
  2
A5 heavy
 70
     0
 62
     5
  6
Continuous
370
    53
390
F
  0
LAYER
  5
2FC3
330
2
100
AcDbSymbolTableRecord
100
AcDbLayerTableRecord
  2
GRADE
 70
     0
 62
     5
  6
Continuous
370
   100
390
F
  0
LAYER
  5
51AE
330
2
100
AcDbSymbolTableRecord
100
AcDbLayerTableRecord
  2
HANGERS
 70
     0
 62
   253
  6
Continuous
370
    -3
390
F
  0
ENDTAB
  0
TABLE
  2
STYLE
  5
3
330
0
100
AcDbSymbolTable
 70
     5
  0
STYLE
  5
11
330
3
100
AcDbSymbolTableRecord
100
AcDbTextStyleTableRecord
  2
Standard
 70
     0
 40
0.0
 41
1.0
 50
0.0
 71
     0
 42
0.2
  3
txt
  4

  0
STYLE
  5
A1
330
3
100
AcDbSymbolTableRecord
100
AcDbTextStyleTableRecord
  2
ARCHITXT
 70
     0
 40
0.0
 41
1.25
 50
0.0
 71
     0
 42
1.0
  3
ARCHITXT.shx
  4

  0
STYLE
  5
A2
330
3
100
AcDbSymbolTableRecord
100
AcDbTextStyleTableRecord
  2
ARCTEXT
 70
     0
 40
0.0
 41
0.85
 50
0.0
 71
     0
 42
5.096770384644268
  3
arctext.shx
  4

  0
STYLE
  5
A3
330
3
100
AcDbSymbolTableRecord
100
AcDbTextStyleTableRecord
  2
ROMAND
 70
     0
 40
0.0
 41
0.85
 50
0.0
 71
     0
 42
6.0
  3
romand.shx
  4

  0
STYLE
  5
A4
330
3
100
AcDbSymbolTableRecord
100
AcDbTextStyleTableRecord
  2
RomanC
 70
     0
 40
5.0
 41
0.85
 50
0.0
 71
     0
 42
10.0
  3
romanc.shx
  4

  0
ENDTAB
  0
TABLE
  2
VIEW
  5
6
330
0
100
AcDbSymbolTable
 70
     0
  0
ENDTAB
  0
TABLE
  2
UCS
  5
7
330
0
100
AcDbSymbolTable
 70
     0
  0
ENDTAB
  0
TABLE
  2
APPID
  5
9
330
0
100
AcDbSymbolTable
 70
     1
  0
APPID
  5
12
330
9
100
AcDbSymbolTableRecord
100
AcDbRegAppTableRecord
  2
ACAD
 70
     0
  0
ENDTAB
  0
TABLE
  2
DIMSTYLE
  5
A
330
0
100
AcDbSymbolTable
 70
     5
100
AcDbDimStyleTable
 71
     0
  0
DIMSTYLE
105
27
330
A
100
AcDbSymbolTableRecord
100
AcDbDimStyleTableRecord
  2
Standard
 70
     0
340
11
  0
DIMSTYLE
105
A5
330
A
100
AcDbSymbolTableRecord
100
AcDbDimStyleTableRecord
  2
Copy of ROMANS
 70
     0
 41
0.75
 42
0.125
 43
0.125
 44
0.125
 73
     0
 74
     0
 77
     1
 78
     3
140
1.0
141
6.0
147
0.25
172
     1
175
     1
176
     2
177
     2
178
     2
271
     3
272
     3
273
     4
275
     1
277
     4
279
     2
284
     3
285
     3
286
     3
340
A1
  0
DIMSTYLE
105
A6
330
A
100
AcDbSymbolTableRecord
100
AcDbDimStyleTableRecord
  2
ARCTEXT
 70
     0
 40
0.0
 41
2.0
 42
1.0
 43
0.375
 44
0.1875
 73
     0
 74
     0
140
4.0
141
2.0
147
2.0
176
     2
177
     2
178
     2
277
     4
340
A2
341
8D
342
89
  0
DIMSTYLE
105
A7
102
{ACAD_REACTORS
330
1B1
330
1B7
330
1B6
330
199
330
1F8
330
1E9
330
1E8
330
19D
330
19C
330
481
102
}
330
A
100
AcDbSymbolTableRecord
100
AcDbDimStyleTableRecord
  2
ARCTEXT1-4
 70
     0
 41
2.0
 42
2.0
 43
2.0
 44
2.0
 73
     0
 74
     0
 77
     1
 78
     3
140
4.0
141
2.0
147
2.0
172
     1
175
     1
275
     1
277
     4
279
     2
340
A2
341
8D
342
89
  0
DIMSTYLE
105
A8
330
A
100
AcDbSymbolTableRecord
100
AcDbDimStyleTableRecord
  2
ARCTEXT 1-1
 70
     0
 40
0.0
 41
1.0
 42
1.0
 43
0.375
 44
0.1875
 73
     0
 74
     0
 77
     1
 78
     3
140
1.0
141
1.0
147
0.5
176
   256
177
   256
178
   256
277
     4
279
     2
340
A2
341
8D
342
89
  0
ENDTAB
  0
TABLE
  2
BLOCK_RECORD
  5
1
330
0
100
AcDbSymbolTable
 70
    35
  0
BLOCK_RECORD
  5
1F
330
1
100
AcDbSymbolTableRecord
100
AcDbBlockTableRecord
  2
*Model_Space
340
22
  0
BLOCK_RECORD
  5
58
330
1
100
AcDbSymbolTableRecord
100
AcDbBlockTableRecord
  2
*Paper_Space
340
59
  0
BLOCK_RECORD
  5
5D
330
1
100
AcDbSymbolTableRecord
100
AcDbBlockTableRecord
  2
*Paper_Space0
340
5E
  0
BLOCK_RECORD
  5
89
330
1
100
AcDbSymbolTableRecord
100
AcDbBlockTableRecord
  2
_ArchTick
340
0
  0
BLOCK_RECORD
  5
8D
330
1
100
AcDbSymbolTableRecord
100
AcDbBlockTableRecord
  2
arrow
340
0
310
2800000020000000200000000100080000000000000400000000000000000000000000000000000000000000000080000080000000808000800000008000800080800000C0C0C000C0DCC000F0CAA6000020400000206000002080000020A0000020C0000020E00000400000004020000040400000406000004080000040A0
310
000040C0000040E00000600000006020000060400000606000006080000060A0000060C0000060E00000800000008020000080400000806000008080000080A0000080C0000080E00000A0000000A0200000A0400000A0600000A0800000A0A00000A0C00000A0E00000C0000000C0200000C0400000C0600000C0800000C0
310
A00000C0C00000C0E00000E0000000E0200000E0400000E0600000E0800000E0A00000E0C00000E0E00040000000400020004000400040006000400080004000A0004000C0004000E00040200000402020004020400040206000402080004020A0004020C0004020E000404000004040200040404000404060004040800040
310
40A0004040C0004040E00040600000406020004060400040606000406080004060A0004060C0004060E00040800000408020004080400040806000408080004080A0004080C0004080E00040A0000040A0200040A0400040A0600040A0800040A0A00040A0C00040A0E00040C0000040C0200040C0400040C0600040C08000
310
40C0A00040C0C00040C0E00040E0000040E0200040E0400040E0600040E0800040E0A00040E0C00040E0E00080000000800020008000400080006000800080008000A0008000C0008000E00080200000802020008020400080206000802080008020A0008020C0008020E00080400000804020008040400080406000804080
310
008040A0008040C0008040E00080600000806020008060400080606000806080008060A0008060C0008060E00080800000808020008080400080806000808080008080A0008080C0008080E00080A0000080A0200080A0400080A0600080A0800080A0A00080A0C00080A0E00080C0000080C0200080C0400080C0600080C0
310
800080C0A00080C0C00080C0E00080E0000080E0200080E0400080E0600080E0800080E0A00080E0C00080E0E000C0000000C0002000C0004000C0006000C0008000C000A000C000C000C000E000C0200000C0202000C0204000C0206000C0208000C020A000C020C000C020E000C0400000C0402000C0404000C0406000C0
310
408000C040A000C040C000C040E000C0600000C0602000C0604000C0606000C0608000C060A000C060C000C060E000C0800000C0802000C0804000C0806000C0808000C080A000C080C000C080E000C0A00000C0A02000C0A04000C0A06000C0A08000C0A0A000C0A0C000C0A0E000C0C00000C0C02000C0C04000C0C06000
310
C0C08000C0C0A000F0FBFF00A4A0A000808080000000FF0000FF000000FFFF00FF000000FF00FF00FFFF0000FFFFFF0000000000000000000000000000000000000000000000000000000000000000000000000000000000000000000000000000000000000000000000000000000000000000000000000000000000000000
310
0000000000000000000000000000000000000000000000000000000000000000000000000000000000000000000000000000000000000000000000000000000000000000000000000000000000000000000000000000000000000000000000000000000000000000000000000000000000000000000000FA00000000000000
310
000000000000000000000000000000000000000000000000FA00000000000000000000000000000000000000000000000000000000000000FA0000000000000000000000000000000000000000000000000000FAFA000000FA00000000000000000000000000000000000000000000000000000000FAFA00FA000000000000
310
000000000000000000000000000000000000000000000000FAF7F7000000000000000000000000000000000000000000000000000000000000F7F7F7F7F7F70000000000000000000000000000000000000000000000000000F7F7F7F7F7F7F7F7F7F700000000000000000000000000000000000000000000F7F7F7F7F7F7
310
F7F7F7F7F7F7F7F7000000000000000000000000000000000000F7F7F7F7F7F7F7F7F7F7F7F7F7F7F7F7F7F70000000000FAFA00000000000000F7F7F7F7F7F7F7F7F7F7F7F7F7F7F7F7F7F7F7F7F7FAFAFAFA00000000000000F7F7F7F7F7F7F7F7F7F7F7F7F7F7F7F7F7F70000000000000000000000000000F7F7F7F7F7
310
F7F7F7F7F7F7F7F700000000000000000000000000000000000000F7F7F7F7F7F7F7F70000000000000000000000000000000000000000000000FAF7F7F70000000000000000000000000000000000000000000000000000FAFA00FA0000000000000000000000000000000000000000000000000000FAFA000000FA000000
310
00000000000000000000000000000000000000000000000000000000FA00000000000000000000000000000000000000000000000000000000000000FA00000000000000000000000000000000000000000000000000000000000000FA00000000000000000000000000000000000000000000000000000000000000000000
310
00000000000000000000000000000000000000000000000000000000000000000000000000000000000000000000000000000000000000000000000000000000000000000000000000000000000000000000000000000000000000000000000000000000000000000000000000000000000000000000000000000000000000
310
0000000000000000000000000000000000000000000000000000000000000000000000000000000000000000000000000000000000000000
1001
ACAD
1000
DesignCenter Data
1002
{
1070
     1
1070
     1
1002
}
  0
ENDTAB
  0
ENDSEC
  0
SECTION
  2
BLOCKS
  0
BLOCK
  5
20
330
1F
100
AcDbEntity
  8
0
100
AcDbBlockBegin
  2
*Model_Space
 70
     0
 10
0.0
 20
0.0
 30
0.0
  3
*Model_Space
  1

  0
ENDBLK
  5
21
330
1F
100
AcDbEntity
  8
0
100
AcDbBlockEnd
  0
BLOCK
  5
5A
330
58
100
AcDbEntity
 67
     1
  8
0
100
AcDbBlockBegin
  2
*Paper_Space
 70
     0
 10
0.0
 20
0.0
 30
0.0
  3
*Paper_Space
  1

  0
ENDBLK
  5
5B
330
58
100
AcDbEntity
 67
     1
  8
0
100
AcDbBlockEnd
  0
BLOCK
  5
5F
330
5D
100
AcDbEntity
  8
0
100
AcDbBlockBegin
  2
*Paper_Space0
 70
     0
 10
0.0
 20
0.0
 30
0.0
  3
*Paper_Space0
  1

  0
ENDBLK
  5
60
330
5D
100
AcDbEntity
  8
0
100
AcDbBlockEnd
  0
BLOCK
  5
8A
330
89
100
AcDbEntity
  8
0
100
AcDbBlockBegin
  2
_ArchTick
 70
     0
 10
0.0
 20
0.0
 30
0.0
  3
_ArchTick
  1

  0
LWPOLYLINE
  5
8B
330
89
100
AcDbEntity
  8
0
  6
ByBlock
 62
     0
100
AcDbPolyline
 90
        2
 70
     0
 43
0.15
 10
-0.5
 20
-0.5
 10
0.5
 20
0.5
  0
ENDBLK
  5
8C
330
89
100
AcDbEntity
  8
0
100
AcDbBlockEnd
  0
BLOCK
  5
8E
330
8D
100
AcDbEntity
  8
0
100
AcDbBlockBegin
  2
arrow
 70
     0
 10
0.0
 20
0.0
 30
0.0
  3
arrow
  1

  0
HATCH
  5
8F
330
8D
100
AcDbEntity
  8
DIM
 62
   253
100
AcDbHatch
 10
0.0
 20
0.0
 30
0.0
210
0.0
220
0.0
230
1.0
  2
SOLID
 70
     1
 71
     0
 91
        1
 92
        7
 72
     0
 73
     1
 93
        3
 10
-2.0
 20
0.5
 10
-2.0
 20
-0.5
 10
0.0
 20
0.0
 97
        0
 75
     0
 76
     1
 47
0.0337394080685346
 98
        1
 10
-1.103351122172171
 20
0.05064816270351
  0
LWPOLYLINE
  5
90
330
8D
100
AcDbEntity
  8
DIM
370
    15
100
AcDbPolyline
 90
        4
 70
     0
 43
0.0
 10
0.0
 20
0.0
 10
-2.0
 20
-0.5
 10
-2.0
 20
0.5
 10
0.0
 20
0.0
  0
LWPOLYLINE
  5
91
330
8D
100
AcDbEntity
  8
DIM
370
     9
100
AcDbPolyline
 90
        2
 70
     0
 43
0.0
 10
0.3742552490839444
 20
0.0935638122700766
 10
0.0
 20
0.0
  0
LWPOLYLINE
  5
92
330
8D
100
AcDbEntity
  8
DIM
370
     9
100
AcDbPolyline
 90
        3
 70
     0
 43
0.0
 10
-2.0
 20
-0.9831764405007561
 10
-2.0
 20
-0.5
 10
-2.46875
 20
-0.6171875
  0
LWPOLYLINE
  5
93
330
8D
100
AcDbEntity
  8
DIM
370
     9
100
AcDbPolyline
 90
        3
 70
     0
 43
0.0
 10
-2.0
 20
0.9831764405007561
 10
-2.0
 20
0.5
 10
-2.46875
 20
0.6171875
  0
LWPOLYLINE
  5
94
330
8D
100
AcDbEntity
  8
DIM
370
     9
100
AcDbPolyline
 90
        2
 70
     0
 43
0.0
 10
0.3742552490839444
 20
-0.0935638122700766
 10
0.0
 20
0.0
  0
ENDBLK
  5
95
330
8D
100
AcDbEntity
  8
0
100
AcDbBlockEnd
  0
ENDSEC
  0
SECTION
  2
ENTITIES
  0
LINE
  5
D9E9
330
1F
100
AcDbEntity
  8
0
 62
     1
100
AcDbLine
 10
-216.6557352519064
 20
338.0464968498155
 30
0.0
 11
-214.6557352519064
 21
338.0464968498155
 31
0.0
  0
LINE
  5
D9EA
330
1F
100
AcDbEntity
  8
0
  6
HIDDEN
 62
     1
 48
0.02
100
AcDbLine
 10
-216.3057352519061
 20
338.5464968498155
 30
0.0
 11
-215.6807352519061
 21
338.5464968498155
 31
0.0
  0
LINE
  5
D9EB
330
1F
100
AcDbEntity
  8
0
  6
HIDDEN
 62
     1
 48
0.02
100
AcDbLine
 10
-215.2807352519064
 20
338.5464968498155
 30
0.0
 11
-215.2807352519064
 21
338.0464968498155
 31
0.0
  0
LINE
  5
D9EC
330
1F
100
AcDbEntity
  8
0
  6
HIDDEN
 62
     1
 48
0.02
100
AcDbLine
 10
-215.6807352519061
 20
338.5464968498155
 30
0.0
 11
-215.6807352519042
 21
338.0464968498155
 31
0.0
  0
LINE
  5
D9ED
330
1F
100
AcDbEntity
  8
0
  6
HIDDEN
 62
     1
 48
0.02
100
AcDbLine
 10
-215.2807352519064
 20
338.5464968498155
 30
0.0
 11
-214.6557352519064
 21
338.5464968498155
 31
0.0
  0
LINE
  5
D9EE
330
1F
100
AcDbEntity
  8
0
 62
     1
100
AcDbLine
 10
-206.6557352519065
 20
338.0464968498155
 30
0.0
 11
-204.6557352519065
 21
338.0464968498155
 31
0.0
  0
LINE
  5
D9EF
330
1F
100
AcDbEntity
  8
0
  6
HIDDEN
 62
     1
 48
0.02
100
AcDbLine
 10
-205.005735251905
 20
338.5464968498155
 30
0.0
 11
-205.005735251905
 21
338.0464968498155
 31
0.0
  0
LINE
  5
D9F0
330
1F
100
AcDbEntity
  8
0
  6
HIDDEN
 62
     1
 48
0.02
100
AcDbLine
 10
-206.0307352519046
 20
338.5464968498155
 30
0.0
 11
-206.0307352519046
 21
338.0464968498155
 31
0.0
  0
LINE
  5
D9F1
330
1F
100
AcDbEntity
  8
0
  6
HIDDEN
 62
     1
 48
0.02
100
AcDbLine
 10
-205.630735251905
 20
338.5464968498155
 30
0.0
 11
-205.630735251905
 21
338.0464968498155
 31
0.0
  0
LINE
  5
D9F2
330
1F
100
AcDbEntity
  8
0
  6
HIDDEN
 62
     1
 48
0.02
100
AcDbLine
 10
-206.6557352519028
 20
338.5464968498155
 30
0.0
 11
-206.0307352519028
 21
338.5464968498155
 31
0.0
  0
LINE
  5
D9F3
330
1F
100
AcDbEntity
  8
0
  6
HIDDEN
 62
     1
 48
0.02
100
AcDbLine
 10
-205.630735251905
 20
338.5464968498155
 30
0.0
 11
-205.005735251905
 21
338.5464968498155
 31
0.0
  0
LINE
  5
D9F4
330
1F
100
AcDbEntity
  8
0
 62
     1
100
AcDbLine
 10
-216.6557352519064
 20
338.0464968498155
 30
0.0
 11
-216.6557352519064
 21
326.0464968498155
 31
0.0
  0
LINE
  5
D9F5
330
1F
100
AcDbEntity
  8
0
 62
     1
100
AcDbLine
 10
-216.6557352519064
 20
338.0464968498155
 30
0.0
 11
-215.1057352519071
 21
338.0464968498155
 31
0.0
  0
LINE
  5
D9F6
330
1F
100
AcDbEntity
  8
0
 62
     1
100
AcDbLine
 10
-216.6557352519064
 20
326.0464968498155
 30
0.0
 11
-214.6557352519064
 21
326.0464968498155
 31
0.0
  0
LINE
  5
D9F7
330
1F
100
AcDbEntity
  8
0
 62
     1
100
AcDbLine
 10
-214.6557352519064
 20
338.5464968498155
 30
0.0
 11
-214.6557352519064
 21
326.0464968498155
 31
0.0
  0
LINE
  5
D9F8
330
1F
100
AcDbEntity
  8
0
 62
     1
100
AcDbLine
 10
-216.3057352519061
 20
338.5464968498155
 30
0.0
 11
-215.6807352519061
 21
338.5464968498155
 31
0.0
  0
LINE
  5
D9F9
330
1F
100
AcDbEntity
  8
0
 62
     1
100
AcDbLine
 10
-216.3057352519061
 20
338.5464968498155
 30
0.0
 11
-216.3057352519061
 21
326.0464968498155
 31
0.0
  0
LINE
  5
D9FA
330
1F
100
AcDbEntity
  8
0
 62
     1
100
AcDbLine
 10
-215.2807352519064
 20
338.5464968498155
 30
0.0
 11
-215.2807352519064
 21
338.0464968498155
 31
0.0
  0
LINE
  5
D9FB
330
1F
100
AcDbEntity
  8
0
 62
     1
100
AcDbLine
 10
-215.6807352519061
 20
338.5464968498155
 30
0.0
 11
-215.6807352519042
 21
338.0464968498155
 31
0.0
  0
LINE
  5
D9FC
330
1F
100
AcDbEntity
  8
0
 62
     1
100
AcDbLine
 10
-215.2807352519064
 20
338.5464968498155
 30
0.0
 11
-214.6557352519064
 21
338.5464968498155
 31
0.0
  0
LINE
  5
D9FD
330
1F
100
AcDbEntity
  8
0
 62
     1
100
AcDbLine
 10
-214.8557352519071
 20
338.2964968498155
 30
0.0
 11
-214.8557352519071
 21
326.0464968498155
 31
0.0
  0
LINE
  5
D9FE
330
1F
100
AcDbEntity
  8
0
 62
     1
100
AcDbLine
 10
-215.1057352519071
 20
338.2964968498155
 30
0.0
 11
-215.1057352519071
 21
338.0464968498155
 31
0.0
  0
LINE
  5
D9FF
330
1F
100
AcDbEntity
  8
0
 62
     1
100
AcDbLine
 10
-215.1057352519071
 20
338.2964968498155
 30
0.0
 11
-214.8557352519071
 21
338.2964968498155
 31
0.0
  0
LINE
  5
DA00
330
1F
100
AcDbEntity
  8
0
 62
     1
100
AcDbLine
 10
-214.8557352519071
 20
338.0464968498155
 30
0.0
 11
-214.6557352519064
 21
338.0464968498155
 31
0.0
  0
LINE
  5
DA01
330
1F
100
AcDbEntity
  8
0
 48
0.15
100
AcDbLine
 10
-215.6807352519061
 20
338.0464968498155
 30
0.0
 11
-215.2807352519064
 21
338.0464968498155
 31
0.0
  0
LINE
  5
DA02
330
1F
100
AcDbEntity
  8
A2 Hatch
  6
DASHED2
 48
0.15
100
AcDbLine
 10
-215.890735251907
 20
338.5464968498155
 30
0.0
 11
-215.890735251907
 21
326.0464968498155
 31
0.0
  0
LINE
  5
DA03
330
1F
100
AcDbEntity
  8
A2 Hatch
  6
DASHED2
 48
0.15
100
AcDbLine
 10
-215.0707352519073
 20
338.5464968498155
 30
0.0
 11
-215.0707352519073
 21
326.0464968498155
 31
0.0
  0
LINE
  5
DA04
330
1F
100
AcDbEntity
  8
0
 62
     1
100
AcDbLine
 10
-215.7307352519072
 20
338.5464968498155
 30
0.0
 11
-215.7307352519072
 21
326.0464968498155
 31
0.0
  0
LINE
  5
DA05
330
1F
100
AcDbEntity
  8
0
 62
     1
100
AcDbLine
 10
-215.2307352519072
 20
338.5464968498155
 30
0.0
 11
-215.2307352519072
 21
326.0464968498155
 31
0.0
  0
LINE
  5
DA06
330
1F
100
AcDbEntity
  8
0
 62
     1
100
AcDbLine
 10
-215.2307352519072
 20
338.0464968498155
 30
0.0
 11
-215.7307352519072
 21
338.0464968498155
 31
0.0
  0
LINE
  5
DA07
330
1F
100
AcDbEntity
  8
0
  6
HIDDEN
 62
     1
 48
0.02
100
AcDbLine
 10
-216.3057352519061
 20
326.5464968498155
 30
0.0
 11
-215.6807352519061
 21
326.5464968498155
 31
0.0
  0
LINE
  5
DA08
330
1F
100
AcDbEntity
  8
0
  6
HIDDEN
 62
     1
 48
0.02
100
AcDbLine
 10
-215.2807352519064
 20
326.5464968498155
 30
0.0
 11
-215.2807352519064
 21
326.0464968498155
 31
0.0
  0
LINE
  5
DA09
330
1F
100
AcDbEntity
  8
0
  6
HIDDEN
 62
     1
 48
0.02
100
AcDbLine
 10
-215.6807352519061
 20
326.5464968498155
 30
0.0
 11
-215.6807352519042
 21
326.0464968498155
 31
0.0
  0
LINE
  5
DA0A
330
1F
100
AcDbEntity
  8
0
  6
HIDDEN
 62
     1
 48
0.02
100
AcDbLine
 10
-215.2807352519064
 20
326.5464968498155
 30
0.0
 11
-214.6557352519064
 21
326.5464968498155
 31
0.0
  0
LINE
  5
DA0B
330
1F
100
AcDbEntity
  8
0
 62
     1
100
AcDbLine
 10
-204.6557352519065
 20
338.0464968498155
 30
0.0
 11
-204.6557352519065
 21
326.0464968498155
 31
0.0
  0
LINE
  5
DA0C
330
1F
100
AcDbEntity
  8
0
 62
     1
100
AcDbLine
 10
-206.6557352519065
 20
338.5464968498155
 30
0.0
 11
-206.6557352519065
 21
326.0464968498155
 31
0.0
  0
LINE
  5
DA0D
330
1F
100
AcDbEntity
  8
0
 62
     1
100
AcDbLine
 10
-205.005735251905
 20
338.5464968498155
 30
0.0
 11
-205.005735251905
 21
338.0464968498155
 31
0.0
  0
LINE
  5
DA0E
330
1F
100
AcDbEntity
  8
0
 62
     1
100
AcDbLine
 10
-206.0307352519064
 20
338.5464968498155
 30
0.0
 11
-206.0307352519064
 21
338.0464968498155
 31
0.0
  0
LINE
  5
DA0F
330
1F
100
AcDbEntity
  8
0
 62
     1
100
AcDbLine
 10
-205.630735251905
 20
338.5464968498155
 30
0.0
 11
-205.630735251905
 21
338.0464968498155
 31
0.0
  0
LINE
  5
DA10
330
1F
100
AcDbEntity
  8
0
 62
     1
100
AcDbLine
 10
-206.6557352519065
 20
338.5464968498155
 30
0.0
 11
-206.0307352519064
 21
338.5464968498155
 31
0.0
  0
LINE
  5
DA11
330
1F
100
AcDbEntity
  8
0
 62
     1
100
AcDbLine
 10
-205.630735251905
 20
338.5464968498155
 30
0.0
 11
-205.005735251905
 21
338.5464968498155
 31
0.0
  0
LINE
  5
DA12
330
1F
100
AcDbEntity
  8
0
 62
     1
100
AcDbLine
 10
-206.4557352519057
 20
338.2964968498155
 30
0.0
 11
-206.4557352519057
 21
326.0464968498155
 31
0.0
  0
LINE
  5
DA13
330
1F
100
AcDbEntity
  8
0
 62
     1
100
AcDbLine
 10
-206.2057352519057
 20
338.2964968498155
 30
0.0
 11
-206.2057352519057
 21
338.0464968498155
 31
0.0
  0
LINE
  5
DA14
330
1F
100
AcDbEntity
  8
0
 62
     1
100
AcDbLine
 10
-206.4557352519057
 20
338.2964968498155
 30
0.0
 11
-206.2057352519057
 21
338.2964968498155
 31
0.0
  0
LINE
  5
DA15
330
1F
100
AcDbEntity
  8
0
 62
     1
100
AcDbLine
 10
-206.2407352519056
 20
338.0464968498155
 30
0.0
 11
-204.6557352519065
 21
338.0464968498155
 31
0.0
  0
LINE
  5
DA16
330
1F
100
AcDbEntity
  8
0
 62
     1
100
AcDbLine
 10
-206.2407352519056
 20
338.0464968498155
 30
0.0
 11
-206.2407352519056
 21
326.0464968498155
 31
0.0
  0
LINE
  5
DA17
330
1F
100
AcDbEntity
  8
0
 62
     1
100
AcDbLine
 10
-205.4207352519059
 20
338.0464968498155
 30
0.0
 11
-205.4207352519059
 21
326.0464968498155
 31
0.0
  0
LINE
  5
DA18
330
1F
100
AcDbEntity
  8
A2 Hatch
  6
DASHED2
 48
0.15
100
AcDbLine
 10
-206.0807352519057
 20
338.0464968498155
 30
0.0
 11
-206.0807352519057
 21
326.0464968498155
 31
0.0
  0
LINE
  5
DA19
330
1F
100
AcDbEntity
  8
A2 Hatch
  6
DASHED2
 48
0.15
100
AcDbLine
 10
-205.5807352519057
 20
338.0464968498155
 30
0.0
 11
-205.5807352519057
 21
326.0464968498155
 31
0.0
  0
LINE
  5
DA1A
330
1F
100
AcDbEntity
  8
0
 62
     1
100
AcDbLine
 10
-206.6557352519065
 20
338.0464968498155
 30
0.0
 11
-206.4557352519057
 21
338.0464968498155
 31
0.0
  0
LINE
  5
DA1B
330
1F
100
AcDbEntity
  8
0
 62
     1
100
AcDbLine
 10
-206.6557352519065
 20
326.0464968498155
 30
0.0
 11
-204.6557352519065
 21
326.0464968498155
 31
0.0
  0
LINE
  5
DA1C
330
1F
100
AcDbEntity
  8
0
  6
HIDDEN
 62
     1
 48
0.02
100
AcDbLine
 10
-205.005735251905
 20
326.5464968498155
 30
0.0
 11
-205.005735251905
 21
326.0464968498155
 31
0.0
  0
LINE
  5
DA1D
330
1F
100
AcDbEntity
  8
0
  6
HIDDEN
 62
     1
 48
0.02
100
AcDbLine
 10
-206.0307352519046
 20
326.5464968498155
 30
0.0
 11
-206.0307352519046
 21
326.0464968498155
 31
0.0
  0
LINE
  5
DA1E
330
1F
100
AcDbEntity
  8
0
  6
HIDDEN
 62
     1
 48
0.02
100
AcDbLine
 10
-205.630735251905
 20
326.5464968498155
 30
0.0
 11
-205.630735251905
 21
326.0464968498155
 31
0.0
  0
LINE
  5
DA1F
330
1F
100
AcDbEntity
  8
0
  6
HIDDEN
 62
     1
 48
0.02
100
AcDbLine
 10
-206.6557352519028
 20
326.5464968498155
 30
0.0
 11
-206.0307352519028
 21
326.5464968498155
 31
0.0
  0
LINE
  5
DA20
330
1F
100
AcDbEntity
  8
0
  6
HIDDEN
 62
     1
 48
0.02
100
AcDbLine
 10
-205.630735251905
 20
326.5464968498155
 30
0.0
 11
-205.005735251905
 21
326.5464968498155
 31
0.0
  0
LWPOLYLINE
  5
DA21
330
1F
100
AcDbEntity
  8
DETAILS
 62
     6
370
    20
100
AcDbPolyline
 90
        2
 70
     1
 43
0.0
 10
-210.3074884895375
 20
329.1964968498153
 10
-210.3256577881637
 20
329.1964968498156
  0
LWPOLYLINE
  5
DA22
330
1F
100
AcDbEntity
  8
DETAILS
 62
     6
370
    20
100
AcDbPolyline
 90
        6
 70
     0
 43
0.0
 10
-206.6557352519065
 20
328.9971283578057
 10
-207.0258144220386
 20
329.3672075279342
 42
0.1989123673782988
 10
-207.096525100156
 20
329.3964968498154
 10
-210.6557352519064
 20
329.3964968498154
 42
-0.2793220653060733
 10
-210.3699780239347
 20
329.2233512951366
 42
0.279322065306064
 10
-210.3256577881637
 20
329.1964968498151
  0
LWPOLYLINE
  5
DA23
330
1F
100
AcDbEntity
  8
DETAILS
 62
     6
370
    20
100
AcDbPolyline
 90
        2
 70
     1
 43
0.0
 10
-210.2074884895389
 20
329.1964968498156
 10
-208.8074884895375
 20
329.1964968498156
  0
LWPOLYLINE
  5
DA24
330
1F
100
AcDbEntity
  8
DETAILS
 62
     6
370
    20
100
AcDbPolyline
 90
        6
 70
     0
 43
0.0
 10
-210.2074884895389
 20
329.3964968498154
 10
-210.2074884895389
 20
328.5664968498155
 42
0.4142135623730951
 10
-210.0074884895382
 20
328.3664968498152
 10
-209.1651237292114
 20
328.3664968498152
 42
0.3464949689054693
 10
-208.9706956553635
 20
328.519616959673
 10
-208.7592651139583
 20
329.3964968498154
  0
LWPOLYLINE
  5
DA25
330
1F
100
AcDbEntity
  8
DETAILS
 62
     6
370
    20
100
AcDbPolyline
 90
        6
 70
     0
 43
0.0
 10
-210.3074884895393
 20
329.3964968498154
 10
-210.3074884895375
 20
328.5664968498155
 42
0.4142135623730951
 10
-210.0074884895382
 20
328.2664968498153
 10
-209.1651237292114
 20
328.2664968498153
 42
0.3464949689054693
 10
-208.8734816184385
 20
328.4961770146015
 10
-208.6563993106627
 20
329.3964968498154
  0
LWPOLYLINE
  5
DA26
330
1F
100
AcDbEntity
  8
DETAILS
 62
     6
370
    20
100
AcDbPolyline
 90
        2
 70
     1
 43
0.0
 10
-208.7046226862419
 20
329.1964968498153
 10
-208.6864533876158
 20
329.1964968498156
  0
LWPOLYLINE
  5
DA27
330
1F
100
AcDbEntity
  8
DETAILS
 62
     6
370
    20
100
AcDbPolyline
 90
        6
 70
     0
 43
0.0
 10
-208.6864533876158
 20
329.1964968498151
 42
0.279322065306064
 10
-208.6421331508879
 20
329.2233512946353
 42
-0.6059183769079624
 10
-208.0706186959048
 20
329.2233512951366
 42
0.2793220653054726
 10
-208.0262984601375
 20
329.1964968498153
 10
-207.9331291615069
 20
329.1964968498153
 10
-208.0262984601375
 20
329.1964968498153
  0
LWPOLYLINE
  5
DA28
330
1F
100
AcDbEntity
  8
DETAILS
 62
     6
370
    20
100
AcDbPolyline
 90
        7
 70
     0
 43
0.0
 10
-207.5051037439205
 20
329.3964968498154
 10
-207.4051037439201
 20
329.3964968498154
 10
-207.1551037439201
 20
329.3964968498154
 10
-207.7511802416427
 20
329.3964968498154
 10
-207.9416992474632
 20
328.6063447564361
 42
0.4853378929632635
 10
-207.7764353846922
 20
328.3964968498154
 10
-206.6557352519065
 20
328.3964968498154
  0
LWPOLYLINE
  5
DA29
330
1F
100
AcDbEntity
  8
DETAILS
 62
     6
370
    20
100
AcDbPolyline
 90
        4
 70
     0
 43
0.0
 10
-207.8849057859277
 20
329.3964968498154
 10
-208.0680774954651
 20
328.6368166850289
 42
0.4853378929632635
 10
-207.7764353846922
 20
328.2664968498153
 10
-206.6557352519065
 20
328.2664968498153
  0
LWPOLYLINE
  5
DA2A
330
1F
100
AcDbEntity
  8
DETAILS
 62
     6
370
    20
100
AcDbPolyline
 90
       10
 70
     1
 43
0.0
 10
-210.6557352519046
 20
329.4464968498151
 10
-207.5051037439205
 20
329.4464968498151
 10
-207.4073761370453
 20
329.4685864223148
 42
0.7807764064044151
 10
-207.4073761370453
 20
329.4744072773156
 10
-207.5051037439205
 20
329.4964968498153
 10
-210.6557352519064
 20
329.4964968498153
 10
-213.8063667598906
 20
329.4964968498153
 10
-213.9040943667658
 20
329.4744072773156
 42
0.7807764064044151
 10
-213.9040943667658
 20
329.4685864223148
 10
-213.8063667598887
 20
329.4464968498151
  0
LWPOLYLINE
  5
DA2B
330
1F
100
AcDbEntity
  8
DETAILS
 62
     6
370
    20
100
AcDbPolyline
 90
        7
 70
     0
 43
0.0
 10
-214.6557352519064
 20
330.2458653418267
 10
-214.2856560817725
 20
329.8757861716964
 42
0.1989123673781765
 10
-214.2149454036533
 20
329.8464968498154
 10
-210.6557352519064
 20
329.8464968498152
 10
-207.096525100156
 20
329.8464968498154
 42
0.1989123673781768
 10
-207.0258144220386
 20
329.8757861716964
 10
-206.6557352519065
 20
330.2458653418244
  0
LWPOLYLINE
  5
DA2C
330
1F
100
AcDbEntity
  8
DETAILS
 62
     6
370
    20
100
AcDbPolyline
 90
        7
 70
     0
 43
0.0
 10
-214.6557352519064
 20
330.4458653418258
 10
-214.402813369297
 20
330.1929434592196
 42
0.1989123673777967
 10
-214.0492599787064
 20
330.0464968498155
 10
-210.6557352519046
 20
330.0464968498155
 10
-207.2622105251046
 20
330.0464968498155
 42
0.1989123673777968
 10
-206.9086571345122
 20
330.1929434592196
 10
-206.6557352519065
 20
330.4458653418231
  0
LWPOLYLINE
  5
DA2D
330
1F
100
AcDbEntity
  8
DETAILS
 62
     6
370
    20
100
AcDbPolyline
 90
        4
 70
     0
 43
0.0
 10
-206.6557352519065
 20
328.7971283578036
 10
-206.908657134514
 20
329.0500502404098
 42
0.1989123673788307
 10
-207.2622105251046
 20
329.1964968498153
 10
-207.799403617222
 20
329.1964968498156
  0
LWPOLYLINE
  5
DA2E
330
1F
100
AcDbEntity
  8
DETAILS
 62
     6
370
    20
100
AcDbPolyline
 90
        4
 70
     0
 43
0.0
 10
-206.6557352519065
 20
329.9958653418272
 10
-206.9240377267413
 20
329.7275628669941
 42
0.4142135623745727
 10
-206.9240377267431
 20
329.5154308326374
 10
-206.6557352519065
 20
329.247128357803
  0
LWPOLYLINE
  5
DA2F
330
1F
100
AcDbEntity
  8
DETAILS
 62
     6
370
    20
100
AcDbPolyline
 90
        6
 70
     1
 43
0.0
 10
-210.6557352519064
 20
329.5464968498155
 10
-207.1551037439201
 20
329.5464968498155
 10
-207.1551037439201
 20
329.6964968498153
 10
-210.6557352519064
 20
329.6964968498155
 10
-214.156366759891
 20
329.6964968498155
 10
-214.156366759891
 20
329.5464968498152
  0
LWPOLYLINE
  5
DA30
330
1F
100
AcDbEntity
  8
DETAILS
 62
     6
370
    20
100
AcDbPolyline
 90
        2
 70
     1
 43
0.0
 10
-210.3074884895375
 20
335.3964968498154
 10
-210.3256577881637
 20
335.3964968498154
  0
LWPOLYLINE
  5
DA31
330
1F
100
AcDbEntity
  8
DETAILS
 62
     6
370
    20
100
AcDbPolyline
 90
        6
 70
     0
 43
0.0
 10
-210.3256577881637
 20
335.3964968498154
 42
0.279322065306064
 10
-210.3699780248951
 20
335.3696424049954
 42
-0.2793220653060733
 10
-210.6557352519064
 20
335.1964968498156
 10
-207.096525100156
 20
335.1964968498156
 42
0.1989123673782991
 10
-207.0258144220386
 20
335.2257861716962
 10
-206.6557352519065
 20
335.5958653418248
  0
LWPOLYLINE
  5
DA32
330
1F
100
AcDbEntity
  8
DETAILS
 62
     6
370
    20
100
AcDbPolyline
 90
        2
 70
     1
 43
0.0
 10
-210.2074884895389
 20
335.3964968498154
 10
-208.8074884895375
 20
335.3964968498154
  0
LWPOLYLINE
  5
DA33
330
1F
100
AcDbEntity
  8
DETAILS
 62
     6
370
    20
100
AcDbPolyline
 90
        6
 70
     0
 43
0.0
 10
-208.7592651139583
 20
335.1964968498156
 10
-208.9706956553635
 20
336.073376739958
 42
0.3464949689054692
 10
-209.1651237292114
 20
336.2264968498153
 10
-210.0074884895382
 20
336.2264968498153
 42
0.4142135623730951
 10
-210.2074884895389
 20
336.0264968498155
 10
-210.2074884895389
 20
335.1964968498156
  0
LWPOLYLINE
  5
DA34
330
1F
100
AcDbEntity
  8
DETAILS
 62
     6
370
    20
100
AcDbPolyline
 90
        6
 70
     0
 43
0.0
 10
-208.6563993106627
 20
335.1964968498156
 10
-208.8734816184385
 20
336.096816685029
 42
0.3464949689054692
 10
-209.1651237292114
 20
336.3264968498155
 10
-210.0074884895382
 20
336.3264968498155
 42
0.4142135623730951
 10
-210.3074884895375
 20
336.0264968498155
 10
-210.3074884895393
 20
335.1964968498156
  0
LWPOLYLINE
  5
DA35
330
1F
100
AcDbEntity
  8
DETAILS
 62
     6
370
    20
100
AcDbPolyline
 90
        2
 70
     1
 43
0.0
 10
-208.7046226862419
 20
335.3964968498154
 10
-208.6864533876158
 20
335.3964968498154
  0
LWPOLYLINE
  5
DA36
330
1F
100
AcDbEntity
  8
DETAILS
 62
     6
370
    20
100
AcDbPolyline
 90
        6
 70
     0
 43
0.0
 10
-208.0262984601375
 20
335.3964968498154
 10
-207.9331291615087
 20
335.3964968498154
 10
-208.0262984601375
 20
335.3964968498154
 42
0.2793220653054726
 10
-208.0706186968653
 20
335.3696424049954
 42
-0.6059183769079625
 10
-208.6421331518466
 20
335.3696424044943
 42
0.279322065306064
 10
-208.6864533876158
 20
335.3964968498154
  0
LWPOLYLINE
  5
DA37
330
1F
100
AcDbEntity
  8
DETAILS
 62
     6
370
    20
100
AcDbPolyline
 90
        7
 70
     0
 43
0.0
 10
-206.6557352519065
 20
336.1964968498156
 10
-207.7764353846922
 20
336.1964968498156
 42
0.4853378929632635
 10
-207.9416992474632
 20
335.9866489431948
 10
-207.7511802416427
 20
335.1964968498156
 10
-207.1551037439201
 20
335.1964968498156
 10
-207.4051037439219
 20
335.1964968498156
 10
-207.5051037439205
 20
335.1964968498156
  0
LWPOLYLINE
  5
DA38
330
1F
100
AcDbEntity
  8
DETAILS
 62
     6
370
    20
100
AcDbPolyline
 90
        4
 70
     0
 43
0.0
 10
-206.6557352519065
 20
336.3264968498152
 10
-207.7764353846922
 20
336.3264968498155
 42
0.4853378929632635
 10
-208.0680774954651
 20
335.956177014602
 10
-207.8849057859277
 20
335.1964968498156
  0
LWPOLYLINE
  5
DA39
330
1F
100
AcDbEntity
  8
DETAILS
 62
     6
370
    20
100
AcDbPolyline
 90
       10
 70
     1
 43
0.0
 10
-210.6557352519064
 20
335.1464968498154
 10
-213.8063667598887
 20
335.1464968498154
 10
-213.9040943667658
 20
335.1244072773157
 42
0.7807764064044151
 10
-213.9040943667658
 20
335.1185864223149
 10
-213.8063667598906
 20
335.0964968498154
 10
-210.6557352519064
 20
335.0964968498157
 10
-207.5051037439205
 20
335.0964968498154
 10
-207.4073761370453
 20
335.1185864223149
 42
0.7807764064044151
 10
-207.4073761370453
 20
335.1244072773157
 10
-207.5051037439205
 20
335.1464968498154
  0
LWPOLYLINE
  5
DA3A
330
1F
100
AcDbEntity
  8
DETAILS
 62
     6
370
    20
100
AcDbPolyline
 90
        7
 70
     0
 43
0.0
 10
-206.6557352519065
 20
334.3471283578065
 10
-207.0258144220386
 20
334.7172075279344
 42
0.1989123673781766
 10
-207.096525100156
 20
334.7464968498153
 10
-210.6557352519064
 20
334.7464968498153
 10
-214.2149454036533
 20
334.7464968498153
 42
0.1989123673781765
 10
-214.2856560817725
 20
334.7172075279344
 10
-214.6557352519064
 20
334.3471283578038
  0
LWPOLYLINE
  5
DA3B
330
1F
100
AcDbEntity
  8
DETAILS
 62
     6
370
    20
100
AcDbPolyline
 90
        7
 70
     0
 43
0.0
 10
-206.6557352519065
 20
334.1471283578081
 10
-206.9086571345122
 20
334.4000502404111
 42
0.1989123673777966
 10
-207.2622105251046
 20
334.5464968498155
 10
-210.6557352519064
 20
334.5464968498155
 10
-214.0492599787064
 20
334.5464968498155
 42
0.1989123673777966
 10
-214.402813369297
 20
334.4000502404111
 10
-214.6557352519064
 20
334.1471283578044
  0
LWPOLYLINE
  5
DA3C
330
1F
100
AcDbEntity
  8
DETAILS
 62
     6
370
    20
100
AcDbPolyline
 90
        4
 70
     0
 43
0.0
 10
-207.799403617222
 20
335.3964968498154
 10
-207.2622105251046
 20
335.3964968498154
 42
0.1989123673788307
 10
-206.908657134514
 20
335.5429434592211
 10
-206.6557352519065
 20
335.7958653418264
  0
LWPOLYLINE
  5
DA3D
330
1F
100
AcDbEntity
  8
DETAILS
 62
     6
370
    20
100
AcDbPolyline
 90
        4
 70
     0
 43
0.0
 10
-206.6557352519065
 20
335.345865341828
 10
-206.9240377267431
 20
335.0775628669931
 42
0.4142135623745727
 10
-206.9240377267413
 20
334.8654308326368
 10
-206.6557352519065
 20
334.597128357804
  0
LWPOLYLINE
  5
DA3E
330
1F
100
AcDbEntity
  8
DETAILS
 62
     6
370
    20
100
AcDbPolyline
 90
        6
 70
     1
 43
0.0
 10
-210.6557352519064
 20
335.0464968498155
 10
-207.1551037439201
 20
335.0464968498155
 10
-207.1551037439201
 20
334.8964968498154
 10
-210.6557352519064
 20
334.8964968498154
 10
-214.156366759891
 20
334.8964968498154
 10
-214.156366759891
 20
335.0464968498155
  0
LWPOLYLINE
  5
DA3F
330
1F
100
AcDbEntity
  8
DETAILS
 62
     6
370
    20
100
AcDbPolyline
 90
        2
 70
     1
 43
0.0
 10
-211.0039820142717
 20
329.1964968498153
 10
-210.9858127156456
 20
329.1964968498156
  0
LWPOLYLINE
  5
DA40
330
1F
100
AcDbEntity
  8
DETAILS
 62
     6
370
    20
100
AcDbPolyline
 90
        6
 70
     0
 43
0.0
 10
-210.9858127156456
 20
329.1964968498151
 42
0.279322065306064
 10
-210.9414924789178
 20
329.2233512946353
 42
-0.2793220653060734
 10
-210.6557352519064
 20
329.3964968498154
 10
-214.2149454036533
 20
329.3964968498154
 42
0.1989123673782987
 10
-214.2856560817725
 20
329.3672075279342
 10
-214.6557352519064
 20
328.9971283578034
  0
LWPOLYLINE
  5
DA41
330
1F
100
AcDbEntity
  8
DETAILS
 62
     6
370
    20
100
AcDbPolyline
 90
        2
 70
     1
 43
0.0
 10
-211.1039820142703
 20
329.1964968498156
 10
-212.5039820142717
 20
329.1964968498156
  0
LWPOLYLINE
  5
DA42
330
1F
100
AcDbEntity
  8
DETAILS
 62
     6
370
    20
100
AcDbPolyline
 90
        6
 70
     0
 43
0.0
 10
-212.552205389851
 20
329.3964968498154
 10
-212.3407748484476
 20
328.519616959673
 42
0.3464949689054692
 10
-212.1463467745978
 20
328.3664968498152
 10
-211.303982014271
 20
328.3664968498152
 42
0.4142135623730951
 10
-211.1039820142703
 20
328.5664968498155
 10
-211.1039820142703
 20
329.3964968498154
  0
LWPOLYLINE
  5
DA43
330
1F
100
AcDbEntity
  8
DETAILS
 62
     6
370
    20
100
AcDbPolyline
 90
        6
 70
     0
 43
0.0
 10
-212.6550711931502
 20
329.3964968498154
 10
-212.4379888853707
 20
328.4961770146015
 42
0.3464949689054692
 10
-212.1463467745978
 20
328.2664968498153
 10
-211.303982014271
 20
328.2664968498153
 42
0.4142135623730951
 10
-211.0039820142717
 20
328.5664968498155
 10
-211.0039820142717
 20
329.3964968498154
  0
LWPOLYLINE
  5
DA44
330
1F
100
AcDbEntity
  8
DETAILS
 62
     6
370
    20
100
AcDbPolyline
 90
        2
 70
     1
 43
0.0
 10
-212.6068478175692
 20
329.1964968498153
 10
-212.6250171161935
 20
329.1964968498156
  0
LWPOLYLINE
  5
DA45
330
1F
100
AcDbEntity
  8
DETAILS
 62
     6
370
    20
100
AcDbPolyline
 90
        6
 70
     0
 43
0.0
 10
-213.2851720436754
 20
329.1964968498153
 10
-213.3783413423023
 20
329.1964968498153
 10
-213.2851720436754
 20
329.1964968498153
 42
0.2793220653054726
 10
-213.2408518069458
 20
329.2233512946355
 42
-0.6059183769079624
 10
-212.6693373519645
 20
329.2233512951366
 42
0.279322065306064
 10
-212.6250171161935
 20
329.1964968498151
  0
LWPOLYLINE
  5
DA46
330
1F
100
AcDbEntity
  8
DETAILS
 62
     6
370
    20
100
AcDbPolyline
 90
        7
 70
     0
 43
0.0
 10
-214.6557352519064
 20
328.3964968498154
 10
-213.5350351191171
 20
328.3964968498154
 42
0.4853378929632635
 10
-213.369771256346
 20
328.6063447564361
 10
-213.5602902621702
 20
329.3964968498154
 10
-214.156366759891
 20
329.3964968498154
 10
-213.906366759891
 20
329.3964968498154
 10
-213.8063667598887
 20
329.3964968498154
  0
LWPOLYLINE
  5
DA47
330
1F
100
AcDbEntity
  8
DETAILS
 62
     6
370
    20
100
AcDbPolyline
 90
        4
 70
     0
 43
0.0
 10
-214.6557352519064
 20
328.2664968498153
 10
-213.5350351191171
 20
328.2664968498153
 42
0.4853378929632635
 10
-213.2433930083441
 20
328.6368166850289
 10
-213.4265647178815
 20
329.3964968498154
  0
LWPOLYLINE
  5
DA48
330
1F
100
AcDbEntity
  8
DETAILS
 62
     6
370
    20
100
AcDbPolyline
 90
        4
 70
     0
 43
0.0
 10
-213.5120668865891
 20
329.1964968498156
 10
-214.0492599787046
 20
329.1964968498153
 42
0.1989123673788306
 10
-214.402813369297
 20
329.0500502404098
 10
-214.6557352519064
 20
328.7971283578016
  0
LWPOLYLINE
  5
DA49
330
1F
100
AcDbEntity
  8
DETAILS
 62
     6
370
    20
100
AcDbPolyline
 90
        4
 70
     0
 43
0.0
 10
-214.6557352519064
 20
329.2471283578007
 10
-214.3874327770697
 20
329.5154308326374
 42
0.4142135623745727
 10
-214.3874327770697
 20
329.7275628669941
 10
-214.6557352519064
 20
329.9958653418294
  0
LWPOLYLINE
  5
DA4A
330
1F
100
AcDbEntity
  8
DETAILS
 62
     6
370
    20
100
AcDbPolyline
 90
        2
 70
     1
 43
0.0
 10
-211.0039820142717
 20
335.3964968498154
 10
-210.9858127156456
 20
335.3964968498154
  0
LWPOLYLINE
  5
DA4B
330
1F
100
AcDbEntity
  8
DETAILS
 62
     6
370
    20
100
AcDbPolyline
 90
        6
 70
     0
 43
0.0
 10
-214.6557352519064
 20
335.5958653418275
 10
-214.2856560817725
 20
335.2257861716962
 42
0.1989123673782989
 10
-214.2149454036533
 20
335.1964968498156
 10
-210.6557352519064
 20
335.1964968498151
 42
-0.2793220653060733
 10
-210.9414924798782
 20
335.3696424044943
 42
0.279322065306064
 10
-210.9858127156456
 20
335.3964968498154
  0
LWPOLYLINE
  5
DA4C
330
1F
100
AcDbEntity
  8
DETAILS
 62
     6
370
    20
100
AcDbPolyline
 90
        2
 70
     1
 43
0.0
 10
-211.1039820142703
 20
335.3964968498154
 10
-212.5039820142717
 20
335.3964968498154
  0
LWPOLYLINE
  5
DA4D
330
1F
100
AcDbEntity
  8
DETAILS
 62
     6
370
    20
100
AcDbPolyline
 90
        6
 70
     0
 43
0.0
 10
-211.1039820142703
 20
335.1964968498156
 10
-211.1039820142721
 20
336.0264968498155
 42
0.4142135623730951
 10
-211.303982014271
 20
336.2264968498153
 10
-212.1463467745978
 20
336.2264968498153
 42
0.3464949689054692
 10
-212.3407748484476
 20
336.073376739958
 10
-212.552205389851
 20
335.1964968498156
  0
LWPOLYLINE
  5
DA4E
330
1F
100
AcDbEntity
  8
DETAILS
 62
     6
370
    20
100
AcDbPolyline
 90
        6
 70
     0
 43
0.0
 10
-211.0039820142717
 20
335.1964968498156
 10
-211.0039820142717
 20
336.0264968498155
 42
0.4142135623730951
 10
-211.303982014271
 20
336.3264968498155
 10
-212.1463467745978
 20
336.3264968498155
 42
0.3464949689054692
 10
-212.4379888853707
 20
336.096816685029
 10
-212.6550711931502
 20
335.1964968498156
  0
LWPOLYLINE
  5
DA4F
330
1F
100
AcDbEntity
  8
DETAILS
 62
     6
370
    20
100
AcDbPolyline
 90
        2
 70
     1
 43
0.0
 10
-212.6068478175692
 20
335.3964968498154
 10
-212.6250171161935
 20
335.3964968498154
  0
LWPOLYLINE
  5
DA50
330
1F
100
AcDbEntity
  8
DETAILS
 62
     6
370
    20
100
AcDbPolyline
 90
        6
 70
     0
 43
0.0
 10
-212.6250171161935
 20
335.3964968498154
 42
0.279322065306064
 10
-212.6693373529249
 20
335.3696424049954
 42
-0.6059183769079624
 10
-213.2408518079044
 20
335.3696424044943
 42
0.2793220653054726
 10
-213.2851720436754
 20
335.3964968498154
 10
-213.3783413423023
 20
335.3964968498154
 10
-213.2851720436754
 20
335.3964968498154
  0
LWPOLYLINE
  5
DA51
330
1F
100
AcDbEntity
  8
DETAILS
 62
     6
370
    20
100
AcDbPolyline
 90
        7
 70
     0
 43
0.0
 10
-213.8063667598887
 20
335.1964968498156
 10
-213.906366759891
 20
335.1964968498156
 10
-214.156366759891
 20
335.1964968498156
 10
-213.5602902621702
 20
335.1964968498156
 10
-213.369771256346
 20
335.9866489431943
 42
0.4853378929632635
 10
-213.5350351191171
 20
336.1964968498156
 10
-214.6557352519064
 20
336.1964968498156
  0
LWPOLYLINE
  5
DA52
330
1F
100
AcDbEntity
  8
DETAILS
 62
     6
370
    20
100
AcDbPolyline
 90
        4
 70
     0
 43
0.0
 10
-213.4265647178815
 20
335.1964968498156
 10
-213.2433930083441
 20
335.956177014602
 42
0.4853378929632635
 10
-213.5350351191171
 20
336.3264968498155
 10
-214.6557352519064
 20
336.3264968498152
  0
LWPOLYLINE
  5
DA53
330
1F
100
AcDbEntity
  8
DETAILS
 62
     6
370
    20
100
AcDbPolyline
 90
        4
 70
     0
 43
0.0
 10
-214.6557352519064
 20
335.7958653418296
 10
-214.402813369297
 20
335.5429434592211
 42
0.1989123673788307
 10
-214.0492599787046
 20
335.3964968498154
 10
-213.5120668865891
 20
335.3964968498154
  0
LWPOLYLINE
  5
DA54
330
1F
100
AcDbEntity
  8
DETAILS
 62
     6
370
    20
100
AcDbPolyline
 90
        4
 70
     0
 43
0.0
 10
-214.6557352519064
 20
334.5971283578011
 10
-214.3874327770697
 20
334.8654308326368
 42
0.4142135623745727
 10
-214.3874327770697
 20
335.0775628669931
 10
-214.6557352519064
 20
335.3458653418307
  0
LINE
  5
DA55
330
1F
100
AcDbEntity
  8
0
 62
     1
100
AcDbLine
 10
-216.6557352519064
 20
326.0464968498155
 30
0.0
 11
-216.6557352519064
 21
314.0464968498155
 31
0.0
  0
LINE
  5
DA56
330
1F
100
AcDbEntity
  8
0
 62
     1
100
AcDbLine
 10
-216.6557352519064
 20
326.0464968498155
 30
0.0
 11
-215.1057352519071
 21
326.0464968498155
 31
0.0
  0
LINE
  5
DA57
330
1F
100
AcDbEntity
  8
0
 62
     1
100
AcDbLine
 10
-214.6557352519064
 20
326.5464968498155
 30
0.0
 11
-214.6557352519064
 21
314.7247821037136
 31
0.0
  0
LINE
  5
DA58
330
1F
100
AcDbEntity
  8
0
 62
     1
100
AcDbLine
 10
-216.3057352519061
 20
326.5464968498155
 30
0.0
 11
-215.6807352519061
 21
326.5464968498155
 31
0.0
  0
LINE
  5
DA59
330
1F
100
AcDbEntity
  8
0
 62
     1
100
AcDbLine
 10
-216.3057352519061
 20
326.5464968498155
 30
0.0
 11
-216.3057352519061
 21
314.1651967692476
 31
0.0
  0
LINE
  5
DA5A
330
1F
100
AcDbEntity
  8
0
 62
     1
100
AcDbLine
 10
-215.2807352519064
 20
326.5464968498155
 30
0.0
 11
-215.2807352519064
 21
326.0464968498155
 31
0.0
  0
LINE
  5
DA5B
330
1F
100
AcDbEntity
  8
0
 62
     1
100
AcDbLine
 10
-215.6807352519061
 20
326.5464968498155
 30
0.0
 11
-215.6807352519042
 21
326.0464968498155
 31
0.0
  0
LINE
  5
DA5C
330
1F
100
AcDbEntity
  8
0
 62
     1
100
AcDbLine
 10
-215.2807352519064
 20
326.5464968498155
 30
0.0
 11
-214.6557352519064
 21
326.5464968498155
 31
0.0
  0
LINE
  5
DA5D
330
1F
100
AcDbEntity
  8
0
 62
     1
100
AcDbLine
 10
-214.8557352519071
 20
326.2964968498155
 30
0.0
 11
-214.8557352519071
 21
314.6569535783236
 31
0.0
  0
LINE
  5
DA5E
330
1F
100
AcDbEntity
  8
0
 62
     1
100
AcDbLine
 10
-215.1057352519071
 20
326.2964968498155
 30
0.0
 11
-215.1057352519071
 21
326.0464968498155
 31
0.0
  0
LINE
  5
DA5F
330
1F
100
AcDbEntity
  8
0
 62
     1
100
AcDbLine
 10
-215.1057352519071
 20
326.2964968498155
 30
0.0
 11
-214.8557352519071
 21
326.2964968498155
 31
0.0
  0
LINE
  5
DA60
330
1F
100
AcDbEntity
  8
0
 62
     1
100
AcDbLine
 10
-214.8557352519071
 20
326.0464968498155
 30
0.0
 11
-214.6557352519064
 21
326.0464968498155
 31
0.0
  0
LINE
  5
DA61
330
1F
100
AcDbEntity
  8
0
 48
0.15
100
AcDbLine
 10
-215.6807352519061
 20
326.0464968498155
 30
0.0
 11
-215.2807352519064
 21
326.0464968498155
 31
0.0
  0
LINE
  5
DA62
330
1F
100
AcDbEntity
  8
A2 Hatch
  6
DASHED2
 48
0.15
100
AcDbLine
 10
-215.890735251907
 20
326.5464968498155
 30
0.0
 11
-215.890735251907
 21
314.3059409594314
 31
0.0
  0
LINE
  5
DA63
330
1F
100
AcDbEntity
  8
A2 Hatch
  6
DASHED2
 48
0.15
100
AcDbLine
 10
-215.0707352519073
 20
326.5464968498155
 30
0.0
 11
-215.0707352519073
 21
314.5840379135296
 31
0.0
  0
LINE
  5
DA64
330
1F
100
AcDbEntity
  8
0
 62
     1
100
AcDbLine
 10
-215.7307352519072
 20
326.5464968498155
 30
0.0
 11
-215.7307352519072
 21
314.3602037797432
 31
0.0
  0
LINE
  5
DA65
330
1F
100
AcDbEntity
  8
0
 62
     1
100
AcDbLine
 10
-215.2307352519072
 20
326.5464968498155
 30
0.0
 11
-215.2307352519072
 21
314.5297750932178
 31
0.0
  0
LINE
  5
DA66
330
1F
100
AcDbEntity
  8
0
 62
     1
100
AcDbLine
 10
-215.2307352519072
 20
326.0464968498155
 30
0.0
 11
-215.7307352519072
 21
326.0464968498155
 31
0.0
  0
LINE
  5
DA67
330
1F
100
AcDbEntity
  8
0
  6
HIDDEN
 62
     1
 48
0.02
100
AcDbLine
 10
-216.3057352519061
 20
314.5464968498155
 30
0.0
 11
-215.6807352519061
 21
314.5464968498155
 31
0.0
  0
LINE
  5
DA68
330
1F
100
AcDbEntity
  8
0
  6
HIDDEN
 62
     1
 48
0.02
100
AcDbLine
 10
-215.2807352519064
 20
314.5464968498155
 30
0.0
 11
-215.2807352519064
 21
314.5128179618701
 31
0.0
  0
LINE
  5
DA69
330
1F
100
AcDbEntity
  8
0
  6
HIDDEN
 62
     1
 48
0.02
100
AcDbLine
 10
-215.6807352519061
 20
314.5464968498155
 30
0.0
 11
-215.6807352519061
 21
314.3771609110909
 31
0.0
  0
LINE
  5
DA6A
330
1F
100
AcDbEntity
  8
0
  6
HIDDEN
 62
     1
 48
0.02
100
AcDbLine
 10
-215.2807352519064
 20
314.5464968498155
 30
0.0
 11
-215.1814292807046
 21
314.5464968498155
 31
0.0
  0
LINE
  5
DA6B
330
1F
100
AcDbEntity
  8
0
 62
     1
100
AcDbLine
 10
-204.6557352519065
 20
326.0464968498155
 30
0.0
 11
-204.6557352519065
 21
318.1162083732041
 31
0.0
  0
LINE
  5
DA6C
330
1F
100
AcDbEntity
  8
0
 62
     1
100
AcDbLine
 10
-206.6557352519065
 20
326.5464968498155
 30
0.0
 11
-206.6557352519065
 21
317.4379231193057
 31
0.0
  0
LINE
  5
DA6D
330
1F
100
AcDbEntity
  8
0
 62
     1
100
AcDbLine
 10
-205.005735251905
 20
326.5464968498155
 30
0.0
 11
-205.005735251905
 21
326.0464968498155
 31
0.0
  0
LINE
  5
DA6E
330
1F
100
AcDbEntity
  8
0
 62
     1
100
AcDbLine
 10
-206.0307352519064
 20
326.5464968498155
 30
0.0
 11
-206.0307352519064
 21
326.0464968498155
 31
0.0
  0
LINE
  5
DA6F
330
1F
100
AcDbEntity
  8
0
 62
     1
100
AcDbLine
 10
-205.630735251905
 20
326.5464968498155
 30
0.0
 11
-205.630735251905
 21
326.0464968498155
 31
0.0
  0
LINE
  5
DA70
330
1F
100
AcDbEntity
  8
0
 62
     1
100
AcDbLine
 10
-206.6557352519065
 20
326.5464968498155
 30
0.0
 11
-206.0307352519064
 21
326.5464968498155
 31
0.0
  0
LINE
  5
DA71
330
1F
100
AcDbEntity
  8
0
 62
     1
100
AcDbLine
 10
-205.630735251905
 20
326.5464968498155
 30
0.0
 11
-205.005735251905
 21
326.5464968498155
 31
0.0
  0
LINE
  5
DA72
330
1F
100
AcDbEntity
  8
0
 62
     1
100
AcDbLine
 10
-206.4557352519057
 20
326.2964968498155
 30
0.0
 11
-206.4557352519057
 21
317.5057516446955
 31
0.0
  0
LINE
  5
DA73
330
1F
100
AcDbEntity
  8
0
 62
     1
100
AcDbLine
 10
-206.2057352519057
 20
326.2964968498155
 30
0.0
 11
-206.2057352519057
 21
326.0464968498155
 31
0.0
  0
LINE
  5
DA74
330
1F
100
AcDbEntity
  8
0
 62
     1
100
AcDbLine
 10
-206.4557352519057
 20
326.2964968498155
 30
0.0
 11
-206.2057352519057
 21
326.2964968498155
 31
0.0
  0
LINE
  5
DA75
330
1F
100
AcDbEntity
  8
0
 62
     1
100
AcDbLine
 10
-206.2407352519056
 20
326.0464968498155
 30
0.0
 11
-204.6557352519065
 21
326.0464968498155
 31
0.0
  0
LINE
  5
DA76
330
1F
100
AcDbEntity
  8
0
 62
     1
100
AcDbLine
 10
-206.2407352519056
 20
326.0464968498155
 30
0.0
 11
-206.2407352519056
 21
317.5786673094898
 31
0.0
  0
LINE
  5
DA77
330
1F
100
AcDbEntity
  8
0
 62
     1
100
AcDbLine
 10
-205.4207352519059
 20
326.0464968498155
 30
0.0
 11
-205.4207352519059
 21
317.8567642635881
 31
0.0
  0
LINE
  5
DA78
330
1F
100
AcDbEntity
  8
A2 Hatch
  6
DASHED2
 48
0.15
100
AcDbLine
 10
-206.0807352519057
 20
326.0464968498155
 30
0.0
 11
-206.0807352519057
 21
317.6329301298018
 31
0.0
  0
LINE
  5
DA79
330
1F
100
AcDbEntity
  8
A2 Hatch
  6
DASHED2
 48
0.15
100
AcDbLine
 10
-205.5807352519057
 20
326.0464968498155
 30
0.0
 11
-205.5807352519057
 21
317.8025014432763
 31
0.0
  0
LINE
  5
DA7A
330
1F
100
AcDbEntity
  8
0
 62
     1
100
AcDbLine
 10
-206.6557352519065
 20
326.0464968498155
 30
0.0
 11
-206.4557352519057
 21
326.0464968498155
 31
0.0
  0
LWPOLYLINE
  5
DA7B
330
1F
100
AcDbEntity
  8
DETAILS
 62
     6
370
    20
100
AcDbPolyline
 90
        2
 70
     1
 43
0.0
 10
-210.3074884895375
 20
317.1964968498153
 10
-210.3256577881637
 20
317.1964968498155
  0
LWPOLYLINE
  5
DA7C
330
1F
100
AcDbEntity
  8
DETAILS
 62
     6
370
    20
100
AcDbPolyline
 90
        6
 70
     0
 43
0.0
 10
-206.9848971743429
 20
317.326290280239
 10
-207.0258144220386
 20
317.3672075279342
 42
0.1989123673782988
 10
-207.096525100156
 20
317.3964968498154
 10
-210.6557352519064
 20
317.3964968498154
 42
-0.2793220653060733
 10
-210.3699780239347
 20
317.2233512951367
 42
0.279322065306064
 10
-210.3256577881637
 20
317.1964968498151
  0
LWPOLYLINE
  5
DA7D
330
1F
100
AcDbEntity
  8
DETAILS
 62
     6
370
    20
100
AcDbPolyline
 90
        2
 70
     1
 43
0.0
 10
-210.2074884895389
 20
317.1964968498155
 10
-208.8074884895375
 20
317.1964968498155
  0
LWPOLYLINE
  5
DA7E
330
1F
100
AcDbEntity
  8
DETAILS
 62
     6
370
    20
100
AcDbPolyline
 90
        4
 70
     0
 43
0.0
 10
-210.2074884895389
 20
317.3964968498154
 10
-210.2074884895389
 20
316.5664968498155
 42
0.4142135623730951
 10
-210.0074884895382
 20
316.3664968498152
 10
-209.2337254468236
 20
316.3664968498152
  0
LWPOLYLINE
  5
DA7F
330
1F
100
AcDbEntity
  8
DETAILS
 62
     6
370
    20
100
AcDbPolyline
 90
        4
 70
     0
 43
0.0
 10
-210.3074884895393
 20
317.3964968498154
 10
-210.3074884895375
 20
316.5664968498155
 42
0.4142135623730951
 10
-210.0074884895382
 20
316.2664968498153
 10
-209.1998111841292
 20
316.2664968498153
  0
LWPOLYLINE
  5
DA80
330
1F
100
AcDbEntity
  8
DETAILS
 62
     6
370
    20
100
AcDbPolyline
 90
        2
 70
     1
 43
0.0
 10
-208.7046226862419
 20
317.1964968498153
 10
-208.6864533876158
 20
317.1964968498155
  0
LWPOLYLINE
  5
DA81
330
1F
100
AcDbEntity
  8
DETAILS
 62
     6
370
    20
100
AcDbPolyline
 90
        6
 70
     0
 43
0.0
 10
-208.6864533876158
 20
317.1964968498151
 42
0.279322065306064
 10
-208.6421331508879
 20
317.2233512946353
 42
-0.6059183769079624
 10
-208.0706186959048
 20
317.2233512951367
 42
0.2793220653054726
 10
-208.0262984601375
 20
317.1964968498153
 10
-207.9331291615069
 20
317.1964968498153
 10
-208.0262984601375
 20
317.1964968498153
  0
LWPOLYLINE
  5
DA82
330
1F
100
AcDbEntity
  8
DETAILS
 62
     6
370
    20
100
AcDbPolyline
 90
        5
 70
     0
 43
0.0
 10
-207.5051037439205
 20
317.3964968498154
 10
-207.4051037439201
 20
317.3964968498154
 10
-207.1551037439201
 20
317.3964968498154
 10
-207.7511802416427
 20
317.3964968498154
 10
-207.8378573528878
 20
317.0370151246043
  0
LWPOLYLINE
  5
DA83
330
1F
100
AcDbEntity
  8
DETAILS
 62
     6
370
    20
100
AcDbPolyline
 90
        2
 70
     0
 43
0.0
 10
-207.8849057859277
 20
317.3964968498154
 10
-207.9834918702161
 20
316.9876242518231
  0
LWPOLYLINE
  5
DA84
330
1F
100
AcDbEntity
  8
DETAILS
 62
     6
370
    20
100
AcDbPolyline
 90
        8
 70
     0
 43
0.0
 10
-212.0208794914085
 20
317.4464968498151
 10
-210.6557352519046
 20
317.4464968498151
 10
-207.5051037439205
 20
317.4464968498151
 10
-207.4073761370453
 20
317.4685864223148
 42
0.7807764064044151
 10
-207.4073761370453
 20
317.4744072773156
 10
-207.5051037439205
 20
317.4964968498153
 10
-210.6557352519064
 20
317.4964968498153
 10
-212.0708794914078
 20
317.4964968498153
  0
LWPOLYLINE
  5
DA85
330
1F
100
AcDbEntity
  8
DETAILS
 62
     6
370
    20
100
AcDbPolyline
 90
        4
 70
     0
 43
0.0
 10
-214.6557352519064
 20
318.2458653418267
 10
-214.2856560817725
 20
317.8757861716964
 42
0.1989123673781765
 10
-214.2149454036533
 20
317.8464968498154
 10
-212.7730852789407
 20
317.8464968498154
  0
LWPOLYLINE
  5
DA86
330
1F
100
AcDbEntity
  8
DETAILS
 62
     6
370
    20
100
AcDbPolyline
 90
        7
 70
     0
 43
0.0
 10
-214.6557352519064
 20
318.4458653418258
 10
-214.402813369297
 20
318.1929434592196
 42
0.1989123673777967
 10
-214.0492599787064
 20
318.0464968498155
 10
-210.6557352519046
 20
318.0464968498155
 10
-207.2622105251046
 20
318.0464968498155
 42
0.1989123673777968
 10
-206.9086571345122
 20
318.1929434592196
 10
-206.6557352519065
 20
318.4458653418231
  0
LWPOLYLINE
  5
DA87
330
1F
100
AcDbEntity
  8
DETAILS
 62
     6
370
    20
100
AcDbPolyline
 90
        2
 70
     0
 43
0.0
 10
-207.3676076333338
 20
317.1964968498153
 10
-207.799403617222
 20
317.1964968498155
  0
LWPOLYLINE
  5
DA88
330
1F
100
AcDbEntity
  8
DETAILS
 62
     6
370
    20
100
AcDbPolyline
 90
        4
 70
     0
 43
0.0
 10
-206.6557352519065
 20
317.9958653418271
 10
-206.9240377267413
 20
317.7275628669941
 42
0.4142135623745727
 10
-206.9240377267431
 20
317.5154308326374
 10
-206.7982105623503
 20
317.3896036682464
  0
LWPOLYLINE
  5
DA89
330
1F
100
AcDbEntity
  8
DETAILS
 62
     6
370
    20
100
AcDbPolyline
 90
        6
 70
     0
 43
0.0
 10
-212.1208794914071
 20
317.5464968498155
 10
-210.6557352519064
 20
317.5464968498155
 10
-207.1551037439201
 20
317.5464968498155
 10
-207.1551037439201
 20
317.6964968498154
 10
-210.6557352519064
 20
317.6964968498156
 10
-212.2708794914085
 20
317.6964968498156
  0
LWPOLYLINE
  5
DA8A
330
1F
100
AcDbEntity
  8
DETAILS
 62
     6
370
    20
100
AcDbPolyline
 90
        2
 70
     1
 43
0.0
 10
-210.3074884895375
 20
323.3964968498154
 10
-210.3256577881637
 20
323.3964968498154
  0
LWPOLYLINE
  5
DA8B
330
1F
100
AcDbEntity
  8
DETAILS
 62
     6
370
    20
100
AcDbPolyline
 90
        6
 70
     0
 43
0.0
 10
-210.3256577881637
 20
323.3964968498154
 42
0.279322065306064
 10
-210.3699780248951
 20
323.3696424049954
 42
-0.2793220653060733
 10
-210.6557352519064
 20
323.1964968498155
 10
-207.096525100156
 20
323.1964968498155
 42
0.1989123673782991
 10
-207.0258144220386
 20
323.2257861716963
 10
-206.6557352519065
 20
323.5958653418248
  0
LWPOLYLINE
  5
DA8C
330
1F
100
AcDbEntity
  8
DETAILS
 62
     6
370
    20
100
AcDbPolyline
 90
        2
 70
     1
 43
0.0
 10
-210.2074884895389
 20
323.3964968498154
 10
-208.8074884895375
 20
323.3964968498154
  0
LWPOLYLINE
  5
DA8D
330
1F
100
AcDbEntity
  8
DETAILS
 62
     6
370
    20
100
AcDbPolyline
 90
        6
 70
     0
 43
0.0
 10
-208.7592651139583
 20
323.1964968498155
 10
-208.9706956553635
 20
324.0733767399579
 42
0.3464949689054692
 10
-209.1651237292114
 20
324.2264968498153
 10
-210.0074884895382
 20
324.2264968498153
 42
0.4142135623730951
 10
-210.2074884895389
 20
324.0264968498155
 10
-210.2074884895389
 20
323.1964968498155
  0
LWPOLYLINE
  5
DA8E
330
1F
100
AcDbEntity
  8
DETAILS
 62
     6
370
    20
100
AcDbPolyline
 90
        6
 70
     0
 43
0.0
 10
-208.6563993106627
 20
323.1964968498155
 10
-208.8734816184385
 20
324.096816685029
 42
0.3464949689054692
 10
-209.1651237292114
 20
324.3264968498154
 10
-210.0074884895382
 20
324.3264968498154
 42
0.4142135623730951
 10
-210.3074884895375
 20
324.0264968498155
 10
-210.3074884895393
 20
323.1964968498155
  0
LWPOLYLINE
  5
DA8F
330
1F
100
AcDbEntity
  8
DETAILS
 62
     6
370
    20
100
AcDbPolyline
 90
        2
 70
     1
 43
0.0
 10
-208.7046226862419
 20
323.3964968498154
 10
-208.6864533876158
 20
323.3964968498154
  0
LWPOLYLINE
  5
DA90
330
1F
100
AcDbEntity
  8
DETAILS
 62
     6
370
    20
100
AcDbPolyline
 90
        6
 70
     0
 43
0.0
 10
-208.0262984601375
 20
323.3964968498154
 10
-207.9331291615087
 20
323.3964968498154
 10
-208.0262984601375
 20
323.3964968498154
 42
0.2793220653054726
 10
-208.0706186968653
 20
323.3696424049954
 42
-0.6059183769079625
 10
-208.6421331518466
 20
323.3696424044943
 42
0.279322065306064
 10
-208.6864533876158
 20
323.3964968498154
  0
LWPOLYLINE
  5
DA91
330
1F
100
AcDbEntity
  8
DETAILS
 62
     6
370
    20
100
AcDbPolyline
 90
        7
 70
     0
 43
0.0
 10
-206.6557352519065
 20
324.1964968498156
 10
-207.7764353846922
 20
324.1964968498156
 42
0.4853378929632635
 10
-207.9416992474632
 20
323.9866489431948
 10
-207.7511802416427
 20
323.1964968498155
 10
-207.1551037439201
 20
323.1964968498155
 10
-207.4051037439219
 20
323.1964968498155
 10
-207.5051037439205
 20
323.1964968498155
  0
LWPOLYLINE
  5
DA92
330
1F
100
AcDbEntity
  8
DETAILS
 62
     6
370
    20
100
AcDbPolyline
 90
        4
 70
     0
 43
0.0
 10
-206.6557352519065
 20
324.3264968498152
 10
-207.7764353846922
 20
324.3264968498154
 42
0.4853378929632635
 10
-208.0680774954651
 20
323.956177014602
 10
-207.8849057859277
 20
323.1964968498155
  0
LWPOLYLINE
  5
DA93
330
1F
100
AcDbEntity
  8
DETAILS
 62
     6
370
    20
100
AcDbPolyline
 90
       10
 70
     1
 43
0.0
 10
-210.6557352519064
 20
323.1464968498154
 10
-213.8063667598887
 20
323.1464968498154
 10
-213.9040943667658
 20
323.1244072773157
 42
0.7807764064044151
 10
-213.9040943667658
 20
323.1185864223149
 10
-213.8063667598906
 20
323.0964968498154
 10
-210.6557352519064
 20
323.0964968498156
 10
-207.5051037439205
 20
323.0964968498154
 10
-207.4073761370453
 20
323.1185864223149
 42
0.7807764064044151
 10
-207.4073761370453
 20
323.1244072773157
 10
-207.5051037439205
 20
323.1464968498154
  0
LWPOLYLINE
  5
DA94
330
1F
100
AcDbEntity
  8
DETAILS
 62
     6
370
    20
100
AcDbPolyline
 90
        7
 70
     0
 43
0.0
 10
-206.6557352519065
 20
322.3471283578065
 10
-207.0258144220386
 20
322.7172075279344
 42
0.1989123673781766
 10
-207.096525100156
 20
322.7464968498153
 10
-210.6557352519064
 20
322.7464968498153
 10
-214.2149454036533
 20
322.7464968498153
 42
0.1989123673781765
 10
-214.2856560817725
 20
322.7172075279344
 10
-214.6557352519064
 20
322.3471283578038
  0
LWPOLYLINE
  5
DA95
330
1F
100
AcDbEntity
  8
DETAILS
 62
     6
370
    20
100
AcDbPolyline
 90
        7
 70
     0
 43
0.0
 10
-206.6557352519065
 20
322.1471283578081
 10
-206.9086571345122
 20
322.4000502404111
 42
0.1989123673777966
 10
-207.2622105251046
 20
322.5464968498155
 10
-210.6557352519064
 20
322.5464968498155
 10
-214.0492599787064
 20
322.5464968498155
 42
0.1989123673777966
 10
-214.402813369297
 20
322.4000502404111
 10
-214.6557352519064
 20
322.1471283578044
  0
LWPOLYLINE
  5
DA96
330
1F
100
AcDbEntity
  8
DETAILS
 62
     6
370
    20
100
AcDbPolyline
 90
        4
 70
     0
 43
0.0
 10
-207.799403617222
 20
323.3964968498154
 10
-207.2622105251046
 20
323.3964968498154
 42
0.1989123673788307
 10
-206.908657134514
 20
323.5429434592211
 10
-206.6557352519065
 20
323.7958653418264
  0
LWPOLYLINE
  5
DA97
330
1F
100
AcDbEntity
  8
DETAILS
 62
     6
370
    20
100
AcDbPolyline
 90
        4
 70
     0
 43
0.0
 10
-206.6557352519065
 20
323.345865341828
 10
-206.9240377267431
 20
323.0775628669931
 42
0.4142135623745727
 10
-206.9240377267413
 20
322.8654308326369
 10
-206.6557352519065
 20
322.597128357804
  0
LWPOLYLINE
  5
DA98
330
1F
100
AcDbEntity
  8
DETAILS
 62
     6
370
    20
100
AcDbPolyline
 90
        6
 70
     1
 43
0.0
 10
-210.6557352519064
 20
323.0464968498155
 10
-207.1551037439201
 20
323.0464968498155
 10
-207.1551037439201
 20
322.8964968498154
 10
-210.6557352519064
 20
322.8964968498154
 10
-214.156366759891
 20
322.8964968498154
 10
-214.156366759891
 20
323.0464968498155
  0
LWPOLYLINE
  5
DA99
330
1F
100
AcDbEntity
  8
DETAILS
 62
     6
370
    20
100
AcDbPolyline
 90
        2
 70
     1
 43
0.0
 10
-211.0039820142717
 20
317.1964968498153
 10
-210.9858127156456
 20
317.1964968498155
  0
LWPOLYLINE
  5
DA9A
330
1F
100
AcDbEntity
  8
DETAILS
 62
     6
370
    20
100
AcDbPolyline
 90
        4
 70
     0
 43
0.0
 10
-210.9858127156456
 20
317.1964968498151
 42
0.2793220653051915
 10
-210.9414924789178
 20
317.2233512946353
 42
-0.2793220653060734
 10
-210.6557352519064
 20
317.3964968498154
 10
-211.9708794914093
 20
317.3964968498154
  0
LWPOLYLINE
  5
DA9B
330
1F
100
AcDbEntity
  8
DETAILS
 62
     6
370
    20
100
AcDbPolyline
 90
        3
 70
     0
 43
0.0
 10
-212.3842901809419
 20
316.7000909807112
 10
-212.3407748484476
 20
316.519616959673
 42
0.1288726382695203
 10
-212.2927846229357
 20
316.4302765995793
  0
LWPOLYLINE
  5
DA9C
330
1F
100
AcDbEntity
  8
DETAILS
 62
     6
370
    20
100
AcDbPolyline
 90
        3
 70
     0
 43
0.0
 10
-212.6550711931502
 20
317.3964968498154
 10
-212.4379888853707
 20
316.4961770146015
 42
0.257340130277346
 10
-212.2426213122869
 20
316.2823644627259
 42
0.257340130277346
  0
LWPOLYLINE
  5
DA9D
330
1F
100
AcDbEntity
  8
DETAILS
 62
     6
370
    20
100
AcDbPolyline
 90
        2
 70
     1
 43
0.0
 10
-212.6068478175692
 20
317.1964968498153
 10
-212.6250171161935
 20
317.1964968498155
  0
LWPOLYLINE
  5
DA9E
330
1F
100
AcDbEntity
  8
DETAILS
 62
     6
370
    20
100
AcDbPolyline
 90
        6
 70
     0
 43
0.0
 10
-213.2851720436754
 20
317.1964968498153
 10
-213.3783413423023
 20
317.1964968498153
 10
-213.2851720436754
 20
317.1964968498153
 42
0.2793220653054726
 10
-213.2408518069458
 20
317.2233512946355
 42
-0.6059183769079624
 10
-212.6693373519645
 20
317.2233512951367
 42
0.279322065306064
 10
-212.6250171161935
 20
317.1964968498151
  0
LWPOLYLINE
  5
DA9F
330
1F
100
AcDbEntity
  8
DETAILS
 62
     6
370
    20
100
AcDbPolyline
 90
        7
 70
     0
 43
0.0
 10
-214.6557352519064
 20
316.3964968498154
 10
-213.5350351191171
 20
316.3964968498154
 42
0.4853378929632635
 10
-213.369771256346
 20
316.6063447564362
 10
-213.5602902621702
 20
317.3964968498154
 10
-214.156366759891
 20
317.3964968498154
 10
-213.906366759891
 20
317.3964968498154
 10
-213.8063667598887
 20
317.3964968498154
  0
LWPOLYLINE
  5
DAA0
330
1F
100
AcDbEntity
  8
DETAILS
 62
     6
370
    20
100
AcDbPolyline
 90
        4
 70
     0
 43
0.0
 10
-214.6557352519064
 20
316.2664968498153
 10
-213.5350351191171
 20
316.2664968498153
 42
0.4853378929632635
 10
-213.2433930083441
 20
316.6368166850289
 10
-213.4265647178815
 20
317.3964968498154
  0
LWPOLYLINE
  5
DAA1
330
1F
100
AcDbEntity
  8
DETAILS
 62
     6
370
    20
100
AcDbPolyline
 90
        4
 70
     0
 43
0.0
 10
-213.5120668865891
 20
317.1964968498155
 10
-214.0492599787046
 20
317.1964968498153
 42
0.1989123673788306
 10
-214.402813369297
 20
317.0500502404098
 10
-214.6557352519064
 20
316.7971283578016
  0
LWPOLYLINE
  5
DAA2
330
1F
100
AcDbEntity
  8
DETAILS
 62
     6
370
    20
100
AcDbPolyline
 90
        4
 70
     0
 43
0.0
 10
-214.6557352519064
 20
317.2471283578007
 10
-214.3874327770697
 20
317.5154308326374
 42
0.4142135623745727
 10
-214.3874327770697
 20
317.7275628669941
 10
-214.6557352519064
 20
317.9958653418294
  0
LWPOLYLINE
  5
DAA3
330
1F
100
AcDbEntity
  8
DETAILS
 62
     6
370
    20
100
AcDbPolyline
 90
        2
 70
     1
 43
0.0
 10
-211.0039820142717
 20
323.3964968498154
 10
-210.9858127156456
 20
323.3964968498154
  0
LWPOLYLINE
  5
DAA4
330
1F
100
AcDbEntity
  8
DETAILS
 62
     6
370
    20
100
AcDbPolyline
 90
        6
 70
     0
 43
0.0
 10
-214.6557352519064
 20
323.5958653418275
 10
-214.2856560817725
 20
323.2257861716963
 42
0.1989123673782989
 10
-214.2149454036533
 20
323.1964968498155
 10
-210.6557352519064
 20
323.1964968498151
 42
-0.2793220653060733
 10
-210.9414924798782
 20
323.3696424044943
 42
0.279322065306064
 10
-210.9858127156456
 20
323.3964968498154
  0
LWPOLYLINE
  5
DAA5
330
1F
100
AcDbEntity
  8
DETAILS
 62
     6
370
    20
100
AcDbPolyline
 90
        2
 70
     1
 43
0.0
 10
-211.1039820142703
 20
323.3964968498154
 10
-212.5039820142717
 20
323.3964968498154
  0
LWPOLYLINE
  5
DAA6
330
1F
100
AcDbEntity
  8
DETAILS
 62
     6
370
    20
100
AcDbPolyline
 90
        6
 70
     0
 43
0.0
 10
-211.1039820142703
 20
323.1964968498155
 10
-211.1039820142721
 20
324.0264968498155
 42
0.4142135623730951
 10
-211.303982014271
 20
324.2264968498153
 10
-212.1463467745978
 20
324.2264968498153
 42
0.3464949689054692
 10
-212.3407748484476
 20
324.0733767399579
 10
-212.552205389851
 20
323.1964968498155
  0
LWPOLYLINE
  5
DAA7
330
1F
100
AcDbEntity
  8
DETAILS
 62
     6
370
    20
100
AcDbPolyline
 90
        6
 70
     0
 43
0.0
 10
-211.0039820142717
 20
323.1964968498155
 10
-211.0039820142717
 20
324.0264968498155
 42
0.4142135623730951
 10
-211.303982014271
 20
324.3264968498154
 10
-212.1463467745978
 20
324.3264968498154
 42
0.3464949689054692
 10
-212.4379888853707
 20
324.096816685029
 10
-212.6550711931502
 20
323.1964968498155
  0
LWPOLYLINE
  5
DAA8
330
1F
100
AcDbEntity
  8
DETAILS
 62
     6
370
    20
100
AcDbPolyline
 90
        2
 70
     1
 43
0.0
 10
-212.6068478175692
 20
323.3964968498154
 10
-212.6250171161935
 20
323.3964968498154
  0
LWPOLYLINE
  5
DAA9
330
1F
100
AcDbEntity
  8
DETAILS
 62
     6
370
    20
100
AcDbPolyline
 90
        6
 70
     0
 43
0.0
 10
-212.6250171161935
 20
323.3964968498154
 42
0.279322065306064
 10
-212.6693373529249
 20
323.3696424049954
 42
-0.6059183769079624
 10
-213.2408518079044
 20
323.3696424044943
 42
0.2793220653054726
 10
-213.2851720436754
 20
323.3964968498154
 10
-213.3783413423023
 20
323.3964968498154
 10
-213.2851720436754
 20
323.3964968498154
  0
LWPOLYLINE
  5
DAAA
330
1F
100
AcDbEntity
  8
DETAILS
 62
     6
370
    20
100
AcDbPolyline
 90
        7
 70
     0
 43
0.0
 10
-213.8063667598887
 20
323.1964968498155
 10
-213.906366759891
 20
323.1964968498155
 10
-214.156366759891
 20
323.1964968498155
 10
-213.5602902621702
 20
323.1964968498155
 10
-213.369771256346
 20
323.9866489431943
 42
0.4853378929632635
 10
-213.5350351191171
 20
324.1964968498156
 10
-214.6557352519064
 20
324.1964968498156
  0
LWPOLYLINE
  5
DAAB
330
1F
100
AcDbEntity
  8
DETAILS
 62
     6
370
    20
100
AcDbPolyline
 90
        4
 70
     0
 43
0.0
 10
-213.4265647178815
 20
323.1964968498155
 10
-213.2433930083441
 20
323.956177014602
 42
0.4853378929632635
 10
-213.5350351191171
 20
324.3264968498154
 10
-214.6557352519064
 20
324.3264968498152
  0
LWPOLYLINE
  5
DAAC
330
1F
100
AcDbEntity
  8
DETAILS
 62
     6
370
    20
100
AcDbPolyline
 90
        4
 70
     0
 43
0.0
 10
-214.6557352519064
 20
323.7958653418296
 10
-214.402813369297
 20
323.5429434592211
 42
0.1989123673788307
 10
-214.0492599787046
 20
323.3964968498154
 10
-213.5120668865891
 20
323.3964968498154
  0
LWPOLYLINE
  5
DAAD
330
1F
100
AcDbEntity
  8
DETAILS
 62
     6
370
    20
100
AcDbPolyline
 90
        4
 70
     0
 43
0.0
 10
-214.6557352519064
 20
322.5971283578011
 10
-214.3874327770697
 20
322.8654308326369
 42
0.4142135623745727
 10
-214.3874327770697
 20
323.0775628669931
 10
-214.6557352519064
 20
323.3458653418307
  0
LINE
  5
DAAE
330
1F
100
AcDbEntity
  8
0
 62
     1
100
AcDbLine
 10
-216.3057352519061
 20
314.5464968498155
 30
0.0
 11
-215.6807352519061
 21
314.5464968498155
 31
0.0
  0
LINE
  5
DAAF
330
1F
100
AcDbEntity
  8
0
 62
     1
100
AcDbLine
 10
-215.2807352519064
 20
314.5464968498155
 30
0.0
 11
-215.2807352519064
 21
314.5128179618701
 31
0.0
  0
LINE
  5
DAB0
330
1F
100
AcDbEntity
  8
0
 62
     1
100
AcDbLine
 10
-215.6807352519061
 20
314.5464968498155
 30
0.0
 11
-215.6807352519061
 21
314.3771609110909
 31
0.0
  0
LINE
  5
DAB1
330
1F
100
AcDbEntity
  8
0
 62
     1
100
AcDbLine
 10
-215.2807352519064
 20
314.5464968498155
 30
0.0
 11
-215.1814292807046
 21
314.5464968498155
 31
0.0
  0
LINE
  5
DAB2
330
1F
100
AcDbEntity
  8
0
 62
     1
100
AcDbLine
 10
-216.6557352519064
 20
350.0465088203126
 30
0.0
 11
-214.6557352519064
 21
350.0465088203126
 31
0.0
  0
LINE
  5
DAB3
330
1F
100
AcDbEntity
  8
A4 medium
 48
0.15
100
AcDbLine
 10
-250.5585022278772
 20
350.0465088203124
 30
0.0
 11
-170.7529682759357
 21
350.0465088203124
 31
0.0
  0
LINE
  5
DAB4
330
1F
100
AcDbEntity
  8
A4 medium
 48
0.15
100
AcDbLine
 10
-204.6557352519065
 20
342.0465088203124
 30
0.0
 11
-174.7009114434638
 21
342.0465088203124
 31
0.0
  0
LINE
  5
DAB5
330
1F
100
AcDbEntity
  8
DIM
100
AcDbLine
 10
-168.3470790264853
 20
348.3360267495592
 30
0.0
 11
-174.8470790264853
 21
348.3360267495592
 31
0.0
  0
LINE
  5
DAB6
330
1F
100
AcDbEntity
  8
DIM
100
AcDbLine
 10
-174.8470790264853
 20
348.3360267495592
 30
0.0
 11
-172.2335624169134
 21
347.0462748693122
 31
0.0
  0
LINE
  5
DAB7
330
1F
100
AcDbEntity
  8
DIM
100
AcDbLine
 10
-172.2335624169134
 20
347.0462748693122
 30
0.0
 11
-175.6279160620522
 21
340.1680529677279
 31
0.0
  0
LINE
  5
DAB8
330
1F
100
AcDbEntity
  8
DIM
100
AcDbLine
 10
-167.2385368310513
 20
357.1680529677365
 30
0.0
 11
-170.9605956360572
 21
349.6257786298061
 31
0.0
  0
LINE
  5
DAB9
330
1F
100
AcDbEntity
  8
DIM
100
AcDbLine
 10
-168.3470790264853
 20
348.3360267495592
 30
0.0
 11
-170.9605956360572
 21
349.6257786298063
 31
0.0
  0
LINE
  5
DABA
330
1F
100
AcDbEntity
  8
A4 medium
 48
0.15
100
AcDbLine
 10
-172.3293025882792
 20
351.0465008858119
 30
0.0
 11
-172.3293025882792
 21
351.0465008858119
 31
0.0
  0
LINE
  5
DABB
330
1F
100
AcDbEntity
  8
REBAR
 48
0.15
100
AcDbLine
 10
-210.6557352519064
 20
350.0465088203126
 30
0.0
 11
-210.6557352519064
 21
316.0813526103126
 31
0.0
  0
CIRCLE
  5
DABC
330
1F
100
AcDbEntity
  8
A2 Hatch
 48
0.15
100
AcDbCircle
 10
-210.6557352519064
 20
335.6109956093924
 30
0.0
 40
0.8157720410317779
  0
HATCH
  5
DABD
330
1F
100
AcDbEntity
  8
A2 Hatch
 48
0.15
100
AcDbHatch
 10
0.0
 20
0.0
 30
0.0
210
0.0
220
0.0
230
1.0
  2
SOLID
 70
     1
 71
     0
 91
        1
 92
        1
 93
        1
 72
     2
 10
-210.6557352519064
 20
335.6109956093924
 40
0.2243383222039483
 50
0.0
 51
360.0
 73
     1
 97
        0
 75
     0
 76
     1
 98
        1
 10
-3451.277145462106
 20
687.0551136002314
  0
MTEXT
  5
DABE
330
1F
100
AcDbEntity
  8
DIM
 62
     3
100
AcDbMText
 10
-196.2302932045147
 20
356.2979920734129
 30
0.0
 40
1.0
 41
16.07546435255318
 71
     1
 72
     5
  1
BENT REINF IN PRECAST CUTOUT 
  7
RomanC
 73
     1
 44
1.0
1001
ACAD
1000
MTEXTBEGIN
1070
    73
1070
     1
1070
    44
1040
1.0
1070
    74
1070
     0
1000
MTEXTEND
  0
LEADER
  5
DABF
330
1F
100
AcDbEntity
  8
DIM
100
AcDbLeader
  3
ARCTEXT1-4
 76
     3
 10
-205.4206780231778
 20
347.0766842825838
 30
0.0
 10
-198.1906511625291
 20
355.6661076172041
 30
0.0
 10
-197.1906511625291
 20
355.6656192894112
 30
0.0
1001
ACAD
1000
DSTYLE
1002
{
1070
    41
1040
0.5
1070
    77
1070
     0
1002
}
  0
LEADER
  5
DAC0
330
1F
100
AcDbEntity
  8
DIM
100
AcDbLeader
  3
ARCTEXT1-4
 76
     3
 10
-200.8771977572903
 20
342.0465088203124
 30
0.0
 10
-200.8803679269347
 20
333.2962375743132
 30
0.0
 10
-197.1906511625291
 20
333.2962375743132
 30
0.0
1001
ACAD
1000
DSTYLE
1002
{
1070
    41
1040
0.5
1070
    77
1070
     0
1002
}
  0
MTEXT
  5
DAC1
330
1F
100
AcDbEntity
  8
DIM
 62
     3
100
AcDbMText
 10
-237.4122256362587
 20
323.7765765470939
 30
0.0
 40
1.0
 41
16.07546435255318
 71
     1
 72
     5
  1
VERT REINF 
  7
RomanC
 73
     1
 44
1.0
1001
ACAD
1000
MTEXTBEGIN
1070
    73
1070
     1
1070
    44
1040
1.0
1070
    74
1070
     0
1000
MTEXTEND
  0
MTEXT
  5
DAC2
330
1F
100
AcDbEntity
  8
DIM
 62
     3
100
AcDbMText
 10
-238.0494651665411
 20
327.1889653771141
 30
0.0
 40
1.0
 41
16.07546435255318
 71
     1
 72
     5
  1
HORIZ REINF 
  7
RomanC
 73
     1
 44
1.0
1001
ACAD
1000
MTEXTBEGIN
1070
    73
1070
     1
1070
    44
1040
1.0
1070
    74
1070
     0
1000
MTEXTEND
  0
LEADER
  5
DAC3
330
1F
100
AcDbEntity
  8
DIM
100
AcDbLeader
  3
ARCTEXT1-4
 76
     3
 10
-211.573367757155
 20
335.617056757812
 30
0.0
 10
-228.0744991755617
 20
326.6132744795223
 30
0.0
 10
-229.0744991755616
 20
326.6132744795223
 30
0.0
211
-1.0
221
0.0
231
0.0
1001
ACAD
1000
DSTYLE
1002
{
1070
    41
1040
0.5
1070
    77
1070
     0
1002
}
  0
LEADER
  5
DAC4
330
1F
100
AcDbEntity
  8
DIM
100
AcDbLeader
  3
ARCTEXT1-4
 76
     3
 10
-216.6557352519064
 20
320.070473660589
 30
0.0
 10
-223.3921099848428
 20
320.0708932808062
 30
0.0
 10
-229.0744991755616
 20
320.0710317243911
 30
0.0
211
-1.0
221
0.0
231
0.0
1001
ACAD
1000
DSTYLE
1002
{
1070
    41
1040
0.5
1070
    77
1070
     0
1002
}
  0
MTEXT
  5
DAC5
330
1F
100
AcDbEntity
  8
DIM
100
AcDbMText
 10
-205.5236164347205
 20
306.3422411957049
 30
0.0
 40
3.0
 41
82.14575786707797
 71
     2
 72
     5
  1
{\L8" INTERIOR BEARING WALL W/PRECAST PERPENDICULAR TO WALL}\P\P          
  7
RomanC
 73
     1
 44
1.0
1001
ACAD
1000
MTEXTBEGIN
1070
    73
1070
     1
1070
    44
1040
1.0
1070
    74
1070
     0
1000
MTEXTEND
  0
LINE
  5
DAC6
330
1F
100
AcDbEntity
  8
0
 62
     1
100
AcDbLine
 10
-214.8557352519071
 20
350.0465088203126
 30
0.0
 11
-214.6557352519064
 21
350.0465088203126
 31
0.0
  0
LINE
  5
DAC7
330
1F
100
AcDbEntity
  8
0
 48
0.15
100
AcDbLine
 10
-215.6807352519061
 20
350.0465088203126
 30
0.0
 11
-215.2807352519064
 21
350.0465088203126
 31
0.0
  0
LINE
  5
DAC8
330
1F
100
AcDbEntity
  8
0
 62
     1
100
AcDbLine
 10
-215.2307352519072
 20
350.0465088203126
 30
0.0
 11
-215.7307352519072
 21
350.0465088203126
 31
0.0
  0
LINE
  5
DAC9
330
1F
100
AcDbEntity
  8
0
 62
     1
100
AcDbLine
 10
-216.6557352519064
 20
345.0465088203126
 30
0.0
 11
-216.6557352519064
 21
338.0465088203126
 31
0.0
  0
LINE
  5
DACA
330
1F
100
AcDbEntity
  8
0
 62
     1
100
AcDbLine
 10
-216.6557352519064
 20
338.0465088203126
 30
0.0
 11
-214.6557352519064
 21
338.0465088203126
 31
0.0
  0
LINE
  5
DACB
330
1F
100
AcDbEntity
  8
0
 62
     1
100
AcDbLine
 10
-214.6557352519064
 20
345.0465088203126
 30
0.0
 11
-214.6557352519064
 21
338.0465088203126
 31
0.0
  0
LINE
  5
DACC
330
1F
100
AcDbEntity
  8
0
 62
     1
100
AcDbLine
 10
-216.3057352519043
 20
345.0465088203128
 30
0.0
 11
-216.3057352519061
 21
338.0465088203126
 31
0.0
  0
LINE
  5
DACD
330
1F
100
AcDbEntity
  8
0
 62
     1
100
AcDbLine
 10
-214.8557352519071
 20
345.0465088203128
 30
0.0
 11
-214.8557352519071
 21
338.0465088203126
 31
0.0
  0
LINE
  5
DACE
330
1F
100
AcDbEntity
  8
0
 48
0.15
100
AcDbLine
 10
-215.6807352519061
 20
350.0465088203126
 30
0.0
 11
-215.2807352519064
 21
350.0465088203126
 31
0.0
  0
LINE
  5
DACF
330
1F
100
AcDbEntity
  8
A2 Hatch
  6
DASHED2
 48
0.15
100
AcDbLine
 10
-215.890735251907
 20
345.0465088203126
 30
0.0
 11
-215.890735251907
 21
338.0465088203126
 31
0.0
  0
LINE
  5
DAD0
330
1F
100
AcDbEntity
  8
A2 Hatch
  6
DASHED2
 48
0.15
100
AcDbLine
 10
-215.0707352519055
 20
345.0465088203126
 30
0.0
 11
-215.0707352519073
 21
338.0465088203126
 31
0.0
  0
LINE
  5
DAD1
330
1F
100
AcDbEntity
  8
0
 62
     1
100
AcDbLine
 10
-215.7307352519053
 20
345.0465088203126
 30
0.0
 11
-215.7307352519072
 21
338.0465088203126
 31
0.0
  0
LINE
  5
DAD2
330
1F
100
AcDbEntity
  8
0
 62
     1
100
AcDbLine
 10
-215.2307352519053
 20
345.0465088203126
 30
0.0
 11
-215.2307352519072
 21
338.0465088203126
 31
0.0
  0
LINE
  5
DAD3
330
1F
100
AcDbEntity
  8
0
  6
HIDDEN
 62
     1
 48
0.02
100
AcDbLine
 10
-216.3057352519061
 20
338.5465088203126
 30
0.0
 11
-215.6807352519061
 21
338.5465088203126
 31
0.0
  0
LINE
  5
DAD4
330
1F
100
AcDbEntity
  8
0
  6
HIDDEN
 62
     1
 48
0.02
100
AcDbLine
 10
-215.2807352519064
 20
338.5465088203126
 30
0.0
 11
-215.2807352519064
 21
338.0465088203123
 31
0.0
  0
LINE
  5
DAD5
330
1F
100
AcDbEntity
  8
0
  6
HIDDEN
 62
     1
 48
0.02
100
AcDbLine
 10
-215.6807352519061
 20
338.5465088203126
 30
0.0
 11
-215.6807352519042
 21
338.0465088203126
 31
0.0
  0
LINE
  5
DAD6
330
1F
100
AcDbEntity
  8
0
  6
HIDDEN
 62
     1
 48
0.02
100
AcDbLine
 10
-215.2807352519064
 20
338.5465088203126
 30
0.0
 11
-214.6557352519064
 21
338.5465088203126
 31
0.0
  0
LINE
  5
DAD7
330
1F
100
AcDbEntity
  8
0
 62
     1
100
AcDbLine
 10
-204.6557352519065
 20
345.0465088203123
 30
0.0
 11
-204.6557352519065
 21
338.0465088203126
 31
0.0
  0
LINE
  5
DAD8
330
1F
100
AcDbEntity
  8
0
 62
     1
100
AcDbLine
 10
-206.6557352519065
 20
345.0465088203123
 30
0.0
 11
-206.6557352519065
 21
338.0465088203126
 31
0.0
  0
LINE
  5
DAD9
330
1F
100
AcDbEntity
  8
0
 62
     1
100
AcDbLine
 10
-206.4557352519057
 20
345.0465088203123
 30
0.0
 11
-206.4557352519057
 21
338.0465088203126
 31
0.0
  0
LINE
  5
DADA
330
1F
100
AcDbEntity
  8
0
 62
     1
100
AcDbLine
 10
-206.2407352519056
 20
345.0465088203123
 30
0.0
 11
-206.2407352519056
 21
338.0465088203126
 31
0.0
  0
LINE
  5
DADB
330
1F
100
AcDbEntity
  8
0
 62
     1
100
AcDbLine
 10
-205.4207352519059
 20
345.0465088203123
 30
0.0
 11
-205.4207352519059
 21
338.0465088203126
 31
0.0
  0
LINE
  5
DADC
330
1F
100
AcDbEntity
  8
A2 Hatch
  6
DASHED2
 48
0.15
100
AcDbLine
 10
-206.0807352519057
 20
345.0465088203123
 30
0.0
 11
-206.0807352519057
 21
338.0465088203126
 31
0.0
  0
LINE
  5
DADD
330
1F
100
AcDbEntity
  8
A2 Hatch
  6
DASHED2
 48
0.15
100
AcDbLine
 10
-205.5807352519057
 20
345.0465088203123
 30
0.0
 11
-205.5807352519057
 21
338.0465088203126
 31
0.0
  0
LINE
  5
DADE
330
1F
100
AcDbEntity
  8
0
 62
     1
100
AcDbLine
 10
-206.6557352519065
 20
350.0465088203126
 30
0.0
 11
-206.4557352519057
 21
350.0465088203126
 31
0.0
  0
LINE
  5
DADF
330
1F
100
AcDbEntity
  8
0
 62
     1
100
AcDbLine
 10
-206.6557352519065
 20
338.0465088203126
 30
0.0
 11
-204.6557352519065
 21
338.0465088203126
 31
0.0
  0
LINE
  5
DAE0
330
1F
100
AcDbEntity
  8
0
  6
HIDDEN
 62
     1
 48
0.02
100
AcDbLine
 10
-205.005735251905
 20
338.5465088203128
 30
0.0
 11
-205.005735251905
 21
338.0465088203128
 31
0.0
  0
LINE
  5
DAE1
330
1F
100
AcDbEntity
  8
0
  6
HIDDEN
 62
     1
 48
0.02
100
AcDbLine
 10
-206.0307352519046
 20
338.5465088203128
 30
0.0
 11
-206.0307352519046
 21
338.0465088203128
 31
0.0
  0
LINE
  5
DAE2
330
1F
100
AcDbEntity
  8
0
  6
HIDDEN
 62
     1
 48
0.02
100
AcDbLine
 10
-205.630735251905
 20
338.5465088203128
 30
0.0
 11
-205.630735251905
 21
338.0465088203128
 31
0.0
  0
LINE
  5
DAE3
330
1F
100
AcDbEntity
  8
0
  6
HIDDEN
 62
     1
 48
0.02
100
AcDbLine
 10
-206.6557352519028
 20
338.5465088203128
 30
0.0
 11
-206.0307352519028
 21
338.5465088203128
 31
0.0
  0
LINE
  5
DAE4
330
1F
100
AcDbEntity
  8
0
  6
HIDDEN
 62
     1
 48
0.02
100
AcDbLine
 10
-205.630735251905
 20
338.5465088203128
 30
0.0
 11
-205.005735251905
 21
338.5465088203128
 31
0.0
  0
LWPOLYLINE
  5
DAE5
330
1F
100
AcDbEntity
  8
DETAILS
 62
     6
370
    20
100
AcDbPolyline
 90
        2
 70
     1
 43
0.0
 10
-210.3074884895375
 20
341.1965088203124
 10
-210.3256577881637
 20
341.1965088203124
  0
LWPOLYLINE
  5
DAE6
330
1F
100
AcDbEntity
  8
DETAILS
 62
     6
370
    20
100
AcDbPolyline
 90
        6
 70
     0
 43
0.0
 10
-206.6557352519065
 20
340.9971403283026
 10
-207.0258144220386
 20
341.3672194984315
 42
0.1989123673782988
 10
-207.096525100156
 20
341.3965088203125
 10
-210.6557352519064
 20
341.3965088203127
 42
-0.2793220653060733
 10
-210.3699780239347
 20
341.223363265634
 42
0.279322065306064
 10
-210.3256577881637
 20
341.1965088203124
  0
LWPOLYLINE
  5
DAE7
330
1F
100
AcDbEntity
  8
DETAILS
 62
     6
370
    20
100
AcDbPolyline
 90
        2
 70
     1
 43
0.0
 10
-210.2074884895389
 20
341.1965088203124
 10
-208.8074884895375
 20
341.1965088203124
  0
LWPOLYLINE
  5
DAE8
330
1F
100
AcDbEntity
  8
DETAILS
 62
     6
370
    20
100
AcDbPolyline
 90
        6
 70
     0
 43
0.0
 10
-210.2074884895389
 20
341.3965088203123
 10
-210.2074884895389
 20
340.5665088203123
 42
0.4142135623730951
 10
-210.0074884895382
 20
340.3665088203125
 10
-209.1651237292114
 20
340.3665088203125
 42
0.3464949689054693
 10
-208.9706956553635
 20
340.5196289301699
 10
-208.7592651139583
 20
341.3965088203127
  0
LWPOLYLINE
  5
DAE9
330
1F
100
AcDbEntity
  8
DETAILS
 62
     6
370
    20
100
AcDbPolyline
 90
        6
 70
     0
 43
0.0
 10
-210.3074884895393
 20
341.3965088203123
 10
-210.3074884895375
 20
340.5665088203123
 42
0.4142135623730951
 10
-210.0074884895382
 20
340.2665088203126
 10
-209.1651237292114
 20
340.2665088203126
 42
0.3464949689054693
 10
-208.8734816184385
 20
340.4961889850989
 10
-208.6563993106627
 20
341.3965088203125
  0
LWPOLYLINE
  5
DAEA
330
1F
100
AcDbEntity
  8
DETAILS
 62
     6
370
    20
100
AcDbPolyline
 90
        2
 70
     1
 43
0.0
 10
-208.7046226862419
 20
341.1965088203124
 10
-208.6864533876158
 20
341.1965088203124
  0
LWPOLYLINE
  5
DAEB
330
1F
100
AcDbEntity
  8
DETAILS
 62
     6
370
    20
100
AcDbPolyline
 90
        6
 70
     0
 43
0.0
 10
-208.6864533876158
 20
341.1965088203124
 42
0.279322065306064
 10
-208.6421331508879
 20
341.2233632651324
 42
-0.6059183769079624
 10
-208.0706186959048
 20
341.223363265634
 42
0.2793220653054726
 10
-208.0262984601375
 20
341.1965088203124
 10
-207.9331291615069
 20
341.1965088203124
 10
-208.0262984601375
 20
341.1965088203124
  0
LWPOLYLINE
  5
DAEC
330
1F
100
AcDbEntity
  8
DETAILS
 62
     6
370
    20
100
AcDbPolyline
 90
        7
 70
     0
 43
0.0
 10
-207.5051037439205
 20
341.3965088203125
 10
-207.4051037439201
 20
341.3965088203125
 10
-207.1551037439201
 20
341.3965088203125
 10
-207.7511802416427
 20
341.3965088203125
 10
-207.9416992474632
 20
340.6063567269335
 42
0.4853378929632635
 10
-207.7764353846922
 20
340.3965088203125
 10
-206.6557352519065
 20
340.3965088203122
  0
LWPOLYLINE
  5
DAED
330
1F
100
AcDbEntity
  8
DETAILS
 62
     6
370
    20
100
AcDbPolyline
 90
        4
 70
     0
 43
0.0
 10
-207.8849057859277
 20
341.3965088203125
 10
-208.0680774954651
 20
340.6368286555258
 42
0.4853378929632635
 10
-207.7764353846922
 20
340.2665088203126
 10
-206.6557352519065
 20
340.2665088203126
  0
LWPOLYLINE
  5
DAEE
330
1F
100
AcDbEntity
  8
DETAILS
 62
     6
370
    20
100
AcDbPolyline
 90
       10
 70
     1
 43
0.0
 10
-210.6557352519046
 20
341.4465088203124
 10
-207.5051037439205
 20
341.4465088203124
 10
-207.4073761370453
 20
341.4685983928121
 42
0.7807764064044151
 10
-207.4073761370453
 20
341.4744192478129
 10
-207.5051037439205
 20
341.4965088203126
 10
-210.6557352519064
 20
341.4965088203126
 10
-213.8063667598906
 20
341.4965088203126
 10
-213.9040943667658
 20
341.4744192478129
 42
0.7807764064044151
 10
-213.9040943667658
 20
341.4685983928121
 10
-213.8063667598887
 20
341.4465088203124
  0
LWPOLYLINE
  5
DAEF
330
1F
100
AcDbEntity
  8
DETAILS
 62
     6
370
    20
100
AcDbPolyline
 90
        7
 70
     0
 43
0.0
 10
-214.6557352519064
 20
342.245877312324
 10
-214.2856560817725
 20
341.8757981421937
 42
0.1989123673781765
 10
-214.2149454036533
 20
341.8465088203125
 10
-210.6557352519064
 20
341.8465088203125
 10
-207.096525100156
 20
341.8465088203125
 42
0.1989123673781768
 10
-207.0258144220386
 20
341.8757981421937
 10
-206.6557352519065
 20
342.2458773123218
  0
LWPOLYLINE
  5
DAF0
330
1F
100
AcDbEntity
  8
DETAILS
 62
     6
370
    20
100
AcDbPolyline
 90
        7
 70
     0
 43
0.0
 10
-214.6557352519064
 20
342.4458773123229
 10
-214.402813369297
 20
342.1929554297167
 42
0.1989123673777967
 10
-214.0492599787064
 20
342.0465088203126
 10
-210.6557352519046
 20
342.0465088203124
 10
-207.2622105251046
 20
342.0465088203126
 42
0.1989123673777968
 10
-206.9086571345122
 20
342.1929554297167
 10
-206.6557352519065
 20
342.4458773123202
  0
LWPOLYLINE
  5
DAF1
330
1F
100
AcDbEntity
  8
DETAILS
 62
     6
370
    20
100
AcDbPolyline
 90
        4
 70
     0
 43
0.0
 10
-206.6557352519065
 20
340.7971403283009
 10
-206.908657134514
 20
341.0500622109069
 42
0.1989123673788307
 10
-207.2622105251046
 20
341.1965088203124
 10
-207.799403617222
 20
341.1965088203124
  0
LWPOLYLINE
  5
DAF2
330
1F
100
AcDbEntity
  8
DETAILS
 62
     6
370
    20
100
AcDbPolyline
 90
        4
 70
     0
 43
0.0
 10
-206.6557352519065
 20
341.9958773123245
 10
-206.9240377267413
 20
341.727574837491
 42
0.4142135623745727
 10
-206.9240377267431
 20
341.5154428031347
 10
-206.6557352519065
 20
341.2471403282999
  0
LWPOLYLINE
  5
DAF3
330
1F
100
AcDbEntity
  8
DETAILS
 62
     6
370
    20
100
AcDbPolyline
 90
        6
 70
     1
 43
0.0
 10
-210.6557352519064
 20
341.5465088203124
 10
-207.1551037439201
 20
341.5465088203124
 10
-207.1551037439201
 20
341.6965088203124
 10
-210.6557352519064
 20
341.6965088203124
 10
-214.156366759891
 20
341.6965088203124
 10
-214.156366759891
 20
341.5465088203124
  0
LWPOLYLINE
  5
DAF4
330
1F
100
AcDbEntity
  8
DETAILS
 62
     6
370
    20
100
AcDbPolyline
 90
        2
 70
     1
 43
0.0
 10
-211.0039820142717
 20
341.1965088203124
 10
-210.9858127156456
 20
341.1965088203124
  0
LWPOLYLINE
  5
DAF5
330
1F
100
AcDbEntity
  8
DETAILS
 62
     6
370
    20
100
AcDbPolyline
 90
        6
 70
     0
 43
0.0
 10
-210.9858127156456
 20
341.1965088203124
 42
0.279322065306064
 10
-210.9414924789178
 20
341.2233632651324
 42
-0.2793220653060734
 10
-210.6557352519064
 20
341.3965088203125
 10
-214.2149454036533
 20
341.3965088203125
 42
0.1989123673782987
 10
-214.2856560817725
 20
341.3672194984315
 10
-214.6557352519064
 20
340.9971403283007
  0
LWPOLYLINE
  5
DAF6
330
1F
100
AcDbEntity
  8
DETAILS
 62
     6
370
    20
100
AcDbPolyline
 90
        2
 70
     1
 43
0.0
 10
-211.1039820142703
 20
341.1965088203124
 10
-212.5039820142717
 20
341.1965088203124
  0
LWPOLYLINE
  5
DAF7
330
1F
100
AcDbEntity
  8
DETAILS
 62
     6
370
    20
100
AcDbPolyline
 90
        6
 70
     0
 43
0.0
 10
-212.552205389851
 20
341.3965088203127
 10
-212.3407748484476
 20
340.5196289301699
 42
0.3464949689054692
 10
-212.1463467745978
 20
340.3665088203125
 10
-211.303982014271
 20
340.3665088203125
 42
0.4142135623730951
 10
-211.1039820142703
 20
340.5665088203123
 10
-211.1039820142703
 20
341.3965088203123
  0
LWPOLYLINE
  5
DAF8
330
1F
100
AcDbEntity
  8
DETAILS
 62
     6
370
    20
100
AcDbPolyline
 90
        6
 70
     0
 43
0.0
 10
-212.6550711931502
 20
341.3965088203125
 10
-212.4379888853707
 20
340.4961889850989
 42
0.3464949689054692
 10
-212.1463467745978
 20
340.2665088203126
 10
-211.303982014271
 20
340.2665088203126
 42
0.4142135623730951
 10
-211.0039820142717
 20
340.5665088203123
 10
-211.0039820142717
 20
341.3965088203123
  0
LWPOLYLINE
  5
DAF9
330
1F
100
AcDbEntity
  8
DETAILS
 62
     6
370
    20
100
AcDbPolyline
 90
        2
 70
     1
 43
0.0
 10
-212.6068478175692
 20
341.1965088203124
 10
-212.6250171161935
 20
341.1965088203124
  0
LWPOLYLINE
  5
DAFA
330
1F
100
AcDbEntity
  8
DETAILS
 62
     6
370
    20
100
AcDbPolyline
 90
        6
 70
     0
 43
0.0
 10
-213.2851720436754
 20
341.1965088203124
 10
-213.3783413423023
 20
341.1965088203124
 10
-213.2851720436754
 20
341.1965088203124
 42
0.2793220653054726
 10
-213.2408518069458
 20
341.2233632651324
 42
-0.6059183769079624
 10
-212.6693373519645
 20
341.223363265634
 42
0.279322065306064
 10
-212.6250171161935
 20
341.1965088203124
  0
LWPOLYLINE
  5
DAFB
330
1F
100
AcDbEntity
  8
DETAILS
 62
     6
370
    20
100
AcDbPolyline
 90
        7
 70
     0
 43
0.0
 10
-214.6557352519064
 20
340.3965088203122
 10
-213.5350351191171
 20
340.3965088203125
 42
0.4853378929632635
 10
-213.369771256346
 20
340.6063567269335
 10
-213.5602902621702
 20
341.3965088203125
 10
-214.156366759891
 20
341.3965088203125
 10
-213.906366759891
 20
341.3965088203125
 10
-213.8063667598887
 20
341.3965088203125
  0
LWPOLYLINE
  5
DAFC
330
1F
100
AcDbEntity
  8
DETAILS
 62
     6
370
    20
100
AcDbPolyline
 90
        4
 70
     0
 43
0.0
 10
-214.6557352519064
 20
340.2665088203126
 10
-213.5350351191171
 20
340.2665088203126
 42
0.4853378929632635
 10
-213.2433930083441
 20
340.6368286555258
 10
-213.4265647178815
 20
341.3965088203125
  0
LWPOLYLINE
  5
DAFD
330
1F
100
AcDbEntity
  8
DETAILS
 62
     6
370
    20
100
AcDbPolyline
 90
        4
 70
     0
 43
0.0
 10
-213.5120668865891
 20
341.1965088203124
 10
-214.0492599787046
 20
341.1965088203124
 42
0.1989123673788306
 10
-214.402813369297
 20
341.0500622109069
 10
-214.6557352519064
 20
340.7971403282987
  0
LWPOLYLINE
  5
DAFE
330
1F
100
AcDbEntity
  8
DETAILS
 62
     6
370
    20
100
AcDbPolyline
 90
        4
 70
     0
 43
0.0
 10
-214.6557352519064
 20
341.2471403282976
 10
-214.3874327770697
 20
341.5154428031347
 42
0.4142135623745727
 10
-214.3874327770697
 20
341.727574837491
 10
-214.6557352519064
 20
341.9958773123263
  0
LINE
  5
DAFF
330
1F
100
AcDbEntity
  8
0
 62
     1
100
AcDbLine
 10
-216.6557352519064
 20
338.0465088203126
 30
0.0
 11
-215.1057352519071
 21
338.0465088203126
 31
0.0
  0
LINE
  5
DB00
330
1F
100
AcDbEntity
  8
0
 62
     1
100
AcDbLine
 10
-216.3057352519061
 20
338.5465088203126
 30
0.0
 11
-215.6807352519061
 21
338.5465088203126
 31
0.0
  0
LINE
  5
DB01
330
1F
100
AcDbEntity
  8
0
 62
     1
100
AcDbLine
 10
-215.2807352519064
 20
338.5465088203126
 30
0.0
 11
-215.2807352519064
 21
338.0465088203123
 31
0.0
  0
LINE
  5
DB02
330
1F
100
AcDbEntity
  8
0
 62
     1
100
AcDbLine
 10
-215.6807352519061
 20
338.5465088203126
 30
0.0
 11
-215.6807352519042
 21
338.0465088203126
 31
0.0
  0
LINE
  5
DB03
330
1F
100
AcDbEntity
  8
0
 62
     1
100
AcDbLine
 10
-215.2807352519064
 20
338.5465088203126
 30
0.0
 11
-214.6557352519064
 21
338.5465088203126
 31
0.0
  0
LINE
  5
DB04
330
1F
100
AcDbEntity
  8
0
 62
     1
100
AcDbLine
 10
-215.1057352519071
 20
338.2965088203126
 30
0.0
 11
-215.1057352519071
 21
338.0465088203126
 31
0.0
  0
LINE
  5
DB05
330
1F
100
AcDbEntity
  8
0
 62
     1
100
AcDbLine
 10
-215.1057352519071
 20
338.2965088203126
 30
0.0
 11
-214.8557352519071
 21
338.2965088203126
 31
0.0
  0
LINE
  5
DB06
330
1F
100
AcDbEntity
  8
0
 62
     1
100
AcDbLine
 10
-214.8557352519071
 20
338.0465088203126
 30
0.0
 11
-214.6557352519064
 21
338.0465088203126
 31
0.0
  0
LINE
  5
DB07
330
1F
100
AcDbEntity
  8
0
 48
0.15
100
AcDbLine
 10
-215.6807352519061
 20
338.0465088203126
 30
0.0
 11
-215.2807352519064
 21
338.0465088203126
 31
0.0
  0
LINE
  5
DB08
330
1F
100
AcDbEntity
  8
0
 62
     1
100
AcDbLine
 10
-215.2307352519072
 20
338.0465088203126
 30
0.0
 11
-215.7307352519072
 21
338.0465088203126
 31
0.0
  0
LINE
  5
DB09
330
1F
100
AcDbEntity
  8
0
 62
     1
100
AcDbLine
 10
-205.005735251905
 20
338.5465088203126
 30
0.0
 11
-205.005735251905
 21
338.0465088203126
 31
0.0
  0
LINE
  5
DB0A
330
1F
100
AcDbEntity
  8
0
 62
     1
100
AcDbLine
 10
-206.0307352519064
 20
338.5465088203128
 30
0.0
 11
-206.0307352519064
 21
338.0465088203126
 31
0.0
  0
LINE
  5
DB0B
330
1F
100
AcDbEntity
  8
0
 62
     1
100
AcDbLine
 10
-205.630735251905
 20
338.5465088203126
 30
0.0
 11
-205.630735251905
 21
338.0465088203126
 31
0.0
  0
LINE
  5
DB0C
330
1F
100
AcDbEntity
  8
0
 62
     1
100
AcDbLine
 10
-206.6557352519065
 20
338.5465088203126
 30
0.0
 11
-206.0307352519064
 21
338.5465088203126
 31
0.0
  0
LINE
  5
DB0D
330
1F
100
AcDbEntity
  8
0
 62
     1
100
AcDbLine
 10
-205.630735251905
 20
338.5465088203126
 30
0.0
 11
-205.005735251905
 21
338.5465088203126
 31
0.0
  0
LINE
  5
DB0E
330
1F
100
AcDbEntity
  8
0
 62
     1
100
AcDbLine
 10
-206.2057352519057
 20
338.2965088203126
 30
0.0
 11
-206.2057352519057
 21
338.0465088203126
 31
0.0
  0
LINE
  5
DB0F
330
1F
100
AcDbEntity
  8
0
 62
     1
100
AcDbLine
 10
-206.4557352519057
 20
338.2965088203126
 30
0.0
 11
-206.2057352519057
 21
338.2965088203126
 31
0.0
  0
LINE
  5
DB10
330
1F
100
AcDbEntity
  8
0
 62
     1
100
AcDbLine
 10
-206.2407352519056
 20
338.0465088203126
 30
0.0
 11
-204.6557352519065
 21
338.0465088203126
 31
0.0
  0
LINE
  5
DB11
330
1F
100
AcDbEntity
  8
0
 62
     1
100
AcDbLine
 10
-206.6557352519065
 20
338.0465088203126
 30
0.0
 11
-206.4557352519057
 21
338.0465088203126
 31
0.0
  0
LINE
  5
DB12
330
1F
100
AcDbEntity
  8
A4 medium
 48
0.15
100
AcDbLine
 10
-201.6331841085191
 20
348.0353596824126
 30
0.0
 11
-186.6557352519064
 21
348.0353596824126
 31
0.0
  0
LINE
  5
DB13
330
1F
100
AcDbEntity
  8
A4 medium
 48
0.15
100
AcDbLine
 10
-201.6331841085191
 20
348.0463816777543
 30
0.0
 11
-201.6331841085191
 21
347.0463816777543
 31
0.0
  0
LINE
  5
DB14
330
1F
100
AcDbEntity
  8
A4 medium
 48
0.15
100
AcDbLine
 10
-204.6557352519065
 20
345.0465088203126
 30
0.0
 11
-203.6557352519064
 21
345.0465088203126
 31
0.0
  0
ARC
  5
DB15
330
1F
100
AcDbEntity
  8
A4 medium
 48
0.15
100
AcDbCircle
 10
-201.6557352519064
 20
345.0465088203126
 30
0.0
 40
2.0
100
AcDbArc
 50
180.0
 51
89.35394364014051
  0
CIRCLE
  5
DB16
330
1F
100
AcDbEntity
  8
A4 medium
 48
0.15
100
AcDbCircle
 10
-196.1557352519064
 20
345.0465088203126
 30
0.0
 40
2.0
  0
CIRCLE
  5
DB17
330
1F
100
AcDbEntity
  8
A4 medium
 48
0.15
100
AcDbCircle
 10
-190.6557352519064
 20
345.0465088203126
 30
0.0
 40
2.0
  0
LINE
  5
DB18
330
1F
100
AcDbEntity
  8
A4 medium
 48
0.15
100
AcDbLine
 10
-186.6557352519064
 20
348.0353596824126
 30
0.0
 11
-186.6557352519064
 21
347.5353596824125
 31
0.0
  0
LINE
  5
DB19
330
1F
100
AcDbEntity
  8
A4 medium
 48
0.15
100
AcDbLine
 10
-186.9057352519064
 20
347.5353596824123
 30
0.0
 11
-186.6557352519064
 21
347.5353596824125
 31
0.0
  0
LINE
  5
DB1A
330
1F
100
AcDbEntity
  8
A4 medium
 48
0.15
100
AcDbLine
 10
-186.9057352519064
 20
347.5353596824125
 30
0.0
 11
-186.9057352519064
 21
346.8465088203125
 31
0.0
  0
LINE
  5
DB1B
330
1F
100
AcDbEntity
  8
A4 medium
 48
0.15
100
AcDbLine
 10
-186.9057352519064
 20
346.8465088203125
 30
0.0
 11
-186.6557352519064
 21
346.5465088203126
 31
0.0
  0
LINE
  5
DB1C
330
1F
100
AcDbEntity
  8
A4 medium
 48
0.15
100
AcDbLine
 10
-186.6557352519064
 20
346.5465088203126
 30
0.0
 11
-186.6557352519064
 21
342.0465088203124
 31
0.0
  0
LINE
  5
DB1D
330
1F
100
AcDbEntity
  8
A4 medium
 48
0.15
100
AcDbLine
 10
-174.2378158139452
 20
348.0353596824128
 30
0.0
 11
-186.6557352519046
 21
348.0353596824126
 31
0.0
  0
ARC
  5
DB1E
330
1F
100
AcDbEntity
  8
0
 48
0.15
100
AcDbCircle
 10
-171.6557352519064
 20
345.0465088203126
 30
0.0
 40
2.0
100
AcDbArc
 50
108.2871332211322
 51
199.1808430713248
  0
CIRCLE
  5
DB1F
330
1F
100
AcDbEntity
  8
A4 medium
 48
0.15
100
AcDbCircle
 10
-177.1557352519064
 20
345.0465088203126
 30
0.0
 40
2.0
  0
CIRCLE
  5
DB20
330
1F
100
AcDbEntity
  8
A4 medium
 48
0.15
100
AcDbCircle
 10
-182.6557352519064
 20
345.0465088203126
 30
0.0
 40
2.0
  0
LINE
  5
DB21
330
1F
100
AcDbEntity
  8
A4 medium
 48
0.15
100
AcDbLine
 10
-186.6557352519064
 20
348.0353596824126
 30
0.0
 11
-186.6557352519064
 21
347.5353596824125
 31
0.0
  0
LINE
  5
DB22
330
1F
100
AcDbEntity
  8
A4 medium
 48
0.15
100
AcDbLine
 10
-186.4057352519064
 20
347.5353596824123
 30
0.0
 11
-186.6557352519064
 21
347.5353596824125
 31
0.0
  0
LINE
  5
DB23
330
1F
100
AcDbEntity
  8
A4 medium
 48
0.15
100
AcDbLine
 10
-186.4057352519064
 20
347.5353596824125
 30
0.0
 11
-186.4057352519064
 21
346.8465088203125
 31
0.0
  0
LINE
  5
DB24
330
1F
100
AcDbEntity
  8
A4 medium
 48
0.15
100
AcDbLine
 10
-186.4057352519064
 20
346.8465088203125
 30
0.0
 11
-186.6557352519064
 21
346.5465088203126
 31
0.0
  0
LINE
  5
DB25
330
1F
100
AcDbEntity
  8
A4 medium
 48
0.15
100
AcDbLine
 10
-186.6557352519064
 20
346.5465088203126
 30
0.0
 11
-186.6557352519064
 21
342.0465088203124
 31
0.0
  0
LINE
  5
DB26
330
1F
100
AcDbEntity
  8
0
 62
     1
100
AcDbLine
 10
-204.6557352519065
 20
345.0465088203126
 30
0.0
 11
-206.6557352519065
 21
345.0465088203123
 31
0.0
  0
LINE
  5
DB27
330
1F
100
AcDbEntity
  8
A4 medium
 48
0.15
100
AcDbLine
 10
-204.6557352519065
 20
345.0465088203123
 30
0.0
 11
-204.6557352519065
 21
342.0465088203124
 31
0.0
  0
LEADER
  5
DB28
330
1F
100
AcDbEntity
  8
DIM
100
AcDbLeader
  3
ARCTEXT1-4
 76
     3
 10
-210.6557352519064
 20
323.3118227860042
 30
0.0
 10
-221.3956008508919
 20
323.3126620264384
 30
0.0
 10
-229.0744991755616
 20
323.3126620264384
 30
0.0
211
-1.0
221
0.0
231
0.0
1001
ACAD
1000
DSTYLE
1002
{
1070
    41
1040
0.5
1070
    77
1070
     0
1002
}
  0
CIRCLE
  5
DB29
330
1F
100
AcDbEntity
  8
A4 medium
 48
0.15
100
AcDbCircle
 10
-198.9057352519064
 20
343.3449825363851
 30
0.0
 40
0.1
  0
CIRCLE
  5
DB2A
330
1F
100
AcDbEntity
  8
A4 medium
 48
0.15
100
AcDbCircle
 10
-193.4057352519064
 20
343.3449825363851
 30
0.0
 40
0.1
  0
CIRCLE
  5
DB2B
330
1F
100
AcDbEntity
  8
A4 medium
 48
0.15
100
AcDbCircle
 10
-187.9057352519064
 20
343.3449825363851
 30
0.0
 40
0.1
  0
CIRCLE
  5
DB2C
330
1F
100
AcDbEntity
  8
A4 medium
 48
0.15
100
AcDbCircle
 10
-185.4057352519046
 20
343.3449825363851
 30
0.0
 40
0.1
  0
CIRCLE
  5
DB2D
330
1F
100
AcDbEntity
  8
A4 medium
 48
0.15
100
AcDbCircle
 10
-179.9057352519046
 20
343.3449825363851
 30
0.0
 40
0.1
  0
CIRCLE
  5
DB2E
330
1F
100
AcDbEntity
  8
A4 medium
 48
0.15
100
AcDbCircle
 10
-174.4057352519064
 20
343.3449825363851
 30
0.0
 40
0.1
  0
MTEXT
  5
DB2F
330
1F
100
AcDbEntity
  8
DIM
 62
     3
100
AcDbMText
 10
-196.3574030372926
 20
333.7484827193203
 30
0.0
 40
1.0
 41
16.07546435255318
 71
     1
 72
     5
  1
PRECAST + TOPPING 
  7
RomanC
 73
     1
 44
1.0
1001
ACAD
1000
MTEXTBEGIN
1070
    73
1070
     1
1070
    44
1040
1.0
1070
    74
1070
     0
1000
MTEXTEND
  0
LINE
  5
DB30
330
1F
100
AcDbEntity
  8
A4 medium
 48
0.15
100
AcDbLine
 10
-216.6557352519064
 20
342.0465088203126
 30
0.0
 11
-246.610559060349
 21
342.0465088203126
 31
0.0
  0
LINE
  5
DB31
330
1F
100
AcDbEntity
  8
DIM
100
AcDbLine
 10
-252.9643914773276
 20
348.3360267495594
 30
0.0
 11
-246.4643914773276
 21
348.3360267495594
 31
0.0
  0
LINE
  5
DB32
330
1F
100
AcDbEntity
  8
DIM
100
AcDbLine
 10
-246.4643914773276
 20
348.3360267495594
 30
0.0
 11
-249.0779080868977
 21
347.0462748693122
 31
0.0
  0
LINE
  5
DB33
330
1F
100
AcDbEntity
  8
DIM
100
AcDbLine
 10
-249.0779080868977
 20
347.0462748693122
 30
0.0
 11
-245.6835544417606
 21
340.1680529677281
 31
0.0
  0
LINE
  5
DB34
330
1F
100
AcDbEntity
  8
DIM
100
AcDbLine
 10
-254.0729336727616
 20
357.1680529677367
 30
0.0
 11
-250.3508748677539
 21
349.6257786298063
 31
0.0
  0
LINE
  5
DB35
330
1F
100
AcDbEntity
  8
DIM
100
AcDbLine
 10
-252.9643914773276
 20
348.3360267495594
 30
0.0
 11
-250.3508748677539
 21
349.6257786298066
 31
0.0
  0
LINE
  5
DB36
330
1F
100
AcDbEntity
  8
A4 medium
 48
0.15
100
AcDbLine
 10
-248.9821679155336
 20
351.0465008858119
 30
0.0
 11
-248.9821679155336
 21
351.0465008858119
 31
0.0
  0
LINE
  5
DB37
330
1F
100
AcDbEntity
  8
A4 medium
 48
0.15
100
AcDbLine
 10
-219.6782863952919
 20
348.0353596824126
 30
0.0
 11
-234.6557352519064
 21
348.0353596824126
 31
0.0
  0
LINE
  5
DB38
330
1F
100
AcDbEntity
  8
A4 medium
 48
0.15
100
AcDbLine
 10
-219.6782863952919
 20
348.0463816777543
 30
0.0
 11
-219.6782863952919
 21
347.0463816777543
 31
0.0
  0
LINE
  5
DB39
330
1F
100
AcDbEntity
  8
A4 medium
 48
0.15
100
AcDbLine
 10
-216.6557352519064
 20
345.0465088203128
 30
0.0
 11
-217.6557352519064
 21
345.0465088203128
 31
0.0
  0
ARC
  5
DB3A
330
1F
100
AcDbEntity
  8
A4 medium
 48
0.15
100
AcDbCircle
 10
-219.6557352519064
 20
345.0465088203128
 30
0.0
 40
2.0
100
AcDbArc
 50
90.64605635985946
 51
0.0
  0
CIRCLE
  5
DB3B
330
1F
100
AcDbEntity
  8
A4 medium
 48
0.15
100
AcDbCircle
 10
-225.1557352519064
 20
345.0465088203128
 30
0.0
 40
2.0
  0
CIRCLE
  5
DB3C
330
1F
100
AcDbEntity
  8
A4 medium
 48
0.15
100
AcDbCircle
 10
-230.6557352519064
 20
345.0465088203128
 30
0.0
 40
2.0
  0
LINE
  5
DB3D
330
1F
100
AcDbEntity
  8
A4 medium
 48
0.15
100
AcDbLine
 10
-234.6557352519064
 20
348.0353596824126
 30
0.0
 11
-234.6557352519064
 21
347.5353596824125
 31
0.0
  0
LINE
  5
DB3E
330
1F
100
AcDbEntity
  8
A4 medium
 48
0.15
100
AcDbLine
 10
-234.4057352519064
 20
347.5353596824125
 30
0.0
 11
-234.6557352519064
 21
347.5353596824125
 31
0.0
  0
LINE
  5
DB3F
330
1F
100
AcDbEntity
  8
A4 medium
 48
0.15
100
AcDbLine
 10
-234.4057352519064
 20
347.5353596824125
 30
0.0
 11
-234.4057352519064
 21
346.8465088203125
 31
0.0
  0
LINE
  5
DB40
330
1F
100
AcDbEntity
  8
A4 medium
 48
0.15
100
AcDbLine
 10
-234.4057352519064
 20
346.8465088203125
 30
0.0
 11
-234.6557352519064
 21
346.5465088203128
 31
0.0
  0
LINE
  5
DB41
330
1F
100
AcDbEntity
  8
A4 medium
 48
0.15
100
AcDbLine
 10
-234.6557352519064
 20
346.5465088203128
 30
0.0
 11
-234.6557352519064
 21
342.0465088203126
 31
0.0
  0
LINE
  5
DB42
330
1F
100
AcDbEntity
  8
A4 medium
 48
0.15
100
AcDbLine
 10
-247.0736546898677
 20
348.035359682413
 30
0.0
 11
-234.6557352519064
 21
348.0353596824126
 31
0.0
  0
ARC
  5
DB43
330
1F
100
AcDbEntity
  8
0
 48
0.15
100
AcDbCircle
 10
-249.6557352519064
 20
345.0465088203128
 30
0.0
 40
2.0
100
AcDbArc
 50
340.8191569286751
 51
71.71286677886773
  0
CIRCLE
  5
DB44
330
1F
100
AcDbEntity
  8
A4 medium
 48
0.15
100
AcDbCircle
 10
-244.1557352519065
 20
345.0465088203128
 30
0.0
 40
2.0
  0
CIRCLE
  5
DB45
330
1F
100
AcDbEntity
  8
A4 medium
 48
0.15
100
AcDbCircle
 10
-238.6557352519064
 20
345.0465088203128
 30
0.0
 40
2.0
  0
LINE
  5
DB46
330
1F
100
AcDbEntity
  8
A4 medium
 48
0.15
100
AcDbLine
 10
-234.6557352519064
 20
348.0353596824126
 30
0.0
 11
-234.6557352519064
 21
347.5353596824125
 31
0.0
  0
LINE
  5
DB47
330
1F
100
AcDbEntity
  8
A4 medium
 48
0.15
100
AcDbLine
 10
-234.9057352519064
 20
347.5353596824125
 30
0.0
 11
-234.6557352519064
 21
347.5353596824125
 31
0.0
  0
LINE
  5
DB48
330
1F
100
AcDbEntity
  8
A4 medium
 48
0.15
100
AcDbLine
 10
-234.9057352519064
 20
347.5353596824125
 30
0.0
 11
-234.9057352519064
 21
346.8465088203125
 31
0.0
  0
LINE
  5
DB49
330
1F
100
AcDbEntity
  8
A4 medium
 48
0.15
100
AcDbLine
 10
-234.9057352519064
 20
346.8465088203125
 30
0.0
 11
-234.6557352519064
 21
346.5465088203128
 31
0.0
  0
LINE
  5
DB4A
330
1F
100
AcDbEntity
  8
A4 medium
 48
0.15
100
AcDbLine
 10
-234.6557352519064
 20
346.5465088203128
 30
0.0
 11
-234.6557352519064
 21
342.0465088203126
 31
0.0
  0
LINE
  5
DB4B
330
1F
100
AcDbEntity
  8
A4 medium
 48
0.15
100
AcDbLine
 10
-216.6557352519064
 20
345.0465088203126
 30
0.0
 11
-216.6557352519064
 21
342.0465088203126
 31
0.0
  0
CIRCLE
  5
DB4C
330
1F
100
AcDbEntity
  8
A4 medium
 48
0.15
100
AcDbCircle
 10
-222.4057352519064
 20
343.3449825363851
 30
0.0
 40
0.1
  0
CIRCLE
  5
DB4D
330
1F
100
AcDbEntity
  8
A4 medium
 48
0.15
100
AcDbCircle
 10
-227.9057352519064
 20
343.3449825363851
 30
0.0
 40
0.1
  0
CIRCLE
  5
DB4E
330
1F
100
AcDbEntity
  8
A4 medium
 48
0.15
100
AcDbCircle
 10
-233.4057352519064
 20
343.3449825363851
 30
0.0
 40
0.1
  0
CIRCLE
  5
DB4F
330
1F
100
AcDbEntity
  8
A4 medium
 48
0.15
100
AcDbCircle
 10
-235.9057352519065
 20
343.3449825363851
 30
0.0
 40
0.1
  0
CIRCLE
  5
DB50
330
1F
100
AcDbEntity
  8
A4 medium
 48
0.15
100
AcDbCircle
 10
-241.4057352519064
 20
343.3449825363851
 30
0.0
 40
0.1
  0
CIRCLE
  5
DB51
330
1F
100
AcDbEntity
  8
A4 medium
 48
0.15
100
AcDbCircle
 10
-246.9057352519064
 20
343.3449825363851
 30
0.0
 40
0.1
  0
LINE
  5
DB52
330
1F
100
AcDbEntity
  8
0
 48
0.15
100
AcDbLine
 10
-216.6557352519064
 20
345.0465088203128
 30
0.0
 11
-214.6557352519064
 21
345.0465088203126
 31
0.0
  0
HATCH
  5
DB53
330
1F
100
AcDbEntity
  8
A2 Hatch
 48
0.15
100
AcDbHatch
 10
0.0
 20
0.0
 30
0.0
210
0.0
220
0.0
230
1.0
  2
AR-CONC
 70
     0
 71
     0
 91
        1
 92
        1
 93
        8
 72
     1
 10
-206.5840784697737
 20
348.333801161733
 11
-214.6557352519064
 21
348.3338011617257
 72
     1
 10
-214.6557352519064
 20
348.3338011617259
 11
-214.7797811822763
 21
312.9709163296121
 72
     1
 10
-214.7797811822745
 20
312.9709163296121
 11
-211.9098207296845
 21
313.9442422567432
 72
     1
 10
-211.9098207296845
 20
313.9442422567432
 11
-212.8458637464862
 21
316.704269874686
 72
     1
 10
-212.8458637464862
 20
316.704269874686
 11
-208.2496696687738
 21
312.1080757969731
 72
     1
 10
-208.2496696687738
 20
312.1080757969731
 11
-209.1857126855737
 21
314.8681034149159
 72
     1
 10
-209.1857126855737
 20
314.8681034149159
 11
-206.5797811822756
 21
315.751885870594
 72
     1
 10
-206.5797811822756
 20
315.751885870594
 11
-206.5840784697737
 21
348.333801161733
 97
        0
 75
     0
 76
     1
 52
0.0
 41
0.8
 77
     0
 78
    13
 53
50.0
 43
-6611.977161456396
 44
2157.138547136091
 45
5.738081460806028
 46
-0.502017079860761
 79
     2
 49
0.6000000000000001
 49
-6.6
 53
355.0
 43
-6611.977161456396
 44
2157.138547136091
 45
-1.110010668904
 46
6.017537069600095
 79
     2
 49
0.48
 49
-5.28
 53
100.4514
 43
-6611.498988016396
 44
2157.096712416091
 45
4.628075053712172
 46
5.515516336487628
 79
     2
 49
0.50992152
 49
-5.609136895999998
 53
46.1842
 43
-6611.977161456396
 44
2158.738547136091
 45
8.537928389005156
 46
-1.324152114632144
 79
     2
 49
0.9
 49
-9.9
 53
96.63559999999998
 43
-6611.265667496394
 44
2158.628200680091
 45
7.477301644389626
 46
7.792942967203534
 79
     2
 49
0.7648823039999999
 49
-8.413703999999997
 53
351.1842000000001
 43
-6611.977161456396
 44
2158.738547136091
 45
7.477295561069017
 46
7.792948807402597
 79
     2
 49
0.7200000000000001
 49
-7.92
 53
21.0
 43
-6611.177161456395
 44
2158.338547136091
 45
4.775256416947693
 46
-3.22095112532271
 79
     2
 49
0.6000000000000001
 49
-6.6
 53
326.0
 43
-6611.177161456395
 44
2158.338547136091
 45
1.946522655372653
 46
5.801200360374824
 79
     2
 49
0.48
 49
-5.28
 53
71.45140000000001
 43
-6610.779223592395
 44
2158.070134288091
 45
6.721781028651919
 46
2.580243973679619
 79
     2
 49
0.5099215200000002
 49
-5.609136895999999
 53
37.5
 43
-6611.977161456396
 44
2157.138547136091
 45
0.0972788425383254
 46
2.663150830650492
 79
     6
 49
0.0
 49
-5.216
 49
0.0
 49
-5.36
 49
0.0
 49
-5.3
 53
7.499999999999999
 43
-6611.977161456396
 44
2157.138547136091
 45
2.104556299537188
 46
3.155293695058881
 79
     6
 49
0.0
 49
-3.056
 49
0.0
 49
-5.096
 49
0.0
 49
-2.02
 53
327.5
 43
-6613.761161456395
 44
2157.138547136091
 45
4.270579489379272
 46
-0.1804389738750384
 79
     6
 49
0.0
 49
-2.0
 49
0.0
 49
-6.24
 49
0.0
 49
-8.279999999999999
 53
317.5
 43
-6614.561161456395
 44
2157.138547136091
 45
4.665489354739089
 46
0.8008398586585411
 79
     6
 49
0.0
 49
-2.6
 49
0.0
 49
-4.144
 49
0.0
 49
-5.879999999999999
 98
        1
 10
-6194.139790058773
 20
917.8316689882745
  0
HATCH
  5
DB54
330
1F
100
AcDbEntity
  8
0
 48
0.15
100
AcDbHatch
 10
0.0
 20
0.0
 30
0.0
210
0.0
220
0.0
230
1.0
  2
AR-CONC
 70
     0
 71
     0
 91
        1
 92
       33
 93
       12
 72
     1
 10
-204.6557352519028
 20
350.0465088203124
 11
-204.6557352519028
 21
345.0465088203123
 72
     1
 10
-204.6557352519046
 20
350.0465088203124
 11
-168.9529682759328
 21
350.0465088203124
 72
     1
 10
-204.6557352519028
 20
345.0465088203121
 11
-202.8557352519035
 21
345.0465088203121
 72
     1
 10
-202.8557352519035
 20
345.0465088203123
 11
-201.8557352519035
 21
345.0465088203123
 72
     2
 10
-199.8557352519035
 20
345.0465088203123
 40
2.0
 50
180.0
 51
449.3539436401014
 73
     1
 72
     1
 10
-199.833184108518
 20
348.046381677754
 11
-199.833184108518
 21
347.046381677754
 72
     1
 10
-199.833184108518
 20
348.0353596824123
 11
-184.8557352519053
 21
348.0353596824121
 72
     1
 10
-172.4378158139423
 20
348.0353596824126
 11
-184.8557352519017
 21
348.0353596824121
 72
     1
 10
-173.0470790264823
 20
348.3360267495592
 11
-172.4378158139423
 21
348.0353596824126
 72
     1
 10
-166.5470790264824
 20
348.3360267495592
 11
-173.0470790264823
 21
348.3360267495592
 72
     1
 10
-169.1605956360561
 20
349.6257786298061
 11
-166.5470790264842
 21
348.3360267495592
 72
     1
 10
-168.9529682759328
 20
350.0465088203124
 11
-169.1605956360561
 21
349.6257786298061
 97
        0
 75
     0
 76
     1
 52
0.0
 41
0.8
 77
     0
 78
    13
 53
50.0
 43
-5750.855532075574
 44
728.0344535954273
 45
5.738081460806028
 46
-0.502017079860761
 79
     2
 49
0.6000000000000001
 49
-6.6
 53
355.0
 43
-5750.855532075574
 44
728.0344535954273
 45
-1.110010668904
 46
6.017537069600095
 79
     2
 49
0.48
 49
-5.28
 53
100.451445
 43
-5750.377358635574
 44
727.9926188754273
 45
4.628070721834346
 46
5.515519971367574
 79
     2
 49
0.5099215199999995
 49
-5.609136895999994
 53
46.1842
 43
-5750.855532075574
 44
729.6344535954272
 45
8.537928389005156
 46
-1.324152114632144
 79
     2
 49
0.9
 49
-9.9
 53
96.63564499999996
 43
-5750.144038115574
 44
729.5241071394273
 45
7.477295523824224
 46
7.792948839860111
 79
     2
 49
0.7648823039999997
 49
-8.413703999999995
 53
351.1842000000001
 43
-5750.855532075574
 44
729.6344535954272
 45
7.477295561069017
 46
7.792948807402597
 79
     2
 49
0.7200000000000001
 49
-7.92
 53
21.0
 43
-5750.055532075574
 44
729.2344535954273
 45
4.775256416947693
 46
-3.22095112532271
 79
     2
 49
0.6000000000000001
 49
-6.6
 53
326.0
 43
-5750.055532075574
 44
729.2344535954273
 45
1.946522655372653
 46
5.801200360374824
 79
     2
 49
0.48
 49
-5.28
 53
71.45144499999999
 43
-5749.657594211574
 44
728.9660407474273
 45
6.721779002130969
 46
2.580249252953295
 79
     2
 49
0.5099215200000002
 49
-5.609136895999999
 53
37.5
 43
-5750.855532075574
 44
728.0344535954273
 45
0.0972788425383254
 46
2.663150830650492
 79
     6
 49
0.0
 49
-5.216
 49
0.0
 49
-5.36
 49
0.0
 49
-5.3
 53
7.499999999999999
 43
-5750.855532075574
 44
728.0344535954273
 45
2.104556299537188
 46
3.155293695058881
 79
     6
 49
0.0
 49
-3.056
 49
0.0
 49
-5.096
 49
0.0
 49
-2.02
 53
327.5
 43
-5752.639532075574
 44
728.0344535954273
 45
4.270579489379272
 46
-0.1804389738750384
 79
     6
 49
0.0
 49
-2.0
 49
0.0
 49
-6.24
 49
0.0
 49
-8.279999999999999
 53
317.5
 43
-5753.439532075574
 44
728.0344535954273
 45
4.665489354739089
 46
0.8008398586585411
 79
     6
 49
0.0
 49
-2.6
 49
0.0
 49
-4.144
 49
0.0
 49
-5.879999999999999
 98
        1
 10
-5750.855532075574
 20
728.0344535954273
  0
HATCH
  5
DB55
330
1F
100
AcDbEntity
  8
0
 48
0.15
100
AcDbHatch
 10
0.0
 20
0.0
 30
0.0
210
0.0
220
0.0
230
1.0
  2
AR-CONC
 70
     0
 71
     0
 91
        1
 92
       33
 93
       12
 72
     1
 10
-216.6557352519064
 20
350.0465088203124
 11
-216.6557352519064
 21
345.0465088203123
 72
     1
 10
-216.6557352519046
 20
350.0465088203124
 11
-252.3585022278764
 21
350.0465088203124
 72
     1
 10
-216.6557352519064
 20
345.0465088203123
 11
-218.4557352519057
 21
345.0465088203123
 72
     1
 10
-218.4557352519057
 20
345.0465088203123
 11
-219.4557352519057
 21
345.0465088203123
 72
     2
 10
-221.4557352519057
 20
345.0465088203123
 40
1.999999999999999
 50
0.0
 51
269.3539436401014
 73
     0
 72
     1
 10
-221.4782863952912
 20
348.0463816777543
 11
-221.4782863952912
 21
347.0463816777543
 72
     1
 10
-221.4782863952912
 20
348.0353596824126
 11
-236.4557352519039
 21
348.0353596824126
 72
     1
 10
-248.873654689867
 20
348.0353596824126
 11
-236.4557352519075
 21
348.0353596824121
 72
     1
 10
-248.2643914773269
 20
348.3360267495592
 11
-248.873654689867
 21
348.0353596824126
 72
     1
 10
-254.7643914773269
 20
348.3360267495592
 11
-248.2643914773269
 21
348.3360267495592
 72
     1
 10
-252.1508748677531
 20
349.6257786298061
 11
-254.764391477325
 21
348.3360267495592
 72
     1
 10
-252.3585022278764
 20
350.0465088203124
 11
-252.1508748677531
 21
349.6257786298061
 97
        0
 75
     0
 76
     1
 52
0.0
 41
0.8
 77
     0
 78
    13
 53
130.0
 43
5329.544061571762
 44
728.0344535954273
 45
-5.738081460806027
 46
-0.502017079860761
 79
     2
 49
0.6
 49
-6.599999999999999
 53
185.0
 43
5329.544061571762
 44
728.0344535954273
 45
1.110010668903999
 46
6.017537069600095
 79
     2
 49
0.4799999999999999
 49
-5.279999999999999
 53
79.54855500000002
 43
5329.065888131763
 44
727.9926188754274
 45
-4.628070721834345
 46
5.515519971367574
 79
     2
 49
0.5099215199999999
 49
-5.609136895999998
 53
133.8157999999999
 43
5329.544061571762
 44
729.6344535954274
 45
-8.537928389005154
 46
-1.324152114632144
 79
     2
 49
0.9
 49
-9.899999999999998
 53
83.36435500000003
 43
5328.832567611762
 44
729.5241071394273
 45
-7.477295523824222
 46
7.792948839860111
 79
     2
 49
0.764882304
 49
-8.413704
 53
188.8158
 43
5329.544061571762
 44
729.6344535954274
 45
-7.477295561069015
 46
7.792948807402597
 79
     2
 49
0.7199999999999993
 49
-7.919999999999993
 53
159.0
 43
5328.744061571763
 44
729.2344535954273
 45
-4.775256416947692
 46
-3.22095112532271
 79
     2
 49
0.6
 49
-6.599999999999998
 53
214.0
 43
5328.744061571763
 44
729.2344535954273
 45
-1.946522655372653
 46
5.801200360374824
 79
     2
 49
0.4799999999999999
 49
-5.279999999999999
 53
108.548555
 43
5328.346123707763
 44
728.9660407474273
 45
-6.721779002130968
 46
2.580249252953295
 79
     2
 49
0.5099215199999994
 49
-5.609136895999993
 53
142.5
 43
5329.544061571762
 44
728.0344535954273
 45
-0.0972788425383254
 46
2.663150830650492
 79
     6
 49
0.0
 49
-5.215999999999999
 49
0.0
 49
-5.359999999999999
 49
0.0
 49
-5.299999999999999
 53
172.5
 43
5329.544061571762
 44
728.0344535954273
 45
-2.104556299537188
 46
3.155293695058881
 79
     6
 49
0.0
 49
-3.055999999999999
 49
0.0
 49
-5.095999999999999
 49
0.0
 49
-2.019999999999999
 53
212.5
 43
5331.328061571761
 44
728.0344535954273
 45
-4.270579489379271
 46
-0.1804389738750384
 79
     6
 49
0.0
 49
-1.999999999999999
 49
0.0
 49
-6.239999999999998
 49
0.0
 49
-8.279999999999997
 53
222.5
 43
5332.128061571764
 44
728.0344535954273
 45
-4.665489354739088
 46
0.8008398586585411
 79
     6
 49
0.0
 49
-2.599999999999999
 49
0.0
 49
-4.143999999999999
 49
0.0
 49
-5.879999999999999
 98
        1
 10
5329.544061571762
 20
728.0344535954273
  0
LWPOLYLINE
  5
DB56
330
1F
100
AcDbEntity
  8
DIM
100
AcDbPolyline
 90
        6
 70
     0
 43
0.0
 10
-202.6668005963145
 20
318.7907408971312
 10
-209.2936812307432
 20
316.5432831902929
 10
-208.3576382139433
 20
313.7832555723501
 10
-212.9538322916558
 20
318.379449650063
 10
-212.0177892748541
 20
315.6194220321207
 10
-219.4825915063573
 20
313.0877893936734
  0
LWPOLYLINE
  5
DB57
330
1F
100
AcDbEntity
  8
DETAILS
 62
     6
370
    20
100
AcDbPolyline
 90
        2
 70
     0
 43
0.0
 10
-208.8236910086505
 20
316.7026769088537
 10
-208.6563993106627
 20
317.3964968498154
  0
LWPOLYLINE
  5
DB58
330
1F
100
AcDbEntity
  8
DETAILS
 62
     6
370
    20
100
AcDbPolyline
 90
        2
 70
     0
 43
0.0
 10
-208.9357175604434
 20
316.6646839297913
 10
-208.7592651139583
 20
317.3964968498154
  0
LWPOLYLINE
  5
DB59
330
1F
100
AcDbEntity
  8
DETAILS
 62
     6
370
    20
100
AcDbPolyline
 90
        3
 70
     0
 43
0.0
 10
-211.0266007455409
 20
316.4522181039477
 42
0.0980123042656956
 10
-211.0039820142717
 20
316.5664968498155
 10
-211.0039820142717
 20
317.3964968498154
  0
LWPOLYLINE
  5
DB5A
330
1F
100
AcDbEntity
  8
DETAILS
 62
     6
370
    20
100
AcDbPolyline
 90
        3
 70
     0
 43
0.0
 10
-211.1068911849031
 20
316.5325085433104
 42
0.0427185414850714
 10
-211.1039820142703
 20
316.5664968498155
 10
-211.1039820142703
 20
317.3964968498154
  0
LWPOLYLINE
  5
DB5B
330
1F
100
AcDbEntity
  8
DETAILS
 62
     6
370
    20
100
AcDbPolyline
 90
        4
 70
     0
 43
0.0
 10
-212.6204710968139
 20
317.3964968498154
 10
-214.2149454036533
 20
317.3964968498154
 42
0.1989123673782987
 10
-214.2856560817725
 20
317.3672075279342
 10
-214.6557352519064
 20
316.9971283578034
  0
LWPOLYLINE
  5
DB5C
330
1F
100
AcDbEntity
  8
DETAILS
 62
     6
370
    20
100
AcDbPolyline
 90
        6
 70
     0
 43
0.0
 10
-212.6543853595083
 20
317.4964968498153
 10
-213.8063667598906
 20
317.4964968498153
 10
-213.9040943667658
 20
317.4744072773156
 42
0.7807764064044151
 10
-213.9040943667658
 20
317.4685864223148
 10
-213.8063667598887
 20
317.4464968498151
 10
-212.6374282281592
 20
317.4464968498151
  0
LWPOLYLINE
  5
DB5D
330
1F
100
AcDbEntity
  8
DETAILS
 62
     6
370
    20
100
AcDbPolyline
 90
        4
 70
     0
 43
0.0
 10
-212.7222138848972
 20
317.6964968498156
 10
-214.156366759891
 20
317.6964968498156
 10
-214.156366759891
 20
317.5464968498153
 10
-212.6713424908537
 20
317.5464968498153
  0
LWPOLYLINE
  5
DB5E
330
1F
100
AcDbEntity
  8
DETAILS
 62
     6
370
    20
100
AcDbPolyline
 90
        5
 70
     0
 43
0.0
 10
-212.4208794914082
 20
317.8464968498152
 10
-210.6557352519064
 20
317.8464968498152
 10
-207.096525100156
 20
317.8464968498154
 42
0.1989123673781768
 10
-207.0258144220386
 20
317.8757861716964
 10
-206.6557352519065
 20
318.2458653418244
  0
LINE
  5
DB5F
330
1F
100
AcDbEntity
  8
DETAILS
 62
     6
370
    20
100
AcDbLine
 10
-211.1039820142703
 20
317.1964968498155
 30
0.0
 11
-211.7708794914086
 21
317.1964968498155
 31
0.0
  0
LINE
  5
DB60
330
1F
100
AcDbEntity
  8
DETAILS
 62
     6
370
    20
100
AcDbLine
 10
-211.7708794914086
 20
317.1964968498155
 30
0.0
 11
-211.1039820142703
 21
317.1964968498155
 31
0.0
  0
MTEXT
  5
DB61
330
1F
100
AcDbEntity
  8
DIM
 62
     3
100
AcDbMText
 10
-240.8790530601907
 20
320.7127517648401
 30
0.0
 40
1.0
 41
16.07546435255318
 71
     1
 72
     5
  1
GREENBLOCK ICF
  7
RomanC
 73
     1
 44
1.0
1001
ACAD
1000
MTEXTBEGIN
1070
    73
1070
     1
1070
    44
1040
1.0
1070
    74
1070
     0
1000
MTEXTEND
  0
MTEXT
  5
DB62
330
1F
100
AcDbEntity
  8
DIM
 62
     3
100
AcDbMText
 10
-196.3308908066754
 20
325.4978741937244
 30
0.0
 40
1.0
 41
16.07546435255318
 71
     1
 72
     5
  1
REINFORCEMENT PER ENGINEER
  7
RomanC
 73
     1
 44
1.0
1001
ACAD
1000
MTEXTBEGIN
1070
    73
1070
     1
1070
    44
1040
1.0
1070
    74
1070
     0
1000
MTEXTEND
  0
LWPOLYLINE
  5
DB63
330
1F
100
AcDbEntity
  8
A4 medium
 48
0.15
100
AcDbPolyline
 90
        4
 70
     1
 43
0.0
 10
-196.9290277446651
 20
326.1835026674904
 10
-180.9528303754648
 20
326.1835026674904
 10
-180.9528303754648
 20
321.9563585448391
 10
-196.9290277446651
 20
321.9563585448391
  0
LINE
  5
DB64
330
1F
100
AcDbEntity
  8
REBAR
 48
0.15
100
AcDbLine
 10
-206.5748518130747
 20
349.0465068710606
 30
0.0
 11
-195.2484191494438
 21
349.0465068710606
 31
0.0
  0
LINE
  5
DB65
330
1F
100
AcDbEntity
  8
REBAR
 48
0.15
100
AcDbLine
 10
-209.5748518130729
 20
325.64636859155
 30
0.0
 11
-209.5748518130747
 21
346.0465068710604
 31
0.0
  0
ARC
  5
DB66
330
1F
100
AcDbEntity
  8
REBAR
 48
0.15
100
AcDbCircle
 10
-206.5748518130747
 20
346.0465068710607
 30
0.0
 40
3.0
100
AcDbArc
 50
90.0
 51
180.0
  0
LINE
  5
DB67
330
1F
100
AcDbEntity
  8
REBAR
 48
0.15
100
AcDbLine
 10
-169.7867757827005
 20
349.0465068710608
 30
0.0
 11
-251.5246947211106
 21
349.0465068710608
 31
0.0
  0
LINE
  5
DB68
330
1F
100
AcDbEntity
  8
REBAR
 48
0.15
100
AcDbLine
 10
-211.7366186907382
 20
325.6463685915502
 30
0.0
 11
-211.7366186907363
 21
346.0465068710607
 31
0.0
  0
ARC
  5
DB69
330
1F
100
AcDbEntity
  8
REBAR
 48
0.15
100
AcDbCircle
 10
-214.7366186907364
 20
346.0465068710609
 30
0.0
 40
3.0
100
AcDbArc
 50
0.0
 51
90.0
  0
MTEXT
  5
DB6A
330
1F
100
AcDbEntity
  8
Defpoints
100
AcDbMText
 10
-207.1048665786782
 20
292.6423061015208
 30
0.0
 40
3.0
 41
90.07999999999999
 71
     2
 72
     5
  1
{\L30}\P            
  7
RomanC
 73
     1
 44
1.0
1001
ACAD
1000
MTEXTBEGIN
1070
    73
1070
     1
1070
    44
1040
1.0
1070
    74
1070
     0
1000
MTEXTEND
  0
LINE
  5
DB6B
330
1F
100
AcDbEntity
  8
REBAR
 48
0.15
100
AcDbLine
 10
-201.8068560516237
 20
344.3577279257857
 30
0.0
 11
-201.8068560516237
 21
344.9236387657089
 31
0.0
  0
LINE
  5
DB6C
330
1F
100
AcDbEntity
  8
REBAR
 48
0.15
100
AcDbLine
 10
-202.8068560516238
 20
345.9236387657089
 30
0.0
 11
-207.349423860205
 21
345.9236387657087
 31
0.0
  0
LINE
  5
DB6D
330
1F
100
AcDbEntity
  8
REBAR
 48
0.15
100
AcDbLine
 10
-208.349423860205
 20
344.9236387657088
 30
0.0
 11
-208.349423860205
 21
342.3128075094515
 31
0.0
  0
ARC
  5
DB6E
330
1F
100
AcDbEntity
  8
REBAR
 48
0.15
100
AcDbCircle
 10
-202.8068560516238
 20
344.9236387657089
 30
0.0
 40
1.0
100
AcDbArc
 50
0.0
 51
90.0
  0
ARC
  5
DB6F
330
1F
100
AcDbEntity
  8
REBAR
 48
0.15
100
AcDbCircle
 10
-207.349423860205
 20
344.9236387657088
 30
0.0
 40
1.0
100
AcDbArc
 50
90.0
 51
180.0
  0
LINE
  5
DB70
330
1F
100
AcDbEntity
  8
REBAR
 48
0.15
100
AcDbLine
 10
-219.5046144521873
 20
344.3577279257857
 30
0.0
 11
-219.5046144521873
 21
344.9236387657089
 31
0.0
  0
LINE
  5
DB71
330
1F
100
AcDbEntity
  8
REBAR
 48
0.15
100
AcDbLine
 10
-218.5046144521873
 20
345.9236387657089
 30
0.0
 11
-213.9620466436061
 21
345.9236387657087
 31
0.0
  0
LINE
  5
DB72
330
1F
100
AcDbEntity
  8
REBAR
 48
0.15
100
AcDbLine
 10
-212.9620466436061
 20
344.9236387657088
 30
0.0
 11
-212.9620466436061
 21
342.3128075094515
 31
0.0
  0
ARC
  5
DB73
330
1F
100
AcDbEntity
  8
REBAR
 48
0.15
100
AcDbCircle
 10
-218.5046144521873
 20
344.9236387657089
 30
0.0
 40
1.0
100
AcDbArc
 50
90.0
 51
180.0
  0
ARC
  5
DB74
330
1F
100
AcDbEntity
  8
REBAR
 48
0.15
100
AcDbCircle
 10
-213.9620466436061
 20
344.9236387657088
 30
0.0
 40
1.0
100
AcDbArc
 50
0.0
 51
90.0
  0
ENDSEC
  0
SECTION
  2
OBJECTS
  0
DICTIONARY
  5
C
330
0
100
AcDbDictionary
281
     1
  3
ACAD_COLOR
350
73
  3
ACAD_GROUP
350
D
  3
ACAD_LAYOUT
350
1A
  3
ACAD_MATERIAL
350
72
  3
ACAD_MLINESTYLE
350
17
  3
ACAD_PLOTSETTINGS
350
19
  3
ACAD_PLOTSTYLENAME
350
E
  3
ACDBHEADERROUNDTRIPXREC
350
DB84
  3
AcDbVariableDictionary
350
66
  0
DICTIONARY
  5
A9
330
2
100
AcDbDictionary
280
     1
281
     1
  3
ACAD_LAYERSTATES
360
AA
  0
DICTIONARY
  5
73
102
{ACAD_REACTORS
330
C
102
}
330
C
100
AcDbDictionary
281
     1
  0
DICTIONARY
  5
D
102
{ACAD_REACTORS
330
C
102
}
330
C
100
AcDbDictionary
281
     1
  0
DICTIONARY
  5
1A
102
{ACAD_REACTORS
330
C
102
}
330
C
100
AcDbDictionary
281
     1
  3
Layout1
350
59
  3
Layout2
350
5E
  3
Model
350
22
  0
DICTIONARY
  5
72
102
{ACAD_REACTORS
330
C
102
}
330
C
100
AcDbDictionary
281
     1
  0
DICTIONARY
  5
17
102
{ACAD_REACTORS
330
C
102
}
330
C
100
AcDbDictionary
281
     1
  3
Standard
350
18
  0
DICTIONARY
  5
19
102
{ACAD_REACTORS
330
C
102
}
330
C
100
AcDbDictionary
281
     1
  0
ACDBDICTIONARYWDFLT
  5
E
102
{ACAD_REACTORS
330
C
102
}
330
C
100
AcDbDictionary
281
     1
  3
Normal
350
F
100
AcDbDictionaryWithDefault
340
F
  0
DICTIONARY
  5
DB84
102
{ACAD_REACTORS
330
C
102
}
330
C
100
AcDbDictionary
281
     1
  3
COLORDICT
350
DB86
  3
MATERIALDICT
350
DB85
  0
DICTIONARY
  5
66
102
{ACAD_REACTORS
330
C
102
}
330
C
100
AcDbDictionary
281
     1
  3
DIMASSOC
350
67
  3
HIDETEXT
350
6B
  3
PROJECTNAME
350
1065
  0
DICTIONARY
  5
AA
102
{ACAD_REACTORS
330
A9
102
}
330
A9
100
AcDbDictionary
281
     1
  0
LAYOUT
  5
59
102
{ACAD_XDICTIONARY
360
DB89
102
}
102
{ACAD_REACTORS
330
1A
102
}
330
1A
100
AcDbPlotSettings
  1

  2
None
  4

  6

 40
0.0
 41
0.0
 42
0.0
 43
0.0
 44
0.0
 45
0.0
 46
0.0
 47
0.0
 48
0.0
 49
0.0
140
0.0
141
0.0
142
1.0
143
1.0
 70
   688
 72
     0
 73
     0
 74
     5
  7

 75
    16
147
1.0
148
0.0
149
0.0
100
AcDbLayout
  1
Layout1
 70
     1
 71
     1
 10
0.0
 20
0.0
 11
12.0
 21
9.0
 12
0.0
 22
0.0
 32
0.0
 14
0.0
 24
0.0
 34
0.0
 15
0.0
 25
0.0
 35
0.0
146
0.0
 13
0.0
 23
0.0
 33
0.0
 16
1.0
 26
0.0
 36
0.0
 17
0.0
 27
1.0
 37
0.0
 76
     0
330
58
  0
LAYOUT
  5
5E
102
{ACAD_XDICTIONARY
360
DB8B
102
}
102
{ACAD_REACTORS
330
1A
102
}
330
1A
100
AcDbPlotSettings
  1

  2
None
  4

  6

 40
0.0
 41
0.0
 42
0.0
 43
0.0
 44
0.0
 45
0.0
 46
0.0
 47
0.0
 48
0.0
 49
0.0
140
0.0
141
0.0
142
1.0
143
1.0
 70
   688
 72
     0
 73
     0
 74
     5
  7

 75
    16
147
1.0
148
0.0
149
0.0
100
AcDbLayout
  1
Layout2
 70
     1
 71
     2
 10
0.0
 20
0.0
 11
12.0
 21
9.0
 12
0.0
 22
0.0
 32
0.0
 14
0.0
 24
0.0
 34
0.0
 15
0.0
 25
0.0
 35
0.0
146
0.0
 13
0.0
 23
0.0
 33
0.0
 16
1.0
 26
0.0
 36
0.0
 17
0.0
 27
1.0
 37
0.0
 76
     0
330
5D
  0
LAYOUT
  5
22
102
{ACAD_XDICTIONARY
360
DB87
102
}
102
{ACAD_REACTORS
330
1A
102
}
330
1A
100
AcDbPlotSettings
  1

  2
none_device
  4
ANSI_A_(8.50_x_11.00_Inches)
  6

 40
6.349999904632568
 41
19.04999923706055
 42
6.350006103515625
 43
19.04998779296875
 44
215.8999938964844
 45
279.3999938964844
 46
0.0
 47
0.0
 48
0.0
 49
0.0
140
0.0
141
0.0
142
1.0
143
2.584895464708373
 70
 11952
 72
     0
 73
     1
 74
     0
  7

 75
     0
147
0.3868628397755418
148
0.0
149
0.0
100
AcDbLayout
  1
Model
 70
     1
 71
     0
 10
0.0
 20
0.0
 11
12.0
 21
9.0
 12
0.0
 22
0.0
 32
0.0
 14
0.0
 24
0.0
 34
0.0
 15
0.0
 25
0.0
 35
0.0
146
0.0
 13
0.0
 23
0.0
 33
0.0
 16
1.0
 26
0.0
 36
0.0
 17
0.0
 27
1.0
 37
0.0
 76
     0
330
1F
  0
MLINESTYLE
  5
18
102
{ACAD_REACTORS
330
17
102
}
330
17
100
AcDbMlineStyle
  2
STANDARD
 70
     0
  3

 62
   256
 51
90.0
 52
90.0
 71
     2
 49
0.5
 62
   256
  6
BYLAYER
 49
-0.5
 62
   256
  6
BYLAYER
  0
ACDBPLACEHOLDER
  5
F
102
{ACAD_REACTORS
330
E
102
}
330
E
  0
XRECORD
  5
DB86
102
{ACAD_REACTORS
330
DB84
102
}
330
DB84
100
AcDbXrecord
280
     1
340
73
  0
XRECORD
  5
DB85
102
{ACAD_REACTORS
330
DB84
102
}
330
DB84
100
AcDbXrecord
280
     1
340
72
  0
DICTIONARYVAR
  5
67
102
{ACAD_REACTORS
330
66
102
}
330
66
100
DictionaryVariables
280
     0
  1
2
  0
DICTIONARYVAR
  5
6B
102
{ACAD_REACTORS
330
66
102
}
330
66
100
DictionaryVariables
280
     0
  1
1
  0
DICTIONARYVAR
  5
1065
102
{ACAD_REACTORS
330
66
102
}
330
66
100
DictionaryVariables
280
     0
  1

  0
DICTIONARY
  5
DB89
330
59
100
AcDbDictionary
280
     1
281
     1
  3
ACAD_XREC_ROUNDTRIP
360
DB8A
  0
DICTIONARY
  5
DB8B
330
5E
100
AcDbDictionary
280
     1
281
     1
  3
ACAD_XREC_ROUNDTRIP
360
DB8C
  0
DICTIONARY
  5
DB87
330
22
100
AcDbDictionary
280
     1
281
     1
  3
ACAD_XREC_ROUNDTRIP
360
DB88
  0
XRECORD
  5
DB8A
102
{ACAD_REACTORS
330
DB89
102
}
330
DB89
100
AcDbXrecord
280
     1
102
SHADEPLOT
 70
     0
102
SHADEPLOTRESLEVEL
 70
     2
102
SHADEPLOTCUSTOMDPI
 70
   300
  0
XRECORD
  5
DB8C
102
{ACAD_REACTORS
330
DB8B
102
}
330
DB8B
100
AcDbXrecord
280
     1
102
SHADEPLOT
 70
     0
102
SHADEPLOTRESLEVEL
 70
     2
102
SHADEPLOTCUSTOMDPI
 70
   300
  0
XRECORD
  5
DB88
102
{ACAD_REACTORS
330
DB87
102
}
330
DB87
100
AcDbXrecord
280
     1
102
SHADEPLOT
 70
     0
102
SHADEPLOTRESLEVEL
 70
     2
102
SHADEPLOTCUSTOMDPI
 70
   300
  0
ENDSEC
  0
EOF
