  0
SECTION
  2
HEADER
  9
$ACADVER
  1
AC1015
  9
$ACADMAINTVER
 70
    20
  9
$DWGCODEPAGE
  3
ANSI_1252
  9
$INSBASE
 10
0.0
 20
0.0
 30
0.0
  9
$EXTMIN
 10
-228.049089093932
 20
272.3877867249794
 30
-0.0000000349181948
  9
$EXTMAX
 10
-140.9391246467458
 20
348.1575989534438
 30
0.0000000814935746
  9
$LIMMIN
 10
0.0
 20
0.0
  9
$LIMMAX
 10
12.0
 20
9.0
  9
$ORTHOMODE
 70
     0
  9
$REGENMODE
 70
     1
  9
$FILLMODE
 70
     1
  9
$QTEXTMODE
 70
     0
  9
$MIRRTEXT
 70
     0
  9
$LTSCALE
 40
1.0
  9
$ATTMODE
 70
     1
  9
$TEXTSIZE
 40
0.2
  9
$TRACEWID
 40
0.05
  9
$TEXTSTYLE
  7
Standard
  9
$CLAYER
  8
0
  9
$CELTYPE
  6
ByLayer
  9
$CECOLOR
 62
   256
  9
$CELTSCALE
 40
1.0
  9
$DISPSILH
 70
     0
  9
$DIMSCALE
 40
1.0
  9
$DIMASZ
 40
0.18
  9
$DIMEXO
 40
0.0625
  9
$DIMDLI
 40
0.38
  9
$DIMRND
 40
0.0
  9
$DIMDLE
 40
0.0
  9
$DIMEXE
 40
0.18
  9
$DIMTP
 40
0.0
  9
$DIMTM
 40
0.0
  9
$DIMTXT
 40
0.18
  9
$DIMCEN
 40
0.09
  9
$DIMTSZ
 40
0.0
  9
$DIMTOL
 70
     0
  9
$DIMLIM
 70
     0
  9
$DIMTIH
 70
     1
  9
$DIMTOH
 70
     1
  9
$DIMSE1
 70
     0
  9
$DIMSE2
 70
     0
  9
$DIMTAD
 70
     0
  9
$DIMZIN
 70
     0
  9
$DIMBLK
  1

  9
$DIMASO
 70
     1
  9
$DIMSHO
 70
     1
  9
$DIMPOST
  1

  9
$DIMAPOST
  1

  9
$DIMALT
 70
     0
  9
$DIMALTD
 70
     2
  9
$DIMALTF
 40
25.4
  9
$DIMLFAC
 40
1.0
  9
$DIMTOFL
 70
     0
  9
$DIMTVP
 40
0.0
  9
$DIMTIX
 70
     0
  9
$DIMSOXD
 70
     0
  9
$DIMSAH
 70
     0
  9
$DIMBLK1
  1

  9
$DIMBLK2
  1

  9
$DIMSTYLE
  2
Standard
  9
$DIMCLRD
 70
     0
  9
$DIMCLRE
 70
     0
  9
$DIMCLRT
 70
     0
  9
$DIMTFAC
 40
1.0
  9
$DIMGAP
 40
0.09
  9
$DIMJUST
 70
     0
  9
$DIMSD1
 70
     0
  9
$DIMSD2
 70
     0
  9
$DIMTOLJ
 70
     1
  9
$DIMTZIN
 70
     0
  9
$DIMALTZ
 70
     0
  9
$DIMALTTZ
 70
     0
  9
$DIMUPT
 70
     0
  9
$DIMDEC
 70
     4
  9
$DIMTDEC
 70
     4
  9
$DIMALTU
 70
     2
  9
$DIMALTTD
 70
     2
  9
$DIMTXSTY
  7
Standard
  9
$DIMAUNIT
 70
     0
  9
$DIMADEC
 70
     0
  9
$DIMALTRND
 40
0.0
  9
$DIMAZIN
 70
     0
  9
$DIMDSEP
 70
    46
  9
$DIMATFIT
 70
     3
  9
$DIMFRAC
 70
     0
  9
$DIMLDRBLK
  1

  9
$DIMLUNIT
 70
     2
  9
$DIMLWD
 70
    -2
  9
$DIMLWE
 70
    -2
  9
$DIMTMOVE
 70
     0
  9
$LUNITS
 70
     2
  9
$LUPREC
 70
     4
  9
$SKETCHINC
 40
0.1
  9
$FILLETRAD
 40
0.0
  9
$AUNITS
 70
     0
  9
$AUPREC
 70
     0
  9
$MENU
  1
.
  9
$ELEVATION
 40
0.0
  9
$PELEVATION
 40
0.0
  9
$THICKNESS
 40
0.0
  9
$LIMCHECK
 70
     0
  9
$CHAMFERA
 40
0.0
  9
$CHAMFERB
 40
0.0
  9
$CHAMFERC
 40
0.0
  9
$CHAMFERD
 40
0.0
  9
$SKPOLY
 70
     0
  9
$TDCREATE
 40
2454861.564484954
  9
$TDUCREATE
 40
2454861.856151620
  9
$TDUPDATE
 40
2454861.585432442
  9
$TDUUPDATE
 40
2454861.877099109
  9
$TDINDWG
 40
0.0209525926
  9
$TDUSRTIMER
 40
0.0209504977
  9
$USRTIMER
 70
     1
  9
$ANGBASE
 50
0.0
  9
$ANGDIR
 70
     0
  9
$PDMODE
 70
     0
  9
$PDSIZE
 40
0.0
  9
$PLINEWID
 40
0.0
  9
$SPLFRAME
 70
     0
  9
$SPLINETYPE
 70
     6
  9
$SPLINESEGS
 70
     8
  9
$HANDSEED
  5
D4DB
  9
$SURFTAB1
 70
     6
  9
$SURFTAB2
 70
     6
  9
$SURFTYPE
 70
     6
  9
$SURFU
 70
     6
  9
$SURFV
 70
     6
  9
$UCSBASE
  2

  9
$UCSNAME
  2

  9
$UCSORG
 10
0.0
 20
0.0
 30
0.0
  9
$UCSXDIR
 10
1.0
 20
0.0
 30
0.0
  9
$UCSYDIR
 10
0.0
 20
1.0
 30
0.0
  9
$UCSORTHOREF
  2

  9
$UCSORTHOVIEW
 70
     0
  9
$UCSORGTOP
 10
0.0
 20
0.0
 30
0.0
  9
$UCSORGBOTTOM
 10
0.0
 20
0.0
 30
0.0
  9
$UCSORGLEFT
 10
0.0
 20
0.0
 30
0.0
  9
$UCSORGRIGHT
 10
0.0
 20
0.0
 30
0.0
  9
$UCSORGFRONT
 10
0.0
 20
0.0
 30
0.0
  9
$UCSORGBACK
 10
0.0
 20
0.0
 30
0.0
  9
$PUCSBASE
  2

  9
$PUCSNAME
  2

  9
$PUCSORG
 10
0.0
 20
0.0
 30
0.0
  9
$PUCSXDIR
 10
1.0
 20
0.0
 30
0.0
  9
$PUCSYDIR
 10
0.0
 20
1.0
 30
0.0
  9
$PUCSORTHOREF
  2

  9
$PUCSORTHOVIEW
 70
     0
  9
$PUCSORGTOP
 10
0.0
 20
0.0
 30
0.0
  9
$PUCSORGBOTTOM
 10
0.0
 20
0.0
 30
0.0
  9
$PUCSORGLEFT
 10
0.0
 20
0.0
 30
0.0
  9
$PUCSORGRIGHT
 10
0.0
 20
0.0
 30
0.0
  9
$PUCSORGFRONT
 10
0.0
 20
0.0
 30
0.0
  9
$PUCSORGBACK
 10
0.0
 20
0.0
 30
0.0
  9
$USERI1
 70
     0
  9
$USERI2
 70
     0
  9
$USERI3
 70
     0
  9
$USERI4
 70
     0
  9
$USERI5
 70
     0
  9
$USERR1
 40
0.0
  9
$USERR2
 40
0.0
  9
$USERR3
 40
0.0
  9
$USERR4
 40
0.0
  9
$USERR5
 40
0.0
  9
$WORLDVIEW
 70
     1
  9
$SHADEDGE
 70
     3
  9
$SHADEDIF
 70
    70
  9
$TILEMODE
 70
     1
  9
$MAXACTVP
 70
    64
  9
$PINSBASE
 10
0.0
 20
0.0
 30
0.0
  9
$PLIMCHECK
 70
     0
  9
$PEXTMIN
 10
0.0
 20
0.0
 30
0.0
  9
$PEXTMAX
 10
0.0
 20
0.0
 30
0.0
  9
$PLIMMIN
 10
0.0
 20
0.0
  9
$PLIMMAX
 10
12.0
 20
9.0
  9
$UNITMODE
 70
     0
  9
$VISRETAIN
 70
     1
  9
$PLINEGEN
 70
     0
  9
$PSLTSCALE
 70
     1
  9
$TREEDEPTH
 70
  3020
  9
$CMLSTYLE
  2
Standard
  9
$CMLJUST
 70
     0
  9
$CMLSCALE
 40
1.0
  9
$PROXYGRAPHICS
 70
     1
  9
$MEASUREMENT
 70
     0
  9
$CELWEIGHT
370
    -1
  9
$ENDCAPS
280
     0
  9
$JOINSTYLE
280
     0
  9
$LWDISPLAY
290
     0
  9
$INSUNITS
 70
     1
  9
$HYPERLINKBASE
  1

  9
$STYLESHEET
  1

  9
$XEDIT
290
     1
  9
$CEPSNTYPE
380
     0
  9
$PSTYLEMODE
290
     1
  9
$FINGERPRINTGUID
  2
{FDEAD576-A652-11D2-9A35-0060089B3A3F}
  9
$VERSIONGUID
  2
{0F50D7A6-62B1-466E-B58F-BC3CFAA8365F}
  9
$EXTNAMES
290
     1
  9
$PSVPSCALE
 40
0.0
  9
$OLESTARTUP
290
     0
  0
ENDSEC
  0
SECTION
  2
CLASSES
  0
CLASS
  1
ACDBDICTIONARYWDFLT
  2
AcDbDictionaryWithDefault
  3
ObjectDBX Classes
 90
        0
280
     0
281
     0
  0
CLASS
  1
ACDBPLACEHOLDER
  2
AcDbPlaceHolder
  3
ObjectDBX Classes
 90
        0
280
     0
281
     0
  0
CLASS
  1
LAYOUT
  2
AcDbLayout
  3
ObjectDBX Classes
 90
        0
280
     0
281
     0
  0
CLASS
  1
DICTIONARYVAR
  2
AcDbDictionaryVar
  3
ObjectDBX Classes
 90
        0
280
     0
281
     0
  0
CLASS
  1
SORTENTSTABLE
  2
AcDbSortentsTable
  3
ObjectDBX Classes
 90
        0
280
     0
281
     0
  0
ENDSEC
  0
SECTION
  2
TABLES
  0
TABLE
  2
VPORT
  5
8
330
0
100
AcDbSymbolTable
 70
    58
  0
VPORT
  5
D4CD
330
8
100
AcDbSymbolTableRecord
100
AcDbViewportTableRecord
  2
*Active
 70
     0
 10
0.0
 20
0.0
 11
1.0
 21
1.0
 12
-184.4941068703388
 22
310.2726928392116
 13
0.0
 23
0.0
 14
0.5
 24
0.5
 15
0.5
 25
0.5
 16
0.0
 26
0.0
 36
1.0
 17
0.0
 27
0.0
 37
0.0
 40
76.31688668498759
 41
1.48433734939759
 42
50.0
 43
0.0
 44
0.0
 50
0.0
 51
0.0
 71
     0
 72
  1000
 73
     1
 74
     3
 75
     0
 76
     0
 77
     0
 78
     0
281
     0
 65
     1
110
0.0
120
0.0
130
0.0
111
1.0
121
0.0
131
0.0
112
0.0
122
1.0
132
0.0
 79
     0
146
0.0
  0
ENDTAB
  0
TABLE
  2
LTYPE
  5
5
330
0
100
AcDbSymbolTable
 70
     6
  0
LTYPE
  5
14
330
5
100
AcDbSymbolTableRecord
100
AcDbLinetypeTableRecord
  2
ByBlock
 70
     0
  3

 72
    65
 73
     0
 40
0.0
  0
LTYPE
  5
15
330
5
100
AcDbSymbolTableRecord
100
AcDbLinetypeTableRecord
  2
ByLayer
 70
     0
  3

 72
    65
 73
     0
 40
0.0
  0
LTYPE
  5
16
330
5
100
AcDbSymbolTableRecord
100
AcDbLinetypeTableRecord
  2
Continuous
 70
     0
  3
Solid line
 72
    65
 73
     0
 40
0.0
  0
LTYPE
  5
96
330
5
100
AcDbSymbolTableRecord
100
AcDbLinetypeTableRecord
  2
HIDDEN2
 70
     0
  3
Hidden (.5x) _ _ _ _ _ _ _ _ _ _ _ _ _ _ _ _ _
 72
    65
 73
     2
 40
0.1875
 49
0.125
 74
     0
 49
-0.0625
 74
     0
  0
LTYPE
  5
97
330
5
100
AcDbSymbolTableRecord
100
AcDbLinetypeTableRecord
  2
DASHED
 70
     0
  3
Dashed __ __ __ __ __ __ __ __ __ __ __ __ __ _
 72
    65
 73
     2
 40
0.75
 49
0.5
 74
     0
 49
-0.25
 74
     0
  0
LTYPE
  5
98
330
5
100
AcDbSymbolTableRecord
100
AcDbLinetypeTableRecord
  2
CENTER
 70
     0
  3
Center ____ _ ____ _ ____ _ ____ _ ____ _ ____
 72
    65
 73
     4
 40
2.0
 49
1.25
 74
     0
 49
-0.25
 74
     0
 49
0.25
 74
     0
 49
-0.25
 74
     0
  0
LTYPE
  5
99
330
5
100
AcDbSymbolTableRecord
100
AcDbLinetypeTableRecord
  2
DASHED2
 70
     0
  3
_ _ _ _ _ _ _ _ _ _ _ _ _ _ _ _ _ _ _ _ _ _ _ _
 72
    65
 73
     2
 40
0.375
 49
0.25
 74
     0
 49
-0.125
 74
     0
  0
LTYPE
  5
9A
330
5
100
AcDbSymbolTableRecord
100
AcDbLinetypeTableRecord
  2
HIDDEN
 70
     0
  3
Hidden __ __ __ __ __ __ __ __ __ __ __ __ __ _
 72
    65
 73
     2
 40
0.375
 49
0.25
 74
     0
 49
-0.125
 74
     0
  0
ENDTAB
  0
TABLE
  2
LAYER
  5
2
102
{ACAD_XDICTIONARY
360
A9
102
}
330
0
100
AcDbSymbolTable
 70
    10
  0
LAYER
  5
10
330
2
100
AcDbSymbolTableRecord
100
AcDbLayerTableRecord
  2
0
 70
     0
 62
     7
  6
Continuous
370
    -3
390
F
  0
LAYER
  5
9B
330
2
100
AcDbSymbolTableRecord
100
AcDbLayerTableRecord
  2
DIM
 70
     0
 62
     3
  6
Continuous
370
    13
390
F
  0
LAYER
  5
9C
330
2
100
AcDbSymbolTableRecord
100
AcDbLayerTableRecord
  2
Defpoints
 70
     0
 62
   252
  6
Continuous
290
     0
370
    -3
390
F
  0
LAYER
  5
9D
330
2
100
AcDbSymbolTableRecord
100
AcDbLayerTableRecord
  2
A2 Hatch
 70
     0
 62
     8
  6
Continuous
370
     9
390
F
  0
LAYER
  5
9E
330
2
100
AcDbSymbolTableRecord
100
AcDbLayerTableRecord
  2
DETAILS
 70
     0
 62
     7
  6
Continuous
370
    13
390
F
  0
LAYER
  5
9F
330
2
100
AcDbSymbolTableRecord
100
AcDbLayerTableRecord
  2
A4 medium
 70
     0
 62
     7
  6
Continuous
370
    35
390
F
  0
LAYER
  5
A0
330
2
100
AcDbSymbolTableRecord
100
AcDbLayerTableRecord
  2
REBAR
 70
     0
 62
     2
  6
CENTER
370
    30
390
F
  0
LAYER
  5
28AC
330
2
100
AcDbSymbolTableRecord
100
AcDbLayerTableRecord
  2
A5 heavy
 70
     0
 62
     5
  6
Continuous
370
    53
390
F
  0
LAYER
  5
2FC3
330
2
100
AcDbSymbolTableRecord
100
AcDbLayerTableRecord
  2
GRADE
 70
     0
 62
     5
  6
Continuous
370
   100
390
F
  0
LAYER
  5
51AE
330
2
100
AcDbSymbolTableRecord
100
AcDbLayerTableRecord
  2
HANGERS
 70
     0
 62
   253
  6
Continuous
370
    -3
390
F
  0
ENDTAB
  0
TABLE
  2
STYLE
  5
3
330
0
100
AcDbSymbolTable
 70
     5
  0
STYLE
  5
11
330
3
100
AcDbSymbolTableRecord
100
AcDbTextStyleTableRecord
  2
Standard
 70
     0
 40
0.0
 41
1.0
 50
0.0
 71
     0
 42
0.2
  3
txt
  4

  0
STYLE
  5
A1
330
3
100
AcDbSymbolTableRecord
100
AcDbTextStyleTableRecord
  2
ARCHITXT
 70
     0
 40
0.0
 41
1.25
 50
0.0
 71
     0
 42
1.0
  3
ARCHITXT.shx
  4

  0
STYLE
  5
A2
330
3
100
AcDbSymbolTableRecord
100
AcDbTextStyleTableRecord
  2
ARCTEXT
 70
     0
 40
0.0
 41
0.85
 50
0.0
 71
     0
 42
5.096770384644268
  3
arctext.shx
  4

  0
STYLE
  5
A3
330
3
100
AcDbSymbolTableRecord
100
AcDbTextStyleTableRecord
  2
ROMAND
 70
     0
 40
0.0
 41
0.85
 50
0.0
 71
     0
 42
6.0
  3
romand.shx
  4

  0
STYLE
  5
A4
330
3
100
AcDbSymbolTableRecord
100
AcDbTextStyleTableRecord
  2
RomanC
 70
     0
 40
5.0
 41
0.85
 50
0.0
 71
     0
 42
10.0
  3
romanc.shx
  4

  0
ENDTAB
  0
TABLE
  2
VIEW
  5
6
330
0
100
AcDbSymbolTable
 70
     0
  0
ENDTAB
  0
TABLE
  2
UCS
  5
7
330
0
100
AcDbSymbolTable
 70
     0
  0
ENDTAB
  0
TABLE
  2
APPID
  5
9
330
0
100
AcDbSymbolTable
 70
     1
  0
APPID
  5
12
330
9
100
AcDbSymbolTableRecord
100
AcDbRegAppTableRecord
  2
ACAD
 70
     0
  0
ENDTAB
  0
TABLE
  2
DIMSTYLE
  5
A
330
0
100
AcDbSymbolTable
 70
     5
100
AcDbDimStyleTable
 71
     0
  0
DIMSTYLE
105
27
330
A
100
AcDbSymbolTableRecord
100
AcDbDimStyleTableRecord
  2
Standard
 70
     0
340
11
  0
DIMSTYLE
105
A5
330
A
100
AcDbSymbolTableRecord
100
AcDbDimStyleTableRecord
  2
Copy of ROMANS
 70
     0
 41
0.75
 42
0.125
 43
0.125
 44
0.125
 73
     0
 74
     0
 77
     1
 78
     3
140
1.0
141
6.0
147
0.25
172
     1
175
     1
176
     2
177
     2
178
     2
271
     3
272
     3
273
     4
275
     1
277
     4
279
     2
284
     3
285
     3
286
     3
340
A1
  0
DIMSTYLE
105
A6
330
A
100
AcDbSymbolTableRecord
100
AcDbDimStyleTableRecord
  2
ARCTEXT
 70
     0
 40
0.0
 41
2.0
 42
1.0
 43
0.375
 44
0.1875
 73
     0
 74
     0
140
4.0
141
2.0
147
2.0
176
     2
177
     2
178
     2
277
     4
340
A2
341
8D
342
89
  0
DIMSTYLE
105
A7
102
{ACAD_REACTORS
330
1B1
330
1B7
330
1B6
330
199
330
1F8
330
1E9
330
1E8
330
19D
330
19C
330
481
102
}
330
A
100
AcDbSymbolTableRecord
100
AcDbDimStyleTableRecord
  2
ARCTEXT1-4
 70
     0
 41
2.0
 42
2.0
 43
2.0
 44
2.0
 73
     0
 74
     0
 77
     1
 78
     3
140
4.0
141
2.0
147
2.0
172
     1
175
     1
275
     1
277
     4
279
     2
340
A2
341
8D
342
89
  0
DIMSTYLE
105
A8
330
A
100
AcDbSymbolTableRecord
100
AcDbDimStyleTableRecord
  2
ARCTEXT 1-1
 70
     0
 40
0.0
 41
1.0
 42
1.0
 43
0.375
 44
0.1875
 73
     0
 74
     0
 77
     1
 78
     3
140
1.0
141
1.0
147
0.5
176
   256
177
   256
178
   256
277
     4
279
     2
340
A2
341
8D
342
89
  0
ENDTAB
  0
TABLE
  2
BLOCK_RECORD
  5
1
330
0
100
AcDbSymbolTable
 70
    33
  0
BLOCK_RECORD
  5
1F
330
1
100
AcDbSymbolTableRecord
100
AcDbBlockTableRecord
  2
*Model_Space
340
22
  0
BLOCK_RECORD
  5
58
330
1
100
AcDbSymbolTableRecord
100
AcDbBlockTableRecord
  2
*Paper_Space
340
59
  0
BLOCK_RECORD
  5
5D
330
1
100
AcDbSymbolTableRecord
100
AcDbBlockTableRecord
  2
*Paper_Space0
340
5E
  0
BLOCK_RECORD
  5
89
330
1
100
AcDbSymbolTableRecord
100
AcDbBlockTableRecord
  2
_ArchTick
340
0
  0
BLOCK_RECORD
  5
8D
330
1
100
AcDbSymbolTableRecord
100
AcDbBlockTableRecord
  2
arrow
340
0
310
2800000020000000200000000100080000000000000400000000000000000000000000000000000000000000000080000080000000808000800000008000800080800000C0C0C000C0DCC000F0CAA6000020400000206000002080000020A0000020C0000020E00000400000004020000040400000406000004080000040A0
310
000040C0000040E00000600000006020000060400000606000006080000060A0000060C0000060E00000800000008020000080400000806000008080000080A0000080C0000080E00000A0000000A0200000A0400000A0600000A0800000A0A00000A0C00000A0E00000C0000000C0200000C0400000C0600000C0800000C0
310
A00000C0C00000C0E00000E0000000E0200000E0400000E0600000E0800000E0A00000E0C00000E0E00040000000400020004000400040006000400080004000A0004000C0004000E00040200000402020004020400040206000402080004020A0004020C0004020E000404000004040200040404000404060004040800040
310
40A0004040C0004040E00040600000406020004060400040606000406080004060A0004060C0004060E00040800000408020004080400040806000408080004080A0004080C0004080E00040A0000040A0200040A0400040A0600040A0800040A0A00040A0C00040A0E00040C0000040C0200040C0400040C0600040C08000
310
40C0A00040C0C00040C0E00040E0000040E0200040E0400040E0600040E0800040E0A00040E0C00040E0E00080000000800020008000400080006000800080008000A0008000C0008000E00080200000802020008020400080206000802080008020A0008020C0008020E00080400000804020008040400080406000804080
310
008040A0008040C0008040E00080600000806020008060400080606000806080008060A0008060C0008060E00080800000808020008080400080806000808080008080A0008080C0008080E00080A0000080A0200080A0400080A0600080A0800080A0A00080A0C00080A0E00080C0000080C0200080C0400080C0600080C0
310
800080C0A00080C0C00080C0E00080E0000080E0200080E0400080E0600080E0800080E0A00080E0C00080E0E000C0000000C0002000C0004000C0006000C0008000C000A000C000C000C000E000C0200000C0202000C0204000C0206000C0208000C020A000C020C000C020E000C0400000C0402000C0404000C0406000C0
310
408000C040A000C040C000C040E000C0600000C0602000C0604000C0606000C0608000C060A000C060C000C060E000C0800000C0802000C0804000C0806000C0808000C080A000C080C000C080E000C0A00000C0A02000C0A04000C0A06000C0A08000C0A0A000C0A0C000C0A0E000C0C00000C0C02000C0C04000C0C06000
310
C0C08000C0C0A000F0FBFF00A4A0A000808080000000FF0000FF000000FFFF00FF000000FF00FF00FFFF0000FFFFFF0000000000000000000000000000000000000000000000000000000000000000000000000000000000000000000000000000000000000000000000000000000000000000000000000000000000000000
310
0000000000000000000000000000000000000000000000000000000000000000000000000000000000000000000000000000000000000000000000000000000000000000000000000000000000000000000000000000000000000000000000000000000000000000000000000000000000000000000000FA00000000000000
310
000000000000000000000000000000000000000000000000FA00000000000000000000000000000000000000000000000000000000000000FA0000000000000000000000000000000000000000000000000000FAFA000000FA00000000000000000000000000000000000000000000000000000000FAFA00FA000000000000
310
000000000000000000000000000000000000000000000000FAF7F7000000000000000000000000000000000000000000000000000000000000F7F7F7F7F7F70000000000000000000000000000000000000000000000000000F7F7F7F7F7F7F7F7F7F700000000000000000000000000000000000000000000F7F7F7F7F7F7
310
F7F7F7F7F7F7F7F7000000000000000000000000000000000000F7F7F7F7F7F7F7F7F7F7F7F7F7F7F7F7F7F70000000000FAFA00000000000000F7F7F7F7F7F7F7F7F7F7F7F7F7F7F7F7F7F7F7F7F7FAFAFAFA00000000000000F7F7F7F7F7F7F7F7F7F7F7F7F7F7F7F7F7F70000000000000000000000000000F7F7F7F7F7
310
F7F7F7F7F7F7F7F700000000000000000000000000000000000000F7F7F7F7F7F7F7F70000000000000000000000000000000000000000000000FAF7F7F70000000000000000000000000000000000000000000000000000FAFA00FA0000000000000000000000000000000000000000000000000000FAFA000000FA000000
310
00000000000000000000000000000000000000000000000000000000FA00000000000000000000000000000000000000000000000000000000000000FA00000000000000000000000000000000000000000000000000000000000000FA00000000000000000000000000000000000000000000000000000000000000000000
310
00000000000000000000000000000000000000000000000000000000000000000000000000000000000000000000000000000000000000000000000000000000000000000000000000000000000000000000000000000000000000000000000000000000000000000000000000000000000000000000000000000000000000
310
0000000000000000000000000000000000000000000000000000000000000000000000000000000000000000000000000000000000000000
1001
ACAD
1000
DesignCenter Data
1002
{
1070
     1
1070
     1
1002
}
  0
ENDTAB
  0
ENDSEC
  0
SECTION
  2
BLOCKS
  0
BLOCK
  5
20
330
1F
100
AcDbEntity
  8
0
100
AcDbBlockBegin
  2
*Model_Space
 70
     0
 10
0.0
 20
0.0
 30
0.0
  3
*Model_Space
  1

  0
ENDBLK
  5
21
330
1F
100
AcDbEntity
  8
0
100
AcDbBlockEnd
  0
BLOCK
  5
5A
330
58
100
AcDbEntity
 67
     1
  8
0
100
AcDbBlockBegin
  2
*Paper_Space
 70
     0
 10
0.0
 20
0.0
 30
0.0
  3
*Paper_Space
  1

  0
ENDBLK
  5
5B
330
58
100
AcDbEntity
 67
     1
  8
0
100
AcDbBlockEnd
  0
BLOCK
  5
5F
330
5D
100
AcDbEntity
  8
0
100
AcDbBlockBegin
  2
*Paper_Space0
 70
     0
 10
0.0
 20
0.0
 30
0.0
  3
*Paper_Space0
  1

  0
ENDBLK
  5
60
330
5D
100
AcDbEntity
  8
0
100
AcDbBlockEnd
  0
BLOCK
  5
8A
330
89
100
AcDbEntity
  8
0
100
AcDbBlockBegin
  2
_ArchTick
 70
     0
 10
0.0
 20
0.0
 30
0.0
  3
_ArchTick
  1

  0
LWPOLYLINE
  5
8B
330
89
100
AcDbEntity
  8
0
  6
ByBlock
 62
     0
100
AcDbPolyline
 90
        2
 70
     0
 43
0.15
 10
-0.5
 20
-0.5
 10
0.5
 20
0.5
  0
ENDBLK
  5
8C
330
89
100
AcDbEntity
  8
0
100
AcDbBlockEnd
  0
BLOCK
  5
8E
330
8D
100
AcDbEntity
  8
0
100
AcDbBlockBegin
  2
arrow
 70
     0
 10
0.0
 20
0.0
 30
0.0
  3
arrow
  1

  0
HATCH
  5
8F
330
8D
100
AcDbEntity
  8
DIM
 62
   253
100
AcDbHatch
 10
0.0
 20
0.0
 30
0.0
210
0.0
220
0.0
230
1.0
  2
SOLID
 70
     1
 71
     0
 91
        1
 92
        7
 72
     0
 73
     1
 93
        3
 10
-2.0
 20
0.5
 10
-2.0
 20
-0.5
 10
0.0
 20
0.0
 97
        0
 75
     0
 76
     1
 47
0.0337394080685346
 98
        1
 10
-1.103351122172171
 20
0.05064816270351
  0
LWPOLYLINE
  5
90
330
8D
100
AcDbEntity
  8
DIM
370
    15
100
AcDbPolyline
 90
        4
 70
     0
 43
0.0
 10
0.0
 20
0.0
 10
-2.0
 20
-0.5
 10
-2.0
 20
0.5
 10
0.0
 20
0.0
  0
LWPOLYLINE
  5
91
330
8D
100
AcDbEntity
  8
DIM
370
     9
100
AcDbPolyline
 90
        2
 70
     0
 43
0.0
 10
0.3742552490839444
 20
0.0935638122700766
 10
0.0
 20
0.0
  0
LWPOLYLINE
  5
92
330
8D
100
AcDbEntity
  8
DIM
370
     9
100
AcDbPolyline
 90
        3
 70
     0
 43
0.0
 10
-2.0
 20
-0.9831764405007561
 10
-2.0
 20
-0.5
 10
-2.46875
 20
-0.6171875
  0
LWPOLYLINE
  5
93
330
8D
100
AcDbEntity
  8
DIM
370
     9
100
AcDbPolyline
 90
        3
 70
     0
 43
0.0
 10
-2.0
 20
0.9831764405007561
 10
-2.0
 20
0.5
 10
-2.46875
 20
0.6171875
  0
LWPOLYLINE
  5
94
330
8D
100
AcDbEntity
  8
DIM
370
     9
100
AcDbPolyline
 90
        2
 70
     0
 43
0.0
 10
0.3742552490839444
 20
-0.0935638122700766
 10
0.0
 20
0.0
  0
ENDBLK
  5
95
330
8D
100
AcDbEntity
  8
0
100
AcDbBlockEnd
  0
ENDSEC
  0
SECTION
  2
ENTITIES
  0
LINE
  5
D310
330
1F
100
AcDbEntity
  8
0
 62
     1
100
AcDbLine
 10
-187.4891101350598
 20
320.2188137581956
 30
0.0
 11
-185.4891101350598
 21
320.2188137581956
 31
0.0
  0
LINE
  5
D311
330
1F
100
AcDbEntity
  8
0
  6
HIDDEN
 62
     1
 48
0.02
100
AcDbLine
 10
-187.1391101350594
 20
320.7188137581957
 30
0.0
 11
-186.5141101350594
 21
320.7188137581957
 31
0.0
  0
LINE
  5
D312
330
1F
100
AcDbEntity
  8
0
  6
HIDDEN
 62
     1
 48
0.02
100
AcDbLine
 10
-186.1141101350598
 20
320.7188137581957
 30
0.0
 11
-186.1141101350616
 21
320.2188137581956
 31
0.0
  0
LINE
  5
D313
330
1F
100
AcDbEntity
  8
0
  6
HIDDEN
 62
     1
 48
0.02
100
AcDbLine
 10
-186.5141101350594
 20
320.7188137581957
 30
0.0
 11
-186.5141101350594
 21
320.2188137581956
 31
0.0
  0
LINE
  5
D314
330
1F
100
AcDbEntity
  8
0
  6
HIDDEN
 62
     1
 48
0.02
100
AcDbLine
 10
-186.1141101350616
 20
320.7188137581957
 30
0.0
 11
-185.4891101350616
 21
320.7188137581957
 31
0.0
  0
LINE
  5
D315
330
1F
100
AcDbEntity
  8
0
 62
     1
100
AcDbLine
 10
-177.4891101350598
 20
320.2188137581956
 30
0.0
 11
-175.4891101350598
 21
320.2188137581956
 31
0.0
  0
LINE
  5
D316
330
1F
100
AcDbEntity
  8
0
  6
HIDDEN
 62
     1
 48
0.02
100
AcDbLine
 10
-175.8391101350583
 20
320.7188137581959
 30
0.0
 11
-175.8391101350583
 21
320.2188137581959
 31
0.0
  0
LINE
  5
D317
330
1F
100
AcDbEntity
  8
0
  6
HIDDEN
 62
     1
 48
0.02
100
AcDbLine
 10
-176.864110135058
 20
320.7188137581959
 30
0.0
 11
-176.864110135058
 21
320.2188137581959
 31
0.0
  0
LINE
  5
D318
330
1F
100
AcDbEntity
  8
0
  6
HIDDEN
 62
     1
 48
0.02
100
AcDbLine
 10
-176.4641101350584
 20
320.7188137581959
 30
0.0
 11
-176.4641101350584
 21
320.2188137581959
 31
0.0
  0
LINE
  5
D319
330
1F
100
AcDbEntity
  8
0
  6
HIDDEN
 62
     1
 48
0.02
100
AcDbLine
 10
-177.489110135058
 20
320.7188137581959
 30
0.0
 11
-176.864110135058
 21
320.7188137581959
 31
0.0
  0
LINE
  5
D31A
330
1F
100
AcDbEntity
  8
0
  6
HIDDEN
 62
     1
 48
0.02
100
AcDbLine
 10
-176.4641101350584
 20
320.7188137581959
 30
0.0
 11
-175.8391101350583
 21
320.7188137581959
 31
0.0
  0
LINE
  5
D31B
330
1F
100
AcDbEntity
  8
0
 62
     1
100
AcDbLine
 10
-187.4891101350598
 20
320.2188137581956
 30
0.0
 11
-187.4891101350598
 21
308.2188137581957
 31
0.0
  0
LINE
  5
D31C
330
1F
100
AcDbEntity
  8
0
 62
     1
100
AcDbLine
 10
-187.4891101350598
 20
320.2188137581956
 30
0.0
 11
-185.9391101350605
 21
320.2188137581956
 31
0.0
  0
LINE
  5
D31D
330
1F
100
AcDbEntity
  8
0
 62
     1
100
AcDbLine
 10
-187.4891101350598
 20
308.2188137581957
 30
0.0
 11
-185.4891101350598
 21
308.2188137581957
 31
0.0
  0
LINE
  5
D31E
330
1F
100
AcDbEntity
  8
0
 62
     1
100
AcDbLine
 10
-185.4891101350598
 20
320.7188137581957
 30
0.0
 11
-185.4891101350598
 21
308.2188137581957
 31
0.0
  0
LINE
  5
D31F
330
1F
100
AcDbEntity
  8
0
 62
     1
100
AcDbLine
 10
-187.1391101350594
 20
320.7188137581957
 30
0.0
 11
-186.5141101350594
 21
320.7188137581957
 31
0.0
  0
LINE
  5
D320
330
1F
100
AcDbEntity
  8
0
 62
     1
100
AcDbLine
 10
-187.1391101350594
 20
320.7188137581957
 30
0.0
 11
-187.1391101350594
 21
308.2188137581957
 31
0.0
  0
LINE
  5
D321
330
1F
100
AcDbEntity
  8
0
 62
     1
100
AcDbLine
 10
-186.1141101350598
 20
320.7188137581957
 30
0.0
 11
-186.1141101350616
 21
320.2188137581956
 31
0.0
  0
LINE
  5
D322
330
1F
100
AcDbEntity
  8
0
 62
     1
100
AcDbLine
 10
-186.5141101350594
 20
320.7188137581957
 30
0.0
 11
-186.5141101350594
 21
320.2188137581956
 31
0.0
  0
LINE
  5
D323
330
1F
100
AcDbEntity
  8
0
 62
     1
100
AcDbLine
 10
-186.1141101350616
 20
320.7188137581957
 30
0.0
 11
-185.4891101350616
 21
320.7188137581957
 31
0.0
  0
LINE
  5
D324
330
1F
100
AcDbEntity
  8
0
 62
     1
100
AcDbLine
 10
-185.6891101350605
 20
320.4688137581957
 30
0.0
 11
-185.6891101350605
 21
308.2188137581957
 31
0.0
  0
LINE
  5
D325
330
1F
100
AcDbEntity
  8
0
 62
     1
100
AcDbLine
 10
-185.9391101350605
 20
320.4688137581957
 30
0.0
 11
-185.9391101350605
 21
320.2188137581956
 31
0.0
  0
LINE
  5
D326
330
1F
100
AcDbEntity
  8
0
 62
     1
100
AcDbLine
 10
-185.9391101350605
 20
320.4688137581957
 30
0.0
 11
-185.6891101350605
 21
320.4688137581957
 31
0.0
  0
LINE
  5
D327
330
1F
100
AcDbEntity
  8
0
 62
     1
100
AcDbLine
 10
-185.6891101350605
 20
320.2188137581956
 30
0.0
 11
-185.4891101350616
 21
320.2188137581956
 31
0.0
  0
LINE
  5
D328
330
1F
100
AcDbEntity
  8
0
 48
0.15
100
AcDbLine
 10
-186.5141101350594
 20
320.2188137581956
 30
0.0
 11
-186.1141101350598
 21
320.2188137581956
 31
0.0
  0
LINE
  5
D329
330
1F
100
AcDbEntity
  8
A2 Hatch
  6
DASHED2
 48
0.15
100
AcDbLine
 10
-186.7241101350604
 20
320.7188137581957
 30
0.0
 11
-186.7241101350604
 21
308.2188137581957
 31
0.0
  0
LINE
  5
D32A
330
1F
100
AcDbEntity
  8
A2 Hatch
  6
DASHED2
 48
0.15
100
AcDbLine
 10
-185.9041101350607
 20
320.7188137581957
 30
0.0
 11
-185.9041101350607
 21
308.2188137581957
 31
0.0
  0
LINE
  5
D32B
330
1F
100
AcDbEntity
  8
0
 62
     1
100
AcDbLine
 10
-186.5641101350605
 20
320.7188137581957
 30
0.0
 11
-186.5641101350605
 21
308.2188137581957
 31
0.0
  0
LINE
  5
D32C
330
1F
100
AcDbEntity
  8
0
 62
     1
100
AcDbLine
 10
-186.0641101350605
 20
320.7188137581957
 30
0.0
 11
-186.0641101350605
 21
308.2188137581957
 31
0.0
  0
LINE
  5
D32D
330
1F
100
AcDbEntity
  8
0
 62
     1
100
AcDbLine
 10
-186.0641101350605
 20
320.2188137581956
 30
0.0
 11
-186.5641101350605
 21
320.2188137581956
 31
0.0
  0
LINE
  5
D32E
330
1F
100
AcDbEntity
  8
0
  6
HIDDEN
 62
     1
 48
0.02
100
AcDbLine
 10
-187.1391101350594
 20
308.7188137581957
 30
0.0
 11
-186.5141101350594
 21
308.7188137581957
 31
0.0
  0
LINE
  5
D32F
330
1F
100
AcDbEntity
  8
0
  6
HIDDEN
 62
     1
 48
0.02
100
AcDbLine
 10
-186.1141101350598
 20
308.7188137581957
 30
0.0
 11
-186.1141101350616
 21
308.2188137581957
 31
0.0
  0
LINE
  5
D330
330
1F
100
AcDbEntity
  8
0
  6
HIDDEN
 62
     1
 48
0.02
100
AcDbLine
 10
-186.5141101350594
 20
308.7188137581957
 30
0.0
 11
-186.5141101350594
 21
308.2188137581957
 31
0.0
  0
LINE
  5
D331
330
1F
100
AcDbEntity
  8
0
  6
HIDDEN
 62
     1
 48
0.02
100
AcDbLine
 10
-186.1141101350616
 20
308.7188137581957
 30
0.0
 11
-185.4891101350616
 21
308.7188137581957
 31
0.0
  0
LINE
  5
D332
330
1F
100
AcDbEntity
  8
0
 62
     1
100
AcDbLine
 10
-175.4891101350598
 20
320.2188137581956
 30
0.0
 11
-175.4891101350598
 21
308.2188137581957
 31
0.0
  0
LINE
  5
D333
330
1F
100
AcDbEntity
  8
0
 62
     1
100
AcDbLine
 10
-177.4891101350598
 20
320.7188137581957
 30
0.0
 11
-177.4891101350598
 21
308.2188137581957
 31
0.0
  0
LINE
  5
D334
330
1F
100
AcDbEntity
  8
0
 62
     1
100
AcDbLine
 10
-175.8391101350602
 20
320.7188137581957
 30
0.0
 11
-175.8391101350602
 21
320.2188137581956
 31
0.0
  0
LINE
  5
D335
330
1F
100
AcDbEntity
  8
0
 62
     1
100
AcDbLine
 10
-176.8641101350598
 20
320.7188137581959
 30
0.0
 11
-176.8641101350598
 21
320.2188137581956
 31
0.0
  0
LINE
  5
D336
330
1F
100
AcDbEntity
  8
0
 62
     1
100
AcDbLine
 10
-176.4641101350602
 20
320.7188137581957
 30
0.0
 11
-176.4641101350602
 21
320.2188137581956
 31
0.0
  0
LINE
  5
D337
330
1F
100
AcDbEntity
  8
0
 62
     1
100
AcDbLine
 10
-177.4891101350598
 20
320.7188137581957
 30
0.0
 11
-176.8641101350598
 21
320.7188137581957
 31
0.0
  0
LINE
  5
D338
330
1F
100
AcDbEntity
  8
0
 62
     1
100
AcDbLine
 10
-176.4641101350602
 20
320.7188137581957
 30
0.0
 11
-175.8391101350602
 21
320.7188137581957
 31
0.0
  0
LINE
  5
D339
330
1F
100
AcDbEntity
  8
0
 62
     1
100
AcDbLine
 10
-177.2891101350591
 20
320.4688137581957
 30
0.0
 11
-177.2891101350591
 21
308.2188137581957
 31
0.0
  0
LINE
  5
D33A
330
1F
100
AcDbEntity
  8
0
 62
     1
100
AcDbLine
 10
-177.0391101350591
 20
320.4688137581957
 30
0.0
 11
-177.0391101350591
 21
320.2188137581956
 31
0.0
  0
LINE
  5
D33B
330
1F
100
AcDbEntity
  8
0
 62
     1
100
AcDbLine
 10
-177.2891101350591
 20
320.4688137581957
 30
0.0
 11
-177.0391101350591
 21
320.4688137581957
 31
0.0
  0
LINE
  5
D33C
330
1F
100
AcDbEntity
  8
0
 62
     1
100
AcDbLine
 10
-177.0741101350589
 20
320.2188137581956
 30
0.0
 11
-175.4891101350598
 21
320.2188137581956
 31
0.0
  0
LINE
  5
D33D
330
1F
100
AcDbEntity
  8
0
 62
     1
100
AcDbLine
 10
-177.0741101350589
 20
320.2188137581956
 30
0.0
 11
-177.0741101350589
 21
308.2188137581957
 31
0.0
  0
LINE
  5
D33E
330
1F
100
AcDbEntity
  8
0
 62
     1
100
AcDbLine
 10
-176.2541101350592
 20
320.2188137581956
 30
0.0
 11
-176.2541101350592
 21
308.2188137581957
 31
0.0
  0
LINE
  5
D33F
330
1F
100
AcDbEntity
  8
A2 Hatch
  6
DASHED2
 48
0.15
100
AcDbLine
 10
-176.9141101350591
 20
320.2188137581956
 30
0.0
 11
-176.9141101350591
 21
308.2188137581957
 31
0.0
  0
LINE
  5
D340
330
1F
100
AcDbEntity
  8
A2 Hatch
  6
DASHED2
 48
0.15
100
AcDbLine
 10
-176.4141101350591
 20
320.2188137581956
 30
0.0
 11
-176.4141101350591
 21
308.2188137581957
 31
0.0
  0
LINE
  5
D341
330
1F
100
AcDbEntity
  8
0
 62
     1
100
AcDbLine
 10
-177.4891101350598
 20
320.2188137581956
 30
0.0
 11
-177.2891101350591
 21
320.2188137581956
 31
0.0
  0
LINE
  5
D342
330
1F
100
AcDbEntity
  8
0
 62
     1
100
AcDbLine
 10
-177.4891101350598
 20
308.2188137581957
 30
0.0
 11
-175.4891101350598
 21
308.2188137581957
 31
0.0
  0
LINE
  5
D343
330
1F
100
AcDbEntity
  8
0
  6
HIDDEN
 62
     1
 48
0.02
100
AcDbLine
 10
-175.8391101350583
 20
308.7188137581959
 30
0.0
 11
-175.8391101350583
 21
308.2188137581959
 31
0.0
  0
LINE
  5
D344
330
1F
100
AcDbEntity
  8
0
  6
HIDDEN
 62
     1
 48
0.02
100
AcDbLine
 10
-176.864110135058
 20
308.7188137581959
 30
0.0
 11
-176.864110135058
 21
308.2188137581959
 31
0.0
  0
LINE
  5
D345
330
1F
100
AcDbEntity
  8
0
  6
HIDDEN
 62
     1
 48
0.02
100
AcDbLine
 10
-176.4641101350584
 20
308.7188137581959
 30
0.0
 11
-176.4641101350584
 21
308.2188137581959
 31
0.0
  0
LINE
  5
D346
330
1F
100
AcDbEntity
  8
0
  6
HIDDEN
 62
     1
 48
0.02
100
AcDbLine
 10
-177.489110135058
 20
308.7188137581959
 30
0.0
 11
-176.864110135058
 21
308.7188137581959
 31
0.0
  0
LINE
  5
D347
330
1F
100
AcDbEntity
  8
0
  6
HIDDEN
 62
     1
 48
0.02
100
AcDbLine
 10
-176.4641101350584
 20
308.7188137581959
 30
0.0
 11
-175.8391101350583
 21
308.7188137581959
 31
0.0
  0
LWPOLYLINE
  5
D348
330
1F
100
AcDbEntity
  8
DETAILS
 62
     6
370
    20
100
AcDbPolyline
 90
        2
 70
     1
 43
0.0
 10
-181.1408633726927
 20
311.3688137581956
 10
-181.1590326713188
 20
311.3688137581958
  0
LWPOLYLINE
  5
D349
330
1F
100
AcDbEntity
  8
DETAILS
 62
     6
370
    20
100
AcDbPolyline
 90
        6
 70
     0
 43
0.0
 10
-177.4891101350598
 20
311.1694452661859
 10
-177.859189305192
 20
311.5395244363146
 42
0.1989123673782988
 10
-177.9298999833112
 20
311.5688137581956
 10
-181.4891101350598
 20
311.5688137581958
 42
-0.2793220653060733
 10
-181.203352907088
 20
311.395668203517
 42
0.279322065306064
 10
-181.1590326713188
 20
311.3688137581955
  0
LWPOLYLINE
  5
D34A
330
1F
100
AcDbEntity
  8
DETAILS
 62
     6
370
    20
100
AcDbPolyline
 90
        2
 70
     1
 43
0.0
 10
-181.0408633726923
 20
311.3688137581958
 10
-179.6408633726927
 20
311.3688137581958
  0
LWPOLYLINE
  5
D34B
330
1F
100
AcDbEntity
  8
DETAILS
 62
     6
370
    20
100
AcDbPolyline
 90
        6
 70
     0
 43
0.0
 10
-181.0408633726941
 20
311.5688137581956
 10
-181.0408633726923
 20
310.7388137581957
 42
0.4142135623730951
 10
-180.8408633726934
 20
310.5388137581956
 10
-179.9984986123648
 20
310.5388137581956
 42
0.3464949689054693
 10
-179.8040705385168
 20
310.6919338680532
 10
-179.5926399971134
 20
311.5688137581957
  0
LWPOLYLINE
  5
D34C
330
1F
100
AcDbEntity
  8
DETAILS
 62
     6
370
    20
100
AcDbPolyline
 90
        6
 70
     0
 43
0.0
 10
-181.1408633726927
 20
311.5688137581956
 10
-181.1408633726927
 20
310.7388137581957
 42
0.4142135623730951
 10
-180.8408633726934
 20
310.4388137581957
 10
-179.9984986123648
 20
310.4388137581957
 42
0.3464949689054693
 10
-179.7068565015937
 20
310.668493922982
 10
-179.489774193816
 20
311.5688137581956
  0
LWPOLYLINE
  5
D34D
330
1F
100
AcDbEntity
  8
DETAILS
 62
     6
370
    20
100
AcDbPolyline
 90
        2
 70
     1
 43
0.0
 10
-179.5379975693953
 20
311.3688137581956
 10
-179.5198282707691
 20
311.3688137581958
  0
LWPOLYLINE
  5
D34E
330
1F
100
AcDbEntity
  8
DETAILS
 62
     6
370
    20
100
AcDbPolyline
 90
        6
 70
     0
 43
0.0
 10
-179.5198282707691
 20
311.3688137581955
 42
0.279322065306064
 10
-179.4755080340413
 20
311.3956682030156
 42
-0.6059183769079624
 10
-178.9039935790582
 20
311.395668203517
 42
0.2793220653054726
 10
-178.8596733432908
 20
311.3688137581956
 10
-178.7665040446621
 20
311.3688137581956
 10
-178.8596733432908
 20
311.3688137581956
  0
LWPOLYLINE
  5
D34F
330
1F
100
AcDbEntity
  8
DETAILS
 62
     6
370
    20
100
AcDbPolyline
 90
        7
 70
     0
 43
0.0
 10
-178.3384786270739
 20
311.5688137581956
 10
-178.2384786270735
 20
311.5688137581956
 10
-177.9884786270735
 20
311.5688137581956
 10
-178.5845551247961
 20
311.5688137581956
 10
-178.7750741306184
 20
310.7786616648166
 42
0.4853378929632635
 10
-178.6098102678473
 20
310.5688137581956
 10
-177.4891101350598
 20
310.5688137581956
  0
LWPOLYLINE
  5
D350
330
1F
100
AcDbEntity
  8
DETAILS
 62
     6
370
    20
100
AcDbPolyline
 90
        4
 70
     0
 43
0.0
 10
-178.7182806690829
 20
311.5688137581956
 10
-178.9014523786185
 20
310.8091335934091
 42
0.4853378929632635
 10
-178.6098102678473
 20
310.4388137581957
 10
-177.4891101350598
 20
310.4388137581957
  0
LWPOLYLINE
  5
D351
330
1F
100
AcDbEntity
  8
DETAILS
 62
     6
370
    20
100
AcDbPolyline
 90
       10
 70
     1
 43
0.0
 10
-181.489110135058
 20
311.6188137581955
 10
-178.3384786270739
 20
311.6188137581955
 10
-178.2407510201986
 20
311.6409033306952
 42
0.7807764064044151
 10
-178.2407510201986
 20
311.646724185696
 10
-178.3384786270739
 20
311.6688137581957
 10
-181.4891101350598
 20
311.6688137581956
 10
-184.6397416430439
 20
311.6688137581957
 10
-184.7374692499192
 20
311.646724185696
 42
0.7807764064044151
 10
-184.7374692499192
 20
311.6409033306952
 10
-184.6397416430439
 20
311.6188137581955
  0
LWPOLYLINE
  5
D352
330
1F
100
AcDbEntity
  8
DETAILS
 62
     6
370
    20
100
AcDbPolyline
 90
        7
 70
     0
 43
0.0
 10
-185.4891101350598
 20
312.4181822502071
 10
-185.1190309649258
 20
312.0481030800768
 42
0.1989123673781765
 10
-185.0483202868084
 20
312.0188137581958
 10
-181.4891101350598
 20
312.0188137581956
 10
-177.9298999833112
 20
312.0188137581958
 42
0.1989123673781768
 10
-177.859189305192
 20
312.0481030800768
 10
-177.4891101350598
 20
312.4181822502048
  0
LWPOLYLINE
  5
D353
330
1F
100
AcDbEntity
  8
DETAILS
 62
     6
370
    20
100
AcDbPolyline
 90
        7
 70
     0
 43
0.0
 10
-185.4891101350598
 20
312.6181822502061
 10
-185.2361882524504
 20
312.3652603676
 42
0.1989123673777967
 10
-184.8826348618598
 20
312.2188137581957
 10
-181.489110135058
 20
312.2188137581957
 10
-178.095585408258
 20
312.2188137581957
 42
0.1989123673777968
 10
-177.7420320176674
 20
312.3652603676
 10
-177.4891101350598
 20
312.6181822502034
  0
LWPOLYLINE
  5
D354
330
1F
100
AcDbEntity
  8
DETAILS
 62
     6
370
    20
100
AcDbPolyline
 90
        4
 70
     0
 43
0.0
 10
-177.4891101350598
 20
310.9694452661841
 10
-177.7420320176674
 20
311.22236714879
 42
0.1989123673788307
 10
-178.0955854082598
 20
311.3688137581956
 10
-178.6327785003753
 20
311.3688137581958
  0
LWPOLYLINE
  5
D355
330
1F
100
AcDbEntity
  8
DETAILS
 62
     6
370
    20
100
AcDbPolyline
 90
        4
 70
     0
 43
0.0
 10
-177.4891101350598
 20
312.1681822502076
 10
-177.7574126098947
 20
311.8998797753743
 42
0.4142135623745727
 10
-177.7574126098965
 20
311.6877477410178
 10
-177.4891101350598
 20
311.4194452661832
  0
LWPOLYLINE
  5
D356
330
1F
100
AcDbEntity
  8
DETAILS
 62
     6
370
    20
100
AcDbPolyline
 90
        6
 70
     1
 43
0.0
 10
-181.4891101350598
 20
311.7188137581957
 10
-177.9884786270735
 20
311.7188137581957
 10
-177.9884786270735
 20
311.8688137581957
 10
-181.4891101350598
 20
311.8688137581957
 10
-184.9897416430443
 20
311.8688137581957
 10
-184.9897416430443
 20
311.7188137581956
  0
LWPOLYLINE
  5
D357
330
1F
100
AcDbEntity
  8
DETAILS
 62
     6
370
    20
100
AcDbPolyline
 90
        2
 70
     1
 43
0.0
 10
-181.1408633726927
 20
317.5688137581958
 10
-181.1590326713188
 20
317.5688137581957
  0
LWPOLYLINE
  5
D358
330
1F
100
AcDbEntity
  8
DETAILS
 62
     6
370
    20
100
AcDbPolyline
 90
        6
 70
     0
 43
0.0
 10
-181.1590326713188
 20
317.5688137581958
 42
0.279322065306064
 10
-181.2033529080485
 20
317.5419593133759
 42
-0.2793220653060733
 10
-181.4891101350598
 20
317.3688137581958
 10
-177.9298999833112
 20
317.3688137581958
 42
0.1989123673782991
 10
-177.859189305192
 20
317.3981030800767
 10
-177.4891101350616
 20
317.768182250205
  0
LWPOLYLINE
  5
D359
330
1F
100
AcDbEntity
  8
DETAILS
 62
     6
370
    20
100
AcDbPolyline
 90
        2
 70
     1
 43
0.0
 10
-181.0408633726923
 20
317.5688137581957
 10
-179.6408633726927
 20
317.5688137581957
  0
LWPOLYLINE
  5
D35A
330
1F
100
AcDbEntity
  8
DETAILS
 62
     6
370
    20
100
AcDbPolyline
 90
        6
 70
     0
 43
0.0
 10
-179.5926399971134
 20
317.3688137581958
 10
-179.8040705385168
 20
318.2456936483382
 42
0.3464949689054692
 10
-179.9984986123648
 20
318.3988137581957
 10
-180.8408633726934
 20
318.3988137581957
 42
0.4142135623730951
 10
-181.0408633726941
 20
318.1988137581957
 10
-181.0408633726941
 20
317.3688137581958
  0
LWPOLYLINE
  5
D35B
330
1F
100
AcDbEntity
  8
DETAILS
 62
     6
370
    20
100
AcDbPolyline
 90
        6
 70
     0
 43
0.0
 10
-179.489774193816
 20
317.3688137581958
 10
-179.7068565015937
 20
318.2691335934094
 42
0.3464949689054692
 10
-179.9984986123648
 20
318.4988137581957
 10
-180.8408633726934
 20
318.4988137581957
 42
0.4142135623730951
 10
-181.1408633726927
 20
318.1988137581957
 10
-181.1408633726927
 20
317.3688137581958
  0
LWPOLYLINE
  5
D35C
330
1F
100
AcDbEntity
  8
DETAILS
 62
     6
370
    20
100
AcDbPolyline
 90
        2
 70
     1
 43
0.0
 10
-179.5379975693953
 20
317.5688137581958
 10
-179.5198282707691
 20
317.5688137581957
  0
LWPOLYLINE
  5
D35D
330
1F
100
AcDbEntity
  8
DETAILS
 62
     6
370
    20
100
AcDbPolyline
 90
        6
 70
     0
 43
0.0
 10
-178.8596733432908
 20
317.5688137581958
 10
-178.7665040446621
 20
317.5688137581958
 10
-178.8596733432908
 20
317.5688137581958
 42
0.2793220653054726
 10
-178.9039935800186
 20
317.5419593133756
 42
-0.6059183769079625
 10
-179.4755080349999
 20
317.5419593128745
 42
0.279322065306064
 10
-179.5198282707691
 20
317.5688137581958
  0
LWPOLYLINE
  5
D35E
330
1F
100
AcDbEntity
  8
DETAILS
 62
     6
370
    20
100
AcDbPolyline
 90
        7
 70
     0
 43
0.0
 10
-177.4891101350598
 20
318.3688137581957
 10
-178.6098102678473
 20
318.3688137581957
 42
0.4853378929632635
 10
-178.7750741306166
 20
318.158965851575
 10
-178.5845551247961
 20
317.3688137581958
 10
-177.9884786270735
 20
317.3688137581958
 10
-178.2384786270753
 20
317.3688137581958
 10
-178.3384786270739
 20
317.3688137581958
  0
LWPOLYLINE
  5
D35F
330
1F
100
AcDbEntity
  8
DETAILS
 62
     6
370
    20
100
AcDbPolyline
 90
        4
 70
     0
 43
0.0
 10
-177.4891101350598
 20
318.4988137581957
 10
-178.6098102678473
 20
318.4988137581957
 42
0.4853378929632635
 10
-178.9014523786185
 20
318.1284939229822
 10
-178.7182806690829
 20
317.3688137581958
  0
LWPOLYLINE
  5
D360
330
1F
100
AcDbEntity
  8
DETAILS
 62
     6
370
    20
100
AcDbPolyline
 90
       10
 70
     1
 43
0.0
 10
-181.4891101350598
 20
317.3188137581958
 10
-184.6397416430439
 20
317.3188137581958
 10
-184.7374692499192
 20
317.2967241856961
 42
0.7807764064044151
 10
-184.7374692499192
 20
317.2909033306953
 10
-184.6397416430439
 20
317.2688137581957
 10
-181.4891101350598
 20
317.2688137581959
 10
-178.3384786270739
 20
317.2688137581957
 10
-178.2407510201986
 20
317.2909033306953
 42
0.7807764064044151
 10
-178.2407510201986
 20
317.2967241856961
 10
-178.3384786270739
 20
317.3188137581958
  0
LWPOLYLINE
  5
D361
330
1F
100
AcDbEntity
  8
DETAILS
 62
     6
370
    20
100
AcDbPolyline
 90
        7
 70
     0
 43
0.0
 10
-177.4891101350616
 20
316.5194452661867
 10
-177.859189305192
 20
316.8895244363147
 42
0.1989123673781766
 10
-177.9298999833112
 20
316.9188137581957
 10
-181.4891101350598
 20
316.9188137581957
 10
-185.0483202868084
 20
316.9188137581957
 42
0.1989123673781765
 10
-185.1190309649258
 20
316.8895244363147
 10
-185.4891101350598
 20
316.519445266184
  0
LWPOLYLINE
  5
D362
330
1F
100
AcDbEntity
  8
DETAILS
 62
     6
370
    20
100
AcDbPolyline
 90
        7
 70
     0
 43
0.0
 10
-177.4891101350598
 20
316.3194452661884
 10
-177.7420320176674
 20
316.5723671487915
 42
0.1989123673777966
 10
-178.095585408258
 20
316.7188137581957
 10
-181.4891101350598
 20
316.7188137581958
 10
-184.8826348618598
 20
316.7188137581957
 42
0.1989123673777966
 10
-185.2361882524504
 20
316.5723671487915
 10
-185.4891101350598
 20
316.3194452661849
  0
LWPOLYLINE
  5
D363
330
1F
100
AcDbEntity
  8
DETAILS
 62
     6
370
    20
100
AcDbPolyline
 90
        4
 70
     0
 43
0.0
 10
-178.6327785003753
 20
317.5688137581957
 10
-178.0955854082598
 20
317.5688137581958
 42
0.1989123673788307
 10
-177.7420320176674
 20
317.7152603676014
 10
-177.4891101350616
 20
317.9681822502069
  0
LWPOLYLINE
  5
D364
330
1F
100
AcDbEntity
  8
DETAILS
 62
     6
370
    20
100
AcDbPolyline
 90
        4
 70
     0
 43
0.0
 10
-177.4891101350616
 20
317.5181822502084
 10
-177.7574126098965
 20
317.2498797753735
 42
0.4142135623745727
 10
-177.7574126098947
 20
317.037747741017
 10
-177.4891101350598
 20
316.7694452661844
  0
LWPOLYLINE
  5
D365
330
1F
100
AcDbEntity
  8
DETAILS
 62
     6
370
    20
100
AcDbPolyline
 90
        6
 70
     1
 43
0.0
 10
-181.4891101350598
 20
317.2188137581957
 10
-177.9884786270735
 20
317.2188137581958
 10
-177.9884786270735
 20
317.0688137581958
 10
-181.4891101350598
 20
317.0688137581956
 10
-184.9897416430443
 20
317.0688137581957
 10
-184.9897416430443
 20
317.2188137581959
  0
LWPOLYLINE
  5
D366
330
1F
100
AcDbEntity
  8
DETAILS
 62
     6
370
    20
100
AcDbPolyline
 90
        2
 70
     1
 43
0.0
 10
-181.8373568974251
 20
311.3688137581956
 10
-181.8191875988008
 20
311.3688137581958
  0
LWPOLYLINE
  5
D367
330
1F
100
AcDbEntity
  8
DETAILS
 62
     6
370
    20
100
AcDbPolyline
 90
        6
 70
     0
 43
0.0
 10
-181.8191875988008
 20
311.3688137581955
 42
0.279322065306064
 10
-181.7748673620712
 20
311.3956682030156
 42
-0.2793220653060734
 10
-181.4891101350598
 20
311.5688137581956
 10
-185.0483202868084
 20
311.5688137581956
 42
0.1989123673782987
 10
-185.1190309649258
 20
311.5395244363146
 10
-185.4891101350598
 20
311.1694452661839
  0
LWPOLYLINE
  5
D368
330
1F
100
AcDbEntity
  8
DETAILS
 62
     6
370
    20
100
AcDbPolyline
 90
        2
 70
     1
 43
0.0
 10
-181.9373568974255
 20
311.3688137581958
 10
-183.3373568974269
 20
311.3688137581958
  0
LWPOLYLINE
  5
D369
330
1F
100
AcDbEntity
  8
DETAILS
 62
     6
370
    20
100
AcDbPolyline
 90
        6
 70
     0
 43
0.0
 10
-183.3855802730062
 20
311.5688137581957
 10
-183.174149731601
 20
310.6919338680532
 42
0.3464949689054692
 10
-182.979721657753
 20
310.5388137581956
 10
-182.1373568974262
 20
310.5388137581956
 42
0.4142135623730951
 10
-181.9373568974255
 20
310.7388137581957
 10
-181.9373568974255
 20
311.5688137581956
  0
LWPOLYLINE
  5
D36A
330
1F
100
AcDbEntity
  8
DETAILS
 62
     6
370
    20
100
AcDbPolyline
 90
        6
 70
     0
 43
0.0
 10
-183.4884460763036
 20
311.5688137581956
 10
-183.2713637685259
 20
310.668493922982
 42
0.3464949689054692
 10
-182.979721657753
 20
310.4388137581957
 10
-182.1373568974262
 20
310.4388137581957
 42
0.4142135623730951
 10
-181.8373568974251
 20
310.7388137581957
 10
-181.8373568974251
 20
311.5688137581956
  0
LWPOLYLINE
  5
D36B
330
1F
100
AcDbEntity
  8
DETAILS
 62
     6
370
    20
100
AcDbPolyline
 90
        2
 70
     1
 43
0.0
 10
-183.4402227007225
 20
311.3688137581956
 10
-183.4583919993487
 20
311.3688137581958
  0
LWPOLYLINE
  5
D36C
330
1F
100
AcDbEntity
  8
DETAILS
 62
     6
370
    20
100
AcDbPolyline
 90
        6
 70
     0
 43
0.0
 10
-184.1185469268288
 20
311.3688137581956
 10
-184.2117162254557
 20
311.3688137581956
 10
-184.1185469268288
 20
311.3688137581956
 42
0.2793220653054726
 10
-184.0742266900992
 20
311.3956682030157
 42
-0.6059183769079624
 10
-183.5027122351179
 20
311.395668203517
 42
0.279322065306064
 10
-183.4583919993487
 20
311.3688137581955
  0
LWPOLYLINE
  5
D36D
330
1F
100
AcDbEntity
  8
DETAILS
 62
     6
370
    20
100
AcDbPolyline
 90
        7
 70
     0
 43
0.0
 10
-185.4891101350598
 20
310.5688137581956
 10
-184.3684100022723
 20
310.5688137581956
 42
0.4853378929632635
 10
-184.2031461395012
 20
310.7786616648165
 10
-184.3936651453235
 20
311.5688137581956
 10
-184.9897416430443
 20
311.5688137581956
 10
-184.7397416430443
 20
311.5688137581956
 10
-184.6397416430439
 20
311.5688137581956
  0
LWPOLYLINE
  5
D36E
330
1F
100
AcDbEntity
  8
DETAILS
 62
     6
370
    20
100
AcDbPolyline
 90
        4
 70
     0
 43
0.0
 10
-185.4891101350598
 20
310.4388137581957
 10
-184.3684100022723
 20
310.4388137581957
 42
0.4853378929632635
 10
-184.0767678914993
 20
310.8091335934091
 10
-184.2599396010367
 20
311.5688137581956
  0
LWPOLYLINE
  5
D36F
330
1F
100
AcDbEntity
  8
DETAILS
 62
     6
370
    20
100
AcDbPolyline
 90
        4
 70
     0
 43
0.0
 10
-184.3454417697424
 20
311.3688137581958
 10
-184.882634861858
 20
311.3688137581956
 42
0.1989123673788306
 10
-185.2361882524504
 20
311.22236714879
 10
-185.4891101350598
 20
310.9694452661819
  0
LWPOLYLINE
  5
D370
330
1F
100
AcDbEntity
  8
DETAILS
 62
     6
370
    20
100
AcDbPolyline
 90
        4
 70
     0
 43
0.0
 10
-185.4891101350598
 20
311.4194452661809
 10
-185.2208076602231
 20
311.6877477410178
 42
0.4142135623745727
 10
-185.2208076602231
 20
311.8998797753743
 10
-185.4891101350598
 20
312.1681822502096
  0
LWPOLYLINE
  5
D371
330
1F
100
AcDbEntity
  8
DETAILS
 62
     6
370
    20
100
AcDbPolyline
 90
        2
 70
     1
 43
0.0
 10
-181.8373568974251
 20
317.5688137581958
 10
-181.8191875988008
 20
317.5688137581957
  0
LWPOLYLINE
  5
D372
330
1F
100
AcDbEntity
  8
DETAILS
 62
     6
370
    20
100
AcDbPolyline
 90
        6
 70
     0
 43
0.0
 10
-185.4891101350598
 20
317.7681822502077
 10
-185.1190309649258
 20
317.3981030800767
 42
0.1989123673782989
 10
-185.0483202868084
 20
317.3688137581958
 10
-181.4891101350598
 20
317.3688137581955
 42
-0.2793220653060733
 10
-181.7748673630316
 20
317.5419593128745
 42
0.279322065306064
 10
-181.8191875988008
 20
317.5688137581958
  0
LWPOLYLINE
  5
D373
330
1F
100
AcDbEntity
  8
DETAILS
 62
     6
370
    20
100
AcDbPolyline
 90
        2
 70
     1
 43
0.0
 10
-181.9373568974255
 20
317.5688137581957
 10
-183.3373568974269
 20
317.5688137581957
  0
LWPOLYLINE
  5
D374
330
1F
100
AcDbEntity
  8
DETAILS
 62
     6
370
    20
100
AcDbPolyline
 90
        6
 70
     0
 43
0.0
 10
-181.9373568974255
 20
317.3688137581958
 10
-181.9373568974255
 20
318.1988137581957
 42
0.4142135623730951
 10
-182.1373568974262
 20
318.3988137581957
 10
-182.979721657753
 20
318.3988137581957
 42
0.3464949689054692
 10
-183.174149731601
 20
318.2456936483382
 10
-183.3855802730062
 20
317.3688137581958
  0
LWPOLYLINE
  5
D375
330
1F
100
AcDbEntity
  8
DETAILS
 62
     6
370
    20
100
AcDbPolyline
 90
        6
 70
     0
 43
0.0
 10
-181.8373568974251
 20
317.3688137581958
 10
-181.8373568974251
 20
318.1988137581957
 42
0.4142135623730951
 10
-182.1373568974262
 20
318.4988137581957
 10
-182.979721657753
 20
318.4988137581957
 42
0.3464949689054692
 10
-183.2713637685259
 20
318.2691335934094
 10
-183.4884460763036
 20
317.3688137581958
  0
LWPOLYLINE
  5
D376
330
1F
100
AcDbEntity
  8
DETAILS
 62
     6
370
    20
100
AcDbPolyline
 90
        2
 70
     1
 43
0.0
 10
-183.4402227007225
 20
317.5688137581958
 10
-183.4583919993487
 20
317.5688137581957
  0
LWPOLYLINE
  5
D377
330
1F
100
AcDbEntity
  8
DETAILS
 62
     6
370
    20
100
AcDbPolyline
 90
        6
 70
     0
 43
0.0
 10
-183.4583919993487
 20
317.5688137581958
 42
0.279322065306064
 10
-183.5027122360783
 20
317.5419593133759
 42
-0.6059183769079624
 10
-184.0742266910596
 20
317.5419593128745
 42
0.2793220653054726
 10
-184.1185469268288
 20
317.5688137581958
 10
-184.2117162254557
 20
317.5688137581958
 10
-184.1185469268288
 20
317.5688137581958
  0
LWPOLYLINE
  5
D378
330
1F
100
AcDbEntity
  8
DETAILS
 62
     6
370
    20
100
AcDbPolyline
 90
        7
 70
     0
 43
0.0
 10
-184.6397416430439
 20
317.3688137581958
 10
-184.7397416430443
 20
317.3688137581958
 10
-184.9897416430443
 20
317.3688137581958
 10
-184.3936651453235
 20
317.3688137581958
 10
-184.2031461395012
 20
318.1589658515747
 42
0.4853378929632635
 10
-184.3684100022723
 20
318.3688137581957
 10
-185.4891101350616
 20
318.3688137581957
  0
LWPOLYLINE
  5
D379
330
1F
100
AcDbEntity
  8
DETAILS
 62
     6
370
    20
100
AcDbPolyline
 90
        4
 70
     0
 43
0.0
 10
-184.2599396010367
 20
317.3688137581958
 10
-184.0767678914993
 20
318.1284939229822
 42
0.4853378929632635
 10
-184.3684100022723
 20
318.4988137581957
 10
-185.4891101350616
 20
318.4988137581957
  0
LWPOLYLINE
  5
D37A
330
1F
100
AcDbEntity
  8
DETAILS
 62
     6
370
    20
100
AcDbPolyline
 90
        4
 70
     0
 43
0.0
 10
-185.4891101350598
 20
317.9681822502099
 10
-185.2361882524504
 20
317.7152603676014
 42
0.1989123673788307
 10
-184.882634861858
 20
317.5688137581958
 10
-184.3454417697424
 20
317.5688137581957
  0
LWPOLYLINE
  5
D37B
330
1F
100
AcDbEntity
  8
DETAILS
 62
     6
370
    20
100
AcDbPolyline
 90
        4
 70
     0
 43
0.0
 10
-185.4891101350598
 20
316.7694452661815
 10
-185.2208076602231
 20
317.037747741017
 42
0.4142135623745727
 10
-185.2208076602231
 20
317.2498797753735
 10
-185.4891101350616
 20
317.5181822502109
  0
LINE
  5
D37C
330
1F
100
AcDbEntity
  8
0
 62
     1
100
AcDbLine
 10
-187.4891101350598
 20
308.2188137581957
 30
0.0
 11
-187.4891101350598
 21
296.2188137581957
 31
0.0
  0
LINE
  5
D37D
330
1F
100
AcDbEntity
  8
0
 62
     1
100
AcDbLine
 10
-187.4891101350598
 20
308.2188137581957
 30
0.0
 11
-185.9391101350605
 21
308.2188137581957
 31
0.0
  0
LINE
  5
D37E
330
1F
100
AcDbEntity
  8
0
 62
     1
100
AcDbLine
 10
-187.4891101350598
 20
296.2188137581957
 30
0.0
 11
-185.4891101350598
 21
296.2188137581957
 31
0.0
  0
LINE
  5
D37F
330
1F
100
AcDbEntity
  8
0
 62
     1
100
AcDbLine
 10
-185.4891101350598
 20
308.7188137581957
 30
0.0
 11
-185.4891101350598
 21
296.2188137581957
 31
0.0
  0
LINE
  5
D380
330
1F
100
AcDbEntity
  8
0
 62
     1
100
AcDbLine
 10
-187.1391101350594
 20
308.7188137581957
 30
0.0
 11
-186.5141101350594
 21
308.7188137581957
 31
0.0
  0
LINE
  5
D381
330
1F
100
AcDbEntity
  8
0
 62
     1
100
AcDbLine
 10
-187.1391101350594
 20
308.7188137581957
 30
0.0
 11
-187.1391101350594
 21
296.2188137581957
 31
0.0
  0
LINE
  5
D382
330
1F
100
AcDbEntity
  8
0
 62
     1
100
AcDbLine
 10
-186.1141101350598
 20
308.7188137581957
 30
0.0
 11
-186.1141101350616
 21
308.2188137581957
 31
0.0
  0
LINE
  5
D383
330
1F
100
AcDbEntity
  8
0
 62
     1
100
AcDbLine
 10
-186.5141101350594
 20
308.7188137581957
 30
0.0
 11
-186.5141101350594
 21
308.2188137581957
 31
0.0
  0
LINE
  5
D384
330
1F
100
AcDbEntity
  8
0
 62
     1
100
AcDbLine
 10
-186.1141101350616
 20
308.7188137581957
 30
0.0
 11
-185.4891101350616
 21
308.7188137581957
 31
0.0
  0
LINE
  5
D385
330
1F
100
AcDbEntity
  8
0
 62
     1
100
AcDbLine
 10
-185.6891101350605
 20
308.4688137581957
 30
0.0
 11
-185.6891101350605
 21
296.2188137581957
 31
0.0
  0
LINE
  5
D386
330
1F
100
AcDbEntity
  8
0
 62
     1
100
AcDbLine
 10
-185.9391101350605
 20
308.4688137581957
 30
0.0
 11
-185.9391101350605
 21
308.2188137581957
 31
0.0
  0
LINE
  5
D387
330
1F
100
AcDbEntity
  8
0
 62
     1
100
AcDbLine
 10
-185.9391101350605
 20
308.4688137581957
 30
0.0
 11
-185.6891101350605
 21
308.4688137581957
 31
0.0
  0
LINE
  5
D388
330
1F
100
AcDbEntity
  8
0
 62
     1
100
AcDbLine
 10
-185.6891101350605
 20
308.2188137581957
 30
0.0
 11
-185.4891101350616
 21
308.2188137581957
 31
0.0
  0
LINE
  5
D389
330
1F
100
AcDbEntity
  8
0
 48
0.15
100
AcDbLine
 10
-186.5141101350594
 20
308.2188137581957
 30
0.0
 11
-186.1141101350598
 21
308.2188137581957
 31
0.0
  0
LINE
  5
D38A
330
1F
100
AcDbEntity
  8
A2 Hatch
  6
DASHED2
 48
0.15
100
AcDbLine
 10
-186.7241101350604
 20
308.7188137581957
 30
0.0
 11
-186.7241101350604
 21
296.2188137581957
 31
0.0
  0
LINE
  5
D38B
330
1F
100
AcDbEntity
  8
A2 Hatch
  6
DASHED2
 48
0.15
100
AcDbLine
 10
-185.9041101350607
 20
308.7188137581957
 30
0.0
 11
-185.9041101350607
 21
296.2188137581957
 31
0.0
  0
LINE
  5
D38C
330
1F
100
AcDbEntity
  8
0
 62
     1
100
AcDbLine
 10
-186.5641101350605
 20
308.7188137581957
 30
0.0
 11
-186.5641101350605
 21
296.2188137581957
 31
0.0
  0
LINE
  5
D38D
330
1F
100
AcDbEntity
  8
0
 62
     1
100
AcDbLine
 10
-186.0641101350605
 20
308.7188137581957
 30
0.0
 11
-186.0641101350605
 21
296.2188137581957
 31
0.0
  0
LINE
  5
D38E
330
1F
100
AcDbEntity
  8
0
 62
     1
100
AcDbLine
 10
-186.0641101350605
 20
308.2188137581957
 30
0.0
 11
-186.5641101350605
 21
308.2188137581957
 31
0.0
  0
LINE
  5
D38F
330
1F
100
AcDbEntity
  8
0
  6
HIDDEN
 62
     1
 48
0.02
100
AcDbLine
 10
-187.1391101350594
 20
296.7188137581957
 30
0.0
 11
-186.5141101350594
 21
296.7188137581957
 31
0.0
  0
LINE
  5
D390
330
1F
100
AcDbEntity
  8
0
  6
HIDDEN
 62
     1
 48
0.02
100
AcDbLine
 10
-186.1141101350598
 20
296.7188137581957
 30
0.0
 11
-186.1141101350616
 21
296.2188137581957
 31
0.0
  0
LINE
  5
D391
330
1F
100
AcDbEntity
  8
0
  6
HIDDEN
 62
     1
 48
0.02
100
AcDbLine
 10
-186.5141101350594
 20
296.7188137581957
 30
0.0
 11
-186.5141101350594
 21
296.2188137581957
 31
0.0
  0
LINE
  5
D392
330
1F
100
AcDbEntity
  8
0
  6
HIDDEN
 62
     1
 48
0.02
100
AcDbLine
 10
-186.1141101350616
 20
296.7188137581957
 30
0.0
 11
-185.4891101350616
 21
296.7188137581957
 31
0.0
  0
LINE
  5
D393
330
1F
100
AcDbEntity
  8
0
 62
     1
100
AcDbLine
 10
-175.4891101350598
 20
308.2188137581957
 30
0.0
 11
-175.4891101350598
 21
296.2188137581957
 31
0.0
  0
LINE
  5
D394
330
1F
100
AcDbEntity
  8
0
 62
     1
100
AcDbLine
 10
-177.4891101350598
 20
308.7188137581957
 30
0.0
 11
-177.4891101350598
 21
296.2188137581957
 31
0.0
  0
LINE
  5
D395
330
1F
100
AcDbEntity
  8
0
 62
     1
100
AcDbLine
 10
-175.8391101350602
 20
308.7188137581957
 30
0.0
 11
-175.8391101350602
 21
308.2188137581957
 31
0.0
  0
LINE
  5
D396
330
1F
100
AcDbEntity
  8
0
 62
     1
100
AcDbLine
 10
-176.8641101350598
 20
308.7188137581959
 30
0.0
 11
-176.8641101350598
 21
308.2188137581957
 31
0.0
  0
LINE
  5
D397
330
1F
100
AcDbEntity
  8
0
 62
     1
100
AcDbLine
 10
-176.4641101350602
 20
308.7188137581957
 30
0.0
 11
-176.4641101350602
 21
308.2188137581957
 31
0.0
  0
LINE
  5
D398
330
1F
100
AcDbEntity
  8
0
 62
     1
100
AcDbLine
 10
-177.4891101350598
 20
308.7188137581957
 30
0.0
 11
-176.8641101350598
 21
308.7188137581957
 31
0.0
  0
LINE
  5
D399
330
1F
100
AcDbEntity
  8
0
 62
     1
100
AcDbLine
 10
-176.4641101350602
 20
308.7188137581957
 30
0.0
 11
-175.8391101350602
 21
308.7188137581957
 31
0.0
  0
LINE
  5
D39A
330
1F
100
AcDbEntity
  8
0
 62
     1
100
AcDbLine
 10
-177.2891101350591
 20
308.4688137581957
 30
0.0
 11
-177.2891101350591
 21
296.2188137581957
 31
0.0
  0
LINE
  5
D39B
330
1F
100
AcDbEntity
  8
0
 62
     1
100
AcDbLine
 10
-177.0391101350591
 20
308.4688137581957
 30
0.0
 11
-177.0391101350591
 21
308.2188137581957
 31
0.0
  0
LINE
  5
D39C
330
1F
100
AcDbEntity
  8
0
 62
     1
100
AcDbLine
 10
-177.2891101350591
 20
308.4688137581957
 30
0.0
 11
-177.0391101350591
 21
308.4688137581957
 31
0.0
  0
LINE
  5
D39D
330
1F
100
AcDbEntity
  8
0
 62
     1
100
AcDbLine
 10
-177.0741101350589
 20
308.2188137581957
 30
0.0
 11
-175.4891101350598
 21
308.2188137581957
 31
0.0
  0
LINE
  5
D39E
330
1F
100
AcDbEntity
  8
0
 62
     1
100
AcDbLine
 10
-177.0741101350589
 20
308.2188137581957
 30
0.0
 11
-177.0741101350589
 21
296.2188137581957
 31
0.0
  0
LINE
  5
D39F
330
1F
100
AcDbEntity
  8
0
 62
     1
100
AcDbLine
 10
-176.2541101350592
 20
308.2188137581957
 30
0.0
 11
-176.2541101350592
 21
296.2188137581957
 31
0.0
  0
LINE
  5
D3A0
330
1F
100
AcDbEntity
  8
A2 Hatch
  6
DASHED2
 48
0.15
100
AcDbLine
 10
-176.9141101350591
 20
308.2188137581957
 30
0.0
 11
-176.9141101350591
 21
296.2188137581957
 31
0.0
  0
LINE
  5
D3A1
330
1F
100
AcDbEntity
  8
A2 Hatch
  6
DASHED2
 48
0.15
100
AcDbLine
 10
-176.4141101350591
 20
308.2188137581957
 30
0.0
 11
-176.4141101350591
 21
296.2188137581957
 31
0.0
  0
LINE
  5
D3A2
330
1F
100
AcDbEntity
  8
0
 62
     1
100
AcDbLine
 10
-177.4891101350598
 20
308.2188137581957
 30
0.0
 11
-177.2891101350591
 21
308.2188137581957
 31
0.0
  0
LINE
  5
D3A3
330
1F
100
AcDbEntity
  8
0
 62
     1
100
AcDbLine
 10
-177.4891101350598
 20
296.2188137581957
 30
0.0
 11
-175.4891101350598
 21
296.2188137581957
 31
0.0
  0
LINE
  5
D3A4
330
1F
100
AcDbEntity
  8
0
  6
HIDDEN
 62
     1
 48
0.02
100
AcDbLine
 10
-175.8391101350583
 20
296.7188137581959
 30
0.0
 11
-175.8391101350583
 21
296.2188137581959
 31
0.0
  0
LINE
  5
D3A5
330
1F
100
AcDbEntity
  8
0
  6
HIDDEN
 62
     1
 48
0.02
100
AcDbLine
 10
-176.864110135058
 20
296.7188137581959
 30
0.0
 11
-176.864110135058
 21
296.2188137581959
 31
0.0
  0
LINE
  5
D3A6
330
1F
100
AcDbEntity
  8
0
  6
HIDDEN
 62
     1
 48
0.02
100
AcDbLine
 10
-176.4641101350584
 20
296.7188137581959
 30
0.0
 11
-176.4641101350584
 21
296.2188137581959
 31
0.0
  0
LINE
  5
D3A7
330
1F
100
AcDbEntity
  8
0
  6
HIDDEN
 62
     1
 48
0.02
100
AcDbLine
 10
-177.489110135058
 20
296.7188137581959
 30
0.0
 11
-176.864110135058
 21
296.7188137581959
 31
0.0
  0
LINE
  5
D3A8
330
1F
100
AcDbEntity
  8
0
  6
HIDDEN
 62
     1
 48
0.02
100
AcDbLine
 10
-176.4641101350584
 20
296.7188137581959
 30
0.0
 11
-175.8391101350583
 21
296.7188137581959
 31
0.0
  0
LWPOLYLINE
  5
D3A9
330
1F
100
AcDbEntity
  8
DETAILS
 62
     6
370
    20
100
AcDbPolyline
 90
        2
 70
     1
 43
0.0
 10
-181.1408633726927
 20
299.3688137581957
 10
-181.1590326713188
 20
299.3688137581957
  0
LWPOLYLINE
  5
D3AA
330
1F
100
AcDbEntity
  8
DETAILS
 62
     6
370
    20
100
AcDbPolyline
 90
        6
 70
     0
 43
0.0
 10
-177.4891101350598
 20
299.1694452661859
 10
-177.859189305192
 20
299.5395244363146
 42
0.1989123673782988
 10
-177.9298999833112
 20
299.5688137581956
 10
-181.4891101350598
 20
299.5688137581958
 42
-0.2793220653060733
 10
-181.203352907088
 20
299.3956682035168
 42
0.279322065306064
 10
-181.1590326713188
 20
299.3688137581955
  0
LWPOLYLINE
  5
D3AB
330
1F
100
AcDbEntity
  8
DETAILS
 62
     6
370
    20
100
AcDbPolyline
 90
        2
 70
     1
 43
0.0
 10
-181.0408633726923
 20
299.3688137581957
 10
-179.6408633726927
 20
299.3688137581957
  0
LWPOLYLINE
  5
D3AC
330
1F
100
AcDbEntity
  8
DETAILS
 62
     6
370
    20
100
AcDbPolyline
 90
        6
 70
     0
 43
0.0
 10
-181.0408633726941
 20
299.5688137581956
 10
-181.0408633726923
 20
298.7388137581957
 42
0.4142135623730951
 10
-180.8408633726934
 20
298.5388137581956
 10
-179.9984986123648
 20
298.5388137581956
 42
0.3464949689054693
 10
-179.8040705385168
 20
298.6919338680532
 10
-179.5926399971134
 20
299.5688137581956
  0
LWPOLYLINE
  5
D3AD
330
1F
100
AcDbEntity
  8
DETAILS
 62
     6
370
    20
100
AcDbPolyline
 90
        6
 70
     0
 43
0.0
 10
-181.1408633726927
 20
299.5688137581956
 10
-181.1408633726927
 20
298.7388137581957
 42
0.4142135623730951
 10
-180.8408633726934
 20
298.4388137581957
 10
-179.9984986123648
 20
298.4388137581957
 42
0.3464949689054693
 10
-179.7068565015937
 20
298.6684939229819
 10
-179.489774193816
 20
299.5688137581956
  0
LWPOLYLINE
  5
D3AE
330
1F
100
AcDbEntity
  8
DETAILS
 62
     6
370
    20
100
AcDbPolyline
 90
        2
 70
     1
 43
0.0
 10
-179.5379975693953
 20
299.3688137581957
 10
-179.5198282707691
 20
299.3688137581957
  0
LWPOLYLINE
  5
D3AF
330
1F
100
AcDbEntity
  8
DETAILS
 62
     6
370
    20
100
AcDbPolyline
 90
        6
 70
     0
 43
0.0
 10
-179.5198282707691
 20
299.3688137581955
 42
0.279322065306064
 10
-179.4755080340413
 20
299.3956682030157
 42
-0.6059183769079624
 10
-178.9039935790582
 20
299.3956682035168
 42
0.2793220653054726
 10
-178.8596733432908
 20
299.3688137581957
 10
-178.7665040446621
 20
299.3688137581957
 10
-178.8596733432908
 20
299.3688137581957
  0
LWPOLYLINE
  5
D3B0
330
1F
100
AcDbEntity
  8
DETAILS
 62
     6
370
    20
100
AcDbPolyline
 90
        7
 70
     0
 43
0.0
 10
-178.3384786270739
 20
299.5688137581956
 10
-178.2384786270735
 20
299.5688137581956
 10
-177.9884786270735
 20
299.5688137581956
 10
-178.5845551247961
 20
299.5688137581956
 10
-178.7750741306184
 20
298.7786616648166
 42
0.4853378929632635
 10
-178.6098102678473
 20
298.5688137581956
 10
-177.4891101350598
 20
298.5688137581956
  0
LWPOLYLINE
  5
D3B1
330
1F
100
AcDbEntity
  8
DETAILS
 62
     6
370
    20
100
AcDbPolyline
 90
        4
 70
     0
 43
0.0
 10
-178.7182806690829
 20
299.5688137581956
 10
-178.9014523786185
 20
298.8091335934091
 42
0.4853378929632635
 10
-178.6098102678473
 20
298.4388137581957
 10
-177.4891101350598
 20
298.4388137581957
  0
LWPOLYLINE
  5
D3B2
330
1F
100
AcDbEntity
  8
DETAILS
 62
     6
370
    20
100
AcDbPolyline
 90
       10
 70
     1
 43
0.0
 10
-181.489110135058
 20
299.6188137581955
 10
-178.3384786270739
 20
299.6188137581955
 10
-178.2407510201986
 20
299.6409033306952
 42
0.7807764064044151
 10
-178.2407510201986
 20
299.646724185696
 10
-178.3384786270739
 20
299.6688137581957
 10
-181.4891101350598
 20
299.6688137581955
 10
-184.6397416430439
 20
299.6688137581957
 10
-184.7374692499192
 20
299.646724185696
 42
0.7807764064044151
 10
-184.7374692499192
 20
299.6409033306952
 10
-184.6397416430439
 20
299.6188137581955
  0
LWPOLYLINE
  5
D3B3
330
1F
100
AcDbEntity
  8
DETAILS
 62
     6
370
    20
100
AcDbPolyline
 90
        7
 70
     0
 43
0.0
 10
-185.4891101350598
 20
300.4181822502071
 10
-185.1190309649258
 20
300.0481030800768
 42
0.1989123673781765
 10
-185.0483202868084
 20
300.0188137581958
 10
-181.4891101350598
 20
300.0188137581956
 10
-177.9298999833112
 20
300.0188137581958
 42
0.1989123673781768
 10
-177.859189305192
 20
300.0481030800768
 10
-177.4891101350598
 20
300.4181822502048
  0
LWPOLYLINE
  5
D3B4
330
1F
100
AcDbEntity
  8
DETAILS
 62
     6
370
    20
100
AcDbPolyline
 90
        7
 70
     0
 43
0.0
 10
-185.4891101350598
 20
300.6181822502061
 10
-185.2361882524504
 20
300.3652603676
 42
0.1989123673777967
 10
-184.8826348618598
 20
300.2188137581957
 10
-181.489110135058
 20
300.2188137581957
 10
-178.095585408258
 20
300.2188137581957
 42
0.1989123673777968
 10
-177.7420320176674
 20
300.3652603676
 10
-177.4891101350598
 20
300.6181822502034
  0
LWPOLYLINE
  5
D3B5
330
1F
100
AcDbEntity
  8
DETAILS
 62
     6
370
    20
100
AcDbPolyline
 90
        4
 70
     0
 43
0.0
 10
-177.4891101350598
 20
298.969445266184
 10
-177.7420320176674
 20
299.22236714879
 42
0.1989123673788307
 10
-178.0955854082598
 20
299.3688137581957
 10
-178.6327785003753
 20
299.3688137581957
  0
LWPOLYLINE
  5
D3B6
330
1F
100
AcDbEntity
  8
DETAILS
 62
     6
370
    20
100
AcDbPolyline
 90
        4
 70
     0
 43
0.0
 10
-177.4891101350598
 20
300.1681822502076
 10
-177.7574126098947
 20
299.8998797753743
 42
0.4142135623745727
 10
-177.7574126098965
 20
299.6877477410178
 10
-177.4891101350598
 20
299.4194452661832
  0
LWPOLYLINE
  5
D3B7
330
1F
100
AcDbEntity
  8
DETAILS
 62
     6
370
    20
100
AcDbPolyline
 90
        6
 70
     1
 43
0.0
 10
-181.4891101350598
 20
299.7188137581957
 10
-177.9884786270735
 20
299.7188137581957
 10
-177.9884786270735
 20
299.8688137581958
 10
-181.4891101350598
 20
299.8688137581958
 10
-184.9897416430443
 20
299.8688137581958
 10
-184.9897416430443
 20
299.7188137581957
  0
LWPOLYLINE
  5
D3B8
330
1F
100
AcDbEntity
  8
DETAILS
 62
     6
370
    20
100
AcDbPolyline
 90
        2
 70
     1
 43
0.0
 10
-181.1408633726927
 20
305.5688137581958
 10
-181.1590326713188
 20
305.5688137581957
  0
LWPOLYLINE
  5
D3B9
330
1F
100
AcDbEntity
  8
DETAILS
 62
     6
370
    20
100
AcDbPolyline
 90
        6
 70
     0
 43
0.0
 10
-181.1590326713188
 20
305.5688137581958
 42
0.279322065306064
 10
-181.2033529080485
 20
305.5419593133759
 42
-0.2793220653060733
 10
-181.4891101350598
 20
305.3688137581958
 10
-177.9298999833112
 20
305.3688137581958
 42
0.1989123673782991
 10
-177.859189305192
 20
305.3981030800767
 10
-177.4891101350616
 20
305.768182250205
  0
LWPOLYLINE
  5
D3BA
330
1F
100
AcDbEntity
  8
DETAILS
 62
     6
370
    20
100
AcDbPolyline
 90
        2
 70
     1
 43
0.0
 10
-181.0408633726923
 20
305.5688137581957
 10
-179.6408633726927
 20
305.5688137581957
  0
LWPOLYLINE
  5
D3BB
330
1F
100
AcDbEntity
  8
DETAILS
 62
     6
370
    20
100
AcDbPolyline
 90
        6
 70
     0
 43
0.0
 10
-179.5926399971134
 20
305.3688137581958
 10
-179.8040705385168
 20
306.2456936483382
 42
0.3464949689054692
 10
-179.9984986123648
 20
306.3988137581957
 10
-180.8408633726934
 20
306.3988137581957
 42
0.4142135623730951
 10
-181.0408633726941
 20
306.1988137581957
 10
-181.0408633726941
 20
305.3688137581958
  0
LWPOLYLINE
  5
D3BC
330
1F
100
AcDbEntity
  8
DETAILS
 62
     6
370
    20
100
AcDbPolyline
 90
        6
 70
     0
 43
0.0
 10
-179.489774193816
 20
305.3688137581958
 10
-179.7068565015937
 20
306.2691335934094
 42
0.3464949689054692
 10
-179.9984986123648
 20
306.4988137581957
 10
-180.8408633726934
 20
306.4988137581957
 42
0.4142135623730951
 10
-181.1408633726927
 20
306.1988137581957
 10
-181.1408633726927
 20
305.3688137581958
  0
LWPOLYLINE
  5
D3BD
330
1F
100
AcDbEntity
  8
DETAILS
 62
     6
370
    20
100
AcDbPolyline
 90
        2
 70
     1
 43
0.0
 10
-179.5379975693953
 20
305.5688137581958
 10
-179.5198282707691
 20
305.5688137581957
  0
LWPOLYLINE
  5
D3BE
330
1F
100
AcDbEntity
  8
DETAILS
 62
     6
370
    20
100
AcDbPolyline
 90
        6
 70
     0
 43
0.0
 10
-178.8596733432908
 20
305.5688137581958
 10
-178.7665040446621
 20
305.5688137581958
 10
-178.8596733432908
 20
305.5688137581958
 42
0.2793220653054726
 10
-178.9039935800186
 20
305.5419593133756
 42
-0.6059183769079625
 10
-179.4755080349999
 20
305.5419593128745
 42
0.279322065306064
 10
-179.5198282707691
 20
305.5688137581958
  0
LWPOLYLINE
  5
D3BF
330
1F
100
AcDbEntity
  8
DETAILS
 62
     6
370
    20
100
AcDbPolyline
 90
        7
 70
     0
 43
0.0
 10
-177.4891101350598
 20
306.3688137581958
 10
-178.6098102678473
 20
306.3688137581958
 42
0.4853378929632635
 10
-178.7750741306166
 20
306.158965851575
 10
-178.5845551247961
 20
305.3688137581958
 10
-177.9884786270735
 20
305.3688137581958
 10
-178.2384786270753
 20
305.3688137581958
 10
-178.3384786270739
 20
305.3688137581958
  0
LWPOLYLINE
  5
D3C0
330
1F
100
AcDbEntity
  8
DETAILS
 62
     6
370
    20
100
AcDbPolyline
 90
        4
 70
     0
 43
0.0
 10
-177.4891101350598
 20
306.4988137581956
 10
-178.6098102678473
 20
306.4988137581957
 42
0.4853378929632635
 10
-178.9014523786185
 20
306.1284939229822
 10
-178.7182806690829
 20
305.3688137581958
  0
LWPOLYLINE
  5
D3C1
330
1F
100
AcDbEntity
  8
DETAILS
 62
     6
370
    20
100
AcDbPolyline
 90
       10
 70
     1
 43
0.0
 10
-181.4891101350598
 20
305.3188137581958
 10
-184.6397416430439
 20
305.3188137581958
 10
-184.7374692499192
 20
305.2967241856961
 42
0.7807764064044151
 10
-184.7374692499192
 20
305.2909033306953
 10
-184.6397416430439
 20
305.2688137581957
 10
-181.4891101350598
 20
305.2688137581959
 10
-178.3384786270739
 20
305.2688137581957
 10
-178.2407510201986
 20
305.2909033306953
 42
0.7807764064044151
 10
-178.2407510201986
 20
305.2967241856961
 10
-178.3384786270739
 20
305.3188137581958
  0
LWPOLYLINE
  5
D3C2
330
1F
100
AcDbEntity
  8
DETAILS
 62
     6
370
    20
100
AcDbPolyline
 90
        7
 70
     0
 43
0.0
 10
-177.4891101350616
 20
304.5194452661867
 10
-177.859189305192
 20
304.8895244363147
 42
0.1989123673781766
 10
-177.9298999833112
 20
304.9188137581957
 10
-181.4891101350598
 20
304.9188137581957
 10
-185.0483202868084
 20
304.9188137581957
 42
0.1989123673781765
 10
-185.1190309649258
 20
304.8895244363147
 10
-185.4891101350598
 20
304.519445266184
  0
LWPOLYLINE
  5
D3C3
330
1F
100
AcDbEntity
  8
DETAILS
 62
     6
370
    20
100
AcDbPolyline
 90
        7
 70
     0
 43
0.0
 10
-177.4891101350598
 20
304.3194452661884
 10
-177.7420320176674
 20
304.5723671487915
 42
0.1989123673777966
 10
-178.095585408258
 20
304.7188137581957
 10
-181.4891101350598
 20
304.7188137581958
 10
-184.8826348618598
 20
304.7188137581957
 42
0.1989123673777966
 10
-185.2361882524504
 20
304.5723671487915
 10
-185.4891101350598
 20
304.3194452661849
  0
LWPOLYLINE
  5
D3C4
330
1F
100
AcDbEntity
  8
DETAILS
 62
     6
370
    20
100
AcDbPolyline
 90
        4
 70
     0
 43
0.0
 10
-178.6327785003753
 20
305.5688137581957
 10
-178.0955854082598
 20
305.5688137581958
 42
0.1989123673788307
 10
-177.7420320176674
 20
305.7152603676013
 10
-177.4891101350616
 20
305.9681822502068
  0
LWPOLYLINE
  5
D3C5
330
1F
100
AcDbEntity
  8
DETAILS
 62
     6
370
    20
100
AcDbPolyline
 90
        4
 70
     0
 43
0.0
 10
-177.4891101350616
 20
305.5181822502084
 10
-177.7574126098965
 20
305.2498797753735
 42
0.4142135623745727
 10
-177.7574126098947
 20
305.037747741017
 10
-177.4891101350598
 20
304.7694452661843
  0
LWPOLYLINE
  5
D3C6
330
1F
100
AcDbEntity
  8
DETAILS
 62
     6
370
    20
100
AcDbPolyline
 90
        6
 70
     1
 43
0.0
 10
-181.4891101350598
 20
305.2188137581957
 10
-177.9884786270735
 20
305.2188137581958
 10
-177.9884786270735
 20
305.0688137581958
 10
-181.4891101350598
 20
305.0688137581956
 10
-184.9897416430443
 20
305.0688137581957
 10
-184.9897416430443
 20
305.2188137581959
  0
LWPOLYLINE
  5
D3C7
330
1F
100
AcDbEntity
  8
DETAILS
 62
     6
370
    20
100
AcDbPolyline
 90
        2
 70
     1
 43
0.0
 10
-181.8373568974251
 20
299.3688137581957
 10
-181.8191875988008
 20
299.3688137581957
  0
LWPOLYLINE
  5
D3C8
330
1F
100
AcDbEntity
  8
DETAILS
 62
     6
370
    20
100
AcDbPolyline
 90
        6
 70
     0
 43
0.0
 10
-181.8191875988008
 20
299.3688137581955
 42
0.279322065306064
 10
-181.7748673620712
 20
299.3956682030157
 42
-0.2793220653060734
 10
-181.4891101350598
 20
299.5688137581956
 10
-185.0483202868084
 20
299.5688137581956
 42
0.1989123673782987
 10
-185.1190309649258
 20
299.5395244363146
 10
-185.4891101350598
 20
299.1694452661839
  0
LWPOLYLINE
  5
D3C9
330
1F
100
AcDbEntity
  8
DETAILS
 62
     6
370
    20
100
AcDbPolyline
 90
        2
 70
     1
 43
0.0
 10
-181.9373568974255
 20
299.3688137581957
 10
-183.3373568974269
 20
299.3688137581957
  0
LWPOLYLINE
  5
D3CA
330
1F
100
AcDbEntity
  8
DETAILS
 62
     6
370
    20
100
AcDbPolyline
 90
        6
 70
     0
 43
0.0
 10
-183.3855802730062
 20
299.5688137581956
 10
-183.174149731601
 20
298.6919338680532
 42
0.3464949689054692
 10
-182.979721657753
 20
298.5388137581956
 10
-182.1373568974262
 20
298.5388137581956
 42
0.4142135623730951
 10
-181.9373568974255
 20
298.7388137581957
 10
-181.9373568974255
 20
299.5688137581956
  0
LWPOLYLINE
  5
D3CB
330
1F
100
AcDbEntity
  8
DETAILS
 62
     6
370
    20
100
AcDbPolyline
 90
        6
 70
     0
 43
0.0
 10
-183.4884460763036
 20
299.5688137581956
 10
-183.2713637685259
 20
298.6684939229819
 42
0.3464949689054692
 10
-182.979721657753
 20
298.4388137581957
 10
-182.1373568974262
 20
298.4388137581957
 42
0.4142135623730951
 10
-181.8373568974251
 20
298.7388137581957
 10
-181.8373568974251
 20
299.5688137581956
  0
LWPOLYLINE
  5
D3CC
330
1F
100
AcDbEntity
  8
DETAILS
 62
     6
370
    20
100
AcDbPolyline
 90
        2
 70
     1
 43
0.0
 10
-183.4402227007225
 20
299.3688137581957
 10
-183.4583919993487
 20
299.3688137581957
  0
LWPOLYLINE
  5
D3CD
330
1F
100
AcDbEntity
  8
DETAILS
 62
     6
370
    20
100
AcDbPolyline
 90
        6
 70
     0
 43
0.0
 10
-184.1185469268288
 20
299.3688137581957
 10
-184.2117162254557
 20
299.3688137581957
 10
-184.1185469268288
 20
299.3688137581957
 42
0.2793220653054726
 10
-184.0742266900992
 20
299.3956682030157
 42
-0.6059183769079624
 10
-183.5027122351179
 20
299.3956682035168
 42
0.279322065306064
 10
-183.4583919993487
 20
299.3688137581955
  0
LWPOLYLINE
  5
D3CE
330
1F
100
AcDbEntity
  8
DETAILS
 62
     6
370
    20
100
AcDbPolyline
 90
        7
 70
     0
 43
0.0
 10
-185.4891101350598
 20
298.5688137581956
 10
-184.3684100022723
 20
298.5688137581956
 42
0.4853378929632635
 10
-184.2031461395012
 20
298.7786616648163
 10
-184.3936651453235
 20
299.5688137581956
 10
-184.9897416430443
 20
299.5688137581956
 10
-184.7397416430443
 20
299.5688137581956
 10
-184.6397416430439
 20
299.5688137581956
  0
LWPOLYLINE
  5
D3CF
330
1F
100
AcDbEntity
  8
DETAILS
 62
     6
370
    20
100
AcDbPolyline
 90
        4
 70
     0
 43
0.0
 10
-185.4891101350598
 20
298.4388137581957
 10
-184.3684100022723
 20
298.4388137581957
 42
0.4853378929632635
 10
-184.0767678914993
 20
298.8091335934091
 10
-184.2599396010367
 20
299.5688137581956
  0
LWPOLYLINE
  5
D3D0
330
1F
100
AcDbEntity
  8
DETAILS
 62
     6
370
    20
100
AcDbPolyline
 90
        4
 70
     0
 43
0.0
 10
-184.3454417697424
 20
299.3688137581957
 10
-184.882634861858
 20
299.3688137581957
 42
0.1989123673788306
 10
-185.2361882524504
 20
299.22236714879
 10
-185.4891101350598
 20
298.969445266182
  0
LWPOLYLINE
  5
D3D1
330
1F
100
AcDbEntity
  8
DETAILS
 62
     6
370
    20
100
AcDbPolyline
 90
        4
 70
     0
 43
0.0
 10
-185.4891101350598
 20
299.4194452661809
 10
-185.2208076602231
 20
299.6877477410178
 42
0.4142135623745727
 10
-185.2208076602231
 20
299.8998797753743
 10
-185.4891101350598
 20
300.1681822502096
  0
LWPOLYLINE
  5
D3D2
330
1F
100
AcDbEntity
  8
DETAILS
 62
     6
370
    20
100
AcDbPolyline
 90
        2
 70
     1
 43
0.0
 10
-181.8373568974251
 20
305.5688137581958
 10
-181.8191875988008
 20
305.5688137581957
  0
LWPOLYLINE
  5
D3D3
330
1F
100
AcDbEntity
  8
DETAILS
 62
     6
370
    20
100
AcDbPolyline
 90
        6
 70
     0
 43
0.0
 10
-185.4891101350598
 20
305.7681822502077
 10
-185.1190309649258
 20
305.3981030800767
 42
0.1989123673782989
 10
-185.0483202868084
 20
305.3688137581958
 10
-181.4891101350598
 20
305.3688137581955
 42
-0.2793220653060733
 10
-181.7748673630316
 20
305.5419593128745
 42
0.279322065306064
 10
-181.8191875988008
 20
305.5688137581958
  0
LWPOLYLINE
  5
D3D4
330
1F
100
AcDbEntity
  8
DETAILS
 62
     6
370
    20
100
AcDbPolyline
 90
        2
 70
     1
 43
0.0
 10
-181.9373568974255
 20
305.5688137581957
 10
-183.3373568974269
 20
305.5688137581957
  0
LWPOLYLINE
  5
D3D5
330
1F
100
AcDbEntity
  8
DETAILS
 62
     6
370
    20
100
AcDbPolyline
 90
        6
 70
     0
 43
0.0
 10
-181.9373568974255
 20
305.3688137581958
 10
-181.9373568974255
 20
306.1988137581957
 42
0.4142135623730951
 10
-182.1373568974262
 20
306.3988137581957
 10
-182.979721657753
 20
306.3988137581957
 42
0.3464949689054692
 10
-183.174149731601
 20
306.2456936483382
 10
-183.3855802730062
 20
305.3688137581958
  0
LWPOLYLINE
  5
D3D6
330
1F
100
AcDbEntity
  8
DETAILS
 62
     6
370
    20
100
AcDbPolyline
 90
        6
 70
     0
 43
0.0
 10
-181.8373568974251
 20
305.3688137581958
 10
-181.8373568974251
 20
306.1988137581957
 42
0.4142135623730951
 10
-182.1373568974262
 20
306.4988137581957
 10
-182.979721657753
 20
306.4988137581957
 42
0.3464949689054692
 10
-183.2713637685259
 20
306.2691335934094
 10
-183.4884460763036
 20
305.3688137581958
  0
LWPOLYLINE
  5
D3D7
330
1F
100
AcDbEntity
  8
DETAILS
 62
     6
370
    20
100
AcDbPolyline
 90
        2
 70
     1
 43
0.0
 10
-183.4402227007225
 20
305.5688137581958
 10
-183.4583919993487
 20
305.5688137581957
  0
LWPOLYLINE
  5
D3D8
330
1F
100
AcDbEntity
  8
DETAILS
 62
     6
370
    20
100
AcDbPolyline
 90
        6
 70
     0
 43
0.0
 10
-183.4583919993487
 20
305.5688137581958
 42
0.279322065306064
 10
-183.5027122360783
 20
305.5419593133759
 42
-0.6059183769079624
 10
-184.0742266910596
 20
305.5419593128745
 42
0.2793220653054726
 10
-184.1185469268288
 20
305.5688137581958
 10
-184.2117162254557
 20
305.5688137581958
 10
-184.1185469268288
 20
305.5688137581958
  0
LWPOLYLINE
  5
D3D9
330
1F
100
AcDbEntity
  8
DETAILS
 62
     6
370
    20
100
AcDbPolyline
 90
        7
 70
     0
 43
0.0
 10
-184.6397416430439
 20
305.3688137581958
 10
-184.7397416430443
 20
305.3688137581958
 10
-184.9897416430443
 20
305.3688137581958
 10
-184.3936651453235
 20
305.3688137581958
 10
-184.2031461395012
 20
306.1589658515747
 42
0.4853378929632635
 10
-184.3684100022723
 20
306.3688137581958
 10
-185.4891101350616
 20
306.3688137581958
  0
LWPOLYLINE
  5
D3DA
330
1F
100
AcDbEntity
  8
DETAILS
 62
     6
370
    20
100
AcDbPolyline
 90
        4
 70
     0
 43
0.0
 10
-184.2599396010367
 20
305.3688137581958
 10
-184.0767678914993
 20
306.1284939229822
 42
0.4853378929632635
 10
-184.3684100022723
 20
306.4988137581957
 10
-185.4891101350616
 20
306.4988137581956
  0
LWPOLYLINE
  5
D3DB
330
1F
100
AcDbEntity
  8
DETAILS
 62
     6
370
    20
100
AcDbPolyline
 90
        4
 70
     0
 43
0.0
 10
-185.4891101350598
 20
305.9681822502099
 10
-185.2361882524504
 20
305.7152603676013
 42
0.1989123673788307
 10
-184.882634861858
 20
305.5688137581958
 10
-184.3454417697424
 20
305.5688137581957
  0
LWPOLYLINE
  5
D3DC
330
1F
100
AcDbEntity
  8
DETAILS
 62
     6
370
    20
100
AcDbPolyline
 90
        4
 70
     0
 43
0.0
 10
-185.4891101350598
 20
304.7694452661815
 10
-185.2208076602231
 20
305.037747741017
 42
0.4142135623745727
 10
-185.2208076602231
 20
305.2498797753735
 10
-185.4891101350616
 20
305.5181822502109
  0
LINE
  5
D3DD
330
1F
100
AcDbEntity
  8
0
 62
     1
100
AcDbLine
 10
-187.4891101350598
 20
296.2188137581957
 30
0.0
 11
-185.9391101350605
 21
296.2188137581957
 31
0.0
  0
LINE
  5
D3DE
330
1F
100
AcDbEntity
  8
0
 62
     1
100
AcDbLine
 10
-187.1391101350594
 20
296.7188137581957
 30
0.0
 11
-186.5141101350594
 21
296.7188137581957
 31
0.0
  0
LINE
  5
D3DF
330
1F
100
AcDbEntity
  8
0
 62
     1
100
AcDbLine
 10
-186.1141101350598
 20
296.7188137581957
 30
0.0
 11
-186.1141101350616
 21
296.2188137581957
 31
0.0
  0
LINE
  5
D3E0
330
1F
100
AcDbEntity
  8
0
 62
     1
100
AcDbLine
 10
-186.5141101350594
 20
296.7188137581957
 30
0.0
 11
-186.5141101350594
 21
296.2188137581957
 31
0.0
  0
LINE
  5
D3E1
330
1F
100
AcDbEntity
  8
0
 62
     1
100
AcDbLine
 10
-186.1141101350616
 20
296.7188137581957
 30
0.0
 11
-185.4891101350616
 21
296.7188137581957
 31
0.0
  0
LINE
  5
D3E2
330
1F
100
AcDbEntity
  8
0
 62
     1
100
AcDbLine
 10
-185.9391101350605
 20
296.4688137581957
 30
0.0
 11
-185.9391101350605
 21
296.2188137581957
 31
0.0
  0
LINE
  5
D3E3
330
1F
100
AcDbEntity
  8
0
 62
     1
100
AcDbLine
 10
-185.9391101350605
 20
296.4688137581957
 30
0.0
 11
-185.6891101350605
 21
296.4688137581957
 31
0.0
  0
LINE
  5
D3E4
330
1F
100
AcDbEntity
  8
0
 62
     1
100
AcDbLine
 10
-185.6891101350605
 20
296.2188137581957
 30
0.0
 11
-185.4891101350616
 21
296.2188137581957
 31
0.0
  0
LINE
  5
D3E5
330
1F
100
AcDbEntity
  8
0
 48
0.15
100
AcDbLine
 10
-186.5141101350594
 20
296.2188137581957
 30
0.0
 11
-186.1141101350598
 21
296.2188137581957
 31
0.0
  0
LINE
  5
D3E6
330
1F
100
AcDbEntity
  8
0
 62
     1
100
AcDbLine
 10
-186.0641101350605
 20
296.2188137581957
 30
0.0
 11
-186.5641101350605
 21
296.2188137581957
 31
0.0
  0
LINE
  5
D3E7
330
1F
100
AcDbEntity
  8
0
 62
     1
100
AcDbLine
 10
-175.8391101350602
 20
296.7188137581957
 30
0.0
 11
-175.8391101350602
 21
296.2188137581957
 31
0.0
  0
LINE
  5
D3E8
330
1F
100
AcDbEntity
  8
0
 62
     1
100
AcDbLine
 10
-176.8641101350598
 20
296.7188137581959
 30
0.0
 11
-176.8641101350598
 21
296.2188137581957
 31
0.0
  0
LINE
  5
D3E9
330
1F
100
AcDbEntity
  8
0
 62
     1
100
AcDbLine
 10
-176.4641101350602
 20
296.7188137581957
 30
0.0
 11
-176.4641101350602
 21
296.2188137581957
 31
0.0
  0
LINE
  5
D3EA
330
1F
100
AcDbEntity
  8
0
 62
     1
100
AcDbLine
 10
-177.4891101350598
 20
296.7188137581957
 30
0.0
 11
-176.8641101350598
 21
296.7188137581957
 31
0.0
  0
LINE
  5
D3EB
330
1F
100
AcDbEntity
  8
0
 62
     1
100
AcDbLine
 10
-176.4641101350602
 20
296.7188137581957
 30
0.0
 11
-175.8391101350602
 21
296.7188137581957
 31
0.0
  0
LINE
  5
D3EC
330
1F
100
AcDbEntity
  8
0
 62
     1
100
AcDbLine
 10
-177.0391101350591
 20
296.4688137581957
 30
0.0
 11
-177.0391101350591
 21
296.2188137581957
 31
0.0
  0
LINE
  5
D3ED
330
1F
100
AcDbEntity
  8
0
 62
     1
100
AcDbLine
 10
-177.2891101350591
 20
296.4688137581957
 30
0.0
 11
-177.0391101350591
 21
296.4688137581957
 31
0.0
  0
LINE
  5
D3EE
330
1F
100
AcDbEntity
  8
0
 62
     1
100
AcDbLine
 10
-177.0741101350589
 20
296.2188137581957
 30
0.0
 11
-175.4891101350598
 21
296.2188137581957
 31
0.0
  0
LINE
  5
D3EF
330
1F
100
AcDbEntity
  8
0
 62
     1
100
AcDbLine
 10
-177.4891101350598
 20
296.2188137581957
 30
0.0
 11
-177.2891101350591
 21
296.2188137581957
 31
0.0
  0
LINE
  5
D3F0
330
1F
100
AcDbEntity
  8
A5 heavy
 48
0.15
100
AcDbLine
 10
-177.4891101350598
 20
332.2188257286929
 30
0.0
 11
-146.810652759413
 21
332.2188257286928
 31
0.0
  0
LINE
  5
D3F1
330
1F
100
AcDbEntity
  8
A4 medium
 48
0.15
100
AcDbLine
 10
-177.2891101350591
 20
324.2188257286928
 30
0.0
 11
-150.758595926943
 21
324.2188257286928
 31
0.0
  0
LINE
  5
D3F2
330
1F
100
AcDbEntity
  8
DIM
100
AcDbLine
 10
-145.0412469003944
 20
329.2185917776924
 30
0.0
 11
-151.5412469003944
 21
329.2185917776924
 31
0.0
  0
LINE
  5
D3F3
330
1F
100
AcDbEntity
  8
DIM
100
AcDbLine
 10
-151.5412469003944
 20
329.2185917776924
 30
0.0
 11
-148.9277302908207
 21
327.9288398974452
 31
0.0
  0
LINE
  5
D3F4
330
1F
100
AcDbEntity
  8
DIM
100
AcDbLine
 10
-148.9277302908207
 20
327.9288398974452
 30
0.0
 11
-152.3220839359613
 21
321.0506179958611
 31
0.0
  0
LINE
  5
D3F5
330
1F
100
AcDbEntity
  8
DIM
100
AcDbLine
 10
-143.9327047049604
 20
338.0506179958697
 30
0.0
 11
-147.6547635099645
 21
330.5083436579394
 31
0.0
  0
LINE
  5
D3F6
330
1F
100
AcDbEntity
  8
DIM
100
AcDbLine
 10
-145.0412469003944
 20
329.2185917776924
 30
0.0
 11
-147.6547635099645
 21
330.5083436579395
 31
0.0
  0
LINE
  5
D3F7
330
1F
100
AcDbEntity
  8
A4 medium
 48
0.15
100
AcDbLine
 10
-143.1626774714326
 20
333.2188177941922
 30
0.0
 11
-143.1626774714326
 21
333.2188177941922
 31
0.0
  0
LINE
  5
D3F8
330
1F
100
AcDbEntity
  8
REBAR
 48
0.15
100
AcDbLine
 10
-181.4891101350598
 20
332.2188257286929
 30
0.0
 11
-181.4891101350598
 21
296.7171938404695
 31
0.0
  0
CIRCLE
  5
D3F9
330
1F
100
AcDbEntity
  8
A2 Hatch
 48
0.15
100
AcDbCircle
 10
-181.4891101350598
 20
317.765848375931
 30
0.0
 40
0.8157720410317779
  0
HATCH
  5
D3FA
330
1F
100
AcDbEntity
  8
A2 Hatch
 48
0.15
100
AcDbHatch
 10
0.0
 20
0.0
 30
0.0
210
0.0
220
0.0
230
1.0
  2
SOLID
 70
     1
 71
     0
 91
        1
 92
        1
 93
        1
 72
     2
 10
-181.4891101350598
 20
317.765848375931
 40
0.2243383222039483
 50
0.0
 51
360.0
 73
     1
 97
        0
 75
     0
 76
     1
 98
        1
 10
-3422.11052034526
 20
669.20996636677
  0
MTEXT
  5
D3FB
330
1F
100
AcDbEntity
  8
DIM
100
AcDbMText
 10
-188.5188158178183
 20
289.164547567656
 30
0.0
 40
3.0
 41
90.07999999999999
 71
     2
 72
     5
  1
{\L8" INTERIOR LOAD BEARING WALL; ICF FORM DECK PARALLEL TO WALL }
  7
RomanC
 73
     1
 44
1.0
1001
ACAD
1000
MTEXTBEGIN
1070
    73
1070
     1
1070
    44
1040
1.0
1070
    74
1070
     0
1000
MTEXTEND
  0
LINE
  5
D3FC
330
1F
100
AcDbEntity
  8
0
 62
     1
100
AcDbLine
 10
-187.4891101350598
 20
324.2188257286929
 30
0.0
 11
-187.4891101350598
 21
320.2188257286929
 31
0.0
  0
LINE
  5
D3FD
330
1F
100
AcDbEntity
  8
0
 62
     1
100
AcDbLine
 10
-187.4891101350598
 20
320.2188257286929
 30
0.0
 11
-185.4891101350598
 21
320.2188257286929
 31
0.0
  0
LINE
  5
D3FE
330
1F
100
AcDbEntity
  8
0
  6
HIDDEN
 62
     1
 48
0.02
100
AcDbLine
 10
-187.1391101350594
 20
320.7188257286929
 30
0.0
 11
-186.5141101350594
 21
320.7188257286929
 31
0.0
  0
LINE
  5
D3FF
330
1F
100
AcDbEntity
  8
0
  6
HIDDEN
 62
     1
 48
0.02
100
AcDbLine
 10
-186.1141101350598
 20
320.7188257286929
 30
0.0
 11
-186.1141101350616
 21
320.2188257286928
 31
0.0
  0
LINE
  5
D400
330
1F
100
AcDbEntity
  8
0
  6
HIDDEN
 62
     1
 48
0.02
100
AcDbLine
 10
-186.5141101350594
 20
320.7188257286929
 30
0.0
 11
-186.5141101350594
 21
320.2188257286929
 31
0.0
  0
LINE
  5
D401
330
1F
100
AcDbEntity
  8
0
  6
HIDDEN
 62
     1
 48
0.02
100
AcDbLine
 10
-186.1141101350616
 20
320.7188257286929
 30
0.0
 11
-185.4891101350616
 21
320.7188257286929
 31
0.0
  0
LINE
  5
D402
330
1F
100
AcDbEntity
  8
0
 62
     1
100
AcDbLine
 10
-175.4891101350598
 20
324.2188257286928
 30
0.0
 11
-175.4891101350598
 21
320.2188257286929
 31
0.0
  0
LINE
  5
D403
330
1F
100
AcDbEntity
  8
0
 62
     1
100
AcDbLine
 10
-177.2891101350591
 20
324.218825728693
 30
0.0
 11
-177.2891101350591
 21
320.2188257286929
 31
0.0
  0
LINE
  5
D404
330
1F
100
AcDbEntity
  8
0
 62
     1
100
AcDbLine
 10
-177.0741101350589
 20
324.2188257286929
 30
0.0
 11
-177.0741101350589
 21
320.2188257286929
 31
0.0
  0
LINE
  5
D405
330
1F
100
AcDbEntity
  8
0
 62
     1
100
AcDbLine
 10
-176.2541101350592
 20
324.2188257286928
 30
0.0
 11
-176.2541101350592
 21
320.2188257286929
 31
0.0
  0
LINE
  5
D406
330
1F
100
AcDbEntity
  8
A2 Hatch
  6
DASHED2
 48
0.15
100
AcDbLine
 10
-176.9141101350591
 20
324.2188257286928
 30
0.0
 11
-176.9141101350591
 21
320.2188257286929
 31
0.0
  0
LINE
  5
D407
330
1F
100
AcDbEntity
  8
A2 Hatch
  6
DASHED2
 48
0.15
100
AcDbLine
 10
-176.4141101350591
 20
324.2188257286928
 30
0.0
 11
-176.4141101350591
 21
320.2188257286929
 31
0.0
  0
LINE
  5
D408
330
1F
100
AcDbEntity
  8
0
 62
     1
100
AcDbLine
 10
-177.4891101350598
 20
320.2188257286929
 30
0.0
 11
-175.4891101350598
 21
320.2188257286929
 31
0.0
  0
LINE
  5
D409
330
1F
100
AcDbEntity
  8
0
  6
HIDDEN
 62
     1
 48
0.02
100
AcDbLine
 10
-175.8391101350583
 20
320.718825728693
 30
0.0
 11
-175.8391101350583
 21
320.218825728693
 31
0.0
  0
LINE
  5
D40A
330
1F
100
AcDbEntity
  8
0
  6
HIDDEN
 62
     1
 48
0.02
100
AcDbLine
 10
-176.864110135058
 20
320.7188257286931
 30
0.0
 11
-176.864110135058
 21
320.218825728693
 31
0.0
  0
LINE
  5
D40B
330
1F
100
AcDbEntity
  8
0
  6
HIDDEN
 62
     1
 48
0.02
100
AcDbLine
 10
-176.4641101350584
 20
320.718825728693
 30
0.0
 11
-176.4641101350584
 21
320.218825728693
 31
0.0
  0
LINE
  5
D40C
330
1F
100
AcDbEntity
  8
0
  6
HIDDEN
 62
     1
 48
0.02
100
AcDbLine
 10
-177.489110135058
 20
320.718825728693
 30
0.0
 11
-176.864110135058
 21
320.718825728693
 31
0.0
  0
LINE
  5
D40D
330
1F
100
AcDbEntity
  8
0
  6
HIDDEN
 62
     1
 48
0.02
100
AcDbLine
 10
-176.4641101350584
 20
320.718825728693
 30
0.0
 11
-175.8391101350583
 21
320.718825728693
 31
0.0
  0
LWPOLYLINE
  5
D40E
330
1F
100
AcDbEntity
  8
DETAILS
 62
     6
370
    20
100
AcDbPolyline
 90
        2
 70
     1
 43
0.0
 10
-181.1408633726927
 20
323.3688257286928
 10
-181.1590326713188
 20
323.3688257286928
  0
LWPOLYLINE
  5
D40F
330
1F
100
AcDbEntity
  8
DETAILS
 62
     6
370
    20
100
AcDbPolyline
 90
        6
 70
     0
 43
0.0
 10
-177.4891101350598
 20
323.169457236683
 10
-177.859189305192
 20
323.5395364068117
 42
0.1989123673782988
 10
-177.9298999833112
 20
323.5688257286928
 10
-181.4891101350598
 20
323.568825728693
 42
-0.2793220653060733
 10
-181.203352907088
 20
323.3956801740142
 42
0.279322065306064
 10
-181.1590326713188
 20
323.3688257286928
  0
LWPOLYLINE
  5
D410
330
1F
100
AcDbEntity
  8
DETAILS
 62
     6
370
    20
100
AcDbPolyline
 90
        2
 70
     1
 43
0.0
 10
-181.0408633726923
 20
323.3688257286928
 10
-179.6408633726927
 20
323.3688257286928
  0
LWPOLYLINE
  5
D411
330
1F
100
AcDbEntity
  8
DETAILS
 62
     6
370
    20
100
AcDbPolyline
 90
        6
 70
     0
 43
0.0
 10
-181.0408633726941
 20
323.5688257286927
 10
-181.0408633726923
 20
322.7388257286928
 42
0.4142135623730951
 10
-180.8408633726934
 20
322.5388257286928
 10
-179.9984986123648
 20
322.5388257286928
 42
0.3464949689054693
 10
-179.8040705385168
 20
322.6919458385503
 10
-179.5926399971134
 20
323.5688257286929
  0
LWPOLYLINE
  5
D412
330
1F
100
AcDbEntity
  8
DETAILS
 62
     6
370
    20
100
AcDbPolyline
 90
        6
 70
     0
 43
0.0
 10
-181.1408633726927
 20
323.5688257286927
 10
-181.1408633726927
 20
322.7388257286928
 42
0.4142135623730951
 10
-180.8408633726934
 20
322.4388257286928
 10
-179.9984986123648
 20
322.4388257286928
 42
0.3464949689054693
 10
-179.7068565015937
 20
322.6685058934791
 10
-179.489774193816
 20
323.5688257286928
  0
LWPOLYLINE
  5
D413
330
1F
100
AcDbEntity
  8
DETAILS
 62
     6
370
    20
100
AcDbPolyline
 90
        2
 70
     1
 43
0.0
 10
-179.5379975693953
 20
323.3688257286928
 10
-179.5198282707691
 20
323.3688257286928
  0
LWPOLYLINE
  5
D414
330
1F
100
AcDbEntity
  8
DETAILS
 62
     6
370
    20
100
AcDbPolyline
 90
        6
 70
     0
 43
0.0
 10
-179.5198282707691
 20
323.3688257286928
 42
0.279322065306064
 10
-179.4755080340413
 20
323.3956801735128
 42
-0.6059183769079624
 10
-178.9039935790582
 20
323.3956801740142
 42
0.2793220653054726
 10
-178.8596733432908
 20
323.3688257286928
 10
-178.7665040446621
 20
323.3688257286928
 10
-178.8596733432908
 20
323.3688257286928
  0
LWPOLYLINE
  5
D415
330
1F
100
AcDbEntity
  8
DETAILS
 62
     6
370
    20
100
AcDbPolyline
 90
        7
 70
     0
 43
0.0
 10
-178.3384786270739
 20
323.5688257286928
 10
-178.2384786270735
 20
323.5688257286928
 10
-177.9884786270735
 20
323.5688257286928
 10
-178.5845551247961
 20
323.5688257286928
 10
-178.7750741306184
 20
322.7786736353138
 42
0.4853378929632635
 10
-178.6098102678473
 20
322.5688257286928
 10
-177.4891101350598
 20
322.5688257286927
  0
LWPOLYLINE
  5
D416
330
1F
100
AcDbEntity
  8
DETAILS
 62
     6
370
    20
100
AcDbPolyline
 90
        4
 70
     0
 43
0.0
 10
-178.7182806690829
 20
323.5688257286928
 10
-178.9014523786185
 20
322.8091455639062
 42
0.4853378929632635
 10
-178.6098102678473
 20
322.4388257286928
 10
-177.4891101350598
 20
322.4388257286928
  0
LWPOLYLINE
  5
D417
330
1F
100
AcDbEntity
  8
DETAILS
 62
     6
370
    20
100
AcDbPolyline
 90
       10
 70
     1
 43
0.0
 10
-181.489110135058
 20
323.6188257286928
 10
-178.3384786270739
 20
323.6188257286928
 10
-178.2407510201986
 20
323.6409153011923
 42
0.7807764064044151
 10
-178.2407510201986
 20
323.6467361561931
 10
-178.3384786270739
 20
323.6688257286928
 10
-181.4891101350598
 20
323.6688257286928
 10
-184.6397416430439
 20
323.6688257286928
 10
-184.7374692499192
 20
323.6467361561931
 42
0.7807764064044151
 10
-184.7374692499192
 20
323.6409153011923
 10
-184.6397416430439
 20
323.6188257286928
  0
LWPOLYLINE
  5
D418
330
1F
100
AcDbEntity
  8
DETAILS
 62
     6
370
    20
100
AcDbPolyline
 90
        7
 70
     0
 43
0.0
 10
-185.2897416430472
 20
324.2188257286928
 10
-185.1190309649258
 20
324.0481150505739
 42
0.1989123673781765
 10
-185.0483202868084
 20
324.0188257286929
 10
-181.4891101350598
 20
324.0188257286928
 10
-177.9298999833112
 20
324.0188257286929
 42
0.1989123673781768
 10
-177.859189305192
 20
324.0481150505739
 10
-177.6884786270724
 20
324.2188257286929
  0
LWPOLYLINE
  5
D419
330
1F
100
AcDbEntity
  8
DETAILS
 62
     6
370
    20
100
AcDbPolyline
 90
        3
 70
     0
 43
0.0
 10
-184.8826348618598
 20
324.2188257286929
 10
-181.489110135058
 20
324.2188257286928
 10
-178.095585408258
 20
324.2188257286929
  0
LWPOLYLINE
  5
D41A
330
1F
100
AcDbEntity
  8
DETAILS
 62
     6
370
    20
100
AcDbPolyline
 90
        4
 70
     0
 43
0.0
 10
-177.4891101350598
 20
322.9694572366812
 10
-177.7420320176674
 20
323.2223791192872
 42
0.1989123673788307
 10
-178.0955854082598
 20
323.3688257286928
 10
-178.6327785003753
 20
323.3688257286928
  0
LWPOLYLINE
  5
D41B
330
1F
100
AcDbEntity
  8
DETAILS
 62
     6
370
    20
100
AcDbPolyline
 90
        4
 70
     0
 43
0.0
 10
-177.4891101350598
 20
324.1681942207048
 10
-177.7574126098947
 20
323.8998917458714
 42
0.4142135623745727
 10
-177.7574126098965
 20
323.6877597115149
 10
-177.4891101350598
 20
323.4194572366803
  0
LWPOLYLINE
  5
D41C
330
1F
100
AcDbEntity
  8
DETAILS
 62
     6
370
    20
100
AcDbPolyline
 90
        6
 70
     1
 43
0.0
 10
-181.4891101350598
 20
323.7188257286927
 10
-177.9884786270735
 20
323.7188257286927
 10
-177.9884786270735
 20
323.8688257286928
 10
-181.4891101350598
 20
323.8688257286928
 10
-184.9897416430443
 20
323.8688257286928
 10
-184.9897416430443
 20
323.7188257286927
  0
LWPOLYLINE
  5
D41D
330
1F
100
AcDbEntity
  8
DETAILS
 62
     6
370
    20
100
AcDbPolyline
 90
        2
 70
     1
 43
0.0
 10
-181.8373568974251
 20
323.3688257286928
 10
-181.8191875988008
 20
323.3688257286928
  0
LWPOLYLINE
  5
D41E
330
1F
100
AcDbEntity
  8
DETAILS
 62
     6
370
    20
100
AcDbPolyline
 90
        6
 70
     0
 43
0.0
 10
-181.8191875988008
 20
323.3688257286928
 42
0.279322065306064
 10
-181.7748673620712
 20
323.3956801735128
 42
-0.2793220653060734
 10
-181.4891101350598
 20
323.5688257286928
 10
-185.0483202868084
 20
323.5688257286928
 42
0.1989123673782987
 10
-185.1190309649258
 20
323.5395364068117
 10
-185.4891101350598
 20
323.169457236681
  0
LWPOLYLINE
  5
D41F
330
1F
100
AcDbEntity
  8
DETAILS
 62
     6
370
    20
100
AcDbPolyline
 90
        2
 70
     1
 43
0.0
 10
-181.9373568974255
 20
323.3688257286928
 10
-183.3373568974269
 20
323.3688257286928
  0
LWPOLYLINE
  5
D420
330
1F
100
AcDbEntity
  8
DETAILS
 62
     6
370
    20
100
AcDbPolyline
 90
        6
 70
     0
 43
0.0
 10
-183.3855802730062
 20
323.5688257286929
 10
-183.174149731601
 20
322.6919458385503
 42
0.3464949689054692
 10
-182.979721657753
 20
322.5388257286927
 10
-182.1373568974262
 20
322.5388257286928
 42
0.4142135623730951
 10
-181.9373568974255
 20
322.7388257286928
 10
-181.9373568974255
 20
323.5688257286927
  0
LWPOLYLINE
  5
D421
330
1F
100
AcDbEntity
  8
DETAILS
 62
     6
370
    20
100
AcDbPolyline
 90
        6
 70
     0
 43
0.0
 10
-183.4884460763036
 20
323.5688257286928
 10
-183.2713637685259
 20
322.6685058934791
 42
0.3464949689054692
 10
-182.979721657753
 20
322.4388257286928
 10
-182.1373568974262
 20
322.4388257286928
 42
0.4142135623730951
 10
-181.8373568974251
 20
322.7388257286928
 10
-181.8373568974251
 20
323.5688257286927
  0
LWPOLYLINE
  5
D422
330
1F
100
AcDbEntity
  8
DETAILS
 62
     6
370
    20
100
AcDbPolyline
 90
        2
 70
     1
 43
0.0
 10
-183.4402227007225
 20
323.3688257286928
 10
-183.4583919993487
 20
323.3688257286928
  0
LWPOLYLINE
  5
D423
330
1F
100
AcDbEntity
  8
DETAILS
 62
     6
370
    20
100
AcDbPolyline
 90
        6
 70
     0
 43
0.0
 10
-184.1185469268288
 20
323.3688257286928
 10
-184.2117162254557
 20
323.3688257286928
 10
-184.1185469268288
 20
323.3688257286928
 42
0.2793220653054726
 10
-184.0742266900992
 20
323.3956801735128
 42
-0.6059183769079624
 10
-183.5027122351179
 20
323.3956801740142
 42
0.279322065306064
 10
-183.4583919993487
 20
323.3688257286928
  0
LWPOLYLINE
  5
D424
330
1F
100
AcDbEntity
  8
DETAILS
 62
     6
370
    20
100
AcDbPolyline
 90
        7
 70
     0
 43
0.0
 10
-185.4891101350598
 20
322.5688257286927
 10
-184.3684100022723
 20
322.5688257286928
 42
0.4853378929632635
 10
-184.2031461395012
 20
322.7786736353137
 10
-184.3936651453235
 20
323.5688257286928
 10
-184.9897416430443
 20
323.5688257286928
 10
-184.7397416430443
 20
323.5688257286928
 10
-184.6397416430439
 20
323.5688257286928
  0
LWPOLYLINE
  5
D425
330
1F
100
AcDbEntity
  8
DETAILS
 62
     6
370
    20
100
AcDbPolyline
 90
        4
 70
     0
 43
0.0
 10
-185.4891101350598
 20
322.4388257286928
 10
-184.3684100022723
 20
322.4388257286928
 42
0.4853378929632635
 10
-184.0767678914993
 20
322.8091455639062
 10
-184.2599396010367
 20
323.5688257286928
  0
LWPOLYLINE
  5
D426
330
1F
100
AcDbEntity
  8
DETAILS
 62
     6
370
    20
100
AcDbPolyline
 90
        4
 70
     0
 43
0.0
 10
-184.3454417697424
 20
323.3688257286928
 10
-184.882634861858
 20
323.3688257286928
 42
0.1989123673788306
 10
-185.2361882524504
 20
323.2223791192872
 10
-185.4891101350598
 20
322.9694572366791
  0
LWPOLYLINE
  5
D427
330
1F
100
AcDbEntity
  8
DETAILS
 62
     6
370
    20
100
AcDbPolyline
 90
        4
 70
     0
 43
0.0
 10
-185.4891101350598
 20
323.419457236678
 10
-185.2208076602231
 20
323.6877597115149
 42
0.4142135623745727
 10
-185.2208076602231
 20
323.8998917458714
 10
-185.4891101350598
 20
324.1681942207067
  0
LINE
  5
D428
330
1F
100
AcDbEntity
  8
0
 62
     1
100
AcDbLine
 10
-187.4891101350598
 20
320.2188257286929
 30
0.0
 11
-185.9391101350605
 21
320.2188257286929
 31
0.0
  0
LINE
  5
D429
330
1F
100
AcDbEntity
  8
0
 62
     1
100
AcDbLine
 10
-187.1391101350594
 20
320.7188257286929
 30
0.0
 11
-186.5141101350594
 21
320.7188257286929
 31
0.0
  0
LINE
  5
D42A
330
1F
100
AcDbEntity
  8
0
 62
     1
100
AcDbLine
 10
-186.1141101350598
 20
320.7188257286929
 30
0.0
 11
-186.1141101350616
 21
320.2188257286928
 31
0.0
  0
LINE
  5
D42B
330
1F
100
AcDbEntity
  8
0
 62
     1
100
AcDbLine
 10
-186.5141101350594
 20
320.7188257286929
 30
0.0
 11
-186.5141101350594
 21
320.2188257286929
 31
0.0
  0
LINE
  5
D42C
330
1F
100
AcDbEntity
  8
0
 62
     1
100
AcDbLine
 10
-186.1141101350616
 20
320.7188257286929
 30
0.0
 11
-185.4891101350616
 21
320.7188257286929
 31
0.0
  0
LINE
  5
D42D
330
1F
100
AcDbEntity
  8
0
 62
     1
100
AcDbLine
 10
-185.9391101350605
 20
320.4688257286929
 30
0.0
 11
-185.9391101350605
 21
320.2188257286929
 31
0.0
  0
LINE
  5
D42E
330
1F
100
AcDbEntity
  8
0
 62
     1
100
AcDbLine
 10
-185.9391101350605
 20
320.4688257286929
 30
0.0
 11
-185.6891101350605
 21
320.4688257286929
 31
0.0
  0
LINE
  5
D42F
330
1F
100
AcDbEntity
  8
0
 62
     1
100
AcDbLine
 10
-185.6891101350605
 20
320.2188257286929
 30
0.0
 11
-185.4891101350616
 21
320.2188257286929
 31
0.0
  0
LINE
  5
D430
330
1F
100
AcDbEntity
  8
0
 48
0.15
100
AcDbLine
 10
-186.5141101350594
 20
320.2188257286929
 30
0.0
 11
-186.1141101350598
 21
320.2188257286929
 31
0.0
  0
LINE
  5
D431
330
1F
100
AcDbEntity
  8
0
 62
     1
100
AcDbLine
 10
-186.0641101350605
 20
320.2188257286929
 30
0.0
 11
-186.5641101350605
 21
320.2188257286929
 31
0.0
  0
LINE
  5
D432
330
1F
100
AcDbEntity
  8
0
 62
     1
100
AcDbLine
 10
-175.8391101350602
 20
320.7188257286929
 30
0.0
 11
-175.8391101350602
 21
320.2188257286929
 31
0.0
  0
LINE
  5
D433
330
1F
100
AcDbEntity
  8
0
 62
     1
100
AcDbLine
 10
-176.8641101350598
 20
320.718825728693
 30
0.0
 11
-176.8641101350598
 21
320.2188257286929
 31
0.0
  0
LINE
  5
D434
330
1F
100
AcDbEntity
  8
0
 62
     1
100
AcDbLine
 10
-176.4641101350602
 20
320.7188257286929
 30
0.0
 11
-176.4641101350602
 21
320.2188257286929
 31
0.0
  0
LINE
  5
D435
330
1F
100
AcDbEntity
  8
0
 62
     1
100
AcDbLine
 10
-177.4891101350598
 20
320.7188257286929
 30
0.0
 11
-176.8641101350598
 21
320.7188257286929
 31
0.0
  0
LINE
  5
D436
330
1F
100
AcDbEntity
  8
0
 62
     1
100
AcDbLine
 10
-176.4641101350602
 20
320.7188257286929
 30
0.0
 11
-175.8391101350602
 21
320.7188257286929
 31
0.0
  0
LINE
  5
D437
330
1F
100
AcDbEntity
  8
0
 62
     1
100
AcDbLine
 10
-177.0391101350591
 20
320.4688257286929
 30
0.0
 11
-177.0391101350591
 21
320.2188257286929
 31
0.0
  0
LINE
  5
D438
330
1F
100
AcDbEntity
  8
0
 62
     1
100
AcDbLine
 10
-177.2891101350591
 20
320.4688257286929
 30
0.0
 11
-177.0391101350591
 21
320.4688257286929
 31
0.0
  0
LINE
  5
D439
330
1F
100
AcDbEntity
  8
0
 62
     1
100
AcDbLine
 10
-177.0741101350589
 20
320.2188257286929
 30
0.0
 11
-175.4891101350598
 21
320.2188257286929
 31
0.0
  0
LINE
  5
D43A
330
1F
100
AcDbEntity
  8
0
 62
     1
100
AcDbLine
 10
-177.4891101350598
 20
320.2188257286929
 30
0.0
 11
-177.2891101350591
 21
320.2188257286929
 31
0.0
  0
LINE
  5
D43B
330
1F
100
AcDbEntity
  8
A4 medium
 48
0.15
100
AcDbLine
 10
-176.2541101350592
 20
326.1773057522885
 30
0.0
 11
-176.2541101350592
 21
328.25924405048
 31
0.0
  0
LINE
  5
D43C
330
1F
100
AcDbEntity
  8
A4 medium
 48
0.15
100
AcDbLine
 10
-177.2891101350591
 20
324.2188257286928
 30
0.0
 11
-177.2891101350591
 21
325.1423057522884
 31
0.0
  0
LINE
  5
D43D
330
1F
100
AcDbEntity
  8
A4 medium
 48
0.15
100
AcDbLine
 10
-177.2891101350591
 20
325.1423057522884
 30
0.0
 11
-176.2541101350592
 21
326.1773057522884
 31
0.0
  0
LINE
  5
D43E
330
1F
100
AcDbEntity
  8
A4 medium
 48
0.15
100
AcDbLine
 10
-177.2891101350591
 20
330.2151642364665
 30
0.0
 11
-177.2891101350591
 21
329.2942440504798
 31
0.0
  0
LINE
  5
D43F
330
1F
100
AcDbEntity
  8
A4 medium
 48
0.15
100
AcDbLine
 10
-177.2891101350591
 20
329.2942440504798
 30
0.0
 11
-176.2541101350592
 21
328.25924405048
 31
0.0
  0
LINE
  5
D440
330
1F
100
AcDbEntity
  8
0
 48
0.15
100
AcDbLine
 10
-177.4891101350598
 20
324.2188257286926
 30
0.0
 11
-159.2891101350591
 21
324.2188257286928
 31
0.0
  0
LINE
  5
D441
330
1F
100
AcDbEntity
  8
0
 48
0.15
100
AcDbLine
 10
-158.2541101350592
 20
326.1773057522885
 30
0.0
 11
-158.2541101350592
 21
328.25924405048
 31
0.0
  0
LINE
  5
D442
330
1F
100
AcDbEntity
  8
A4 medium
 48
0.15
100
AcDbLine
 10
-159.2891101350591
 20
324.2188257286928
 30
0.0
 11
-159.2891101350591
 21
325.1423057522884
 31
0.0
  0
LINE
  5
D443
330
1F
100
AcDbEntity
  8
0
 48
0.15
100
AcDbLine
 10
-159.2891101350591
 20
325.1423057522884
 30
0.0
 11
-158.2541101350592
 21
326.1773057522884
 31
0.0
  0
LINE
  5
D444
330
1F
100
AcDbEntity
  8
A4 medium
 48
0.15
100
AcDbLine
 10
-159.2891101350591
 20
330.2151642364665
 30
0.0
 11
-159.2891101350591
 21
329.2942440504798
 31
0.0
  0
LINE
  5
D445
330
1F
100
AcDbEntity
  8
0
 48
0.15
100
AcDbLine
 10
-159.2891101350591
 20
329.2942440504798
 30
0.0
 11
-158.2541101350592
 21
328.25924405048
 31
0.0
  0
LINE
  5
D446
330
1F
100
AcDbEntity
  8
A4 medium
 48
0.15
100
AcDbLine
 10
-169.7716101350591
 20
329.2151642364665
 30
0.0
 11
-170.7716101350591
 21
330.2151642364665
 31
0.0
  0
LINE
  5
D447
330
1F
100
AcDbEntity
  8
A4 medium
 48
0.15
100
AcDbLine
 10
-165.7716101350592
 20
329.2151642364665
 30
0.0
 11
-164.7716101350592
 21
330.2151642364665
 31
0.0
  0
LINE
  5
D448
330
1F
100
AcDbEntity
  8
A4 medium
 48
0.15
100
AcDbLine
 10
-170.0391101350591
 20
326.2188257286928
 30
0.0
 11
-169.7716101350591
 21
329.2151642364665
 31
0.0
  0
LINE
  5
D449
330
1F
100
AcDbEntity
  8
A4 medium
 48
0.15
100
AcDbLine
 10
-165.5041101350592
 20
326.2188257286928
 30
0.0
 11
-165.7716101350592
 21
329.2151642364665
 31
0.0
  0
LINE
  5
D44A
330
1F
100
AcDbEntity
  8
A4 medium
 48
0.15
100
AcDbLine
 10
-170.0391101350591
 20
326.2188257286928
 30
0.0
 11
-165.5041101350592
 21
326.2188257286928
 31
0.0
  0
LINE
  5
D44B
330
1F
100
AcDbEntity
  8
A4 medium
 48
0.15
100
AcDbLine
 10
-164.7716101350592
 20
330.2151642364665
 30
0.0
 11
-159.2891101350591
 21
330.2151642364665
 31
0.0
  0
LINE
  5
D44C
330
1F
100
AcDbEntity
  8
A4 medium
 48
0.15
100
AcDbLine
 10
-158.2541101350592
 20
326.1773057522886
 30
0.0
 11
-158.2541101350592
 21
328.25924405048
 31
0.0
  0
LINE
  5
D44D
330
1F
100
AcDbEntity
  8
A4 medium
 48
0.15
100
AcDbLine
 10
-159.2891101350591
 20
330.2151642364665
 30
0.0
 11
-152.7716101350591
 21
330.2151642364667
 31
0.0
  0
LINE
  5
D44E
330
1F
100
AcDbEntity
  8
A4 medium
 48
0.15
100
AcDbLine
 10
-159.2891101350591
 20
325.1423057522884
 30
0.0
 11
-158.2541101350592
 21
326.1773057522885
 31
0.0
  0
LINE
  5
D44F
330
1F
100
AcDbEntity
  8
A4 medium
 48
0.15
100
AcDbLine
 10
-159.2891101350591
 20
329.2942440504798
 30
0.0
 11
-158.2541101350592
 21
328.25924405048
 31
0.0
  0
LINE
  5
D450
330
1F
100
AcDbEntity
  8
A4 medium
 48
0.15
100
AcDbLine
 10
-151.7716101350591
 20
329.2151642364666
 30
0.0
 11
-152.7716101350591
 21
330.2151642364667
 31
0.0
  0
LINE
  5
D451
330
1F
100
AcDbEntity
  8
A4 medium
 48
0.15
100
AcDbLine
 10
-147.771610135061
 20
329.2151642364666
 30
0.0
 11
-146.8671248144104
 21
330.1196495571155
 31
0.0
  0
LINE
  5
D452
330
1F
100
AcDbEntity
  8
A4 medium
 48
0.15
100
AcDbLine
 10
-152.0391101350591
 20
326.2188257286929
 30
0.0
 11
-151.7716101350591
 21
329.2151642364666
 31
0.0
  0
LINE
  5
D453
330
1F
100
AcDbEntity
  8
A4 medium
 48
0.15
100
AcDbLine
 10
-152.0391101350591
 20
326.2188257286929
 30
0.0
 11
-149.771610135061
 21
326.2188257286929
 31
0.0
  0
LINE
  5
D454
330
1F
100
AcDbEntity
  8
A4 medium
 48
0.15
100
AcDbLine
 10
-149.6626774714308
 20
331.7188237794409
 30
0.0
 11
-148.6626774714308
 21
330.7188237794409
 31
0.0
  0
LINE
  5
D455
330
1F
100
AcDbEntity
  8
A4 medium
 48
0.15
100
AcDbLine
 10
-148.6626774714308
 20
331.7188237794409
 30
0.0
 11
-149.6626774714308
 21
330.7188237794409
 31
0.0
  0
LINE
  5
D456
330
1F
100
AcDbEntity
  8
A4 medium
 48
0.15
100
AcDbLine
 10
-149.1626774714308
 20
331.2188237794409
 30
0.0
 11
-155.1626774714308
 21
331.2188237794409
 31
0.0
  0
LINE
  5
D457
330
1F
100
AcDbEntity
  8
A4 medium
 48
0.15
100
AcDbLine
 10
-155.6626774714308
 20
331.7188237794409
 30
0.0
 11
-154.6626774714308
 21
330.7188237794409
 31
0.0
  0
LINE
  5
D458
330
1F
100
AcDbEntity
  8
A4 medium
 48
0.15
100
AcDbLine
 10
-154.6626774714308
 20
331.7188237794409
 30
0.0
 11
-155.6626774714308
 21
330.7188237794409
 31
0.0
  0
LINE
  5
D459
330
1F
100
AcDbEntity
  8
A4 medium
 48
0.15
100
AcDbLine
 10
-155.1626774714308
 20
331.2188237794409
 30
0.0
 11
-161.1626774714308
 21
331.2188237794409
 31
0.0
  0
LINE
  5
D45A
330
1F
100
AcDbEntity
  8
A4 medium
 48
0.15
100
AcDbLine
 10
-161.162677471429
 20
331.2188237794409
 30
0.0
 11
-167.162677471429
 21
331.2188237794409
 31
0.0
  0
LINE
  5
D45B
330
1F
100
AcDbEntity
  8
A4 medium
 48
0.15
100
AcDbLine
 10
-167.662677471429
 20
331.7188237794409
 30
0.0
 11
-166.662677471429
 21
330.7188237794409
 31
0.0
  0
LINE
  5
D45C
330
1F
100
AcDbEntity
  8
A4 medium
 48
0.15
100
AcDbLine
 10
-166.662677471429
 20
331.7188237794409
 30
0.0
 11
-167.662677471429
 21
330.7188237794409
 31
0.0
  0
LINE
  5
D45D
330
1F
100
AcDbEntity
  8
A4 medium
 48
0.15
100
AcDbLine
 10
-173.662677471429
 20
331.7188237794409
 30
0.0
 11
-172.662677471429
 21
330.7188237794409
 31
0.0
  0
LINE
  5
D45E
330
1F
100
AcDbEntity
  8
A4 medium
 48
0.15
100
AcDbLine
 10
-172.662677471429
 20
331.7188237794409
 30
0.0
 11
-173.662677471429
 21
330.7188237794409
 31
0.0
  0
LINE
  5
D45F
330
1F
100
AcDbEntity
  8
A4 medium
 48
0.15
100
AcDbLine
 10
-161.6978194410798
 20
331.7535616662632
 30
0.0
 11
-160.6978194410798
 21
330.7535616662632
 31
0.0
  0
LINE
  5
D460
330
1F
100
AcDbEntity
  8
A4 medium
 48
0.15
100
AcDbLine
 10
-160.6978194410798
 20
331.7535616662632
 30
0.0
 11
-161.6978194410798
 21
330.7535616662632
 31
0.0
  0
LINE
  5
D461
330
1F
100
AcDbEntity
  8
A4 medium
 48
0.15
100
AcDbLine
 10
-147.3041466172957
 20
331.2188237794409
 30
0.0
 11
-149.1626774714326
 21
331.2188237794409
 31
0.0
  0
LINE
  5
D462
330
1F
100
AcDbEntity
  8
A4 medium
 48
0.15
100
AcDbLine
 10
-170.7716101350591
 20
330.2151642364665
 30
0.0
 11
-177.2891101350591
 21
330.2151642364665
 31
0.0
  0
HATCH
  5
D463
330
1F
100
AcDbEntity
  8
A2 Hatch
 48
0.15
100
AcDbHatch
 10
0.0
 20
0.0
 30
0.0
210
0.0
220
0.0
230
1.0
  2
ANSI37
 70
     0
 71
     0
 91
        2
 92
        1
 93
       18
 72
     1
 10
-170.7716101350591
 20
330.2151642364665
 11
-177.2891101350591
 21
330.2151642364665
 72
     1
 10
-177.2891101350591
 20
330.2151642364665
 11
-177.2891101350591
 21
329.2942440504798
 72
     1
 10
-177.2891101350591
 20
329.2942440504798
 11
-176.2541101350592
 21
328.25924405048
 72
     1
 10
-176.2541101350592
 20
328.25924405048
 11
-176.2541101350592
 21
326.1773057522886
 72
     1
 10
-176.2541101350592
 20
326.1773057522884
 11
-177.2891101350591
 21
325.1423057522884
 72
     1
 10
-177.2891101350591
 20
325.1423057522884
 11
-177.2891101350591
 21
324.2188257286928
 72
     1
 10
-177.2891101350591
 20
324.2188257286928
 11
-159.2891101350591
 21
324.2188257286928
 72
     1
 10
-159.2891101350591
 20
324.2188257286928
 11
-159.2891101350591
 21
325.1423057522884
 72
     1
 10
-159.2891101350591
 20
325.1423057522884
 11
-158.2541101350592
 21
326.1773057522884
 72
     1
 10
-158.2541101350592
 20
326.1773057522886
 11
-158.2541101350592
 21
328.25924405048
 72
     1
 10
-158.2541101350592
 20
328.25924405048
 11
-159.2891101350591
 21
329.2942440504798
 72
     1
 10
-159.2891101350591
 20
329.2942440504798
 11
-159.2891101350591
 21
330.2151642364665
 72
     1
 10
-159.2891101350591
 20
330.2151642364665
 11
-164.7716101350573
 21
330.2151642364665
 72
     1
 10
-164.7716101350592
 20
330.2151642364665
 11
-165.7716101350592
 21
329.2151642364665
 72
     1
 10
-165.7716101350592
 20
329.2151642364665
 11
-165.5041101350592
 21
326.2188257286928
 72
     1
 10
-165.5041101350592
 20
326.2188257286928
 11
-170.0391101350591
 21
326.2188257286928
 72
     1
 10
-170.0391101350591
 20
326.2188257286928
 11
-169.7716101350591
 21
329.2151642364665
 72
     1
 10
-169.7716101350591
 20
329.2151642364665
 11
-170.7716101350591
 21
330.2151642364665
 97
        0
 92
       33
 93
        3
 72
     1
 10
-159.2891101350591
 20
329.2942440504798
 11
-158.2541101350592
 21
328.25924405048
 72
     1
 10
-159.2891101350591
 20
325.1423057522884
 11
-158.2541101350592
 21
326.1773057522884
 72
     1
 10
-158.2541101350592
 20
326.1773057522885
 11
-158.2541101350592
 21
328.2592440504799
 97
        0
 75
     0
 76
     1
 52
0.0
 41
6.0
 77
     0
 78
     2
 53
45.0
 43
-3413.551023819678
 44
765.7140292083572
 45
-0.5303300858899106
 46
0.5303300858899107
 79
     0
 53
135.0
 43
-3413.551023819678
 44
765.7140292083572
 45
-0.5303300858899107
 46
-0.5303300858899106
 79
     0
 98
        1
 10
-3413.551023819678
 20
765.7140292083572
  0
LINE
  5
D464
330
1F
100
AcDbEntity
  8
0
 48
0.15
100
AcDbLine
 10
-159.2891101350591
 20
324.2188257286928
 30
0.0
 11
-150.758595926943
 21
324.2188257286928
 31
0.0
  0
HATCH
  5
D465
330
1F
100
AcDbEntity
  8
A2 Hatch
 48
0.15
100
AcDbHatch
 10
0.0
 20
0.0
 30
0.0
210
0.0
220
0.0
230
1.0
  2
ANSI37
 70
     0
 71
     0
 91
        1
 92
        1
 93
       11
 72
     1
 10
-159.2891101350591
 20
324.2188257286928
 11
-150.758595926943
 21
324.2188257286928
 72
     1
 10
-150.758595926943
 20
324.2188257286928
 11
-149.771610135061
 21
326.2188257286929
 72
     1
 10
-149.771610135061
 20
326.2188257286929
 11
-152.0391101350609
 21
326.2188257286929
 72
     1
 10
-152.0391101350591
 20
326.2188257286929
 11
-151.7716101350573
 21
329.2151642364666
 72
     1
 10
-151.7716101350591
 20
329.2151642364666
 11
-152.7716101350591
 21
330.2151642364667
 72
     1
 10
-152.7716101350591
 20
330.2151642364667
 11
-159.2891101350591
 21
330.2151642364665
 72
     1
 10
-159.2891101350591
 20
330.2151642364665
 11
-159.2891101350591
 21
329.2942440504798
 72
     1
 10
-159.2891101350591
 20
329.2942440504798
 11
-158.2541101350592
 21
328.25924405048
 72
     1
 10
-158.2541101350592
 20
328.25924405048
 11
-158.2541101350592
 21
326.1773057522886
 72
     1
 10
-158.2541101350592
 20
326.1773057522885
 11
-159.2891101350591
 21
325.1423057522885
 72
     1
 10
-159.2891101350591
 20
325.1423057522884
 11
-159.2891101350591
 21
324.2188257286928
 97
        0
 75
     0
 76
     1
 52
0.0
 41
6.0
 77
     0
 78
     2
 53
45.0
 43
-3413.551023819678
 44
765.7140292083572
 45
-0.5303300858899106
 46
0.5303300858899107
 79
     0
 53
135.0
 43
-3413.551023819678
 44
765.7140292083572
 45
-0.5303300858899107
 46
-0.5303300858899106
 79
     0
 98
        1
 10
-3413.551023819678
 20
765.7140292083572
  0
LINE
  5
D466
330
1F
100
AcDbEntity
  8
REBAR
 48
0.15
100
AcDbLine
 10
-177.4082266962281
 20
331.2188237794409
 30
0.0
 11
-166.0817940325972
 21
331.2188237794409
 31
0.0
  0
LINE
  5
D467
330
1F
100
AcDbEntity
  8
REBAR
 48
0.15
100
AcDbLine
 10
-180.4082266962263
 20
307.8186854999303
 30
0.0
 11
-180.4082266962281
 21
328.2188237794408
 31
0.0
  0
ARC
  5
D468
330
1F
100
AcDbEntity
  8
REBAR
 48
0.15
100
AcDbCircle
 10
-177.4082266962281
 20
328.218823779441
 30
0.0
 40
3.0
100
AcDbArc
 50
90.0
 51
180.0
  0
HATCH
  5
D469
330
1F
100
AcDbEntity
  8
0
 48
0.15
100
AcDbHatch
 10
0.0
 20
0.0
 30
0.0
210
0.0
220
0.0
230
1.0
  2
ANSI37
 70
     0
 71
     0
 91
        1
 92
       33
 93
        3
 72
     1
 10
-147.771610135061
 20
329.2151642364666
 11
-146.8671248144122
 21
330.1196495571155
 72
     1
 10
-145.0412469003944
 20
329.2185917776924
 11
-147.7681825938356
 21
329.2185917776924
 72
     1
 10
-146.8671248144104
 20
330.1196495571155
 11
-145.0412469003926
 21
329.2185917776924
 97
        0
 75
     0
 76
     1
 52
0.0
 41
6.0
 77
     0
 78
     2
 53
45.0
 43
-3413.551023819678
 44
765.7140292083572
 45
-0.5303300858899106
 46
0.5303300858899107
 79
     0
 53
135.0
 43
-3413.551023819678
 44
765.7140292083572
 45
-0.5303300858899107
 46
-0.5303300858899106
 79
     0
 98
        1
 10
-3413.551023819678
 20
765.7140292083572
  0
LEADER
  5
D46A
330
1F
100
AcDbEntity
  8
DIM
100
AcDbLeader
  3
ARCTEXT1-4
 76
     3
 10
-180.1928185157061
 20
329.8021663569747
 30
0.0
 10
-168.4894316601452
 20
347.7153702835274
 30
0.0
 10
-161.3919566422549
 20
347.7153702835274
 30
0.0
1001
ACAD
1000
DSTYLE
1002
{
1070
    41
1040
0.5
1070
    77
1070
     0
1002
}
  0
MTEXT
  5
D46B
330
1F
100
AcDbEntity
  8
DIM
 62
     3
100
AcDbMText
 10
-160.4904899959232
 20
348.1383819626556
 30
0.0
 40
1.0
 41
22.68954545454545
 71
     1
 72
     5
  1
BENT REINF IN VERT CORES 
  7
RomanC
 73
     1
 44
1.0
1001
ACAD
1000
MTEXTBEGIN
1070
    73
1070
     1
1070
    44
1040
1.0
1070
    74
1070
     0
1000
MTEXTEND
  0
MTEXT
  5
D46C
330
1F
100
AcDbEntity
  8
DIM
 62
     3
100
AcDbMText
 10
-160.0429926719983
 20
341.9175398696702
 30
0.0
 40
1.0
 41
22.68954545454545
 71
     1
 72
     5
  1
CONCRETE FLOOR SYSTEM
  7
RomanC
 73
     1
 44
1.0
1001
ACAD
1000
MTEXTBEGIN
1070
    73
1070
     1
1070
    44
1040
1.0
1070
    74
1070
     0
1000
MTEXTEND
  0
LEADER
  5
D46D
330
1F
100
AcDbEntity
  8
DIM
100
AcDbLeader
  3
ARCTEXT1-4
 76
     3
 10
-167.7545621142775
 20
332.2188257286925
 30
0.0
 10
-167.7620767182283
 20
341.5141897602975
 30
0.0
 10
-160.6646017003398
 20
341.5141897602975
 30
0.0
1001
ACAD
1000
DSTYLE
1002
{
1070
    41
1040
0.5
1070
    77
1070
     0
1002
}
  0
MTEXT
  5
D46E
330
1F
100
AcDbEntity
  8
DIM
 62
     3
100
AcDbMText
 10
-158.3546045878169
 20
313.8830586508289
 30
0.0
 40
1.0
 41
22.68954545454545
 71
     1
 72
     5
  1
ICF FORM DECK PANEL
  7
RomanC
 73
     1
 44
1.0
1001
ACAD
1000
MTEXTBEGIN
1070
    73
1070
     1
1070
    44
1040
1.0
1070
    74
1070
     0
1000
MTEXTEND
  0
LEADER
  5
D46F
330
1F
100
AcDbEntity
  8
DIM
100
AcDbLeader
  3
ARCTEXT1-4
 76
     3
 10
-166.0701498491229
 20
324.2188257286929
 30
0.0
 10
-166.0736886340468
 20
313.4685604679422
 30
0.0
 10
-158.9762136161583
 20
313.4685604679422
 30
0.0
1001
ACAD
1000
DSTYLE
1002
{
1070
    41
1040
0.5
1070
    77
1070
     0
1002
}
  0
HATCH
  5
D470
330
1F
100
AcDbEntity
  8
A2 Hatch
 48
0.15
100
AcDbHatch
 10
0.0
 20
0.0
 30
0.0
210
0.0
220
0.0
230
1.0
  2
AR-CONC
 70
     0
 71
     0
 91
        1
 92
        1
 93
        8
 72
     1
 10
-177.417453352927
 20
332.2188257287
 11
-185.4891101350598
 21
332.2188257286928
 72
     1
 10
-185.4891101350598
 20
332.2188257286929
 11
-185.6131560654297
 21
296.8559408965789
 72
     1
 10
-185.6131560654297
 20
296.8559408965789
 11
-182.7431956128397
 21
297.82926682371
 72
     1
 10
-182.7431956128397
 20
297.8292668237102
 11
-183.6792386296414
 21
300.5892944416529
 72
     1
 10
-183.6792386296414
 20
300.5892944416529
 11
-179.083044551929
 21
295.9931003639401
 72
     1
 10
-179.083044551929
 20
295.9931003639401
 11
-180.0190875687288
 21
298.7531279818829
 72
     1
 10
-180.019087568727
 20
298.7531279818829
 11
-177.413156065429
 21
299.636910437561
 72
     1
 10
-177.413156065429
 20
299.636910437561
 11
-177.417453352927
 21
332.2188257287
 97
        0
 75
     0
 76
     1
 52
0.0
 41
0.8
 77
     0
 78
    13
 53
50.0
 43
-3604.43175658947
 44
871.0085757683122
 45
5.738081460806028
 46
-0.502017079860761
 79
     2
 49
0.6000000000000001
 49
-6.6
 53
355.0
 43
-3604.43175658947
 44
871.0085757683122
 45
-1.110010668904
 46
6.017537069600095
 79
     2
 49
0.48
 49
-5.28
 53
100.451445
 43
-3603.953583149471
 44
870.9667410483122
 45
4.628070721834346
 46
5.515519971367574
 79
     2
 49
0.5099215199999993
 49
-5.609136895999992
 53
46.1842
 43
-3604.43175658947
 44
872.6085757683122
 45
8.537928389005156
 46
-1.324152114632144
 79
     2
 49
0.9
 49
-9.9
 53
96.63564499999996
 43
-3603.72026262947
 44
872.4982293123122
 45
7.477295523824224
 46
7.792948839860111
 79
     2
 49
0.7648823039999995
 49
-8.413703999999992
 53
351.1842000000001
 43
-3604.43175658947
 44
872.6085757683122
 45
7.477295561069017
 46
7.792948807402597
 79
     2
 49
0.7200000000000001
 49
-7.92
 53
21.0
 43
-3603.631756589469
 44
872.2085757683123
 45
4.775256416947693
 46
-3.22095112532271
 79
     2
 49
0.6000000000000001
 49
-6.6
 53
326.0
 43
-3603.631756589469
 44
872.2085757683123
 45
1.946522655372653
 46
5.801200360374824
 79
     2
 49
0.48
 49
-5.28
 53
71.45144499999999
 43
-3603.233818725469
 44
871.9401629203122
 45
6.721779002130969
 46
2.580249252953295
 79
     2
 49
0.5099215200000002
 49
-5.609136895999999
 53
37.5
 43
-3604.43175658947
 44
871.0085757683122
 45
0.0972788425383254
 46
2.663150830650492
 79
     6
 49
0.0
 49
-5.216
 49
0.0
 49
-5.36
 49
0.0
 49
-5.3
 53
7.499999999999999
 43
-3604.43175658947
 44
871.0085757683122
 45
2.104556299537188
 46
3.155293695058881
 79
     6
 49
0.0
 49
-3.056
 49
0.0
 49
-5.096
 49
0.0
 49
-2.02
 53
327.5
 43
-3606.21575658947
 44
871.0085757683122
 45
4.270579489379272
 46
-0.1804389738750384
 79
     6
 49
0.0
 49
-2.0
 49
0.0
 49
-6.24
 49
0.0
 49
-8.279999999999999
 53
317.5
 43
-3607.01575658947
 44
871.0085757683122
 45
4.665489354739089
 46
0.8008398586585411
 79
     6
 49
0.0
 49
-2.6
 49
0.0
 49
-4.144
 49
0.0
 49
-5.879999999999999
 98
        1
 10
-6164.973164941927
 20
901.7166935552415
  0
LINE
  5
D471
330
1F
100
AcDbEntity
  8
A5 heavy
 48
0.15
100
AcDbLine
 10
-177.4891101350598
 20
332.2188257286929
 30
0.0
 11
-216.1675675107084
 21
332.2188257286954
 31
0.0
  0
LINE
  5
D472
330
1F
100
AcDbEntity
  8
A4 medium
 48
0.15
100
AcDbLine
 10
-185.6891101350605
 20
324.2188257286929
 30
0.0
 11
-212.2196243431785
 21
324.2188257286929
 31
0.0
  0
LINE
  5
D473
330
1F
100
AcDbEntity
  8
DIM
100
AcDbLine
 10
-217.9369733697271
 20
329.2185917776925
 30
0.0
 11
-211.4369733697271
 21
329.2185917776925
 31
0.0
  0
LINE
  5
D474
330
1F
100
AcDbEntity
  8
DIM
100
AcDbLine
 10
-211.4369733697271
 20
329.2185917776925
 30
0.0
 11
-214.050489979299
 21
327.9288398974453
 31
0.0
  0
LINE
  5
D475
330
1F
100
AcDbEntity
  8
DIM
100
AcDbLine
 10
-214.050489979299
 20
327.9288398974453
 30
0.0
 11
-210.6561363341601
 21
321.0506179958612
 31
0.0
  0
LINE
  5
D476
330
1F
100
AcDbEntity
  8
DIM
100
AcDbLine
 10
-219.0455155651611
 20
338.0506179958699
 30
0.0
 11
-215.3234567601552
 21
330.5083436579395
 31
0.0
  0
LINE
  5
D477
330
1F
100
AcDbEntity
  8
DIM
100
AcDbLine
 10
-217.9369733697271
 20
329.2185917776925
 30
0.0
 11
-215.3234567601552
 21
330.5083436579396
 31
0.0
  0
LINE
  5
D478
330
1F
100
AcDbEntity
  8
A4 medium
 48
0.15
100
AcDbLine
 10
-186.7241101350604
 20
326.1773057522886
 30
0.0
 11
-186.7241101350604
 21
328.2592440504801
 31
0.0
  0
LINE
  5
D479
330
1F
100
AcDbEntity
  8
A4 medium
 48
0.15
100
AcDbLine
 10
-185.6891101350605
 20
324.2188257286929
 30
0.0
 11
-185.6891101350605
 21
325.1423057522885
 31
0.0
  0
LINE
  5
D47A
330
1F
100
AcDbEntity
  8
A4 medium
 48
0.15
100
AcDbLine
 10
-185.6891101350605
 20
325.1423057522885
 30
0.0
 11
-186.7241101350604
 21
326.1773057522885
 31
0.0
  0
LINE
  5
D47B
330
1F
100
AcDbEntity
  8
A4 medium
 48
0.15
100
AcDbLine
 10
-185.6891101350605
 20
330.2151642364667
 30
0.0
 11
-185.6891101350605
 21
329.29424405048
 31
0.0
  0
LINE
  5
D47C
330
1F
100
AcDbEntity
  8
A4 medium
 48
0.15
100
AcDbLine
 10
-185.6891101350605
 20
329.29424405048
 30
0.0
 11
-186.7241101350604
 21
328.2592440504801
 31
0.0
  0
LINE
  5
D47D
330
1F
100
AcDbEntity
  8
0
 48
0.15
100
AcDbLine
 10
-177.4891101350598
 20
324.2188257286929
 30
0.0
 11
-203.6891101350605
 21
324.2188257286929
 31
0.0
  0
LINE
  5
D47E
330
1F
100
AcDbEntity
  8
0
 48
0.15
100
AcDbLine
 10
-204.7241101350604
 20
326.1773057522886
 30
0.0
 11
-204.7241101350604
 21
328.2592440504801
 31
0.0
  0
LINE
  5
D47F
330
1F
100
AcDbEntity
  8
A4 medium
 48
0.15
100
AcDbLine
 10
-203.6891101350605
 20
324.2188257286929
 30
0.0
 11
-203.6891101350605
 21
325.1423057522885
 31
0.0
  0
LINE
  5
D480
330
1F
100
AcDbEntity
  8
0
 48
0.15
100
AcDbLine
 10
-203.6891101350605
 20
325.1423057522885
 30
0.0
 11
-204.7241101350604
 21
326.1773057522885
 31
0.0
  0
LINE
  5
D481
330
1F
100
AcDbEntity
  8
A4 medium
 48
0.15
100
AcDbLine
 10
-203.6891101350605
 20
330.2151642364667
 30
0.0
 11
-203.6891101350605
 21
329.29424405048
 31
0.0
  0
LINE
  5
D482
330
1F
100
AcDbEntity
  8
0
 48
0.15
100
AcDbLine
 10
-203.6891101350605
 20
329.29424405048
 30
0.0
 11
-204.7241101350604
 21
328.2592440504801
 31
0.0
  0
LINE
  5
D483
330
1F
100
AcDbEntity
  8
A4 medium
 48
0.15
100
AcDbLine
 10
-193.2066101350623
 20
329.2151642364666
 30
0.0
 11
-192.2066101350623
 21
330.2151642364667
 31
0.0
  0
LINE
  5
D484
330
1F
100
AcDbEntity
  8
A4 medium
 48
0.15
100
AcDbLine
 10
-197.2066101350605
 20
329.2151642364666
 30
0.0
 11
-198.2066101350605
 21
330.2151642364667
 31
0.0
  0
LINE
  5
D485
330
1F
100
AcDbEntity
  8
A4 medium
 48
0.15
100
AcDbLine
 10
-192.9391101350605
 20
326.2188257286929
 30
0.0
 11
-193.2066101350623
 21
329.2151642364666
 31
0.0
  0
LINE
  5
D486
330
1F
100
AcDbEntity
  8
A4 medium
 48
0.15
100
AcDbLine
 10
-197.4741101350604
 20
326.2188257286929
 30
0.0
 11
-197.2066101350605
 21
329.2151642364666
 31
0.0
  0
LINE
  5
D487
330
1F
100
AcDbEntity
  8
A4 medium
 48
0.15
100
AcDbLine
 10
-192.9391101350605
 20
326.2188257286929
 30
0.0
 11
-197.4741101350604
 21
326.2188257286929
 31
0.0
  0
LINE
  5
D488
330
1F
100
AcDbEntity
  8
A4 medium
 48
0.15
100
AcDbLine
 10
-198.2066101350623
 20
330.2151642364667
 30
0.0
 11
-203.6891101350605
 21
330.2151642364667
 31
0.0
  0
LINE
  5
D489
330
1F
100
AcDbEntity
  8
A4 medium
 48
0.15
100
AcDbLine
 10
-204.7241101350604
 20
326.1773057522887
 30
0.0
 11
-204.7241101350604
 21
328.2592440504801
 31
0.0
  0
LINE
  5
D48A
330
1F
100
AcDbEntity
  8
A4 medium
 48
0.15
100
AcDbLine
 10
-203.6891101350605
 20
330.2151642364667
 30
0.0
 11
-210.2066101350623
 21
330.2151642364667
 31
0.0
  0
LINE
  5
D48B
330
1F
100
AcDbEntity
  8
A4 medium
 48
0.15
100
AcDbLine
 10
-203.6891101350605
 20
325.1423057522885
 30
0.0
 11
-204.7241101350604
 21
326.1773057522886
 31
0.0
  0
LINE
  5
D48C
330
1F
100
AcDbEntity
  8
A4 medium
 48
0.15
100
AcDbLine
 10
-203.6891101350605
 20
329.29424405048
 30
0.0
 11
-204.7241101350604
 21
328.2592440504801
 31
0.0
  0
LINE
  5
D48D
330
1F
100
AcDbEntity
  8
A4 medium
 48
0.15
100
AcDbLine
 10
-211.2066101350605
 20
329.2151642364668
 30
0.0
 11
-210.2066101350605
 21
330.2151642364667
 31
0.0
  0
LINE
  5
D48E
330
1F
100
AcDbEntity
  8
A4 medium
 48
0.15
100
AcDbLine
 10
-215.2066101350605
 20
329.2151642364668
 30
0.0
 11
-216.1110954557092
 21
330.1196495571156
 31
0.0
  0
LINE
  5
D48F
330
1F
100
AcDbEntity
  8
A4 medium
 48
0.15
100
AcDbLine
 10
-210.9391101350606
 20
326.218825728693
 30
0.0
 11
-211.2066101350605
 21
329.2151642364668
 31
0.0
  0
LINE
  5
D490
330
1F
100
AcDbEntity
  8
A4 medium
 48
0.15
100
AcDbLine
 10
-210.9391101350606
 20
326.218825728693
 30
0.0
 11
-213.2066101350605
 21
326.218825728693
 31
0.0
  0
LINE
  5
D491
330
1F
100
AcDbEntity
  8
A4 medium
 48
0.15
100
AcDbLine
 10
-213.3155427986888
 20
331.718823779441
 30
0.0
 11
-214.3155427986889
 21
330.718823779441
 31
0.0
  0
LINE
  5
D492
330
1F
100
AcDbEntity
  8
A4 medium
 48
0.15
100
AcDbLine
 10
-214.3155427986889
 20
331.718823779441
 30
0.0
 11
-213.3155427986888
 21
330.718823779441
 31
0.0
  0
LINE
  5
D493
330
1F
100
AcDbEntity
  8
A4 medium
 48
0.15
100
AcDbLine
 10
-213.8155427986888
 20
331.218823779441
 30
0.0
 11
-207.8155427986888
 21
331.218823779441
 31
0.0
  0
LINE
  5
D494
330
1F
100
AcDbEntity
  8
A4 medium
 48
0.15
100
AcDbLine
 10
-207.3155427986888
 20
331.718823779441
 30
0.0
 11
-208.3155427986889
 21
330.718823779441
 31
0.0
  0
LINE
  5
D495
330
1F
100
AcDbEntity
  8
A4 medium
 48
0.15
100
AcDbLine
 10
-208.3155427986889
 20
331.718823779441
 30
0.0
 11
-207.3155427986888
 21
330.718823779441
 31
0.0
  0
LINE
  5
D496
330
1F
100
AcDbEntity
  8
A4 medium
 48
0.15
100
AcDbLine
 10
-207.8155427986907
 20
331.218823779441
 30
0.0
 11
-201.8155427986907
 21
331.218823779441
 31
0.0
  0
LINE
  5
D497
330
1F
100
AcDbEntity
  8
A4 medium
 48
0.15
100
AcDbLine
 10
-201.8155427986907
 20
331.218823779441
 30
0.0
 11
-195.8155427986906
 21
331.218823779441
 31
0.0
  0
LINE
  5
D498
330
1F
100
AcDbEntity
  8
A4 medium
 48
0.15
100
AcDbLine
 10
-195.3155427986907
 20
331.718823779441
 30
0.0
 11
-196.3155427986906
 21
330.718823779441
 31
0.0
  0
LINE
  5
D499
330
1F
100
AcDbEntity
  8
A4 medium
 48
0.15
100
AcDbLine
 10
-196.3155427986906
 20
331.718823779441
 30
0.0
 11
-195.3155427986907
 21
330.718823779441
 31
0.0
  0
LINE
  5
D49A
330
1F
100
AcDbEntity
  8
A4 medium
 48
0.15
100
AcDbLine
 10
-189.3155427986906
 20
331.718823779441
 30
0.0
 11
-190.3155427986907
 21
330.718823779441
 31
0.0
  0
LINE
  5
D49B
330
1F
100
AcDbEntity
  8
A4 medium
 48
0.15
100
AcDbLine
 10
-190.3155427986907
 20
331.718823779441
 30
0.0
 11
-189.3155427986906
 21
330.718823779441
 31
0.0
  0
LINE
  5
D49C
330
1F
100
AcDbEntity
  8
A4 medium
 48
0.15
100
AcDbLine
 10
-201.2804008290417
 20
331.7535616662633
 30
0.0
 11
-202.2804008290417
 21
330.7535616662633
 31
0.0
  0
LINE
  5
D49D
330
1F
100
AcDbEntity
  8
A4 medium
 48
0.15
100
AcDbLine
 10
-202.2804008290417
 20
331.7535616662633
 30
0.0
 11
-201.2804008290417
 21
330.7535616662633
 31
0.0
  0
LINE
  5
D49E
330
1F
100
AcDbEntity
  8
A4 medium
 48
0.15
100
AcDbLine
 10
-215.6740736528239
 20
331.218823779441
 30
0.0
 11
-213.8155427986888
 21
331.218823779441
 31
0.0
  0
LINE
  5
D49F
330
1F
100
AcDbEntity
  8
A4 medium
 48
0.15
100
AcDbLine
 10
-192.2066101350623
 20
330.2151642364667
 30
0.0
 11
-185.6891101350605
 21
330.2151642364667
 31
0.0
  0
HATCH
  5
D4A0
330
1F
100
AcDbEntity
  8
A2 Hatch
 48
0.15
100
AcDbHatch
 10
0.0
 20
0.0
 30
0.0
210
0.0
220
0.0
230
1.0
  2
ANSI37
 70
     0
 71
     0
 91
        2
 92
        1
 93
       18
 72
     1
 10
-192.2066101350623
 20
330.2151642364667
 11
-185.6891101350605
 21
330.2151642364667
 72
     1
 10
-185.6891101350605
 20
330.2151642364667
 11
-185.6891101350605
 21
329.29424405048
 72
     1
 10
-185.6891101350605
 20
329.29424405048
 11
-186.7241101350604
 21
328.2592440504801
 72
     1
 10
-186.7241101350604
 20
328.2592440504801
 11
-186.7241101350604
 21
326.1773057522887
 72
     1
 10
-186.7241101350604
 20
326.1773057522885
 11
-185.6891101350605
 21
325.1423057522885
 72
     1
 10
-185.6891101350605
 20
325.1423057522885
 11
-185.6891101350605
 21
324.2188257286929
 72
     1
 10
-185.6891101350605
 20
324.2188257286929
 11
-203.6891101350605
 21
324.2188257286929
 72
     1
 10
-203.6891101350605
 20
324.2188257286929
 11
-203.6891101350605
 21
325.1423057522885
 72
     1
 10
-203.6891101350605
 20
325.1423057522885
 11
-204.7241101350604
 21
326.1773057522885
 72
     1
 10
-204.7241101350604
 20
326.1773057522887
 11
-204.7241101350604
 21
328.2592440504801
 72
     1
 10
-204.7241101350604
 20
328.2592440504801
 11
-203.6891101350605
 21
329.29424405048
 72
     1
 10
-203.6891101350605
 20
329.29424405048
 11
-203.6891101350605
 21
330.2151642364667
 72
     1
 10
-203.6891101350605
 20
330.2151642364667
 11
-198.2066101350623
 21
330.2151642364667
 72
     1
 10
-198.2066101350605
 20
330.2151642364667
 11
-197.2066101350605
 21
329.2151642364666
 72
     1
 10
-197.2066101350605
 20
329.2151642364666
 11
-197.4741101350604
 21
326.2188257286929
 72
     1
 10
-197.4741101350604
 20
326.2188257286929
 11
-192.9391101350605
 21
326.2188257286929
 72
     1
 10
-192.9391101350605
 20
326.2188257286929
 11
-193.2066101350605
 21
329.2151642364666
 72
     1
 10
-193.2066101350623
 20
329.2151642364666
 11
-192.2066101350623
 21
330.2151642364667
 97
        0
 92
       33
 93
        3
 72
     1
 10
-203.6891101350605
 20
329.29424405048
 11
-204.7241101350604
 21
328.2592440504801
 72
     1
 10
-203.6891101350605
 20
325.1423057522885
 11
-204.7241101350604
 21
326.1773057522885
 72
     1
 10
-204.7241101350604
 20
326.1773057522886
 11
-204.7241101350604
 21
328.25924405048
 97
        0
 75
     0
 76
     1
 52
0.0
 41
6.0
 77
     0
 78
     2
 53
135.0
 43
3050.572803549558
 44
765.7140292083574
 45
0.5303300858899106
 46
0.5303300858899107
 79
     0
 53
45.0
 43
3050.572803549558
 44
765.7140292083574
 45
0.5303300858899107
 46
-0.5303300858899106
 79
     0
 98
        1
 10
3050.572803549558
 20
765.7140292083574
  0
LINE
  5
D4A1
330
1F
100
AcDbEntity
  8
0
 48
0.15
100
AcDbLine
 10
-203.6891101350605
 20
324.2188257286929
 30
0.0
 11
-212.2196243431785
 21
324.2188257286929
 31
0.0
  0
HATCH
  5
D4A2
330
1F
100
AcDbEntity
  8
A2 Hatch
 48
0.15
100
AcDbHatch
 10
0.0
 20
0.0
 30
0.0
210
0.0
220
0.0
230
1.0
  2
ANSI37
 70
     0
 71
     0
 91
        1
 92
        1
 93
       11
 72
     1
 10
-203.6891101350605
 20
324.2188257286929
 11
-212.2196243431766
 21
324.2188257286929
 72
     1
 10
-212.2196243431785
 20
324.2188257286929
 11
-213.2066101350605
 21
326.218825728693
 72
     1
 10
-213.2066101350605
 20
326.218825728693
 11
-210.9391101350606
 21
326.218825728693
 72
     1
 10
-210.9391101350606
 20
326.218825728693
 11
-211.2066101350605
 21
329.2151642364668
 72
     1
 10
-211.2066101350605
 20
329.2151642364668
 11
-210.2066101350605
 21
330.2151642364667
 72
     1
 10
-210.2066101350623
 20
330.2151642364667
 11
-203.6891101350624
 21
330.2151642364667
 72
     1
 10
-203.6891101350605
 20
330.2151642364667
 11
-203.6891101350605
 21
329.29424405048
 72
     1
 10
-203.6891101350605
 20
329.29424405048
 11
-204.7241101350604
 21
328.2592440504801
 72
     1
 10
-204.7241101350604
 20
328.2592440504801
 11
-204.7241101350604
 21
326.1773057522887
 72
     1
 10
-204.7241101350604
 20
326.1773057522886
 11
-203.6891101350605
 21
325.1423057522886
 72
     1
 10
-203.6891101350605
 20
325.1423057522885
 11
-203.6891101350605
 21
324.2188257286929
 97
        0
 75
     0
 76
     1
 52
0.0
 41
6.0
 77
     0
 78
     2
 53
135.0
 43
3050.572803549558
 44
765.7140292083574
 45
0.5303300858899106
 46
0.5303300858899107
 79
     0
 53
45.0
 43
3050.572803549558
 44
765.7140292083574
 45
0.5303300858899107
 46
-0.5303300858899106
 79
     0
 98
        1
 10
3050.572803549558
 20
765.7140292083574
  0
HATCH
  5
D4A3
330
1F
100
AcDbEntity
  8
0
 48
0.15
100
AcDbHatch
 10
0.0
 20
0.0
 30
0.0
210
0.0
220
0.0
230
1.0
  2
ANSI37
 70
     0
 71
     0
 91
        1
 92
       33
 93
        3
 72
     1
 10
-215.2066101350605
 20
329.2151642364668
 11
-216.1110954557092
 21
330.1196495571156
 72
     1
 10
-217.9369733697271
 20
329.2185917776925
 11
-215.2100376762859
 21
329.2185917776925
 72
     1
 10
-216.1110954557092
 20
330.1196495571156
 11
-217.9369733697271
 21
329.2185917776925
 97
        0
 75
     0
 76
     1
 52
0.0
 41
6.0
 77
     0
 78
     2
 53
135.0
 43
3050.572803549558
 44
765.7140292083574
 45
0.5303300858899106
 46
0.5303300858899107
 79
     0
 53
45.0
 43
3050.572803549558
 44
765.7140292083574
 45
0.5303300858899107
 46
-0.5303300858899106
 79
     0
 98
        1
 10
3050.572803549558
 20
765.7140292083574
  0
LINE
  5
D4A4
330
1F
100
AcDbEntity
  8
REBAR
 48
0.15
100
AcDbLine
 10
-177.4082266962281
 20
331.2188237794411
 30
0.0
 11
-196.8964262375206
 21
331.2188237794411
 31
0.0
  0
LINE
  5
D4A5
330
1F
100
AcDbEntity
  8
REBAR
 48
0.15
100
AcDbLine
 10
-182.5699935738915
 20
307.8186854999306
 30
0.0
 11
-182.5699935738897
 21
328.218823779441
 31
0.0
  0
ARC
  5
D4A6
330
1F
100
AcDbEntity
  8
REBAR
 48
0.15
100
AcDbCircle
 10
-185.5699935738897
 20
328.2188237794412
 30
0.0
 40
3.0
100
AcDbArc
 50
0.0
 51
90.0
  0
LEADER
  5
D4A7
330
1F
100
AcDbEntity
  8
DIM
100
AcDbLeader
  3
ARCTEXT1-4
 76
     3
 10
-183.4486732303297
 20
330.3401441230008
 30
0.0
 10
-171.9574417290217
 20
347.7153702835274
 30
0.0
 10
-164.8599667111333
 20
347.7153702835274
 30
0.0
1001
ACAD
1000
DSTYLE
1002
{
1070
    41
1040
0.5
1070
    77
1070
     0
1002
}
  0
LINE
  5
D4A8
330
1F
100
AcDbEntity
  8
0
 62
     1
100
AcDbLine
 10
-187.1391101350594
 20
324.2188257286929
 30
0.0
 11
-187.1391101350594
 21
320.2188257286929
 31
0.0
  0
LINE
  5
D4A9
330
1F
100
AcDbEntity
  8
A2 Hatch
  6
DASHED2
 48
0.15
100
AcDbLine
 10
-186.7241101350604
 20
324.2188257286929
 30
0.0
 11
-186.7241101350604
 21
320.2188257286929
 31
0.0
  0
LINE
  5
D4AA
330
1F
100
AcDbEntity
  8
0
 62
     1
100
AcDbLine
 10
-186.5641101350605
 20
324.2188257286929
 30
0.0
 11
-186.5641101350605
 21
320.2188257286929
 31
0.0
  0
LINE
  5
D4AB
330
1F
100
AcDbEntity
  8
0
 62
     1
100
AcDbLine
 10
-186.0641101350605
 20
324.2188257286929
 30
0.0
 11
-186.0641101350605
 21
320.2188257286929
 31
0.0
  0
LINE
  5
D4AC
330
1F
100
AcDbEntity
  8
A2 Hatch
  6
DASHED2
 48
0.15
100
AcDbLine
 10
-185.9041101350607
 20
324.2188257286929
 30
0.0
 11
-185.9041101350607
 21
320.2188257286929
 31
0.0
  0
LINE
  5
D4AD
330
1F
100
AcDbEntity
  8
0
 62
     1
100
AcDbLine
 10
-185.4891101350598
 20
324.2188257286929
 30
0.0
 11
-185.4891101350598
 21
320.2188257286929
 31
0.0
  0
LINE
  5
D4AE
330
1F
100
AcDbEntity
  8
0
 62
     1
100
AcDbLine
 10
-185.6891101350605
 20
324.2188257286929
 30
0.0
 11
-185.6891101350605
 21
320.2188257286929
 31
0.0
  0
LINE
  5
D4AF
330
1F
100
AcDbEntity
  8
0
 62
     1
100
AcDbLine
 10
-177.4891101350598
 20
324.2188257286929
 30
0.0
 11
-177.4891101350598
 21
320.2188257286929
 31
0.0
  0
LEADER
  5
D4B0
330
1F
100
AcDbEntity
  8
DIM
100
AcDbLeader
  3
ARCTEXT1-4
 76
     3
 10
-187.4891101350598
 20
302.2188137581957
 30
0.0
 10
-194.225484867998
 20
302.2192333784128
 30
0.0
 10
-202.8370987048014
 20
302.2194431885214
 30
0.0
211
-1.0
221
0.0
231
0.0
1001
ACAD
1000
DSTYLE
1002
{
1070
    41
1040
0.5
1070
    77
1070
     0
1002
}
  0
MTEXT
  5
D4B1
330
1F
100
AcDbEntity
  8
DIM
 62
     3
100
AcDbMText
 10
-214.6847945283456
 20
302.6026591930773
 30
0.0
 40
1.0
 41
22.68954545454545
 71
     1
 72
     5
  1
GREENBLOCK ICF 
  7
RomanC
 73
     1
 44
1.0
1001
ACAD
1000
MTEXTBEGIN
1070
    73
1070
     1
1070
    44
1040
1.0
1070
    74
1070
     0
1000
MTEXTEND
  0
MTEXT
  5
D4B2
330
1F
100
AcDbEntity
  8
DIM
 62
     3
100
AcDbMText
 10
-213.0817481101161
 20
309.0642270211414
 30
0.0
 40
1.0
 41
22.68954545454545
 71
     1
 72
     5
  1
VERT REINF 
  7
RomanC
 73
     1
 44
1.0
1001
ACAD
1000
MTEXTBEGIN
1070
    73
1070
     1
1070
    44
1040
1.0
1070
    74
1070
     0
1000
MTEXTEND
  0
MTEXT
  5
D4B3
330
1F
100
AcDbEntity
  8
DIM
 62
     3
100
AcDbMText
 10
-215.1167375913295
 20
318.2557397554897
 30
0.0
 40
1.0
 41
22.68954545454545
 71
     1
 72
     5
  1
HORIZ REINF 
  7
RomanC
 73
     1
 44
1.0
1001
ACAD
1000
MTEXTBEGIN
1070
    73
1070
     1
1070
    44
1040
1.0
1070
    74
1070
     0
1000
MTEXTEND
  0
LEADER
  5
D4B4
330
1F
100
AcDbEntity
  8
DIM
100
AcDbLeader
  3
ARCTEXT1-4
 76
     3
 10
-182.3048648218913
 20
317.7711694513212
 30
0.0
 10
-197.6626522559285
 20
317.7458261496067
 30
0.0
 10
-206.2824282970154
 20
317.7458261496067
 30
0.0
211
-1.0
221
0.0
231
0.0
1001
ACAD
1000
DSTYLE
1002
{
1070
    41
1040
0.5
1070
    77
1070
     0
1002
}
  0
LEADER
  5
D4B5
330
1F
100
AcDbEntity
  8
DIM
100
AcDbLeader
  3
ARCTEXT1-4
 76
     3
 10
-181.4890927808586
 20
308.6321409565548
 30
0.0
 10
-194.3568148359021
 20
308.632980196989
 30
0.0
 10
-204.7930392964148
 20
308.632980196989
 30
0.0
211
-1.0
221
0.0
231
0.0
1001
ACAD
1000
DSTYLE
1002
{
1070
    41
1040
0.5
1070
    77
1070
     0
1002
}
  0
MTEXT
  5
D4B6
330
1F
100
AcDbEntity
  8
DIM
 62
     3
100
AcDbMText
 10
-158.356887936064
 20
307.6008372988031
 30
0.0
 40
1.0
 41
16.07546435255318
 71
     1
 72
     5
  1
REINFORCEMENT PER ENGINEER
  7
RomanC
 73
     1
 44
1.0
1001
ACAD
1000
MTEXTBEGIN
1070
    73
1070
     1
1070
    44
1040
1.0
1070
    74
1070
     0
1000
MTEXTEND
  0
LWPOLYLINE
  5
D4B7
330
1F
100
AcDbEntity
  8
A4 medium
 48
0.15
100
AcDbPolyline
 90
        4
 70
     1
 43
0.0
 10
-158.9550248740537
 20
308.2864657725691
 10
-142.9788275048535
 20
308.2864657725691
 10
-142.9788275048535
 20
304.0593216499178
 10
-158.9550248740537
 20
304.0593216499178
  0
MTEXT
  5
D4B8
330
1F
100
AcDbEntity
  8
Defpoints
100
AcDbMText
 10
-185.49137506971
 20
276.0043498447189
 30
0.0
 40
3.0
 41
90.07999999999999
 71
     2
 72
     5
  1
{\L28}\P            
  7
RomanC
 73
     1
 44
1.0
1001
ACAD
1000
MTEXTBEGIN
1070
    73
1070
     1
1070
    44
1040
1.0
1070
    74
1070
     0
1000
MTEXTEND
  0
HATCH
  5
D4B9
330
1F
100
AcDbEntity
  8
A2 Hatch
 48
0.15
100
AcDbHatch
 10
0.0
 20
0.0
 30
0.0
210
0.0
220
0.0
230
1.0
  2
SOLID
 70
     1
 71
     0
 91
        1
 92
        1
 93
        1
 72
     2
 10
-196.3043410148797
 20
327.4299552769818
 40
0.2243383222039483
 50
0.0
 51
360.0
 73
     1
 97
        0
 75
     0
 76
     1
 98
        1
 10
-3436.925751225081
 20
678.8740732678207
  0
HATCH
  5
D4BA
330
1F
100
AcDbEntity
  8
A2 Hatch
 48
0.15
100
AcDbHatch
 10
0.0
 20
0.0
 30
0.0
210
0.0
220
0.0
230
1.0
  2
SOLID
 70
     1
 71
     0
 91
        1
 92
        1
 93
        1
 72
     2
 10
-194.0553848855974
 20
327.4299552769818
 40
0.2243383222039483
 50
0.0
 51
360.0
 73
     1
 97
        0
 75
     0
 76
     1
 98
        1
 10
-3434.676795095799
 20
678.8740732678207
  0
HATCH
  5
D4BB
330
1F
100
AcDbEntity
  8
A2 Hatch
 48
0.15
100
AcDbHatch
 10
0.0
 20
0.0
 30
0.0
210
0.0
220
0.0
230
1.0
  2
SOLID
 70
     1
 71
     0
 91
        1
 92
        1
 93
        1
 72
     2
 10
-168.8693410148784
 20
327.4299552769817
 40
0.2243383222039483
 50
0.0
 51
360.0
 73
     1
 97
        0
 75
     0
 76
     1
 98
        1
 10
-3409.490751225079
 20
678.8740732678206
  0
HATCH
  5
D4BC
330
1F
100
AcDbEntity
  8
A2 Hatch
 48
0.15
100
AcDbHatch
 10
0.0
 20
0.0
 30
0.0
210
0.0
220
0.0
230
1.0
  2
SOLID
 70
     1
 71
     0
 91
        1
 92
        1
 93
        1
 72
     2
 10
-166.6203848855961
 20
327.4299552769817
 40
0.2243383222039483
 50
0.0
 51
360.0
 73
     1
 97
        0
 75
     0
 76
     1
 98
        1
 10
-3407.241795095796
 20
678.8740732678206
  0
HATCH
  5
D4BD
330
1F
100
AcDbEntity
  8
A2 Hatch
 48
0.15
100
AcDbHatch
 10
0.0
 20
0.0
 30
0.0
210
0.0
220
0.0
230
1.0
  2
SOLID
 70
     1
 71
     0
 91
        1
 92
        1
 93
        1
 72
     2
 10
-150.8693410148802
 20
327.4299552769818
 40
0.2243383222039483
 50
0.0
 51
360.0
 73
     1
 97
        0
 75
     0
 76
     1
 98
        1
 10
-3391.490751225081
 20
678.8740732678207
  0
HATCH
  5
D4BE
330
1F
100
AcDbEntity
  8
A2 Hatch
 48
0.15
100
AcDbHatch
 10
0.0
 20
0.0
 30
0.0
210
0.0
220
0.0
230
1.0
  2
SOLID
 70
     1
 71
     0
 91
        1
 92
        1
 93
        1
 72
     2
 10
-212.0553848855974
 20
327.4299552769819
 40
0.2243383222039483
 50
0.0
 51
360.0
 73
     1
 97
        0
 75
     0
 76
     1
 98
        1
 10
-3452.676795095798
 20
678.8740732678209
  0
ENDSEC
  0
SECTION
  2
OBJECTS
  0
DICTIONARY
  5
C
330
0
100
AcDbDictionary
281
     1
  3
ACAD_COLOR
350
73
  3
ACAD_GROUP
350
D
  3
ACAD_LAYOUT
350
1A
  3
ACAD_MATERIAL
350
72
  3
ACAD_MLINESTYLE
350
17
  3
ACAD_PLOTSETTINGS
350
19
  3
ACAD_PLOTSTYLENAME
350
E
  3
ACDBHEADERROUNDTRIPXREC
350
D4CE
  3
AcDbVariableDictionary
350
66
  0
DICTIONARY
  5
A9
330
2
100
AcDbDictionary
280
     1
281
     1
  3
ACAD_LAYERSTATES
360
AA
  0
DICTIONARY
  5
73
102
{ACAD_REACTORS
330
C
102
}
330
C
100
AcDbDictionary
281
     1
  0
DICTIONARY
  5
D
102
{ACAD_REACTORS
330
C
102
}
330
C
100
AcDbDictionary
281
     1
  0
DICTIONARY
  5
1A
102
{ACAD_REACTORS
330
C
102
}
330
C
100
AcDbDictionary
281
     1
  3
Layout1
350
59
  3
Layout2
350
5E
  3
Model
350
22
  0
DICTIONARY
  5
72
102
{ACAD_REACTORS
330
C
102
}
330
C
100
AcDbDictionary
281
     1
  0
DICTIONARY
  5
17
102
{ACAD_REACTORS
330
C
102
}
330
C
100
AcDbDictionary
281
     1
  3
Standard
350
18
  0
DICTIONARY
  5
19
102
{ACAD_REACTORS
330
C
102
}
330
C
100
AcDbDictionary
281
     1
  0
ACDBDICTIONARYWDFLT
  5
E
102
{ACAD_REACTORS
330
C
102
}
330
C
100
AcDbDictionary
281
     1
  3
Normal
350
F
100
AcDbDictionaryWithDefault
340
F
  0
DICTIONARY
  5
D4CE
102
{ACAD_REACTORS
330
C
102
}
330
C
100
AcDbDictionary
281
     1
  3
COLORDICT
350
D4D0
  3
MATERIALDICT
350
D4CF
  0
DICTIONARY
  5
66
102
{ACAD_REACTORS
330
C
102
}
330
C
100
AcDbDictionary
281
     1
  3
DIMASSOC
350
67
  3
HIDETEXT
350
6B
  3
PROJECTNAME
350
1065
  0
DICTIONARY
  5
AA
102
{ACAD_REACTORS
330
A9
102
}
330
A9
100
AcDbDictionary
281
     1
  0
LAYOUT
  5
59
102
{ACAD_XDICTIONARY
360
D4D3
102
}
102
{ACAD_REACTORS
330
1A
102
}
330
1A
100
AcDbPlotSettings
  1

  2
None
  4

  6

 40
0.0
 41
0.0
 42
0.0
 43
0.0
 44
0.0
 45
0.0
 46
0.0
 47
0.0
 48
0.0
 49
0.0
140
0.0
141
0.0
142
1.0
143
1.0
 70
   688
 72
     0
 73
     0
 74
     5
  7

 75
    16
147
1.0
148
0.0
149
0.0
100
AcDbLayout
  1
Layout1
 70
     1
 71
     1
 10
0.0
 20
0.0
 11
12.0
 21
9.0
 12
0.0
 22
0.0
 32
0.0
 14
0.0
 24
0.0
 34
0.0
 15
0.0
 25
0.0
 35
0.0
146
0.0
 13
0.0
 23
0.0
 33
0.0
 16
1.0
 26
0.0
 36
0.0
 17
0.0
 27
1.0
 37
0.0
 76
     0
330
58
  0
LAYOUT
  5
5E
102
{ACAD_XDICTIONARY
360
D4D5
102
}
102
{ACAD_REACTORS
330
1A
102
}
330
1A
100
AcDbPlotSettings
  1

  2
None
  4

  6

 40
0.0
 41
0.0
 42
0.0
 43
0.0
 44
0.0
 45
0.0
 46
0.0
 47
0.0
 48
0.0
 49
0.0
140
0.0
141
0.0
142
1.0
143
1.0
 70
   688
 72
     0
 73
     0
 74
     5
  7

 75
    16
147
1.0
148
0.0
149
0.0
100
AcDbLayout
  1
Layout2
 70
     1
 71
     2
 10
0.0
 20
0.0
 11
12.0
 21
9.0
 12
0.0
 22
0.0
 32
0.0
 14
0.0
 24
0.0
 34
0.0
 15
0.0
 25
0.0
 35
0.0
146
0.0
 13
0.0
 23
0.0
 33
0.0
 16
1.0
 26
0.0
 36
0.0
 17
0.0
 27
1.0
 37
0.0
 76
     0
330
5D
  0
LAYOUT
  5
22
102
{ACAD_XDICTIONARY
360
D4D1
102
}
102
{ACAD_REACTORS
330
1A
102
}
330
1A
100
AcDbPlotSettings
  1

  2
none_device
  4
ANSI_A_(8.50_x_11.00_Inches)
  6

 40
6.349999904632568
 41
19.04999923706055
 42
6.350006103515625
 43
19.04998779296875
 44
215.8999938964844
 45
279.3999938964844
 46
0.0
 47
0.0
 48
0.0
 49
0.0
140
0.0
141
0.0
142
1.0
143
2.584895464708373
 70
 11952
 72
     0
 73
     1
 74
     0
  7

 75
     0
147
0.3868628397755418
148
0.0
149
0.0
100
AcDbLayout
  1
Model
 70
     1
 71
     0
 10
0.0
 20
0.0
 11
12.0
 21
9.0
 12
0.0
 22
0.0
 32
0.0
 14
0.0
 24
0.0
 34
0.0
 15
0.0
 25
0.0
 35
0.0
146
0.0
 13
0.0
 23
0.0
 33
0.0
 16
1.0
 26
0.0
 36
0.0
 17
0.0
 27
1.0
 37
0.0
 76
     0
330
1F
  0
MLINESTYLE
  5
18
102
{ACAD_REACTORS
330
17
102
}
330
17
100
AcDbMlineStyle
  2
STANDARD
 70
     0
  3

 62
   256
 51
90.0
 52
90.0
 71
     2
 49
0.5
 62
   256
  6
BYLAYER
 49
-0.5
 62
   256
  6
BYLAYER
  0
ACDBPLACEHOLDER
  5
F
102
{ACAD_REACTORS
330
E
102
}
330
E
  0
XRECORD
  5
D4D0
102
{ACAD_REACTORS
330
D4CE
102
}
330
D4CE
100
AcDbXrecord
280
     1
340
73
  0
XRECORD
  5
D4CF
102
{ACAD_REACTORS
330
D4CE
102
}
330
D4CE
100
AcDbXrecord
280
     1
340
72
  0
DICTIONARYVAR
  5
67
102
{ACAD_REACTORS
330
66
102
}
330
66
100
DictionaryVariables
280
     0
  1
2
  0
DICTIONARYVAR
  5
6B
102
{ACAD_REACTORS
330
66
102
}
330
66
100
DictionaryVariables
280
     0
  1
1
  0
DICTIONARYVAR
  5
1065
102
{ACAD_REACTORS
330
66
102
}
330
66
100
DictionaryVariables
280
     0
  1

  0
DICTIONARY
  5
D4D3
330
59
100
AcDbDictionary
280
     1
281
     1
  3
ACAD_XREC_ROUNDTRIP
360
D4D4
  0
DICTIONARY
  5
D4D5
330
5E
100
AcDbDictionary
280
     1
281
     1
  3
ACAD_XREC_ROUNDTRIP
360
D4D6
  0
DICTIONARY
  5
D4D1
330
22
100
AcDbDictionary
280
     1
281
     1
  3
ACAD_XREC_ROUNDTRIP
360
D4D2
  0
XRECORD
  5
D4D4
102
{ACAD_REACTORS
330
D4D3
102
}
330
D4D3
100
AcDbXrecord
280
     1
102
SHADEPLOT
 70
     0
102
SHADEPLOTRESLEVEL
 70
     2
102
SHADEPLOTCUSTOMDPI
 70
   300
  0
XRECORD
  5
D4D6
102
{ACAD_REACTORS
330
D4D5
102
}
330
D4D5
100
AcDbXrecord
280
     1
102
SHADEPLOT
 70
     0
102
SHADEPLOTRESLEVEL
 70
     2
102
SHADEPLOTCUSTOMDPI
 70
   300
  0
XRECORD
  5
D4D2
102
{ACAD_REACTORS
330
D4D1
102
}
330
D4D1
100
AcDbXrecord
280
     1
102
SHADEPLOT
 70
     0
102
SHADEPLOTRESLEVEL
 70
     2
102
SHADEPLOTCUSTOMDPI
 70
   300
  0
ENDSEC
  0
EOF
