  0
SECTION
  2
HEADER
  9
$ACADVER
  1
AC1015
  9
$ACADMAINTVER
 70
    20
  9
$DWGCODEPAGE
  3
ANSI_1252
  9
$INSBASE
 10
0.0
 20
0.0
 30
0.0
  9
$EXTMIN
 10
-216.0147944315966
 20
348.3243553926536
 30
-0.0000000349181948
  9
$EXTMAX
 10
-144.6691932662004
 20
432.4736627087944
 30
0.0000000814935746
  9
$LIMMIN
 10
0.0
 20
0.0
  9
$LIMMAX
 10
12.0
 20
9.0
  9
$ORTHOMODE
 70
     0
  9
$REGENMODE
 70
     1
  9
$FILLMODE
 70
     1
  9
$QTEXTMODE
 70
     0
  9
$MIRRTEXT
 70
     0
  9
$LTSCALE
 40
1.0
  9
$ATTMODE
 70
     1
  9
$TEXTSIZE
 40
0.2
  9
$TRACEWID
 40
0.05
  9
$TEXTSTYLE
  7
Standard
  9
$CLAYER
  8
0
  9
$CELTYPE
  6
ByLayer
  9
$CECOLOR
 62
   256
  9
$CELTSCALE
 40
1.0
  9
$DISPSILH
 70
     0
  9
$DIMSCALE
 40
1.0
  9
$DIMASZ
 40
0.18
  9
$DIMEXO
 40
0.0625
  9
$DIMDLI
 40
0.38
  9
$DIMRND
 40
0.0
  9
$DIMDLE
 40
0.0
  9
$DIMEXE
 40
0.18
  9
$DIMTP
 40
0.0
  9
$DIMTM
 40
0.0
  9
$DIMTXT
 40
0.18
  9
$DIMCEN
 40
0.09
  9
$DIMTSZ
 40
0.0
  9
$DIMTOL
 70
     0
  9
$DIMLIM
 70
     0
  9
$DIMTIH
 70
     1
  9
$DIMTOH
 70
     1
  9
$DIMSE1
 70
     0
  9
$DIMSE2
 70
     0
  9
$DIMTAD
 70
     0
  9
$DIMZIN
 70
     0
  9
$DIMBLK
  1

  9
$DIMASO
 70
     1
  9
$DIMSHO
 70
     1
  9
$DIMPOST
  1

  9
$DIMAPOST
  1

  9
$DIMALT
 70
     0
  9
$DIMALTD
 70
     2
  9
$DIMALTF
 40
25.4
  9
$DIMLFAC
 40
1.0
  9
$DIMTOFL
 70
     0
  9
$DIMTVP
 40
0.0
  9
$DIMTIX
 70
     0
  9
$DIMSOXD
 70
     0
  9
$DIMSAH
 70
     0
  9
$DIMBLK1
  1

  9
$DIMBLK2
  1

  9
$DIMSTYLE
  2
Standard
  9
$DIMCLRD
 70
     0
  9
$DIMCLRE
 70
     0
  9
$DIMCLRT
 70
     0
  9
$DIMTFAC
 40
1.0
  9
$DIMGAP
 40
0.09
  9
$DIMJUST
 70
     0
  9
$DIMSD1
 70
     0
  9
$DIMSD2
 70
     0
  9
$DIMTOLJ
 70
     1
  9
$DIMTZIN
 70
     0
  9
$DIMALTZ
 70
     0
  9
$DIMALTTZ
 70
     0
  9
$DIMUPT
 70
     0
  9
$DIMDEC
 70
     4
  9
$DIMTDEC
 70
     4
  9
$DIMALTU
 70
     2
  9
$DIMALTTD
 70
     2
  9
$DIMTXSTY
  7
Standard
  9
$DIMAUNIT
 70
     0
  9
$DIMADEC
 70
     0
  9
$DIMALTRND
 40
0.0
  9
$DIMAZIN
 70
     0
  9
$DIMDSEP
 70
    46
  9
$DIMATFIT
 70
     3
  9
$DIMFRAC
 70
     0
  9
$DIMLDRBLK
  1

  9
$DIMLUNIT
 70
     2
  9
$DIMLWD
 70
    -2
  9
$DIMLWE
 70
    -2
  9
$DIMTMOVE
 70
     0
  9
$LUNITS
 70
     2
  9
$LUPREC
 70
     4
  9
$SKETCHINC
 40
0.1
  9
$FILLETRAD
 40
0.0
  9
$AUNITS
 70
     0
  9
$AUPREC
 70
     0
  9
$MENU
  1
.
  9
$ELEVATION
 40
0.0
  9
$PELEVATION
 40
0.0
  9
$THICKNESS
 40
0.0
  9
$LIMCHECK
 70
     0
  9
$CHAMFERA
 40
0.0
  9
$CHAMFERB
 40
0.0
  9
$CHAMFERC
 40
0.0
  9
$CHAMFERD
 40
0.0
  9
$SKPOLY
 70
     0
  9
$TDCREATE
 40
2454861.564484954
  9
$TDUCREATE
 40
2454861.856151620
  9
$TDUPDATE
 40
2454861.594602407
  9
$TDUUPDATE
 40
2454861.886269074
  9
$TDINDWG
 40
0.0301232639
  9
$TDUSRTIMER
 40
0.0301211690
  9
$USRTIMER
 70
     1
  9
$ANGBASE
 50
0.0
  9
$ANGDIR
 70
     0
  9
$PDMODE
 70
     0
  9
$PDSIZE
 40
0.0
  9
$PLINEWID
 40
0.0
  9
$SPLFRAME
 70
     0
  9
$SPLINETYPE
 70
     6
  9
$SPLINESEGS
 70
     8
  9
$HANDSEED
  5
F6ED
  9
$SURFTAB1
 70
     6
  9
$SURFTAB2
 70
     6
  9
$SURFTYPE
 70
     6
  9
$SURFU
 70
     6
  9
$SURFV
 70
     6
  9
$UCSBASE
  2

  9
$UCSNAME
  2

  9
$UCSORG
 10
0.0
 20
0.0
 30
0.0
  9
$UCSXDIR
 10
1.0
 20
0.0
 30
0.0
  9
$UCSYDIR
 10
0.0
 20
1.0
 30
0.0
  9
$UCSORTHOREF
  2

  9
$UCSORTHOVIEW
 70
     0
  9
$UCSORGTOP
 10
0.0
 20
0.0
 30
0.0
  9
$UCSORGBOTTOM
 10
0.0
 20
0.0
 30
0.0
  9
$UCSORGLEFT
 10
0.0
 20
0.0
 30
0.0
  9
$UCSORGRIGHT
 10
0.0
 20
0.0
 30
0.0
  9
$UCSORGFRONT
 10
0.0
 20
0.0
 30
0.0
  9
$UCSORGBACK
 10
0.0
 20
0.0
 30
0.0
  9
$PUCSBASE
  2

  9
$PUCSNAME
  2

  9
$PUCSORG
 10
0.0
 20
0.0
 30
0.0
  9
$PUCSXDIR
 10
1.0
 20
0.0
 30
0.0
  9
$PUCSYDIR
 10
0.0
 20
1.0
 30
0.0
  9
$PUCSORTHOREF
  2

  9
$PUCSORTHOVIEW
 70
     0
  9
$PUCSORGTOP
 10
0.0
 20
0.0
 30
0.0
  9
$PUCSORGBOTTOM
 10
0.0
 20
0.0
 30
0.0
  9
$PUCSORGLEFT
 10
0.0
 20
0.0
 30
0.0
  9
$PUCSORGRIGHT
 10
0.0
 20
0.0
 30
0.0
  9
$PUCSORGFRONT
 10
0.0
 20
0.0
 30
0.0
  9
$PUCSORGBACK
 10
0.0
 20
0.0
 30
0.0
  9
$USERI1
 70
     0
  9
$USERI2
 70
     0
  9
$USERI3
 70
     0
  9
$USERI4
 70
     0
  9
$USERI5
 70
     0
  9
$USERR1
 40
0.0
  9
$USERR2
 40
0.0
  9
$USERR3
 40
0.0
  9
$USERR4
 40
0.0
  9
$USERR5
 40
0.0
  9
$WORLDVIEW
 70
     1
  9
$SHADEDGE
 70
     3
  9
$SHADEDIF
 70
    70
  9
$TILEMODE
 70
     1
  9
$MAXACTVP
 70
    64
  9
$PINSBASE
 10
0.0
 20
0.0
 30
0.0
  9
$PLIMCHECK
 70
     0
  9
$PEXTMIN
 10
0.0
 20
0.0
 30
0.0
  9
$PEXTMAX
 10
0.0
 20
0.0
 30
0.0
  9
$PLIMMIN
 10
0.0
 20
0.0
  9
$PLIMMAX
 10
12.0
 20
9.0
  9
$UNITMODE
 70
     0
  9
$VISRETAIN
 70
     1
  9
$PLINEGEN
 70
     0
  9
$PSLTSCALE
 70
     1
  9
$TREEDEPTH
 70
  3020
  9
$CMLSTYLE
  2
Standard
  9
$CMLJUST
 70
     0
  9
$CMLSCALE
 40
1.0
  9
$PROXYGRAPHICS
 70
     1
  9
$MEASUREMENT
 70
     0
  9
$CELWEIGHT
370
    -1
  9
$ENDCAPS
280
     0
  9
$JOINSTYLE
280
     0
  9
$LWDISPLAY
290
     0
  9
$INSUNITS
 70
     1
  9
$HYPERLINKBASE
  1

  9
$STYLESHEET
  1

  9
$XEDIT
290
     1
  9
$CEPSNTYPE
380
     0
  9
$PSTYLEMODE
290
     1
  9
$FINGERPRINTGUID
  2
{FDEAD576-A652-11D2-9A35-0060089B3A3F}
  9
$VERSIONGUID
  2
{5010E6F9-4C27-472D-B43F-1B9434D2F636}
  9
$EXTNAMES
290
     1
  9
$PSVPSCALE
 40
0.0
  9
$OLESTARTUP
290
     0
  0
ENDSEC
  0
SECTION
  2
CLASSES
  0
CLASS
  1
ACDBDICTIONARYWDFLT
  2
AcDbDictionaryWithDefault
  3
ObjectDBX Classes
 90
        0
280
     0
281
     0
  0
CLASS
  1
ACDBPLACEHOLDER
  2
AcDbPlaceHolder
  3
ObjectDBX Classes
 90
        0
280
     0
281
     0
  0
CLASS
  1
LAYOUT
  2
AcDbLayout
  3
ObjectDBX Classes
 90
        0
280
     0
281
     0
  0
CLASS
  1
DICTIONARYVAR
  2
AcDbDictionaryVar
  3
ObjectDBX Classes
 90
        0
280
     0
281
     0
  0
CLASS
  1
SORTENTSTABLE
  2
AcDbSortentsTable
  3
ObjectDBX Classes
 90
        0
280
     0
281
     0
  0
ENDSEC
  0
SECTION
  2
TABLES
  0
TABLE
  2
VPORT
  5
8
330
0
100
AcDbSymbolTable
 70
    72
  0
VPORT
  5
F6DF
330
8
100
AcDbSymbolTableRecord
100
AcDbViewportTableRecord
  2
*Active
 70
     0
 10
0.0
 20
0.0
 11
1.0
 21
1.0
 12
-180.3419938488985
 22
390.399009050724
 13
0.0
 23
0.0
 14
0.5
 24
0.5
 15
0.5
 25
0.5
 16
0.0
 26
0.0
 36
1.0
 17
0.0
 27
0.0
 37
0.0
 40
84.75688354225018
 41
1.48433734939759
 42
50.0
 43
0.0
 44
0.0
 50
0.0
 51
0.0
 71
     0
 72
  1000
 73
     1
 74
     3
 75
     0
 76
     0
 77
     0
 78
     0
281
     0
 65
     1
110
0.0
120
0.0
130
0.0
111
1.0
121
0.0
131
0.0
112
0.0
122
1.0
132
0.0
 79
     0
146
0.0
  0
ENDTAB
  0
TABLE
  2
LTYPE
  5
5
330
0
100
AcDbSymbolTable
 70
     6
  0
LTYPE
  5
14
330
5
100
AcDbSymbolTableRecord
100
AcDbLinetypeTableRecord
  2
ByBlock
 70
     0
  3

 72
    65
 73
     0
 40
0.0
  0
LTYPE
  5
15
330
5
100
AcDbSymbolTableRecord
100
AcDbLinetypeTableRecord
  2
ByLayer
 70
     0
  3

 72
    65
 73
     0
 40
0.0
  0
LTYPE
  5
16
330
5
100
AcDbSymbolTableRecord
100
AcDbLinetypeTableRecord
  2
Continuous
 70
     0
  3
Solid line
 72
    65
 73
     0
 40
0.0
  0
LTYPE
  5
96
330
5
100
AcDbSymbolTableRecord
100
AcDbLinetypeTableRecord
  2
HIDDEN2
 70
     0
  3
Hidden (.5x) _ _ _ _ _ _ _ _ _ _ _ _ _ _ _ _ _
 72
    65
 73
     2
 40
0.1875
 49
0.125
 74
     0
 49
-0.0625
 74
     0
  0
LTYPE
  5
97
330
5
100
AcDbSymbolTableRecord
100
AcDbLinetypeTableRecord
  2
DASHED
 70
     0
  3
Dashed __ __ __ __ __ __ __ __ __ __ __ __ __ _
 72
    65
 73
     2
 40
0.75
 49
0.5
 74
     0
 49
-0.25
 74
     0
  0
LTYPE
  5
98
330
5
100
AcDbSymbolTableRecord
100
AcDbLinetypeTableRecord
  2
CENTER
 70
     0
  3
Center ____ _ ____ _ ____ _ ____ _ ____ _ ____
 72
    65
 73
     4
 40
2.0
 49
1.25
 74
     0
 49
-0.25
 74
     0
 49
0.25
 74
     0
 49
-0.25
 74
     0
  0
LTYPE
  5
99
330
5
100
AcDbSymbolTableRecord
100
AcDbLinetypeTableRecord
  2
DASHED2
 70
     0
  3
_ _ _ _ _ _ _ _ _ _ _ _ _ _ _ _ _ _ _ _ _ _ _ _
 72
    65
 73
     2
 40
0.375
 49
0.25
 74
     0
 49
-0.125
 74
     0
  0
LTYPE
  5
9A
330
5
100
AcDbSymbolTableRecord
100
AcDbLinetypeTableRecord
  2
HIDDEN
 70
     0
  3
Hidden __ __ __ __ __ __ __ __ __ __ __ __ __ _
 72
    65
 73
     2
 40
0.375
 49
0.25
 74
     0
 49
-0.125
 74
     0
  0
ENDTAB
  0
TABLE
  2
LAYER
  5
2
102
{ACAD_XDICTIONARY
360
A9
102
}
330
0
100
AcDbSymbolTable
 70
    10
  0
LAYER
  5
10
330
2
100
AcDbSymbolTableRecord
100
AcDbLayerTableRecord
  2
0
 70
     0
 62
     7
  6
Continuous
370
    -3
390
F
  0
LAYER
  5
9B
330
2
100
AcDbSymbolTableRecord
100
AcDbLayerTableRecord
  2
DIM
 70
     0
 62
     3
  6
Continuous
370
    13
390
F
  0
LAYER
  5
9C
330
2
100
AcDbSymbolTableRecord
100
AcDbLayerTableRecord
  2
Defpoints
 70
     0
 62
   252
  6
Continuous
290
     0
370
    -3
390
F
  0
LAYER
  5
9D
330
2
100
AcDbSymbolTableRecord
100
AcDbLayerTableRecord
  2
A2 Hatch
 70
     0
 62
     8
  6
Continuous
370
     9
390
F
  0
LAYER
  5
9E
330
2
100
AcDbSymbolTableRecord
100
AcDbLayerTableRecord
  2
DETAILS
 70
     0
 62
     7
  6
Continuous
370
    13
390
F
  0
LAYER
  5
9F
330
2
100
AcDbSymbolTableRecord
100
AcDbLayerTableRecord
  2
A4 medium
 70
     0
 62
     7
  6
Continuous
370
    35
390
F
  0
LAYER
  5
A0
330
2
100
AcDbSymbolTableRecord
100
AcDbLayerTableRecord
  2
REBAR
 70
     0
 62
     2
  6
CENTER
370
    30
390
F
  0
LAYER
  5
28AC
330
2
100
AcDbSymbolTableRecord
100
AcDbLayerTableRecord
  2
A5 heavy
 70
     0
 62
     5
  6
Continuous
370
    53
390
F
  0
LAYER
  5
2FC3
330
2
100
AcDbSymbolTableRecord
100
AcDbLayerTableRecord
  2
GRADE
 70
     0
 62
     5
  6
Continuous
370
   100
390
F
  0
LAYER
  5
51AE
330
2
100
AcDbSymbolTableRecord
100
AcDbLayerTableRecord
  2
HANGERS
 70
     0
 62
   253
  6
Continuous
370
    -3
390
F
  0
ENDTAB
  0
TABLE
  2
STYLE
  5
3
330
0
100
AcDbSymbolTable
 70
     5
  0
STYLE
  5
11
330
3
100
AcDbSymbolTableRecord
100
AcDbTextStyleTableRecord
  2
Standard
 70
     0
 40
0.0
 41
1.0
 50
0.0
 71
     0
 42
0.2
  3
txt
  4

  0
STYLE
  5
A1
330
3
100
AcDbSymbolTableRecord
100
AcDbTextStyleTableRecord
  2
ARCHITXT
 70
     0
 40
0.0
 41
1.25
 50
0.0
 71
     0
 42
1.0
  3
ARCHITXT.shx
  4

  0
STYLE
  5
A2
330
3
100
AcDbSymbolTableRecord
100
AcDbTextStyleTableRecord
  2
ARCTEXT
 70
     0
 40
0.0
 41
0.85
 50
0.0
 71
     0
 42
5.096770384644268
  3
arctext.shx
  4

  0
STYLE
  5
A3
330
3
100
AcDbSymbolTableRecord
100
AcDbTextStyleTableRecord
  2
ROMAND
 70
     0
 40
0.0
 41
0.85
 50
0.0
 71
     0
 42
6.0
  3
romand.shx
  4

  0
STYLE
  5
A4
330
3
100
AcDbSymbolTableRecord
100
AcDbTextStyleTableRecord
  2
RomanC
 70
     0
 40
5.0
 41
0.85
 50
0.0
 71
     0
 42
10.0
  3
romanc.shx
  4

  0
ENDTAB
  0
TABLE
  2
VIEW
  5
6
330
0
100
AcDbSymbolTable
 70
     0
  0
ENDTAB
  0
TABLE
  2
UCS
  5
7
330
0
100
AcDbSymbolTable
 70
     0
  0
ENDTAB
  0
TABLE
  2
APPID
  5
9
330
0
100
AcDbSymbolTable
 70
     1
  0
APPID
  5
12
330
9
100
AcDbSymbolTableRecord
100
AcDbRegAppTableRecord
  2
ACAD
 70
     0
  0
ENDTAB
  0
TABLE
  2
DIMSTYLE
  5
A
330
0
100
AcDbSymbolTable
 70
     5
100
AcDbDimStyleTable
 71
     0
  0
DIMSTYLE
105
27
330
A
100
AcDbSymbolTableRecord
100
AcDbDimStyleTableRecord
  2
Standard
 70
     0
340
11
  0
DIMSTYLE
105
A5
330
A
100
AcDbSymbolTableRecord
100
AcDbDimStyleTableRecord
  2
Copy of ROMANS
 70
     0
 41
0.75
 42
0.125
 43
0.125
 44
0.125
 73
     0
 74
     0
 77
     1
 78
     3
140
1.0
141
6.0
147
0.25
172
     1
175
     1
176
     2
177
     2
178
     2
271
     3
272
     3
273
     4
275
     1
277
     4
279
     2
284
     3
285
     3
286
     3
340
A1
  0
DIMSTYLE
105
A6
330
A
100
AcDbSymbolTableRecord
100
AcDbDimStyleTableRecord
  2
ARCTEXT
 70
     0
 40
0.0
 41
2.0
 42
1.0
 43
0.375
 44
0.1875
 73
     0
 74
     0
140
4.0
141
2.0
147
2.0
176
     2
177
     2
178
     2
277
     4
340
A2
341
8D
342
89
  0
DIMSTYLE
105
A7
102
{ACAD_REACTORS
330
1B1
330
1B7
330
1B6
330
199
330
1F8
330
1E9
330
1E8
330
19D
330
19C
330
481
102
}
330
A
100
AcDbSymbolTableRecord
100
AcDbDimStyleTableRecord
  2
ARCTEXT1-4
 70
     0
 41
2.0
 42
2.0
 43
2.0
 44
2.0
 73
     0
 74
     0
 77
     1
 78
     3
140
4.0
141
2.0
147
2.0
172
     1
175
     1
275
     1
277
     4
279
     2
340
A2
341
8D
342
89
  0
DIMSTYLE
105
A8
330
A
100
AcDbSymbolTableRecord
100
AcDbDimStyleTableRecord
  2
ARCTEXT 1-1
 70
     0
 40
0.0
 41
1.0
 42
1.0
 43
0.375
 44
0.1875
 73
     0
 74
     0
 77
     1
 78
     3
140
1.0
141
1.0
147
0.5
176
   256
177
   256
178
   256
277
     4
279
     2
340
A2
341
8D
342
89
  0
ENDTAB
  0
TABLE
  2
BLOCK_RECORD
  5
1
330
0
100
AcDbSymbolTable
 70
    41
  0
BLOCK_RECORD
  5
1F
330
1
100
AcDbSymbolTableRecord
100
AcDbBlockTableRecord
  2
*Model_Space
340
22
  0
BLOCK_RECORD
  5
58
330
1
100
AcDbSymbolTableRecord
100
AcDbBlockTableRecord
  2
*Paper_Space
340
59
  0
BLOCK_RECORD
  5
5D
330
1
100
AcDbSymbolTableRecord
100
AcDbBlockTableRecord
  2
*Paper_Space0
340
5E
  0
BLOCK_RECORD
  5
89
330
1
100
AcDbSymbolTableRecord
100
AcDbBlockTableRecord
  2
_ArchTick
340
0
  0
BLOCK_RECORD
  5
8D
330
1
100
AcDbSymbolTableRecord
100
AcDbBlockTableRecord
  2
arrow
340
0
310
2800000020000000200000000100080000000000000400000000000000000000000000000000000000000000000080000080000000808000800000008000800080800000C0C0C000C0DCC000F0CAA6000020400000206000002080000020A0000020C0000020E00000400000004020000040400000406000004080000040A0
310
000040C0000040E00000600000006020000060400000606000006080000060A0000060C0000060E00000800000008020000080400000806000008080000080A0000080C0000080E00000A0000000A0200000A0400000A0600000A0800000A0A00000A0C00000A0E00000C0000000C0200000C0400000C0600000C0800000C0
310
A00000C0C00000C0E00000E0000000E0200000E0400000E0600000E0800000E0A00000E0C00000E0E00040000000400020004000400040006000400080004000A0004000C0004000E00040200000402020004020400040206000402080004020A0004020C0004020E000404000004040200040404000404060004040800040
310
40A0004040C0004040E00040600000406020004060400040606000406080004060A0004060C0004060E00040800000408020004080400040806000408080004080A0004080C0004080E00040A0000040A0200040A0400040A0600040A0800040A0A00040A0C00040A0E00040C0000040C0200040C0400040C0600040C08000
310
40C0A00040C0C00040C0E00040E0000040E0200040E0400040E0600040E0800040E0A00040E0C00040E0E00080000000800020008000400080006000800080008000A0008000C0008000E00080200000802020008020400080206000802080008020A0008020C0008020E00080400000804020008040400080406000804080
310
008040A0008040C0008040E00080600000806020008060400080606000806080008060A0008060C0008060E00080800000808020008080400080806000808080008080A0008080C0008080E00080A0000080A0200080A0400080A0600080A0800080A0A00080A0C00080A0E00080C0000080C0200080C0400080C0600080C0
310
800080C0A00080C0C00080C0E00080E0000080E0200080E0400080E0600080E0800080E0A00080E0C00080E0E000C0000000C0002000C0004000C0006000C0008000C000A000C000C000C000E000C0200000C0202000C0204000C0206000C0208000C020A000C020C000C020E000C0400000C0402000C0404000C0406000C0
310
408000C040A000C040C000C040E000C0600000C0602000C0604000C0606000C0608000C060A000C060C000C060E000C0800000C0802000C0804000C0806000C0808000C080A000C080C000C080E000C0A00000C0A02000C0A04000C0A06000C0A08000C0A0A000C0A0C000C0A0E000C0C00000C0C02000C0C04000C0C06000
310
C0C08000C0C0A000F0FBFF00A4A0A000808080000000FF0000FF000000FFFF00FF000000FF00FF00FFFF0000FFFFFF0000000000000000000000000000000000000000000000000000000000000000000000000000000000000000000000000000000000000000000000000000000000000000000000000000000000000000
310
0000000000000000000000000000000000000000000000000000000000000000000000000000000000000000000000000000000000000000000000000000000000000000000000000000000000000000000000000000000000000000000000000000000000000000000000000000000000000000000000FA00000000000000
310
000000000000000000000000000000000000000000000000FA00000000000000000000000000000000000000000000000000000000000000FA0000000000000000000000000000000000000000000000000000FAFA000000FA00000000000000000000000000000000000000000000000000000000FAFA00FA000000000000
310
000000000000000000000000000000000000000000000000FAF7F7000000000000000000000000000000000000000000000000000000000000F7F7F7F7F7F70000000000000000000000000000000000000000000000000000F7F7F7F7F7F7F7F7F7F700000000000000000000000000000000000000000000F7F7F7F7F7F7
310
F7F7F7F7F7F7F7F7000000000000000000000000000000000000F7F7F7F7F7F7F7F7F7F7F7F7F7F7F7F7F7F70000000000FAFA00000000000000F7F7F7F7F7F7F7F7F7F7F7F7F7F7F7F7F7F7F7F7F7FAFAFAFA00000000000000F7F7F7F7F7F7F7F7F7F7F7F7F7F7F7F7F7F70000000000000000000000000000F7F7F7F7F7
310
F7F7F7F7F7F7F7F700000000000000000000000000000000000000F7F7F7F7F7F7F7F70000000000000000000000000000000000000000000000FAF7F7F70000000000000000000000000000000000000000000000000000FAFA00FA0000000000000000000000000000000000000000000000000000FAFA000000FA000000
310
00000000000000000000000000000000000000000000000000000000FA00000000000000000000000000000000000000000000000000000000000000FA00000000000000000000000000000000000000000000000000000000000000FA00000000000000000000000000000000000000000000000000000000000000000000
310
00000000000000000000000000000000000000000000000000000000000000000000000000000000000000000000000000000000000000000000000000000000000000000000000000000000000000000000000000000000000000000000000000000000000000000000000000000000000000000000000000000000000000
310
0000000000000000000000000000000000000000000000000000000000000000000000000000000000000000000000000000000000000000
1001
ACAD
1000
DesignCenter Data
1002
{
1070
     1
1070
     1
1002
}
  0
ENDTAB
  0
ENDSEC
  0
SECTION
  2
BLOCKS
  0
BLOCK
  5
20
330
1F
100
AcDbEntity
  8
0
100
AcDbBlockBegin
  2
*Model_Space
 70
     0
 10
0.0
 20
0.0
 30
0.0
  3
*Model_Space
  1

  0
ENDBLK
  5
21
330
1F
100
AcDbEntity
  8
0
100
AcDbBlockEnd
  0
BLOCK
  5
5A
330
58
100
AcDbEntity
 67
     1
  8
0
100
AcDbBlockBegin
  2
*Paper_Space
 70
     0
 10
0.0
 20
0.0
 30
0.0
  3
*Paper_Space
  1

  0
ENDBLK
  5
5B
330
58
100
AcDbEntity
 67
     1
  8
0
100
AcDbBlockEnd
  0
BLOCK
  5
5F
330
5D
100
AcDbEntity
  8
0
100
AcDbBlockBegin
  2
*Paper_Space0
 70
     0
 10
0.0
 20
0.0
 30
0.0
  3
*Paper_Space0
  1

  0
ENDBLK
  5
60
330
5D
100
AcDbEntity
  8
0
100
AcDbBlockEnd
  0
BLOCK
  5
8A
330
89
100
AcDbEntity
  8
0
100
AcDbBlockBegin
  2
_ArchTick
 70
     0
 10
0.0
 20
0.0
 30
0.0
  3
_ArchTick
  1

  0
LWPOLYLINE
  5
8B
330
89
100
AcDbEntity
  8
0
  6
ByBlock
 62
     0
100
AcDbPolyline
 90
        2
 70
     0
 43
0.15
 10
-0.5
 20
-0.5
 10
0.5
 20
0.5
  0
ENDBLK
  5
8C
330
89
100
AcDbEntity
  8
0
100
AcDbBlockEnd
  0
BLOCK
  5
8E
330
8D
100
AcDbEntity
  8
0
100
AcDbBlockBegin
  2
arrow
 70
     0
 10
0.0
 20
0.0
 30
0.0
  3
arrow
  1

  0
HATCH
  5
8F
330
8D
100
AcDbEntity
  8
DIM
 62
   253
100
AcDbHatch
 10
0.0
 20
0.0
 30
0.0
210
0.0
220
0.0
230
1.0
  2
SOLID
 70
     1
 71
     0
 91
        1
 92
        7
 72
     0
 73
     1
 93
        3
 10
-2.0
 20
0.5
 10
-2.0
 20
-0.5
 10
0.0
 20
0.0
 97
        0
 75
     0
 76
     1
 47
0.0337394080685346
 98
        1
 10
-1.103351122172171
 20
0.05064816270351
  0
LWPOLYLINE
  5
90
330
8D
100
AcDbEntity
  8
DIM
370
    15
100
AcDbPolyline
 90
        4
 70
     0
 43
0.0
 10
0.0
 20
0.0
 10
-2.0
 20
-0.5
 10
-2.0
 20
0.5
 10
0.0
 20
0.0
  0
LWPOLYLINE
  5
91
330
8D
100
AcDbEntity
  8
DIM
370
     9
100
AcDbPolyline
 90
        2
 70
     0
 43
0.0
 10
0.3742552490839444
 20
0.0935638122700766
 10
0.0
 20
0.0
  0
LWPOLYLINE
  5
92
330
8D
100
AcDbEntity
  8
DIM
370
     9
100
AcDbPolyline
 90
        3
 70
     0
 43
0.0
 10
-2.0
 20
-0.9831764405007561
 10
-2.0
 20
-0.5
 10
-2.46875
 20
-0.6171875
  0
LWPOLYLINE
  5
93
330
8D
100
AcDbEntity
  8
DIM
370
     9
100
AcDbPolyline
 90
        3
 70
     0
 43
0.0
 10
-2.0
 20
0.9831764405007561
 10
-2.0
 20
0.5
 10
-2.46875
 20
0.6171875
  0
LWPOLYLINE
  5
94
330
8D
100
AcDbEntity
  8
DIM
370
     9
100
AcDbPolyline
 90
        2
 70
     0
 43
0.0
 10
0.3742552490839444
 20
-0.0935638122700766
 10
0.0
 20
0.0
  0
ENDBLK
  5
95
330
8D
100
AcDbEntity
  8
0
100
AcDbBlockEnd
  0
ENDSEC
  0
SECTION
  2
ENTITIES
  0
LINE
  5
F4DA
330
1F
100
AcDbEntity
  8
0
 62
     1
100
AcDbLine
 10
-192.4383595255865
 20
401.7986983012615
 30
0.0
 11
-192.4383595255865
 21
395.7986923160129
 31
0.0
  0
LINE
  5
F4DB
330
1F
100
AcDbEntity
  8
0
 62
     1
100
AcDbLine
 10
-192.4383595255865
 20
395.7986923160129
 30
0.0
 11
-190.4383595255865
 21
395.7986923160129
 31
0.0
  0
LINE
  5
F4DC
330
1F
100
AcDbEntity
  8
0
 62
     1
100
AcDbLine
 10
-190.4383595255865
 20
401.7986983012615
 30
0.0
 11
-190.4383595255865
 21
395.7986923160129
 31
0.0
  0
LINE
  5
F4DD
330
1F
100
AcDbEntity
  8
0
 62
     1
100
AcDbLine
 10
-192.0883595255843
 20
401.7986983012615
 30
0.0
 11
-192.0883595255861
 21
395.7986923160129
 31
0.0
  0
LINE
  5
F4DE
330
1F
100
AcDbEntity
  8
0
 62
     1
100
AcDbLine
 10
-190.6383595255872
 20
401.7986983012615
 30
0.0
 11
-190.6383595255854
 21
395.7986923160129
 31
0.0
  0
LINE
  5
F4DF
330
1F
100
AcDbEntity
  8
A2 Hatch
  6
DASHED2
 48
0.15
100
AcDbLine
 10
-191.6733595255871
 20
407.7987019971526
 30
0.0
 11
-191.6733595255853
 21
395.7986923160129
 31
0.0
  0
LINE
  5
F4E0
330
1F
100
AcDbEntity
  8
A2 Hatch
  6
DASHED2
 48
0.15
100
AcDbLine
 10
-190.8533595255855
 20
407.7986995432007
 30
0.0
 11
-190.8533595255855
 21
395.7986923160129
 31
0.0
  0
LINE
  5
F4E1
330
1F
100
AcDbEntity
  8
0
 62
     1
100
AcDbLine
 10
-191.5133595255854
 20
401.7986983012615
 30
0.0
 11
-191.5133595255854
 21
395.7986923160129
 31
0.0
  0
LINE
  5
F4E2
330
1F
100
AcDbEntity
  8
0
 62
     1
100
AcDbLine
 10
-191.0133595255854
 20
401.7986983012615
 30
0.0
 11
-191.0133595255854
 21
395.7986923160129
 31
0.0
  0
LINE
  5
F4E3
330
1F
100
AcDbEntity
  8
0
  6
HIDDEN
 62
     1
 48
0.02
100
AcDbLine
 10
-192.0883595255861
 20
396.298692316013
 30
0.0
 11
-191.4633595255861
 21
396.298692316013
 31
0.0
  0
LINE
  5
F4E4
330
1F
100
AcDbEntity
  8
0
  6
HIDDEN
 62
     1
 48
0.02
100
AcDbLine
 10
-191.0633595255865
 20
396.298692316013
 30
0.0
 11
-191.0633595255865
 21
395.7986923160129
 31
0.0
  0
LINE
  5
F4E5
330
1F
100
AcDbEntity
  8
0
  6
HIDDEN
 62
     1
 48
0.02
100
AcDbLine
 10
-191.4633595255861
 20
396.298692316013
 30
0.0
 11
-191.4633595255843
 21
395.7986923160129
 31
0.0
  0
LINE
  5
F4E6
330
1F
100
AcDbEntity
  8
0
  6
HIDDEN
 62
     1
 48
0.02
100
AcDbLine
 10
-191.0633595255865
 20
396.298692316013
 30
0.0
 11
-190.4383595255865
 21
396.298692316013
 31
0.0
  0
LINE
  5
F4E7
330
1F
100
AcDbEntity
  8
0
 62
     1
100
AcDbLine
 10
-180.4383595255847
 20
397.2986983012616
 30
0.0
 11
-180.4383595255847
 21
395.7986923160129
 31
0.0
  0
LINE
  5
F4E8
330
1F
100
AcDbEntity
  8
0
 62
     1
100
AcDbLine
 10
-182.4383595255865
 20
397.2986983012616
 30
0.0
 11
-182.4383595255847
 21
395.7986923160129
 31
0.0
  0
LINE
  5
F4E9
330
1F
100
AcDbEntity
  8
0
 62
     1
100
AcDbLine
 10
-182.2383595255858
 20
397.2986983012616
 30
0.0
 11
-182.2383595255858
 21
395.7986923160129
 31
0.0
  0
LINE
  5
F4EA
330
1F
100
AcDbEntity
  8
0
 62
     1
100
AcDbLine
 10
-182.0233595255856
 20
397.2986983012616
 30
0.0
 11
-182.0233595255856
 21
395.7986923160129
 31
0.0
  0
LINE
  5
F4EB
330
1F
100
AcDbEntity
  8
0
 62
     1
100
AcDbLine
 10
-181.2033595255859
 20
397.2986983012616
 30
0.0
 11
-181.2033595255859
 21
395.7986923160129
 31
0.0
  0
LINE
  5
F4EC
330
1F
100
AcDbEntity
  8
A2 Hatch
  6
DASHED2
 48
0.15
100
AcDbLine
 10
-181.8633595255858
 20
397.2986983012616
 30
0.0
 11
-181.8633595255858
 21
395.7986923160129
 31
0.0
  0
LINE
  5
F4ED
330
1F
100
AcDbEntity
  8
A2 Hatch
  6
DASHED2
 48
0.15
100
AcDbLine
 10
-181.3633595255858
 20
397.2986983012616
 30
0.0
 11
-181.3633595255858
 21
395.7986923160129
 31
0.0
  0
LINE
  5
F4EE
330
1F
100
AcDbEntity
  8
0
 62
     1
100
AcDbLine
 10
-182.4383595255847
 20
395.7986923160129
 30
0.0
 11
-180.4383595255847
 21
395.7986923160129
 31
0.0
  0
LINE
  5
F4EF
330
1F
100
AcDbEntity
  8
0
  6
HIDDEN
 62
     1
 48
0.02
100
AcDbLine
 10
-180.7883595255832
 20
396.2986923160134
 30
0.0
 11
-180.7883595255832
 21
395.7986923160134
 31
0.0
  0
LINE
  5
F4F0
330
1F
100
AcDbEntity
  8
0
  6
HIDDEN
 62
     1
 48
0.02
100
AcDbLine
 10
-181.8133595255847
 20
396.2986923160134
 30
0.0
 11
-181.8133595255847
 21
395.7986923160134
 31
0.0
  0
LINE
  5
F4F1
330
1F
100
AcDbEntity
  8
0
  6
HIDDEN
 62
     1
 48
0.02
100
AcDbLine
 10
-181.4133595255832
 20
396.2986923160134
 30
0.0
 11
-181.4133595255832
 21
395.7986923160134
 31
0.0
  0
LINE
  5
F4F2
330
1F
100
AcDbEntity
  8
0
  6
HIDDEN
 62
     1
 48
0.02
100
AcDbLine
 10
-182.4383595255829
 20
396.2986923160134
 30
0.0
 11
-181.8133595255829
 21
396.2986923160134
 31
0.0
  0
LINE
  5
F4F3
330
1F
100
AcDbEntity
  8
0
  6
HIDDEN
 62
     1
 48
0.02
100
AcDbLine
 10
-181.4133595255832
 20
396.2986923160134
 30
0.0
 11
-180.7883595255832
 21
396.2986923160134
 31
0.0
  0
LWPOLYLINE
  5
F4F4
330
1F
100
AcDbEntity
  8
DETAILS
 62
     6
370
    20
100
AcDbPolyline
 90
        6
 70
     0
 43
0.0
 10
-188.4383595255865
 20
399.2486923160132
 10
-189.5889910335706
 20
399.2486923160132
 10
-189.6867186404458
 20
399.2266027435135
 42
0.7807764064044151
 10
-189.6867186404458
 20
399.2207818885127
 10
-189.5889910335688
 20
399.198692316013
 10
-188.4383595255865
 20
399.198692316013
  0
LWPOLYLINE
  5
F4F5
330
1F
100
AcDbEntity
  8
DETAILS
 62
     6
370
    20
100
AcDbPolyline
 90
        4
 70
     0
 43
0.0
 10
-190.4383595255865
 20
399.9980608080246
 10
-190.0682803554525
 20
399.6279816378942
 42
0.1989123673781765
 10
-189.9975696773333
 20
399.5986923160131
 10
-188.4383595255865
 20
399.5986923160131
  0
LWPOLYLINE
  5
F4F6
330
1F
100
AcDbEntity
  8
DETAILS
 62
     6
370
    20
100
AcDbPolyline
 90
        4
 70
     0
 43
0.0
 10
-190.4383595255865
 20
400.1980608080235
 10
-190.1854376429771
 20
399.9451389254173
 42
0.1989123673777967
 10
-189.8318842523865
 20
399.7986923160129
 10
-188.4383595255865
 20
399.7986923160129
  0
LWPOLYLINE
  5
F4F7
330
1F
100
AcDbEntity
  8
DETAILS
 62
     6
370
    20
100
AcDbPolyline
 90
        4
 70
     0
 43
0.0
 10
-188.4383595255865
 20
399.448692316013
 10
-189.938991033571
 20
399.448692316013
 10
-189.938991033571
 20
399.2986923160129
 10
-188.4383595255865
 20
399.2986923160129
  0
LWPOLYLINE
  5
F4F8
330
1F
100
AcDbEntity
  8
DETAILS
 62
     6
370
    20
100
AcDbPolyline
 90
        4
 70
     0
 43
0.0
 10
-188.4383595255865
 20
399.1486923160128
 10
-189.9975696773333
 20
399.1486923160128
 42
0.1989123673782987
 10
-190.0682803554525
 20
399.1194029941322
 10
-190.4383595255865
 20
398.7493238240014
  0
LWPOLYLINE
  5
F4F9
330
1F
100
AcDbEntity
  8
DETAILS
 62
     6
370
    20
100
AcDbPolyline
 90
        6
 70
     0
 43
0.0
 10
-189.0677963173536
 20
398.948692316013
 10
-189.1609656159824
 20
398.948692316013
 10
-189.0677963173536
 20
398.948692316013
 42
0.2793220653054726
 10
-189.0234760806258
 20
398.975546760833
 42
-0.6059183769079624
 10
-188.4519616256445
 20
398.9755467613343
 42
0.1073954964948099
 10
-188.4383595255865
 20
398.9592411292318
 42
0.1073954964948099
  0
LWPOLYLINE
  5
F4FA
330
1F
100
AcDbEntity
  8
DETAILS
 62
     6
370
    20
100
AcDbPolyline
 90
        7
 70
     0
 43
0.0
 10
-190.4383595255865
 20
398.1486923160129
 10
-189.3176593927971
 20
398.1486923160129
 42
0.4853378929632635
 10
-189.1523955300261
 20
398.3585402226339
 10
-189.3429145358484
 20
399.1486923160128
 10
-189.938991033571
 20
399.1486923160128
 10
-189.6889910335692
 20
399.1486923160128
 10
-189.5889910335688
 20
399.1486923160128
  0
LWPOLYLINE
  5
F4FB
330
1F
100
AcDbEntity
  8
DETAILS
 62
     6
370
    20
100
AcDbPolyline
 90
        4
 70
     0
 43
0.0
 10
-190.4383595255865
 20
398.0186923160132
 10
-189.3176593927971
 20
398.0186923160132
 42
0.4853378929632635
 10
-189.0260172820242
 20
398.3890121512264
 10
-189.2091889915616
 20
399.1486923160128
  0
LWPOLYLINE
  5
F4FC
330
1F
100
AcDbEntity
  8
DETAILS
 62
     6
370
    20
100
AcDbPolyline
 90
        4
 70
     0
 43
0.0
 10
-189.2946911602692
 20
398.948692316013
 10
-189.8318842523847
 20
398.948692316013
 42
0.1989123673788306
 10
-190.1854376429771
 20
398.8022457066073
 10
-190.4383595255865
 20
398.5493238239993
  0
LWPOLYLINE
  5
F4FD
330
1F
100
AcDbEntity
  8
DETAILS
 62
     6
370
    20
100
AcDbPolyline
 90
        4
 70
     0
 43
0.0
 10
-190.4383595255865
 20
398.9993238239982
 10
-190.170057050748
 20
399.2676262988353
 42
0.4142135623745727
 10
-190.1700570507498
 20
399.4797583331916
 10
-190.4383595255865
 20
399.7480608080269
  0
LINE
  5
F4FE
330
1F
100
AcDbEntity
  8
0
 62
     1
100
AcDbLine
 10
-192.4383595255865
 20
395.7986923160129
 30
0.0
 11
-192.4383595255865
 21
383.798692316013
 31
0.0
  0
LINE
  5
F4FF
330
1F
100
AcDbEntity
  8
0
 62
     1
100
AcDbLine
 10
-192.4383595255865
 20
395.7986923160129
 30
0.0
 11
-190.8883595255854
 21
395.7986923160129
 31
0.0
  0
LINE
  5
F500
330
1F
100
AcDbEntity
  8
0
 62
     1
100
AcDbLine
 10
-192.4383595255865
 20
383.798692316013
 30
0.0
 11
-190.4383595255865
 21
383.798692316013
 31
0.0
  0
LINE
  5
F501
330
1F
100
AcDbEntity
  8
0
 62
     1
100
AcDbLine
 10
-190.4383595255865
 20
396.298692316013
 30
0.0
 11
-190.4383595255865
 21
383.798692316013
 31
0.0
  0
LINE
  5
F502
330
1F
100
AcDbEntity
  8
0
 62
     1
100
AcDbLine
 10
-192.0883595255861
 20
396.298692316013
 30
0.0
 11
-191.4633595255861
 21
396.298692316013
 31
0.0
  0
LINE
  5
F503
330
1F
100
AcDbEntity
  8
0
 62
     1
100
AcDbLine
 10
-192.0883595255861
 20
396.298692316013
 30
0.0
 11
-192.0883595255861
 21
383.798692316013
 31
0.0
  0
LINE
  5
F504
330
1F
100
AcDbEntity
  8
0
 62
     1
100
AcDbLine
 10
-191.0633595255865
 20
396.298692316013
 30
0.0
 11
-191.0633595255865
 21
395.7986923160129
 31
0.0
  0
LINE
  5
F505
330
1F
100
AcDbEntity
  8
0
 62
     1
100
AcDbLine
 10
-191.4633595255861
 20
396.298692316013
 30
0.0
 11
-191.4633595255843
 21
395.7986923160129
 31
0.0
  0
LINE
  5
F506
330
1F
100
AcDbEntity
  8
0
 62
     1
100
AcDbLine
 10
-191.0633595255865
 20
396.298692316013
 30
0.0
 11
-190.4383595255865
 21
396.298692316013
 31
0.0
  0
LINE
  5
F507
330
1F
100
AcDbEntity
  8
0
 62
     1
100
AcDbLine
 10
-190.6383595255854
 20
396.048692316013
 30
0.0
 11
-190.6383595255854
 21
383.798692316013
 31
0.0
  0
LINE
  5
F508
330
1F
100
AcDbEntity
  8
0
 62
     1
100
AcDbLine
 10
-190.8883595255854
 20
396.048692316013
 30
0.0
 11
-190.8883595255854
 21
395.7986923160129
 31
0.0
  0
LINE
  5
F509
330
1F
100
AcDbEntity
  8
0
 62
     1
100
AcDbLine
 10
-190.8883595255854
 20
396.048692316013
 30
0.0
 11
-190.6383595255854
 21
396.048692316013
 31
0.0
  0
LINE
  5
F50A
330
1F
100
AcDbEntity
  8
0
 62
     1
100
AcDbLine
 10
-190.6383595255854
 20
395.7986923160129
 30
0.0
 11
-190.4383595255865
 21
395.7986923160129
 31
0.0
  0
LINE
  5
F50B
330
1F
100
AcDbEntity
  8
0
 48
0.15
100
AcDbLine
 10
-191.4633595255861
 20
395.7986923160129
 30
0.0
 11
-191.0633595255865
 21
395.7986923160129
 31
0.0
  0
LINE
  5
F50C
330
1F
100
AcDbEntity
  8
A2 Hatch
  6
DASHED2
 48
0.15
100
AcDbLine
 10
-191.6733595255871
 20
396.298692316013
 30
0.0
 11
-191.6733595255853
 21
383.798692316013
 31
0.0
  0
LINE
  5
F50D
330
1F
100
AcDbEntity
  8
A2 Hatch
  6
DASHED2
 48
0.15
100
AcDbLine
 10
-190.8533595255855
 20
396.298692316013
 30
0.0
 11
-190.8533595255855
 21
383.798692316013
 31
0.0
  0
LINE
  5
F50E
330
1F
100
AcDbEntity
  8
0
 62
     1
100
AcDbLine
 10
-191.5133595255854
 20
396.298692316013
 30
0.0
 11
-191.5133595255854
 21
383.798692316013
 31
0.0
  0
LINE
  5
F50F
330
1F
100
AcDbEntity
  8
0
 62
     1
100
AcDbLine
 10
-191.0133595255854
 20
396.298692316013
 30
0.0
 11
-191.0133595255854
 21
383.798692316013
 31
0.0
  0
LINE
  5
F510
330
1F
100
AcDbEntity
  8
0
 62
     1
100
AcDbLine
 10
-191.0133595255854
 20
395.7986923160129
 30
0.0
 11
-191.5133595255854
 21
395.7986923160129
 31
0.0
  0
LINE
  5
F511
330
1F
100
AcDbEntity
  8
0
  6
HIDDEN
 62
     1
 48
0.02
100
AcDbLine
 10
-192.0883595255861
 20
384.2986923160129
 30
0.0
 11
-191.4633595255861
 21
384.2986923160129
 31
0.0
  0
LINE
  5
F512
330
1F
100
AcDbEntity
  8
0
  6
HIDDEN
 62
     1
 48
0.02
100
AcDbLine
 10
-191.0633595255865
 20
384.2986923160129
 30
0.0
 11
-191.0633595255865
 21
383.798692316013
 31
0.0
  0
LINE
  5
F513
330
1F
100
AcDbEntity
  8
0
  6
HIDDEN
 62
     1
 48
0.02
100
AcDbLine
 10
-191.4633595255861
 20
384.2986923160129
 30
0.0
 11
-191.4633595255843
 21
383.798692316013
 31
0.0
  0
LINE
  5
F514
330
1F
100
AcDbEntity
  8
0
  6
HIDDEN
 62
     1
 48
0.02
100
AcDbLine
 10
-191.0633595255865
 20
384.2986923160129
 30
0.0
 11
-190.4383595255865
 21
384.2986923160129
 31
0.0
  0
LINE
  5
F515
330
1F
100
AcDbEntity
  8
0
 62
     1
100
AcDbLine
 10
-180.4383595255847
 20
395.7986923160129
 30
0.0
 11
-180.4383595255847
 21
383.798692316013
 31
0.0
  0
LINE
  5
F516
330
1F
100
AcDbEntity
  8
0
 62
     1
100
AcDbLine
 10
-182.4383595255865
 20
396.298692316013
 30
0.0
 11
-182.4383595255847
 21
383.798692316013
 31
0.0
  0
LINE
  5
F517
330
1F
100
AcDbEntity
  8
0
 62
     1
100
AcDbLine
 10
-180.7883595255851
 20
396.298692316013
 30
0.0
 11
-180.7883595255851
 21
395.7986923160129
 31
0.0
  0
LINE
  5
F518
330
1F
100
AcDbEntity
  8
0
 62
     1
100
AcDbLine
 10
-181.8133595255865
 20
396.2986923160134
 30
0.0
 11
-181.8133595255865
 21
395.7986923160129
 31
0.0
  0
LINE
  5
F519
330
1F
100
AcDbEntity
  8
0
 62
     1
100
AcDbLine
 10
-181.413359525585
 20
396.298692316013
 30
0.0
 11
-181.413359525585
 21
395.7986923160129
 31
0.0
  0
LINE
  5
F51A
330
1F
100
AcDbEntity
  8
0
 62
     1
100
AcDbLine
 10
-182.4383595255865
 20
396.298692316013
 30
0.0
 11
-181.8133595255865
 21
396.298692316013
 31
0.0
  0
LINE
  5
F51B
330
1F
100
AcDbEntity
  8
0
 62
     1
100
AcDbLine
 10
-181.413359525585
 20
396.298692316013
 30
0.0
 11
-180.7883595255851
 21
396.298692316013
 31
0.0
  0
LINE
  5
F51C
330
1F
100
AcDbEntity
  8
0
 62
     1
100
AcDbLine
 10
-182.2383595255858
 20
396.048692316013
 30
0.0
 11
-182.2383595255858
 21
383.798692316013
 31
0.0
  0
LINE
  5
F51D
330
1F
100
AcDbEntity
  8
0
 62
     1
100
AcDbLine
 10
-181.9883595255858
 20
396.048692316013
 30
0.0
 11
-181.9883595255858
 21
395.7986923160129
 31
0.0
  0
LINE
  5
F51E
330
1F
100
AcDbEntity
  8
0
 62
     1
100
AcDbLine
 10
-182.2383595255858
 20
396.048692316013
 30
0.0
 11
-181.9883595255858
 21
396.048692316013
 31
0.0
  0
LINE
  5
F51F
330
1F
100
AcDbEntity
  8
0
 62
     1
100
AcDbLine
 10
-182.0233595255856
 20
395.7986923160129
 30
0.0
 11
-180.4383595255847
 21
395.7986923160129
 31
0.0
  0
LINE
  5
F520
330
1F
100
AcDbEntity
  8
0
 62
     1
100
AcDbLine
 10
-182.0233595255856
 20
395.7986923160129
 30
0.0
 11
-182.0233595255856
 21
383.798692316013
 31
0.0
  0
LINE
  5
F521
330
1F
100
AcDbEntity
  8
0
 62
     1
100
AcDbLine
 10
-181.2033595255859
 20
395.7986923160129
 30
0.0
 11
-181.2033595255859
 21
383.798692316013
 31
0.0
  0
LINE
  5
F522
330
1F
100
AcDbEntity
  8
A2 Hatch
  6
DASHED2
 48
0.15
100
AcDbLine
 10
-181.8633595255858
 20
395.7986923160129
 30
0.0
 11
-181.8633595255858
 21
383.798692316013
 31
0.0
  0
LINE
  5
F523
330
1F
100
AcDbEntity
  8
A2 Hatch
  6
DASHED2
 48
0.15
100
AcDbLine
 10
-181.3633595255858
 20
395.7986923160129
 30
0.0
 11
-181.3633595255858
 21
383.798692316013
 31
0.0
  0
LINE
  5
F524
330
1F
100
AcDbEntity
  8
0
 62
     1
100
AcDbLine
 10
-182.4383595255865
 20
395.7986923160129
 30
0.0
 11
-182.2383595255858
 21
395.7986923160129
 31
0.0
  0
LINE
  5
F525
330
1F
100
AcDbEntity
  8
0
 62
     1
100
AcDbLine
 10
-182.4383595255847
 20
383.798692316013
 30
0.0
 11
-180.4383595255847
 21
383.798692316013
 31
0.0
  0
LINE
  5
F526
330
1F
100
AcDbEntity
  8
0
  6
HIDDEN
 62
     1
 48
0.02
100
AcDbLine
 10
-180.7883595255832
 20
384.2986923160134
 30
0.0
 11
-180.7883595255832
 21
383.7986923160134
 31
0.0
  0
LINE
  5
F527
330
1F
100
AcDbEntity
  8
0
  6
HIDDEN
 62
     1
 48
0.02
100
AcDbLine
 10
-181.8133595255847
 20
384.2986923160134
 30
0.0
 11
-181.8133595255847
 21
383.7986923160134
 31
0.0
  0
LINE
  5
F528
330
1F
100
AcDbEntity
  8
0
  6
HIDDEN
 62
     1
 48
0.02
100
AcDbLine
 10
-181.4133595255832
 20
384.2986923160134
 30
0.0
 11
-181.4133595255832
 21
383.7986923160134
 31
0.0
  0
LINE
  5
F529
330
1F
100
AcDbEntity
  8
0
  6
HIDDEN
 62
     1
 48
0.02
100
AcDbLine
 10
-182.4383595255829
 20
384.2986923160134
 30
0.0
 11
-181.8133595255829
 21
384.2986923160134
 31
0.0
  0
LINE
  5
F52A
330
1F
100
AcDbEntity
  8
0
  6
HIDDEN
 62
     1
 48
0.02
100
AcDbLine
 10
-181.4133595255832
 20
384.2986923160134
 30
0.0
 11
-180.7883595255832
 21
384.2986923160134
 31
0.0
  0
LWPOLYLINE
  5
F52B
330
1F
100
AcDbEntity
  8
DETAILS
 62
     6
370
    20
100
AcDbPolyline
 90
        2
 70
     1
 43
0.0
 10
-186.0901127632176
 20
386.948692316013
 10
-186.1082820618437
 20
386.948692316013
  0
LWPOLYLINE
  5
F52C
330
1F
100
AcDbEntity
  8
DETAILS
 62
     6
370
    20
100
AcDbPolyline
 90
        6
 70
     0
 43
0.0
 10
-182.4383595255865
 20
386.7493238240032
 10
-182.8084386957186
 20
387.1194029941321
 42
0.1989123673782988
 10
-182.879149373836
 20
387.1486923160128
 10
-186.4383595255847
 20
387.1486923160133
 42
-0.2793220653060733
 10
-186.1526022976129
 20
386.9755467613343
 42
0.279322065306064
 10
-186.1082820618437
 20
386.948692316013
  0
LWPOLYLINE
  5
F52D
330
1F
100
AcDbEntity
  8
DETAILS
 62
     6
370
    20
100
AcDbPolyline
 90
        2
 70
     1
 43
0.0
 10
-185.990112763219
 20
386.948692316013
 10
-184.5901127632176
 20
386.948692316013
  0
LWPOLYLINE
  5
F52E
330
1F
100
AcDbEntity
  8
DETAILS
 62
     6
370
    20
100
AcDbPolyline
 90
        6
 70
     0
 43
0.0
 10
-185.990112763219
 20
387.1486923160128
 10
-185.990112763219
 20
386.3186923160129
 42
0.4142135623730951
 10
-185.7901127632183
 20
386.1186923160131
 10
-184.9477480028915
 20
386.1186923160131
 42
0.3464949689054693
 10
-184.7533199290435
 20
386.2718124258705
 10
-184.5418893876383
 20
387.1486923160131
  0
LWPOLYLINE
  5
F52F
330
1F
100
AcDbEntity
  8
DETAILS
 62
     6
370
    20
100
AcDbPolyline
 90
        6
 70
     0
 43
0.0
 10
-186.0901127632194
 20
387.1486923160128
 10
-186.0901127632176
 20
386.3186923160129
 42
0.4142135623730951
 10
-185.7901127632183
 20
386.0186923160132
 10
-184.9477480028915
 20
386.0186923160132
 42
0.3464949689054693
 10
-184.6561058921186
 20
386.2483724807995
 10
-184.4390235843409
 20
387.1486923160128
  0
LWPOLYLINE
  5
F530
330
1F
100
AcDbEntity
  8
DETAILS
 62
     6
370
    20
100
AcDbPolyline
 90
        2
 70
     1
 43
0.0
 10
-184.487246959922
 20
386.948692316013
 10
-184.4690776612958
 20
386.948692316013
  0
LWPOLYLINE
  5
F531
330
1F
100
AcDbEntity
  8
DETAILS
 62
     6
370
    20
100
AcDbPolyline
 90
        6
 70
     0
 43
0.0
 10
-184.4690776612958
 20
386.948692316013
 42
0.279322065306064
 10
-184.4247574245662
 20
386.975546760833
 42
-0.6059183769079624
 10
-183.8532429695849
 20
386.9755467613343
 42
0.2793220653054726
 10
-183.8089227338157
 20
386.948692316013
 10
-183.715753435187
 20
386.948692316013
 10
-183.8089227338157
 20
386.948692316013
  0
LWPOLYLINE
  5
F532
330
1F
100
AcDbEntity
  8
DETAILS
 62
     6
370
    20
100
AcDbPolyline
 90
        7
 70
     0
 43
0.0
 10
-183.2877280176005
 20
387.1486923160128
 10
-183.1877280176002
 20
387.1486923160128
 10
-182.9377280176002
 20
387.1486923160128
 10
-183.533804515321
 20
387.1486923160128
 10
-183.7243235211433
 20
386.3585402226341
 42
0.4853378929632635
 10
-183.5590596583722
 20
386.1486923160128
 10
-182.4383595255865
 20
386.1486923160128
  0
LWPOLYLINE
  5
F533
330
1F
100
AcDbEntity
  8
DETAILS
 62
     6
370
    20
100
AcDbPolyline
 90
        4
 70
     0
 43
0.0
 10
-183.6675300596077
 20
387.1486923160128
 10
-183.8507017691452
 20
386.3890121512264
 42
0.4853378929632635
 10
-183.5590596583722
 20
386.0186923160132
 10
-182.4383595255865
 20
386.0186923160132
  0
LWPOLYLINE
  5
F534
330
1F
100
AcDbEntity
  8
DETAILS
 62
     6
370
    20
100
AcDbPolyline
 90
       10
 70
     1
 43
0.0
 10
-186.4383595255847
 20
387.198692316013
 10
-183.2877280176005
 20
387.198692316013
 10
-183.1900004107253
 20
387.2207818885127
 42
0.7807764064044151
 10
-183.1900004107253
 20
387.2266027435135
 10
-183.2877280176005
 20
387.2486923160132
 10
-186.4383595255847
 20
387.248692316013
 10
-189.5889910335706
 20
387.2486923160132
 10
-189.6867186404458
 20
387.2266027435135
 42
0.7807764064044151
 10
-189.6867186404458
 20
387.2207818885127
 10
-189.5889910335688
 20
387.198692316013
  0
LWPOLYLINE
  5
F535
330
1F
100
AcDbEntity
  8
DETAILS
 62
     6
370
    20
100
AcDbPolyline
 90
        7
 70
     0
 43
0.0
 10
-190.4383595255865
 20
387.9980608080246
 10
-190.0682803554525
 20
387.6279816378943
 42
0.1989123673781765
 10
-189.9975696773333
 20
387.5986923160131
 10
-186.4383595255847
 20
387.5986923160131
 10
-182.879149373836
 20
387.5986923160131
 42
0.1989123673781768
 10
-182.8084386957186
 20
387.6279816378943
 10
-182.4383595255865
 20
387.9980608080223
  0
LWPOLYLINE
  5
F536
330
1F
100
AcDbEntity
  8
DETAILS
 62
     6
370
    20
100
AcDbPolyline
 90
        7
 70
     0
 43
0.0
 10
-190.4383595255865
 20
388.1980608080235
 10
-190.1854376429771
 20
387.9451389254173
 42
0.1989123673777967
 10
-189.8318842523865
 20
387.7986923160129
 10
-186.4383595255847
 20
387.7986923160129
 10
-183.0448347987847
 20
387.7986923160129
 42
0.1989123673777968
 10
-182.6912814081922
 20
387.9451389254173
 10
-182.4383595255865
 20
388.1980608080208
  0
LWPOLYLINE
  5
F537
330
1F
100
AcDbEntity
  8
DETAILS
 62
     6
370
    20
100
AcDbPolyline
 90
        4
 70
     0
 43
0.0
 10
-182.4383595255865
 20
386.5493238240016
 10
-182.6912814081941
 20
386.8022457066073
 42
0.1989123673788307
 10
-183.0448347987847
 20
386.948692316013
 10
-183.582027890902
 20
386.948692316013
  0
LWPOLYLINE
  5
F538
330
1F
100
AcDbEntity
  8
DETAILS
 62
     6
370
    20
100
AcDbPolyline
 90
        4
 70
     0
 43
0.0
 10
-182.4383595255865
 20
387.7480608080251
 10
-182.7066620004213
 20
387.4797583331916
 42
0.4142135623745727
 10
-182.7066620004213
 20
387.2676262988353
 10
-182.4383595255865
 20
386.9993238240004
  0
LWPOLYLINE
  5
F539
330
1F
100
AcDbEntity
  8
DETAILS
 62
     6
370
    20
100
AcDbPolyline
 90
        6
 70
     1
 43
0.0
 10
-186.4383595255847
 20
387.2986923160129
 10
-182.9377280176002
 20
387.2986923160129
 10
-182.9377280176002
 20
387.448692316013
 10
-186.4383595255847
 20
387.448692316013
 10
-189.938991033571
 20
387.448692316013
 10
-189.938991033571
 20
387.2986923160129
  0
LWPOLYLINE
  5
F53A
330
1F
100
AcDbEntity
  8
DETAILS
 62
     6
370
    20
100
AcDbPolyline
 90
        2
 70
     1
 43
0.0
 10
-186.0901127632176
 20
393.1486923160133
 10
-186.1082820618437
 20
393.1486923160131
  0
LWPOLYLINE
  5
F53B
330
1F
100
AcDbEntity
  8
DETAILS
 62
     6
370
    20
100
AcDbPolyline
 90
        6
 70
     0
 43
0.0
 10
-186.1082820618437
 20
393.1486923160133
 42
0.279322065306064
 10
-186.1526022985733
 20
393.1218378711934
 42
-0.2793220653060733
 10
-186.4383595255847
 20
392.948692316013
 10
-182.879149373836
 20
392.948692316013
 42
0.1989123673782991
 10
-182.8084386957186
 20
392.9779816378942
 10
-182.4383595255865
 20
393.3480608080222
  0
LWPOLYLINE
  5
F53C
330
1F
100
AcDbEntity
  8
DETAILS
 62
     6
370
    20
100
AcDbPolyline
 90
        2
 70
     1
 43
0.0
 10
-185.990112763219
 20
393.1486923160131
 10
-184.5901127632176
 20
393.1486923160131
  0
LWPOLYLINE
  5
F53D
330
1F
100
AcDbEntity
  8
DETAILS
 62
     6
370
    20
100
AcDbPolyline
 90
        6
 70
     0
 43
0.0
 10
-184.5418893876383
 20
392.948692316013
 10
-184.7533199290435
 20
393.8255722061554
 42
0.3464949689054692
 10
-184.9477480028915
 20
393.9786923160132
 10
-185.7901127632183
 20
393.9786923160132
 42
0.4142135623730951
 10
-185.990112763219
 20
393.778692316013
 10
-185.990112763219
 20
392.948692316013
  0
LWPOLYLINE
  5
F53E
330
1F
100
AcDbEntity
  8
DETAILS
 62
     6
370
    20
100
AcDbPolyline
 90
        6
 70
     0
 43
0.0
 10
-184.4390235843409
 20
392.948692316013
 10
-184.6561058921186
 20
393.8490121512269
 42
0.3464949689054692
 10
-184.9477480028915
 20
394.0786923160132
 10
-185.7901127632183
 20
394.0786923160132
 42
0.4142135623730951
 10
-186.0901127632176
 20
393.778692316013
 10
-186.0901127632194
 20
392.948692316013
  0
LWPOLYLINE
  5
F53F
330
1F
100
AcDbEntity
  8
DETAILS
 62
     6
370
    20
100
AcDbPolyline
 90
        2
 70
     1
 43
0.0
 10
-184.487246959922
 20
393.1486923160133
 10
-184.4690776612958
 20
393.1486923160131
  0
LWPOLYLINE
  5
F540
330
1F
100
AcDbEntity
  8
DETAILS
 62
     6
370
    20
100
AcDbPolyline
 90
        6
 70
     0
 43
0.0
 10
-183.8089227338157
 20
393.1486923160133
 10
-183.7157534351888
 20
393.1486923160133
 10
-183.8089227338157
 20
393.1486923160133
 42
0.2793220653054726
 10
-183.8532429705453
 20
393.1218378711929
 42
-0.6059183769079625
 10
-184.4247574255266
 20
393.1218378706918
 42
0.279322065306064
 10
-184.4690776612958
 20
393.1486923160133
  0
LWPOLYLINE
  5
F541
330
1F
100
AcDbEntity
  8
DETAILS
 62
     6
370
    20
100
AcDbPolyline
 90
        7
 70
     0
 43
0.0
 10
-182.4383595255865
 20
393.948692316013
 10
-183.5590596583722
 20
393.948692316013
 42
0.4853378929632635
 10
-183.7243235211433
 20
393.7388444093922
 10
-183.533804515321
 20
392.948692316013
 10
-182.9377280176002
 20
392.948692316013
 10
-183.1877280176002
 20
392.948692316013
 10
-183.2877280176005
 20
392.948692316013
  0
LWPOLYLINE
  5
F542
330
1F
100
AcDbEntity
  8
DETAILS
 62
     6
370
    20
100
AcDbPolyline
 90
        4
 70
     0
 43
0.0
 10
-182.4383595255865
 20
394.0786923160132
 10
-183.5590596583722
 20
394.0786923160132
 42
0.4853378929632635
 10
-183.8507017691452
 20
393.7083724807995
 10
-183.6675300596077
 20
392.948692316013
  0
LWPOLYLINE
  5
F543
330
1F
100
AcDbEntity
  8
DETAILS
 62
     6
370
    20
100
AcDbPolyline
 90
       10
 70
     1
 43
0.0
 10
-186.4383595255865
 20
392.8986923160133
 10
-189.5889910335688
 20
392.8986923160133
 10
-189.6867186404458
 20
392.8766027435136
 42
0.7807764064044151
 10
-189.6867186404458
 20
392.8707818885128
 10
-189.5889910335706
 20
392.8486923160131
 10
-186.4383595255847
 20
392.8486923160131
 10
-183.2877280176005
 20
392.8486923160131
 10
-183.1900004107253
 20
392.8707818885128
 42
0.7807764064044151
 10
-183.1900004107253
 20
392.8766027435136
 10
-183.2877280176005
 20
392.8986923160133
  0
LWPOLYLINE
  5
F544
330
1F
100
AcDbEntity
  8
DETAILS
 62
     6
370
    20
100
AcDbPolyline
 90
        7
 70
     0
 43
0.0
 10
-182.4383595255865
 20
392.099323824004
 10
-182.8084386957186
 20
392.4694029941321
 42
0.1989123673781766
 10
-182.879149373836
 20
392.4986923160132
 10
-186.4383595255847
 20
392.4986923160132
 10
-189.9975696773333
 20
392.4986923160132
 42
0.1989123673781765
 10
-190.0682803554525
 20
392.4694029941321
 10
-190.4383595255865
 20
392.0993238240013
  0
LWPOLYLINE
  5
F545
330
1F
100
AcDbEntity
  8
DETAILS
 62
     6
370
    20
100
AcDbPolyline
 90
        7
 70
     0
 43
0.0
 10
-182.4383595255865
 20
391.8993238240058
 10
-182.6912814081922
 20
392.152245706609
 42
0.1989123673777966
 10
-183.0448347987847
 20
392.2986923160129
 10
-186.4383595255865
 20
392.2986923160132
 10
-189.8318842523865
 20
392.2986923160129
 42
0.1989123673777966
 10
-190.1854376429771
 20
392.152245706609
 10
-190.4383595255865
 20
391.8993238240024
  0
LWPOLYLINE
  5
F546
330
1F
100
AcDbEntity
  8
DETAILS
 62
     6
370
    20
100
AcDbPolyline
 90
        4
 70
     0
 43
0.0
 10
-183.582027890902
 20
393.1486923160131
 10
-183.0448347987847
 20
393.1486923160133
 42
0.1989123673788307
 10
-182.6912814081941
 20
393.2951389254186
 10
-182.4383595255865
 20
393.5480608080244
  0
LWPOLYLINE
  5
F547
330
1F
100
AcDbEntity
  8
DETAILS
 62
     6
370
    20
100
AcDbPolyline
 90
        4
 70
     0
 43
0.0
 10
-182.4383595255865
 20
393.0980608080259
 10
-182.7066620004213
 20
392.8297583331911
 42
0.4142135623745727
 10
-182.7066620004213
 20
392.6176262988343
 10
-182.4383595255865
 20
392.3493238240017
  0
LWPOLYLINE
  5
F548
330
1F
100
AcDbEntity
  8
DETAILS
 62
     6
370
    20
100
AcDbPolyline
 90
        6
 70
     1
 43
0.0
 10
-186.4383595255847
 20
392.7986923160129
 10
-182.9377280176002
 20
392.7986923160132
 10
-182.9377280176002
 20
392.6486923160133
 10
-186.4383595255847
 20
392.6486923160128
 10
-189.938991033571
 20
392.6486923160131
 10
-189.938991033571
 20
392.7986923160134
  0
LWPOLYLINE
  5
F549
330
1F
100
AcDbEntity
  8
DETAILS
 62
     6
370
    20
100
AcDbPolyline
 90
        2
 70
     1
 43
0.0
 10
-186.7866062879518
 20
386.948692316013
 10
-186.7684369893256
 20
386.948692316013
  0
LWPOLYLINE
  5
F54A
330
1F
100
AcDbEntity
  8
DETAILS
 62
     6
370
    20
100
AcDbPolyline
 90
        6
 70
     0
 43
0.0
 10
-186.7684369893256
 20
386.948692316013
 42
0.279322065306064
 10
-186.724116752596
 20
386.975546760833
 42
-0.2793220653060734
 10
-186.4383595255847
 20
387.1486923160128
 10
-189.9975696773333
 20
387.1486923160128
 42
0.1989123673782987
 10
-190.0682803554525
 20
387.1194029941321
 10
-190.4383595255865
 20
386.7493238240014
  0
LWPOLYLINE
  5
F54B
330
1F
100
AcDbEntity
  8
DETAILS
 62
     6
370
    20
100
AcDbPolyline
 90
        2
 70
     1
 43
0.0
 10
-186.8866062879503
 20
386.948692316013
 10
-188.2866062879518
 20
386.948692316013
  0
LWPOLYLINE
  5
F54C
330
1F
100
AcDbEntity
  8
DETAILS
 62
     6
370
    20
100
AcDbPolyline
 90
        6
 70
     0
 43
0.0
 10
-188.334829663531
 20
387.1486923160131
 10
-188.1233991221277
 20
386.2718124258705
 42
0.3464949689054692
 10
-187.9289710482778
 20
386.1186923160131
 10
-187.0866062879511
 20
386.1186923160131
 42
0.4142135623730951
 10
-186.8866062879503
 20
386.3186923160129
 10
-186.8866062879503
 20
387.1486923160128
  0
LWPOLYLINE
  5
F54D
330
1F
100
AcDbEntity
  8
DETAILS
 62
     6
370
    20
100
AcDbPolyline
 90
        6
 70
     0
 43
0.0
 10
-188.4376954668285
 20
387.1486923160128
 10
-188.2206131590508
 20
386.2483724807995
 42
0.3464949689054692
 10
-187.9289710482778
 20
386.0186923160132
 10
-187.0866062879511
 20
386.0186923160132
 42
0.4142135623730951
 10
-186.7866062879518
 20
386.3186923160129
 10
-186.7866062879518
 20
387.1486923160128
  0
LWPOLYLINE
  5
F54E
330
1F
100
AcDbEntity
  8
DETAILS
 62
     6
370
    20
100
AcDbPolyline
 90
        2
 70
     1
 43
0.0
 10
-188.3894720912492
 20
386.948692316013
 10
-188.4076413898735
 20
386.948692316013
  0
LWPOLYLINE
  5
F54F
330
1F
100
AcDbEntity
  8
DETAILS
 62
     6
370
    20
100
AcDbPolyline
 90
        6
 70
     0
 43
0.0
 10
-189.0677963173536
 20
386.948692316013
 10
-189.1609656159824
 20
386.948692316013
 10
-189.0677963173536
 20
386.948692316013
 42
0.2793220653054726
 10
-189.0234760806258
 20
386.975546760833
 42
-0.6059183769079624
 10
-188.4519616256445
 20
386.9755467613343
 42
0.279322065306064
 10
-188.4076413898735
 20
386.948692316013
  0
LWPOLYLINE
  5
F550
330
1F
100
AcDbEntity
  8
DETAILS
 62
     6
370
    20
100
AcDbPolyline
 90
        7
 70
     0
 43
0.0
 10
-190.4383595255865
 20
386.1486923160128
 10
-189.3176593927971
 20
386.1486923160128
 42
0.4853378929632635
 10
-189.1523955300261
 20
386.3585402226338
 10
-189.3429145358484
 20
387.1486923160128
 10
-189.938991033571
 20
387.1486923160128
 10
-189.6889910335692
 20
387.1486923160128
 10
-189.5889910335688
 20
387.1486923160128
  0
LWPOLYLINE
  5
F551
330
1F
100
AcDbEntity
  8
DETAILS
 62
     6
370
    20
100
AcDbPolyline
 90
        4
 70
     0
 43
0.0
 10
-190.4383595255865
 20
386.0186923160132
 10
-189.3176593927971
 20
386.0186923160132
 42
0.4853378929632635
 10
-189.0260172820242
 20
386.3890121512264
 10
-189.2091889915616
 20
387.1486923160128
  0
LWPOLYLINE
  5
F552
330
1F
100
AcDbEntity
  8
DETAILS
 62
     6
370
    20
100
AcDbPolyline
 90
        4
 70
     0
 43
0.0
 10
-189.2946911602692
 20
386.948692316013
 10
-189.8318842523847
 20
386.948692316013
 42
0.1989123673788306
 10
-190.1854376429771
 20
386.8022457066073
 10
-190.4383595255865
 20
386.5493238239992
  0
LWPOLYLINE
  5
F553
330
1F
100
AcDbEntity
  8
DETAILS
 62
     6
370
    20
100
AcDbPolyline
 90
        4
 70
     0
 43
0.0
 10
-190.4383595255865
 20
386.9993238239982
 10
-190.170057050748
 20
387.2676262988353
 42
0.4142135623745727
 10
-190.1700570507498
 20
387.4797583331916
 10
-190.4383595255865
 20
387.7480608080269
  0
LWPOLYLINE
  5
F554
330
1F
100
AcDbEntity
  8
DETAILS
 62
     6
370
    20
100
AcDbPolyline
 90
        2
 70
     1
 43
0.0
 10
-186.7866062879518
 20
393.1486923160133
 10
-186.7684369893256
 20
393.1486923160131
  0
LWPOLYLINE
  5
F555
330
1F
100
AcDbEntity
  8
DETAILS
 62
     6
370
    20
100
AcDbPolyline
 90
        6
 70
     0
 43
0.0
 10
-190.4383595255865
 20
393.348060808025
 10
-190.0682803554525
 20
392.9779816378942
 42
0.1989123673782989
 10
-189.9975696773333
 20
392.948692316013
 10
-186.4383595255847
 20
392.948692316013
 42
-0.2793220653060733
 10
-186.7241167535564
 20
393.1218378706918
 42
0.279322065306064
 10
-186.7684369893256
 20
393.1486923160133
  0
LWPOLYLINE
  5
F556
330
1F
100
AcDbEntity
  8
DETAILS
 62
     6
370
    20
100
AcDbPolyline
 90
        2
 70
     1
 43
0.0
 10
-186.8866062879503
 20
393.1486923160131
 10
-188.2866062879518
 20
393.1486923160131
  0
LWPOLYLINE
  5
F557
330
1F
100
AcDbEntity
  8
DETAILS
 62
     6
370
    20
100
AcDbPolyline
 90
        6
 70
     0
 43
0.0
 10
-186.8866062879503
 20
392.948692316013
 10
-186.8866062879522
 20
393.778692316013
 42
0.4142135623730951
 10
-187.0866062879511
 20
393.9786923160132
 10
-187.9289710482778
 20
393.9786923160132
 42
0.3464949689054692
 10
-188.1233991221277
 20
393.8255722061554
 10
-188.334829663531
 20
392.948692316013
  0
LWPOLYLINE
  5
F558
330
1F
100
AcDbEntity
  8
DETAILS
 62
     6
370
    20
100
AcDbPolyline
 90
        6
 70
     0
 43
0.0
 10
-186.7866062879518
 20
392.948692316013
 10
-186.7866062879518
 20
393.778692316013
 42
0.4142135623730951
 10
-187.0866062879511
 20
394.0786923160132
 10
-187.9289710482778
 20
394.0786923160132
 42
0.3464949689054692
 10
-188.2206131590508
 20
393.8490121512269
 10
-188.4376954668285
 20
392.948692316013
  0
LWPOLYLINE
  5
F559
330
1F
100
AcDbEntity
  8
DETAILS
 62
     6
370
    20
100
AcDbPolyline
 90
        2
 70
     1
 43
0.0
 10
-188.3894720912492
 20
393.1486923160133
 10
-188.4076413898735
 20
393.1486923160131
  0
LWPOLYLINE
  5
F55A
330
1F
100
AcDbEntity
  8
DETAILS
 62
     6
370
    20
100
AcDbPolyline
 90
        6
 70
     0
 43
0.0
 10
-188.4076413898735
 20
393.1486923160133
 42
0.279322065306064
 10
-188.4519616266032
 20
393.1218378711934
 42
-0.6059183769079624
 10
-189.0234760815845
 20
393.1218378706918
 42
0.2793220653054726
 10
-189.0677963173536
 20
393.1486923160133
 10
-189.1609656159824
 20
393.1486923160133
 10
-189.0677963173536
 20
393.1486923160133
  0
LWPOLYLINE
  5
F55B
330
1F
100
AcDbEntity
  8
DETAILS
 62
     6
370
    20
100
AcDbPolyline
 90
        7
 70
     0
 43
0.0
 10
-189.5889910335688
 20
392.948692316013
 10
-189.688991033571
 20
392.948692316013
 10
-189.938991033571
 20
392.948692316013
 10
-189.3429145358484
 20
392.948692316013
 10
-189.1523955300261
 20
393.7388444093922
 42
0.4853378929632635
 10
-189.3176593927971
 20
393.948692316013
 10
-190.4383595255865
 20
393.948692316013
  0
LWPOLYLINE
  5
F55C
330
1F
100
AcDbEntity
  8
DETAILS
 62
     6
370
    20
100
AcDbPolyline
 90
        4
 70
     0
 43
0.0
 10
-189.2091889915616
 20
392.948692316013
 10
-189.0260172820242
 20
393.7083724807995
 42
0.4853378929632635
 10
-189.3176593927971
 20
394.0786923160132
 10
-190.4383595255865
 20
394.0786923160132
  0
LWPOLYLINE
  5
F55D
330
1F
100
AcDbEntity
  8
DETAILS
 62
     6
370
    20
100
AcDbPolyline
 90
        4
 70
     0
 43
0.0
 10
-190.4383595255865
 20
393.5480608080273
 10
-190.1854376429771
 20
393.2951389254186
 42
0.1989123673788307
 10
-189.8318842523847
 20
393.1486923160133
 10
-189.2946911602692
 20
393.1486923160131
  0
LWPOLYLINE
  5
F55E
330
1F
100
AcDbEntity
  8
DETAILS
 62
     6
370
    20
100
AcDbPolyline
 90
        4
 70
     0
 43
0.0
 10
-190.4383595255865
 20
392.349323823999
 10
-190.1700570507498
 20
392.6176262988343
 42
0.4142135623745727
 10
-190.170057050748
 20
392.8297583331911
 10
-190.4383595255865
 20
393.0980608080282
  0
LINE
  5
F55F
330
1F
100
AcDbEntity
  8
0
 62
     1
100
AcDbLine
 10
-192.4383595255865
 20
383.798692316013
 30
0.0
 11
-192.4383595255865
 21
371.7986923160129
 31
0.0
  0
LINE
  5
F560
330
1F
100
AcDbEntity
  8
0
 62
     1
100
AcDbLine
 10
-192.4383595255865
 20
383.798692316013
 30
0.0
 11
-190.8883595255854
 21
383.798692316013
 31
0.0
  0
LINE
  5
F561
330
1F
100
AcDbEntity
  8
0
 62
     1
100
AcDbLine
 10
-190.4383595255865
 20
384.2986923160129
 30
0.0
 11
-190.4383595255865
 21
372.4769775699113
 31
0.0
  0
LINE
  5
F562
330
1F
100
AcDbEntity
  8
0
 62
     1
100
AcDbLine
 10
-192.0883595255861
 20
384.2986923160129
 30
0.0
 11
-191.4633595255861
 21
384.2986923160129
 31
0.0
  0
LINE
  5
F563
330
1F
100
AcDbEntity
  8
0
 62
     1
100
AcDbLine
 10
-192.0883595255861
 20
384.2986923160129
 30
0.0
 11
-192.0883595255861
 21
371.9173922354453
 31
0.0
  0
LINE
  5
F564
330
1F
100
AcDbEntity
  8
0
 62
     1
100
AcDbLine
 10
-191.0633595255865
 20
384.2986923160129
 30
0.0
 11
-191.0633595255865
 21
383.798692316013
 31
0.0
  0
LINE
  5
F565
330
1F
100
AcDbEntity
  8
0
 62
     1
100
AcDbLine
 10
-191.4633595255861
 20
384.2986923160129
 30
0.0
 11
-191.4633595255843
 21
383.798692316013
 31
0.0
  0
LINE
  5
F566
330
1F
100
AcDbEntity
  8
0
 62
     1
100
AcDbLine
 10
-191.0633595255865
 20
384.2986923160129
 30
0.0
 11
-190.4383595255865
 21
384.2986923160129
 31
0.0
  0
LINE
  5
F567
330
1F
100
AcDbEntity
  8
0
 62
     1
100
AcDbLine
 10
-190.6383595255854
 20
384.0486923160129
 30
0.0
 11
-190.6383595255854
 21
372.4091490445217
 31
0.0
  0
LINE
  5
F568
330
1F
100
AcDbEntity
  8
0
 62
     1
100
AcDbLine
 10
-190.8883595255854
 20
384.0486923160129
 30
0.0
 11
-190.8883595255854
 21
383.798692316013
 31
0.0
  0
LINE
  5
F569
330
1F
100
AcDbEntity
  8
0
 62
     1
100
AcDbLine
 10
-190.8883595255854
 20
384.0486923160129
 30
0.0
 11
-190.6383595255854
 21
384.0486923160129
 31
0.0
  0
LINE
  5
F56A
330
1F
100
AcDbEntity
  8
0
 62
     1
100
AcDbLine
 10
-190.6383595255854
 20
383.798692316013
 30
0.0
 11
-190.4383595255865
 21
383.798692316013
 31
0.0
  0
LINE
  5
F56B
330
1F
100
AcDbEntity
  8
0
 48
0.15
100
AcDbLine
 10
-191.4633595255861
 20
383.798692316013
 30
0.0
 11
-191.0633595255865
 21
383.798692316013
 31
0.0
  0
LINE
  5
F56C
330
1F
100
AcDbEntity
  8
A2 Hatch
  6
DASHED2
 48
0.15
100
AcDbLine
 10
-191.6733595255871
 20
384.2986923160129
 30
0.0
 11
-191.6733595255853
 21
372.0581364256294
 31
0.0
  0
LINE
  5
F56D
330
1F
100
AcDbEntity
  8
A2 Hatch
  6
DASHED2
 48
0.15
100
AcDbLine
 10
-190.8533595255855
 20
384.2986923160129
 30
0.0
 11
-190.8533595255855
 21
372.3362333797275
 31
0.0
  0
LINE
  5
F56E
330
1F
100
AcDbEntity
  8
0
 62
     1
100
AcDbLine
 10
-191.5133595255854
 20
384.2986923160129
 30
0.0
 11
-191.5133595255854
 21
372.1123992459411
 31
0.0
  0
LINE
  5
F56F
330
1F
100
AcDbEntity
  8
0
 62
     1
100
AcDbLine
 10
-191.0133595255854
 20
384.2986923160129
 30
0.0
 11
-191.0133595255854
 21
372.2819705594157
 31
0.0
  0
LINE
  5
F570
330
1F
100
AcDbEntity
  8
0
 62
     1
100
AcDbLine
 10
-191.0133595255854
 20
383.798692316013
 30
0.0
 11
-191.5133595255854
 21
383.798692316013
 31
0.0
  0
LINE
  5
F571
330
1F
100
AcDbEntity
  8
0
  6
HIDDEN
 62
     1
 48
0.02
100
AcDbLine
 10
-192.0883595255861
 20
372.2986923160129
 30
0.0
 11
-191.4633595255861
 21
372.2986923160129
 31
0.0
  0
LINE
  5
F572
330
1F
100
AcDbEntity
  8
0
  6
HIDDEN
 62
     1
 48
0.02
100
AcDbLine
 10
-191.0633595255865
 20
372.2986923160129
 30
0.0
 11
-191.0633595255865
 21
372.265013428068
 31
0.0
  0
LINE
  5
F573
330
1F
100
AcDbEntity
  8
0
  6
HIDDEN
 62
     1
 48
0.02
100
AcDbLine
 10
-191.4633595255861
 20
372.2986923160129
 30
0.0
 11
-191.4633595255861
 21
372.1293563772886
 31
0.0
  0
LINE
  5
F574
330
1F
100
AcDbEntity
  8
0
  6
HIDDEN
 62
     1
 48
0.02
100
AcDbLine
 10
-191.0633595255865
 20
372.2986923160129
 30
0.0
 11
-190.9640535543847
 21
372.2986923160129
 31
0.0
  0
LINE
  5
F575
330
1F
100
AcDbEntity
  8
0
 62
     1
100
AcDbLine
 10
-180.4383595255847
 20
383.798692316013
 30
0.0
 11
-180.4383595255847
 21
375.868403839402
 31
0.0
  0
LINE
  5
F576
330
1F
100
AcDbEntity
  8
0
 62
     1
100
AcDbLine
 10
-182.4383595255865
 20
384.2986923160129
 30
0.0
 11
-182.4383595255865
 21
375.1901185855036
 31
0.0
  0
LINE
  5
F577
330
1F
100
AcDbEntity
  8
0
 62
     1
100
AcDbLine
 10
-180.7883595255851
 20
384.2986923160129
 30
0.0
 11
-180.7883595255851
 21
383.798692316013
 31
0.0
  0
LINE
  5
F578
330
1F
100
AcDbEntity
  8
0
 62
     1
100
AcDbLine
 10
-181.8133595255865
 20
384.2986923160134
 30
0.0
 11
-181.8133595255865
 21
383.798692316013
 31
0.0
  0
LINE
  5
F579
330
1F
100
AcDbEntity
  8
0
 62
     1
100
AcDbLine
 10
-181.413359525585
 20
384.2986923160129
 30
0.0
 11
-181.413359525585
 21
383.798692316013
 31
0.0
  0
LINE
  5
F57A
330
1F
100
AcDbEntity
  8
0
 62
     1
100
AcDbLine
 10
-182.4383595255865
 20
384.2986923160129
 30
0.0
 11
-181.8133595255865
 21
384.2986923160129
 31
0.0
  0
LINE
  5
F57B
330
1F
100
AcDbEntity
  8
0
 62
     1
100
AcDbLine
 10
-181.413359525585
 20
384.2986923160129
 30
0.0
 11
-180.7883595255851
 21
384.2986923160129
 31
0.0
  0
LINE
  5
F57C
330
1F
100
AcDbEntity
  8
0
 62
     1
100
AcDbLine
 10
-182.2383595255858
 20
384.0486923160129
 30
0.0
 11
-182.2383595255858
 21
375.2579471108932
 31
0.0
  0
LINE
  5
F57D
330
1F
100
AcDbEntity
  8
0
 62
     1
100
AcDbLine
 10
-181.9883595255858
 20
384.0486923160129
 30
0.0
 11
-181.9883595255858
 21
383.798692316013
 31
0.0
  0
LINE
  5
F57E
330
1F
100
AcDbEntity
  8
0
 62
     1
100
AcDbLine
 10
-182.2383595255858
 20
384.0486923160129
 30
0.0
 11
-181.9883595255858
 21
384.0486923160129
 31
0.0
  0
LINE
  5
F57F
330
1F
100
AcDbEntity
  8
0
 62
     1
100
AcDbLine
 10
-182.0233595255856
 20
383.798692316013
 30
0.0
 11
-180.4383595255847
 21
383.798692316013
 31
0.0
  0
LINE
  5
F580
330
1F
100
AcDbEntity
  8
0
 62
     1
100
AcDbLine
 10
-182.0233595255856
 20
383.798692316013
 30
0.0
 11
-182.0233595255856
 21
375.3308627756874
 31
0.0
  0
LINE
  5
F581
330
1F
100
AcDbEntity
  8
0
 62
     1
100
AcDbLine
 10
-181.2033595255859
 20
383.798692316013
 30
0.0
 11
-181.2033595255859
 21
375.6089597297858
 31
0.0
  0
LINE
  5
F582
330
1F
100
AcDbEntity
  8
A2 Hatch
  6
DASHED2
 48
0.15
100
AcDbLine
 10
-181.8633595255858
 20
383.798692316013
 30
0.0
 11
-181.8633595255858
 21
375.3851255959995
 31
0.0
  0
LINE
  5
F583
330
1F
100
AcDbEntity
  8
A2 Hatch
  6
DASHED2
 48
0.15
100
AcDbLine
 10
-181.3633595255858
 20
383.798692316013
 30
0.0
 11
-181.3633595255858
 21
375.554696909474
 31
0.0
  0
LINE
  5
F584
330
1F
100
AcDbEntity
  8
0
 62
     1
100
AcDbLine
 10
-182.4383595255865
 20
383.798692316013
 30
0.0
 11
-182.2383595255858
 21
383.798692316013
 31
0.0
  0
LWPOLYLINE
  5
F585
330
1F
100
AcDbEntity
  8
DETAILS
 62
     6
370
    20
100
AcDbPolyline
 90
        2
 70
     1
 43
0.0
 10
-186.0901127632176
 20
374.948692316013
 10
-186.1082820618437
 20
374.948692316013
  0
LWPOLYLINE
  5
F586
330
1F
100
AcDbEntity
  8
DETAILS
 62
     6
370
    20
100
AcDbPolyline
 90
        6
 70
     0
 43
0.0
 10
-182.767521448023
 20
375.0784857464367
 10
-182.8084386957186
 20
375.1194029941321
 42
0.1989123673782988
 10
-182.879149373836
 20
375.1486923160129
 10
-186.4383595255847
 20
375.1486923160133
 42
-0.2793220653060733
 10
-186.1526022976129
 20
374.9755467613343
 42
0.279322065306064
 10
-186.1082820618437
 20
374.948692316013
  0
LWPOLYLINE
  5
F587
330
1F
100
AcDbEntity
  8
DETAILS
 62
     6
370
    20
100
AcDbPolyline
 90
        2
 70
     1
 43
0.0
 10
-185.990112763219
 20
374.948692316013
 10
-184.5901127632176
 20
374.948692316013
  0
LWPOLYLINE
  5
F588
330
1F
100
AcDbEntity
  8
DETAILS
 62
     6
370
    20
100
AcDbPolyline
 90
        4
 70
     0
 43
0.0
 10
-185.990112763219
 20
375.1486923160129
 10
-185.990112763219
 20
374.3186923160129
 42
0.4142135623730951
 10
-185.7901127632183
 20
374.1186923160131
 10
-185.0163497205055
 20
374.1186923160131
  0
LWPOLYLINE
  5
F589
330
1F
100
AcDbEntity
  8
DETAILS
 62
     6
370
    20
100
AcDbPolyline
 90
        4
 70
     0
 43
0.0
 10
-186.0901127632194
 20
375.1486923160129
 10
-186.0901127632176
 20
374.3186923160129
 42
0.4142135623730951
 10
-185.7901127632183
 20
374.0186923160132
 10
-184.9824354578093
 20
374.0186923160132
  0
LWPOLYLINE
  5
F58A
330
1F
100
AcDbEntity
  8
DETAILS
 62
     6
370
    20
100
AcDbPolyline
 90
        2
 70
     1
 43
0.0
 10
-184.487246959922
 20
374.948692316013
 10
-184.4690776612958
 20
374.948692316013
  0
LWPOLYLINE
  5
F58B
330
1F
100
AcDbEntity
  8
DETAILS
 62
     6
370
    20
100
AcDbPolyline
 90
        6
 70
     0
 43
0.0
 10
-184.4690776612958
 20
374.948692316013
 42
0.279322065306064
 10
-184.4247574245662
 20
374.975546760833
 42
-0.6059183769079624
 10
-183.8532429695849
 20
374.9755467613343
 42
0.2793220653054726
 10
-183.8089227338157
 20
374.948692316013
 10
-183.715753435187
 20
374.948692316013
 10
-183.8089227338157
 20
374.948692316013
  0
LWPOLYLINE
  5
F58C
330
1F
100
AcDbEntity
  8
DETAILS
 62
     6
370
    20
100
AcDbPolyline
 90
        5
 70
     0
 43
0.0
 10
-183.2877280176005
 20
375.1486923160129
 10
-183.1877280176002
 20
375.1486923160129
 10
-182.9377280176002
 20
375.1486923160129
 10
-183.533804515321
 20
375.1486923160129
 10
-183.620481626566
 20
374.7892105908023
  0
LWPOLYLINE
  5
F58D
330
1F
100
AcDbEntity
  8
DETAILS
 62
     6
370
    20
100
AcDbPolyline
 90
        2
 70
     0
 43
0.0
 10
-183.6675300596077
 20
375.1486923160129
 10
-183.7661161438962
 20
374.7398197180208
  0
LWPOLYLINE
  5
F58E
330
1F
100
AcDbEntity
  8
DETAILS
 62
     6
370
    20
100
AcDbPolyline
 90
        8
 70
     0
 43
0.0
 10
-187.8035037650886
 20
375.198692316013
 10
-186.4383595255847
 20
375.198692316013
 10
-183.2877280176005
 20
375.198692316013
 10
-183.1900004107253
 20
375.2207818885127
 42
0.7807764064044151
 10
-183.1900004107253
 20
375.2266027435135
 10
-183.2877280176005
 20
375.2486923160132
 10
-186.4383595255847
 20
375.248692316013
 10
-187.8535037650879
 20
375.248692316013
  0
LWPOLYLINE
  5
F58F
330
1F
100
AcDbEntity
  8
DETAILS
 62
     6
370
    20
100
AcDbPolyline
 90
        4
 70
     0
 43
0.0
 10
-190.4383595255865
 20
375.9980608080246
 10
-190.0682803554525
 20
375.6279816378943
 42
0.1989123673781765
 10
-189.9975696773333
 20
375.5986923160131
 10
-188.5557095526207
 20
375.5986923160131
  0
LWPOLYLINE
  5
F590
330
1F
100
AcDbEntity
  8
DETAILS
 62
     6
370
    20
100
AcDbPolyline
 90
        4
 70
     0
 43
0.0
 10
-190.4383595255865
 20
376.1980608080235
 10
-190.1854376429771
 20
375.9451389254173
 42
0.1989123673777967
 10
-189.8318842523865
 20
375.7986923160129
 10
-188.6235380780097
 20
375.7986923160129
  0
LWPOLYLINE
  5
F591
330
1F
100
AcDbEntity
  8
DETAILS
 62
     6
370
    20
100
AcDbPolyline
 90
        2
 70
     0
 43
0.0
 10
-183.1502319070139
 20
374.948692316013
 10
-183.582027890902
 20
374.948692316013
  0
LWPOLYLINE
  5
F592
330
1F
100
AcDbEntity
  8
DETAILS
 62
     6
370
    20
100
AcDbPolyline
 90
        4
 70
     0
 43
0.0
 10
-182.4383595255865
 20
375.7480608080251
 10
-182.7066620004213
 20
375.4797583331916
 42
0.4142135623745727
 10
-182.7066620004213
 20
375.2676262988353
 10
-182.5808348360303
 20
375.1417991344438
  0
LWPOLYLINE
  5
F593
330
1F
100
AcDbEntity
  8
DETAILS
 62
     6
370
    20
100
AcDbPolyline
 90
        6
 70
     0
 43
0.0
 10
-187.9035037650871
 20
375.298692316013
 10
-186.4383595255847
 20
375.298692316013
 10
-182.9377280176002
 20
375.298692316013
 10
-182.9377280176002
 20
375.448692316013
 10
-186.4383595255847
 20
375.448692316013
 10
-188.0535037650886
 20
375.448692316013
  0
LWPOLYLINE
  5
F594
330
1F
100
AcDbEntity
  8
DETAILS
 62
     6
370
    20
100
AcDbPolyline
 90
        2
 70
     1
 43
0.0
 10
-186.0901127632176
 20
381.1486923160133
 10
-186.1082820618437
 20
381.1486923160131
  0
LWPOLYLINE
  5
F595
330
1F
100
AcDbEntity
  8
DETAILS
 62
     6
370
    20
100
AcDbPolyline
 90
        6
 70
     0
 43
0.0
 10
-186.1082820618437
 20
381.1486923160133
 42
0.279322065306064
 10
-186.1526022985733
 20
381.1218378711934
 42
-0.2793220653060733
 10
-186.4383595255847
 20
380.948692316013
 10
-182.879149373836
 20
380.948692316013
 42
0.1989123673782991
 10
-182.8084386957186
 20
380.9779816378942
 10
-182.4383595255865
 20
381.3480608080222
  0
LWPOLYLINE
  5
F596
330
1F
100
AcDbEntity
  8
DETAILS
 62
     6
370
    20
100
AcDbPolyline
 90
        2
 70
     1
 43
0.0
 10
-185.990112763219
 20
381.1486923160131
 10
-184.5901127632176
 20
381.1486923160131
  0
LWPOLYLINE
  5
F597
330
1F
100
AcDbEntity
  8
DETAILS
 62
     6
370
    20
100
AcDbPolyline
 90
        6
 70
     0
 43
0.0
 10
-184.5418893876383
 20
380.948692316013
 10
-184.7533199290435
 20
381.8255722061554
 42
0.3464949689054692
 10
-184.9477480028915
 20
381.9786923160132
 10
-185.7901127632183
 20
381.9786923160132
 42
0.4142135623730951
 10
-185.990112763219
 20
381.7786923160129
 10
-185.990112763219
 20
380.948692316013
  0
LWPOLYLINE
  5
F598
330
1F
100
AcDbEntity
  8
DETAILS
 62
     6
370
    20
100
AcDbPolyline
 90
        6
 70
     0
 43
0.0
 10
-184.4390235843409
 20
380.948692316013
 10
-184.6561058921186
 20
381.8490121512269
 42
0.3464949689054692
 10
-184.9477480028915
 20
382.0786923160131
 10
-185.7901127632183
 20
382.0786923160131
 42
0.4142135623730951
 10
-186.0901127632176
 20
381.7786923160129
 10
-186.0901127632194
 20
380.948692316013
  0
LWPOLYLINE
  5
F599
330
1F
100
AcDbEntity
  8
DETAILS
 62
     6
370
    20
100
AcDbPolyline
 90
        2
 70
     1
 43
0.0
 10
-184.487246959922
 20
381.1486923160133
 10
-184.4690776612958
 20
381.1486923160131
  0
LWPOLYLINE
  5
F59A
330
1F
100
AcDbEntity
  8
DETAILS
 62
     6
370
    20
100
AcDbPolyline
 90
        6
 70
     0
 43
0.0
 10
-183.8089227338157
 20
381.1486923160133
 10
-183.7157534351888
 20
381.1486923160133
 10
-183.8089227338157
 20
381.1486923160133
 42
0.2793220653054726
 10
-183.8532429705453
 20
381.1218378711929
 42
-0.6059183769079625
 10
-184.4247574255266
 20
381.1218378706918
 42
0.279322065306064
 10
-184.4690776612958
 20
381.1486923160133
  0
LWPOLYLINE
  5
F59B
330
1F
100
AcDbEntity
  8
DETAILS
 62
     6
370
    20
100
AcDbPolyline
 90
        7
 70
     0
 43
0.0
 10
-182.4383595255865
 20
381.948692316013
 10
-183.5590596583722
 20
381.948692316013
 42
0.4853378929632635
 10
-183.7243235211433
 20
381.7388444093922
 10
-183.533804515321
 20
380.948692316013
 10
-182.9377280176002
 20
380.948692316013
 10
-183.1877280176002
 20
380.948692316013
 10
-183.2877280176005
 20
380.948692316013
  0
LWPOLYLINE
  5
F59C
330
1F
100
AcDbEntity
  8
DETAILS
 62
     6
370
    20
100
AcDbPolyline
 90
        4
 70
     0
 43
0.0
 10
-182.4383595255865
 20
382.0786923160131
 10
-183.5590596583722
 20
382.0786923160131
 42
0.4853378929632635
 10
-183.8507017691452
 20
381.7083724807995
 10
-183.6675300596077
 20
380.948692316013
  0
LWPOLYLINE
  5
F59D
330
1F
100
AcDbEntity
  8
DETAILS
 62
     6
370
    20
100
AcDbPolyline
 90
       10
 70
     1
 43
0.0
 10
-186.4383595255865
 20
380.8986923160133
 10
-189.5889910335688
 20
380.8986923160133
 10
-189.6867186404458
 20
380.8766027435136
 42
0.7807764064044151
 10
-189.6867186404458
 20
380.8707818885128
 10
-189.5889910335706
 20
380.8486923160131
 10
-186.4383595255847
 20
380.8486923160131
 10
-183.2877280176005
 20
380.8486923160131
 10
-183.1900004107253
 20
380.8707818885128
 42
0.7807764064044151
 10
-183.1900004107253
 20
380.8766027435136
 10
-183.2877280176005
 20
380.8986923160133
  0
LWPOLYLINE
  5
F59E
330
1F
100
AcDbEntity
  8
DETAILS
 62
     6
370
    20
100
AcDbPolyline
 90
        7
 70
     0
 43
0.0
 10
-182.4383595255865
 20
380.099323824004
 10
-182.8084386957186
 20
380.469402994132
 42
0.1989123673781766
 10
-182.879149373836
 20
380.4986923160132
 10
-186.4383595255847
 20
380.4986923160132
 10
-189.9975696773333
 20
380.4986923160132
 42
0.1989123673781765
 10
-190.0682803554525
 20
380.469402994132
 10
-190.4383595255865
 20
380.0993238240013
  0
LWPOLYLINE
  5
F59F
330
1F
100
AcDbEntity
  8
DETAILS
 62
     6
370
    20
100
AcDbPolyline
 90
        7
 70
     0
 43
0.0
 10
-182.4383595255865
 20
379.8993238240058
 10
-182.6912814081922
 20
380.152245706609
 42
0.1989123673777966
 10
-183.0448347987847
 20
380.2986923160129
 10
-186.4383595255865
 20
380.2986923160132
 10
-189.8318842523865
 20
380.2986923160129
 42
0.1989123673777966
 10
-190.1854376429771
 20
380.152245706609
 10
-190.4383595255865
 20
379.8993238240023
  0
LWPOLYLINE
  5
F5A0
330
1F
100
AcDbEntity
  8
DETAILS
 62
     6
370
    20
100
AcDbPolyline
 90
        4
 70
     0
 43
0.0
 10
-183.582027890902
 20
381.1486923160131
 10
-183.0448347987847
 20
381.1486923160133
 42
0.1989123673788307
 10
-182.6912814081941
 20
381.2951389254186
 10
-182.4383595255865
 20
381.5480608080243
  0
LWPOLYLINE
  5
F5A1
330
1F
100
AcDbEntity
  8
DETAILS
 62
     6
370
    20
100
AcDbPolyline
 90
        4
 70
     0
 43
0.0
 10
-182.4383595255865
 20
381.0980608080259
 10
-182.7066620004213
 20
380.829758333191
 42
0.4142135623745727
 10
-182.7066620004213
 20
380.6176262988343
 10
-182.4383595255865
 20
380.3493238240017
  0
LWPOLYLINE
  5
F5A2
330
1F
100
AcDbEntity
  8
DETAILS
 62
     6
370
    20
100
AcDbPolyline
 90
        6
 70
     1
 43
0.0
 10
-186.4383595255847
 20
380.7986923160129
 10
-182.9377280176002
 20
380.7986923160131
 10
-182.9377280176002
 20
380.6486923160133
 10
-186.4383595255847
 20
380.6486923160128
 10
-189.938991033571
 20
380.6486923160131
 10
-189.938991033571
 20
380.7986923160134
  0
LWPOLYLINE
  5
F5A3
330
1F
100
AcDbEntity
  8
DETAILS
 62
     6
370
    20
100
AcDbPolyline
 90
        2
 70
     1
 43
0.0
 10
-186.7866062879518
 20
374.948692316013
 10
-186.7684369893256
 20
374.948692316013
  0
LWPOLYLINE
  5
F5A4
330
1F
100
AcDbEntity
  8
DETAILS
 62
     6
370
    20
100
AcDbPolyline
 90
        4
 70
     0
 43
0.0
 10
-186.7684369893256
 20
374.948692316013
 42
0.2793220653059341
 10
-186.724116752596
 20
374.975546760833
 42
-0.2793220653060734
 10
-186.4383595255847
 20
375.1486923160129
 10
-187.7535037650893
 20
375.1486923160129
  0
LWPOLYLINE
  5
F5A5
330
1F
100
AcDbEntity
  8
DETAILS
 62
     6
370
    20
100
AcDbPolyline
 90
        3
 70
     0
 43
0.0
 10
-188.1669144546219
 20
374.4522864469075
 10
-188.1233991221277
 20
374.2718124258705
 42
0.1288726382694848
 10
-188.0754088966157
 20
374.1824720657767
  0
LWPOLYLINE
  5
F5A6
330
1F
100
AcDbEntity
  8
DETAILS
 62
     6
370
    20
100
AcDbPolyline
 90
        3
 70
     0
 43
0.0
 10
-188.4376954668285
 20
375.1486923160129
 10
-188.2206131590508
 20
374.2483724807994
 42
0.2573401302768803
 10
-188.025245585967
 20
374.0345599289238
 42
0.2573401302768803
  0
LWPOLYLINE
  5
F5A7
330
1F
100
AcDbEntity
  8
DETAILS
 62
     6
370
    20
100
AcDbPolyline
 90
        2
 70
     1
 43
0.0
 10
-188.3894720912492
 20
374.948692316013
 10
-188.4076413898735
 20
374.948692316013
  0
LWPOLYLINE
  5
F5A8
330
1F
100
AcDbEntity
  8
DETAILS
 62
     6
370
    20
100
AcDbPolyline
 90
        6
 70
     0
 43
0.0
 10
-189.0677963173536
 20
374.948692316013
 10
-189.1609656159824
 20
374.948692316013
 10
-189.0677963173536
 20
374.948692316013
 42
0.2793220653054726
 10
-189.0234760806258
 20
374.975546760833
 42
-0.6059183769079624
 10
-188.4519616256445
 20
374.9755467613343
 42
0.279322065306064
 10
-188.4076413898735
 20
374.948692316013
  0
LWPOLYLINE
  5
F5A9
330
1F
100
AcDbEntity
  8
DETAILS
 62
     6
370
    20
100
AcDbPolyline
 90
        7
 70
     0
 43
0.0
 10
-190.4383595255865
 20
374.1486923160128
 10
-189.3176593927971
 20
374.1486923160128
 42
0.4853378929632635
 10
-189.1523955300261
 20
374.3585402226338
 10
-189.3429145358484
 20
375.1486923160129
 10
-189.938991033571
 20
375.1486923160129
 10
-189.6889910335692
 20
375.1486923160129
 10
-189.5889910335688
 20
375.1486923160129
  0
LWPOLYLINE
  5
F5AA
330
1F
100
AcDbEntity
  8
DETAILS
 62
     6
370
    20
100
AcDbPolyline
 90
        4
 70
     0
 43
0.0
 10
-190.4383595255865
 20
374.0186923160132
 10
-189.3176593927971
 20
374.0186923160132
 42
0.4853378929632635
 10
-189.0260172820242
 20
374.3890121512264
 10
-189.2091889915616
 20
375.1486923160129
  0
LWPOLYLINE
  5
F5AB
330
1F
100
AcDbEntity
  8
DETAILS
 62
     6
370
    20
100
AcDbPolyline
 90
        4
 70
     0
 43
0.0
 10
-189.2946911602692
 20
374.948692316013
 10
-189.8318842523847
 20
374.948692316013
 42
0.1989123673788306
 10
-190.1854376429771
 20
374.8022457066073
 10
-190.4383595255865
 20
374.5493238239993
  0
LWPOLYLINE
  5
F5AC
330
1F
100
AcDbEntity
  8
DETAILS
 62
     6
370
    20
100
AcDbPolyline
 90
        4
 70
     0
 43
0.0
 10
-190.4383595255865
 20
374.9993238239982
 10
-190.170057050748
 20
375.2676262988353
 42
0.4142135623745727
 10
-190.1700570507498
 20
375.4797583331916
 10
-190.4383595255865
 20
375.7480608080269
  0
LWPOLYLINE
  5
F5AD
330
1F
100
AcDbEntity
  8
DETAILS
 62
     6
370
    20
100
AcDbPolyline
 90
        2
 70
     1
 43
0.0
 10
-186.7866062879518
 20
381.1486923160133
 10
-186.7684369893256
 20
381.1486923160131
  0
LWPOLYLINE
  5
F5AE
330
1F
100
AcDbEntity
  8
DETAILS
 62
     6
370
    20
100
AcDbPolyline
 90
        6
 70
     0
 43
0.0
 10
-190.4383595255865
 20
381.348060808025
 10
-190.0682803554525
 20
380.9779816378942
 42
0.1989123673782989
 10
-189.9975696773333
 20
380.948692316013
 10
-186.4383595255847
 20
380.948692316013
 42
-0.2793220653060733
 10
-186.7241167535564
 20
381.1218378706918
 42
0.279322065306064
 10
-186.7684369893256
 20
381.1486923160133
  0
LWPOLYLINE
  5
F5AF
330
1F
100
AcDbEntity
  8
DETAILS
 62
     6
370
    20
100
AcDbPolyline
 90
        2
 70
     1
 43
0.0
 10
-186.8866062879503
 20
381.1486923160131
 10
-188.2866062879518
 20
381.1486923160131
  0
LWPOLYLINE
  5
F5B0
330
1F
100
AcDbEntity
  8
DETAILS
 62
     6
370
    20
100
AcDbPolyline
 90
        6
 70
     0
 43
0.0
 10
-186.8866062879503
 20
380.948692316013
 10
-186.8866062879522
 20
381.7786923160129
 42
0.4142135623730951
 10
-187.0866062879511
 20
381.9786923160132
 10
-187.9289710482778
 20
381.9786923160132
 42
0.3464949689054692
 10
-188.1233991221277
 20
381.8255722061554
 10
-188.334829663531
 20
380.948692316013
  0
LWPOLYLINE
  5
F5B1
330
1F
100
AcDbEntity
  8
DETAILS
 62
     6
370
    20
100
AcDbPolyline
 90
        6
 70
     0
 43
0.0
 10
-186.7866062879518
 20
380.948692316013
 10
-186.7866062879518
 20
381.7786923160129
 42
0.4142135623730951
 10
-187.0866062879511
 20
382.0786923160131
 10
-187.9289710482778
 20
382.0786923160131
 42
0.3464949689054692
 10
-188.2206131590508
 20
381.8490121512269
 10
-188.4376954668285
 20
380.948692316013
  0
LWPOLYLINE
  5
F5B2
330
1F
100
AcDbEntity
  8
DETAILS
 62
     6
370
    20
100
AcDbPolyline
 90
        2
 70
     1
 43
0.0
 10
-188.3894720912492
 20
381.1486923160133
 10
-188.4076413898735
 20
381.1486923160131
  0
LWPOLYLINE
  5
F5B3
330
1F
100
AcDbEntity
  8
DETAILS
 62
     6
370
    20
100
AcDbPolyline
 90
        6
 70
     0
 43
0.0
 10
-188.4076413898735
 20
381.1486923160133
 42
0.279322065306064
 10
-188.4519616266032
 20
381.1218378711934
 42
-0.6059183769079624
 10
-189.0234760815845
 20
381.1218378706918
 42
0.2793220653054726
 10
-189.0677963173536
 20
381.1486923160133
 10
-189.1609656159824
 20
381.1486923160133
 10
-189.0677963173536
 20
381.1486923160133
  0
LWPOLYLINE
  5
F5B4
330
1F
100
AcDbEntity
  8
DETAILS
 62
     6
370
    20
100
AcDbPolyline
 90
        7
 70
     0
 43
0.0
 10
-189.5889910335688
 20
380.948692316013
 10
-189.688991033571
 20
380.948692316013
 10
-189.938991033571
 20
380.948692316013
 10
-189.3429145358484
 20
380.948692316013
 10
-189.1523955300261
 20
381.7388444093922
 42
0.4853378929632635
 10
-189.3176593927971
 20
381.948692316013
 10
-190.4383595255865
 20
381.948692316013
  0
LWPOLYLINE
  5
F5B5
330
1F
100
AcDbEntity
  8
DETAILS
 62
     6
370
    20
100
AcDbPolyline
 90
        4
 70
     0
 43
0.0
 10
-189.2091889915616
 20
380.948692316013
 10
-189.0260172820242
 20
381.7083724807995
 42
0.4853378929632635
 10
-189.3176593927971
 20
382.0786923160131
 10
-190.4383595255865
 20
382.0786923160131
  0
LWPOLYLINE
  5
F5B6
330
1F
100
AcDbEntity
  8
DETAILS
 62
     6
370
    20
100
AcDbPolyline
 90
        4
 70
     0
 43
0.0
 10
-190.4383595255865
 20
381.5480608080273
 10
-190.1854376429771
 20
381.2951389254186
 42
0.1989123673788307
 10
-189.8318842523847
 20
381.1486923160133
 10
-189.2946911602692
 20
381.1486923160131
  0
LWPOLYLINE
  5
F5B7
330
1F
100
AcDbEntity
  8
DETAILS
 62
     6
370
    20
100
AcDbPolyline
 90
        4
 70
     0
 43
0.0
 10
-190.4383595255865
 20
380.349323823999
 10
-190.1700570507498
 20
380.6176262988343
 42
0.4142135623745727
 10
-190.170057050748
 20
380.829758333191
 10
-190.4383595255865
 20
381.0980608080281
  0
LINE
  5
F5B8
330
1F
100
AcDbEntity
  8
0
 62
     1
100
AcDbLine
 10
-192.0883595255861
 20
372.2986923160129
 30
0.0
 11
-191.4633595255861
 21
372.2986923160129
 31
0.0
  0
LINE
  5
F5B9
330
1F
100
AcDbEntity
  8
0
 62
     1
100
AcDbLine
 10
-191.0633595255865
 20
372.2986923160129
 30
0.0
 11
-191.0633595255865
 21
372.265013428068
 31
0.0
  0
LINE
  5
F5BA
330
1F
100
AcDbEntity
  8
0
 62
     1
100
AcDbLine
 10
-191.4633595255861
 20
372.2986923160129
 30
0.0
 11
-191.4633595255861
 21
372.1293563772886
 31
0.0
  0
LINE
  5
F5BB
330
1F
100
AcDbEntity
  8
0
 62
     1
100
AcDbLine
 10
-191.0633595255865
 20
372.2986923160129
 30
0.0
 11
-190.9640535543847
 21
372.2986923160129
 31
0.0
  0
LINE
  5
F5BC
330
1F
100
AcDbEntity
  8
0
 62
     1
100
AcDbLine
 10
-192.4383595255865
 20
407.7987042865102
 30
0.0
 11
-190.4383595255865
 21
407.7987042865102
 31
0.0
  0
LINE
  5
F5BD
330
1F
100
AcDbEntity
  8
0
 62
     1
100
AcDbLine
 10
-190.4383595255865
 20
408.2987042865102
 30
0.0
 11
-190.4383595255865
 21
407.7987042865102
 31
0.0
  0
LINE
  5
F5BE
330
1F
100
AcDbEntity
  8
0
  6
HIDDEN
 62
     1
 48
0.02
100
AcDbLine
 10
-192.0883595255861
 20
408.2987042865102
 30
0.0
 11
-191.4633595255861
 21
408.2987042865102
 31
0.0
  0
LINE
  5
F5BF
330
1F
100
AcDbEntity
  8
0
  6
HIDDEN
 62
     1
 48
0.02
100
AcDbLine
 10
-192.0883595255861
 20
408.2987042865102
 30
0.0
 11
-192.0883595255861
 21
407.7987042865102
 31
0.0
  0
LINE
  5
F5C0
330
1F
100
AcDbEntity
  8
0
  6
HIDDEN
 62
     1
 48
0.02
100
AcDbLine
 10
-191.0633595255865
 20
408.2987042865102
 30
0.0
 11
-191.0633595255865
 21
407.7987042865102
 31
0.0
  0
LINE
  5
F5C1
330
1F
100
AcDbEntity
  8
0
  6
HIDDEN
 62
     1
 48
0.02
100
AcDbLine
 10
-191.4633595255861
 20
408.2987042865102
 30
0.0
 11
-191.4633595255843
 21
407.7987042865102
 31
0.0
  0
LINE
  5
F5C2
330
1F
100
AcDbEntity
  8
0
  6
HIDDEN
 62
     1
 48
0.02
100
AcDbLine
 10
-191.0633595255865
 20
408.2987042865102
 30
0.0
 11
-190.4383595255865
 21
408.2987042865102
 31
0.0
  0
LINE
  5
F5C3
330
1F
100
AcDbEntity
  8
A2 Hatch
  6
DASHED
 48
0.15
100
AcDbLine
 10
-190.4383594556591
 20
407.7986983012616
 30
0.0
 11
-190.4383594556591
 21
403.7986983012616
 31
0.0
  0
LINE
  5
F5C4
330
1F
100
AcDbEntity
  8
A2 Hatch
 48
0.15
100
AcDbLine
 10
-190.4383595255865
 20
401.7986983012615
 30
0.0
 11
-190.4383595255865
 21
403.7986983012616
 31
0.0
  0
LINE
  5
F5C5
330
1F
100
AcDbEntity
  8
REBAR
 48
0.15
100
AcDbLine
 10
-187.4611492524061
 20
430.786638250439
 30
0.0
 11
-187.4611492524061
 21
374.8563378033308
 31
0.0
  0
CIRCLE
  5
F5C6
330
1F
100
AcDbEntity
  8
A2 Hatch
 48
0.15
100
AcDbCircle
 10
-186.4383595255865
 20
393.3867683434051
 30
0.0
 40
0.8157720410317779
  0
HATCH
  5
F5C7
330
1F
100
AcDbEntity
  8
A2 Hatch
 48
0.15
100
AcDbHatch
 10
0.0
 20
0.0
 30
0.0
210
0.0
220
0.0
230
1.0
  2
SOLID
 70
     1
 71
     0
 91
        1
 92
        1
 93
        1
 72
     2
 10
-186.4383595255865
 20
393.3867683434051
 40
0.2243383222039483
 50
0.0
 51
360.0
 73
     1
 97
        0
 75
     0
 76
     1
 98
        1
 10
-3427.059769735785
 20
744.8308863342442
  0
LEADER
  5
F5C8
330
1F
100
AcDbEntity
  8
DIM
100
AcDbLeader
  3
ARCTEXT1-4
 76
     3
 10
-185.9962977410512
 20
404.2572031358621
 30
0.0
 10
-168.7869097106602
 20
430.0377888963251
 30
0.0
 10
-167.7869097106602
 20
430.0377888963248
 30
0.0
1001
ACAD
1000
DSTYLE
1002
{
1070
    41
1040
0.5
1070
    77
1070
     0
1002
}
  0
MTEXT
  5
F5C9
330
1F
100
AcDbEntity
  8
DIM
 62
     3
100
AcDbMText
 10
-212.4873146093221
 20
423.0501428960675
 30
0.0
 40
1.0
 41
22.68954545454545
 71
     1
 72
     5
  1
VERT REINF 
  7
RomanC
 73
     1
 44
1.0
1001
ACAD
1000
MTEXTBEGIN
1070
    73
1070
     1
1070
    44
1040
1.0
1070
    74
1070
     0
1000
MTEXTEND
  0
MTEXT
  5
F5CA
330
1F
100
AcDbEntity
  8
DIM
 62
     3
100
AcDbMText
 10
-212.9822610122308
 20
384.8463707880847
 30
0.0
 40
1.0
 41
22.68954545454545
 71
     1
 72
     5
  1
HORIZ REINF 
  7
RomanC
 73
     1
 44
1.0
1001
ACAD
1000
MTEXTBEGIN
1070
    73
1070
     1
1070
    44
1040
1.0
1070
    74
1070
     0
1000
MTEXTEND
  0
LEADER
  5
F5CB
330
1F
100
AcDbEntity
  8
DIM
100
AcDbLeader
  3
ARCTEXT1-4
 76
     3
 10
-187.355992030835
 20
393.3762677966671
 30
0.0
 10
-203.180162196514
 20
384.3724855183774
 30
0.0
 10
-204.1801621965139
 20
384.3724855183774
 30
0.0
211
-1.0
221
0.0
231
0.0
1001
ACAD
1000
DSTYLE
1002
{
1070
    41
1040
0.5
1070
    77
1070
     0
1002
}
  0
LEADER
  5
F5CC
330
1F
100
AcDbEntity
  8
DIM
100
AcDbLeader
  3
ARCTEXT1-4
 76
     3
 10
-186.4383595255865
 20
422.4369738855599
 30
0.0
 10
-197.1781716688572
 20
422.437393505777
 30
0.0
 10
-204.1801621965139
 20
422.4378131259942
 30
0.0
211
-1.0
221
0.0
231
0.0
1001
ACAD
1000
DSTYLE
1002
{
1070
    41
1040
0.5
1070
    77
1070
     0
1002
}
  0
LEADER
  5
F5CD
330
1F
100
AcDbEntity
  8
DIM
100
AcDbLeader
  3
ARCTEXT1-4
 76
     3
 10
-192.4383595255865
 20
417.845922996148
 30
0.0
 10
-199.1747342585229
 20
417.846342616365
 30
0.0
 10
-204.1801621965139
 20
417.8467622365822
 30
0.0
211
-1.0
221
0.0
231
0.0
1001
ACAD
1000
DSTYLE
1002
{
1070
    41
1040
0.5
1070
    77
1070
     0
1002
}
  0
LINE
  5
F5CE
330
1F
100
AcDbEntity
  8
0
 62
     1
100
AcDbLine
 10
-192.4383595255865
 20
401.7986983012615
 30
0.0
 11
-192.4383595255865
 21
407.7987042865102
 31
0.0
  0
LINE
  5
F5CF
330
1F
100
AcDbEntity
  8
0
 62
     1
100
AcDbLine
 10
-190.4383595255865
 20
401.7986983012615
 30
0.0
 11
-190.4383595255865
 21
407.7987042865102
 31
0.0
  0
LINE
  5
F5D0
330
1F
100
AcDbEntity
  8
0
 62
     1
100
AcDbLine
 10
-192.0883595255843
 20
401.7986983012615
 30
0.0
 11
-192.0883595255861
 21
407.7987042865102
 31
0.0
  0
LINE
  5
F5D1
330
1F
100
AcDbEntity
  8
0
 62
     1
100
AcDbLine
 10
-190.6383595255872
 20
401.7986983012615
 30
0.0
 11
-190.6383595255854
 21
407.7987042865102
 31
0.0
  0
LINE
  5
F5D2
330
1F
100
AcDbEntity
  8
0
 62
     1
100
AcDbLine
 10
-191.5133595255854
 20
401.7986983012615
 30
0.0
 11
-191.5133595255854
 21
407.7987042865102
 31
0.0
  0
LINE
  5
F5D3
330
1F
100
AcDbEntity
  8
0
 62
     1
100
AcDbLine
 10
-191.0133595255854
 20
401.7986983012615
 30
0.0
 11
-191.0133595255854
 21
407.7987042865102
 31
0.0
  0
MTEXT
  5
F5D4
330
1F
100
AcDbEntity
  8
DIM
100
AcDbMText
 10
-183.7529143543349
 20
363.9857929962218
 30
0.0
 40
3.0
 41
71.84555464638839
 71
     2
 72
     5
  1
{\L8" WALL; PRECAST PERPENDICULAR TO WALL}\P\P            
  7
RomanC
 73
     1
 44
1.0
1001
ACAD
1000
MTEXTBEGIN
1070
    73
1070
     1
1070
    44
1040
1.0
1070
    74
1070
     0
1000
MTEXTEND
  0
LINE
  5
F5D5
330
1F
100
AcDbEntity
  8
0
 48
0.15
100
AcDbLine
 10
-185.3884893775255
 20
407.7986983012616
 30
0.0
 11
-145.7941777258499
 21
407.7986983012616
 31
0.0
  0
LINE
  5
F5D6
330
1F
100
AcDbEntity
  8
DIM
100
AcDbLine
 10
-144.6767842348734
 20
410.0629527620011
 30
0.0
 11
-148.9321773479048
 21
401.4399449172374
 31
0.0
  0
LINE
  5
F5D7
330
1F
100
AcDbEntity
  8
DIM
100
AcDbLine
 10
-146.3186607383329
 20
400.1501930369904
 30
0.0
 11
-152.8186607383329
 21
400.1501930369904
 31
0.0
  0
LINE
  5
F5D8
330
1F
100
AcDbEntity
  8
DIM
100
AcDbLine
 10
-146.3186607383329
 20
400.1501930369904
 30
0.0
 11
-148.9321773479048
 21
401.4399449172379
 31
0.0
  0
LINE
  5
F5D9
330
1F
100
AcDbEntity
  8
DIM
100
AcDbLine
 10
-152.8186607383329
 20
400.1501930369904
 30
0.0
 11
-150.205144128761
 21
398.8604411567436
 31
0.0
  0
LINE
  5
F5DA
330
1F
100
AcDbEntity
  8
DIM
100
AcDbLine
 10
-150.205144128761
 20
398.8604411567436
 30
0.0
 11
-153.6236627419901
 21
391.9332520495689
 31
0.0
  0
LINE
  5
F5DB
330
1F
100
AcDbEntity
  8
0
 48
0.15
100
AcDbLine
 10
-185.3884893775255
 20
406.2986983012615
 30
0.0
 11
-146.5344170697615
 21
406.2986983012615
 31
0.0
  0
LINE
  5
F5DC
330
1F
100
AcDbEntity
  8
A2 Hatch
  6
DASHED
 48
0.2
100
AcDbLine
 10
-185.3884893775255
 20
404.7986983012616
 30
0.0
 11
-147.274656413673
 21
404.7986983012613
 31
0.0
  0
LINE
  5
F5DD
330
1F
100
AcDbEntity
  8
A2 Hatch
  6
DASHED
 48
0.2
100
AcDbLine
 10
-185.3884893775255
 20
398.7986983012616
 30
0.0
 11
-150.2356137893173
 21
398.7986983012616
 31
0.0
  0
LINE
  5
F5DE
330
1F
100
AcDbEntity
  8
A2 Hatch
  6
DASHED
 48
0.2
100
AcDbLine
 10
-177.4232388191037
 20
400.2986983012611
 30
0.0
 11
-175.4383595255865
 21
398.7986983012616
 31
0.0
  0
LINE
  5
F5DF
330
1F
100
AcDbEntity
  8
A2 Hatch
  6
DASHED
 48
0.2
100
AcDbLine
 10
-177.4232388191037
 20
403.2986983012611
 30
0.0
 11
-175.4383595255865
 21
404.7986983012616
 31
0.0
  0
LINE
  5
F5E0
330
1F
100
AcDbEntity
  8
0
 48
0.15
100
AcDbLine
 10
-185.3884893775255
 20
397.2986983012616
 30
0.0
 11
-150.9758531332288
 21
397.2986983012616
 31
0.0
  0
LINE
  5
F5E1
330
1F
100
AcDbEntity
  8
REBAR
 48
0.15
100
AcDbLine
 10
-183.4317418287326
 20
402.8138190077434
 30
0.0
 11
-165.526933804075
 21
402.8138190077434
 31
0.0
  0
LINE
  5
F5E2
330
1F
100
AcDbEntity
  8
REBAR
 48
0.15
100
AcDbLine
 10
-186.4317418287326
 20
423.8138190077439
 30
0.0
 11
-186.4317418287326
 21
405.8138190077439
 31
0.0
  0
ARC
  5
F5E3
330
1F
100
AcDbEntity
  8
REBAR
 48
0.15
100
AcDbCircle
 10
-183.4317418287326
 20
405.8138190077434
 30
0.0
 40
3.0
100
AcDbArc
 50
180.0
 51
270.0
  0
LINE
  5
F5E4
330
1F
100
AcDbEntity
  8
0
 48
0.15
100
AcDbLine
 10
-185.3884893775255
 20
397.2986983012614
 30
0.0
 11
-185.3884893775255
 21
407.7986983012616
 31
0.0
  0
LINE
  5
F5E5
330
1F
100
AcDbEntity
  8
A2 Hatch
  6
DASHED
 48
0.2
100
AcDbLine
 10
-177.4232388191037
 20
403.2986983012611
 30
0.0
 11
-177.4232388191037
 21
400.2986983012611
 31
0.0
  0
MTEXT
  5
F5E6
330
1F
100
AcDbEntity
  8
DIM
 62
     3
100
AcDbMText
 10
-166.9268683442903
 20
430.6972091199319
 30
0.0
 40
1.0
 41
22.68954545454545
 71
     1
 72
     5
  1
BENT REINF IN PRECAST CUTOUT 
  7
RomanC
 73
     1
 44
1.0
1001
ACAD
1000
MTEXTBEGIN
1070
    73
1070
     1
1070
    44
1040
1.0
1070
    74
1070
     0
1000
MTEXTEND
  0
MTEXT
  5
F5E7
330
1F
100
AcDbEntity
  8
DIM
 62
     3
100
AcDbMText
 10
-167.0363224346808
 20
423.7234366357356
 30
0.0
 40
1.0
 41
22.68954545454545
 71
     1
 72
     5
  1
GROUT END CORES SOLID
  7
RomanC
 73
     1
 44
1.0
1001
ACAD
1000
MTEXTBEGIN
1070
    73
1070
     1
1070
    44
1040
1.0
1070
    74
1070
     0
1000
MTEXTEND
  0
MTEXT
  5
F5E8
330
1F
100
AcDbEntity
  8
DIM
 62
     3
100
AcDbMText
 10
-167.0654171043759
 20
418.8133727707223
 30
0.0
 40
1.0
 41
22.68954545454545
 71
     1
 72
     5
  1
BENT CORES IN GROUT KEY
  7
RomanC
 73
     1
 44
1.0
1001
ACAD
1000
MTEXTBEGIN
1070
    73
1070
     1
1070
    44
1040
1.0
1070
    74
1070
     0
1000
MTEXTEND
  0
LEADER
  5
F5E9
330
1F
100
AcDbEntity
  8
DIM
100
AcDbLeader
  3
ARCTEXT1-4
 76
     3
 10
-181.9472364045584
 20
400.4771114270047
 30
0.0
 10
-168.7869097106602
 20
423.307211696902
 30
0.0
 10
-167.7869097106602
 20
423.307211696902
 30
0.0
1001
ACAD
1000
DSTYLE
1002
{
1070
    41
1040
0.5
1070
    77
1070
     0
1002
}
  0
LEADER
  5
F5EA
330
1F
100
AcDbEntity
  8
DIM
100
AcDbLeader
  3
ARCTEXT1-4
 76
     3
 10
-175.8209884889736
 20
402.8138190077434
 30
0.0
 10
-168.7869097106602
 20
418.4190955161289
 30
0.0
 10
-167.7869097106602
 20
418.4190955161289
 30
0.0
1001
ACAD
1000
DSTYLE
1002
{
1070
    41
1040
0.5
1070
    77
1070
     0
1002
}
  0
LINE
  5
F5EB
330
1F
100
AcDbEntity
  8
0
 62
     1
100
AcDbLine
 10
-192.4383595255865
 20
427.7289927631214
 30
0.0
 11
-192.4383595255865
 21
419.7987042865102
 31
0.0
  0
LINE
  5
F5EC
330
1F
100
AcDbEntity
  8
0
 62
     1
100
AcDbLine
 10
-192.4383595255865
 20
419.7987042865102
 30
0.0
 11
-190.4383595255865
 21
419.7987042865102
 31
0.0
  0
LINE
  5
F5ED
330
1F
100
AcDbEntity
  8
0
 62
     1
100
AcDbLine
 10
-190.4383595255865
 20
428.4072780170196
 30
0.0
 11
-190.4383595255865
 21
419.7987042865102
 31
0.0
  0
LINE
  5
F5EE
330
1F
100
AcDbEntity
  8
0
 62
     1
100
AcDbLine
 10
-192.0883595255861
 20
427.8476926825535
 30
0.0
 11
-192.0883595255861
 21
419.7987042865102
 31
0.0
  0
LINE
  5
F5EF
330
1F
100
AcDbEntity
  8
0
 62
     1
100
AcDbLine
 10
-190.6383595255854
 20
428.33944949163
 30
0.0
 11
-190.6383595255854
 21
419.7987042865102
 31
0.0
  0
LINE
  5
F5F0
330
1F
100
AcDbEntity
  8
A2 Hatch
  6
DASHED2
 48
0.15
100
AcDbLine
 10
-191.6733595255871
 20
427.9884368727373
 30
0.0
 11
-191.6733595255853
 21
419.7987042865102
 31
0.0
  0
LINE
  5
F5F1
330
1F
100
AcDbEntity
  8
A2 Hatch
  6
DASHED2
 48
0.15
100
AcDbLine
 10
-190.8533595255855
 20
428.2665338268357
 30
0.0
 11
-190.8533595255855
 21
419.7987042865102
 31
0.0
  0
LINE
  5
F5F2
330
1F
100
AcDbEntity
  8
0
 62
     1
100
AcDbLine
 10
-191.5133595255854
 20
428.0426996930493
 30
0.0
 11
-191.5133595255854
 21
419.7987042865102
 31
0.0
  0
LINE
  5
F5F3
330
1F
100
AcDbEntity
  8
0
 62
     1
100
AcDbLine
 10
-191.0133595255854
 20
428.2122710065239
 30
0.0
 11
-191.0133595255854
 21
419.7987042865102
 31
0.0
  0
LINE
  5
F5F4
330
1F
100
AcDbEntity
  8
0
  6
HIDDEN
 62
     1
 48
0.02
100
AcDbLine
 10
-192.0883595255861
 20
420.2987042865102
 30
0.0
 11
-191.4633595255861
 21
420.2987042865102
 31
0.0
  0
LINE
  5
F5F5
330
1F
100
AcDbEntity
  8
0
  6
HIDDEN
 62
     1
 48
0.02
100
AcDbLine
 10
-191.0633595255865
 20
420.2987042865102
 30
0.0
 11
-191.0633595255865
 21
419.7987042865102
 31
0.0
  0
LINE
  5
F5F6
330
1F
100
AcDbEntity
  8
0
  6
HIDDEN
 62
     1
 48
0.02
100
AcDbLine
 10
-191.4633595255861
 20
420.2987042865102
 30
0.0
 11
-191.4633595255843
 21
419.7987042865102
 31
0.0
  0
LINE
  5
F5F7
330
1F
100
AcDbEntity
  8
0
  6
HIDDEN
 62
     1
 48
0.02
100
AcDbLine
 10
-191.0633595255865
 20
420.2987042865102
 30
0.0
 11
-190.4383595255865
 21
420.2987042865102
 31
0.0
  0
LINE
  5
F5F8
330
1F
100
AcDbEntity
  8
0
 62
     1
100
AcDbLine
 10
-180.4383595255847
 20
431.7987042865103
 30
0.0
 11
-180.4383595255847
 21
419.7987042865102
 31
0.0
  0
LINE
  5
F5F9
330
1F
100
AcDbEntity
  8
0
 62
     1
100
AcDbLine
 10
-182.4383595255865
 20
431.1204190326114
 30
0.0
 11
-182.4383595255847
 21
419.7987042865102
 31
0.0
  0
LINE
  5
F5FA
330
1F
100
AcDbEntity
  8
0
 62
     1
100
AcDbLine
 10
-182.2383595255858
 20
431.1882475580015
 30
0.0
 11
-182.2383595255858
 21
419.7987042865102
 31
0.0
  0
LINE
  5
F5FB
330
1F
100
AcDbEntity
  8
0
 62
     1
100
AcDbLine
 10
-182.0233595255856
 20
431.2611632227956
 30
0.0
 11
-182.0233595255856
 21
419.7987042865102
 31
0.0
  0
LINE
  5
F5FC
330
1F
100
AcDbEntity
  8
0
 62
     1
100
AcDbLine
 10
-181.2033595255859
 20
431.539260176894
 30
0.0
 11
-181.2033595255859
 21
419.7987042865102
 31
0.0
  0
LINE
  5
F5FD
330
1F
100
AcDbEntity
  8
A2 Hatch
  6
DASHED2
 48
0.15
100
AcDbLine
 10
-181.8633595255858
 20
431.3154260431077
 30
0.0
 11
-181.8633595255858
 21
419.7987042865102
 31
0.0
  0
LINE
  5
F5FE
330
1F
100
AcDbEntity
  8
A2 Hatch
  6
DASHED2
 48
0.15
100
AcDbLine
 10
-181.3633595255858
 20
431.4849973565822
 30
0.0
 11
-181.3633595255858
 21
419.7987042865102
 31
0.0
  0
LINE
  5
F5FF
330
1F
100
AcDbEntity
  8
0
 62
     1
100
AcDbLine
 10
-182.4383595255847
 20
419.7987042865102
 30
0.0
 11
-180.4383595255847
 21
419.7987042865102
 31
0.0
  0
LINE
  5
F600
330
1F
100
AcDbEntity
  8
0
  6
HIDDEN
 62
     1
 48
0.02
100
AcDbLine
 10
-180.7883595255832
 20
420.2987042865102
 30
0.0
 11
-180.7883595255832
 21
419.7987042865102
 31
0.0
  0
LINE
  5
F601
330
1F
100
AcDbEntity
  8
0
  6
HIDDEN
 62
     1
 48
0.02
100
AcDbLine
 10
-181.8133595255847
 20
420.2987042865104
 30
0.0
 11
-181.8133595255847
 21
419.7987042865102
 31
0.0
  0
LINE
  5
F602
330
1F
100
AcDbEntity
  8
0
  6
HIDDEN
 62
     1
 48
0.02
100
AcDbLine
 10
-181.4133595255832
 20
420.2987042865102
 30
0.0
 11
-181.4133595255832
 21
419.7987042865102
 31
0.0
  0
LINE
  5
F603
330
1F
100
AcDbEntity
  8
0
  6
HIDDEN
 62
     1
 48
0.02
100
AcDbLine
 10
-182.4383595255829
 20
420.2987042865102
 30
0.0
 11
-181.8133595255829
 21
420.2987042865102
 31
0.0
  0
LINE
  5
F604
330
1F
100
AcDbEntity
  8
0
  6
HIDDEN
 62
     1
 48
0.02
100
AcDbLine
 10
-181.4133595255832
 20
420.2987042865102
 30
0.0
 11
-180.7883595255832
 21
420.2987042865102
 31
0.0
  0
LWPOLYLINE
  5
F605
330
1F
100
AcDbEntity
  8
DETAILS
 62
     6
370
    20
100
AcDbPolyline
 90
        2
 70
     1
 43
0.0
 10
-186.0901127632176
 20
422.9487042865101
 10
-186.1082820618437
 20
422.9487042865103
  0
LWPOLYLINE
  5
F606
330
1F
100
AcDbEntity
  8
DETAILS
 62
     6
370
    20
100
AcDbPolyline
 90
        6
 70
     0
 43
0.0
 10
-182.4383595255865
 20
422.7493357945005
 10
-182.8084386957186
 20
423.1194149646292
 42
0.1989123673782988
 10
-182.879149373836
 20
423.1487042865102
 10
-186.4383595255847
 20
423.1487042865103
 42
-0.2793220653060733
 10
-186.1526022976129
 20
422.9755587318313
 42
0.279322065306064
 10
-186.1082820618437
 20
422.9487042865101
  0
LWPOLYLINE
  5
F607
330
1F
100
AcDbEntity
  8
DETAILS
 62
     6
370
    20
100
AcDbPolyline
 90
        2
 70
     1
 43
0.0
 10
-185.990112763219
 20
422.9487042865103
 10
-184.5901127632176
 20
422.9487042865103
  0
LWPOLYLINE
  5
F608
330
1F
100
AcDbEntity
  8
DETAILS
 62
     6
370
    20
100
AcDbPolyline
 90
        6
 70
     0
 43
0.0
 10
-185.990112763219
 20
423.1487042865102
 10
-185.990112763219
 20
422.3187042865102
 42
0.4142135623730951
 10
-185.7901127632183
 20
422.1187042865102
 10
-184.9477480028915
 20
422.1187042865102
 42
0.3464949689054693
 10
-184.7533199290435
 20
422.2718243963678
 10
-184.5418893876383
 20
423.1487042865102
  0
LWPOLYLINE
  5
F609
330
1F
100
AcDbEntity
  8
DETAILS
 62
     6
370
    20
100
AcDbPolyline
 90
        6
 70
     0
 43
0.0
 10
-186.0901127632194
 20
423.1487042865102
 10
-186.0901127632176
 20
422.3187042865102
 42
0.4142135623730951
 10
-185.7901127632183
 20
422.01870428651
 10
-184.9477480028915
 20
422.01870428651
 42
0.3464949689054693
 10
-184.6561058921186
 20
422.2483844512965
 10
-184.4390235843409
 20
423.1487042865102
  0
LWPOLYLINE
  5
F60A
330
1F
100
AcDbEntity
  8
DETAILS
 62
     6
370
    20
100
AcDbPolyline
 90
        2
 70
     1
 43
0.0
 10
-184.487246959922
 20
422.9487042865101
 10
-184.4690776612958
 20
422.9487042865103
  0
LWPOLYLINE
  5
F60B
330
1F
100
AcDbEntity
  8
DETAILS
 62
     6
370
    20
100
AcDbPolyline
 90
        6
 70
     0
 43
0.0
 10
-184.4690776612958
 20
422.9487042865101
 42
0.279322065306064
 10
-184.4247574245662
 20
422.9755587313301
 42
-0.6059183769079624
 10
-183.8532429695849
 20
422.9755587318313
 42
0.2793220653054726
 10
-183.8089227338157
 20
422.9487042865101
 10
-183.715753435187
 20
422.9487042865101
 10
-183.8089227338157
 20
422.9487042865101
  0
LWPOLYLINE
  5
F60C
330
1F
100
AcDbEntity
  8
DETAILS
 62
     6
370
    20
100
AcDbPolyline
 90
        7
 70
     0
 43
0.0
 10
-183.2877280176005
 20
423.1487042865102
 10
-183.1877280176002
 20
423.1487042865102
 10
-182.9377280176002
 20
423.1487042865102
 10
-183.533804515321
 20
423.1487042865102
 10
-183.7243235211433
 20
422.3585521931311
 42
0.4853378929632635
 10
-183.5590596583722
 20
422.1487042865101
 10
-182.4383595255865
 20
422.1487042865101
  0
LWPOLYLINE
  5
F60D
330
1F
100
AcDbEntity
  8
DETAILS
 62
     6
370
    20
100
AcDbPolyline
 90
        4
 70
     0
 43
0.0
 10
-183.6675300596077
 20
423.1487042865102
 10
-183.8507017691452
 20
422.3890241217237
 42
0.4853378929632635
 10
-183.5590596583722
 20
422.01870428651
 10
-182.4383595255865
 20
422.01870428651
  0
LWPOLYLINE
  5
F60E
330
1F
100
AcDbEntity
  8
DETAILS
 62
     6
370
    20
100
AcDbPolyline
 90
       10
 70
     1
 43
0.0
 10
-186.4383595255847
 20
423.19870428651
 10
-183.2877280176005
 20
423.19870428651
 10
-183.1900004107253
 20
423.2207938590097
 42
0.7807764064044151
 10
-183.1900004107253
 20
423.2266147140106
 10
-183.2877280176005
 20
423.24870428651
 10
-186.4383595255847
 20
423.24870428651
 10
-189.5889910335706
 20
423.24870428651
 10
-189.6867186404458
 20
423.2266147140106
 42
0.7807764064044151
 10
-189.6867186404458
 20
423.2207938590097
 10
-189.5889910335688
 20
423.19870428651
  0
LWPOLYLINE
  5
F60F
330
1F
100
AcDbEntity
  8
DETAILS
 62
     6
370
    20
100
AcDbPolyline
 90
        7
 70
     0
 43
0.0
 10
-190.4383595255865
 20
423.9980727785214
 10
-190.0682803554525
 20
423.6279936083911
 42
0.1989123673781765
 10
-189.9975696773333
 20
423.5987042865102
 10
-186.4383595255847
 20
423.5987042865102
 10
-182.879149373836
 20
423.5987042865102
 42
0.1989123673781768
 10
-182.8084386957186
 20
423.6279936083911
 10
-182.4383595255865
 20
423.9980727785193
  0
LWPOLYLINE
  5
F610
330
1F
100
AcDbEntity
  8
DETAILS
 62
     6
370
    20
100
AcDbPolyline
 90
        7
 70
     0
 43
0.0
 10
-190.4383595255865
 20
424.1980727785206
 10
-190.1854376429771
 20
423.9451508959144
 42
0.1989123673777967
 10
-189.8318842523865
 20
423.7987042865102
 10
-186.4383595255847
 20
423.7987042865102
 10
-183.0448347987847
 20
423.7987042865102
 42
0.1989123673777968
 10
-182.6912814081922
 20
423.9451508959144
 10
-182.4383595255865
 20
424.1980727785178
  0
LWPOLYLINE
  5
F611
330
1F
100
AcDbEntity
  8
DETAILS
 62
     6
370
    20
100
AcDbPolyline
 90
        4
 70
     0
 43
0.0
 10
-182.4383595255865
 20
422.5493357944986
 10
-182.6912814081941
 20
422.8022576771046
 42
0.1989123673788307
 10
-183.0448347987847
 20
422.9487042865101
 10
-183.582027890902
 20
422.9487042865103
  0
LWPOLYLINE
  5
F612
330
1F
100
AcDbEntity
  8
DETAILS
 62
     6
370
    20
100
AcDbPolyline
 90
        4
 70
     0
 43
0.0
 10
-182.4383595255865
 20
423.7480727785222
 10
-182.7066620004213
 20
423.4797703036888
 42
0.4142135623745727
 10
-182.7066620004213
 20
423.2676382693323
 10
-182.4383595255865
 20
422.9993357944977
  0
LWPOLYLINE
  5
F613
330
1F
100
AcDbEntity
  8
DETAILS
 62
     6
370
    20
100
AcDbPolyline
 90
        6
 70
     1
 43
0.0
 10
-186.4383595255847
 20
423.2987042865103
 10
-182.9377280176002
 20
423.2987042865103
 10
-182.9377280176002
 20
423.4487042865101
 10
-186.4383595255847
 20
423.4487042865103
 10
-189.938991033571
 20
423.4487042865103
 10
-189.938991033571
 20
423.29870428651
  0
LWPOLYLINE
  5
F614
330
1F
100
AcDbEntity
  8
DETAILS
 62
     6
370
    20
100
AcDbPolyline
 90
        2
 70
     1
 43
0.0
 10
-186.0901127632176
 20
429.1487042865101
 10
-186.1082820618437
 20
429.1487042865101
  0
LWPOLYLINE
  5
F615
330
1F
100
AcDbEntity
  8
DETAILS
 62
     6
370
    20
100
AcDbPolyline
 90
        4
 70
     0
 43
0.0
 10
-186.1082820618437
 20
429.1487042865104
 42
0.2793220653051915
 10
-186.1526022985733
 20
429.1218498416902
 42
-0.2793220653060733
 10
-186.4383595255847
 20
428.9487042865103
 10
-185.6232152884775
 20
428.9487042865103
  0
LWPOLYLINE
  5
F616
330
1F
100
AcDbEntity
  8
DETAILS
 62
     6
370
    20
100
AcDbPolyline
 90
        4
 70
     0
 43
0.0
 10
-184.5418893876383
 20
428.9487042865103
 10
-184.7533199290435
 20
429.8255841766527
 42
0.3464949689054692
 10
-184.9477480028915
 20
429.9787042865103
 10
-184.9925119019033
 20
429.9787042865103
  0
LWPOLYLINE
  5
F617
330
1F
100
AcDbEntity
  8
DETAILS
 62
     6
370
    20
100
AcDbPolyline
 90
        4
 70
     0
 43
0.0
 10
-184.4390235843409
 20
428.9487042865103
 10
-184.6561058921186
 20
429.849024121724
 42
0.3464949689054692
 10
-184.9477480028915
 20
430.0787042865102
 10
-185.0264261645977
 20
430.0787042865102
  0
LWPOLYLINE
  5
F618
330
1F
100
AcDbEntity
  8
DETAILS
 62
     6
370
    20
100
AcDbPolyline
 90
        2
 70
     1
 43
0.0
 10
-184.487246959922
 20
429.1487042865101
 10
-184.4690776612958
 20
429.1487042865101
  0
LWPOLYLINE
  5
F619
330
1F
100
AcDbEntity
  8
DETAILS
 62
     6
370
    20
100
AcDbPolyline
 90
        6
 70
     0
 43
0.0
 10
-183.8089227338157
 20
429.1487042865101
 10
-183.7157534351888
 20
429.1487042865101
 10
-183.8089227338157
 20
429.1487042865101
 42
0.2793220653054726
 10
-183.8532429705453
 20
429.1218498416902
 42
-0.6059183769079625
 10
-184.4247574255266
 20
429.1218498411891
 42
0.279322065306064
 10
-184.4690776612958
 20
429.1487042865104
  0
LWPOLYLINE
  5
F61A
330
1F
100
AcDbEntity
  8
DETAILS
 62
     6
370
    20
100
AcDbPolyline
 90
        7
 70
     0
 43
0.0
 10
-182.4383595255865
 20
429.9487042865103
 10
-183.5590596583722
 20
429.9487042865103
 42
0.4853378929632635
 10
-183.7243235211433
 20
429.7388563798896
 10
-183.533804515321
 20
428.9487042865103
 10
-182.9377280176002
 20
428.9487042865103
 10
-183.1877280176002
 20
428.9487042865103
 10
-183.2877280176005
 20
428.9487042865103
  0
LWPOLYLINE
  5
F61B
330
1F
100
AcDbEntity
  8
DETAILS
 62
     6
370
    20
100
AcDbPolyline
 90
        4
 70
     0
 43
0.0
 10
-182.4383595255865
 20
430.0787042865102
 10
-183.5590596583722
 20
430.0787042865102
 42
0.4853378929632635
 10
-183.8507017691452
 20
429.7083844512967
 10
-183.6675300596077
 20
428.9487042865103
  0
LWPOLYLINE
  5
F61C
330
1F
100
AcDbEntity
  8
DETAILS
 62
     6
370
    20
100
AcDbPolyline
 90
        3
 70
     0
 43
0.0
 10
-189.1367647556751
 20
428.8487042865102
 10
-186.4383595255847
 20
428.8487042865104
 10
-185.5232152884789
 20
428.8487042865104
  0
LWPOLYLINE
  5
F61D
330
1F
100
AcDbEntity
  8
DETAILS
 62
     6
370
    20
100
AcDbPolyline
 90
        4
 70
     0
 43
0.0
 10
-182.4383595255865
 20
428.0993357945013
 10
-182.8084386957186
 20
428.4694149646291
 42
0.1989123673781766
 10
-182.879149373836
 20
428.49870428651
 10
-184.4905808140181
 20
428.49870428651
  0
LWPOLYLINE
  5
F61E
330
1F
100
AcDbEntity
  8
DETAILS
 62
     6
370
    20
100
AcDbPolyline
 90
        4
 70
     0
 43
0.0
 10
-182.4383595255865
 20
427.8993357945028
 10
-182.6912814081922
 20
428.1522576771059
 42
0.1989123673777966
 10
-183.0448347987847
 20
428.2987042865102
 10
-184.4227522886292
 20
428.2987042865102
  0
LWPOLYLINE
  5
F61F
330
1F
100
AcDbEntity
  8
DETAILS
 62
     6
370
    20
100
AcDbPolyline
 90
        4
 70
     0
 43
0.0
 10
-183.582027890902
 20
429.1487042865101
 10
-183.0448347987847
 20
429.1487042865101
 42
0.1989123673788307
 10
-182.6912814081941
 20
429.2951508959159
 10
-182.4383595255865
 20
429.5480727785214
  0
LWPOLYLINE
  5
F620
330
1F
100
AcDbEntity
  8
DETAILS
 62
     6
370
    20
100
AcDbPolyline
 90
        4
 70
     0
 43
0.0
 10
-182.4383595255865
 20
429.0980727785229
 10
-182.7066620004213
 20
428.8297703036881
 42
0.4142135623745727
 10
-182.7066620004213
 20
428.6176382693316
 10
-182.4383595255865
 20
428.3493357944988
  0
LWPOLYLINE
  5
F621
330
1F
100
AcDbEntity
  8
DETAILS
 62
     6
370
    20
100
AcDbPolyline
 90
        3
 70
     0
 43
0.0
 10
-189.2841953527956
 20
428.7987042865102
 10
-186.4383595255847
 20
428.7987042865102
 10
-185.4732152884778
 20
428.7987042865102
  0
LWPOLYLINE
  5
F622
330
1F
100
AcDbEntity
  8
DETAILS
 62
     6
370
    20
100
AcDbPolyline
 90
        2
 70
     1
 43
0.0
 10
-186.7866062879518
 20
422.9487042865101
 10
-186.7684369893256
 20
422.9487042865103
  0
LWPOLYLINE
  5
F623
330
1F
100
AcDbEntity
  8
DETAILS
 62
     6
370
    20
100
AcDbPolyline
 90
        6
 70
     0
 43
0.0
 10
-186.7684369893256
 20
422.9487042865101
 42
0.279322065306064
 10
-186.724116752596
 20
422.9755587313301
 42
-0.2793220653060734
 10
-186.4383595255847
 20
423.1487042865102
 10
-189.9975696773333
 20
423.1487042865102
 42
0.1989123673782987
 10
-190.0682803554525
 20
423.1194149646292
 10
-190.4383595255865
 20
422.7493357944982
  0
LWPOLYLINE
  5
F624
330
1F
100
AcDbEntity
  8
DETAILS
 62
     6
370
    20
100
AcDbPolyline
 90
        2
 70
     1
 43
0.0
 10
-186.8866062879503
 20
422.9487042865103
 10
-188.2866062879518
 20
422.9487042865103
  0
LWPOLYLINE
  5
F625
330
1F
100
AcDbEntity
  8
DETAILS
 62
     6
370
    20
100
AcDbPolyline
 90
        6
 70
     0
 43
0.0
 10
-188.334829663531
 20
423.1487042865102
 10
-188.1233991221277
 20
422.2718243963678
 42
0.3464949689054692
 10
-187.9289710482778
 20
422.1187042865102
 10
-187.0866062879511
 20
422.1187042865102
 42
0.4142135623730951
 10
-186.8866062879503
 20
422.3187042865102
 10
-186.8866062879503
 20
423.1487042865102
  0
LWPOLYLINE
  5
F626
330
1F
100
AcDbEntity
  8
DETAILS
 62
     6
370
    20
100
AcDbPolyline
 90
        6
 70
     0
 43
0.0
 10
-188.4376954668285
 20
423.1487042865102
 10
-188.2206131590508
 20
422.2483844512965
 42
0.3464949689054692
 10
-187.9289710482778
 20
422.01870428651
 10
-187.0866062879511
 20
422.01870428651
 42
0.4142135623730951
 10
-186.7866062879518
 20
422.3187042865102
 10
-186.7866062879518
 20
423.1487042865102
  0
LWPOLYLINE
  5
F627
330
1F
100
AcDbEntity
  8
DETAILS
 62
     6
370
    20
100
AcDbPolyline
 90
        2
 70
     1
 43
0.0
 10
-188.3894720912492
 20
422.9487042865101
 10
-188.4076413898735
 20
422.9487042865103
  0
LWPOLYLINE
  5
F628
330
1F
100
AcDbEntity
  8
DETAILS
 62
     6
370
    20
100
AcDbPolyline
 90
        6
 70
     0
 43
0.0
 10
-189.0677963173536
 20
422.9487042865101
 10
-189.1609656159824
 20
422.9487042865101
 10
-189.0677963173536
 20
422.9487042865101
 42
0.2793220653054726
 10
-189.0234760806258
 20
422.9755587313302
 42
-0.6059183769079624
 10
-188.4519616256445
 20
422.9755587318313
 42
0.279322065306064
 10
-188.4076413898735
 20
422.9487042865101
  0
LWPOLYLINE
  5
F629
330
1F
100
AcDbEntity
  8
DETAILS
 62
     6
370
    20
100
AcDbPolyline
 90
        7
 70
     0
 43
0.0
 10
-190.4383595255865
 20
422.1487042865101
 10
-189.3176593927971
 20
422.1487042865101
 42
0.4853378929632635
 10
-189.1523955300261
 20
422.3585521931309
 10
-189.3429145358484
 20
423.1487042865102
 10
-189.938991033571
 20
423.1487042865102
 10
-189.6889910335692
 20
423.1487042865102
 10
-189.5889910335688
 20
423.1487042865102
  0
LWPOLYLINE
  5
F62A
330
1F
100
AcDbEntity
  8
DETAILS
 62
     6
370
    20
100
AcDbPolyline
 90
        4
 70
     0
 43
0.0
 10
-190.4383595255865
 20
422.01870428651
 10
-189.3176593927971
 20
422.01870428651
 42
0.4853378929632635
 10
-189.0260172820242
 20
422.3890241217237
 10
-189.2091889915616
 20
423.1487042865102
  0
LWPOLYLINE
  5
F62B
330
1F
100
AcDbEntity
  8
DETAILS
 62
     6
370
    20
100
AcDbPolyline
 90
        4
 70
     0
 43
0.0
 10
-189.2946911602692
 20
422.9487042865103
 10
-189.8318842523847
 20
422.9487042865101
 42
0.1989123673788306
 10
-190.1854376429771
 20
422.8022576771046
 10
-190.4383595255865
 20
422.5493357944963
  0
LWPOLYLINE
  5
F62C
330
1F
100
AcDbEntity
  8
DETAILS
 62
     6
370
    20
100
AcDbPolyline
 90
        4
 70
     0
 43
0.0
 10
-190.4383595255865
 20
422.9993357944954
 10
-190.170057050748
 20
423.2676382693323
 42
0.4142135623745727
 10
-190.1700570507498
 20
423.4797703036888
 10
-190.4383595255865
 20
423.7480727785242
  0
LWPOLYLINE
  5
F62D
330
1F
100
AcDbEntity
  8
DETAILS
 62
     6
370
    20
100
AcDbPolyline
 90
        2
 70
     1
 43
0.0
 10
-186.7866062879518
 20
429.1487042865101
 10
-186.7684369893256
 20
429.1487042865101
  0
LWPOLYLINE
  5
F62E
330
1F
100
AcDbEntity
  8
DETAILS
 62
     6
370
    20
100
AcDbPolyline
 90
        4
 70
     0
 43
0.0
 10
-188.8419035614358
 20
428.9487042865103
 10
-186.4383595255847
 20
428.9487042865101
 42
-0.2793220653060733
 10
-186.7241167535564
 20
429.1218498411891
 42
0.279322065306064
 10
-186.7684369893256
 20
429.1487042865104
  0
LWPOLYLINE
  5
F62F
330
1F
100
AcDbEntity
  8
DETAILS
 62
     6
370
    20
100
AcDbPolyline
 90
        2
 70
     1
 43
0.0
 10
-186.8866062879503
 20
429.1487042865101
 10
-188.2866062879518
 20
429.1487042865101
  0
LWPOLYLINE
  5
F630
330
1F
100
AcDbEntity
  8
DETAILS
 62
     6
370
    20
100
AcDbPolyline
 90
        5
 70
     0
 43
0.0
 10
-186.8866062879503
 20
428.9487042865103
 10
-186.8866062879522
 20
429.7787042865103
 42
0.4142135623730951
 10
-187.0866062879511
 20
429.9787042865103
 10
-187.9289710482778
 20
429.9787042865103
 42
0.1217328678937132
 10
-188.0221326249382
 20
429.9556814619714
 42
0.1217328678937132
  0
LWPOLYLINE
  5
F631
330
1F
100
AcDbEntity
  8
DETAILS
 62
     6
370
    20
100
AcDbPolyline
 90
        5
 70
     0
 43
0.0
 10
-186.7866062879518
 20
428.9487042865103
 10
-186.7866062879518
 20
429.7787042865103
 42
0.4142135623730951
 10
-187.0866062879511
 20
430.0787042865102
 10
-187.9289710482778
 20
430.0787042865102
 42
0.1083659928584854
 10
-188.0545172269928
 20
430.051171086341
 42
0.1083659928584854
  0
LWPOLYLINE
  5
F632
330
1F
100
AcDbEntity
  8
DETAILS
 62
     6
370
    20
100
AcDbPolyline
 90
        2
 70
     1
 43
0.0
 10
-188.3894720912492
 20
429.1487042865101
 10
-188.4076413898735
 20
429.1487042865101
  0
LWPOLYLINE
  5
F633
330
1F
100
AcDbEntity
  8
DETAILS
 62
     6
370
    20
100
AcDbPolyline
 90
        2
 70
     0
 43
0.0
 10
-188.4862949074074
 20
429.0693063396029
 42
-0.2916424507104084
 10
-188.8145285792041
 20
428.9579883098968
  0
LWPOLYLINE
  5
F634
330
1F
100
AcDbEntity
  8
DETAILS
 62
     6
370
    20
100
AcDbPolyline
 90
        2
 70
     0
 43
0.0
 10
-190.4383595255865
 20
428.349335794496
 10
-190.3506821766048
 20
428.4370131434771
  0
LINE
  5
F635
330
1F
100
AcDbEntity
  8
0
 62
     1
100
AcDbLine
 10
-192.4383595255865
 20
419.7987042865102
 30
0.0
 11
-192.4383595255865
 21
407.7987042865102
 31
0.0
  0
LINE
  5
F636
330
1F
100
AcDbEntity
  8
0
 62
     1
100
AcDbLine
 10
-192.4383595255865
 20
419.7987042865102
 30
0.0
 11
-190.8883595255854
 21
419.7987042865102
 31
0.0
  0
LINE
  5
F637
330
1F
100
AcDbEntity
  8
0
 62
     1
100
AcDbLine
 10
-192.4383595255865
 20
407.7987042865102
 30
0.0
 11
-190.4383595255865
 21
407.7987042865102
 31
0.0
  0
LINE
  5
F638
330
1F
100
AcDbEntity
  8
0
 62
     1
100
AcDbLine
 10
-190.4383595255865
 20
420.2987042865102
 30
0.0
 11
-190.4383595255865
 21
407.7987042865102
 31
0.0
  0
LINE
  5
F639
330
1F
100
AcDbEntity
  8
0
 62
     1
100
AcDbLine
 10
-192.0883595255861
 20
420.2987042865102
 30
0.0
 11
-191.4633595255861
 21
420.2987042865102
 31
0.0
  0
LINE
  5
F63A
330
1F
100
AcDbEntity
  8
0
 62
     1
100
AcDbLine
 10
-192.0883595255861
 20
420.2987042865102
 30
0.0
 11
-192.0883595255861
 21
407.7987042865102
 31
0.0
  0
LINE
  5
F63B
330
1F
100
AcDbEntity
  8
0
 62
     1
100
AcDbLine
 10
-191.0633595255865
 20
420.2987042865102
 30
0.0
 11
-191.0633595255865
 21
419.7987042865102
 31
0.0
  0
LINE
  5
F63C
330
1F
100
AcDbEntity
  8
0
 62
     1
100
AcDbLine
 10
-191.4633595255861
 20
420.2987042865102
 30
0.0
 11
-191.4633595255843
 21
419.7987042865102
 31
0.0
  0
LINE
  5
F63D
330
1F
100
AcDbEntity
  8
0
 62
     1
100
AcDbLine
 10
-191.0633595255865
 20
420.2987042865102
 30
0.0
 11
-190.4383595255865
 21
420.2987042865102
 31
0.0
  0
LINE
  5
F63E
330
1F
100
AcDbEntity
  8
0
 62
     1
100
AcDbLine
 10
-190.6383595255854
 20
420.0487042865102
 30
0.0
 11
-190.6383595255854
 21
407.7987042865102
 31
0.0
  0
LINE
  5
F63F
330
1F
100
AcDbEntity
  8
0
 62
     1
100
AcDbLine
 10
-190.8883595255854
 20
420.0487042865102
 30
0.0
 11
-190.8883595255854
 21
419.7987042865102
 31
0.0
  0
LINE
  5
F640
330
1F
100
AcDbEntity
  8
0
 62
     1
100
AcDbLine
 10
-190.8883595255854
 20
420.0487042865102
 30
0.0
 11
-190.6383595255854
 21
420.0487042865102
 31
0.0
  0
LINE
  5
F641
330
1F
100
AcDbEntity
  8
0
 62
     1
100
AcDbLine
 10
-190.6383595255854
 20
419.7987042865102
 30
0.0
 11
-190.4383595255865
 21
419.7987042865102
 31
0.0
  0
LINE
  5
F642
330
1F
100
AcDbEntity
  8
0
 48
0.15
100
AcDbLine
 10
-191.4633595255861
 20
419.7987042865102
 30
0.0
 11
-191.0633595255865
 21
419.7987042865102
 31
0.0
  0
LINE
  5
F643
330
1F
100
AcDbEntity
  8
A2 Hatch
  6
DASHED2
 48
0.15
100
AcDbLine
 10
-191.6733595255871
 20
420.2987042865102
 30
0.0
 11
-191.6733595255853
 21
407.7987042865102
 31
0.0
  0
LINE
  5
F644
330
1F
100
AcDbEntity
  8
A2 Hatch
  6
DASHED2
 48
0.15
100
AcDbLine
 10
-190.8533595255855
 20
420.2987042865102
 30
0.0
 11
-190.8533595255855
 21
407.7987042865102
 31
0.0
  0
LINE
  5
F645
330
1F
100
AcDbEntity
  8
0
 62
     1
100
AcDbLine
 10
-191.5133595255854
 20
420.2987042865102
 30
0.0
 11
-191.5133595255854
 21
407.7987042865102
 31
0.0
  0
LINE
  5
F646
330
1F
100
AcDbEntity
  8
0
 62
     1
100
AcDbLine
 10
-191.0133595255854
 20
420.2987042865102
 30
0.0
 11
-191.0133595255854
 21
407.7987042865102
 31
0.0
  0
LINE
  5
F647
330
1F
100
AcDbEntity
  8
0
 62
     1
100
AcDbLine
 10
-191.0133595255854
 20
419.7987042865102
 30
0.0
 11
-191.5133595255854
 21
419.7987042865102
 31
0.0
  0
LINE
  5
F648
330
1F
100
AcDbEntity
  8
0
  6
HIDDEN
 62
     1
 48
0.02
100
AcDbLine
 10
-192.0883595255861
 20
408.2987042865102
 30
0.0
 11
-191.4633595255861
 21
408.2987042865102
 31
0.0
  0
LINE
  5
F649
330
1F
100
AcDbEntity
  8
0
  6
HIDDEN
 62
     1
 48
0.02
100
AcDbLine
 10
-191.0633595255865
 20
408.2987042865102
 30
0.0
 11
-191.0633595255865
 21
407.7987042865102
 31
0.0
  0
LINE
  5
F64A
330
1F
100
AcDbEntity
  8
0
  6
HIDDEN
 62
     1
 48
0.02
100
AcDbLine
 10
-191.4633595255861
 20
408.2987042865102
 30
0.0
 11
-191.4633595255843
 21
407.7987042865102
 31
0.0
  0
LINE
  5
F64B
330
1F
100
AcDbEntity
  8
0
  6
HIDDEN
 62
     1
 48
0.02
100
AcDbLine
 10
-191.0633595255865
 20
408.2987042865102
 30
0.0
 11
-190.4383595255865
 21
408.2987042865102
 31
0.0
  0
LINE
  5
F64C
330
1F
100
AcDbEntity
  8
0
 62
     1
100
AcDbLine
 10
-180.4383595255847
 20
419.7987042865102
 30
0.0
 11
-180.4383595255847
 21
407.7987042865102
 31
0.0
  0
LINE
  5
F64D
330
1F
100
AcDbEntity
  8
0
 62
     1
100
AcDbLine
 10
-182.4383595255865
 20
420.2987042865102
 30
0.0
 11
-182.4383595255847
 21
407.7987042865102
 31
0.0
  0
LINE
  5
F64E
330
1F
100
AcDbEntity
  8
0
 62
     1
100
AcDbLine
 10
-180.7883595255851
 20
420.2987042865102
 30
0.0
 11
-180.7883595255851
 21
419.7987042865102
 31
0.0
  0
LINE
  5
F64F
330
1F
100
AcDbEntity
  8
0
 62
     1
100
AcDbLine
 10
-181.8133595255865
 20
420.2987042865102
 30
0.0
 11
-181.8133595255865
 21
419.7987042865102
 31
0.0
  0
LINE
  5
F650
330
1F
100
AcDbEntity
  8
0
 62
     1
100
AcDbLine
 10
-181.413359525585
 20
420.2987042865102
 30
0.0
 11
-181.413359525585
 21
419.7987042865102
 31
0.0
  0
LINE
  5
F651
330
1F
100
AcDbEntity
  8
0
 62
     1
100
AcDbLine
 10
-182.4383595255865
 20
420.2987042865102
 30
0.0
 11
-181.8133595255865
 21
420.2987042865102
 31
0.0
  0
LINE
  5
F652
330
1F
100
AcDbEntity
  8
0
 62
     1
100
AcDbLine
 10
-181.413359525585
 20
420.2987042865102
 30
0.0
 11
-180.7883595255851
 21
420.2987042865102
 31
0.0
  0
LINE
  5
F653
330
1F
100
AcDbEntity
  8
0
 62
     1
100
AcDbLine
 10
-182.2383595255858
 20
420.0487042865102
 30
0.0
 11
-182.2383595255858
 21
407.7987042865102
 31
0.0
  0
LINE
  5
F654
330
1F
100
AcDbEntity
  8
0
 62
     1
100
AcDbLine
 10
-181.9883595255858
 20
420.0487042865102
 30
0.0
 11
-181.9883595255858
 21
419.7987042865102
 31
0.0
  0
LINE
  5
F655
330
1F
100
AcDbEntity
  8
0
 62
     1
100
AcDbLine
 10
-182.2383595255858
 20
420.0487042865102
 30
0.0
 11
-181.9883595255858
 21
420.0487042865102
 31
0.0
  0
LINE
  5
F656
330
1F
100
AcDbEntity
  8
0
 62
     1
100
AcDbLine
 10
-182.0233595255856
 20
419.7987042865102
 30
0.0
 11
-180.4383595255847
 21
419.7987042865102
 31
0.0
  0
LINE
  5
F657
330
1F
100
AcDbEntity
  8
0
 62
     1
100
AcDbLine
 10
-182.0233595255856
 20
419.7987042865102
 30
0.0
 11
-182.0233595255856
 21
407.7987042865102
 31
0.0
  0
LINE
  5
F658
330
1F
100
AcDbEntity
  8
0
 62
     1
100
AcDbLine
 10
-181.2033595255859
 20
419.7987042865102
 30
0.0
 11
-181.2033595255859
 21
407.7987042865102
 31
0.0
  0
LINE
  5
F659
330
1F
100
AcDbEntity
  8
A2 Hatch
  6
DASHED2
 48
0.15
100
AcDbLine
 10
-181.8633595255858
 20
419.7987042865102
 30
0.0
 11
-181.8633595255858
 21
407.7987042865102
 31
0.0
  0
LINE
  5
F65A
330
1F
100
AcDbEntity
  8
A2 Hatch
  6
DASHED2
 48
0.15
100
AcDbLine
 10
-181.3633595255858
 20
419.7987042865102
 30
0.0
 11
-181.3633595255858
 21
407.7987042865102
 31
0.0
  0
LINE
  5
F65B
330
1F
100
AcDbEntity
  8
0
 62
     1
100
AcDbLine
 10
-182.4383595255865
 20
419.7987042865102
 30
0.0
 11
-182.2383595255858
 21
419.7987042865102
 31
0.0
  0
LINE
  5
F65C
330
1F
100
AcDbEntity
  8
0
 62
     1
100
AcDbLine
 10
-182.4383595255847
 20
407.7987042865102
 30
0.0
 11
-180.4383595255847
 21
407.7987042865102
 31
0.0
  0
LINE
  5
F65D
330
1F
100
AcDbEntity
  8
0
  6
HIDDEN
 62
     1
 48
0.02
100
AcDbLine
 10
-180.7883595255832
 20
408.2987042865102
 30
0.0
 11
-180.7883595255832
 21
407.7987042865102
 31
0.0
  0
LINE
  5
F65E
330
1F
100
AcDbEntity
  8
0
  6
HIDDEN
 62
     1
 48
0.02
100
AcDbLine
 10
-181.8133595255847
 20
408.2987042865104
 30
0.0
 11
-181.8133595255847
 21
407.7987042865102
 31
0.0
  0
LINE
  5
F65F
330
1F
100
AcDbEntity
  8
0
  6
HIDDEN
 62
     1
 48
0.02
100
AcDbLine
 10
-181.4133595255832
 20
408.2987042865102
 30
0.0
 11
-181.4133595255832
 21
407.7987042865102
 31
0.0
  0
LINE
  5
F660
330
1F
100
AcDbEntity
  8
0
  6
HIDDEN
 62
     1
 48
0.02
100
AcDbLine
 10
-182.4383595255829
 20
408.2987042865102
 30
0.0
 11
-181.8133595255829
 21
408.2987042865102
 31
0.0
  0
LINE
  5
F661
330
1F
100
AcDbEntity
  8
0
  6
HIDDEN
 62
     1
 48
0.02
100
AcDbLine
 10
-181.4133595255832
 20
408.2987042865102
 30
0.0
 11
-180.7883595255832
 21
408.2987042865102
 31
0.0
  0
LWPOLYLINE
  5
F662
330
1F
100
AcDbEntity
  8
DETAILS
 62
     6
370
    20
100
AcDbPolyline
 90
        2
 70
     1
 43
0.0
 10
-186.0901127632176
 20
410.9487042865101
 10
-186.1082820618437
 20
410.9487042865103
  0
LWPOLYLINE
  5
F663
330
1F
100
AcDbEntity
  8
DETAILS
 62
     6
370
    20
100
AcDbPolyline
 90
        6
 70
     0
 43
0.0
 10
-182.4383595255865
 20
410.7493357945005
 10
-182.8084386957186
 20
411.1194149646292
 42
0.1989123673782988
 10
-182.879149373836
 20
411.1487042865102
 10
-186.4383595255847
 20
411.1487042865103
 42
-0.2793220653060733
 10
-186.1526022976129
 20
410.9755587318314
 42
0.279322065306064
 10
-186.1082820618437
 20
410.9487042865101
  0
LWPOLYLINE
  5
F664
330
1F
100
AcDbEntity
  8
DETAILS
 62
     6
370
    20
100
AcDbPolyline
 90
        2
 70
     1
 43
0.0
 10
-185.990112763219
 20
410.9487042865103
 10
-184.5901127632176
 20
410.9487042865103
  0
LWPOLYLINE
  5
F665
330
1F
100
AcDbEntity
  8
DETAILS
 62
     6
370
    20
100
AcDbPolyline
 90
        6
 70
     0
 43
0.0
 10
-185.990112763219
 20
411.1487042865102
 10
-185.990112763219
 20
410.3187042865102
 42
0.4142135623730951
 10
-185.7901127632183
 20
410.1187042865102
 10
-184.9477480028915
 20
410.1187042865102
 42
0.3464949689054693
 10
-184.7533199290435
 20
410.2718243963678
 10
-184.5418893876383
 20
411.1487042865102
  0
LWPOLYLINE
  5
F666
330
1F
100
AcDbEntity
  8
DETAILS
 62
     6
370
    20
100
AcDbPolyline
 90
        6
 70
     0
 43
0.0
 10
-186.0901127632194
 20
411.1487042865102
 10
-186.0901127632176
 20
410.3187042865102
 42
0.4142135623730951
 10
-185.7901127632183
 20
410.01870428651
 10
-184.9477480028915
 20
410.01870428651
 42
0.3464949689054693
 10
-184.6561058921186
 20
410.2483844512965
 10
-184.4390235843409
 20
411.1487042865102
  0
LWPOLYLINE
  5
F667
330
1F
100
AcDbEntity
  8
DETAILS
 62
     6
370
    20
100
AcDbPolyline
 90
        2
 70
     1
 43
0.0
 10
-184.487246959922
 20
410.9487042865101
 10
-184.4690776612958
 20
410.9487042865103
  0
LWPOLYLINE
  5
F668
330
1F
100
AcDbEntity
  8
DETAILS
 62
     6
370
    20
100
AcDbPolyline
 90
        6
 70
     0
 43
0.0
 10
-184.4690776612958
 20
410.9487042865101
 42
0.279322065306064
 10
-184.4247574245662
 20
410.97555873133
 42
-0.6059183769079624
 10
-183.8532429695849
 20
410.9755587318314
 42
0.2793220653054726
 10
-183.8089227338157
 20
410.9487042865101
 10
-183.715753435187
 20
410.9487042865101
 10
-183.8089227338157
 20
410.9487042865101
  0
LWPOLYLINE
  5
F669
330
1F
100
AcDbEntity
  8
DETAILS
 62
     6
370
    20
100
AcDbPolyline
 90
        7
 70
     0
 43
0.0
 10
-183.2877280176005
 20
411.1487042865102
 10
-183.1877280176002
 20
411.1487042865102
 10
-182.9377280176002
 20
411.1487042865102
 10
-183.533804515321
 20
411.1487042865102
 10
-183.7243235211433
 20
410.3585521931312
 42
0.4853378929632635
 10
-183.5590596583722
 20
410.1487042865101
 10
-182.4383595255865
 20
410.1487042865101
  0
LWPOLYLINE
  5
F66A
330
1F
100
AcDbEntity
  8
DETAILS
 62
     6
370
    20
100
AcDbPolyline
 90
        4
 70
     0
 43
0.0
 10
-183.6675300596077
 20
411.1487042865102
 10
-183.8507017691452
 20
410.3890241217237
 42
0.4853378929632635
 10
-183.5590596583722
 20
410.01870428651
 10
-182.4383595255865
 20
410.01870428651
  0
LWPOLYLINE
  5
F66B
330
1F
100
AcDbEntity
  8
DETAILS
 62
     6
370
    20
100
AcDbPolyline
 90
       10
 70
     1
 43
0.0
 10
-186.4383595255847
 20
411.19870428651
 10
-183.2877280176005
 20
411.19870428651
 10
-183.1900004107253
 20
411.2207938590097
 42
0.7807764064044151
 10
-183.1900004107253
 20
411.2266147140106
 10
-183.2877280176005
 20
411.24870428651
 10
-186.4383595255847
 20
411.24870428651
 10
-189.5889910335706
 20
411.24870428651
 10
-189.6867186404458
 20
411.2266147140106
 42
0.7807764064044151
 10
-189.6867186404458
 20
411.2207938590097
 10
-189.5889910335688
 20
411.19870428651
  0
LWPOLYLINE
  5
F66C
330
1F
100
AcDbEntity
  8
DETAILS
 62
     6
370
    20
100
AcDbPolyline
 90
        7
 70
     0
 43
0.0
 10
-190.4383595255865
 20
411.9980727785215
 10
-190.0682803554525
 20
411.6279936083911
 42
0.1989123673781765
 10
-189.9975696773333
 20
411.5987042865102
 10
-186.4383595255847
 20
411.5987042865102
 10
-182.879149373836
 20
411.5987042865102
 42
0.1989123673781768
 10
-182.8084386957186
 20
411.6279936083911
 10
-182.4383595255865
 20
411.9980727785194
  0
LWPOLYLINE
  5
F66D
330
1F
100
AcDbEntity
  8
DETAILS
 62
     6
370
    20
100
AcDbPolyline
 90
        7
 70
     0
 43
0.0
 10
-190.4383595255865
 20
412.1980727785206
 10
-190.1854376429771
 20
411.9451508959143
 42
0.1989123673777967
 10
-189.8318842523865
 20
411.7987042865102
 10
-186.4383595255847
 20
411.7987042865102
 10
-183.0448347987847
 20
411.7987042865102
 42
0.1989123673777968
 10
-182.6912814081922
 20
411.9451508959143
 10
-182.4383595255865
 20
412.1980727785178
  0
LWPOLYLINE
  5
F66E
330
1F
100
AcDbEntity
  8
DETAILS
 62
     6
370
    20
100
AcDbPolyline
 90
        4
 70
     0
 43
0.0
 10
-182.4383595255865
 20
410.5493357944986
 10
-182.6912814081941
 20
410.8022576771046
 42
0.1989123673788307
 10
-183.0448347987847
 20
410.9487042865101
 10
-183.582027890902
 20
410.9487042865103
  0
LWPOLYLINE
  5
F66F
330
1F
100
AcDbEntity
  8
DETAILS
 62
     6
370
    20
100
AcDbPolyline
 90
        4
 70
     0
 43
0.0
 10
-182.4383595255865
 20
411.7480727785221
 10
-182.7066620004213
 20
411.4797703036889
 42
0.4142135623745727
 10
-182.7066620004213
 20
411.2676382693323
 10
-182.4383595255865
 20
410.9993357944977
  0
LWPOLYLINE
  5
F670
330
1F
100
AcDbEntity
  8
DETAILS
 62
     6
370
    20
100
AcDbPolyline
 90
        6
 70
     1
 43
0.0
 10
-186.4383595255847
 20
411.2987042865102
 10
-182.9377280176002
 20
411.2987042865102
 10
-182.9377280176002
 20
411.4487042865101
 10
-186.4383595255847
 20
411.4487042865103
 10
-189.938991033571
 20
411.4487042865103
 10
-189.938991033571
 20
411.29870428651
  0
LWPOLYLINE
  5
F671
330
1F
100
AcDbEntity
  8
DETAILS
 62
     6
370
    20
100
AcDbPolyline
 90
        2
 70
     1
 43
0.0
 10
-186.0901127632176
 20
417.1487042865101
 10
-186.1082820618437
 20
417.1487042865101
  0
LWPOLYLINE
  5
F672
330
1F
100
AcDbEntity
  8
DETAILS
 62
     6
370
    20
100
AcDbPolyline
 90
        6
 70
     0
 43
0.0
 10
-186.1082820618437
 20
417.1487042865104
 42
0.279322065306064
 10
-186.1526022985733
 20
417.1218498416902
 42
-0.2793220653060733
 10
-186.4383595255847
 20
416.9487042865103
 10
-182.879149373836
 20
416.9487042865103
 42
0.1989123673782991
 10
-182.8084386957186
 20
416.9779936083912
 10
-182.4383595255865
 20
417.3480727785195
  0
LWPOLYLINE
  5
F673
330
1F
100
AcDbEntity
  8
DETAILS
 62
     6
370
    20
100
AcDbPolyline
 90
        2
 70
     1
 43
0.0
 10
-185.990112763219
 20
417.1487042865101
 10
-184.5901127632176
 20
417.1487042865101
  0
LWPOLYLINE
  5
F674
330
1F
100
AcDbEntity
  8
DETAILS
 62
     6
370
    20
100
AcDbPolyline
 90
        6
 70
     0
 43
0.0
 10
-184.5418893876383
 20
416.9487042865103
 10
-184.7533199290435
 20
417.8255841766527
 42
0.3464949689054692
 10
-184.9477480028915
 20
417.9787042865103
 10
-185.7901127632183
 20
417.9787042865103
 42
0.4142135623730951
 10
-185.990112763219
 20
417.7787042865102
 10
-185.990112763219
 20
416.9487042865103
  0
LWPOLYLINE
  5
F675
330
1F
100
AcDbEntity
  8
DETAILS
 62
     6
370
    20
100
AcDbPolyline
 90
        6
 70
     0
 43
0.0
 10
-184.4390235843409
 20
416.9487042865103
 10
-184.6561058921186
 20
417.8490241217239
 42
0.3464949689054692
 10
-184.9477480028915
 20
418.0787042865102
 10
-185.7901127632183
 20
418.0787042865102
 42
0.4142135623730951
 10
-186.0901127632176
 20
417.7787042865102
 10
-186.0901127632194
 20
416.9487042865103
  0
LWPOLYLINE
  5
F676
330
1F
100
AcDbEntity
  8
DETAILS
 62
     6
370
    20
100
AcDbPolyline
 90
        2
 70
     1
 43
0.0
 10
-184.487246959922
 20
417.1487042865101
 10
-184.4690776612958
 20
417.1487042865101
  0
LWPOLYLINE
  5
F677
330
1F
100
AcDbEntity
  8
DETAILS
 62
     6
370
    20
100
AcDbPolyline
 90
        6
 70
     0
 43
0.0
 10
-183.8089227338157
 20
417.1487042865101
 10
-183.7157534351888
 20
417.1487042865101
 10
-183.8089227338157
 20
417.1487042865101
 42
0.2793220653054726
 10
-183.8532429705453
 20
417.1218498416902
 42
-0.6059183769079625
 10
-184.4247574255266
 20
417.121849841189
 42
0.279322065306064
 10
-184.4690776612958
 20
417.1487042865104
  0
LWPOLYLINE
  5
F678
330
1F
100
AcDbEntity
  8
DETAILS
 62
     6
370
    20
100
AcDbPolyline
 90
        7
 70
     0
 43
0.0
 10
-182.4383595255865
 20
417.9487042865103
 10
-183.5590596583722
 20
417.9487042865103
 42
0.4853378929632635
 10
-183.7243235211433
 20
417.7388563798896
 10
-183.533804515321
 20
416.9487042865103
 10
-182.9377280176002
 20
416.9487042865103
 10
-183.1877280176002
 20
416.9487042865103
 10
-183.2877280176005
 20
416.9487042865103
  0
LWPOLYLINE
  5
F679
330
1F
100
AcDbEntity
  8
DETAILS
 62
     6
370
    20
100
AcDbPolyline
 90
        4
 70
     0
 43
0.0
 10
-182.4383595255865
 20
418.0787042865102
 10
-183.5590596583722
 20
418.0787042865102
 42
0.4853378929632635
 10
-183.8507017691452
 20
417.7083844512968
 10
-183.6675300596077
 20
416.9487042865103
  0
LWPOLYLINE
  5
F67A
330
1F
100
AcDbEntity
  8
DETAILS
 62
     6
370
    20
100
AcDbPolyline
 90
       10
 70
     1
 43
0.0
 10
-186.4383595255865
 20
416.8987042865103
 10
-189.5889910335688
 20
416.8987042865103
 10
-189.6867186404458
 20
416.8766147140106
 42
0.7807764064044151
 10
-189.6867186404458
 20
416.8707938590099
 10
-189.5889910335706
 20
416.8487042865102
 10
-186.4383595255847
 20
416.8487042865104
 10
-183.2877280176005
 20
416.8487042865102
 10
-183.1900004107253
 20
416.8707938590099
 42
0.7807764064044151
 10
-183.1900004107253
 20
416.8766147140106
 10
-183.2877280176005
 20
416.8987042865103
  0
LWPOLYLINE
  5
F67B
330
1F
100
AcDbEntity
  8
DETAILS
 62
     6
370
    20
100
AcDbPolyline
 90
        7
 70
     0
 43
0.0
 10
-182.4383595255865
 20
416.0993357945013
 10
-182.8084386957186
 20
416.4694149646291
 42
0.1989123673781766
 10
-182.879149373836
 20
416.49870428651
 10
-186.4383595255847
 20
416.4987042865103
 10
-189.9975696773333
 20
416.49870428651
 42
0.1989123673781765
 10
-190.0682803554525
 20
416.4694149646291
 10
-190.4383595255865
 20
416.0993357944986
  0
LWPOLYLINE
  5
F67C
330
1F
100
AcDbEntity
  8
DETAILS
 62
     6
370
    20
100
AcDbPolyline
 90
        7
 70
     0
 43
0.0
 10
-182.4383595255865
 20
415.8993357945028
 10
-182.6912814081922
 20
416.1522576771059
 42
0.1989123673777966
 10
-183.0448347987847
 20
416.2987042865102
 10
-186.4383595255865
 20
416.2987042865102
 10
-189.8318842523865
 20
416.2987042865102
 42
0.1989123673777966
 10
-190.1854376429771
 20
416.1522576771059
 10
-190.4383595255865
 20
415.8993357944994
  0
LWPOLYLINE
  5
F67D
330
1F
100
AcDbEntity
  8
DETAILS
 62
     6
370
    20
100
AcDbPolyline
 90
        4
 70
     0
 43
0.0
 10
-183.582027890902
 20
417.1487042865101
 10
-183.0448347987847
 20
417.1487042865101
 42
0.1989123673788307
 10
-182.6912814081941
 20
417.2951508959159
 10
-182.4383595255865
 20
417.5480727785214
  0
LWPOLYLINE
  5
F67E
330
1F
100
AcDbEntity
  8
DETAILS
 62
     6
370
    20
100
AcDbPolyline
 90
        4
 70
     0
 43
0.0
 10
-182.4383595255865
 20
417.0980727785229
 10
-182.7066620004213
 20
416.8297703036881
 42
0.4142135623745727
 10
-182.7066620004213
 20
416.6176382693316
 10
-182.4383595255865
 20
416.3493357944988
  0
LWPOLYLINE
  5
F67F
330
1F
100
AcDbEntity
  8
DETAILS
 62
     6
370
    20
100
AcDbPolyline
 90
        6
 70
     1
 43
0.0
 10
-186.4383595255847
 20
416.7987042865102
 10
-182.9377280176002
 20
416.7987042865102
 10
-182.9377280176002
 20
416.6487042865101
 10
-186.4383595255847
 20
416.6487042865101
 10
-189.938991033571
 20
416.6487042865101
 10
-189.938991033571
 20
416.7987042865102
  0
LWPOLYLINE
  5
F680
330
1F
100
AcDbEntity
  8
DETAILS
 62
     6
370
    20
100
AcDbPolyline
 90
        2
 70
     1
 43
0.0
 10
-186.7866062879518
 20
410.9487042865101
 10
-186.7684369893256
 20
410.9487042865103
  0
LWPOLYLINE
  5
F681
330
1F
100
AcDbEntity
  8
DETAILS
 62
     6
370
    20
100
AcDbPolyline
 90
        6
 70
     0
 43
0.0
 10
-186.7684369893256
 20
410.9487042865101
 42
0.279322065306064
 10
-186.724116752596
 20
410.97555873133
 42
-0.2793220653060734
 10
-186.4383595255847
 20
411.1487042865102
 10
-189.9975696773333
 20
411.1487042865102
 42
0.1989123673782987
 10
-190.0682803554525
 20
411.1194149646292
 10
-190.4383595255865
 20
410.7493357944981
  0
LWPOLYLINE
  5
F682
330
1F
100
AcDbEntity
  8
DETAILS
 62
     6
370
    20
100
AcDbPolyline
 90
        2
 70
     1
 43
0.0
 10
-186.8866062879503
 20
410.9487042865103
 10
-188.2866062879518
 20
410.9487042865103
  0
LWPOLYLINE
  5
F683
330
1F
100
AcDbEntity
  8
DETAILS
 62
     6
370
    20
100
AcDbPolyline
 90
        6
 70
     0
 43
0.0
 10
-188.334829663531
 20
411.1487042865102
 10
-188.1233991221277
 20
410.2718243963678
 42
0.3464949689054692
 10
-187.9289710482778
 20
410.1187042865102
 10
-187.0866062879511
 20
410.1187042865102
 42
0.4142135623730951
 10
-186.8866062879503
 20
410.3187042865102
 10
-186.8866062879503
 20
411.1487042865102
  0
LWPOLYLINE
  5
F684
330
1F
100
AcDbEntity
  8
DETAILS
 62
     6
370
    20
100
AcDbPolyline
 90
        6
 70
     0
 43
0.0
 10
-188.4376954668285
 20
411.1487042865102
 10
-188.2206131590508
 20
410.2483844512965
 42
0.3464949689054692
 10
-187.9289710482778
 20
410.01870428651
 10
-187.0866062879511
 20
410.01870428651
 42
0.4142135623730951
 10
-186.7866062879518
 20
410.3187042865102
 10
-186.7866062879518
 20
411.1487042865102
  0
LWPOLYLINE
  5
F685
330
1F
100
AcDbEntity
  8
DETAILS
 62
     6
370
    20
100
AcDbPolyline
 90
        2
 70
     1
 43
0.0
 10
-188.3894720912492
 20
410.9487042865101
 10
-188.4076413898735
 20
410.9487042865103
  0
LWPOLYLINE
  5
F686
330
1F
100
AcDbEntity
  8
DETAILS
 62
     6
370
    20
100
AcDbPolyline
 90
        6
 70
     0
 43
0.0
 10
-189.0677963173536
 20
410.9487042865101
 10
-189.1609656159824
 20
410.9487042865101
 10
-189.0677963173536
 20
410.9487042865101
 42
0.2793220653054726
 10
-189.0234760806258
 20
410.9755587313302
 42
-0.6059183769079624
 10
-188.4519616256445
 20
410.9755587318314
 42
0.279322065306064
 10
-188.4076413898735
 20
410.9487042865101
  0
LWPOLYLINE
  5
F687
330
1F
100
AcDbEntity
  8
DETAILS
 62
     6
370
    20
100
AcDbPolyline
 90
        7
 70
     0
 43
0.0
 10
-190.4383595255865
 20
410.1487042865101
 10
-189.3176593927971
 20
410.1487042865101
 42
0.4853378929632635
 10
-189.1523955300261
 20
410.3585521931309
 10
-189.3429145358484
 20
411.1487042865102
 10
-189.938991033571
 20
411.1487042865102
 10
-189.6889910335692
 20
411.1487042865102
 10
-189.5889910335688
 20
411.1487042865102
  0
LWPOLYLINE
  5
F688
330
1F
100
AcDbEntity
  8
DETAILS
 62
     6
370
    20
100
AcDbPolyline
 90
        4
 70
     0
 43
0.0
 10
-190.4383595255865
 20
410.01870428651
 10
-189.3176593927971
 20
410.01870428651
 42
0.4853378929632635
 10
-189.0260172820242
 20
410.3890241217237
 10
-189.2091889915616
 20
411.1487042865102
  0
LWPOLYLINE
  5
F689
330
1F
100
AcDbEntity
  8
DETAILS
 62
     6
370
    20
100
AcDbPolyline
 90
        4
 70
     0
 43
0.0
 10
-189.2946911602692
 20
410.9487042865103
 10
-189.8318842523847
 20
410.9487042865101
 42
0.1989123673788306
 10
-190.1854376429771
 20
410.8022576771046
 10
-190.4383595255865
 20
410.5493357944963
  0
LWPOLYLINE
  5
F68A
330
1F
100
AcDbEntity
  8
DETAILS
 62
     6
370
    20
100
AcDbPolyline
 90
        4
 70
     0
 43
0.0
 10
-190.4383595255865
 20
410.9993357944954
 10
-190.170057050748
 20
411.2676382693323
 42
0.4142135623745727
 10
-190.1700570507498
 20
411.4797703036889
 10
-190.4383595255865
 20
411.7480727785242
  0
LWPOLYLINE
  5
F68B
330
1F
100
AcDbEntity
  8
DETAILS
 62
     6
370
    20
100
AcDbPolyline
 90
        2
 70
     1
 43
0.0
 10
-186.7866062879518
 20
417.1487042865101
 10
-186.7684369893256
 20
417.1487042865101
  0
LWPOLYLINE
  5
F68C
330
1F
100
AcDbEntity
  8
DETAILS
 62
     6
370
    20
100
AcDbPolyline
 90
        6
 70
     0
 43
0.0
 10
-190.4383595255865
 20
417.3480727785222
 10
-190.0682803554525
 20
416.9779936083912
 42
0.1989123673782989
 10
-189.9975696773333
 20
416.9487042865103
 10
-186.4383595255847
 20
416.94870428651
 42
-0.2793220653060733
 10
-186.7241167535564
 20
417.121849841189
 42
0.279322065306064
 10
-186.7684369893256
 20
417.1487042865104
  0
LWPOLYLINE
  5
F68D
330
1F
100
AcDbEntity
  8
DETAILS
 62
     6
370
    20
100
AcDbPolyline
 90
        2
 70
     1
 43
0.0
 10
-186.8866062879503
 20
417.1487042865101
 10
-188.2866062879518
 20
417.1487042865101
  0
LWPOLYLINE
  5
F68E
330
1F
100
AcDbEntity
  8
DETAILS
 62
     6
370
    20
100
AcDbPolyline
 90
        6
 70
     0
 43
0.0
 10
-186.8866062879503
 20
416.9487042865103
 10
-186.8866062879522
 20
417.7787042865102
 42
0.4142135623730951
 10
-187.0866062879511
 20
417.9787042865103
 10
-187.9289710482778
 20
417.9787042865103
 42
0.3464949689054692
 10
-188.1233991221277
 20
417.8255841766527
 10
-188.334829663531
 20
416.9487042865103
  0
LWPOLYLINE
  5
F68F
330
1F
100
AcDbEntity
  8
DETAILS
 62
     6
370
    20
100
AcDbPolyline
 90
        6
 70
     0
 43
0.0
 10
-186.7866062879518
 20
416.9487042865103
 10
-186.7866062879518
 20
417.7787042865102
 42
0.4142135623730951
 10
-187.0866062879511
 20
418.0787042865102
 10
-187.9289710482778
 20
418.0787042865102
 42
0.3464949689054692
 10
-188.2206131590508
 20
417.8490241217239
 10
-188.4376954668285
 20
416.9487042865103
  0
LWPOLYLINE
  5
F690
330
1F
100
AcDbEntity
  8
DETAILS
 62
     6
370
    20
100
AcDbPolyline
 90
        2
 70
     1
 43
0.0
 10
-188.3894720912492
 20
417.1487042865101
 10
-188.4076413898735
 20
417.1487042865101
  0
LWPOLYLINE
  5
F691
330
1F
100
AcDbEntity
  8
DETAILS
 62
     6
370
    20
100
AcDbPolyline
 90
        6
 70
     0
 43
0.0
 10
-188.4076413898735
 20
417.1487042865104
 42
0.279322065306064
 10
-188.4519616266032
 20
417.1218498416902
 42
-0.6059183769079624
 10
-189.0234760815845
 20
417.121849841189
 42
0.2793220653054726
 10
-189.0677963173536
 20
417.1487042865101
 10
-189.1609656159824
 20
417.1487042865101
 10
-189.0677963173536
 20
417.1487042865101
  0
LWPOLYLINE
  5
F692
330
1F
100
AcDbEntity
  8
DETAILS
 62
     6
370
    20
100
AcDbPolyline
 90
        7
 70
     0
 43
0.0
 10
-189.5889910335688
 20
416.9487042865103
 10
-189.688991033571
 20
416.9487042865103
 10
-189.938991033571
 20
416.9487042865103
 10
-189.3429145358484
 20
416.9487042865103
 10
-189.1523955300261
 20
417.7388563798893
 42
0.4853378929632635
 10
-189.3176593927971
 20
417.9487042865103
 10
-190.4383595255865
 20
417.9487042865103
  0
LWPOLYLINE
  5
F693
330
1F
100
AcDbEntity
  8
DETAILS
 62
     6
370
    20
100
AcDbPolyline
 90
        4
 70
     0
 43
0.0
 10
-189.2091889915616
 20
416.9487042865103
 10
-189.0260172820242
 20
417.7083844512968
 42
0.4853378929632635
 10
-189.3176593927971
 20
418.0787042865102
 10
-190.4383595255865
 20
418.0787042865102
  0
LWPOLYLINE
  5
F694
330
1F
100
AcDbEntity
  8
DETAILS
 62
     6
370
    20
100
AcDbPolyline
 90
        4
 70
     0
 43
0.0
 10
-190.4383595255865
 20
417.5480727785243
 10
-190.1854376429771
 20
417.2951508959159
 42
0.1989123673788307
 10
-189.8318842523847
 20
417.1487042865101
 10
-189.2946911602692
 20
417.1487042865101
  0
LWPOLYLINE
  5
F695
330
1F
100
AcDbEntity
  8
DETAILS
 62
     6
370
    20
100
AcDbPolyline
 90
        4
 70
     0
 43
0.0
 10
-190.4383595255865
 20
416.349335794496
 10
-190.1700570507498
 20
416.6176382693316
 42
0.4142135623745727
 10
-190.170057050748
 20
416.8297703036881
 10
-190.4383595255865
 20
417.0980727785254
  0
LINE
  5
F696
330
1F
100
AcDbEntity
  8
0
 62
     1
100
AcDbLine
 10
-192.4383595255865
 20
407.7987042865102
 30
0.0
 11
-190.8883595255854
 21
407.7987042865102
 31
0.0
  0
LINE
  5
F697
330
1F
100
AcDbEntity
  8
0
 62
     1
100
AcDbLine
 10
-192.0883595255861
 20
408.2987042865102
 30
0.0
 11
-191.4633595255861
 21
408.2987042865102
 31
0.0
  0
LINE
  5
F698
330
1F
100
AcDbEntity
  8
0
 62
     1
100
AcDbLine
 10
-191.0633595255865
 20
408.2987042865102
 30
0.0
 11
-191.0633595255865
 21
407.7987042865102
 31
0.0
  0
LINE
  5
F699
330
1F
100
AcDbEntity
  8
0
 62
     1
100
AcDbLine
 10
-191.4633595255861
 20
408.2987042865102
 30
0.0
 11
-191.4633595255843
 21
407.7987042865102
 31
0.0
  0
LINE
  5
F69A
330
1F
100
AcDbEntity
  8
0
 62
     1
100
AcDbLine
 10
-191.0633595255865
 20
408.2987042865102
 30
0.0
 11
-190.4383595255865
 21
408.2987042865102
 31
0.0
  0
LINE
  5
F69B
330
1F
100
AcDbEntity
  8
0
 62
     1
100
AcDbLine
 10
-190.8883595255854
 20
408.0487042865102
 30
0.0
 11
-190.8883595255854
 21
407.7987042865102
 31
0.0
  0
LINE
  5
F69C
330
1F
100
AcDbEntity
  8
0
 62
     1
100
AcDbLine
 10
-190.8883595255854
 20
408.0487042865102
 30
0.0
 11
-190.6383595255854
 21
408.0487042865102
 31
0.0
  0
LINE
  5
F69D
330
1F
100
AcDbEntity
  8
0
 62
     1
100
AcDbLine
 10
-190.6383595255854
 20
407.7987042865102
 30
0.0
 11
-190.4383595255865
 21
407.7987042865102
 31
0.0
  0
LINE
  5
F69E
330
1F
100
AcDbEntity
  8
0
 48
0.15
100
AcDbLine
 10
-191.4633595255861
 20
407.7987042865102
 30
0.0
 11
-191.0633595255865
 21
407.7987042865102
 31
0.0
  0
LINE
  5
F69F
330
1F
100
AcDbEntity
  8
0
 62
     1
100
AcDbLine
 10
-191.0133595255854
 20
407.7987042865102
 30
0.0
 11
-191.5133595255854
 21
407.7987042865102
 31
0.0
  0
LINE
  5
F6A0
330
1F
100
AcDbEntity
  8
0
 62
     1
100
AcDbLine
 10
-180.7883595255851
 20
408.2987042865102
 30
0.0
 11
-180.7883595255851
 21
407.7987042865102
 31
0.0
  0
LINE
  5
F6A1
330
1F
100
AcDbEntity
  8
0
 62
     1
100
AcDbLine
 10
-181.8133595255865
 20
408.2987042865102
 30
0.0
 11
-181.8133595255865
 21
407.7987042865102
 31
0.0
  0
LINE
  5
F6A2
330
1F
100
AcDbEntity
  8
0
 62
     1
100
AcDbLine
 10
-181.413359525585
 20
408.2987042865102
 30
0.0
 11
-181.413359525585
 21
407.7987042865102
 31
0.0
  0
LINE
  5
F6A3
330
1F
100
AcDbEntity
  8
0
 62
     1
100
AcDbLine
 10
-182.4383595255865
 20
408.2987042865102
 30
0.0
 11
-181.8133595255865
 21
408.2987042865102
 31
0.0
  0
LINE
  5
F6A4
330
1F
100
AcDbEntity
  8
0
 62
     1
100
AcDbLine
 10
-181.413359525585
 20
408.2987042865102
 30
0.0
 11
-180.7883595255851
 21
408.2987042865102
 31
0.0
  0
LINE
  5
F6A5
330
1F
100
AcDbEntity
  8
0
 62
     1
100
AcDbLine
 10
-181.9883595255858
 20
408.0487042865102
 30
0.0
 11
-181.9883595255858
 21
407.7987042865102
 31
0.0
  0
LINE
  5
F6A6
330
1F
100
AcDbEntity
  8
0
 62
     1
100
AcDbLine
 10
-182.2383595255858
 20
408.0487042865102
 30
0.0
 11
-181.9883595255858
 21
408.0487042865102
 31
0.0
  0
LINE
  5
F6A7
330
1F
100
AcDbEntity
  8
0
 62
     1
100
AcDbLine
 10
-182.0233595255856
 20
407.7987042865102
 30
0.0
 11
-180.4383595255847
 21
407.7987042865102
 31
0.0
  0
LINE
  5
F6A8
330
1F
100
AcDbEntity
  8
0
 62
     1
100
AcDbLine
 10
-182.4383595255865
 20
407.7987042865102
 30
0.0
 11
-182.2383595255858
 21
407.7987042865102
 31
0.0
  0
HATCH
  5
F6A9
330
1F
100
AcDbEntity
  8
A2 Hatch
 48
0.15
100
AcDbHatch
 10
0.0
 20
0.0
 30
0.0
210
0.0
220
0.0
230
1.0
  2
AR-CONC
 70
     0
 71
     0
 91
        1
 92
        1
 93
        8
 72
     1
 10
-190.4383595255865
 20
396.298692316013
 11
-182.3667027434537
 21
396.2986923160202
 72
     1
 10
-182.3667027434537
 20
396.29869231602
 11
-182.2426568130838
 21
431.6615771481338
 72
     1
 10
-182.2426568130838
 20
431.661577148134
 11
-185.1126172656739
 21
430.6882512210029
 72
     1
 10
-185.1126172656739
 20
430.6882512210028
 11
-184.1765742488721
 21
427.9282236030602
 72
     1
 10
-184.1765742488721
 20
427.9282236030602
 11
-188.7727683265845
 21
432.524417680773
 72
     1
 10
-188.7727683265845
 20
432.5244176807728
 11
-187.8367253097847
 21
429.76439006283
 72
     1
 10
-187.8367253097865
 20
429.76439006283
 11
-190.4426568130845
 21
428.8806076071519
 72
     1
 10
-190.4426568130845
 20
428.8806076071519
 11
-190.4383595255865
 21
396.298692316013
 97
        0
 75
     0
 76
     1
 52
0.0
 41
0.8
 77
     0
 78
    13
 53
50.0
 43
-6191.29276325478
 44
2211.644514921888
 45
5.738081460806028
 46
-0.502017079860761
 79
     2
 49
0.6000000000000001
 49
-6.6
 53
355.0
 43
-6191.29276325478
 44
2211.644514921888
 45
-1.110010668904
 46
6.017537069600095
 79
     2
 49
0.48
 49
-5.28
 53
100.4514
 43
-6190.814589814781
 44
2211.602680201888
 45
4.628075053712172
 46
5.515516336487628
 79
     2
 49
0.5099215199999998
 49
-5.609136895999997
 53
46.1842
 43
-6191.29276325478
 44
2213.244514921888
 45
8.537928389005156
 46
-1.324152114632144
 79
     2
 49
0.9
 49
-9.9
 53
96.63559999999998
 43
-6190.581269294781
 44
2213.134168465888
 45
7.477301644389626
 46
7.792942967203534
 79
     2
 49
0.7648823039999996
 49
-8.413703999999993
 53
351.1842000000001
 43
-6191.29276325478
 44
2213.244514921888
 45
7.477295561069017
 46
7.792948807402597
 79
     2
 49
0.7200000000000001
 49
-7.92
 53
21.0
 43
-6190.492763254781
 44
2212.844514921888
 45
4.775256416947693
 46
-3.22095112532271
 79
     2
 49
0.6000000000000001
 49
-6.6
 53
326.0
 43
-6190.492763254781
 44
2212.844514921888
 45
1.946522655372653
 46
5.801200360374824
 79
     2
 49
0.48
 49
-5.28
 53
71.45140000000001
 43
-6190.094825390781
 44
2212.576102073888
 45
6.721781028651919
 46
2.580243973679619
 79
     2
 49
0.5099215200000002
 49
-5.609136895999999
 53
37.5
 43
-6191.29276325478
 44
2211.644514921888
 45
0.0972788425383254
 46
2.663150830650492
 79
     6
 49
0.0
 49
-5.216
 49
0.0
 49
-5.36
 49
0.0
 49
-5.3
 53
7.499999999999999
 43
-6191.29276325478
 44
2211.644514921888
 45
2.104556299537188
 46
3.155293695058881
 79
     6
 49
0.0
 49
-3.056
 49
0.0
 49
-5.096
 49
0.0
 49
-2.02
 53
327.5
 43
-6193.07676325478
 44
2211.644514921888
 45
4.270579489379272
 46
-0.1804389738750384
 79
     6
 49
0.0
 49
-2.0
 49
0.0
 49
-6.24
 49
0.0
 49
-8.279999999999999
 53
317.5
 43
-6193.876763254781
 44
2211.644514921888
 45
4.665489354739089
 46
0.8008398586585411
 79
     6
 49
0.0
 49
-2.6
 49
0.0
 49
-4.144
 49
0.0
 49
-5.879999999999999
 98
        1
 10
5797.117352063414
 20
-173.1991755105293
  0
HATCH
  5
F6AA
330
1F
100
AcDbEntity
  8
A2 Hatch
 48
0.15
100
AcDbHatch
 10
0.0
 20
0.0
 30
0.0
210
0.0
220
0.0
230
1.0
  2
AR-CONC
 70
     0
 71
     0
 91
        1
 92
        1
 93
        8
 72
     1
 10
-189.8780094591918
 20
398.0186923160132
 11
-183.8064273858224
 21
397.997394419909
 72
     1
 10
-183.8064273858188
 20
397.997394419909
 11
-183.8823067466881
 21
376.3657851320593
 72
     1
 10
-183.8823067466881
 20
376.3657851320589
 11
-185.8687263005711
 21
375.6921055863325
 72
     1
 10
-185.8687263005711
 20
375.6921055863325
 11
-184.9326832837694
 21
372.9320779683902
 72
     1
 10
-184.9326832837694
 20
372.9320779683899
 11
-189.5288773614818
 21
377.5282720461026
 72
     1
 10
-189.5288773614818
 20
377.5282720461026
 11
-188.5928343446801
 21
374.7682444281598
 72
     1
 10
-188.5928343446819
 20
374.7682444281598
 11
-189.87800945919
 21
374.332386763736
 72
     1
 10
-189.87800945919
 20
374.332386763736
 11
-189.8780094591918
 21
398.0186923160132
 97
        0
 75
     0
 76
     1
 52
0.0
 41
0.8
 77
     0
 78
    13
 53
50.0
 43
-9170.106919723268
 44
2276.612868735113
 45
5.738081460806028
 46
-0.502017079860761
 79
     2
 49
0.6000000000000001
 49
-6.6
 53
355.0
 43
-9170.106919723268
 44
2276.612868735113
 45
-1.110010668904
 46
6.017537069600095
 79
     2
 49
0.48
 49
-5.28
 53
100.451445
 43
-9169.628746283269
 44
2276.571034015113
 45
4.628070721834346
 46
5.515519971367574
 79
     2
 49
0.5099215199999999
 49
-5.609136895999998
 53
46.1842
 43
-9170.106919723268
 44
2278.212868735113
 45
8.537928389005156
 46
-1.324152114632144
 79
     2
 49
0.9
 49
-9.9
 53
96.63564499999997
 43
-9169.395425763267
 44
2278.102522279112
 45
7.477295523824224
 46
7.792948839860111
 79
     2
 49
0.764882304
 49
-8.413704
 53
351.1842000000001
 43
-9170.106919723268
 44
2278.212868735113
 45
7.477295561069017
 46
7.792948807402597
 79
     2
 49
0.7200000000000001
 49
-7.92
 53
21.0
 43
-9169.306919723268
 44
2277.812868735113
 45
4.775256416947693
 46
-3.22095112532271
 79
     2
 49
0.6000000000000001
 49
-6.6
 53
326.0
 43
-9169.306919723268
 44
2277.812868735113
 45
1.946522655372653
 46
5.801200360374824
 79
     2
 49
0.48
 49
-5.28
 53
71.45144499999999
 43
-9168.908981859267
 44
2277.544455887113
 45
6.721779002130969
 46
2.580249252953295
 79
     2
 49
0.5099215200000002
 49
-5.609136895999999
 53
37.5
 43
-9170.106919723268
 44
2276.612868735113
 45
0.0972788425383254
 46
2.663150830650492
 79
     6
 49
0.0
 49
-5.216
 49
0.0
 49
-5.36
 49
0.0
 49
-5.3
 53
7.499999999999999
 43
-9170.106919723268
 44
2276.612868735113
 45
2.104556299537188
 46
3.155293695058881
 79
     6
 49
0.0
 49
-3.056
 49
0.0
 49
-5.096
 49
0.0
 49
-2.02
 53
327.5
 43
-9171.890919723267
 44
2276.612868735113
 45
4.270579489379272
 46
-0.1804389738750384
 79
     6
 49
0.0
 49
-2.0
 49
0.0
 49
-6.24
 49
0.0
 49
-8.279999999999999
 53
317.5
 43
-9172.690919723269
 44
2276.612868735113
 45
4.665489354739089
 46
0.8008398586585411
 79
     6
 49
0.0
 49
-2.6
 49
0.0
 49
-4.144
 49
0.0
 49
-5.879999999999999
 98
        1
 10
5758.462541689548
 20
-164.6911334048588
  0
LEADER
  5
F6AB
330
1F
100
AcDbEntity
  8
DIM
100
AcDbLeader
  3
ARCTEXT1-4
 76
     3
 10
-171.2320414034373
 20
397.2986983012616
 30
0.0
 10
-171.2352115730834
 20
388.7841814675151
 30
0.0
 10
-167.7869097106602
 20
388.7841814675153
 30
0.0
1001
ACAD
1000
DSTYLE
1002
{
1070
    41
1040
0.5
1070
    77
1070
     0
1002
}
  0
MTEXT
  5
F6AC
330
1F
100
AcDbEntity
  8
DIM
 62
     3
100
AcDbMText
 10
-166.7847380095634
 20
389.5104156430571
 30
0.0
 40
1.0
 41
22.68954545454545
 71
     1
 72
     5
  1
8" PRECAST + 2" TOPPING (OPTIONAL)
  7
RomanC
 73
     1
 44
1.0
1001
ACAD
1000
MTEXTBEGIN
1070
    73
1070
     1
1070
    44
1040
1.0
1070
    74
1070
     0
1000
MTEXTEND
  0
LWPOLYLINE
  5
F6AD
330
1F
100
AcDbEntity
  8
DIM
100
AcDbPolyline
 90
        6
 70
     0
 43
0.0
 10
-178.4494248699945
 20
432.4732368104371
 10
-185.0763055044233
 20
430.2257791035988
 10
-184.1402624876234
 20
427.4657514856561
 10
-188.7364565653358
 20
432.0619455633689
 10
-187.8004135485341
 20
429.3019179454266
 10
-195.2652157800373
 20
426.7702853069793
  0
LWPOLYLINE
  5
F6AE
330
1F
100
AcDbEntity
  8
DIM
100
AcDbPolyline
 90
        6
 70
     0
 43
0.0
 10
-178.4494248699945
 20
376.5429363633289
 10
-185.0763055044233
 20
374.2954786564906
 10
-184.1402624876234
 20
371.5354510385478
 10
-188.7364565653358
 20
376.1316451162607
 10
-187.8004135485341
 20
373.3716174983184
 10
-195.2652157800373
 20
370.8399848598711
  0
LINE
  5
F6AF
330
1F
100
AcDbEntity
  8
DETAILS
 62
     6
370
    20
100
AcDbLine
 10
-186.8866062879503
 20
374.948692316013
 30
0.0
 11
-187.5535037650886
 21
374.948692316013
 31
0.0
  0
LINE
  5
F6B0
330
1F
100
AcDbEntity
  8
DETAILS
 62
     6
370
    20
100
AcDbLine
 10
-187.5535037650886
 20
374.948692316013
 30
0.0
 11
-186.8866062879503
 21
374.948692316013
 31
0.0
  0
LINE
  5
F6B1
330
1F
100
AcDbEntity
  8
DETAILS
 62
     6
370
    20
100
AcDbLine
 10
-185.990112763219
 20
429.1487042865101
 30
0.0
 11
-185.8232152884782
 21
429.1487042865101
 31
0.0
  0
LINE
  5
F6B2
330
1F
100
AcDbEntity
  8
DETAILS
 62
     6
370
    20
100
AcDbLine
 10
-184.5901127632176
 20
429.1487042865101
 30
0.0
 11
-184.7110235215357
 21
429.1487042865101
 31
0.0
  0
LWPOLYLINE
  5
F6B3
330
1F
100
AcDbEntity
  8
DETAILS
 62
     6
370
    20
100
AcDbPolyline
 90
        3
 70
     0
 43
0.0
 10
-186.8895154585832
 20
374.2847040095079
 42
0.0427185414852177
 10
-186.8866062879503
 20
374.3186923160129
 10
-186.8866062879503
 20
375.1486923160129
  0
LWPOLYLINE
  5
F6B4
330
1F
100
AcDbEntity
  8
DETAILS
 62
     6
370
    20
100
AcDbPolyline
 90
        3
 70
     0
 43
0.0
 10
-186.809225019221
 20
374.2044135701452
 42
0.0980123042657713
 10
-186.7866062879518
 20
374.3186923160129
 10
-186.7866062879518
 20
375.1486923160129
  0
LWPOLYLINE
  5
F6B5
330
1F
100
AcDbEntity
  8
DETAILS
 62
     6
370
    20
100
AcDbPolyline
 90
        4
 70
     0
 43
0.0
 10
-188.4030953704939
 20
375.1486923160129
 10
-189.9975696773333
 20
375.1486923160129
 42
0.1989123673782987
 10
-190.0682803554525
 20
375.1194029941321
 10
-190.4383595255865
 20
374.7493238240013
  0
LWPOLYLINE
  5
F6B6
330
1F
100
AcDbEntity
  8
DETAILS
 62
     6
370
    20
100
AcDbPolyline
 90
        6
 70
     0
 43
0.0
 10
-188.4370096331884
 20
375.2486923160132
 10
-189.5889910335706
 20
375.2486923160132
 10
-189.6867186404458
 20
375.2266027435135
 42
0.7807764064044151
 10
-189.6867186404458
 20
375.2207818885127
 10
-189.5889910335688
 20
375.198692316013
 10
-188.4200525018393
 20
375.198692316013
  0
LWPOLYLINE
  5
F6B7
330
1F
100
AcDbEntity
  8
DETAILS
 62
     6
370
    20
100
AcDbPolyline
 90
        4
 70
     0
 43
0.0
 10
-188.5048381585773
 20
375.448692316013
 10
-189.938991033571
 20
375.448692316013
 10
-189.938991033571
 20
375.298692316013
 10
-188.4539667645338
 20
375.298692316013
  0
LWPOLYLINE
  5
F6B8
330
1F
100
AcDbEntity
  8
DETAILS
 62
     6
370
    20
100
AcDbPolyline
 90
        5
 70
     0
 43
0.0
 10
-188.2035037650883
 20
375.5986923160131
 10
-186.4383595255847
 20
375.5986923160131
 10
-182.879149373836
 20
375.5986923160131
 42
0.1989123673781768
 10
-182.8084386957186
 20
375.6279816378943
 10
-182.4383595255865
 20
375.9980608080223
  0
LWPOLYLINE
  5
F6B9
330
1F
100
AcDbEntity
  8
DETAILS
 62
     6
370
    20
100
AcDbPolyline
 90
        5
 70
     0
 43
0.0
 10
-188.4035037650872
 20
375.7986923160129
 10
-186.4383595255847
 20
375.7986923160129
 10
-183.0448347987847
 20
375.7986923160129
 42
0.1989123673777968
 10
-182.6912814081922
 20
375.9451389254173
 10
-182.4383595255865
 20
376.1980608080208
  0
LWPOLYLINE
  5
F6BA
330
1F
100
AcDbEntity
  8
DETAILS
 62
     6
370
    20
100
AcDbPolyline
 90
        2
 70
     0
 43
0.0
 10
-184.6063152823306
 20
374.4548723750518
 10
-184.4390235843409
 20
375.1486923160129
  0
LWPOLYLINE
  5
F6BB
330
1F
100
AcDbEntity
  8
DETAILS
 62
     6
370
    20
100
AcDbPolyline
 90
        2
 70
     0
 43
0.0
 10
-184.7183418341217
 20
374.4168793959889
 10
-184.5418893876383
 20
375.1486923160131
  0
LWPOLYLINE
  5
F6BC
330
1F
100
AcDbEntity
  8
DETAILS
 62
     6
370
    20
100
AcDbPolyline
 90
        2
 70
     0
 43
0.0
 10
-188.4016985798632
 20
429.097996560356
 10
-188.4376954668285
 20
428.9487042865103
  0
LWPOLYLINE
  5
F6BD
330
1F
100
AcDbEntity
  8
DETAILS
 62
     6
370
    20
100
AcDbPolyline
 90
        2
 70
     0
 43
0.0
 10
-188.2896720280739
 20
429.1359895394187
 10
-188.334829663531
 20
428.9487042865103
  0
LWPOLYLINE
  5
F6BE
330
1F
100
AcDbEntity
  8
DETAILS
 62
     6
370
    20
100
AcDbPolyline
 90
        2
 70
     0
 43
0.0
 10
-185.990112763219
 20
429.3156017612519
 10
-185.990112763219
 20
428.9487042865103
  0
LWPOLYLINE
  5
F6BF
330
1F
100
AcDbEntity
  8
DETAILS
 62
     6
370
    20
100
AcDbPolyline
 90
        2
 70
     0
 43
0.0
 10
-186.0901127632176
 20
429.4156017612518
 10
-186.0901127632194
 20
428.9487042865103
  0
LINE
  5
F6C0
330
1F
100
AcDbEntity
  8
DETAILS
 62
     6
370
    20
100
AcDbLine
 10
-185.8232152884782
 20
429.1487042865101
 30
0.0
 11
-185.990112763219
 21
429.1487042865101
 31
0.0
  0
LINE
  5
F6C1
330
1F
100
AcDbEntity
  8
DETAILS
 62
     6
370
    20
100
AcDbLine
 10
-184.7110235215357
 20
429.1487042865101
 30
0.0
 11
-184.5901127632176
 21
429.1487042865101
 31
0.0
  0
LWPOLYLINE
  5
F6C2
330
1F
100
AcDbEntity
  8
DETAILS
 62
     6
370
    20
100
AcDbPolyline
 90
        4
 70
     0
 43
0.0
 10
-184.643194996145
 20
428.9487042865103
 10
-182.879149373836
 20
428.9487042865103
 42
0.1989123673782991
 10
-182.8084386957186
 20
428.9779936083912
 10
-182.4383595255865
 20
429.3480727785195
  0
LWPOLYLINE
  5
F6C3
330
1F
100
AcDbEntity
  8
DETAILS
 62
     6
370
    20
100
AcDbPolyline
 90
        3
 70
     0
 43
0.0
 10
-185.5732152884782
 20
428.8987042865104
 10
-186.4383595255865
 20
428.8987042865104
 10
-188.9893341585546
 20
428.8987042865104
  0
LWPOLYLINE
  5
F6C4
330
1F
100
AcDbEntity
  8
DETAILS
 62
     6
370
    20
100
AcDbPolyline
 90
        6
 70
     0
 43
0.0
 10
-184.6092807334505
 20
428.8487042865102
 10
-183.2877280176005
 20
428.8487042865102
 10
-183.1900004107253
 20
428.8707938590099
 42
0.7807764064044151
 10
-183.1900004107253
 20
428.8766147140107
 10
-183.2877280176005
 20
428.8987042865104
 10
-184.6262378647996
 20
428.8987042865104
  0
LWPOLYLINE
  5
F6C5
330
1F
100
AcDbEntity
  8
DETAILS
 62
     6
370
    20
100
AcDbPolyline
 90
        4
 70
     0
 43
0.0
 10
-184.5923236021033
 20
428.7987042865102
 10
-182.9377280176002
 20
428.7987042865102
 10
-182.9377280176002
 20
428.6487042865101
 10
-184.5414522080616
 20
428.6487042865101
  0
LWPOLYLINE
  5
F6C6
330
1F
100
AcDbEntity
  8
DETAILS
 62
     6
370
    20
100
AcDbPolyline
 90
        3
 70
     0
 43
0.0
 10
-185.3232152884782
 20
428.6487042865101
 10
-186.4383595255847
 20
428.6487042865101
 10
-189.7264871441555
 20
428.6487042865101
  0
LWPOLYLINE
  5
F6C7
330
1F
100
AcDbEntity
  8
DETAILS
 62
     6
370
    20
100
AcDbPolyline
 90
        5
 70
     0
 43
0.0
 10
-185.1732152884767
 20
428.4987042865103
 10
-186.4383595255847
 20
428.4987042865103
 10
-189.9975696773333
 20
428.49870428651
 42
0.1989123673781765
 10
-190.0682803554525
 20
428.4694149646291
 10
-190.4383595255865
 20
428.0993357944986
  0
LWPOLYLINE
  5
F6C8
330
1F
100
AcDbEntity
  8
DETAILS
 62
     6
370
    20
100
AcDbPolyline
 90
        5
 70
     0
 43
0.0
 10
-184.9732152884778
 20
428.2987042865102
 10
-186.4383595255865
 20
428.2987042865102
 10
-189.8318842523865
 20
428.2987042865102
 42
0.1989123673777966
 10
-190.1854376429771
 20
428.1522576771059
 10
-190.4383595255865
 20
427.8993357944994
  0
MTEXT
  5
F6C9
330
1F
100
AcDbEntity
  8
DIM
 62
     3
100
AcDbMText
 10
-216.0128816418553
 20
418.3287887406771
 30
0.0
 40
1.0
 41
22.68954545454545
 71
     1
 72
     5
  1
GREENBLOCK ICF
  7
RomanC
 73
     1
 44
1.0
1001
ACAD
1000
MTEXTBEGIN
1070
    73
1070
     1
1070
    44
1040
1.0
1070
    74
1070
     0
1000
MTEXTEND
  0
LINE
  5
F6CA
330
1F
100
AcDbEntity
  8
REBAR
 48
0.15
100
AcDbLine
 10
-183.4317418287326
 20
402.8138190077434
 30
0.0
 11
-165.526933804075
 21
402.8138190077434
 31
0.0
  0
LINE
  5
F6CB
330
1F
100
AcDbEntity
  8
REBAR
 48
0.15
100
AcDbLine
 10
-186.4317418287326
 20
381.813819007743
 30
0.0
 11
-186.4317418287326
 21
399.813819007743
 31
0.0
  0
ARC
  5
F6CC
330
1F
100
AcDbEntity
  8
REBAR
 48
0.15
100
AcDbCircle
 10
-183.4317418287326
 20
399.8138190077435
 30
0.0
 40
3.0
100
AcDbArc
 50
90.0
 51
180.0
  0
MTEXT
  5
F6CD
330
1F
100
AcDbEntity
  8
DIM
 62
     3
100
AcDbMText
 10
-166.5951415306215
 20
382.6158662020287
 30
0.0
 40
1.0
 41
13.32674471093725
 71
     1
 72
     5
  1
REINFORCEMENT PER ENGINEER
  7
RomanC
 73
     1
 44
1.0
1001
ACAD
1000
MTEXTBEGIN
1070
    73
1070
     1
1070
    44
1040
1.0
1070
    74
1070
     0
1000
MTEXTEND
  0
LWPOLYLINE
  5
F6CE
330
1F
100
AcDbEntity
  8
A4 medium
 48
0.15
100
AcDbPolyline
 90
        4
 70
     1
 43
0.0
 10
-167.1932784686112
 20
383.3014946757947
 10
-154.8983613714197
 20
383.3014946757947
 10
-154.8983613714197
 20
378.9594937520968
 10
-167.1932784686112
 20
378.9594937520968
  0
MTEXT
  5
F6CF
330
1F
100
AcDbEntity
  8
Defpoints
100
AcDbMText
 10
-182.4297997121182
 20
351.9358620607291
 30
0.0
 40
3.0
 41
90.07999999999999
 71
     2
 72
     5
  1
{\L35\P}\P            
  7
RomanC
 73
     1
 44
1.0
1001
ACAD
1000
MTEXTBEGIN
1070
    73
1070
     1
1070
    44
1040
1.0
1070
    74
1070
     0
1000
MTEXTEND
  0
LINE
  5
F6D0
330
1F
100
AcDbEntity
  8
REBAR
 48
0.15
100
AcDbLine
 10
-146.1524880799504
 20
407.0726283678382
 30
0.0
 11
-187.1005173072997
 21
407.0726283678385
 31
0.0
  0
ENDSEC
  0
SECTION
  2
OBJECTS
  0
DICTIONARY
  5
C
330
0
100
AcDbDictionary
281
     1
  3
ACAD_COLOR
350
73
  3
ACAD_GROUP
350
D
  3
ACAD_LAYOUT
350
1A
  3
ACAD_MATERIAL
350
72
  3
ACAD_MLINESTYLE
350
17
  3
ACAD_PLOTSETTINGS
350
19
  3
ACAD_PLOTSTYLENAME
350
E
  3
ACDBHEADERROUNDTRIPXREC
350
F6E0
  3
AcDbVariableDictionary
350
66
  0
DICTIONARY
  5
A9
330
2
100
AcDbDictionary
280
     1
281
     1
  3
ACAD_LAYERSTATES
360
AA
  0
DICTIONARY
  5
73
102
{ACAD_REACTORS
330
C
102
}
330
C
100
AcDbDictionary
281
     1
  0
DICTIONARY
  5
D
102
{ACAD_REACTORS
330
C
102
}
330
C
100
AcDbDictionary
281
     1
  0
DICTIONARY
  5
1A
102
{ACAD_REACTORS
330
C
102
}
330
C
100
AcDbDictionary
281
     1
  3
Layout1
350
59
  3
Layout2
350
5E
  3
Model
350
22
  0
DICTIONARY
  5
72
102
{ACAD_REACTORS
330
C
102
}
330
C
100
AcDbDictionary
281
     1
  0
DICTIONARY
  5
17
102
{ACAD_REACTORS
330
C
102
}
330
C
100
AcDbDictionary
281
     1
  3
Standard
350
18
  0
DICTIONARY
  5
19
102
{ACAD_REACTORS
330
C
102
}
330
C
100
AcDbDictionary
281
     1
  0
ACDBDICTIONARYWDFLT
  5
E
102
{ACAD_REACTORS
330
C
102
}
330
C
100
AcDbDictionary
281
     1
  3
Normal
350
F
100
AcDbDictionaryWithDefault
340
F
  0
DICTIONARY
  5
F6E0
102
{ACAD_REACTORS
330
C
102
}
330
C
100
AcDbDictionary
281
     1
  3
COLORDICT
350
F6E2
  3
MATERIALDICT
350
F6E1
  0
DICTIONARY
  5
66
102
{ACAD_REACTORS
330
C
102
}
330
C
100
AcDbDictionary
281
     1
  3
DIMASSOC
350
67
  3
HIDETEXT
350
6B
  3
PROJECTNAME
350
1065
  0
DICTIONARY
  5
AA
102
{ACAD_REACTORS
330
A9
102
}
330
A9
100
AcDbDictionary
281
     1
  0
LAYOUT
  5
59
102
{ACAD_XDICTIONARY
360
F6E5
102
}
102
{ACAD_REACTORS
330
1A
102
}
330
1A
100
AcDbPlotSettings
  1

  2
None
  4

  6

 40
0.0
 41
0.0
 42
0.0
 43
0.0
 44
0.0
 45
0.0
 46
0.0
 47
0.0
 48
0.0
 49
0.0
140
0.0
141
0.0
142
1.0
143
1.0
 70
   688
 72
     0
 73
     0
 74
     5
  7

 75
    16
147
1.0
148
0.0
149
0.0
100
AcDbLayout
  1
Layout1
 70
     1
 71
     1
 10
0.0
 20
0.0
 11
12.0
 21
9.0
 12
0.0
 22
0.0
 32
0.0
 14
0.0
 24
0.0
 34
0.0
 15
0.0
 25
0.0
 35
0.0
146
0.0
 13
0.0
 23
0.0
 33
0.0
 16
1.0
 26
0.0
 36
0.0
 17
0.0
 27
1.0
 37
0.0
 76
     0
330
58
  0
LAYOUT
  5
5E
102
{ACAD_XDICTIONARY
360
F6E7
102
}
102
{ACAD_REACTORS
330
1A
102
}
330
1A
100
AcDbPlotSettings
  1

  2
None
  4

  6

 40
0.0
 41
0.0
 42
0.0
 43
0.0
 44
0.0
 45
0.0
 46
0.0
 47
0.0
 48
0.0
 49
0.0
140
0.0
141
0.0
142
1.0
143
1.0
 70
   688
 72
     0
 73
     0
 74
     5
  7

 75
    16
147
1.0
148
0.0
149
0.0
100
AcDbLayout
  1
Layout2
 70
     1
 71
     2
 10
0.0
 20
0.0
 11
12.0
 21
9.0
 12
0.0
 22
0.0
 32
0.0
 14
0.0
 24
0.0
 34
0.0
 15
0.0
 25
0.0
 35
0.0
146
0.0
 13
0.0
 23
0.0
 33
0.0
 16
1.0
 26
0.0
 36
0.0
 17
0.0
 27
1.0
 37
0.0
 76
     0
330
5D
  0
LAYOUT
  5
22
102
{ACAD_XDICTIONARY
360
F6E3
102
}
102
{ACAD_REACTORS
330
1A
102
}
330
1A
100
AcDbPlotSettings
  1

  2
none_device
  4
ANSI_A_(8.50_x_11.00_Inches)
  6

 40
6.349999904632568
 41
19.04999923706055
 42
6.350006103515625
 43
19.04998779296875
 44
215.8999938964844
 45
279.3999938964844
 46
0.0
 47
0.0
 48
0.0
 49
0.0
140
0.0
141
0.0
142
1.0
143
2.584895464708373
 70
 11952
 72
     0
 73
     1
 74
     0
  7

 75
     0
147
0.3868628397755418
148
0.0
149
0.0
100
AcDbLayout
  1
Model
 70
     1
 71
     0
 10
0.0
 20
0.0
 11
12.0
 21
9.0
 12
0.0
 22
0.0
 32
0.0
 14
0.0
 24
0.0
 34
0.0
 15
0.0
 25
0.0
 35
0.0
146
0.0
 13
0.0
 23
0.0
 33
0.0
 16
1.0
 26
0.0
 36
0.0
 17
0.0
 27
1.0
 37
0.0
 76
     0
330
1F
  0
MLINESTYLE
  5
18
102
{ACAD_REACTORS
330
17
102
}
330
17
100
AcDbMlineStyle
  2
STANDARD
 70
     0
  3

 62
   256
 51
90.0
 52
90.0
 71
     2
 49
0.5
 62
   256
  6
BYLAYER
 49
-0.5
 62
   256
  6
BYLAYER
  0
ACDBPLACEHOLDER
  5
F
102
{ACAD_REACTORS
330
E
102
}
330
E
  0
XRECORD
  5
F6E2
102
{ACAD_REACTORS
330
F6E0
102
}
330
F6E0
100
AcDbXrecord
280
     1
340
73
  0
XRECORD
  5
F6E1
102
{ACAD_REACTORS
330
F6E0
102
}
330
F6E0
100
AcDbXrecord
280
     1
340
72
  0
DICTIONARYVAR
  5
67
102
{ACAD_REACTORS
330
66
102
}
330
66
100
DictionaryVariables
280
     0
  1
2
  0
DICTIONARYVAR
  5
6B
102
{ACAD_REACTORS
330
66
102
}
330
66
100
DictionaryVariables
280
     0
  1
1
  0
DICTIONARYVAR
  5
1065
102
{ACAD_REACTORS
330
66
102
}
330
66
100
DictionaryVariables
280
     0
  1

  0
DICTIONARY
  5
F6E5
330
59
100
AcDbDictionary
280
     1
281
     1
  3
ACAD_XREC_ROUNDTRIP
360
F6E6
  0
DICTIONARY
  5
F6E7
330
5E
100
AcDbDictionary
280
     1
281
     1
  3
ACAD_XREC_ROUNDTRIP
360
F6E8
  0
DICTIONARY
  5
F6E3
330
22
100
AcDbDictionary
280
     1
281
     1
  3
ACAD_XREC_ROUNDTRIP
360
F6E4
  0
XRECORD
  5
F6E6
102
{ACAD_REACTORS
330
F6E5
102
}
330
F6E5
100
AcDbXrecord
280
     1
102
SHADEPLOT
 70
     0
102
SHADEPLOTRESLEVEL
 70
     2
102
SHADEPLOTCUSTOMDPI
 70
   300
  0
XRECORD
  5
F6E8
102
{ACAD_REACTORS
330
F6E7
102
}
330
F6E7
100
AcDbXrecord
280
     1
102
SHADEPLOT
 70
     0
102
SHADEPLOTRESLEVEL
 70
     2
102
SHADEPLOTCUSTOMDPI
 70
   300
  0
XRECORD
  5
F6E4
102
{ACAD_REACTORS
330
F6E3
102
}
330
F6E3
100
AcDbXrecord
280
     1
102
SHADEPLOT
 70
     0
102
SHADEPLOTRESLEVEL
 70
     2
102
SHADEPLOTCUSTOMDPI
 70
   300
  0
ENDSEC
  0
EOF
