  0
SECTION
  2
HEADER
  9
$ACADVER
  1
AC1015
  9
$ACADMAINTVER
 70
    20
  9
$DWGCODEPAGE
  3
ANSI_1252
  9
$INSBASE
 10
0.0
 20
0.0
 30
0.0
  9
$EXTMIN
 10
-50.86121438725204
 20
23.78071968467219
 30
-0.0015258207003583
  9
$EXTMAX
 10
21.57319409602667
 20
97.02297358786305
 30
0.0000000349246037
  9
$LIMMIN
 10
0.0
 20
0.0
  9
$LIMMAX
 10
12.0
 20
9.0
  9
$ORTHOMODE
 70
     0
  9
$REGENMODE
 70
     1
  9
$FILLMODE
 70
     1
  9
$QTEXTMODE
 70
     0
  9
$MIRRTEXT
 70
     0
  9
$LTSCALE
 40
1.0
  9
$ATTMODE
 70
     1
  9
$TEXTSIZE
 40
0.2
  9
$TRACEWID
 40
0.05
  9
$TEXTSTYLE
  7
Standard
  9
$CLAYER
  8
0
  9
$CELTYPE
  6
ByLayer
  9
$CECOLOR
 62
   256
  9
$CELTSCALE
 40
1.0
  9
$DISPSILH
 70
     0
  9
$DIMSCALE
 40
1.0
  9
$DIMASZ
 40
0.18
  9
$DIMEXO
 40
0.0625
  9
$DIMDLI
 40
0.38
  9
$DIMRND
 40
0.0
  9
$DIMDLE
 40
0.0
  9
$DIMEXE
 40
0.18
  9
$DIMTP
 40
0.0
  9
$DIMTM
 40
0.0
  9
$DIMTXT
 40
0.18
  9
$DIMCEN
 40
0.09
  9
$DIMTSZ
 40
0.0
  9
$DIMTOL
 70
     0
  9
$DIMLIM
 70
     0
  9
$DIMTIH
 70
     1
  9
$DIMTOH
 70
     1
  9
$DIMSE1
 70
     0
  9
$DIMSE2
 70
     0
  9
$DIMTAD
 70
     0
  9
$DIMZIN
 70
     0
  9
$DIMBLK
  1

  9
$DIMASO
 70
     1
  9
$DIMSHO
 70
     1
  9
$DIMPOST
  1

  9
$DIMAPOST
  1

  9
$DIMALT
 70
     0
  9
$DIMALTD
 70
     2
  9
$DIMALTF
 40
25.4
  9
$DIMLFAC
 40
1.0
  9
$DIMTOFL
 70
     0
  9
$DIMTVP
 40
0.0
  9
$DIMTIX
 70
     0
  9
$DIMSOXD
 70
     0
  9
$DIMSAH
 70
     0
  9
$DIMBLK1
  1

  9
$DIMBLK2
  1

  9
$DIMSTYLE
  2
Standard
  9
$DIMCLRD
 70
     0
  9
$DIMCLRE
 70
     0
  9
$DIMCLRT
 70
     0
  9
$DIMTFAC
 40
1.0
  9
$DIMGAP
 40
0.09
  9
$DIMJUST
 70
     0
  9
$DIMSD1
 70
     0
  9
$DIMSD2
 70
     0
  9
$DIMTOLJ
 70
     1
  9
$DIMTZIN
 70
     0
  9
$DIMALTZ
 70
     0
  9
$DIMALTTZ
 70
     0
  9
$DIMUPT
 70
     0
  9
$DIMDEC
 70
     4
  9
$DIMTDEC
 70
     4
  9
$DIMALTU
 70
     2
  9
$DIMALTTD
 70
     2
  9
$DIMTXSTY
  7
Standard
  9
$DIMAUNIT
 70
     0
  9
$DIMADEC
 70
     0
  9
$DIMALTRND
 40
0.0
  9
$DIMAZIN
 70
     0
  9
$DIMDSEP
 70
    46
  9
$DIMATFIT
 70
     3
  9
$DIMFRAC
 70
     0
  9
$DIMLDRBLK
  1

  9
$DIMLUNIT
 70
     2
  9
$DIMLWD
 70
    -2
  9
$DIMLWE
 70
    -2
  9
$DIMTMOVE
 70
     0
  9
$LUNITS
 70
     2
  9
$LUPREC
 70
     4
  9
$SKETCHINC
 40
0.1
  9
$FILLETRAD
 40
0.0
  9
$AUNITS
 70
     0
  9
$AUPREC
 70
     0
  9
$MENU
  1
.
  9
$ELEVATION
 40
0.0
  9
$PELEVATION
 40
0.0
  9
$THICKNESS
 40
0.0
  9
$LIMCHECK
 70
     0
  9
$CHAMFERA
 40
0.0
  9
$CHAMFERB
 40
0.0
  9
$CHAMFERC
 40
0.0
  9
$CHAMFERD
 40
0.0
  9
$SKPOLY
 70
     0
  9
$TDCREATE
 40
2454938.360508912
  9
$TDUCREATE
 40
2454938.610508913
  9
$TDUPDATE
 40
2454938.364478762
  9
$TDUUPDATE
 40
2454938.614478762
  9
$TDINDWG
 40
0.0039707755
  9
$TDUSRTIMER
 40
0.0039707755
  9
$USRTIMER
 70
     1
  9
$ANGBASE
 50
0.0
  9
$ANGDIR
 70
     0
  9
$PDMODE
 70
     0
  9
$PDSIZE
 40
0.0
  9
$PLINEWID
 40
0.0
  9
$SPLFRAME
 70
     0
  9
$SPLINETYPE
 70
     6
  9
$SPLINESEGS
 70
     8
  9
$HANDSEED
  5
20E6
  9
$SURFTAB1
 70
     6
  9
$SURFTAB2
 70
     6
  9
$SURFTYPE
 70
     6
  9
$SURFU
 70
     6
  9
$SURFV
 70
     6
  9
$UCSBASE
  2

  9
$UCSNAME
  2

  9
$UCSORG
 10
0.0
 20
0.0
 30
0.0
  9
$UCSXDIR
 10
1.0
 20
0.0
 30
0.0
  9
$UCSYDIR
 10
0.0
 20
1.0
 30
0.0
  9
$UCSORTHOREF
  2

  9
$UCSORTHOVIEW
 70
     0
  9
$UCSORGTOP
 10
0.0
 20
0.0
 30
0.0
  9
$UCSORGBOTTOM
 10
0.0
 20
0.0
 30
0.0
  9
$UCSORGLEFT
 10
0.0
 20
0.0
 30
0.0
  9
$UCSORGRIGHT
 10
0.0
 20
0.0
 30
0.0
  9
$UCSORGFRONT
 10
0.0
 20
0.0
 30
0.0
  9
$UCSORGBACK
 10
0.0
 20
0.0
 30
0.0
  9
$PUCSBASE
  2

  9
$PUCSNAME
  2

  9
$PUCSORG
 10
0.0
 20
0.0
 30
0.0
  9
$PUCSXDIR
 10
1.0
 20
0.0
 30
0.0
  9
$PUCSYDIR
 10
0.0
 20
1.0
 30
0.0
  9
$PUCSORTHOREF
  2

  9
$PUCSORTHOVIEW
 70
     0
  9
$PUCSORGTOP
 10
0.0
 20
0.0
 30
0.0
  9
$PUCSORGBOTTOM
 10
0.0
 20
0.0
 30
0.0
  9
$PUCSORGLEFT
 10
0.0
 20
0.0
 30
0.0
  9
$PUCSORGRIGHT
 10
0.0
 20
0.0
 30
0.0
  9
$PUCSORGFRONT
 10
0.0
 20
0.0
 30
0.0
  9
$PUCSORGBACK
 10
0.0
 20
0.0
 30
0.0
  9
$USERI1
 70
     0
  9
$USERI2
 70
     0
  9
$USERI3
 70
     0
  9
$USERI4
 70
     0
  9
$USERI5
 70
     0
  9
$USERR1
 40
0.0
  9
$USERR2
 40
0.0
  9
$USERR3
 40
0.0
  9
$USERR4
 40
0.0
  9
$USERR5
 40
0.0
  9
$WORLDVIEW
 70
     1
  9
$SHADEDGE
 70
     3
  9
$SHADEDIF
 70
    70
  9
$TILEMODE
 70
     1
  9
$MAXACTVP
 70
    64
  9
$PINSBASE
 10
0.0
 20
0.0
 30
0.0
  9
$PLIMCHECK
 70
     0
  9
$PEXTMIN
 10
0.0
 20
0.0
 30
0.0
  9
$PEXTMAX
 10
0.0
 20
0.0
 30
0.0
  9
$PLIMMIN
 10
0.0
 20
0.0
  9
$PLIMMAX
 10
12.0
 20
9.0
  9
$UNITMODE
 70
     0
  9
$VISRETAIN
 70
     1
  9
$PLINEGEN
 70
     0
  9
$PSLTSCALE
 70
     1
  9
$TREEDEPTH
 70
  3020
  9
$CMLSTYLE
  2
Standard
  9
$CMLJUST
 70
     0
  9
$CMLSCALE
 40
1.0
  9
$PROXYGRAPHICS
 70
     1
  9
$MEASUREMENT
 70
     0
  9
$CELWEIGHT
370
    -1
  9
$ENDCAPS
280
     0
  9
$JOINSTYLE
280
     0
  9
$LWDISPLAY
290
     0
  9
$INSUNITS
 70
     1
  9
$HYPERLINKBASE
  1

  9
$STYLESHEET
  1

  9
$XEDIT
290
     1
  9
$CEPSNTYPE
380
     0
  9
$PSTYLEMODE
290
     1
  9
$FINGERPRINTGUID
  2
{FDEAD576-A652-11D2-9A35-0060089B3A3F}
  9
$VERSIONGUID
  2
{8DC51261-27A7-49EB-89C3-CFBBBBD8031C}
  9
$EXTNAMES
290
     1
  9
$PSVPSCALE
 40
0.0
  9
$OLESTARTUP
290
     0
  0
ENDSEC
  0
SECTION
  2
CLASSES
  0
CLASS
  1
ACDBDICTIONARYWDFLT
  2
AcDbDictionaryWithDefault
  3
ObjectDBX Classes
 90
        0
280
     0
281
     0
  0
CLASS
  1
ACDBPLACEHOLDER
  2
AcDbPlaceHolder
  3
ObjectDBX Classes
 90
        0
280
     0
281
     0
  0
CLASS
  1
LAYOUT
  2
AcDbLayout
  3
ObjectDBX Classes
 90
        0
280
     0
281
     0
  0
CLASS
  1
DICTIONARYVAR
  2
AcDbDictionaryVar
  3
ObjectDBX Classes
 90
        0
280
     0
281
     0
  0
CLASS
  1
SORTENTSTABLE
  2
AcDbSortentsTable
  3
ObjectDBX Classes
 90
        0
280
     0
281
     0
  0
ENDSEC
  0
SECTION
  2
TABLES
  0
TABLE
  2
VPORT
  5
8
330
0
100
AcDbSymbolTable
 70
    15
  0
VPORT
  5
20DC
330
8
100
AcDbSymbolTableRecord
100
AcDbViewportTableRecord
  2
*Active
 70
     0
 10
0.0
 20
0.0
 11
1.0
 21
1.0
 12
-14.64401014561268
 22
60.40184663626763
 13
0.0
 23
0.0
 14
0.5
 24
0.5
 15
0.5
 25
0.5
 16
0.0
 26
0.0
 36
1.0
 17
0.0
 27
0.0
 37
0.0
 40
73.77107884112004
 41
1.48433734939759
 42
50.0
 43
0.0
 44
0.0
 50
0.0
 51
0.0
 71
     0
 72
  1000
 73
     1
 74
     3
 75
     0
 76
     0
 77
     0
 78
     0
281
     0
 65
     1
110
0.0
120
0.0
130
0.0
111
1.0
121
0.0
131
0.0
112
0.0
122
1.0
132
0.0
 79
     0
146
0.0
  0
ENDTAB
  0
TABLE
  2
LTYPE
  5
5
330
0
100
AcDbSymbolTable
 70
     4
  0
LTYPE
  5
14
330
5
100
AcDbSymbolTableRecord
100
AcDbLinetypeTableRecord
  2
ByBlock
 70
     0
  3

 72
    65
 73
     0
 40
0.0
  0
LTYPE
  5
15
330
5
100
AcDbSymbolTableRecord
100
AcDbLinetypeTableRecord
  2
ByLayer
 70
     0
  3

 72
    65
 73
     0
 40
0.0
  0
LTYPE
  5
16
330
5
100
AcDbSymbolTableRecord
100
AcDbLinetypeTableRecord
  2
Continuous
 70
     0
  3
Solid line
 72
    65
 73
     0
 40
0.0
  0
LTYPE
  5
96
330
5
100
AcDbSymbolTableRecord
100
AcDbLinetypeTableRecord
  2
DASHED2
 70
     0
  3
_ _ _ _ _ _ _ _ _ _ _ _ _ _ _ _ _ _ _ _ _ _ _ _
 72
    65
 73
     2
 40
0.375
 49
0.25
 74
     0
 49
-0.125
 74
     0
  0
LTYPE
  5
97
330
5
100
AcDbSymbolTableRecord
100
AcDbLinetypeTableRecord
  2
HIDDEN
 70
     0
  3
Hidden __ __ __ __ __ __ __ __ __ __ __ __ __ _
 72
    65
 73
     2
 40
0.375
 49
0.25
 74
     0
 49
-0.125
 74
     0
  0
LTYPE
  5
865
330
5
100
AcDbSymbolTableRecord
100
AcDbLinetypeTableRecord
  2
CENTER
 70
     0
  3
Center ____ _ ____ _ ____ _ ____ _ ____ _ ____
 72
    65
 73
     4
 40
2.0
 49
1.25
 74
     0
 49
-0.25
 74
     0
 49
0.25
 74
     0
 49
-0.25
 74
     0
  0
ENDTAB
  0
TABLE
  2
LAYER
  5
2
102
{ACAD_XDICTIONARY
360
A4
102
}
330
0
100
AcDbSymbolTable
 70
     9
  0
LAYER
  5
10
330
2
100
AcDbSymbolTableRecord
100
AcDbLayerTableRecord
  2
0
 70
     0
 62
     7
  6
Continuous
370
    -3
390
F
  0
LAYER
  5
98
330
2
100
AcDbSymbolTableRecord
100
AcDbLayerTableRecord
  2
DIM
 70
     0
 62
     3
  6
Continuous
370
    13
390
F
  0
LAYER
  5
99
330
2
100
AcDbSymbolTableRecord
100
AcDbLayerTableRecord
  2
Defpoints
 70
     0
 62
   252
  6
Continuous
290
     0
370
    -3
390
F
  0
LAYER
  5
9A
330
2
100
AcDbSymbolTableRecord
100
AcDbLayerTableRecord
  2
A2 Hatch
 70
     0
 62
     8
  6
Continuous
370
     9
390
F
  0
LAYER
  5
9B
330
2
100
AcDbSymbolTableRecord
100
AcDbLayerTableRecord
  2
A5 heavy
 70
     0
 62
     5
  6
Continuous
370
    53
390
F
  0
LAYER
  5
9C
330
2
100
AcDbSymbolTableRecord
100
AcDbLayerTableRecord
  2
DETAILS
 70
     0
 62
     7
  6
Continuous
370
    13
390
F
  0
LAYER
  5
866
330
2
100
AcDbSymbolTableRecord
100
AcDbLayerTableRecord
  2
A1 fine
 70
     0
 62
   251
  6
Continuous
370
     5
390
F
  0
LAYER
  5
867
330
2
100
AcDbSymbolTableRecord
100
AcDbLayerTableRecord
  2
A4 medium
 70
     0
 62
     7
  6
Continuous
370
    35
390
F
  0
LAYER
  5
868
330
2
100
AcDbSymbolTableRecord
100
AcDbLayerTableRecord
  2
REBAR
 70
     0
 62
     2
  6
CENTER
370
    30
390
F
  0
ENDTAB
  0
TABLE
  2
STYLE
  5
3
330
0
100
AcDbSymbolTable
 70
     4
  0
STYLE
  5
11
330
3
100
AcDbSymbolTableRecord
100
AcDbTextStyleTableRecord
  2
Standard
 70
     0
 40
0.0
 41
1.0
 50
0.0
 71
     0
 42
0.2
  3
txt
  4

  0
STYLE
  5
9D
330
3
100
AcDbSymbolTableRecord
100
AcDbTextStyleTableRecord
  2
ARCHITXT
 70
     0
 40
0.0
 41
1.25
 50
0.0
 71
     0
 42
1.0
  3
ARCHITXT.shx
  4

  0
STYLE
  5
9E
330
3
100
AcDbSymbolTableRecord
100
AcDbTextStyleTableRecord
  2
ARCTEXT
 70
     0
 40
0.0
 41
0.85
 50
0.0
 71
     0
 42
5.096770384644268
  3
arctext.shx
  4

  0
STYLE
  5
9F
330
3
100
AcDbSymbolTableRecord
100
AcDbTextStyleTableRecord
  2
RomanC
 70
     0
 40
5.0
 41
0.85
 50
0.0
 71
     0
 42
10.0
  3
romanc.shx
  4

  0
ENDTAB
  0
TABLE
  2
VIEW
  5
6
330
0
100
AcDbSymbolTable
 70
     0
  0
ENDTAB
  0
TABLE
  2
UCS
  5
7
330
0
100
AcDbSymbolTable
 70
     0
  0
ENDTAB
  0
TABLE
  2
APPID
  5
9
330
0
100
AcDbSymbolTable
 70
     1
  0
APPID
  5
12
330
9
100
AcDbSymbolTableRecord
100
AcDbRegAppTableRecord
  2
ACAD
 70
     0
  0
ENDTAB
  0
TABLE
  2
DIMSTYLE
  5
A
330
0
100
AcDbSymbolTable
 70
     5
100
AcDbDimStyleTable
 71
     0
  0
DIMSTYLE
105
27
330
A
100
AcDbSymbolTableRecord
100
AcDbDimStyleTableRecord
  2
Standard
 70
     0
340
11
  0
DIMSTYLE
105
A0
330
A
100
AcDbSymbolTableRecord
100
AcDbDimStyleTableRecord
  2
Copy of ROMANS
 70
     0
 41
0.75
 42
0.125
 43
0.125
 44
0.125
 73
     0
 74
     0
 77
     1
 78
     3
140
1.0
141
6.0
147
0.25
172
     1
175
     1
176
     2
177
     2
178
     2
271
     3
272
     3
273
     4
275
     1
277
     4
279
     2
284
     3
285
     3
286
     3
340
9D
  0
DIMSTYLE
105
A1
330
A
100
AcDbSymbolTableRecord
100
AcDbDimStyleTableRecord
  2
ARCTEXT
 70
     0
 40
0.0
 41
2.0
 42
1.0
 43
0.375
 44
0.1875
 73
     0
 74
     0
140
4.0
141
2.0
147
2.0
176
     2
177
     2
178
     2
277
     4
340
9E
341
8D
342
89
  0
DIMSTYLE
105
A2
330
A
100
AcDbSymbolTableRecord
100
AcDbDimStyleTableRecord
  2
ARCTEXT1-4
 70
     0
 41
2.0
 42
2.0
 43
2.0
 44
2.0
 73
     0
 74
     0
 77
     1
 78
     3
140
4.0
141
2.0
147
2.0
172
     1
175
     1
275
     1
277
     4
279
     2
340
9E
341
8D
342
89
  0
DIMSTYLE
105
A3
330
A
100
AcDbSymbolTableRecord
100
AcDbDimStyleTableRecord
  2
ARCTEXT 1-1
 70
     0
 40
0.0
 41
1.0
 42
1.0
 43
0.375
 44
0.1875
 73
     0
 74
     0
 77
     1
 78
     3
140
1.0
141
1.0
147
0.5
176
   256
177
   256
178
   256
277
     4
279
     2
340
9E
341
8D
342
89
  0
ENDTAB
  0
TABLE
  2
BLOCK_RECORD
  5
1
330
0
100
AcDbSymbolTable
 70
    12
  0
BLOCK_RECORD
  5
1F
330
1
100
AcDbSymbolTableRecord
100
AcDbBlockTableRecord
  2
*Model_Space
340
22
  0
BLOCK_RECORD
  5
58
330
1
100
AcDbSymbolTableRecord
100
AcDbBlockTableRecord
  2
*Paper_Space
340
59
  0
BLOCK_RECORD
  5
5D
330
1
100
AcDbSymbolTableRecord
100
AcDbBlockTableRecord
  2
*Paper_Space0
340
5E
  0
BLOCK_RECORD
  5
89
330
1
100
AcDbSymbolTableRecord
100
AcDbBlockTableRecord
  2
_ArchTick
340
0
102
{BLKREFS
331
85E
331
85F
331
1060
331
1061
102
}
  0
BLOCK_RECORD
  5
8D
330
1
100
AcDbSymbolTableRecord
100
AcDbBlockTableRecord
  2
arrow
340
0
310
2800000020000000200000000100080000000000000400000000000000000000000000000000000000000000000080000080000000808000800000008000800080800000C0C0C000C0DCC000F0CAA6000020400000206000002080000020A0000020C0000020E00000400000004020000040400000406000004080000040A0
310
000040C0000040E00000600000006020000060400000606000006080000060A0000060C0000060E00000800000008020000080400000806000008080000080A0000080C0000080E00000A0000000A0200000A0400000A0600000A0800000A0A00000A0C00000A0E00000C0000000C0200000C0400000C0600000C0800000C0
310
A00000C0C00000C0E00000E0000000E0200000E0400000E0600000E0800000E0A00000E0C00000E0E00040000000400020004000400040006000400080004000A0004000C0004000E00040200000402020004020400040206000402080004020A0004020C0004020E000404000004040200040404000404060004040800040
310
40A0004040C0004040E00040600000406020004060400040606000406080004060A0004060C0004060E00040800000408020004080400040806000408080004080A0004080C0004080E00040A0000040A0200040A0400040A0600040A0800040A0A00040A0C00040A0E00040C0000040C0200040C0400040C0600040C08000
310
40C0A00040C0C00040C0E00040E0000040E0200040E0400040E0600040E0800040E0A00040E0C00040E0E00080000000800020008000400080006000800080008000A0008000C0008000E00080200000802020008020400080206000802080008020A0008020C0008020E00080400000804020008040400080406000804080
310
008040A0008040C0008040E00080600000806020008060400080606000806080008060A0008060C0008060E00080800000808020008080400080806000808080008080A0008080C0008080E00080A0000080A0200080A0400080A0600080A0800080A0A00080A0C00080A0E00080C0000080C0200080C0400080C0600080C0
310
800080C0A00080C0C00080C0E00080E0000080E0200080E0400080E0600080E0800080E0A00080E0C00080E0E000C0000000C0002000C0004000C0006000C0008000C000A000C000C000C000E000C0200000C0202000C0204000C0206000C0208000C020A000C020C000C020E000C0400000C0402000C0404000C0406000C0
310
408000C040A000C040C000C040E000C0600000C0602000C0604000C0606000C0608000C060A000C060C000C060E000C0800000C0802000C0804000C0806000C0808000C080A000C080C000C080E000C0A00000C0A02000C0A04000C0A06000C0A08000C0A0A000C0A0C000C0A0E000C0C00000C0C02000C0C04000C0C06000
310
C0C08000C0C0A000F0FBFF00A4A0A000808080000000FF0000FF000000FFFF00FF000000FF00FF00FFFF0000FFFFFF0000000000000000000000000000000000000000000000000000000000000000000000000000000000000000000000000000000000000000000000000000000000000000000000000000000000000000
310
0000000000000000000000000000000000000000000000000000000000000000000000000000000000000000000000000000000000000000000000000000000000000000000000000000000000000000000000000000000000000000000000000000000000000000000000000000000000000000000000FA00000000000000
310
000000000000000000000000000000000000000000000000FA00000000000000000000000000000000000000000000000000000000000000FA0000000000000000000000000000000000000000000000000000FAFA000000FA00000000000000000000000000000000000000000000000000000000FAFA00FA000000000000
310
000000000000000000000000000000000000000000000000FAF7F7000000000000000000000000000000000000000000000000000000000000F7F7F7F7F7F70000000000000000000000000000000000000000000000000000F7F7F7F7F7F7F7F7F7F700000000000000000000000000000000000000000000F7F7F7F7F7F7
310
F7F7F7F7F7F7F7F7000000000000000000000000000000000000F7F7F7F7F7F7F7F7F7F7F7F7F7F7F7F7F7F70000000000FAFA00000000000000F7F7F7F7F7F7F7F7F7F7F7F7F7F7F7F7F7F7F7F7F7FAFAFAFA00000000000000F7F7F7F7F7F7F7F7F7F7F7F7F7F7F7F7F7F70000000000000000000000000000F7F7F7F7F7
310
F7F7F7F7F7F7F7F700000000000000000000000000000000000000F7F7F7F7F7F7F7F70000000000000000000000000000000000000000000000FAF7F7F70000000000000000000000000000000000000000000000000000FAFA00FA0000000000000000000000000000000000000000000000000000FAFA000000FA000000
310
00000000000000000000000000000000000000000000000000000000FA00000000000000000000000000000000000000000000000000000000000000FA00000000000000000000000000000000000000000000000000000000000000FA00000000000000000000000000000000000000000000000000000000000000000000
310
00000000000000000000000000000000000000000000000000000000000000000000000000000000000000000000000000000000000000000000000000000000000000000000000000000000000000000000000000000000000000000000000000000000000000000000000000000000000000000000000000000000000000
310
0000000000000000000000000000000000000000000000000000000000000000000000000000000000000000000000000000000000000000
1001
ACAD
1000
DesignCenter Data
1002
{
1070
     1
1070
     1
1002
}
  0
BLOCK_RECORD
  5
859
330
1
100
AcDbSymbolTableRecord
100
AcDbBlockTableRecord
  2
*D6
340
0
  0
BLOCK_RECORD
  5
1051
330
1
100
AcDbSymbolTableRecord
100
AcDbBlockTableRecord
  2
*D8
340
0
  0
ENDTAB
  0
ENDSEC
  0
SECTION
  2
BLOCKS
  0
BLOCK
  5
20
330
1F
100
AcDbEntity
  8
0
100
AcDbBlockBegin
  2
*Model_Space
 70
     0
 10
0.0
 20
0.0
 30
0.0
  3
*Model_Space
  1

  0
ENDBLK
  5
21
330
1F
100
AcDbEntity
  8
0
100
AcDbBlockEnd
  0
BLOCK
  5
5A
330
58
100
AcDbEntity
 67
     1
  8
0
100
AcDbBlockBegin
  2
*Paper_Space
 70
     0
 10
0.0
 20
0.0
 30
0.0
  3
*Paper_Space
  1

  0
ENDBLK
  5
5B
330
58
100
AcDbEntity
 67
     1
  8
0
100
AcDbBlockEnd
  0
BLOCK
  5
5F
330
5D
100
AcDbEntity
  8
0
100
AcDbBlockBegin
  2
*Paper_Space0
 70
     0
 10
0.0
 20
0.0
 30
0.0
  3
*Paper_Space0
  1

  0
ENDBLK
  5
60
330
5D
100
AcDbEntity
  8
0
100
AcDbBlockEnd
  0
BLOCK
  5
8A
330
89
100
AcDbEntity
  8
0
100
AcDbBlockBegin
  2
_ArchTick
 70
     0
 10
0.0
 20
0.0
 30
0.0
  3
_ArchTick
  1

  0
LWPOLYLINE
  5
8B
330
89
100
AcDbEntity
  8
0
  6
ByBlock
 62
     0
100
AcDbPolyline
 90
        2
 70
     0
 43
0.15
 10
-0.5
 20
-0.5
 10
0.5
 20
0.5
  0
ENDBLK
  5
8C
330
89
100
AcDbEntity
  8
0
100
AcDbBlockEnd
  0
BLOCK
  5
8E
330
8D
100
AcDbEntity
  8
0
100
AcDbBlockBegin
  2
arrow
 70
     0
 10
0.0
 20
0.0
 30
0.0
  3
arrow
  1

  0
HATCH
  5
8F
330
8D
100
AcDbEntity
  8
DIM
 62
   253
100
AcDbHatch
 10
0.0
 20
0.0
 30
0.0
210
0.0
220
0.0
230
1.0
  2
SOLID
 70
     1
 71
     0
 91
        1
 92
        7
 72
     0
 73
     1
 93
        3
 10
-2.0
 20
0.5
 10
-2.0
 20
-0.5
 10
0.0
 20
0.0
 97
        0
 75
     0
 76
     1
 47
0.0337394080685346
 98
        1
 10
-1.103351122172171
 20
0.05064816270351
  0
LWPOLYLINE
  5
90
330
8D
100
AcDbEntity
  8
DIM
370
    15
100
AcDbPolyline
 90
        4
 70
     0
 43
0.0
 10
0.0
 20
0.0
 10
-2.0
 20
-0.5
 10
-2.0
 20
0.5
 10
0.0
 20
0.0
  0
LWPOLYLINE
  5
91
330
8D
100
AcDbEntity
  8
DIM
370
     9
100
AcDbPolyline
 90
        2
 70
     0
 43
0.0
 10
0.3742552490839444
 20
0.0935638122700766
 10
0.0
 20
0.0
  0
LWPOLYLINE
  5
92
330
8D
100
AcDbEntity
  8
DIM
370
     9
100
AcDbPolyline
 90
        3
 70
     0
 43
0.0
 10
-2.0
 20
-0.9831764405007561
 10
-2.0
 20
-0.5
 10
-2.46875
 20
-0.6171875
  0
LWPOLYLINE
  5
93
330
8D
100
AcDbEntity
  8
DIM
370
     9
100
AcDbPolyline
 90
        3
 70
     0
 43
0.0
 10
-2.0
 20
0.9831764405007561
 10
-2.0
 20
0.5
 10
-2.46875
 20
0.6171875
  0
LWPOLYLINE
  5
94
330
8D
100
AcDbEntity
  8
DIM
370
     9
100
AcDbPolyline
 90
        2
 70
     0
 43
0.0
 10
0.3742552490839444
 20
-0.0935638122700766
 10
0.0
 20
0.0
  0
ENDBLK
  5
95
330
8D
100
AcDbEntity
  8
0
100
AcDbBlockEnd
  0
BLOCK
  5
85A
330
859
100
AcDbEntity
  8
0
 48
0.15
100
AcDbBlockBegin
  2
*D6
 70
     1
 10
0.0
 20
0.0
 30
0.0
  3
*D6
  1

  0
LINE
  5
85B
330
859
100
AcDbEntity
  8
DIM
 48
0.15
370
    -2
100
AcDbLine
 10
7258.804787169045
 20
-3362.37866615228
 30
0.0
 11
7244.452332516266
 21
-3362.37866615228
 31
0.0
  0
LINE
  5
85C
330
859
100
AcDbEntity
  8
DIM
 48
0.15
370
    -2
100
AcDbLine
 10
7259.321078680835
 20
-3366.510840404795
 30
0.0
 11
7244.452332516266
 21
-3366.510840404795
 31
0.0
  0
LINE
  5
85D
330
859
100
AcDbEntity
  8
DIM
 48
0.15
370
    -2
100
AcDbLine
 10
7244.639832516266
 20
-3362.37866615228
 30
0.0
 11
7244.639832516266
 21
-3366.510840404795
 31
0.0
  0
INSERT
  5
85E
330
859
100
AcDbEntity
  8
DIM
 48
0.15
370
    -2
100
AcDbBlockReference
  2
_ArchTick
 10
7244.639832516266
 20
-3362.37866615228
 30
0.0
 50
90.0
  0
INSERT
  5
85F
330
859
100
AcDbEntity
  8
DIM
 48
0.15
370
    -2
100
AcDbBlockReference
  2
_ArchTick
 10
7244.639832516266
 20
-3366.510840404795
 30
0.0
 50
270.0
  0
MTEXT
  5
860
330
859
100
AcDbEntity
  8
DIM
 48
0.15
100
AcDbMText
 10
7243.639832516267
 20
-3364.444753278536
 30
0.0
 40
1.0
 41
0.0
 71
     5
 72
     1
  1
\A1;.
  7
ARCTEXT
 11
0.0000000000000001
 21
1.0
 31
0.0
 73
     1
 44
1.0
1001
ACAD
1000
MTEXTBEGIN
1070
    73
1070
     1
1070
    44
1040
1.0
1070
    74
1070
     0
1000
MTEXTEND
  0
POINT
  5
861
330
859
100
AcDbEntity
  8
Defpoints
 62
     0
 48
0.15
100
AcDbPoint
 10
7259.804787169044
 20
-3362.37866615228
 30
0.0
  0
POINT
  5
862
330
859
100
AcDbEntity
  8
Defpoints
 62
     0
 48
0.15
100
AcDbPoint
 10
7260.321078680835
 20
-3366.510840404795
 30
0.0
  0
POINT
  5
863
330
859
100
AcDbEntity
  8
Defpoints
 62
     0
 48
0.15
100
AcDbPoint
 10
7244.639832516266
 20
-3366.510840404795
 30
0.0
  0
ENDBLK
  5
864
330
859
100
AcDbEntity
  8
0
 48
0.15
100
AcDbBlockEnd
  0
BLOCK
  5
105B
330
1051
100
AcDbEntity
  8
0
100
AcDbBlockBegin
  2
*D8
 70
     1
 10
0.0
 20
0.0
 30
0.0
  3
*D8
  1

  0
LINE
  5
105D
330
1051
100
AcDbEntity
  8
DIM
370
    -2
100
AcDbLine
 10
-6.349451024049841
 20
70.30828673096635
 30
0.0
 11
-20.70190567682769
 21
70.30828673096635
 31
0.0
  0
LINE
  5
105E
330
1051
100
AcDbEntity
  8
DIM
370
    -2
100
AcDbLine
 10
-5.833159512259072
 20
66.17611247845076
 30
0.0
 11
-20.70190567682769
 21
66.17611247845076
 31
0.0
  0
LINE
  5
105F
330
1051
100
AcDbEntity
  8
DIM
370
    -2
100
AcDbLine
 10
-20.51440567682769
 20
70.30828673096635
 30
0.0
 11
-20.51440567682769
 21
66.17611247845076
 31
0.0
  0
INSERT
  5
1060
330
1051
100
AcDbEntity
  8
DIM
370
    -2
100
AcDbBlockReference
  2
_ArchTick
 10
-20.51440567682769
 20
70.30828673096635
 30
0.0
 50
90.0
  0
INSERT
  5
1061
330
1051
100
AcDbEntity
  8
DIM
370
    -2
100
AcDbBlockReference
  2
_ArchTick
 10
-20.51440567682769
 20
66.17611247845076
 30
0.0
 50
270.0
  0
MTEXT
  5
1062
330
1051
100
AcDbEntity
  8
DIM
100
AcDbMText
 10
-21.51440567682771
 20
68.24219960470855
 30
0.0
 40
1.0
 41
0.0
 71
     5
 72
     1
  1
\A1;.
  7
ARCTEXT
 11
0.0000000000000001
 21
1.0
 31
0.0
 73
     1
 44
1.0
1001
ACAD
1000
MTEXTBEGIN
1070
    73
1070
     1
1070
    44
1040
1.0
1070
    74
1070
     0
1000
MTEXTEND
  0
POINT
  5
1063
330
1051
100
AcDbEntity
  8
Defpoints
 62
     0
100
AcDbPoint
 10
-5.349451024049841
 20
70.30828673096635
 30
0.0
  0
POINT
  5
1064
330
1051
100
AcDbEntity
  8
Defpoints
 62
     0
100
AcDbPoint
 10
-4.833159512259072
 20
66.17611247845076
 30
0.0
  0
POINT
  5
1065
330
1051
100
AcDbEntity
  8
Defpoints
 62
     0
100
AcDbPoint
 10
-20.51440567682769
 20
66.17611247845076
 30
0.0
  0
ENDBLK
  5
105C
330
1051
100
AcDbEntity
  8
0
100
AcDbBlockEnd
  0
ENDSEC
  0
SECTION
  2
ENTITIES
  0
MTEXT
  5
1E12
330
1F
100
AcDbEntity
  8
Defpoints
100
AcDbMText
 10
-47.94602003577702
 20
27.38525628023908
 30
0.0
 40
3.0
 41
90.07999999999999
 71
     2
 72
     5
  1
{\L119\P}\P            
  7
RomanC
 73
     1
 44
1.0
1001
ACAD
1000
MTEXTBEGIN
1070
    73
1070
     1
1070
    44
1040
1.0
1070
    74
1070
     0
1000
MTEXTEND
  0
MTEXT
  5
1E13
330
1F
100
AcDbEntity
  8
DIM
100
AcDbMText
 10
-10.84917836721789
 20
37.06410098864407
 30
0.0
 40
3.0
 41
71.41649521821006
 71
     2
 72
     5
  1
{\L6" WALL W/ RECESSED WINDOW DIRECTLY ON CONCRETE}\P               
  7
RomanC
 73
     1
 44
1.0
1001
ACAD
1000
MTEXTBEGIN
1070
    73
1070
     1
1070
    44
1040
1.0
1070
    74
1070
     0
1000
MTEXTEND
  0
LINE
  5
1E14
330
1F
100
AcDbEntity
  8
0
 48
0.15
100
AcDbLine
 10
-26.59561742478846
 20
68.35851355837402
 30
0.0
 11
-20.39561742478773
 21
68.35851355837402
 31
0.0
  0
LINE
  5
1E15
330
1F
100
AcDbEntity
  8
0
 48
0.15
100
AcDbLine
 10
-17.27061742478682
 20
96.09685300497867
 30
0.0
 11
-17.27061742478864
 21
67.85851355837448
 31
0.0
  0
LINE
  5
1E16
330
1F
100
AcDbEntity
  8
DIM
100
AcDbLine
 10
-14.54829582519679
 20
97.0181288591344
 30
0.0
 11
-23.01373259074162
 21
94.15329375363043
 31
0.0
  0
LINE
  5
1E17
330
1F
100
AcDbEntity
  8
DIM
100
AcDbLine
 10
-22.31170032814035
 20
92.08327304017311
 30
0.0
 11
-23.01373259074072
 21
94.15329375363043
 31
0.0
  0
LINE
  5
1E18
330
1F
100
AcDbEntity
  8
DIM
100
AcDbLine
 10
-25.75884588642467
 20
95.53041859845789
 30
0.0
 11
-25.0568136238243
 21
93.46039788500101
 31
0.0
  0
LINE
  5
1E19
330
1F
100
AcDbEntity
  8
DIM
100
AcDbLine
 10
-25.0568136238243
 20
93.46039788500101
 30
0.0
 11
-32.89451441468728
 21
90.92669878346313
 31
0.0
  0
LINE
  5
1E1A
330
1F
100
AcDbEntity
  8
DIM
100
AcDbLine
 10
-22.31170032814035
 20
92.08327304017311
 30
0.0
 11
-25.75884588642467
 21
95.53041859845789
 31
0.0
  0
LINE
  5
1E1B
330
1F
100
AcDbEntity
  8
0
 48
0.15
100
AcDbLine
 10
-29.72061742478846
 20
67.85851355837585
 30
0.0
 11
-25.74424183528654
 21
67.85851355837175
 31
0.0
  0
LINE
  5
1E1C
330
1F
100
AcDbEntity
  8
0
 48
0.15
100
AcDbLine
 10
-24.70656436047276
 20
68.35851355837402
 30
0.0
 11
-24.95656436047275
 21
68.35851355837402
 31
0.0
  0
LINE
  5
1E1D
330
1F
100
AcDbEntity
  8
0
 48
0.15
100
AcDbLine
 10
-25.74424183528746
 20
68.35851355837402
 30
0.0
 11
-25.74424183528746
 21
66.85851355837403
 31
0.0
  0
LINE
  5
1E1E
330
1F
100
AcDbEntity
  8
0
 48
0.15
100
AcDbLine
 10
-25.74424183528746
 20
66.85851355837403
 30
0.0
 11
-26.24424183528745
 21
66.85851355837403
 31
0.0
  0
LINE
  5
1E1F
330
1F
100
AcDbEntity
  8
0
 48
0.15
100
AcDbLine
 10
-26.24424183528745
 20
66.85851355837403
 30
0.0
 11
-26.24424183528745
 21
66.10851355837403
 31
0.0
  0
LINE
  5
1E20
330
1F
100
AcDbEntity
  8
0
 48
0.15
100
AcDbLine
 10
-26.24424183528745
 20
66.10851355837403
 30
0.0
 11
-26.11924183528746
 21
66.10851355837403
 31
0.0
  0
LINE
  5
1E21
330
1F
100
AcDbEntity
  8
0
 48
0.15
100
AcDbLine
 10
-26.11924183528746
 20
66.10851355837403
 30
0.0
 11
-26.11924183528746
 21
64.94173345514681
 31
0.0
  0
LINE
  5
1E22
330
1F
100
AcDbEntity
  8
0
 48
0.15
100
AcDbLine
 10
-26.11924183528746
 20
64.94173345514681
 30
0.0
 11
-26.24424183528745
 21
64.94173345514681
 31
0.0
  0
LINE
  5
1E23
330
1F
100
AcDbEntity
  8
0
 48
0.15
100
AcDbLine
 10
-26.24424183528745
 20
64.94173345514681
 30
0.0
 11
-26.24424183528745
 21
64.69173345514682
 31
0.0
  0
LINE
  5
1E24
330
1F
100
AcDbEntity
  8
0
 48
0.15
100
AcDbLine
 10
-26.24424183528745
 20
64.69173345514682
 30
0.0
 11
-25.80951306171292
 21
64.25700468157183
 31
0.0
  0
LINE
  5
1E25
330
1F
100
AcDbEntity
  8
0
 48
0.15
100
AcDbLine
 10
-25.80951306171292
 20
64.25700468157183
 30
0.0
 11
-25.25358588129612
 21
64.25700468157183
 31
0.0
  0
LINE
  5
1E26
330
1F
100
AcDbEntity
  8
0
 48
0.15
100
AcDbLine
 10
-23.37478428813839
 20
64.69173345514682
 30
0.0
 11
-23.80951306171292
 21
64.25700468157183
 31
0.0
  0
LINE
  5
1E27
330
1F
100
AcDbEntity
  8
0
 48
0.15
100
AcDbLine
 10
-23.37478428813839
 20
64.69173345514682
 30
0.0
 11
-23.37478428813839
 21
66.1413982805453
 31
0.0
  0
LINE
  5
1E28
330
1F
100
AcDbEntity
  8
0
 48
0.15
100
AcDbLine
 10
-23.37478428813839
 20
66.1413982805453
 30
0.0
 11
-22.58197881552033
 21
66.1413982805453
 31
0.0
  0
LINE
  5
1E29
330
1F
100
AcDbEntity
  8
0
 48
0.15
100
AcDbLine
 10
-22.58197881552033
 20
66.1413982805453
 30
0.0
 11
-22.58197881551942
 21
68.35851355837402
 31
0.0
  0
LINE
  5
1E2A
330
1F
100
AcDbEntity
  8
0
 48
0.15
100
AcDbLine
 10
-25.25358588129521
 20
65.11750907326413
 30
0.0
 11
-25.25358588129521
 21
55.99040099456314
 31
0.0
  0
LINE
  5
1E2B
330
1F
100
AcDbEntity
  8
0
 48
0.15
100
AcDbLine
 10
-25.12858588129521
 20
65.11750907326413
 30
0.0
 11
-25.12858588129521
 21
55.99040099456314
 31
0.0
  0
LINE
  5
1E2C
330
1F
100
AcDbEntity
  8
0
 48
0.15
100
AcDbLine
 10
-25.12858588129521
 20
65.11750907326413
 30
0.0
 11
-25.25358588129521
 21
65.11750907326413
 31
0.0
  0
LINE
  5
1E2D
330
1F
100
AcDbEntity
  8
0
 48
0.15
100
AcDbLine
 10
-24.52365292365349
 20
65.11750907326413
 30
0.0
 11
-24.52365292365349
 21
55.99040099456314
 31
0.0
  0
LINE
  5
1E2E
330
1F
100
AcDbEntity
  8
0
 48
0.15
100
AcDbLine
 10
-24.39865292365349
 20
65.11750907326413
 30
0.0
 11
-24.39865292365349
 21
55.99040099456314
 31
0.0
  0
LINE
  5
1E2F
330
1F
100
AcDbEntity
  8
0
 48
0.15
100
AcDbLine
 10
-24.39865292365349
 20
65.11750907326413
 30
0.0
 11
-24.52365292365349
 21
65.11750907326413
 31
0.0
  0
LINE
  5
1E30
330
1F
100
AcDbEntity
  8
0
 48
0.15
100
AcDbLine
 10
-25.1285858812943
 20
64.25700468157183
 30
0.0
 11
-24.52365292365349
 21
64.25700468157183
 31
0.0
  0
LINE
  5
1E31
330
1F
100
AcDbEntity
  8
0
 48
0.15
100
AcDbLine
 10
-24.39865292365349
 20
64.25700468157183
 30
0.0
 11
-23.80951306171292
 21
64.25700468157183
 31
0.0
  0
LINE
  5
1E32
330
1F
100
AcDbEntity
  8
0
 48
0.15
100
AcDbLine
 10
-24.16336698025762
 20
64.95598680819885
 30
0.0
 11
-24.39865292365349
 21
64.95598680819885
 31
0.0
  0
LINE
  5
1E33
330
1F
100
AcDbEntity
  8
0
 48
0.15
100
AcDbLine
 10
-25.50103172441223
 20
64.95598680819885
 30
0.0
 11
-25.50103172441223
 21
65.43808120809908
 31
0.0
  0
LINE
  5
1E34
330
1F
100
AcDbEntity
  8
0
 48
0.15
100
AcDbLine
 10
-25.50103172441223
 20
65.43808120809908
 30
0.0
 11
-25.35485145555495
 21
65.43808120809908
 31
0.0
  0
LINE
  5
1E35
330
1F
100
AcDbEntity
  8
0
 48
0.15
100
AcDbLine
 10
-24.16336698025762
 20
64.95598680819885
 30
0.0
 11
-24.16336698025762
 21
65.43808120809908
 31
0.0
  0
LINE
  5
1E36
330
1F
100
AcDbEntity
  8
0
 48
0.15
100
AcDbLine
 10
-24.16336698025762
 20
65.43808120809908
 30
0.0
 11
-24.3095472491149
 21
65.43808120809908
 31
0.0
  0
ARC
  5
1E37
330
1F
100
AcDbEntity
  8
0
 48
0.15
100
AcDbCircle
 10
-24.83219935233492
 20
64.91542910487905
 30
0.0
 40
0.7391416927765827
100
AcDbArc
 50
45.0
 51
135.0
  0
LINE
  5
1E38
330
1F
100
AcDbEntity
  8
0
 48
0.15
100
AcDbLine
 10
-25.25358588129612
 20
64.95598680819885
 30
0.0
 11
-25.50103172441223
 21
64.95598680819885
 31
0.0
  0
LINE
  5
1E39
330
1F
100
AcDbEntity
  8
0
 48
0.15
100
AcDbLine
 10
-24.52365292365349
 20
64.95598680819885
 30
0.0
 11
-25.1285858812943
 21
64.95598680819885
 31
0.0
  0
MTEXT
  5
1E3A
330
1F
100
AcDbEntity
  8
DIM
 62
     3
100
AcDbMText
 10
-8.335943952883923
 20
56.26876725153724
 30
0.0
 40
1.0
 41
22.68954545454545
 71
     1
 72
     5
  1
WINDOW BY OTHERS
  7
RomanC
 73
     1
 44
1.0
1001
ACAD
1000
MTEXTBEGIN
1070
    73
1070
     1
1070
    44
1040
1.0
1070
    74
1070
     0
1000
MTEXTEND
  0
MTEXT
  5
1E3B
330
1F
100
AcDbEntity
  8
DIM
 62
     3
100
AcDbMText
 10
-8.335943952883923
 20
79.28871814055909
 30
0.0
 40
1.0
 41
22.68954545454545
 71
     1
 72
     5
  1
INTERIOR GYPSUM WALLBOARD FASTEN TO TIES
  7
RomanC
 73
     1
 44
1.0
1001
ACAD
1000
MTEXTBEGIN
1070
    73
1070
     1
1070
    44
1040
1.0
1070
    74
1070
     0
1000
MTEXTEND
  0
MTEXT
  5
1E3C
330
1F
100
AcDbEntity
  8
DIM
 62
     3
100
AcDbMText
 10
-8.335943952883923
 20
83.55434854691939
 30
0.0
 40
1.0
 41
22.68954545454545
 71
     1
 72
     5
  1
REINFORCEMENT PER ENGINEER
  7
RomanC
 73
     1
 44
1.0
1001
ACAD
1000
MTEXTBEGIN
1070
    73
1070
     1
1070
    44
1040
1.0
1070
    74
1070
     0
1000
MTEXTEND
  0
LEADER
  5
1E3D
330
1F
100
AcDbEntity
  8
DIM
 48
0.15
100
AcDbLeader
  3
ARCTEXT 1-1
 76
     2
 10
-17.27061742478864
 20
78.71772462033468
 30
0.0
 10
-9.091831439818548
 20
78.71772462033468
 30
0.0
1001
ACAD
1000
DSTYLE
1002
{
1070
    40
1040
1.0
1070
    41
1040
0.5
1070
    77
1070
     0
1002
}
  0
LEADER
  5
1E3E
330
1F
100
AcDbEntity
  8
DIM
 48
0.15
100
AcDbLeader
  3
ARCTEXT 1-1
 76
     3
 10
-22.54622649433068
 20
76.53174497584322
 30
0.0
 10
-15.9819963037352
 20
83.0959751664387
 30
0.0
 10
-9.293716997246434
 20
83.0959751664387
 30
0.0
1001
ACAD
1000
DSTYLE
1002
{
1070
    40
1040
1.0
1070
    41
1040
0.5
1070
    77
1070
     0
1002
}
  0
LINE
  5
1E3F
330
1F
100
AcDbEntity
  8
0
 48
0.15
100
AcDbLine
 10
-17.27061742478864
 20
67.85851355837448
 30
0.0
 11
-22.58197881552124
 21
67.85851355837448
 31
0.0
  0
MTEXT
  5
1E40
330
1F
100
AcDbEntity
  8
DIM
 62
     3
100
AcDbMText
 10
-8.335943952883923
 20
62.3336209565301
 30
0.0
 40
1.0
 41
22.68954545454545
 71
     1
 72
     5
  1
WINDOW ATTACHMENT PER MANUFACTURER
  7
RomanC
 73
     1
 44
1.0
1001
ACAD
1000
MTEXTBEGIN
1070
    73
1070
     1
1070
    44
1040
1.0
1070
    74
1070
     0
1000
MTEXTEND
  0
LEADER
  5
1E41
330
1F
100
AcDbEntity
  8
DIM
 48
0.15
100
AcDbLeader
  3
ARCTEXT 1-1
 76
     3
 10
-20.97838155182936
 20
67.60890214695663
 30
0.0
 10
-13.24609000385672
 20
61.72431665050234
 30
0.0
 10
-9.360035758945656
 20
61.72431665050234
 30
0.0
1001
ACAD
1000
DSTYLE
1002
{
1070
    40
1040
1.0
1070
    41
1040
0.5
1070
    77
1070
     0
1002
}
  0
LEADER
  5
1E42
330
1F
100
AcDbEntity
  8
DIM
 48
0.15
100
AcDbLeader
  3
ARCTEXT 1-1
 76
     3
 10
-24.3986529236544
 20
61.31349074615272
 30
0.0
 10
-13.3086016377637
 20
55.98445580828283
 30
0.0
 10
-9.183377034598294
 20
55.98445580828283
 30
0.0
1001
ACAD
1000
DSTYLE
1002
{
1070
    40
1040
1.0
1070
    41
1040
0.5
1070
    77
1070
     0
1002
}
  0
LINE
  5
1E43
330
1F
100
AcDbEntity
  8
A5 heavy
 48
0.15
100
AcDbLine
 10
-23.22838155182936
 20
66.1413982805453
 30
0.0
 11
-22.72838155182936
 21
66.1413982805453
 31
0.0
  0
LINE
  5
1E44
330
1F
100
AcDbEntity
  8
A5 heavy
 48
0.15
100
AcDbLine
 10
-22.97838155182936
 20
66.1413982805453
 30
0.0
 11
-22.97838155182936
 21
70.18179875139239
 31
0.0
  0
LINE
  5
1E45
330
1F
100
AcDbEntity
  8
0
 62
     1
100
AcDbLine
 10
-29.22061742478846
 20
68.35848961737892
 30
0.0
 11
-26.59561742478846
 21
68.35848961737892
 31
0.0
  0
LINE
  5
1E46
330
1F
100
AcDbEntity
  8
0
 62
     1
100
AcDbLine
 10
-29.22061742478846
 20
68.35848961737892
 30
0.0
 11
-27.04561742478828
 21
68.35848961737892
 31
0.0
  0
LINE
  5
1E47
330
1F
100
AcDbEntity
  8
0
 62
     1
100
AcDbLine
 10
-26.79561742478919
 20
68.35848961737892
 30
0.0
 11
-26.59561742478937
 21
68.35848961737892
 31
0.0
  0
LINE
  5
1E48
330
1F
100
AcDbEntity
  8
0
 48
0.15
100
AcDbLine
 10
-28.2456174247881
 20
68.35848961737892
 30
0.0
 11
-27.22061742478846
 21
68.35848961737892
 31
0.0
  0
LINE
  5
1E49
330
1F
100
AcDbEntity
  8
0
 62
     1
100
AcDbLine
 10
-27.17061742478828
 20
68.35848961737892
 30
0.0
 11
-28.29561742478919
 21
68.35848961737892
 31
0.0
  0
LINE
  5
1E4A
330
1F
100
AcDbEntity
  8
0
 62
     1
100
AcDbLine
 10
-29.22061742478846
 20
68.3585015878767
 30
0.0
 11
-27.04561742478828
 21
68.3585015878767
 31
0.0
  0
LINE
  5
1E4B
330
1F
100
AcDbEntity
  8
0
 62
     1
100
AcDbLine
 10
-28.8706174247881
 20
68.8585015878767
 30
0.0
 11
-28.2456174247881
 21
68.8585015878767
 31
0.0
  0
LINE
  5
1E4C
330
1F
100
AcDbEntity
  8
0
 62
     1
100
AcDbLine
 10
-27.22061742478846
 20
68.8585015878767
 30
0.0
 11
-27.22061742478937
 21
68.3585015878767
 31
0.0
  0
LINE
  5
1E4D
330
1F
100
AcDbEntity
  8
0
 62
     1
100
AcDbLine
 10
-28.2456174247881
 20
68.8585015878767
 30
0.0
 11
-28.2456174247881
 21
68.3585015878767
 31
0.0
  0
LINE
  5
1E4E
330
1F
100
AcDbEntity
  8
0
 62
     1
100
AcDbLine
 10
-27.22061742478937
 20
68.8585015878767
 30
0.0
 11
-26.59561742478937
 21
68.8585015878767
 31
0.0
  0
LINE
  5
1E4F
330
1F
100
AcDbEntity
  8
0
 62
     1
100
AcDbLine
 10
-27.04561742478919
 20
68.6085015878767
 30
0.0
 11
-27.04561742478919
 21
68.3585015878767
 31
0.0
  0
LINE
  5
1E50
330
1F
100
AcDbEntity
  8
0
 62
     1
100
AcDbLine
 10
-27.04561742478919
 20
68.6085015878767
 30
0.0
 11
-26.79561742478919
 21
68.6085015878767
 31
0.0
  0
LINE
  5
1E51
330
1F
100
AcDbEntity
  8
0
 62
     1
100
AcDbLine
 10
-26.79561742478919
 20
68.3585015878767
 30
0.0
 11
-26.59561742478937
 21
68.3585015878767
 31
0.0
  0
LINE
  5
1E52
330
1F
100
AcDbEntity
  8
0
 48
0.15
100
AcDbLine
 10
-28.2456174247881
 20
68.3585015878767
 30
0.0
 11
-27.22061742478846
 21
68.3585015878767
 31
0.0
  0
LINE
  5
1E53
330
1F
100
AcDbEntity
  8
0
 62
     1
100
AcDbLine
 10
-27.17061742478828
 20
68.3585015878767
 30
0.0
 11
-28.29561742478919
 21
68.3585015878767
 31
0.0
  0
LINE
  5
1E54
330
1F
100
AcDbEntity
  8
0
 62
     1
100
AcDbLine
 10
-18.12061742478809
 20
68.8585015878767
 30
0.0
 11
-18.12061742478809
 21
68.3585015878767
 31
0.0
  0
LINE
  5
1E55
330
1F
100
AcDbEntity
  8
0
 62
     1
100
AcDbLine
 10
-19.77061742478955
 20
68.8585015878767
 30
0.0
 11
-19.77061742478955
 21
68.3585015878767
 31
0.0
  0
LINE
  5
1E56
330
1F
100
AcDbEntity
  8
0
 62
     1
100
AcDbLine
 10
-18.74561742478809
 20
68.8585015878767
 30
0.0
 11
-18.74561742478809
 21
68.3585015878767
 31
0.0
  0
LINE
  5
1E57
330
1F
100
AcDbEntity
  8
0
 62
     1
100
AcDbLine
 10
-20.39561742478955
 20
68.8585015878767
 30
0.0
 11
-19.77061742478955
 21
68.8585015878767
 31
0.0
  0
LINE
  5
1E58
330
1F
100
AcDbEntity
  8
0
 62
     1
100
AcDbLine
 10
-18.74561742478809
 20
68.8585015878767
 30
0.0
 11
-18.12061742478809
 21
68.8585015878767
 31
0.0
  0
LINE
  5
1E59
330
1F
100
AcDbEntity
  8
0
 62
     1
100
AcDbLine
 10
-19.94561742478882
 20
68.6085015878767
 30
0.0
 11
-19.94561742478882
 21
68.3585015878767
 31
0.0
  0
LINE
  5
1E5A
330
1F
100
AcDbEntity
  8
0
 62
     1
100
AcDbLine
 10
-20.19561742478882
 20
68.6085015878767
 30
0.0
 11
-19.94561742478882
 21
68.6085015878767
 31
0.0
  0
LINE
  5
1E5B
330
1F
100
AcDbEntity
  8
0
 62
     1
100
AcDbLine
 10
-19.98061742478867
 20
68.3585015878767
 30
0.0
 11
-17.77061742478864
 21
68.3585015878767
 31
0.0
  0
LINE
  5
1E5C
330
1F
100
AcDbEntity
  8
0
 62
     1
100
AcDbLine
 10
-20.39561742478955
 20
68.3585015878767
 30
0.0
 11
-20.19561742478882
 21
68.3585015878767
 31
0.0
  0
LINE
  5
1E5D
330
1F
100
AcDbEntity
  8
0
 62
     1
100
AcDbLine
 10
-29.22061742478846
 20
68.3585015878767
 30
0.0
 11
-26.59561742478846
 21
68.3585015878767
 31
0.0
  0
LINE
  5
1E5E
330
1F
100
AcDbEntity
  8
0
 62
     1
100
AcDbLine
 10
-26.59561742478846
 20
68.8585015878767
 30
0.0
 11
-26.59561742478846
 21
68.3585015878767
 31
0.0
  0
LINE
  5
1E5F
330
1F
100
AcDbEntity
  8
0
  6
HIDDEN
 62
     1
 48
0.02
100
AcDbLine
 10
-28.8706174247881
 20
68.8585015878767
 30
0.0
 11
-28.2456174247881
 21
68.8585015878767
 31
0.0
  0
LINE
  5
1E60
330
1F
100
AcDbEntity
  8
0
  6
HIDDEN
 62
     1
 48
0.02
100
AcDbLine
 10
-28.8706174247881
 20
68.8585015878767
 30
0.0
 11
-28.8706174247881
 21
68.3585015878767
 31
0.0
  0
LINE
  5
1E61
330
1F
100
AcDbEntity
  8
0
  6
HIDDEN
 62
     1
 48
0.02
100
AcDbLine
 10
-27.22061742478846
 20
68.8585015878767
 30
0.0
 11
-27.22061742478937
 21
68.3585015878767
 31
0.0
  0
LINE
  5
1E62
330
1F
100
AcDbEntity
  8
0
  6
HIDDEN
 62
     1
 48
0.02
100
AcDbLine
 10
-28.2456174247881
 20
68.8585015878767
 30
0.0
 11
-28.2456174247881
 21
68.3585015878767
 31
0.0
  0
LINE
  5
1E63
330
1F
100
AcDbEntity
  8
0
  6
HIDDEN
 62
     1
 48
0.02
100
AcDbLine
 10
-27.22061742478937
 20
68.8585015878767
 30
0.0
 11
-26.59561742478937
 21
68.8585015878767
 31
0.0
  0
LINE
  5
1E64
330
1F
100
AcDbEntity
  8
0
 62
     1
100
AcDbLine
 10
-20.39561742478773
 20
68.3585015878767
 30
0.0
 11
-17.77061742478864
 21
68.3585015878767
 31
0.0
  0
LINE
  5
1E65
330
1F
100
AcDbEntity
  8
0
 62
     1
100
AcDbLine
 10
-20.39561742478773
 20
68.8585015878767
 30
0.0
 11
-20.39561742478773
 21
68.3585015878767
 31
0.0
  0
LINE
  5
1E66
330
1F
100
AcDbEntity
  8
0
  6
HIDDEN
 62
     1
 48
0.02
100
AcDbLine
 10
-18.12061742478627
 20
68.8585015878767
 30
0.0
 11
-18.12061742478627
 21
68.3585015878767
 31
0.0
  0
LINE
  5
1E67
330
1F
100
AcDbEntity
  8
0
  6
HIDDEN
 62
     1
 48
0.02
100
AcDbLine
 10
-19.77061742478773
 20
68.8585015878767
 30
0.0
 11
-19.77061742478773
 21
68.3585015878767
 31
0.0
  0
LINE
  5
1E68
330
1F
100
AcDbEntity
  8
0
  6
HIDDEN
 62
     1
 48
0.02
100
AcDbLine
 10
-18.74561742478627
 20
68.8585015878767
 30
0.0
 11
-18.74561742478627
 21
68.3585015878767
 31
0.0
  0
LINE
  5
1E69
330
1F
100
AcDbEntity
  8
0
  6
HIDDEN
 62
     1
 48
0.02
100
AcDbLine
 10
-20.39561742478773
 20
68.8585015878767
 30
0.0
 11
-19.77061742478773
 21
68.8585015878767
 31
0.0
  0
LINE
  5
1E6A
330
1F
100
AcDbEntity
  8
0
  6
HIDDEN
 62
     1
 48
0.02
100
AcDbLine
 10
-18.74561742478627
 20
68.8585015878767
 30
0.0
 11
-18.12061742478627
 21
68.8585015878767
 31
0.0
  0
LINE
  5
1E6B
330
1F
100
AcDbEntity
  8
0
  6
HIDDEN
 62
     1
 48
0.02
100
AcDbLine
 10
-20.195617424787
 20
68.6085015878767
 30
0.0
 11
-20.195617424787
 21
68.3585015878767
 31
0.0
  0
LINE
  5
1E6C
330
1F
100
AcDbEntity
  8
0
  6
HIDDEN
 62
     1
 48
0.02
100
AcDbLine
 10
-19.945617424787
 20
68.6085015878767
 30
0.0
 11
-19.945617424787
 21
68.3585015878767
 31
0.0
  0
LINE
  5
1E6D
330
1F
100
AcDbEntity
  8
0
  6
HIDDEN
 62
     1
 48
0.02
100
AcDbLine
 10
-20.195617424787
 20
68.6085015878767
 30
0.0
 11
-19.945617424787
 21
68.6085015878767
 31
0.0
  0
LINE
  5
1E6E
330
1F
100
AcDbEntity
  8
0
 62
     1
100
AcDbLine
 10
-29.22061742478846
 20
80.35848961737892
 30
0.0
 11
-26.59561742478846
 21
80.35848961737892
 31
0.0
  0
LINE
  5
1E6F
330
1F
100
AcDbEntity
  8
0
 62
     1
100
AcDbLine
 10
-29.22061742478846
 20
80.35848961737892
 30
0.0
 11
-27.04561742478828
 21
80.35848961737892
 31
0.0
  0
LINE
  5
1E70
330
1F
100
AcDbEntity
  8
0
 62
     1
100
AcDbLine
 10
-26.79561742478919
 20
80.35848961737892
 30
0.0
 11
-26.59561742478937
 21
80.35848961737892
 31
0.0
  0
LINE
  5
1E71
330
1F
100
AcDbEntity
  8
0
 48
0.15
100
AcDbLine
 10
-28.2456174247881
 20
80.35848961737892
 30
0.0
 11
-27.22061742478846
 21
80.35848961737892
 31
0.0
  0
LINE
  5
1E72
330
1F
100
AcDbEntity
  8
0
 62
     1
100
AcDbLine
 10
-27.17061742478828
 20
80.35848961737892
 30
0.0
 11
-28.29561742478919
 21
80.35848961737892
 31
0.0
  0
LINE
  5
1E73
330
1F
100
AcDbEntity
  8
0
 62
     1
100
AcDbLine
 10
-29.22061742478846
 20
80.3585015878767
 30
0.0
 11
-29.22061742478846
 21
68.3585015878767
 31
0.0
  0
LINE
  5
1E74
330
1F
100
AcDbEntity
  8
0
 62
     1
100
AcDbLine
 10
-29.22061742478846
 20
80.3585015878767
 30
0.0
 11
-27.04561742478828
 21
80.3585015878767
 31
0.0
  0
LINE
  5
1E75
330
1F
100
AcDbEntity
  8
0
 62
     1
100
AcDbLine
 10
-26.59561742478846
 20
80.85850158787669
 30
0.0
 11
-26.59561742478846
 21
68.3585015878767
 31
0.0
  0
LINE
  5
1E76
330
1F
100
AcDbEntity
  8
0
 62
     1
100
AcDbLine
 10
-28.8706174247881
 20
80.85850158787669
 30
0.0
 11
-28.2456174247881
 21
80.85850158787669
 31
0.0
  0
LINE
  5
1E77
330
1F
100
AcDbEntity
  8
0
 62
     1
100
AcDbLine
 10
-28.8706174247881
 20
80.85850158787669
 30
0.0
 11
-28.8706174247881
 21
68.3585015878767
 31
0.0
  0
LINE
  5
1E78
330
1F
100
AcDbEntity
  8
0
 62
     1
100
AcDbLine
 10
-27.22061742478846
 20
80.85850158787669
 30
0.0
 11
-27.22061742478937
 21
80.3585015878767
 31
0.0
  0
LINE
  5
1E79
330
1F
100
AcDbEntity
  8
0
 62
     1
100
AcDbLine
 10
-28.2456174247881
 20
80.85850158787669
 30
0.0
 11
-28.2456174247881
 21
80.3585015878767
 31
0.0
  0
LINE
  5
1E7A
330
1F
100
AcDbEntity
  8
0
 62
     1
100
AcDbLine
 10
-27.22061742478937
 20
80.85850158787669
 30
0.0
 11
-26.59561742478937
 21
80.85850158787669
 31
0.0
  0
LINE
  5
1E7B
330
1F
100
AcDbEntity
  8
0
 62
     1
100
AcDbLine
 10
-26.79561742478919
 20
80.60850158787671
 30
0.0
 11
-26.79561742478919
 21
68.3585015878767
 31
0.0
  0
LINE
  5
1E7C
330
1F
100
AcDbEntity
  8
0
 62
     1
100
AcDbLine
 10
-27.04561742478919
 20
80.60850158787671
 30
0.0
 11
-27.04561742478919
 21
80.3585015878767
 31
0.0
  0
LINE
  5
1E7D
330
1F
100
AcDbEntity
  8
0
 62
     1
100
AcDbLine
 10
-27.04561742478919
 20
80.60850158787671
 30
0.0
 11
-26.79561742478919
 21
80.60850158787671
 31
0.0
  0
LINE
  5
1E7E
330
1F
100
AcDbEntity
  8
0
 62
     1
100
AcDbLine
 10
-26.79561742478919
 20
80.3585015878767
 30
0.0
 11
-26.59561742478937
 21
80.3585015878767
 31
0.0
  0
LINE
  5
1E7F
330
1F
100
AcDbEntity
  8
0
 48
0.15
100
AcDbLine
 10
-28.2456174247881
 20
80.3585015878767
 30
0.0
 11
-27.22061742478846
 21
80.3585015878767
 31
0.0
  0
LINE
  5
1E80
330
1F
100
AcDbEntity
  8
A2 Hatch
  6
DASHED2
 48
0.15
100
AcDbLine
 10
-28.45561742478904
 20
80.85850158787669
 30
0.0
 11
-28.45561742478904
 21
68.3585015878767
 31
0.0
  0
LINE
  5
1E81
330
1F
100
AcDbEntity
  8
A2 Hatch
  6
DASHED2
 48
0.15
100
AcDbLine
 10
-27.01061742478933
 20
80.85850158787669
 30
0.0
 11
-27.01061742478842
 21
68.3585015878767
 31
0.0
  0
LINE
  5
1E82
330
1F
100
AcDbEntity
  8
0
 62
     1
100
AcDbLine
 10
-28.29561742478828
 20
80.85850158787669
 30
0.0
 11
-28.29561742478828
 21
68.3585015878767
 31
0.0
  0
LINE
  5
1E83
330
1F
100
AcDbEntity
  8
0
 62
     1
100
AcDbLine
 10
-27.17061742478828
 20
80.85850158787669
 30
0.0
 11
-27.17061742478828
 21
68.3585015878767
 31
0.0
  0
LINE
  5
1E84
330
1F
100
AcDbEntity
  8
0
 62
     1
100
AcDbLine
 10
-27.17061742478828
 20
80.3585015878767
 30
0.0
 11
-28.29561742478919
 21
80.3585015878767
 31
0.0
  0
ARC
  5
1E85
330
1F
100
AcDbEntity
  8
DETAILS
 62
     6
370
    20
100
AcDbCircle
 10
-26.59561742478755
 20
72.52177980972883
 30
0.0
 40
0.0999999999999136
100
AcDbArc
 50
179.9999999996873
 51
209.7448812965932
  0
LINE
  5
1E86
330
1F
100
AcDbEntity
  8
DETAILS
 62
     6
370
    20
100
AcDbLine
 10
-26.69561742478882
 20
74.6085015878767
 30
0.0
 11
-20.2956174247901
 21
74.6085015878767
 31
0.0
  0
LINE
  5
1E87
330
1F
100
AcDbEntity
  8
0
 62
     1
100
AcDbLine
 10
-17.77061742478864
 20
80.3585015878767
 30
0.0
 11
-17.77061742478864
 21
68.3585015878767
 31
0.0
  0
LINE
  5
1E88
330
1F
100
AcDbEntity
  8
0
 62
     1
100
AcDbLine
 10
-20.39561742478955
 20
80.85850158787669
 30
0.0
 11
-20.39561742478864
 21
68.3585015878767
 31
0.0
  0
LINE
  5
1E89
330
1F
100
AcDbEntity
  8
0
 62
     1
100
AcDbLine
 10
-18.12061742478809
 20
80.85850158787669
 30
0.0
 11
-18.12061742478809
 21
80.3585015878767
 31
0.0
  0
LINE
  5
1E8A
330
1F
100
AcDbEntity
  8
0
 62
     1
100
AcDbLine
 10
-19.77061742478955
 20
80.85850158787669
 30
0.0
 11
-19.77061742478955
 21
80.3585015878767
 31
0.0
  0
LINE
  5
1E8B
330
1F
100
AcDbEntity
  8
0
 62
     1
100
AcDbLine
 10
-18.74561742478809
 20
80.85850158787669
 30
0.0
 11
-18.74561742478809
 21
80.3585015878767
 31
0.0
  0
LINE
  5
1E8C
330
1F
100
AcDbEntity
  8
0
 62
     1
100
AcDbLine
 10
-20.39561742478955
 20
80.85850158787669
 30
0.0
 11
-19.77061742478955
 21
80.85850158787669
 31
0.0
  0
LINE
  5
1E8D
330
1F
100
AcDbEntity
  8
0
 62
     1
100
AcDbLine
 10
-18.74561742478809
 20
80.85850158787669
 30
0.0
 11
-18.12061742478809
 21
80.85850158787669
 31
0.0
  0
LINE
  5
1E8E
330
1F
100
AcDbEntity
  8
0
 62
     1
100
AcDbLine
 10
-20.19561742478882
 20
80.60850158787671
 30
0.0
 11
-20.19561742478882
 21
68.3585015878767
 31
0.0
  0
LINE
  5
1E8F
330
1F
100
AcDbEntity
  8
0
 62
     1
100
AcDbLine
 10
-19.94561742478882
 20
80.60850158787671
 30
0.0
 11
-19.94561742478882
 21
80.3585015878767
 31
0.0
  0
LINE
  5
1E90
330
1F
100
AcDbEntity
  8
0
 62
     1
100
AcDbLine
 10
-20.19561742478882
 20
80.60850158787671
 30
0.0
 11
-19.94561742478882
 21
80.60850158787671
 31
0.0
  0
LINE
  5
1E91
330
1F
100
AcDbEntity
  8
0
 62
     1
100
AcDbLine
 10
-19.98061742478867
 20
80.3585015878767
 30
0.0
 11
-17.77061742478864
 21
80.3585015878767
 31
0.0
  0
LINE
  5
1E92
330
1F
100
AcDbEntity
  8
0
 62
     1
100
AcDbLine
 10
-19.98061742478867
 20
80.3585015878767
 30
0.0
 11
-19.98061742478867
 21
68.3585015878767
 31
0.0
  0
LINE
  5
1E93
330
1F
100
AcDbEntity
  8
0
 62
     1
100
AcDbLine
 10
-18.53561742478897
 20
80.3585015878767
 30
0.0
 11
-18.53561742478897
 21
68.3585015878767
 31
0.0
  0
LINE
  5
1E94
330
1F
100
AcDbEntity
  8
A2 Hatch
  6
DASHED2
 48
0.15
100
AcDbLine
 10
-19.82061742478882
 20
80.3585015878767
 30
0.0
 11
-19.82061742478882
 21
68.3585015878767
 31
0.0
  0
LINE
  5
1E95
330
1F
100
AcDbEntity
  8
A2 Hatch
  6
DASHED2
 48
0.15
100
AcDbLine
 10
-18.69561742478882
 20
80.3585015878767
 30
0.0
 11
-18.69561742478882
 21
68.3585015878767
 31
0.0
  0
LINE
  5
1E96
330
1F
100
AcDbEntity
  8
0
 62
     1
100
AcDbLine
 10
-20.39561742478955
 20
80.3585015878767
 30
0.0
 11
-20.19561742478882
 21
80.3585015878767
 31
0.0
  0
LINE
  5
1E97
330
1F
100
AcDbEntity
  8
DETAILS
 62
     6
370
    20
100
AcDbLine
 10
-26.69561742478791
 20
79.9835015878767
 30
0.0
 11
-26.69561742478882
 21
69.28575529650252
 31
0.0
  0
LINE
  5
1E98
330
1F
100
AcDbEntity
  8
DETAILS
 62
     6
370
    20
100
AcDbLine
 10
-26.02061742478773
 20
75.22850158787659
 30
0.0
 11
-25.5012353008805
 21
75.22850158787659
 31
0.0
  0
ARC
  5
1E99
330
1F
100
AcDbEntity
  8
DETAILS
 62
     6
370
    20
100
AcDbCircle
 10
-25.50123530088141
 20
75.37850158787668
 30
0.0
 40
0.1500000000000909
100
AcDbArc
 50
270.0000000001563
 51
43.83086067193248
  0
LINE
  5
1E9A
330
1F
100
AcDbEntity
  8
DETAILS
 62
     6
370
    20
100
AcDbLine
 10
-25.39302720272545
 20
75.48238136210475
 30
0.0
 11
-25.91240932663178
 21
76.02340440784118
 31
0.0
  0
ARC
  5
1E9B
330
1F
100
AcDbEntity
  8
DETAILS
 62
     6
370
    20
100
AcDbCircle
 10
-26.02061742478682
 20
75.91952463361266
 30
0.0
 40
0.1499999999999651
100
AcDbArc
 50
43.83086067209848
 51
179.9999999999739
  0
LINE
  5
1E9C
330
1F
100
AcDbEntity
  8
DETAILS
 62
     6
370
    20
100
AcDbLine
 10
-26.17061742478737
 20
75.91952463361266
 30
0.0
 11
-26.17061742478737
 21
75.37850158787623
 31
0.0
  0
ARC
  5
1E9D
330
1F
100
AcDbEntity
  8
DETAILS
 62
     6
370
    20
100
AcDbCircle
 10
-26.02061742478773
 20
75.37850158787623
 30
0.0
 40
0.1499999999996362
100
AcDbArc
 50
179.9999999999479
 51
270.0000000001563
  0
LINE
  5
1E9E
330
1F
100
AcDbEntity
  8
DETAILS
 62
     6
370
    20
100
AcDbLine
 10
-26.17061742478737
 20
73.8585015878767
 30
0.0
 11
-26.17061742478737
 21
73.31747854214026
 31
0.0
  0
ARC
  5
1E9F
330
1F
100
AcDbEntity
  8
DETAILS
 62
     6
370
    20
100
AcDbCircle
 10
-26.02061742478682
 20
73.31747854214026
 30
0.0
 40
0.1500000000000909
100
AcDbArc
 50
180.000000000026
 51
316.1691393279015
  0
LINE
  5
1EA0
330
1F
100
AcDbEntity
  8
DETAILS
 62
     6
370
    20
100
AcDbLine
 10
-25.91240932663178
 20
73.2135987679122
 30
0.0
 11
-25.39302720272545
 21
73.75462181364818
 31
0.0
  0
ARC
  5
1EA1
330
1F
100
AcDbEntity
  8
DETAILS
 62
     6
370
    20
100
AcDbCircle
 10
-25.50123530088141
 20
73.8585015878767
 30
0.0
 40
0.1500000000001751
100
AcDbArc
 50
316.1691393280675
 51
89.99999999984366
  0
LINE
  5
1EA2
330
1F
100
AcDbEntity
  8
DETAILS
 62
     6
370
    20
100
AcDbLine
 10
-25.5012353008805
 20
74.00850158787633
 30
0.0
 11
-26.02061742478773
 21
74.00850158787633
 31
0.0
  0
ARC
  5
1EA3
330
1F
100
AcDbEntity
  8
DETAILS
 62
     6
370
    20
100
AcDbCircle
 10
-26.02061742478773
 20
73.8585015878767
 30
0.0
 40
0.1499999999998636
100
AcDbArc
 50
89.99999999984366
 51
180.0000000000521
  0
LINE
  5
1EA4
330
1F
100
AcDbEntity
  8
DETAILS
 62
     6
370
    20
100
AcDbLine
 10
-26.02061742478773
 20
75.27850158787678
 30
0.0
 11
-25.5012353008805
 21
75.27850158787678
 31
0.0
  0
ARC
  5
1EA5
330
1F
100
AcDbEntity
  8
DETAILS
 62
     6
370
    20
100
AcDbCircle
 10
-25.5012353008805
 20
75.37850158787623
 30
0.0
 40
0.1000000000000227
100
AcDbArc
 50
270.0
 51
43.83086067200606
  0
LINE
  5
1EA6
330
1F
100
AcDbEntity
  8
DETAILS
 62
     6
370
    20
100
AcDbLine
 10
-25.42909656877683
 20
75.44775477069524
 30
0.0
 11
-25.94847869268316
 21
75.98877781643167
 31
0.0
  0
ARC
  5
1EA7
330
1F
100
AcDbEntity
  8
DETAILS
 62
     6
370
    20
100
AcDbCircle
 10
-26.02061742478682
 20
75.91952463361266
 30
0.0
 40
0.1000000000001123
100
AcDbArc
 50
43.8308606720609
 51
180.0
  0
LINE
  5
1EA8
330
1F
100
AcDbEntity
  8
DETAILS
 62
     6
370
    20
100
AcDbLine
 10
-26.12061742478628
 20
75.91952463361266
 30
0.0
 11
-26.12061742478719
 21
75.37850158787623
 31
0.0
  0
ARC
  5
1EA9
330
1F
100
AcDbEntity
  8
DETAILS
 62
     6
370
    20
100
AcDbCircle
 10
-26.02061742478682
 20
75.37850158787668
 30
0.0
 40
0.1000000000003638
100
AcDbArc
 50
180.0000000001302
 51
269.9999999997394
  0
LINE
  5
1EAA
330
1F
100
AcDbEntity
  8
DETAILS
 62
     6
370
    20
100
AcDbLine
 10
-26.12061742478719
 20
73.8585015878767
 30
0.0
 11
-26.12061742478628
 21
73.31747854214026
 31
0.0
  0
ARC
  5
1EAB
330
1F
100
AcDbEntity
  8
DETAILS
 62
     6
370
    20
100
AcDbCircle
 10
-26.02061742478682
 20
73.31747854214026
 30
0.0
 40
0.0999999999999091
100
AcDbArc
 50
179.9999999999739
 51
316.1691393279939
  0
LINE
  5
1EAC
330
1F
100
AcDbEntity
  8
DETAILS
 62
     6
370
    20
100
AcDbLine
 10
-25.94847869268316
 20
73.2482253593217
 30
0.0
 11
-25.42909656877683
 21
73.78924840505769
 31
0.0
  0
ARC
  5
1EAD
330
1F
100
AcDbEntity
  8
DETAILS
 62
     6
370
    20
100
AcDbCircle
 10
-25.5012353008805
 20
73.8585015878767
 30
0.0
 40
0.1000000000000336
100
AcDbArc
 50
316.1691393279939
 51
90.0
  0
LINE
  5
1EAE
330
1F
100
AcDbEntity
  8
DETAILS
 62
     6
370
    20
100
AcDbLine
 10
-25.5012353008805
 20
73.95850158787661
 30
0.0
 11
-26.02061742478773
 21
73.95850158787661
 31
0.0
  0
ARC
  5
1EAF
330
1F
100
AcDbEntity
  8
DETAILS
 62
     6
370
    20
100
AcDbCircle
 10
-26.02061742478682
 20
73.85850158787625
 30
0.0
 40
0.1000000000001364
100
AcDbArc
 50
90.00000000026055
 51
179.9999999998697
  0
LINE
  5
1EB0
330
1F
100
AcDbEntity
  8
DETAILS
 62
     6
370
    20
100
AcDbLine
 10
-20.2956174247901
 20
79.9835015878767
 30
0.0
 11
-20.29561742478918
 21
69.28575529650252
 31
0.0
  0
LINE
  5
1EB1
330
1F
100
AcDbEntity
  8
DETAILS
 62
     6
370
    20
100
AcDbLine
 10
-20.82061742479064
 20
75.37850158787623
 30
0.0
 11
-20.82061742479064
 21
75.91952463361266
 31
0.0
  0
ARC
  5
1EB2
330
1F
100
AcDbEntity
  8
DETAILS
 62
     6
370
    20
100
AcDbCircle
 10
-20.97061742479119
 20
75.91952463361266
 30
0.0
 40
0.1500000000000909
100
AcDbArc
 50
0.0000000000260551
 51
136.1691393279015
  0
LINE
  5
1EB3
330
1F
100
AcDbEntity
  8
DETAILS
 62
     6
370
    20
100
AcDbLine
 10
-21.07882552294623
 20
76.02340440784118
 30
0.0
 11
-21.59820764685256
 21
75.48238136210475
 31
0.0
  0
ARC
  5
1EB4
330
1F
100
AcDbEntity
  8
DETAILS
 62
     6
370
    20
100
AcDbCircle
 10
-21.4899995486966
 20
75.37850158787668
 30
0.0
 40
0.1500000000001751
100
AcDbArc
 50
136.1691393280675
 51
269.9999999998437
  0
LINE
  5
1EB5
330
1F
100
AcDbEntity
  8
DETAILS
 62
     6
370
    20
100
AcDbLine
 10
-21.48999954869751
 20
75.22850158787659
 30
0.0
 11
-20.97061742479028
 21
75.22850158787659
 31
0.0
  0
ARC
  5
1EB6
330
1F
100
AcDbEntity
  8
DETAILS
 62
     6
370
    20
100
AcDbCircle
 10
-20.97061742479028
 20
75.37850158787623
 30
0.0
 40
0.1499999999998067
100
AcDbArc
 50
269.9999999998437
 51
0.0000000000781653
  0
LINE
  5
1EB7
330
1F
100
AcDbEntity
  8
DETAILS
 62
     6
370
    20
100
AcDbLine
 10
-20.97061742479028
 20
74.00850158787633
 30
0.0
 11
-21.48999954869751
 21
74.00850158787633
 31
0.0
  0
ARC
  5
1EB8
330
1F
100
AcDbEntity
  8
DETAILS
 62
     6
370
    20
100
AcDbCircle
 10
-21.4899995486966
 20
73.8585015878767
 30
0.0
 40
0.1500000000001478
100
AcDbArc
 50
90.00000000015633
 51
223.8308606719325
  0
LINE
  5
1EB9
330
1F
100
AcDbEntity
  8
DETAILS
 62
     6
370
    20
100
AcDbLine
 10
-21.59820764685256
 20
73.75462181364818
 30
0.0
 11
-21.07882552294623
 21
73.2135987679122
 31
0.0
  0
ARC
  5
1EBA
330
1F
100
AcDbEntity
  8
DETAILS
 62
     6
370
    20
100
AcDbCircle
 10
-20.97061742479119
 20
73.31747854214026
 30
0.0
 40
0.1499999999999651
100
AcDbArc
 50
223.8308606720985
 51
359.999999999974
  0
LINE
  5
1EBB
330
1F
100
AcDbEntity
  8
DETAILS
 62
     6
370
    20
100
AcDbLine
 10
-20.82061742479064
 20
73.31747854214026
 30
0.0
 11
-20.82061742479064
 21
73.8585015878767
 31
0.0
  0
ARC
  5
1EBC
330
1F
100
AcDbEntity
  8
DETAILS
 62
     6
370
    20
100
AcDbCircle
 10
-20.97061742479028
 20
73.8585015878767
 30
0.0
 40
0.1499999999996362
100
AcDbArc
 50
359.9999999999218
 51
90.00000000015633
  0
ARC
  5
1EBD
330
1F
100
AcDbEntity
  8
DETAILS
 62
     6
370
    20
100
AcDbCircle
 10
-25.02070832705332
 20
73.1035015878766
 30
0.0
 40
0.010000000000022
100
AcDbArc
 50
97.40989078445366
 51
262.5901092155463
  0
LINE
  5
1EBE
330
1F
100
AcDbEntity
  8
DETAILS
 62
     6
370
    20
100
AcDbLine
 10
-25.02199799488963
 20
73.09358509873582
 30
0.0
 11
-24.86588790528632
 21
73.0785015878765
 31
0.0
  0
LINE
  5
1EBF
330
1F
100
AcDbEntity
  8
DETAILS
 62
     6
370
    20
100
AcDbLine
 10
-24.86588790528632
 20
73.0785015878765
 30
0.0
 11
-23.49561742478901
 21
73.0785015878765
 31
0.0
  0
LINE
  5
1EC0
330
1F
100
AcDbEntity
  8
DETAILS
 62
     6
370
    20
100
AcDbLine
 10
-23.49561742478901
 20
73.0785015878765
 30
0.0
 11
-22.12534694429169
 21
73.0785015878765
 31
0.0
  0
LINE
  5
1EC1
330
1F
100
AcDbEntity
  8
DETAILS
 62
     6
370
    20
100
AcDbLine
 10
-22.12534694429169
 20
73.0785015878765
 30
0.0
 11
-21.96923685468838
 21
73.09358509873582
 31
0.0
  0
ARC
  5
1EC2
330
1F
100
AcDbEntity
  8
DETAILS
 62
     6
370
    20
100
AcDbCircle
 10
-21.9705265225247
 20
73.1035015878766
 30
0.0
 40
0.0099999999999656
100
AcDbArc
 50
277.4098907844536
 51
82.59010921554635
  0
LINE
  5
1EC3
330
1F
100
AcDbEntity
  8
DETAILS
 62
     6
370
    20
100
AcDbLine
 10
-21.96923685468838
 20
73.11341807701691
 30
0.0
 11
-22.12534694429078
 21
73.12850158787668
 31
0.0
  0
LINE
  5
1EC4
330
1F
100
AcDbEntity
  8
DETAILS
 62
     6
370
    20
100
AcDbLine
 10
-22.12534694429078
 20
73.12850158787668
 30
0.0
 11
-23.49561742478901
 21
73.12850158787668
 31
0.0
  0
LINE
  5
1EC5
330
1F
100
AcDbEntity
  8
DETAILS
 62
     6
370
    20
100
AcDbLine
 10
-23.49561742478901
 20
73.12850158787668
 30
0.0
 11
-24.86588790528632
 21
73.12850158787623
 31
0.0
  0
LINE
  5
1EC6
330
1F
100
AcDbEntity
  8
DETAILS
 62
     6
370
    20
100
AcDbLine
 10
-24.86588790528632
 20
73.12850158787623
 30
0.0
 11
-25.02199799488963
 21
73.11341807701691
 31
0.0
  0
ARC
  5
1EC7
330
1F
100
AcDbEntity
  8
DETAILS
 62
     6
370
    20
100
AcDbCircle
 10
-21.61323921240083
 20
76.83850158787672
 30
0.0
 40
0.1000000000001364
100
AcDbArc
 50
270.0000000002606
 51
316.1691393281413
  0
LINE
  5
1EC8
330
1F
100
AcDbEntity
  8
DETAILS
 62
     6
370
    20
100
AcDbLine
 10
-21.54110048029625
 20
76.76924840505771
 30
0.0
 11
-20.42347869268807
 21
77.95947943381779
 31
0.0
  0
ARC
  5
1EC9
330
1F
100
AcDbEntity
  8
DETAILS
 62
     6
370
    20
100
AcDbCircle
 10
-20.495617424789
 20
78.0287326166368
 30
0.0
 40
0.0999999999994431
100
AcDbArc
 50
316.1691393272021
 51
359.9999999992444
  0
ARC
  5
1ECA
330
1F
100
AcDbEntity
  8
DETAILS
 62
     6
370
    20
100
AcDbCircle
 10
-26.49562430447614
 20
78.02873261663544
 30
0.0
 40
0.0999999999999091
100
AcDbArc
 50
179.9999999998697
 51
223.8308606719873
  0
LINE
  5
1ECB
330
1F
100
AcDbEntity
  8
DETAILS
 62
     6
370
    20
100
AcDbLine
 10
-26.5677630365789
 20
77.95947943381688
 30
0.0
 11
-25.45013436928176
 21
76.76924840505771
 31
0.0
  0
ARC
  5
1ECC
330
1F
100
AcDbEntity
  8
DETAILS
 62
     6
370
    20
100
AcDbCircle
 10
-25.37799563717809
 20
76.83850158787672
 30
0.0
 40
0.1000000000001911
100
AcDbArc
 50
223.8308606721347
 51
270.0
  0
LINE
  5
1ECD
330
1F
100
AcDbEntity
  8
DETAILS
 62
     6
370
    20
100
AcDbLine
 10
-25.37799563717809
 20
76.73850158787681
 30
0.0
 11
-25.3706174247881
 21
76.73850158787681
 31
0.0
  0
LINE
  5
1ECE
330
1F
100
AcDbEntity
  8
DETAILS
 62
     6
370
    20
100
AcDbLine
 10
-25.3706174247881
 20
76.73850158787681
 30
0.0
 11
-25.3706174247881
 21
76.68850158787662
 31
0.0
  0
LINE
  5
1ECF
330
1F
100
AcDbEntity
  8
DETAILS
 62
     6
370
    20
100
AcDbLine
 10
-25.3706174247881
 20
76.68850158787662
 30
0.0
 11
-25.27061742478773
 21
76.68850158787662
 31
0.0
  0
ARC
  5
1ED0
330
1F
100
AcDbEntity
  8
DETAILS
 62
     6
370
    20
100
AcDbCircle
 10
-25.27061742478773
 20
76.63850158787645
 30
0.0
 40
0.0500000000001819
100
AcDbArc
 50
359.9999999998697
 51
90.0
  0
LINE
  5
1ED1
330
1F
100
AcDbEntity
  8
DETAILS
 62
     6
370
    20
100
AcDbLine
 10
-25.22061742478664
 20
76.63850158787645
 30
0.0
 11
-25.22061742478846
 21
76.58350158787661
 31
0.0
  0
ARC
  5
1ED2
330
1F
100
AcDbEntity
  8
DETAILS
 62
     6
370
    20
100
AcDbCircle
 10
-24.79561742478737
 20
76.58350158787616
 30
0.0
 40
0.4250000000001819
100
AcDbArc
 50
179.9999999999739
 51
359.999999999974
  0
LINE
  5
1ED3
330
1F
100
AcDbEntity
  8
DETAILS
 62
     6
370
    20
100
AcDbLine
 10
-24.37061742478809
 20
76.58350158787616
 30
0.0
 11
-24.37061742478809
 21
76.63850158787645
 31
0.0
  0
ARC
  5
1ED4
330
1F
100
AcDbEntity
  8
DETAILS
 62
     6
370
    20
100
AcDbCircle
 10
-24.32061742478791
 20
76.63850158787645
 30
0.0
 40
0.0500000000001819
100
AcDbArc
 50
90.0
 51
179.9999999996613
  0
LINE
  5
1ED5
330
1F
100
AcDbEntity
  8
DETAILS
 62
     6
370
    20
100
AcDbLine
 10
-24.32061742478791
 20
76.68850158787662
 30
0.0
 11
-23.97061742478846
 21
76.68850158787662
 31
0.0
  0
ARC
  5
1ED6
330
1F
100
AcDbEntity
  8
DETAILS
 62
     6
370
    20
100
AcDbCircle
 10
-23.97061742478846
 20
76.63850158787645
 30
0.0
 40
0.0500000000001819
100
AcDbArc
 50
359.9999999998697
 51
90.0
  0
LINE
  5
1ED7
330
1F
100
AcDbEntity
  8
DETAILS
 62
     6
370
    20
100
AcDbLine
 10
-23.92061742478828
 20
76.63850158787645
 30
0.0
 11
-23.92061742478919
 21
76.58350158787342
 31
0.0
  0
ARC
  5
1ED8
330
1F
100
AcDbEntity
  8
DETAILS
 62
     6
370
    20
100
AcDbCircle
 10
-23.4956174247881
 20
76.58350158787342
 30
0.0
 40
0.4250000000001819
100
AcDbArc
 50
180.0
 51
270.0
  0
ARC
  5
1ED9
330
1F
100
AcDbEntity
  8
DETAILS
 62
     6
370
    20
100
AcDbCircle
 10
-23.49561742478901
 20
76.58350158787342
 30
0.0
 40
0.4249999999997272
100
AcDbArc
 50
270.0000000000521
 51
0.0000000000521102
  0
LINE
  5
1EDA
330
1F
100
AcDbEntity
  8
DETAILS
 62
     6
370
    20
100
AcDbLine
 10
-23.07061742478882
 20
76.58350158787342
 30
0.0
 11
-23.07061742478973
 21
76.63850158787645
 31
0.0
  0
ARC
  5
1EDB
330
1F
100
AcDbEntity
  8
DETAILS
 62
     6
370
    20
100
AcDbCircle
 10
-23.02061742478955
 20
76.63850158787645
 30
0.0
 40
0.0500000000001819
100
AcDbArc
 50
90.0
 51
180.0
  0
LINE
  5
1EDC
330
1F
100
AcDbEntity
  8
DETAILS
 62
     6
370
    20
100
AcDbLine
 10
-23.02061742478955
 20
76.68850158787662
 30
0.0
 11
-22.67061742479009
 21
76.68850158787662
 31
0.0
  0
ARC
  5
1EDD
330
1F
100
AcDbEntity
  8
DETAILS
 62
     6
370
    20
100
AcDbCircle
 10
-22.67061742479009
 20
76.63850158787645
 30
0.0
 40
0.0500000000001819
100
AcDbArc
 50
0.000000000260551
 51
90.0
  0
LINE
  5
1EDE
330
1F
100
AcDbEntity
  8
DETAILS
 62
     6
370
    20
100
AcDbLine
 10
-22.62061742478991
 20
76.63850158787645
 30
0.0
 11
-22.62061742478991
 21
76.58350158787616
 31
0.0
  0
ARC
  5
1EDF
330
1F
100
AcDbEntity
  8
DETAILS
 62
     6
370
    20
100
AcDbCircle
 10
-22.19561742478973
 20
76.58350158787616
 30
0.0
 40
0.4249999999997272
100
AcDbArc
 50
180.000000000026
 51
0.0000000000260551
  0
LINE
  5
1EE0
330
1F
100
AcDbEntity
  8
DETAILS
 62
     6
370
    20
100
AcDbLine
 10
-21.77061742478955
 20
76.58350158787661
 30
0.0
 11
-21.77061742479137
 21
76.63850158787645
 31
0.0
  0
ARC
  5
1EE1
330
1F
100
AcDbEntity
  8
DETAILS
 62
     6
370
    20
100
AcDbCircle
 10
-21.72061742479028
 20
76.63850158787645
 30
0.0
 40
0.0500000000001819
100
AcDbArc
 50
90.0
 51
180.0
  0
LINE
  5
1EE2
330
1F
100
AcDbEntity
  8
DETAILS
 62
     6
370
    20
100
AcDbLine
 10
-21.72061742479028
 20
76.68850158787662
 30
0.0
 11
-21.62061742478991
 21
76.68850158787662
 31
0.0
  0
LINE
  5
1EE3
330
1F
100
AcDbEntity
  8
DETAILS
 62
     6
370
    20
100
AcDbLine
 10
-21.62061742478991
 20
76.68850158787662
 30
0.0
 11
-21.62061742478991
 21
76.73850158787681
 31
0.0
  0
LINE
  5
1EE4
330
1F
100
AcDbEntity
  8
DETAILS
 62
     6
370
    20
100
AcDbLine
 10
-21.62061742478991
 20
76.73850158787681
 30
0.0
 11
-21.61323921239992
 21
76.73850158787681
 31
0.0
  0
LINE
  5
1EE5
330
1F
100
AcDbEntity
  8
DETAILS
 62
     6
370
    20
100
AcDbLine
 10
-21.61323921239992
 20
76.73850158787681
 30
0.0
 11
-21.77061742479046
 21
76.73850158787681
 31
0.0
  0
ARC
  5
1EE6
330
1F
100
AcDbEntity
  8
DETAILS
 62
     6
370
    20
100
AcDbCircle
 10
-21.77061742479046
 20
76.68850158787662
 30
0.0
 40
0.0500000000001819
100
AcDbArc
 50
90.0
 51
179.9999999998697
  0
LINE
  5
1EE7
330
1F
100
AcDbEntity
  8
DETAILS
 62
     6
370
    20
100
AcDbLine
 10
-21.82061742479064
 20
76.68850158787662
 30
0.0
 11
-21.82061742479064
 21
76.58350158787661
 31
0.0
  0
ARC
  5
1EE8
330
1F
100
AcDbEntity
  8
DETAILS
 62
     6
370
    20
100
AcDbCircle
 10
-22.19561742479064
 20
76.58350158787616
 30
0.0
 40
0.375
100
AcDbArc
 50
180.0
 51
0.0
  0
LINE
  5
1EE9
330
1F
100
AcDbEntity
  8
DETAILS
 62
     6
370
    20
100
AcDbLine
 10
-22.57061742479064
 20
76.58350158787616
 30
0.0
 11
-22.57061742479064
 21
76.68850158787662
 31
0.0
  0
ARC
  5
1EEA
330
1F
100
AcDbEntity
  8
DETAILS
 62
     6
370
    20
100
AcDbCircle
 10
-22.62061742478991
 20
76.68850158787662
 30
0.0
 40
0.0500000000001819
100
AcDbArc
 50
0.0000000001302755
 51
90.0
  0
LINE
  5
1EEB
330
1F
100
AcDbEntity
  8
DETAILS
 62
     6
370
    20
100
AcDbLine
 10
-22.62061742478991
 20
76.73850158787681
 30
0.0
 11
-23.07061742479064
 21
76.73850158787681
 31
0.0
  0
ARC
  5
1EEC
330
1F
100
AcDbEntity
  8
DETAILS
 62
     6
370
    20
100
AcDbCircle
 10
-23.07061742479064
 20
76.68850158787662
 30
0.0
 40
0.0500000000001251
100
AcDbArc
 50
90.0
 51
179.9999999998697
  0
LINE
  5
1EED
330
1F
100
AcDbEntity
  8
DETAILS
 62
     6
370
    20
100
AcDbLine
 10
-23.12061742478991
 20
76.68850158787662
 30
0.0
 11
-23.12061742478991
 21
76.58350158787342
 31
0.0
  0
ARC
  5
1EEE
330
1F
100
AcDbEntity
  8
DETAILS
 62
     6
370
    20
100
AcDbCircle
 10
-23.49561742478901
 20
76.58350158787342
 30
0.0
 40
0.3749999999995452
100
AcDbArc
 50
270.0000000000521
 51
0.0000000000521102
  0
ARC
  5
1EEF
330
1F
100
AcDbEntity
  8
DETAILS
 62
     6
370
    20
100
AcDbCircle
 10
-23.4956174247881
 20
76.58350158787342
 30
0.0
 40
0.3749999999998295
100
AcDbArc
 50
180.0
 51
269.9999999999479
  0
LINE
  5
1EF0
330
1F
100
AcDbEntity
  8
DETAILS
 62
     6
370
    20
100
AcDbLine
 10
-23.8706174247881
 20
76.58350158787342
 30
0.0
 11
-23.8706174247881
 21
76.68850158787662
 31
0.0
  0
ARC
  5
1EF1
330
1F
100
AcDbEntity
  8
DETAILS
 62
     6
370
    20
100
AcDbCircle
 10
-23.92061742478737
 20
76.68850158787662
 30
0.0
 40
0.0500000000001819
100
AcDbArc
 50
0.0000000001302755
 51
90.0
  0
LINE
  5
1EF2
330
1F
100
AcDbEntity
  8
DETAILS
 62
     6
370
    20
100
AcDbLine
 10
-23.92061742478737
 20
76.73850158787681
 30
0.0
 11
-24.37061742478809
 21
76.73850158787681
 31
0.0
  0
ARC
  5
1EF3
330
1F
100
AcDbEntity
  8
DETAILS
 62
     6
370
    20
100
AcDbCircle
 10
-24.37061742478809
 20
76.68850158787662
 30
0.0
 40
0.0500000000001819
100
AcDbArc
 50
90.0
 51
179.9999999998697
  0
LINE
  5
1EF4
330
1F
100
AcDbEntity
  8
DETAILS
 62
     6
370
    20
100
AcDbLine
 10
-24.42061742478737
 20
76.68850158787662
 30
0.0
 11
-24.42061742478737
 21
76.58350158787616
 31
0.0
  0
ARC
  5
1EF5
330
1F
100
AcDbEntity
  8
DETAILS
 62
     6
370
    20
100
AcDbCircle
 10
-24.79561742478737
 20
76.58350158787616
 30
0.0
 40
0.3749999999995452
100
AcDbArc
 50
179.9999999999739
 51
0.0
  0
LINE
  5
1EF6
330
1F
100
AcDbEntity
  8
DETAILS
 62
     6
370
    20
100
AcDbLine
 10
-25.17061742478737
 20
76.58350158787661
 30
0.0
 11
-25.17061742478737
 21
76.68850158787662
 31
0.0
  0
ARC
  5
1EF7
330
1F
100
AcDbEntity
  8
DETAILS
 62
     6
370
    20
100
AcDbCircle
 10
-25.22061742478755
 20
76.68850158787662
 30
0.0
 40
0.0500000000001819
100
AcDbArc
 50
0.0000000001302755
 51
90.0
  0
LINE
  5
1EF8
330
1F
100
AcDbEntity
  8
DETAILS
 62
     6
370
    20
100
AcDbLine
 10
-25.22061742478755
 20
76.73850158787681
 30
0.0
 11
-25.37799563717809
 21
76.73850158787681
 31
0.0
  0
LINE
  5
1EF9
330
1F
100
AcDbEntity
  8
DETAILS
 62
     6
370
    20
100
AcDbLine
 10
-20.39561742478864
 20
71.26708023163982
 30
0.0
 11
-20.39561742478955
 21
69.25896037725815
 31
0.0
  0
LINE
  5
1EFA
330
1F
100
AcDbEntity
  8
DETAILS
 62
     6
370
    20
100
AcDbLine
 10
-26.59561742478846
 20
69.25896037725815
 30
0.0
 11
-26.59561742478937
 21
71.26708023163982
 31
0.0
  0
LINE
  5
1EFB
330
1F
100
AcDbEntity
  8
DETAILS
 62
     6
370
    20
100
AcDbLine
 10
-26.69561742478882
 20
79.94464533887239
 30
0.0
 11
-26.69561742478882
 21
79.98124787925016
 31
0.0
  0
ARC
  5
1EFC
330
1F
100
AcDbEntity
  8
DETAILS
 62
     6
370
    20
100
AcDbCircle
 10
-26.745617424789
 20
79.98124787924971
 30
0.0
 40
0.0500000000001819
100
AcDbArc
 50
0.0000000004429368
 51
30.00000000045302
  0
LINE
  5
1EFD
330
1F
100
AcDbEntity
  8
DETAILS
 62
     6
370
    20
100
AcDbLine
 10
-26.70231615460025
 20
80.00624787925024
 30
0.0
 11
-26.74800510922606
 21
80.08538347000976
 31
0.0
  0
LINE
  5
1EFE
330
1F
100
AcDbEntity
  8
DETAILS
 62
     6
370
    20
100
AcDbLine
 10
-26.74800510922606
 20
80.08538347000976
 30
0.0
 11
-26.66140256884856
 21
80.13538347000949
 31
0.0
  0
LINE
  5
1EFF
330
1F
100
AcDbEntity
  8
DETAILS
 62
     6
370
    20
100
AcDbLine
 10
-26.66140256884856
 20
80.13538347000949
 30
0.0
 11
-26.60231615459989
 21
80.03304279849462
 31
0.0
  0
ARC
  5
1F00
330
1F
100
AcDbEntity
  8
DETAILS
 62
     6
370
    20
100
AcDbCircle
 10
-26.64561742478864
 20
80.00804279849452
 30
0.0
 40
0.0499999999997213
100
AcDbArc
 50
0.0000000003387164
 51
30.00000000054676
  0
LINE
  5
1F01
330
1F
100
AcDbEntity
  8
DETAILS
 62
     6
370
    20
100
AcDbLine
 10
-26.59561742478937
 20
80.00804279849452
 30
0.0
 11
-26.59561742478755
 21
78.02873261663589
 31
0.0
  0
LINE
  5
1F02
330
1F
100
AcDbEntity
  8
DETAILS
 62
     6
370
    20
100
AcDbLine
 10
-26.59561742478755
 20
78.02873261663589
 30
0.0
 11
-26.59561742478846
 21
71.26708023164027
 31
0.0
  0
ARC
  5
1F03
330
1F
100
AcDbEntity
  8
DETAILS
 62
     6
370
    20
100
AcDbCircle
 10
-26.495617424789
 20
71.26708023164027
 30
0.0
 40
0.0999999999999091
100
AcDbArc
 50
135.0000000001474
 51
180.0000000001302
  0
LINE
  5
1F04
330
1F
100
AcDbEntity
  8
DETAILS
 62
     6
370
    20
100
AcDbLine
 10
-26.56632810290731
 20
71.33779090975858
 30
0.0
 11
-24.91455140760982
 21
73.01456760505434
 31
0.0
  0
ARC
  5
1F05
330
1F
100
AcDbEntity
  8
DETAILS
 62
     6
370
    20
100
AcDbCircle
 10
-24.80848539043191
 20
72.90850158787688
 30
0.0
 40
0.1499999999998163
100
AcDbArc
 50
90.0
 51
135.0000000000184
  0
LINE
  5
1F06
330
1F
100
AcDbEntity
  8
DETAILS
 62
     6
370
    20
100
AcDbLine
 10
-24.80848539043191
 20
73.05850158787652
 30
0.0
 11
-23.49561742478901
 21
73.05850158787652
 31
0.0
  0
LINE
  5
1F07
330
1F
100
AcDbEntity
  8
DETAILS
 62
     6
370
    20
100
AcDbLine
 10
-23.49561742478901
 20
73.05850158787652
 30
0.0
 11
-22.18274945914609
 21
73.05850158787652
 31
0.0
  0
ARC
  5
1F08
330
1F
100
AcDbEntity
  8
DETAILS
 62
     6
370
    20
100
AcDbCircle
 10
-22.18274945914609
 20
72.90850158787688
 30
0.0
 40
0.1499999999998067
100
AcDbArc
 50
44.99999999998157
 51
90.0
  0
LINE
  5
1F09
330
1F
100
AcDbEntity
  8
DETAILS
 62
     6
370
    20
100
AcDbLine
 10
-22.07668344196819
 20
73.01456760505434
 30
0.0
 11
-20.42490674666979
 21
71.33779090975858
 31
0.0
  0
ARC
  5
1F0A
330
1F
100
AcDbEntity
  8
DETAILS
 62
     6
370
    20
100
AcDbCircle
 10
-20.495617424789
 20
71.26708023164027
 30
0.0
 40
0.0999999999999044
100
AcDbArc
 50
359.9999999998958
 51
44.99999999985261
  0
LINE
  5
1F0B
330
1F
100
AcDbEntity
  8
DETAILS
 62
     6
370
    20
100
AcDbLine
 10
-20.39561742478864
 20
71.26708023164027
 30
0.0
 11
-20.39561742479046
 21
78.02873261663589
 31
0.0
  0
LINE
  5
1F0C
330
1F
100
AcDbEntity
  8
DETAILS
 62
     6
370
    20
100
AcDbLine
 10
-20.39561742479046
 20
78.02873261663589
 30
0.0
 11
-20.39561742478864
 21
80.00804279849452
 31
0.0
  0
ARC
  5
1F0D
330
1F
100
AcDbEntity
  8
DETAILS
 62
     6
370
    20
100
AcDbCircle
 10
-20.34561742478937
 20
80.00804279849452
 30
0.0
 40
0.0500000000001819
100
AcDbArc
 50
149.9999999997345
 51
179.9999999997394
  0
LINE
  5
1F0E
330
1F
100
AcDbEntity
  8
DETAILS
 62
     6
370
    20
100
AcDbLine
 10
-20.38891869497811
 20
80.03304279849507
 30
0.0
 11
-20.32983228072945
 21
80.13538347000949
 31
0.0
  0
LINE
  5
1F0F
330
1F
100
AcDbEntity
  8
DETAILS
 62
     6
370
    20
100
AcDbLine
 10
-20.32983228072945
 20
80.13538347000949
 30
0.0
 11
-20.24322974035195
 21
80.08538347000976
 31
0.0
  0
LINE
  5
1F10
330
1F
100
AcDbEntity
  8
DETAILS
 62
     6
370
    20
100
AcDbLine
 10
-20.24322974035195
 20
80.08538347000976
 30
0.0
 11
-20.28891869497775
 21
80.00624787925024
 31
0.0
  0
ARC
  5
1F11
330
1F
100
AcDbEntity
  8
DETAILS
 62
     6
370
    20
100
AcDbCircle
 10
-20.245617424789
 20
79.98124787924971
 30
0.0
 40
0.0500000000002004
100
AcDbArc
 50
149.999999999547
 51
179.999999999531
  0
LINE
  5
1F12
330
1F
100
AcDbEntity
  8
DETAILS
 62
     6
370
    20
100
AcDbLine
 10
-20.29561742478918
 20
79.98124787925016
 30
0.0
 11
-20.29561742478918
 21
79.94464533887239
 31
0.0
  0
LINE
  5
1F13
330
1F
100
AcDbEntity
  8
DETAILS
 62
     6
370
    20
100
AcDbLine
 10
-20.87061742479082
 20
75.37850158787623
 30
0.0
 11
-20.87061742479173
 21
75.91952463361266
 31
0.0
  0
ARC
  5
1F14
330
1F
100
AcDbEntity
  8
DETAILS
 62
     6
370
    20
100
AcDbCircle
 10
-20.97061742479119
 20
75.91952463361266
 30
0.0
 40
0.0999999999999091
100
AcDbArc
 50
0.0
 51
136.1691393279388
  0
LINE
  5
1F15
330
1F
100
AcDbEntity
  8
DETAILS
 62
     6
370
    20
100
AcDbLine
 10
-21.04275615689485
 20
75.98877781643167
 30
0.0
 11
-21.56213828080118
 21
75.44775477069524
 31
0.0
  0
ARC
  5
1F16
330
1F
100
AcDbEntity
  8
DETAILS
 62
     6
370
    20
100
AcDbCircle
 10
-21.48999954869751
 20
75.37850158787668
 30
0.0
 40
0.1000000000000336
100
AcDbArc
 50
136.1691393279939
 51
270.0
  0
LINE
  5
1F17
330
1F
100
AcDbEntity
  8
DETAILS
 62
     6
370
    20
100
AcDbLine
 10
-21.48999954869751
 20
75.27850158787678
 30
0.0
 11
-20.97061742479028
 21
75.27850158787678
 31
0.0
  0
ARC
  5
1F18
330
1F
100
AcDbEntity
  8
DETAILS
 62
     6
370
    20
100
AcDbCircle
 10
-20.97061742479119
 20
75.37850158787668
 30
0.0
 40
0.1000000000001364
100
AcDbArc
 50
270.0000000002606
 51
359.9999999998958
  0
LINE
  5
1F19
330
1F
100
AcDbEntity
  8
DETAILS
 62
     6
370
    20
100
AcDbLine
 10
-20.97061742479028
 20
73.95850158787661
 30
0.0
 11
-21.48999954869751
 21
73.95850158787661
 31
0.0
  0
ARC
  5
1F1A
330
1F
100
AcDbEntity
  8
DETAILS
 62
     6
370
    20
100
AcDbCircle
 10
-21.48999954869751
 20
73.8585015878767
 30
0.0
 40
0.1000000000000227
100
AcDbArc
 50
90.0
 51
223.830860672006
  0
LINE
  5
1F1B
330
1F
100
AcDbEntity
  8
DETAILS
 62
     6
370
    20
100
AcDbLine
 10
-21.56213828080118
 20
73.78924840505769
 30
0.0
 11
-21.04275615689485
 21
73.2482253593217
 31
0.0
  0
ARC
  5
1F1C
330
1F
100
AcDbEntity
  8
DETAILS
 62
     6
370
    20
100
AcDbCircle
 10
-20.97061742479119
 20
73.31747854214026
 30
0.0
 40
0.1000000000000336
100
AcDbArc
 50
223.830860672006
 51
0.0000000000260551
  0
LINE
  5
1F1D
330
1F
100
AcDbEntity
  8
DETAILS
 62
     6
370
    20
100
AcDbLine
 10
-20.87061742479173
 20
73.31747854214026
 30
0.0
 11
-20.87061742479082
 21
73.8585015878767
 31
0.0
  0
ARC
  5
1F1E
330
1F
100
AcDbEntity
  8
DETAILS
 62
     6
370
    20
100
AcDbCircle
 10
-20.97061742479119
 20
73.85850158787625
 30
0.0
 40
0.1000000000003638
100
AcDbArc
 50
0.0000000001042204
 51
89.99999999973944
  0
LINE
  5
1F1F
330
1F
100
AcDbEntity
  8
0
 62
     1
100
AcDbLine
 10
-29.22061742478846
 20
80.3585015878767
 30
0.0
 11
-26.59561742478846
 21
80.3585015878767
 31
0.0
  0
LINE
  5
1F20
330
1F
100
AcDbEntity
  8
0
 62
     1
100
AcDbLine
 10
-26.59561742478846
 20
80.85850158787669
 30
0.0
 11
-26.59561742478846
 21
80.3585015878767
 31
0.0
  0
LINE
  5
1F21
330
1F
100
AcDbEntity
  8
0
  6
HIDDEN
 62
     1
 48
0.02
100
AcDbLine
 10
-28.8706174247881
 20
80.85850158787669
 30
0.0
 11
-28.2456174247881
 21
80.85850158787669
 31
0.0
  0
LINE
  5
1F22
330
1F
100
AcDbEntity
  8
0
  6
HIDDEN
 62
     1
 48
0.02
100
AcDbLine
 10
-28.8706174247881
 20
80.85850158787669
 30
0.0
 11
-28.8706174247881
 21
80.3585015878767
 31
0.0
  0
LINE
  5
1F23
330
1F
100
AcDbEntity
  8
0
  6
HIDDEN
 62
     1
 48
0.02
100
AcDbLine
 10
-27.22061742478846
 20
80.85850158787669
 30
0.0
 11
-27.22061742478937
 21
80.3585015878767
 31
0.0
  0
LINE
  5
1F24
330
1F
100
AcDbEntity
  8
0
  6
HIDDEN
 62
     1
 48
0.02
100
AcDbLine
 10
-28.2456174247881
 20
80.85850158787669
 30
0.0
 11
-28.2456174247881
 21
80.3585015878767
 31
0.0
  0
LINE
  5
1F25
330
1F
100
AcDbEntity
  8
0
  6
HIDDEN
 62
     1
 48
0.02
100
AcDbLine
 10
-27.22061742478937
 20
80.85850158787669
 30
0.0
 11
-26.59561742478937
 21
80.85850158787669
 31
0.0
  0
LINE
  5
1F26
330
1F
100
AcDbEntity
  8
0
 62
     1
100
AcDbLine
 10
-20.39561742478773
 20
80.3585015878767
 30
0.0
 11
-17.77061742478864
 21
80.3585015878767
 31
0.0
  0
LINE
  5
1F27
330
1F
100
AcDbEntity
  8
0
 62
     1
100
AcDbLine
 10
-20.39561742478773
 20
80.85850158787669
 30
0.0
 11
-20.39561742478773
 21
80.3585015878767
 31
0.0
  0
LINE
  5
1F28
330
1F
100
AcDbEntity
  8
0
  6
HIDDEN
 62
     1
 48
0.02
100
AcDbLine
 10
-18.12061742478627
 20
80.85850158787669
 30
0.0
 11
-18.12061742478627
 21
80.3585015878767
 31
0.0
  0
LINE
  5
1F29
330
1F
100
AcDbEntity
  8
0
  6
HIDDEN
 62
     1
 48
0.02
100
AcDbLine
 10
-19.77061742478773
 20
80.85850158787669
 30
0.0
 11
-19.77061742478773
 21
80.3585015878767
 31
0.0
  0
LINE
  5
1F2A
330
1F
100
AcDbEntity
  8
0
  6
HIDDEN
 62
     1
 48
0.02
100
AcDbLine
 10
-18.74561742478627
 20
80.85850158787669
 30
0.0
 11
-18.74561742478627
 21
80.3585015878767
 31
0.0
  0
LINE
  5
1F2B
330
1F
100
AcDbEntity
  8
0
  6
HIDDEN
 62
     1
 48
0.02
100
AcDbLine
 10
-20.39561742478773
 20
80.85850158787669
 30
0.0
 11
-19.77061742478773
 21
80.85850158787669
 31
0.0
  0
LINE
  5
1F2C
330
1F
100
AcDbEntity
  8
0
  6
HIDDEN
 62
     1
 48
0.02
100
AcDbLine
 10
-18.74561742478627
 20
80.85850158787669
 30
0.0
 11
-18.12061742478627
 21
80.85850158787669
 31
0.0
  0
LINE
  5
1F2D
330
1F
100
AcDbEntity
  8
0
  6
HIDDEN
 62
     1
 48
0.02
100
AcDbLine
 10
-20.195617424787
 20
80.60850158787671
 30
0.0
 11
-20.195617424787
 21
80.3585015878767
 31
0.0
  0
LINE
  5
1F2E
330
1F
100
AcDbEntity
  8
0
  6
HIDDEN
 62
     1
 48
0.02
100
AcDbLine
 10
-19.945617424787
 20
80.60850158787671
 30
0.0
 11
-19.945617424787
 21
80.3585015878767
 31
0.0
  0
LINE
  5
1F2F
330
1F
100
AcDbEntity
  8
0
  6
HIDDEN
 62
     1
 48
0.02
100
AcDbLine
 10
-20.195617424787
 20
80.60850158787671
 30
0.0
 11
-19.945617424787
 21
80.60850158787671
 31
0.0
  0
LINE
  5
1F30
330
1F
100
AcDbEntity
  8
0
 62
     1
100
AcDbLine
 10
-29.22061742478846
 20
68.3585015878767
 30
0.0
 11
-26.59561742478846
 21
68.3585015878767
 31
0.0
  0
LINE
  5
1F31
330
1F
100
AcDbEntity
  8
0
 62
     1
100
AcDbLine
 10
-29.22061742478846
 20
68.3585015878767
 30
0.0
 11
-27.04561742478828
 21
68.3585015878767
 31
0.0
  0
LINE
  5
1F32
330
1F
100
AcDbEntity
  8
0
 62
     1
100
AcDbLine
 10
-26.79561742478919
 20
68.3585015878767
 30
0.0
 11
-26.59561742478937
 21
68.3585015878767
 31
0.0
  0
LINE
  5
1F33
330
1F
100
AcDbEntity
  8
0
 48
0.15
100
AcDbLine
 10
-28.2456174247881
 20
68.3585015878767
 30
0.0
 11
-27.22061742478846
 21
68.3585015878767
 31
0.0
  0
LINE
  5
1F34
330
1F
100
AcDbEntity
  8
0
 62
     1
100
AcDbLine
 10
-27.17061742478828
 20
68.3585015878767
 30
0.0
 11
-28.29561742478919
 21
68.3585015878767
 31
0.0
  0
LINE
  5
1F35
330
1F
100
AcDbEntity
  8
0
 62
     1
100
AcDbLine
 10
-29.22061742478846
 20
68.35851355837402
 30
0.0
 11
-27.04561742478828
 21
68.35851355837402
 31
0.0
  0
LINE
  5
1F36
330
1F
100
AcDbEntity
  8
0
 62
     1
100
AcDbLine
 10
-28.8706174247881
 20
68.85851355837402
 30
0.0
 11
-28.2456174247881
 21
68.85851355837402
 31
0.0
  0
LINE
  5
1F37
330
1F
100
AcDbEntity
  8
0
 62
     1
100
AcDbLine
 10
-27.22061742478846
 20
68.85851355837402
 30
0.0
 11
-27.22061742478937
 21
68.35851355837402
 31
0.0
  0
LINE
  5
1F38
330
1F
100
AcDbEntity
  8
0
 62
     1
100
AcDbLine
 10
-28.2456174247881
 20
68.85851355837402
 30
0.0
 11
-28.2456174247881
 21
68.35851355837402
 31
0.0
  0
LINE
  5
1F39
330
1F
100
AcDbEntity
  8
0
 62
     1
100
AcDbLine
 10
-27.22061742478937
 20
68.85851355837402
 30
0.0
 11
-26.59561742478937
 21
68.85851355837402
 31
0.0
  0
LINE
  5
1F3A
330
1F
100
AcDbEntity
  8
0
 62
     1
100
AcDbLine
 10
-27.04561742478919
 20
68.60851355837403
 30
0.0
 11
-27.04561742478919
 21
68.35851355837402
 31
0.0
  0
LINE
  5
1F3B
330
1F
100
AcDbEntity
  8
0
 62
     1
100
AcDbLine
 10
-27.04561742478919
 20
68.60851355837403
 30
0.0
 11
-26.79561742478919
 21
68.60851355837403
 31
0.0
  0
LINE
  5
1F3C
330
1F
100
AcDbEntity
  8
0
 62
     1
100
AcDbLine
 10
-26.79561742478919
 20
68.35851355837402
 30
0.0
 11
-26.59561742478937
 21
68.35851355837402
 31
0.0
  0
LINE
  5
1F3D
330
1F
100
AcDbEntity
  8
0
 48
0.15
100
AcDbLine
 10
-28.2456174247881
 20
68.35851355837402
 30
0.0
 11
-27.22061742478846
 21
68.35851355837402
 31
0.0
  0
LINE
  5
1F3E
330
1F
100
AcDbEntity
  8
0
 62
     1
100
AcDbLine
 10
-27.17061742478828
 20
68.35851355837402
 30
0.0
 11
-28.29561742478919
 21
68.35851355837402
 31
0.0
  0
LINE
  5
1F3F
330
1F
100
AcDbEntity
  8
0
 62
     1
100
AcDbLine
 10
-18.12061742478809
 20
68.85851355837402
 30
0.0
 11
-18.12061742478809
 21
68.35851355837402
 31
0.0
  0
LINE
  5
1F40
330
1F
100
AcDbEntity
  8
0
 62
     1
100
AcDbLine
 10
-19.77061742478955
 20
68.85851355837402
 30
0.0
 11
-19.77061742478955
 21
68.35851355837402
 31
0.0
  0
LINE
  5
1F41
330
1F
100
AcDbEntity
  8
0
 62
     1
100
AcDbLine
 10
-18.74561742478809
 20
68.85851355837402
 30
0.0
 11
-18.74561742478809
 21
68.35851355837402
 31
0.0
  0
LINE
  5
1F42
330
1F
100
AcDbEntity
  8
0
 62
     1
100
AcDbLine
 10
-20.39561742478955
 20
68.85851355837402
 30
0.0
 11
-19.77061742478955
 21
68.85851355837402
 31
0.0
  0
LINE
  5
1F43
330
1F
100
AcDbEntity
  8
0
 62
     1
100
AcDbLine
 10
-18.74561742478809
 20
68.85851355837402
 30
0.0
 11
-18.12061742478809
 21
68.85851355837402
 31
0.0
  0
LINE
  5
1F44
330
1F
100
AcDbEntity
  8
0
 62
     1
100
AcDbLine
 10
-19.94561742478882
 20
68.60851355837403
 30
0.0
 11
-19.94561742478882
 21
68.35851355837402
 31
0.0
  0
LINE
  5
1F45
330
1F
100
AcDbEntity
  8
0
 62
     1
100
AcDbLine
 10
-20.19561742478882
 20
68.60851355837403
 30
0.0
 11
-19.94561742478882
 21
68.60851355837403
 31
0.0
  0
LINE
  5
1F46
330
1F
100
AcDbEntity
  8
0
 62
     1
100
AcDbLine
 10
-19.98061742478867
 20
68.35851355837402
 30
0.0
 11
-17.77061742478864
 21
68.35851355837402
 31
0.0
  0
LINE
  5
1F47
330
1F
100
AcDbEntity
  8
0
 62
     1
100
AcDbLine
 10
-20.39561742478955
 20
68.35851355837402
 30
0.0
 11
-20.19561742478882
 21
68.35851355837402
 31
0.0
  0
LINE
  5
1F48
330
1F
100
AcDbEntity
  8
0
 62
     1
100
AcDbLine
 10
-29.22061742478846
 20
68.35851355837402
 30
0.0
 11
-26.59561742478846
 21
68.35851355837402
 31
0.0
  0
LINE
  5
1F49
330
1F
100
AcDbEntity
  8
0
 62
     1
100
AcDbLine
 10
-26.59561742478846
 20
68.85851355837402
 30
0.0
 11
-26.59561742478846
 21
68.35851355837402
 31
0.0
  0
LINE
  5
1F4A
330
1F
100
AcDbEntity
  8
0
  6
HIDDEN
 62
     1
 48
0.02
100
AcDbLine
 10
-28.8706174247881
 20
68.85851355837402
 30
0.0
 11
-28.2456174247881
 21
68.85851355837402
 31
0.0
  0
LINE
  5
1F4B
330
1F
100
AcDbEntity
  8
0
  6
HIDDEN
 62
     1
 48
0.02
100
AcDbLine
 10
-28.8706174247881
 20
68.85851355837402
 30
0.0
 11
-28.8706174247881
 21
68.35851355837402
 31
0.0
  0
LINE
  5
1F4C
330
1F
100
AcDbEntity
  8
0
  6
HIDDEN
 62
     1
 48
0.02
100
AcDbLine
 10
-27.22061742478846
 20
68.85851355837402
 30
0.0
 11
-27.22061742478937
 21
68.35851355837402
 31
0.0
  0
LINE
  5
1F4D
330
1F
100
AcDbEntity
  8
0
  6
HIDDEN
 62
     1
 48
0.02
100
AcDbLine
 10
-28.2456174247881
 20
68.85851355837402
 30
0.0
 11
-28.2456174247881
 21
68.35851355837402
 31
0.0
  0
LINE
  5
1F4E
330
1F
100
AcDbEntity
  8
0
  6
HIDDEN
 62
     1
 48
0.02
100
AcDbLine
 10
-27.22061742478937
 20
68.85851355837402
 30
0.0
 11
-26.59561742478937
 21
68.85851355837402
 31
0.0
  0
LINE
  5
1F4F
330
1F
100
AcDbEntity
  8
0
 62
     1
100
AcDbLine
 10
-20.39561742478773
 20
68.35851355837402
 30
0.0
 11
-17.77061742478864
 21
68.35851355837402
 31
0.0
  0
LINE
  5
1F50
330
1F
100
AcDbEntity
  8
0
 62
     1
100
AcDbLine
 10
-20.39561742478773
 20
68.85851355837402
 30
0.0
 11
-20.39561742478773
 21
68.35851355837402
 31
0.0
  0
LINE
  5
1F51
330
1F
100
AcDbEntity
  8
0
  6
HIDDEN
 62
     1
 48
0.02
100
AcDbLine
 10
-18.12061742478627
 20
68.85851355837402
 30
0.0
 11
-18.12061742478627
 21
68.35851355837402
 31
0.0
  0
LINE
  5
1F52
330
1F
100
AcDbEntity
  8
0
  6
HIDDEN
 62
     1
 48
0.02
100
AcDbLine
 10
-19.77061742478773
 20
68.85851355837402
 30
0.0
 11
-19.77061742478773
 21
68.35851355837402
 31
0.0
  0
LINE
  5
1F53
330
1F
100
AcDbEntity
  8
0
  6
HIDDEN
 62
     1
 48
0.02
100
AcDbLine
 10
-18.74561742478627
 20
68.85851355837402
 30
0.0
 11
-18.74561742478627
 21
68.35851355837402
 31
0.0
  0
LINE
  5
1F54
330
1F
100
AcDbEntity
  8
0
  6
HIDDEN
 62
     1
 48
0.02
100
AcDbLine
 10
-20.39561742478773
 20
68.85851355837402
 30
0.0
 11
-19.77061742478773
 21
68.85851355837402
 31
0.0
  0
LINE
  5
1F55
330
1F
100
AcDbEntity
  8
0
  6
HIDDEN
 62
     1
 48
0.02
100
AcDbLine
 10
-18.74561742478627
 20
68.85851355837402
 30
0.0
 11
-18.12061742478627
 21
68.85851355837402
 31
0.0
  0
LINE
  5
1F56
330
1F
100
AcDbEntity
  8
0
  6
HIDDEN
 62
     1
 48
0.02
100
AcDbLine
 10
-20.195617424787
 20
68.60851355837403
 30
0.0
 11
-20.195617424787
 21
68.35851355837402
 31
0.0
  0
LINE
  5
1F57
330
1F
100
AcDbEntity
  8
0
  6
HIDDEN
 62
     1
 48
0.02
100
AcDbLine
 10
-19.945617424787
 20
68.60851355837403
 30
0.0
 11
-19.945617424787
 21
68.35851355837402
 31
0.0
  0
LINE
  5
1F58
330
1F
100
AcDbEntity
  8
0
  6
HIDDEN
 62
     1
 48
0.02
100
AcDbLine
 10
-20.195617424787
 20
68.60851355837403
 30
0.0
 11
-19.945617424787
 21
68.60851355837403
 31
0.0
  0
ARC
  5
1F59
330
1F
100
AcDbEntity
  8
DETAILS
 62
     6
370
    20
100
AcDbCircle
 10
-20.34561742479119
 20
69.25897234775593
 30
0.0
 40
0.0499999999997272
100
AcDbArc
 50
180.0000000004429
 51
210.0000000006405
  0
LINE
  5
1F5A
330
1F
100
AcDbEntity
  8
DETAILS
 62
     6
370
    20
100
AcDbLine
 10
-20.38891869497994
 20
69.23397234775584
 30
0.0
 11
-20.32983228073218
 21
69.13163167624097
 31
0.0
  0
LINE
  5
1F5B
330
1F
100
AcDbEntity
  8
DETAILS
 62
     6
370
    20
100
AcDbLine
 10
-20.32983228073218
 20
69.13163167624097
 30
0.0
 11
-20.24322974035377
 21
69.18163167624115
 31
0.0
  0
LINE
  5
1F5C
330
1F
100
AcDbEntity
  8
DETAILS
 62
     6
370
    20
100
AcDbLine
 10
-20.24322974035377
 20
69.18163167624115
 30
0.0
 11
-20.28891869498048
 21
69.26076726699974
 31
0.0
  0
ARC
  5
1F5D
330
1F
100
AcDbEntity
  8
DETAILS
 62
     6
370
    20
100
AcDbCircle
 10
-20.24561742479173
 20
69.28576726700029
 30
0.0
 40
0.0499999999997213
100
AcDbArc
 50
180.0000000003126
 51
210.0000000005468
  0
LINE
  5
1F5E
330
1F
100
AcDbEntity
  8
DETAILS
 62
     6
370
    20
100
AcDbLine
 10
-20.29561742479192
 20
69.28576726700029
 30
0.0
 11
-20.29561742479101
 21
69.32236980737852
 31
0.0
  0
LINE
  5
1F5F
330
1F
100
AcDbEntity
  8
DETAILS
 62
     6
370
    20
100
AcDbLine
 10
-26.69561742478882
 20
69.32236980737761
 30
0.0
 11
-26.69561742478882
 21
69.28576726700029
 31
0.0
  0
ARC
  5
1F60
330
1F
100
AcDbEntity
  8
DETAILS
 62
     6
370
    20
100
AcDbCircle
 10
-26.745617424789
 20
69.28576726700029
 30
0.0
 40
0.0499999999997272
100
AcDbArc
 50
329.9999999994532
 51
359.9999999996613
  0
LINE
  5
1F61
330
1F
100
AcDbEntity
  8
DETAILS
 62
     6
370
    20
100
AcDbLine
 10
-26.70231615460025
 20
69.26076726699974
 30
0.0
 11
-26.74800510922697
 21
69.18163167624024
 31
0.0
  0
LINE
  5
1F62
330
1F
100
AcDbEntity
  8
DETAILS
 62
     6
370
    20
100
AcDbLine
 10
-26.74800510922697
 20
69.18163167624024
 30
0.0
 11
-26.66140256884856
 21
69.13163167624097
 31
0.0
  0
LINE
  5
1F63
330
1F
100
AcDbEntity
  8
DETAILS
 62
     6
370
    20
100
AcDbLine
 10
-26.66140256884856
 20
69.13163167624097
 30
0.0
 11
-26.6023161546008
 21
69.23397234775584
 31
0.0
  0
ARC
  5
1F64
330
1F
100
AcDbEntity
  8
DETAILS
 62
     6
370
    20
100
AcDbCircle
 10
-26.64561742478955
 20
69.25897234775593
 30
0.0
 40
0.0499999999997782
100
AcDbArc
 50
329.9999999993595
 51
359.999999999531
  0
LINE
  5
1F65
330
1F
100
AcDbEntity
  8
0
 62
     1
100
AcDbLine
 10
-29.22061742478846
 20
80.3585015878767
 30
0.0
 11
-26.59561742478846
 21
80.3585015878767
 31
0.0
  0
LINE
  5
1F66
330
1F
100
AcDbEntity
  8
0
 62
     1
100
AcDbLine
 10
-29.22061742478846
 20
80.3585015878767
 30
0.0
 11
-27.04561742478828
 21
80.3585015878767
 31
0.0
  0
LINE
  5
1F67
330
1F
100
AcDbEntity
  8
0
 62
     1
100
AcDbLine
 10
-26.79561742478919
 20
80.3585015878767
 30
0.0
 11
-26.59561742478937
 21
80.3585015878767
 31
0.0
  0
LINE
  5
1F68
330
1F
100
AcDbEntity
  8
0
 48
0.15
100
AcDbLine
 10
-28.2456174247881
 20
80.3585015878767
 30
0.0
 11
-27.22061742478846
 21
80.3585015878767
 31
0.0
  0
LINE
  5
1F69
330
1F
100
AcDbEntity
  8
0
 62
     1
100
AcDbLine
 10
-27.17061742478828
 20
80.3585015878767
 30
0.0
 11
-28.29561742478919
 21
80.3585015878767
 31
0.0
  0
LINE
  5
1F6A
330
1F
100
AcDbEntity
  8
0
 62
     1
100
AcDbLine
 10
-29.22061742478846
 20
80.35851355837403
 30
0.0
 11
-27.04561742478828
 21
80.35851355837403
 31
0.0
  0
LINE
  5
1F6B
330
1F
100
AcDbEntity
  8
0
 62
     1
100
AcDbLine
 10
-28.8706174247881
 20
80.85851355837403
 30
0.0
 11
-28.2456174247881
 21
80.85851355837403
 31
0.0
  0
LINE
  5
1F6C
330
1F
100
AcDbEntity
  8
0
 62
     1
100
AcDbLine
 10
-27.22061742478846
 20
80.85851355837403
 30
0.0
 11
-27.22061742478937
 21
80.35851355837403
 31
0.0
  0
LINE
  5
1F6D
330
1F
100
AcDbEntity
  8
0
 62
     1
100
AcDbLine
 10
-28.2456174247881
 20
80.85851355837403
 30
0.0
 11
-28.2456174247881
 21
80.35851355837403
 31
0.0
  0
LINE
  5
1F6E
330
1F
100
AcDbEntity
  8
0
 62
     1
100
AcDbLine
 10
-27.22061742478937
 20
80.85851355837403
 30
0.0
 11
-26.59561742478937
 21
80.85851355837403
 31
0.0
  0
LINE
  5
1F6F
330
1F
100
AcDbEntity
  8
0
 62
     1
100
AcDbLine
 10
-27.04561742478919
 20
80.60851355837403
 30
0.0
 11
-27.04561742478919
 21
80.35851355837403
 31
0.0
  0
LINE
  5
1F70
330
1F
100
AcDbEntity
  8
0
 62
     1
100
AcDbLine
 10
-27.04561742478919
 20
80.60851355837403
 30
0.0
 11
-26.79561742478919
 21
80.60851355837403
 31
0.0
  0
LINE
  5
1F71
330
1F
100
AcDbEntity
  8
0
 62
     1
100
AcDbLine
 10
-26.79561742478919
 20
80.35851355837403
 30
0.0
 11
-26.59561742478937
 21
80.35851355837403
 31
0.0
  0
LINE
  5
1F72
330
1F
100
AcDbEntity
  8
0
 48
0.15
100
AcDbLine
 10
-28.2456174247881
 20
80.35851355837403
 30
0.0
 11
-27.22061742478846
 21
80.35851355837403
 31
0.0
  0
LINE
  5
1F73
330
1F
100
AcDbEntity
  8
0
 62
     1
100
AcDbLine
 10
-27.17061742478828
 20
80.35851355837403
 30
0.0
 11
-28.29561742478919
 21
80.35851355837403
 31
0.0
  0
LINE
  5
1F74
330
1F
100
AcDbEntity
  8
0
 62
     1
100
AcDbLine
 10
-18.12061742478809
 20
80.85851355837403
 30
0.0
 11
-18.12061742478809
 21
80.35851355837403
 31
0.0
  0
LINE
  5
1F75
330
1F
100
AcDbEntity
  8
0
 62
     1
100
AcDbLine
 10
-19.77061742478955
 20
80.85851355837403
 30
0.0
 11
-19.77061742478955
 21
80.35851355837403
 31
0.0
  0
LINE
  5
1F76
330
1F
100
AcDbEntity
  8
0
 62
     1
100
AcDbLine
 10
-18.74561742478809
 20
80.85851355837403
 30
0.0
 11
-18.74561742478809
 21
80.35851355837403
 31
0.0
  0
LINE
  5
1F77
330
1F
100
AcDbEntity
  8
0
 62
     1
100
AcDbLine
 10
-20.39561742478955
 20
80.85851355837403
 30
0.0
 11
-19.77061742478955
 21
80.85851355837403
 31
0.0
  0
LINE
  5
1F78
330
1F
100
AcDbEntity
  8
0
 62
     1
100
AcDbLine
 10
-18.74561742478809
 20
80.85851355837403
 30
0.0
 11
-18.12061742478809
 21
80.85851355837403
 31
0.0
  0
LINE
  5
1F79
330
1F
100
AcDbEntity
  8
0
 62
     1
100
AcDbLine
 10
-19.94561742478882
 20
80.60851355837403
 30
0.0
 11
-19.94561742478882
 21
80.35851355837403
 31
0.0
  0
LINE
  5
1F7A
330
1F
100
AcDbEntity
  8
0
 62
     1
100
AcDbLine
 10
-20.19561742478882
 20
80.60851355837403
 30
0.0
 11
-19.94561742478882
 21
80.60851355837403
 31
0.0
  0
LINE
  5
1F7B
330
1F
100
AcDbEntity
  8
0
 62
     1
100
AcDbLine
 10
-19.98061742478867
 20
80.35851355837403
 30
0.0
 11
-17.77061742478864
 21
80.35851355837403
 31
0.0
  0
LINE
  5
1F7C
330
1F
100
AcDbEntity
  8
0
 62
     1
100
AcDbLine
 10
-20.39561742478955
 20
80.35851355837403
 30
0.0
 11
-20.19561742478882
 21
80.35851355837403
 31
0.0
  0
LINE
  5
1F7D
330
1F
100
AcDbEntity
  8
0
 62
     1
100
AcDbLine
 10
-29.22061742478846
 20
80.35851355837403
 30
0.0
 11
-26.59561742478846
 21
80.35851355837403
 31
0.0
  0
LINE
  5
1F7E
330
1F
100
AcDbEntity
  8
0
 62
     1
100
AcDbLine
 10
-26.59561742478846
 20
80.85851355837403
 30
0.0
 11
-26.59561742478846
 21
80.35851355837403
 31
0.0
  0
LINE
  5
1F7F
330
1F
100
AcDbEntity
  8
0
  6
HIDDEN
 62
     1
 48
0.02
100
AcDbLine
 10
-28.8706174247881
 20
80.85851355837403
 30
0.0
 11
-28.2456174247881
 21
80.85851355837403
 31
0.0
  0
LINE
  5
1F80
330
1F
100
AcDbEntity
  8
0
  6
HIDDEN
 62
     1
 48
0.02
100
AcDbLine
 10
-28.8706174247881
 20
80.85851355837403
 30
0.0
 11
-28.8706174247881
 21
80.35851355837403
 31
0.0
  0
LINE
  5
1F81
330
1F
100
AcDbEntity
  8
0
  6
HIDDEN
 62
     1
 48
0.02
100
AcDbLine
 10
-27.22061742478846
 20
80.85851355837403
 30
0.0
 11
-27.22061742478937
 21
80.35851355837403
 31
0.0
  0
LINE
  5
1F82
330
1F
100
AcDbEntity
  8
0
  6
HIDDEN
 62
     1
 48
0.02
100
AcDbLine
 10
-28.2456174247881
 20
80.85851355837403
 30
0.0
 11
-28.2456174247881
 21
80.35851355837403
 31
0.0
  0
LINE
  5
1F83
330
1F
100
AcDbEntity
  8
0
  6
HIDDEN
 62
     1
 48
0.02
100
AcDbLine
 10
-27.22061742478937
 20
80.85851355837403
 30
0.0
 11
-26.59561742478937
 21
80.85851355837403
 31
0.0
  0
LINE
  5
1F84
330
1F
100
AcDbEntity
  8
0
 62
     1
100
AcDbLine
 10
-20.39561742478773
 20
80.35851355837403
 30
0.0
 11
-17.77061742478864
 21
80.35851355837403
 31
0.0
  0
LINE
  5
1F85
330
1F
100
AcDbEntity
  8
0
 62
     1
100
AcDbLine
 10
-20.39561742478773
 20
80.85851355837403
 30
0.0
 11
-20.39561742478773
 21
80.35851355837403
 31
0.0
  0
LINE
  5
1F86
330
1F
100
AcDbEntity
  8
0
  6
HIDDEN
 62
     1
 48
0.02
100
AcDbLine
 10
-18.12061742478627
 20
80.85851355837403
 30
0.0
 11
-18.12061742478627
 21
80.35851355837403
 31
0.0
  0
LINE
  5
1F87
330
1F
100
AcDbEntity
  8
0
  6
HIDDEN
 62
     1
 48
0.02
100
AcDbLine
 10
-19.77061742478773
 20
80.85851355837403
 30
0.0
 11
-19.77061742478773
 21
80.35851355837403
 31
0.0
  0
LINE
  5
1F88
330
1F
100
AcDbEntity
  8
0
  6
HIDDEN
 62
     1
 48
0.02
100
AcDbLine
 10
-18.74561742478627
 20
80.85851355837403
 30
0.0
 11
-18.74561742478627
 21
80.35851355837403
 31
0.0
  0
LINE
  5
1F89
330
1F
100
AcDbEntity
  8
0
  6
HIDDEN
 62
     1
 48
0.02
100
AcDbLine
 10
-20.39561742478773
 20
80.85851355837403
 30
0.0
 11
-19.77061742478773
 21
80.85851355837403
 31
0.0
  0
LINE
  5
1F8A
330
1F
100
AcDbEntity
  8
0
  6
HIDDEN
 62
     1
 48
0.02
100
AcDbLine
 10
-18.74561742478627
 20
80.85851355837403
 30
0.0
 11
-18.12061742478627
 21
80.85851355837403
 31
0.0
  0
LINE
  5
1F8B
330
1F
100
AcDbEntity
  8
0
  6
HIDDEN
 62
     1
 48
0.02
100
AcDbLine
 10
-20.195617424787
 20
80.60851355837403
 30
0.0
 11
-20.195617424787
 21
80.35851355837403
 31
0.0
  0
LINE
  5
1F8C
330
1F
100
AcDbEntity
  8
0
  6
HIDDEN
 62
     1
 48
0.02
100
AcDbLine
 10
-19.945617424787
 20
80.60851355837403
 30
0.0
 11
-19.945617424787
 21
80.35851355837403
 31
0.0
  0
LINE
  5
1F8D
330
1F
100
AcDbEntity
  8
0
  6
HIDDEN
 62
     1
 48
0.02
100
AcDbLine
 10
-20.195617424787
 20
80.60851355837403
 30
0.0
 11
-19.945617424787
 21
80.60851355837403
 31
0.0
  0
LINE
  5
1F8E
330
1F
100
AcDbEntity
  8
0
 48
0.15
100
AcDbLine
 10
-29.72061742478846
 20
67.85851355837585
 30
0.0
 11
-29.72061742478846
 21
91.95272671770736
 31
0.0
  0
LINE
  5
1F8F
330
1F
100
AcDbEntity
  8
0
 62
     1
100
AcDbLine
 10
-29.22061742478937
 20
80.35848961737892
 30
0.0
 11
-26.59561742478937
 21
80.35848961737892
 31
0.0
  0
LINE
  5
1F90
330
1F
100
AcDbEntity
  8
0
 62
     1
100
AcDbLine
 10
-29.22061742478937
 20
80.35848961737892
 30
0.0
 11
-27.04561742478919
 21
80.35848961737892
 31
0.0
  0
LINE
  5
1F91
330
1F
100
AcDbEntity
  8
0
 48
0.15
100
AcDbLine
 10
-28.24561742478901
 20
80.35848961737892
 30
0.0
 11
-27.22061742478937
 21
80.35848961737892
 31
0.0
  0
LINE
  5
1F92
330
1F
100
AcDbEntity
  8
0
 62
     1
100
AcDbLine
 10
-27.17061742478918
 20
80.35848961737892
 30
0.0
 11
-28.2956174247901
 21
80.35848961737892
 31
0.0
  0
LINE
  5
1F93
330
1F
100
AcDbEntity
  8
0
 62
     1
100
AcDbLine
 10
-29.22061742478937
 20
80.3585015878767
 30
0.0
 11
-27.04561742478919
 21
80.3585015878767
 31
0.0
  0
LINE
  5
1F94
330
1F
100
AcDbEntity
  8
0
 62
     1
100
AcDbLine
 10
-28.87061742478901
 20
80.85850158787669
 30
0.0
 11
-28.24561742478901
 21
80.85850158787669
 31
0.0
  0
LINE
  5
1F95
330
1F
100
AcDbEntity
  8
0
 62
     1
100
AcDbLine
 10
-27.22061742478937
 20
80.85850158787669
 30
0.0
 11
-27.22061742479028
 21
80.3585015878767
 31
0.0
  0
LINE
  5
1F96
330
1F
100
AcDbEntity
  8
0
 62
     1
100
AcDbLine
 10
-28.24561742478901
 20
80.85850158787669
 30
0.0
 11
-28.24561742478901
 21
80.3585015878767
 31
0.0
  0
LINE
  5
1F97
330
1F
100
AcDbEntity
  8
0
 62
     1
100
AcDbLine
 10
-27.22061742479028
 20
80.85850158787669
 30
0.0
 11
-26.59561742479028
 21
80.85850158787669
 31
0.0
  0
LINE
  5
1F98
330
1F
100
AcDbEntity
  8
0
 62
     1
100
AcDbLine
 10
-27.0456174247901
 20
80.60850158787671
 30
0.0
 11
-27.0456174247901
 21
80.3585015878767
 31
0.0
  0
LINE
  5
1F99
330
1F
100
AcDbEntity
  8
0
 62
     1
100
AcDbLine
 10
-27.0456174247901
 20
80.60850158787671
 30
0.0
 11
-26.79561742479009
 21
80.60850158787671
 31
0.0
  0
LINE
  5
1F9A
330
1F
100
AcDbEntity
  8
0
 48
0.15
100
AcDbLine
 10
-28.24561742478901
 20
80.3585015878767
 30
0.0
 11
-27.22061742478937
 21
80.3585015878767
 31
0.0
  0
LINE
  5
1F9B
330
1F
100
AcDbEntity
  8
0
 62
     1
100
AcDbLine
 10
-27.17061742478918
 20
80.3585015878767
 30
0.0
 11
-28.2956174247901
 21
80.3585015878767
 31
0.0
  0
LINE
  5
1F9C
330
1F
100
AcDbEntity
  8
0
 62
     1
100
AcDbLine
 10
-18.120617424789
 20
80.85850158787669
 30
0.0
 11
-18.120617424789
 21
80.3585015878767
 31
0.0
  0
LINE
  5
1F9D
330
1F
100
AcDbEntity
  8
0
 62
     1
100
AcDbLine
 10
-19.77061742479046
 20
80.85850158787669
 30
0.0
 11
-19.77061742479046
 21
80.3585015878767
 31
0.0
  0
LINE
  5
1F9E
330
1F
100
AcDbEntity
  8
0
 62
     1
100
AcDbLine
 10
-18.745617424789
 20
80.85850158787669
 30
0.0
 11
-18.745617424789
 21
80.3585015878767
 31
0.0
  0
LINE
  5
1F9F
330
1F
100
AcDbEntity
  8
0
 62
     1
100
AcDbLine
 10
-20.39561742479046
 20
80.85850158787669
 30
0.0
 11
-19.77061742479046
 21
80.85850158787669
 31
0.0
  0
LINE
  5
1FA0
330
1F
100
AcDbEntity
  8
0
 62
     1
100
AcDbLine
 10
-18.745617424789
 20
80.85850158787669
 30
0.0
 11
-18.120617424789
 21
80.85850158787669
 31
0.0
  0
LINE
  5
1FA1
330
1F
100
AcDbEntity
  8
0
 62
     1
100
AcDbLine
 10
-19.94561742478973
 20
80.60850158787671
 30
0.0
 11
-19.94561742478973
 21
80.3585015878767
 31
0.0
  0
LINE
  5
1FA2
330
1F
100
AcDbEntity
  8
0
 62
     1
100
AcDbLine
 10
-20.19561742478973
 20
80.60850158787671
 30
0.0
 11
-19.94561742478973
 21
80.60850158787671
 31
0.0
  0
LINE
  5
1FA3
330
1F
100
AcDbEntity
  8
0
 62
     1
100
AcDbLine
 10
-19.98061742478958
 20
80.3585015878767
 30
0.0
 11
-17.77061742478955
 21
80.3585015878767
 31
0.0
  0
LINE
  5
1FA4
330
1F
100
AcDbEntity
  8
0
 62
     1
100
AcDbLine
 10
-20.39561742479046
 20
80.3585015878767
 30
0.0
 11
-20.19561742478973
 21
80.3585015878767
 31
0.0
  0
LINE
  5
1FA5
330
1F
100
AcDbEntity
  8
0
 62
     1
100
AcDbLine
 10
-29.22061742478937
 20
80.3585015878767
 30
0.0
 11
-26.59561742478937
 21
80.3585015878767
 31
0.0
  0
LINE
  5
1FA6
330
1F
100
AcDbEntity
  8
0
 62
     1
100
AcDbLine
 10
-26.59561742478937
 20
80.85850158787669
 30
0.0
 11
-26.59561742478937
 21
80.3585015878767
 31
0.0
  0
LINE
  5
1FA7
330
1F
100
AcDbEntity
  8
0
  6
HIDDEN
 62
     1
 48
0.02
100
AcDbLine
 10
-28.87061742478901
 20
80.85850158787669
 30
0.0
 11
-28.24561742478901
 21
80.85850158787669
 31
0.0
  0
LINE
  5
1FA8
330
1F
100
AcDbEntity
  8
0
  6
HIDDEN
 62
     1
 48
0.02
100
AcDbLine
 10
-28.87061742478901
 20
80.85850158787669
 30
0.0
 11
-28.87061742478901
 21
80.3585015878767
 31
0.0
  0
LINE
  5
1FA9
330
1F
100
AcDbEntity
  8
0
  6
HIDDEN
 62
     1
 48
0.02
100
AcDbLine
 10
-27.22061742478937
 20
80.85850158787669
 30
0.0
 11
-27.22061742479028
 21
80.3585015878767
 31
0.0
  0
LINE
  5
1FAA
330
1F
100
AcDbEntity
  8
0
  6
HIDDEN
 62
     1
 48
0.02
100
AcDbLine
 10
-28.24561742478901
 20
80.85850158787669
 30
0.0
 11
-28.24561742478901
 21
80.3585015878767
 31
0.0
  0
LINE
  5
1FAB
330
1F
100
AcDbEntity
  8
0
  6
HIDDEN
 62
     1
 48
0.02
100
AcDbLine
 10
-27.22061742479028
 20
80.85850158787669
 30
0.0
 11
-26.59561742479028
 21
80.85850158787669
 31
0.0
  0
LINE
  5
1FAC
330
1F
100
AcDbEntity
  8
0
 62
     1
100
AcDbLine
 10
-20.39561742478864
 20
80.3585015878767
 30
0.0
 11
-17.77061742478955
 21
80.3585015878767
 31
0.0
  0
LINE
  5
1FAD
330
1F
100
AcDbEntity
  8
0
 62
     1
100
AcDbLine
 10
-20.39561742478864
 20
80.85850158787669
 30
0.0
 11
-20.39561742478864
 21
80.3585015878767
 31
0.0
  0
LINE
  5
1FAE
330
1F
100
AcDbEntity
  8
0
  6
HIDDEN
 62
     1
 48
0.02
100
AcDbLine
 10
-18.12061742478718
 20
80.85850158787669
 30
0.0
 11
-18.12061742478718
 21
80.3585015878767
 31
0.0
  0
LINE
  5
1FAF
330
1F
100
AcDbEntity
  8
0
  6
HIDDEN
 62
     1
 48
0.02
100
AcDbLine
 10
-19.77061742478864
 20
80.85850158787669
 30
0.0
 11
-19.77061742478864
 21
80.3585015878767
 31
0.0
  0
LINE
  5
1FB0
330
1F
100
AcDbEntity
  8
0
  6
HIDDEN
 62
     1
 48
0.02
100
AcDbLine
 10
-18.74561742478718
 20
80.85850158787669
 30
0.0
 11
-18.74561742478718
 21
80.3585015878767
 31
0.0
  0
LINE
  5
1FB1
330
1F
100
AcDbEntity
  8
0
  6
HIDDEN
 62
     1
 48
0.02
100
AcDbLine
 10
-20.39561742478864
 20
80.85850158787669
 30
0.0
 11
-19.77061742478864
 21
80.85850158787669
 31
0.0
  0
LINE
  5
1FB2
330
1F
100
AcDbEntity
  8
0
  6
HIDDEN
 62
     1
 48
0.02
100
AcDbLine
 10
-18.74561742478718
 20
80.85850158787669
 30
0.0
 11
-18.12061742478718
 21
80.85850158787669
 31
0.0
  0
LINE
  5
1FB3
330
1F
100
AcDbEntity
  8
0
  6
HIDDEN
 62
     1
 48
0.02
100
AcDbLine
 10
-20.19561742478791
 20
80.60850158787671
 30
0.0
 11
-20.19561742478791
 21
80.3585015878767
 31
0.0
  0
LINE
  5
1FB4
330
1F
100
AcDbEntity
  8
0
  6
HIDDEN
 62
     1
 48
0.02
100
AcDbLine
 10
-19.94561742478791
 20
80.60850158787671
 30
0.0
 11
-19.94561742478791
 21
80.3585015878767
 31
0.0
  0
LINE
  5
1FB5
330
1F
100
AcDbEntity
  8
0
  6
HIDDEN
 62
     1
 48
0.02
100
AcDbLine
 10
-20.19561742478791
 20
80.60850158787671
 30
0.0
 11
-19.94561742478791
 21
80.60850158787671
 31
0.0
  0
LINE
  5
1FB6
330
1F
100
AcDbEntity
  8
0
 62
     1
100
AcDbLine
 10
-28.46543751896471
 20
92.35848961737891
 30
0.0
 11
-26.59561742478937
 21
92.35848961737891
 31
0.0
  0
LINE
  5
1FB7
330
1F
100
AcDbEntity
  8
0
 62
     1
100
AcDbLine
 10
-28.46543751896561
 20
92.35848961737891
 30
0.0
 11
-27.04561742478919
 21
92.35848961737891
 31
0.0
  0
LINE
  5
1FB8
330
1F
100
AcDbEntity
  8
0
 62
     1
100
AcDbLine
 10
-26.79561742479009
 20
92.35848961737891
 30
0.0
 11
-26.59561742479028
 21
92.35848961737891
 31
0.0
  0
LINE
  5
1FB9
330
1F
100
AcDbEntity
  8
0
 48
0.15
100
AcDbLine
 10
-28.24561742478901
 20
92.35848961737891
 30
0.0
 11
-27.22061742478937
 21
92.35848961737891
 31
0.0
  0
LINE
  5
1FBA
330
1F
100
AcDbEntity
  8
0
 62
     1
100
AcDbLine
 10
-27.17061742478918
 20
92.35848961737891
 30
0.0
 11
-28.2956174247901
 21
92.35848961737891
 31
0.0
  0
LINE
  5
1FBB
330
1F
100
AcDbEntity
  8
0
 62
     1
100
AcDbLine
 10
-29.22061742478937
 20
92.11436207284268
 30
0.0
 11
-29.22061742478937
 21
80.3585015878767
 31
0.0
  0
LINE
  5
1FBC
330
1F
100
AcDbEntity
  8
0
 62
     1
100
AcDbLine
 10
-28.46540048963462
 20
92.35850158787716
 30
0.0
 11
-27.04561742478919
 21
92.3585015878767
 31
0.0
  0
LINE
  5
1FBD
330
1F
100
AcDbEntity
  8
0
 62
     1
100
AcDbLine
 10
-26.59561742478937
 20
92.94112836858912
 30
0.0
 11
-26.59561742478937
 21
80.3585015878767
 31
0.0
  0
LINE
  5
1FBE
330
1F
100
AcDbEntity
  8
0
 62
     1
100
AcDbLine
 10
-28.87061742478901
 20
92.22750682143677
 30
0.0
 11
-28.87061742478901
 21
80.3585015878767
 31
0.0
  0
LINE
  5
1FBF
330
1F
100
AcDbEntity
  8
0
 62
     1
100
AcDbLine
 10
-27.22061742479028
 20
92.76090349337991
 30
0.0
 11
-27.22061742479028
 21
92.3585015878767
 31
0.0
  0
LINE
  5
1FC0
330
1F
100
AcDbEntity
  8
0
 62
     1
100
AcDbLine
 10
-28.24561742478901
 20
92.4295510153548
 30
0.0
 11
-28.24561742478901
 21
92.3585015878767
 31
0.0
  0
LINE
  5
1FC1
330
1F
100
AcDbEntity
  8
0
 62
     1
100
AcDbLine
 10
-26.91870917453244
 20
92.8585015878767
 30
0.0
 11
-26.59561742479028
 21
92.8585015878767
 31
0.0
  0
LINE
  5
1FC2
330
1F
100
AcDbEntity
  8
0
 62
     1
100
AcDbLine
 10
-26.79561742479009
 20
92.8734452664681
 30
0.0
 11
-26.79561742479009
 21
80.3585015878767
 31
0.0
  0
LINE
  5
1FC3
330
1F
100
AcDbEntity
  8
0
 62
     1
100
AcDbLine
 10
-27.0456174247901
 20
92.6085015878767
 30
0.0
 11
-27.0456174247901
 21
92.3585015878767
 31
0.0
  0
LINE
  5
1FC4
330
1F
100
AcDbEntity
  8
0
 62
     1
100
AcDbLine
 10
-27.0456174247901
 20
92.6085015878767
 30
0.0
 11
-26.79561742479009
 21
92.6085015878767
 31
0.0
  0
LINE
  5
1FC5
330
1F
100
AcDbEntity
  8
0
 62
     1
100
AcDbLine
 10
-26.79561742479009
 20
92.3585015878767
 30
0.0
 11
-26.59561742479028
 21
92.3585015878767
 31
0.0
  0
LINE
  5
1FC6
330
1F
100
AcDbEntity
  8
0
 48
0.15
100
AcDbLine
 10
-28.24561742478901
 20
92.3585015878767
 30
0.0
 11
-27.22061742478937
 21
92.3585015878767
 31
0.0
  0
LINE
  5
1FC7
330
1F
100
AcDbEntity
  8
A2 Hatch
  6
DASHED2
 48
0.15
100
AcDbLine
 10
-28.45561742479086
 20
92.36166416619798
 30
0.0
 11
-28.45561742478995
 21
80.3585015878767
 31
0.0
  0
LINE
  5
1FC8
330
1F
100
AcDbEntity
  8
A2 Hatch
  6
DASHED2
 48
0.15
100
AcDbLine
 10
-27.01061742479024
 20
92.82879034253673
 30
0.0
 11
-27.01061742478933
 21
80.3585015878767
 31
0.0
  0
LINE
  5
1FC9
330
1F
100
AcDbEntity
  8
0
 62
     1
100
AcDbLine
 10
-28.29561742478919
 20
92.41338747984181
 30
0.0
 11
-28.29561742478919
 21
80.3585015878767
 31
0.0
  0
LINE
  5
1FCA
330
1F
100
AcDbEntity
  8
0
 62
     1
100
AcDbLine
 10
-27.17061742478918
 20
92.77706702889426
 30
0.0
 11
-27.17061742478918
 21
80.3585015878767
 31
0.0
  0
LINE
  5
1FCB
330
1F
100
AcDbEntity
  8
0
 62
     1
100
AcDbLine
 10
-27.17061742478918
 20
92.3585015878767
 30
0.0
 11
-28.2956174247901
 21
92.3585015878767
 31
0.0
  0
ARC
  5
1FCC
330
1F
100
AcDbEntity
  8
DETAILS
 62
     6
370
    20
100
AcDbCircle
 10
-26.59561742478846
 20
84.52177980972882
 30
0.0
 40
0.0999999999999136
100
AcDbArc
 50
179.9999999996873
 51
209.7448812965932
  0
LINE
  5
1FCD
330
1F
100
AcDbEntity
  8
DETAILS
 62
     6
370
    20
100
AcDbLine
 10
-26.69561742478973
 20
86.6085015878767
 30
0.0
 11
-20.29561742479101
 21
86.6085015878767
 31
0.0
  0
LINE
  5
1FCE
330
1F
100
AcDbEntity
  8
0
 62
     1
100
AcDbLine
 10
-17.77061742478955
 20
95.92764524967524
 30
0.0
 11
-17.77061742478955
 21
80.3585015878767
 31
0.0
  0
LINE
  5
1FCF
330
1F
100
AcDbEntity
  8
0
 62
     1
100
AcDbLine
 10
-20.39561742479046
 20
92.8585015878767
 30
0.0
 11
-20.39561742478955
 21
80.3585015878767
 31
0.0
  0
LINE
  5
1FD0
330
1F
100
AcDbEntity
  8
0
 62
     1
100
AcDbLine
 10
-18.120617424789
 20
92.8585015878767
 30
0.0
 11
-18.120617424789
 21
92.3585015878767
 31
0.0
  0
LINE
  5
1FD1
330
1F
100
AcDbEntity
  8
0
 62
     1
100
AcDbLine
 10
-19.77061742479046
 20
92.8585015878767
 30
0.0
 11
-19.77061742479046
 21
92.3585015878767
 31
0.0
  0
LINE
  5
1FD2
330
1F
100
AcDbEntity
  8
0
 62
     1
100
AcDbLine
 10
-18.745617424789
 20
92.8585015878767
 30
0.0
 11
-18.745617424789
 21
92.3585015878767
 31
0.0
  0
LINE
  5
1FD3
330
1F
100
AcDbEntity
  8
0
 62
     1
100
AcDbLine
 10
-20.39561742479046
 20
92.8585015878767
 30
0.0
 11
-19.77061742479046
 21
92.8585015878767
 31
0.0
  0
LINE
  5
1FD4
330
1F
100
AcDbEntity
  8
0
 62
     1
100
AcDbLine
 10
-18.745617424789
 20
92.8585015878767
 30
0.0
 11
-18.120617424789
 21
92.8585015878767
 31
0.0
  0
LINE
  5
1FD5
330
1F
100
AcDbEntity
  8
0
 62
     1
100
AcDbLine
 10
-20.19561742478973
 20
95.1069876364596
 30
0.0
 11
-20.19561742478973
 21
80.3585015878767
 31
0.0
  0
LINE
  5
1FD6
330
1F
100
AcDbEntity
  8
0
 62
     1
100
AcDbLine
 10
-19.94561742478973
 20
92.6085015878767
 30
0.0
 11
-19.94561742478973
 21
92.3585015878767
 31
0.0
  0
LINE
  5
1FD7
330
1F
100
AcDbEntity
  8
0
 62
     1
100
AcDbLine
 10
-20.19561742478973
 20
92.6085015878767
 30
0.0
 11
-19.94561742478973
 21
92.6085015878767
 31
0.0
  0
LINE
  5
1FD8
330
1F
100
AcDbEntity
  8
0
 62
     1
100
AcDbLine
 10
-19.98061742478958
 20
92.3585015878767
 30
0.0
 11
-17.77061742478955
 21
92.3585015878767
 31
0.0
  0
LINE
  5
1FD9
330
1F
100
AcDbEntity
  8
0
 62
     1
100
AcDbLine
 10
-19.98061742478958
 20
95.17974697123836
 30
0.0
 11
-19.98061742478958
 21
80.3585015878767
 31
0.0
  0
LINE
  5
1FDA
330
1F
100
AcDbEntity
  8
0
 62
     1
100
AcDbLine
 10
-18.53561742479078
 20
95.66875738406187
 30
0.0
 11
-18.53561742478987
 21
80.3585015878767
 31
0.0
  0
LINE
  5
1FDB
330
1F
100
AcDbEntity
  8
A2 Hatch
  6
DASHED2
 48
0.15
100
AcDbLine
 10
-19.82061742478973
 20
95.23389345293535
 30
0.0
 11
-19.82061742478973
 21
80.3585015878767
 31
0.0
  0
LINE
  5
1FDC
330
1F
100
AcDbEntity
  8
A2 Hatch
  6
DASHED2
 48
0.15
100
AcDbLine
 10
-18.69561742478973
 20
95.6146109023658
 30
0.0
 11
-18.69561742478973
 21
80.3585015878767
 31
0.0
  0
LINE
  5
1FDD
330
1F
100
AcDbEntity
  8
0
 62
     1
100
AcDbLine
 10
-20.39561742479046
 20
92.3585015878767
 30
0.0
 11
-20.19561742478973
 21
92.3585015878767
 31
0.0
  0
LINE
  5
1FDE
330
1F
100
AcDbEntity
  8
DETAILS
 62
     6
370
    20
100
AcDbLine
 10
-26.69561742478882
 20
91.9835015878767
 30
0.0
 11
-26.69561742478973
 21
81.28575529650252
 31
0.0
  0
LINE
  5
1FDF
330
1F
100
AcDbEntity
  8
DETAILS
 62
     6
370
    20
100
AcDbLine
 10
-26.02061742478864
 20
87.22850158787659
 30
0.0
 11
-25.50123530088141
 21
87.22850158787659
 31
0.0
  0
ARC
  5
1FE0
330
1F
100
AcDbEntity
  8
DETAILS
 62
     6
370
    20
100
AcDbCircle
 10
-25.50123530088232
 20
87.37850158787669
 30
0.0
 40
0.1500000000000909
100
AcDbArc
 50
270.0000000001563
 51
43.83086067193248
  0
LINE
  5
1FE1
330
1F
100
AcDbEntity
  8
DETAILS
 62
     6
370
    20
100
AcDbLine
 10
-25.39302720272636
 20
87.48238136210474
 30
0.0
 11
-25.91240932663268
 21
88.02340440784119
 31
0.0
  0
ARC
  5
1FE2
330
1F
100
AcDbEntity
  8
DETAILS
 62
     6
370
    20
100
AcDbCircle
 10
-26.02061742478773
 20
87.91952463361267
 30
0.0
 40
0.1499999999999651
100
AcDbArc
 50
43.83086067209848
 51
179.9999999999739
  0
LINE
  5
1FE3
330
1F
100
AcDbEntity
  8
DETAILS
 62
     6
370
    20
100
AcDbLine
 10
-26.17061742478828
 20
87.91952463361267
 30
0.0
 11
-26.17061742478828
 21
87.37850158787622
 31
0.0
  0
ARC
  5
1FE4
330
1F
100
AcDbEntity
  8
DETAILS
 62
     6
370
    20
100
AcDbCircle
 10
-26.02061742478864
 20
87.37850158787622
 30
0.0
 40
0.1499999999996362
100
AcDbArc
 50
179.9999999999479
 51
270.0000000001563
  0
LINE
  5
1FE5
330
1F
100
AcDbEntity
  8
DETAILS
 62
     6
370
    20
100
AcDbLine
 10
-26.17061742478828
 20
85.85850158787669
 30
0.0
 11
-26.17061742478828
 21
85.31747854214026
 31
0.0
  0
ARC
  5
1FE6
330
1F
100
AcDbEntity
  8
DETAILS
 62
     6
370
    20
100
AcDbCircle
 10
-26.02061742478773
 20
85.31747854214026
 30
0.0
 40
0.1500000000000909
100
AcDbArc
 50
180.000000000026
 51
316.1691393279015
  0
LINE
  5
1FE7
330
1F
100
AcDbEntity
  8
DETAILS
 62
     6
370
    20
100
AcDbLine
 10
-25.91240932663268
 20
85.21359876791221
 30
0.0
 11
-25.39302720272636
 21
85.75462181364818
 31
0.0
  0
ARC
  5
1FE8
330
1F
100
AcDbEntity
  8
DETAILS
 62
     6
370
    20
100
AcDbCircle
 10
-25.50123530088232
 20
85.85850158787669
 30
0.0
 40
0.1500000000001751
100
AcDbArc
 50
316.1691393280675
 51
89.99999999984366
  0
LINE
  5
1FE9
330
1F
100
AcDbEntity
  8
DETAILS
 62
     6
370
    20
100
AcDbLine
 10
-25.50123530088141
 20
86.00850158787634
 30
0.0
 11
-26.02061742478864
 21
86.00850158787634
 31
0.0
  0
ARC
  5
1FEA
330
1F
100
AcDbEntity
  8
DETAILS
 62
     6
370
    20
100
AcDbCircle
 10
-26.02061742478864
 20
85.85850158787669
 30
0.0
 40
0.1499999999998636
100
AcDbArc
 50
89.99999999984366
 51
180.0000000000521
  0
LINE
  5
1FEB
330
1F
100
AcDbEntity
  8
DETAILS
 62
     6
370
    20
100
AcDbLine
 10
-26.02061742478864
 20
87.27850158787678
 30
0.0
 11
-25.50123530088141
 21
87.27850158787678
 31
0.0
  0
ARC
  5
1FEC
330
1F
100
AcDbEntity
  8
DETAILS
 62
     6
370
    20
100
AcDbCircle
 10
-25.50123530088141
 20
87.37850158787622
 30
0.0
 40
0.1000000000000227
100
AcDbArc
 50
270.0
 51
43.83086067200606
  0
LINE
  5
1FED
330
1F
100
AcDbEntity
  8
DETAILS
 62
     6
370
    20
100
AcDbLine
 10
-25.42909656877774
 20
87.44775477069524
 30
0.0
 11
-25.94847869268406
 21
87.98877781643168
 31
0.0
  0
ARC
  5
1FEE
330
1F
100
AcDbEntity
  8
DETAILS
 62
     6
370
    20
100
AcDbCircle
 10
-26.02061742478773
 20
87.91952463361267
 30
0.0
 40
0.1000000000001123
100
AcDbArc
 50
43.8308606720609
 51
180.0
  0
LINE
  5
1FEF
330
1F
100
AcDbEntity
  8
DETAILS
 62
     6
370
    20
100
AcDbLine
 10
-26.12061742478719
 20
87.91952463361267
 30
0.0
 11
-26.1206174247881
 21
87.37850158787622
 31
0.0
  0
ARC
  5
1FF0
330
1F
100
AcDbEntity
  8
DETAILS
 62
     6
370
    20
100
AcDbCircle
 10
-26.02061742478773
 20
87.37850158787669
 30
0.0
 40
0.1000000000003638
100
AcDbArc
 50
180.0000000001302
 51
269.9999999997394
  0
LINE
  5
1FF1
330
1F
100
AcDbEntity
  8
DETAILS
 62
     6
370
    20
100
AcDbLine
 10
-26.1206174247881
 20
85.85850158787669
 30
0.0
 11
-26.12061742478719
 21
85.31747854214026
 31
0.0
  0
ARC
  5
1FF2
330
1F
100
AcDbEntity
  8
DETAILS
 62
     6
370
    20
100
AcDbCircle
 10
-26.02061742478773
 20
85.31747854214026
 30
0.0
 40
0.0999999999999091
100
AcDbArc
 50
179.9999999999739
 51
316.1691393279939
  0
LINE
  5
1FF3
330
1F
100
AcDbEntity
  8
DETAILS
 62
     6
370
    20
100
AcDbLine
 10
-25.94847869268406
 20
85.24822535932171
 30
0.0
 11
-25.42909656877774
 21
85.78924840505768
 31
0.0
  0
ARC
  5
1FF4
330
1F
100
AcDbEntity
  8
DETAILS
 62
     6
370
    20
100
AcDbCircle
 10
-25.50123530088141
 20
85.85850158787669
 30
0.0
 40
0.1000000000000336
100
AcDbArc
 50
316.1691393279939
 51
90.0
  0
LINE
  5
1FF5
330
1F
100
AcDbEntity
  8
DETAILS
 62
     6
370
    20
100
AcDbLine
 10
-25.50123530088141
 20
85.9585015878766
 30
0.0
 11
-26.02061742478864
 21
85.9585015878766
 31
0.0
  0
ARC
  5
1FF6
330
1F
100
AcDbEntity
  8
DETAILS
 62
     6
370
    20
100
AcDbCircle
 10
-26.02061742478773
 20
85.85850158787625
 30
0.0
 40
0.1000000000001364
100
AcDbArc
 50
90.00000000026055
 51
179.9999999998697
  0
LINE
  5
1FF7
330
1F
100
AcDbEntity
  8
DETAILS
 62
     6
370
    20
100
AcDbLine
 10
-20.29561742479101
 20
91.9835015878767
 30
0.0
 11
-20.2956174247901
 21
81.28575529650252
 31
0.0
  0
LINE
  5
1FF8
330
1F
100
AcDbEntity
  8
DETAILS
 62
     6
370
    20
100
AcDbLine
 10
-20.82061742479155
 20
87.37850158787622
 30
0.0
 11
-20.82061742479155
 21
87.91952463361267
 31
0.0
  0
ARC
  5
1FF9
330
1F
100
AcDbEntity
  8
DETAILS
 62
     6
370
    20
100
AcDbCircle
 10
-20.9706174247921
 20
87.91952463361267
 30
0.0
 40
0.1500000000000909
100
AcDbArc
 50
0.0000000000260551
 51
136.1691393279015
  0
LINE
  5
1FFA
330
1F
100
AcDbEntity
  8
DETAILS
 62
     6
370
    20
100
AcDbLine
 10
-21.07882552294714
 20
88.02340440784119
 30
0.0
 11
-21.59820764685347
 21
87.48238136210474
 31
0.0
  0
ARC
  5
1FFB
330
1F
100
AcDbEntity
  8
DETAILS
 62
     6
370
    20
100
AcDbCircle
 10
-21.48999954869751
 20
87.37850158787669
 30
0.0
 40
0.1500000000001751
100
AcDbArc
 50
136.1691393280675
 51
269.9999999998437
  0
LINE
  5
1FFC
330
1F
100
AcDbEntity
  8
DETAILS
 62
     6
370
    20
100
AcDbLine
 10
-21.48999954869842
 20
87.22850158787659
 30
0.0
 11
-20.97061742479119
 21
87.22850158787659
 31
0.0
  0
ARC
  5
1FFD
330
1F
100
AcDbEntity
  8
DETAILS
 62
     6
370
    20
100
AcDbCircle
 10
-20.97061742479119
 20
87.37850158787622
 30
0.0
 40
0.1499999999998067
100
AcDbArc
 50
269.9999999998437
 51
0.0000000000781653
  0
LINE
  5
1FFE
330
1F
100
AcDbEntity
  8
DETAILS
 62
     6
370
    20
100
AcDbLine
 10
-20.97061742479119
 20
86.00850158787634
 30
0.0
 11
-21.48999954869842
 21
86.00850158787634
 31
0.0
  0
ARC
  5
1FFF
330
1F
100
AcDbEntity
  8
DETAILS
 62
     6
370
    20
100
AcDbCircle
 10
-21.48999954869751
 20
85.85850158787669
 30
0.0
 40
0.1500000000001478
100
AcDbArc
 50
90.00000000015633
 51
223.8308606719325
  0
LINE
  5
2000
330
1F
100
AcDbEntity
  8
DETAILS
 62
     6
370
    20
100
AcDbLine
 10
-21.59820764685347
 20
85.75462181364818
 30
0.0
 11
-21.07882552294714
 21
85.21359876791221
 31
0.0
  0
ARC
  5
2001
330
1F
100
AcDbEntity
  8
DETAILS
 62
     6
370
    20
100
AcDbCircle
 10
-20.9706174247921
 20
85.31747854214026
 30
0.0
 40
0.1499999999999651
100
AcDbArc
 50
223.8308606720985
 51
359.999999999974
  0
LINE
  5
2002
330
1F
100
AcDbEntity
  8
DETAILS
 62
     6
370
    20
100
AcDbLine
 10
-20.82061742479155
 20
85.31747854214026
 30
0.0
 11
-20.82061742479155
 21
85.85850158787669
 31
0.0
  0
ARC
  5
2003
330
1F
100
AcDbEntity
  8
DETAILS
 62
     6
370
    20
100
AcDbCircle
 10
-20.97061742479119
 20
85.85850158787669
 30
0.0
 40
0.1499999999996362
100
AcDbArc
 50
359.9999999999218
 51
90.00000000015633
  0
ARC
  5
2004
330
1F
100
AcDbEntity
  8
DETAILS
 62
     6
370
    20
100
AcDbCircle
 10
-25.02070832705423
 20
85.10350158787659
 30
0.0
 40
0.010000000000022
100
AcDbArc
 50
97.40989078445366
 51
262.5901092155463
  0
LINE
  5
2005
330
1F
100
AcDbEntity
  8
DETAILS
 62
     6
370
    20
100
AcDbLine
 10
-25.02199799489054
 20
85.09358509873582
 30
0.0
 11
-24.86588790528723
 21
85.0785015878765
 31
0.0
  0
LINE
  5
2006
330
1F
100
AcDbEntity
  8
DETAILS
 62
     6
370
    20
100
AcDbLine
 10
-24.86588790528723
 20
85.0785015878765
 30
0.0
 11
-23.49561742478991
 21
85.0785015878765
 31
0.0
  0
LINE
  5
2007
330
1F
100
AcDbEntity
  8
DETAILS
 62
     6
370
    20
100
AcDbLine
 10
-23.49561742478991
 20
85.0785015878765
 30
0.0
 11
-22.1253469442926
 21
85.0785015878765
 31
0.0
  0
LINE
  5
2008
330
1F
100
AcDbEntity
  8
DETAILS
 62
     6
370
    20
100
AcDbLine
 10
-22.1253469442926
 20
85.0785015878765
 30
0.0
 11
-21.96923685468929
 21
85.09358509873582
 31
0.0
  0
ARC
  5
2009
330
1F
100
AcDbEntity
  8
DETAILS
 62
     6
370
    20
100
AcDbCircle
 10
-21.9705265225256
 20
85.10350158787659
 30
0.0
 40
0.0099999999999656
100
AcDbArc
 50
277.4098907844536
 51
82.59010921554635
  0
LINE
  5
200A
330
1F
100
AcDbEntity
  8
DETAILS
 62
     6
370
    20
100
AcDbLine
 10
-21.96923685468929
 20
85.11341807701692
 30
0.0
 11
-22.12534694429169
 21
85.12850158787669
 31
0.0
  0
LINE
  5
200B
330
1F
100
AcDbEntity
  8
DETAILS
 62
     6
370
    20
100
AcDbLine
 10
-22.12534694429169
 20
85.12850158787669
 30
0.0
 11
-23.49561742478991
 21
85.12850158787669
 31
0.0
  0
LINE
  5
200C
330
1F
100
AcDbEntity
  8
DETAILS
 62
     6
370
    20
100
AcDbLine
 10
-23.49561742478991
 20
85.12850158787669
 30
0.0
 11
-24.86588790528723
 21
85.12850158787623
 31
0.0
  0
LINE
  5
200D
330
1F
100
AcDbEntity
  8
DETAILS
 62
     6
370
    20
100
AcDbLine
 10
-24.86588790528723
 20
85.12850158787623
 30
0.0
 11
-25.02199799489054
 21
85.11341807701692
 31
0.0
  0
ARC
  5
200E
330
1F
100
AcDbEntity
  8
DETAILS
 62
     6
370
    20
100
AcDbCircle
 10
-21.61323921240174
 20
88.83850158787671
 30
0.0
 40
0.1000000000001364
100
AcDbArc
 50
270.0000000002606
 51
316.1691393281413
  0
LINE
  5
200F
330
1F
100
AcDbEntity
  8
DETAILS
 62
     6
370
    20
100
AcDbLine
 10
-21.54110048029716
 20
88.7692484050577
 30
0.0
 11
-20.42347869268898
 21
89.95947943381779
 31
0.0
  0
ARC
  5
2010
330
1F
100
AcDbEntity
  8
DETAILS
 62
     6
370
    20
100
AcDbCircle
 10
-20.49561742478991
 20
90.0287326166368
 30
0.0
 40
0.0999999999994431
100
AcDbArc
 50
316.1691393272021
 51
359.9999999992444
  0
ARC
  5
2011
330
1F
100
AcDbEntity
  8
DETAILS
 62
     6
370
    20
100
AcDbCircle
 10
-26.49562430447705
 20
90.02873261663543
 30
0.0
 40
0.0999999999999091
100
AcDbArc
 50
179.9999999998697
 51
223.8308606719873
  0
LINE
  5
2012
330
1F
100
AcDbEntity
  8
DETAILS
 62
     6
370
    20
100
AcDbLine
 10
-26.56776303657981
 20
89.95947943381688
 30
0.0
 11
-25.45013436928267
 21
88.7692484050577
 31
0.0
  0
ARC
  5
2013
330
1F
100
AcDbEntity
  8
DETAILS
 62
     6
370
    20
100
AcDbCircle
 10
-25.377995637179
 20
88.83850158787671
 30
0.0
 40
0.1000000000001911
100
AcDbArc
 50
223.8308606721347
 51
270.0
  0
LINE
  5
2014
330
1F
100
AcDbEntity
  8
DETAILS
 62
     6
370
    20
100
AcDbLine
 10
-25.377995637179
 20
88.7385015878768
 30
0.0
 11
-25.37061742478901
 21
88.7385015878768
 31
0.0
  0
LINE
  5
2015
330
1F
100
AcDbEntity
  8
DETAILS
 62
     6
370
    20
100
AcDbLine
 10
-25.37061742478901
 20
88.7385015878768
 30
0.0
 11
-25.37061742478901
 21
88.68850158787664
 31
0.0
  0
LINE
  5
2016
330
1F
100
AcDbEntity
  8
DETAILS
 62
     6
370
    20
100
AcDbLine
 10
-25.37061742478901
 20
88.68850158787664
 30
0.0
 11
-25.27061742478864
 21
88.68850158787664
 31
0.0
  0
ARC
  5
2017
330
1F
100
AcDbEntity
  8
DETAILS
 62
     6
370
    20
100
AcDbCircle
 10
-25.27061742478864
 20
88.63850158787645
 30
0.0
 40
0.0500000000001819
100
AcDbArc
 50
359.9999999998697
 51
90.0
  0
LINE
  5
2018
330
1F
100
AcDbEntity
  8
DETAILS
 62
     6
370
    20
100
AcDbLine
 10
-25.22061742478755
 20
88.63850158787645
 30
0.0
 11
-25.22061742478937
 21
88.58350158787661
 31
0.0
  0
ARC
  5
2019
330
1F
100
AcDbEntity
  8
DETAILS
 62
     6
370
    20
100
AcDbCircle
 10
-24.79561742478828
 20
88.58350158787615
 30
0.0
 40
0.4250000000001819
100
AcDbArc
 50
179.9999999999739
 51
359.999999999974
  0
LINE
  5
201A
330
1F
100
AcDbEntity
  8
DETAILS
 62
     6
370
    20
100
AcDbLine
 10
-24.370617424789
 20
88.58350158787615
 30
0.0
 11
-24.370617424789
 21
88.63850158787645
 31
0.0
  0
ARC
  5
201B
330
1F
100
AcDbEntity
  8
DETAILS
 62
     6
370
    20
100
AcDbCircle
 10
-24.32061742478882
 20
88.63850158787645
 30
0.0
 40
0.0500000000001819
100
AcDbArc
 50
90.0
 51
179.9999999996613
  0
LINE
  5
201C
330
1F
100
AcDbEntity
  8
DETAILS
 62
     6
370
    20
100
AcDbLine
 10
-24.32061742478882
 20
88.68850158787664
 30
0.0
 11
-23.97061742478937
 21
88.68850158787664
 31
0.0
  0
ARC
  5
201D
330
1F
100
AcDbEntity
  8
DETAILS
 62
     6
370
    20
100
AcDbCircle
 10
-23.97061742478937
 20
88.63850158787645
 30
0.0
 40
0.0500000000001819
100
AcDbArc
 50
359.9999999998697
 51
90.0
  0
LINE
  5
201E
330
1F
100
AcDbEntity
  8
DETAILS
 62
     6
370
    20
100
AcDbLine
 10
-23.92061742478919
 20
88.63850158787645
 30
0.0
 11
-23.92061742479009
 21
88.58350158787343
 31
0.0
  0
ARC
  5
201F
330
1F
100
AcDbEntity
  8
DETAILS
 62
     6
370
    20
100
AcDbCircle
 10
-23.49561742478901
 20
88.58350158787343
 30
0.0
 40
0.4250000000001819
100
AcDbArc
 50
180.0
 51
270.0
  0
ARC
  5
2020
330
1F
100
AcDbEntity
  8
DETAILS
 62
     6
370
    20
100
AcDbCircle
 10
-23.49561742478991
 20
88.58350158787343
 30
0.0
 40
0.4249999999997272
100
AcDbArc
 50
270.0000000000521
 51
0.0000000000521102
  0
LINE
  5
2021
330
1F
100
AcDbEntity
  8
DETAILS
 62
     6
370
    20
100
AcDbLine
 10
-23.07061742478973
 20
88.58350158787343
 30
0.0
 11
-23.07061742479064
 21
88.63850158787645
 31
0.0
  0
ARC
  5
2022
330
1F
100
AcDbEntity
  8
DETAILS
 62
     6
370
    20
100
AcDbCircle
 10
-23.02061742479046
 20
88.63850158787645
 30
0.0
 40
0.0500000000001819
100
AcDbArc
 50
90.0
 51
180.0
  0
LINE
  5
2023
330
1F
100
AcDbEntity
  8
DETAILS
 62
     6
370
    20
100
AcDbLine
 10
-23.02061742479046
 20
88.68850158787664
 30
0.0
 11
-22.670617424791
 21
88.68850158787664
 31
0.0
  0
ARC
  5
2024
330
1F
100
AcDbEntity
  8
DETAILS
 62
     6
370
    20
100
AcDbCircle
 10
-22.670617424791
 20
88.63850158787645
 30
0.0
 40
0.0500000000001819
100
AcDbArc
 50
0.000000000260551
 51
90.0
  0
LINE
  5
2025
330
1F
100
AcDbEntity
  8
DETAILS
 62
     6
370
    20
100
AcDbLine
 10
-22.62061742479082
 20
88.63850158787645
 30
0.0
 11
-22.62061742479082
 21
88.58350158787615
 31
0.0
  0
ARC
  5
2026
330
1F
100
AcDbEntity
  8
DETAILS
 62
     6
370
    20
100
AcDbCircle
 10
-22.19561742479064
 20
88.58350158787615
 30
0.0
 40
0.4249999999997272
100
AcDbArc
 50
180.000000000026
 51
0.0000000000260551
  0
LINE
  5
2027
330
1F
100
AcDbEntity
  8
DETAILS
 62
     6
370
    20
100
AcDbLine
 10
-21.77061742479046
 20
88.58350158787661
 30
0.0
 11
-21.77061742479228
 21
88.63850158787645
 31
0.0
  0
ARC
  5
2028
330
1F
100
AcDbEntity
  8
DETAILS
 62
     6
370
    20
100
AcDbCircle
 10
-21.72061742479119
 20
88.63850158787645
 30
0.0
 40
0.0500000000001819
100
AcDbArc
 50
90.0
 51
180.0
  0
LINE
  5
2029
330
1F
100
AcDbEntity
  8
DETAILS
 62
     6
370
    20
100
AcDbLine
 10
-21.72061742479119
 20
88.68850158787664
 30
0.0
 11
-21.62061742479082
 21
88.68850158787664
 31
0.0
  0
LINE
  5
202A
330
1F
100
AcDbEntity
  8
DETAILS
 62
     6
370
    20
100
AcDbLine
 10
-21.62061742479082
 20
88.68850158787664
 30
0.0
 11
-21.62061742479082
 21
88.7385015878768
 31
0.0
  0
LINE
  5
202B
330
1F
100
AcDbEntity
  8
DETAILS
 62
     6
370
    20
100
AcDbLine
 10
-21.62061742479082
 20
88.7385015878768
 30
0.0
 11
-21.61323921240083
 21
88.7385015878768
 31
0.0
  0
LINE
  5
202C
330
1F
100
AcDbEntity
  8
DETAILS
 62
     6
370
    20
100
AcDbLine
 10
-21.61323921240083
 20
88.7385015878768
 30
0.0
 11
-21.77061742479137
 21
88.7385015878768
 31
0.0
  0
ARC
  5
202D
330
1F
100
AcDbEntity
  8
DETAILS
 62
     6
370
    20
100
AcDbCircle
 10
-21.77061742479137
 20
88.68850158787664
 30
0.0
 40
0.0500000000001819
100
AcDbArc
 50
90.0
 51
179.9999999998697
  0
LINE
  5
202E
330
1F
100
AcDbEntity
  8
DETAILS
 62
     6
370
    20
100
AcDbLine
 10
-21.82061742479155
 20
88.68850158787664
 30
0.0
 11
-21.82061742479155
 21
88.58350158787661
 31
0.0
  0
ARC
  5
202F
330
1F
100
AcDbEntity
  8
DETAILS
 62
     6
370
    20
100
AcDbCircle
 10
-22.19561742479155
 20
88.58350158787615
 30
0.0
 40
0.375
100
AcDbArc
 50
180.0
 51
0.0
  0
LINE
  5
2030
330
1F
100
AcDbEntity
  8
DETAILS
 62
     6
370
    20
100
AcDbLine
 10
-22.57061742479155
 20
88.58350158787615
 30
0.0
 11
-22.57061742479155
 21
88.68850158787664
 31
0.0
  0
ARC
  5
2031
330
1F
100
AcDbEntity
  8
DETAILS
 62
     6
370
    20
100
AcDbCircle
 10
-22.62061742479082
 20
88.68850158787664
 30
0.0
 40
0.0500000000001819
100
AcDbArc
 50
0.0000000001302755
 51
90.0
  0
LINE
  5
2032
330
1F
100
AcDbEntity
  8
DETAILS
 62
     6
370
    20
100
AcDbLine
 10
-22.62061742479082
 20
88.7385015878768
 30
0.0
 11
-23.07061742479155
 21
88.7385015878768
 31
0.0
  0
ARC
  5
2033
330
1F
100
AcDbEntity
  8
DETAILS
 62
     6
370
    20
100
AcDbCircle
 10
-23.07061742479155
 20
88.68850158787664
 30
0.0
 40
0.0500000000001251
100
AcDbArc
 50
90.0
 51
179.9999999998697
  0
LINE
  5
2034
330
1F
100
AcDbEntity
  8
DETAILS
 62
     6
370
    20
100
AcDbLine
 10
-23.12061742479082
 20
88.68850158787664
 30
0.0
 11
-23.12061742479082
 21
88.58350158787343
 31
0.0
  0
ARC
  5
2035
330
1F
100
AcDbEntity
  8
DETAILS
 62
     6
370
    20
100
AcDbCircle
 10
-23.49561742478991
 20
88.58350158787343
 30
0.0
 40
0.3749999999995452
100
AcDbArc
 50
270.0000000000521
 51
0.0000000000521102
  0
ARC
  5
2036
330
1F
100
AcDbEntity
  8
DETAILS
 62
     6
370
    20
100
AcDbCircle
 10
-23.49561742478901
 20
88.58350158787343
 30
0.0
 40
0.3749999999998295
100
AcDbArc
 50
180.0
 51
269.9999999999479
  0
LINE
  5
2037
330
1F
100
AcDbEntity
  8
DETAILS
 62
     6
370
    20
100
AcDbLine
 10
-23.870617424789
 20
88.58350158787343
 30
0.0
 11
-23.870617424789
 21
88.68850158787664
 31
0.0
  0
ARC
  5
2038
330
1F
100
AcDbEntity
  8
DETAILS
 62
     6
370
    20
100
AcDbCircle
 10
-23.92061742478828
 20
88.68850158787664
 30
0.0
 40
0.0500000000001819
100
AcDbArc
 50
0.0000000001302755
 51
90.0
  0
LINE
  5
2039
330
1F
100
AcDbEntity
  8
DETAILS
 62
     6
370
    20
100
AcDbLine
 10
-23.92061742478828
 20
88.7385015878768
 30
0.0
 11
-24.370617424789
 21
88.7385015878768
 31
0.0
  0
ARC
  5
203A
330
1F
100
AcDbEntity
  8
DETAILS
 62
     6
370
    20
100
AcDbCircle
 10
-24.370617424789
 20
88.68850158787664
 30
0.0
 40
0.0500000000001819
100
AcDbArc
 50
90.0
 51
179.9999999998697
  0
LINE
  5
203B
330
1F
100
AcDbEntity
  8
DETAILS
 62
     6
370
    20
100
AcDbLine
 10
-24.42061742478828
 20
88.68850158787664
 30
0.0
 11
-24.42061742478828
 21
88.58350158787615
 31
0.0
  0
ARC
  5
203C
330
1F
100
AcDbEntity
  8
DETAILS
 62
     6
370
    20
100
AcDbCircle
 10
-24.79561742478828
 20
88.58350158787615
 30
0.0
 40
0.3749999999995452
100
AcDbArc
 50
179.9999999999739
 51
0.0
  0
LINE
  5
203D
330
1F
100
AcDbEntity
  8
DETAILS
 62
     6
370
    20
100
AcDbLine
 10
-25.17061742478828
 20
88.58350158787661
 30
0.0
 11
-25.17061742478828
 21
88.68850158787664
 31
0.0
  0
ARC
  5
203E
330
1F
100
AcDbEntity
  8
DETAILS
 62
     6
370
    20
100
AcDbCircle
 10
-25.22061742478846
 20
88.68850158787664
 30
0.0
 40
0.0500000000001819
100
AcDbArc
 50
0.0000000001302755
 51
90.0
  0
LINE
  5
203F
330
1F
100
AcDbEntity
  8
DETAILS
 62
     6
370
    20
100
AcDbLine
 10
-25.22061742478846
 20
88.7385015878768
 30
0.0
 11
-25.377995637179
 21
88.7385015878768
 31
0.0
  0
LINE
  5
2040
330
1F
100
AcDbEntity
  8
DETAILS
 62
     6
370
    20
100
AcDbLine
 10
-20.39561742478955
 20
83.26708023163982
 30
0.0
 11
-20.39561742479046
 21
81.25896037725814
 31
0.0
  0
LINE
  5
2041
330
1F
100
AcDbEntity
  8
DETAILS
 62
     6
370
    20
100
AcDbLine
 10
-26.59561742478937
 20
81.25896037725814
 30
0.0
 11
-26.59561742479028
 21
83.26708023163982
 31
0.0
  0
LINE
  5
2042
330
1F
100
AcDbEntity
  8
DETAILS
 62
     6
370
    20
100
AcDbLine
 10
-26.69561742478973
 20
91.9446453388724
 30
0.0
 11
-26.69561742478973
 21
91.98124787925015
 31
0.0
  0
ARC
  5
2043
330
1F
100
AcDbEntity
  8
DETAILS
 62
     6
370
    20
100
AcDbCircle
 10
-26.74561742478991
 20
91.98124787924971
 30
0.0
 40
0.0500000000001819
100
AcDbArc
 50
0.0000000004429368
 51
30.00000000045302
  0
LINE
  5
2044
330
1F
100
AcDbEntity
  8
DETAILS
 62
     6
370
    20
100
AcDbLine
 10
-26.70231615460116
 20
92.00624787925026
 30
0.0
 11
-26.74800510922697
 21
92.08538347000976
 31
0.0
  0
LINE
  5
2045
330
1F
100
AcDbEntity
  8
DETAILS
 62
     6
370
    20
100
AcDbLine
 10
-26.74800510922697
 20
92.08538347000976
 30
0.0
 11
-26.66140256884947
 21
92.13538347000948
 31
0.0
  0
LINE
  5
2046
330
1F
100
AcDbEntity
  8
DETAILS
 62
     6
370
    20
100
AcDbLine
 10
-26.66140256884947
 20
92.13538347000948
 30
0.0
 11
-26.6023161546008
 21
92.03304279849461
 31
0.0
  0
ARC
  5
2047
330
1F
100
AcDbEntity
  8
DETAILS
 62
     6
370
    20
100
AcDbCircle
 10
-26.64561742478955
 20
92.00804279849453
 30
0.0
 40
0.0499999999997213
100
AcDbArc
 50
0.0000000003387164
 51
30.00000000054676
  0
LINE
  5
2048
330
1F
100
AcDbEntity
  8
DETAILS
 62
     6
370
    20
100
AcDbLine
 10
-26.59561742479028
 20
92.00804279849453
 30
0.0
 11
-26.59561742478846
 21
90.02873261663589
 31
0.0
  0
LINE
  5
2049
330
1F
100
AcDbEntity
  8
DETAILS
 62
     6
370
    20
100
AcDbLine
 10
-26.59561742478846
 20
90.02873261663589
 30
0.0
 11
-26.59561742478937
 21
83.26708023164028
 31
0.0
  0
ARC
  5
204A
330
1F
100
AcDbEntity
  8
DETAILS
 62
     6
370
    20
100
AcDbCircle
 10
-26.49561742478991
 20
83.26708023164028
 30
0.0
 40
0.0999999999999091
100
AcDbArc
 50
135.0000000001474
 51
180.0000000001302
  0
LINE
  5
204B
330
1F
100
AcDbEntity
  8
DETAILS
 62
     6
370
    20
100
AcDbLine
 10
-26.56632810290822
 20
83.33779090975857
 30
0.0
 11
-24.91455140761073
 21
85.01456760505433
 31
0.0
  0
ARC
  5
204C
330
1F
100
AcDbEntity
  8
DETAILS
 62
     6
370
    20
100
AcDbCircle
 10
-24.80848539043282
 20
84.90850158787688
 30
0.0
 40
0.1499999999998163
100
AcDbArc
 50
90.0
 51
135.0000000000184
  0
LINE
  5
204D
330
1F
100
AcDbEntity
  8
DETAILS
 62
     6
370
    20
100
AcDbLine
 10
-24.80848539043282
 20
85.05850158787652
 30
0.0
 11
-23.49561742478991
 21
85.05850158787652
 31
0.0
  0
LINE
  5
204E
330
1F
100
AcDbEntity
  8
DETAILS
 62
     6
370
    20
100
AcDbLine
 10
-23.49561742478991
 20
85.05850158787652
 30
0.0
 11
-22.182749459147
 21
85.05850158787652
 31
0.0
  0
ARC
  5
204F
330
1F
100
AcDbEntity
  8
DETAILS
 62
     6
370
    20
100
AcDbCircle
 10
-22.182749459147
 20
84.90850158787688
 30
0.0
 40
0.1499999999998067
100
AcDbArc
 50
44.99999999998157
 51
90.0
  0
LINE
  5
2050
330
1F
100
AcDbEntity
  8
DETAILS
 62
     6
370
    20
100
AcDbLine
 10
-22.0766834419691
 20
85.01456760505433
 30
0.0
 11
-20.4249067466707
 21
83.33779090975857
 31
0.0
  0
ARC
  5
2051
330
1F
100
AcDbEntity
  8
DETAILS
 62
     6
370
    20
100
AcDbCircle
 10
-20.49561742478991
 20
83.26708023164028
 30
0.0
 40
0.0999999999999044
100
AcDbArc
 50
359.9999999998958
 51
44.99999999985261
  0
LINE
  5
2052
330
1F
100
AcDbEntity
  8
DETAILS
 62
     6
370
    20
100
AcDbLine
 10
-20.39561742478955
 20
83.26708023164028
 30
0.0
 11
-20.39561742479137
 21
90.02873261663589
 31
0.0
  0
LINE
  5
2053
330
1F
100
AcDbEntity
  8
DETAILS
 62
     6
370
    20
100
AcDbLine
 10
-20.39561742479137
 20
90.02873261663589
 30
0.0
 11
-20.39561742478955
 21
92.00804279849453
 31
0.0
  0
ARC
  5
2054
330
1F
100
AcDbEntity
  8
DETAILS
 62
     6
370
    20
100
AcDbCircle
 10
-20.34561742479028
 20
92.00804279849453
 30
0.0
 40
0.0500000000001819
100
AcDbArc
 50
149.9999999997345
 51
179.9999999997394
  0
LINE
  5
2055
330
1F
100
AcDbEntity
  8
DETAILS
 62
     6
370
    20
100
AcDbLine
 10
-20.38891869497903
 20
92.03304279849508
 30
0.0
 11
-20.32983228073036
 21
92.13538347000948
 31
0.0
  0
LINE
  5
2056
330
1F
100
AcDbEntity
  8
DETAILS
 62
     6
370
    20
100
AcDbLine
 10
-20.32983228073036
 20
92.13538347000948
 30
0.0
 11
-20.24322974035286
 21
92.08538347000976
 31
0.0
  0
LINE
  5
2057
330
1F
100
AcDbEntity
  8
DETAILS
 62
     6
370
    20
100
AcDbLine
 10
-20.24322974035286
 20
92.08538347000976
 30
0.0
 11
-20.28891869497866
 21
92.00624787925026
 31
0.0
  0
ARC
  5
2058
330
1F
100
AcDbEntity
  8
DETAILS
 62
     6
370
    20
100
AcDbCircle
 10
-20.24561742478991
 20
91.98124787924971
 30
0.0
 40
0.0500000000002004
100
AcDbArc
 50
149.999999999547
 51
179.999999999531
  0
LINE
  5
2059
330
1F
100
AcDbEntity
  8
DETAILS
 62
     6
370
    20
100
AcDbLine
 10
-20.2956174247901
 20
91.98124787925015
 30
0.0
 11
-20.2956174247901
 21
91.9446453388724
 31
0.0
  0
LINE
  5
205A
330
1F
100
AcDbEntity
  8
DETAILS
 62
     6
370
    20
100
AcDbLine
 10
-20.87061742479173
 20
87.37850158787622
 30
0.0
 11
-20.87061742479264
 21
87.91952463361267
 31
0.0
  0
ARC
  5
205B
330
1F
100
AcDbEntity
  8
DETAILS
 62
     6
370
    20
100
AcDbCircle
 10
-20.9706174247921
 20
87.91952463361267
 30
0.0
 40
0.0999999999999091
100
AcDbArc
 50
0.0
 51
136.1691393279388
  0
LINE
  5
205C
330
1F
100
AcDbEntity
  8
DETAILS
 62
     6
370
    20
100
AcDbLine
 10
-21.04275615689576
 20
87.98877781643168
 30
0.0
 11
-21.56213828080209
 21
87.44775477069524
 31
0.0
  0
ARC
  5
205D
330
1F
100
AcDbEntity
  8
DETAILS
 62
     6
370
    20
100
AcDbCircle
 10
-21.48999954869842
 20
87.37850158787669
 30
0.0
 40
0.1000000000000336
100
AcDbArc
 50
136.1691393279939
 51
270.0
  0
LINE
  5
205E
330
1F
100
AcDbEntity
  8
DETAILS
 62
     6
370
    20
100
AcDbLine
 10
-21.48999954869842
 20
87.27850158787678
 30
0.0
 11
-20.97061742479119
 21
87.27850158787678
 31
0.0
  0
ARC
  5
205F
330
1F
100
AcDbEntity
  8
DETAILS
 62
     6
370
    20
100
AcDbCircle
 10
-20.9706174247921
 20
87.37850158787669
 30
0.0
 40
0.1000000000001364
100
AcDbArc
 50
270.0000000002606
 51
359.9999999998958
  0
LINE
  5
2060
330
1F
100
AcDbEntity
  8
DETAILS
 62
     6
370
    20
100
AcDbLine
 10
-20.97061742479119
 20
85.9585015878766
 30
0.0
 11
-21.48999954869842
 21
85.9585015878766
 31
0.0
  0
ARC
  5
2061
330
1F
100
AcDbEntity
  8
DETAILS
 62
     6
370
    20
100
AcDbCircle
 10
-21.48999954869842
 20
85.85850158787669
 30
0.0
 40
0.1000000000000227
100
AcDbArc
 50
90.0
 51
223.830860672006
  0
LINE
  5
2062
330
1F
100
AcDbEntity
  8
DETAILS
 62
     6
370
    20
100
AcDbLine
 10
-21.56213828080209
 20
85.78924840505768
 30
0.0
 11
-21.04275615689576
 21
85.24822535932171
 31
0.0
  0
ARC
  5
2063
330
1F
100
AcDbEntity
  8
DETAILS
 62
     6
370
    20
100
AcDbCircle
 10
-20.9706174247921
 20
85.31747854214026
 30
0.0
 40
0.1000000000000336
100
AcDbArc
 50
223.830860672006
 51
0.0000000000260551
  0
LINE
  5
2064
330
1F
100
AcDbEntity
  8
DETAILS
 62
     6
370
    20
100
AcDbLine
 10
-20.87061742479264
 20
85.31747854214026
 30
0.0
 11
-20.87061742479173
 21
85.85850158787669
 31
0.0
  0
ARC
  5
2065
330
1F
100
AcDbEntity
  8
DETAILS
 62
     6
370
    20
100
AcDbCircle
 10
-20.9706174247921
 20
85.85850158787625
 30
0.0
 40
0.1000000000003638
100
AcDbArc
 50
0.0000000001042204
 51
89.99999999973944
  0
LINE
  5
2066
330
1F
100
AcDbEntity
  8
0
 62
     1
100
AcDbLine
 10
-28.46540048963644
 20
92.3585015878767
 30
0.0
 11
-26.59561742478937
 21
92.3585015878767
 31
0.0
  0
LINE
  5
2067
330
1F
100
AcDbEntity
  8
0
 62
     1
100
AcDbLine
 10
-26.59561742478937
 20
92.8585015878767
 30
0.0
 11
-26.59561742478937
 21
92.3585015878767
 31
0.0
  0
LINE
  5
2068
330
1F
100
AcDbEntity
  8
0
  6
HIDDEN
 62
     1
 48
0.02
100
AcDbLine
 10
-27.22061742479028
 20
92.76090349337991
 30
0.0
 11
-27.22061742479028
 21
92.3585015878767
 31
0.0
  0
LINE
  5
2069
330
1F
100
AcDbEntity
  8
0
  6
HIDDEN
 62
     1
 48
0.02
100
AcDbLine
 10
-28.24561742478901
 20
92.4295510153548
 30
0.0
 11
-28.24561742478901
 21
92.3585015878767
 31
0.0
  0
LINE
  5
206A
330
1F
100
AcDbEntity
  8
0
  6
HIDDEN
 62
     1
 48
0.02
100
AcDbLine
 10
-26.91870917453244
 20
92.8585015878767
 30
0.0
 11
-26.59561742479028
 21
92.8585015878767
 31
0.0
  0
LINE
  5
206B
330
1F
100
AcDbEntity
  8
0
 62
     1
100
AcDbLine
 10
-20.39561742478864
 20
92.3585015878767
 30
0.0
 11
-17.77061742478955
 21
92.3585015878767
 31
0.0
  0
LINE
  5
206C
330
1F
100
AcDbEntity
  8
0
 62
     1
100
AcDbLine
 10
-20.39561742478864
 20
92.8585015878767
 30
0.0
 11
-20.39561742478864
 21
92.3585015878767
 31
0.0
  0
LINE
  5
206D
330
1F
100
AcDbEntity
  8
0
  6
HIDDEN
 62
     1
 48
0.02
100
AcDbLine
 10
-18.12061742478718
 20
92.8585015878767
 30
0.0
 11
-18.12061742478718
 21
92.3585015878767
 31
0.0
  0
LINE
  5
206E
330
1F
100
AcDbEntity
  8
0
  6
HIDDEN
 62
     1
 48
0.02
100
AcDbLine
 10
-19.77061742478864
 20
92.8585015878767
 30
0.0
 11
-19.77061742478864
 21
92.3585015878767
 31
0.0
  0
LINE
  5
206F
330
1F
100
AcDbEntity
  8
0
  6
HIDDEN
 62
     1
 48
0.02
100
AcDbLine
 10
-18.74561742478718
 20
92.8585015878767
 30
0.0
 11
-18.74561742478718
 21
92.3585015878767
 31
0.0
  0
LINE
  5
2070
330
1F
100
AcDbEntity
  8
0
  6
HIDDEN
 62
     1
 48
0.02
100
AcDbLine
 10
-20.39561742478864
 20
92.8585015878767
 30
0.0
 11
-19.77061742478864
 21
92.8585015878767
 31
0.0
  0
LINE
  5
2071
330
1F
100
AcDbEntity
  8
0
  6
HIDDEN
 62
     1
 48
0.02
100
AcDbLine
 10
-18.74561742478718
 20
92.8585015878767
 30
0.0
 11
-18.12061742478718
 21
92.8585015878767
 31
0.0
  0
LINE
  5
2072
330
1F
100
AcDbEntity
  8
0
  6
HIDDEN
 62
     1
 48
0.02
100
AcDbLine
 10
-20.19561742478791
 20
92.6085015878767
 30
0.0
 11
-20.19561742478791
 21
92.3585015878767
 31
0.0
  0
LINE
  5
2073
330
1F
100
AcDbEntity
  8
0
  6
HIDDEN
 62
     1
 48
0.02
100
AcDbLine
 10
-19.94561742478791
 20
92.6085015878767
 30
0.0
 11
-19.94561742478791
 21
92.3585015878767
 31
0.0
  0
LINE
  5
2074
330
1F
100
AcDbEntity
  8
0
  6
HIDDEN
 62
     1
 48
0.02
100
AcDbLine
 10
-20.19561742478791
 20
92.6085015878767
 30
0.0
 11
-19.94561742478791
 21
92.6085015878767
 31
0.0
  0
LINE
  5
2075
330
1F
100
AcDbEntity
  8
0
 62
     1
100
AcDbLine
 10
-29.22061742478937
 20
80.3585015878767
 30
0.0
 11
-26.59561742478937
 21
80.3585015878767
 31
0.0
  0
LINE
  5
2076
330
1F
100
AcDbEntity
  8
0
 62
     1
100
AcDbLine
 10
-29.22061742478937
 20
80.3585015878767
 30
0.0
 11
-27.04561742478919
 21
80.3585015878767
 31
0.0
  0
LINE
  5
2077
330
1F
100
AcDbEntity
  8
0
 48
0.15
100
AcDbLine
 10
-28.24561742478901
 20
80.3585015878767
 30
0.0
 11
-27.22061742478937
 21
80.3585015878767
 31
0.0
  0
LINE
  5
2078
330
1F
100
AcDbEntity
  8
0
 62
     1
100
AcDbLine
 10
-27.17061742478918
 20
80.3585015878767
 30
0.0
 11
-28.2956174247901
 21
80.3585015878767
 31
0.0
  0
LINE
  5
2079
330
1F
100
AcDbEntity
  8
0
 62
     1
100
AcDbLine
 10
-29.22061742478937
 20
80.35851355837403
 30
0.0
 11
-27.04561742478919
 21
80.35851355837403
 31
0.0
  0
LINE
  5
207A
330
1F
100
AcDbEntity
  8
0
 62
     1
100
AcDbLine
 10
-28.87061742478901
 20
80.85851355837403
 30
0.0
 11
-28.24561742478901
 21
80.85851355837403
 31
0.0
  0
LINE
  5
207B
330
1F
100
AcDbEntity
  8
0
 62
     1
100
AcDbLine
 10
-27.22061742478937
 20
80.85851355837403
 30
0.0
 11
-27.22061742479028
 21
80.35851355837403
 31
0.0
  0
LINE
  5
207C
330
1F
100
AcDbEntity
  8
0
 62
     1
100
AcDbLine
 10
-28.24561742478901
 20
80.85851355837403
 30
0.0
 11
-28.24561742478901
 21
80.35851355837403
 31
0.0
  0
LINE
  5
207D
330
1F
100
AcDbEntity
  8
0
 62
     1
100
AcDbLine
 10
-27.22061742479028
 20
80.85851355837403
 30
0.0
 11
-26.59561742479028
 21
80.85851355837403
 31
0.0
  0
LINE
  5
207E
330
1F
100
AcDbEntity
  8
0
 62
     1
100
AcDbLine
 10
-27.0456174247901
 20
80.60851355837403
 30
0.0
 11
-27.0456174247901
 21
80.35851355837403
 31
0.0
  0
LINE
  5
207F
330
1F
100
AcDbEntity
  8
0
 62
     1
100
AcDbLine
 10
-27.0456174247901
 20
80.60851355837403
 30
0.0
 11
-26.79561742479009
 21
80.60851355837403
 31
0.0
  0
LINE
  5
2080
330
1F
100
AcDbEntity
  8
0
 48
0.15
100
AcDbLine
 10
-28.24561742478901
 20
80.35851355837403
 30
0.0
 11
-27.22061742478937
 21
80.35851355837403
 31
0.0
  0
LINE
  5
2081
330
1F
100
AcDbEntity
  8
0
 62
     1
100
AcDbLine
 10
-27.17061742478918
 20
80.35851355837403
 30
0.0
 11
-28.2956174247901
 21
80.35851355837403
 31
0.0
  0
LINE
  5
2082
330
1F
100
AcDbEntity
  8
0
 62
     1
100
AcDbLine
 10
-18.120617424789
 20
80.85851355837403
 30
0.0
 11
-18.120617424789
 21
80.35851355837403
 31
0.0
  0
LINE
  5
2083
330
1F
100
AcDbEntity
  8
0
 62
     1
100
AcDbLine
 10
-19.77061742479046
 20
80.85851355837403
 30
0.0
 11
-19.77061742479046
 21
80.35851355837403
 31
0.0
  0
LINE
  5
2084
330
1F
100
AcDbEntity
  8
0
 62
     1
100
AcDbLine
 10
-18.745617424789
 20
80.85851355837403
 30
0.0
 11
-18.745617424789
 21
80.35851355837403
 31
0.0
  0
LINE
  5
2085
330
1F
100
AcDbEntity
  8
0
 62
     1
100
AcDbLine
 10
-20.39561742479046
 20
80.85851355837403
 30
0.0
 11
-19.77061742479046
 21
80.85851355837403
 31
0.0
  0
LINE
  5
2086
330
1F
100
AcDbEntity
  8
0
 62
     1
100
AcDbLine
 10
-18.745617424789
 20
80.85851355837403
 30
0.0
 11
-18.120617424789
 21
80.85851355837403
 31
0.0
  0
LINE
  5
2087
330
1F
100
AcDbEntity
  8
0
 62
     1
100
AcDbLine
 10
-19.94561742478973
 20
80.60851355837403
 30
0.0
 11
-19.94561742478973
 21
80.35851355837403
 31
0.0
  0
LINE
  5
2088
330
1F
100
AcDbEntity
  8
0
 62
     1
100
AcDbLine
 10
-20.19561742478973
 20
80.60851355837403
 30
0.0
 11
-19.94561742478973
 21
80.60851355837403
 31
0.0
  0
LINE
  5
2089
330
1F
100
AcDbEntity
  8
0
 62
     1
100
AcDbLine
 10
-19.98061742478958
 20
80.35851355837403
 30
0.0
 11
-17.77061742478955
 21
80.35851355837403
 31
0.0
  0
LINE
  5
208A
330
1F
100
AcDbEntity
  8
0
 62
     1
100
AcDbLine
 10
-20.39561742479046
 20
80.35851355837403
 30
0.0
 11
-20.19561742478973
 21
80.35851355837403
 31
0.0
  0
LINE
  5
208B
330
1F
100
AcDbEntity
  8
0
 62
     1
100
AcDbLine
 10
-29.22061742478937
 20
80.35851355837403
 30
0.0
 11
-26.59561742478937
 21
80.35851355837403
 31
0.0
  0
LINE
  5
208C
330
1F
100
AcDbEntity
  8
0
 62
     1
100
AcDbLine
 10
-26.59561742478937
 20
80.85851355837403
 30
0.0
 11
-26.59561742478937
 21
80.35851355837403
 31
0.0
  0
LINE
  5
208D
330
1F
100
AcDbEntity
  8
0
  6
HIDDEN
 62
     1
 48
0.02
100
AcDbLine
 10
-28.87061742478901
 20
80.85851355837403
 30
0.0
 11
-28.24561742478901
 21
80.85851355837403
 31
0.0
  0
LINE
  5
208E
330
1F
100
AcDbEntity
  8
0
  6
HIDDEN
 62
     1
 48
0.02
100
AcDbLine
 10
-28.87061742478901
 20
80.85851355837403
 30
0.0
 11
-28.87061742478901
 21
80.35851355837403
 31
0.0
  0
LINE
  5
208F
330
1F
100
AcDbEntity
  8
0
  6
HIDDEN
 62
     1
 48
0.02
100
AcDbLine
 10
-27.22061742478937
 20
80.85851355837403
 30
0.0
 11
-27.22061742479028
 21
80.35851355837403
 31
0.0
  0
LINE
  5
2090
330
1F
100
AcDbEntity
  8
0
  6
HIDDEN
 62
     1
 48
0.02
100
AcDbLine
 10
-28.24561742478901
 20
80.85851355837403
 30
0.0
 11
-28.24561742478901
 21
80.35851355837403
 31
0.0
  0
LINE
  5
2091
330
1F
100
AcDbEntity
  8
0
  6
HIDDEN
 62
     1
 48
0.02
100
AcDbLine
 10
-27.22061742479028
 20
80.85851355837403
 30
0.0
 11
-26.59561742479028
 21
80.85851355837403
 31
0.0
  0
LINE
  5
2092
330
1F
100
AcDbEntity
  8
0
 62
     1
100
AcDbLine
 10
-20.39561742478864
 20
80.35851355837403
 30
0.0
 11
-17.77061742478955
 21
80.35851355837403
 31
0.0
  0
LINE
  5
2093
330
1F
100
AcDbEntity
  8
0
 62
     1
100
AcDbLine
 10
-20.39561742478864
 20
80.85851355837403
 30
0.0
 11
-20.39561742478864
 21
80.35851355837403
 31
0.0
  0
LINE
  5
2094
330
1F
100
AcDbEntity
  8
0
  6
HIDDEN
 62
     1
 48
0.02
100
AcDbLine
 10
-18.12061742478718
 20
80.85851355837403
 30
0.0
 11
-18.12061742478718
 21
80.35851355837403
 31
0.0
  0
LINE
  5
2095
330
1F
100
AcDbEntity
  8
0
  6
HIDDEN
 62
     1
 48
0.02
100
AcDbLine
 10
-19.77061742478864
 20
80.85851355837403
 30
0.0
 11
-19.77061742478864
 21
80.35851355837403
 31
0.0
  0
LINE
  5
2096
330
1F
100
AcDbEntity
  8
0
  6
HIDDEN
 62
     1
 48
0.02
100
AcDbLine
 10
-18.74561742478718
 20
80.85851355837403
 30
0.0
 11
-18.74561742478718
 21
80.35851355837403
 31
0.0
  0
LINE
  5
2097
330
1F
100
AcDbEntity
  8
0
  6
HIDDEN
 62
     1
 48
0.02
100
AcDbLine
 10
-20.39561742478864
 20
80.85851355837403
 30
0.0
 11
-19.77061742478864
 21
80.85851355837403
 31
0.0
  0
LINE
  5
2098
330
1F
100
AcDbEntity
  8
0
  6
HIDDEN
 62
     1
 48
0.02
100
AcDbLine
 10
-18.74561742478718
 20
80.85851355837403
 30
0.0
 11
-18.12061742478718
 21
80.85851355837403
 31
0.0
  0
LINE
  5
2099
330
1F
100
AcDbEntity
  8
0
  6
HIDDEN
 62
     1
 48
0.02
100
AcDbLine
 10
-20.19561742478791
 20
80.60851355837403
 30
0.0
 11
-20.19561742478791
 21
80.35851355837403
 31
0.0
  0
LINE
  5
209A
330
1F
100
AcDbEntity
  8
0
  6
HIDDEN
 62
     1
 48
0.02
100
AcDbLine
 10
-19.94561742478791
 20
80.60851355837403
 30
0.0
 11
-19.94561742478791
 21
80.35851355837403
 31
0.0
  0
LINE
  5
209B
330
1F
100
AcDbEntity
  8
0
  6
HIDDEN
 62
     1
 48
0.02
100
AcDbLine
 10
-20.19561742478791
 20
80.60851355837403
 30
0.0
 11
-19.94561742478791
 21
80.60851355837403
 31
0.0
  0
ARC
  5
209C
330
1F
100
AcDbEntity
  8
DETAILS
 62
     6
370
    20
100
AcDbCircle
 10
-20.3456174247921
 20
81.25897234775592
 30
0.0
 40
0.0499999999997272
100
AcDbArc
 50
180.0000000004429
 51
210.0000000006405
  0
LINE
  5
209D
330
1F
100
AcDbEntity
  8
DETAILS
 62
     6
370
    20
100
AcDbLine
 10
-20.38891869498085
 20
81.23397234775584
 30
0.0
 11
-20.32983228073309
 21
81.13163167624097
 31
0.0
  0
LINE
  5
209E
330
1F
100
AcDbEntity
  8
DETAILS
 62
     6
370
    20
100
AcDbLine
 10
-20.32983228073309
 20
81.13163167624097
 30
0.0
 11
-20.24322974035468
 21
81.18163167624116
 31
0.0
  0
LINE
  5
209F
330
1F
100
AcDbEntity
  8
DETAILS
 62
     6
370
    20
100
AcDbLine
 10
-20.24322974035468
 20
81.18163167624116
 30
0.0
 11
-20.28891869498139
 21
81.26076726699976
 31
0.0
  0
ARC
  5
20A0
330
1F
100
AcDbEntity
  8
DETAILS
 62
     6
370
    20
100
AcDbCircle
 10
-20.24561742479264
 20
81.2857672670003
 30
0.0
 40
0.0499999999997213
100
AcDbArc
 50
180.0000000003126
 51
210.0000000005468
  0
LINE
  5
20A1
330
1F
100
AcDbEntity
  8
DETAILS
 62
     6
370
    20
100
AcDbLine
 10
-20.29561742479282
 20
81.2857672670003
 30
0.0
 11
-20.29561742479192
 21
81.32236980737852
 31
0.0
  0
LINE
  5
20A2
330
1F
100
AcDbEntity
  8
DETAILS
 62
     6
370
    20
100
AcDbLine
 10
-26.69561742478973
 20
81.32236980737761
 30
0.0
 11
-26.69561742478973
 21
81.2857672670003
 31
0.0
  0
ARC
  5
20A3
330
1F
100
AcDbEntity
  8
DETAILS
 62
     6
370
    20
100
AcDbCircle
 10
-26.74561742478991
 20
81.2857672670003
 30
0.0
 40
0.0499999999997272
100
AcDbArc
 50
329.9999999994532
 51
359.9999999996613
  0
LINE
  5
20A4
330
1F
100
AcDbEntity
  8
DETAILS
 62
     6
370
    20
100
AcDbLine
 10
-26.70231615460116
 20
81.26076726699976
 30
0.0
 11
-26.74800510922788
 21
81.18163167624024
 31
0.0
  0
LINE
  5
20A5
330
1F
100
AcDbEntity
  8
DETAILS
 62
     6
370
    20
100
AcDbLine
 10
-26.74800510922788
 20
81.18163167624024
 30
0.0
 11
-26.66140256884947
 21
81.13163167624097
 31
0.0
  0
LINE
  5
20A6
330
1F
100
AcDbEntity
  8
DETAILS
 62
     6
370
    20
100
AcDbLine
 10
-26.66140256884947
 20
81.13163167624097
 30
0.0
 11
-26.60231615460171
 21
81.23397234775584
 31
0.0
  0
ARC
  5
20A7
330
1F
100
AcDbEntity
  8
DETAILS
 62
     6
370
    20
100
AcDbCircle
 10
-26.64561742479046
 20
81.25897234775592
 30
0.0
 40
0.0499999999997782
100
AcDbArc
 50
329.9999999993595
 51
359.999999999531
  0
LINE
  5
20A8
330
1F
100
AcDbEntity
  8
0
 62
     1
100
AcDbLine
 10
-28.46540048963644
 20
92.3585015878767
 30
0.0
 11
-26.59561742478937
 21
92.3585015878767
 31
0.0
  0
LINE
  5
20A9
330
1F
100
AcDbEntity
  8
0
 62
     1
100
AcDbLine
 10
-28.46540048963462
 20
92.35850158787716
 30
0.0
 11
-27.04561742478919
 21
92.3585015878767
 31
0.0
  0
LINE
  5
20AA
330
1F
100
AcDbEntity
  8
0
 62
     1
100
AcDbLine
 10
-26.79561742479009
 20
92.3585015878767
 30
0.0
 11
-26.59561742479028
 21
92.3585015878767
 31
0.0
  0
LINE
  5
20AB
330
1F
100
AcDbEntity
  8
0
 48
0.15
100
AcDbLine
 10
-28.24561742478901
 20
92.3585015878767
 30
0.0
 11
-27.22061742478937
 21
92.3585015878767
 31
0.0
  0
LINE
  5
20AC
330
1F
100
AcDbEntity
  8
0
 62
     1
100
AcDbLine
 10
-27.17061742478918
 20
92.3585015878767
 30
0.0
 11
-28.2956174247901
 21
92.3585015878767
 31
0.0
  0
LINE
  5
20AD
330
1F
100
AcDbEntity
  8
0
 62
     1
100
AcDbLine
 10
-28.46536346030544
 20
92.35851355837448
 30
0.0
 11
-27.04561742478919
 21
92.35851355837402
 31
0.0
  0
LINE
  5
20AE
330
1F
100
AcDbEntity
  8
0
 62
     1
100
AcDbLine
 10
-27.22061742479028
 20
92.76090349337991
 30
0.0
 11
-27.22061742479028
 21
92.35851355837402
 31
0.0
  0
LINE
  5
20AF
330
1F
100
AcDbEntity
  8
0
 62
     1
100
AcDbLine
 10
-28.24561742478901
 20
92.4295510153548
 30
0.0
 11
-28.24561742478901
 21
92.35851355837402
 31
0.0
  0
LINE
  5
20B0
330
1F
100
AcDbEntity
  8
0
 62
     1
100
AcDbLine
 10
-26.91867214520235
 20
92.85851355837449
 30
0.0
 11
-26.59561742479028
 21
92.85851355837403
 31
0.0
  0
LINE
  5
20B1
330
1F
100
AcDbEntity
  8
0
 62
     1
100
AcDbLine
 10
-27.0456174247901
 20
92.60851355837402
 30
0.0
 11
-27.0456174247901
 21
92.35851355837402
 31
0.0
  0
LINE
  5
20B2
330
1F
100
AcDbEntity
  8
0
 62
     1
100
AcDbLine
 10
-27.0456174247901
 20
92.60851355837402
 30
0.0
 11
-26.79561742479009
 21
92.60851355837402
 31
0.0
  0
LINE
  5
20B3
330
1F
100
AcDbEntity
  8
0
 62
     1
100
AcDbLine
 10
-26.79561742479009
 20
92.35851355837402
 30
0.0
 11
-26.59561742479028
 21
92.35851355837402
 31
0.0
  0
LINE
  5
20B4
330
1F
100
AcDbEntity
  8
0
 48
0.15
100
AcDbLine
 10
-28.24561742478901
 20
92.35851355837402
 30
0.0
 11
-27.22061742478937
 21
92.35851355837402
 31
0.0
  0
LINE
  5
20B5
330
1F
100
AcDbEntity
  8
0
 62
     1
100
AcDbLine
 10
-27.17061742478918
 20
92.35851355837402
 30
0.0
 11
-28.2956174247901
 21
92.35851355837402
 31
0.0
  0
LINE
  5
20B6
330
1F
100
AcDbEntity
  8
0
 62
     1
100
AcDbLine
 10
-18.120617424789
 20
92.85851355837403
 30
0.0
 11
-18.120617424789
 21
92.35851355837402
 31
0.0
  0
LINE
  5
20B7
330
1F
100
AcDbEntity
  8
0
 62
     1
100
AcDbLine
 10
-19.77061742479046
 20
92.85851355837403
 30
0.0
 11
-19.77061742479046
 21
92.35851355837402
 31
0.0
  0
LINE
  5
20B8
330
1F
100
AcDbEntity
  8
0
 62
     1
100
AcDbLine
 10
-18.745617424789
 20
92.85851355837403
 30
0.0
 11
-18.745617424789
 21
92.35851355837402
 31
0.0
  0
LINE
  5
20B9
330
1F
100
AcDbEntity
  8
0
 62
     1
100
AcDbLine
 10
-20.39561742479046
 20
92.85851355837403
 30
0.0
 11
-19.77061742479046
 21
92.85851355837403
 31
0.0
  0
LINE
  5
20BA
330
1F
100
AcDbEntity
  8
0
 62
     1
100
AcDbLine
 10
-18.745617424789
 20
92.85851355837403
 30
0.0
 11
-18.120617424789
 21
92.85851355837403
 31
0.0
  0
LINE
  5
20BB
330
1F
100
AcDbEntity
  8
0
 62
     1
100
AcDbLine
 10
-19.94561742478973
 20
92.60851355837402
 30
0.0
 11
-19.94561742478973
 21
92.35851355837402
 31
0.0
  0
LINE
  5
20BC
330
1F
100
AcDbEntity
  8
0
 62
     1
100
AcDbLine
 10
-20.19561742478973
 20
92.60851355837402
 30
0.0
 11
-19.94561742478973
 21
92.60851355837402
 31
0.0
  0
LINE
  5
20BD
330
1F
100
AcDbEntity
  8
0
 62
     1
100
AcDbLine
 10
-19.98061742478958
 20
92.35851355837402
 30
0.0
 11
-17.77061742478955
 21
92.35851355837402
 31
0.0
  0
LINE
  5
20BE
330
1F
100
AcDbEntity
  8
0
 62
     1
100
AcDbLine
 10
-20.39561742479046
 20
92.35851355837402
 30
0.0
 11
-20.19561742478973
 21
92.35851355837402
 31
0.0
  0
LINE
  5
20BF
330
1F
100
AcDbEntity
  8
0
 62
     1
100
AcDbLine
 10
-28.46536346030635
 20
92.35851355837448
 30
0.0
 11
-26.59561742478937
 21
92.35851355837402
 31
0.0
  0
LINE
  5
20C0
330
1F
100
AcDbEntity
  8
0
 62
     1
100
AcDbLine
 10
-26.59561742478937
 20
92.85851355837403
 30
0.0
 11
-26.59561742478937
 21
92.35851355837402
 31
0.0
  0
LINE
  5
20C1
330
1F
100
AcDbEntity
  8
0
  6
HIDDEN
 62
     1
 48
0.02
100
AcDbLine
 10
-27.22061742479028
 20
92.76090349337991
 30
0.0
 11
-27.22061742479028
 21
92.35851355837402
 31
0.0
  0
LINE
  5
20C2
330
1F
100
AcDbEntity
  8
0
  6
HIDDEN
 62
     1
 48
0.02
100
AcDbLine
 10
-28.24561742478901
 20
92.4295510153548
 30
0.0
 11
-28.24561742478901
 21
92.35851355837402
 31
0.0
  0
LINE
  5
20C3
330
1F
100
AcDbEntity
  8
0
  6
HIDDEN
 62
     1
 48
0.02
100
AcDbLine
 10
-26.91867214520235
 20
92.85851355837449
 30
0.0
 11
-26.59561742479028
 21
92.85851355837403
 31
0.0
  0
LINE
  5
20C4
330
1F
100
AcDbEntity
  8
0
 62
     1
100
AcDbLine
 10
-20.39561742478864
 20
92.35851355837402
 30
0.0
 11
-17.77061742478955
 21
92.35851355837402
 31
0.0
  0
LINE
  5
20C5
330
1F
100
AcDbEntity
  8
0
 62
     1
100
AcDbLine
 10
-20.39561742478864
 20
95.03930453433813
 30
0.0
 11
-20.39561742478864
 21
92.35851355837402
 31
0.0
  0
LINE
  5
20C6
330
1F
100
AcDbEntity
  8
0
  6
HIDDEN
 62
     1
 48
0.02
100
AcDbLine
 10
-18.12061742478718
 20
92.85851355837403
 30
0.0
 11
-18.12061742478718
 21
92.35851355837402
 31
0.0
  0
LINE
  5
20C7
330
1F
100
AcDbEntity
  8
0
  6
HIDDEN
 62
     1
 48
0.02
100
AcDbLine
 10
-19.77061742478864
 20
92.85851355837403
 30
0.0
 11
-19.77061742478864
 21
92.35851355837402
 31
0.0
  0
LINE
  5
20C8
330
1F
100
AcDbEntity
  8
0
  6
HIDDEN
 62
     1
 48
0.02
100
AcDbLine
 10
-18.74561742478718
 20
92.85851355837403
 30
0.0
 11
-18.74561742478718
 21
92.35851355837402
 31
0.0
  0
LINE
  5
20C9
330
1F
100
AcDbEntity
  8
0
  6
HIDDEN
 62
     1
 48
0.02
100
AcDbLine
 10
-20.39561742478864
 20
92.85851355837403
 30
0.0
 11
-19.77061742478864
 21
92.85851355837403
 31
0.0
  0
LINE
  5
20CA
330
1F
100
AcDbEntity
  8
0
  6
HIDDEN
 62
     1
 48
0.02
100
AcDbLine
 10
-18.74561742478718
 20
92.85851355837403
 30
0.0
 11
-18.12061742478718
 21
92.85851355837403
 31
0.0
  0
LINE
  5
20CB
330
1F
100
AcDbEntity
  8
0
  6
HIDDEN
 62
     1
 48
0.02
100
AcDbLine
 10
-20.19561742478791
 20
92.60851355837402
 30
0.0
 11
-20.19561742478791
 21
92.35851355837402
 31
0.0
  0
LINE
  5
20CC
330
1F
100
AcDbEntity
  8
0
  6
HIDDEN
 62
     1
 48
0.02
100
AcDbLine
 10
-19.94561742478791
 20
92.60851355837402
 30
0.0
 11
-19.94561742478791
 21
92.35851355837402
 31
0.0
  0
LINE
  5
20CD
330
1F
100
AcDbEntity
  8
0
  6
HIDDEN
 62
     1
 48
0.02
100
AcDbLine
 10
-20.19561742478791
 20
92.60851355837402
 30
0.0
 11
-19.94561742478791
 21
92.60851355837402
 31
0.0
  0
LWPOLYLINE
  5
20CE
330
1F
100
AcDbEntity
  8
0
 48
0.15
100
AcDbPolyline
 90
        2
 70
     1
 43
0.25
 10
-24.92061742478737
 20
76.58350158787616
 42
1.0
 10
-24.67061742478737
 20
76.58350158787616
 42
1.0
  0
LWPOLYLINE
  5
20CF
330
1F
100
AcDbEntity
  8
0
 48
0.15
100
AcDbPolyline
 90
        2
 70
     1
 43
0.25
 10
-22.32061742479064
 20
76.58350158787616
 42
1.0
 10
-22.07061742479064
 20
76.58350158787616
 42
1.0
  0
LWPOLYLINE
  5
20D0
330
1F
100
AcDbEntity
  8
0
 48
0.15
100
AcDbPolyline
 90
        2
 70
     1
 43
0.25
 10
-24.92061742478737
 20
72.47644471824568
 42
1.0
 10
-24.67061742478737
 20
72.47644471824568
 42
1.0
  0
LWPOLYLINE
  5
20D1
330
1F
100
AcDbEntity
  8
0
 48
0.15
100
AcDbPolyline
 90
        2
 70
     1
 43
0.25
 10
-22.32061742479064
 20
72.47644471824568
 42
1.0
 10
-22.07061742479064
 20
72.47644471824568
 42
1.0
  0
ENDSEC
  0
SECTION
  2
OBJECTS
  0
DICTIONARY
  5
C
330
0
100
AcDbDictionary
281
     1
  3
ACAD_COLOR
350
73
  3
ACAD_GROUP
350
D
  3
ACAD_LAYOUT
350
1A
  3
ACAD_MATERIAL
350
72
  3
ACAD_MLINESTYLE
350
17
  3
ACAD_PLOTSETTINGS
350
19
  3
ACAD_PLOTSTYLENAME
350
E
  3
ACDBHEADERROUNDTRIPXREC
350
20DD
  3
AcDbVariableDictionary
350
66
  0
DICTIONARY
  5
A4
330
2
100
AcDbDictionary
280
     1
281
     1
  3
ACAD_LAYERSTATES
360
A5
  0
DICTIONARY
  5
73
102
{ACAD_REACTORS
330
C
102
}
330
C
100
AcDbDictionary
281
     1
  0
DICTIONARY
  5
D
102
{ACAD_REACTORS
330
C
102
}
330
C
100
AcDbDictionary
281
     1
  0
DICTIONARY
  5
1A
102
{ACAD_REACTORS
330
C
102
}
330
C
100
AcDbDictionary
281
     1
  3
Layout1
350
59
  3
Layout2
350
5E
  3
Model
350
22
  0
DICTIONARY
  5
72
102
{ACAD_REACTORS
330
C
102
}
330
C
100
AcDbDictionary
281
     1
  0
DICTIONARY
  5
17
102
{ACAD_REACTORS
330
C
102
}
330
C
100
AcDbDictionary
281
     1
  3
Standard
350
18
  0
DICTIONARY
  5
19
102
{ACAD_REACTORS
330
C
102
}
330
C
100
AcDbDictionary
281
     1
  0
ACDBDICTIONARYWDFLT
  5
E
102
{ACAD_REACTORS
330
C
102
}
330
C
100
AcDbDictionary
281
     1
  3
Normal
350
F
100
AcDbDictionaryWithDefault
340
F
  0
DICTIONARY
  5
20DD
102
{ACAD_REACTORS
330
C
102
}
330
C
100
AcDbDictionary
281
     1
  3
COLORDICT
350
20DF
  3
MATERIALDICT
350
20DE
  0
DICTIONARY
  5
66
102
{ACAD_REACTORS
330
C
102
}
330
C
100
AcDbDictionary
281
     1
  3
DIMASSOC
350
67
  3
HIDETEXT
350
6B
  3
PROJECTNAME
350
33A
  0
DICTIONARY
  5
A5
102
{ACAD_REACTORS
330
A4
102
}
330
A4
100
AcDbDictionary
281
     1
  0
LAYOUT
  5
59
102
{ACAD_XDICTIONARY
360
20E2
102
}
102
{ACAD_REACTORS
330
1A
102
}
330
1A
100
AcDbPlotSettings
  1

  2
None
  4

  6

 40
0.0
 41
0.0
 42
0.0
 43
0.0
 44
0.0
 45
0.0
 46
0.0
 47
0.0
 48
0.0
 49
0.0
140
0.0
141
0.0
142
1.0
143
1.0
 70
   688
 72
     0
 73
     0
 74
     5
  7

 75
    16
147
1.0
148
0.0
149
0.0
100
AcDbLayout
  1
Layout1
 70
     1
 71
     1
 10
0.0
 20
0.0
 11
12.0
 21
9.0
 12
0.0
 22
0.0
 32
0.0
 14
0.0
 24
0.0
 34
0.0
 15
0.0
 25
0.0
 35
0.0
146
0.0
 13
0.0
 23
0.0
 33
0.0
 16
1.0
 26
0.0
 36
0.0
 17
0.0
 27
1.0
 37
0.0
 76
     0
330
58
  0
LAYOUT
  5
5E
102
{ACAD_XDICTIONARY
360
20E4
102
}
102
{ACAD_REACTORS
330
1A
102
}
330
1A
100
AcDbPlotSettings
  1

  2
None
  4

  6

 40
0.0
 41
0.0
 42
0.0
 43
0.0
 44
0.0
 45
0.0
 46
0.0
 47
0.0
 48
0.0
 49
0.0
140
0.0
141
0.0
142
1.0
143
1.0
 70
   688
 72
     0
 73
     0
 74
     5
  7

 75
    16
147
1.0
148
0.0
149
0.0
100
AcDbLayout
  1
Layout2
 70
     1
 71
     2
 10
0.0
 20
0.0
 11
12.0
 21
9.0
 12
0.0
 22
0.0
 32
0.0
 14
0.0
 24
0.0
 34
0.0
 15
0.0
 25
0.0
 35
0.0
146
0.0
 13
0.0
 23
0.0
 33
0.0
 16
1.0
 26
0.0
 36
0.0
 17
0.0
 27
1.0
 37
0.0
 76
     0
330
5D
  0
LAYOUT
  5
22
102
{ACAD_XDICTIONARY
360
20E0
102
}
102
{ACAD_REACTORS
330
1A
102
}
330
1A
100
AcDbPlotSettings
  1

  2
none_device
  4
ANSI_A_(8.50_x_11.00_Inches)
  6

 40
6.349999904632568
 41
19.04999923706055
 42
6.350006103515625
 43
19.04998779296875
 44
215.8999938964844
 45
279.3999938964844
 46
0.0
 47
0.0
 48
0.0
 49
0.0
140
0.0
141
0.0
142
1.0
143
2.584895464708373
 70
 11952
 72
     0
 73
     1
 74
     0
  7

 75
     0
147
0.3868628397755418
148
0.0
149
0.0
100
AcDbLayout
  1
Model
 70
     1
 71
     0
 10
0.0
 20
0.0
 11
12.0
 21
9.0
 12
0.0
 22
0.0
 32
0.0
 14
0.0
 24
0.0
 34
0.0
 15
0.0
 25
0.0
 35
0.0
146
0.0
 13
0.0
 23
0.0
 33
0.0
 16
1.0
 26
0.0
 36
0.0
 17
0.0
 27
1.0
 37
0.0
 76
     0
330
1F
  0
MLINESTYLE
  5
18
102
{ACAD_REACTORS
330
17
102
}
330
17
100
AcDbMlineStyle
  2
STANDARD
 70
     0
  3

 62
   256
 51
90.0
 52
90.0
 71
     2
 49
0.5
 62
   256
  6
BYLAYER
 49
-0.5
 62
   256
  6
BYLAYER
  0
ACDBPLACEHOLDER
  5
F
102
{ACAD_REACTORS
330
E
102
}
330
E
  0
XRECORD
  5
20DF
102
{ACAD_REACTORS
330
20DD
102
}
330
20DD
100
AcDbXrecord
280
     1
340
73
  0
XRECORD
  5
20DE
102
{ACAD_REACTORS
330
20DD
102
}
330
20DD
100
AcDbXrecord
280
     1
340
72
  0
DICTIONARYVAR
  5
67
102
{ACAD_REACTORS
330
66
102
}
330
66
100
DictionaryVariables
280
     0
  1
2
  0
DICTIONARYVAR
  5
6B
102
{ACAD_REACTORS
330
66
102
}
330
66
100
DictionaryVariables
280
     0
  1
1
  0
DICTIONARYVAR
  5
33A
102
{ACAD_REACTORS
330
66
102
}
330
66
100
DictionaryVariables
280
     0
  1

  0
DICTIONARY
  5
20E2
330
59
100
AcDbDictionary
280
     1
281
     1
  3
ACAD_XREC_ROUNDTRIP
360
20E3
  0
DICTIONARY
  5
20E4
330
5E
100
AcDbDictionary
280
     1
281
     1
  3
ACAD_XREC_ROUNDTRIP
360
20E5
  0
DICTIONARY
  5
20E0
330
22
100
AcDbDictionary
280
     1
281
     1
  3
ACAD_XREC_ROUNDTRIP
360
20E1
  0
XRECORD
  5
20E3
102
{ACAD_REACTORS
330
20E2
102
}
330
20E2
100
AcDbXrecord
280
     1
102
SHADEPLOT
 70
     0
102
SHADEPLOTRESLEVEL
 70
     2
102
SHADEPLOTCUSTOMDPI
 70
   300
  0
XRECORD
  5
20E5
102
{ACAD_REACTORS
330
20E4
102
}
330
20E4
100
AcDbXrecord
280
     1
102
SHADEPLOT
 70
     0
102
SHADEPLOTRESLEVEL
 70
     2
102
SHADEPLOTCUSTOMDPI
 70
   300
  0
XRECORD
  5
20E1
102
{ACAD_REACTORS
330
20E0
102
}
330
20E0
100
AcDbXrecord
280
     1
102
SHADEPLOT
 70
     0
102
SHADEPLOTRESLEVEL
 70
     2
102
SHADEPLOTCUSTOMDPI
 70
   300
  0
ENDSEC
  0
EOF
