  0
SECTION
  2
HEADER
  9
$ACADVER
  1
AC1015
  9
$ACADMAINTVER
 70
    20
  9
$DWGCODEPAGE
  3
ANSI_1252
  9
$INSBASE
 10
0.0
 20
0.0
 30
0.0
  9
$EXTMIN
 10
0.0285690208335439
 20
14.09498014409587
 30
-0.0015258207003583
  9
$EXTMAX
 10
68.45713050652676
 20
84.44830157224334
 30
0.0000000349246037
  9
$LIMMIN
 10
0.0
 20
0.0
  9
$LIMMAX
 10
12.0
 20
9.0
  9
$ORTHOMODE
 70
     0
  9
$REGENMODE
 70
     1
  9
$FILLMODE
 70
     1
  9
$QTEXTMODE
 70
     0
  9
$MIRRTEXT
 70
     0
  9
$LTSCALE
 40
1.0
  9
$ATTMODE
 70
     1
  9
$TEXTSIZE
 40
0.2
  9
$TRACEWID
 40
0.05
  9
$TEXTSTYLE
  7
Standard
  9
$CLAYER
  8
0
  9
$CELTYPE
  6
ByLayer
  9
$CECOLOR
 62
   256
  9
$CELTSCALE
 40
1.0
  9
$DISPSILH
 70
     0
  9
$DIMSCALE
 40
1.0
  9
$DIMASZ
 40
0.18
  9
$DIMEXO
 40
0.0625
  9
$DIMDLI
 40
0.38
  9
$DIMRND
 40
0.0
  9
$DIMDLE
 40
0.0
  9
$DIMEXE
 40
0.18
  9
$DIMTP
 40
0.0
  9
$DIMTM
 40
0.0
  9
$DIMTXT
 40
0.18
  9
$DIMCEN
 40
0.09
  9
$DIMTSZ
 40
0.0
  9
$DIMTOL
 70
     0
  9
$DIMLIM
 70
     0
  9
$DIMTIH
 70
     1
  9
$DIMTOH
 70
     1
  9
$DIMSE1
 70
     0
  9
$DIMSE2
 70
     0
  9
$DIMTAD
 70
     0
  9
$DIMZIN
 70
     0
  9
$DIMBLK
  1

  9
$DIMASO
 70
     1
  9
$DIMSHO
 70
     1
  9
$DIMPOST
  1

  9
$DIMAPOST
  1

  9
$DIMALT
 70
     0
  9
$DIMALTD
 70
     2
  9
$DIMALTF
 40
25.4
  9
$DIMLFAC
 40
1.0
  9
$DIMTOFL
 70
     0
  9
$DIMTVP
 40
0.0
  9
$DIMTIX
 70
     0
  9
$DIMSOXD
 70
     0
  9
$DIMSAH
 70
     0
  9
$DIMBLK1
  1

  9
$DIMBLK2
  1

  9
$DIMSTYLE
  2
Standard
  9
$DIMCLRD
 70
     0
  9
$DIMCLRE
 70
     0
  9
$DIMCLRT
 70
     0
  9
$DIMTFAC
 40
1.0
  9
$DIMGAP
 40
0.09
  9
$DIMJUST
 70
     0
  9
$DIMSD1
 70
     0
  9
$DIMSD2
 70
     0
  9
$DIMTOLJ
 70
     1
  9
$DIMTZIN
 70
     0
  9
$DIMALTZ
 70
     0
  9
$DIMALTTZ
 70
     0
  9
$DIMUPT
 70
     0
  9
$DIMDEC
 70
     4
  9
$DIMTDEC
 70
     4
  9
$DIMALTU
 70
     2
  9
$DIMALTTD
 70
     2
  9
$DIMTXSTY
  7
Standard
  9
$DIMAUNIT
 70
     0
  9
$DIMADEC
 70
     0
  9
$DIMALTRND
 40
0.0
  9
$DIMAZIN
 70
     0
  9
$DIMDSEP
 70
    46
  9
$DIMATFIT
 70
     3
  9
$DIMFRAC
 70
     0
  9
$DIMLDRBLK
  1

  9
$DIMLUNIT
 70
     2
  9
$DIMLWD
 70
    -2
  9
$DIMLWE
 70
    -2
  9
$DIMTMOVE
 70
     0
  9
$LUNITS
 70
     2
  9
$LUPREC
 70
     4
  9
$SKETCHINC
 40
0.1
  9
$FILLETRAD
 40
0.0
  9
$AUNITS
 70
     0
  9
$AUPREC
 70
     0
  9
$MENU
  1
.
  9
$ELEVATION
 40
0.0
  9
$PELEVATION
 40
0.0
  9
$THICKNESS
 40
0.0
  9
$LIMCHECK
 70
     0
  9
$CHAMFERA
 40
0.0
  9
$CHAMFERB
 40
0.0
  9
$CHAMFERC
 40
0.0
  9
$CHAMFERD
 40
0.0
  9
$SKPOLY
 70
     0
  9
$TDCREATE
 40
2454938.360508912
  9
$TDUCREATE
 40
2454938.610508913
  9
$TDUPDATE
 40
2454938.361605532
  9
$TDUUPDATE
 40
2454938.611605533
  9
$TDINDWG
 40
0.0010975463
  9
$TDUSRTIMER
 40
0.0010975463
  9
$USRTIMER
 70
     1
  9
$ANGBASE
 50
0.0
  9
$ANGDIR
 70
     0
  9
$PDMODE
 70
     0
  9
$PDSIZE
 40
0.0
  9
$PLINEWID
 40
0.0
  9
$SPLFRAME
 70
     0
  9
$SPLINETYPE
 70
     6
  9
$SPLINESEGS
 70
     8
  9
$HANDSEED
  5
5C5
  9
$SURFTAB1
 70
     6
  9
$SURFTAB2
 70
     6
  9
$SURFTYPE
 70
     6
  9
$SURFU
 70
     6
  9
$SURFV
 70
     6
  9
$UCSBASE
  2

  9
$UCSNAME
  2

  9
$UCSORG
 10
0.0
 20
0.0
 30
0.0
  9
$UCSXDIR
 10
1.0
 20
0.0
 30
0.0
  9
$UCSYDIR
 10
0.0
 20
1.0
 30
0.0
  9
$UCSORTHOREF
  2

  9
$UCSORTHOVIEW
 70
     0
  9
$UCSORGTOP
 10
0.0
 20
0.0
 30
0.0
  9
$UCSORGBOTTOM
 10
0.0
 20
0.0
 30
0.0
  9
$UCSORGLEFT
 10
0.0
 20
0.0
 30
0.0
  9
$UCSORGRIGHT
 10
0.0
 20
0.0
 30
0.0
  9
$UCSORGFRONT
 10
0.0
 20
0.0
 30
0.0
  9
$UCSORGBACK
 10
0.0
 20
0.0
 30
0.0
  9
$PUCSBASE
  2

  9
$PUCSNAME
  2

  9
$PUCSORG
 10
0.0
 20
0.0
 30
0.0
  9
$PUCSXDIR
 10
1.0
 20
0.0
 30
0.0
  9
$PUCSYDIR
 10
0.0
 20
1.0
 30
0.0
  9
$PUCSORTHOREF
  2

  9
$PUCSORTHOVIEW
 70
     0
  9
$PUCSORGTOP
 10
0.0
 20
0.0
 30
0.0
  9
$PUCSORGBOTTOM
 10
0.0
 20
0.0
 30
0.0
  9
$PUCSORGLEFT
 10
0.0
 20
0.0
 30
0.0
  9
$PUCSORGRIGHT
 10
0.0
 20
0.0
 30
0.0
  9
$PUCSORGFRONT
 10
0.0
 20
0.0
 30
0.0
  9
$PUCSORGBACK
 10
0.0
 20
0.0
 30
0.0
  9
$USERI1
 70
     0
  9
$USERI2
 70
     0
  9
$USERI3
 70
     0
  9
$USERI4
 70
     0
  9
$USERI5
 70
     0
  9
$USERR1
 40
0.0
  9
$USERR2
 40
0.0
  9
$USERR3
 40
0.0
  9
$USERR4
 40
0.0
  9
$USERR5
 40
0.0
  9
$WORLDVIEW
 70
     1
  9
$SHADEDGE
 70
     3
  9
$SHADEDIF
 70
    70
  9
$TILEMODE
 70
     1
  9
$MAXACTVP
 70
    64
  9
$PINSBASE
 10
0.0
 20
0.0
 30
0.0
  9
$PLIMCHECK
 70
     0
  9
$PEXTMIN
 10
0.0
 20
0.0
 30
0.0
  9
$PEXTMAX
 10
0.0
 20
0.0
 30
0.0
  9
$PLIMMIN
 10
0.0
 20
0.0
  9
$PLIMMAX
 10
12.0
 20
9.0
  9
$UNITMODE
 70
     0
  9
$VISRETAIN
 70
     1
  9
$PLINEGEN
 70
     0
  9
$PSLTSCALE
 70
     1
  9
$TREEDEPTH
 70
  3020
  9
$CMLSTYLE
  2
Standard
  9
$CMLJUST
 70
     0
  9
$CMLSCALE
 40
1.0
  9
$PROXYGRAPHICS
 70
     1
  9
$MEASUREMENT
 70
     0
  9
$CELWEIGHT
370
    -1
  9
$ENDCAPS
280
     0
  9
$JOINSTYLE
280
     0
  9
$LWDISPLAY
290
     0
  9
$INSUNITS
 70
     1
  9
$HYPERLINKBASE
  1

  9
$STYLESHEET
  1

  9
$XEDIT
290
     1
  9
$CEPSNTYPE
380
     0
  9
$PSTYLEMODE
290
     1
  9
$FINGERPRINTGUID
  2
{FDEAD576-A652-11D2-9A35-0060089B3A3F}
  9
$VERSIONGUID
  2
{A64D22F6-5218-4146-99F0-9E4B891E9476}
  9
$EXTNAMES
290
     1
  9
$PSVPSCALE
 40
0.0
  9
$OLESTARTUP
290
     0
  0
ENDSEC
  0
SECTION
  2
CLASSES
  0
CLASS
  1
ACDBDICTIONARYWDFLT
  2
AcDbDictionaryWithDefault
  3
ObjectDBX Classes
 90
        0
280
     0
281
     0
  0
CLASS
  1
ACDBPLACEHOLDER
  2
AcDbPlaceHolder
  3
ObjectDBX Classes
 90
        0
280
     0
281
     0
  0
CLASS
  1
LAYOUT
  2
AcDbLayout
  3
ObjectDBX Classes
 90
        0
280
     0
281
     0
  0
CLASS
  1
DICTIONARYVAR
  2
AcDbDictionaryVar
  3
ObjectDBX Classes
 90
        0
280
     0
281
     0
  0
CLASS
  1
SORTENTSTABLE
  2
AcDbSortentsTable
  3
ObjectDBX Classes
 90
        0
280
     0
281
     0
  0
ENDSEC
  0
SECTION
  2
TABLES
  0
TABLE
  2
VPORT
  5
8
330
0
100
AcDbSymbolTable
 70
     4
  0
VPORT
  5
5BB
330
8
100
AcDbSymbolTableRecord
100
AcDbViewportTableRecord
  2
*Active
 70
     0
 10
0.0
 20
0.0
 11
1.0
 21
1.0
 12
34.24284976368016
 22
49.2716408581696
 13
0.0
 23
0.0
 14
0.5
 24
0.5
 15
0.5
 25
0.5
 16
0.0
 26
0.0
 36
1.0
 17
0.0
 27
0.0
 37
0.0
 40
70.86128764784527
 41
1.48433734939759
 42
50.0
 43
0.0
 44
0.0
 50
0.0
 51
0.0
 71
     0
 72
  1000
 73
     1
 74
     3
 75
     0
 76
     0
 77
     0
 78
     0
281
     0
 65
     1
110
0.0
120
0.0
130
0.0
111
1.0
121
0.0
131
0.0
112
0.0
122
1.0
132
0.0
 79
     0
146
0.0
  0
ENDTAB
  0
TABLE
  2
LTYPE
  5
5
330
0
100
AcDbSymbolTable
 70
     3
  0
LTYPE
  5
14
330
5
100
AcDbSymbolTableRecord
100
AcDbLinetypeTableRecord
  2
ByBlock
 70
     0
  3

 72
    65
 73
     0
 40
0.0
  0
LTYPE
  5
15
330
5
100
AcDbSymbolTableRecord
100
AcDbLinetypeTableRecord
  2
ByLayer
 70
     0
  3

 72
    65
 73
     0
 40
0.0
  0
LTYPE
  5
16
330
5
100
AcDbSymbolTableRecord
100
AcDbLinetypeTableRecord
  2
Continuous
 70
     0
  3
Solid line
 72
    65
 73
     0
 40
0.0
  0
LTYPE
  5
96
330
5
100
AcDbSymbolTableRecord
100
AcDbLinetypeTableRecord
  2
DASHED2
 70
     0
  3
_ _ _ _ _ _ _ _ _ _ _ _ _ _ _ _ _ _ _ _ _ _ _ _
 72
    65
 73
     2
 40
0.375
 49
0.25
 74
     0
 49
-0.125
 74
     0
  0
LTYPE
  5
97
330
5
100
AcDbSymbolTableRecord
100
AcDbLinetypeTableRecord
  2
HIDDEN
 70
     0
  3
Hidden __ __ __ __ __ __ __ __ __ __ __ __ __ _
 72
    65
 73
     2
 40
0.375
 49
0.25
 74
     0
 49
-0.125
 74
     0
  0
ENDTAB
  0
TABLE
  2
LAYER
  5
2
102
{ACAD_XDICTIONARY
360
A4
102
}
330
0
100
AcDbSymbolTable
 70
     6
  0
LAYER
  5
10
330
2
100
AcDbSymbolTableRecord
100
AcDbLayerTableRecord
  2
0
 70
     0
 62
     7
  6
Continuous
370
    -3
390
F
  0
LAYER
  5
98
330
2
100
AcDbSymbolTableRecord
100
AcDbLayerTableRecord
  2
DIM
 70
     0
 62
     3
  6
Continuous
370
    13
390
F
  0
LAYER
  5
99
330
2
100
AcDbSymbolTableRecord
100
AcDbLayerTableRecord
  2
Defpoints
 70
     0
 62
   252
  6
Continuous
290
     0
370
    -3
390
F
  0
LAYER
  5
9A
330
2
100
AcDbSymbolTableRecord
100
AcDbLayerTableRecord
  2
A2 Hatch
 70
     0
 62
     8
  6
Continuous
370
     9
390
F
  0
LAYER
  5
9B
330
2
100
AcDbSymbolTableRecord
100
AcDbLayerTableRecord
  2
A5 heavy
 70
     0
 62
     5
  6
Continuous
370
    53
390
F
  0
LAYER
  5
9C
330
2
100
AcDbSymbolTableRecord
100
AcDbLayerTableRecord
  2
DETAILS
 70
     0
 62
     7
  6
Continuous
370
    13
390
F
  0
ENDTAB
  0
TABLE
  2
STYLE
  5
3
330
0
100
AcDbSymbolTable
 70
     4
  0
STYLE
  5
11
330
3
100
AcDbSymbolTableRecord
100
AcDbTextStyleTableRecord
  2
Standard
 70
     0
 40
0.0
 41
1.0
 50
0.0
 71
     0
 42
0.2
  3
txt
  4

  0
STYLE
  5
9D
330
3
100
AcDbSymbolTableRecord
100
AcDbTextStyleTableRecord
  2
ARCHITXT
 70
     0
 40
0.0
 41
1.25
 50
0.0
 71
     0
 42
1.0
  3
ARCHITXT.shx
  4

  0
STYLE
  5
9E
330
3
100
AcDbSymbolTableRecord
100
AcDbTextStyleTableRecord
  2
ARCTEXT
 70
     0
 40
0.0
 41
0.85
 50
0.0
 71
     0
 42
5.096770384644268
  3
arctext.shx
  4

  0
STYLE
  5
9F
330
3
100
AcDbSymbolTableRecord
100
AcDbTextStyleTableRecord
  2
RomanC
 70
     0
 40
5.0
 41
0.85
 50
0.0
 71
     0
 42
10.0
  3
romanc.shx
  4

  0
ENDTAB
  0
TABLE
  2
VIEW
  5
6
330
0
100
AcDbSymbolTable
 70
     0
  0
ENDTAB
  0
TABLE
  2
UCS
  5
7
330
0
100
AcDbSymbolTable
 70
     0
  0
ENDTAB
  0
TABLE
  2
APPID
  5
9
330
0
100
AcDbSymbolTable
 70
     1
  0
APPID
  5
12
330
9
100
AcDbSymbolTableRecord
100
AcDbRegAppTableRecord
  2
ACAD
 70
     0
  0
ENDTAB
  0
TABLE
  2
DIMSTYLE
  5
A
330
0
100
AcDbSymbolTable
 70
     5
100
AcDbDimStyleTable
 71
     0
  0
DIMSTYLE
105
27
330
A
100
AcDbSymbolTableRecord
100
AcDbDimStyleTableRecord
  2
Standard
 70
     0
340
11
  0
DIMSTYLE
105
A0
330
A
100
AcDbSymbolTableRecord
100
AcDbDimStyleTableRecord
  2
Copy of ROMANS
 70
     0
 41
0.75
 42
0.125
 43
0.125
 44
0.125
 73
     0
 74
     0
 77
     1
 78
     3
140
1.0
141
6.0
147
0.25
172
     1
175
     1
176
     2
177
     2
178
     2
271
     3
272
     3
273
     4
275
     1
277
     4
279
     2
284
     3
285
     3
286
     3
340
9D
  0
DIMSTYLE
105
A1
330
A
100
AcDbSymbolTableRecord
100
AcDbDimStyleTableRecord
  2
ARCTEXT
 70
     0
 40
0.0
 41
2.0
 42
1.0
 43
0.375
 44
0.1875
 73
     0
 74
     0
140
4.0
141
2.0
147
2.0
176
     2
177
     2
178
     2
277
     4
340
9E
341
8D
342
89
  0
DIMSTYLE
105
A2
330
A
100
AcDbSymbolTableRecord
100
AcDbDimStyleTableRecord
  2
ARCTEXT1-4
 70
     0
 41
2.0
 42
2.0
 43
2.0
 44
2.0
 73
     0
 74
     0
 77
     1
 78
     3
140
4.0
141
2.0
147
2.0
172
     1
175
     1
275
     1
277
     4
279
     2
340
9E
341
8D
342
89
  0
DIMSTYLE
105
A3
330
A
100
AcDbSymbolTableRecord
100
AcDbDimStyleTableRecord
  2
ARCTEXT 1-1
 70
     0
 40
0.0
 41
1.0
 42
1.0
 43
0.375
 44
0.1875
 73
     0
 74
     0
 77
     1
 78
     3
140
1.0
141
1.0
147
0.5
176
   256
177
   256
178
   256
277
     4
279
     2
340
9E
341
8D
342
89
  0
ENDTAB
  0
TABLE
  2
BLOCK_RECORD
  5
1
330
0
100
AcDbSymbolTable
 70
     5
  0
BLOCK_RECORD
  5
1F
330
1
100
AcDbSymbolTableRecord
100
AcDbBlockTableRecord
  2
*Model_Space
340
22
  0
BLOCK_RECORD
  5
58
330
1
100
AcDbSymbolTableRecord
100
AcDbBlockTableRecord
  2
*Paper_Space
340
59
  0
BLOCK_RECORD
  5
5D
330
1
100
AcDbSymbolTableRecord
100
AcDbBlockTableRecord
  2
*Paper_Space0
340
5E
  0
BLOCK_RECORD
  5
89
330
1
100
AcDbSymbolTableRecord
100
AcDbBlockTableRecord
  2
_ArchTick
340
0
  0
BLOCK_RECORD
  5
8D
330
1
100
AcDbSymbolTableRecord
100
AcDbBlockTableRecord
  2
arrow
340
0
310
2800000020000000200000000100080000000000000400000000000000000000000000000000000000000000000080000080000000808000800000008000800080800000C0C0C000C0DCC000F0CAA6000020400000206000002080000020A0000020C0000020E00000400000004020000040400000406000004080000040A0
310
000040C0000040E00000600000006020000060400000606000006080000060A0000060C0000060E00000800000008020000080400000806000008080000080A0000080C0000080E00000A0000000A0200000A0400000A0600000A0800000A0A00000A0C00000A0E00000C0000000C0200000C0400000C0600000C0800000C0
310
A00000C0C00000C0E00000E0000000E0200000E0400000E0600000E0800000E0A00000E0C00000E0E00040000000400020004000400040006000400080004000A0004000C0004000E00040200000402020004020400040206000402080004020A0004020C0004020E000404000004040200040404000404060004040800040
310
40A0004040C0004040E00040600000406020004060400040606000406080004060A0004060C0004060E00040800000408020004080400040806000408080004080A0004080C0004080E00040A0000040A0200040A0400040A0600040A0800040A0A00040A0C00040A0E00040C0000040C0200040C0400040C0600040C08000
310
40C0A00040C0C00040C0E00040E0000040E0200040E0400040E0600040E0800040E0A00040E0C00040E0E00080000000800020008000400080006000800080008000A0008000C0008000E00080200000802020008020400080206000802080008020A0008020C0008020E00080400000804020008040400080406000804080
310
008040A0008040C0008040E00080600000806020008060400080606000806080008060A0008060C0008060E00080800000808020008080400080806000808080008080A0008080C0008080E00080A0000080A0200080A0400080A0600080A0800080A0A00080A0C00080A0E00080C0000080C0200080C0400080C0600080C0
310
800080C0A00080C0C00080C0E00080E0000080E0200080E0400080E0600080E0800080E0A00080E0C00080E0E000C0000000C0002000C0004000C0006000C0008000C000A000C000C000C000E000C0200000C0202000C0204000C0206000C0208000C020A000C020C000C020E000C0400000C0402000C0404000C0406000C0
310
408000C040A000C040C000C040E000C0600000C0602000C0604000C0606000C0608000C060A000C060C000C060E000C0800000C0802000C0804000C0806000C0808000C080A000C080C000C080E000C0A00000C0A02000C0A04000C0A06000C0A08000C0A0A000C0A0C000C0A0E000C0C00000C0C02000C0C04000C0C06000
310
C0C08000C0C0A000F0FBFF00A4A0A000808080000000FF0000FF000000FFFF00FF000000FF00FF00FFFF0000FFFFFF0000000000000000000000000000000000000000000000000000000000000000000000000000000000000000000000000000000000000000000000000000000000000000000000000000000000000000
310
0000000000000000000000000000000000000000000000000000000000000000000000000000000000000000000000000000000000000000000000000000000000000000000000000000000000000000000000000000000000000000000000000000000000000000000000000000000000000000000000FA00000000000000
310
000000000000000000000000000000000000000000000000FA00000000000000000000000000000000000000000000000000000000000000FA0000000000000000000000000000000000000000000000000000FAFA000000FA00000000000000000000000000000000000000000000000000000000FAFA00FA000000000000
310
000000000000000000000000000000000000000000000000FAF7F7000000000000000000000000000000000000000000000000000000000000F7F7F7F7F7F70000000000000000000000000000000000000000000000000000F7F7F7F7F7F7F7F7F7F700000000000000000000000000000000000000000000F7F7F7F7F7F7
310
F7F7F7F7F7F7F7F7000000000000000000000000000000000000F7F7F7F7F7F7F7F7F7F7F7F7F7F7F7F7F7F70000000000FAFA00000000000000F7F7F7F7F7F7F7F7F7F7F7F7F7F7F7F7F7F7F7F7F7FAFAFAFA00000000000000F7F7F7F7F7F7F7F7F7F7F7F7F7F7F7F7F7F70000000000000000000000000000F7F7F7F7F7
310
F7F7F7F7F7F7F7F700000000000000000000000000000000000000F7F7F7F7F7F7F7F70000000000000000000000000000000000000000000000FAF7F7F70000000000000000000000000000000000000000000000000000FAFA00FA0000000000000000000000000000000000000000000000000000FAFA000000FA000000
310
00000000000000000000000000000000000000000000000000000000FA00000000000000000000000000000000000000000000000000000000000000FA00000000000000000000000000000000000000000000000000000000000000FA00000000000000000000000000000000000000000000000000000000000000000000
310
00000000000000000000000000000000000000000000000000000000000000000000000000000000000000000000000000000000000000000000000000000000000000000000000000000000000000000000000000000000000000000000000000000000000000000000000000000000000000000000000000000000000000
310
0000000000000000000000000000000000000000000000000000000000000000000000000000000000000000000000000000000000000000
1001
ACAD
1000
DesignCenter Data
1002
{
1070
     1
1070
     1
1002
}
  0
ENDTAB
  0
ENDSEC
  0
SECTION
  2
BLOCKS
  0
BLOCK
  5
20
330
1F
100
AcDbEntity
  8
0
100
AcDbBlockBegin
  2
*Model_Space
 70
     0
 10
0.0
 20
0.0
 30
0.0
  3
*Model_Space
  1

  0
ENDBLK
  5
21
330
1F
100
AcDbEntity
  8
0
100
AcDbBlockEnd
  0
BLOCK
  5
5A
330
58
100
AcDbEntity
 67
     1
  8
0
100
AcDbBlockBegin
  2
*Paper_Space
 70
     0
 10
0.0
 20
0.0
 30
0.0
  3
*Paper_Space
  1

  0
ENDBLK
  5
5B
330
58
100
AcDbEntity
 67
     1
  8
0
100
AcDbBlockEnd
  0
BLOCK
  5
5F
330
5D
100
AcDbEntity
  8
0
100
AcDbBlockBegin
  2
*Paper_Space0
 70
     0
 10
0.0
 20
0.0
 30
0.0
  3
*Paper_Space0
  1

  0
ENDBLK
  5
60
330
5D
100
AcDbEntity
  8
0
100
AcDbBlockEnd
  0
BLOCK
  5
8A
330
89
100
AcDbEntity
  8
0
100
AcDbBlockBegin
  2
_ArchTick
 70
     0
 10
0.0
 20
0.0
 30
0.0
  3
_ArchTick
  1

  0
LWPOLYLINE
  5
8B
330
89
100
AcDbEntity
  8
0
  6
ByBlock
 62
     0
100
AcDbPolyline
 90
        2
 70
     0
 43
0.15
 10
-0.5
 20
-0.5
 10
0.5
 20
0.5
  0
ENDBLK
  5
8C
330
89
100
AcDbEntity
  8
0
100
AcDbBlockEnd
  0
BLOCK
  5
8E
330
8D
100
AcDbEntity
  8
0
100
AcDbBlockBegin
  2
arrow
 70
     0
 10
0.0
 20
0.0
 30
0.0
  3
arrow
  1

  0
HATCH
  5
8F
330
8D
100
AcDbEntity
  8
DIM
 62
   253
100
AcDbHatch
 10
0.0
 20
0.0
 30
0.0
210
0.0
220
0.0
230
1.0
  2
SOLID
 70
     1
 71
     0
 91
        1
 92
        7
 72
     0
 73
     1
 93
        3
 10
-2.0
 20
0.5
 10
-2.0
 20
-0.5
 10
0.0
 20
0.0
 97
        0
 75
     0
 76
     1
 47
0.0337394080685346
 98
        1
 10
-1.103351122172171
 20
0.05064816270351
  0
LWPOLYLINE
  5
90
330
8D
100
AcDbEntity
  8
DIM
370
    15
100
AcDbPolyline
 90
        4
 70
     0
 43
0.0
 10
0.0
 20
0.0
 10
-2.0
 20
-0.5
 10
-2.0
 20
0.5
 10
0.0
 20
0.0
  0
LWPOLYLINE
  5
91
330
8D
100
AcDbEntity
  8
DIM
370
     9
100
AcDbPolyline
 90
        2
 70
     0
 43
0.0
 10
0.3742552490839444
 20
0.0935638122700766
 10
0.0
 20
0.0
  0
LWPOLYLINE
  5
92
330
8D
100
AcDbEntity
  8
DIM
370
     9
100
AcDbPolyline
 90
        3
 70
     0
 43
0.0
 10
-2.0
 20
-0.9831764405007561
 10
-2.0
 20
-0.5
 10
-2.46875
 20
-0.6171875
  0
LWPOLYLINE
  5
93
330
8D
100
AcDbEntity
  8
DIM
370
     9
100
AcDbPolyline
 90
        3
 70
     0
 43
0.0
 10
-2.0
 20
0.9831764405007561
 10
-2.0
 20
0.5
 10
-2.46875
 20
0.6171875
  0
LWPOLYLINE
  5
94
330
8D
100
AcDbEntity
  8
DIM
370
     9
100
AcDbPolyline
 90
        2
 70
     0
 43
0.0
 10
0.3742552490839444
 20
-0.0935638122700766
 10
0.0
 20
0.0
  0
ENDBLK
  5
95
330
8D
100
AcDbEntity
  8
0
100
AcDbBlockEnd
  0
ENDSEC
  0
SECTION
  2
ENTITIES
  0
MTEXT
  5
483
330
1F
100
AcDbEntity
  8
Defpoints
100
AcDbMText
 10
2.943266366851247
 20
17.69807448100482
 30
0.0
 40
3.0
 41
90.07999999999999
 71
     2
 72
     5
  1
{\L115\P}\P            
  7
RomanC
 73
     1
 44
1.0
1001
ACAD
1000
MTEXTBEGIN
1070
    73
1070
     1
1070
    44
1040
1.0
1070
    74
1070
     0
1000
MTEXTEND
  0
MTEXT
  5
484
330
1F
100
AcDbEntity
  8
DIM
100
AcDbMText
 10
40.04010803541038
 20
27.37691918940982
 30
0.0
 40
3.0
 41
71.41649521821006
 71
     2
 72
     5
  1
{\L2-4-2 WALL W/ FLUSH ON V-BUCK}\P               
  7
RomanC
 73
     1
 44
1.0
1001
ACAD
1000
MTEXTBEGIN
1070
    73
1070
     1
1070
    44
1040
1.0
1070
    74
1070
     0
1000
MTEXTEND
  0
LINE
  5
485
330
1F
100
AcDbEntity
  8
0
 62
     1
100
AcDbLine
 10
31.11866897783964
 20
82.67133175913977
 30
0.0
 11
33.11866897783963
 21
82.67133175913977
 31
0.0
  0
LINE
  5
486
330
1F
100
AcDbEntity
  8
0
  6
HIDDEN
 62
     1
 48
0.02
100
AcDbLine
 10
32.76866897784018
 20
83.17133175913978
 30
0.0
 11
32.76866897784018
 21
82.67133175913977
 31
0.0
  0
LINE
  5
487
330
1F
100
AcDbEntity
  8
0
  6
HIDDEN
 62
     1
 48
0.02
100
AcDbLine
 10
31.74366897783964
 20
83.17133175913978
 30
0.0
 11
31.74366897783964
 21
82.67133175913977
 31
0.0
  0
LINE
  5
488
330
1F
100
AcDbEntity
  8
0
  6
HIDDEN
 62
     1
 48
0.02
100
AcDbLine
 10
32.14366897784018
 20
83.17133175913978
 30
0.0
 11
32.14366897784018
 21
82.67133175913977
 31
0.0
  0
LINE
  5
489
330
1F
100
AcDbEntity
  8
0
  6
HIDDEN
 62
     1
 48
0.02
100
AcDbLine
 10
31.23932664028231
 20
83.17133175913978
 30
0.0
 11
31.74366897783964
 21
83.17133175913978
 31
0.0
  0
LINE
  5
48A
330
1F
100
AcDbEntity
  8
0
  6
HIDDEN
 62
     1
 48
0.02
100
AcDbLine
 10
32.14366897784018
 20
83.17133175913978
 30
0.0
 11
32.76866897784018
 21
83.17133175913978
 31
0.0
  0
LINE
  5
48B
330
1F
100
AcDbEntity
  8
0
  6
HIDDEN
 62
     1
 48
0.02
100
AcDbLine
 10
31.56866897784036
 20
82.92133175913978
 30
0.0
 11
31.56866897784036
 21
82.67133175913977
 31
0.0
  0
LINE
  5
48C
330
1F
100
AcDbEntity
  8
0
  6
HIDDEN
 62
     1
 48
0.02
100
AcDbLine
 10
31.31866897784036
 20
82.92133175913978
 30
0.0
 11
31.56866897784036
 21
82.92133175913978
 31
0.0
  0
LINE
  5
48D
330
1F
100
AcDbEntity
  8
0
 62
     1
100
AcDbLine
 10
25.11866897783963
 20
81.17078438500403
 30
0.0
 11
25.11866897783963
 21
70.67133175913977
 31
0.0
  0
LINE
  5
48E
330
1F
100
AcDbEntity
  8
0
 62
     1
100
AcDbLine
 10
33.11866897784054
 20
83.8086968564353
 30
0.0
 11
33.11866897783963
 21
70.67133175913977
 31
0.0
  0
LINE
  5
48F
330
1F
100
AcDbEntity
  8
0
 62
     1
100
AcDbLine
 10
25.11866897783963
 20
70.67133175913977
 30
0.0
 11
27.11866897783873
 21
70.67133175913977
 31
0.0
  0
LINE
  5
490
330
1F
100
AcDbEntity
  8
0
 62
     1
100
AcDbLine
 10
27.118668977836
 20
81.79666683948154
 30
0.0
 11
27.11866897783963
 21
70.67133175913977
 31
0.0
  0
LINE
  5
491
330
1F
100
AcDbEntity
  8
0
 62
     1
100
AcDbLine
 10
31.11866897783599
 20
83.13041160253623
 30
0.0
 11
31.11866897783964
 21
70.67133175913977
 31
0.0
  0
LINE
  5
492
330
1F
100
AcDbEntity
  8
0
 62
     1
100
AcDbLine
 10
25.46866897783909
 20
81.28031381453684
 30
0.0
 11
25.46866897783909
 21
70.67133175913977
 31
0.0
  0
LINE
  5
493
330
1F
100
AcDbEntity
  8
0
 62
     1
100
AcDbLine
 10
32.76866897783927
 20
83.17133175913978
 30
0.0
 11
32.76866897783927
 21
82.67133175913977
 31
0.0
  0
LINE
  5
494
330
1F
100
AcDbEntity
  8
0
 62
     1
100
AcDbLine
 10
31.74366897783782
 20
83.17133175913978
 30
0.0
 11
31.74366897783782
 21
82.67133175913977
 31
0.0
  0
LINE
  5
495
330
1F
100
AcDbEntity
  8
0
 62
     1
100
AcDbLine
 10
32.14366897783927
 20
83.17133175913978
 30
0.0
 11
32.14366897783927
 21
82.67133175913977
 31
0.0
  0
LINE
  5
496
330
1F
100
AcDbEntity
  8
0
 62
     1
100
AcDbLine
 10
31.23932664028231
 20
83.17133175913978
 30
0.0
 11
31.74366897783873
 21
83.17133175913978
 31
0.0
  0
LINE
  5
497
330
1F
100
AcDbEntity
  8
0
 62
     1
100
AcDbLine
 10
32.14366897783927
 20
83.17133175913978
 30
0.0
 11
32.76866897783927
 21
83.17133175913978
 31
0.0
  0
LINE
  5
498
330
1F
100
AcDbEntity
  8
0
 62
     1
100
AcDbLine
 10
26.918668977838
 20
81.73407859403324
 30
0.0
 11
26.91866897783891
 21
70.67133175913977
 31
0.0
  0
LINE
  5
499
330
1F
100
AcDbEntity
  8
0
 62
     1
100
AcDbLine
 10
31.31866897783854
 20
83.19824012792606
 30
0.0
 11
31.31866897783854
 21
70.67133175913977
 31
0.0
  0
LINE
  5
49A
330
1F
100
AcDbEntity
  8
0
 62
     1
100
AcDbLine
 10
31.56866897783854
 20
82.92133175913978
 30
0.0
 11
31.56866897783854
 21
82.67133175913977
 31
0.0
  0
LINE
  5
49B
330
1F
100
AcDbEntity
  8
0
 62
     1
100
AcDbLine
 10
31.31866897783854
 20
82.92133175913978
 30
0.0
 11
31.56866897783854
 21
82.92133175913978
 31
0.0
  0
LINE
  5
49C
330
1F
100
AcDbEntity
  8
0
 62
     1
100
AcDbLine
 10
31.53366897783869
 20
82.67133175913977
 30
0.0
 11
33.11866897783963
 21
82.67133175913977
 31
0.0
  0
LINE
  5
49D
330
1F
100
AcDbEntity
  8
0
 62
     1
100
AcDbLine
 10
31.53366897783869
 20
83.27115579272003
 30
0.0
 11
31.53366897783869
 21
70.67133175913977
 31
0.0
  0
LINE
  5
49E
330
1F
100
AcDbEntity
  8
0
 62
     1
100
AcDbLine
 10
32.35366897784022
 20
83.54925274681908
 30
0.0
 11
32.35366897783931
 21
70.67133175913977
 31
0.0
  0
LINE
  5
49F
330
1F
100
AcDbEntity
  8
A2 Hatch
  6
DASHED2
 48
0.15
100
AcDbLine
 10
31.69366897784036
 20
83.32541861303253
 30
0.0
 11
31.69366897783945
 21
70.67133175913977
 31
0.0
  0
LINE
  5
4A0
330
1F
100
AcDbEntity
  8
A2 Hatch
  6
DASHED2
 48
0.15
100
AcDbLine
 10
32.19366897783945
 20
83.49498992650707
 30
0.0
 11
32.19366897783945
 21
70.67133175913977
 31
0.0
  0
LINE
  5
4A1
330
1F
100
AcDbEntity
  8
A2 Hatch
  6
DASHED2
 48
0.15
100
AcDbLine
 10
25.88366897783905
 20
81.41018442384121
 30
0.0
 11
25.88366897783905
 21
70.67133175913977
 31
0.0
  0
LINE
  5
4A2
330
1F
100
AcDbEntity
  8
A2 Hatch
  6
DASHED2
 48
0.15
100
AcDbLine
 10
26.70366897783876
 20
81.66679623017671
 30
0.0
 11
26.70366897783876
 21
70.67133175913977
 31
0.0
  0
LINE
  5
4A3
330
1F
100
AcDbEntity
  8
0
 62
     1
100
AcDbLine
 10
26.0436689778389
 20
81.46025502019893
 30
0.0
 11
26.0436689778389
 21
70.67133175913977
 31
0.0
  0
LINE
  5
4A4
330
1F
100
AcDbEntity
  8
0
 62
     1
100
AcDbLine
 10
26.543668977838
 20
81.61672563381854
 30
0.0
 11
26.54366897783891
 21
70.67133175913977
 31
0.0
  0
LINE
  5
4A5
330
1F
100
AcDbEntity
  8
0
 62
     1
100
AcDbLine
 10
31.11866897783873
 20
82.67133175913977
 30
0.0
 11
31.31866897783854
 21
82.67133175913977
 31
0.0
  0
LINE
  5
4A6
330
1F
100
AcDbEntity
  8
0
 62
     1
100
AcDbLine
 10
31.11866897783964
 20
70.67133175913977
 30
0.0
 11
33.11866897783963
 21
70.67133175913977
 31
0.0
  0
LINE
  5
4A7
330
1F
100
AcDbEntity
  8
DETAILS
 62
     6
370
    20
100
AcDbLine
 10
31.11866897783873
 20
74.6513317591398
 30
0.0
 11
27.11866897783873
 21
74.6513317591398
 31
0.0
  0
LINE
  5
4A8
330
1F
100
AcDbEntity
  8
DETAILS
 62
     6
370
    20
100
AcDbLine
 10
31.11866897783873
 20
79.19133175913976
 30
0.0
 11
27.11866897783873
 21
79.19133175913976
 31
0.0
  0
LINE
  5
4A9
330
1F
100
AcDbEntity
  8
DETAILS
 62
     6
370
    20
100
AcDbLine
 10
31.11866897783873
 20
74.17133175913932
 30
0.0
 11
27.11866897783873
 21
74.17133175913978
 31
0.0
  0
LINE
  5
4AA
330
1F
100
AcDbEntity
  8
DETAILS
 62
     6
370
    20
100
AcDbLine
 10
31.11866897783873
 20
74.26133175913946
 30
0.0
 11
27.11866897783873
 21
74.26133175913992
 31
0.0
  0
LINE
  5
4AB
330
1F
100
AcDbEntity
  8
DETAILS
 62
     6
370
    20
100
AcDbLine
 10
31.11866897783873
 20
74.56133175913965
 30
0.0
 11
27.11866897783873
 21
74.56133175913965
 31
0.0
  0
LINE
  5
4AC
330
1F
100
AcDbEntity
  8
DETAILS
 62
     6
370
    20
100
AcDbLine
 10
31.11866897783873
 20
79.28133175913899
 30
0.0
 11
27.11866897783873
 21
79.2813317591399
 31
0.0
  0
LINE
  5
4AD
330
1F
100
AcDbEntity
  8
DETAILS
 62
     6
370
    20
100
AcDbLine
 10
31.11866897783873
 20
79.58133175913918
 30
0.0
 11
27.11866897783873
 21
79.58133175913963
 31
0.0
  0
LINE
  5
4AE
330
1F
100
AcDbEntity
  8
DETAILS
 62
     6
370
    20
100
AcDbLine
 10
27.30866897783651
 20
74.6513317591398
 30
0.0
 11
27.65866897783596
 21
74.6513317591398
 31
0.0
  0
LINE
  5
4AF
330
1F
100
AcDbEntity
  8
DETAILS
 62
     6
370
    20
100
AcDbLine
 10
30.55866897783741
 20
74.6513317591398
 30
0.0
 11
30.82080101219342
 21
74.91346379349261
 31
0.0
  0
LINE
  5
4B0
330
1F
100
AcDbEntity
  8
DETAILS
 62
     6
370
    20
100
AcDbLine
 10
27.65866897783596
 20
74.6513317591398
 30
0.0
 11
27.39653694347996
 21
74.91346379349852
 31
0.0
  0
LINE
  5
4B1
330
1F
100
AcDbEntity
  8
DETAILS
 62
     6
370
    20
100
AcDbLine
 10
30.56866897783854
 20
79.19133175913976
 30
0.0
 11
30.82080101219342
 21
78.93919972478307
 31
0.0
  0
LINE
  5
4B2
330
1F
100
AcDbEntity
  8
DETAILS
 62
     6
370
    20
100
AcDbLine
 10
27.66866897783709
 20
79.19133175913976
 30
0.0
 11
27.39653694348178
 21
78.91919972478763
 31
0.0
  0
LINE
  5
4B3
330
1F
100
AcDbEntity
  8
DETAILS
 62
     6
370
    20
100
AcDbLine
 10
30.90866897783778
 20
75.12559582784934
 30
0.0
 11
30.90866897783687
 21
78.72706769042816
 31
0.0
  0
LINE
  5
4B4
330
1F
100
AcDbEntity
  8
DETAILS
 62
     6
370
    20
100
AcDbLine
 10
27.30866897783651
 20
75.12559582785343
 30
0.0
 11
27.30866897783651
 21
78.70706769043045
 31
0.0
  0
ARC
  5
4B5
330
1F
100
AcDbEntity
  8
DETAILS
 62
     6
370
    20
100
AcDbCircle
 10
30.6086689778376
 20
75.12559582784934
 30
0.0
 40
0.3
100
AcDbArc
 50
314.9999999997973
 51
0.0
  0
ARC
  5
4B6
330
1F
100
AcDbEntity
  8
DETAILS
 62
     6
370
    20
100
AcDbCircle
 10
27.6086689778376
 20
75.12559582785297
 30
0.0
 40
0.3
100
AcDbArc
 50
180.0
 51
224.9999999996868
  0
ARC
  5
4B7
330
1F
100
AcDbEntity
  8
DETAILS
 62
     6
370
    20
100
AcDbCircle
 10
30.6086689778376
 20
78.7270676904277
 30
0.0
 40
0.3
100
AcDbArc
 50
0.0000000000260551
 51
44.99999999970523
  0
ARC
  5
4B8
330
1F
100
AcDbEntity
  8
DETAILS
 62
     6
370
    20
100
AcDbCircle
 10
27.6086689778376
 20
78.70706769043
 30
0.0
 40
0.3
100
AcDbArc
 50
134.9999999997052
 51
180.0
  0
LINE
  5
4B9
330
1F
100
AcDbEntity
  8
DETAILS
 62
     6
370
    20
100
AcDbLine
 10
27.11866897783873
 20
79.67133175913978
 30
0.0
 11
27.66866897783709
 21
79.67133175913978
 31
0.0
  0
LINE
  5
4BA
330
1F
100
AcDbEntity
  8
DETAILS
 62
     6
370
    20
100
AcDbLine
 10
27.91866897783709
 20
79.72133175913995
 30
0.0
 11
27.91866897783709
 21
80.32564849522396
 31
0.0
  0
LINE
  5
4BB
330
1F
100
AcDbEntity
  8
DETAILS
 62
     6
370
    20
100
AcDbLine
 10
28.01866897783745
 20
79.72133175913995
 30
0.0
 11
28.01866897783745
 21
80.23921855134814
 31
0.0
  0
ARC
  5
4BC
330
1F
100
AcDbEntity
  8
DETAILS
 62
     6
370
    20
100
AcDbCircle
 10
28.08042663661669
 20
80.24345728669777
 30
0.0
 40
0.0619029506189981
100
AcDbArc
 50
134.9903235096027
 51
183.9263367617325
  0
LINE
  5
4BD
330
1F
100
AcDbEntity
  8
DETAILS
 62
     6
370
    20
100
AcDbLine
 10
30.36866897783781
 20
79.67133175913932
 30
0.0
 11
30.56866897783854
 21
79.67133175913932
 31
0.0
  0
LINE
  5
4BE
330
1F
100
AcDbEntity
  8
DETAILS
 62
     6
370
    20
100
AcDbLine
 10
30.31866897783854
 20
79.7213317591395
 30
0.0
 11
30.31866897783854
 21
80.32564849522396
 31
0.0
  0
LINE
  5
4BF
330
1F
100
AcDbEntity
  8
DETAILS
 62
     6
370
    20
100
AcDbLine
 10
30.21866897783818
 20
79.7213317591395
 30
0.0
 11
30.21866897783818
 21
80.23921855134767
 31
0.0
  0
ARC
  5
4C0
330
1F
100
AcDbEntity
  8
DETAILS
 62
     6
370
    20
100
AcDbCircle
 10
30.10641314583879
 20
80.2360834990036
 30
0.0
 40
0.1122996009395304
100
AcDbArc
 50
1.599726146933114
 51
27.09751498394534
  0
LINE
  5
4C1
330
1F
100
AcDbEntity
  8
DETAILS
 62
     6
370
    20
100
AcDbLine
 10
28.66866897783708
 20
79.7213317591395
 30
0.0
 11
28.66866897783708
 21
80.23921855134677
 31
0.0
  0
LINE
  5
4C2
330
1F
100
AcDbEntity
  8
DETAILS
 62
     6
370
    20
100
AcDbLine
 10
28.76866897783745
 20
79.7213317591395
 30
0.0
 11
28.76866897783745
 21
80.23921855134814
 31
0.0
  0
ARC
  5
4C3
330
1F
100
AcDbEntity
  8
DETAILS
 62
     6
370
    20
100
AcDbCircle
 10
28.71866897783636
 20
80.35707324491523
 30
0.0
 40
0.0935752503092939
100
AcDbArc
 50
311.7278668394931
 51
228.2721331609136
  0
ARC
  5
4C4
330
1F
100
AcDbEntity
  8
DETAILS
 62
     6
370
    20
100
AcDbCircle
 10
28.56866897783672
 20
80.23921855134677
 30
0.0
 40
0.1
100
AcDbArc
 50
0.0
 51
28.6972393524193
  0
ARC
  5
4C5
330
1F
100
AcDbEntity
  8
DETAILS
 62
     6
370
    20
100
AcDbCircle
 10
28.8686689778369
 20
80.23921855134814
 30
0.0
 40
0.1
100
AcDbArc
 50
151.3027606481172
 51
180.0
  0
LINE
  5
4C6
330
1F
100
AcDbEntity
  8
DETAILS
 62
     6
370
    20
100
AcDbLine
 10
29.46866897783909
 20
79.7213317591395
 30
0.0
 11
29.46866897783818
 21
80.23921855134677
 31
0.0
  0
LINE
  5
4C7
330
1F
100
AcDbEntity
  8
DETAILS
 62
     6
370
    20
100
AcDbLine
 10
29.56866897783854
 20
79.7213317591395
 30
0.0
 11
29.56866897783854
 21
80.23921855134767
 31
0.0
  0
ARC
  5
4C8
330
1F
100
AcDbEntity
  8
DETAILS
 62
     6
370
    20
100
AcDbCircle
 10
29.51866897783836
 20
80.35707324491477
 30
0.0
 40
0.0935752503091666
100
AcDbArc
 50
311.7278668395667
 51
228.2721331606193
  0
ARC
  5
4C9
330
1F
100
AcDbEntity
  8
DETAILS
 62
     6
370
    20
100
AcDbCircle
 10
29.36866897783872
 20
80.23921855134677
 30
0.0
 40
0.1
100
AcDbArc
 50
0.0
 51
28.6972393524193
  0
ARC
  5
4CA
330
1F
100
AcDbEntity
  8
DETAILS
 62
     6
370
    20
100
AcDbCircle
 10
29.66866897783891
 20
80.23921855134767
 30
0.0
 40
0.1
100
AcDbArc
 50
151.3027606481172
 51
180.0
  0
LINE
  5
4CB
330
1F
100
AcDbEntity
  8
DETAILS
 62
     6
370
    20
100
AcDbLine
 10
30.26866897783836
 20
80.45064849522395
 30
0.0
 11
31.11866897783873
 21
80.45064849522395
 31
0.0
  0
ARC
  5
4CC
330
1F
100
AcDbEntity
  8
DETAILS
 62
     6
370
    20
100
AcDbCircle
 10
27.98115597883677
 20
80.35960931863474
 30
0.0
 40
0.091207026586975
100
AcDbArc
 50
307.4863303690937
 51
93.47656839120459
  0
ARC
  5
4CD
330
1F
100
AcDbEntity
  8
DETAILS
 62
     6
370
    20
100
AcDbCircle
 10
30.26866897783836
 20
80.35707324491477
 30
0.0
 40
0.0935752503091878
100
AcDbArc
 50
90.0
 51
228.2720386612376
  0
LINE
  5
4CE
330
1F
100
AcDbEntity
  8
DETAILS
 62
     6
370
    20
100
AcDbLine
 10
27.9866868038034
 20
80.45064849522395
 30
0.0
 11
27.11866897783782
 21
80.45064849522395
 31
0.0
  0
LINE
  5
4CF
330
1F
100
AcDbEntity
  8
DETAILS
 62
     6
370
    20
100
AcDbLine
 10
27.91866897783709
 20
80.32564849522396
 30
0.0
 11
27.11866897783782
 21
80.32564849522396
 31
0.0
  0
LINE
  5
4D0
330
1F
100
AcDbEntity
  8
DETAILS
 62
     6
370
    20
100
AcDbLine
 10
30.31866897783854
 20
80.32564849522396
 30
0.0
 11
31.11866897783873
 21
80.32564849522396
 31
0.0
  0
LINE
  5
4D1
330
1F
100
AcDbEntity
  8
DETAILS
 62
     6
370
    20
100
AcDbLine
 10
30.16866897783891
 20
79.67133175913932
 30
0.0
 11
29.61866897783873
 21
79.67133175913978
 31
0.0
  0
LINE
  5
4D2
330
1F
100
AcDbEntity
  8
DETAILS
 62
     6
370
    20
100
AcDbLine
 10
29.41866897783891
 20
79.67133175913978
 30
0.0
 11
28.81866897783672
 21
79.67133175913978
 31
0.0
  0
LINE
  5
4D3
330
1F
100
AcDbEntity
  8
DETAILS
 62
     6
370
    20
100
AcDbLine
 10
28.6186689778369
 20
79.67133175913978
 30
0.0
 11
28.06866897783672
 21
79.67133175913978
 31
0.0
  0
LINE
  5
4D4
330
1F
100
AcDbEntity
  8
DETAILS
 62
     6
370
    20
100
AcDbLine
 10
27.868668977836
 20
79.67133175913978
 30
0.0
 11
27.11866897783873
 21
79.67133175913978
 31
0.0
  0
ARC
  5
4D5
330
1F
100
AcDbEntity
  8
DETAILS
 62
     6
370
    20
100
AcDbCircle
 10
27.868668977836
 20
79.72133175913995
 30
0.0
 40
0.05
100
AcDbArc
 50
270.0
 51
0.0
  0
ARC
  5
4D6
330
1F
100
AcDbEntity
  8
DETAILS
 62
     6
370
    20
100
AcDbCircle
 10
28.06866897783672
 20
79.72133175913995
 30
0.0
 40
0.05
100
AcDbArc
 50
180.0
 51
270.0
  0
ARC
  5
4D7
330
1F
100
AcDbEntity
  8
DETAILS
 62
     6
370
    20
100
AcDbCircle
 10
28.6186689778369
 20
79.7213317591395
 30
0.0
 40
0.05
100
AcDbArc
 50
270.0
 51
0.0
  0
ARC
  5
4D8
330
1F
100
AcDbEntity
  8
DETAILS
 62
     6
370
    20
100
AcDbCircle
 10
28.81866897783672
 20
79.7213317591395
 30
0.0
 40
0.05
100
AcDbArc
 50
180.0
 51
270.0
  0
ARC
  5
4D9
330
1F
100
AcDbEntity
  8
DETAILS
 62
     6
370
    20
100
AcDbCircle
 10
29.41866897783891
 20
79.7213317591395
 30
0.0
 40
0.05
100
AcDbArc
 50
270.0
 51
0.0
  0
ARC
  5
4DA
330
1F
100
AcDbEntity
  8
DETAILS
 62
     6
370
    20
100
AcDbCircle
 10
29.61866897783873
 20
79.7213317591395
 30
0.0
 40
0.05
100
AcDbArc
 50
180.0
 51
270.0
  0
ARC
  5
4DB
330
1F
100
AcDbEntity
  8
DETAILS
 62
     6
370
    20
100
AcDbCircle
 10
30.16866897783891
 20
79.7213317591395
 30
0.0
 40
0.05
100
AcDbArc
 50
270.0
 51
0.0
  0
ARC
  5
4DC
330
1F
100
AcDbEntity
  8
DETAILS
 62
     6
370
    20
100
AcDbCircle
 10
30.36866897783781
 20
79.7213317591395
 30
0.0
 40
0.05
100
AcDbArc
 50
179.9999999999479
 51
270.0
  0
LINE
  5
4DD
330
1F
100
AcDbEntity
  8
DETAILS
 62
     6
370
    20
100
AcDbLine
 10
27.11866897783873
 20
79.67133175913978
 30
0.0
 11
31.11866897783873
 21
79.67133175913978
 31
0.0
  0
LINE
  5
4DE
330
1F
100
AcDbEntity
  8
DETAILS
 62
     6
370
    20
100
AcDbLine
 10
27.868668977836
 20
79.67133175913978
 30
0.0
 11
28.06866897783672
 21
79.67133175913978
 31
0.0
  0
LINE
  5
4DF
330
1F
100
AcDbEntity
  8
DETAILS
 62
     6
370
    20
100
AcDbLine
 10
28.6186689778369
 20
79.67133175913978
 30
0.0
 11
28.81866897783672
 21
79.67133175913978
 31
0.0
  0
LINE
  5
4E0
330
1F
100
AcDbEntity
  8
DETAILS
 62
     6
370
    20
100
AcDbLine
 10
29.41866897783891
 20
79.67133175913978
 30
0.0
 11
29.61866897783873
 21
79.67133175913978
 31
0.0
  0
LINE
  5
4E1
330
1F
100
AcDbEntity
  8
DETAILS
 62
     6
370
    20
100
AcDbLine
 10
30.16866897783891
 20
79.67133175913978
 30
0.0
 11
30.36866897783781
 21
79.67133175913978
 31
0.0
  0
LINE
  5
4E2
330
1F
100
AcDbEntity
  8
DETAILS
 62
     6
370
    20
100
AcDbLine
 10
27.91866897783709
 20
74.6513317591398
 30
0.0
 11
28.01866897783745
 21
74.6513317591398
 31
0.0
  0
LINE
  5
4E3
330
1F
100
AcDbEntity
  8
DETAILS
 62
     6
370
    20
100
AcDbLine
 10
27.98828059240529
 20
73.93740943643706
 30
0.0
 11
28.01866897783745
 21
74.17133175913978
 31
0.0
  0
LINE
  5
4E4
330
1F
100
AcDbEntity
  8
DETAILS
 62
     6
370
    20
100
AcDbLine
 10
27.94905736537746
 20
73.93740943643752
 30
0.0
 11
27.91866897783709
 21
74.17133175913978
 31
0.0
  0
ARC
  5
4E5
330
1F
100
AcDbEntity
  8
DETAILS
 62
     6
370
    20
100
AcDbCircle
 10
27.96866897889137
 20
73.94133175913975
 30
0.0
 40
0.02
100
AcDbArc
 50
191.3099324739691
 51
348.690067525944
  0
LINE
  5
4E6
330
1F
100
AcDbEntity
  8
DETAILS
 62
     6
370
    20
100
AcDbLine
 10
28.7382805913521
 20
73.93740943643706
 30
0.0
 11
28.76866897678425
 21
74.17133175913978
 31
0.0
  0
LINE
  5
4E7
330
1F
100
AcDbEntity
  8
DETAILS
 62
     6
370
    20
100
AcDbLine
 10
28.69905736432426
 20
73.93740943643752
 30
0.0
 11
28.66866897678389
 21
74.17133175913978
 31
0.0
  0
ARC
  5
4E8
330
1F
100
AcDbEntity
  8
DETAILS
 62
     6
370
    20
100
AcDbCircle
 10
28.71866897783818
 20
73.94133175913975
 30
0.0
 40
0.02
100
AcDbArc
 50
191.3099324739691
 51
348.690067525944
  0
LINE
  5
4E9
330
1F
100
AcDbEntity
  8
DETAILS
 62
     6
370
    20
100
AcDbLine
 10
29.53828059135318
 20
73.93740943643706
 30
0.0
 11
29.56866897678535
 21
74.17133175913978
 31
0.0
  0
LINE
  5
4EA
330
1F
100
AcDbEntity
  8
DETAILS
 62
     6
370
    20
100
AcDbLine
 10
29.49905736432535
 20
73.93740943643752
 30
0.0
 11
29.46866897678498
 21
74.17133175913978
 31
0.0
  0
ARC
  5
4EB
330
1F
100
AcDbEntity
  8
DETAILS
 62
     6
370
    20
100
AcDbCircle
 10
29.51866897783927
 20
73.94133175913975
 30
0.0
 40
0.02
100
AcDbArc
 50
191.3099324739691
 51
348.690067525944
  0
LINE
  5
4EC
330
1F
100
AcDbEntity
  8
DETAILS
 62
     6
370
    20
100
AcDbLine
 10
30.28828059135319
 20
73.93740943643706
 30
0.0
 11
30.31866897678535
 21
74.17133175913978
 31
0.0
  0
LINE
  5
4ED
330
1F
100
AcDbEntity
  8
DETAILS
 62
     6
370
    20
100
AcDbLine
 10
30.24905736432535
 20
73.93740943643752
 30
0.0
 11
30.21866897678498
 21
74.17133175913978
 31
0.0
  0
ARC
  5
4EE
330
1F
100
AcDbEntity
  8
DETAILS
 62
     6
370
    20
100
AcDbCircle
 10
30.26866897783927
 20
73.94133175913975
 30
0.0
 40
0.02
100
AcDbArc
 50
191.3099324739691
 51
348.690067525944
  0
LINE
  5
4EF
330
1F
100
AcDbEntity
  8
DETAILS
 62
     6
370
    20
100
AcDbLine
 10
27.65866897783596
 20
74.17133175913978
 30
0.0
 11
27.11866897783873
 21
73.65081629522364
 31
0.0
  0
LINE
  5
4F0
330
1F
100
AcDbEntity
  8
DETAILS
 62
     6
370
    20
100
AcDbLine
 10
30.55866897783833
 20
74.17133175913932
 30
0.0
 11
31.11866897783873
 21
73.63704604485292
 31
0.0
  0
LINE
  5
4F1
330
1F
100
AcDbEntity
  8
DETAILS
 62
     6
370
    20
100
AcDbLine
 10
30.56866897783854
 20
79.67133175913978
 30
0.0
 11
31.11866897783873
 21
80.20158816939556
 31
0.0
  0
LINE
  5
4F2
330
1F
100
AcDbEntity
  8
DETAILS
 62
     6
370
    20
100
AcDbLine
 10
27.66866897783709
 20
79.67133175913978
 30
0.0
 11
27.11866897783963
 21
80.20158816939465
 31
0.0
  0
LINE
  5
4F3
330
1F
100
AcDbEntity
  8
0
  6
HIDDEN
 62
     1
 48
0.02
100
AcDbLine
 10
25.46866897783909
 20
71.17133175913977
 30
0.0
 11
26.09366897783909
 21
71.17133175913977
 31
0.0
  0
LINE
  5
4F4
330
1F
100
AcDbEntity
  8
0
  6
HIDDEN
 62
     1
 48
0.02
100
AcDbLine
 10
26.49366897783873
 20
71.17133175913977
 30
0.0
 11
26.49366897783782
 21
70.67133175913977
 31
0.0
  0
LINE
  5
4F5
330
1F
100
AcDbEntity
  8
0
  6
HIDDEN
 62
     1
 48
0.02
100
AcDbLine
 10
26.09366897783909
 20
71.17133175913977
 30
0.0
 11
26.09366897784
 21
70.67133175913977
 31
0.0
  0
LINE
  5
4F6
330
1F
100
AcDbEntity
  8
0
  6
HIDDEN
 62
     1
 48
0.02
100
AcDbLine
 10
26.49366897783782
 20
71.17133175913977
 30
0.0
 11
27.11866897783782
 21
71.17133175913977
 31
0.0
  0
LINE
  5
4F7
330
1F
100
AcDbEntity
  8
0
  6
HIDDEN
 62
     1
 48
0.02
100
AcDbLine
 10
32.76866897784018
 20
71.17133175913977
 30
0.0
 11
32.76866897784018
 21
70.67133175913977
 31
0.0
  0
LINE
  5
4F8
330
1F
100
AcDbEntity
  8
0
  6
HIDDEN
 62
     1
 48
0.02
100
AcDbLine
 10
31.74366897783964
 20
71.17133175913977
 30
0.0
 11
31.74366897783964
 21
70.67133175913977
 31
0.0
  0
LINE
  5
4F9
330
1F
100
AcDbEntity
  8
0
  6
HIDDEN
 62
     1
 48
0.02
100
AcDbLine
 10
32.14366897784018
 20
71.17133175913977
 30
0.0
 11
32.14366897784018
 21
70.67133175913977
 31
0.0
  0
LINE
  5
4FA
330
1F
100
AcDbEntity
  8
0
  6
HIDDEN
 62
     1
 48
0.02
100
AcDbLine
 10
31.11866897783964
 20
71.17133175913977
 30
0.0
 11
31.74366897783964
 21
71.17133175913977
 31
0.0
  0
LINE
  5
4FB
330
1F
100
AcDbEntity
  8
0
  6
HIDDEN
 62
     1
 48
0.02
100
AcDbLine
 10
32.14366897784018
 20
71.17133175913977
 30
0.0
 11
32.76866897784018
 21
71.17133175913977
 31
0.0
  0
LINE
  5
4FC
330
1F
100
AcDbEntity
  8
0
  6
HIDDEN
 62
     1
 48
0.02
100
AcDbLine
 10
31.56866897784036
 20
70.92133175913978
 30
0.0
 11
31.56866897784036
 21
70.67133175913977
 31
0.0
  0
LINE
  5
4FD
330
1F
100
AcDbEntity
  8
0
  6
HIDDEN
 62
     1
 48
0.02
100
AcDbLine
 10
31.31866897784036
 20
70.92133175913978
 30
0.0
 11
31.56866897784036
 21
70.92133175913978
 31
0.0
  0
LINE
  5
4FE
330
1F
100
AcDbEntity
  8
0
 62
     1
100
AcDbLine
 10
25.11866897783963
 20
70.67133175913977
 30
0.0
 11
25.11866897783963
 21
58.67133175913977
 31
0.0
  0
LINE
  5
4FF
330
1F
100
AcDbEntity
  8
0
 62
     1
100
AcDbLine
 10
33.11866897783963
 20
70.67133175913977
 30
0.0
 11
33.11866897783963
 21
58.67133175913977
 31
0.0
  0
LINE
  5
500
330
1F
100
AcDbEntity
  8
0
 62
     1
100
AcDbLine
 10
25.11866897783963
 20
70.67133175913977
 30
0.0
 11
26.6686689778389
 21
70.67133175913977
 31
0.0
  0
LINE
  5
501
330
1F
100
AcDbEntity
  8
0
 62
     1
100
AcDbLine
 10
25.11866897783963
 20
58.67133175913977
 30
0.0
 11
27.11866897783873
 21
58.67133175913977
 31
0.0
  0
LINE
  5
502
330
1F
100
AcDbEntity
  8
0
 62
     1
100
AcDbLine
 10
27.11866897783873
 20
71.17133175913977
 30
0.0
 11
27.11866897783963
 21
58.67133175913977
 31
0.0
  0
LINE
  5
503
330
1F
100
AcDbEntity
  8
0
 62
     1
100
AcDbLine
 10
31.11866897783782
 20
71.17133175913977
 30
0.0
 11
31.11866897783964
 21
58.67133175913977
 31
0.0
  0
LINE
  5
504
330
1F
100
AcDbEntity
  8
0
 62
     1
100
AcDbLine
 10
25.46866897783909
 20
71.17133175913977
 30
0.0
 11
26.09366897783909
 21
71.17133175913977
 31
0.0
  0
LINE
  5
505
330
1F
100
AcDbEntity
  8
0
 62
     1
100
AcDbLine
 10
25.46866897783909
 20
71.17133175913977
 30
0.0
 11
25.46866897783909
 21
58.67133175913977
 31
0.0
  0
LINE
  5
506
330
1F
100
AcDbEntity
  8
0
 62
     1
100
AcDbLine
 10
32.76866897783927
 20
71.17133175913977
 30
0.0
 11
32.76866897783927
 21
70.67133175913977
 31
0.0
  0
LINE
  5
507
330
1F
100
AcDbEntity
  8
0
 62
     1
100
AcDbLine
 10
26.49366897783873
 20
71.17133175913977
 30
0.0
 11
26.49366897783782
 21
70.67133175913977
 31
0.0
  0
LINE
  5
508
330
1F
100
AcDbEntity
  8
0
 62
     1
100
AcDbLine
 10
26.09366897783909
 20
71.17133175913977
 30
0.0
 11
26.09366897784
 21
70.67133175913977
 31
0.0
  0
LINE
  5
509
330
1F
100
AcDbEntity
  8
0
 62
     1
100
AcDbLine
 10
31.74366897783782
 20
71.17133175913977
 30
0.0
 11
31.74366897783782
 21
70.67133175913977
 31
0.0
  0
LINE
  5
50A
330
1F
100
AcDbEntity
  8
0
 62
     1
100
AcDbLine
 10
32.14366897783927
 20
71.17133175913977
 30
0.0
 11
32.14366897783927
 21
70.67133175913977
 31
0.0
  0
LINE
  5
50B
330
1F
100
AcDbEntity
  8
0
 62
     1
100
AcDbLine
 10
31.11866897783873
 20
71.17133175913977
 30
0.0
 11
31.74366897783873
 21
71.17133175913977
 31
0.0
  0
LINE
  5
50C
330
1F
100
AcDbEntity
  8
0
 62
     1
100
AcDbLine
 10
32.14366897783927
 20
71.17133175913977
 30
0.0
 11
32.76866897783927
 21
71.17133175913977
 31
0.0
  0
LINE
  5
50D
330
1F
100
AcDbEntity
  8
0
 62
     1
100
AcDbLine
 10
26.49366897783782
 20
71.17133175913977
 30
0.0
 11
27.11866897783782
 21
71.17133175913977
 31
0.0
  0
LINE
  5
50E
330
1F
100
AcDbEntity
  8
0
 62
     1
100
AcDbLine
 10
26.91866897783891
 20
70.92133175913978
 30
0.0
 11
26.91866897783891
 21
58.67133175913977
 31
0.0
  0
LINE
  5
50F
330
1F
100
AcDbEntity
  8
0
 62
     1
100
AcDbLine
 10
31.31866897783854
 20
70.92133175913978
 30
0.0
 11
31.31866897783854
 21
58.67133175913977
 31
0.0
  0
LINE
  5
510
330
1F
100
AcDbEntity
  8
0
 62
     1
100
AcDbLine
 10
26.6686689778389
 20
70.92133175913978
 30
0.0
 11
26.6686689778389
 21
70.67133175913977
 31
0.0
  0
LINE
  5
511
330
1F
100
AcDbEntity
  8
0
 62
     1
100
AcDbLine
 10
31.56866897783854
 20
70.92133175913978
 30
0.0
 11
31.56866897783854
 21
70.67133175913977
 31
0.0
  0
LINE
  5
512
330
1F
100
AcDbEntity
  8
0
 62
     1
100
AcDbLine
 10
26.6686689778389
 20
70.92133175913978
 30
0.0
 11
26.91866897783891
 21
70.92133175913978
 31
0.0
  0
LINE
  5
513
330
1F
100
AcDbEntity
  8
0
 62
     1
100
AcDbLine
 10
31.31866897783854
 20
70.92133175913978
 30
0.0
 11
31.56866897783854
 21
70.92133175913978
 31
0.0
  0
LINE
  5
514
330
1F
100
AcDbEntity
  8
0
 62
     1
100
AcDbLine
 10
31.53366897783869
 20
70.67133175913977
 30
0.0
 11
33.11866897783963
 21
70.67133175913977
 31
0.0
  0
LINE
  5
515
330
1F
100
AcDbEntity
  8
0
 62
     1
100
AcDbLine
 10
26.91866897783891
 20
70.67133175913977
 30
0.0
 11
27.11866897783782
 21
70.67133175913977
 31
0.0
  0
LINE
  5
516
330
1F
100
AcDbEntity
  8
0
 62
     1
100
AcDbLine
 10
31.53366897783869
 20
70.67133175913977
 30
0.0
 11
31.53366897783869
 21
58.67133175913977
 31
0.0
  0
LINE
  5
517
330
1F
100
AcDbEntity
  8
0
 62
     1
100
AcDbLine
 10
32.35366897783931
 20
70.67133175913977
 30
0.0
 11
32.35366897783931
 21
58.67133175913977
 31
0.0
  0
LINE
  5
518
330
1F
100
AcDbEntity
  8
A2 Hatch
  6
DASHED2
 48
0.15
100
AcDbLine
 10
31.69366897783945
 20
70.67133175913977
 30
0.0
 11
31.69366897783945
 21
58.67133175913977
 31
0.0
  0
LINE
  5
519
330
1F
100
AcDbEntity
  8
A2 Hatch
  6
DASHED2
 48
0.15
100
AcDbLine
 10
32.19366897783945
 20
70.67133175913977
 30
0.0
 11
32.19366897783945
 21
58.67133175913977
 31
0.0
  0
LINE
  5
51A
330
1F
100
AcDbEntity
  8
0
 48
0.15
100
AcDbLine
 10
26.09366897783909
 20
70.67133175913977
 30
0.0
 11
26.49366897783873
 21
70.67133175913977
 31
0.0
  0
LINE
  5
51B
330
1F
100
AcDbEntity
  8
A2 Hatch
  6
DASHED2
 48
0.15
100
AcDbLine
 10
25.88366897783905
 20
71.17133175913977
 30
0.0
 11
25.88366897783905
 21
58.67133175913977
 31
0.0
  0
LINE
  5
51C
330
1F
100
AcDbEntity
  8
A2 Hatch
  6
DASHED2
 48
0.15
100
AcDbLine
 10
26.70366897783876
 20
71.17133175913977
 30
0.0
 11
26.70366897783876
 21
58.67133175913977
 31
0.0
  0
LINE
  5
51D
330
1F
100
AcDbEntity
  8
0
 62
     1
100
AcDbLine
 10
26.0436689778389
 20
71.17133175913977
 30
0.0
 11
26.0436689778389
 21
58.67133175913977
 31
0.0
  0
LINE
  5
51E
330
1F
100
AcDbEntity
  8
0
 62
     1
100
AcDbLine
 10
26.54366897783891
 20
71.17133175913977
 30
0.0
 11
26.54366897783891
 21
58.67133175913977
 31
0.0
  0
LINE
  5
51F
330
1F
100
AcDbEntity
  8
0
 62
     1
100
AcDbLine
 10
26.54366897783891
 20
70.67133175913977
 30
0.0
 11
26.0436689778389
 21
70.67133175913977
 31
0.0
  0
LINE
  5
520
330
1F
100
AcDbEntity
  8
0
 62
     1
100
AcDbLine
 10
31.11866897783873
 20
70.67133175913977
 30
0.0
 11
31.31866897783854
 21
70.67133175913977
 31
0.0
  0
LINE
  5
521
330
1F
100
AcDbEntity
  8
0
 62
     1
100
AcDbLine
 10
31.11866897783964
 20
58.67133175913977
 30
0.0
 11
33.11866897783963
 21
58.67133175913977
 31
0.0
  0
LINE
  5
522
330
1F
100
AcDbEntity
  8
DETAILS
 62
     6
370
    20
100
AcDbLine
 10
31.11866897783873
 20
62.65133175913979
 30
0.0
 11
27.11866897783873
 21
62.65133175913979
 31
0.0
  0
LINE
  5
523
330
1F
100
AcDbEntity
  8
DETAILS
 62
     6
370
    20
100
AcDbLine
 10
31.11866897783873
 20
67.19133175913976
 30
0.0
 11
27.11866897783873
 21
67.19133175913976
 31
0.0
  0
LINE
  5
524
330
1F
100
AcDbEntity
  8
DETAILS
 62
     6
370
    20
100
AcDbLine
 10
31.11866897783873
 20
62.17133175913932
 30
0.0
 11
27.11866897783873
 21
62.17133175913978
 31
0.0
  0
LINE
  5
525
330
1F
100
AcDbEntity
  8
DETAILS
 62
     6
370
    20
100
AcDbLine
 10
31.11866897783873
 20
62.26133175913947
 30
0.0
 11
27.11866897783873
 21
62.26133175913992
 31
0.0
  0
LINE
  5
526
330
1F
100
AcDbEntity
  8
DETAILS
 62
     6
370
    20
100
AcDbLine
 10
31.11866897783873
 20
62.56133175913965
 30
0.0
 11
27.11866897783873
 21
62.56133175913965
 31
0.0
  0
LINE
  5
527
330
1F
100
AcDbEntity
  8
DETAILS
 62
     6
370
    20
100
AcDbLine
 10
31.11866897783873
 20
67.281331759139
 30
0.0
 11
27.11866897783873
 21
67.2813317591399
 31
0.0
  0
LINE
  5
528
330
1F
100
AcDbEntity
  8
DETAILS
 62
     6
370
    20
100
AcDbLine
 10
31.11866897783873
 20
67.58133175913918
 30
0.0
 11
27.11866897783873
 21
67.58133175913963
 31
0.0
  0
LINE
  5
529
330
1F
100
AcDbEntity
  8
DETAILS
 62
     6
370
    20
100
AcDbLine
 10
27.30866897783651
 20
62.65133175913979
 30
0.0
 11
27.65866897783596
 21
62.65133175913979
 31
0.0
  0
LINE
  5
52A
330
1F
100
AcDbEntity
  8
DETAILS
 62
     6
370
    20
100
AcDbLine
 10
30.55866897783741
 20
62.65133175913979
 30
0.0
 11
30.82080101219342
 21
62.91346379349261
 31
0.0
  0
LINE
  5
52B
330
1F
100
AcDbEntity
  8
DETAILS
 62
     6
370
    20
100
AcDbLine
 10
27.65866897783596
 20
62.65133175913979
 30
0.0
 11
27.39653694347996
 21
62.91346379349852
 31
0.0
  0
LINE
  5
52C
330
1F
100
AcDbEntity
  8
DETAILS
 62
     6
370
    20
100
AcDbLine
 10
30.56866897783854
 20
67.19133175913976
 30
0.0
 11
30.82080101219342
 21
66.93919972478306
 31
0.0
  0
LINE
  5
52D
330
1F
100
AcDbEntity
  8
DETAILS
 62
     6
370
    20
100
AcDbLine
 10
27.66866897783709
 20
67.19133175913976
 30
0.0
 11
27.39653694348178
 21
66.91919972478763
 31
0.0
  0
LINE
  5
52E
330
1F
100
AcDbEntity
  8
DETAILS
 62
     6
370
    20
100
AcDbLine
 10
30.90866897783778
 20
63.12559582784934
 30
0.0
 11
30.90866897783687
 21
66.72706769042815
 31
0.0
  0
LINE
  5
52F
330
1F
100
AcDbEntity
  8
DETAILS
 62
     6
370
    20
100
AcDbLine
 10
27.30866897783651
 20
63.12559582785343
 30
0.0
 11
27.30866897783651
 21
66.70706769043045
 31
0.0
  0
ARC
  5
530
330
1F
100
AcDbEntity
  8
DETAILS
 62
     6
370
    20
100
AcDbCircle
 10
30.6086689778376
 20
63.12559582784934
 30
0.0
 40
0.3
100
AcDbArc
 50
314.9999999997973
 51
0.0
  0
ARC
  5
531
330
1F
100
AcDbEntity
  8
DETAILS
 62
     6
370
    20
100
AcDbCircle
 10
27.6086689778376
 20
63.12559582785297
 30
0.0
 40
0.3
100
AcDbArc
 50
180.0
 51
224.9999999996868
  0
ARC
  5
532
330
1F
100
AcDbEntity
  8
DETAILS
 62
     6
370
    20
100
AcDbCircle
 10
30.6086689778376
 20
66.7270676904277
 30
0.0
 40
0.3
100
AcDbArc
 50
0.0000000000260551
 51
44.99999999970523
  0
ARC
  5
533
330
1F
100
AcDbEntity
  8
DETAILS
 62
     6
370
    20
100
AcDbCircle
 10
27.6086689778376
 20
66.70706769042999
 30
0.0
 40
0.3
100
AcDbArc
 50
134.9999999997052
 51
180.0
  0
LINE
  5
534
330
1F
100
AcDbEntity
  8
DETAILS
 62
     6
370
    20
100
AcDbLine
 10
27.11866897783873
 20
67.67133175913977
 30
0.0
 11
27.66866897783709
 21
67.67133175913977
 31
0.0
  0
LINE
  5
535
330
1F
100
AcDbEntity
  8
DETAILS
 62
     6
370
    20
100
AcDbLine
 10
27.91866897783709
 20
67.72133175913996
 30
0.0
 11
27.91866897783709
 21
68.32564849522396
 31
0.0
  0
LINE
  5
536
330
1F
100
AcDbEntity
  8
DETAILS
 62
     6
370
    20
100
AcDbLine
 10
28.01866897783745
 20
67.72133175913996
 30
0.0
 11
28.01866897783745
 21
68.23921855134813
 31
0.0
  0
ARC
  5
537
330
1F
100
AcDbEntity
  8
DETAILS
 62
     6
370
    20
100
AcDbCircle
 10
28.08042663661669
 20
68.24345728669777
 30
0.0
 40
0.0619029506189981
100
AcDbArc
 50
134.9903235096027
 51
183.9263367617325
  0
LINE
  5
538
330
1F
100
AcDbEntity
  8
DETAILS
 62
     6
370
    20
100
AcDbLine
 10
30.36866897783781
 20
67.67133175913932
 30
0.0
 11
30.56866897783854
 21
67.67133175913932
 31
0.0
  0
LINE
  5
539
330
1F
100
AcDbEntity
  8
DETAILS
 62
     6
370
    20
100
AcDbLine
 10
30.31866897783854
 20
67.7213317591395
 30
0.0
 11
30.31866897783854
 21
68.32564849522396
 31
0.0
  0
LINE
  5
53A
330
1F
100
AcDbEntity
  8
DETAILS
 62
     6
370
    20
100
AcDbLine
 10
30.21866897783818
 20
67.7213317591395
 30
0.0
 11
30.21866897783818
 21
68.23921855134767
 31
0.0
  0
ARC
  5
53B
330
1F
100
AcDbEntity
  8
DETAILS
 62
     6
370
    20
100
AcDbCircle
 10
30.10641314583879
 20
68.2360834990036
 30
0.0
 40
0.1122996009395304
100
AcDbArc
 50
1.599726146933114
 51
27.09751498394534
  0
LINE
  5
53C
330
1F
100
AcDbEntity
  8
DETAILS
 62
     6
370
    20
100
AcDbLine
 10
28.66866897783708
 20
67.7213317591395
 30
0.0
 11
28.66866897783708
 21
68.23921855134677
 31
0.0
  0
LINE
  5
53D
330
1F
100
AcDbEntity
  8
DETAILS
 62
     6
370
    20
100
AcDbLine
 10
28.76866897783745
 20
67.7213317591395
 30
0.0
 11
28.76866897783745
 21
68.23921855134813
 31
0.0
  0
ARC
  5
53E
330
1F
100
AcDbEntity
  8
DETAILS
 62
     6
370
    20
100
AcDbCircle
 10
28.71866897783636
 20
68.35707324491522
 30
0.0
 40
0.0935752503092939
100
AcDbArc
 50
311.7278668394931
 51
228.2721331609136
  0
ARC
  5
53F
330
1F
100
AcDbEntity
  8
DETAILS
 62
     6
370
    20
100
AcDbCircle
 10
28.56866897783672
 20
68.23921855134677
 30
0.0
 40
0.1
100
AcDbArc
 50
0.0
 51
28.6972393524193
  0
ARC
  5
540
330
1F
100
AcDbEntity
  8
DETAILS
 62
     6
370
    20
100
AcDbCircle
 10
28.8686689778369
 20
68.23921855134813
 30
0.0
 40
0.1
100
AcDbArc
 50
151.3027606481172
 51
180.0
  0
LINE
  5
541
330
1F
100
AcDbEntity
  8
DETAILS
 62
     6
370
    20
100
AcDbLine
 10
29.46866897783909
 20
67.7213317591395
 30
0.0
 11
29.46866897783818
 21
68.23921855134677
 31
0.0
  0
LINE
  5
542
330
1F
100
AcDbEntity
  8
DETAILS
 62
     6
370
    20
100
AcDbLine
 10
29.56866897783854
 20
67.7213317591395
 30
0.0
 11
29.56866897783854
 21
68.23921855134767
 31
0.0
  0
ARC
  5
543
330
1F
100
AcDbEntity
  8
DETAILS
 62
     6
370
    20
100
AcDbCircle
 10
29.51866897783836
 20
68.35707324491477
 30
0.0
 40
0.0935752503091666
100
AcDbArc
 50
311.7278668395667
 51
228.2721331606193
  0
ARC
  5
544
330
1F
100
AcDbEntity
  8
DETAILS
 62
     6
370
    20
100
AcDbCircle
 10
29.36866897783872
 20
68.23921855134677
 30
0.0
 40
0.1
100
AcDbArc
 50
0.0
 51
28.6972393524193
  0
ARC
  5
545
330
1F
100
AcDbEntity
  8
DETAILS
 62
     6
370
    20
100
AcDbCircle
 10
29.66866897783891
 20
68.23921855134767
 30
0.0
 40
0.1
100
AcDbArc
 50
151.3027606481172
 51
180.0
  0
LINE
  5
546
330
1F
100
AcDbEntity
  8
DETAILS
 62
     6
370
    20
100
AcDbLine
 10
30.26866897783836
 20
68.45064849522396
 30
0.0
 11
31.11866897783873
 21
68.45064849522396
 31
0.0
  0
ARC
  5
547
330
1F
100
AcDbEntity
  8
DETAILS
 62
     6
370
    20
100
AcDbCircle
 10
27.98115597883677
 20
68.35960931863474
 30
0.0
 40
0.091207026586975
100
AcDbArc
 50
307.4863303690937
 51
93.47656839120459
  0
ARC
  5
548
330
1F
100
AcDbEntity
  8
DETAILS
 62
     6
370
    20
100
AcDbCircle
 10
30.26866897783836
 20
68.35707324491477
 30
0.0
 40
0.0935752503091878
100
AcDbArc
 50
90.0
 51
228.2720386612376
  0
LINE
  5
549
330
1F
100
AcDbEntity
  8
DETAILS
 62
     6
370
    20
100
AcDbLine
 10
27.9866868038034
 20
68.45064849522396
 30
0.0
 11
27.11866897783782
 21
68.45064849522396
 31
0.0
  0
LINE
  5
54A
330
1F
100
AcDbEntity
  8
DETAILS
 62
     6
370
    20
100
AcDbLine
 10
27.91866897783709
 20
68.32564849522396
 30
0.0
 11
27.11866897783782
 21
68.32564849522396
 31
0.0
  0
LINE
  5
54B
330
1F
100
AcDbEntity
  8
DETAILS
 62
     6
370
    20
100
AcDbLine
 10
30.31866897783854
 20
68.32564849522396
 30
0.0
 11
31.11866897783873
 21
68.32564849522396
 31
0.0
  0
LINE
  5
54C
330
1F
100
AcDbEntity
  8
DETAILS
 62
     6
370
    20
100
AcDbLine
 10
30.16866897783891
 20
67.67133175913932
 30
0.0
 11
29.61866897783873
 21
67.67133175913977
 31
0.0
  0
LINE
  5
54D
330
1F
100
AcDbEntity
  8
DETAILS
 62
     6
370
    20
100
AcDbLine
 10
29.41866897783891
 20
67.67133175913977
 30
0.0
 11
28.81866897783672
 21
67.67133175913977
 31
0.0
  0
LINE
  5
54E
330
1F
100
AcDbEntity
  8
DETAILS
 62
     6
370
    20
100
AcDbLine
 10
28.6186689778369
 20
67.67133175913977
 30
0.0
 11
28.06866897783672
 21
67.67133175913977
 31
0.0
  0
LINE
  5
54F
330
1F
100
AcDbEntity
  8
DETAILS
 62
     6
370
    20
100
AcDbLine
 10
27.868668977836
 20
67.67133175913977
 30
0.0
 11
27.11866897783873
 21
67.67133175913977
 31
0.0
  0
ARC
  5
550
330
1F
100
AcDbEntity
  8
DETAILS
 62
     6
370
    20
100
AcDbCircle
 10
27.868668977836
 20
67.72133175913996
 30
0.0
 40
0.05
100
AcDbArc
 50
270.0
 51
0.0
  0
ARC
  5
551
330
1F
100
AcDbEntity
  8
DETAILS
 62
     6
370
    20
100
AcDbCircle
 10
28.06866897783672
 20
67.72133175913996
 30
0.0
 40
0.05
100
AcDbArc
 50
180.0
 51
270.0
  0
ARC
  5
552
330
1F
100
AcDbEntity
  8
DETAILS
 62
     6
370
    20
100
AcDbCircle
 10
28.6186689778369
 20
67.7213317591395
 30
0.0
 40
0.05
100
AcDbArc
 50
270.0
 51
0.0
  0
ARC
  5
553
330
1F
100
AcDbEntity
  8
DETAILS
 62
     6
370
    20
100
AcDbCircle
 10
28.81866897783672
 20
67.7213317591395
 30
0.0
 40
0.05
100
AcDbArc
 50
180.0
 51
270.0
  0
ARC
  5
554
330
1F
100
AcDbEntity
  8
DETAILS
 62
     6
370
    20
100
AcDbCircle
 10
29.41866897783891
 20
67.7213317591395
 30
0.0
 40
0.05
100
AcDbArc
 50
270.0
 51
0.0
  0
ARC
  5
555
330
1F
100
AcDbEntity
  8
DETAILS
 62
     6
370
    20
100
AcDbCircle
 10
29.61866897783873
 20
67.7213317591395
 30
0.0
 40
0.05
100
AcDbArc
 50
180.0
 51
270.0
  0
ARC
  5
556
330
1F
100
AcDbEntity
  8
DETAILS
 62
     6
370
    20
100
AcDbCircle
 10
30.16866897783891
 20
67.7213317591395
 30
0.0
 40
0.05
100
AcDbArc
 50
270.0
 51
0.0
  0
ARC
  5
557
330
1F
100
AcDbEntity
  8
DETAILS
 62
     6
370
    20
100
AcDbCircle
 10
30.36866897783781
 20
67.7213317591395
 30
0.0
 40
0.05
100
AcDbArc
 50
179.9999999999479
 51
270.0
  0
LINE
  5
558
330
1F
100
AcDbEntity
  8
DETAILS
 62
     6
370
    20
100
AcDbLine
 10
27.11866897783873
 20
67.67133175913977
 30
0.0
 11
31.11866897783873
 21
67.67133175913977
 31
0.0
  0
LINE
  5
559
330
1F
100
AcDbEntity
  8
DETAILS
 62
     6
370
    20
100
AcDbLine
 10
27.868668977836
 20
67.67133175913977
 30
0.0
 11
28.06866897783672
 21
67.67133175913977
 31
0.0
  0
LINE
  5
55A
330
1F
100
AcDbEntity
  8
DETAILS
 62
     6
370
    20
100
AcDbLine
 10
28.6186689778369
 20
67.67133175913977
 30
0.0
 11
28.81866897783672
 21
67.67133175913977
 31
0.0
  0
LINE
  5
55B
330
1F
100
AcDbEntity
  8
DETAILS
 62
     6
370
    20
100
AcDbLine
 10
29.41866897783891
 20
67.67133175913977
 30
0.0
 11
29.61866897783873
 21
67.67133175913977
 31
0.0
  0
LINE
  5
55C
330
1F
100
AcDbEntity
  8
DETAILS
 62
     6
370
    20
100
AcDbLine
 10
30.16866897783891
 20
67.67133175913977
 30
0.0
 11
30.36866897783781
 21
67.67133175913977
 31
0.0
  0
LINE
  5
55D
330
1F
100
AcDbEntity
  8
DETAILS
 62
     6
370
    20
100
AcDbLine
 10
27.91866897783709
 20
62.65133175913979
 30
0.0
 11
28.01866897783745
 21
62.65133175913979
 31
0.0
  0
LINE
  5
55E
330
1F
100
AcDbEntity
  8
DETAILS
 62
     6
370
    20
100
AcDbLine
 10
27.98828059240529
 20
61.93740943643707
 30
0.0
 11
28.01866897783745
 21
62.17133175913978
 31
0.0
  0
LINE
  5
55F
330
1F
100
AcDbEntity
  8
DETAILS
 62
     6
370
    20
100
AcDbLine
 10
27.94905736537746
 20
61.93740943643752
 30
0.0
 11
27.91866897783709
 21
62.17133175913978
 31
0.0
  0
ARC
  5
560
330
1F
100
AcDbEntity
  8
DETAILS
 62
     6
370
    20
100
AcDbCircle
 10
27.96866897889137
 20
61.94133175913975
 30
0.0
 40
0.02
100
AcDbArc
 50
191.3099324739691
 51
348.690067525944
  0
LINE
  5
561
330
1F
100
AcDbEntity
  8
DETAILS
 62
     6
370
    20
100
AcDbLine
 10
28.7382805913521
 20
61.93740943643707
 30
0.0
 11
28.76866897678425
 21
62.17133175913978
 31
0.0
  0
LINE
  5
562
330
1F
100
AcDbEntity
  8
DETAILS
 62
     6
370
    20
100
AcDbLine
 10
28.69905736432426
 20
61.93740943643752
 30
0.0
 11
28.66866897678389
 21
62.17133175913978
 31
0.0
  0
ARC
  5
563
330
1F
100
AcDbEntity
  8
DETAILS
 62
     6
370
    20
100
AcDbCircle
 10
28.71866897783818
 20
61.94133175913975
 30
0.0
 40
0.02
100
AcDbArc
 50
191.3099324739691
 51
348.690067525944
  0
LINE
  5
564
330
1F
100
AcDbEntity
  8
DETAILS
 62
     6
370
    20
100
AcDbLine
 10
29.53828059135318
 20
61.93740943643707
 30
0.0
 11
29.56866897678535
 21
62.17133175913978
 31
0.0
  0
LINE
  5
565
330
1F
100
AcDbEntity
  8
DETAILS
 62
     6
370
    20
100
AcDbLine
 10
29.49905736432535
 20
61.93740943643752
 30
0.0
 11
29.46866897678498
 21
62.17133175913978
 31
0.0
  0
ARC
  5
566
330
1F
100
AcDbEntity
  8
DETAILS
 62
     6
370
    20
100
AcDbCircle
 10
29.51866897783927
 20
61.94133175913975
 30
0.0
 40
0.02
100
AcDbArc
 50
191.3099324739691
 51
348.690067525944
  0
LINE
  5
567
330
1F
100
AcDbEntity
  8
DETAILS
 62
     6
370
    20
100
AcDbLine
 10
30.28828059135319
 20
61.93740943643707
 30
0.0
 11
30.31866897678535
 21
62.17133175913978
 31
0.0
  0
LINE
  5
568
330
1F
100
AcDbEntity
  8
DETAILS
 62
     6
370
    20
100
AcDbLine
 10
30.24905736432535
 20
61.93740943643752
 30
0.0
 11
30.21866897678498
 21
62.17133175913978
 31
0.0
  0
ARC
  5
569
330
1F
100
AcDbEntity
  8
DETAILS
 62
     6
370
    20
100
AcDbCircle
 10
30.26866897783927
 20
61.94133175913975
 30
0.0
 40
0.02
100
AcDbArc
 50
191.3099324739691
 51
348.690067525944
  0
LINE
  5
56A
330
1F
100
AcDbEntity
  8
DETAILS
 62
     6
370
    20
100
AcDbLine
 10
27.65866897783596
 20
62.17133175913978
 30
0.0
 11
27.11866897783873
 21
61.65081629522365
 31
0.0
  0
LINE
  5
56B
330
1F
100
AcDbEntity
  8
DETAILS
 62
     6
370
    20
100
AcDbLine
 10
30.55866897783833
 20
62.17133175913932
 30
0.0
 11
31.11866897783873
 21
61.63704604485293
 31
0.0
  0
LINE
  5
56C
330
1F
100
AcDbEntity
  8
DETAILS
 62
     6
370
    20
100
AcDbLine
 10
30.56866897783854
 20
67.67133175913977
 30
0.0
 11
31.11866897783873
 21
68.20158816939557
 31
0.0
  0
LINE
  5
56D
330
1F
100
AcDbEntity
  8
DETAILS
 62
     6
370
    20
100
AcDbLine
 10
27.66866897783709
 20
67.67133175913977
 30
0.0
 11
27.11866897783963
 21
68.20158816939465
 31
0.0
  0
LINE
  5
56E
330
1F
100
AcDbEntity
  8
0
  6
HIDDEN
 62
     1
 48
0.02
100
AcDbLine
 10
25.46866897783909
 20
59.17133175913978
 30
0.0
 11
26.09366897783909
 21
59.17133175913978
 31
0.0
  0
LINE
  5
56F
330
1F
100
AcDbEntity
  8
0
  6
HIDDEN
 62
     1
 48
0.02
100
AcDbLine
 10
26.49366897783873
 20
59.17133175913978
 30
0.0
 11
26.49366897783782
 21
58.67133175913977
 31
0.0
  0
LINE
  5
570
330
1F
100
AcDbEntity
  8
0
  6
HIDDEN
 62
     1
 48
0.02
100
AcDbLine
 10
26.09366897783909
 20
59.17133175913978
 30
0.0
 11
26.09366897784
 21
58.67133175913977
 31
0.0
  0
LINE
  5
571
330
1F
100
AcDbEntity
  8
0
  6
HIDDEN
 62
     1
 48
0.02
100
AcDbLine
 10
26.49366897783782
 20
59.17133175913978
 30
0.0
 11
27.11866897783782
 21
59.17133175913978
 31
0.0
  0
LINE
  5
572
330
1F
100
AcDbEntity
  8
0
  6
HIDDEN
 62
     1
 48
0.02
100
AcDbLine
 10
32.76866897784018
 20
59.17133175913978
 30
0.0
 11
32.76866897784018
 21
58.67133175913977
 31
0.0
  0
LINE
  5
573
330
1F
100
AcDbEntity
  8
0
  6
HIDDEN
 62
     1
 48
0.02
100
AcDbLine
 10
31.74366897783964
 20
59.17133175913978
 30
0.0
 11
31.74366897783964
 21
58.67133175913977
 31
0.0
  0
LINE
  5
574
330
1F
100
AcDbEntity
  8
0
  6
HIDDEN
 62
     1
 48
0.02
100
AcDbLine
 10
32.14366897784018
 20
59.17133175913978
 30
0.0
 11
32.14366897784018
 21
58.67133175913977
 31
0.0
  0
LINE
  5
575
330
1F
100
AcDbEntity
  8
0
  6
HIDDEN
 62
     1
 48
0.02
100
AcDbLine
 10
31.11866897783964
 20
59.17133175913978
 30
0.0
 11
31.74366897783964
 21
59.17133175913978
 31
0.0
  0
LINE
  5
576
330
1F
100
AcDbEntity
  8
0
  6
HIDDEN
 62
     1
 48
0.02
100
AcDbLine
 10
32.14366897784018
 20
59.17133175913978
 30
0.0
 11
32.76866897784018
 21
59.17133175913978
 31
0.0
  0
LINE
  5
577
330
1F
100
AcDbEntity
  8
0
  6
HIDDEN
 62
     1
 48
0.02
100
AcDbLine
 10
31.56866897784036
 20
58.92133175913977
 30
0.0
 11
31.56866897784036
 21
58.67133175913977
 31
0.0
  0
LINE
  5
578
330
1F
100
AcDbEntity
  8
0
  6
HIDDEN
 62
     1
 48
0.02
100
AcDbLine
 10
31.31866897784036
 20
58.92133175913977
 30
0.0
 11
31.56866897784036
 21
58.92133175913977
 31
0.0
  0
LINE
  5
579
330
1F
100
AcDbEntity
  8
A5 heavy
 48
0.15
100
AcDbLine
 10
27.11866897783963
 20
58.67133175913977
 30
0.0
 11
31.11866897783964
 21
58.67133175913977
 31
0.0
  0
LINE
  5
57A
330
1F
100
AcDbEntity
  8
0
 48
0.15
100
AcDbLine
 10
33.61866897784054
 20
83.97826816990937
 30
0.0
 11
33.61866897783964
 21
56.67133175913978
 31
0.0
  0
LINE
  5
57B
330
1F
100
AcDbEntity
  8
0
 48
0.15
100
AcDbLine
 10
24.61866897783963
 20
81.01431377138442
 30
0.0
 11
24.61866897783963
 21
56.67133175914023
 31
0.0
  0
LINE
  5
57C
330
1F
100
AcDbEntity
  8
DIM
100
AcDbLine
 10
35.00307557689846
 20
84.44777946067961
 30
0.0
 11
30.03291510107644
 21
82.762186180551
 31
0.0
  0
LINE
  5
57D
330
1F
100
AcDbEntity
  8
DIM
100
AcDbLine
 10
30.73494736367772
 20
80.69216546709368
 30
0.0
 11
30.03291510107735
 21
82.762186180551
 31
0.0
  0
LINE
  5
57E
330
1F
100
AcDbEntity
  8
DIM
100
AcDbLine
 10
27.2878018053934
 20
84.13931102537844
 30
0.0
 11
27.98983406799377
 21
82.06929031192158
 31
0.0
  0
LINE
  5
57F
330
1F
100
AcDbEntity
  8
DIM
100
AcDbLine
 10
27.98983406799377
 20
82.06929031192158
 30
0.0
 11
21.92248239436683
 21
80.17056583308614
 31
0.0
  0
LINE
  5
580
330
1F
100
AcDbEntity
  8
DIM
100
AcDbLine
 10
30.73494736367772
 20
80.69216546709368
 30
0.0
 11
27.2878018053934
 21
84.13931102537844
 31
0.0
  0
LINE
  5
581
330
1F
100
AcDbEntity
  8
0
 48
0.15
100
AcDbLine
 10
24.61866897783963
 20
56.67133175914068
 30
0.0
 11
24.61866897784054
 21
56.42133175913977
 31
0.0
  0
LINE
  5
582
330
1F
100
AcDbEntity
  8
0
 48
0.15
100
AcDbLine
 10
24.61866897784054
 20
56.42133175913977
 30
0.0
 11
24.74366897784054
 21
56.42133175913977
 31
0.0
  0
LINE
  5
583
330
1F
100
AcDbEntity
  8
0
 48
0.15
100
AcDbLine
 10
24.74366897784054
 20
56.42133175913977
 30
0.0
 11
24.74366897784054
 21
54.42133175913977
 31
0.0
  0
LINE
  5
584
330
1F
100
AcDbEntity
  8
0
 48
0.15
100
AcDbLine
 10
24.74366897784054
 20
54.42133175913977
 30
0.0
 11
24.61866897784054
 21
54.42133175913977
 31
0.0
  0
LINE
  5
585
330
1F
100
AcDbEntity
  8
0
 48
0.15
100
AcDbLine
 10
24.61866897784054
 20
54.42133175913977
 30
0.0
 11
24.61866897784054
 21
54.17133175913978
 31
0.0
  0
LINE
  5
586
330
1F
100
AcDbEntity
  8
0
 48
0.15
100
AcDbLine
 10
24.61866897784054
 20
54.17133175913978
 30
0.0
 11
25.05339775141508
 21
53.73660298556479
 31
0.0
  0
LINE
  5
587
330
1F
100
AcDbEntity
  8
0
 48
0.15
100
AcDbLine
 10
25.05339775141508
 20
53.73660298556479
 30
0.0
 11
25.60932493183188
 21
53.73660298556479
 31
0.0
  0
LINE
  5
588
330
1F
100
AcDbEntity
  8
0
 48
0.15
100
AcDbLine
 10
27.48812652498961
 20
54.17133175913978
 30
0.0
 11
27.05339775141508
 21
53.73660298556479
 31
0.0
  0
LINE
  5
589
330
1F
100
AcDbEntity
  8
0
 48
0.15
100
AcDbLine
 10
27.48812652498961
 20
54.17133175913978
 30
0.0
 11
27.48812652498961
 21
55.62099658453826
 31
0.0
  0
LINE
  5
58A
330
1F
100
AcDbEntity
  8
0
 48
0.15
100
AcDbLine
 10
27.48812652498961
 20
55.62099658453826
 30
0.0
 11
27.98812652498961
 21
55.62099658453826
 31
0.0
  0
LINE
  5
58B
330
1F
100
AcDbEntity
  8
0
 48
0.15
100
AcDbLine
 10
27.98812652498961
 20
55.62099658453826
 30
0.0
 11
27.98812652498961
 21
57.17133175913978
 31
0.0
  0
LINE
  5
58C
330
1F
100
AcDbEntity
  8
0
 48
0.15
100
AcDbLine
 10
25.60932493183279
 20
54.59710737725709
 30
0.0
 11
25.60932493183279
 21
45.4699992985561
 31
0.0
  0
LINE
  5
58D
330
1F
100
AcDbEntity
  8
0
 48
0.15
100
AcDbLine
 10
25.73432493183279
 20
54.59710737725709
 30
0.0
 11
25.73432493183279
 21
45.4699992985561
 31
0.0
  0
LINE
  5
58E
330
1F
100
AcDbEntity
  8
0
 48
0.15
100
AcDbLine
 10
25.73432493183279
 20
54.59710737725709
 30
0.0
 11
25.60932493183279
 21
54.59710737725709
 31
0.0
  0
LINE
  5
58F
330
1F
100
AcDbEntity
  8
0
 48
0.15
100
AcDbLine
 10
26.33925788947451
 20
54.59710737725709
 30
0.0
 11
26.33925788947451
 21
45.4699992985561
 31
0.0
  0
LINE
  5
590
330
1F
100
AcDbEntity
  8
0
 48
0.15
100
AcDbLine
 10
26.46425788947451
 20
54.59710737725709
 30
0.0
 11
26.46425788947451
 21
45.4699992985561
 31
0.0
  0
LINE
  5
591
330
1F
100
AcDbEntity
  8
0
 48
0.15
100
AcDbLine
 10
26.46425788947451
 20
54.59710737725709
 30
0.0
 11
26.33925788947451
 21
54.59710737725709
 31
0.0
  0
LINE
  5
592
330
1F
100
AcDbEntity
  8
0
 48
0.15
100
AcDbLine
 10
25.7343249318337
 20
53.73660298556479
 30
0.0
 11
26.33925788947451
 21
53.73660298556479
 31
0.0
  0
LINE
  5
593
330
1F
100
AcDbEntity
  8
0
 48
0.15
100
AcDbLine
 10
26.46425788947451
 20
53.73660298556479
 30
0.0
 11
27.05339775141508
 21
53.73660298556479
 31
0.0
  0
LINE
  5
594
330
1F
100
AcDbEntity
  8
0
 48
0.15
100
AcDbLine
 10
26.69954383287038
 20
54.4355851121918
 30
0.0
 11
26.46425788947451
 21
54.4355851121918
 31
0.0
  0
LINE
  5
595
330
1F
100
AcDbEntity
  8
0
 48
0.15
100
AcDbLine
 10
25.36187908871577
 20
54.4355851121918
 30
0.0
 11
25.36187908871577
 21
54.91767951209204
 31
0.0
  0
LINE
  5
596
330
1F
100
AcDbEntity
  8
0
 48
0.15
100
AcDbLine
 10
25.36187908871577
 20
54.91767951209204
 30
0.0
 11
25.50805935757305
 21
54.91767951209204
 31
0.0
  0
LINE
  5
597
330
1F
100
AcDbEntity
  8
0
 48
0.15
100
AcDbLine
 10
26.69954383287038
 20
54.4355851121918
 30
0.0
 11
26.69954383287038
 21
54.91767951209204
 31
0.0
  0
LINE
  5
598
330
1F
100
AcDbEntity
  8
0
 48
0.15
100
AcDbLine
 10
26.69954383287038
 20
54.91767951209204
 30
0.0
 11
26.5533635640131
 21
54.91767951209204
 31
0.0
  0
ARC
  5
599
330
1F
100
AcDbEntity
  8
0
 48
0.15
100
AcDbCircle
 10
26.03071146079307
 20
54.39502740887201
 30
0.0
 40
0.7391416927765827
100
AcDbArc
 50
45.00000000000001
 51
134.9999999999999
  0
LINE
  5
59A
330
1F
100
AcDbEntity
  8
0
 48
0.15
100
AcDbLine
 10
25.60932493183188
 20
54.4355851121918
 30
0.0
 11
25.36187908871577
 21
54.4355851121918
 31
0.0
  0
LINE
  5
59B
330
1F
100
AcDbEntity
  8
0
 48
0.15
100
AcDbLine
 10
26.33925788947451
 20
54.4355851121918
 30
0.0
 11
25.7343249318337
 21
54.4355851121918
 31
0.0
  0
MTEXT
  5
59C
330
1F
100
AcDbEntity
  8
DIM
 62
     3
100
AcDbMText
 10
42.55334244974434
 20
43.53114409486852
 30
0.0
 40
1.0
 41
22.68954545454545
 71
     1
 72
     5
  1
WINDOW BY OTHERS
  7
RomanC
 73
     1
 44
1.0
1001
ACAD
1000
MTEXTBEGIN
1070
    73
1070
     1
1070
    44
1040
1.0
1070
    74
1070
     0
1000
MTEXTEND
  0
MTEXT
  5
59D
330
1F
100
AcDbEntity
  8
DIM
 62
     3
100
AcDbMText
 10
42.55334244974434
 20
58.17367163962308
 30
0.0
 40
1.0
 41
22.68954545454545
 71
     1
 72
     5
  1
V-BUCK FORM
  7
RomanC
 73
     1
 44
1.0
1001
ACAD
1000
MTEXTBEGIN
1070
    73
1070
     1
1070
    44
1040
1.0
1070
    74
1070
     0
1000
MTEXTEND
  0
MTEXT
  5
59E
330
1F
100
AcDbEntity
  8
DIM
 62
     3
100
AcDbMText
 10
42.55334244974434
 20
69.60153634132485
 30
0.0
 40
1.0
 41
22.68954545454545
 71
     1
 72
     5
  1
INTERIOR GYPSUM WALLBOARD FASTEN TO TIES
  7
RomanC
 73
     1
 44
1.0
1001
ACAD
1000
MTEXTBEGIN
1070
    73
1070
     1
1070
    44
1040
1.0
1070
    74
1070
     0
1000
MTEXTEND
  0
MTEXT
  5
59F
330
1F
100
AcDbEntity
  8
DIM
 62
     3
100
AcDbMText
 10
42.55334244974434
 20
74.89459442897032
 30
0.0
 40
1.0
 41
22.68954545454545
 71
     1
 72
     5
  1
REINFORCEMENT PER ENGINEER
  7
RomanC
 73
     1
 44
1.0
1001
ACAD
1000
MTEXTBEGIN
1070
    73
1070
     1
1070
    44
1040
1.0
1070
    74
1070
     0
1000
MTEXTEND
  0
LWPOLYLINE
  5
5A0
330
1F
100
AcDbEntity
  8
0
 48
0.15
100
AcDbPolyline
 90
        2
 70
     1
 43
0.25
 10
29.77301216880457
 20
67.99699085789416
 42
1.0
 10
30.02301216880457
 20
67.99699085789416
 42
1.0
  0
LWPOLYLINE
  5
5A1
330
1F
100
AcDbEntity
  8
0
 48
0.15
100
AcDbPolyline
 90
        2
 70
     1
 43
0.25
 10
28.21805990829759
 20
67.99699085789416
 42
1.0
 10
28.46805990829759
 20
67.99699085789416
 42
1.0
  0
LWPOLYLINE
  5
5A2
330
1F
100
AcDbEntity
  8
0
 48
0.15
100
AcDbPolyline
 90
        2
 70
     1
 43
0.25
 10
29.77301216880457
 20
61.81976792089426
 42
1.0
 10
30.02301216880457
 20
61.81976792089426
 42
1.0
  0
LWPOLYLINE
  5
5A3
330
1F
100
AcDbEntity
  8
0
 48
0.15
100
AcDbPolyline
 90
        2
 70
     1
 43
0.25
 10
28.21805990829759
 20
61.81976792089426
 42
1.0
 10
28.46805990829759
 20
61.81976792089426
 42
1.0
  0
LEADER
  5
5A4
330
1F
100
AcDbEntity
  8
DIM
 48
0.15
100
AcDbLeader
  3
ARCTEXT 1-1
 76
     3
 10
26.46425788947451
 20
50.6388025107558
 30
0.0
 10
34.51498609915868
 20
43.01540936548554
 30
0.0
 10
41.59492381429024
 20
43.01540936548554
 30
0.0
1001
ACAD
1000
DSTYLE
1002
{
1070
    40
1040
1.0
1070
    41
1040
0.5
1070
    77
1070
     0
1002
}
  0
LEADER
  5
5A5
330
1F
100
AcDbEntity
  8
DIM
 48
0.15
100
AcDbLeader
  3
ARCTEXT 1-1
 76
     2
 10
33.11866897783963
 20
57.92133175913978
 30
0.0
 10
41.66220362888722
 20
57.92133175913978
 30
0.0
1001
ACAD
1000
DSTYLE
1002
{
1070
    40
1040
1.0
1070
    41
1040
0.5
1070
    77
1070
     0
1002
}
  0
LEADER
  5
5A6
330
1F
100
AcDbEntity
  8
DIM
 48
0.15
100
AcDbLeader
  3
ARCTEXT 1-1
 76
     2
 10
33.61866897783964
 20
69.03054282110042
 30
0.0
 10
41.79745496280972
 20
69.03054282110042
 30
0.0
1001
ACAD
1000
DSTYLE
1002
{
1070
    40
1040
1.0
1070
    41
1040
0.5
1070
    77
1070
     0
1002
}
  0
LEADER
  5
5A7
330
1F
100
AcDbEntity
  8
DIM
 48
0.15
100
AcDbLeader
  3
ARCTEXT 1-1
 76
     3
 10
28.34305990829759
 20
67.87199085789416
 30
0.0
 10
34.90729009889307
 20
74.43622104848964
 30
0.0
 10
41.59556940538183
 20
74.43622104848964
 30
0.0
1001
ACAD
1000
DSTYLE
1002
{
1070
    40
1040
1.0
1070
    41
1040
0.5
1070
    77
1070
     0
1002
}
  0
LINE
  5
5A8
330
1F
100
AcDbEntity
  8
A5 heavy
 48
0.15
100
AcDbLine
 10
24.99366897783963
 20
59.67133175913978
 30
0.0
 11
24.99366897783963
 21
57.17133175914023
 31
0.0
  0
LINE
  5
5A9
330
1F
100
AcDbEntity
  8
A5 heavy
 48
0.15
100
AcDbLine
 10
24.99366897783963
 20
57.17133175914023
 30
0.0
 11
33.24366897783872
 21
57.17133175914023
 31
0.0
  0
LINE
  5
5AA
330
1F
100
AcDbEntity
  8
A5 heavy
 48
0.15
100
AcDbLine
 10
33.24366897783963
 20
59.67133175913978
 30
0.0
 11
33.24366897783872
 21
57.17133175914023
 31
0.0
  0
LINE
  5
5AB
330
1F
100
AcDbEntity
  8
A5 heavy
 48
0.15
100
AcDbLine
 10
33.11866897783963
 20
59.67133175913978
 30
0.0
 11
33.24366897783963
 21
59.67133175913978
 31
0.0
  0
LINE
  5
5AC
330
1F
100
AcDbEntity
  8
A5 heavy
 48
0.15
100
AcDbLine
 10
25.11866897783963
 20
59.67133175913978
 30
0.0
 11
24.99366897783963
 21
59.67133175913978
 31
0.0
  0
LINE
  5
5AD
330
1F
100
AcDbEntity
  8
A2 Hatch
 48
0.15
100
AcDbLine
 10
26.29660214795237
 20
58.67133175914023
 30
0.0
 11
26.29660214795237
 21
57.17133175914023
 31
0.0
  0
LINE
  5
5AE
330
1F
100
AcDbEntity
  8
A2 Hatch
 48
0.15
100
AcDbLine
 10
31.93254405044078
 20
58.67133175913977
 30
0.0
 11
31.93254405044078
 21
57.17133175914023
 31
0.0
  0
LINE
  5
5AF
330
1F
100
AcDbEntity
  8
A2 Hatch
 48
0.15
100
AcDbLine
 10
28.59104444772763
 20
58.67133175913932
 30
0.0
 11
28.59104444772763
 21
57.17133175914023
 31
0.0
  0
LINE
  5
5B0
330
1F
100
AcDbEntity
  8
A2 Hatch
 48
0.15
100
AcDbLine
 10
29.64629350795164
 20
58.67133175913932
 30
0.0
 11
29.64629350795164
 21
57.17133175914023
 31
0.0
  0
LINE
  5
5B1
330
1F
100
AcDbEntity
  8
A5 heavy
 48
0.15
100
AcDbLine
 10
29.11866897783963
 20
58.67133175913977
 30
0.0
 11
29.11866897783963
 21
59.73254459424516
 31
0.0
  0
LINE
  5
5B2
330
1F
100
AcDbEntity
  8
A5 heavy
 48
0.15
100
AcDbLine
 10
29.11866897783963
 20
59.73254459424516
 30
0.0
 11
28.62935922346603
 21
59.73254459424516
 31
0.0
  0
LWPOLYLINE
  5
5B3
330
1F
100
AcDbEntity
  8
A5 heavy
 48
0.15
100
AcDbPolyline
 90
        3
 70
     0
 43
0.0
 10
33.11866897783963
 20
59.67133175913978
 10
33.11866897783963
 20
58.67133175913977
 10
31.11866897783964
 20
58.67133175913932
  0
LWPOLYLINE
  5
5B4
330
1F
100
AcDbEntity
  8
A5 heavy
 48
0.15
100
AcDbPolyline
 90
        3
 70
     0
 43
0.0
 10
27.11866897783963
 20
58.67133175913886
 10
25.11866897783872
 20
58.67133175913932
 10
25.11866897783963
 20
59.67133175913978
  0
MTEXT
  5
5B5
330
1F
100
AcDbEntity
  8
DIM
 62
     3
100
AcDbMText
 10
42.72219007746386
 20
50.90818648758113
 30
0.0
 40
1.0
 41
22.68954545454545
 71
     1
 72
     5
  1
WINDOW ATTACHMENT PER MANUFACTURER
  7
RomanC
 73
     1
 44
1.0
1001
ACAD
1000
MTEXTBEGIN
1070
    73
1070
     1
1070
    44
1040
1.0
1070
    74
1070
     0
1000
MTEXTEND
  0
LEADER
  5
5B6
330
1F
100
AcDbEntity
  8
DIM
 48
0.15
100
AcDbLeader
  3
ARCTEXT 1-1
 76
     3
 10
25.44939029304712
 20
57.91596916350409
 30
0.0
 10
34.74100364479907
 20
50.29888218155338
 30
0.0
 10
41.69809827140213
 20
50.29888218155338
 30
0.0
1001
ACAD
1000
DSTYLE
1002
{
1070
    40
1040
1.0
1070
    41
1040
0.5
1070
    77
1070
     0
1002
}
  0
LINE
  5
5B7
330
1F
100
AcDbEntity
  8
A5 heavy
 48
0.15
100
AcDbLine
 10
24.61866897783873
 20
57.66596916350408
 30
0.0
 11
24.61866897783873
 21
58.16596916350409
 31
0.0
  0
LINE
  5
5B8
330
1F
100
AcDbEntity
  8
A5 heavy
 48
0.15
100
AcDbLine
 10
24.61866897783873
 20
57.91596916350409
 30
0.0
 11
26.28011160825551
 21
57.91596916350363
 31
0.0
  0
LINE
  5
5B9
330
1F
100
AcDbEntity
  8
0
 48
0.15
100
AcDbLine
 10
24.99366897783963
 20
58.89009290953708
 30
0.0
 11
24.61866897783963
 21
58.89009290953708
 31
0.0
  0
LINE
  5
5BA
330
1F
100
AcDbEntity
  8
0
 48
0.15
100
AcDbLine
 10
33.61866897783964
 20
56.67133175913978
 30
0.0
 11
27.98812652499052
 21
56.67133175913978
 31
0.0
  0
ENDSEC
  0
SECTION
  2
OBJECTS
  0
DICTIONARY
  5
C
330
0
100
AcDbDictionary
281
     1
  3
ACAD_COLOR
350
73
  3
ACAD_GROUP
350
D
  3
ACAD_LAYOUT
350
1A
  3
ACAD_MATERIAL
350
72
  3
ACAD_MLINESTYLE
350
17
  3
ACAD_PLOTSETTINGS
350
19
  3
ACAD_PLOTSTYLENAME
350
E
  3
ACDBHEADERROUNDTRIPXREC
350
5BC
  3
AcDbVariableDictionary
350
66
  0
DICTIONARY
  5
A4
330
2
100
AcDbDictionary
280
     1
281
     1
  3
ACAD_LAYERSTATES
360
A5
  0
DICTIONARY
  5
73
102
{ACAD_REACTORS
330
C
102
}
330
C
100
AcDbDictionary
281
     1
  0
DICTIONARY
  5
D
102
{ACAD_REACTORS
330
C
102
}
330
C
100
AcDbDictionary
281
     1
  0
DICTIONARY
  5
1A
102
{ACAD_REACTORS
330
C
102
}
330
C
100
AcDbDictionary
281
     1
  3
Layout1
350
59
  3
Layout2
350
5E
  3
Model
350
22
  0
DICTIONARY
  5
72
102
{ACAD_REACTORS
330
C
102
}
330
C
100
AcDbDictionary
281
     1
  0
DICTIONARY
  5
17
102
{ACAD_REACTORS
330
C
102
}
330
C
100
AcDbDictionary
281
     1
  3
Standard
350
18
  0
DICTIONARY
  5
19
102
{ACAD_REACTORS
330
C
102
}
330
C
100
AcDbDictionary
281
     1
  0
ACDBDICTIONARYWDFLT
  5
E
102
{ACAD_REACTORS
330
C
102
}
330
C
100
AcDbDictionary
281
     1
  3
Normal
350
F
100
AcDbDictionaryWithDefault
340
F
  0
DICTIONARY
  5
5BC
102
{ACAD_REACTORS
330
C
102
}
330
C
100
AcDbDictionary
281
     1
  3
COLORDICT
350
5BE
  3
MATERIALDICT
350
5BD
  0
DICTIONARY
  5
66
102
{ACAD_REACTORS
330
C
102
}
330
C
100
AcDbDictionary
281
     1
  3
DIMASSOC
350
67
  3
HIDETEXT
350
6B
  3
PROJECTNAME
350
33A
  0
DICTIONARY
  5
A5
102
{ACAD_REACTORS
330
A4
102
}
330
A4
100
AcDbDictionary
281
     1
  0
LAYOUT
  5
59
102
{ACAD_XDICTIONARY
360
5C1
102
}
102
{ACAD_REACTORS
330
1A
102
}
330
1A
100
AcDbPlotSettings
  1

  2
None
  4

  6

 40
0.0
 41
0.0
 42
0.0
 43
0.0
 44
0.0
 45
0.0
 46
0.0
 47
0.0
 48
0.0
 49
0.0
140
0.0
141
0.0
142
1.0
143
1.0
 70
   688
 72
     0
 73
     0
 74
     5
  7

 75
    16
147
1.0
148
0.0
149
0.0
100
AcDbLayout
  1
Layout1
 70
     1
 71
     1
 10
0.0
 20
0.0
 11
12.0
 21
9.0
 12
0.0
 22
0.0
 32
0.0
 14
0.0
 24
0.0
 34
0.0
 15
0.0
 25
0.0
 35
0.0
146
0.0
 13
0.0
 23
0.0
 33
0.0
 16
1.0
 26
0.0
 36
0.0
 17
0.0
 27
1.0
 37
0.0
 76
     0
330
58
  0
LAYOUT
  5
5E
102
{ACAD_XDICTIONARY
360
5C3
102
}
102
{ACAD_REACTORS
330
1A
102
}
330
1A
100
AcDbPlotSettings
  1

  2
None
  4

  6

 40
0.0
 41
0.0
 42
0.0
 43
0.0
 44
0.0
 45
0.0
 46
0.0
 47
0.0
 48
0.0
 49
0.0
140
0.0
141
0.0
142
1.0
143
1.0
 70
   688
 72
     0
 73
     0
 74
     5
  7

 75
    16
147
1.0
148
0.0
149
0.0
100
AcDbLayout
  1
Layout2
 70
     1
 71
     2
 10
0.0
 20
0.0
 11
12.0
 21
9.0
 12
0.0
 22
0.0
 32
0.0
 14
0.0
 24
0.0
 34
0.0
 15
0.0
 25
0.0
 35
0.0
146
0.0
 13
0.0
 23
0.0
 33
0.0
 16
1.0
 26
0.0
 36
0.0
 17
0.0
 27
1.0
 37
0.0
 76
     0
330
5D
  0
LAYOUT
  5
22
102
{ACAD_XDICTIONARY
360
5BF
102
}
102
{ACAD_REACTORS
330
1A
102
}
330
1A
100
AcDbPlotSettings
  1

  2
none_device
  4
ANSI_A_(8.50_x_11.00_Inches)
  6

 40
6.349999904632568
 41
19.04999923706055
 42
6.350006103515625
 43
19.04998779296875
 44
215.8999938964844
 45
279.3999938964844
 46
0.0
 47
0.0
 48
0.0
 49
0.0
140
0.0
141
0.0
142
1.0
143
2.584895464708373
 70
 11952
 72
     0
 73
     1
 74
     0
  7

 75
     0
147
0.3868628397755418
148
0.0
149
0.0
100
AcDbLayout
  1
Model
 70
     1
 71
     0
 10
0.0
 20
0.0
 11
12.0
 21
9.0
 12
0.0
 22
0.0
 32
0.0
 14
0.0
 24
0.0
 34
0.0
 15
0.0
 25
0.0
 35
0.0
146
0.0
 13
0.0
 23
0.0
 33
0.0
 16
1.0
 26
0.0
 36
0.0
 17
0.0
 27
1.0
 37
0.0
 76
     0
330
1F
  0
MLINESTYLE
  5
18
102
{ACAD_REACTORS
330
17
102
}
330
17
100
AcDbMlineStyle
  2
STANDARD
 70
     0
  3

 62
   256
 51
90.0
 52
90.0
 71
     2
 49
0.5
 62
   256
  6
BYLAYER
 49
-0.5
 62
   256
  6
BYLAYER
  0
ACDBPLACEHOLDER
  5
F
102
{ACAD_REACTORS
330
E
102
}
330
E
  0
XRECORD
  5
5BE
102
{ACAD_REACTORS
330
5BC
102
}
330
5BC
100
AcDbXrecord
280
     1
340
73
  0
XRECORD
  5
5BD
102
{ACAD_REACTORS
330
5BC
102
}
330
5BC
100
AcDbXrecord
280
     1
340
72
  0
DICTIONARYVAR
  5
67
102
{ACAD_REACTORS
330
66
102
}
330
66
100
DictionaryVariables
280
     0
  1
2
  0
DICTIONARYVAR
  5
6B
102
{ACAD_REACTORS
330
66
102
}
330
66
100
DictionaryVariables
280
     0
  1
1
  0
DICTIONARYVAR
  5
33A
102
{ACAD_REACTORS
330
66
102
}
330
66
100
DictionaryVariables
280
     0
  1

  0
DICTIONARY
  5
5C1
330
59
100
AcDbDictionary
280
     1
281
     1
  3
ACAD_XREC_ROUNDTRIP
360
5C2
  0
DICTIONARY
  5
5C3
330
5E
100
AcDbDictionary
280
     1
281
     1
  3
ACAD_XREC_ROUNDTRIP
360
5C4
  0
DICTIONARY
  5
5BF
330
22
100
AcDbDictionary
280
     1
281
     1
  3
ACAD_XREC_ROUNDTRIP
360
5C0
  0
XRECORD
  5
5C2
102
{ACAD_REACTORS
330
5C1
102
}
330
5C1
100
AcDbXrecord
280
     1
102
SHADEPLOT
 70
     0
102
SHADEPLOTRESLEVEL
 70
     2
102
SHADEPLOTCUSTOMDPI
 70
   300
  0
XRECORD
  5
5C4
102
{ACAD_REACTORS
330
5C3
102
}
330
5C3
100
AcDbXrecord
280
     1
102
SHADEPLOT
 70
     0
102
SHADEPLOTRESLEVEL
 70
     2
102
SHADEPLOTCUSTOMDPI
 70
   300
  0
XRECORD
  5
5C0
102
{ACAD_REACTORS
330
5BF
102
}
330
5BF
100
AcDbXrecord
280
     1
102
SHADEPLOT
 70
     0
102
SHADEPLOTRESLEVEL
 70
     2
102
SHADEPLOTCUSTOMDPI
 70
   300
  0
ENDSEC
  0
EOF
